<svg xmlns="http://www.w3.org/2000/svg" viewBox="0 0 844.83 603.69"><defs><style>.cls-1{isolation:isolate;}.cls-10,.cls-2{fill:#007cc7;}.cls-2{opacity:0.1;}.cls-14,.cls-3{fill:#99ade5;}.cls-3{opacity:0.29;}.cls-12,.cls-13,.cls-3{mix-blend-mode:multiply;}.cls-4{fill:#fff88e;}.cls-5{fill:#ccc;}.cls-6{fill:#e6e6e6;}.cls-7{opacity:0.73;}.cls-8{fill:#fff;}.cls-9{opacity:0.72;}.cls-11{fill:#666;}.cls-12{opacity:0.22;}.cls-13{opacity:0.08;}.cls-15{fill:#afc7d7;}.cls-16{fill:gray;}.cls-17{fill:#999;}.cls-18{fill:none;stroke:#000;stroke-miterlimit:10;stroke-width:1.08px;}.cls-19{fill:#bad795;}.cls-20{fill:#fda589;}.cls-21{fill:#2d294c;}.cls-22{fill:#ebebeb;}.cls-23{fill:#181b2d;}.cls-24{fill:#917e2c;}.cls-25{fill:#0e2436;}.cls-26{fill:#707c99;}.cls-27{fill:#bda746;}.cls-28{fill:#a39f9f;}.cls-29{fill:#9a4545;}.cls-30{fill:#f28561;}.cls-31{fill:#e0d6d3;}.cls-32{fill:#8ea574;}.cls-33{fill:#bcafb1;}</style></defs><title>47</title><g class="cls-1"><g id="Layer_1" data-name="Layer 1"><path class="cls-2" d="M844.18,284.44c-4.52,40.48-20,63-38.74,78.25-31.83,25.92-73,30.86-85.62,67.34-5.6,16.22-7.23,34,1.33,49.5,6.07,11,15.94,18.66,24.22,27.81,41.49,45.85-26,76.69-38.94,81.67a215.94,215.94,0,0,1-47.74,12c-33.05,4.62-66.89,2.84-99.66-3-20.68-3.67-94.38-20.38-111-25.39-3.88-1.17-112.13-29.48-217.84-25.32-26,1-51.91,2.15-77.82,3.79-21.36,1.35-46.4-2-66.54-11.94C63.12,528,41.43,513.09,26.68,492.67-.52,455-11.1,398.16,15,354.93c.64-1.06,1.29-2.13,2-3.21,67.32-107.3,147-75.6,181.79-195.47S401.87.33,569.2,0s130.65,103.57,127,156.25S856.36,175.17,844.18,284.44Z"/><path class="cls-3" d="M703.65,328.75V382H672.74c-32,0-65.16,2.55-96.94.26-16.25-1.17-31.76-4.53-48.24-4.18a225.4,225.4,0,0,0-45.49,5.66c-10.51,2.43-20.85,5.6-31.4,7.84-24.68,5.22-45.77,4-70.43-1.36-13.67-2.94-31.65-6.3-45.38-8.89-16.47-3.1-31.47.29-47.64.62-16.76.34-32.89,7.27-49.11,10.75-9.44,2-19.11,2.82-28.75,3.53-19.41,1.45-38.94,2.64-58.33.93-5.32-.47-10.63-1.16-15.9-2.13C124,393,113.78,388.71,103,385.57c-9.4-2.73-17.45-9.45-22.72-17.59a3.62,3.62,0,0,1-.81-2.4c.25-1.61,8.3-5.46,10-6.56q6.13-4,12.34-7.89c7.85-4.92,15.77-9.72,23.64-14.59,15.48-9.6,30.8-19.55,44.75-31.3h.32v9.25h11.57v6.94H212.5V299.07h19.66v8.09h9.64v-9.25h27.38V287.12h18.49v8.09h9.26V355h7.33V298.29H348.2V321h23.13v33.54h10V330.3h12.72V318.35h14.26v12.33h20.05V318.35h3.47V298.68l10-15.8,9.24,14.65V332.6h18.12V298.68h40.49v38.16h9.64V284.39H547.9V272.85h30.46v20.44H615v22.35h12V290.58h15.41V255.89h43.57v72.86Z"/><circle class="cls-4" cx="303.76" cy="96.55" r="59.67"/><path class="cls-5" d="M453.24,139.3c0-9.12-23.16-16.52-51.74-16.52-28.22,0-51.17,7.21-51.75,16.18V378.24a40.48,40.48,0,0,0,.08,4.55c9.83,1,18.5,4.4,28.09,6.66a97.61,97.61,0,0,0,16.26,2.07,263.71,263.71,0,0,0,33.38.32c5.3-.34,11-1.86,16.22-1.69,3.1.09,6.26,1.13,9.41,1.38,0-6.76,0-13.52,0-20.29V140.1A5.29,5.29,0,0,0,453.24,139.3Z"/><path class="cls-6" d="M453.25,139.3a5.29,5.29,0,0,1-.07.8v14c-6.86-5.93-21.65-18.18-47.7-17.27-33.72,1.19-50.77,10-55.73,14.68V139h0c.57-9,23.52-16.18,51.74-16.18C430.07,122.78,453.25,130.18,453.25,139.3Z"/><g class="cls-7"><path class="cls-4" d="M359.6,205.35V214c-1.53.48-3.05,1-4.56,1.53-.88.32-1.76.65-2.63,1-.38.14-.75.3-1.13.45l0,0h-.1l-.13.06H351l0,0h0s0,0,0,0l-.68.31v-8.89C353.26,207.35,356.41,206.29,359.6,205.35Z"/><path class="cls-4" d="M369.82,202.83v8.5c-1.27.27-2.54.57-3.8.88-1.89.47-3.76,1-5.62,1.55v-8.64C363.5,204.24,366.65,203.48,369.82,202.83Z"/><path class="cls-4" d="M390.27,200.14v8.3c-1.35.09-2.7.21-4,.34s-2.58.26-3.87.42l-1.5.18V201C384,200.64,387.13,200.35,390.27,200.14Z"/><path class="cls-4" d="M400.49,199.73V208c-2.05,0-4.11.08-6.16.19-1.08.05-2.17.11-3.26.19v-8.3q3.63-.22,7.25-.31Z"/><path class="cls-8" d="M410.71,199.94v8.29l-.67,0c-2.92-.15-5.83-.22-8.75-.21v-8.27Q406,199.69,410.71,199.94Z"/><path class="cls-4" d="M431.16,202.49V211q-3.15-.67-6.33-1.2l-2.05-.32-1-.15v-8.34C424.9,201.35,428,201.86,431.16,202.49Z"/><path class="cls-4" d="M441.38,205v8.63l-.11,0c-3.06-.95-6.17-1.77-9.31-2.47v-8.48Q436.73,203.64,441.38,205Z"/></g><g class="cls-9"><path class="cls-10" d="M359.6,217.72v8.65c-1.53.48-3.05,1-4.56,1.53-.88.32-1.76.65-2.63,1l-1.13.45,0,0h-.1l-.13.06H351l0,0h-.05l-.68.3v-8.89C353.26,219.72,356.41,218.66,359.6,217.72Z"/><path class="cls-10" d="M369.82,215.2v8.5c-1.27.27-2.54.57-3.8.88-1.89.47-3.76,1-5.62,1.55v-8.64C363.5,216.61,366.65,215.85,369.82,215.2Z"/><path class="cls-8" d="M380,213.51v8.36l-.54.08q-4.46.65-8.88,1.57V215C373.74,214.43,376.89,213.92,380,213.51Z"/><path class="cls-10" d="M390.27,212.51v8.3c-1.35.1-2.7.21-4,.34s-2.58.26-3.87.42l-1.5.19v-8.35C384,213,387.13,212.72,390.27,212.51Z"/><path class="cls-10" d="M400.49,212.1v8.27c-2.05,0-4.11.08-6.16.19-1.08.05-2.17.12-3.26.19v-8.3q3.63-.22,7.25-.31Z"/><path class="cls-10" d="M420.93,213.21v8.33c-1.07-.14-2.15-.26-3.23-.38q-3.09-.32-6.18-.51v-8.29Q416.23,212.63,420.93,213.21Z"/><path class="cls-10" d="M441.38,217.37V226l-.11,0c-3.06-.95-6.17-1.77-9.31-2.47V215Q436.73,216,441.38,217.37Z"/><path class="cls-10" d="M451.61,220.87v8.91a89.28,89.28,0,0,0-9.42-3.52V217.6C445.37,218.56,448.52,219.64,451.61,220.87Z"/></g><g class="cls-7"><path class="cls-8" d="M359.6,279.75v8.65q-2.3.71-4.56,1.53c-.88.32-1.76.65-2.63,1-.38.14-.75.3-1.13.45l0,0h-.07l0,0-.13.05,0,0h0l0,0h-.05l-.68.31V283C353.26,281.75,356.41,280.68,359.6,279.75Z"/><path class="cls-10" d="M369.82,277.23v8.49c-1.27.28-2.54.57-3.8.89q-2.83.7-5.62,1.54v-8.63C363.5,278.63,366.65,277.88,369.82,277.23Z"/><path class="cls-10" d="M390.27,274.53v8.3c-1.35.1-2.7.22-4,.35s-2.58.26-3.87.42l-1.5.18v-8.35C384,275,387.13,274.75,390.27,274.53Z"/><path class="cls-10" d="M400.49,274.13v8.27c-2.05,0-4.11.08-6.16.18-1.08.06-2.17.12-3.26.2v-8.3q3.63-.23,7.25-.31Z"/><path class="cls-10" d="M420.93,275.24v8.33c-1.07-.14-2.15-.27-3.23-.38q-3.09-.31-6.18-.51v-8.3C414.66,274.57,417.8,274.85,420.93,275.24Z"/><path class="cls-10" d="M451.61,282.9v8.91a91.54,91.54,0,0,0-9.42-3.53v-8.65C445.37,280.58,448.52,281.67,451.61,282.9Z"/></g><g class="cls-7"><path class="cls-4" d="M359.6,230.1v8.65c-1.53.47-3.05,1-4.56,1.52-.88.32-1.76.65-2.63,1l-1.13.45,0,0h-.1l-.13.06H351l0,0h-.05l-.68.3v-8.89C353.26,232.1,356.41,231,359.6,230.1Z"/><path class="cls-4" d="M380,225.88v8.36l-.54.08q-4.46.65-8.88,1.57v-8.48C373.74,226.8,376.89,226.29,380,225.88Z"/><path class="cls-4" d="M390.27,224.88v8.3c-1.35.1-2.7.21-4,.34s-2.58.27-3.87.42l-1.5.19v-8.35C384,225.39,387.13,225.09,390.27,224.88Z"/><path class="cls-4" d="M400.49,224.47v8.27c-2.05,0-4.11.08-6.16.19-1.08,0-2.17.12-3.26.19v-8.29c2.42-.16,4.84-.26,7.25-.32Z"/><path class="cls-4" d="M410.71,224.68V233l-.67,0c-2.92-.15-5.83-.22-8.75-.2v-8.28Q406,224.45,410.71,224.68Z"/><path class="cls-8" d="M420.93,225.58v8.33c-1.07-.14-2.15-.26-3.23-.38q-3.09-.32-6.18-.5v-8.3Q416.23,225,420.93,225.58Z"/><path class="cls-4" d="M431.16,227.23v8.47q-3.15-.69-6.33-1.21l-2.05-.32-1-.15v-8.34C424.9,226.09,428,226.6,431.16,227.23Z"/><path class="cls-4" d="M451.61,233.24v8.91a89.28,89.28,0,0,0-9.42-3.52V230C445.37,230.93,448.52,232,451.61,233.24Z"/></g><g class="cls-7"><path class="cls-4" d="M359.6,265.49v8.65q-2.3.71-4.56,1.52c-.88.32-1.76.66-2.63,1l-1.13.46,0,0h-.07l0,0-.13.05,0,0h-.11l-.68.31v-8.9C353.26,267.49,356.41,266.42,359.6,265.49Z"/><path class="cls-4" d="M380,261.27v8.36l-.54.08c-3,.44-5.93,1-8.88,1.58v-8.48C373.74,262.19,376.89,261.68,380,261.27Z"/><path class="cls-8" d="M400.49,259.87v8.27c-2.05,0-4.11.08-6.16.18-1.08.06-2.17.12-3.26.2v-8.3c2.42-.15,4.84-.26,7.25-.31C399,259.89,399.77,259.87,400.49,259.87Z"/><path class="cls-4" d="M410.71,260.08v8.29l-.67,0c-2.92-.15-5.83-.21-8.75-.2v-8.27Q406,259.83,410.71,260.08Z"/><path class="cls-4" d="M420.93,261v8.32c-1.07-.14-2.15-.26-3.23-.37-2.06-.21-4.12-.39-6.18-.51v-8.3C414.66,260.31,417.8,260.59,420.93,261Z"/><path class="cls-4" d="M431.16,262.63v8.46q-3.15-.68-6.33-1.2l-2.05-.32c-.08,0-.69-.11-1-.15v-8.34Q426.48,261.68,431.16,262.63Z"/><path class="cls-4" d="M451.61,268.64v8.91a91.54,91.54,0,0,0-9.42-3.53v-8.65C445.37,266.32,448.52,267.41,451.61,268.64Z"/></g><g class="cls-7"><path class="cls-4" d="M359.6,312.66v8.64c-1.53.48-3.05,1-4.56,1.53-.88.32-1.76.65-2.63,1l-1.13.45,0,0h-.1l-.13.06H351l0,0h-.05l-.68.3v-8.89C353.26,314.66,356.41,313.59,359.6,312.66Z"/><path class="cls-4" d="M380,308.44v8.36l-.54.08q-4.46.64-8.88,1.57V310C373.74,309.36,376.89,308.85,380,308.44Z"/><path class="cls-4" d="M390.27,307.44v8.3c-1.35.1-2.7.21-4,.34s-2.58.26-3.87.42l-1.5.19v-8.35C384,308,387.13,307.65,390.27,307.44Z"/><path class="cls-4" d="M410.71,307.24v8.3l-.67,0c-2.92-.15-5.83-.22-8.75-.2V307Q406,307,410.71,307.24Z"/><path class="cls-8" d="M431.16,309.79v8.47q-3.15-.69-6.33-1.21l-2.05-.32-1-.15v-8.34C424.9,308.65,428,309.16,431.16,309.79Z"/><path class="cls-4" d="M451.61,315.8v8.91a89.28,89.28,0,0,0-9.42-3.52v-8.66C445.37,313.49,448.52,314.57,451.61,315.8Z"/></g><g class="cls-7"><path class="cls-4" d="M362.32,147.77c.32,2.87.63,5.73.95,8.6q-2.24,1-4.41,2.06c-.84.44-1.68.89-2.5,1.35l-1.06.61-.05,0h-.06l0,0-.12.07,0,0h0l0,0h-.05l-.64.41c-.43-2.94-.87-5.87-1.3-8.8A82.85,82.85,0,0,1,362.32,147.77Z"/><path class="cls-4" d="M372.84,144.28l.6,8.47c-1.29.37-2.56.76-3.82,1.19-1.88.63-3.74,1.33-5.56,2.09l-.93-8.58A88.82,88.82,0,0,1,372.84,144.28Z"/><path class="cls-4" d="M383.6,142c.08,2.79.17,5.57.26,8.36l-.56.09c-3.05.55-6.08,1.22-9.05,2.05l-.57-8.47C376.93,143.22,380.25,142.54,383.6,142Z"/><path class="cls-4" d="M394.5,140.89c0,2.77-.05,5.53-.08,8.3-1.39.09-2.79.2-4.18.34s-2.68.3-4,.48l-1.54.23-.24-8.35C387.78,141.41,391.14,141.07,394.5,140.89Z"/><path class="cls-10" d="M405.43,140.78c-.13,2.76-.26,5.51-.4,8.27-2.13-.09-4.26-.1-6.39-.05-1.13,0-2.25.08-3.38.14l.09-8.3q3.9-.18,7.76-.12C403.89,140.73,404.66,140.75,405.43,140.78Z"/><path class="cls-10" d="M416.33,141.72c-.24,2.76-.49,5.51-.73,8.27l-.69-.1c-3-.4-6-.67-9-.81l.42-8.26Q411.31,141,416.33,141.72Z"/><path class="cls-10" d="M427.09,143.78c-.36,2.75-.71,5.51-1.06,8.26-1.09-.28-2.18-.53-3.28-.77-2.09-.46-4.2-.84-6.32-1.16l.75-8.26A100.8,100.8,0,0,1,427.09,143.78Z"/><path class="cls-10" d="M437.61,147l-1.41,8.34q-3.07-1.2-6.26-2.18c-.68-.21-1.37-.42-2.05-.61l-1.05-.29q.54-4.14,1.09-8.27A97.73,97.73,0,0,1,437.61,147Z"/></g><path class="cls-10" d="M359,163l1.05,8.37q-2.18,1-4.28,2.07c-.82.43-1.63.87-2.44,1.33l-1,.6,0,0,0,0h-.06l-.12.08,0,0h0l0,0h0l0,0-.62.39q-.66-4.29-1.33-8.57A83,83,0,0,1,359,163Z"/><path class="cls-10" d="M369.13,159.42c.26,2.75.51,5.5.77,8.26-1.24.38-2.47.79-3.7,1.23q-2.73,1-5.38,2.13l-1-8.37A95.18,95.18,0,0,1,369.13,159.42Z"/><path class="cls-10" d="M379.48,157c.16,2.71.33,5.43.49,8.14l-.53.11q-4.44.92-8.76,2.21c-.25-2.75-.49-5.49-.74-8.24C373.07,158.3,376.26,157.56,379.48,157Z"/><path class="cls-10" d="M390,155.52l.24,8.09c-1.36.14-2.71.3-4.06.48s-2.58.38-3.87.6l-1.5.26c-.16-2.71-.31-5.42-.47-8.13C383.5,156.25,386.73,155.82,390,155.52Z"/><path class="cls-10" d="M400.51,155c0,2.69,0,5.38,0,8.07-2.07,0-4.14.09-6.2.23-1.1.07-2.19.15-3.29.26l-.21-8.1q3.75-.31,7.48-.42C399,155,399.76,155,400.51,155Z"/><path class="cls-10" d="M421.55,156.78l-.54,8.11c-1.07-.21-2.15-.39-3.23-.56-2-.33-4.12-.59-6.19-.79l.3-8.09Q416.75,155.9,421.55,156.78Z"/><path class="cls-10" d="M442,162.85l-1.08,8.36-.11-.05a86.89,86.89,0,0,0-8.94-3.45c.28-2.74.56-5.49.83-8.23A92.73,92.73,0,0,1,442,162.85Z"/><path class="cls-10" d="M451.75,167.73c-.46,2.86-.93,5.72-1.39,8.58a68.65,68.65,0,0,0-8.7-4.75l1.11-8.38A85.85,85.85,0,0,1,451.75,167.73Z"/><g class="cls-7"><path class="cls-4" d="M359.11,175.38q.52,4.19,1,8.35c-1.44.65-2.86,1.33-4.26,2.06-.82.43-1.62.87-2.43,1.33l-1,.6,0,0,0,0h0l0,0-.12.07,0,0h0l0,0,0,0h0l-.62.39-1.32-8.54A83.25,83.25,0,0,1,359.11,175.38Z"/><path class="cls-4" d="M369.2,171.82q.38,4.11.76,8.23c-1.24.38-2.46.79-3.68,1.22q-2.73,1-5.37,2.12-.51-4.15-1-8.33A94.57,94.57,0,0,1,369.2,171.82Z"/><path class="cls-4" d="M379.51,169.38c.16,2.7.32,5.41.49,8.11l-.53.11q-4.43.92-8.73,2.2-.36-4.1-.74-8.21C373.12,170.71,376.3,170,379.51,169.38Z"/><path class="cls-4" d="M390,167.93l.24,8.07c-1.35.13-2.7.29-4,.48s-2.58.37-3.86.59l-1.49.26q-.24-4.05-.47-8.1C383.51,168.66,386.73,168.23,390,167.93Z"/><path class="cls-8" d="M400.47,167.39l0,8.05c-2.06,0-4.12.09-6.18.22-1.09.07-2.18.16-3.27.26l-.21-8.06c2.49-.22,5-.36,7.46-.43Z"/><path class="cls-4" d="M411,167.79c-.09,2.69-.18,5.37-.28,8.06l-.67-.06q-4.38-.36-8.78-.36,0-4,0-8Q406.14,167.39,411,167.79Z"/><path class="cls-4" d="M421.43,169.19l-.54,8.08c-1.06-.21-2.14-.39-3.21-.56-2.05-.32-4.11-.59-6.17-.78l.3-8.07C415,168.16,418.25,168.6,421.43,169.19Z"/><path class="cls-4" d="M431.73,171.64q-.39,4.1-.8,8.19c-2-.64-4.11-1.21-6.19-1.72l-2-.46-1-.22c.19-2.7.37-5.39.56-8.09C425.45,170,428.62,170.72,431.73,171.64Z"/><path class="cls-4" d="M451.53,180.1c-.46,2.85-.93,5.7-1.39,8.55a69.47,69.47,0,0,0-8.67-4.74l1.11-8.34A84.31,84.31,0,0,1,451.53,180.1Z"/></g><path class="cls-11" d="M359,347.75V375h-4.9V350.37A44.82,44.82,0,0,1,359,347.75Z"/><path class="cls-11" d="M368.94,344.12V375H364V345.69C365.6,345.13,367.24,344.61,368.94,344.12Z"/><path class="cls-11" d="M378.88,341.85V375H374V342.84C375.57,342.48,377.21,342.15,378.88,341.85Z"/><path class="cls-11" d="M388.83,340.54V375h-4.9v-33.9C385.53,340.87,387.16,340.69,388.83,340.54Z"/><path class="cls-11" d="M398.77,340v35h-4.9v-34.8C395.48,340.09,397.11,340,398.77,340Z"/><path class="cls-11" d="M408.71,340.19V375h-4.9V340C405.46,340,407.1,340.1,408.71,340.19Z"/><path class="cls-11" d="M418.65,341.12V375h-4.9V340.57C415.41,340.72,417.05,340.91,418.65,341.12Z"/><path class="cls-11" d="M428.59,342.91V375h-4.9V341.91C425.37,342.21,427,342.55,428.59,342.91Z"/><path class="cls-11" d="M438.53,345.81V375h-4.9V344.21C435.34,344.71,437,345.24,438.53,345.81Z"/><path class="cls-11" d="M448.48,350.58V375h-4.9V347.9A43.25,43.25,0,0,1,448.48,350.58Z"/><path class="cls-11" d="M405.52,126.46c4.78-.36,14.71-.49,23.09,3.39l-.68,6.53s-14.61-3.78-24.92-1.72c-.21-2.08-.3-3.76-.34-5A3.06,3.06,0,0,1,405.52,126.46Z"/><path class="cls-12" d="M453.24,139.3a5.29,5.29,0,0,1-.06.8V391.53H423.8L428,125.11c1.12.21,2.23.44,3.29.68l.51.12.32.07.66.16.57.14.9.23.46.12.2.05.45.13c.78.21,1.54.44,2.28.67l.69.21,0,0,.72.24c.24.07.47.16.7.24h0C448.14,131.12,453.24,135,453.24,139.3Z"/><path class="cls-13" d="M416.07,123.07c6.06.36,6.81,1.06,11.92,2l-3.67,266.42H413Z"/><path class="cls-14" d="M249.93,392.83c-2.94.8-5.87,1.59-8.82,2.36-17.38,4.52-34.32,7.24-52.32,6.56-6.61-.25-13.22-.79-19.79-1.55-.45-.41-.88-.84-1.29-1.28-.22.35-.46.71-.71,1.05-11.05-1.33-22.06-3.2-33-5.12-10.11-1.78-20.29-3.62-29.82-7.44a68.82,68.82,0,0,1-10.32-5.12c1.87-8.86,13.53-14.25,26.33-12.05a30.54,30.54,0,0,1,14.29,6.3,21.16,21.16,0,0,1,18.44-5.45,21.7,21.7,0,0,1,13,7.34c5.13-6.28,15.66-9.54,27-7.6,10.51,1.8,18.88,7.59,22.23,14.51a35.87,35.87,0,0,1,10.32-4.13c12-2.82,23.08.49,24.7,7.39A7.93,7.93,0,0,1,249.93,392.83Z"/><path class="cls-14" d="M510.91,367.59a9.35,9.35,0,0,1-1.14,7.64c-7.3,1.61-14.74,2.28-22,3.81s-14.38,4.15-21.53,6.38A216.37,216.37,0,0,1,407,395.16a32.52,32.52,0,0,1-9.6-.81c-2.23-.64-5.61-2.11-6.66-4.38-.79-1.7-.1-4.56.32-6.29,1.19-5,5.19-9,9.57-11.35,6.57-3.51,13.88-3.24,18.28.22,1.48-8.38,10.75-14.93,22.07-15.12,8.79-.15,16.47,3.59,20.29,9.14a20.37,20.37,0,0,1,7.09-3.81c7.21-2.22,14.43-.39,17.84,4.12a16.51,16.51,0,0,1,8.13-5.41C501.76,359.2,509.16,361.94,510.91,367.59Z"/><path class="cls-8" d="M84.77,378c19.41,15.76,45.53,18.4,69.43,22,25,3.76,49.53,5,74.41-.07,26.44-5.39,51.84-15.45,78.82-18.23,25.59-2.64,49.58,4,74.22,9.84,11.62,2.75,23.4,5.14,35.35,5.71s23.67-1.2,35.21-4.25c21.28-5.62,41.69-14,64.06-13.42,34.89.93,69.58,11.27,103.42,18.94,19.37,4.39,38.84,8.65,58.57,11.09,15.08,1.87,31.27,3.15,46.06-1.2,2.22-.65,1.27-4.13-1-3.47-13,3.83-27.13,3-40.45,1.61-17.6-1.86-35-5.47-52.27-9.26-33.87-7.45-67.72-17.1-102.33-20.52-18.44-1.82-35.58.48-53.36,5.74-11.26,3.33-22.4,7.17-33.95,9.41-13,2.53-26.19,2.21-39.26.09-23.31-3.78-45.75-12-69.35-14.17-25-2.25-49.54,4-73.45,10.63-14,3.85-28,7.85-42.38,9.94-14.93,2.15-29.9,1.85-44.87.27s-29.68-4.08-44.36-6.88c-14.44-2.75-28.42-6.93-40-16.34C85.53,374,83,376.56,84.77,378Z"/><path class="cls-8" d="M594.24,73.49c-5.4,0-22.1-.93-15.71-14.83,4.16-9,15.23-1.22,35.69-8.7s28.24-19.54,55.66-9.47,22.08.84,37.63,1c21,.22,26,32.64-7.11,33.36S623.48,73.74,594.24,73.49Z"/><path class="cls-8" d="M201.8,139.61c-4,0-16.51-.69-11.73-11.07,3.1-6.74,11.37-.92,26.66-6.5s21.09-14.6,41.58-7.08,16.49.63,28.1.75c15.71.16,19.46,24.38-5.3,24.92S223.65,139.8,201.8,139.61Z"/><path class="cls-15" d="M157.28,502.22c-3.93,1-7.3,2.37-14.41,3.57,3.14-1.15-3.81.39-3.86.16-3.53,1.14-7,2.4-10.48,3.78-5.29,1.53-11.4,3.75-15.57,6.42a39.77,39.77,0,0,1,6-2.92c-3.21,1.87-6.38,3.43-9.62,5.45s-6.56,4.68-8.17,8.6a16,16,0,0,1,1.72-3.54,14.26,14.26,0,0,0-3.53,8,13.58,13.58,0,0,0,1.52,7H100c.65.21,2,2.63,3.77,4.87a51.75,51.75,0,0,0,4.63,5.2c-4.73-5-6-7.92-6.78-10.64a18.74,18.74,0,0,1-.65-4.76,12.48,12.48,0,0,1,.41-3.34,15.17,15.17,0,0,1,1.68-4.35c-1.83,5-1.58,9,1.47,13.5.76,1.79,1,2.49.88,2.69,1.32,1.33,2.22,1.57,4.4,3.9l.19.87a25,25,0,0,0,6.16,6.06l3,2.09c1.17.81,2.52,1.85,4.7,3.15.61.74-1.79-.08-4.46-1.87a59.25,59.25,0,0,1-7.3-6.24c.89,1.64-.6.12-2.07-1.36s-2.89-3-2-.91l2.23,1.74c1.71,2,1,2-.07.73,2.48,2.55,1.76,2,3.13,2.82,2.44,2.58,4,3.81,4.53,4.39s.28.51-.08.46-.75-.13-.21.46a11,11,0,0,0,1.75,1.45,24.29,24.29,0,0,0,4.86,2.58,28.41,28.41,0,0,1-4.37-1.83c-1.32-.69-2.23-1.2-2-.78a35.39,35.39,0,0,1-6.33-5.72l-.81.17a29.87,29.87,0,0,0,12.14,8.19,34.33,34.33,0,0,0,11.95,1.83,31,31,0,0,1-5.58-.85c-.79-.22-.71-.32-.45-.37.55-.14,1.77-.11-1.18-1.09,2.41.45,4.49,1,5.75,1.32.47,0,2.21.17,3.71.21s2.78,0,2.42-.15a18.85,18.85,0,0,0,5.29.89c2.6.21,5.63.24,8.47.33,5.64.1,10.29.1,7.64.93,3.42,0,10.42-.6,18.18-1.59s16.38-2.22,23.43-3.13l-3.75.83c15.07-.72,12.77-2.48,21.26-3.76-7.4,1.25,6.8-.2,9.87-.07,6.58-1,11.94-2.13,21.36-2.32,2,.5,2.21,1.27,8.16,1.36,1.35-.15,2.71-.31,4.07-.42,6,.11,14,.16,17.83.72h-.83c6.69.71,7.12,0,1.88-.5l6.5.13.18.19c8.59.3,16.74.24,30.41,1.39-3.76.18,10.1,1.95-2.26.94,3.61.08-1.83-.69-2.48-1-4.41-.54-8.56-.35-10.53-.47,1.38.43-.08,1-2.52,1.2,4.48,0,12.83.74,20.43,1.37s14.42,1.06,15.62.43c5.51.49,11.91.89,18.55,1.18s13.5.4,19.88.63c-.53-.06-1.55-.18-1.25-.28l11,.56-2.55.13,7.29.4c.76.23-2.08.46-5.1.53-1.73.09-3.29-.09-1.6-.18-7.88.49,6.53.19,1.41.71-1.93-.07-4.44,0-5.82,0,9,.32,13.15-.55,18.69,0,2.12-.3,5.35-.65,9.06-.91s7.87-.58,11.93-.6c-3.1.51,8.75-.58,4.79.28,3.09-.44,10.33-.65,11.5-1.12a60.75,60.75,0,0,1-7.07.54c3.3-.42,3.65-.82,7.7-1.06.53,0,.25.14.25.14,5.2-.77,1.59-1.39,10.76-2.2,24-2.54-3.15,1.68.3,1.64.84-.4,11.43-1.61,16.25-1.81l-1.11.26a58,58,0,0,1,8.62-1,59.53,59.53,0,0,1,5.75-2l10.71-1.25-2.15.52c2.41-.38,4.56-.63,6.71-.89,1,.28-2.16.52-5.39,1a19,19,0,0,0,6.41-.76l-1.34.13c2.71-.52,12.62-2.2,4.64-1.45,5.89-1,7.94-.47,12-1.12.49.27-3.25.78-1.13.8,4-.37,6.63-.62,9.85-1.12-3.19.23.83-.4-4.21,0,1.88-.38,6.93-1,6.69-1.14A35.47,35.47,0,0,1,514,552c5.33-.74,10.92-1.36,16.49-1.69a8.14,8.14,0,0,1-1.33.36c7-1.26,17.81-2.24,22.49-3.25l-2.15.05a49,49,0,0,1-6.63.65c5.35-.7-3.93-.21,1.7-1.05,7.8-1,14.89-.88,19.05-2-7.47.58-17.62,1-20.59,1.67,1.61-.15,3.21-.31,4.82-.43-3.61.61-7.21,1.29-10.8,1.93-.49-.28-9.63,1.16-9.56.64,3.75-.5,7.21-.81,10.15-1.16-.75-.16-10.14.86-14.12,1.25l5-.35c-8.84,1.38-20.28,2.47-28.87,3.77,6.72-1.17-8.74.6-3.38-.44a33.27,33.27,0,0,1,4.79-.5c.58-.54-5.32.5-7.15.35-.85.4-9.67,1.54-4.37,1.31-2.91.11-9.09,1.28-13.08,1.37,1.28.42-7.24,1.11-8.63,1.5-1.71.15-3.23.2-4.41.19l12.55-2c1.87-.1,5.32-.49,4.27-.49l0-.22,18.72-3.1,2.36-.27-.46.11.76-.14c40.31-4.48,80.64-8.84,121.08-8.38-2.66.08-7,0-8.76.24l.28-.1-4.12.22c3.47,0,10.34-.08,13.32-.35q4.26,0,8.52.18l-7.11-.41,0,0,0,0-8.41-.49a171.85,171.85,0,0,1,17.38-.58c-2.14.21,0,.29.5.4,18.23-1.46,35.92-1.53,54.28-1.22,7.71.13,15.47.25,23.1-.85,14.74-2.11,28.94-8.76,43.8-7.61,5.56.42,12.14,1.63,15.93-2.21,4.27-4.33.82-11.86-4.77-14.55s-12.24-2.2-18.53-2.37c-8.21-.22-16.4-1.69-24.59-1.06-10.47.8-19.89,3.61-30.48,3-7.51-.43-15.43-1.84-23-1.63,4.26-.12-2.68-.7-6-1.19-10.41-.43-32.45-1.61-48.21-2,2.15-.48-2.22-.69-7.27-.9s-10.78-.38-11.36-.9c-3.5-.15-9-.16-9.39.19,2-.11,6.67.36,6,.54-5.12-.12-12.93-.37-13.69.07l-6.26-.69a6.89,6.89,0,0,1-3,.58l-4.11-.13c-2.48-.36-2.57-.26-2.73-.09l-4.56-.15a33.31,33.31,0,0,0,3.92-.57c-5.36-.26-4.65,0-8.46,0-1.21-.33,3.85-.67,8-.73l-6.87-.5c-6.72.36-18.36.82-29,.26,1.78-.28,5.25-.16,2.5-.73-4.62,0-10.83.42-16.87-.13.84,0,.33-.09,1.16-.1-10.73.12-8-.44-17.66-.9a2.13,2.13,0,0,1,.49-.16l-5.94.1c-12.48.26-13.69-1.2-21-2h1.65c-2.27-.42-7.15-.66-12-.94s-9.6-.51-11.68-.76c5.15.7,1.67.46,5.39,1.31,4.63.15,3.35-.62,11,.08-1.09.54-10.83.09-12.92.41-4.31-.24-7-1.37-7.39-1.73-10.71-.71-16.63-1.51-29.77-2.49-4.78,0-8.65.85-19.43-.87l.65-.15c-.45.33-5.3-.53-7.58-.44,3.66.91-4.78,0-.27.95-6.44-.45-7.34-1.33-7.89-1.87-4.71.5-12.68-1.32-22.68-1.24,1.82-.33,12.65.19,8.25-.45-4.3.08-8.6.25-12.89.43l5.68.19c-9.74.27-12.39-.43-18-.74-.55-.12.1-.21,1.24-.27s2.75,0,4.14,0c-3-.12-7.8,0-11.71.28-3,.27-13.17,1-17.17,1.79l-1.65.06a3.12,3.12,0,0,1,.73-.16c-.82.07-1.49.13-2.1.23l-5.13.37,1-.22-2,.28c-1.77.11-3.53.3-5.29.51l-2.64.55,1.33-.16c-.16.35-1.76.84-4.23,1.37q-4.49.68-8.93,1.55c-3.11.61-6.23,1.29-9.35,2-3.37.59-7.08,1.5-10.52,2.29-4.27,1-8.12,1.76-10.1,1.63,11.37-2.79,16.82-4,29.07-6.74,3.33-.26,1.33.15-1.44.8s-6.39,1.46-6.49,1.68c2.32-.46,4.65-.91,7-1.32-1.16-.29,13.59-2.64,9.66-2.87-3.91.63-7.87,1.17-11.68,1.94s-7.54,1.55-11.18,2.33c-7.27,1.57-14.23,3-20.78,3.87a117.58,117.58,0,0,0,10.58-6.37c0-.06.15-.19.66-.44l-.66.44c.09.18,2.57-.51,5.41-1.27-.51.32-1.05.69,2.4-.11,7.17-1.24,10.79-3,16.36-4l-1.67.38c2.64-.38,5.63-.85,8.44-1.38s5.5-.9,7.48-1.37c2.23.09-1.56.64-4.86,1.12s-6,1.07-1.89.67c-2.9.38-6.39,1-9.62,1.77s-6.16,1.56-8.24,2a88.64,88.64,0,0,1,9.31-1.37c2.34-.15,3.52,0,2.57.36,7.73-1.62,7.64-2,7.26-2.33s-1-.63,6-1.73c3.25-.43,6.54-.59,9.8-.89,1.08-.39,2.17-.79,3.26-1.13,5.92-.4-3.52.92,5.5.26,2.42-.61,8.28-.38,10.05-.73-.25.23-.35.36,4.26.33.31-.1-.12-.42,3.51-.45,2.48.82-9.29.25-5.07,1,10.3-.08,6.61-.79,8.19-1.12-.36,0-.92,0-1.95,0,.11-.29,4.49-.05,4-.36a48.12,48.12,0,0,0-5,.14c3.13-.27-5.12-.57-8.31-.43-7.21.5-22.22,1.35-32.13,2.95.86-.15,2.55-.46,1.44-.44l-5,.68-4.37.74c-2.78.47-5.34.88-7.88,1.41-5.08,1-10.18,2.22-17.22,3.86l-1.39.93c-6.13,1.29-7.35,1.86-7.53,2.36s.86.77-.61,1.11c-2.69.47-4.92,1.16-7.3,1.07l1.21-.36a28.62,28.62,0,0,0-4.77.78c-.46.12-.87.32-4.18.28-2.68.14-1.52.21-.09.23s3.11,0,1.38.21c-1.81,0-3,0-3.9.07s-1.64.17-2.46.21c-1.66.1-3.78.21-9.37-1.21.32,0,.09-.28.62-.34a27.76,27.76,0,0,1,5,.51c-2-.45-4-1-6.16-1.59,3.91.68,4.57.71,5.32.82a51.17,51.17,0,0,0,5.11.55,11,11,0,0,0,3-.65,16.52,16.52,0,0,1,2.73-.72,25.39,25.39,0,0,0-2.61.37,12.75,12.75,0,0,1-3.58,0c-4.7-.6.83-.23,1.31-.4a18.6,18.6,0,0,1-6.54-.77,34.48,34.48,0,0,0-6.73-1.34c.9.94-.26.7,4,2A51.41,51.41,0,0,1,220,500.6c-2-.59-3.46-1.13-3.06-1.39l-1.33.36c-1.17-.38-5.5-.94-5.73-1.12l-1.93.1c3.81.82,7.13,1.47,13.33,2.56-2.69-.14,3,1.59-5.16.12-3.62-.63-.29-.39-.45-.59-2.4-.37-4.57-.59-6.45-.84s-3.57-.37-5.08-.47l-4.07-.32-3.49-.23a80.39,80.39,0,0,0-15.95.58c3.7-.69,13.11-1.09,20.73-1.14-4.55-.66-9.85.1-14.14.34,3.83-.48,4.49-.72-.13-.69-.62.15-1.22.32-1.82.49-2.73.18-7.5.78-7.9.66-.09.14,1.11.09,3.56-.06-3.32.56-8,1.38-13.21,2.33l-16.44,3.15c3.11-.6,6.65-1.87,9.78-2.75-12.26,1.46-24.06.85-36.18,4.2-6.44,1.78-12.74,4.17-19.38,5.08-8.29,1.13-17.27,0-24.58,3.82-3.17,1.65-6,5.27-4.21,8.19,1,1.7,3.27,2.4,4.88,3.67,3.88,3,3.76,8.78,6.93,12.47,2,2.36,5.15,3.61,8.08,4.9a103.46,103.46,0,0,1,23.16,14m154.59-61.48-4.73,1A38,38,0,0,1,274.34,496.57Zm-85.2,61.08c-1.2.22-2.86.49-4.35.73-1.33.09-1.63,0-1.62,0Zm-81.38-19.29a2.28,2.28,0,0,1-.28-.7C107.57,537.89,107.66,538.13,107.76,538.36ZM252.34,553c-1.93.25-1.64,1-9.26,1.11-.1-.07.54-.15,1.3-.22-3.46.23-4,.13-7.84.24-1.23-.46,4.59-.72,7.08-1.2-2.44.21-5.14.65-7.82.76l.59-.24q-4,.36-8,.79c-3.24.7,6.12-.49,6.61-.18l-5.1.76c-5.86.57-21.49,2.55-27,2.46-6.91.57-3.75.83-5.38,1.38-4,1-8,.83-12,1.5.24.41-4.61.91-4.66,1.46l-6.75.57c-3.63,1.16,8.12-.66,9.94-.55,3.74.29-4.89.78-2.48.93a76.61,76.61,0,0,0,7.88-1.46c2.93-.4,4.53-.41,4.5-.14-8.28.68-4.3,1.11-11.06,1.75l-.26-.14c0,.56-9.77,1.26-13.41,1.79-7.57,0,5.91-1.31,5.61-1.49q-4.5.52-9.06,1c3.92-.66-.14-.67,5.1-1.46-5.48.66-6.22.19-11.49.88,5.94-1.15-7.53-.17-8.22-.74,5.79-.32,16-.4,16.61-.28.84-.19,7.47-.69,10.18-.8l4.1-1.17c-4.81.51-11.35,1.44-9.63.66-2.18.29-4.36.61-6.56.88,6.65-1.53,6.31-1.46,12.33-2.5-12.67.52-22.38,2.83-32.94,2.23l1.64-.09a63,63,0,0,1-12.83-.75,22.77,22.77,0,0,1-7.35-2.49l-.16-.11c.31.14.61.3.94.43,5.8,2.32,13,2.55,19.94,2.44,11-.19,22-1.11,32.92-2.29l-1.3.49.75-.14c12.56-1.67,1.27.71,14.1-1.17a9.21,9.21,0,0,0-1,.3c5.2-.86,14.9-1.81,15.9-2.51-1.23.15-6.07.58-8.45.66,5.48-.68,11-1.35,16.45-2,1.16,0,2.27-.06,3.56-.17h0c1.25-.1,2.63-.28,4.45-.56.43-.08.73-.15.94-.2,6.57-.64,13.14-1.14,19.75-1.42C244.88,552.46,260,552.12,252.34,553Zm20.56-.27c-7.79-.28-2.35-.25-7.88-.65-.3-.11-.1-.19.35-.26q8.76.2,17.49.76C277.81,552.39,272.57,552.14,272.9,552.72Zm23.6,1.36c-2.66-.27-10.2-.65-10.75-1.17,3.66.25,4.7.3,4.3.17q5.68.42,11.37.94a4.55,4.55,0,0,0,1,.27C300.72,554.25,298.07,554.1,296.5,554.08Zm97.82,7.4c-6.78.07.36-.36-3.08-.56-5.15.8-6.58-.61-12.05.28-6.55.09-4.48-.38-6.54-.68,6.51.06-3-.6,5.16-.72a28.12,28.12,0,0,0-5.6.1,18.34,18.34,0,0,1-4.84.11l-.79-.68-10.73-.64c-4.2-.27-8.62-.56-12.08-.59,5.68.82-3.44.18-2.58.62,1.11-.47,8.95.46,8.82.72-4.1-.12-13.62-.77-17.38-1.17l7.46.93c-3.14.12-14.19-.26-14.51-.19-3.34-.58-8.42-1-10.09-1.51l6.4.12,2.16.62,3.76-.18c-4.05-.56-12.55-1.73-14.28-2.36,6.42.61,15.21,1.38,25.77,1.75,6.05.49,12.12.91,18.19,1.2,14.51.69,29,.67,43.52.16l-.32.05a58.84,58.84,0,0,1-6.05.65,48.18,48.18,0,0,1,5.11,0c-3.9.48-7.8,1-11.74,1.37a31.65,31.65,0,0,0,6.53-.45,48.87,48.87,0,0,1,7.5-.58C401.59,560.45,402.07,560.76,394.32,561.48Zm201.73-21.65c5.07,0,10.14,0,15.21,0h-.07l5,.42-5.68.4ZM249,507.07a6.69,6.69,0,0,1,2.57.21c-1.3.14-2.56.28-3.81.35Zm-46.37-4.85c.3-.31,2.45-.37,4.84-.27s5,.33,6.33.23a51.82,51.82,0,0,1,6,1c2.17.49,3.77,1,2.7,1a23.46,23.46,0,0,0-6-.78,19.89,19.89,0,0,1-5.63-1c-1.07.26.43.6,2.66,1a3.75,3.75,0,0,0-1.4.05l-3.34-.49-3.19-.32C203.72,502.45,202.05,502.38,202.58,502.22Zm-8.26,0-1.93.13a111.9,111.9,0,0,0-14.6,1.38c-2.52.44-3.14.67-2.41.77-1.71.24-3.42.5-5.12.78,3-.81,5.81-1.52,7.45-1.87A106.82,106.82,0,0,1,194.32,502.21ZM156.44,507c-.35.22.05.23.81.13l-5.69,1.3C152.3,508,150.91,508,156.44,507ZM103.7,532.25a10.71,10.71,0,0,1,.73-2.79,7.89,7.89,0,0,1,1.6-2.4c-.23-.46.84-2.49,3-4.52a46.64,46.64,0,0,1,7.62-5.43,32.6,32.6,0,0,1,8.58-3.13,60.79,60.79,0,0,0,7.9-2.25c-1.23.18-2.45.41-3.68.63,4.14-1.39,7.17-2.24,10.34-3s6.5-1.48,11.29-2.41c1.38.28-4.4.82-6.43,1.57l4.73-.45c-2,.46-5.84,1.79-5.95,1.26,0,.28-3,1.4,2.93-.16l-4.3,1.4a9.32,9.32,0,0,0,1.06-.08l-4,1c-1.77.27-4.76,1.08-7.56,1.48-.31-.11,2.42-1,4-1.47a56,56,0,0,0-9.74,3c3.08-1,3.87-1.14,4.07-1s-.16.39.66.39c-1.81.67-4.21,1.52-6.36,2.39a40.35,40.35,0,0,0-5,2.29c-1.21.51-2.31,1.05-3.28,1.52s-1.78.89-2.39,1.16c-1.22.55-1.67.53-.52-.56-2.39,1.93-5.09,4.06-5.87,6.72a7,7,0,0,1,1.31-2,1.41,1.41,0,0,1,.85-.26,1.54,1.54,0,0,0,1-.47,11.9,11.9,0,0,0,.86-.87c.41-.37.89-.87,1.51-1.52.49-.17.63-.13.54.06A18.28,18.28,0,0,0,108,528c-.38.57-.73,1.12-1,1.58.56-1.58-.43-.34-.55-.76a4.12,4.12,0,0,0-.35,1.46,4.71,4.71,0,0,0,0,.88c0,.41.17.47.36.29a2.72,2.72,0,0,0,.54-.81c-.09.36-.22.71-.28,1.08a11.58,11.58,0,0,0,.74,5.92,17.09,17.09,0,0,0,.7,2.82,18.55,18.55,0,0,1-2-4.25,6.13,6.13,0,0,0,1,3.43c.69,1.22,1.62,2.43,2.34,3.47.62,1.22-.57,0-2-2a34.33,34.33,0,0,1-3.48-6.29A6.29,6.29,0,0,1,103.7,532.25Z"/><rect class="cls-16" x="89.8" y="332.01" width="6.06" height="21.67" transform="translate(-111.78 52.51) rotate(-20.02)"/><path class="cls-16" d="M91.51,339.23a17.83,17.83,0,1,1,10.65-22.85A17.85,17.85,0,0,1,91.51,339.23ZM82,313a10.1,10.1,0,1,0,12.94,6A10.1,10.1,0,0,0,82,313Z"/><polygon class="cls-16" points="241.12 455.09 73.24 525.89 42.2 367 149.01 321.96 241.12 455.09"/><polygon class="cls-17" points="155.94 332.03 44.51 379.02 42.16 366.99 148.97 321.95 155.94 332.03"/><path class="cls-6" d="M82.94,443.45,75.8,427.27,79,425.85l2.86,6.47,3.23-1.43-2.85-6.47L85.51,423l7.14,16.18-3.24,1.43-2.85-6.47-3.24,1.42L86.18,442Z"/><path class="cls-6" d="M94.27,438.46l-7.14-16.18,3.24-1.43L97.5,437Z"/><path class="cls-6" d="M100.74,435.6a1.7,1.7,0,0,1-2.33-.9L92.7,421.75a1.78,1.78,0,0,1,0-1.34,1.74,1.74,0,0,1,.95-1l6.47-2.85a1.79,1.79,0,0,1,2.34.9l1.42,3.24-3.23,1.42-.72-1.61-3.23,1.42,4.28,9.71,3.24-1.43L102.74,427l-1.62.71-1.43-3.23,4.86-2.15,3.57,8.09a1.74,1.74,0,0,1,0,1.38,1.8,1.8,0,0,1-.94,1Z"/><path class="cls-6" d="M110.45,431.32l-7.14-16.18,3.24-1.43,2.85,6.47,3.24-1.42-2.86-6.48,3.24-1.42L120.16,427l-3.24,1.42L114.07,422l-3.24,1.43,2.86,6.47Z"/><path class="cls-6" d="M132,421.81a1.74,1.74,0,0,1-1.36.05,1.76,1.76,0,0,1-1-1l-1.42-3.24,3.23-1.42.72,1.62,3.23-1.43L134,413.19l-4.85,2.14a1.7,1.7,0,0,1-2.33-.9L124,408a1.77,1.77,0,0,1,.91-2.34l6.47-2.85a1.8,1.8,0,0,1,2.33.9l1.43,3.24-3.24,1.43-.71-1.62-3.24,1.43,1.43,3.23,4.85-2.14a1.81,1.81,0,0,1,2.34.91l2.85,6.47a1.72,1.72,0,0,1,0,1.37,1.69,1.69,0,0,1-.93,1Z"/><path class="cls-6" d="M141.72,417.52l-7.13-16.18,9.7-4.28,1.43,3.24-6.47,2.85,1.43,3.24,4.85-2.14,1.43,3.23-4.86,2.14,1.43,3.24L150,410l1.43,3.24Z"/><path class="cls-6" d="M153.05,412.53l-7.14-16.18,3.24-1.43,5.71,12.94,6.47-2.85,1.43,3.23Z"/><path class="cls-6" d="M164.38,407.53l-7.14-16.18,9.71-4.28,1.42,3.23-6.47,2.86,1.43,3.23,4.85-2.14,1.43,3.24-4.85,2.14,2.85,6.47Z"/><path class="cls-6" d="M179.41,391.53l.74,1.68L173.76,396l-.74-1.68Z"/><path class="cls-6" d="M73.12,471.76,66,455.58l9.71-4.28,1.42,3.23-6.47,2.86,1.43,3.23,4.85-2.14,1.43,3.24-4.85,2.14,1.42,3.24,6.48-2.86,1.42,3.24Z"/><path class="cls-6" d="M84.44,466.76l-2.85-6.47a1.74,1.74,0,0,1,.9-2.33,1.7,1.7,0,0,1-2.33-.9l-2.86-6.48,3.24-1.43,2.85,6.48,3.24-1.43-2.85-6.47L87,446.3l2.86,6.47A1.74,1.74,0,0,1,89,455.1a1.79,1.79,0,0,1,2.33.91l2.86,6.47-3.24,1.43-2.85-6.47-3.24,1.42,2.86,6.48Z"/><path class="cls-6" d="M95.77,461.77l-7.14-16.18L96.72,442a1.8,1.8,0,0,1,2.33.9l2.86,6.47a1.74,1.74,0,0,1,0,1.38,1.8,1.8,0,0,1-.94,1l-4.85,2.14L99,460.34ZM98,449.2,96.53,446l-3.24,1.42,1.43,3.24Z"/><path class="cls-6" d="M107.09,456.77,100,440.59l9.7-4.28,1.43,3.23-6.47,2.86,1.43,3.23,4.85-2.14,1.43,3.24-4.85,2.14,1.42,3.24,6.48-2.86,1.42,3.24Z"/><path class="cls-6" d="M120,451.06a1.7,1.7,0,0,1-2.33-.9l-5.71-13a1.74,1.74,0,0,1,.9-2.33l6.47-2.86a1.71,1.71,0,0,1,1.35,0,1.74,1.74,0,0,1,1,.93l1.42,3.23-3.23,1.43-.72-1.62L116,437.4l4.28,9.71,3.24-1.43-.72-1.61,3.24-1.43,1.43,3.23a1.74,1.74,0,0,1,0,1.38,1.8,1.8,0,0,1-.94,1Z"/><path class="cls-6" d="M133,445.35l-5.71-13L124,433.83l-1.43-3.23,9.71-4.29,1.42,3.24L130.51,431l5.71,12.94Z"/><path class="cls-6" d="M141.07,441.78l-6.42-14.56a1.78,1.78,0,0,1-.05-1.34,1.74,1.74,0,0,1,1-1L142,422a1.79,1.79,0,0,1,2.33.91l6.42,14.56-3.23,1.43-2.86-6.48-3.24,1.43,2.86,6.47Zm2.19-12.56L141.84,426l-3.24,1.43,1.43,3.23Z"/><path class="cls-6" d="M155.64,435.36l-5.71-12.95-3.24,1.43-1.43-3.24,9.71-4.28,1.43,3.24L153.16,421l5.71,12.95Z"/><path class="cls-6" d="M163.73,431.79l-7.14-16.18,3.23-1.43L167,430.36Z"/><path class="cls-6" d="M170.2,428.93a1.7,1.7,0,0,1-2.33-.9l-5.71-12.95a1.74,1.74,0,0,1,.9-2.33l6.47-2.85a1.71,1.71,0,0,1,1.35,0,1.74,1.74,0,0,1,1,.93l5.71,12.95a1.72,1.72,0,0,1,0,1.37,1.77,1.77,0,0,1-.94,1Zm3.43-5.37-4.29-9.71-3.23,1.42,4.28,9.71Z"/><path class="cls-6" d="M179.91,424.65l-7.14-16.18,4.85-2.14,3,2.52-1.43-3.24,3.24-1.42,7.14,16.18-3.24,1.42-2.14-4.85-6.09-5,5,11.32Z"/><path class="cls-6" d="M192.85,418.94a1.7,1.7,0,0,1-2.33-.9l-1.43-3.24,3.24-1.43L193,415l3.24-1.43-1.43-3.23L190,412.47a1.81,1.81,0,0,1-1.37.06,1.79,1.79,0,0,1-1-1l-2.86-6.47a1.78,1.78,0,0,1-.05-1.34,1.74,1.74,0,0,1,1-1l6.48-2.86a1.79,1.79,0,0,1,2.33.91L196,404l-3.24,1.43-.71-1.62-3.24,1.43,1.43,3.24,4.85-2.14a1.77,1.77,0,0,1,2.33.9l2.86,6.47a1.74,1.74,0,0,1-.91,2.33Z"/><polygon class="cls-16" points="415.11 396.42 244.66 460.79 219.68 300.84 328.13 259.88 415.11 396.42"/><polygon class="cls-17" points="334.73 270.19 221.59 312.91 219.7 300.8 328.14 259.85 334.73 270.19"/><path class="cls-6" d="M262.26,372.27l-9-26.87,13.44-4.51a2.72,2.72,0,0,1,2.16.17,2.69,2.69,0,0,1,1.43,1.62l2.7,8.06a2.72,2.72,0,0,1-.15,2.2,2.83,2.83,0,0,1-1.63,1.39,2.7,2.7,0,0,1,2.15.16,2.8,2.8,0,0,1,1.44,1.62l2.7,8.07a2.8,2.8,0,0,1-1.79,3.59Zm5.34-19.73-1.8-5.37-5.38,1.8,1.8,5.37Zm3.6,10.75-1.8-5.37-5.37,1.8,1.8,5.37Z"/><path class="cls-6" d="M281.07,366l-9-26.87,16.12-5.41,1.8,5.38-10.75,3.6L281,348l8.07-2.71,1.8,5.38-8.06,2.7,1.8,5.37,10.75-3.6,1.8,5.38Z"/><path class="cls-6" d="M299.88,359.65l-9-26.87,5.37-1.8,9,26.87Z"/><path class="cls-6" d="M307.94,357l-9-26.87,8.06-2.71,4.49,4.48-1.8-5.38,5.37-1.8,9,26.87-5.37,1.81-2.7-8.07-9-8.94,6.3,18.81Z"/><path class="cls-6" d="M329.44,349.74a2.86,2.86,0,0,1-2.19-.11,2.83,2.83,0,0,1-1.4-1.68l-7.21-21.49a2.86,2.86,0,0,1,.12-2.15,2.77,2.77,0,0,1,1.67-1.44l10.74-3.61a2.72,2.72,0,0,1,2.16.17,2.69,2.69,0,0,1,1.43,1.62l1.81,5.37-5.38,1.81-.9-2.69-5.38,1.8,5.41,16.12,5.38-1.8-1.8-5.37-2.69.9-1.8-5.38,8.06-2.7,4.5,13.44a2.73,2.73,0,0,1-.15,2.2,2.83,2.83,0,0,1-1.63,1.39Z"/><path class="cls-6" d="M254.62,411.91l-9-26.88,13.44-4.5a2.7,2.7,0,0,1,2.15.16,2.8,2.8,0,0,1,1.44,1.62l2.7,8.07a2.78,2.78,0,0,1-.15,2.19,2.75,2.75,0,0,1-1.64,1.39,2.76,2.76,0,0,1,2.16.17,2.69,2.69,0,0,1,1.43,1.62l2.71,8.06a2.8,2.8,0,0,1-1.79,3.59ZM260,392.18l-1.81-5.38-5.37,1.81,1.8,5.37Zm3.6,10.75-1.8-5.38-5.38,1.81,1.81,5.37Z"/><path class="cls-6" d="M276.12,404.7a2.88,2.88,0,0,1-2.18-.11,2.84,2.84,0,0,1-1.41-1.68l-8.11-24.18,5.38-1.81,7.21,21.5,5.37-1.8-7.21-21.5,5.37-1.8,8.12,24.18a2.8,2.8,0,0,1-1.79,3.59Z"/><path class="cls-6" d="M292.24,399.29l-9-26.87,5.38-1.81,7.21,21.5,10.75-3.6,1.8,5.37Z"/><path class="cls-6" d="M311.05,393l-9-26.87,5.38-1.8,7.21,21.49,10.75-3.6,1.8,5.37Z"/><path class="cls-6" d="M329.87,386.67l-9-26.87,5.38-1.8,9,26.87Z"/><path class="cls-6" d="M337.93,384l-9-26.87L345,351.69l1.8,5.37-10.75,3.61,1.8,5.37,8.07-2.7,1.8,5.37-8.06,2.71,1.8,5.37,10.75-3.6,1.8,5.37Z"/><path class="cls-6" d="M356.74,377.66l-9-26.87,13.43-4.51a2.72,2.72,0,0,1,2.16.17,2.69,2.69,0,0,1,1.43,1.62l7.21,21.5a2.81,2.81,0,0,1-.15,2.2,2.77,2.77,0,0,1-1.64,1.38Zm8.94-9-5.4-16.12-5.38,1.8,5.41,16.12Z"/><rect class="cls-16" x="271.05" y="259.87" width="6.06" height="21.67" transform="translate(-76.13 110.22) rotate(-20.02)"/><path class="cls-16" d="M272.77,267.1a17.83,17.83,0,1,1,10.64-22.86A17.84,17.84,0,0,1,272.77,267.1Zm-9.56-26.24a10.09,10.09,0,1,0,12.94,6A10.11,10.11,0,0,0,263.21,240.86Z"/><path class="cls-18" d="M708.79,154.2h-20a70.54,70.54,0,0,0-16.2,2.57L128.9,309.16"/><rect class="cls-16" x="124.03" y="154.12" width="6.06" height="21.67" transform="translate(-48.8 53.48) rotate(-20.02)"/><path class="cls-16" d="M125.75,161.34a17.83,17.83,0,1,1,10.64-22.85A17.86,17.86,0,0,1,125.75,161.34Zm-9.56-26.23a10.09,10.09,0,1,0,12.94,6A10.1,10.1,0,0,0,116.19,135.11Z"/><polygon class="cls-16" points="268.41 286.72 97.22 349.11 74.1 188.88 183.01 149.19 268.41 286.72"/><polygon class="cls-17" points="189.47 159.6 75.85 201.01 74.1 188.88 183.01 149.19 189.47 159.6"/><path class="cls-6" d="M104.94,250.81l-7.41-21.29,12.78-4.45,1.48,4.26-8.52,3,1.49,4.26,6.38-2.22,1.48,4.26-6.38,2.22,3,8.52Z"/><path class="cls-6" d="M119.85,245.62l-7.41-21.29,12.77-4.45,1.48,4.26-8.51,3,1.48,4.25,6.39-2.22,1.48,4.26-6.39,2.22,1.48,4.26,8.52-3,1.48,4.26Z"/><path class="cls-6" d="M134.75,240.43l-7.41-21.29,12.78-4.44L141.6,219l-8.52,3,1.48,4.26L141,224l1.48,4.26L136,230.44l1.49,4.25,8.51-3,1.49,4.26Z"/><path class="cls-6" d="M149.65,235.25,142.24,214l4.26-1.49,5.93,17,8.52-3,1.48,4.26Z"/><path class="cls-6" d="M164.56,230.06l-7.41-21.29,4.26-1.48,7.41,21.29Z"/><path class="cls-6" d="M170.94,227.84l-7.41-21.29,6.39-2.23,3.61,3.52-1.48-4.26,4.26-1.48,7.41,21.29-4.26,1.48-2.22-6.38-7.22-7,5.18,14.91Z"/><path class="cls-6" d="M188,221.91a2.18,2.18,0,0,1-2.87-1.39l-5.93-17a2.22,2.22,0,0,1,1.39-2.87l8.51-3A2.28,2.28,0,0,1,192,199l1.48,4.26-4.25,1.48-.74-2.13-4.26,1.49,4.44,12.77,4.26-1.48-1.48-4.26-2.13.74-1.48-4.26,6.39-2.22,3.7,10.64a2.22,2.22,0,0,1-1.39,2.87Z"/><path class="cls-6" d="M108.81,279.07a2.32,2.32,0,0,1-1.74-.07,2.28,2.28,0,0,1-1.13-1.32l-1.48-4.26,4.26-1.48.74,2.13,4.26-1.49-1.49-4.25-6.38,2.22a2.18,2.18,0,0,1-2.87-1.39l-3-8.52a2.23,2.23,0,0,1,.08-1.7,2.18,2.18,0,0,1,1.31-1.16l8.52-3a2.29,2.29,0,0,1,2.87,1.39l1.48,4.26L110,261.94l-.74-2.13L105,261.29l1.48,4.26,6.39-2.22a2.28,2.28,0,0,1,2.87,1.39l3,8.51a2.23,2.23,0,0,1-1.39,2.87Z"/><path class="cls-6" d="M123.71,273.88a2.21,2.21,0,0,1-1.73-.07,2.26,2.26,0,0,1-1.14-1.32l-5.92-17a2.21,2.21,0,0,1,1.38-2.87l8.52-3a2.28,2.28,0,0,1,2.87,1.39l5.93,17a2.23,2.23,0,0,1-1.39,2.87Zm4.91-6.48-4.45-12.78-4.25,1.49,4.44,12.77Z"/><path class="cls-6" d="M138.62,268.69a2.16,2.16,0,0,1-2.87-1.39l-5.93-17a2.26,2.26,0,0,1,.08-1.71,2.21,2.21,0,0,1,1.31-1.16l8.51-3a2.28,2.28,0,0,1,2.87,1.38l1.49,4.26-4.26,1.49-.74-2.13-4.26,1.48,4.45,12.77,4.25-1.48-.74-2.13L147,258.6l1.48,4.26a2.18,2.18,0,0,1-.1,1.75,2.23,2.23,0,0,1-1.29,1.12Z"/><path class="cls-6" d="M151.39,264.25,144,243l4.26-1.49,7.41,21.29Z"/><path class="cls-6" d="M157.78,262l-6.67-19.16a2.26,2.26,0,0,1,.08-1.71A2.21,2.21,0,0,1,152.5,240l8.52-3a2.13,2.13,0,0,1,1.71.11,2.19,2.19,0,0,1,1.16,1.27l6.66,19.17-4.25,1.48-3-8.52L159.07,252l3,8.52Zm4.07-15.74L160.37,242l-4.26,1.48,1.48,4.25Z"/><path class="cls-6" d="M172.68,256.83l-7.41-21.29,4.26-1.48,5.93,17,8.52-3,1.48,4.26Z"/><path class="cls-6" d="M187.59,251.65l-7.41-21.29,4.25-1.48,5.93,17,8.52-3,1.48,4.26Z"/><path class="cls-6" d="M204.62,245.72a2.18,2.18,0,0,1-2.87-1.39l-1.48-4.26,4.26-1.48.74,2.13,4.25-1.48L208,235l-6.38,2.22a2.18,2.18,0,0,1-2.88-1.38l-3.7-10.65,4.26-1.48,3,8.51,4.26-1.48-3-8.51,4.25-1.49,6.67,19.17a2.18,2.18,0,0,1-.1,1.75,2.28,2.28,0,0,1-1.28,1.12Z"/><path class="cls-6" d="M115.87,306.21l-7.41-21.29,4.26-1.48,7.41,21.29Z"/><path class="cls-6" d="M124.39,303.25a2.32,2.32,0,0,1-1.74-.07,2.25,2.25,0,0,1-1.13-1.32L120,297.6l4.25-1.48.75,2.13,4.25-1.49-1.48-4.25-6.39,2.22a2.21,2.21,0,0,1-1.73-.07,2.26,2.26,0,0,1-1.14-1.32l-3-8.52a2.23,2.23,0,0,1,.08-1.7A2.15,2.15,0,0,1,117,282l8.51-3a2.3,2.3,0,0,1,2.88,1.39l1.48,4.26-4.26,1.48-.74-2.13-4.26,1.48,1.48,4.26,6.39-2.22a2.28,2.28,0,0,1,2.87,1.39l3,8.51a2.23,2.23,0,0,1-1.39,2.87Z"/><path class="cls-6" d="M139.29,298.06a2.23,2.23,0,0,1-1.74-.07,2.28,2.28,0,0,1-1.13-1.32l-5.93-17a2.22,2.22,0,0,1,1.39-2.87l8.52-3a2.3,2.3,0,0,1,2.87,1.39l5.93,17a2.24,2.24,0,0,1-.1,1.76,2.27,2.27,0,0,1-1.29,1.11Zm4.91-6.48-4.45-12.78-4.26,1.49,4.45,12.77Z"/><path class="cls-6" d="M152.07,293.61l-7.41-21.29,4.25-1.48,5.93,17,8.52-3,1.48,4.26Z"/><path class="cls-6" d="M167,288.43l-6.67-19.17a2.23,2.23,0,0,1,.08-1.7,2.2,2.2,0,0,1,1.31-1.17l8.51-3a2.2,2.2,0,0,1,1.72.11,2.16,2.16,0,0,1,1.15,1.28L179.74,284l-4.25,1.48-3-8.52-4.26,1.49,3,8.51ZM171,272.69l-1.48-4.26-4.26,1.48,1.48,4.26Z"/><path class="cls-6" d="M186.13,281.76l-5.93-17L176,266.21,174.46,262l12.78-4.45,1.48,4.26-4.26,1.48,5.93,17Z"/><path class="cls-6" d="M196.78,278.05l-7.41-21.29,12.77-4.44,1.48,4.25-8.51,3,1.48,4.25,6.39-2.22,1.48,4.26-6.39,2.22,1.48,4.26,8.52-3,1.48,4.26Z"/><path class="cls-6" d="M211.68,272.86l-7.41-21.29,10.64-3.7a2.2,2.2,0,0,1,1.72.11,2.14,2.14,0,0,1,1.15,1.28l5.93,17a2.23,2.23,0,0,1-1.39,2.87Zm7-7.22-4.44-12.77L210,254.35l4.45,12.77Z"/><path d="M275,247.47c-.32.72,0,1.71.06,2.46s0,1.9,1,2.11a38.77,38.77,0,0,0,5.39.27,19.35,19.35,0,0,0,2.95-.05c.36,0,.82,0,1.07-.3a3.76,3.76,0,0,0,.43-2.71c-.09-.59-.2-1.18-.3-1.76a1.33,1.33,0,0,0-.24-.58,1.36,1.36,0,0,0-1-.41,15.42,15.42,0,0,0-2.35-.2c-.72,0-1.46.08-2.18.12s-1.72,0-2.59,0a3.77,3.77,0,0,0-1.85.3C275,247,275.07,247.39,275,247.47Z"/><path d="M127.74,140.7c-.32.72,0,1.71.06,2.47s0,1.9,1,2.1a37.36,37.36,0,0,0,5.39.27,19.5,19.5,0,0,0,3,0c.36,0,.82,0,1.07-.3a3.88,3.88,0,0,0,.43-2.72c-.1-.58-.21-1.18-.31-1.76a1.07,1.07,0,0,0-.24-.57,1.33,1.33,0,0,0-1-.42,15.31,15.31,0,0,0-2.35-.19c-.72,0-1.45.08-2.17.11-.87,0-1.73,0-2.59,0a3.86,3.86,0,0,0-1.85.29C127.75,140.23,127.86,140.63,127.74,140.7Z"/><path class="cls-19" d="M73.15,522.79l702.52-297.6a21.58,21.58,0,0,1,30,22.51L772.17,512.54a2.35,2.35,0,0,1-2.29,2.05L236.6,524.32l-162.48,3A2.35,2.35,0,0,1,73.15,522.79Z"/><path class="cls-20" d="M715.78,218.17c1.05.33,2.26.21,2.67,1.23S726,254.69,726,254.69s-.7,5.41-6.18,2.33c-.27-.15-.54-1.2-.66-1.47l-1.71-3.79c-2.64-5.87-5.25-11.81-7.71-17.7a19.55,19.55,0,0,1-.9-3.79c-.31-1.5-.53-3.12-.86-4.66-.19-.92-.13-1.87-.28-2.8-.23-1.4-1.06-2.78-.76-4.25.24-1.21,1.44-1,2.42-1.12a15.16,15.16,0,0,1,6,.61Z"/><path class="cls-20" d="M725.34,252s9.25,1.91,11.56,2,7.28-.54,7.72-.05.32,2.28-2.69,3.77-11.61,2.65-12.84,2.9-8.22,2.48-8.35,1.93-1.42-8-1.22-8.76S722.83,251.11,725.34,252Z"/><path class="cls-21" d="M725.71,249c.26,0,8.21,4.1,11.59,4.4s4.93-.74,6.5-.16a2.4,2.4,0,0,1,1.64,2s-6.73,3.87-12.08,5.1-7.34-.48-9.11-.3-4.07,1.27-4.54.78-1.94-7.2-1.72-8.53,2.17.71,3.45,1.19S722.29,248.77,725.71,249Z"/><path class="cls-22" d="M719.31,263.52a6.18,6.18,0,0,1-.45-3.36c.32-1.74,7.66.73,13.83-.1a27.35,27.35,0,0,0,11.18-4.55,1.8,1.8,0,0,1-.08,2.16c-.87,1-4.6,2.37-7,3.2S719.31,263.52,719.31,263.52Z"/><path class="cls-23" d="M745.12,254.09s-1-.85-1.74,1.06-1.46,2.62-4.08,3.87a22.06,22.06,0,0,1-7.52,2.35c-3.32.47-8.9,1.55-10.2,1.62a16.82,16.82,0,0,0-2.37.32l.25.81s4.4-.48,8.58-1.21,17.72-3,17.73-7.37A2.34,2.34,0,0,0,745.12,254.09Z"/><path class="cls-21" d="M731,254.68s-5.14-2.47-6.84-2.64-3.34-2.41-3.48-2.84,1-2.38,4.06-3,2,3.2,2.5,4,2.14,1.32,3.83,2,2.24,1.1,2.14,1.24S731,254.68,731,254.68Z"/><path class="cls-23" d="M737.11,253.48s-2.37.45-2.91,1.27a25.33,25.33,0,0,1-4,4.46,3.82,3.82,0,0,1-2.18,1,5.62,5.62,0,0,0,2.85-3.1c.77-2.23,2.14-4.42,2.63-4.69S737.11,253.48,737.11,253.48Z"/><path class="cls-22" d="M725.11,252.73a6.19,6.19,0,0,1,2.07-1.22c.55-.18,1.28-.46,1.76,0s-.18.8-.53.49-1.32.34-1.53.44a5.76,5.76,0,0,0-1.29.85A.36.36,0,0,1,725.11,252.73Z"/><path class="cls-24" d="M677.72,200.06c.47-.21,3,1.28,3.42,1.48l9.25,4,11.61,5c2,.85,4,1.31,6,2.21.93.43,1.89.83,2.86,1.18a38.3,38.3,0,0,1,4.85,2.26c.45.22.93.37,1.38.62,1.49.81,3.15,2.66,1.48,4.24a17.91,17.91,0,0,0-1.41,1.72,10.91,10.91,0,0,1-2.27,1.9c-1.78,1.24-3.5,2.34-4.61,4.09a2.13,2.13,0,0,1-2.54.87c-.65-.24-1.29-.54-1.87-.74a29.39,29.39,0,0,0-4.52-1.07c-2.06-.38-4-1.17-6-1.72-2.28-.61-4.54-1.28-6.81-1.9-3.82-1-7.33-2.6-11.08-3.81-3-1-5.63-.27-8.61-3.76a10.06,10.06,0,0,1-2.07-3.81,5.65,5.65,0,0,1,.37-4.06,5.18,5.18,0,0,0,0-4C670.69,203.33,674.19,201.63,677.72,200.06Z"/><path class="cls-25" d="M664.82,268c-.43,0-12.88-11.85-12.56-12.31,1.65-2.37,5.68-4,7.3-4.62a1.16,1.16,0,0,1,1.2.26l1.6,1.51a4.86,4.86,0,0,1,1.46,3.65s0,.15,0,.41,0,.38,0,.62a8.4,8.4,0,0,0,.18,1.6c0,.21.09.41.15.62a7.1,7.1,0,0,0,.59,1.49c1.22,2.26,2.45,3.92,1.64,5.12S665.25,268,664.82,268Z"/><path class="cls-26" d="M686.73,235.2a21.62,21.62,0,0,1,5.58,1.49c1.07.42,2.1.94,3.19,1.33a5.93,5.93,0,0,1,1.87.92c.31.26-.12.71-.43.46-1.07-.88-3.13-1.43-4.44-2a21.75,21.75,0,0,0-5.76-1.61C686.35,235.78,686.33,235.16,686.73,235.2Z"/><path class="cls-26" d="M687.92,234.37c1.79.15,3.59,0,5.28.71.37.16.06.7-.3.54-1.57-.68-3.31-.49-5-.63C687.54,235,687.52,234.33,687.92,234.37Z"/><path class="cls-20" d="M698.06,239.33c-.37.37-.73.7-1,1a37.29,37.29,0,0,1-3.72,4.23,11.4,11.4,0,0,1-3.09,1.52c-2.12.86-4.15,1.79-6.25,2.81-7.07,3.43-14.1,7-21.12,10.5,0,0-5.29.57-3.61-5.33,0,0,15.85-12.28,17.78-13.61,3.63-2.51,8.19-4,12.25-5.62a25.08,25.08,0,0,1,4.09-1.63c1.4-.28,2.36.52,3.55,1s2.63.72,2.76,2.32C699.79,237.5,698.89,238.5,698.06,239.33Z"/><path class="cls-20" d="M664.21,257.86s.21,9.22.61,11.45,2.11,6.79,1.74,7.32-2.1.81-4.17-1.73-5.07-10.46-5.58-11.57-4.16-7.28-3.67-7.52,7.34-3.11,8.07-3.08S664.5,255.28,664.21,257.86Z"/><path class="cls-21" d="M667.12,257.57c0,.24-2.09,8.7-1.65,12s1.79,4.53,1.58,6.15a2.31,2.31,0,0,1-1.55,2s-5.15-5.55-7.5-10.37-1.15-7.07-1.7-8.72-2.11-3.6-1.75-4.15,6.43-3.42,7.74-3.51-.2,2.22-.37,3.55S666.61,254.26,667.12,257.57Z"/><path class="cls-22" d="M651.93,254.66a6.06,6.06,0,0,1,3.1-1.17c1.71-.08,1,7.45,3.13,13.13a26.55,26.55,0,0,0,6.77,9.64,1.77,1.77,0,0,1-2.07.4c-1.17-.61-3.27-3.86-4.58-6S651.93,254.66,651.93,254.66Z"/><path class="cls-23" d="M666.55,277.13s.6-1.14-1.39-1.41-2.81-.82-4.57-3a21.66,21.66,0,0,1-3.88-6.64c-1.18-3.05-3.43-8.13-3.79-9.34a15.54,15.54,0,0,0-.81-2.18l-.72.41s1.42,4.08,3,7.89,6.78,16.19,10.9,15.25A2.24,2.24,0,0,0,666.55,277.13Z"/><path class="cls-21" d="M662.89,263.8s1.22-5.43,1-7.09,1.56-3.7,1.94-3.93,2.47.39,3.71,3.21-2.61,2.57-3.24,3.25-.79,2.33-1.06,4.08-.55,2.37-.7,2.31S662.89,263.8,662.89,263.8Z"/><path class="cls-23" d="M665.38,269.39s-.94-2.16-1.85-2.49a25.61,25.61,0,0,1-5.11-2.78,3.72,3.72,0,0,1-1.42-1.86,5.5,5.5,0,0,0,3.58,2c2.28.24,4.68,1.06,5,1.48S665.38,269.39,665.38,269.39Z"/><path class="cls-22" d="M664,260.85a7.26,7.26,0,0,1,1.74,1.43c.36.4.88.93.81,1.51s-.76.45-.71,0-.61-1.05-.92-1.36a6.67,6.67,0,0,0-1.27-1C663.24,261.23,663.58,260.61,664,260.85Z"/><path class="cls-22" d="M664.46,257.77a6,6,0,0,1,1.77,1.55c.34.45.81,1,.56,1.62-.18.42-.79.07-.61-.34.11-.25-.72-1.13-.87-1.29a5.38,5.38,0,0,0-1.19-.93C663.73,258.15,664.07,257.54,664.46,257.77Z"/><path class="cls-27" d="M666.15,199c-1.93,3.43-2.09,11.07-1.32,15s3.92,7.14,6.92,9.35a18.08,18.08,0,0,1,2.35,2.44,58,58,0,0,0,4.78,4.35c1.38,1.17,2.71,2.2,4.21,3.25.71.5,1.39,1.18,2.14,1.61-.75-.36-2.28-.13-1.5,1-1.78-.9-5.73,2.33-6.56,3.73a6.85,6.85,0,0,1,2.45,2.82c.27,1.06-.07,2,.94,2.74.62.44,1.44.37,2.09.84,1.07.79,1.58,2,3,2.14a8.12,8.12,0,0,0,4.68-1.2c3.74-2.36,7.85-4.91,9.85-9.09,2.75-5.78-4.3-12.76-7.25-17.08-4-5.79-7.81-11.69-12.48-16.94-1.69-1.89-4-5-6.28-6.13a2.91,2.91,0,0,0-.6-.22C670.92,197,667.33,197,666.15,199Z"/><path class="cls-28" d="M684.9,152.91c.2.51,1.38.79,1.83,1,.89.33,1.8.59,2.69.92a14.39,14.39,0,0,1,6,5,17.44,17.44,0,0,1,2,3.06c.5,1.08.68,2.3,1.23,3.36.66,1.27,2.07,2.3,2.41,3.75a9.55,9.55,0,0,1,.28,2,8.78,8.78,0,0,1-.5,2c-.13.56-.09,1.14-.24,1.72-.3,1.16-.63,2.31-.94,3.46a4.42,4.42,0,0,1-1.09,2.28c-1,.83-1.71-.33-2.09-1.15a3.07,3.07,0,0,0-.67-1.07,4.51,4.51,0,0,1-.85-.84c-1.16-1.75-1.54-3.92-2.3-5.85l-5.72-14.54Z"/><path class="cls-20" d="M689.09,157.73a15.49,15.49,0,0,0-2.15-.72,26.11,26.11,0,0,0-5.45-.69,60.26,60.26,0,0,0,1.43-6.59c-.22-.79-4.83-5-5-10.62s7.87-12.07,16.27-6.89c2.94,1.81,4.07,5.9,4.2,7.87s-.06,2.74,0,3.14,2.21,2.3,2.2,2.61c0,.5-.59.86-1.15,1s.12,1.44.12,1.44l-.59.83s.31.66.23.9a4,4,0,0,1-.55.77s.62,1.21.33,1.71-1.5,1.06-3.2,1-4.44-1.36-4.71-1.11A8.15,8.15,0,0,1,689.09,157.73Z"/><path class="cls-29" d="M697.37,139.22a5.51,5.51,0,0,1-2.94-1.85,3.79,3.79,0,0,0-1.77-1.09c-1.3-.4-2.5.52-3.75,0a2.5,2.5,0,0,1,.49,1.51c.05,1-.51,1.37-1.06,2.12-1.11,1.49,1,2,.63,3.35-.45.19-1.15-.19-1.63.15-.72.51,0,1.42-.35,2-.25.44-1.24.74-1.69,1l-.82,2.74-.23,1.84-1.42.29a5.27,5.27,0,0,0-.52-2.26c-1.08-1.62-2.49-3-3.53-4.63a13.9,13.9,0,0,1-2.47-7.39,4,4,0,0,1,3.14-4c-.46-1.17-.69-2.37.34-3.33.12-.12.5-.28.56-.37.19-.27.06-.58.15-.9a3.25,3.25,0,0,1,2.78-2,10.81,10.81,0,0,1,4.08-.21c.9.19,1.74.57,2.61.84a6.13,6.13,0,0,0,2.39.46,10.6,10.6,0,0,0,2.57-1.07c1.53-.63,3.48-1.39,4.78,0,.73.8.12,1.93,1,2.56s1.81.69,2.43,1.54a3.67,3.67,0,0,1,.07,3.17,5.26,5.26,0,0,0-.2,1.84,1.44,1.44,0,0,1-.62,1.32c-.6.35-1.54.13-2.1.47s-.37,1.06-.76,1.46A2.46,2.46,0,0,1,697.37,139.22Z"/><path class="cls-20" d="M684.69,140.19c1.45-1.34,3.09,1.65,3.66,2.6.36.59-.49,1.2-.87.65l.35.52c.41.58,1.16,1.38.79,2.15-.71,1.51-3.09-.22-3.76-1.07C683.36,143.12,683.51,141.28,684.69,140.19Z"/><path class="cls-30" d="M685.21,142.13a2.69,2.69,0,0,1,1.41,1.91L687,144a.72.72,0,1,0-1.33.56c.08.2.37,0,.29-.17a.39.39,0,1,1,.71-.3A.17.17,0,0,0,687,144a3,3,0,0,0-1.57-2.11c-.19-.11-.36.19-.17.29Z"/><path class="cls-29" d="M695,138.12c-.31,0-.84.44-1.08.64a3.6,3.6,0,0,0-.95,1.12c-.13.26-.25.63.09.72s.58-.19.77-.37a3,3,0,0,1,1.79-.95c.59-.1,1-.56.64-1.05s-1.62-.34-2,.41"/><path class="cls-30" d="M698.66,148.87a2.91,2.91,0,0,0-2.09-.15c-.25.11-.85.36-.93.68a.11.11,0,0,0,0,.13h0c.13.11.33-.08.19-.19.13.1.23-.06.37-.15a2.55,2.55,0,0,1,.57-.29,3,3,0,0,1,1.77.22c.17.06.24-.21.07-.26Z"/><path class="cls-31" d="M678.59,156.57a17.29,17.29,0,0,0-2.94,2.62c-3.31,3.7-4.63,7.8-6.08,12.49A167.68,167.68,0,0,0,665,191.77c-.53,3-1.4,5.84-1.33,8.91,0,1.76-2,7.39.11,8.22.67.27,3.51-1.34,4.26-1.43,1.12-.14,1.17.14,2.21.8a6,6,0,0,0,4.2.52c1-.27,1.93-1.21,3-1.4a8.59,8.59,0,0,1,3.58.52,14,14,0,0,0,2.94.84c2.07,0,2.37-2.15,2.73-3.88.6-2.86,2-5.29,3.18-7.93a26.49,26.49,0,0,0,2.58-11.49c0-4.75,1.17-9.35,1.53-14,.31-4.1.53-8.72-1.63-12.39-1.89-3.2-6.68-6.4-10.41-4.46A27.75,27.75,0,0,0,678.59,156.57Z"/><path class="cls-29" d="M696.07,141.22c.12.1.3.48.13.61s-.4-.27-.44-.41-.13-.46,0-.57.39.14.45.3,0,1-.25.44c0-.08-.18-.51-.09-.56s.13.59.09.65l.29,0a1.13,1.13,0,0,1-.2-.64l-.34.09a.85.85,0,0,1,.17.56c0,.2.32.25.36.05l-.07.07-.23-.13.05.14c.08.22.44.12.36-.1l-.05-.13a.19.19,0,0,0-.23-.13h0a.19.19,0,0,0-.13.13v.05l.36,0a1.2,1.2,0,0,0-.22-.74c-.09-.14-.37-.1-.34.09a1.46,1.46,0,0,0,.3.9.19.19,0,0,0,.29,0,1.08,1.08,0,0,0-.09-1,.38.38,0,0,0-.67.06c-.17.43.37,1.79.93,1.19a1.11,1.11,0,0,0-.48-1.65c-.85-.17-.63,1.13-.33,1.53a.54.54,0,0,0,.86.11.88.88,0,0,0-.15-1.12c-.19-.14-.45.12-.26.26Z"/><path class="cls-19" d="M637.16,283.39a2.47,2.47,0,0,1-.34-2.9,5.29,5.29,0,0,1,1-1.36c.32-.31,1.24-.6,1.45-1s-.06-.88,0-1.19a4.61,4.61,0,0,1,1.13-2.53,3.45,3.45,0,0,1,3.44-1.38c0-1.71,2.18-3.36,3.82-3.36a6.23,6.23,0,0,1,5.88-5,2.73,2.73,0,0,1,2.59,1.82c.29.61.71,1.48.09,2,1.27.25,2.18.17,2.89,1.54.48.91.17,1.34-.25,2.14,1.43,1.47.7,3.45-.62,4.9-1.49,1.62-3.41.51-5.25.71-1,2.75-4,3-6.28,4a7.79,7.79,0,0,1-1.72.75c-2.13.46-5.25,1.59-7.41,1A1.56,1.56,0,0,1,637.16,283.39Z"/><path class="cls-32" d="M697.46,271.2a2.47,2.47,0,0,1-.34-2.9,5.34,5.34,0,0,1,1-1.37c.32-.3,1.24-.59,1.45-.95s-.06-.89,0-1.19a4.61,4.61,0,0,1,1.13-2.53,3.44,3.44,0,0,1,3.44-1.38c.05-1.71,2.18-3.36,3.82-3.36a6.21,6.21,0,0,1,5.89-5,2.73,2.73,0,0,1,2.58,1.82c.29.61.71,1.48.09,2,1.27.25,2.18.17,2.89,1.53.48.92.17,1.35-.25,2.14,1.43,1.48.7,3.46-.62,4.9-1.49,1.63-3.41.51-5.25.72-1,2.75-4,3-6.28,4a7.82,7.82,0,0,1-1.72.76c-2.13.46-5.25,1.59-7.4,1A1.49,1.49,0,0,1,697.46,271.2Z"/><path class="cls-30" d="M706.29,172.52c2.4-4.33,5.06-9.55,5.06-9.55s1.73-5.45-1.37-3.39a10.13,10.13,0,0,0-1.82,2.09c-1.24,1.47-8.36,11-9.62,12.47a10.54,10.54,0,0,0-1.25,2.4,5.12,5.12,0,0,0,0,2.46,4.61,4.61,0,0,1,0,2.45c-.18,1.07-1.08,2.12-.62,3.22s2.05-.56,2.54-1.06a12.08,12.08,0,0,0,1.18-1.38c1.06-1.45,1.94-3.12,2.9-4.66S705.34,174.23,706.29,172.52Z"/><path class="cls-30" d="M706.68,161.47a4.35,4.35,0,0,1,0-3.6,2.87,2.87,0,0,0,.49-1.71,6.57,6.57,0,0,1-.24-.8.94.94,0,0,1,.41-.8.85.85,0,0,1,.61-.18c.13,0,.32.23.42.2s.21-.4.27-.49a1.67,1.67,0,0,1,.84-.66A8.84,8.84,0,0,1,712.8,155a1.08,1.08,0,0,1,1.31.88c.38-.15.76.27.9.66a3.77,3.77,0,0,1-.32,2.95,10,10,0,0,1-2,2.59c-.39.39-.78.77-1.2,1.12s-.61.71-1,.65a3.36,3.36,0,0,1-.77-.31c-.68-.29-1.36-.57-2-.89a1.74,1.74,0,0,1-.83-.8Z"/><path class="cls-33" d="M684.66,155.63c4.28,0,8.1,3.26,9.78,7.18a62.91,62.91,0,0,1,2.93,10.26c.28,1.19.81,2.13,0,3.18-1,1.24-2.69,1.7-3.74,2.81-.65.69-1.16,1.5-1.8,2.19s-1.28,2.09-2.11,2.05c-1.68-.1-2.4-3.29-3.14-4.35-2.11-3-4.5-5.87-5.84-9.41-1.09-2.84-2.6-6.49-1.7-9.55a5.72,5.72,0,0,1,4.66-4.3A8,8,0,0,1,684.66,155.63Z"/><path class="cls-20" d="M706.74,160.63a1.37,1.37,0,0,0-.94.3c-1.09.84-1.75,2.68-2.62,3.76-1.5,1.87-2.84,3.88-4.47,5.64-1.86,2-4.21,3.56-5.93,5.66a15.37,15.37,0,0,0-2.52,4.39c-.5,1.37-.68,3.56.66,4.57a4.73,4.73,0,0,0,5.65.12s4.6-7.7,6.81-12.13c1.37-2.75,2.94-5.39,4.56-8,.53-.85,1.3-1.58.88-2.61s-2.21-2.58-3.32-1.9-1.37,2-1.93,2.91a49.82,49.82,0,0,1-5,6.74c-2.86,3.32-6.67,6.83-8.09,11a5.64,5.64,0,0,0,.27,3.4c1.34.9,3.14,2.14,4.64.43"/><path class="cls-18" d="M710.24,155l-23-.94a39.36,39.36,0,0,0-8.85,1.05l-394.9,93.08"/><line class="cls-18" x1="708.99" y1="154.41" x2="136.52" y2="142.39"/><path class="cls-20" d="M705.23,161a4.35,4.35,0,0,1,.15-3.6,2.86,2.86,0,0,0,.55-1.69,6.09,6.09,0,0,1-.22-.81,1,1,0,0,1,.44-.78.85.85,0,0,1,.61-.16c.13,0,.32.24.42.21s.22-.39.28-.48a1.67,1.67,0,0,1,.86-.62,9,9,0,0,1,3.24,1.63,1.08,1.08,0,0,1,1.28.93c.39-.14.75.29.88.69a3.81,3.81,0,0,1-.42,2.94,10.24,10.24,0,0,1-2.07,2.52c-.4.37-.81.74-1.24,1.07s-.62.69-1,.62a4.25,4.25,0,0,1-.77-.33c-.66-.32-1.34-.62-2-1a1.79,1.79,0,0,1-.8-.83A3.54,3.54,0,0,1,705.23,161Z"/><path class="cls-24" d="M677.85,208.47c.07-.13.13-.25.19-.38l-.24-.14a7.76,7.76,0,0,1-1.22,2.17,9.16,9.16,0,0,1-1.69,1.48c-.36.26-1.61.89-1.44,1.49a.13.13,0,0,0,.26-.07c-.13-.48,1.94-1.59,2.3-1.92a8.31,8.31,0,0,0,1.19-1.32,8.59,8.59,0,0,0,.84-1.69c.07-.16-.16-.3-.24-.14l-.18.38c-.08.16.16.3.23.14Z"/><path class="cls-24" d="M678.43,215.55c-.06,1.75,1.18,3.26,2.22,4.57,1.77,2.24,3.6,4.43,5.46,6.59s3.62,4.3,5.4,6.47c.51.63,1.88,1.95.17,2.68-.28.13-1.23-.31-1.49-.39a23.73,23.73,0,0,0-2.62-.75c-.12,0-.24.13-.13.23a10.52,10.52,0,0,0,1.63,1.11,7.81,7.81,0,0,0-1.31-.17.14.14,0,0,0-.1.23c1.36,1.24-1.32,1.76-2.29,2a17.53,17.53,0,0,0-2.72,1c-.15.08,0,.31.14.24,2-1,4.15-1.32,6.15-2.21.08,0,.08-.15,0-.21-.83-.9-.17-.74.66-.58a.14.14,0,0,0,.11-.25,7,7,0,0,0-1.09-.7c-1-.45-1.16-.58-.49-.37a8,8,0,0,1,2,.6c.55.17,1.69.69,2.29.46,1.36-.52.21-2-.36-2.77-2.18-2.86-4.61-5.55-6.94-8.28-1.19-1.41-2.33-2.86-3.51-4.28s-3-3.29-2.9-5.31c0-.17-.26-.17-.27,0Z"/><path class="cls-24" d="M671.63,218a15.8,15.8,0,0,0,6.7,6.2c.16.08.3-.16.14-.24a15.44,15.44,0,0,1-6.6-6.1.14.14,0,0,0-.24.14Z"/><path class="cls-24" d="M673.82,222.46a30.52,30.52,0,0,0,2.52,2c.14.1.28-.13.13-.23a31.32,31.32,0,0,1-2.46-2c-.13-.11-.33.08-.19.19Z"/><path class="cls-24" d="M686.18,244.61c1.6.58,3.53-1,5.06-1.33.17,0,.1-.3-.07-.26-1.46.31-3.41,1.88-4.92,1.33-.16-.06-.23.2-.07.26Z"/><path class="cls-24" d="M686.92,245.44l1.66-.33c.17,0,.1-.29-.07-.26-.56.1-1.11.21-1.67.33-.17,0-.09.3.08.26Z"/><path class="cls-28" d="M678.1,182.48a93.49,93.49,0,0,0-2.1,10.87,34.7,34.7,0,0,1-4.09,12.38c-.08.15.15.29.23.14a32.88,32.88,0,0,0,3.92-10.72,120.24,120.24,0,0,1,2.31-12.6.14.14,0,0,0-.27-.07Z"/><path class="cls-28" d="M681.44,184.22a42,42,0,0,1-2,4.44.13.13,0,1,0,.23.13,44.09,44.09,0,0,0,2-4.43c.07-.16-.17-.3-.24-.14Z"/><path class="cls-32" d="M692,438.35c-.5-4.71,2.71-8.82,5.7-12.11,2.79-3.08,6-5.77,8.78-8.82.44-.47-.27-1.18-.71-.7-5.36,5.79-15.73,12.58-14.77,21.63.06.64,1.06.64,1,0Z"/><path class="cls-32" d="M697.29,437.28a37.44,37.44,0,0,1,9.23-12.54c.48-.43-.23-1.14-.71-.71a38.53,38.53,0,0,0-9.39,12.74c-.25.58.61,1.09.87.51Z"/><path class="cls-32" d="M517.47,341.12c-2.14,5.13-4.49,10.17-6.65,15.3-.25.59.71.85,1,.26,2.16-5.12,4.51-10.16,6.65-15.3.25-.59-.72-.85-1-.26Z"/><path class="cls-32" d="M521.69,343.48c-3.49,2.3-4.94,5.93-6.83,9.49-.31.57.56,1.07.86.51,1.8-3.38,3.15-7,6.47-9.14.54-.35,0-1.22-.5-.86Z"/><path class="cls-32" d="M415.39,423.54c5.12.76,6.36,6.85,7.07,11.12s.65,8.91,1.9,13.14a.5.5,0,0,0,1-.27c-1.45-4.92-1.21-10.26-2.3-15.28-.89-4.09-2.65-9-7.36-9.68-.63-.09-.9.87-.27,1Z"/><path class="cls-32" d="M422.36,421.19c1.4,5,2.44,10.15,3.33,15.3.1.63,1.07.37,1-.26a150.5,150.5,0,0,0-3.33-15.3.5.5,0,0,0-1,.26Z"/><path class="cls-32" d="M433.67,434.23c-.71,2.65-1.19,5.36-2,8-.19.62.78.88,1,.27.8-2.63,1.28-5.33,2-8a.5.5,0,0,0-1-.27Z"/><path class="cls-32" d="M283.49,483.93a102.25,102.25,0,0,1,9.31,9.31c.43.48,1.14-.23.71-.7a99.87,99.87,0,0,0-9.32-9.31c-.48-.42-1.19.29-.7.7Z"/><path class="cls-32" d="M292.05,481.84a27.63,27.63,0,0,1,2.6,9.06c.05.63,1.05.64,1,0a29.34,29.34,0,0,0-2.73-9.57c-.27-.58-1.13-.08-.87.51Z"/><path class="cls-32" d="M147,492.36c2,4.75,1.78,10.08,4,14.75.28.58,1.14.07.86-.51-2.21-4.57-2-9.84-3.94-14.51-.25-.58-1.21-.33-1,.27Z"/><path class="cls-32" d="M151,492.23a24.61,24.61,0,0,0,.68,6.78c.15.62,1.12.36,1-.27a23.81,23.81,0,0,1-.65-6.51.5.5,0,0,0-1,0Z"/><path class="cls-32" d="M597.53,485.16c3.16-5.52,5.07-11.91,10.46-15.78.52-.37,0-1.24-.51-.86-5.56,4-7.54,10.42-10.82,16.14a.5.5,0,0,0,.87.5Z"/><path class="cls-32" d="M601.44,483.93c2.47-3.08,4.55-6.47,7.31-9.31.45-.46-.25-1.17-.7-.71-2.77,2.85-4.85,6.23-7.32,9.32-.4.49.31,1.21.71.7Z"/><path class="cls-32" d="M588.61,470.28c.45,4.21.82,8.43,1.33,12.63.08.63,1.08.64,1,0-.51-4.2-.88-8.42-1.33-12.63-.06-.64-1.06-.64-1,0Z"/><path class="cls-32" d="M697.09,302.42c-2.58,4.09-5.22,8.12-6.7,12.76-.2.61.77.88,1,.27,1.46-4.57,4.07-8.5,6.6-12.52.35-.55-.52-1.05-.86-.51Z"/><path class="cls-32" d="M699.83,305.65q-2.16,2.61-4.07,5.42c-.36.53.5,1,.86.51a64.61,64.61,0,0,1,3.92-5.22c.4-.5-.3-1.21-.71-.71Z"/><path class="cls-32" d="M683.74,307.47c.72,2.64,1.52,5.27,2,8,.11.63,1.08.36,1-.27-.47-2.71-1.27-5.33-2-8a.5.5,0,0,0-1,.27Z"/><path class="cls-32" d="M795.7,254.36c-3.46,2-3.76,7.51-4.88,10.94-.2.61.76.87,1,.27,1-3.13,1.32-8.52,4.43-10.35a.5.5,0,0,0-.51-.86Z"/><path class="cls-32" d="M795.52,258.53a52.87,52.87,0,0,0-3.32,6c-.28.58.58,1.09.86.51a53.08,53.08,0,0,1,3.33-6c.35-.54-.52-1-.87-.5Z"/><path class="cls-32" d="M789.05,261a7.13,7.13,0,0,0-2.91,6.42c0,.64,1,.64,1,0a6.13,6.13,0,0,1,2.42-5.56c.52-.37,0-1.23-.51-.86Z"/><path class="cls-32" d="M762.27,381.41c2,4,4.49,7.64,5.93,11.85.21.61,1.18.35,1-.26-1.47-4.3-4-8.05-6-12.1-.28-.57-1.15-.07-.86.51Z"/><path class="cls-32" d="M771.51,385.15v8.64a.5.5,0,0,0,1,0v-8.64a.5.5,0,0,0-1,0Z"/><path class="cls-32" d="M776.18,385.68a30.47,30.47,0,0,1-2.61,5.2c-.34.55.53,1.05.87.51a33.34,33.34,0,0,0,2.71-5.45c.23-.59-.73-.85-1-.26Z"/><path class="cls-32" d="M592.09,370.87a17.3,17.3,0,0,1,5.19,7.76.5.5,0,0,0,1-.27,18.29,18.29,0,0,0-5.45-8.2c-.47-.43-1.18.27-.7.71Z"/><path class="cls-32" d="M600.58,372.51c.45,3.33.93,6.65,1.33,10,.08.63,1.08.64,1,0-.4-3.33-.88-6.65-1.33-10-.08-.63-1.08-.64-1,0Z"/><path class="cls-32" d="M607.74,377a.5.5,0,0,0,0-1,.5.5,0,0,0,0,1Z"/><path class="cls-32" d="M507.49,504.33c1.17,4,2.52,7.9,3.33,12,.12.63,1.08.36,1-.26-.8-4.08-2.16-8-3.32-12a.5.5,0,0,0-1,.27Z"/><path class="cls-32" d="M513.46,503.53a33.23,33.23,0,0,0,.68,7.45c.13.63,1.1.36,1-.27a32,32,0,0,1-.65-7.18.5.5,0,0,0-1,0Z"/></g></g></svg>