<?xml version="1.0" encoding="utf-8"?>
<!-- Generator: Adobe Illustrator 23.0.2, SVG Export Plug-In . SVG Version: 6.00 Build 0)  -->
<svg version="1.1" id="Layer_1" xmlns="http://www.w3.org/2000/svg" xmlns:xlink="http://www.w3.org/1999/xlink" x="0px" y="0px"
	 viewBox="0 0 952.7 814.6" style="enable-background:new 0 0 952.7 814.6;" xml:space="preserve">
<style type="text/css">
	.st0{opacity:0.1;fill:#007CC7;enable-background:new    ;}
	.st1{opacity:0.1;fill-rule:evenodd;clip-rule:evenodd;fill:#007CC7;enable-background:new    ;}
	.st2{fill:#AFC7D7;}
	.st3{fill:#F4E9DC;}
	.st4{fill:#FBD5AF;}
	.st5{fill:#FFFFFF;}
	.st6{fill:#FFF4D6;}
	.st7{fill:#F3A769;}
	.st8{fill:#E2C6A9;}
	.st9{fill:#F5BD83;}
	.st10{fill:#C64A27;}
	.st11{fill:#3E1D1D;}
	.st12{fill:#FFE6D6;}
	.st13{fill:#331318;}
	.st14{fill:#002042;}
	.st15{opacity:0.7;fill:#D19D6F;enable-background:new    ;}
	.st16{fill:#EFEAEA;}
	.st17{fill:#FFF1E4;}
	.st18{fill:#0076C2;}
	.st19{fill:#D19D6F;}
	.st20{fill:#1B354C;}
	.st21{fill:none;}
	.st22{fill:#56222C;}
	.st23{opacity:0.43;fill:#D19D6F;enable-background:new    ;}
	.st24{fill:#F0E6E1;}
	.st25{fill:#96C7F6;}
	.st26{fill:#FDA689;}
	.st27{fill:#472516;}
	.st28{fill:#C7725A;}
	.st29{fill:#633625;}
	.st30{fill:#673636;}
	.st31{fill:#473227;}
	.st32{fill:#007CC7;}
	.st33{fill:#803D3D;}
	.st34{fill:#422645;}
	.st35{fill:#6B3232;}
	.st36{fill:#162040;}
	.st37{fill:#803C3A;}
	.st38{fill:#DD6B4B;}
	.st39{fill:#E0585E;}
	.st40{fill:#C64751;}
	.st41{fill:#FF9A6B;}
</style>
<path class="st0" d="M952,472c-5.1,45.5-22.5,70.9-43.6,88c-35.8,29.2-82.1,34.7-96.3,75.8c-22.5,65.2,32.5,76.4,38.7,103.3
	c0.7,2.8,1.1,5.5,1.2,8.2c0,0.1,0,0.1,0,0.2c0,0.4,0,0.8,0.1,1.3v0.4c0,0.3,0,0.5,0,0.8c0,0.2,0,0.4,0,0.6c0,0.1,0,0.2,0,0.3
	c0,0.3,0,0.6,0,0.9c0,0.1,0,0.2,0,0.3c0,0.2,0,0.3,0,0.5c0,0.3,0,0.5,0,0.8c-9.2,120.8-555.3,31.7-742.4-2.4
	C18,734.2-28.9,631,19.1,551.3c0.7-1.2,1.5-2.4,2.2-3.6C97.1,427,186.7,462.6,225.8,327.8S454.4,152.4,642.6,152
	c188.2-0.4,147,116.5,142.8,175.8C781.3,387.1,965.7,349.1,952,472z"/>
<path class="st1" d="M897.2,200.5c0-56.7-38.4-104.5-90.6-118.7c-8.3-12.7-22.9-20.6-39.1-19.6c-2.8,0.2-5.5,0.6-8.1,1.3
	c-17.7-25.7-48.1-41.7-81.5-39.5c-17.8,1.2-34,7.4-47.5,17.1C591.4,1,528.1-6.9,479.8,25.3C444.9,48.5,426.3,87,426.9,126
	c-2.2,1.2-4.4,2.4-6.5,3.8c-32,21.2-40.6,64.4-19.4,96.3c9,13.6,22,22.9,36.4,27.6c2.5,7.6,6.1,15,10.7,21.9
	c16.7,25.1,43.8,39.3,71.8,40.7c1.9,6,4.6,11.9,8.3,17.5c20.9,31.4,63.3,39.9,94.7,19c5.1-3.4,9.6-7.4,13.5-11.8
	c38.7,31.5,94.8,35.8,138.5,6.7c11.7-7.8,21.5-17.3,29.4-28C857.7,306.3,897.2,258,897.2,200.5z"/>
<g>
	<path class="st2" d="M143.4,680.9c-4.8,1.3-8.8,3.1-17.4,4.6c3.8-1.5-4.6,0.5-4.7,0.2c-4.3,1.5-8.5,3.1-12.7,4.9
		c-6.4,2-13.8,4.8-18.8,8.3c1.7-1.1,4.1-2.5,7.2-3.8c-3.9,2.4-7.7,4.4-11.6,7c-3.8,2.6-7.9,6-9.9,11.1c0.4-1.6,1.3-3.1,2.1-4.6
		c-2.8,3.5-3.9,7.1-4.2,10.4c-0.2,3.4,0.6,6.4,1.8,9.1l-1,0c0.8,0.3,2.4,3.4,4.6,6.3c2.1,3,4.6,5.8,5.6,6.8
		c-5.7-6.5-7.2-10.3-8.2-13.8c-0.4-1.8-0.8-3.7-0.8-6.2c0-1.2,0.1-2.7,0.5-4.3c0.3-1.7,1-3.5,2-5.6c-2.2,6.5-1.9,11.6,1.8,17.5
		c0.9,2.3,1.3,3.2,1.1,3.5c1.6,1.7,2.7,2,5.3,5.1l0.2,1.1c3.2,4.5,5.3,6.2,7.5,7.9c1.1,0.8,2.2,1.7,3.6,2.7c1.4,1.1,3.1,2.4,5.7,4.1
		c0.7,1-2.2-0.1-5.4-2.4c-3.3-2.3-6.5-5.8-8.8-8.1c1.1,2.1-0.7,0.2-2.5-1.8c-1.8-1.9-3.5-3.9-2.4-1.2l2.7,2.3
		c2.1,2.6,1.2,2.5-0.1,0.9c3,3.3,2.1,2.6,3.8,3.7c3,3.3,4.8,5,5.5,5.7c0.7,0.8,0.3,0.7-0.1,0.6c-0.4-0.1-0.9-0.2-0.2,0.6
		c0.3,0.4,0.9,1,2.1,1.9c1.2,0.9,2.9,2.1,5.9,3.4c-1.4-0.5-3.7-1.5-5.3-2.4s-2.7-1.5-2.5-1c-3.2-2.4-5.6-5-7.7-7.4l-1,0.2
		c3.9,4.6,9,8.5,14.7,10.6c5.7,2.1,10.6,2.4,14.5,2.4c-3.8-0.3-5.8-0.8-6.8-1.1c-1-0.3-0.9-0.4-0.5-0.5c0.7-0.2,2.1-0.2-1.4-1.4
		c2.9,0.6,5.4,1.3,7,1.7c0.6,0,2.7,0.2,4.5,0.3c1.8,0.1,3.4,0,2.9-0.2c0.8,0.5,3.3,0.9,6.4,1.2c3.1,0.3,6.8,0.3,10.2,0.5
		c6.8,0.1,12.5,0.2,9.3,1.2c4.1,0,12.6-0.8,22-2c9.4-1.2,19.8-2.8,28.4-4l-4.5,1.1c18.2-0.9,15.4-3.2,25.7-4.8
		c-9,1.6,8.2-0.2,11.9-0.1c8-1.2,14.4-2.7,25.8-3c2.4,0.7,2.7,1.6,9.9,1.8c1.6-0.2,3.3-0.4,4.9-0.5c7.2,0.2,17,0.2,21.6,1l-1,0
		c8.1,0.9,8.6,0,2.3-0.7l7.9,0.2l0.2,0.2c10.4,0.4,20.3,0.3,36.8,1.9c-4.6,0.2,12.2,2.5-2.7,1.2c4.4,0.1-2.2-0.9-3-1.3
		c-5.4-0.7-10.4-0.5-12.8-0.6c1.7,0.5-0.1,1.3-3,1.5c5.4,0,15.5,1,24.7,1.8c9.2,0.8,17.5,1.4,18.9,0.6c6.7,0.6,14.4,1.2,22.5,1.6
		c8,0.2,16.3,0.5,24.1,0.9c-0.6-0.1-1.9-0.2-1.5-0.4L420,760l-3.1,0.2l8.8,0.5c0.9,0.3-2.5,0.6-6.2,0.7c-2.1,0.1-4-0.1-1.9-0.2
		c-9.5,0.6,7.9,0.3,1.7,0.9c-2.3-0.1-5.4,0.1-7,0c10.9,0.4,15.9-0.7,22.6,0c2.6-0.4,6.5-0.8,11-1.2c4.5-0.3,9.5-0.7,14.4-0.8
		c-3.8,0.7,10.6-0.7,5.8,0.4c3.7-0.6,12.5-0.8,13.9-1.4c-1.3,0.3-5.6,0.6-8.5,0.7c4-0.5,4.4-1,9.3-1.4c0.6,0,0.3,0.2,0.3,0.2
		c6.3-1,1.9-1.8,13-2.8c29.1-3.2-3.8,2.2,0.4,2.1c1-0.5,13.8-2,19.7-2.3l-1.3,0.3c2.9-0.5,7.2-1.3,10.4-1.2c1.7-0.8,5-1.8,7-2.5
		l13-1.6l-2.6,0.7c2.9-0.5,5.5-0.8,8.1-1.1c1.2,0.4-2.6,0.7-6.5,1.3c2.2,0.2,4.8-0.1,7.8-1l-1.6,0.2c3.3-0.7,15.3-2.8,5.6-1.9
		c7.1-1.3,9.6-0.6,14.5-1.4c0.6,0.4-3.9,1-1.4,1c4.8-0.5,8-0.8,11.9-1.4c-3.8,0.3,1-0.5-5.1-0.1c2.3-0.5,8.4-1.3,8.1-1.5
		c-1.9,0.3-3.3,0.7-6.8,0.8c6.5-1,13.2-1.8,20-2.2c-0.2,0.1-0.9,0.3-1.6,0.5c8.5-1.6,21.5-2.9,27.2-4.2l-2.6,0.1
		c-2.1,0.4-6.3,0.9-8,0.8c6.5-0.9-4.8-0.3,2.1-1.4c9.4-1.3,18-1.1,23-2.5c-9,0.7-21.3,1.3-24.9,2.1c1.9-0.2,3.9-0.4,5.8-0.5
		c-4.4,0.8-8.7,1.7-13.1,2.5c-0.6-0.4-11.7,1.5-11.6,0.8c4.5-0.6,8.7-1,12.3-1.5c-0.9-0.2-12.3,1.1-17.1,1.6l6.1-0.4
		c-10.7,1.8-24.5,3.2-34.9,4.8c8.1-1.5-10.6,0.8-4.1-0.6c2.6-0.7,7.1-0.6,5.8-0.6c0.7-0.7-6.4,0.6-8.7,0.4c-1,0.5-11.7,2-5.3,1.7
		c-3.5,0.1-11,1.6-15.8,1.7c1.6,0.5-8.8,1.4-10.4,1.9c-2.1,0.2-3.9,0.2-5.3,0.2c4.3-0.7,9.7-1.6,15.2-2.5c2.3-0.1,6.5-0.6,5.2-0.6
		l0-0.3c8.3-1.5,16.7-2.9,22.6-4c1-0.1,1.9-0.2,2.9-0.3l-0.5,0.1c0.3-0.1,0.6-0.1,0.9-0.2c48.8-5.7,97.6-11.3,146.5-10.6
		c-3.2,0.1-8.4-0.1-10.6,0.3l0.3-0.1l-5,0.3c4.2,0,12.5-0.1,16.1-0.4c3.4,0,6.9,0.1,10.3,0.2l-8.6-0.5c0,0,0,0,0,0c0,0,0,0,0,0
		l-10.2-0.6c6.7-0.5,13-1,21-0.7c-2.6,0.3,0,0.4,0.6,0.5c22.1-1.8,43.5-1.9,65.7-1.5c9.3,0.2,18.7,0.4,28-1c17.8-2.7,35-11.3,53-9.8
		c6.7,0.6,14.7,2.1,19.3-2.8c5.2-5.6,1-15.4-5.8-18.9s-14.8-2.9-22.4-3.1c-9.9-0.3-19.8-2.2-29.8-1.4c-12.7,1-24.1,4.7-36.9,3.8
		c-9.1-0.6-18.7-2.4-27.8-2.2c5.2-0.2-3.2-0.9-7.3-1.6c-12.6-0.6-39.3-2.2-58.3-2.7c2.6-0.6-2.7-0.9-8.8-1.2
		c-6.1-0.2-13-0.5-13.8-1.2c-4.2-0.2-10.8-0.2-11.4,0.2c2.4-0.1,8.1,0.5,7.3,0.7c-6.2-0.2-15.7-0.5-16.6,0.1l-7.6-0.9
		c-0.3,0.3-1.6,0.6-3.6,0.8c-1.7-0.1-3.3-0.1-5-0.2c-3-0.5-3.1-0.3-3.3-0.1c-1.8-0.1-3.7-0.1-5.5-0.2c2.1-0.2,3.9-0.5,4.7-0.7
		c-6.5-0.3-5.6,0-10.2-0.1c-1.5-0.4,4.7-0.9,9.6-0.9l-8.3-0.7c-8.1,0.5-22.2,1-35.2,0.3c2.2-0.4,6.3-0.2,3-0.9
		c-5.6,0-13.1,0.5-20.4-0.2c1,0,0.4-0.1,1.4-0.1c-13,0.1-9.7-0.6-21.4-1.2c0.2-0.1,0.2-0.1,0.6-0.2l-7.2,0.1
		c-15.1,0.3-16.6-1.6-25.4-2.6l2,0c-2.7-0.5-8.7-0.9-14.5-1.2c-5.8-0.4-11.6-0.7-14.1-1c6.2,0.9,2,0.6,6.5,1.7
		c5.6,0.2,4.1-0.8,13.3,0.1c-1.3,0.7-13.1,0.1-15.6,0.5c-5.2-0.3-8.5-1.8-9-2.2c-13-1-20.1-2-36-3.3c-5.8,0-10.5,1.1-23.5-1.2
		l0.8-0.2c-0.5,0.4-6.4-0.7-9.2-0.6c4.4,1.2-5.8,0-0.3,1.2c-7.8-0.6-8.9-1.7-9.5-2.5c-5.7,0.6-15.4-1.7-27.5-1.7
		c2.2-0.4,15.3,0.3,10-0.6c-5.2,0.1-10.4,0.3-15.6,0.5l6.9,0.2c-11.8,0.3-15-0.6-21.8-1c-0.7-0.2,0.1-0.3,1.5-0.3c1.4,0,3.3,0,5,0
		c-3.6-0.2-9.4,0-14.2,0.3c-3.6,0.3-15.9,1.3-20.8,2.3c-0.7,0-1.3,0-2,0.1c0.2-0.1,0.5-0.2,0.9-0.2c-1,0.1-1.8,0.2-2.5,0.3
		c-2.1,0.2-4.1,0.3-6.2,0.5l1.2-0.3c-0.8,0.1-1.6,0.2-2.4,0.4c-2.1,0.1-4.3,0.4-6.4,0.6l-3.2,0.7l1.6-0.2c-0.2,0.4-2.1,1.1-5.1,1.8
		c-3.6,0.6-7.2,1.2-10.8,2c-3.8,0.8-7.5,1.7-11.3,2.6c-4.1,0.8-8.6,1.9-12.7,3c-5.2,1.3-9.8,2.3-12.2,2.1
		c13.8-3.6,20.4-5.2,35.2-8.7c4-0.3,1.6,0.2-1.7,1c-3.4,0.8-7.7,1.9-7.9,2.2c2.8-0.6,5.6-1.2,8.5-1.7c-1.4-0.4,16.4-3.4,11.7-3.7
		c-4.7,0.8-9.5,1.5-14.1,2.5c-4.6,1-9.1,2-13.5,3c-8.8,2-17.2,3.9-25.1,5c4.6-2.6,8.7-5.4,12.8-8.2c0-0.1,0.2-0.2,0.8-0.6l-0.8,0.6
		c0.1,0.2,3.1-0.7,6.5-1.6c-0.6,0.4-1.3,0.9,2.9-0.1c8.7-1.6,13-3.9,19.8-5.1l-2,0.5c3.2-0.5,6.8-1.1,10.2-1.8
		c3.4-0.7,6.7-1.2,9-1.8c2.7,0.1-1.9,0.8-5.9,1.4c-4,0.6-7.3,1.4-2.3,0.9c-3.5,0.5-7.7,1.3-11.6,2.3c-3.9,1-7.5,2-10,2.6
		c4.2-0.9,8.5-1.5,11.3-1.8c2.8-0.2,4.3,0,3.1,0.5c9.4-2.1,9.2-2.5,8.8-3c-0.5-0.5-1.2-0.8,7.3-2.2c3.9-0.6,7.9-0.8,11.9-1.1
		c1.3-0.5,2.6-1,4-1.5c7.2-0.5-4.3,1.2,6.6,0.4c2.9-0.8,10-0.5,12.2-0.9c-0.3,0.3-0.4,0.5,5.2,0.4c0.4-0.1-0.1-0.5,4.2-0.6
		c3,1.1-11.2,0.3-6.1,1.3c12.5-0.1,8-1,9.9-1.4c-0.4,0-1.1,0-2.4,0c0.1-0.4,5.4-0.1,4.9-0.5c-2.1-0.1-4.2,0.1-6.1,0.2
		c3.8-0.3-6.2-0.8-10.1-0.6c-8.7,0.6-26.9,1.7-38.9,3.8c1-0.2,3.1-0.6,1.7-0.6c-2.1,0.3-4.1,0.6-6,0.9c-1.9,0.3-3.6,0.7-5.3,1
		c-3.4,0.6-6.5,1.1-9.5,1.8c-6.1,1.3-12.3,2.9-20.8,5l-1.7,1.2c-7.4,1.7-8.9,2.4-9.1,3c-0.2,0.6,1,1-0.7,1.4
		c-3.2,0.6-5.9,1.5-8.8,1.4c0.5-0.2,1-0.3,1.5-0.5c-4.5,0.6-5.2,0.8-5.8,1c-0.6,0.2-1.1,0.4-5.1,0.4c-3.2,0.2-1.8,0.3-0.1,0.3
		c1.7,0,3.8,0,1.7,0.3c-2.2,0-3.6,0-4.7,0.1c-1.1,0.1-2,0.2-3,0.3c-2,0.1-4.6,0.3-11.4-1.6c0.4,0,0.1-0.4,0.8-0.4
		c0.6-0.1,2.2,0.1,6.1,0.7c-2.4-0.6-4.9-1.3-7.5-2.1c4.7,0.9,5.5,0.9,6.4,1.1c0.9,0.1,1.8,0.4,6.2,0.7c2.1-0.2,2.9-0.6,3.7-0.8
		c0.8-0.3,1.5-0.6,3.3-0.9c-1.6,0.1-2.3,0.3-3.2,0.5c-0.9,0.1-2,0.3-4.3,0c-5.7-0.8,1-0.3,1.6-0.5c-3.9,0.2-5.9-0.4-7.9-1
		c-2-0.6-3.9-1.3-8.1-1.8c1.1,1.2-0.3,0.9,4.9,2.7c-2.7-0.4-5.9-1.2-8.3-2c-2.4-0.8-4.2-1.5-3.7-1.8l-1.6,0.5
		c-1.4-0.5-6.7-1.2-6.9-1.5l-2.3,0.1c4.6,1.1,8.6,1.9,16.1,3.3c-3.3-0.2,3.6,2.1-6.2,0.2c-4.4-0.8-0.4-0.5-0.5-0.8
		c-2.9-0.5-5.5-0.8-7.8-1.1c-2.3-0.2-4.3-0.5-6.1-0.6c-1.8-0.2-3.4-0.3-4.9-0.4c-1.5-0.1-2.9-0.2-4.2-0.3
		c-5.3-0.3-10.2-0.5-19.3,0.7c4.5-0.9,15.9-1.4,25.1-1.4c-5.5-0.9-11.9,0.1-17.1,0.4c4.6-0.6,5.4-0.9-0.2-0.9
		c-0.8,0.2-1.5,0.4-2.2,0.6c-3.3,0.2-9.1,1-9.6,0.8c-0.1,0.2,1.3,0.1,4.3-0.1c-4,0.7-9.7,1.8-16,3c-6.2,1.3-13.1,2.7-19.9,4
		c3.8-0.8,8-2.4,11.8-3.5c-14.8,1.9-29.1,1-43.8,5.4c-7.8,2.3-15.4,5.4-23.5,6.5c-10,1.5-20.9,0-29.7,4.9c-3.8,2.1-7.2,6.8-5.1,10.6
		c1.3,2.2,4,3.1,5.9,4.8c4.7,4,4.6,11.4,8.4,16.2c2.5,3.1,6.2,4.7,9.8,6.4c10.1,4.8,19.6,10.9,28.1,18.3 M285,673.9l-5.7,1.2
		C281.5,674.5,283.6,674,285,673.9z M182,752.9c-1.4,0.3-3.5,0.6-5.2,0.9c-1.6,0.1-2,0-2,0C177.2,753.5,179.6,753.2,182,752.9z
		 M83.5,727.7c-0.1-0.2-0.2-0.5-0.3-0.9C83.3,727.1,83.4,727.4,83.5,727.7z M258.5,747c-2.3,0.3-2,1.3-11.2,1.4
		c-0.1-0.1,0.7-0.2,1.6-0.3c-4.2,0.3-4.9,0.2-9.5,0.3c-1.5-0.6,5.6-0.9,8.6-1.5c-2.9,0.3-6.2,0.8-9.5,1l0.7-0.3
		c-3.2,0.3-6.5,0.6-9.7,1c-3.9,0.9,7.4-0.6,8-0.2l-6.2,1c-7.1,0.7-26,3.3-32.7,3.2c-8.4,0.7-4.5,1.1-6.5,1.8
		c-4.9,1.2-9.7,1.1-14.6,1.9c0.3,0.5-5.6,1.2-5.6,1.9l-8.2,0.7c-4.4,1.5,9.8-0.8,12-0.7c4.5,0.4-5.9,1-3,1.2
		c6.2-0.8,6.6-1.3,9.5-1.9c3.5-0.5,5.5-0.5,5.4-0.2c-10,0.9-5.2,1.4-13.4,2.2l-0.3-0.2c0,0.7-11.8,1.6-16.2,2.3
		c-9.2,0,7.2-1.7,6.8-1.9c-3.6,0.4-7.3,0.9-11,1.2c4.7-0.8-0.2-0.9,6.2-1.9c-6.6,0.8-7.5,0.2-13.9,1.1c7.2-1.5-9.1-0.2-9.9-1
		c7-0.4,19.4-0.5,20.1-0.3c1-0.2,9-0.9,12.3-1l5-1.5c-5.8,0.7-13.7,1.8-11.6,0.8c-2.6,0.4-5.3,0.8-7.9,1.1c8.1-2,7.6-1.9,14.9-3.2
		c-15.3,0.6-27.1,3.6-39.9,2.8l2-0.1c-6.3,0.2-11.5-0.2-15.5-1c-4.1-0.8-6.9-2-8.9-3.2c-0.1,0-0.1-0.1-0.2-0.1
		c0.4,0.2,0.7,0.4,1.1,0.6c7,3,15.8,3.3,24.1,3.2c13.4-0.2,26.6-1.4,39.8-2.9l-1.6,0.6c0.3-0.1,0.6-0.1,0.9-0.2
		c15.2-2.1,1.5,0.9,17.1-1.5c-0.6,0.2-0.9,0.3-1.2,0.4c6.3-1.1,18-2.3,19.2-3.2c-1.5,0.2-7.4,0.8-10.2,0.8
		c6.6-0.9,13.3-1.7,19.9-2.5c1.4,0,2.7-0.1,4.3-0.2l0,0h0c1.5-0.1,3.2-0.4,5.4-0.7c0.5-0.1,0.9-0.2,1.1-0.3
		c7.9-0.8,15.9-1.5,23.9-1.8C249.5,746.3,267.8,745.9,258.5,747z M283.4,746.7c-9.4-0.4-2.8-0.3-9.5-0.9c-0.4-0.1-0.1-0.2,0.4-0.3
		c7.1,0.2,14.1,0.5,21.2,1C289.4,746.3,283,746,283.4,746.7z M312,748.5c-3.2-0.4-12.4-0.9-13-1.5c4.4,0.3,5.7,0.4,5.2,0.2
		c4.6,0.4,9.2,0.8,13.8,1.2c0.2,0.1,0.6,0.2,1.2,0.4C317.1,748.8,313.9,748.5,312,748.5z M430.4,758.3c-8.2,0.1,0.4-0.5-3.7-0.7
		c-6.2,1-8-0.8-14.6,0.3c-7.9,0.1-5.4-0.5-7.9-0.9c7.9,0.1-3.6-0.8,6.2-0.9c-4-0.2-5.5-0.1-6.8,0.1s-2.5,0.4-5.9,0.1l-1-0.9
		c-3.1-0.2-7.9-0.5-13-0.9c-5.1-0.4-10.4-0.7-14.6-0.8c6.9,1.1-4.2,0.2-3.1,0.8c1.3-0.6,10.8,0.6,10.7,1c-5-0.2-16.5-1-21-1.6l9,1.2
		c-3.8,0.1-17.2-0.4-17.6-0.3c-4-0.8-10.2-1.3-12.2-2l7.8,0.2l2.6,0.8l4.5-0.2c-4.9-0.7-15.2-2.3-17.3-3.1
		c7.8,0.8,18.4,1.8,31.2,2.3c7.3,0.6,14.7,1.2,22,1.6c17.6,0.9,35.1,0.9,52.7,0.3c-0.1,0-0.2,0-0.4,0.1c-2,0.4-4.5,0.7-7.3,0.8
		c1.6-0.1,3.6-0.2,6.2,0c-4.7,0.6-9.4,1.3-14.2,1.8c3.6,0.1,5.6-0.2,7.9-0.6c2.2-0.3,4.7-0.7,9.1-0.7
		C439.2,757,439.8,757.4,430.4,758.3z M674.5,730.6c6.1,0.1,12.3,0.1,18.4,0l-0.1,0l6,0.6c-2.3,0.2-4.6,0.3-6.9,0.5L674.5,730.6z
		 M254.3,687.4c1.9-0.1,2.5,0.1,3.1,0.3c-1.6,0.2-3.1,0.3-4.6,0.5L254.3,687.4z M198.2,681c0.4-0.4,3-0.5,5.9-0.3
		c2.9,0.1,6.1,0.5,7.7,0.3c1.2,0.1,4.6,0.7,7.2,1.3c2.6,0.6,4.6,1.2,3.3,1.2c-3.6-1-5.5-1-7.2-1c-1.8,0-3.4-0.2-6.8-1.2
		c-1.3,0.3,0.5,0.8,3.2,1.3c-1-0.1-1.6,0-1.7,0.1c-1.4-0.2-2.7-0.4-4.1-0.6c-1.3-0.2-2.6-0.3-3.9-0.4
		C199.6,681.3,197.5,681.2,198.2,681z M188.2,681l-2.3,0.2c-8.9,0.3-14.5,1.2-17.7,1.8c-3.1,0.6-3.8,0.9-2.9,1
		c-2.1,0.3-4.1,0.7-6.2,1c3.6-1,7-2,9-2.4C175.5,681.4,183.5,680.8,188.2,681z M142.4,687.1c-0.4,0.3,0.1,0.3,1,0.2
		c-2.3,0.5-4.6,1.1-6.9,1.7C137.3,688.5,135.7,688.4,142.4,687.1z M78.6,719.8c0-1.2,0.6-2.5,0.9-3.6c0.8-1.7,1.7-3,1.9-3.1
		c-0.3-0.6,1-3.2,3.6-5.9c2.8-2.9,7-5.5,9.2-7c5.9-3.1,8.3-3.5,10.4-4c2.1-0.4,3.9-1,9.6-2.9c-1.5,0.2-3,0.5-4.5,0.8
		c5-1.8,8.7-2.9,12.5-3.9c3.9-1,7.9-1.9,13.6-3.1c1.7,0.4-5.3,1-7.8,2l5.7-0.6c-2.5,0.6-7.1,2.3-7.2,1.6c0.1,0.3-3.6,1.8,3.5-0.2
		l-5.2,1.8c0.3,0,0.8,0,1.3-0.1c-1.6,0.4-3.2,0.9-4.8,1.3c-2.1,0.3-5.8,1.4-9.2,1.9c-0.4-0.1,2.9-1.2,4.8-1.9
		c-5,1.1-9.2,2.8-11.8,3.9c3.7-1.3,4.7-1.5,4.9-1.4c0.2,0.1-0.2,0.5,0.8,0.5c-2.2,0.9-5.1,2-7.7,3.1c-2.6,1.1-4.9,2.2-6,3
		c-1.5,0.7-2.8,1.4-4,2c-1.2,0.6-2.2,1.2-2.9,1.5c-1.5,0.7-2,0.7-0.6-0.7c-2.9,2.5-6.2,5.3-7.1,8.7c0.7-1.5,1.2-2.2,1.6-2.6
		c0.4-0.3,0.7-0.3,1-0.3c0.3,0,0.6-0.1,1.2-0.6c0.3-0.2,0.6-0.6,1-1.1c0.5-0.5,1.1-1.1,1.8-2c0.6-0.2,0.8-0.2,0.7,0.1
		c-2.7,2.2-4.8,4.7-6.2,7.4c-0.5,0.7-0.9,1.4-1.2,2c0.7-2-0.5-0.4-0.7-1c-0.3,0.8-0.4,1.4-0.4,1.9c-0.1,0.5-0.1,0.9,0,1.2
		c0,0.5,0.2,0.6,0.4,0.4c0.2-0.2,0.4-0.6,0.7-1.1c-0.1,0.5-0.3,0.9-0.3,1.4c-0.4,2.6,0,5.2,0.9,7.7c0.2,1.2,0.5,2.5,0.8,3.7
		c-1-1.8-1.9-3.6-2.4-5.5c-0.1,1.2,0.3,2.9,1.2,4.5c0.8,1.6,2,3.2,2.8,4.5c0.8,1.6-0.7,0-2.4-2.6c-1.8-2.5-3.4-6.2-4.2-8.2
		C78.6,722.2,78.5,721,78.6,719.8z"/>
	<g>
		<g>
			<g>
				<path class="st3" d="M768.1,513.9h-0.7c-17.1,0-31,13.9-31,31v169.7h29.5c18.3,0,33.2-14.9,33.2-33.2V544.9
					C799.1,527.8,785.2,513.9,768.1,513.9z"/>
				<path class="st3" d="M169.7,513.9h0.7c17.1,0,31,13.9,31,31v169.7h-29.5c-18.3,0-33.2-14.9-33.2-33.2V544.9
					C138.7,527.8,152.6,513.9,169.7,513.9z"/>
				<path class="st3" d="M741.4,559.7v21H196.4v-21c0-9.2,0.8-18.2,2.4-26.9c0-0.2,0.1-0.4,0.1-0.5c12.9-70-2.5-129.6,147.9-123H591
					c133.3,1.6,147.9,13.3,148,102.4v0.9c0,5.8-1.1,14.3,0,20.1C740.5,541.5,741.4,550.5,741.4,559.7z"/>
				<rect x="201.4" y="563.9" class="st3" width="535.1" height="150.8"/>
				<g>
					<path class="st4" d="M726.2,559.5c8.8,5.5,6.2,36.7,0.5,38.7s-126,4.3-126,4.3s-67.8,3.4-101,3.2c-44.3-0.2-126.8,0-169,0
						c-26.9,0-58.5-3-87-3c-23.1,0-27.7-2.2-34-2.7c-6.1-0.5-8.1-11.9-3.4-33c2.1-9.5,20.2-17.4,74-17.5
						c87.1-0.2,110.6,5.7,228.8,1.1c28.1-1.1,68.7,1.3,98.9,1.9C636.5,553.2,711.7,550.4,726.2,559.5z"/>
					<g>
						<path class="st4" d="M192,577.1c-0.6,0-1-0.4-1-1v-14.7c0-15.8-2.2-34.3-19.4-37.3c-10.5-1.8-20.7,7.5-20.8,7.6
							c-0.4,0.4-1,0.3-1.4-0.1c-0.4-0.4-0.4-1,0.1-1.4c0.4-0.4,11.1-10,22.5-8.1c18.6,3.2,21,22.7,21,39.2v14.7
							C193,576.7,192.6,577.1,192,577.1z"/>
					</g>
					<g>
						<path class="st4" d="M743.6,603c-0.5,0-1-0.4-1-0.9c0-0.1-0.7-12-1-26.7c0-0.8,0-1.7,0-2.6c-0.3-12.2-0.8-32.5,9.7-43.1
							c4.4-4.4,10.2-6.6,17.5-6.5c17,0.2,21.6,16.6,22.6,21.6c1.7,8.7,0.8,45.5,0.8,47c0,0.5-0.5,1-1,1c0,0,0,0,0,0
							c-0.5,0-1-0.5-1-1c0-0.4,0.9-38.1-0.8-46.6c-1.2-5.9-5.6-19.8-20.7-20c-0.2,0-0.3,0-0.5,0c-6.5,0-11.7,2-15.6,5.9
							c-9.9,10-9.4,29.8-9.1,41.7c0,0.9,0,1.8,0,2.6c0.2,14.7,0.9,26.5,0.9,26.6C744.7,602.5,744.2,603,743.6,603
							C743.7,603,743.7,603,743.6,603z"/>
					</g>
					<g>
						<path class="st4" d="M722.2,639C722.2,639,722.2,639,722.2,639c-1.2,0-122.4-1.8-130.8-1.7l-3.1,0
							c-81.6,1.2-140.8,1.7-166.7,1.6c-42.6-0.2-209.1-3.2-210.8-3.3c-0.6,0-1-0.5-1-1c0-0.5,0.5-1,1-1c1.7,0,168.2,3,210.8,3.3
							c25.9,0.1,85.1-0.4,166.7-1.6l3.1,0c8.4-0.1,129.6,1.6,130.8,1.7c0.5,0,1,0.5,1,1C723.2,638.6,722.7,639,722.2,639z"/>
					</g>
					<g>
						<path class="st4" d="M201.5,572.6C201.5,572.6,201.4,572.6,201.5,572.6c-0.6,0-1-0.5-1-1.1c0-0.1,0.5-6.7,0-16.5
							c-0.5-9.8-2.3-15.7-2.3-15.7c-0.2-0.5,0.1-1.1,0.6-1.2c0.5-0.2,1.1,0.1,1.2,0.7c0.1,0.2,1.9,6.1,2.4,16.2
							c0.5,10,0,16.7,0,16.8C202.4,572.2,202,572.6,201.5,572.6z"/>
					</g>
					<g>
						<path class="st4" d="M733.7,566.5c-0.5,0-1-0.4-1-0.9c0-0.2-0.2-4,0-11.5c0.2-7.5,1.3-16.6,1.3-16.7c0.1-0.5,0.6-1,1.1-0.9
							c0.5,0.1,0.9,0.6,0.9,1.1c0,0.1-1,9.1-1.3,16.5c-0.2,7.4,0,11.3,0,11.3C734.8,566,734.4,566.5,733.7,566.5
							C733.8,566.5,733.8,566.5,733.7,566.5z"/>
					</g>
				</g>
				<g>
					<path class="st4" d="M201.4,702.7c-0.6,0-1-0.4-1-1v-96.4c0-0.5,0.4-1,1-1c0.6,0,1,0.4,1,1v96.4
						C202.4,702.3,201.9,702.7,201.4,702.7z"/>
				</g>
				<g>
					<path class="st4" d="M736.4,702.7c-0.5,0-1-0.4-1-1V587.3c0-0.5,0.4-1,1-1s1,0.4,1,1v114.5C737.4,702.3,737,702.7,736.4,702.7z
						"/>
				</g>
				<g>
					<g>
						<path class="st4" d="M793.4,667.7c-0.5,0-1-0.4-1-1v-56.5c0-0.5,0.4-1,1-1s1,0.4,1,1v56.5
							C794.4,667.2,793.9,667.7,793.4,667.7z"/>
					</g>
					<g>
						<path class="st4" d="M146.4,680.2c-0.6,0-1-0.4-1-1V572.8c0-0.5,0.4-1,1-1c0.6,0,1,0.4,1,1v106.4
							C147.4,679.7,146.9,680.2,146.4,680.2z"/>
					</g>
				</g>
			</g>
		</g>
	</g>
	<g>
		<path class="st4" d="M92.4,562.3c-1-8.8-1.3-17.6-1.1-26.4c0.2-8.2-2.8-15.7-4.3-23.5c-1.2-6-1.6-12.1-1.5-18.1
			c0.1-9.2,1-19-3.4-27c-4.6-8.3-15.5-13-24.4-9.6c-9,3.4-13.9,13.2-15.7,22.6c-3.4,17.7,1.6,36.8,13.2,50.6c2.7,3.2,5.8,6.3,7,10.3
			c1,3.4,0.5,7,0.6,10.6c0.2,14,9.4,26.5,10.4,40.4c0.8,11.1-3.5,23.2,1.9,33c1.8,3.1,4.6,5.8,8.2,6.5s7.6-1.3,8.6-4.7
			c0.9-3.1-0.8-6.3-1.5-9.5c-1.8-7.8,2.2-15.7,3.7-23.5c1.8-9.6-0.1-19.5-1.3-29.2C92.5,563.9,92.4,563.1,92.4,562.3z"/>
		<path class="st5" d="M137.7,507.6c-1.6-4.7-4.5-8.9-8.7-11.5c-6.2-3.8-13.7-2.7-18.9,2.1c-5.8,5.2-5.6,12.5-6.8,19.7
			c-1.7,10.5-7.4,20-8.1,30.7c-0.4,7.4,1.7,14.8,1.2,22.3c-0.6,9-5,17.2-7.8,25.8c-1.9,5.8-3.1,11.8-3.5,17.8
			c-0.2,3.3,0,7.2,2.6,9.2c3.3,2.5,8.3,0.3,10.6-3.1s2.7-7.7,3.9-11.6c4.1-13.5,16.5-23,21.9-36.1c2.6-6.3,3.4-13.3,5.1-19.9
			c1.8-6.6,4.5-12.9,6.7-19.4s3.7-13.4,3-20.2C138.7,511.4,138.3,509.4,137.7,507.6z"/>
		<path class="st6" d="M90.7,619.2C90.7,619.2,90.7,619.2,90.7,619.2c0-0.2,0-0.3,0-0.5c0-0.2-0.1-0.4-0.1-0.7
			c-0.2-1.1-0.4-2.2-0.8-3.3v0c-0.2-0.6-0.4-1.2-0.7-1.8c-0.9-2.4-2.1-4.7-3.5-6.8c-3.4-5.3-7.8-10-12.7-14.2
			c-1.7-1.5-3.5-3-5.3-4.5c-12-9.8-25.3-19.1-40.7-22.8c-7.3-1.8-14.3-3-20.3,2.3c-4.9,4.3-7.9,11.4-5.7,17.8
			c2.2,6.3,8.7,10.3,15.2,11.9c6.5,1.6,13.3,1.5,20,2.3c12.2,1.6,24.3,7.3,31.2,17.5c0.4,0.6,0.8,1.1,1.1,1.7
			c1.7,2.8,3.2,5.7,5.4,8.2c1.3,1.5,3.1,2.8,4.9,3.6c0.2,0.1,0.4,0.1,0.6,0.2c1.6,0.6,3.3,0.7,5,0.2c1.1-0.3,2.2-0.9,3-1.7
			c0.6-0.5,1.1-1.1,1.5-1.7c0.8-1.2,1.4-2.6,1.7-4C90.8,621.7,90.8,620.4,90.7,619.2z"/>
		<path class="st4" d="M124.1,624.6v56.2c0,14.8-12,26.8-26.8,26.8H68.7c-14.8,0-26.8-12-26.8-26.8v-56.2c0-3.9,3.2-7.1,7.1-7.1H117
			C120.9,617.5,124.1,620.7,124.1,624.6z"/>
		<g>
			<path class="st7" d="M92.8,609.1C92.7,609.1,92.7,609.1,92.8,609.1c-0.4,0-0.7-0.3-0.7-0.7c0-0.3,0.4-7.1,3.6-15.2
				c1.1-2.8,2.8-5.7,4.5-8.7c3.2-5.3,6.8-11.4,7.4-18.8c0.1-1.3,0.2-2.6,0.3-3.9c0.8-9.7,1.5-18,7.3-29.5
				c6.4-12.5,5.9-22.5,5.9-22.6c0-0.4,0.3-0.7,0.6-0.7c0.3,0,0.7,0.2,0.7,0.6c0,0.4,0.4,10.4-6.1,23.2c-5.7,11.2-6.4,19.5-7.2,29
				c-0.1,1.3-0.2,2.6-0.3,3.9c-0.7,7.6-4.4,13.8-7.6,19.3c-1.7,2.9-3.4,5.7-4.4,8.5c-3,7.8-3.5,14.7-3.5,14.8
				C93.3,608.8,93.1,609,92.8,609.1z"/>
		</g>
		<g>
			<path class="st7" d="M86.3,596.2c-0.3,0-0.6-0.2-0.6-0.6c0,0-0.6-6.2-1.3-12.2c-0.3-2.9-1.4-7.3-2.6-12
				c-1.2-4.9-2.5-9.9-2.9-13.5c-0.3-2.5-0.4-5-0.6-7.8c-0.2-5-0.5-10.8-2-19.5c-1.4-8.2-3.2-11.4-5.8-15.8
				c-1.6-2.9-3.5-6.1-5.8-11.5c-5.8-13.8-1.5-34.1-1.3-35c0.1-0.4,0.4-0.6,0.8-0.5c0.3,0.1,0.6,0.4,0.5,0.8c0,0.2-4.4,20.7,1.2,34.2
				c2.2,5.3,4.1,8.5,5.7,11.3c2.6,4.5,4.5,7.8,5.9,16.2c1.5,8.8,1.8,14.8,2,19.7c0.1,2.8,0.2,5.2,0.5,7.7c0.4,3.6,1.7,8.6,2.9,13.4
				c1.2,4.7,2.3,9.2,2.7,12.2c0.6,5.9,1.3,12.2,1.3,12.2C87,595.8,86.7,596.1,86.3,596.2C86.3,596.2,86.3,596.2,86.3,596.2z"/>
		</g>
		<g>
			<path class="st5" d="M73.7,605.6c-0.2,0-0.4-0.1-0.5-0.3c-0.1-0.1-9.1-12.4-27.2-20.6c-18.1-8.2-33.1-7.7-33.3-7.7
				c-0.4,0-0.6-0.3-0.7-0.6c0-0.3,0.3-0.7,0.6-0.7c0.1,0,15.5-0.5,33.9,7.8c18.4,8.3,27.6,20.8,27.7,21c0.2,0.3,0.1,0.7-0.1,0.9
				C73.9,605.5,73.8,605.6,73.7,605.6z"/>
		</g>
	</g>
	<path class="st5" d="M113.9,640.7v0.7c0,1-0.7,1.8-1.6,2c-0.4,0.1-0.8,0.2-1.1,0.2c-5,0.7-10.2-0.3-14.9-1.8
		c-6.1-1.9-12.5-4.8-19-3.7c0,0,0,0,0,0c-0.3,0.1-0.7,0.1-1,0.2c0,0,0,0,0,0c0,0,0,0,0,0c-4.7,1.2-8.2,5.1-12.7,7
		c-4.2,1.8-8.5,1.2-12.5-0.5c-4.8-2.1-9-5.8-14.6-5.5c-0.8,0-1.5,0.1-2.2,0.3c-1.3,0.3-2.6-0.7-2.6-2v-0.1c0-1,0.6-1.8,1.5-2
		c3.4-0.9,7.3-0.6,10.7,0.7c4.1,1.6,7.7,4.7,12,5.5c5.3,1.1,9.1-2.6,13.3-5.2c0,0,0,0,0,0c0.1,0,0.1-0.1,0.2-0.1
		c1.9-1.1,3.8-1.9,5.7-2.3h0c1.4-0.3,2.8-0.5,4.2-0.6c0.9,0,1.9,0,2.8,0.1c0.4,0,0.9,0.1,1.3,0.1c4.9,0.6,9.8,2.3,14.7,3.8
		c4.5,1.3,9.1,1.8,13.2,1C112.7,638.4,113.9,639.4,113.9,640.7z"/>
	<g>
		<path class="st4" d="M844,562.3c1-8.8,1.3-17.6,1-26.4c-0.2-8.2,2.8-15.7,4.3-23.5c1.2-6,1.6-12.1,1.5-18.1c-0.1-9.2-1-19,3.4-27
			c4.6-8.3,15.5-13,24.4-9.6c9,3.4,13.9,13.2,15.7,22.6c3.4,17.7-1.6,36.8-13.2,50.6c-2.7,3.2-5.8,6.3-7,10.3c-1,3.4-0.5,7-0.6,10.6
			c-0.2,14-9.3,26.5-10.4,40.4c-0.8,11.1,3.5,23.2-1.9,33c-1.8,3.1-4.6,5.8-8.2,6.5s-7.6-1.3-8.6-4.7c-0.9-3.1,0.8-6.3,1.5-9.5
			c1.8-7.8-2.2-15.7-3.7-23.5c-1.8-9.6,0.1-19.5,1.3-29.2C843.9,563.9,844,563.1,844,562.3z"/>
		<path class="st5" d="M798.7,507.6c1.6-4.7,4.5-8.9,8.7-11.5c6.2-3.8,13.7-2.7,18.9,2.1c5.8,5.2,5.6,12.5,6.8,19.7
			c1.7,10.5,7.4,20,8.1,30.7c0.4,7.4-1.7,14.8-1.2,22.3c0.6,9,5,17.2,7.8,25.8c1.9,5.8,3.1,11.8,3.5,17.8c0.2,3.3,0,7.2-2.6,9.2
			c-3.3,2.5-8.3,0.3-10.5-3.1s-2.7-7.7-3.9-11.6c-4.1-13.5-16.5-23-21.9-36.1c-2.6-6.3-3.4-13.3-5.2-19.9
			c-1.8-6.6-4.5-12.9-6.7-19.4c-2.2-6.5-3.7-13.4-3-20.2C797.7,511.4,798.1,509.4,798.7,507.6z"/>
		<path class="st6" d="M845.8,622.9c0.3,1.4,0.8,2.8,1.7,4c0.4,0.6,0.9,1.2,1.5,1.7c0.9,0.8,1.9,1.4,3,1.7c1.7,0.5,3.4,0.3,5-0.2
			c0.2-0.1,0.4-0.1,0.6-0.2c1.9-0.8,3.6-2.1,4.9-3.6c2.2-2.4,3.7-5.4,5.4-8.2c0.3-0.6,0.7-1.2,1.1-1.7c6.9-10.2,19-15.9,31.2-17.5
			c6.7-0.9,13.5-0.7,20-2.3c6.5-1.6,13-5.6,15.2-11.9c2.3-6.4-0.8-13.5-5.7-17.8c-6-5.3-13-4.1-20.3-2.3
			c-15.3,3.7-28.6,13-40.7,22.8c-1.8,1.5-3.6,3-5.3,4.5c-4.8,4.3-9.3,8.9-12.7,14.2c-1.4,2.2-2.5,4.4-3.5,6.8
			c-0.2,0.6-0.5,1.2-0.7,1.8v0c-0.3,1.1-0.6,2.2-0.8,3.3c0,0.2-0.1,0.4-0.1,0.7c0,0.2,0,0.3,0,0.4c0,0,0,0,0,0
			C845.6,620.4,845.6,621.7,845.8,622.9z"/>
		<path class="st4" d="M812.3,624.6v56.2c0,14.8,12,26.8,26.8,26.8h28.5c14.8,0,26.8-12,26.8-26.8v-56.2c0-3.9-3.2-7.1-7.1-7.1
			h-67.9C815.5,617.5,812.3,620.7,812.3,624.6z"/>
		<g>
			<path class="st7" d="M843.7,609.1C843.7,609.1,843.7,609.1,843.7,609.1c0.4,0,0.7-0.3,0.7-0.7c0-0.3-0.5-7.1-3.6-15.2
				c-1.1-2.8-2.8-5.7-4.5-8.7c-3.2-5.3-6.8-11.4-7.4-18.8c-0.1-1.3-0.2-2.6-0.3-3.9c-0.8-9.7-1.5-18-7.3-29.5
				c-6.4-12.5-6-22.5-5.9-22.6c0-0.4-0.3-0.7-0.6-0.7c-0.3,0-0.7,0.2-0.7,0.6c0,0.4-0.5,10.4,6.1,23.2c5.7,11.2,6.4,19.5,7.2,29
				c0.1,1.3,0.2,2.6,0.3,3.9c0.7,7.6,4.4,13.8,7.6,19.3c1.7,2.9,3.4,5.7,4.5,8.5c3,7.8,3.5,14.7,3.5,14.8
				C843.1,608.8,843.3,609,843.7,609.1z"/>
		</g>
		<g>
			<path class="st7" d="M850.1,596.2c0.3,0,0.6-0.2,0.6-0.6c0,0,0.6-6.2,1.3-12.2c0.3-2.9,1.4-7.3,2.6-12c1.2-4.9,2.5-9.9,3-13.5
				c0.3-2.5,0.4-5,0.5-7.8c0.2-5,0.5-10.8,2-19.5c1.4-8.2,3.2-11.4,5.8-15.8c1.6-2.9,3.5-6.1,5.8-11.5c5.8-13.8,1.5-34.1,1.3-35
				c-0.1-0.4-0.4-0.6-0.8-0.5c-0.3,0.1-0.6,0.4-0.5,0.8c0,0.2,4.4,20.7-1.2,34.2c-2.2,5.3-4,8.5-5.7,11.3c-2.6,4.5-4.5,7.8-5.9,16.2
				c-1.5,8.8-1.8,14.8-2,19.7c-0.1,2.8-0.2,5.2-0.5,7.7c-0.4,3.6-1.7,8.6-2.9,13.4c-1.2,4.7-2.3,9.2-2.7,12.2
				c-0.6,5.9-1.3,12.2-1.3,12.2C849.4,595.8,849.7,596.1,850.1,596.2C850.1,596.2,850.1,596.2,850.1,596.2z"/>
		</g>
		<g>
			<path class="st5" d="M862.7,605.6c0.2,0,0.4-0.1,0.5-0.3c0.1-0.1,9.1-12.4,27.2-20.6c18.1-8.2,33.1-7.7,33.3-7.7
				c0.4,0,0.7-0.3,0.7-0.6c0-0.3-0.3-0.7-0.6-0.7c-0.2,0-15.5-0.5-33.9,7.8c-18.4,8.3-27.6,20.8-27.7,21c-0.2,0.3-0.1,0.7,0.1,0.9
				C862.5,605.5,862.6,605.6,862.7,605.6z"/>
		</g>
	</g>
	<path class="st5" d="M799.6,640.7v0.7c0,1,0.7,1.8,1.6,2c0.4,0.1,0.8,0.2,1,0.2c5,0.7,10.2-0.3,14.9-1.8c6.1-1.9,12.5-4.8,19-3.7
		c0,0,0,0,0,0c0.3,0.1,0.7,0.1,1,0.2c0,0,0,0,0,0s0,0,0,0c4.7,1.2,8.2,5.1,12.7,7c4.2,1.8,8.5,1.2,12.5-0.5c4.8-2.1,9-5.8,14.6-5.5
		c0.8,0,1.5,0.1,2.2,0.3c1.3,0.3,2.6-0.7,2.6-2v-0.1c0-1-0.6-1.8-1.5-2c-3.4-0.9-7.3-0.6-10.7,0.7c-4.1,1.6-7.7,4.7-12,5.5
		c-5.3,1.1-9.1-2.6-13.3-5.2c0,0,0,0,0,0c0,0-0.1-0.1-0.2-0.1c-1.9-1.1-3.8-1.9-5.7-2.3h0c-1.4-0.3-2.8-0.5-4.2-0.6
		c-0.9,0-1.9,0-2.8,0.1c-0.4,0-0.9,0.1-1.3,0.1c-4.9,0.6-9.8,2.3-14.7,3.8c-4.5,1.3-9.1,1.8-13.2,1
		C800.8,638.4,799.6,639.4,799.6,640.7z"/>
	<g>
		<g>
			<path class="st8" d="M574.7,467.7c1.1,1.9,1.9,4,2.4,6.2c0.1,0.4,0.7,0.2,0.6-0.2c-0.5-2.2-1.3-4.4-2.5-6.3
				C575,467,574.5,467.3,574.7,467.7L574.7,467.7z"/>
		</g>
	</g>
	<g>
		<path class="st4" d="M259,660.5c35.2,0.6,70.4,0.7,105.6,0.3c1.4,0,1.4-2.1,0-2.1c-35.2,0.4-70.4,0.3-105.6-0.3
			C257.6,658.4,257.6,660.5,259,660.5L259,660.5z"/>
	</g>
	<g>
		<path class="st4" d="M338,668c8.2,0,16.3,0,24.5-0.1c1.4,0,1.4-2.1,0-2.1c-8.2,0-16.3,0-24.5,0.1C336.6,665.9,336.6,668,338,668
			L338,668z"/>
	</g>
	<g>
		<path class="st4" d="M237.6,542.1c-4.1-21.1,1.4-42.1,7.9-62.2c0.4-1.3-1.6-1.8-2-0.6c-6.6,20.4-12,41.8-7.9,63.3
			C235.8,543.9,237.8,543.4,237.6,542.1L237.6,542.1z"/>
	</g>
	<g>
		<path class="st4" d="M252.8,465.2c0-0.2,0-0.3,0-0.5c0-1.4-2.1-1.4-2.1,0c0,0.2,0,0.3,0,0.5C250.7,466.5,252.8,466.5,252.8,465.2
			L252.8,465.2z"/>
	</g>
	<g>
		<path class="st4" d="M257,458.6c0-0.2,0-0.3,0-0.5c0-1.4-2.1-1.4-2.1,0c0,0.2,0,0.3,0,0.5C254.9,460,257,460,257,458.6L257,458.6z
			"/>
	</g>
	<g>
		<path class="st4" d="M262.4,451c5.9-4.2,12.2-7.8,18.8-10.8c1.2-0.6,0.2-2.4-1.1-1.8c-6.6,3-12.9,6.6-18.8,10.8
			C260.3,450,261.3,451.8,262.4,451L262.4,451z"/>
	</g>
	<g>
		<path class="st4" d="M685.1,436.2c14,10.5,25,24.9,31,41.4c6.8,18.4,6.6,38.2,6.4,57.5c0,1.3,2.1,1.3,2.1,0
			c0.2-20.6,0.3-41.7-7.7-61.1c-6.5-15.8-17.2-29.4-30.8-39.6C685.1,433.6,684,435.4,685.1,436.2L685.1,436.2z"/>
	</g>
	<g>
		<path class="st4" d="M722.2,544.6c1.3,0,1.4-2.1,0-2.1C720.8,542.5,720.8,544.6,722.2,544.6L722.2,544.6z"/>
	</g>
	<g>
		<g>
			<path class="st9" d="M443.6,588.8c0.4,0.5,4.5,97,4,98.9c-0.5,1.9-8.8,4.9-10,0.3c-0.5-1.9-20.3-63.7-19-95.3
				C418.9,587.1,429.9,570.1,443.6,588.8z"/>
			<path class="st9" d="M437.7,688.8c0,0,2.4,16.2-0.1,22.1c-2.5,5.9-4.9,14.2-2.8,17.6c2.1,3.4,10.2,3.1,14.7-1.3s6.5-7.3,5.9-10.6
				c-0.6-3.3-2.6-10.5-3.5-13c-3.4-9.3-3.8-15.1-4.1-16.3C446.2,681.5,438.2,682.3,437.7,688.8z"/>
			<path class="st10" d="M422.2,739.9c0.2,0.1,0.5,0.2,0.8,0.2c2.2,0.6,4.4,0.8,6.7,0.8c0.9,0,1.8,0,2.7-0.2c0.1,0,0.3,0,0.5,0
				c0.9-0.3,1.9-0.5,2.8-0.8c0.2-0.1,0.3-0.2,0.5-0.3c1.6-0.5,3-1.4,4.3-2.5c1.8-1.6,3.5-3.2,5.2-4.8c1.3-1.2,2.6-2.5,3.9-3.7
				c0.5-0.5,0.9-1,1.3-1.5c2.2-2.6,4.4-5.3,6.3-8.1c0.1-0.1,0.2-0.2,0.3-0.3c1.4-1.5,2.7-3.1,4.1-4.5c0.5-0.5,0.9-1.1,1.1-1.8
				c-0.2-0.3-0.4-0.6-0.5-0.9c-0.4-0.7-0.7-1.4-1.1-2.1c-0.6-1.1-1.2-2.1-2.1-3c-1.8-1.8-3.6-3.5-5.4-5.3c-0.3-0.3-0.6-0.5-1-0.8
				c-0.6-0.4-1-0.3-1.4,0.3c-0.2,0.3-0.4,0.6-0.5,0.9c-0.6,1-1.5,1.5-2.6,1.6c-1.7,0.3-3.2-0.2-4.6-0.9c-0.9-0.4-1.6-1-2.4-1.5
				c-1.5-0.9-3.1-1.4-4.8-1.7c-0.7-0.1-1.2,0.2-1.5,0.8c-0.3,0.6-0.6,1.2-0.8,1.8c-0.5,1.9-1.1,3.7-1.4,5.7
				c-0.2,1.5-0.8,2.9-1.4,4.3c-0.6,1.5-1.2,2.9-1.8,4.4c-0.4,1.1-0.9,2.2-1.3,3.2c-0.2,0.7-0.4,1.4-0.5,2.1
				c-0.4,2.3-1.1,4.6-1.9,6.8c-0.3,0.8-0.6,1.7-0.9,2.5c-0.3,0.8-0.7,1.5-1.2,2.2c-0.9,1.3-1.4,2.7-1.6,4.2
				c-0.1,0.7-0.2,1.4-0.4,2.1C421.6,739.4,421.8,739.8,422.2,739.9z"/>
			<path class="st11" d="M431.5,745c0.4-0.2,0.8-0.3,1.2-0.5c0.9-0.4,1.7-0.8,2.5-1.2c1-0.5,2.1-0.9,3.1-1.4
				c0.6-0.3,1.2-0.7,1.7-1.1c1.2-0.9,2.5-1.6,3.9-2.2c1.8-0.8,3.2-2,4.5-3.5c0.7-0.8,1.1-1.8,1.3-2.8c0.2-1.1,0.4-2.2,0.3-3.4
				c0-1-0.6-1.7-1.3-2.2c-1.1-0.8-2.4-1.2-3.7-1c-1,0.1-2,0.2-2.7,1c-0.1,0.1-0.2,0.1-0.2,0.2c-0.8,1.5-2,2.7-2.2,4.5
				c-0.1,0.6-0.4,1.1-0.8,1.6c-0.6,0.7-1.1,1.4-1.6,2.1c-0.7,0.9-1.6,1.4-2.7,1.8c-1.3,0.4-2.5,0.8-3.9,0.8c-0.6,0-1.3,0-2-0.1
				c-1.7-0.2-3.3-0.2-5,0c-0.6,0.1-1.2,0.1-1.8,0.1c-1.8,0.2-2.4,1.3-2.3,2.7c0.2,1.7,0.9,3.1,2.3,4.1c1.2,0.9,2.6,1.2,4,1.2
				c1,0,2.1,0,3.1-0.2c0.1,0,0.1,0,0.2,0.1C430.1,745.4,430.8,745.2,431.5,745z"/>
			<path class="st11" d="M464.1,711.1c-0.3-0.9-0.8-1.7-1.8-2.2c-0.8-0.4-1.5-0.4-2.2,0.2c-1,0.8-1.8,1.8-2,3.1
				c-0.1,0.6-0.4,1-0.9,1.3c-0.8,0.5-1.6,1-2.4,1.6c-0.9,0.6-1.7,1.4-2.3,2.3c-0.2,0.4-0.4,0.8-0.5,1.3c-0.1,0.6-0.2,1.2-0.3,1.7
				c-0.2,0.7-0.3,1.4-0.6,2.1c-0.2,0.8-0.6,1.5-0.9,2.3c-0.1,0.2-0.2,0.5-0.2,0.8c0,0.4,0.2,0.8,0.6,0.9c0.2,0.1,0.5,0.1,0.8,0.1
				c0.8,0,1.5-0.1,2.2-0.4c0.8-0.4,1.8-0.6,2.6-0.8c1.8-0.4,3.1-1.4,4.2-2.8c0.6-0.8,1.2-1.5,1.9-2.2c0.9-1,1.2-2.1,1.2-3.4
				c0-0.9,0.2-1.8,0.5-2.7C464.4,713.3,464.4,712.3,464.1,711.1z"/>
			<path class="st11" d="M424.1,700.4c-0.7-0.1-1.4-0.2-2.1-0.6c-1-0.6-1.1-1.7-0.2-2.4c0.7-0.6,1.6-0.9,2.5-1
				c1.5-0.2,2.9-0.1,4.3,0.1c2.4,0.4,4.7,1.2,6.8,2.5c0.2,0.1,0.4,0.4,0.6,0.5c-0.1,1.1-0.7,1.8-1.5,2.3c-0.6,0.4-1.1,0.9-1.7,1.3
				c-0.7,0.5-1.4,1.1-2.2,1.5c-0.9,0.5-1.9,1-2.8,1.4c-1,0.4-2.1,0.5-3.3,0.6c-0.4,0-0.8,0-1.1-0.1c-1.2-0.3-1.7-1.5-1-2.5
				c0.6-0.9,1.3-1.6,2.3-2c1-0.5,2-0.9,3.1-1.3C426.4,700.5,425.2,700.5,424.1,700.4z M424,705.5c1.2,0,2.4-0.2,3.5-0.7
				c1.8-0.8,3.5-1.8,5-3.1c0.4-0.3,0.9-0.6,1.4-1c-0.5,0-0.8,0-1.1,0.1c-0.8,0.1-1.6,0.3-2.3,0.5c-0.6,0.1-1.3,0.2-1.9,0.4
				c-1.1,0.2-2.2,0.7-3.2,1.2c-1,0.5-1.8,1.1-2.3,2.2C423.4,705.4,423.7,705.5,424,705.5z M424.4,699.2c2.8,0.3,5.7,0.2,8.7,0
				c-0.2-0.2-0.4-0.3-0.5-0.3c-2.1-0.8-4.2-1.4-6.4-1.4c-0.9,0-1.8,0-2.7,0.3c-0.4,0.2-0.8,0.3-1,0.8
				C423,699.1,423.7,699.1,424.4,699.2z"/>
			<path class="st11" d="M432.6,704.9c0.5-0.1,0.8-0.2,1.1-0.2c1.3-0.1,2.6,0.2,3.9,0.6c1.2,0.4,2.3,1,3.5,1.5c0.1,0,0.2,0,0.3,0.1
				c0.4-0.1,0.5-0.4,0.5-0.8c-0.4-0.4-0.9-0.7-1.4-0.9c-1.9-0.9-3.8-1.4-5.9-1.6c-0.7,0-1.5,0-2.2,0.5
				C432.4,704.3,432.5,704.5,432.6,704.9z"/>
			<path class="st11" d="M429.9,711.9c-0.1,0.6,0.1,0.9,0.7,0.8c1-0.2,1.9,0,2.8,0.2c1.5,0.3,2.9,0.8,4.2,1.5c0.4,0.2,0.7,0.3,1,0
				c0.1-0.6,0-0.9-0.6-1.2c-1.7-0.7-3.4-1.4-5.2-1.6C431.1,711.5,431,711.5,429.9,711.9z"/>
			<path class="st11" d="M437.1,717.2c-0.3-0.5-0.7-0.8-1.2-0.9c-2.3-0.8-4.6-1.2-7-1.2c-0.3,0.2-0.4,0.4-0.3,0.7
				c0.1,0.3,0.4,0.3,0.6,0.4c1,0.1,2.1,0.2,3.1,0.3c1.3,0.2,2.6,0.6,3.9,1.2C436.7,718,436.8,717.9,437.1,717.2z"/>
			<path class="st11" d="M439,710.7c0.4-0.6,0.5-0.9,0.1-1.3c-0.2-0.2-0.4-0.4-0.7-0.5c-1.9-0.9-4-1.3-6.1-1.4c-0.3,0-0.6,0-0.8,0.3
				c0,0.2,0.1,0.4,0.2,0.7c0.9,0.1,1.7,0.2,2.5,0.3c1.3,0.2,2.5,0.5,3.6,1.2c0.2,0.1,0.4,0.3,0.6,0.5
				C438.6,710.6,438.8,710.6,439,710.7z"/>
			<path class="st11" d="M427.8,719.8c1.4-0.1,2.6-0.1,3.9,0.2c1.2,0.3,2.4,0.6,3.6,1c0.5-0.5,0.5-1-0.2-1.2
				c-0.4-0.2-0.9-0.3-1.3-0.4c-1.6-0.4-3.2-0.7-4.9-0.7c-0.4,0-0.8,0.1-1.2,0.4C427.6,719.3,427.7,719.5,427.8,719.8z"/>
			<path class="st11" d="M433.9,724.4c0.1-0.6,0-0.9-0.5-1c-1.6-0.5-3.3-0.7-4.9-0.8c-0.5,0-0.9,0-1.4,0c-0.4,0-0.7,0.1-0.8,0.6
				c0.1,0.5,0.5,0.5,0.9,0.5c1.4,0,2.8,0,4.2,0.3c0.5,0.1,1,0.3,1.5,0.4C433.3,724.6,433.3,724.6,433.9,724.4z"/>
			<path class="st12" d="M455.9,706.2c-1.3,0.6-2.5,1.4-3.1,2.8c-0.7,1.5-1.4,3.1-2,4.6c-0.4,0.8-0.6,1.6-1.1,2.4
				c-0.7,1.1-1.8,1.8-2.8,2.5c-0.9,0.6-1.8,1.1-2.7,1.7c-0.9,0.6-1.5,1.3-2,2.3c-0.8,1.7-2,3-3.7,3.8c-1,0.5-1.8,1.2-2.7,1.8
				c-0.3,0.1-0.7,0.2-1,0.3c-0.9-0.2-1.3-0.8-1.3-1.7c-0.1-1.7,0.1-3.3,1-4.8c0.7-1.1,1.4-2.3,2.2-3.3c0.8-1.1,1.2-2.3,1.4-3.6
				c0.2-1.9,0.9-3.5,2-5.1c0.9-1.3,1.6-2.6,1.6-4.2c0-1.1,0.1-2.1,0.2-3.2c0-0.4,0-0.9,0-1.3c0.4,0.3,0.8,0.5,1.2,0.8
				c0,0.1,0,0.3,0,0.4c-0.1,1.2-0.2,2.5-0.2,3.8c-0.1,1.5-0.6,2.8-1.4,3.9c-1.2,1.6-1.9,3.3-2.1,5.3c-0.1,0.8-0.3,1.6-0.7,2.3
				c-0.5,1-1.2,1.9-1.8,2.9c-0.4,0.7-0.9,1.4-1.3,2.1c-0.7,1.3-0.9,2.7-0.8,4.2c0,0.1,0.1,0.2,0.1,0.3c0.4,0,0.7-0.1,1-0.3
				c1-0.7,2.1-1.3,3.2-1.9c0.7-0.4,1.2-0.9,1.6-1.6c0.3-0.6,0.7-1.1,1-1.7c0.4-0.8,1-1.5,1.8-2.1c0.6-0.4,1.3-0.8,1.9-1.2
				c0.9-0.6,1.9-1.2,2.8-1.8c0.4-0.3,0.8-0.8,1-1.2c0.4-0.7,0.7-1.5,1-2.2c0.7-1.7,1.3-3.4,2.3-4.9c1-1.5,2.3-2.5,4-3
				c0.4-0.1,0.8-0.2,1.2-0.2c0.3,0.3,0.6,0.6,0.9,0.9c-0.6,0.1-1.2,0.2-1.8,0.3C456.3,706.1,456.1,706.1,455.9,706.2z"/>
		</g>
		<g>
			<path class="st9" d="M503.9,605.5c0.3,0.6,0.8,101.5-0.2,103.4s-10.2,3.1-10.4-1.8c-0.1-2-7-70.6,1.4-103.1
				C496.2,598.1,493.8,583,503.9,605.5z"/>
			<path class="st9" d="M493.3,707.8c0,0-1.1,17.3-5,22.9s-8.2,13.7-6.8,17.7c1.4,4,9.9,5.5,15.6,1.9s8.4-6.1,8.5-9.7
				c0.1-3.5-0.4-11.5-0.8-14.2c-1.4-10.4-0.5-16.5-0.6-17.8C503.7,702.1,495.2,701.2,493.3,707.8z"/>
			<path class="st10" d="M465.9,757.5c0.2,0.2,0.5,0.3,0.8,0.4c2.1,1.1,4.4,1.8,6.8,2.3c0.9,0.2,1.9,0.4,2.8,0.3
				c0.2,0,0.3,0.1,0.5,0.1c1-0.1,2.1-0.1,3.1-0.2c0.2-0.1,0.4-0.2,0.6-0.2c1.8-0.2,3.5-0.8,5-1.6c2.2-1.2,4.4-2.5,6.5-3.8
				c1.6-1,3.2-2,4.8-3c0.6-0.4,1.1-0.8,1.7-1.2c2.9-2.2,5.7-4.5,8.4-7c0.1-0.1,0.2-0.2,0.4-0.3c1.7-1.3,3.5-2.6,5.2-3.8
				c0.6-0.4,1.2-0.9,1.6-1.7c-0.1-0.3-0.3-0.7-0.4-1.1c-0.2-0.8-0.4-1.6-0.6-2.4c-0.3-1.3-0.8-2.5-1.5-3.6c-1.5-2.2-2.9-4.5-4.4-6.7
				c-0.2-0.4-0.5-0.7-0.9-1c-0.5-0.5-1-0.5-1.5,0c-0.3,0.2-0.5,0.5-0.8,0.8c-0.8,0.9-1.9,1.2-3.1,1.1c-1.8-0.1-3.2-1-4.6-2
				c-0.8-0.6-1.4-1.4-2.1-2.1c-1.3-1.3-2.9-2.2-4.5-2.8c-0.7-0.3-1.3-0.1-1.7,0.5c-0.4,0.5-0.9,1.1-1.2,1.7c-0.9,1.8-2,3.6-2.7,5.6
				c-0.5,1.5-1.5,2.8-2.4,4.1c-0.9,1.4-1.9,2.8-2.8,4.1c-0.7,1-1.4,2-2,3.1c-0.4,0.7-0.8,1.3-1,2.1c-0.9,2.3-2.2,4.5-3.5,6.6
				c-0.5,0.8-1,1.6-1.5,2.4c-0.5,0.7-1.1,1.4-1.7,2c-1.2,1.2-2.1,2.5-2.6,4c-0.2,0.7-0.5,1.4-0.8,2.1
				C465.4,756.7,465.5,757.2,465.9,757.5z"/>
			<path class="st11" d="M474.4,764.8c0.4-0.1,0.9-0.2,1.3-0.3c1-0.2,1.9-0.5,2.9-0.7c1.2-0.3,2.4-0.5,3.5-0.8
				c0.7-0.2,1.4-0.4,2-0.7c1.4-0.7,3-1.1,4.5-1.5c2-0.5,3.8-1.4,5.4-2.7c0.9-0.7,1.6-1.6,2-2.6c0.5-1.1,0.9-2.2,1.1-3.4
				c0.2-1-0.2-1.8-0.9-2.6c-1-1.1-2.2-1.7-3.6-1.9c-1-0.1-2.1-0.2-3.1,0.5c-0.1,0.1-0.2,0.1-0.3,0.2c-1.1,1.4-2.7,2.4-3.3,4.2
				c-0.2,0.6-0.6,1.1-1.1,1.5c-0.8,0.6-1.4,1.2-2.1,1.9c-0.9,0.8-2,1.1-3.2,1.3c-1.4,0.2-2.8,0.2-4.2,0c-0.7-0.1-1.4-0.2-2-0.5
				c-1.7-0.6-3.4-1-5.2-1.1c-0.6-0.1-1.3-0.2-1.9-0.2c-1.9-0.2-2.8,0.8-3,2.3c-0.2,1.8,0.3,3.4,1.5,4.8c1,1.2,2.4,1.8,3.9,2.2
				c1.1,0.2,2.1,0.5,3.3,0.5c0.1,0,0.1,0.1,0.2,0.1C472.9,764.9,473.6,764.9,474.4,764.8z"/>
			<path class="st11" d="M515.8,736.9c-0.1-1-0.5-1.9-1.4-2.7c-0.7-0.6-1.4-0.7-2.3-0.3c-1.2,0.6-2.2,1.5-2.7,2.8
				c-0.2,0.6-0.6,1-1.2,1.2c-1,0.3-1.9,0.7-2.9,1.1c-1.1,0.4-2,1.1-2.9,1.9c-0.3,0.3-0.6,0.8-0.8,1.2c-0.3,0.5-0.4,1.2-0.7,1.7
				c-0.3,0.7-0.7,1.4-1,2c-0.4,0.8-0.9,1.5-1.4,2.2c-0.1,0.2-0.3,0.5-0.4,0.8c-0.1,0.4,0,0.8,0.4,1c0.2,0.1,0.5,0.2,0.8,0.3
				c0.8,0.1,1.6,0.2,2.4,0.1c1-0.2,2-0.2,2.9-0.2c2,0,3.6-0.7,5-2c0.8-0.7,1.6-1.3,2.4-1.9c1.1-0.8,1.8-1.9,2.1-3.2
				c0.2-1,0.6-1.8,1.1-2.7C515.6,739.1,515.8,738.1,515.8,736.9z"/>
			<path class="st11" d="M476.6,716.8c-0.7-0.2-1.5-0.5-2-1c-0.9-0.8-0.7-2,0.3-2.6c0.9-0.5,1.8-0.5,2.8-0.5c1.5,0.1,3,0.5,4.5,1.1
				c2.4,0.9,4.6,2.3,6.5,4.1c0.2,0.2,0.4,0.5,0.5,0.7c-0.4,1.1-1.1,1.7-2,2.1c-0.7,0.3-1.4,0.7-2.1,1c-0.9,0.4-1.7,0.8-2.6,1.1
				c-1.1,0.3-2.2,0.6-3.3,0.8c-1.2,0.2-2.4,0.1-3.5-0.1c-0.4-0.1-0.8-0.2-1.2-0.3c-1.2-0.6-1.4-1.9-0.5-2.9c0.8-0.8,1.7-1.4,2.8-1.6
				c1.1-0.3,2.3-0.5,3.5-0.7C479,717.5,477.8,717.2,476.6,716.8z M475.4,722.1c1.3,0.2,2.5,0.3,3.8,0.1c2.1-0.4,4-1.1,5.8-2.1
				c0.5-0.3,1-0.4,1.7-0.7c-0.5-0.1-0.8-0.1-1.2-0.2c-0.8,0-1.7,0-2.5,0c-0.7,0-1.4,0-2.1,0c-1.2,0-2.4,0.3-3.6,0.5
				c-1.1,0.2-2.1,0.8-2.8,1.8C474.8,721.9,475.1,722.1,475.4,722.1z M477.2,715.7c2.9,0.9,5.9,1.5,9,1.9c-0.2-0.2-0.3-0.4-0.5-0.5
				c-2-1.3-4-2.3-6.4-2.8c-1-0.2-1.9-0.4-2.9-0.3c-0.5,0.1-0.9,0.1-1.2,0.6C475.8,715.3,476.5,715.5,477.2,715.7z"/>
			<path class="st11" d="M484.4,723.4c0.5,0,0.9,0,1.2,0c1.4,0.2,2.7,0.8,3.9,1.5c1.1,0.7,2.2,1.6,3.3,2.3c0.1,0.1,0.2,0.1,0.2,0.1
				c0.4,0,0.7-0.3,0.7-0.8c-0.3-0.5-0.8-0.9-1.3-1.3c-1.7-1.3-3.7-2.3-5.8-2.9c-0.7-0.2-1.5-0.3-2.4,0
				C484.4,722.7,484.4,723,484.4,723.4z"/>
			<path class="st11" d="M480.1,730c-0.3,0.6-0.1,1,0.5,1c1,0,2,0.4,2.9,0.8c1.5,0.6,2.8,1.5,4,2.5c0.3,0.3,0.6,0.4,1,0.2
				c0.2-0.6,0.2-1-0.4-1.3c-1.6-1.1-3.2-2.2-5-2.8C481.4,729.9,481.3,729.9,480.1,730z"/>
			<path class="st11" d="M486.4,737.2c-0.1-0.6-0.6-1-1-1.2c-2.2-1.4-4.5-2.2-7-2.8c-0.3,0.1-0.5,0.3-0.5,0.7c0,0.3,0.3,0.4,0.6,0.5
				c1,0.3,2.1,0.6,3.1,1c1.3,0.5,2.6,1.2,3.7,2.1C485.8,737.9,486,737.8,486.4,737.2z"/>
			<path class="st11" d="M489.8,730.9c0.6-0.5,0.7-0.9,0.4-1.4c-0.1-0.3-0.4-0.5-0.6-0.7c-1.8-1.3-3.8-2.3-6-2.8
				c-0.3-0.1-0.6-0.2-0.9,0.1c0,0.2,0,0.5,0,0.7c0.9,0.3,1.7,0.6,2.6,0.9c1.3,0.5,2.5,1.1,3.5,2c0.2,0.2,0.4,0.4,0.5,0.6
				C489.4,730.6,489.6,730.8,489.8,730.9z"/>
			<path class="st11" d="M476.1,737.9c1.5,0.2,2.8,0.5,4,1.1c1.2,0.6,2.3,1.2,3.5,1.8c0.7-0.4,0.7-0.9,0.1-1.3
				c-0.4-0.3-0.8-0.5-1.3-0.7c-1.6-0.8-3.2-1.4-4.9-1.8c-0.4-0.1-0.9-0.1-1.4,0.1C476.1,737.3,476.1,737.5,476.1,737.9z"/>
			<path class="st11" d="M481.4,744c0.3-0.6,0.2-0.9-0.3-1.2c-1.6-0.9-3.2-1.5-5-1.9c-0.5-0.1-1-0.2-1.4-0.3c-0.5-0.1-0.8,0-0.9,0.4
				c0,0.5,0.4,0.7,0.8,0.7c1.5,0.3,2.9,0.6,4.3,1.2c0.5,0.2,1,0.5,1.5,0.8C480.8,744,480.8,744,481.4,744z"/>
			<path class="st12" d="M508.3,729.9c-1.5,0.3-2.9,1-3.9,2.2c-1.1,1.4-2.1,2.9-3.2,4.4c-0.5,0.8-1,1.5-1.6,2.2
				c-0.9,1-2.2,1.5-3.5,1.9c-1.1,0.4-2.1,0.7-3.2,1.1c-1,0.4-1.9,1-2.5,1.9c-1.2,1.6-2.7,2.7-4.7,3.2c-1.1,0.3-2.2,0.8-3.2,1.2
				c-0.4,0-0.7,0-1.1,0.1c-0.8-0.4-1.2-1.2-1-2c0.3-1.8,0.9-3.4,2.1-4.7c1-1,2-2,3-3c1.1-1,1.8-2.1,2.3-3.4c0.6-1.9,1.7-3.5,3.1-4.9
				c1.2-1.1,2.2-2.3,2.6-4c0.2-1.1,0.6-2.2,0.9-3.3c0.1-0.5,0.2-0.9,0.3-1.3c0.3,0.4,0.7,0.7,1,1c0,0.1-0.1,0.3-0.1,0.4
				c-0.4,1.3-0.7,2.6-1.1,3.8c-0.4,1.5-1.2,2.7-2.3,3.7c-1.5,1.4-2.7,3-3.4,5c-0.3,0.8-0.7,1.6-1.2,2.3c-0.8,0.9-1.7,1.7-2.5,2.6
				c-0.6,0.6-1.3,1.2-1.8,1.9c-1,1.2-1.5,2.6-1.7,4.2c0,0.1,0,0.2,0,0.4c0.4,0.1,0.8,0,1.2-0.1c1.2-0.4,2.5-0.9,3.7-1.3
				c0.8-0.3,1.4-0.7,2-1.3c0.5-0.5,1-1,1.4-1.6c0.6-0.8,1.4-1.3,2.3-1.8c0.7-0.3,1.5-0.6,2.2-0.8c1.1-0.4,2.2-0.8,3.3-1.3
				c0.5-0.2,1-0.6,1.3-1c0.5-0.6,1-1.3,1.5-2c1.1-1.6,2.1-3.2,3.5-4.6c1.3-1.4,3-2.1,4.9-2.2c0.4,0,0.9,0,1.3,0
				c0.3,0.4,0.5,0.8,0.8,1.2c-0.6,0-1.3-0.1-1.9-0.1C508.8,729.9,508.5,729.9,508.3,729.9z"/>
		</g>
		<path class="st13" d="M482.6,713.9c12.6,0.7,26.8-1.6,27.8-16.3c1.4-19.9,0.1-70.8,1-95.9c0.1-2.6-0.4-5.4,0.5-7.8
			c0.6-1.6,1.7-3,2.5-4.5c3.5-6.4,4.7-18.9,3-26c-2.7-11.1-10.3-21.9-22.3-25.8c-4.1-1.3-8.6-0.6-13,0.1c-7,1.2-14,2.4-21,3.6
			c-4.6,0.8-12.5,0.5-16,3.7c-4.3,4-25.9,40-28.3,45.4c-5.5,12.4,1,33.4,4.1,48.2c1.2,5.6,2.4,11.2,3.5,16.8
			c2.1,9.9,4.4,19.2,5.8,29.1c0.4,3,0.8,6,2.2,8.7c2.9,5.5,9.3,8.1,15.3,9.4c6.5,1.5,11.8,2.7,17.5,6
			C470.5,711.9,476.4,713.6,482.6,713.9z"/>
		<path class="st14" d="M443.9,371.9c-0.4,1.5-2,3.2-2.2,4.7c-1.2,9,0.1,17.5,1.6,26.4c0.9,5.1,2.9,10.9,5.1,15.6
			c0.4,0.9,0.9,1.9,1.4,2.7c3,5.2,8.9,12.4,15.1,13.8c3.8,0.9,8.4,0.5,12.3,0.7c7.6,0.4,15.1,0.9,22.7,1.3l-1.5-37.2
			c-6.2-3.3-11.8-6.6-17.5-10.8c-1.8-1.3-3.6-2.7-4.9-4.5c-2.6-3.6-2.8-8.3-2.2-12.7s1.8-8.7,1.6-13.1c-0.1-4.4-2-9.1-5.9-11.1
			c-2.6-1.3-5.7-1.2-8.4-0.2c-2.7,1-5,2.8-7.1,4.8C448.9,357.6,445.5,364.6,443.9,371.9z"/>
		<path class="st9" d="M474.5,435.6L474.5,435.6c-6.5,0-11.7-5.2-11.7-11.7v-26.8h23.4v26.8C486.2,430.3,480.9,435.6,474.5,435.6z"
			/>
		<path class="st15" d="M479.4,405.9c-4-1-2.3-0.5-4.6-0.4c-4,0.2-8.1,0.9-11.8,2.7c-0.1,0-0.1,0.1-0.2,0.1v10
			c2.2,3,5.9,4.3,9.3,4.6c4.3,0.4,7.9-3.2,7.8-7.5L479.4,405.9z"/>
		<path class="st9" d="M476.5,354.9c-25.8-0.1-23.6,22.5-23.5,23.5c0.8,10.6,0.8,19.2,5.2,26.4c2.7,4.5,9.6,14.8,16.1,14.9
			c4.4,0.1,14-6.6,16.8-11.2c6.1-10.3,8.5-19.9,8.2-29.8C499,366.2,497.7,355,476.5,354.9z"/>
		<path class="st14" d="M456.5,379.4c2.5-1,5-2.2,7.7-1.8c1,0.1,4.1,1.2,2.4,2.8c-0.8,0.7-6.6,0.5-9.6,1
			C455.5,381.7,455,380,456.5,379.4z"/>
		<path class="st14" d="M487.2,382.2c-0.1-0.5-0.4-1-0.7-1.2c-2-1.8-4.6-2.9-7.3-2.9c-1,0-4.2,0.6-2.8,2.4c0.7,0.8,6.6,1.2,9.1,2.9
			C486.9,384.2,487.4,383.4,487.2,382.2z"/>
		<path class="st9" d="M499.1,383.3c-3-2.5-5.9,3.7-7,5.6c-0.6,1.2,1.1,2.3,1.8,1.2c-0.2,0.4-0.4,0.7-0.6,1.1
			c-0.7,1.2-2.1,2.9-1.3,4.4c1.6,2.9,6.1-0.8,7.3-2.6C502.2,389,501.6,385.3,499.1,383.3z"/>
		<path class="st16" d="M496.2,392.1c-0.6-1-2.3-0.1-1.6,1c0.6,1,0.9,2,0.9,3.2c0,1.2,1.9,1.2,1.9,0
			C497.4,394.7,497,393.3,496.2,392.1z"/>
		<path class="st9" d="M424.7,483.2c-0.5,3.3-2,6.5-1,10c0.7,2.5,3.1,4.9,5.4,6.1c3.5,1.8,10.2,1,13.4-1.2c2.6-1.7,4.8-5.8,6.1-8.6
			c1.3-3,4.3-8.4,0.2-10.3c-4.8-2.2-10.1-1.5-13.8,2c-1.9,1.7-4.4,1.7-6.1,3.5c-1.3,1.3-1.6,1.5-3.4,0.6"/>
		<path class="st9" d="M425.5,475.1c-0.7,8.9-1.2,15.5-1.2,16.4"/>
		<path class="st9" d="M462.7,424.4l-26.1,12.9c0,0,17.7,67.9,18.4,71.8c0.6,4,26.6,18.5,46.2-0.9l12.7-70.6
			c0,0-27.1-12.8-28.1-13.9C485.8,423.6,477.8,432.6,462.7,424.4z"/>
		<path class="st17" d="M500.3,459.7c0.4-0.9,5-26.1,5-26.1l-2.4-1.1c0,0-3.6,21.5-4.6,26c-0.2-0.2-0.6-0.4-1-0.4
			c-1.3,0-1.7,1.3-1.3,2.2c0,0,0,0-0.1,0c-0.1-0.7-0.5-1.2-1.4-1.2c-1.4,0-1.8,1.5-1.1,2.4c0,0,0,0,0,0c-0.2-0.6-0.6-1-1.4-1
			c-1.2,0-1.6,1.2-1.4,2c-0.2-0.3-0.6-0.6-1.2-0.6c-1.2,0-1.7,1.2-1.3,2.1c-0.2-0.1-0.5-0.2-0.8-0.2c-1.2,0-1.6,1.1-1.4,2
			c-0.2-0.1-0.5-0.2-0.8-0.2c-1.4,0-1.7,1.5-1.2,2.4c-0.2-0.1-0.4-0.2-0.7-0.2c-1.6,0-1.9,2.1-0.8,2.8c0,0,0,0,0,0
			c-0.2-0.3-0.6-0.5-1.1-0.5c-1.6,0-1.9,2-0.8,2.8c0,0,0,0-0.1,0.1c-0.2-0.3-0.6-0.6-1.1-0.6c-1.6,0-1.9,2.1-0.7,2.8c0,0,0,0,0,0.1
			c-0.2-0.3-0.6-0.6-1.1-0.6c-1.4,0-1.8,1.6-1.1,2.4c-0.2-0.1-0.4-0.1-0.6-0.1c-1.4,0-1.8,1.6-1.1,2.5c-0.9-0.5-2.2-0.1-2.2,1.2v0
			c0,0.7,0.4,1.1,0.9,1.3c-0.1,0.2-0.3,0.4-0.4,0.5c0-0.1,0-0.1,0-0.2v0c0-1.1-0.9-1.5-1.7-1.4c0.7-0.9,0.3-2.5-1.1-2.5
			c-0.4,0-0.6,0.1-0.9,0.3c0,0,0-0.1-0.1-0.1c1.3-0.5,1.1-2.9-0.6-2.9c-0.4,0-0.7,0.1-0.9,0.3c0,0,0-0.1-0.1-0.1
			c1.4-0.5,1.2-2.9-0.5-2.9c-0.4,0-0.8,0.2-1,0.4c0,0,0,0,0,0c1.4-0.5,1.2-2.9-0.5-2.9c-0.5,0-0.8,0.2-1.1,0.5c0,0,0,0,0,0
			c1.1-0.6,0.9-2.8-0.7-2.8c-0.4,0-0.8,0.2-1,0.4c1.1-0.7,0.9-2.8-0.8-2.8c-0.5,0-0.9,0.2-1.1,0.5c0,0,0,0-0.1-0.1
			c1-0.7,0.8-2.7-0.8-2.7c-0.6,0-1.1,0.4-1.3,0.8c0.5-0.9,0.1-2.3-1.2-2.3c-0.8,0-1.2,0.5-1.4,1.1c0,0-0.1,0-0.1,0
			c0.4-0.9-0.1-2.1-1.3-2.1h0c-0.8,0-1.3,0.6-1.4,1.2c0,0,0,0-0.1,0c0.4-0.6,0.3-1.5-0.5-1.9c0,0-0.1,0-0.1,0
			c-1.1-0.5-2,0.2-2.2,1.1c0,0,0,0,0,0c-0.6-1-6.5-27.1-6.5-27.1l-1.8,0.9c0,0,6.6,26.1,6.1,27.7c-0.3,0.9-3.3,9.4-3.3,10.2
			s3.8,12,4.1,12.7c0.3,0.7,20.5-0.8,23-1.5c1.3,0.7,33.4,2.3,33.6,1.6c0.3-0.7,2.4-12.5,2.4-13.4
			C507.7,471.2,499.9,460.6,500.3,459.7z"/>
		<path class="st5" d="M531.9,474.1c0.3,2.4,0.6,4.7,0.9,7.1c0.1,1,0.2,2.1-0.3,3c-0.9,1.5-19.6,7.3-19.9,6.2
			c2,7.4,3.7,14.8,5.2,22.2c1.9,9.7,3.9,19.5,4.6,29.4c0.1,1.6,0.2,3.3,0.2,4.9c-0.1,2.2-0.4,4.4-0.8,6.5c-0.5,3.5-1.1,7.1-1.6,10.7
			c-0.1,0.7-0.4,1.6-1.1,1.8c-0.7,0.1-1.2-0.4-1.6-0.9c-2.8-3.2-6-6.2-9.7-8.2c-3.7-2-8-3.2-12.3-2.7c-2.4,0.3-4.8,1.1-7.2,1.6
			c-3.8,0.8-7.8,0.9-11.7,0.6c-2.7-0.2-5.4-0.6-7.9-1.5c-3.1-1.2-5.9-2.2-9.1-2.8c-3.6-0.6-6.9,0.5-10.3,1.1
			c-2.1,0.4-4.7,0.3-5.8-1.5c-1-1.7,0-3.8,0.6-5.7c1-3.2,1-6.7,0.9-10.1c-0.1-8.6-0.1-17.2-0.1-25.9c0-2.9,0-5.8,0-8.7
			c0-1.7,0.7-5.6-1.2-6.7c-0.6-0.3-1.3-0.4-1.8-0.7c-1.3-0.7-2.6-1.3-4-1.9c-1.8-0.7-3.5-1.4-5.2-2.2c-1.8-0.8-3.9-0.9-5.7-1.8
			c-4.1-2-3.8-7.6-3.4-11.4c0.2-2.3,0.6-4.5,0.7-6.8c0-1.6,0-3.2,0.1-4.8c0.7-6.8,1.1-13.5,3.5-20c1.7-4.5,4.3-8.7,8.2-11.4
			c4.4-3.2,11.1-6.3,16.7-6c1.2,0.1,1.9,1.2,2.6,2.1c2.6,3.3,5.6,4.2,9.5,4.7c1.1,0.1,2.2,0.2,3.3,0.2c1.1,0,2.2,0,3.4,0
			c1.2,0,2.4-0.4,3.5-0.6c1.6-0.3,3.2-0.7,4.9-1.1c2-0.5,4.1-1.1,6-2.2c1.9-1.1,3.3-2.9,4.7-4.5c2.9-3.3,10.8-0.4,14.2,0.7
			c5.2,1.8,10.2,4.5,13.8,8.8c2.7,3.1,4.5,6.8,6,10.6C528.1,455.3,530.5,464.6,531.9,474.1z"/>
		<path class="st18" d="M457.9,423.1c0.9-0.1,1,0,1.1,0.6c0.4,1.9,1,3.6,1.8,5.4c0.4,0.9,0.8,1.9,1.2,2.9s0.8,1.9,1.3,2.8
			c0.8,1.5,1.6,3,2.6,4.4c0.6,0.9,1.2,1.9,1.9,2.8c0.7,0.9,1.5,1.6,2.2,2.4c0.6,0.6,1.2,1.1,1.8,1.7c0.2,0.2,0.5,0.3,0.8,0.5
			c0.1-0.2,0.3-0.3,0.4-0.4c0.4-0.4,0.7-0.8,1.1-1.2c0.5-0.4,1-0.6,1.7-0.5c0.5,0.1,1,0.1,1.4,0.2c1,0.2,1.6,0.9,2.1,1.8
			c1-0.6,2-1.3,2.8-2.1c1-1,2.1-2.1,2.8-3.4c0.4-0.7,0.9-1.4,1.3-2.1c0.8-1.4,1.7-2.8,2.4-4.3c1.2-2.4,2.2-4.8,3-7.4
			c0.2-0.5,0.2-1.1,0.4-1.7c0-0.1,0-0.1,0-0.2c0.1-0.5,0.4-0.7,0.8-0.6c0.4,0.1,0.6,0.5,0.5,1c-0.5,1.9-0.8,3.7-1.7,5.5
			c-0.8,1.7-1.5,3.5-2.4,5.2c-1.3,2.5-2.8,5-4.5,7.2c-1.1,1.4-2.4,2.7-4,3.6c-0.2,0.1-0.5,0.3-0.6,0.5c-0.1,0.1-0.2,0.4-0.2,0.6
			c0,1.6-0.7,2.8-2.1,3.6c-1.2,0.7-3.6,0.3-4.6-0.8c-0.6-0.6-0.7-1.5-0.8-2.3c0-0.2,0-0.5,0-0.6c-0.7-0.5-1.3-0.9-1.9-1.4
			c-0.9-0.8-1.7-1.6-2.5-2.5c-0.5-0.5-1-1.1-1.5-1.7c-0.6-0.7-1.1-1.5-1.5-2.3c-0.6-1-1.2-2-1.8-3c-0.7-1.3-1.4-2.6-2-4
			c-0.8-1.9-1.6-3.9-2.3-5.9c-0.4-1.1-0.6-2.2-0.9-3.4C457.8,423.7,457.9,423.4,457.9,423.1z M473.4,448.4c0,0.7,0.1,1.4,0.7,1.9
			c0.6,0.5,1.3,0.7,2,0.6c1.5-0.1,2.5-1.7,2.1-3.2c-0.3-1-0.8-1.7-1.9-1.8c-0.1,0-0.2,0-0.3-0.1c-0.4-0.2-0.8-0.1-1.1,0.3
			c-0.1,0.1-0.2,0.3-0.3,0.3C473.7,446.7,473.6,447.6,473.4,448.4z"/>
		<path class="st10" d="M459.6,421.9c0.1-0.5,0.4-0.7,0.8-0.7c0.6,0.4,0.8,1,1,1.6c0.6,1.3,1.1,2.6,1.8,3.9c1,1.8,1.8,3.7,3.1,5.3
			c0.4,0.5,0.7,1.1,1.1,1.6c1.4,1.8,3,3.3,4.9,4.5c1.7,1.1,3.5,1,5.2,0c1.2-0.7,2.3-1.7,3.4-2.6c1.5-1.4,2.8-2.9,4-4.5
			c0.6-0.7,1-1.5,1.5-2.3c0.6-1,1.3-2,1.8-3.1c0.4-0.8,0.7-1.6,1.1-2.5c0,0,0.1-0.1,0.3-0.1c0.6-0.1,1,0.2,0.8,0.8
			c-0.3,1.2-0.8,2.2-1.4,3.3c-0.7,1.1-1.3,2.3-2,3.4c-1.2,1.9-2.6,3.7-4.2,5.3c-1,1-2,1.9-3.1,2.7c-1.1,0.8-2.3,1.5-3.7,1.7
			c-1.5,0.3-2.9-0.1-4.1-0.8c-1.4-0.8-2.6-1.9-3.8-3c-1.1-1-1.9-2.3-2.8-3.5c-0.8-1.2-1.5-2.4-2.1-3.6c-1-2-1.8-4-2.8-6
			C460.1,422.8,459.9,422.3,459.6,421.9z"/>
		<g>
			<g>
				<path class="st8" d="M438.1,489.9c1.1,0.4,2.4,0.3,3.5-0.2c0.4-0.2,0-0.8-0.3-0.6c-0.9,0.5-2,0.5-2.9,0.1
					C437.8,489.1,437.7,489.8,438.1,489.9L438.1,489.9z"/>
			</g>
		</g>
		<g>
			<g>
				<path class="st8" d="M437.7,487.5c0.9,0.2,1.8,0.5,2.6,0.8c0.4,0.1,0.6-0.5,0.2-0.6c-0.9-0.2-1.8-0.5-2.6-0.8
					C437.5,486.7,437.3,487.3,437.7,487.5L437.7,487.5z"/>
			</g>
		</g>
		<g>
			<g>
				<path class="st8" d="M435.1,436.7c1-0.2,2.7,4.5,2.9,5c0.6,1.6,1,3.3,1.5,4.9c0.1,0.4,0.8,0.2,0.6-0.2c-0.7-2.4-1.3-4.9-2.4-7.2
					c-0.5-1-1.4-3.6-2.8-3.2C434.5,436.2,434.7,436.8,435.1,436.7L435.1,436.7z"/>
			</g>
		</g>
		<g>
			<g>
				<path class="st8" d="M510.8,484.2c1.7,2,3.2,1.6,5.3,0.5c3.8-1.9,7.8-2.8,11.8-4.5c0.4-0.2,0-0.8-0.3-0.6
					c-2.7,1.2-5.2,1.8-8,2.7c-2.3,0.7-6,4.1-8.3,1.4C511,483.4,510.5,483.8,510.8,484.2L510.8,484.2z"/>
			</g>
		</g>
		<g>
			<g>
				<path class="st8" d="M502,441.7c0.2-4.4,3.1-8.3,5.4-12c0.2-0.4-0.4-0.7-0.6-0.3c-2.3,3.8-5.3,7.7-5.5,12.3
					C501.3,442.1,502,442.1,502,441.7L502,441.7z"/>
			</g>
		</g>
		<g>
			<g>
				<path class="st8" d="M500.1,426.8c-1.7,3.9-4.4,7.2-7.9,9.6c-0.4,0.2,0,0.8,0.3,0.6c3.6-2.5,6.4-5.8,8.1-9.9
					C500.9,426.7,500.3,426.4,500.1,426.8L500.1,426.8z"/>
			</g>
		</g>
		<g>
			<g>
				<path class="st8" d="M450.9,436.4c2.5,2.3,5.4,4,8.6,5.2c0.4,0.1,0.6-0.5,0.2-0.6c-3.1-1.1-5.9-2.8-8.3-5
					C451.1,435.7,450.6,436.1,450.9,436.4L450.9,436.4z"/>
			</g>
		</g>
		<g>
			<path class="st14" d="M479.2,373.9c5-1.5,10.1-4.3,12.2-8.9c1.5,24-2.4,48.1-2.1,72.1c0,1,0.2,2.1,1,2.5
				c2.6-3.5,5.5-6.6,7.6-10.5c2.1-3.9,3.7-7.9,5.3-12c2.8-7.1,5.7-14.2,6.6-21.8c0.9-8-0.4-16.1-2.2-23.9c-0.6-2.5-1.2-5-2.4-7.3
				c-1.4-2.8-3.6-5.3-6.3-7c-1.1-0.7-2.6-0.9-3.5-1.6c-1.1-0.9-1.4-2.3-2.3-3.4c-1.8-2.3-4.2-4.1-6.8-5.4c-4.3-2.1-9.1-2.8-13.9-2.8
				c-5.9,0.1-11.9,1.4-16.8,4.8c-2.9,2.1-5.3,4.8-7.4,7.8c-2.2,3.1-4.4,6-5.2,9.8c-0.4,1.9-4,14.7-0.7,31c0.4,2.1,3.2,4.7,7.6,6.7
				c1.4,0.6,3.5,0.7,3.9-0.7c0.2-0.8-0.2-1.5-0.5-2.2c-1-2.1-2.5-5.4-2.2-7.8c0.1-0.8,0.5-1.7,1.3-2c0.5-0.2,1,1.2,1.3,0.8
				c0.1-0.3-0.2-2.7-0.2-3c-0.4-3.5,0.2-5.6,2.1-7.9c2.1-2.7,5.3-3.5,8.5-3.9c3.8-0.5,7.8-1.4,11.5-2.2
				C476.9,374.5,478,374.2,479.2,373.9z"/>
		</g>
		<g>
			<g>
				<path class="st19" d="M468.9,384c0.2,2.5,0.1,6.8-1.6,8.6c-1,1-2.6,1.3-2.7,3c-0.2,3.5,4.5,5.5,7.3,5.3c2.3-0.1,2.3-3.8,0-3.6
					c-1.5,0.1-2.4-0.3-3.4-1.4c0.2,0.2-0.9,1,0.4,0.2c1.1-0.7,2-2,2.5-3.1c1.2-2.5,1.5-6.2,1.2-8.9
					C472.2,381.7,468.6,381.7,468.9,384L468.9,384z"/>
			</g>
		</g>
		<g>
			<g>
				<path class="st14" d="M453.5,359.9c6.3-6.6,15.1-9.5,24.1-7.8c1.2,0.2,1.7-1.6,0.5-1.8c-9.6-1.9-19.1,1.1-25.9,8.2
					C451.4,359.5,452.7,360.8,453.5,359.9L453.5,359.9z"/>
			</g>
		</g>
		<g>
			<g>
				<path class="st20" d="M504.2,382.8c0.4,8.1-1.9,15.8-4.4,23.4c-0.1,0.4,0.5,0.6,0.7,0.2c2.5-7.7,4.8-15.4,4.4-23.6
					C504.9,382.4,504.2,382.4,504.2,382.8L504.2,382.8z"/>
			</g>
		</g>
		<g>
			<g>
				<path class="st20" d="M501.3,379.6c0.1,3.6-0.1,7.1-0.5,10.7c-0.1,0.5,0.7,0.5,0.7,0c0.5-3.5,0.6-7.1,0.5-10.7
					C502,379.1,501.3,379.1,501.3,379.6L501.3,379.6z"/>
			</g>
		</g>
		<g>
			<g>
				<path class="st20" d="M487.2,356.5c-6.7-7-16.7-5.1-24.5-1.1C454,360,447.5,368,447.1,378c0,0.3,0.5,0.3,0.5,0
					c0.4-9.3,6.1-16.8,14-21.4c7.8-4.4,18.3-7,25.3,0.2C487.1,357.1,487.4,356.8,487.2,356.5L487.2,356.5z"/>
			</g>
		</g>
		<g>
			<g>
				<path class="st20" d="M460.2,353.3c3.9-1.9,7.9-2.9,12.2-3c0.3,0,0.3-0.5,0-0.5c-4.4,0.2-8.5,1.2-12.4,3.1
					C459.6,353,459.9,353.4,460.2,353.3L460.2,353.3z"/>
			</g>
		</g>
		<g>
			<g>
				<path class="st20" d="M450.2,406.7c0.8,4.8,2.9,9.1,6.1,12.7c0.2,0.2,0.6-0.1,0.4-0.4c-3.1-3.6-5.1-7.8-6-12.5
					C450.6,406.3,450.1,406.4,450.2,406.7L450.2,406.7z"/>
			</g>
		</g>
		<g>
			<g>
				<path class="st20" d="M453.8,408.4c1.1,3.5,2.5,6.8,4.4,9.9c0.2,0.3,0.6,0,0.4-0.3c-1.8-3.1-3.3-6.4-4.3-9.8
					C454.2,407.9,453.7,408.1,453.8,408.4L453.8,408.4z"/>
			</g>
		</g>
		<path class="st14" d="M477.6,386.3c-0.7,1.5-0.4,3.1,0.6,3.5c2.1,0.9,2.8-2,4.1-2.7c0.2-0.1,0.6,0.1,0.8,0
			c0.2-0.1,0.3-0.4,0.1-0.5c-0.4-0.5-1.3-1.1-1.8-1.4C479.8,384.5,478.4,384.6,477.6,386.3z"/>
		<path class="st14" d="M464.9,387c0.3,1.5-0.2,2.8-1.2,3c-2,0.4-2.1-2.2-3.1-3.1c-0.1-0.1-0.6-0.1-0.7-0.1c-0.2-0.1-0.2-0.4,0-0.5
			c0.5-0.3,1.3-0.7,1.8-0.9C463.4,384.9,464.6,385.3,464.9,387z"/>
		<path class="st9" d="M447.1,492.4c1.3-1.7,2.2-3.6,3.1-5.5c1-2.2,2.1-4.4,2.6-6.7c0.5-2.1,0.8-4.2,1.6-6.3
			c1.3-3.2,2.4-6.5,3.5-9.8c4.2-13.1,7.3-26.6,10.1-40c0.6-2.7-5.8-10.2-10.6-0.4c-2.2,4.5-4.3,9-6.5,13.4
			c-2.7,5.6-5.5,11.1-8.3,16.7c-2.3,4.5-4.5,9-6.2,13.8c-1.7,4.5-3.3,9-5,13.5c-0.6,1.6-2,3.1-2.8,4.6c-0.4,0.8-2.6,2.2-2.4,3.2
			c0.2,0.9,3.2,1.9,3.9,2.4c1.9,1.3,3.9,1.9,6,2.5c1.7,0.5,3.1,1,4.8,1.9c0.7,0.4,1.8,0.9,2.7,0.5c0.9-0.3,1.8-1.6,2.4-2.3
			C446.3,493.4,446.7,492.9,447.1,492.4z"/>
		<path class="st9" d="M510.9,498.1c0,0-11.1-20.4-31.1-77.4c-0.8-2.4,4-9.9,9.5-1.7c32.8,49.7,34.6,61.8,38.3,68.1
			C531.3,493.5,522.3,507.3,510.9,498.1z"/>
		<g>
			<g>
				<path class="st8" d="M461.1,547c0.8,0.3,1.1,0.4,2,0.4c2,0,3.2,0,5,1.1c2,1.4,4,2.3,6.4,2.8c0.4,0.1,0.6-0.6,0.2-0.7
					c-2.9-0.5-4.8-2-7.2-3.3c-2-1.1-4.1,0-6-0.9C461,546.3,460.7,546.9,461.1,547L461.1,547z"/>
			</g>
		</g>
		<g>
			<g>
				<path class="st8" d="M453.9,480.1c0.5,4.5,2.9,8.1,3.8,12.5c1.2,6.1,2.4,12.2,4.3,18.1c0.1,0.4,0.8,0.2,0.6-0.2
					c-1.7-5.4-2.8-10.8-3.9-16.3c-0.4-2.2-0.7-4.6-1.4-6.7c-0.9-2.7-2.4-4.4-2.7-7.5C454.5,479.6,453.8,479.6,453.9,480.1
					L453.9,480.1z"/>
			</g>
		</g>
		<path class="st21" d="M510.5,505.4c-2.4,4.4-5.6,8.3-7.8,12.8c-0.6,1.3-1.2,2.6-1,4c0.3,3.1,3.8,5,6.8,4.7s5.7-2.3,8-4.3
			c4.5-4,8.6-8.5,12.1-13.4c1.1-1.5,2.2-3.1,2.6-5c0.8-3.5-0.6-7-2.1-10.2c-1.3-2.7-2.7-5.5-5-7.4s-5.6-3-8.3-1.8
			c-3.8,1.6-3.2,5-2.3,8.1C514.6,496.9,512.4,501.9,510.5,505.4z"/>
		<g>
			<g>
				<path class="st8" d="M502,486.3c-0.8,6.7-1.2,12.5-5,18.3c-2.8,4.2-4.3,8.7-5.7,13.6c-0.1,0.4,0.5,0.6,0.6,0.2
					c1-3.4,1.9-6.8,3.5-10c1.3-2.6,3.3-4.7,4.5-7.3c2.1-4.4,2.1-10,2.6-14.7C502.7,485.9,502,485.9,502,486.3L502,486.3z"/>
			</g>
		</g>
		<g>
			<g>
				<path class="st8" d="M472.8,547.1c0,0.2,0,0.4,0,0.6c0,0.2,0.1,0.3,0.2,0.3c2.8,0.9,5.7,1.3,8.6,1.1c0.4,0,0.4-0.7,0-0.7
					c-1.4,0.1-2.9,0.1-4.3-0.1c-0.6-0.1-3.9-0.3-4-1.2C473.5,546.7,472.8,546.7,472.8,547.1L472.8,547.1z"/>
			</g>
		</g>
		<g>
			<g>
				<path class="st8" d="M455.4,504.3c0.6,2.6,1.6,5,3.1,7.2c0.2,0.4,0.8,0,0.6-0.3c-1.5-2.2-2.5-4.5-3.1-7.1
					C456,503.7,455.4,503.9,455.4,504.3L455.4,504.3z"/>
			</g>
		</g>
		<g>
			<g>
				<path class="st8" d="M511.8,552.1c1.9,2,4.1,3.5,6.6,4.7c0.4,0.2,0.7-0.4,0.3-0.6c-2.4-1.1-4.6-2.6-6.5-4.6
					C511.9,551.3,511.5,551.8,511.8,552.1L511.8,552.1z"/>
			</g>
		</g>
		<g>
			<g>
				<path class="st8" d="M516.8,545.7c0.8,2.4,1.4,4.8,1.5,7.3c0,0.4,0.7,0.4,0.7,0c-0.2-2.6-0.7-5.1-1.6-7.5
					C517.3,545.1,516.7,545.3,516.8,545.7L516.8,545.7z"/>
			</g>
		</g>
		<g>
			<g>
				<path class="st22" d="M495.2,655.5c-7.8,2.6-15.7,3.4-23.8,2.5c-0.6-0.1-0.6,0.8,0,0.9c8.2,0.9,16.2,0.1,24-2.5
					C496,656.2,495.8,655.3,495.2,655.5L495.2,655.5z"/>
			</g>
		</g>
		<g>
			<g>
				<path class="st22" d="M465.8,587.2c-3.2,6.9-3.7,15.1-3.2,22.6c0.6,10.4,4.8,20.2,4.6,30.8c0,0.6,0.9,0.6,0.9,0
					c0.1-9.7-3.4-18.6-4.4-28c-0.8-8.1-0.6-17.3,2.9-24.8C466.8,587.1,466.1,586.6,465.8,587.2L465.8,587.2z"/>
			</g>
		</g>
		<g>
			<g>
				<path class="st22" d="M461.6,618.6c0.5,4.5,0.8,9,0.9,13.6c0,0.6,0.9,0.6,0.9,0c-0.1-4.5-0.4-9.1-0.9-13.6
					C462.4,618,461.5,618,461.6,618.6L461.6,618.6z"/>
			</g>
		</g>
		<g>
			<g>
				<path class="st22" d="M438.2,675.7c-2,7,0.9,15,7.7,18.2c4.6,2.2,10.1,2.9,14.9,4.6c6.9,2.4,13.5,5.4,19.9,9
					c0.5,0.3,1-0.5,0.5-0.8c-8-4.5-16.5-8.2-25.4-10.8c-4.8-1.4-10-2-13.5-5.9c-3.5-3.9-4.6-9.2-3.2-14.2
					C439.2,675.4,438.4,675.1,438.2,675.7L438.2,675.7z"/>
			</g>
		</g>
		<g>
			<g>
				<path class="st22" d="M480.3,700.9c1.1,0.5,2.1,1,3.2,1.4c0.5,0.2,1-0.5,0.5-0.8c-1.1-0.5-2.1-1-3.2-1.4
					C480.3,699.9,479.8,700.6,480.3,700.9L480.3,700.9z"/>
			</g>
		</g>
		<g>
			<g>
				<path class="st22" d="M497.3,604.2c4.3-2.1,8.1-5,11.3-8.6c0.4-0.4-0.2-1.1-0.6-0.6c-3.2,3.5-6.9,6.3-11.1,8.4
					C496.3,603.6,496.8,604.4,497.3,604.2L497.3,604.2z"/>
			</g>
		</g>
		<g>
			<g>
				<path class="st22" d="M501.7,606c0.5-0.6,1.1-1,1.9-1.2c0.6-0.2,0.3-1-0.2-0.9c-1,0.3-1.8,0.8-2.4,1.7
					C500.6,606,501.3,606.4,501.7,606L501.7,606z"/>
			</g>
		</g>
		<g>
			<g>
				<path class="st22" d="M421.7,594c2.4,1.5,5,2.8,7.7,3.9c0.5,0.2,0.8-0.7,0.2-0.9c-2.6-1-5.1-2.3-7.5-3.8
					C421.6,592.9,421.2,593.7,421.7,594L421.7,594z"/>
			</g>
		</g>
		<g>
			<g>
				<path class="st22" d="M422.7,601.1c1.7-0.3,3.4-0.2,5.1,0.2c0.6,0.1,0.8-0.7,0.2-0.9c-1.9-0.5-3.7-0.5-5.6-0.2
					C421.9,600.3,422.2,601.2,422.7,601.1L422.7,601.1z"/>
			</g>
		</g>
		<g>
			<path class="st23" d="M464.8,423.6c-2-0.8-3.4,0.4-5.2-0.9c-0.8-0.5-1.5-1.3-2-2.1c-0.3-0.5-0.5-1-0.6-1.5
				c-0.2-0.7-3.6-8.6-3.7-10.6c-0.1-2.5-1-5.5-1.7-7.9c-0.2-0.7-1.4-1.3-0.5-1.3c1,0,1.9,0.4,2.5,1.1c0.6,0.7,1.6,2.5,1.7,3.8
				c0.1,0.6,0.3,2.9,1.4,3c0.3-1.6,0.3-3.4,0.5-5c0.3-2.9,0.6-5.7,0.9-8.5c1.4-11.6,4.4-6.9,4.4-6.9s1.1-2.2,2.1-1.7
				c1.5,0.6,1.1,3.7,1.1,3.7s1.9-2.5,2.6-0.1c0.3,1.2-0.2,4.4-0.2,4.4s1.4-3.1,2.6,0.1c0.7,1.9,1,22.4,1.1,23.2
				C471.8,418.1,470,425.7,464.8,423.6z"/>
			<path class="st9" d="M464.6,424.3c-2.1-0.4-3.9,0.2-5.7-1c-0.8-0.5-1.9-2.2-2.4-3c-0.3-0.5-0.5-1-0.6-1.5
				c-0.2-0.7-3.6-8.6-3.7-10.6c-0.1-2.5-1-5.5-1.7-7.9c-0.2-0.7-0.3-1,0.6-1c1,0,1.9,0.4,2.5,1.1c0.6,0.7,0.9,2.6,1.1,3.5
				c0.2,0.6-0.2,2.9,0.9,3c0.3-1.6,0.3-3.4,0.5-5c0.3-2.9,0.6-5.7,0.9-8.5c1.4-11.6,4.4-6.9,4.4-6.9s1.1-2.2,2.1-1.7
				c1.5,0.6,1.1,3.7,1.1,3.7s1.9-2.5,2.6-0.1c0.3,1.2-0.2,4.4-0.2,4.4s1.4-3.1,2.6,0.1c0.7,1.9,1.1,22.4,1.1,23.2
				C470.5,417.4,470.5,425.4,464.6,424.3z"/>
			<path class="st19" d="M458.9,400.9c0.1-5.1,0.5-9.1,1.6-13.9c0.2-0.8,1.3-1.1,1.1-0.4c-1.1,4.7-1.7,9.6-1.8,14.6
				C459.9,401.9,458.9,401.7,458.9,400.9z"/>
			<path class="st19" d="M462,402.8c0.1-5.1,0.5-9.1,1.6-13.9c0.2-0.8,1.3-1.1,1.1-0.4c-1.1,4.7-1.7,9.6-1.8,14.6
				C462.9,403.9,461.9,403.6,462,402.8z"/>
			<path class="st19" d="M465.8,403.9c-0.1-4.2,0.2-7.4,1.2-11.4c0.1-0.6,1.1-1.5,1-0.9c-0.9,3.9-1.2,8.3-1.1,12.4
				C466.8,404.7,465.8,404.6,465.8,403.9z"/>
		</g>
		<g>
			<path class="st23" d="M484.7,422.4c1.9-0.9,2.7-1.6,4.2-3.2c0.6-0.7,1.5-1,1.8-1.9c0.2-0.6,0.2-1,0.3-1.6c0.1-0.7,1.4-9.2,1-11.2
				c-0.5-2.4-0.4-5.6-0.2-8.1c0-0.7,0.1-1-0.8-0.8c-0.9,0.2-1.8,0.9-2.2,1.7c-0.4,0.8-0.4,2.6-0.4,3.5c0,0.6,1.1,3,0.1,3.3
				c-0.7-1.5-1.1-3.2-1.7-4.8c-1-2.7-1.9-5.4-3-8.1c-4.2-10.9-6-5.6-6-5.6s-1.7-1.6-2.6-0.9c-1.3,1-0.1,3.6-0.1,3.6
				s-2.5-1.4-2.6,1.1c0,1.3,0.9,3.8,0.9,3.8s-1.7-2.8-2.1,0.6c-0.2,2,4.1,22,4.4,23.6C476.1,418.4,479.2,424.8,484.7,422.4z"/>
			<path class="st9" d="M484.5,422.6c1.9-0.9,4-1.7,5.4-3.3c0.6-0.7,1.1-1.6,1.4-2.5c0.2-0.6,0.2-1,0.3-1.6c0.1-0.7,1.4-9.2,1-11.2
				c-0.5-2.4-0.4-5.6-0.2-8.1c0-0.7,0.1-1-0.8-0.8c-0.9,0.2-1.8,0.9-2.2,1.7c-0.4,0.8-0.4,2.6-0.4,3.5c0,0.6,1.1,3,0.1,3.3
				c-0.7-1.5-1.1-3.2-1.7-4.8c-1-2.7-1.9-5.4-3-8.1c-4.2-10.9-6-5.6-6-5.6s-1.6-1.9-2.5-1.2c-1.3,1-0.2,3.9-0.2,3.9s-2.5-2-2.5,0.5
				c0,1.3,1.2,4.2,1.2,4.2s-2.1-2.6-2.5,0.7c-0.2,2,4.4,22,4.6,22.8C476.9,417.3,479,425,484.5,422.6z"/>
			<path class="st19" d="M484.2,398.4c-1.3-4.9-2.7-8.7-5-13.1c-0.4-0.7-1.6-0.8-1.2-0.1c2.2,4.3,4,8.9,5.2,13.7
				C483.5,399.7,484.4,399.2,484.2,398.4z"/>
			<path class="st19" d="M481.7,401.1c-1.3-4.9-2.7-8.7-5-13.1c-0.4-0.7-1.6-0.8-1.2-0.1c2.2,4.3,4,8.9,5.2,13.7
				C481,402.3,481.9,401.8,481.7,401.1z"/>
			<path class="st19" d="M478.7,403.1c-0.9-4.1-2-7.2-3.9-10.8c-0.3-0.6-1.5-0.7-1.2-0.1c1.9,3.6,3.2,7.4,4.1,11.3
				C477.9,404.1,478.9,403.8,478.7,403.1z"/>
		</g>
	</g>
</g>
<path class="st5" d="M452.3,389.3c0,0-8.5,1.6-6.9,4.6C446.8,396.6,452.3,389.3,452.3,389.3z"/>
<path class="st5" d="M448.6,397.8c0,0-5.1,7-1.9,8.1C449.5,406.8,448.6,397.8,448.6,397.8z"/>
<path class="st5" d="M497.7,393.8c0,0,8.4,2.1,6.6,5C502.8,401.4,497.7,393.8,497.7,393.8z"/>
<path class="st5" d="M500.2,402.6c0,0,4.7,7.3,1.4,8.2C498.7,411.6,500.2,402.6,500.2,402.6z"/>
<path class="st1" d="M642.9,374.5c-1.7-5.9-7.1-9.8-12.9-9.7c-1.2-1.1-3-1.5-4.7-0.9c-0.3,0.1-0.5,0.2-0.8,0.4
	c-2.6-2.2-6.2-2.9-9.7-1.7c-1.8,0.6-3.3,1.8-4.4,3.2c-5.2-3-12.1-2-16.2,2.8c-3,3.5-3.8,8-2.5,12c-0.2,0.2-0.4,0.4-0.6,0.6
	c-2.7,3.2-2.3,7.9,0.8,10.6c1.3,1.1,3,1.7,4.6,1.8c0.5,0.7,1.1,1.4,1.8,2c2.5,2.1,5.7,2.8,8.7,2.1c0.4,0.6,0.8,1.1,1.4,1.6
	c3.1,2.6,7.8,2.3,10.4-0.8c0.4-0.5,0.8-1,1.1-1.6c5,2.1,10.9,0.9,14.6-3.4c1-1.1,1.7-2.4,2.2-3.8
	C641.9,386.7,644.6,380.5,642.9,374.5z"/>
<path class="st1" d="M553.5,361.8c-0.7-2.6-3.1-4.3-5.7-4.3c-0.5-0.5-1.3-0.6-2.1-0.4c-0.1,0-0.2,0.1-0.4,0.2
	c-1.2-1-2.8-1.3-4.3-0.8c-0.8,0.3-1.5,0.8-2,1.4c-2.3-1.3-5.3-0.9-7.2,1.2c-1.3,1.5-1.7,3.5-1.1,5.3c-0.1,0.1-0.2,0.2-0.2,0.3
	c-1.2,1.4-1,3.5,0.4,4.7c0.6,0.5,1.3,0.8,2,0.8c0.2,0.3,0.5,0.6,0.8,0.9c1.1,0.9,2.5,1.2,3.8,0.9c0.2,0.2,0.4,0.5,0.6,0.7
	c1.4,1.2,3.4,1,4.6-0.4c0.2-0.2,0.3-0.5,0.5-0.7c2.2,1,4.8,0.4,6.5-1.5c0.4-0.5,0.8-1.1,1-1.7C553.1,367.2,554.3,364.4,553.5,361.8z
	"/>
<path class="st1" d="M565.1,398.3c-0.7-2.6-3.1-4.3-5.7-4.3c-0.5-0.5-1.3-0.6-2.1-0.4c-0.1,0-0.2,0.1-0.4,0.2
	c-1.2-1-2.8-1.3-4.3-0.8c-0.8,0.3-1.5,0.8-2,1.4c-2.3-1.3-5.3-0.9-7.2,1.2c-1.3,1.5-1.7,3.5-1.1,5.3c-0.1,0.1-0.2,0.2-0.2,0.3
	c-1.2,1.4-1,3.5,0.4,4.7c0.6,0.5,1.3,0.8,2,0.8c0.2,0.3,0.5,0.6,0.8,0.9c1.1,0.9,2.5,1.2,3.8,0.9c0.2,0.2,0.4,0.5,0.6,0.7
	c1.4,1.2,3.4,1,4.6-0.4c0.2-0.2,0.3-0.5,0.5-0.7c2.2,1,4.8,0.4,6.5-1.5c0.4-0.5,0.8-1.1,1-1.7C564.6,403.7,565.8,400.9,565.1,398.3z
	"/>
<g>
	<g>
		<path class="st24" d="M314.5,141.8c-22.4-0.1-67.5-0.4-67.6-0.4c0,0.1,4.6,178.4,5.6,210.3c0.4,0,0.6,0,0.8,0c0,0,0,0,0,0
			c22.7,0.2,45.3,0.3,68,0.4c0,0,0,0,0,0c0.3,0,2.3,0.3,2.3-0.1c-1.4-32.2-4.9-177.8-6-210C317.5,141.7,314.5,142.1,314.5,141.8z"/>
		<path class="st25" d="M313.6,249.8c-2.3,0.3-4.1,1.2-5.8,2.7c-1,0.9-1.9,2.1-3.1,2.8c-2.4,1.4-5,0.8-7.7,0.4
			c-3.2-0.4-7.8-0.5-9.1,2.9c-1.1,2.7,1,4.7,3.8,4.5c2.4-0.1,4.5-1.4,6.6-2.2c2.2-0.8,4.1-1.1,6.6-0.4c1.3,0.4,2.5,1.1,3.9,1.3
			c2.7,0.5,5.3-0.1,7.8-0.6c1.5-0.3,2.9-0.5,4.4-0.7c-0.1-3.4-0.2-6.8-0.3-10.2C318.2,249.8,315.9,249.6,313.6,249.8z M283.8,245
			c-4.2-2.3-9.9-2.6-14.3-1.7c-3.9,0.7-7.4,3.2-11.6,2.2c-2.5-0.6-4.8-1.8-7.3-2.2c-0.3-0.1-0.6-0.1-0.9-0.1c0.1,3.7,0.2,7.4,0.3,11
			c1.2,0.2,2.3,0.4,3.3,0.5c2.7,0.5,5.4,1.1,8.1,0.7c2.5-0.4,4.5-1.8,6.6-2.9c3.3-1.6,7-2.5,10.8-2.6c1.9-0.1,5,1,6.7,0.1
			C288,248.6,285.8,246,283.8,245z M309.4,189.2c-5.2,0.2-9.5-2.4-14.4-3.7c-3.9-1-7.3-0.4-10.8,1.2c-4.6,2.2-9.7,6.6-15.5,4.5
			c-2.5-0.9-3.6-2.9-5.7-4.4c-1.6-1.1-3.3-1.6-5.1-1.8c-3.4-0.4-6.7,0-9.8,1.1c0.3,12.8,0.7,27.4,1.1,42.6
			c10.7-3.1,19.3-17,31.6-10.2c4.8,2.7,8,4.3,13.3,3.1c2.9-0.6,5.6-1.8,8.5-2.4c4.1-0.9,7.5-0.1,11.5,1.4c1.9,0.8,3.8,1.5,5.7,1.9
			c-0.3-12.3-0.6-24.2-0.9-35C315.8,188.3,312.7,189.1,309.4,189.2z"/>
		<path class="st20" d="M310.4,127.1c-2.8-5.1-5.2-10.3-7.4-15.6c-4.2-10-7.8-20.3-13.4-29.8c-1.5-2.6-4.2-7.7-8-6.8
			c-1.8,0.4-2.9,2.2-4,3.5c-1.5,1.9-3,3.9-4.4,5.9c-5.5,8-9.9,16.8-13.8,25.8c-4.5,10.3-8.4,20.8-12.8,31.1
			c-0.2,0.5,0.6,0.9,0.8,0.4c7.3-16.8,13-34.4,22.3-50.2c2.3-4,4.9-7.8,7.7-11.4c1.5-1.9,3.6-5.7,6.7-3.9c2.2,1.2,3.5,3.9,4.7,6
			c5.3,9.1,8.9,19,12.9,28.6c2.1,5.1,4.4,10.2,7,15.1c2.9,5.4,5.9,10.7,7.4,16.6c0.1,0.5,0.9,0.3,0.8-0.2
			C315.7,136.9,313,132,310.4,127.1z"/>
	</g>
	<path class="st26" d="M323.5,351.4c0,0.2-0.1,0.5-0.2,0.8c-0.5,0.1-1.9,0-2.1,0c0,0,0,0,0,0c-22.7-0.1-45.3-0.2-68-0.4c0,0,0,0,0,0
		c-0.2,0-0.3,0-0.8,0c-0.1-3.8-0.3-9.7-0.5-17.2c4.2-15.7,18.5-27.2,35.5-27.2c16.9,0,31.1,11.4,35.4,26.9
		C323.2,341.4,323.4,347.2,323.5,351.4z"/>
</g>
<g>
	<path class="st27" d="M810.6,170.9c-0.6-4.1-1.4-8.1,0.3-12.3c0.9-2.2,1.2-4.4,0.9-6.8c-1-6.3-5.4-11.5-6.6-17.8
		c-1.2-6.7,0-13.5-0.5-20.2c-0.5-7-3.7-12-6.3-18.3c-2.8-6.7-10.5-12.5-10.5-12.5s1.1-14.1-3.3-19.2c-4.7-5.4-9.7-12.5-15.8-16.3
		c-5.8-3.5-12.4-5.8-19.2-6.8c-4.8-0.7-9.6,0.1-14.4,0.3c-4.5,0.2-8.9-0.6-13.4-0.6c-9.5-0.1-16.3,3.7-24.7,8.2
		c-4.7,2.5-14.6,21.7-14.7,21.7c-0.1,0.2-2.5,0.3-2.8,0.4c-2.3,0.5-4.5,1.6-6.5,3c-4.5,3.3-6.6,6.9-8.8,12s-4.5,9.5-7.9,13.9
		c-1.9,2.5-3.8,5.3-4.2,8.5c-0.4,2.8,0.5,5.6,0.5,8.4c0,4.3-1.4,7.9-3.9,11.5c-3.2,4.4-7.1,8.4-9.9,13c-2.6,4.3-2.4,8.9-2.7,13.7
		c-0.2,5.1-3.9,6.2-7.1,9.7c-1.1,1.3-4.2,5.4-1.7,6.7c0.9,0.5,2.8-0.2,3.8-0.1c1.2,0.1,2.4,0.2,3.6,0.3c1.9,0.2,4.7,2.4,6.1-0.1
		c1.8-3.2,4-6.2,6.5-9c-0.8,1.7-4.6,9.2-3.4,10.9c1.1,1.5,9.3,1.1,11.4,1.3c8.5,1.1,16.8,3.2,25.1,5.1c5.3,1.2,10.6,2.4,15.9,3.6
		c5.2,2,10.6,3.6,16.3,3.5c3.7,0,7.2-0.7,10.9-0.2c3,0.4,5.8,1.2,8.9,1c4.1-0.3,7.8-0.6,11.9,0.2c3.8,0.7,7.5,1.9,11.4,2.7
		c4.7,0.9,9.4,1.2,14.1,1.4c2.5,0.1,9.6,1.9,11.5,0c0.8-0.8,1.2-2,1.5-3.1c0.7-2.5,1.5-5,2.2-7.4c0,3.7-0.1,7.4-0.1,11
		c0,0.3,0,0.7,0.2,0.9c0.3,0.5,1,0.6,1.6,0.6c7.3,0.1,14.5-0.1,21.8-0.6c0.4,0,0.7-0.4,0.7-0.7c1-5.4,2.1-10.9,2-16.4
		C811.1,174.3,810.9,172.6,810.6,170.9z"/>
	<path class="st27" d="M755.5,24c-4.9-3.4-11.8-6.1-17.2-4.8c-4.4,1.1-12.4,5.1-14.4,9.7c-2,4.5,0.6,9.1,1.1,14.3
		c-0.8,2.1-1,4.3,0.2,6.4c2.2,4,8.4,4.5,12.5,4.2c11.5-0.8,19.6-4,22.5-14.6C761.5,34.8,759.7,26.8,755.5,24z"/>
	<path class="st28" d="M709,174.2c16.5,15.2,27,9.1,35.2,3.1c9.5-6.9,16.3-9.6,21.4-20.2c5.3-11.1,7.6-23.3,9.5-35.3
		c2.2-13.8,3.3-27.7,3.4-41.7c0-0.4-0.3-0.7-0.6-0.8c-15.6-20.1-52.4-30.3-73.3-17.4c-20,12.3-19.2,55.7-17.6,78.7
		C688.1,155.4,705.2,170.7,709,174.2z"/>
	<path class="st5" d="M744.5,149.1l-30.6-4.6c0,0-0.5,14.3,13.9,16.3C741.8,162.6,744.5,149.1,744.5,149.1z"/>
	<g>
		<path class="st29" d="M727.8,136.4c-0.5-0.1-0.8-0.5-0.7-0.9c0-0.5,0.5-0.8,0.9-0.7c0.1,0,5.7,0.5,6.6-2.5c1-3.6,0-11.3,0-11.4
			c-0.1-0.5,0.3-0.9,0.7-0.9c0.5-0.1,0.9,0.3,0.9,0.7c0,0.3,0.6,8.3-0.6,12.2C734.4,137.2,728.1,136.5,727.8,136.4
			C727.8,136.4,727.8,136.4,727.8,136.4z"/>
	</g>
	<path class="st27" d="M724,105.9c-0.2-0.5-0.5-1.1-1.1-1.6c-3.5-3-8.8-4.9-13.3-5.9c-2.7-0.6-5.5-1.2-7.7,0.8
		c-0.5,0.5-0.3,1.2,0.2,1.6c3.5,2.5,7.6,3.9,11.5,5.6c2.3,1,5.7,3.3,8.3,2.6C723.7,108.5,724.4,107.2,724,105.9z"/>
	<path class="st27" d="M741.8,112.9c2.5,0.9,6-1.1,8.3-1.9c3.9-1.3,8.1-2.4,11.7-4.5c0.5-0.3,0.8-1,0.3-1.5c-2-2.2-4.8-1.8-7.5-1.4
		c-4.5,0.6-9.7,2.1-13.5,4.7c-0.6,0.4-1,0.9-1.2,1.4C739.5,110.9,740.1,112.3,741.8,112.9z"/>
	<path class="st27" d="M783.2,81.6c-2.3-10.5-11.4-17.5-21-21.1c-11.7-4.4-25.4-6.9-37.9-7c-10.7-0.1-20.9,3.3-26.7,12.7
		c-3.8,6.1-6.4,12.9-8.6,19.7c-2.3,7.1-4.8,14.6-5.7,21.9c0,0.1,0,0.1,0,0.1c-0.6,0.4-1.2,0.9-1.8,1.3c-0.9,0.6,0.1,1.9,1,1.3
		c3.2-1.9,5.8-4.7,7.4-8.1c2.2-5,1.8-10.7,3.5-15.9c0.9-2.7,2.4-5.4,4.7-7.3c2.7-2.2,5.1-1.9,8.2-2.7c1.1-0.3,1.6-0.6,2.5-1.3
		c1.4-1.2,1.9-2.6,3.8-3.4c2.6-1.1,5.1-0.1,7.6,0.7c1.8,0.6,4.4-0.3,6.1-0.6c3.2-0.5,6.4-1.8,9.7-1.6c3.5,0.2,6.5,2.4,9.9,2.8
		c2.4,0.2,3.9,0.8,5.9,2.2c0.8,0.6,1.3,1.1,2.3,1.6c2.1,0.9,4.5,0.9,6.8,1.2c0.3,0,0.7,0.1,0.9,0.2c1.6,0.9,2.5,3.7,4.3,4.9
		c1.7,1.1,3.1,1.3,4.3,3.2c0.7,1,1.1,2.3,1.5,3.5c0.9,2.8,1.8,5.7,2.3,8.6c1.4,6.9-4,18,4.2,22.3c0.4,0.2,1,0,1.1-0.4
		C782.8,108.3,785.8,93.8,783.2,81.6z"/>
	<path class="st28" d="M782.7,123c0.2-4-3.8-8.7-7-6.7c-0.2,0-0.4,0.1-0.5,0.3c0,0,0,0.1,0,0.1c-0.4,0.4-0.8,0.9-1.2,1.6
		c-0.2,0.3-0.1,0.6,0,0.8c-1.3,3.2-1.8,6.8-2.9,10.1c-1.5,4.5-3.2,8.8-3.3,13.6c0,0.7,0.7,1.2,1.3,0.8
		C776,139.3,782.2,131.5,782.7,123z"/>
	<path class="st28" d="M687.4,131c0.5,0.6,1.3,0.3,1.5-0.4c1.2-4.7,0.8-9.2,0.6-14c-0.1-3.5,0.4-7,0-10.5c0.2-0.2,0.3-0.4,0.2-0.7
		c-0.2-0.8-0.4-1.4-0.7-1.9c0,0,0-0.1,0-0.1c-0.1-0.3-0.2-0.4-0.4-0.5c-2.5-2.8-7.7,0.5-8.6,4.4C678.1,115.6,681.9,124.9,687.4,131z
		"/>
	<g>
		<path class="st30" d="M726.6,41.2c-0.4,0-0.7-0.3-0.7-0.7c0-0.5,0.3-0.9,0.7-0.9c0.1,0,8.9-0.9,15.8-0.7
			c6.9,0.2,14.2,2.5,14.5,2.6c0.4,0.1,0.7,0.6,0.5,1c-0.1,0.4-0.6,0.7-1,0.5c-0.1,0-7.4-2.4-14-2.5c-6.7-0.2-15.5,0.7-15.5,0.7
			C726.7,41.2,726.7,41.2,726.6,41.2z"/>
	</g>
	<g>
		<path class="st30" d="M687.4,95.9c-0.2,0-0.5-0.2-0.6-0.4c-0.1-0.2-3.3-5.5-4.4-12.4c-1-6.8-0.5-11.4-0.5-11.6
			c0-0.5,0.5-0.8,0.9-0.7l0,0c0.5,0.1,0.8,0.5,0.7,0.9c0,0.1-0.5,4.6,0.5,11.2c1,6.5,4.1,11.7,4.2,11.7c0.2,0.4,0.1,0.9-0.3,1.1
			C687.8,95.8,687.6,95.9,687.4,95.9z"/>
	</g>
	<g>
		<path class="st30" d="M690.1,82.9c-0.2,0-0.4-0.1-0.6-0.3c-0.1-0.1-1.8-2.5-2.9-4.8c-1-2.2-2.1-8.8-2-9.6c0.1-0.4,0.5-0.7,0.9-0.7
			c0.4,0.1,0.8,0.5,0.7,0.9c0,0.8,0.9,6.6,1.9,8.7c1,2.2,2.7,4.4,2.7,4.5c0.3,0.4,0.2,0.9-0.2,1.2C690.5,82.9,690.3,82.9,690.1,82.9
			z"/>
	</g>
	<g>
		<path class="st30" d="M722.6,69c-0.3,0-0.6-0.2-0.7-0.5c-0.1-0.3-2.8-7.4-0.5-15.3c2.3-7.7,4.1-10.7,4.2-10.9
			c0.2-0.4,0.8-0.5,1.1-0.3s0.5,0.7,0.3,1.1c0,0-1.8,3-4,10.5c-2.2,7.3,0.4,14.1,0.4,14.2c0.2,0.4,0,0.9-0.5,1.1
			C722.9,69,722.8,69,722.6,69z"/>
	</g>
	<g>
		<path class="st30" d="M728.1,55.9c0,0-0.1,0-0.1,0c-0.4-0.1-0.7-0.6-0.6-1l3.1-11.6c0.1-0.4,0.6-0.7,1-0.6c0.4,0.1,0.7,0.6,0.6,1
			L729,55.3C728.9,55.7,728.5,55.9,728.1,55.9z"/>
	</g>
	<g>
		<path class="st30" d="M762.1,76.4C762.1,76.4,762,76.4,762.1,76.4c-0.5-0.1-0.8-0.6-0.7-1c0-0.1,1.3-5.9,0.6-13.5
			c-0.7-7.5-5.4-13.5-5.5-13.6c-0.3-0.4-0.2-0.9,0.1-1.2c0.4-0.3,0.9-0.2,1.2,0.1c0.2,0.3,5.1,6.4,5.8,14.5c0.8,7.9-0.6,13.8-0.6,14
			C762.9,76.2,762.5,76.4,762.1,76.4z"/>
	</g>
	<g>
		<path class="st30" d="M775.2,107.9c-0.2,0-0.4-0.1-0.5-0.3c-0.3-0.3-0.2-0.9,0.1-1.2c0,0,4.1-3.5,6.8-9.6
			c2.7-6.2,4.4-12.5,4.4-12.5c0.1-0.4,0.6-0.7,1-0.6c0.4,0.1,0.7,0.6,0.6,1c0,0.1-1.7,6.4-4.5,12.8c-2.8,6.5-7,10-7.2,10.2
			C775.6,107.8,775.4,107.9,775.2,107.9z"/>
	</g>
	<g>
		<path class="st30" d="M774.3,89.5c-0.1,0-0.2-0.1-0.3-0.1c-0.4-0.2-0.5-0.8-0.3-1.2c0-0.1,3.7-5.9,5-11.5c1.3-5.7,2-14,2-14.1
			c0-0.5,0.4-0.8,0.9-0.8c0.4,0.1,0.8,0.4,0.8,0.9c0,0.3-0.7,8.5-2,14.3c-1.4,5.9-5.1,11.8-5.2,12C774.9,89.4,774.6,89.5,774.3,89.5
			z"/>
	</g>
	<g>
		<path class="st30" d="M776.5,74C776.5,74,776.5,74,776.5,74c-0.5-0.1-0.8-0.6-0.7-1c0,0,0.8-3.6,0.6-9.2c-0.2-5.7-0.6-7.7-0.6-7.7
			c-0.1-0.5,0.2-0.9,0.7-1c0.5-0.1,0.9,0.2,1,0.7c0,0.1,0.4,2.1,0.6,7.9c0.2,5.8-0.6,9.5-0.6,9.7C777.3,73.8,776.9,74.1,776.5,74z"
			/>
	</g>
	<g>
		<path class="st30" d="M649,159.6c-0.4-0.1-0.8-0.4-0.7-0.9s0.7-10.9,3.1-15.4c0.9-1.8,2-3.2,3-4.8c1.6-2.3,3.4-4.8,5.5-9.4
			c3.3-7.4,5.8-21.4,5.8-21.6c0.1-0.4,0.5-0.8,1-0.7c0.5,0.1,0.8,0.5,0.7,1c-0.1,0.6-2.5,14.3-5.9,21.9c-2.1,4.7-4,7.3-5.6,9.6
			c-1,1.5-2,2.9-2.9,4.6c-2.2,4.3-2.9,14.7-2.9,14.8C649.9,159.2,649.5,159.6,649,159.6C649.1,159.6,649,159.6,649,159.6z"/>
	</g>
	<g>
		<path class="st30" d="M657.4,171.4c-0.1,0-0.2,0-0.2-0.1c-0.4-0.2-0.6-0.7-0.4-1.1c0-0.1,2.1-4.6,2.3-8.8l0.1-2.5
			c0.2-4.3,0.4-9.7,1-12.7c0.7-3.6,3.5-10,3.6-10.3c0.2-0.4,0.7-0.6,1.1-0.4c0.4,0.2,0.6,0.7,0.4,1.1c0,0.1-2.8,6.6-3.5,10
			c-0.6,2.9-0.8,8.2-1,12.4l-0.1,2.5c-0.2,4.5-2.3,9.2-2.4,9.4C658.1,171.2,657.8,171.4,657.4,171.4z"/>
	</g>
	<g>
		<path class="st30" d="M802,186.9C802,186.9,802,186.9,802,186.9c-0.5-0.1-0.8-0.5-0.7-0.9c0.5-3.7,0.8-11.3-1.7-16.6
			c-1.4-3.1-1.2-7.2-1.1-11.1c0.1-3.1,0.3-6.2-0.4-8.8c-1.4-5.8-8.3-23.5-8.3-23.7c-0.2-0.4,0-0.9,0.5-1.1c0.4-0.2,0.9,0.1,1.1,0.5
			c0.3,0.7,6.9,17.9,8.4,23.9c0.7,2.8,0.5,6.1,0.4,9.2c-0.2,3.8-0.3,7.6,0.9,10.4c2.6,5.7,2.4,13.7,1.8,17.6
			C802.8,186.6,802.4,186.9,802,186.9z"/>
	</g>
	<g>
		<path class="st30" d="M777.7,189.5C777.6,189.5,777.6,189.5,777.7,189.5c-0.5-0.1-0.8-0.6-0.7-1c0-0.1,2.3-10.1,3.4-23.6
			c1.1-13.5-0.2-24.5-0.2-24.6c-0.1-0.5,0.3-0.9,0.7-0.9c0.5-0.1,0.9,0.3,0.9,0.7c0,0.1,1.3,11.4,0.2,25
			c-1.1,13.6-3.4,23.7-3.4,23.8C778.5,189.3,778.1,189.5,777.7,189.5z"/>
	</g>
	<g>
		<path class="st30" d="M769,188.2c0,0-0.1,0-0.1,0c-0.4-0.1-0.7-0.6-0.6-1c0-0.1,0.5-2.1,2-14.1c1.5-12.1,1.1-16.2,1.1-16.2
			c0-0.4,0.3-0.9,0.7-0.9c0.5,0,0.9,0.3,0.9,0.7c0,0.2,0.5,4.3-1.1,16.6c-1.5,12.3-2,14.2-2,14.3C769.8,188,769.4,188.3,769,188.2z"
			/>
	</g>
	<g>
		<path class="st30" d="M701.2,65.9c-0.2,0-0.5-0.2-0.6-0.4c-0.1-0.1-1.8-3-2.4-7.1c-0.6-4.1,0.5-9.9,0.6-10.2
			c0.1-0.5,0.5-0.8,1-0.7c0.5,0.1,0.7,0.5,0.7,1c0,0.1-1.1,5.8-0.6,9.6c0.6,3.8,2.2,6.5,2.2,6.5c0.2,0.4,0.1,0.9-0.3,1.1
			C701.6,65.9,701.4,65.9,701.2,65.9z"/>
	</g>
	<g>
		<g>
			<path class="st31" d="M748.6,122.3c0.9-1.9,2.1-3.5,4.2-4.2c2.5-0.8,4.3,1,5.5,2.9c0.7,1.1,2.5,0.1,1.8-1
				c-1.4-2.1-3.7-4.5-6.5-4.2c-3.2,0.4-5.4,2.7-6.7,5.5C746.3,122.4,748.1,123.5,748.6,122.3L748.6,122.3z"/>
		</g>
	</g>
	<g>
		<g>
			<path class="st31" d="M715.5,117.2c-0.6-3-2.2-5.7-5.2-6.9c-2.6-1-5.5,0.7-7.3,2.5c-1,0.9,0.5,2.3,1.5,1.4
				c1.7-1.6,3.9-2.8,6.1-1.5c1.9,1.1,2.6,3,3,5.1C713.8,119,715.7,118.5,715.5,117.2L715.5,117.2z"/>
		</g>
	</g>
	<g>
		<g>
			<path class="st31" d="M700.5,111.9c-1.1-0.7-2.1-1.6-2.9-2.6c-0.3-0.3-0.8,0.2-0.5,0.5c0.9,1.1,1.9,2,3.1,2.7
				C700.5,112.7,700.8,112.1,700.5,111.9L700.5,111.9z"/>
		</g>
	</g>
	<g>
		<g>
			<path class="st31" d="M697.5,111.6c-0.8-0.5-1.6-0.9-2.3-1.5c-0.3-0.3-0.8,0.2-0.5,0.5c0.7,0.7,1.6,1.1,2.4,1.6
				C697.6,112.4,697.9,111.8,697.5,111.6L697.5,111.6z"/>
		</g>
	</g>
	<g>
		<g>
			<path class="st31" d="M765.1,118.3c0.7-0.6,1.7-0.9,2.4-1.5c0.3-0.3,0-0.8-0.3-0.6c-0.8,0.6-1.8,0.9-2.5,1.6
				C764.2,118.1,764.7,118.6,765.1,118.3L765.1,118.3z"/>
		</g>
	</g>
	<g>
		<g>
			<path class="st31" d="M764.8,120.2c0.8-0.4,1.7-0.6,2.5-0.9c0.4-0.2,0-0.8-0.3-0.6c-0.8,0.4-1.7,0.5-2.5,0.9
				C764,119.8,764.4,120.4,764.8,120.2L764.8,120.2z"/>
		</g>
	</g>
</g>
<g>
	<path class="st32" d="M612.5,107.4c-8.2-15.1-17.9-29.4-28.5-43c-2.1-2.7-6.2,0.8-4.1,3.5c0.5,0.6,0.9,1.2,1.4,1.8
		c-27.5,10.9-41.2,35.9-46.4,62.7c-3.1,16.2-2.8,58.7,24.4,53.7c13.3-2.4,26.8-11.1,37.9-18.2c9.7-6.3,22.8-14.1,25.8-25.9
		C626,130,618,117.5,612.5,107.4z"/>
	<path class="st33" d="M505.4,35.2c-72.8,15.5-51.8,64-51,66.7c8,29.5,12.4,56.9,28.9,74.9c10.2,11.1,32.5,29.1,54.4,25.1
		c18-3.3,26.4-16.7,34.4-30.1c15.4-25.8,18.5-42.3,10.3-97.8C577.1,38.1,583.8,18.4,505.4,35.2z"/>
	<path class="st33" d="M590.7,92.8c-10.6-4-12.9,15.4-13.9,21.7c-0.6,3.9,5.2,5.3,6,1.6c-0.3,1.2-0.5,2.3-0.8,3.5
		c-0.9,4-3.1,9.9,0.5,13.2c7,6.5,16-7.8,17.7-13.8C604,105.5,599.3,96.1,590.7,92.8z"/>
	<path class="st33" d="M454.5,117.8c8.3-7.8,17.8,9.4,21.1,14.8c2.1,3.4-2.8,6.9-5,3.8c0.7,1,1.4,2,2,2.9c2.3,3.4,6.6,7.9,4.6,12.4
		c-4.1,8.7-17.8-1.2-21.6-6C447,134.6,447.8,124,454.5,117.8z"/>
	<path class="st34" d="M559.8,82.9c-1.2-0.6-2.7-0.7-3.6-0.5c-7.4,1.5-14.5,5-20,10.6c-2.1,2.1-7.3,9.4-1,9.1
		c2.8-0.1,18.2-10.6,23.2-13.6C562.2,86.2,562.6,84.1,559.8,82.9z"/>
	<path class="st34" d="M471.6,104.8c5.8,0.6,24.1,3.7,26.7,2.7c5.9-2.4-2-6.9-4.7-8c-7.3-2.8-15.2-3-22.6-1.3
		c-0.9,0.2-2.2,0.9-3.1,2C465.9,102.4,467.1,104.3,471.6,104.8z"/>
	<path class="st34" d="M530.6,28.1c-12.9-5-27.7-2.7-39.2,4.6c-5.5,3.5-10.3,8-14.1,13.2c-6.6,9.1-14.2,14.3-23.4,20.3
		c-1.5-1-4.1-0.5-4.4,1.9c-1,8.7-0.7,10,0.9,19.4c0.9,5.2-4.3,14.5-3.6,19.8c0.4,2.7,0.7,4.9,2.2,7.2c2.1,3.3,6.7,7.3,10.4,4.1
		c4.8-4.3,1-11.9,0.2-18.4c1.8-0.9,3.3-2.2,4.6-4.2c1.1-1.8,1.2-6.2,2.2-7.8c4.4-7,7.6-4.5,13.6-6.3c3.7-1.1,4.4-2.8,6.6-5.7
		c1.9-4.8,5.4-7.8,10.4-9c1-0.3,2-0.6,3-0.8c2.7-1.3,4-1.7,6.4-3.5c0.9-0.7,1.1-1.5,0.9-2.3c9.2-3.3,18.3-1.6,27.2-5.2
		c3.6-1.5,8.3-4.3,10-8.1C548.6,37.8,537.8,30.8,530.6,28.1z"/>
	<path class="st34" d="M590.7,78.6c-0.8-2.7-2.7-4.5-3.5-7c-0.9-2.6-0.4-5.5-1.1-8.1c-3.3-11.2-16.3-12.1-25.9-11.6
		c-1.4,0.1-2.2,1-2.6,2c-2-0.8-4.1-1.5-6.2-1.8c-3.5-0.4-3.9,5-0.4,5.5c4.2,0.5,10.4,3.9,13.1,7.3c3.2,4,1,8.1,3.2,12
		c0.6,1,1.5,1.8,2.3,2.6c3.1,3,6.3,5.1,8.4,9.2c2.8,5.3,8.8,9.5,12.6,2C592.3,87.1,591.8,82.1,590.7,78.6z"/>
	<path class="st32" d="M563.9,10.1c-16.4-9.7-37.1-11.2-55.6-9.4c-18,1.8-39.5,7.9-51.4,22.5c-12.8,15.7-10.4,37.1-7.9,55.8
		c0.2,1.4,1,2.3,2.1,2.7c0.9,0.3,1.9,0.2,2.9-0.3c40.8-20.5,81.8-24.7,126.8-19.9c2.2,0.2,3.2-1.8,2.8-3.5c0-0.2,0.1-0.3,0.1-0.5
		C582.4,38.8,581.1,20.3,563.9,10.1z M483.9,59c-1.2-9.3-0.8-15,8.5-19.5c5.3-2.6,12-3.5,17.8-4.3c5-0.7,12.5-2,17.4-1.6
		c11.1,1.1,14.2,8.4,14.5,17.5C522.3,51.8,502.7,53.8,483.9,59z"/>
	<g>
		<g>
			<path class="st35" d="M512.4,105.1c0.1,6.3,0.1,12.7,0.4,19c0.3,4.8-0.2,10.8,2,15.3c3.5,7.2,13.8,1.7,17.4-2.8
				c1.5-1.9-1.2-4.6-2.7-2.7c-1.8,2.2-6.2,5.8-9.3,5.1c-3.9-0.8-3.2-8.8-3.3-11.6c-0.4-7.4-0.4-14.9-0.6-22.3
				C516.2,102.6,512.4,102.6,512.4,105.1L512.4,105.1z"/>
		</g>
	</g>
	<path class="st10" d="M551.1,152.9c-14.3,2-29.2,4.7-44.8,7.2c-1.4-0.1-2.2,1-1.2,3.2c3.8,8.6,19.2,14.8,29.4,12.5
		c7.8-1.7,18.2-11,18.7-20.5C553.3,154.1,552.3,152.8,551.1,152.9z"/>
	<path class="st5" d="M551.3,153c-0.1,0-0.2,0-0.3,0c-20.5,2.9-27.5,4.3-44.3,7.1c7.9,6.9,19.5,3.6,28.8,2
		C542.5,160.9,548.4,158.9,551.3,153z"/>
	<g>
		<g>
			<path class="st34" d="M544.3,114.4c0.4-3.1,1.6-5.8,4.4-7.6c2.6-1.6,5.8,0.2,7.9,1.9c1.4,1.1,3.5-0.9,2-2
				c-2.8-2.2-6.9-4.5-10.5-2.8c-4.3,2-6.1,6.1-6.7,10.5C541.2,116.2,544.1,116.2,544.3,114.4L544.3,114.4z"/>
		</g>
	</g>
	<g>
		<g>
			<path class="st34" d="M498,122.4c-2.2-3.8-5.2-6.6-9.8-7c-4-0.4-7.1,3.2-8.9,6.4c-0.9,1.6,1.6,3.1,2.5,1.4
				c1.4-2.5,3.6-5.3,6.7-4.9c3.3,0.5,5.4,2.7,7,5.5C496.4,125.5,498.9,124,498,122.4L498,122.4z"/>
		</g>
	</g>
	<g>
		<g>
			<path class="st34" d="M564.4,107c2.1-1.3,4.4-2.4,6.1-4.3c0.4-0.5-0.3-1.2-0.7-0.7c-1.6,1.9-3.8,2.9-5.9,4.2
				C563.4,106.5,563.9,107.3,564.4,107L564.4,107z"/>
		</g>
	</g>
	<g>
		<g>
			<path class="st34" d="M563.2,108.6c2,0.2,3.7-1.1,5.5-1.7c0.6-0.2,0.3-1.1-0.2-0.9c-1.7,0.6-3.3,1.9-5.2,1.7
				C562.5,107.5,562.6,108.5,563.2,108.6L563.2,108.6z"/>
		</g>
	</g>
	<g>
		<g>
			<path class="st34" d="M476.1,120.8c-2.7-0.4-5-2.7-7-4.3c-0.5-0.4-1.2,0.3-0.7,0.7c2.2,1.7,4.6,4.1,7.4,4.6
				C476.4,121.8,476.7,120.9,476.1,120.8L476.1,120.8z"/>
		</g>
	</g>
	<g>
		<g>
			<path class="st34" d="M474.1,122.3c-1-0.8-2.1-1.4-3.2-1.9c-0.6-0.3-1,0.6-0.5,0.8c1,0.5,2.1,1,3,1.8
				C473.9,123.4,474.6,122.7,474.1,122.3L474.1,122.3z"/>
		</g>
	</g>
</g>
<g>
	<path class="st27" d="M782.6,276.7c0.4-0.8,0.8-1.7,1.2-2.5c2.3-4.5,3.9-8.9,3.4-14c-0.4-3.9-4.5-8.7-8.6-8.9
		c-3-0.2-8.1,1.7-8.4,5.1c-0.3,3.4,2.2,6.4,3.7,9.2c0.8,1.6,1,2.6,0.3,4.2c-1,2.1-1.6,4.4-2.4,6.6c-0.8,2.5-5.3,7.2-4.5,10
		c1.1,3.6,4.3,3.8,6.8,1.4c2.1-2,3.9-4.1,5.7-6.3C780.9,280,781.7,278.4,782.6,276.7z"/>
	<path class="st26" d="M769.4,295.5c3.4-9.3,6.4-19.6,7-29.6c0.6-9.4-6.9-15.5-14.2-20.3c-8.9-5.9-13.3-20.3-24.1-19.4
		c-7.6,0.6-15.9-2.4-23.4,2.3c-2.4-1.4-16.5,14.4-17.4,18c-4.9,18.3-12.7,39.3-6,58.2c3,8.4,11.1,18.5,17,23.6
		c6.8,5.9,12,7.1,20.9,6.1c9.7-1.1,17.4-6.7,24.9-12.6C761.9,315.7,766,304.6,769.4,295.5z"/>
	<path class="st36" d="M716.5,269.8c-0.9,2.5-2.8,4.1-4.4,3.5s-2-3-1.2-5.5s2.8-4.1,4.4-3.5C716.9,264.9,717.4,267.4,716.5,269.8z"
		/>
	<path class="st36" d="M756.8,280.8c-0.7,2.4-2.5,3.9-3.9,3.5s-2-2.7-1.3-5.1s2.5-3.9,3.9-3.5C757,276.1,757.5,278.4,756.8,280.8z"
		/>
	<path class="st37" d="M761,262.9c-5.2-0.6-14.1,2.5-15.7,5.1c-0.1,0.2-0.7,0.7-0.3,2c0.5,2,3.9,1.3,5.7,1
		c3.7-0.6,14.1-1.9,15.3-3.6C768.8,263.9,762.7,263.1,761,262.9z"/>
	<path class="st37" d="M709.5,252.1c0.4,2.1,9.2,7.7,12.3,9.9c1.5,1,4.2,3.1,5.6,1.6c0.9-1,0.7-1.7,0.7-2
		c-0.8-3.2-6.3-8.7-11.2-10.4C715.1,250.7,708.6,247.8,709.5,252.1z"/>
	<path class="st10" d="M744,304.4c-10.4-2.5-21.4-4.8-32.8-7.3c-0.9-0.4-1.8,0.1-1.7,1.9c0.3,7,9.2,15.4,16.8,16.6
		c5.9,0.9,15.5-2.6,18.5-9C745.2,305.9,744.9,304.7,744,304.4z"/>
	<path class="st5" d="M744.1,304.6c-0.1,0-0.2-0.1-0.2-0.1c-14.9-3.6-20.1-4.5-32.5-7.2c3.6,6.9,12.4,7.8,19.3,9.2
		C735.9,307.6,740.5,307.8,744.1,304.6z"/>
	<path class="st29" d="M795.2,230.2c1.7-2.3,2-5.3,0.5-8.2c-2.8-5.6-10.6-6.7-16.2-7c-3-0.1-4.8,0.4-7.4-1.3c-2.1-1.3-2.8-3-4.4-4.7
		c-2.2-2.4-4.8-4.1-7.9-5.4c-7.3-2.9-16.6-3.3-24.3-2.2c-2.2,0.3-7.9,0.2-15.8,5.7c-3.3,2.3-4.6,2.7-8.7,3.9
		c-3.7,1.1-6.8,2.4-9.5,5.4c-2.3,2.5-3.4,8-5.6,11.1c-0.9,0.3-3.5,2.5-5.3,8.8c-4.2,14.3,0,31.3,0,31.3c0.8,4,2,0.7,2.3,0.3
		c0.9-1.5,4.4-13.2,7.4-21.3c2.7-7.3,5.4-10.9,11.4-12.4c9.3,0.6,12.6,7.7,21.4,9.3c5.1,0.9,10.2,0.9,15,3.2
		c5.7,2.7,7.6,6.2,11.7,11c5,6.6,12.8,10.6,21.1,8.7c5.1-1.2,10.4-4.6,12.4-9.4c2.8-1.3,5.2-3.4,6.9-6.4
		C804.2,243.6,802.9,233.1,795.2,230.2z"/>
	<path class="st26" d="M685.3,258.9c7.2-2.8,11.1,6.8,11.6,12.1c0.1,1.5-0.8,2.4-2,2.7c0,0.1,0,0.2,0,0.3c0.3,1.6,1,4.1,0.9,6.2
		c0.1,0.1,0.2,0.3,0.2,0.4c1.1,2.2,2.8,5.5,0.4,7.5c-5.3,4.6-12.9-5.8-14.2-9.8C680.6,273.4,678.9,261.4,685.3,258.9z"/>
	<g>
		<g>
			<path class="st38" d="M735.8,265.3c-1.3,4-0.2,8.9,0.2,13c0.2,2.1,0.9,5.1,0.3,7.2c-0.6,2.2-1.5,2.3-3.9,1.9
				c-1.4-0.2-2.8-0.8-4-1.5c-1.3-0.8-2.5,1.2-1.2,2c3.7,2.2,10.6,4,11.4-1.8c0.9-6.5-2.6-14-0.5-20.3
				C738.6,264.5,736.3,263.9,735.8,265.3L735.8,265.3z"/>
		</g>
	</g>
	<g>
		<g>
			<path class="st27" d="M780.3,225.5c-7.8,1.1-14.3-5.7-20.7-9.2c-5-2.8-10.1-4.6-15.7-2.7c-0.7,0.2-0.4,1.4,0.3,1.1
				c14.2-4.9,22.7,13.9,36.3,12C781.4,226.5,781,225.4,780.3,225.5L780.3,225.5z"/>
		</g>
	</g>
	<g>
		<g>
			<path class="st27" d="M745,217.2c2,0.1,4,0.1,5.8,1c0.7,0.3,1.3-0.7,0.6-1c-2-1-4.2-1.1-6.4-1.1C744.3,216,744.3,217.2,745,217.2
				L745,217.2z"/>
		</g>
	</g>
	<g>
		<g>
			<path class="st27" d="M775.1,254c-6.3-0.8-12.5-7.4-17.5-11c-5-3.6-10-7.1-15.2-10.3c-5-3-16.6-9.7-22-4.3
				c-0.5,0.5,0.3,1.4,0.8,0.8c4.1-4.1,13.7,0.8,17.6,2.8c4.5,2.4,8.7,5.3,12.9,8.2c4.3,3,8.5,6,12.7,9.1c3.4,2.5,6.4,5.2,10.7,5.7
				C775.8,255.3,775.8,254.1,775.1,254L775.1,254z"/>
		</g>
	</g>
	<g>
		<g>
			<path class="st27" d="M717.2,227.8c2.7-3.2,7.4-2.6,10.9-1.3c0.7,0.2,1-0.9,0.3-1.1c-3.9-1.4-9.1-1.9-12,1.6
				C715.9,227.5,716.7,228.4,717.2,227.8L717.2,227.8z"/>
		</g>
	</g>
	<g>
		<g>
			<path class="st27" d="M787.9,242.7c-2.4,1.7-6-0.4-8.5-1.2c-0.7-0.2-1,0.9-0.3,1.1c2.8,0.9,6.6,3,9.4,1.1
				C789.1,243.3,788.6,242.2,787.9,242.7L787.9,242.7z"/>
		</g>
	</g>
	<g>
		<g>
			<path class="st27" d="M701.5,230.4c-3.2,0.7-7.3,3.4-5.6,7.1c0.3,0.7,1.3,0.1,1-0.6c-1.3-2.9,2.6-4.9,4.9-5.4
				C702.6,231.4,702.2,230.2,701.5,230.4L701.5,230.4z"/>
		</g>
	</g>
	<g>
		<g>
			<path class="st27" d="M698.5,235.6c-1.2,2.4-1.2,4.8-1,7.4c0.1,0.7,1.2,0.8,1.2,0c-0.2-2.4-0.3-4.6,0.8-6.8
				C699.9,235.5,698.9,234.9,698.5,235.6L698.5,235.6z"/>
		</g>
	</g>
</g>
<g>
	<g>
		<path class="st32" d="M836.4,199c6.4-5.2,13.5-9.7,21.2-12.6c2.4-0.9,1.4-4.9-1.1-3.9c-8.4,3.2-16,8.1-23,13.7
			C831.5,197.8,834.4,200.6,836.4,199L836.4,199z"/>
	</g>
</g>
<g>
	<g>
		<path class="st32" d="M835.4,218.4c11.5-1.1,23.4-0.9,34.9,0c2.6,0.2,2.6-3.9,0-4.1c-11.5-0.9-23.4-1.1-34.9,0
			C832.8,214.5,832.8,218.6,835.4,218.4L835.4,218.4z"/>
	</g>
</g>
<g>
	<g>
		<path class="st32" d="M833.9,238.5c5.9,4.8,11.4,10.1,16.7,15.5c1.8,1.9,4.7-1,2.9-2.9c-5.3-5.4-10.8-10.7-16.7-15.5
			C834.8,234,831.9,236.9,833.9,238.5L833.9,238.5z"/>
	</g>
</g>
<g>
	<g>
		<path class="st32" d="M453.6,189.6c-6.8-4.1-12.2-10.2-19.1-14.2c-2.9-1.7-5.5,2.8-2.6,4.4c6.9,4,12.3,10,19.1,14.2
			C453.9,195.8,456.5,191.3,453.6,189.6L453.6,189.6z"/>
	</g>
</g>
<g>
	<g>
		<path class="st32" d="M452.1,210.9c-9,3.4-17.9,6.8-26.9,10.3c-3,1.2-1.7,6.2,1.4,5c8.9-3.5,17.9-6.8,26.9-10.3
			C456.6,214.6,455.2,209.7,452.1,210.9L452.1,210.9z"/>
	</g>
</g>
<g>
	<g>
		<path class="st32" d="M471.6,232.6c-5,7.6-9.9,15.4-14.2,23.4c-1.5,2.9,2.9,5.5,4.4,2.6c4.3-8.1,9.1-15.8,14.2-23.4
			C477.9,232.4,473.4,229.8,471.6,232.6L471.6,232.6z"/>
	</g>
</g>
<g>
	<path class="st39" d="M659.1,294.9c-0.7,2.4-2.1,4.6-4.2,6.1c-1,0.7-2.1,1.2-3.3,1.5c-0.2,0-0.4,0.1-0.5,0.1
		c-1.4,0.3-2.9,0.3-4.3,0.7c-0.3,0.1-0.6,0.2-0.9,0.3c-3,1.3-3.8,4.9-5.8,7.2c-1.8,2.1-4.5,3.4-7.2,4c-6.7,1.4-13.2-1.8-18-6
		c-0.1-0.1-0.1-0.2-0.1-0.3c-1.1-10.1-1.2-21.2-2.3-31.3c-0.5-4.5-1.2-9-2.2-13.5c-1-4.1-2.5-7.9-6.3-10.4
		c-3.4-2.3-7.5-3.6-11.2-5.3c-4.3-1.9-8.4-4-12.6-6.1c-4.1-2.2-8.2-4.4-12.3-6.6c-2.4-1.3-5.9-3.2-5.5-6.2c0.1-0.7,0.4-1.3,0.8-1.9
		c0.6-0.5,1.1-1.1,1.6-1.7c0,0,0,0,0.1-0.1c1.6-1.4,3.3-2.7,5-3.8c0.4-0.2,0.8-0.4,1.2-0.6c-0.6,0.4-1.3,0.9-1.9,1.4
		c3.7-1.5,7.6-2.9,11.6-4c1.9-0.5,3.8-1,5.7-1.4c9.5-2,19.4-2.2,28.5,1.5c6.1,2.5,11.1,6.6,14.1,12.2c3.2,5.9,4.1,12.5,4.3,19
		c0.2,7.3,0.4,15.5,8.7,18.8c2.9,1.2,5.7,2.3,8.2,4.2c2.4,1.8,4.4,4,6,6.5C659.4,283.8,660.8,289.6,659.1,294.9z"/>
	<path class="st40" d="M567.3,265.6c-1.7-3.6-4.2-6.7-6.9-9.6c-1.2-1.3-2.4-2.6-3.7-3.9c-2.1-2.2-4.1-4.3-5.8-6.7
		c0.2-0.1,0-0.4-0.3-0.3c0,0-0.1,0-0.1,0c-0.1,0-0.1,0.1-0.2,0.1c-0.1,0-0.2,0.1-0.3,0.2c-1.5,0.8-2.8,1.9-3.9,3.1
		c-2.6,2.9-4.2,6.8-4.8,10.7c-0.5,3.3-0.2,6.7,0.4,9.9c0.6,3.3,1.7,6.8,0.9,10.2c-0.7,3.4-3.7,5.6-5.6,8.4c-1.7,2.6-3,5.5-3.9,8.5
		c-1.6,5.6-1.6,12.2,1.5,17.4c1.6,2.7,4.3,4.9,7.4,5.8c1.5,0.5,3,0.5,4.6,0.4c1.8-0.1,3.7,0.4,5.3,1.2c0.8,0.4,1.5,1.1,2.4,1.3
		c1,0.3,2,0.5,3,0.5c0.5,0,1-0.1,1.5-0.2c1.2-0.3,2.2-0.9,3.1-1.8c0.7-0.7,1.3-1.5,1.8-2.4c0.2-0.4,0.5-0.9,0.6-1.4
		c1.5-3.7,1.8-8.1,1.6-12.1c-0.1-3.8-0.8-7.7-2.1-11.3c0.8-1,1.4-2,2-3c0.2-0.3,0.4-0.7,0.6-1c0-0.1,0.1-0.1,0.1-0.2
		c1.8-3.4,2.8-7.2,3-11C570,273.9,569.1,269.5,567.3,265.6z"/>
	<path class="st26" d="M614.7,267.5c-0.3-1.6-0.8-3.2-1.3-4.8c-0.3-0.9-0.7-1.8-1.1-2.7c-1.8-3.8-4.5-7.3-8-9.6
		c-0.1-0.1-0.2-0.1-0.3-0.2c-1.4-0.9-2.9-1.6-4.5-2c-1.8-2.2-2.4-10.1-4.9-11.2c-5.5-2.5-12.6,0.2-19.1,2.3c-2.7,0.9-5.3,1.7-7.7,2
		c-5.3,0.7-10.5,1.5-15.8,2c0.1-0.1,0.2-0.3,0.2-0.4c0.1-0.1-0.1-0.2-0.2-0.1c-0.2,0.2-0.3,0.4-0.5,0.6c-0.1,0-0.3,0-0.4,0
		c-0.3,0-0.3,0.5,0,0.6c-0.3,0.5-0.6,1-0.9,1.5c-0.8,1.6-1.3,3.3-1.6,5.1c-0.5,3.1-0.4,6.4-0.2,9.4c0.1,2.3,0.3,4.6,0.5,6.9
		c0.1,1.4,0.2,2.8,0.4,4.1c0.4,4.4,0.6,9.1,1.5,13.5c1,4.5,3.1,8.8,4.9,13c3,7.2,8.1,14.3,13.5,20c5.1,5.4,12.5,8.6,19.9,8.9
		c1.2,0,2.4,0,3.6-0.2c4.2-0.7,13.9-7.5,16.3-10.8c13.7-18.5,11.5-25.9,11.2-40.6C620,271.4,615.3,270.6,614.7,267.5z"/>
	<path class="st41" d="M617.5,267.7c-0.6-0.4-1.2-0.5-1.7-0.5c-0.4,0-0.8,0.1-1.1,0.3c-0.3,0.1-0.5,0.3-0.8,0.6c0,0,0,0,0,0
		c-0.9,0.9-1.5,2-2.1,3.1l0,0c-0.6,1-1.1,2.1-1.7,3c-1.3,2-2.9,3.7-5.1,4.8c-0.4,0.2-0.2,0.7,0.3,0.6c0.6-0.2,1.1-0.4,1.6-0.7
		c-0.3,4.3-0.3,8.7,0.2,13c0,0.1,0,0.2,0.1,0.2c0.1,0.2,0.4,0.3,0.7,0.2c0.9-0.3,1.8-0.7,2.6-1.1c0.1,0,0.1-0.1,0.2-0.1l0,0
		c0,0,0,0,0,0c1-0.6,1.9-1.3,2.8-2.1c0.7-0.7,1.4-1.4,2-2.2c3-4,4.3-9.4,4.1-14.5C619.5,270.6,619.2,268.7,617.5,267.7z"/>
	<path class="st39" d="M594.9,261.3c-0.4,0-0.7,0-1.1,0c-1.9,0-3.7,0.3-5.5,0.8c-2.2,0.6-4.2,1.6-6.1,2.8c-2,1.3-4.3,2.7-6,4.4
		c-0.1,0.1-0.2,0.9,0.5,1.7c1.3,1.3,2.9,0.2,4-0.4c2.3-1.4,4.4-3.1,7-4c2.6-1,5.5-1.2,8.2-1.5c0.1,0,0.3,0,0.5,0
		c1.1-0.1,3.4-0.2,3.1-1.4C599.3,262.3,595.9,261.4,594.9,261.3z"/>
	<path class="st39" d="M565.5,269.6c-2-1.3-4.6-2.1-6.8-3c-2.1-0.8-4.3-1.3-6.6-1.4c-1.3-0.1-2.7,0-4,0.2c-0.9,0.1-1.7,0.3-2.6,0.6
		c-1,0.3-0.9,0.9-0.8,2.3c0,1.4,0.3,1.8,1,1.7c0.8-0.1,1.3-0.3,2.1-0.4c2-0.2,3.9-0.3,5.9-0.1c2.7,0.3,5.1,1.5,7.7,2.3
		c1.2,0.4,3,1.1,4-0.5C566,270.4,565.7,269.7,565.5,269.6z"/>
	<path class="st39" d="M642.4,282.5c0,0-0.1,0.1-0.1,0.1c1.8,0.8,3.5,2,4.5,3.7c1.8,3.1,0.7,7.2-2,9.4c0.7,0.1,1.5,0.3,2.1,0.7
		c1.8,1.2,2.4,3.4,1.9,5.5c-1.2,5-6.7,6.8-11,7.9c-1.4,0.4-2.8,0.7-4.2,0.9c-0.9,1.5-2.1,2.9-3.6,3.8c-0.2,0.1-0.4,0.2-0.6,0.3
		c-2.4,1.1-5.3,1.2-7.8,1c-0.6,0-1.3-0.1-1.9-0.2c-4.6-0.6-9.1-2.8-11.9-6.7c-3.5-4.7-3-10.3-2.5-15.8c0.2-2.5,1.1-4.8,0.8-7.2
		c-1.9-1.7-3.3-3.9-4.5-6.3c-2.2-4.2-4.3-8.9-5.6-13.3c-0.7-2.2-1.4-4.4-2.3-6.5c-0.8-0.7-1.6-1.4-2.4-2.2c-1.8-1.8-3.6-3.7-5.8-5.2
		c-2.5-1.7-5.4-2.3-8.4-2.6c-3.2-0.4-6.6-0.8-9.8-0.4c-2.9,0.4-5.6,1.8-8.5,2.3c-4.4,0.7-9.8,0-12.6-3.4c-0.1,0-0.1,0-0.1-0.1
		c0,0,0,0,0-0.1c0,0,0-0.1,0-0.1c-0.3-7.6,3.7-15.2,9.1-20.4c5.4-5.3,12.7-8.4,20.2-9.3c6.7-0.8,14-0.1,19.8,3.4
		c2.6,1.6,4.9,3.8,6.3,6.5c0.9,1.8,1.5,3.7,2.3,5.5c1,2.1,2.5,3.6,4.3,5c3,2.3,5.7,4.8,7.8,8c1.9,2.8,3.3,5.8,4.1,9.1
		c2.2,2.6,3.9,5.6,5.4,8.6c1.1,2.3,2.4,4.7,4.6,6.2c2.5,1.6,5.6,1.4,8.2,0.4c0.9-0.3,1.8-0.8,2.7-1.3c1.6,1.3,3.3,2.4,5.1,3.5
		c0.5,0.3,1.1,0.3,1.5,0c0.1,0.1,0.1,0.1,0.2,0.2c0.1,0.1,0.1,0.1,0.2,0.2c0.1,0.1,0.3,0.3,0.4,0.4c-0.4,1.2-1,2.3-1.5,3.2
		C645.6,279.4,644.1,281.1,642.4,282.5z"/>
	<path class="st39" d="M651.5,276.2c-0.7-1.6-1.6-3.2-2.6-4.7c-0.6-0.9-1.3-1.9-2.1-2.7c-2.1-2.5-4.3-4.7-5.6-7.8
		c-2.6-6-3.5-12.5-5.9-18.6c-1.5-3.8-3.3-7.5-5.6-10.9c0,0,0,0,0,0c-0.8-1.2-1.7-2.3-2.6-3.4c-3.5-4.1-8.1-7.8-13.5-8.8
		c-0.2,0-0.3,0.3-0.1,0.4c3.1,1,5.9,2.5,8.3,4.4c0,0.7,0,1.4,0,2.1c0,0.1,0,0.1,0,0.2c-0.1,1.1-0.2,2.1-0.3,3.2c0,0.1,0,0.2,0,0.3
		c0,0,0,0,0,0c-0.1,1.1-0.3,2.1-0.4,3.2c-0.3,2.7-0.3,5.5,0.1,8.2c0.8,5.5,2.6,10.9,4.6,16.1c2,5.1,4.5,10,7.4,14.6
		c0,0,0,0.1,0.1,0.1c2.7,4.4,5.8,8.8,9.5,12.4c0.7,0.7,1.5,1.4,2.3,2c0,0,0,0,0,0c0.1,0.1,0.2,0.1,0.2,0.2c0.7,0.5,1.4,1,2.2,1.5
		c0.6,0.4,1.3,0.7,1.9,1c0,0,0.1,0,0.1,0c0,0,0.1,0,0.1,0.1c0.1,0,0.1,0,0.2,0.1c0.4,0.2,1,0.4,1.5,0.5c0,0,0.1,0,0.1,0
		c0,0.2,0.2,0.3,0.4,0.1c0.1-0.1,0.1-0.1,0.2-0.2c0,0,0.1,0,0.1-0.1c0.4-0.2,0.6-0.5,0.6-0.9c0.5-0.8,0.8-1.7,0.9-2.6l0,0
		c0-0.1,0-0.3,0.1-0.4C654,282.5,652.7,278.8,651.5,276.2z"/>
	<g>
		<g>
			<path class="st38" d="M570.6,273.1c0,4.2-0.4,7.7-2.8,11.1c-1,1.5-2.2,2.7-0.9,4.5c1.9,2.6,8.1,3.8,10.7,1.9c1-0.7,0-2.4-1-1.7
				c-1.6,1.2-4.3,0.5-6-0.1c-0.5-0.2-2.1-0.8-2.3-1.4c-0.2-0.6,0.9-1.7,1.2-2.2c2.6-3.8,3.1-7.5,3.1-12.1
				C572.5,271.8,570.6,271.8,570.6,273.1L570.6,273.1z"/>
		</g>
	</g>
	<path class="st14" d="M584.4,274.7c0.2,2,1.4,3.5,2.6,3.3c2.7-0.2,1.8-3.7,2.7-5.1c0.1-0.2,0.7-0.3,0.9-0.5
		c0.2-0.2,0.1-0.5-0.2-0.6c-0.7-0.3-1.9-0.4-2.7-0.4C585.7,271.5,584.2,272.5,584.4,274.7z"/>
	<path class="st14" d="M560.7,276.2c0.3,1.7-0.5,3.2-1.6,3.4c-2.3,0.3-2.3-2.8-3.4-3.8c-0.1-0.1-0.7-0.1-0.8-0.2
		c-0.2-0.1-0.2-0.4,0-0.6c0.6-0.4,1.6-0.8,2.2-0.9C559,273.7,560.4,274.2,560.7,276.2z"/>
	<path class="st5" d="M577.9,311c-4.1,0.4-7.6-1.1-9.3-2.2c-2.1-1.4-4-3.9-3.7-6.3c0.2-1.6,3-1.2,4.4-1c13.3,1.8,15.6-4.4,18.7-3.7
		C596.1,301.7,586.9,310.6,577.9,311z"/>
</g>
</svg>
