<?xml version="1.0" encoding="utf-8"?>
<!-- Generator: Adobe Illustrator 23.0.2, SVG Export Plug-In . SVG Version: 6.00 Build 0)  -->
<svg version="1.1" id="Layer_1" xmlns="http://www.w3.org/2000/svg" xmlns:xlink="http://www.w3.org/1999/xlink" x="0px" y="0px"
	 viewBox="0 0 952.7 684" style="enable-background:new 0 0 952.7 684;" xml:space="preserve">
<style type="text/css">
	.st0{opacity:0.1;fill:#007CC7;}
	.st1{fill:#AFC7D7;}
	.st2{fill:#E6E6E6;}
	.st3{fill:#629FCC;}
	.st4{opacity:0.62;}
	.st5{fill:#DDD466;}
	.st6{fill:#73A0BE;}
	.st7{fill:#BDB97D;}
	.st8{fill:#C64A27;}
	.st9{fill:#FFFFFF;}
	.st10{fill:#6FB1ED;}
	.st11{fill:#999999;}
	.st12{fill:#917E2C;}
	.st13{fill:#4F2C2F;}
	.st14{fill:#FBD5AF;}
	.st15{fill:#F3A769;}
	.st16{fill:#0E2436;}
	.st17{fill:#FDA589;}
	.st18{fill:#2D294C;}
	.st19{fill:#EBEBEB;}
	.st20{fill:#181B2D;}
	.st21{fill:#966C29;}
	.st22{fill:#FFB9A4;}
	.st23{fill:#C9C1BD;}
	.st24{fill:#BDA746;}
	.st25{fill:#FBB03B;}
	.st26{fill:#EFD000;}
	.st27{fill:#FBD3AE;}
	.st28{fill:#CC9669;}
	.st29{fill:#AA7322;}
	.st30{opacity:0.16;fill:#B94A00;}
	.st31{fill:#F56C72;}
	.st32{fill:#E0585E;}
	.st33{fill:#422645;}
	.st34{fill:#F28561;}
	.st35{fill:#9A4545;}
	.st36{fill:#773232;}
	.st37{fill:#F0E6E1;}
	.st38{fill:#F29D8A;}
	.st39{opacity:0.81;fill:#6FB1ED;}
	.st40{fill:#D6725B;}
	.st41{fill:#00456B;}
	.st42{fill:#A1543F;}
	.st43{fill:#352A4C;}
	.st44{fill:#666666;}
	.st45{fill:#FAFAFA;}
	.st46{fill:#C7725A;}
	.st47{fill:#B3B3B3;}
	.st48{fill:#0B3047;}
	.st49{fill:#035693;}
	.st50{fill:#072439;}
	.st51{fill:#007CC7;}
	.st52{fill:#422620;}
	.st53{fill:none;stroke:#A1543F;stroke-width:1.339;stroke-linecap:round;stroke-linejoin:round;stroke-miterlimit:10;}
	.st54{opacity:0.26;}
	.st55{fill:none;stroke:#035693;stroke-width:1.1159;stroke-linecap:round;stroke-linejoin:round;stroke-miterlimit:10;}
	.st56{fill:none;stroke:#666666;stroke-linecap:round;stroke-linejoin:round;stroke-miterlimit:10;}
	.st57{fill:#897934;}
</style>
<g>
	<path class="st0" d="M951.97,322.04c-5.08,45.54-22.5,70.86-43.58,88.02c-35.81,29.17-82.14,34.72-96.32,75.75
		c-22.5,65.17,32.49,76.44,38.69,103.32c0.65,2.81,1.06,5.55,1.23,8.18c0.01,0.07,0.01,0.13,0.02,0.19
		c0.02,0.43,0.04,0.85,0.06,1.27v0.4c0.01,0.28,0.02,0.55,0.02,0.82c0,0.19,0,0.39-0.01,0.57c0.01,0.1,0.01,0.19,0,0.28
		c0,0.3-0.01,0.58-0.02,0.87c0,0.12-0.01,0.23-0.02,0.35c0,0.15-0.01,0.3-0.02,0.45c-0.01,0.26-0.03,0.53-0.05,0.8
		c-9.16,120.8-555.34,31.7-742.4-2.42c-91.56-16.7-138.5-119.87-90.43-199.57c0.72-1.19,1.45-2.4,2.21-3.61
		c75.72-120.71,165.32-85.05,204.5-219.9C265.04,42.97,454.39,2.42,642.64,2.05c188.24-0.38,146.98,116.51,142.82,175.77
		C781.31,237.09,965.68,199.11,951.97,322.04z"/>
	<path class="st1" d="M122.16,678.65c-3.51-0.45-5.41-1.06-6.29-1.42c-0.89-0.36-0.81-0.51-0.51-0.59c0.62-0.23,1.99-0.16-1.34-1.76
		c2.72,0.75,5.06,1.59,6.49,2.17c0.53-0.01,2.48,0.3,4.17,0.38c1.7,0.1,3.12,0.05,2.72-0.22c0.71,0.57,3.04,1.13,5.96,1.48
		c2.93,0.36,6.34,0.45,9.53,0.63c6.34,0.22,11.58,0.28,8.61,1.56c3.85-0.03,11.71-0.85,20.43-2.33c8.75-1.43,18.4-3.36,26.32-4.73
		l-4.2,1.28c16.94-0.99,14.33-3.81,23.87-5.77c-8.31,1.92,7.64-0.24,11.1,0c7.4-1.48,13.41-3.26,24-3.45
		c2.22,0.81,2.5,2.04,9.2,2.25c1.52-0.23,3.04-0.46,4.57-0.62c6.71,0.25,15.78,0.42,20.06,1.35l-0.93-0.02
		c7.54,1.2,8.01,0.01,2.11-0.78l7.31,0.28l0.21,0.29c9.67,0.59,18.84,0.57,34.23,2.57c-4.24,0.24,11.38,3.21-2.53,1.48
		c4.06,0.17-2.07-1.13-2.8-1.6c-4.97-0.91-9.64-0.65-11.85-0.86c1.56,0.69-0.08,1.61-2.83,1.88c5.04-0.01,14.44,1.32,22.99,2.41
		c8.56,1.08,16.24,1.84,17.58,0.86c6.2,0.84,13.41,1.54,20.88,2.08c7.48,0.36,15.19,0.79,22.37,1.22c-0.59-0.1-1.75-0.3-1.41-0.46
		l12.38,1.01l-2.86,0.18l8.2,0.73c0.86,0.36-2.33,0.7-5.73,0.78c-1.94,0.12-3.7-0.18-1.8-0.3c-8.86,0.7,7.35,0.37,1.6,1.15
		c-2.17-0.14-4.99,0.04-6.55-0.01c10.12,0.62,14.79-0.73,21.02,0.19c2.39-0.46,6.02-0.98,10.19-1.35c4.17-0.34,8.84-0.84,13.42-0.82
		c-3.48,0.77,9.84-0.83,5.39,0.5c3.47-0.68,11.61-0.93,12.92-1.67c-1.25,0.35-5.2,0.74-7.94,0.78c3.71-0.63,4.1-1.26,8.65-1.6
		c0.6,0.04,0.28,0.23,0.28,0.23c5.85-1.16,1.78-2.19,12.08-3.39c27-3.77-3.52,2.65,0.35,2.61c0.94-0.62,12.85-2.43,18.26-2.69
		l-1.25,0.4c2.73-0.57,6.71-1.53,9.69-1.44c1.55-1.03,4.63-2.24,6.45-3.04l12.03-1.87l-2.42,0.81c2.72-0.59,5.13-0.96,7.55-1.34
		c1.15,0.46-2.43,0.81-6.06,1.59c2.06,0.26,4.47-0.11,7.21-1.13l-1.51,0.18c3.04-0.79,14.18-3.37,5.2-2.26
		c6.62-1.59,8.93-0.67,13.48-1.65c0.56,0.44-3.64,1.21-1.26,1.27c4.48-0.55,7.46-0.91,11.07-1.67c-3.58,0.33,0.93-0.63-4.73-0.13
		c2.11-0.59,7.78-1.51,7.52-1.74c-1.81,0.38-3.03,0.78-6.28,0.91c5.99-1.13,12.28-2.06,18.53-2.51c-0.2,0.15-0.8,0.34-1.49,0.56
		c7.9-1.93,20-3.37,25.26-4.94l-2.42,0.06c-1.91,0.48-5.85,1.02-7.45,0.97c6.01-1.06-4.43-0.39,1.9-1.66
		c8.76-1.52,16.73-1.23,21.41-2.93c-8.4,0.84-19.82,1.41-23.14,2.43c1.8-0.21,3.61-0.46,5.41-0.63c-4.05,0.94-8.09,1.98-12.13,2.96
		c-0.55-0.45-10.82,1.73-10.75,0.91c4.22-0.75,8.1-1.21,11.4-1.74c-0.84-0.26-11.39,1.27-15.87,1.84l5.67-0.5
		c-9.93,2.1-22.78,3.71-32.43,5.69c7.54-1.78-9.83,0.86-3.81-0.73c2.42-0.81,6.57-0.72,5.38-0.75c0.64-0.85-5.98,0.73-8.04,0.47
		c-0.95,0.63-10.86,2.35-4.89,2.05c-3.28,0.13-10.22,1.94-14.7,2.03c1.45,0.69-8.13,1.69-9.69,2.3c-1.93,0.22-3.63,0.28-4.96,0.26
		c4.03-0.86,8.97-1.91,14.09-3c2.11-0.14,5.99-0.71,4.81-0.74l0.03-0.34c7.73-1.75,15.45-3.49,21.02-4.75
		c0.89-0.13,1.77-0.26,2.66-0.39l-0.51,0.17c0.28-0.08,0.57-0.14,0.85-0.22c45.29-6.7,90.61-13.2,136.1-12.01
		c-2.99,0.1-7.84-0.14-9.85,0.29l0.32-0.16l-4.63,0.31c3.9,0,11.63-0.02,14.98-0.42c3.19,0.09,6.39,0.22,9.58,0.39l-8-0.73
		c0.01-0.01,0.04-0.01,0.05-0.02c-0.01,0.01-0.04,0.02-0.05,0.02l-9.46-0.86c6.23-0.54,12.09-1.08,19.54-0.73
		c-2.4,0.3-0.04,0.45,0.56,0.64c20.49-2.12,40.38-2.03,61.04-1.34c8.68,0.29,17.41,0.57,25.98-1.09
		c16.56-3.21,32.46-13.65,49.18-11.66c6.26,0.75,13.68,2.74,17.9-3.34c4.76-6.86,0.79-18.9-5.52-23.25s-13.79-3.64-20.88-3.98
		c-9.24-0.45-18.46-2.87-27.66-1.96c-11.77,1.17-22.34,5.54-34.26,4.47c-8.44-0.76-17.37-3.1-25.83-2.84
		c4.79-0.15-3.02-1.15-6.79-1.97c-11.71-0.8-36.52-2.92-54.25-3.68c2.41-0.74-2.5-1.13-8.19-1.52c-5.68-0.36-12.13-0.73-12.79-1.56
		c-3.94-0.28-10.08-0.36-10.56,0.2c2.2-0.16,7.5,0.64,6.78,0.92c-5.76-0.24-14.55-0.72-15.39-0.03l-7.06-1.17
		c-0.31,0.37-1.47,0.75-3.35,0.89c-1.54-0.09-3.08-0.18-4.63-0.26c-2.78-0.6-2.89-0.43-3.06-0.17c-1.71-0.09-3.42-0.19-5.13-0.28
		c1.97-0.3,3.61-0.55,4.4-0.87c-6.03-0.48-5.23-0.07-9.51-0.16c-1.37-0.53,4.31-1.02,8.94-1.08l-7.74-0.87
		c-7.55,0.5-20.65,1.11-32.67,0.1c2-0.43,5.9-0.2,2.8-1.13c-5.19-0.08-12.17,0.54-18.98-0.41c0.95,0,0.37-0.14,1.31-0.14
		c-12.07,0.07-9.02-0.79-19.87-1.63c0.18-0.07,0.22-0.17,0.55-0.24l-6.69,0.09c-14.03,0.27-15.41-2.06-23.66-3.36l1.85,0.04
		c-2.55-0.69-8.05-1.14-13.47-1.63c-5.42-0.5-10.8-0.92-13.15-1.35c5.81,1.17,1.89,0.76,6.08,2.14c5.21,0.3,3.77-0.94,12.38,0.25
		c-1.23,0.85-12.18,0.03-14.53,0.51c-4.86-0.42-7.94-2.25-8.34-2.83c-12.05-1.26-18.72-2.59-33.51-4.31
		c-5.38-0.09-9.72,1.26-21.86-1.6l0.73-0.24c-0.51,0.53-5.97-0.9-8.54-0.78c4.14,1.48-5.37-0.03-0.29,1.51
		c-7.25-0.79-8.28-2.21-8.89-3.07c-5.3,0.74-14.28-2.25-25.53-2.22c2.05-0.52,14.24,0.44,9.28-0.63c-4.83,0.07-9.67,0.29-14.49,0.54
		l6.39,0.35c-10.95,0.34-13.94-0.82-20.28-1.37c-0.62-0.19,0.11-0.33,1.38-0.42c1.27-0.05,3.1-0.02,4.66,0.03
		c-3.37-0.22-8.77-0.02-13.16,0.31c-3.33,0.39-14.81,1.46-19.3,2.67c-0.61,0.02-1.23,0.05-1.86,0.07c0.17-0.09,0.45-0.19,0.82-0.24
		c-0.92,0.11-1.67,0.19-2.36,0.33c-1.92,0.18-3.84,0.35-5.77,0.53l1.13-0.33c-0.75,0.15-1.49,0.29-2.2,0.43
		c-1.99,0.15-3.97,0.43-5.95,0.74l-2.97,0.85l1.5-0.23c-0.17,0.54-1.97,1.32-4.74,2.12c-3.36,0.7-6.7,1.48-10.04,2.38
		c-3.49,0.93-6.99,1.98-10.49,3.06c-3.78,0.91-7.95,2.31-11.81,3.54c-4.79,1.52-9.11,2.71-11.35,2.49
		c12.77-4.33,18.88-6.18,32.62-10.43c3.74-0.37,1.5,0.25-1.61,1.26c-3.13,0.97-7.16,2.26-7.28,2.61c2.61-0.7,5.22-1.39,7.85-2.01
		c-1.31-0.48,15.26-4.07,10.83-4.47c-4.39,0.96-8.84,1.77-13.11,2.95c-4.28,1.15-8.46,2.39-12.55,3.59
		c-8.16,2.42-15.98,4.66-23.33,5.94c4.25-3.13,8.07-6.53,11.83-10.04c-0.03-0.09,0.17-0.3,0.73-0.69l-0.73,0.69
		c0.1,0.29,2.88-0.78,6.07-1.97c-0.57,0.51-1.17,1.1,2.7-0.14c8.05-1.91,12.1-4.72,18.36-6.14l-1.88,0.59
		c2.97-0.57,6.33-1.29,9.48-2.1c3.17-0.77,6.18-1.38,8.4-2.1c2.51,0.17-1.75,1.01-5.45,1.73c-3.7,0.75-6.79,1.64-2.13,1.05
		c-3.26,0.58-7.17,1.57-10.8,2.71c-3.62,1.17-6.91,2.42-9.24,3.16c3.95-1.08,7.85-1.8,10.45-2.07c2.64-0.21,3.96-0.02,2.9,0.59
		c8.68-2.49,8.56-3.07,8.13-3.62c-0.42-0.56-1.14-1.03,6.73-2.69c3.66-0.66,7.35-0.87,11.02-1.31c1.21-0.61,2.43-1.24,3.66-1.78
		c6.65-0.56-3.96,1.42,6.19,0.49c2.72-0.96,9.31-0.53,11.29-1.05c-0.27,0.36-0.38,0.57,4.8,0.57c0.35-0.16-0.13-0.68,3.94-0.69
		c2.8,1.33-10.45,0.3-5.69,1.5c11.58-0.01,7.42-1.17,9.19-1.68c-0.4,0.04-1.03-0.02-2.2-0.04c0.12-0.46,5.06-0.04,4.54-0.53
		c-1.96-0.13-3.95,0.05-5.67,0.17c3.52-0.39-5.77-0.97-9.36-0.77c-8.1,0.71-24.98,1.9-36.11,4.35c0.96-0.24,2.87-0.71,1.61-0.69
		c-1.99,0.37-3.83,0.71-5.57,1.03c-1.73,0.4-3.35,0.77-4.91,1.13c-3.12,0.71-6,1.35-8.85,2.16c-5.7,1.55-11.42,3.42-19.33,5.97
		l-1.55,1.47c-6.88,1.98-8.25,2.87-8.44,3.67c-0.17,0.77,0.97,1.25-0.68,1.77c-3.01,0.72-5.52,1.8-8.2,1.62
		c0.46-0.18,0.91-0.35,1.36-0.56c-4.2,0.73-4.83,0.97-5.36,1.19c-0.52,0.19-0.98,0.5-4.7,0.4c-3,0.2-1.7,0.31-0.09,0.37
		c1.61,0.03,3.5,0.07,1.56,0.35c-2.03-0.02-3.34-0.01-4.39,0.06c-1.05,0.1-1.84,0.26-2.76,0.31c-1.87,0.14-4.25,0.29-10.56-2.03
		c0.37-0.06,0.1-0.44,0.7-0.54c0.58-0.13,2.06,0.13,5.66,0.87c-2.27-0.73-4.56-1.63-6.94-2.6c4.4,1.13,5.14,1.18,5.99,1.37
		c0.84,0.12,1.65,0.5,5.75,0.93c1.96-0.24,2.72-0.7,3.42-1.01c0.69-0.32,1.36-0.69,3.06-1.11c-1.51,0.12-2.14,0.41-2.93,0.56
		c-0.79,0.12-1.83,0.4-4.03,0.01c-5.29-0.99,0.94-0.35,1.48-0.61c-3.57,0.15-5.48-0.54-7.36-1.3c-1.9-0.76-3.67-1.57-7.58-2.21
		c1.02,1.51-0.29,1.11,4.55,3.31c-2.54-0.53-5.48-1.58-7.77-2.54c-2.28-0.97-3.9-1.85-3.46-2.26l-1.49,0.56
		c-1.32-0.61-6.2-1.55-6.46-1.85l-2.16,0.15c4.29,1.34,8.03,2.42,15.02,4.22c-3.03-0.25,3.35,2.58-5.8,0.14
		c-4.08-1.05-0.33-0.64-0.51-0.95c-2.7-0.62-5.14-0.99-7.27-1.41c-2.15-0.28-4.02-0.64-5.72-0.82c-1.69-0.21-3.19-0.39-4.59-0.56
		c-1.39-0.14-2.67-0.27-3.92-0.39c-4.95-0.36-9.48-0.7-17.94,0.74c4.16-1.06,14.73-1.59,23.31-1.59c-5.12-1.1-11.07,0.06-15.9,0.38
		c4.3-0.71,5.05-1.08-0.15-1.1c-0.69,0.23-1.37,0.51-2.04,0.76c-3.07,0.26-8.42,1.17-8.87,0.98c-0.1,0.22,1.25,0.15,4-0.07
		c-3.73,0.87-8.98,2.11-14.83,3.58c-5.76,1.51-12.19,3.19-18.45,4.83c3.49-0.91,7.45-2.91,10.97-4.27
		c-13.77,2.19-27.05,1.09-40.64,6.29c-7.23,2.77-14.29,6.51-21.75,7.88c-9.83,1.81-32.51-0.23-34.72,18.49
		c-0.77,6.53,2.56,12.6,5.7,17.81c3.38,5.61,6.84,11.31,11.33,15.31c5.63,5.02,12.53,7.05,18.17,12.07
		c4.56,4.06,8.06,9.87,12.26,14.57C108.04,679.1,114.23,678.68,122.16,678.65z M278.51,572.46l-5.31,1.5
		C275.2,573.26,277.19,572.63,278.51,572.46z M183.35,668.88c-1.35,0.33-3.21,0.74-4.88,1.11c-1.5,0.12-1.84,0.05-1.83-0.08
		C178.88,669.58,181.12,669.24,183.35,668.88z M91.6,637.23c-0.12-0.24-0.22-0.62-0.32-1.12C91.38,636.48,91.48,636.86,91.6,637.23z
		 M254.39,662.15c-2.16,0.37-1.83,1.57-10.4,1.67c-0.12-0.12,0.61-0.24,1.46-0.35c-3.89,0.34-4.55,0.17-8.81,0.31
		c-1.39-0.75,5.16-1.11,7.95-1.84c-2.74,0.31-5.78,0.98-8.79,1.13l0.67-0.38c-3.02,0.37-6.03,0.74-9.04,1.17
		c-3.63,1.09,6.88-0.71,7.44-0.21l-5.73,1.15c-6.59,0.84-24.14,3.83-30.38,3.63c-7.76,0.83-4.2,1.28-6.03,2.13
		c-4.51,1.49-8.99,1.24-13.51,2.26c0.27,0.65-5.17,1.41-5.23,2.27l-7.59,0.84c-4.07,1.81,9.12-0.97,11.18-0.77
		c4.21,0.51-5.49,1.19-2.79,1.46c5.78-0.96,6.09-1.62,8.85-2.24c3.29-0.6,5.09-0.6,5.06-0.17c-9.31,0.98-4.83,1.72-12.43,2.65
		l-0.29-0.22c-0.04,0.89-10.98,1.9-15.06,2.7c-8.52-0.02,6.64-2.02,6.3-2.3c-3.37,0.52-6.77,1-10.18,1.43
		c4.4-1.01-0.16-1.08,5.72-2.27c-6.17,0.99-7,0.24-12.92,1.27c6.67-1.76-8.48-0.35-9.26-1.27c6.51-0.44,18.04-0.46,18.68-0.26
		c0.94-0.29,8.4-1.02,11.44-1.16l4.6-1.82c-5.41,0.77-12.74,2.17-10.82,0.95c-2.45,0.44-4.9,0.92-7.37,1.33
		c7.46-2.36,7.08-2.26,13.84-3.84c-14.24,0.68-25.14,4.26-37.02,3.18l1.84-0.13c-5.84,0.15-10.66-0.29-14.44-1.33
		c-3.79-1.01-6.47-2.56-8.3-4.06c-0.07-0.06-0.12-0.11-0.18-0.17c0.36,0.23,0.69,0.48,1.07,0.7c6.55,3.76,14.71,4.21,22.45,4.1
		c12.42-0.18,24.73-1.52,37.01-3.28l-1.46,0.76c0.31-0.08,0.51-0.13,0.84-0.21c14.11-2.52,1.44,1.15,15.85-1.71
		c-0.55,0.19-0.79,0.33-1.09,0.47c5.84-1.32,16.74-2.72,17.85-3.83c-1.38,0.23-6.83,0.87-9.5,0.96c6.16-1.02,12.32-2.03,18.48-2.95
		c1.3-0.04,2.55-0.08,4-0.23l0,0l0.01-0.01c1.4-0.15,2.95-0.41,4.99-0.85c0.48-0.13,0.82-0.23,1.06-0.31
		c7.37-0.94,14.77-1.67,22.2-2.05C246,661.23,262.99,660.85,254.39,662.15z M277.52,661.95c-8.76-0.54-2.64-0.42-8.87-1.13
		c-0.34-0.17-0.12-0.3,0.39-0.41c6.57,0.28,13.13,0.76,19.68,1.41C283.04,661.47,277.14,661.02,277.52,661.95z M304.08,664.38
		c-2.99-0.47-11.48-1.16-12.11-1.98c4.12,0.43,5.29,0.52,4.84,0.31c4.27,0.5,8.54,1.05,12.81,1.63c0.16,0.13,0.53,0.28,1.12,0.45
		C308.83,664.7,305.85,664.42,304.08,664.38z M414.19,677.25c-7.62,0.04,0.41-0.56-3.47-0.91c-5.79,1.2-7.41-1.05-13.55,0.31
		c-7.37,0.06-5.04-0.67-7.37-1.15c7.32,0.16-3.39-0.99,5.8-1.1c-3.73-0.28-5.09-0.12-6.31,0.1c-1.22,0.23-2.3,0.49-5.43,0.12
		l-0.9-1.09c-2.85-0.27-7.34-0.7-12.07-1.15c-4.73-0.48-9.71-0.98-13.6-1.07c6.4,1.37-3.87,0.25-2.89,0.96
		c1.24-0.73,10.07,0.84,9.93,1.25c-4.61-0.24-15.33-1.37-19.57-2.06l8.4,1.58c-3.53,0.15-15.96-0.58-16.32-0.48
		c-3.76-0.95-9.48-1.67-11.36-2.5l7.2,0.26l2.43,1.01l4.22-0.26c-4.56-0.93-14.13-2.89-16.09-3.91c7.23,1.04,17.13,2.36,29.01,3.08
		c6.81,0.84,13.64,1.58,20.48,2.11c16.33,1.27,32.65,1.39,48.95,0.74c-0.12,0.03-0.23,0.05-0.36,0.07c-1.91,0.43-4.15,0.77-6.8,0.97
		c1.51-0.13,3.3-0.17,5.74-0.02c-4.38,0.72-8.76,1.57-13.19,2.05c3.34,0.16,5.25-0.21,7.34-0.65c2.09-0.41,4.36-0.83,8.43-0.84
		C422.36,675.69,422.9,676.19,414.19,677.25z M640.88,644.98c5.7,0.12,11.4,0.17,17.11,0.18l-0.08,0.01l5.6,0.72
		c-2.12,0.2-4.25,0.38-6.38,0.57L640.88,644.98z M250.07,588.91c1.8-0.07,2.35,0.12,2.89,0.37c-1.45,0.21-2.87,0.41-4.28,0.52
		L250.07,588.91z M197.86,580.67c0.33-0.5,2.74-0.56,5.44-0.38c2.7,0.11,5.65,0.59,7.12,0.44c1.16,0.12,4.31,0.91,6.74,1.71
		c2.44,0.8,4.25,1.55,3.05,1.55c-3.34-1.21-5.11-1.23-6.74-1.31c-1.65-0.07-3.14-0.29-6.34-1.59c-1.21,0.4,0.49,0.96,3.01,1.67
		c-0.89-0.1-1.45-0.05-1.58,0.07c-1.29-0.28-2.55-0.55-3.77-0.82c-1.24-0.19-2.43-0.38-3.59-0.56
		C199.14,581.06,197.26,580.92,197.86,580.67z M188.56,580.56l-2.16,0.19c-8.26,0.31-13.48,1.41-16.41,2.03
		c-2.84,0.67-3.53,1.04-2.7,1.19c-1.92,0.37-3.84,0.76-5.76,1.19c3.34-1.26,6.52-2.36,8.37-2.9
		C176.74,580.9,184.23,580.32,188.56,580.56z M146.02,587.75c-0.39,0.35,0.06,0.37,0.9,0.23c-2.11,0.66-4.24,1.34-6.38,2.01
		C141.36,589.35,139.81,589.3,146.02,587.75z M86.97,627.44c0.01-1.53,0.51-3.08,0.79-4.45c0.73-2.11,1.51-3.65,1.77-3.8
		c-0.26-0.74,0.91-3.96,3.32-7.18c2.55-3.57,6.48-6.73,8.51-8.56c5.46-3.81,7.72-4.24,9.62-4.9c1.96-0.53,3.65-1.13,8.86-3.5
		c-1.39,0.28-2.76,0.62-4.14,0.97c4.64-2.18,8.04-3.5,11.6-4.73c3.58-1.24,7.3-2.3,12.67-3.71c1.56,0.46-4.94,1.25-7.21,2.42
		l5.31-0.67c-2.29,0.71-6.55,2.8-6.67,1.95c0.06,0.43-3.32,2.19,3.29-0.22l-4.82,2.18c0.31,0,0.72-0.04,1.19-0.12
		c-1.46,0.53-2.97,1.07-4.46,1.6c-1.99,0.4-5.35,1.65-8.49,2.27c-0.34-0.17,2.71-1.49,4.45-2.29c-4.67,1.35-8.54,3.31-10.93,4.71
		c3.46-1.59,4.34-1.78,4.57-1.64c0.23,0.14-0.18,0.63,0.75,0.63c-2.03,1.05-4.73,2.38-7.13,3.74c-2.41,1.35-4.55,2.72-5.57,3.6
		c-1.35,0.8-2.58,1.65-3.67,2.39c-1.13,0.7-1.99,1.39-2.68,1.82c-1.37,0.86-1.87,0.82-0.59-0.9c-2.67,3.05-5.68,6.42-6.53,10.65
		c0.64-1.85,1.11-2.75,1.46-3.19c0.41-0.41,0.66-0.38,0.94-0.41c0.28-0.03,0.59-0.12,1.1-0.74c0.26-0.3,0.53-0.77,0.96-1.38
		c0.45-0.6,0.99-1.38,1.67-2.41c0.55-0.25,0.71-0.19,0.62,0.1c-2.51,2.69-4.46,5.68-5.72,8.99c-0.43,0.9-0.81,1.76-1.1,2.5
		c0.61-2.51-0.49-0.54-0.63-1.22c-0.29,0.92-0.34,1.7-0.38,2.33c-0.04,0.62-0.05,1.08-0.03,1.41c0.04,0.65,0.19,0.75,0.41,0.47
		c0.19-0.22,0.38-0.68,0.6-1.3c-0.1,0.57-0.24,1.13-0.3,1.72c-0.33,3.21,0.06,6.36,0.9,9.44c0.17,1.51,0.46,3.01,0.82,4.51
		c-0.98-2.19-1.79-4.46-2.31-6.81c-0.12,1.53,0.34,3.53,1.13,5.48c0.78,1.96,1.85,3.89,2.67,5.55c0.71,1.96-0.64-0.04-2.3-3.2
		c-1.7-3.14-3.21-7.66-3.98-10.06C87.01,630.41,86.87,628.96,86.97,627.44z"/>
	<g>
		<g>
			<path class="st2" d="M635.14,597.93H310.66c-5.09,0-9.22-4.13-9.22-9.22V264.23c0-5.09,4.13-9.22,9.22-9.22h324.49
				c5.09,0,9.22,4.13,9.22,9.22v324.49C644.36,593.81,640.24,597.93,635.14,597.93z"/>
			<path class="st3" d="M629.77,593.65H316.03c-5.68,0-10.31-4.62-10.31-10.31V269.6c0-5.68,4.62-10.31,10.31-10.31h313.74
				c5.68,0,10.31,4.62,10.31,10.31v313.74C640.08,589.03,635.46,593.65,629.77,593.65z M316.03,262.08c-4.14,0-7.52,3.37-7.52,7.52
				v313.74c0,4.14,3.37,7.52,7.52,7.52h313.74c4.14,0,7.52-3.37,7.52-7.52V269.6c0-4.14-3.37-7.52-7.52-7.52H316.03z"/>
		</g>
		<g>
			<path class="st3" d="M638.68,318.32H307.12c-0.77,0-1.4-0.62-1.4-1.4c0-0.77,0.63-1.4,1.4-1.4h331.57c0.77,0,1.4,0.62,1.4,1.4
				C640.08,317.69,639.46,318.32,638.68,318.32z"/>
		</g>
		<g>
			<path class="st3" d="M638.68,377.66H307.12c-0.77,0-1.4-0.62-1.4-1.4c0-0.77,0.63-1.4,1.4-1.4h331.57c0.77,0,1.4,0.62,1.4,1.4
				C640.08,377.04,639.46,377.66,638.68,377.66z"/>
		</g>
		<g>
			<path class="st3" d="M638.68,437H307.12c-0.77,0-1.4-0.62-1.4-1.4c0-0.77,0.63-1.4,1.4-1.4h331.57c0.77,0,1.4,0.62,1.4,1.4
				C640.08,436.38,639.46,437,638.68,437z"/>
		</g>
		<g>
			<path class="st3" d="M638.68,496.34H307.12c-0.77,0-1.4-0.62-1.4-1.4c0-0.77,0.63-1.4,1.4-1.4h331.57c0.77,0,1.4,0.62,1.4,1.4
				C640.08,495.72,639.46,496.34,638.68,496.34z"/>
		</g>
		<g>
			<path class="st3" d="M638.68,555.68H307.12c-0.77,0-1.4-0.62-1.4-1.4c0-0.77,0.63-1.4,1.4-1.4h331.57c0.77,0,1.4,0.62,1.4,1.4
				C640.08,555.06,639.46,555.68,638.68,555.68z"/>
		</g>
		<g>
			<g>
				<path class="st3" d="M483.9,307.36H461.9c-1.64,0-2.97-1.33-2.97-2.97l0,0c0-1.64,1.33-2.97,2.97-2.97h21.99
					c1.64,0,2.97,1.33,2.97,2.97l0,0C486.86,306.03,485.54,307.36,483.9,307.36z"/>
			</g>
		</g>
		<g>
			<g>
				<path class="st3" d="M483.9,366.08H461.9c-1.64,0-2.97-1.33-2.97-2.97l0,0c0-1.64,1.33-2.97,2.97-2.97h21.99
					c1.64,0,2.97,1.33,2.97,2.97l0,0C486.86,364.75,485.54,366.08,483.9,366.08z"/>
			</g>
		</g>
		<g>
			<g>
				<path class="st3" d="M483.9,424.8H461.9c-1.64,0-2.97-1.33-2.97-2.97l0,0c0-1.64,1.33-2.97,2.97-2.97h21.99
					c1.64,0,2.97,1.33,2.97,2.97l0,0C486.86,423.47,485.54,424.8,483.9,424.8z"/>
			</g>
		</g>
		<g>
			<g>
				<path class="st3" d="M483.9,483.52H461.9c-1.64,0-2.97-1.33-2.97-2.97l0,0c0-1.64,1.33-2.97,2.97-2.97h21.99
					c1.64,0,2.97,1.33,2.97,2.97l0,0C486.86,482.2,485.54,483.52,483.9,483.52z"/>
			</g>
		</g>
		<g>
			<g>
				<path class="st3" d="M483.9,542.25H461.9c-1.64,0-2.97-1.33-2.97-2.97v0c0-1.64,1.33-2.97,2.97-2.97h21.99
					c1.64,0,2.97,1.33,2.97,2.97v0C486.86,540.92,485.54,542.25,483.9,542.25z"/>
			</g>
		</g>
	</g>
	<g class="st4">
		<path class="st5" d="M311.73,166.65c-1.25-0.35-18.28-38.56-19.29-45.21c-1.01-6.65,8.66-19.32,8.43-26.09
			c-0.23-6.77-10.77-20.76-10.77-29.97c0-9.2,14.38-14.59,16.29-25.69c1.91-11.09,12.02-18.24,23.44-11.57s8.72,23.08,4.71,30.89
			c-4.01,7.81-6.91,15.06-1.39,25.02c5.52,9.96,4.71,19.37,0.75,25.89c-3.96,6.52-11.57,18.57-11.57,18.57s4.22,25.04,3.85,25.26
			C325.8,153.96,311.73,166.65,311.73,166.65z"/>
	</g>
	<g class="st4">
		<path class="st5" d="M292.15,158.93c0,0-12.41-7.95-13.63-18.56s-10.83-15.95-21.89-20.27c-11.06-4.32-10.8-18.36-10.87-31.95
			s-13.57-15.54-11.42-25.07c2.15-9.53,21.43-11.67,32.74,2.21c11.32,13.88,2.89,21.56,16.1,34.75s13.46,9.55,22.83,18.53
			c9.37,8.97,9.65,23.96,4.61,30.22C305.56,155.05,292.15,158.93,292.15,158.93z"/>
	</g>
	<g class="st4">
		<path class="st5" d="M333.47,166.61c0,0-16.49-13.51-18.99-21.93c-2.49-8.42-4.83-21.8,12.24-27.15
			c17.07-5.34,21.49-13.83,21.93-21.9c0.44-8.08,0.09-16.08,15.13-22.9c15.05-6.82,20.54,4.32,32.04,3.42
			c11.5-0.9,27.66,7.51,16.05,19.16c-11.61,11.65-21.83,2.42-31.14,7.58c-9.3,5.16,2.63,10.26-9.46,21.28
			c-12.09,11.02-19.01,6.07-23.45,14.16c-4.44,8.09-4.72,13.15-5,14.81C342.55,154.81,333.47,166.61,333.47,166.61z"/>
	</g>
	<g class="st4">
		<path class="st6" d="M832.53,190.79h-277.5c-2.36,0-4.28-1.92-4.28-4.28v-1.06c0-2.36,1.92-4.28,4.28-4.28h277.5
			c2.36,0,4.28,1.92,4.28,4.28v1.06C836.81,188.88,834.89,190.79,832.53,190.79z"/>
	</g>
	<g class="st4">
		<path class="st6" d="M444.24,190.79H217.61c-1.93,0-3.49-1.56-3.49-3.49v-0.86c0-1.93,1.56-3.49,3.49-3.49h226.63
			c1.93,0,3.49,1.56,3.49,3.49v0.86C447.74,189.23,446.17,190.79,444.24,190.79z"/>
	</g>
	<g class="st4">
		<path class="st7" d="M388.27,87.64c-7.2,0.64-14.33,2.55-20.05,7.16c-2.7,2.17-4.99,4.85-6.55,7.95
			c-1.91,3.79-2.93,7.84-5.61,11.23c-5.81,7.33-14.8,7.38-22.05,12.3c-5.33,3.62-8.75,9.35-9.75,15.67c-0.16,1,1.37,1.42,1.53,0.42
			c1.14-7.22,5.53-13.4,12.21-16.51c6.42-2.99,13-3.99,18.04-9.41c4.57-4.91,5.41-11.7,9.55-16.81c5.56-6.85,14.16-9.66,22.68-10.42
			C389.28,89.13,389.29,87.55,388.27,87.64z"/>
	</g>
	<g class="st4">
		<path class="st7" d="M287.42,120.15c-4.19-4.98-10.84-8.37-16.41-11.48c-3.49-1.95-7.18-4.06-9.29-7.61
			c-2.03-3.41-1.58-7.31-1.68-11.11c-0.16-6.5-1.85-12.7-4.83-18.47c-0.47-0.9-1.83-0.11-1.37,0.8c3.67,7.1,4.36,13.94,4.62,21.75
			c0.17,5.27,2.01,9.2,6.16,12.48c5.46,4.31,12.12,7.06,17.74,11.23c6.52,4.84,8.17,11.77,9.4,19.44c0.16,1,1.69,0.58,1.53-0.42
			C292.35,130.99,291.31,124.77,287.42,120.15z"/>
	</g>
	<g class="st4">
		<path class="st7" d="M313.19,73.33c-2.49-11.45,11.27-18.7,11-30.05c-0.02-1.02-1.61-1.02-1.58,0
			c0.26,10.91-12.19,17.41-11.29,28.44c0.44,5.36,3.56,10.19,4.22,15.6c0.74,6.13,0.06,12.31-0.63,18.42c-0.11,1.01,1.47,1,1.58,0
			c0.63-5.67,1.27-11.41,0.78-17.12C316.8,83.13,314.33,78.58,313.19,73.33z"/>
	</g>
	<g class="st4">
		<path class="st8" d="M613.85,181.25h-7.21c-1.71,0-3.1-1.39-3.1-3.1v-76.16c0-1.71,1.39-3.1,3.1-3.1h7.21c1.71,0,3.1,1.39,3.1,3.1
			v76.16C616.95,179.86,615.57,181.25,613.85,181.25z"/>
	</g>
	<g class="st4">
		<path class="st9" d="M627.26,181.25h-7.21c-1.71,0-3.1-1.39-3.1-3.1v-76.16c0-1.71,1.39-3.1,3.1-3.1h7.21c1.71,0,3.1,1.39,3.1,3.1
			v76.16C630.36,179.86,628.98,181.25,627.26,181.25z"/>
	</g>
	<g class="st4">
		<path class="st10" d="M640.67,181.25h-7.21c-1.71,0-3.1-1.39-3.1-3.1v-76.16c0-1.71,1.39-3.1,3.1-3.1h7.21
			c1.71,0,3.1,1.39,3.1,3.1v76.16C643.77,179.86,642.39,181.25,640.67,181.25z"/>
	</g>
	<g class="st4">
		<path class="st5" d="M654.08,181.25h-7.21c-1.71,0-3.1-1.39-3.1-3.1v-76.16c0-1.71,1.39-3.1,3.1-3.1h7.21c1.71,0,3.1,1.39,3.1,3.1
			v76.16C657.18,179.86,655.79,181.25,654.08,181.25z"/>
	</g>
	<g class="st4">
		<path class="st10" d="M667.49,181.25h-7.21c-1.71,0-3.1-1.39-3.1-3.1v-76.16c0-1.71,1.39-3.1,3.1-3.1h7.21
			c1.71,0,3.1,1.39,3.1,3.1v76.16C670.59,179.86,669.2,181.25,667.49,181.25z"/>
	</g>
	<g class="st4">
		<path class="st8" d="M680.9,181.25h-7.21c-1.71,0-3.1-1.39-3.1-3.1v-76.16c0-1.71,1.39-3.1,3.1-3.1h7.21c1.71,0,3.1,1.39,3.1,3.1
			v76.16C684,179.86,682.61,181.25,680.9,181.25z"/>
	</g>
	<g class="st4">
		<path class="st9" d="M694.31,181.25h-7.21c-1.71,0-3.1-1.39-3.1-3.1v-76.16c0-1.71,1.39-3.1,3.1-3.1h7.21c1.71,0,3.1,1.39,3.1,3.1
			v76.16C697.41,179.86,696.02,181.25,694.31,181.25z"/>
	</g>
	<g class="st4">
		<path class="st8" d="M707.72,181.25h-7.21c-1.71,0-3.1-1.39-3.1-3.1v-76.16c0-1.71,1.39-3.1,3.1-3.1h7.21c1.71,0,3.1,1.39,3.1,3.1
			v76.16C710.82,179.86,709.43,181.25,707.72,181.25z"/>
	</g>
	<g class="st4">
		<path class="st10" d="M721.13,181.25h-7.21c-1.71,0-3.1-1.39-3.1-3.1v-76.16c0-1.71,1.39-3.1,3.1-3.1h7.21
			c1.71,0,3.1,1.39,3.1,3.1v76.16C724.23,179.86,722.84,181.25,721.13,181.25z"/>
	</g>
	<g class="st4">
		<path class="st5" d="M734.54,181.25h-7.21c-1.71,0-3.1-1.39-3.1-3.1v-76.16c0-1.71,1.39-3.1,3.1-3.1h7.21c1.71,0,3.1,1.39,3.1,3.1
			v76.16C737.64,179.86,736.25,181.25,734.54,181.25z"/>
	</g>
	<g class="st4">
		<path class="st8" d="M762.66,179.77l-7.09,1.35c-1.68,0.32-3.3-0.78-3.62-2.46l-14.26-74.81c-0.32-1.68,0.78-3.3,2.46-3.62
			l7.09-1.35c1.68-0.32,3.3,0.78,3.62,2.46l14.26,74.81C765.45,177.83,764.34,179.45,762.66,179.77z"/>
	</g>
	<g>
		<g>
			<path class="st11" d="M237.32,443.85c-4.63,3.89-9.51,7.47-14.78,10.44c-4.17,2.34-9.39,3.73-12.71,7.3
				c-0.31,0.34,0.19,0.84,0.5,0.5c1.92-2.07,4.45-3.21,6.97-4.36c2.44-1.12,4.82-2.34,7.13-3.71c4.75-2.81,9.17-6.11,13.39-9.66
				C238.18,444.06,237.67,443.56,237.32,443.85L237.32,443.85z"/>
		</g>
	</g>
	<g>
		<g>
			<path class="st11" d="M240.05,447.35c-4.67,2.36-9.32,4.74-13.75,7.54c-0.39,0.24-0.03,0.86,0.36,0.62
				c4.43-2.79,9.08-5.18,13.75-7.54C240.82,447.76,240.46,447.14,240.05,447.35L240.05,447.35z"/>
		</g>
	</g>
	<g>
		<g>
			<path class="st11" d="M188.09,523.34c7.63-4.69,12.52-12.4,18.69-18.68c0.32-0.33-0.18-0.83-0.5-0.5
				c-6.13,6.24-10.97,13.91-18.55,18.57C187.34,522.96,187.7,523.58,188.09,523.34L188.09,523.34z"/>
		</g>
	</g>
	<g>
		<g>
			<path class="st11" d="M189.99,517.89c1.03-1.48,2.07-2.96,3.1-4.43c0.26-0.38-0.35-0.73-0.62-0.36c-1.03,1.48-2.07,2.96-3.1,4.43
				C189.11,517.91,189.73,518.26,189.99,517.89L189.99,517.89z"/>
		</g>
	</g>
	<g>
		<g>
			<path class="st11" d="M167.82,427.01c-6.67,7.41-18.3,4.98-26.78,8.55c-0.42,0.18-0.23,0.87,0.19,0.69
				c8.63-3.64,20.3-1.18,27.09-8.74C168.63,427.17,168.13,426.66,167.82,427.01L167.82,427.01z"/>
		</g>
	</g>
	<g>
		<g>
			<path class="st11" d="M159.33,428.58c-1.44,0.44-2.88,0.89-4.32,1.33c-0.44,0.13-0.25,0.82,0.19,0.69
				c1.44-0.44,2.88-0.89,4.32-1.33C159.96,429.13,159.77,428.44,159.33,428.58L159.33,428.58z"/>
		</g>
	</g>
	<g>
		<g>
			<path class="st11" d="M156.51,353.02c5.23,5.33,6.81,14.45,7.85,21.56c1.16,7.95,1.37,16.1,0.36,24.07
				c-0.06,0.45,0.66,0.45,0.71,0c1.06-8.31,0.78-16.82-0.51-25.09c-1.09-7.01-2.74-15.78-7.91-21.06
				C156.69,352.19,156.19,352.69,156.51,353.02L156.51,353.02z"/>
		</g>
	</g>
	<g>
		<g>
			<path class="st11" d="M173.96,354.44c10.19,3.07,20.88,1.09,30.2-3.69c0.41-0.21,0.05-0.83-0.36-0.62
				c-9.16,4.7-19.65,6.64-29.65,3.62C173.71,353.62,173.52,354.31,173.96,354.44L173.96,354.44z"/>
		</g>
	</g>
	<g>
		<g>
			<path class="st12" d="M285.73,544.9c6.77-2.85,10.98-9.65,17.91-12.12c0.6-0.21,0.34-1.18-0.27-0.96
				c-6.97,2.48-11.14,9.27-17.91,12.12C284.88,544.18,285.13,545.15,285.73,544.9L285.73,544.9z"/>
		</g>
	</g>
	<g>
		<g>
			<path class="st12" d="M293.85,544.24c2.15-2.61,4.89-4.56,7.8-6.24c0.56-0.32,0.05-1.19-0.5-0.86c-2.98,1.73-5.81,3.73-8,6.4
				C292.74,544.03,293.44,544.74,293.85,544.24L293.85,544.24z"/>
		</g>
	</g>
	<g>
		<g>
			<path class="st13" d="M294.64,505.04l-15.8,89.31c0,0-6.25,4.54-11.3-0.19l8.73-94.77L294.64,505.04z"/>
			<path class="st13" d="M225.36,569.41l-13.3,93.49c0,0-6.65,4.98-12.41,0.29l5.24-96.04L225.36,569.41z"/>
			<path class="st13" d="M112.48,517.35l-15.8,89.31c0,0-6.25,4.54-11.3-0.19l8.73-94.77L112.48,517.35z"/>
			<path class="st14" d="M280.43,467.11c1.37-1.74,17.14-192.35,2.36-197.45c-14.77-5.1-73.87,16.61-149.51,13.44
				c-75.64-3.17-91.6-5.15-103.42,2.93c-11.82,8.08,18.91,67.27,31.91,109.77c13,42.5,29.55,94.48,29.55,94.48s19.5-1.3,51.41-2.68
				C174.65,486.22,266.84,484.4,280.43,467.11z"/>
			<path class="st15" d="M280.02,466.29c0,0,128.24-6.05,142.42,0c14.18,6.05,22.46,17.87-10.05,52.74
				c-32.5,34.87-98.1,58.5-168.42,53.19c-70.32-5.32-153.06-82.76-153.06-82.76s22.46-9.43,66.78-7.88
				C184.28,482.5,261.11,480.33,280.02,466.29z"/>
			<path class="st14" d="M90.91,489.46c0,0,52-7.51,76.23,3.05c24.23,10.56,19.5,65.52,76.82,79.71c0,0-41.96,0.33-98.1-24.36
				C89.73,523.16,93.28,515.43,90.91,489.46z"/>
		</g>
		<g>
			<g>
				<path class="st16" d="M392.59,656.96c-0.89,1.2-60.03,9.57-60.59,7.7c-2.92-9.62,1.26-24.15,3.14-29.85
					c0.47-1.47,1.74-2.51,3.27-2.72c1.61-0.22,4.08-0.57,7.57-1.1c7.66-1.17,13.08,3.87,13.08,3.87s0.38,0.38,1.07,0.99
					c0.44,0.37,1,0.84,1.68,1.35c1.23,0.92,2.84,1.98,4.75,2.96c0.63,0.33,1.31,0.63,2,0.9c1.64,0.7,3.43,1.27,5.35,1.6
					c8.76,1.56,15.94,1.79,17.49,6.56C392.95,654,393.49,655.77,392.59,656.96z"/>
				<g>
					<path class="st17" d="M363.39,635.82c0,0-0.38-1.72-1.04-4.66c-0.41-1.86-0.94-4.19-1.53-6.88c-1.17-5.23-2.62-11.78-4.14-18.7
						c-4.26-19.26-9.09-41.4-9.83-45.76c-1.42-8.44-0.61-28.5,0.22-43.65c0.62-0.3,1.29-0.69,2.13-0.85
						c4.01-0.78,4.8-0.44,8.79,0.93c5.31,1.83,6.59-0.27,11.62-0.66c3.41-0.25,6.1,1.72,9.08,2.82c1.83,0.68,3.83,1.56,5.75,2.02
						c-0.2,4.5-0.45,8.77-0.73,12.29c-0.67,8.59,1.42,85.89,1.77,98.01c0.03,1.03,0.04,1.6,0.04,1.6S379.46,649.8,363.39,635.82z"/>
					<path class="st17" d="M382.69,625.98c0,0,29.29,12.94,36.89,14.97c7.6,2.04,24.49,3.4,25.6,5.34
						c1.11,1.95-0.56,7.8-11.62,10.57c-11.05,2.78-40.36,0.5-44.62,0.46c-4.25-0.04-29.01,2.35-29.05,0.43
						c-0.04-1.92,1.04-27.67,2.21-29.91C363.28,625.61,375,621.27,382.69,625.98z"/>
					<g>
						<path class="st18" d="M386.05,616.4c0.83,0.25,24.29,19.43,35.25,22.87c10.96,3.43,16.88,1.05,21.66,4.1
							c4.78,3.05,3.99,7.83,3.99,7.83s-25.07,8.01-43.67,8.27c-18.61,0.26-23.96-6.83-29.96-7.51c-6-0.68-14.42,1.31-15.62-0.63
							c-1.2-1.94-1.28-25.27,0.38-29.52c1.66-4.25,6.7,3.89,10.61,6.4C372.62,630.73,374.91,613.12,386.05,616.4z"/>
					</g>
					<g>
						<path class="st19" d="M354.49,659.86c0,0-1.39-5.94,0.9-11.45c2.29-5.51,24.88,7.9,45.91,9.54c21.03,1.64,40.3-7.09,40.3-7.09
							s1.83,4.34-1.81,7.12c-3.64,2.79-16.95,4.57-25.49,5.59C405.76,664.61,354.49,659.86,354.49,659.86z"/>
					</g>
					<g>
						<path class="st20" d="M446.74,647.07c0,0-2.72-3.55-6.5,2.28c-3.78,5.83-6.73,7.63-16.3,9.88c-9.57,2.24-15.27,3.23-26.6,2.42
							c-11.33-0.81-30.61-1.23-34.98-1.89c-4.36-0.67-8.06-0.64-8.06-0.64l0.26,2.86c0,0,14.9,1.57,29.28,2.12
							c14.38,0.55,60.91,2.6,64.04-11.75C448.45,649.69,446.74,647.07,446.74,647.07z"/>
					</g>
					<g>
						<path class="st18" d="M399.41,638.89c0,0-15.29-11.83-20.79-13.64c-5.51-1.81-9.36-10.36-9.49-11.89
							c-0.14-1.52,4.88-7.2,15.57-6.94c10.69,0.26,4.23,12.01,5.43,15.01c1.21,3,6.15,5.9,11.26,9.35c5.11,3.45,6.65,5.23,6.23,5.61
							C407.18,636.77,399.41,638.89,399.41,638.89z"/>
					</g>
					<g>
						<path class="st20" d="M420.64,639.33c0,0-8.16-0.22-10.56,2.13c-2.39,2.35-11.15,9.52-16.26,11.96
							c-5.11,2.44-7.95,1.72-7.95,1.72s7.51-1.43,11.65-8.25c4.14-6.83,10.25-13.13,12.08-13.65
							C411.44,632.72,420.64,639.33,420.64,639.33z"/>
					</g>
					<g>
						<path class="st19" d="M391.72,631.15c2.19-1.46,4.53-2.64,7.06-3.37c1.79-0.52,4.24-1.37,5.94-0.31
							c1.32,0.82,0.3,3.05-1.04,2.22c-1.43-0.89-4.21,0.38-5.64,0.91c-1.75,0.64-3.37,1.52-4.91,2.55
							C391.83,634.02,390.41,632.03,391.72,631.15z"/>
					</g>
					<g>
						<path class="st19" d="M382.77,625.05c2.29-1.55,4.77-2.68,7.48-3.25c1.93-0.41,4.49-1.04,5.94,0.62
							c1.04,1.18-0.96,2.59-1.99,1.42c-0.62-0.7-4.6,0.61-5.33,0.85c-1.68,0.55-3.22,1.37-4.68,2.36
							C382.88,627.93,381.46,625.93,382.77,625.05z"/>
					</g>
					<path class="st12" d="M383.33,531.79c-0.37,0.52-0.84,0.98-1.44,1.34c-1.84,1.13-4.36-0.75-6.05-1.62
						c-2.7-1.39-4.75-2.42-7.93-2.02c-2.21,0.27-3.87,1.47-6.09,1.13c-2-0.31-3.17-1.71-4.99-2.04c-4.93-0.9-11.15,5.91-13.94-0.22
						c-1.08-2.37-1.32-4.67-1.8-7.18c-0.63-3.34,0.29-7.08-0.64-10.32c-0.74-2.59-2.66-4.85-4.65-6.57
						c-4.17-3.59-9.64-5.49-14.72-7.4c-10.02-3.77-20.23-7.75-30.47-10.89c-9.55-2.93-18.92-6.12-28.58-8.65
						c-3.59-0.94-10.85-2.97-12.62-6.59c-3.95-8.1,12.76-10.35,17.39-10.51c5.86-0.21,11.68,0.76,17.52,0.99
						c8.27,0.33,16.54,0.34,24.79,1.07c12.28,1.09,23.96,3.76,35.96,6.26c5.76,1.2,11.64,1.86,17.17,3.98
						c7.51,2.89,13.28,6.37,17.01,13.91c3.09,6.24,4.38,13.29,5.06,20.17c0.49,5.03,0.97,10.4,0.52,15.44
						C384.57,524.97,385.18,529.19,383.33,531.79z"/>
				</g>
			</g>
			<path class="st17" d="M351.7,542.91c-3.97,19.93-16.16,96.6-16.16,96.6s-9.38,16.44-22.91-0.67c0,0-2.44-71.28-2.28-79.6
				c0.06-3.34,0.77-8.32,1.83-14.04c1.32,3.05,2.64,6.09,5.25,7.42c1.34,0.69,2.5,0.56,3.67,0.18c1.57-0.52,3.14-1.5,5.13-1.57
				c1.86-0.09,3.24,1.13,5.12,0.95c4.17-0.42,4.54-3.81,7.72-5.5c1.71-0.9,2.44,0.35,4.01-0.09c2.09-0.61,3.76-2.03,5.79-2.76
				C349.86,543.48,350.79,543.19,351.7,542.91z"/>
			<path class="st21" d="M361.44,471.69c-0.9,1.42-3.03,0.15-3.03,0.15s1.53,1.96-0.93,2.81c-2.47,0.84-10-3.43-14.33-4.09
				c-4.33-0.66-19.81,3-19.81,3s9.66,5.94,9.27,9.19c-0.39,3.23-4.9-0.01-15.73-2.55c-9.61-2.26-15.62-7.4-16.84-8.51
				c-4.36-0.57-13.42-1.75-22.55-4.94c-0.01,0.03-0.02,0.05-0.03,0.07c-0.79,1.97-6.38,5.18-14.95,10.24
				c3.73,0.21,7.05,0.59,9.17,1.28c1.82,0.58,4.03,1.85,6.24,3.49c15.8,2.39,32.1,5.54,43.4,9.45c11.14,3.85,22.56,8.4,29.07,18.76
				c1.76,2.81-1.04,5.12,0.19,8.12c-0.72-0.31-0.33,0.11,1.35,0.04c5.54-0.22-12.21,1.79-17.57,2.93
				c-12.4,2.62-25.24,6.91-37.97,7.47c-13.57,0.58-81.01-18.22-81.01-18.22s1.87-2.27,4.95-5.79l0.01-0.01
				c1.96-2.25,4.42-5.01,7.22-8.01c1.84-1.97,3.8-4.04,5.86-6.13c1.85-1.89,3.76-3.8,5.72-5.66c0-0.01,0.01-0.01,0.01-0.01
				c2.52-2.41,5.1-4.76,7.67-6.93c0.36-0.31,0.72-0.62,1.08-0.91c7.05-5.86,13.91-10.28,19.04-10.83c0,0,3.16-0.06,8.4-0.14
				c0.75-0.01,1.54-0.02,2.38-0.03c5.98-0.07,13.99-0.17,22.87-0.22c3.74-0.02,7.63-0.03,11.6-0.04
				c11.26-0.01,23.06,0.06,33.38,0.29c1.81,0.04,3.58,0.08,5.29,0.14h0.01c2.49,0.07,4.86,0.16,7.07,0.26
				c0.7,0.03,1.38,0.06,2.04,0.09c0.03,0,0.06,0.01,0.09,0.01c-0.03,0.24-0.16,0.32-0.29,0.32c-0.04,0.05-0.09,0.09-0.15,0.14
				C360.48,467.63,362.67,469.77,361.44,471.69z"/>
			<path class="st22" d="M310.65,458.86c-3.52-0.85-7.01-3.14-10.17-4.82c-6.31-3.36-10.32-8.57-14.98-14.11
				c-7.94-9.43-14.42-21.12-18.99-32.56c-1.5-3.75-2.23-10.17-4.83-12.98c-2.07-2.23-4.93-2.09-7.81-0.47
				c-5.68,3.2-5.9,13.5-4.46,19.13c2.57,10.05,5.43,19.28,11.22,28.07c3.08,4.68,7.41,8.38,11.3,12.35
				c4.01,4.1,7.71,8.24,12.47,11.55c7.08,4.92,16.2,10.63,24.77,11.54c3.01,0.32,6.65,0.69,8.05-2.45
				c1.5-3.37,0.66-12.76-1.58-15.22C313.97,459.35,312.31,459.27,310.65,458.86z"/>
			<path class="st23" d="M262.61,395.75c-3.04,2.58-7.31,2.15-10.91,3.82c-1.58,0.73-3.09,2.34-4.82,2.7
				c-3.02,0.62-1.78,0.81-2.68-1.81c-2.77-8.07-2.51-18.2-4.33-26.64c-5.8-26.98-18.51-48.46-18.52-48.47
				c0.58,0.98,5.11,2.36,6.28,3.15c2.29,1.53,4.36,3.4,6.28,5.38c4.24,4.39,7.69,9.52,10.77,14.77
				c6.47,11.02,10.53,22.75,15.6,34.28c0.93,2.1,2.34,4.04,3.22,6.17C264.79,392.22,265.08,393.65,262.61,395.75z"/>
			<path class="st24" d="M351.41,539.96c-0.15,1.53-0.43,3.08-1.29,3.97c-1.59,1.65-3.75,0.1-5.31,1.53
				c-0.78,0.72-1.66,1.77-2.85,1.57c-1.19-0.2-1.53-1.06-2.89-0.35c-3.18,1.69-3.56,5.08-7.73,5.5c-1.88,0.19-3.25-1.03-5.12-0.95
				c-1.99,0.07-7.77,0.05-9.35,0.57c-1.17,0.38-6.19,0.24-7.54-0.44c-1.91-0.97-1.72-2.87-1.24-4.65c0.15-0.57,1.06-6.21,0.57-6.3
				c-2.84-0.56,0.59-1.72,1.75-2.02c-0.97,0.05-2.68,0.06-3.48-0.55c0.58-0.39,1.32-0.42,1.92-0.79c-5.03,0.13-9.72-0.99-14.66-1.71
				c-5.92-0.86-11.69-1.79-17.68-1.58c-6.95,0.24-13.78,1.21-20.58,2.52c-7.75,1.49-15.49,3.2-23.35,4.07
				c-5.9,0.65-12.72,1.16-18.22-1.53c-13.68-6.68-16.63-11.75-21.02-18.38c-0.07-0.1-0.13-0.22-0.17-0.34
				c-1.53-3.84,7.78-15.33,17.21-25.61c8.96-9.76,18.02-18.43,18.02-18.43s4.79,0.38,12.33,1.15c0.29,0.02,0.59,0.05,0.9,0.09
				c1.62,0.16,3.36,0.34,5.19,0.54c3.66,0.4,7.72,0.86,12.01,1.39c6.01,0.73,12.5,1.61,19.07,2.61c15.8,2.39,32.1,5.54,43.4,9.45
				c11.34,3.92,26.87,9.68,30.49,22.53c0.72,2.54,1.05,5,1.11,7.64c0.11,5.14-0.31,10.41-1.2,15.46
				C351.56,537.75,351.52,538.85,351.41,539.96z"/>
			<path class="st25" d="M216.29,287.65c0.44-1.28-4.87-11.21-0.59-11.05C219.84,276.75,218.12,284.32,216.29,287.65z"/>
			<path class="st26" d="M176.21,302.21c0.11,0.66,0.21,1.33,0.38,1.98c0.26,1.01,0.67,1.97,0.93,2.98c0.24,0.9,0.35,1.84,0.33,2.77
				c-0.03,0.93-0.13,2.02,0.58,2.62c0.45,0.38,1.1,0.41,1.67,0.28c1.92-0.44,3.09-2.56,3.06-4.53c-0.03-1.97-1-3.8-2.05-5.46
				c-0.5-0.79-1.05-1.58-1.78-2.18c-0.59-0.48-2.11-1.31-2.91-0.81C175.61,300.38,176.06,301.25,176.21,302.21z"/>
			<path class="st27" d="M170.22,277.31c0,0,3.37,16.39,8.44,22.72c5.09,6.29,14.1,16.46,24.87,13.93
				c6.6-1.53,14.56-8.39,14.56-22.89c0.04-7.1-0.66-12.82-1.65-17.34c-0.02-0.12-0.04-0.24-0.07-0.34
				c-0.07-0.43-0.17-0.85-0.27-1.26c-0.12-0.49-0.23-0.97-0.35-1.43c-0.04-0.15-0.09-0.32-0.13-0.49c-0.2-0.71-0.4-1.38-0.63-2.02
				c-1.93-5.96-4.04-8.53-4.04-8.53s-2.72-9.93-19.87-7.26C173.88,255.05,170.22,277.31,170.22,277.31z"/>
			<path class="st25" d="M186.62,276.3c1.32,0.08,2.66-0.29,3.97-0.44c1.29-0.14,2.58-0.29,3.86-0.49c0.95-0.15,2.11-0.42,2.63-1.31
				c1.06-1.81-1.22-2.57-2.56-2.67c-1.53-0.12-3.09-0.29-4.62-0.03c-2.23,0.37-4.7,1.16-4.56,3.82
				C185.39,275.88,185.97,276.26,186.62,276.3z"/>
			<path class="st25" d="M211.05,272.2c0.72,0.63,1.8,0.52,2.66,0.38c0.81-0.13,1.6-0.28,2.38-0.46c-0.12-0.49-0.23-0.97-0.35-1.43
				c-0.04-0.15-0.09-0.32-0.13-0.49c-0.2-0.71-0.4-1.38-0.63-2.02c-0.84,0.26-1.67,0.62-2.48,0.96
				C211.38,269.64,209.63,270.94,211.05,272.2z"/>
			<path class="st9" d="M198.4,295.4c0.67-1.42,2.85-0.77,3.96-0.54c1.29,0.26,2.81,0.75,4.12,0.39c0.93-0.25,1.46-0.49,2.42-0.52
				c0.76-0.02,1.36,0.85,1.33,1.54c-0.02,0.51-0.27,0.99-0.59,1.39c-0.82,1.05-2.09,1.67-3.39,1.98c-2.1,0.5-4.65,0.37-6.37-1.06
				C199.11,297.94,197.88,296.51,198.4,295.4z"/>
			<path class="st28" d="M193.49,316.17c3.94,2.03,8.73,2.96,11.85,3.63c-0.18-1.17-0.07-2.41,0.02-3.61
				c0.1-1.27,0.14-2.53,0.24-3.8c-0.76,0.08-4.02,0.3-8.35-1.03c-2.29-0.7-4.33-2.35-5.95-1.4
				C189.68,310.91,190.66,314.69,193.49,316.17z"/>
			<path class="st27" d="M175.57,280.16c0,0-3.95-6.13-7.35-2.54c-3.41,3.59,0.43,11.49,3.5,13.05c3.08,1.56,3.59,1.96,3.64,1.61
				C175.4,291.94,175.57,280.16,175.57,280.16z"/>
			<g>
				<g>
					<path class="st28" d="M203.61,279.36c1.41,1.64,2.55,3.59,3.51,5.53c0.24,0.48,1.12,1.94,0.68,2.31
						c-0.5,0.41-2.99-0.89-3.44-1.12c-0.68-0.34-1.29,0.68-0.6,1.03c1.29,0.65,5.92,2.68,5.35-0.43c-0.26-1.41-1.16-2.84-1.85-4.06
						c-0.82-1.43-1.72-2.85-2.8-4.1C203.96,277.94,203.12,278.78,203.61,279.36L203.61,279.36z"/>
				</g>
			</g>
			<g>
				<g>
					<path class="st29" d="M193.43,293.03c0.95-0.79,2.27-0.8,3.29-0.15c0.76,0.48,1.46-0.72,0.7-1.2c-1.58-1-3.55-0.81-4.98,0.37
						C191.75,292.62,192.74,293.6,193.43,293.03L193.43,293.03z"/>
				</g>
			</g>
			<g>
				<g>
					<path class="st29" d="M213.14,291.7c0.72-0.47,1.63-0.42,2.26,0.18c0.65,0.62,1.64-0.37,0.99-0.99
						c-1.06-1.01-2.7-1.2-3.95-0.39C211.69,290.99,212.39,292.19,213.14,291.7L213.14,291.7z"/>
				</g>
			</g>
			<path class="st26" d="M172.95,275.23c0.04-2.86,0.3-5.88,1.95-8.21c1.65-2.33,5.16-3.57,7.46-1.89
				c-0.81-1.16,0.03-2.75,0.95-3.83c2.85-3.37,6.94-6.07,11.35-5.9c1.97,0.08,3.87,0.72,5.68,1.5c4.18,1.8,8.11,4.39,12.6,5.13
				c4.49,0.74,9.93-1.17,11.14-5.56c3.15,6.83,0.52,15.78-5.81,19.83c-4.95,3.17-11.09,3.25-16.74,2.61
				c-2.25-0.25-4.46-0.84-6.7-1.01c-1.91-0.14-4.12,0.12-5.74-1.11c0.49,0.37,0.18,1.22-0.36,1.51c-0.54,0.29-1.2,0.24-1.8,0.36
				c-1.45,0.28-2.57,1.57-2.93,2.99c-0.36,1.43-0.06,2.96,0.54,4.3c0.21,0.46,0.45,1.02,0.17,1.44c-0.15,0.22-0.41,0.34-0.64,0.47
				c-1.06,0.6-1.79,1.73-1.9,2.94c-0.61-0.79-1.24-1.6-2.07-2.15c-2.07-1.37-4.73,0.93-6.13-1.43
				C172.3,284.41,172.9,278.38,172.95,275.23z"/>
			<path class="st17" d="M192.07,340.51L192.07,340.51c9.42-0.5,16.84-7.93,16.56-16.6l-1.15-35.98l-34.13,1.8l1.15,35.98
				C174.78,334.38,182.64,341.01,192.07,340.51z"/>
			<path class="st30" d="M176.88,301.78c0.19,4.05,0.72,6.81,2.68,10.53c1.8,3.42,4.58,6.31,7.87,8.33c2.97,1.82,7.33,2.3,9.03,5.67
				c0.64,1.27,0.24,3.86,1.27,4.74c1.14,0.98,4.23-0.03,5.62-0.29c1.66-0.31,3.54-0.32,4.4-1.91c0.79-1.46,1.39-4.86,1.22-6.52
				c-0.2-1.96-2.13-3.13-3.5-4.28c-4.33-3.61-9.56-5.93-14.06-9.29C187.41,305.77,182.98,303.02,176.88,301.78z"/>
			<path class="st30" d="M217.93,317.19c-2.41,0.92-4.78,1.4-7.13,1.52c-4.15,0.2-8.28-0.75-12.64-2.51
				c-1.97-0.79-3.99-1.75-6.08-2.84c-2.89-1.52-7.34-4.58-11.09-8.35l-3.67-23.92c7.12,0.23,24.9,5.45,28.8,6.7
				c0.55,0.17,1.09,0.35,1.65,0.54l2.97,27.4c0.01,0.05,0.01,0.1,0.02,0.15c1.29,0,1.9,0.02,1.9,0.02L217.93,317.19z"/>
			<path class="st31" d="M229.17,246.56c4.89-3.22,8.35,5.51,9.6,8.29c0.78,1.73-2.01,3.15-2.87,1.52c0.27,0.51,0.54,1.01,0.8,1.52
				c0.92,1.74,2.75,4.16,1.31,6.17c-2.8,3.9-9.01-1.61-10.57-4.15C223.9,254.14,225.21,249.16,229.17,246.56z"/>
			<path class="st32" d="M233.35,252.41c0,1.7,0.54,3.31,1.57,4.68c1.18,1.55-1.33,3.58-2.51,2.02c-1.56-2.06-2.32-4.3-2.31-6.86
				C230.1,250.31,233.35,250.48,233.35,252.41z"/>
			<path class="st17" d="M188.24,237.33c38.06-7.58,41.16,23,41.33,24.33c1.46,11.26,4.68,23.35,1.94,34.66
				c-1.46,6.02-3.48,12.05-7.27,17.03c-2.56,3.37-6.66,5.34-10.07,7.85c-4.15,3.05-7.14,2.81-11.96,1.61
				c-4.73-1.17-17.31-8.22-19.4-9.46c-3.99-2.36-7.43-6.97-9.92-10.88c-5.28-8.32-7.86-18.3-10.37-27.72
				C158.08,258.02,147.23,245.5,188.24,237.33z"/>
			<path class="st17" d="M162.98,285.31c4.32-3.86,9.23,4.2,10.93,6.75c1.06,1.59-1.47,3.38-2.59,1.91c0.35,0.46,0.7,0.92,1.06,1.38
				c1.21,1.57,3.43,3.69,2.34,5.86c-2.13,4.24-9.22-0.28-11.2-2.55C159.02,293.52,159.48,288.44,162.98,285.31z"/>
			<path class="st33" d="M217.45,278.25c0.39,1.86,1.78,3.14,3.11,2.86c1.33-0.28,2.09-2.02,1.69-3.89
				c-0.39-1.86-1.78-3.14-3.11-2.86C217.82,274.65,217.06,276.39,217.45,278.25z"/>
			<path class="st33" d="M189.74,281.91c0.39,1.86,1.78,3.14,3.11,2.86c1.33-0.28,2.09-2.02,1.69-3.89
				c-0.39-1.86-1.78-3.14-3.11-2.86C190.11,278.3,189.35,280.04,189.74,281.91z"/>
			<path class="st34" d="M205.1,292.02c2.17-0.14,4.34-0.22,4.36-3.12c0-1.13-0.86-2.62-1.25-3.65c-0.83-2.22-1.2-2.83-2.07-5.04
				c-0.7-1.79,2.22-3.25,2.93-1.44c1.02,2.57,1.51,3.56,2.48,6.15c0.65,1.74,1.53,3.61,1.17,5.53c-0.66,3.59-4.6,4.39-7.88,4.59
				C202.75,295.17,203.02,292.15,205.1,292.02z"/>
			<path class="st35" d="M207.47,266.83c3.93-1.11,8.05-1.59,12.15-1.08c1.75,0.22,5.53,0.93,5.45,3.23
				c-0.08,2.3-3.49,2.11-5.16,2.14c-3.99,0.09-12.14-1.7-12.2-1.74C206.38,269.25,205.93,267.26,207.47,266.83z"/>
			<path class="st35" d="M191.49,269.2c-4.03-0.56-8.17-0.46-12.16,0.62c-1.7,0.46-5.35,1.69-4.98,3.96
				c0.37,2.27,3.73,1.6,5.39,1.41c3.96-0.46,11.8-3.38,11.85-3.42C192.88,271.45,193.07,269.41,191.49,269.2z"/>
			<path class="st35" d="M163.16,282.88c3.63,2.39,4.95-0.11,6.63-3.56c1.26-2.6,1.99-5.12,1.75-7.93
				c-0.33-3.93-2.64-7.42-3.09-11.27c2.1-0.12,4.41-0.74,6.96-1.48c10.7-3.12,10.86,8.98,19.25,11.32c3.05,0.85,5.97,0.43,8.91-0.71
				c3.96-1.54,4.53-5.8,11.36-3.01c2.01,0.82,3.58,2.83,5.35,4c4.56,3,9.37,3.16,14.12-0.07c0.88-0.6,0.74-1.61,0.18-2.14
				c4.62-1.61,9.22-5.63,7.81-10.57c-0.57-2-1.73-2.07-2.93-3.43c-1.54-0.25-2.22-1.15-2.06-2.69c-0.65-1.24-0.72-2.52-0.21-3.84
				c-0.04-0.82,0.07-1.68-0.01-2.52c-0.4-4.32-3.11-10.53-7.7-12.34c-4-1.58-8.65,0.23-12.66-1.96c-2.55-1.39-4.24-4.56-6.73-6.19
				c-4.73-3.1-10.96-4.27-16.58-1.98c-2.54,1.03-4.45,2.66-6.1,4.68c-2.1,2.56-1.98,3.97-5.5,4.95c-3.52,0.98-3.34,0.03-6.55-0.91
				c-8.9-2.59-19.07,4.34-15.76,12.09c-5.34,0.09-7.45,6.04-5.25,9.94C145.16,262.18,153.86,276.74,163.16,282.88z"/>
			<g>
				<g>
					<path class="st36" d="M185.25,248.85c6.46-4.34,11.29,3.25,17.36,4.11c1.95,0.28,3.66-0.16,5.51-0.69
						c4.9-1.42,8.09-0.39,11.58,3.28c0.35,0.37,0.9-0.19,0.55-0.55c-1.97-2.07-4.06-4.15-7.05-4.46c-3.07-0.32-5.83,1.66-8.85,1.76
						c-7.09,0.24-12.27-8.98-19.5-4.13C184.44,248.45,184.83,249.13,185.25,248.85L185.25,248.85z"/>
				</g>
			</g>
			<g>
				<g>
					<path class="st36" d="M215.38,247.35c2.57,0.73,5.03,1.68,7.41,2.89c0.45,0.23,0.85-0.45,0.4-0.68
						c-2.44-1.24-4.97-2.23-7.6-2.97C215.11,246.46,214.9,247.22,215.38,247.35L215.38,247.35z"/>
				</g>
			</g>
			<g>
				<g>
					<path class="st36" d="M193.22,242.92c-3.38,0.21-6.57,1.14-9.52,2.8c-0.44,0.25-0.04,0.92,0.4,0.68c2.84-1.6,5.87-2.5,9.12-2.7
						C193.72,243.67,193.72,242.88,193.22,242.92L193.22,242.92z"/>
				</g>
			</g>
			<g>
				<g>
					<path class="st36" d="M157,257.93c-2.63,4.15-2.42,9.24,0.71,13.05c0.32,0.39,0.87-0.17,0.55-0.55
						c-2.91-3.55-3.02-8.27-0.59-12.11C157.94,257.9,157.26,257.5,157,257.93L157,257.93z"/>
				</g>
			</g>
			<g>
				<g>
					<path class="st36" d="M159.07,259.6c-0.62,1.84-0.65,3.75-0.04,5.6c0.16,0.48,0.91,0.27,0.76-0.21
						c-0.57-1.73-0.54-3.46,0.04-5.18C159.99,259.33,159.23,259.13,159.07,259.6L159.07,259.6z"/>
				</g>
			</g>
			<g>
				<g>
					<path class="st36" d="M205.14,263.06c3.29-0.58,6.56-1.13,9.89-0.62c2.67,0.41,4.95,1.8,7.58,2.3
						c2.41,0.46,4.49,0.06,6.33-1.59c0.38-0.34-0.18-0.89-0.55-0.55c-4.16,3.75-9.06-0.39-13.29-1.02
						c-3.39-0.5-6.83,0.14-10.16,0.73C204.43,262.39,204.64,263.14,205.14,263.06L205.14,263.06z"/>
				</g>
			</g>
			<g>
				<g>
					<path class="st34" d="M165.92,289.2c-0.01,0.02-0.01,0.03-0.02,0.05c-0.21,0.06-0.42,0.11-0.63,0.17
						c2.26,1.58,4.02,3.7,5.05,6.27c0.22,0.54,1.02,0.35,0.89-0.25c-0.67-3.08-5.32-2.18-4.8,0.93c0.1,0.59,0.99,0.34,0.89-0.25
						c-0.32-1.91,2.61-2.29,3.02-0.44c0.3-0.08,0.59-0.16,0.89-0.25c-1.13-2.81-3-5.09-5.48-6.82c-0.2-0.14-0.52-0.04-0.63,0.17
						c-0.04,0.07-0.08,0.14-0.12,0.21c-0.08,0.14-0.09,0.33,0,0.47c0.05,0.07,0.09,0.13,0.14,0.2
						C165.46,290.15,166.26,289.69,165.92,289.2L165.92,289.2z"/>
				</g>
			</g>
			<path class="st37" d="M279.62,467.48c-2,1.42-4.33,2.48-6.08,4.07c-2.42,2.21-3.35,5.39-5.43,7.86
				c-2.42,2.87-5.83,5.41-9.17,7.09c-1.45,0.73-3.21,1.72-4.8,1.99c-1.37,0.23-2.78-0.18-4.16-0.06c-4.12,0.36-7.96,2.78-11.9,3.9
				c-4.44,1.26-9.1,2.53-13.2,4.69c-5.8,3.06-8.93,6.06-12.75,11.43c-1.82,2.56-3.48,7.57-6.82,9.98c-2.99,2.16-7.78,3.39-9.3,4.12
				c-2.61,1.26-3.9-1.4-5.5-2.95c-2.26-2.2-3.09-6.84-5.32-9.14c-11.75-12.12-17.9-27.11-26.54-41.56
				c-6.12-10.24-8.47-22.09-13.56-32.78c-4.61-9.68-8.9-16.16-10.37-27.3c-3.03-22.93,1.99-46.84,13.44-66.89
				c0.46-0.8,1.16-1.62,2.04-2.44c6.49-6,22.71-11.99,22.71-11.99c1,0.29,1.98,0.57,2.94,0.83c6.35,1.7,12.89,2.87,19.48,3.02
				c3,0.07,5.97-0.06,8.93-0.52c2.15-0.33,3.78-1.32,4.97-3.16c0.44-0.68,0.51-0.92,0.58-1.73c0.08-0.92-0.16-0.89,0.58-1.26
				c0.38-0.19,1.21-0.11,1.74-0.24c2.99-0.75,6.77-0.33,9.71,0.61c11.1,3.54,16.6,20.92,19.4,30.85c2.51,8.9,4.86,17.96,7.86,26.72
				c5.56,16.23,10.96,33.18,17.66,48.84c0.97,2.26,1.36,5.53,3.01,7.41c1.81,2.06,4.15,2.15,5.96,4.28
				c2.08,2.44,2.46,6.52,4.06,9.32c3.48,6.1,7.2,8.79,0.88,14.19C280.34,466.95,279.99,467.22,279.62,467.48z"/>
			<g>
				<path class="st22" d="M361.44,471.69c-0.9,1.42-3.03,0.15-3.03,0.15s1.53,1.96-0.93,2.81c-2.47,0.84-10-3.43-14.33-4.09
					c-4.33-0.66-19.81,3-19.81,3s9.66,5.94,9.27,9.19c-0.39,3.23-4.9-0.01-15.73-2.55c-9.61-2.26-15.62-7.4-16.84-8.51
					c-0.16-0.15-0.23-0.22-0.23-0.22c-1.62-1.58-0.9-3.68,0.79-5.76c2.87-3.52,8.52-6.99,10.09-7.7c0.94-0.43,2.91-0.69,5.39-0.89
					c4.07-0.32,9.52-0.49,14.03-0.98c7.25-0.79,27.51,3.45,29.53,8.53c0.38,0.95,0.48,1.49,0.44,1.78
					c-0.03,0.24-0.16,0.32-0.29,0.32c-0.17,0.02-0.34-0.06-0.42-0.1c0.05,0.05,0.15,0.13,0.27,0.24
					C360.48,467.63,362.67,469.77,361.44,471.69z"/>
				<path class="st38" d="M337.56,463.43c-0.95-0.03-0.83,1.45,0.11,1.47c7.43,0.21,14.35,2.49,20.4,6.7
					c0.77,0.53,1.74-0.61,0.96-1.14C352.65,466.01,345.41,463.65,337.56,463.43z"/>
				<path class="st38" d="M359.99,466.45c-0.03,0.13-0.09,0.24-0.2,0.33c-0.04,0.05-0.09,0.09-0.15,0.14
					c-0.25,0.17-0.57,0.21-0.87,0c-0.27-0.19-0.55-0.38-0.83-0.56c-5.84-3.85-12.47-5.94-19.57-6.14c-0.94-0.02-1.05-1.5-0.11-1.47
					c7.85,0.22,15.09,2.58,21.48,7.03C360,465.96,360.07,466.22,359.99,466.45z"/>
			</g>
			<g>
				<path class="st22" d="M287.55,504.69c-0.46-0.03-0.78-0.09-0.78-0.09c-0.04,0.17-0.09,0.32-0.15,0.47
					c-1.35,3.62-5.61,1.14-7.93-0.57c-0.86-0.63-1.44-1.15-1.53-1.23c0.3,0.72,0.32,1.33,0.07,1.77c-0.59,1.12-2.85,1.15-6.28-1.09
					c-4.81-3.14-9.28-2.54-18.96-4.34c-7.21-1.35-13.96-3.92-16.95-5.15c-0.33-0.14-0.62-0.25-0.84-0.34
					c-0.49-0.21-0.76-0.33-0.76-0.33c-0.4-0.56-0.34-1.78-0.03-3.33c0.98-4.92,4.58-13.1,4.58-13.1s1.03-0.06,2.74-0.15
					c0.28-0.02,0.59-0.03,0.92-0.05c1.69-0.07,3.85-0.16,6.26-0.22c4.52-0.11,9.9-0.15,14.6,0.13c3.73,0.21,7.05,0.59,9.17,1.28
					c1.82,0.58,4.03,1.85,6.24,3.49c4.54,3.37,9.18,8.4,11.02,12.83c1.51,3.65-0.91,3.43-1.43,3.34c-0.03,0-0.06,0-0.09-0.01
					c0,0,2.17,2.43,3.06,4.59C291.36,504.72,288.87,504.79,287.55,504.69z"/>
				<path class="st38" d="M261.69,493.27c-0.94-0.31-1.32,1.2-0.39,1.5c7.39,2.43,11.28,4.22,15.91,10.23
					c0.59,0.76,1.95-0.09,1.36-0.85C273.67,497.79,269.49,495.83,261.69,493.27z"/>
				<path class="st38" d="M267.08,488.45c-0.99-0.38-1.31,1.23-0.33,1.6c7.74,2.98,14.31,7.97,19.38,14.68c0.64,0.85,2,0,1.36-0.85
					C282.13,496.79,275.25,491.59,267.08,488.45z"/>
				<path class="st38" d="M268.89,482.49c-0.93-0.35-1.26,1.17-0.33,1.51c7.34,2.74,13.54,7.38,18.3,13.66
					c0.6,0.8,1.91-0.01,1.3-0.82C283.14,490.21,276.64,485.38,268.89,482.49z"/>
			</g>
			<g>
				<path class="st16" d="M364.75,651.9c-0.86,1.27-60.91,12.78-61.57,10.9c-3.46-9.7,0.08-24.76,1.72-30.68
					c0.41-1.53,1.66-2.66,3.21-2.94c1.64-0.3,4.15-0.78,7.69-1.5c7.78-1.58,13.57,3.31,13.57,3.31s0.41,0.37,1.14,0.96
					c0.46,0.36,1.07,0.81,1.78,1.29c1.31,0.88,3,1.89,5.01,2.79c0.66,0.3,1.37,0.58,2.09,0.82c1.71,0.63,3.57,1.13,5.55,1.37
					c9.04,1.16,16.39,1.03,18.21,5.84C364.97,648.86,365.6,650.64,364.75,651.9z"/>
				<g>
					<path class="st17" d="M333.9,632.59c0,0,27.03,18.55,34.29,22.04c7.26,3.49,24,8.05,24.75,10.21
						c0.75,2.17-2.04,7.74-13.69,8.44c-11.65,0.7-40.71-7.13-44.98-7.97c-4.27-0.85-29.64-3.12-29.31-5.06
						c0.33-1.94,7.93-27.08,7.88-29.67C312.56,614.52,325.51,614.92,333.9,632.59z"/>
					<g>
						<path class="st18" d="M339.1,623.59c0.79,0.4,20.76,24.15,31.14,29.67c10.38,5.53,16.79,4.25,21.02,8.22
							c4.24,3.97,2.53,8.63,2.53,8.63s-26.74,3.32-45.51,0.07c-18.77-3.26-22.82-11.4-28.73-13.22c-5.91-1.82-14.75-1.41-15.59-3.58
							c-0.84-2.18,3.49-25.67,5.97-29.63c2.48-3.96,6.01,5.18,9.47,8.45C322.88,635.46,328.51,618.18,339.1,623.59z"/>
					</g>
					<g>
						<path class="st19" d="M299.13,661.35c0,0-0.27-6.24,3.07-11.35c3.35-5.12,23.54,12.65,44.39,18.28
							c20.85,5.63,41.89,0.48,41.89,0.48s1.02,4.71-3.17,6.83c-4.19,2.12-17.91,1.39-26.71,0.81
							C349.82,675.82,299.13,661.35,299.13,661.35z"/>
					</g>
					<g>
						<path class="st20" d="M394.37,665.92c0,0-2.06-4.09-6.97,1.06c-4.91,5.15-8.21,6.41-18.27,6.86
							c-10.05,0.45-15.97,0.37-27.22-2.59c-11.25-2.96-30.57-7.02-34.84-8.52c-4.26-1.5-7.99-2.17-7.99-2.17l-0.28,2.92
							c0,0,14.7,4.39,29.06,7.67c14.37,3.27,60.79,14.13,66.65,0.29C395.6,668.88,394.37,665.92,394.37,665.92z"/>
					</g>
					<g>
						<path class="st18" d="M348.29,648.74c0,0-13.14-14.8-18.34-17.65c-5.2-2.86-7.46-12.19-7.31-13.75
							c0.15-1.56,6.27-6.32,16.98-4.04c10.71,2.28,1.98,12.88,2.63,16.13c0.65,3.24,5.07,7.09,9.56,11.53
							c4.49,4.44,5.7,6.52,5.2,6.83C356.51,648.08,348.29,648.74,348.29,648.74z"/>
					</g>
					<g>
						<path class="st20" d="M369.57,653.2c0,0-8.17-1.76-11.02,0.15c-2.85,1.91-13.02,7.47-18.62,8.96
							c-5.61,1.49-8.32,0.23-8.32,0.23s7.83-0.02,13.29-6.1c5.45-6.08,12.8-11.27,14.74-11.45
							C361.56,644.81,369.57,653.2,369.57,653.2z"/>
					</g>
					<g>
						<path class="st19" d="M342.02,639.5c2.48-1.05,5.06-1.8,7.74-2.05c1.9-0.18,4.52-0.58,6.04,0.81
							c1.17,1.08-0.27,3.12-1.46,2.03c-1.27-1.17-4.3-0.41-5.84-0.15c-1.88,0.32-3.67,0.89-5.43,1.64
							C341.59,642.41,340.53,640.13,342.02,639.5z"/>
					</g>
					<g>
						<path class="st19" d="M334.16,631.67c2.6-1.13,5.3-1.79,8.14-1.85c2.02-0.04,4.71-0.19,5.86,1.75
							c0.83,1.39-1.45,2.42-2.27,1.05c-0.49-0.83-4.75-0.26-5.53-0.16c-1.8,0.23-3.5,0.76-5.15,1.49
							C333.74,634.59,332.68,632.31,334.16,631.67z"/>
					</g>
				</g>
			</g>
			<path class="st22" d="M174.57,408.01c0.31,0.8,0.58,1.72,0.92,2.74c4.57,13.37,9.79,26.98,20.45,36.77
				c5.65,5.19,33.66,29.22,43.25,29.1c2.74,2.6,0.69,16.57-2.69,17.88c-1.87,0.73-9.01-2.8-10.97-3.5
				c-9.17-3.28-18.53-6.26-27.5-10.27c-15.61-7-36.39-20.16-43.33-36.21c-3.32-7.68-16.08-25.67-6.3-32.71
				c3.88-2.79,9.07-4.42,13.61-5.7c2.48-0.7,5.42-1.63,8.03-1.46C172.86,404.83,173.83,406.08,174.57,408.01z"/>
			<path class="st23" d="M155.4,334.12c-4.77,2.43-10.92,8.63-13.42,13.28c-2.11,3.92-4.18,8.36-4.85,12.74
				c-1.37,8.88-4.57,17.08-4.14,26.53c0.46,10.19,0.54,20.3,1.83,30.44c0.67,5.3,2.28,16.33,8.22,17.96
				c3.39,0.93,9.51-1.04,13.05-1.39c6.99-0.69,9.74-4.37,16.17-6.72c3.97-1.45,10.64-1.25,11.59-6.36
				c0.8-4.32-4.41-10.95-5.56-15.18c-2.55-9.33-2-19.72-3.24-29.44C173.97,367.66,174.07,324.61,155.4,334.12z"/>
			<path class="st34" d="M214.08,308.59c-0.92,0.76-2.52,0.13-3.55,0c-0.77-0.1-1.52-0.2-2.3-0.2c-1.08,0-2.1-0.01-3.12,0.41
				c-0.7,0.29-1.4,0.77-2.05,1.14c-1.06,0.59-1.91,1.24-3.26,0.99c-1.25-0.24-2.12-1.23-2.41-2.17c-1.59-5.12,7.09-6.75,10.46-6.37
				c0.37,0.04,0.75,0.04,1.12,0.12c3.53,0.83,5.22,2.91,5.45,4.05c0.13,0.65,0.3,1.34-0.17,1.88
				C214.19,308.49,214.14,308.55,214.08,308.59z"/>
		</g>
		<path class="st39" d="M251.9,226.99c7.64-23.31,51.47-29.87,97.88-14.65c46.42,15.22,77.85,46.45,70.21,69.76
			c-7.64,23.31-51.47,29.87-97.88,14.65c-11.98-3.93-22.95-8.93-32.52-14.58l-35.18,7.82l14.67-22.85
			C254.77,253.92,247.85,239.34,251.9,226.99z"/>
	</g>
	<g>
		<path class="st40" d="M273.04,149.6c-4.47,9.21,2.8,27.68,13.71,33.05c11.29,5.55,21.62,3.58,33.49,3.58s24.52-0.63,30.85-14.6
			c6.33-13.98,3.71-24.86-5.25-25.39C336.87,145.72,277.26,140.9,273.04,149.6z"/>
	</g>
	<g>
		<g>
			<g>
				<path class="st41" d="M595.2,507.81c2.95,2.62,5.61,5.56,8.73,7.99c2.18,1.69,4.88,3.68,7.79,3.26
					c0.17-0.02,0.27-0.24,0.22-0.39c-1.39-4.34-5.81-6.55-7.31-10.8c-0.14-0.38-0.75-0.22-0.61,0.17c0.78,2.2,2.22,3.8,3.78,5.49
					c0.89,0.96,2.85,2.48,2.98,3.85c0.21,2.21-2.66,0.41-3.68-0.16c-4.41-2.49-7.71-6.54-11.45-9.86
					C595.34,507.09,594.89,507.53,595.2,507.81L595.2,507.81z"/>
			</g>
		</g>
		<g>
			<g>
				<path class="st41" d="M609.36,513.42c1.49,1.01,2.69,2.36,3.96,3.61c0.26,0.26,0.66-0.07,0.5-0.39
					c-0.44-0.87-0.9-1.73-1.43-2.55c-0.22-0.34-0.77-0.03-0.55,0.32c0.53,0.82,0.99,1.68,1.43,2.55c0.17-0.13,0.33-0.26,0.5-0.39
					c-1.31-1.3-2.55-2.67-4.09-3.71C609.35,512.64,609.03,513.19,609.36,513.42L609.36,513.42z"/>
			</g>
		</g>
		<g>
			<path class="st42" d="M536.28,526.58l-14.38,110.04c0,0,5.38,7.49,12.75,3.72l23.49-110.74L536.28,526.58z"/>
			<path class="st42" d="M656.01,504.67l16.9,95.57c0,0,6.68,4.85,12.1-0.2l-9.34-101.41L656.01,504.67z"/>
			<path class="st42" d="M730.15,573.55l14.23,100.04c0,0,7.11,5.33,13.28,0.31l-5.61-102.77L730.15,573.55z"/>
			<path class="st42" d="M850.94,517.84l16.9,95.57c0,0,6.68,4.86,12.1-0.2L870.6,511.8L850.94,517.84z"/>
			<path class="st14" d="M671.66,463.2c-1.47-1.87-18.34-205.83-2.53-211.29c15.81-5.46,79.04,17.77,159.99,14.38
				s98.02-5.52,110.66,3.13c12.65,8.65-20.24,71.98-34.15,117.46c-13.91,45.48-31.62,101.1-31.62,101.1s-20.87-1.39-55.02-2.87
				C784.85,483.65,686.21,481.7,671.66,463.2z"/>
			<path class="st15" d="M671.66,463.2c0,0-137.22-6.48-152.4,0c-15.18,6.48-24.03,19.13,10.75,56.43
				c34.78,37.31,104.97,62.6,180.22,56.91c75.25-5.69,163.78-88.56,163.78-88.56s-24.03-10.09-71.46-8.44
				C774.11,480.55,691.9,478.22,671.66,463.2z"/>
		</g>
		<path class="st43" d="M665.42,214.68c1.04-2.57,2.57-4.6,4.75-6.7c3.33-3.22,5.22-6.19,7.77-10c3.39-5.07,12.2-7.57,17.93-8.68
			c7.79-1.51,15.85-0.81,23.51,1.11c7.15,1.79,14.09,4.52,20.43,8.29c5.66,3.37,12.03,8.31,15.53,14c2.37,3.84,4.86,7.77,5.66,12.29
			c0.32,1.83,0.15,3.93,0.81,5.69c0.63,1.67,1.89,3.03,2.68,4.65c1.27,2.6,2.03,5.78,2.43,8.67c0.66,4.78-1.24,8.09-2.35,12.47
			c-0.93,3.67-0.59,7.86-1.73,11.4c-0.75,2.35-2.72,4.6-4.12,6.63c-3.97,5.75-8.02,9.35-14.42,12.11
			c-4.33,1.87-6.81,6.09-11.58,7.54c-7.1,2.15-13.88,1.32-21.12,0.41c-3.67-0.46-7.16-0.98-10.8-1.14
			c-6.36-0.29-11.89-4.53-17.26-7.49c-4.54-2.5-7.72-5.95-10.93-9.94c-1.73-2.14-2.51-4.78-4.06-6.99
			c-1.23-1.75-2.41-2.94-3.31-4.99c-2.24-5.1-3.7-10.56-4.38-16.08c-0.87-7.17-2.34-13.1-0.01-20.32c1.18-3.66,2.81-6.99,3.85-10.75
			C664.9,216.07,665.14,215.35,665.42,214.68z"/>
		<path class="st43" d="M713.12,198.09c0,0-1.27-24.03,16.89-24.47c13.85-0.34,30.57,11.38,22.64,25.85
			c-6.67,12.18-19.02,12.51-19.02,12.51L713.12,198.09z"/>
		<path class="st44" d="M672.51,325.6c0,0-13.17,81.35-13.78,109.14c-15.3,17.07-29.93,14.41-66.73-0.89c-4.82-2-0.42-19,1.38-18.95
			c12.73,0.39,26.77,11.19,40.52-26.72C641.67,366.77,649.17,338.62,672.51,325.6z"/>
		<path class="st45" d="M756.07,301.23c0,0,23.86,6.8,31.42,11.18c7.57,4.39,2.93,130.96-15.9,164.77s-25.49,40.64-25.49,40.64
			s5.89-24.61-14.96-35.28c-23.96-12.26-60.44-15.03-61.33-20.37c-0.88-5.34-8.35-55.49-9.13-73.38
			c-0.78-17.88,14.55-56.9,18.31-62.93C682.74,319.83,756.07,301.23,756.07,301.23z"/>
		<path class="st46" d="M680.59,322.41l35.86-13.95l20.07-4.36l41.94,3.27l-0.19,12.13c0,0-62.28,21.3-103.36,15.34
			C676.13,327.74,680.59,322.41,680.59,322.41z"/>
		<path class="st14" d="M874.02,487.99c0,0-55.65-8.04-81.57,3.27c-25.93,11.3-20.87,70.11-82.21,85.29c0,0,44.9,0.35,104.97-26.07
			C875.28,524.06,871.49,515.79,874.02,487.99z"/>
		<path class="st47" d="M671.7,326.06c-2.22,1.67-3.91,4.07-5.33,6.06c-1.94,2.72-2.32,6.05-3.57,9.08
			c-1.17,2.84-2.48,5.63-3.51,8.56c-1.11,3.18-1.8,6.31-2.63,9.58c-3.5,13.7-7,27.39-10.5,41.09c-6.13,24.01-8.18,54.17-24.69,73.51
			c-0.37,0.43-0.75,0.87-1.13,1.32c-2.71,3.15,0.26,7.91,4.12,6.63c9.59-3.18,19.64-4.82,29.67-4.8c2.66,0.01,5.36,0.12,7.96-0.51
			c9.17-2.24,9.76-17.5,11.41-24.93c2.25-10.17,4.18-20.39,6.39-30.56c1.01-4.63,1.06-9.51,1.25-14.21
			c0.29-7.01,2.7-12.68,4.98-19.31c2.74-8,3.83-13.94,4.13-22.41c0.23-6.7,0.37-13.61,1.49-20.25c1.28-7.56,3.88-16.34,7.26-23.22
			c0.86-1.74,5.23-7.9,3.86-9.61c-1.6-2.01-7.03,0.68-8.71,1.43C688.51,316.03,673.79,324.5,671.7,326.06z"/>
		<path class="st48" d="M570.92,446.12c0,0-14.57,59.15-20.97,80.25c-6.4,21.1-9.49,29.17-9.49,29.17s-19.68-1.19-26.32-5.69
			C507.5,545.34,570.92,446.12,570.92,446.12z"/>
		<path class="st49" d="M518.57,586.49l0.29,9.31c0,0,22.44-0.96,22.76-1.55c0.32-0.59,0.34-10.05,0.34-10.05L518.57,586.49z"/>
		<path class="st49" d="M467.92,577.22c0,0-14.9,4.92-18.01,9.59c-3.11,4.66,2.9,8.05,20.56,9.78c17.65,1.74,26.57,0,36.03-4.68
			c9.47-4.67,35.46-7.72,35.46-7.72s0.36-17.18-3.16-20.48C535.27,560.43,467.92,577.22,467.92,577.22z"/>
		<path class="st48" d="M742.22,527.3c0,0-12.08,19.21-38.25,16.99c-26.17-2.21-62.53-47.74-88.14-62.29
			c-25.61-14.54-35.73-13.65-46.48,5.98c-10.75,19.63-23.71,48.08-23.71,48.08s13.28-76.83,26.24-91.06
			c12.96-14.23,36.63-5.96,67.01,2.21c30.39,8.17,79.36,28.84,93.92,40.76C745.35,498.26,752.43,504.53,742.22,527.3z"/>
		<path class="st46" d="M522.19,548.61c-0.19-0.08-0.37-0.16-0.55-0.25c-1.17-0.59-2.11-1.57-3.26-2.22
			c-1.13-0.64-2.46-1.26-3.74-0.82c-3.92,1.35-6.96,5.18-10,7.81c-4.64,4.02-9.54,7.78-14.81,10.94
			c-15.41,9.25-22.76,13.75-22.76,13.75s6.4,4.6,20.63,2.54s21.53-7.24,32.69-12.18c12.49-5.53,19.37-3.05,19.37-3.05
			c-0.53-1.56-1.01-3.14-1.44-4.73c-0.32-1.17-0.12-2.56-0.5-3.66c-0.43-1.24-1.99-2.31-2.93-3.15c-0.9-0.81-1.81-0.79-2.9-1.16
			c-1.69-0.58-3.17-1.8-4.85-2.47C525.56,549.33,523.77,549.24,522.19,548.61z"/>
		<path class="st50" d="M686,536.12c-3.36-1.73-6.75-3.39-10.18-4.96c-8.62-3.93-17.54-7.29-26.75-9.56
			c-9.06-2.23-18.51-3.4-27.85-2.94c0.14,0.76,0.34,0.89-0.63,1.12c-0.84,0.2-3.45,0.42-3.9-0.56c0.09,0.69,0.3,1.88-0.24,2.43
			c-0.7,0.71-2.45,0.25-2.97-0.45c0.1,0.49,0.45,1.4,0.04,1.83c-0.46,0.5-2.31-0.17-2.77-0.53c-0.95,0.8-1.68,1.73-2.4,2.72
			c-0.8,1.11-1.87,2.09-2.82,3.07c-2.02,2.09-4.1,4.11-6.16,6.15c-8.45,8.37-15.46,19.24-21.88,29.17
			c-5.71,8.83-11.08,19.08-18.48,26.62c-5.41,5.5-10.87,10.69-15.85,16.67c-2.86,3.43-5.96,6.65-8.86,10.05
			c-3.38,3.96-5.4,8.47-9.12,12.23c-1.73,1.75-11.49-4.17-12.74-4.99c-3.32-2.19-9.29-6.24-10.23-10.36
			c-0.86-3.79,2.8-7.66,4.11-10.97c1.91-4.83,3.88-9.62,5.94-14.39c4.95-11.47,12.46-21.91,17.01-33.48
			c5.74-14.62,14.83-28.8,23.46-41.95c4.61-7.02,8.14-14.67,12.25-21.98c3.58-6.36,8.41-15.71,15.06-19.38
			c15.78-8.71,34.99,7.05,46.62,15.99C644.67,501.53,677.69,531.83,686,536.12z"/>
		<path class="st47" d="M777.66,304.97c1.15,0.58,2.24,1.2,3.25,1.88c7.26,4.88,2.14,11.7,1.42,18.6
			c-0.68,6.52-1.91,12.85-2.98,19.3c-0.4,2.43-0.93,4.83-1.39,7.25c-0.79,4.2-0.71,8.97,0.22,13.1c1.16,5.16,0.99,10.87,1.37,16.14
			c0.81,11.2,1.63,22.39,2.48,33.59c0.51,6.68,0.85,13.35,1.01,19.98c0.14,5.73,2,11.54,2.89,17.21
			c1.89,11.98,2.44,24.81-3.63,35.76c-5.36,9.66-13.75,18-17.98,28.38c-4.5,11.02,3.67,24-0.42,35.19
			c-3.63,9.91-11.21,14.73-19.08,20.59c-4.02,2.99-6.27,8.14-7.75,12.77c-0.95,2.98-1.55,7.34-5.31,7.45
			c-3.43,0.1-4.65-3.18-5.26-5.96c-0.99-4.5-2.42-8.85-3.42-13.35c-1.37-6.24-1.14-12.1-0.89-18.41c0.31-7.68-2.75-15.16-2.56-22.93
			c0.12-4.92,2.05-9.58,4.26-13.9c1.82-3.57,4.42-6.81,6.14-10.43c1.74-3.65,2.61-9.33,1.7-13.26c-0.72-3.13-3.26-5.32-5.71-7.18
			c-1.73-1.31-4.94-2.38-6.12-4.21c-1.01-1.57-0.5-3.83-0.03-5.5c0.78-2.77,1.62-5.32,1.78-8.22c0.36-6.49,0.1-12.77,1-19.26
			c0.33-2.41,0.84-4.72,1.3-7.09c0.49-2.54,0.29-5.35,0.39-7.95c0.23-5.85,0.57-11.7,0.89-17.55c0.66-11.71,1.29-23.43,1.05-35.16
			c-0.17-8.49-1.41-16.76,0.66-25.12c1.7-6.87,4.41-13.5,6.28-20.31c2.36-8.61,4.31-17.2,6.4-25.79c0.68-2.78,1.06-7.13,3.51-9.14
			c3.7-3.03,11.95-1.3,16.32-1.08C765.29,300.62,772.15,302.2,777.66,304.97z"/>
		<path class="st51" d="M504.69,659.22l0.63,9.71c0,0,23.4-1.8,23.71-2.43c0.32-0.63,0-10.5,0-10.5L504.69,659.22z"/>
		<path class="st51" d="M452.91,653.46c0,0-16.84,3.56-19.92,8.54c-3.08,4.98,3.32,8.3,21.82,9.49c18.5,1.19,27.74-0.95,37.47-6.17
			c9.72-5.22,36.76-9.32,36.76-9.32s-0.24-17.95-4.03-21.27C521.21,631.41,452.91,653.46,452.91,653.46z"/>
		<path class="st46" d="M504.14,615.28c0,0-13.04,15.18-28.46,24.42c-15.41,9.25-22.76,13.75-22.76,13.75s6.4,4.6,20.63,2.54
			s24.9-11.79,35.81-17.24s15.65-4.03,15.65-4.03s-2.61-3.32-1.9-5.93C523.82,626.19,504.14,615.28,504.14,615.28z"/>
		<path class="st46" d="M726.58,321.84L726.58,321.84c-9.07,1.81-17.9-4.07-19.71-13.14l-7.53-37.64l32.85-6.57l7.53,37.64
			C741.53,311.2,735.65,320.02,726.58,321.84z"/>
		<path class="st30" d="M734.76,277.1c-5.94-0.25-12.86,1.56-16.16,2.43c-5.58,1.48-11.16,3.49-15.81,7.13
			c-0.07,0.06-0.17,0.13-0.24,0.19l2.8,13.99c7.48,4.44,15.21,6.85,23.71,2.79c2.48-1.18,6.34-3.68,9.65-6.85L734.76,277.1z"/>
		<path class="st46" d="M746.66,253.16c-0.53-8.32-1.71-17.2-4.57-25.07c-2.71-7.46-11.38-11.17-18.55-12.43
			c-8.84-1.56-16.24-9.54-24.26-5.22c-5.64,3.03-13.06,3.49-17.19,9.6c-2.29-0.28-5.9,13.27-4.6,20.75
			c2.38,15.73,3.43,34.47,14.93,46.74c5.1,5.44,11.99,9.41,18.29,11.34c7.2,2.21,11.58,1.44,18.1-2.31
			c7.1-4.09,11.08-11.01,14.92-18.06C747.73,271.13,747.17,261.28,746.66,253.16z"/>
		<path class="st43" d="M696.03,242.15c-5.51-2.82-14.13,2.61-16.91,7.82c-0.12,0.13-0.23,0.28-0.29,0.46
			c-0.22,0.48-0.37,0.96-0.47,1.45c-0.11,0.47,0.1,0.79,0.43,0.97c0.27,0.35,0.76,0.51,1.4,0.16c2.25-1.22,4.02-2.84,6.17-4.17
			c2.94-1.82,5.73-2.09,8.9-3.07C697.81,244.98,698.17,243.24,696.03,242.15z"/>
		<path class="st43" d="M714.78,241.63c3.3-0.41,5.95-1.31,9.38-0.85c2.5,0.33,4.79,1.08,7.33,1.27c0.72,0.05,1.11-0.29,1.21-0.72
			c0.23-0.3,0.3-0.67,0-1.06c-0.29-0.41-0.63-0.79-1.02-1.13c-0.14-0.13-0.29-0.23-0.46-0.3c-4.67-3.61-14.76-5.03-18.63-0.19
			C711.1,240.51,712.14,241.95,714.78,241.63z"/>
		<path class="st46" d="M749.08,243.66c-5.05-2.49-7.11,7.01-7.91,10.06c-0.49,1.9,2.33,2.89,2.91,1.09
			c-0.18,0.56-0.37,1.13-0.55,1.69c-0.63,1.93-2.02,4.71-0.39,6.53c3.18,3.54,8.26-3.12,9.39-5.98
			C755.08,250.57,753.17,245.68,749.08,243.66z"/>
		<g>
			<g>
				<path class="st41" d="M638.47,474.13c3.48-0.11,6.93,2.77,9.67,4.65c2.85,1.96,5.51,3.75,8.69,5.15
					c8.07,3.57,16.98,5.92,23.35,12.37c0.29,0.29,0.74-0.16,0.45-0.45c-6.76-6.84-16.29-9.09-24.75-13.04
					c-5.41-2.53-11.14-9.51-17.4-9.32C638.06,473.51,638.06,474.15,638.47,474.13L638.47,474.13z"/>
			</g>
		</g>
		<g>
			<g>
				<path class="st41" d="M676.9,486.71c3.28,1.41,6.43,3.03,9.28,5.19c0.33,0.25,0.64-0.3,0.32-0.55c-2.85-2.16-6-3.78-9.28-5.19
					C676.85,486,676.52,486.54,676.9,486.71L676.9,486.71z"/>
			</g>
		</g>
		<g>
			<g>
				<path class="st44" d="M735.48,484.94c7.04,4.5,11.22,16.03,3.63,21.98c-0.42,0.33,0.17,0.92,0.59,0.59
					c8.02-6.28,3.67-18.52-3.8-23.29C735.44,483.92,735.02,484.65,735.48,484.94L735.48,484.94z"/>
			</g>
		</g>
		<g>
			<g>
				<path class="st44" d="M740.59,485.98c6.44,5.42,13.93,8.07,22.08,9.76c0.53,0.11,0.75-0.7,0.22-0.81
					c-7.98-1.65-15.39-4.23-21.71-9.54C740.77,485.05,740.17,485.64,740.59,485.98L740.59,485.98z"/>
			</g>
		</g>
		<g>
			<path class="st42" d="M725.04,277.34c0.11-0.05,0.21-0.08,0.31-0.09c0.1,1.06-0.41,2.51-1.05,3.25
				c-0.63,0.73-1.59,3.79-7.11,4.54c-1.9,0.26-4.46-0.53-6.24-1.25c-0.59-0.24-2.82-1.26-2.84-2.04c-0.04-1.11,1.78,0.24,2.2,0.27
				c1.05,0.09,1.57-0.6,2.15-1.41c0.57-0.79,1.08-1.71,2.17-1.66c1.12,0.05,1.33,0.97,1.99,1.62c0.46-0.53,0.34-1.49,1.05-1.92
				c0.56-0.34,1.33,0,1.88,0.21c1.03,0.38,1.89,0.98,3.03,0.53C723.4,279.08,724.28,277.7,725.04,277.34z"/>
		</g>
		<g>
			<g>
				<g>
					<path class="st52" d="M688.75,257.75c1.47-2.6,4.5-3.19,6.9-1.46c0.98,0.7,1.92-0.92,0.94-1.62c-3.22-2.31-7.53-1.28-9.46,2.14
						C686.54,257.85,688.16,258.8,688.75,257.75L688.75,257.75z"/>
				</g>
			</g>
			<g>
				<g>
					<path class="st52" d="M718.86,252.64c1.25-2.28,3.83-2.92,6.03-1.54c1.02,0.64,1.96-0.98,0.94-1.62
						c-3.03-1.91-6.87-0.93-8.59,2.21C716.66,252.75,718.28,253.7,718.86,252.64L718.86,252.64z"/>
				</g>
			</g>
		</g>
		<g>
			<path class="st46" d="M718,487.52c0,0-9.29,4.92-19.6,7.48c-10.31,2.56-15.16,2.22-20.14,5.9c-4.98,3.69-7.74,2.43-6.71-0.34
				c0,0-8.17,8.36-10.26,2.07c0,0-5.21,1.25-4.12-1.94c0.81-2.38,3-5.14,3-5.14s-3.41,1-1.86-3.48
				c2.52-7.28,11.65-16.39,17.53-18.69c8.56-3.35,36.2-3.26,36.2-3.26S719.63,484.88,718,487.52z"/>
			<path class="st42" d="M687.56,488.81c0.99-0.39,1.5,1.2,0.52,1.59c-7.8,3.09-11.88,5.27-16.47,12.04
				c-0.58,0.86-2.1,0.03-1.52-0.83C674.95,494.46,679.33,492.07,687.56,488.81z"/>
			<path class="st42" d="M681.44,483.97c1.04-0.47,1.49,1.24,0.46,1.7c-8.14,3.71-14.89,9.51-19.92,17.07
				c-0.64,0.96-2.16,0.13-1.52-0.83C665.78,493.92,672.85,487.89,681.44,483.97z"/>
			<path class="st42" d="M679.11,477.67c0.98-0.44,1.43,1.18,0.45,1.61c-7.72,3.42-14.11,8.82-18.83,15.9
				c-0.6,0.9-2.06,0.11-1.45-0.8C664.27,486.91,670.95,481.29,679.11,477.67z"/>
		</g>
		<path class="st44" d="M776.06,304.05c14.84-2.01,25.26,18.65,29.33,29.59c4.91,13.2,5.36,26.43,7.22,40.06
			c1.87,13.74,2.27,28.27-3.85,41.09c-1.95,4.08-4.41,7.58-6.35,11.61c-2.53,5.24-3.64,11.14-6.58,16.2
			c-4.59,7.89-12.4,13.05-19.74,18.13c-7.52,5.19-13.97,11.57-21.86,16.18c-10.96,6.39-21.62,8.32-33.72,10.56
			c-2.31,0.43-12.35-14.59-13.37-19.65c-0.49-2.46,7.35-6.83,8.93-7.61c5.09-2.54,9.02-5.1,13.8-8.43c4.7-3.27,9.25-6.45,14.15-9.4
			c8.14-4.9,15.91-13.05,20.67-21.35c3.68-6.42,7.04-15.07,9.04-22.3c2.5-9.03-0.29-19.83-1.04-29.16
			c-0.81-10.13-5.45-21.47-7.09-31.48C764.17,329.41,762.12,305.94,776.06,304.05z"/>
		<path class="st43" d="M735.06,237.4c0.29,0.48,0.56,0.97,0.82,1.47c0.98,1.88,1.78,4.22,3.62,5.45c5.16,3.44,7.84-3.42,8.58-7.43
			c1.09-5.85,1.53-10.79,0.37-16.73c-1.17-6.03-2.6-13.75-8.5-17c-5.8-3.2-13.06-3.23-19.5-3.19c-13.28,0.09-28.64,2.44-38.16,12.63
			c-1.67,1.79-3.11,3.79-4.27,5.95c-0.58,1.08-1.31,2.12-0.76,3.24c1.36,2.78,8.26,3.7,10.89,3.89c8.03,0.57,15.83-2.12,23.81-2.39
			C721.53,222.95,730.27,229.32,735.06,237.4z"/>
		<path class="st53" d="M705.67,252.05c-0.16,2.76,0.03,5.64,0.01,8.44c-0.01,1.81-0.21,3.89,0.29,5.64
			c0.61,2.1,2.07,2.84,4.09,2.23c0.99-0.3,1.67-0.74,2.31-1.6c0.41-0.55,0.64-1.07,1.19-2.81"/>
		<g>
			<g>
				<path class="st44" d="M747.83,323.31c-7.97,18.48-6.2,38.92-10.01,58.32c-0.1,0.53,0.7,0.75,0.81,0.22
					c3.79-19.31,2-39.73,9.92-58.12C748.76,323.24,748.04,322.81,747.83,323.31L747.83,323.31z"/>
			</g>
		</g>
		<g>
			<g>
				<path class="st44" d="M744.9,369.31c-0.28,1.19-0.55,2.37-0.83,3.56c-0.12,0.52,0.68,0.75,0.81,0.22
					c0.28-1.19,0.55-2.37,0.83-3.56C745.82,369.01,745.02,368.78,744.9,369.31L744.9,369.31z"/>
			</g>
		</g>
		<g>
			<g>
				<path class="st44" d="M720.37,574.33c2.61-2.43,5.18-4.9,8.08-6.98c0.43-0.31,0.02-1.04-0.42-0.72
					c-2.96,2.13-5.59,4.64-8.25,7.12C719.38,574.11,719.97,574.7,720.37,574.33L720.37,574.33z"/>
			</g>
		</g>
		<g>
			<g>
				<path class="st44" d="M674.47,356.78c-0.77,4.37-0.78,8.81-1.99,13.1c-1.29,4.58-3.31,8.91-4.61,13.49
					c-0.15,0.52,0.66,0.74,0.81,0.22c1.3-4.58,3.32-8.91,4.61-13.49c1.22-4.31,1.22-8.71,1.99-13.1
					C675.37,356.47,674.56,356.25,674.47,356.78L674.47,356.78z"/>
			</g>
		</g>
		<g>
			<g>
				<path class="st44" d="M675.34,367.19c-0.81,3.36-1.57,6.73-2.94,9.92c-0.21,0.49,0.51,0.92,0.72,0.42
					c1.41-3.26,2.2-6.68,3.03-10.12C676.27,366.89,675.46,366.67,675.34,367.19L675.34,367.19z"/>
			</g>
		</g>
		<g>
			<path class="st46" d="M598.07,416.98c0,0-8.05-5.42-20.3-5.95c-12.25-0.53-17.81-3.11-17.57,0.48
				c0.25,3.59,11.94,8.05,11.94,8.05s-16.03,7.16-20.85,7.34c-4.82,0.18-13.87-2.9-16.37-1.48c-2.5,1.42-0.43,3.23-0.43,3.23
				s-2.58-0.93-3.26,0.79c-1.14,2.85,3.33,5.02,3.33,5.02s-2.46-0.23-0.4,2.53c3.69,4.93,27.9,6.28,35.59,3.93
				c7.69-2.35,21.92-5.95,24.39-7.69C596.6,431.48,603.69,420.71,598.07,416.98z"/>
			<path class="st42" d="M559.52,432.03c1.03-0.17,0.6-1.74-0.42-1.58c-8.1,1.31-16.07,0.26-23.49-3.06
				c-0.94-0.42-1.76,1.01-0.81,1.44C542.64,432.34,550.97,433.41,559.52,432.03z"/>
			<path class="st42" d="M559.27,437.26c1.03-0.17,0.6-1.74-0.42-1.58c-8.1,1.31-16.56,0.99-23.98-2.33
				c-0.94-0.42-3.86-1.98-3.16-1.21C537.44,438.44,550.72,438.64,559.27,437.26z"/>
		</g>
		<path class="st42" d="M577.15,421.75c2.11-1.18,4.42-2.03,6.86-2.19c2.04-0.14,3.95-0.02,5.77,0.86
			c-3.58,0.08-5.68,0.22-9.31,1.21c-3.51,0.96-5.21,2.5-7.07,4.81C572.9,425.73,575.79,422.51,577.15,421.75z"/>
		<g>
			<g>
				<g>
					<g>
						<g>
							<path class="st9" d="M726.66,263.72c-5.63,1.08-12.7-0.62-15.66-8.66c-0.92-2.5-0.92-4.59,0.01-6.4
								c1.34-2.6,4.42-4.41,10.31-6.03c2.44-0.67,7.07-1.49,10.65,0.55c1.95,1.11,3.26,2.9,3.91,5.32l0,0
								c0.95,3.53,0.46,7.33-1.31,10.16C732.92,261.29,730.18,263.04,726.66,263.72z M723.31,244.04c-0.6,0.12-1.11,0.24-1.5,0.35
								c-5.27,1.45-8.09,3.02-9.16,5.1c-0.68,1.33-0.66,2.94,0.08,4.93c3.23,8.75,11.22,7.95,13.59,7.49
								c3.05-0.59,5.3-2.01,6.7-4.24c1.5-2.4,1.91-5.65,1.09-8.7l0,0c-0.52-1.92-1.54-3.34-3.04-4.2
								C728.63,243.38,725.43,243.64,723.31,244.04z"/>
						</g>
					</g>
				</g>
			</g>
			<g>
				<g>
					<g>
						<g>
							<path class="st9" d="M721.38,242.56c0,0,3.44-1.08,16.28-1.68l0.73,3.81c0,0-1.68,0.83-2.01,1.63
								c-0.33,0.8,0.24,6.22-0.81,8.06c-1.05,1.83,1.11-6.41-2.09-8.74C730.29,243.3,721.38,242.56,721.38,242.56z"/>
						</g>
					</g>
				</g>
			</g>
			<g>
				<g>
					<g>
						<g>
							<path class="st9" d="M690.52,270.67c-3.52,0.68-6.71,0.06-9.23-1.77c-2.69-1.97-4.55-5.31-4.98-8.95
								c-0.3-2.48,0.26-4.63,1.66-6.39c2.56-3.23,7.16-4.18,9.68-4.46c6.07-0.68,9.6-0.14,11.81,1.78c1.54,1.34,2.32,3.28,2.39,5.94
								C702.08,265.38,696.15,269.58,690.52,270.67z M686.34,251.15c-2.12,0.41-5.19,1.36-6.92,3.55c-1.08,1.36-1.51,3.05-1.27,5.03
								l0,0c0.37,3.14,1.96,6.01,4.24,7.68c2.12,1.55,4.74,2.04,7.79,1.45c2.37-0.46,10.09-2.67,9.84-12
								c-0.06-2.12-0.63-3.62-1.75-4.6c-1.76-1.53-4.96-1.94-10.4-1.34C687.46,250.97,686.94,251.04,686.34,251.15z"/>
						</g>
					</g>
				</g>
			</g>
			<g>
				<g>
					<g>
						<g>
							<path class="st9" d="M687.57,249.06c0,0-3.6,0.27-15.74,4.48l0.73,3.81c0,0,1.87,0.15,2.47,0.77
								c0.6,0.62,2.09,5.87,3.74,7.18c1.65,1.31-3.41-5.54-1.3-8.89C679.58,253.05,687.57,249.06,687.57,249.06z"/>
						</g>
					</g>
				</g>
			</g>
			<g>
				<g>
					<g>
						<g>
							<path class="st9" d="M697.6,249.68c0,0,3.3-1.42,7.18-2.32c3.89-0.9,8.09,0.28,8.09,0.28l-1.85,3.56
								c0,0-7.47-0.69-10.57,2.35L697.6,249.68z"/>
						</g>
					</g>
				</g>
			</g>
		</g>
		<g>
			<g>
				<g>
					<path class="st9" d="M735.62,242.39c0.44-0.4,1.05-0.64,1.76-1.02c1.28-0.68,11.68-5.22,13.14,2.92c-0.47,0-1.3-0.67-1.83-0.81
						c-0.94-0.24-1.52-0.05-2.44,0.19c-2.03,0.53-4.12,1.19-6.18,1.66c-1.52,0.35-3.48,1-5.01,1.04c-0.44-0.57-0.29-1.7-0.19-2.4
						C734.97,243.2,735.24,242.74,735.62,242.39z"/>
				</g>
			</g>
		</g>
		<g class="st54">
			<path class="st9" d="M723.31,244.04c-0.6,0.12-1.11,0.24-1.5,0.35c-5.28,1.45-8.1,3.03-9.16,5.1c-0.68,1.33-0.66,2.94,0.08,4.93
				c3.23,8.75,11.22,7.95,13.59,7.49c3.05-0.59,5.31-2.01,6.7-4.24c1.5-2.4,1.91-5.65,1.09-8.7l0,0c-0.52-1.93-1.54-3.34-3.05-4.2
				C728.64,243.38,725.44,243.63,723.31,244.04z"/>
		</g>
		<g class="st54">
			<path class="st9" d="M679.47,254.69c-1.08,1.36-1.51,3.05-1.28,5.03l0,0c0.37,3.14,1.96,6.01,4.25,7.67
				c2.13,1.55,4.76,2.04,7.82,1.45c2.38-0.46,10.12-2.68,9.88-12c-0.05-2.12-0.63-3.63-1.76-4.6c-1.76-1.53-4.98-1.94-10.43-1.33
				c-0.4,0.04-0.92,0.12-1.53,0.23C684.29,251.55,681.21,252.5,679.47,254.69z"/>
		</g>
		<g>
			<g>
				<path class="st49" d="M689.66,209.75c11.01,6.18,23.79-0.01,35.26,4.44c5.39,2.09,9.93,5.79,13.97,9.85
					c2.09,2.1,4.34,4.27,5.82,6.85c1.76,3.07,3.18,6.45,4.53,9.72c0.27,0.65,1.35,0.37,1.08-0.3c-1.19-2.9-2.48-5.79-3.89-8.59
					c-1.34-2.65-3.15-4.72-5.18-6.86c-3.9-4.12-8.21-8.01-13.33-10.56c-5.17-2.58-10.65-3.33-16.38-3.09
					c-7.33,0.31-14.63,1.32-21.32-2.44C689.6,208.43,689.03,209.4,689.66,209.75L689.66,209.75z"/>
			</g>
		</g>
		<g>
			<g>
				<path class="st49" d="M725.71,219.21c5.1,2.27,9.68,7.21,12.5,11.95c0.37,0.62,1.33,0.06,0.96-0.56
					c-2.91-4.91-7.6-10-12.9-12.35C725.62,217.96,725.05,218.92,725.71,219.21L725.71,219.21z"/>
			</g>
		</g>
		<path class="st55" d="M710.66,206.98c1.61,0.46,3.45,0.06,5.09-0.02c1.51-0.07,2.68-0.22,4.17,0.08c1.72,0.35,3.67,1.7,5.39,1.47"
			/>
		<path class="st39" d="M651.88,230.58c-8.57-19.99-47.78-22.36-87.57-5.29c-39.8,17.06-65.11,47.1-56.54,67.09
			c8.57,19.99,47.78,22.36,87.57,5.29c10.27-4.4,19.56-9.68,27.57-15.41l31.68,4.16l-14.74-19.03
			C651.44,254.58,656.42,241.17,651.88,230.58z"/>
		<g>
			<g>
				<path class="st49" d="M739.83,180.89c-0.01-0.32-0.03-0.42,0.03-0.48c-0.26,0-0.53,0-0.79,0c4.15,3.83,3.3,11.01,0.06,15.15
					c-0.44,0.56,0.35,1.35,0.79,0.79c3.6-4.6,4.57-12.46-0.06-16.73c-0.23-0.21-0.56-0.22-0.79,0c-0.09,0.09-0.19,0.18-0.28,0.27
					c-0.13,0.13-0.21,0.36-0.14,0.54c0.02,0.15,0.05,0.3,0.07,0.46C738.73,181.6,739.85,181.61,739.83,180.89L739.83,180.89z"/>
			</g>
		</g>
		<g>
			<g>
				<path class="st49" d="M744.94,185.74c0.17,2.29-0.56,4.36-1.22,6.51c-0.21,0.69,0.87,0.98,1.08,0.3
					c0.68-2.25,1.44-4.43,1.26-6.81C746,185.03,744.88,185.02,744.94,185.74L744.94,185.74z"/>
			</g>
		</g>
		<path class="st56" d="M758.16,508.46c-10.57,13.98,3.66,33.58-7.28,47.17c-5.07,6.3-13.34,9.18-18.6,15.45
			c-3.14,3.74-5.37,7.4-6.05,12.2"/>
	</g>
	<g>
		<g>
			<path class="st51" d="M703.1,308.38c0.09,10.39,0.23,21.11,2.23,31.35c1.4,7.13,3.74,13.98,5.69,20.96
				c0.52,1.85,3.45,1.2,2.93-0.66c-1.83-6.56-4.01-13.01-5.43-19.68c-2.21-10.38-2.34-21.26-2.43-31.83
				C706.08,306.59,703.09,306.45,703.1,308.38L703.1,308.38z"/>
		</g>
		<g>
			<path class="st51" d="M714.18,360.63c2.49-2.24,4.42-5.65,6.36-8.32c3.6-4.94,7.16-9.94,10.39-15.13
				c7.15-11.51,11.94-24.79,13.76-38.05c0.26-1.92-2.74-2.04-3-0.14c-1.79,13.07-6.66,26.11-13.81,37.39
				c-2.92,4.6-6.07,9.06-9.27,13.48c-1.99,2.75-3.94,6.29-6.49,8.58C710.7,359.72,712.74,361.92,714.18,360.63L714.18,360.63z"/>
		</g>
		<polygon class="st51" points="730.5,384.23 687.91,381.47 690.08,357.27 732.98,357.99 		"/>
		<polygon class="st5" points="692.8,360.05 701.27,360.48 700.86,370.73 692.05,370.19 		"/>
		<g>
			<g>
				<path class="st5" d="M704.43,365.58c2.32-1.21,4.34-0.54,6.76-0.45c2.01,0.07,3.78-0.97,5.71-0.85c1.56,0.1,2.82,1,4.46,1.08
					c2.6,0.12,5.12-0.56,7.73-0.2c0.63,0.09,0.9-0.88,0.27-0.96c-2.41-0.33-4.72,0.12-7.13,0.17c-1.68,0.03-2.8-0.61-4.26-1.16
					c-0.57-0.21-0.98-0.23-1.6-0.15c-0.89,0.11-1.69,0.6-2.54,0.82c-1.68,0.43-3.23,0.16-4.92,0c-1.82-0.18-3.35,0.01-4.97,0.85
					C703.35,365.01,703.85,365.87,704.43,365.58L704.43,365.58z"/>
			</g>
		</g>
		<g>
			<g>
				<path class="st5" d="M704.18,369.22c2.25-0.76,4.36,0.94,6.63,0.99c0.65,0.01,1.12-0.07,1.76-0.16
					c0.75-0.19,1.51-0.34,2.28-0.45c0.6,0.1,1.21,0.21,1.8,0.33c1.75,0.16,3.34-0.07,5.09,0.16c1.95,0.26,3.91-0.13,5.86,0.31
					c0.61,0.14,0.87-0.8,0.26-0.93c-1.92-0.43-3.86-0.06-5.78-0.34c-2.17-0.32-4.27-0.19-6.45-0.4c-2.13-0.21-4.09,0.87-6.25,0.35
					c-2.23-0.54-3.17-1.54-5.46-0.77C703.34,368.49,703.59,369.42,704.18,369.22L704.18,369.22z"/>
			</g>
		</g>
		<g>
			<g>
				<path class="st5" d="M692.48,374.62c2.1-0.64,3.93,0.05,6.02,0.3c1.52,0.18,3.09,0.29,4.61,0.33c1.47,0.04,2.78-0.18,4.21-0.49
					c2.18-0.47,2.89-0.21,4.92,0.48c2.5,0.85,5.49,0.17,8.05-0.08c2.88-0.28,5.68,0.73,8.61,0.32c0.63-0.09,0.36-1.05-0.27-0.96
					c-3.16,0.45-6.33-0.43-9.52-0.22c-1.74,0.11-4.25,0.62-5.9,0.23c-1.04-0.25-1.93-0.97-2.99-1.15c-1.09-0.18-2.12,0.18-3.17,0.42
					c-1.81,0.41-3.48,0.47-5.32,0.36c-3.09-0.2-6.49-1.42-9.52-0.5C691.6,373.84,691.86,374.81,692.48,374.62L692.48,374.62z"/>
			</g>
		</g>
		<g>
			<g>
				<path class="st5" d="M691.29,379.15c1.92-0.44,3.77-0.77,5.72-0.28c1.13,0.29,2.19,0.76,3.38,0.78
					c1.17,0.02,2.28-0.39,3.41-0.66c1.97-0.47,3.23-0.24,5.19-0.02c3.13,0.37,6.32,0.07,9.46,0.21c1.84,0.08,3.7,0.15,5.52,0.38
					c1.25,0.16,2.43,0.56,3.7,0.46c0.64-0.05,0.64-1.05,0-1c-1.33,0.11-2.64-0.37-3.97-0.5c-1.74-0.18-3.5-0.26-5.25-0.34
					c-3.68-0.16-7.25-0.06-10.91-0.49c-3.06-0.35-5.79,1.36-8.83,0.67c-1.09-0.25-2.07-0.71-3.2-0.79c-1.5-0.1-3.03,0.29-4.48,0.62
					C690.4,378.33,690.66,379.29,691.29,379.15L691.29,379.15z"/>
			</g>
		</g>
	</g>
	<g>
		<g>
			<path class="st57" d="M217.98,508.26c9.37,9.39,24.25,8.46,36.46,7.87c9.11-0.45,18.07-2.4,27.21-2.59
				c4.26-0.09,8.68,0.14,12.71,1.64c3.8,1.41,6.02,4.96,9.69,6.46c3.61,1.48,7.72,0.78,11.5,1.28c1.37,0.18,2.84,0.37,4.13,0.89
				c1.51,0.61,1.47,1.22,0.25,2.1c-0.5,0.37-1.01,0.47-1.41,0.99c-0.27,0.34-0.11,0.82,0.35,0.85c1.05,0.07,1.97,0.61,2.97,0.86
				c0-0.32,0-0.64,0-0.96c-0.92,0.35-2.45,0.95-2.99,1.85c-0.6,1,0.17,2.85,0.26,4c0.23,3.07,0.12,6.14,0.1,9.21c0,0.64,1,0.64,1,0
				c0.02-2.09,0.1-4.18,0.05-6.27c-0.08-2.95-1.6-6.5,1.86-7.82c0.43-0.17,0.51-0.83,0-0.96c-1.11-0.29-2.09-0.82-3.24-0.9
				c0.12,0.28,0.24,0.57,0.35,0.85c0.87-1.12,3.96-1.46,2.66-3.53c-1.05-1.66-4.26-1.88-5.97-2.11c-4.15-0.57-8.91,0.34-12.67-1.85
				c-1.67-0.98-2.97-2.48-4.49-3.66c-1.47-1.14-3.12-1.92-4.87-2.5c-8.27-2.73-17.78-1.28-26.22-0.21
				c-8.21,1.04-16.43,1.78-24.72,1.66c-8.63-0.13-17.89-1.48-24.25-7.85C218.24,507.1,217.53,507.8,217.98,508.26L217.98,508.26z"/>
		</g>
	</g>
</g>
</svg>
