<?xml version="1.0" encoding="utf-8"?>
<!-- Generator: Adobe Illustrator 23.0.3, SVG Export Plug-In . SVG Version: 6.00 Build 0)  -->
<svg version="1.1" xmlns="http://www.w3.org/2000/svg" xmlns:xlink="http://www.w3.org/1999/xlink" x="0px" y="0px"
	 viewBox="0 0 916 942" style="enable-background:new 0 0 916 942;" xml:space="preserve">
<style type="text/css">
	.st0{display:none;}
	.st1{opacity:0.1;}
	.st2{fill-rule:evenodd;clip-rule:evenodd;fill:#007CC7;}
	.st3{fill:#B8CDDC;}
	.st4{opacity:0.54;}
	.st5{fill:#035693;}
	.st6{opacity:0.31;}
	.st7{fill:#73A0BE;}
	.st8{fill:#6FB1ED;}
	.st9{fill:#5A86B7;}
	.st10{fill:#F5BD83;}
	.st11{fill:#D19D6F;}
	.st12{fill:#002042;}
	.st13{fill:#5B638B;}
	.st14{fill:#E5E7EA;}
	.st15{fill:#474F77;}
</style>
<g id="Layer_1">
</g>
<g id="Layer_2" class="st0">
	
		<image style="display:inline;overflow:visible;" width="3508" height="2480" xlink:href="8.jpg"  transform="matrix(0.424 0 0 0.424 -246 -12)">
	</image>
</g>
<g id="Layer_5">
	<g class="st1">
		<path class="st2" d="M435,415.2c-7.7-116.1,80-216.3,196.1-224s216.3,80,224,196.1c7.7,116.1-80,216.3-196.1,224
			C543.1,619,442.7,531.1,435,415.2z"/>
		<path class="st2" d="M162.9,335.6c15.5-52.7,70.7-83,123.4-67.5s83,70.6,67.5,123.4c-15.5,52.8-70.6,83-123.4,67.5
			C177.7,443.6,147.5,388.3,162.9,335.6z"/>
		<path class="st2" d="M697.7,331.1c83.5,125.5,49.5,295.1-76,378.6s-295.1,49.5-378.6-76s-49.5-295.1,76-378.6
			C444.6,171.4,614.1,205.5,697.7,331.1z"/>
		<path class="st2" d="M848.1,466.4c67.8,102,40.2,239.5-61.8,307.3c-102,67.8-239.5,40.2-307.3-61.8
			c-67.8-102-40.2-239.5,61.8-307.3S780.4,364.4,848.1,466.4z"/>
		<path class="st2" d="M490.4,553.9c56.1,84.4,33.3,198.3-51.1,254.4S241,841.6,184.9,757.2S151.6,558.9,236,502.8
			S434.3,469.6,490.4,553.9z"/>
		<path class="st2" d="M348.3,513c20.6,85.9-32.3,172.2-118.1,192.8S58,673.6,37.4,587.7s32.2-172.2,118.1-192.8
			S327.7,427.2,348.3,513z"/>
		<path class="st2" d="M730.6,631.7c84.4,84,50.1,197.3-76.8,253.2s-298.2,33-382.6-50.8c-84.4-84-50.1-197.3,76.8-253.1
			C475.1,525.1,646.4,547.8,730.6,631.7z"/>
	</g>
	<g>
		<path class="st3" d="M398,536.5c-7.1,56.2-35,73.4-124.6,99.1c-4.8,10.1-10,23-14.5,36c-8.2,2.5-15.4,3-24.5,1.9
			c-30.2-3.8-48.9-41.9-45-72.8c2.1-16.9,14.8-26.7,41.2-32.6c48.1-13.2,56.1-14.3,57.2-23.4c2-15.5-20.9-37.6-79.7-52.9
			c-7.3-10.2-9.2-23.3-7.5-36.6c3.9-30.9,33.2-53.6,87.3-46.8C361,417.6,404.8,483.1,398,536.5z M164.7,750.3
			c5.2-41.5,28.2-59.2,65.4-54.5c36.5,4.6,59.1,34.6,55.2,65.5c-0.1,0.8-0.2,1.6-0.3,2.4c-5.1,33.2-36.2,56.3-69.6,52.2
			c-0.1,0-0.3,0-0.5-0.1C167.8,809.9,161.3,777,164.7,750.3z"/>
	</g>
	<g class="st4">
		<path class="st5" d="M745.4,356.2c6.4,31.5-5.5,45.8-49.1,76c-0.8,6.3-1.2,14.2-1.3,22c-3.9,2.9-7.7,4.4-12.8,5.5
			c-17,3.4-34-13.7-37.5-31c-1.9-9.5,3.1-17,16.3-25c23.5-15.8,27.6-17.9,26.5-23c-1.8-8.7-18.1-16.5-52.5-14
			c-5.8-4.2-9.2-10.9-10.7-18.4c-3.5-17.4,8.1-34.9,38.5-41C703.9,298.9,739.4,326.2,745.4,356.2z M658.7,513.7
			c-4.7-23.3,4.4-37,25.3-41.2c20.5-4.1,38.1,7.9,41.6,25.2c2.5,12.6-0.2,23.4-6.5,35c-4.1,2.1-12.8,5.5-21.5,7.2
			C671.2,545.2,661.7,528.7,658.7,513.7z"/>
	</g>
	<g class="st6">
		<path class="st5" d="M436.8,314.9c4.2,20.3-3.4,29.5-31.3,49.1c-0.5,4.1-0.7,9.1-0.8,14.2c-2.5,1.9-5,2.9-8.2,3.6
			c-10.9,2.3-21.9-8.7-24.2-19.8c-1.3-6.1,2-11,10.4-16.2c15-10.3,17.7-11.6,17-14.9c-1.2-5.6-11.7-10.5-33.8-8.8
			c-3.7-2.7-5.9-7-6.9-11.8c-2.3-11.1,5.1-22.5,24.6-26.5C409.8,278.2,432.8,295.6,436.8,314.9z M381.5,416.5
			c-3.1-15,2.7-23.8,16.1-26.6c13.2-2.7,24.6,4.9,26.9,16.1c1.7,8.1,0,15.1-4,22.5c-2.6,1.3-8.2,3.6-13.8,4.7
			C389.7,436.8,383.5,426.2,381.5,416.5z"/>
	</g>
	<g>
		<path class="st7" d="M635,815.1c0.2-0.2,0.5-0.5,0.7-0.7c0.4-0.4-0.2-1.1-0.7-0.7c-0.2,0.2-0.5,0.5-0.7,0.7
			C633.9,814.9,634.5,815.5,635,815.1L635,815.1z"/>
	</g>
	<g>
		<g>
			<g>
				<g>
					<g>
						<path class="st8" d="M466.4,69.9c-1.1-11.1,5.7-22.9,16.5-26.5c9.4-3.2,22.2,0.9,27.9,9c6.4,9.1,4.1,22.8-6,28.3
							c-12.2,6.6-27.9,5.7-38.2,16c-9.8,9.8-14.3,26-4.5,37.2c6,7,16.2-3.2,10.2-10.2c-3.5-4-0.2-10.8,2.4-14.4
							c4.3-5.9,11.1-7.5,17.8-9.4c7.9-2.2,16.4-4.2,23.1-9.1c5.7-4.2,9.7-10.2,11.9-17c9.5-29.8-25-54.7-51.8-43
							c-14.7,6.4-25,22.9-23.5,39C453,79.1,467.3,79.2,466.4,69.9L466.4,69.9z"/>
					</g>
				</g>
			</g>
			<g>
				<g>
					<path class="st8" d="M478,158.7c9.2,0,9.3-14.4,0-14.4C468.7,144.4,468.7,158.7,478,158.7L478,158.7z"/>
				</g>
			</g>
		</g>
		<g>
			<g>
				<g>
					<path class="st8" d="M571.4,118.8c3.8-4.2,8.5-10.5,14.4-11.8c5.4-1.2,8.9,2.8,9.7,7.7c1.3,7.2-1.3,19.9-9.3,21.4
						c-7.1,1.3-16.6-2.8-24.5-3.8c-10.8-1.3-18.7,3.4-23,13.4c-1.5,3.6,1.6,7.9,5,8.8c4.1,1.2,7.3-1.5,8.8-5
						c1.1-2.5,2.6-2.9,4.1-3.1c3.6-0.3,6.6,0.6,10.3,1.4c8.2,1.9,17.2,4.3,25.4,1.4c19.9-7,25.1-43.5,5.7-53.9
						c-14.7-7.9-27.6,2.9-37,13.4C555.1,115.5,565.2,125.7,571.4,118.8L571.4,118.8z"/>
				</g>
			</g>
			<g>
				<g>
					<path class="st8" d="M536.9,174.9c9.2,0,9.3-14.4,0-14.4C527.7,160.5,527.6,174.9,536.9,174.9L536.9,174.9z"/>
				</g>
			</g>
		</g>
		<g>
			<g>
				<g>
					<path class="st8" d="M356,150.4c-15.9-6-15.2-28.2,1.2-33.2c7.5-2.3,17.5-2.1,21,5.7c3.7,8.4,1.9,18.6,1.7,27.4
						c-0.3,14.9,7.8,26.1,22,30.4c8.9,2.7,12.7-11.2,3.8-13.9c-5.6-1.7-9.8-4.8-11.1-10.8c-1.2-5.8,0.1-12.1,0.1-18
						c0-11-1.6-23.4-10.8-30.7c-10.1-8-26.2-7.1-37.1-1.2c-10.2,5.4-16.7,16.5-16.8,28c-0.2,14.3,9.4,25.3,22.3,30.2
						C360.8,167.6,364.5,153.7,356,150.4L356,150.4z"/>
				</g>
			</g>
			<g>
				<g>
					<path class="st8" d="M422.7,186.6c9.2,0,9.3-14.4,0-14.4C413.5,172.3,413.5,186.6,422.7,186.6L422.7,186.6z"/>
				</g>
			</g>
		</g>
		<g>
			<g>
				<path class="st8" d="M513.6,138c-0.1-7,3-12,8.7-15.8c3.8-2.6,8.1-5,10.4-9.1c1.3-2.3,1.5-4.8,2.3-7.3c1.1-3.6,3.5-5.4,6.2-7.8
					c4-3.5,7.1-7,8.7-12.1c0.8-2.5-3.2-3.6-4-1.1c-2.1,6.6-7.6,9.4-12,14.2c-4.2,4.6-3.1,11.4-8.1,15.7c-4,3.4-8.9,5.4-12.2,9.7
					c-3.1,4-4.4,8.7-4.3,13.7C509.5,140.7,513.7,140.7,513.6,138L513.6,138z"/>
			</g>
		</g>
		<g>
			<g>
				<path class="st8" d="M442.2,147.4c-8.5-6.8-6.9-18.8-9.1-28.3c-1-4.3-2.8-7.5-6.2-10.3c-2.5-2-4.9-3.7-6.7-6.4
					c-1.6-2.5-2.8-5.3-4.5-7.8c-1.5-2.2-5-0.1-3.5,2.1c3.3,4.9,5.1,9.8,9.8,13.5c2.2,1.7,4.5,3.2,5.9,5.8c1.2,2.4,1.6,5.3,2,7.9
					c1.4,9.4,1.4,20.1,9.5,26.5C441.3,151.9,444.2,149.1,442.2,147.4L442.2,147.4z"/>
			</g>
		</g>
		<g>
			<g>
				<path class="st8" d="M399.5,211.4c-2.9-2.5-5.7-3.3-9.5-3.2c-5.6,0.1-10.7,0.3-16.2-1.4c-3.9-1.2-7.4-2.5-11.5-2.6
					c-5.8,0-11.4,1.8-17.2,0.9c-2.6-0.4-3.7,3.6-1.1,4c8.6,1.3,16.9-2.1,25.4,0.5c4.1,1.3,8,2.5,12.3,2.8c4.8,0.4,10.8-1.6,14.7,1.9
					C398.6,216.1,401.5,213.2,399.5,211.4L399.5,211.4z"/>
			</g>
		</g>
		<g>
			<g>
				<path class="st8" d="M565.5,193.8c6.9-8.8,18.4-7.7,28.4-8.9c5-0.6,8.2-3.7,12.8-5.1c5.2-1.6,10.2-1.3,14.9-4.3
					c2.2-1.4,0.2-4.9-2.1-3.6c-5,3.1-10.6,2.4-15.8,4.5c-3,1.2-5.3,3.4-8.5,4.1c-2.5,0.6-5.3,0.6-7.9,0.8
					c-9.2,0.7-18.7,1.9-24.7,9.6C561,193,563.9,195.9,565.5,193.8L565.5,193.8z"/>
			</g>
		</g>
	</g>
	<g class="st6">
		<path class="st5" d="M718.5,722.1c6.8,22.7-1,34-31,59c-0.2,4.7,0,10.5,0.5,16.2c-2.7,2.3-5.4,3.8-9.1,4.9
			c-12.2,3.6-25.8-7.8-29.5-20.3c-2-6.8,1.2-12.7,10.3-19.5c16.2-13.2,19-15,18-18.6c-1.9-6.2-14.4-10.9-39.5-6.8
			c-4.5-2.7-7.5-7.4-9.1-12.8c-3.7-12.5,3.7-26.1,25.5-32.7C684.2,682.9,712,700.5,718.5,722.1z M665.2,843.4
			c-5-16.8,0.8-27.5,15.8-31.9c14.8-4.4,28.5,3.3,32.2,15.8c2.7,9.1,1.4,17.2-2.4,26.1c-2.9,1.8-9.1,4.9-15.3,6.7
			C676.5,865.8,668.4,854.2,665.2,843.4z"/>
	</g>
</g>
<g id="Layer_4">
	<path class="st9" d="M287.6,762.6c26.9,32.2,69.3,10.7,69.3,10.7s2.4,109.7,3.2,117.3C509,947,650.9,890,651,886
		c1.5-65.1,0.1-92.5,0.1-92.5s48,0,56.5-18.1s8.5-222.8-16-239.9c-24.5-17.1-116.2-55.4-116.2-55.4s3.2-10.7-26.7-22.4
		c-29.8-11.7-114.1-6.4-114.1-6.4s-32,12.8-28.8,25.6c0,0-66.1,22.4-82.1,48C307.8,550.4,260.9,730.6,287.6,762.6z"/>
	<path class="st10" d="M434.2,464.6c0-2.1,0-62.9,0-62.9h121.5l-8.5,12.8v50.1c0,0,3.2,24.5-24.5,44.8
		c-27.7,20.3-17.1,26.7-17.1,26.7l-16,22.4l-22.4-20.3L434.2,464.6z"/>
	<path class="st11" d="M434.2,423l113,5.3C552.6,454.9,461.7,572.1,434.2,423z"/>
	<path class="st12" d="M549.2,237.5c0,0-10.4-69.3-108.7-27.7c-58.6,28.8-44.7,60.8-44.7,60.8s-37.4,27.7-0.4,56.5
		c-13.9,22.4,0,35.2,0,35.2l182.7-17.1c0,0,16.2-9.6,0-40.5C593.1,279.1,602.4,252.5,549.2,237.5z"/>
	<path class="st10" d="M428.8,367.6c0,0-16-26.7-27.7-22.4c-11.7,4.3-3.2,44.8,12.8,43.7c-11.7,22.4,11.5,12.8,11.5,12.8
		L428.8,367.6z"/>
	<path class="st10" d="M568.5,335.6c17.8-0.9,0,44.8,0,44.8s12.8,21.3-12.8,23.5c-25.6,2.1-5.3-34.1-5.3-34.1
		S548.2,336.7,568.5,335.6z"/>
	<path class="st10" d="M413.9,313.2c0,0,6.4,97,20.3,109.8c13.9,12.8,22.4,37.3,56.5,35.2c34.1-2.1,61.8-14.9,64-54.4
		s0-108.7,0-108.7s-36.2-20.3-38.4-42.6c-13.9,13.9-65,39.4-81,26.7C435.2,279.1,438.4,309,413.9,313.2z"/>
	<path class="st10" d="M316.9,645.8c0,0,103.4-133.3,111.9-140.7c8.5-7.5,17.9-43.9,26.7-58.3c10.6-17.4,0-43,0-43.1
		c5.3-6.3,20.2-1,18.1,19.3s4.7,28.7,16.2,27.1c11.5-1.6,53.1-13.3,70.2-5.8c17.1,7.5,11.7,14.9,0,13.9c-11.7-1.1-38.4,6.4-38.4,6.4
		s9.6,12.8,6.4,14.9c-3.2,2.1-7.5,8.5-5.3,12.8c2.1,4.3,7.5,10.7,0,17.1c-7.5,6.4,4.3,7.5,0,14.9c-4.3,7.5-39.4,24.5-64,10.7
		c-24.5,26.7-80,156.7-80,156.7L316.9,645.8z"/>
	<path class="st10" d="M550.4,730c-1.8-1.2-146,14.9-154.6,10.7c-8.5-4.3-25.6-27.7-43.7-26.7c-18.1,1.1-52.2,6.4-46.9,20.3
		c5.3,13.9,36.2-6.4,36.2-6.4s7.5,3.2,9.6,7.5c2.1,4.3-68.2,14.3-69.8,10.9c-1.6-3.4-13.3,13.6,5.9,15.8c19.2,2.1,29.8,3.2,29.8,3.2
		s-6.4,9.5,0,14.3c6.4,4.9,12.8,5.9,12.8,12.3c0,6.4-1.1,13.9,9.6,13.9s5.3,8.5,5.3,8.5s18.1,27.7,56.5-19.2
		c50.1-11.7,154.6,7.5,154.6,7.5S565.3,739.6,550.4,730z"/>
	<path class="st12" d="M461.9,312.2c-1.1,0.2-26.7,3.2-27.7,12.8c-1.1,9.6,6.4,6.4,6.4,6.4s8.5-6.4,16-7.5
		c7.5-1.1,20.3,1.1,20.3-4.3C476.8,314.3,468.3,311.1,461.9,312.2z"/>
	<path class="st12" d="M448,348.4c0,0,10.7-16,21.3-3.2C465.1,346.3,448,348.4,448,348.4z"/>
	<path class="st12" d="M458.7,350.5c0,0-6.4-1.1-3.2-5.3c3.2-4.3,4.3-5.3,6.4,0C464,350.5,458.7,350.5,458.7,350.5z"/>
	<path class="st12" d="M515.8,313.2c1,0.2,25.9,3.2,27,12.8c1,9.6-6.2,6.4-6.2,6.4s-8.3-6.4-15.6-7.5c-7.3-1.1-19.7,1.1-19.7-4.3
		C501.3,315.4,509.6,312.2,515.8,313.2z"/>
	<path class="st12" d="M529.3,349.5c0,0-10.4-16-20.7-3.2C512.7,347.3,529.3,349.5,529.3,349.5z"/>
	<path class="st12" d="M515.8,346.3c-2.1,5.3,3.1,5.3,3.1,5.3s6.2-1.1,3.1-5.3"/>
	<path class="st11" d="M506.3,410.7c-7.5,1.1-15.6,3.9-20.5,10c-1.7,2.1,1.3,5.1,3,3c4.5-5.5,11.8-7.9,18.6-8.9
		C510.1,414.4,508.9,410.3,506.3,410.7z"/>
	<path class="st11" d="M510.1,382.2c-1.4-1.9-4.7-0.1-3.2,1.8c1.7,1.6,1.3,3.6-1.2,5.7c-0.8,0-1.6-0.1-2.3-0.2
		c-1.3-0.1-2.5-0.2-3.7,0.3c-3.2,1.3-3.4,5.8-7.6,5c-3.3-0.6-5.1-4.1-8.3-4.7c-1.6-0.3-2.7,0.4-4.2,0.7c-1.4,0.5-2.7,0.5-4.1,0.1
		c-3.1-1.8-3.3-3.6-0.7-5.5c2.3-0.7,1.3-4.2-1-3.5c-4.2,1.3-6.1,6.4-3.2,9.9c1.8,2.2,4.8,3.1,7.6,2.9c2.7-0.2,5-0.5,7.6,0.8
		c1.6,0.8,2.9,2,4.7,2.5c2.6,0.8,5.4,0.6,7.6-1.1c1-0.8,1.3-1.9,2.1-2.8c1.8-1.8,3.9-0.8,6.2-0.9
		C512.5,392.9,513.3,386.4,510.1,382.2z"/>
	<path class="st11" d="M443.1,349.2c-4.3-1.3-8.7-1.3-13,0c-1.3,0.4-0.7,2.5,0.6,2.1c4-1.3,7.9-1.3,11.9,0
		C443.8,351.7,444.4,349.7,443.1,349.2z"/>
	<path class="st11" d="M442.4,352.8c-3.9,0.9-7.8,2-11.6,3.4c-1.3,0.5-0.7,2.5,0.6,2.1c3.8-1.4,7.7-2.5,11.6-3.4
		C444.3,354.5,443.8,352.5,442.4,352.8z"/>
	<path class="st11" d="M445.6,357.1c-4.4,0.3-8.3,2.8-10.3,6.8c-0.6,1.2,1.2,2.3,1.8,1.1c1.6-3.3,4.8-5.5,8.5-5.8
		C446.9,359.1,446.9,357,445.6,357.1z"/>
	<path class="st11" d="M547.8,347c-4.2-0.2-8.3,0.3-12.3,1.7c-1.3,0.4-0.7,2.5,0.6,2.1c3.8-1.3,7.7-1.8,11.7-1.6
		C549.2,349.2,549.2,347.1,547.8,347z"/>
	<path class="st11" d="M546.9,354.8c-3.1-1.3-6.3-2.1-9.7-2.4c-1.4-0.1-1.4,2,0,2.1c3,0.2,5.9,0.9,8.6,2.1
		C547.1,357.2,548.2,355.4,546.9,354.8z"/>
	<path class="st11" d="M546.3,364c-2.5-3.5-5.8-6.1-9.9-7.5c-1.3-0.4-1.9,1.6-0.6,2.1c3.5,1.2,6.5,3.4,8.6,6.5
		C545.2,366.2,547.1,365.1,546.3,364z"/>
	<path class="st11" d="M468.2,355.3c-3.1,6.8-9.2,11.4-16.6,12.5c-1.4,0.2-0.8,2.3,0.6,2.1c7.9-1.1,14.6-6.2,17.9-13.4
		C470.6,355.1,468.8,354,468.2,355.3z"/>
	<path class="st11" d="M523,365.1c-6.9,0.5-13.1-4-14.8-10.7c-0.3-1.3-2.4-0.8-2.1,0.6c1.9,7.6,9.1,12.8,16.9,12.3
		C524.4,367.1,524.4,365,523,365.1z"/>
	<path class="st11" d="M518.3,296.8c-10.8-4.2-22.3-5.7-33.8-4c-12.2,1.8-23.3,9.4-35.8,8.6c-1.4-0.1-1.4,2.1,0,2.1
		c11.2,0.7,20.9-5.4,31.6-7.8c12.5-2.8,25.5-1.5,37.4,3.1C519.1,299.4,519.6,297.3,518.3,296.8z"/>
	<path class="st11" d="M507.7,285.8c-9.8-4-20.3-3.9-30.1,0.1c-1.2,0.5-0.7,2.6,0.6,2.1c9.5-4,19.5-4,29-0.1
		C508.4,288.4,509,286.4,507.7,285.8z"/>
	<path class="st11" d="M481.9,308.1c-0.6-1.2-2.5-0.1-1.8,1.1c1.1,2.2,2.5,4.8,2.7,7.3c0.3,2.9-2.4,4.8-4.3,6.7
		c-1,1,0.5,2.5,1.5,1.5c1.8-1.8,5.2-4.1,5.2-6.9C485.2,314.6,483.4,310.9,481.9,308.1z"/>
	<path class="st11" d="M497,319.5c-2.3-1.4-3.1-4.4-1.7-6.7c0.7-1.2-1.1-2.2-1.8-1.1c-2,3.3-0.9,7.7,2.4,9.6
		C497.1,322,498.2,320.2,497,319.5z"/>
	<path class="st11" d="M426.1,400.9c-3.6-15.6-6.4-31.3-8.2-47.2c-0.2-1.3-2.3-1.4-2.1,0c1.9,16.1,4.7,32,8.3,47.7
		C424.3,402.8,426.4,402.2,426.1,400.9z"/>
	<path class="st11" d="M557.7,345.2c-0.1-1.4-2.3-1.4-2.1,0c2,19,1.8,38.1-0.6,57.1c-0.2,1.4,2,1.3,2.1,0
		C559.4,383.3,559.7,364.2,557.7,345.2z"/>
	<path class="st11" d="M545.2,442.5c-8.6,0.3-17.2,0.3-25.7,0.9c-7.5,0.6-13.7,3.1-20.7,5.4c-7,2.3-18.2,4.2-23.8-2.1
		c-6.5-7.2,0.2-17.9-0.1-26.2c-0.2-5.5-3.2-10-7.6-13.2c-2.6-1.9-9.3-6.9-12.5-3.9c-3.1,2.8,0.3,11.5,0.7,14.6
		c1.4,10,1.9,20.2-2.3,29.6c-0.6,1.2,1.3,2.3,1.8,1.1c2.8-6.3,3.8-12.9,3.7-19.7c-0.1-3.9-0.6-7.7-1.1-11.5c-0.3-2-0.6-4.1-1-6.1
		c-0.4-2.3-2.4-6.3,1.7-6.5c3-0.2,8.2,4.2,10.1,6.2c4.1,4.1,4.8,9.3,3.9,14.8c-1,6.1-3.5,12.5-1.1,18.6c4,10.2,17.8,9.3,26.5,6.9
		c7.5-2.1,13.9-5.2,21.8-5.8c8.5-0.7,17.2-0.7,25.7-0.9C546.6,444.6,546.6,442.4,545.2,442.5z"/>
	<path class="st11" d="M545.2,459.8c-3.1,0.4-6.3,0.7-9.4,1.2c-3.5,0.6-6.6,2.3-10,3c-1.3,0.3-0.8,2.3,0.6,2.1
		c3-0.6,5.7-2.1,8.7-2.7c3.3-0.7,6.8-0.9,10.1-1.4C546.6,461.7,546.6,459.6,545.2,459.8z"/>
	<path class="st11" d="M529.6,478.6c0.5-4.6-2.7-8.9-4.8-12.7c-0.7-1.2-2.5-0.1-1.8,1.1c1.1,2,2.3,4,3.3,6.1c2,4.3,0.8,7.9-1.7,11.6
		c-2,3-4.6,6.2-4.6,10.1c-0.1,4.9,5,7,2.6,12.3c-1.2,2.5-3.3,3.4-3.7,6.4c-0.2,1.4,2,1.3,2.1,0c0.4-3.6,4.8-5.3,5.1-9
		c0.1-1.4-0.4-2.5-1-3.6c-2.4-4.4-3.6-6.8-0.9-11.7C526,485.6,529.1,482.7,529.6,478.6z"/>
	<path class="st11" d="M516,527c-14.9,13.4-37.8,14-56.5,6.7c-1.3-0.5-1.8,1.6-0.6,2.1c19.4,7.5,42.6,7.1,58-6.8
		C518,528.1,517,526.1,516,527z"/>
	<path class="st11" d="M447.7,459.1c-0.7,3.5-3.2,6.5-4.6,9.8c-1.4,3.3-2.3,6.8-2.7,10.4c-0.2,1.4,2,1.3,2.1,0
		c0.5-4.2,1.7-8.2,3.7-11.9c1.4-2.6,3-4.8,3.6-7.7C450,458.3,448,457.7,447.7,459.1z"/>
	<path class="st13" d="M407.4,477.1c0-1.4-2.1-1.4-2.1,0c-0.1,16.5,1,32.8,3.2,49.1c0.2,1.4,2.2,0.8,2.1-0.6
		C408.3,509.5,407.3,493.3,407.4,477.1z"/>
	<path class="st13" d="M574.7,482.1c-6.1,25.4-8.8,51.4-8,77.4c-13.1-3.9-24.1-12-35.5-19.5c-4.8-3.1-6.7-3.3-11.8-0.8
		c-6.8,3.2-13.2,7-19.3,11.3c-1.1,0.8,0,2.6,1.1,1.8c5.3-3.8,10.9-7.2,16.7-10.1c1.5-0.8,3.2-1.9,4.9-2.3c2.6-0.6,4.2,0,6.6,1.4
		c2.6,1.4,5.1,3.3,7.5,5c9.4,6.3,18.9,12.2,29.9,15.4c0,0.2,0,0.4,0,0.5c0.1,1.4,2.2,1.4,2.1,0c-1.1-26.8,1.6-53.6,7.9-79.6
		C577.1,481.3,575.1,480.8,574.7,482.1z"/>
	<path class="st13" d="M479.1,648.2c1.8-29.1,4.9-58.2,8.7-87.2c0.2-1.4-2-1.3-2.1,0c-3.8,29-6.9,58-8.7,87.2
		c-1.8,29.3-0.6,58.6,0.2,87.8c0,1.4,2.2,1.4,2.1,0C478.6,706.7,477.3,677.4,479.1,648.2z"/>
	<path class="st13" d="M483,793.9c-0.1-1.4-2.3-1.4-2.1,0C485,836.2,481,915,481,915s3,1.4,3,0C484,872,487.1,836.2,483,793.9z"/>
	<path class="st13" d="M562.2,779.1c0.6-13.5-0.3-27-2.5-40.3c-0.2-1.4-2.3-0.8-2.1,0.6c2.5,15.1,3.2,30.5,2,45.7
		c-0.6,7.7-2.1,15.1-3.2,22.7c-0.7,4.5-0.7,8.6,1.8,12.5c0.7,1.1,2.6,0.1,1.8-1.1c-4-6.1-0.9-14.3,0.1-20.9
		C561.2,792,561.9,785.5,562.2,779.1z"/>
	<path class="st13" d="M628.6,777.8c-2.2,9.2-9.6,17.5-16.9,23.4c-8.6,6.9-19.5,8.8-30,5.5c-1.3-0.4-1.9,1.6-0.6,2.1
		c10.4,3.3,21.6,1.7,30.4-4.8c8.3-6,16.6-15.4,19.1-25.6C630.9,777,628.9,776.5,628.6,777.8z"/>
	<path class="st13" d="M612.1,781.6c-4.9,8.1-13.5,12.7-22.9,12.5c-1.4,0-1.4,2.1,0,2.1c10.2,0.2,19.4-4.9,24.8-13.6
		C614.6,781.5,612.8,780.5,612.1,781.6z"/>
	<path class="st13" d="M689.3,635.2c-8.2,1.5-16.4,3.2-24.5,5c-6.7,1.5-14.6,2.4-20.3,6.3c-1.1,0.8-0.1,2.6,1.1,1.8
		c6-4.1,14.8-5,21.9-6.6c7.5-1.7,15-3.2,22.5-4.6C691.3,637,690.7,635,689.3,635.2z"/>
	<path class="st13" d="M700.3,719.5c-12.8-8.9-28-13.3-43.6-12.6c-1.4,0.1-1.4,2.2,0,2.1c15.3-0.6,29.9,3.6,42.5,12.3
		C700.4,722.1,701.4,720.3,700.3,719.5z"/>
	<path class="st13" d="M692.5,539.7c-14.3,11.6-26.8,25-37.3,40.2c-0.8,1.1,1.1,2.2,1.8,1.1c10.4-15,22.8-28.3,37-39.7
		C695.1,540.3,693.6,538.8,692.5,539.7z"/>
	<path class="st13" d="M682.6,728.1c-10.9-11.1-26.1-14.2-41-16.1c-4.3-0.5-8.5-1-12.8-1.5c-2.1-0.3-4.7-0.8-7-0.5
		c-0.9-3.9-0.2-5.8,4.2-6.7c1.4-0.3,2.8-0.4,4.2-0.6c4.3-0.7,8.5-1.5,12.7-2.5c8.7-2.1,17.3-4.9,25.6-8.2c1.3-0.5,0.7-2.6-0.6-2.1
		c-11.1,4.5-22.6,7.9-34.4,10.1c-1.3,0.2-2.6,0.5-3.9,0.7c0.4-9.6,2.4-18.8,0.7-28.5c-1.2-7.2-3.7-14.2-4.8-21.5
		c0.9,0.6,2-0.8,1.3-1.7c-0.2-0.3,23.4-13.2,25.8-14.3c9.2-4.4,18.7-8.3,28.4-11.6c1.3-0.4,0.7-2.5-0.6-2.1
		c-12.3,4.3-24.3,9.3-35.8,15.3c-5.7,2.9-11.4,6.1-16.9,9.5c-0.9,0.6-1.9,1.2-2.5,2c-0.1-1.3-0.2-2.5-0.1-3.8c0-0.9,0.1-1.8,0.2-2.7
		c0,0,0.1,0,0.1-0.1c13.1-15.6,28.4-28.9,45.6-39.6c1.2-0.7,0.1-2.6-1.1-1.8c-16.5,10.3-31.3,23-44.1,37.7c1.6-8,5.6-15.6,9.2-22.7
		c4.6-8.8,10-17.1,16-24.9c0.8-1.1-1-2.2-1.8-1.1c-6.2,8.1-11.8,16.7-16.4,25.8c-4.1,8-8.6,16.8-9.6,25.9c-1,9.2,1.9,18.2,4,27.1
		c1.3,5.7,2.1,11.3,1.8,17.2c-0.3,5.5-1.3,10.9-1.5,16.4c-1.2,0.2-2.3,0.3-3.5,0.5c-0.8,0.1-3.2,0.1-3.9,0.9c-1.9,1.9-1,5.7-0.4,8.2
		c-0.3,0.1-0.5,0.2-0.8,0.4c-2.6,1.5-3.4,4.4-1.9,6.8c-4.1,0.6-7.1,2.4-7.7,6.5c-7.4-2.4-15.8-1.6-23.9-1.9
		c9.2-3.4,16.8-10,24.5-15.9c2.7-2.1,8.6-5,9.6-8.7c0.5-1.7-0.3-3.9-0.6-5.5c-0.7-3.3-1.3-6.7-1.9-10c-2.2-13.7-3.1-27.6-2.7-41.4
		c0.4-13.2,3.7-26.5,2.7-39.7c0.1-0.1,0.2-0.1,0.3-0.2c0.9-0.6,0.4-1.8-0.4-2c-0.2-0.1-0.4-0.2-0.7-0.2c-33.2,2.5-66.5,2.9-99.8,1.2
		c-0.7,0-1,0.4-1,1c0,0-0.1,0-0.1,0c-0.2,0.1-0.3,0.2-0.5,0.2c-0.4,0.2-0.6,0.8-0.5,1.2c0.1,0.7,0.5,1.4,1.1,2.1
		c-2.2,26-1.3,52.2,2.7,77.9c0.9,6,1.3,13.6,3.9,19.1c1.8,3.7,5.7,6.5,9.1,8.7c8.1,5.3,17.3,8.2,26.7,10.6c-3.8,1-7.1,3.2-9.2,7.6
		c-0.6,1.2,1.3,2.3,1.8,1.1c3.6-7.6,12.5-7.9,19.8-6.8c6.3,0.9,12.1,1.9,18.5,1.8c7,0,14.2-0.5,20.8,2.1c6.6,2.6,11.3,7.9,14.4,14.1
		c6.3,12.7,5.3,27.4,8.2,41c2.8,12.9,8.4,24.9,14,36.7c-4.8,2.6-10,2.7-15.3,3c-5.5,0.3-11.1,0.5-16.6,0.8
		c-9.8,0.5-19.6,1.2-29.3,2.5c-4.8,0.7-9.7,1.4-14.3,2.8c-1.7,0.5-3.4,1.1-5,1.7c-1,0.4-4,2.5-5,2.4c-3.6-0.3-7.7-8.5-9.4-11.6
		c-3.1-5.5-4.7-11.5-3.9-17.8c0.2-1.3-1.9-1.9-2.1-0.6c-1.7,12.9,5.8,23.1,13.5,32.5c0.3,0.4,0.9,0.4,1.3,0.2
		c13.6-8.2,31.4-8.6,46.9-9.6c8-0.5,15.9-0.8,23.9-1.2c6-0.3,12-0.5,17.3-3.8c0.5-0.3,0.6-0.9,0.4-1.5
		c-7.8-16.5-14.2-32.3-16.3-50.6c-1.5-13.1-3.1-27.4-12.9-37.2c-2.5-2.5-5.2-4.2-8.1-5.4c0.9-11.9,33.2-0.1,38.7,2.4
		c10.4,4.8,19.5,11.7,27.1,20.3c0.9,1,2.4-0.5,1.5-1.5c-10-11.3-22.8-19.7-37.1-24.4c-4.1-1.3-14.4-4.5-22.3-4.2
		c0-0.2-0.1-0.5-0.3-0.7c-4.7-5.3,7.6-4.4,8.7-4.2c2.6,0.3,5.2,0.6,7.8,0.9c5.9,0.7,11.8,1.4,17.6,2.5c10.4,2.1,20.3,5.9,27.9,13.6
		C682.1,730.6,683.6,729.1,682.6,728.1z M518,602.1c31.8,1.5,63.6,1.2,95.4-1.1c-6.8,4.8-12.6,11.1-18.7,16.6
		c-7.1,6.5-14.5,12.6-22.7,17.6c-10.3-3.9-20.2-8.7-29.6-14.4c-4.4-2.7-8.7-5.5-12.8-8.5c-2.4-1.7-4.7-3.5-7-5.3
		c-1.2-0.9-2.3-1.9-3.5-2.9c-0.4-0.3-0.7-0.6-1.1-0.9C518,602.8,518,602.4,518,602.1z M579.5,721.8c-4.7-0.6-10.1-1.7-15.3-1.8
		c-0.1,0-0.2-0.1-0.3-0.1c-10.4-2.4-20.9-5.1-30.1-10.7c-6.4-3.9-9.8-7.7-11.3-15.3c-1.3-6.3-2.3-12.7-3.2-19.1
		c-3.1-22.7-3.6-45.6-1.8-68.5c2.1,1.8,4.8,3.3,6.3,4.5c4.8,3.7,9.8,7.2,15,10.4c9.7,6.1,20,11.2,30.7,15.4c-0.1,0-0.2,0.1-0.2,0.1
		c-1.2,0.7-0.1,2.5,1.1,1.8c8.3-4.8,15.8-10.7,23-17c7.1-6.3,13.8-13.9,21.7-19.2c0.5,10.7-1.9,21.5-2.5,32.2
		c-0.7,12.2-0.4,24.5,0.9,36.7c0.6,5.2,1.3,10.3,2.2,15.4c0.6,3.2,2,6.9,1.1,10.1c-1,3.5-5,5.5-7.9,7.7c-9,6.9-17.9,14.9-29.3,17.3
		C579.7,721.8,579.6,721.8,579.5,721.8z"/>
	<path class="st13" d="M457.1,603.6c0.2-0.3,0.2-0.6,0.1-0.9c0.1-0.6-0.2-1.3-1-1.4c-10.9-1.1-21.8-2.6-32.7-4.3
		c-1.3-0.2-1.9,1.8-0.6,2.1c10.5,1.7,21.1,3.1,31.6,4.2c-16.1,17.1-34.1,32.2-53.7,45c-0.7-0.5-1.4-1-2-1.7c-0.9-1-2.4,0.5-1.5,1.5
		c0.8,0.8,1.6,1.5,2.5,2.1c0.2,0.4,0.6,0.6,1,0.5c0.5,0.1,0.9-0.2,1.1-0.6c19.3-12.6,37.1-27.4,53-44.2
		c-1.6,34.6-3.2,69.2-4.8,103.7c-12.1,12.1-27.4,19.6-42.8,26.4c-0.1-0.3-0.3-0.5-0.7-0.6c-6.3-1-12.1-3.1-17.6-6.3
		c-1.2-0.7-2.3,1.2-1.1,1.8c5.4,3.1,11.2,5.2,17.3,6.3c-0.1,0.7,0.7,1.6,1.6,1.2c16.5-7.2,32.9-15.2,45.6-28.3
		c0.5-0.6,0.3-1.3-0.2-1.6l4.9-104.6C457.2,603.9,457.2,603.7,457.1,603.6z"/>
	<path class="st13" d="M320,640.1c-2.5-0.3-7.2-1.9-9.3,0.3c-0.8,0.9-0.9,1.9-1,3c-0.6,3.4-0.9,6.4-2.3,9.6c-1.1,2.4-2.5,4.6-4,6.7
		c-3.9-1.8-8-4.4-12.3-4.4c-1.4,0-1.4,2.2,0,2.1c3.8-0.1,7.6,2.3,11,3.9c-1.4,1.8-2.9,3.5-4.5,5.1c-2.9,3-7,5.7-8.8,9.6
		c-1.4,3.1-1.2,7.1-0.3,11.2c-6.6,6.9-7.7,16.4-8.4,25.6c-0.1,1.4,2,1.4,2.1,0c0.6-8.2,1.4-16.7,6.9-23.1c1.1,3.8,2.6,7.4,3.7,10.1
		c3.6,9,8.9,17,15.6,24c0.9,1,2.5-0.5,1.5-1.5c-5.9-6.2-10.7-13.1-14.1-20.9c-1.8-4.1-3.2-8.3-4.3-12.7c-1.3-5.5-2.5-10.2,1.6-14.8
		c5-5.6,10.8-10.2,14.6-16.9c1.7-3,3-6.2,3.7-9.5c0.2-0.9,0.1-2.9,0.4-3.6c1.7-3.6,5.3-2,8.2-1.7C321.4,642.4,321.4,640.3,320,640.1
		z"/>
	<path class="st13" d="M400.2,697.9c-3.3-4.3-8.2-7.9-12.2-11.8c0.7-0.2,1.1-1.1,0.5-1.7c-0.9-0.9-1.8-1.7-2.8-2.5
		c-0.4-0.4-1.1-0.4-1.5,0c-0.4,0.4-0.5,1.1,0,1.5c0.4,0.3,0.8,0.7,1.2,1c-0.6,0.3-1,1.1-0.4,1.7c1.9,2,3.8,3.9,5.8,5.8
		c1.7,1.7,4.7,3.6,6,5.6c2.1,1,2.2,2.6,0.4,4.6c-0.9,0.5-1.8,1-2.7,1.6c-1.1,0.8-2.2,1.8-3.1,2.8c-5.9,6.2-7.8,14.6-9.6,22.7
		c-0.3,1.3,1.8,1.9,2.1,0.6c1.3-6,2.7-12.3,5.9-17.6c1.6-2.6,3.5-4.9,6-6.6c1.5-1.1,4-1.8,5.1-3.4
		C401.9,700.6,401.3,699.3,400.2,697.9z"/>
	<path class="st13" d="M387.2,696.3c-0.8-2.6-2-4.7-3.9-6.7c-0.9-1-2.4,0.5-1.5,1.5c1.4,1.5,2.2,2.7,2.9,4.4
		c-7.5-0.5-13.7-4.9-19.7-9.1c-6.1-4.2-12-8.6-17.7-13.1c-10.9-8.7-21.2-18-31-28c-1-1-2.5,0.5-1.5,1.5c10.9,11.1,22.6,21.5,34.9,31
		c5.9,4.6,12,9,18.2,13.1c5.6,3.7,11.4,6.8,18.3,6.7C386.9,697.7,387.5,697,387.2,696.3z"/>
	<path class="st13" d="M312.9,658.8c-1-1-2.5,0.5-1.5,1.5c11.6,12.1,19.3,27.8,16.1,44.8c-0.2,1.3,1.8,1.9,2.1,0.6
		C332.8,687.9,325,671.4,312.9,658.8z"/>
	<path class="st13" d="M312.2,672.3c-0.7-1.2-2.6-0.1-1.8,1.1c4.1,6.7,4.5,14.7,1.1,21.8c-0.6,1.2,1.2,2.3,1.8,1.1
		C317,688.5,316.7,679.7,312.2,672.3z"/>
	<path class="st13" d="M361.9,587c-8.6-21.2-20.9-40.6-36.7-57.2c-0.9-1-2.4,0.5-1.5,1.5c15.5,16.4,27.7,35.4,36.1,56.3
		C360.4,588.9,362.5,588.3,361.9,587z"/>
	<path class="st13" d="M356.2,593.6c-7.2-14.9-16.5-28.6-27.7-40.9c-0.9-1-2.4,0.5-1.5,1.5c11.1,12.1,20.2,25.7,27.4,40.5
		C354.9,596,356.8,594.9,356.2,593.6z"/>
	<path class="st13" d="M332.7,579.6c-1.2-0.7-2.2,1.1-1.1,1.8c6.6,4.2,16.6,10.3,18.1,18.6c0.2,1.3,2.3,0.8,2.1-0.6
		C350.1,590.5,339.8,584.1,332.7,579.6z"/>
	<circle class="st14" cx="500.8" cy="569.6" r="5.9"/>
	<circle class="st14" cx="491.2" cy="648.5" r="5.9"/>
	<circle class="st14" cx="491.2" cy="724.2" r="5.9"/>
	<circle class="st14" cx="491.2" cy="895.8" r="5.9"/>
	<circle class="st14" cx="491.2" cy="818" r="5.9"/>
	<circle class="st14" cx="571.1" cy="624" r="5.9"/>
	<path class="st15" d="M521.8,234.7c-24.5,23-62.4,34.5-99.2,30c-1.6-0.2-2.3,1.9-0.7,2.1c37.7,4.7,76.6-6.9,101.7-30.5
		C524.7,235.2,522.9,233.7,521.8,234.7z"/>
	<path class="st15" d="M519.4,225.2c-9.4,9.8-23.6,14.5-37.7,18.1c-15.9,4.1-32.4,6.3-49,6.8c-1.7,0.1-1.7,2.2,0,2.1
		c17.7-0.6,35.2-3,52-7.5c13.7-3.6,27.4-8.5,36.6-18.1C522.2,225.6,520.4,224.1,519.4,225.2z"/>
	<path class="st15" d="M512.8,221.3c-18,8.1-38.5,10.7-58.7,7.3c-1.6-0.3-2.3,1.8-0.7,2.1c20.8,3.5,42,0.9,60.6-7.5
		C515.6,222.5,514.3,220.7,512.8,221.3z"/>
	<path class="st15" d="M564.8,276.6c-9.2-0.4-17-1.7-23.7-8.4c-5.5-5.4-9.6-12.1-12.7-19.1c-0.6-1.3-2.4-0.2-1.8,1.1
		c3.6,8.1,8.7,16.1,15.5,21.8c6.6,5.5,14.4,6.4,22.8,6.8C566.1,278.7,566.1,276.6,564.8,276.6z"/>
	<path class="st15" d="M568.5,265.5c-12.9,0.2-24.6-7.3-29.9-19c-0.6-1.2-2.4-0.2-1.8,1.1c5.6,12.4,18.1,20.3,31.8,20.1
		C569.9,267.6,569.9,265.5,568.5,265.5z"/>
	<path class="st15" d="M559.1,251.2c-5.5-0.6-10.4-3.2-14.1-7.4c-0.9-1-2.4,0.5-1.5,1.5c4.1,4.6,9.5,7.3,15.7,8
		C560.5,253.5,560.5,251.4,559.1,251.2z"/>
</g>
<g id="Layer_3" class="st0">
	
		<image style="display:inline;overflow:visible;opacity:0.2;" width="3508" height="2480" xlink:href="8.jpg"  transform="matrix(0.424 0 0 0.424 -246 -11)">
	</image>
</g>
</svg>
