<?xml version="1.0" encoding="UTF-8" standalone="no"?>
<svg
   xmlns:dc="http://purl.org/dc/elements/1.1/"
   xmlns:cc="http://creativecommons.org/ns#"
   xmlns:rdf="http://www.w3.org/1999/02/22-rdf-syntax-ns#"
   xmlns:svg="http://www.w3.org/2000/svg"
   xmlns="http://www.w3.org/2000/svg"
   xmlns:xlink="http://www.w3.org/1999/xlink"
   xmlns:sodipodi="http://sodipodi.sourceforge.net/DTD/sodipodi-0.dtd"
   xmlns:inkscape="http://www.inkscape.org/namespaces/inkscape"
   id="Layer_1"
   data-name="Layer 1"
   viewBox="0 0 640.00001 639.99999"
   version="1.1"
   sodipodi:docname="11-01-01.svg"
   width="640"
   height="640"
   inkscape:version="0.92.3 (2405546, 2018-03-11)">
  <metadata
     id="metadata416">
    <rdf:RDF>
      <cc:Work
         rdf:about="">
        <dc:format>image/svg+xml</dc:format>
        <dc:type
           rdf:resource="http://purl.org/dc/dcmitype/StillImage" />
        <dc:title>11-01</dc:title>
      </cc:Work>
    </rdf:RDF>
  </metadata>
  <sodipodi:namedview
     pagecolor="#ffffff"
     bordercolor="#666666"
     borderopacity="1"
     objecttolerance="10"
     gridtolerance="10"
     guidetolerance="10"
     inkscape:pageopacity="0"
     inkscape:pageshadow="2"
     inkscape:window-width="1920"
     inkscape:window-height="1001"
     id="namedview414"
     showgrid="false"
     inkscape:zoom="0.54998834"
     inkscape:cx="592.70313"
     inkscape:cy="523.33393"
     inkscape:window-x="-9"
     inkscape:window-y="-9"
     inkscape:window-maximized="1"
     inkscape:current-layer="Layer_1" />
  <defs
     id="defs139">
    <pattern
       inkscape:collect="always"
       xlink:href="#SVGID_10_"
       id="pattern1231"
       patternTransform="matrix(0.54,0,0,0.54,-7433.27,8585.23)" />
    <pattern
       inkscape:collect="always"
       xlink:href="#SVGID_9_"
       id="pattern1229"
       patternTransform="matrix(0.54,0,0,0.54,-7434.91,8510.67)" />
    <pattern
       inkscape:collect="always"
       xlink:href="#SVGID_8_"
       id="pattern1227"
       patternTransform="matrix(0.63,0.05,-0.05,0.63,-6083.33,9693.69)" />
    <pattern
       inkscape:collect="always"
       xlink:href="#SVGID_7_"
       id="pattern1225"
       patternTransform="matrix(0.63,0.05,-0.05,0.63,-6078.12,9607.18)" />
    <pattern
       inkscape:collect="always"
       xlink:href="#SVGID_1_"
       id="pattern1223"
       patternTransform="matrix(0.53,0,0,0.53,-7498.58,8294.93)" />
    <style
       id="style2">.cls-1{fill:none;}.cls-2{fill:#035693;}.cls-3{fill:#333;}.cls-3,.cls-4,.cls-5{opacity:0.14;}.cls-16,.cls-24,.cls-25,.cls-26,.cls-27,.cls-3,.cls-32,.cls-33,.cls-4,.cls-9{isolation:isolate;}.cls-4,.cls-6{fill:#1a1a1a;}.cls-7{fill:#999;}.cls-32,.cls-33,.cls-8{fill:#fff;}.cls-37,.cls-38,.cls-9{fill:#007cc7;}.cls-9{opacity:0.1;}.cls-10{fill:#fbd5af;}.cls-11{fill:#fff4d6;}.cls-12{fill:#f3a769;}.cls-13{fill:#472516;}.cls-14{fill:#f28561;}.cls-15{fill:#fda689;}.cls-16,.cls-27{fill:#b94a00;}.cls-16{opacity:0.09;}.cls-17{fill:#633625;}.cls-18{fill:#331318;}.cls-19,.cls-24,.cls-25,.cls-26{fill:#182149;}.cls-20{fill:url(#SVGID_1_);}.cls-21,.cls-22{stroke-miterlimit:10;}.cls-21{stroke-width:0.63px;fill:url(#SVGID_7_);stroke:url(#SVGID_8_);}.cls-22{stroke-width:0.54px;fill:url(#SVGID_9_);stroke:url(#SVGID_10_);}.cls-23{fill:#063c70;}.cls-24{opacity:0.13;}.cls-25{opacity:0.29;}.cls-26{opacity:0.54;}.cls-27{opacity:0.11;}.cls-28{fill:#ddd4cf;}.cls-29{fill:#f0ecea;}.cls-30{fill:#e6dbd3;}.cls-31{fill:#4198af;}.cls-32,.cls-33,.cls-37{fill-rule:evenodd;}.cls-32{opacity:0.5;}.cls-33{opacity:0.2;}.cls-34{fill:#666;}.cls-35{fill:#072439;}.cls-36{opacity:0.3;}</style>
    <pattern
       id="SVGID_1_"
       data-name="SVGID 1 "
       width="134"
       height="134"
       patternTransform="translate(-7498.58 8294.93) scale(0.53)"
       patternUnits="userSpaceOnUse"
       viewBox="0 0 134 134">
      <rect
         class="cls-1"
         width="134"
         height="134"
         id="rect4" />
      <rect
         class="cls-1"
         width="134"
         height="134"
         id="rect6" />
      <rect
         class="cls-1"
         width="134"
         height="134"
         id="rect8" />
      <rect
         class="cls-2"
         width="134"
         height="134"
         id="rect10" />
      <rect
         class="cls-3"
         y="105"
         width="134"
         height="11"
         id="rect12" />
      <rect
         class="cls-4"
         y="35"
         width="134"
         height="11"
         id="rect14" />
      <g
         class="cls-5"
         id="g18">
        <rect
           class="cls-6"
           x="29"
           width="11"
           height="134"
           id="rect16" />
      </g>
      <g
         class="cls-5"
         id="g24">
        <rect
           class="cls-6"
           x="90"
           width="11"
           height="134"
           id="rect20" />
        <rect
           class="cls-7"
           x="105"
           width="5"
           height="134"
           id="rect22" />
      </g>
      <g
         class="cls-5"
         id="g28">
        <rect
           class="cls-8"
           y="53"
           width="134"
           height="5"
           id="rect26" />
      </g>
    </pattern>
    <pattern
       id="SVGID_7_"
       data-name="SVGID 7 "
       width="134"
       height="134"
       patternTransform="matrix(0.63, 0.05, -0.05, 0.63, -6078.12, 9607.18)"
       patternUnits="userSpaceOnUse"
       viewBox="0 0 134 134">
      <rect
         class="cls-1"
         width="134"
         height="134"
         id="rect31" />
      <rect
         class="cls-1"
         width="134"
         height="134"
         id="rect33" />
      <rect
         class="cls-1"
         width="134"
         height="134"
         id="rect35" />
      <rect
         class="cls-2"
         width="134"
         height="134"
         id="rect37" />
      <rect
         class="cls-3"
         y="105"
         width="134"
         height="11"
         id="rect39" />
      <rect
         class="cls-4"
         y="35"
         width="134"
         height="11"
         id="rect41" />
      <g
         class="cls-5"
         id="g45">
        <rect
           class="cls-6"
           x="29"
           width="11"
           height="134"
           id="rect43" />
      </g>
      <g
         class="cls-5"
         id="g51">
        <rect
           class="cls-6"
           x="90"
           width="11"
           height="134"
           id="rect47" />
        <rect
           class="cls-7"
           x="105"
           width="5"
           height="134"
           id="rect49" />
      </g>
      <g
         class="cls-5"
         id="g55">
        <rect
           class="cls-8"
           y="53"
           width="134"
           height="5"
           id="rect53" />
      </g>
    </pattern>
    <pattern
       id="SVGID_8_"
       data-name="SVGID 8 "
       width="134"
       height="134"
       patternTransform="matrix(0.63, 0.05, -0.05, 0.63, -6083.33, 9693.69)"
       patternUnits="userSpaceOnUse"
       viewBox="0 0 134 134">
      <rect
         class="cls-1"
         width="134"
         height="134"
         id="rect58" />
      <rect
         class="cls-1"
         width="134"
         height="134"
         id="rect60" />
      <rect
         class="cls-1"
         width="134"
         height="134"
         id="rect62" />
      <rect
         class="cls-2"
         width="134"
         height="134"
         id="rect64" />
      <rect
         class="cls-3"
         y="105"
         width="134"
         height="11"
         id="rect66" />
      <rect
         class="cls-4"
         y="35"
         width="134"
         height="11"
         id="rect68" />
      <g
         class="cls-5"
         id="g72">
        <rect
           class="cls-6"
           x="29"
           width="11"
           height="134"
           id="rect70" />
      </g>
      <g
         class="cls-5"
         id="g78">
        <rect
           class="cls-6"
           x="90"
           width="11"
           height="134"
           id="rect74" />
        <rect
           class="cls-7"
           x="105"
           width="5"
           height="134"
           id="rect76" />
      </g>
      <g
         class="cls-5"
         id="g82">
        <rect
           class="cls-8"
           y="53"
           width="134"
           height="5"
           id="rect80" />
      </g>
    </pattern>
    <pattern
       id="SVGID_9_"
       data-name="SVGID 9 "
       width="134"
       height="134"
       patternTransform="translate(-7434.91 8510.67) scale(0.54)"
       patternUnits="userSpaceOnUse"
       viewBox="0 0 134 134">
      <rect
         class="cls-1"
         width="134"
         height="134"
         id="rect85" />
      <rect
         class="cls-1"
         width="134"
         height="134"
         id="rect87" />
      <rect
         class="cls-1"
         width="134"
         height="134"
         id="rect89" />
      <rect
         class="cls-2"
         width="134"
         height="134"
         id="rect91" />
      <rect
         class="cls-3"
         y="105"
         width="134"
         height="11"
         id="rect93" />
      <rect
         class="cls-4"
         y="35"
         width="134"
         height="11"
         id="rect95" />
      <g
         class="cls-5"
         id="g99">
        <rect
           class="cls-6"
           x="29"
           width="11"
           height="134"
           id="rect97" />
      </g>
      <g
         class="cls-5"
         id="g105">
        <rect
           class="cls-6"
           x="90"
           width="11"
           height="134"
           id="rect101" />
        <rect
           class="cls-7"
           x="105"
           width="5"
           height="134"
           id="rect103" />
      </g>
      <g
         class="cls-5"
         id="g109">
        <rect
           class="cls-8"
           y="53"
           width="134"
           height="5"
           id="rect107" />
      </g>
    </pattern>
    <pattern
       id="SVGID_10_"
       data-name="SVGID 10 "
       width="134"
       height="134"
       patternTransform="translate(-7433.27 8585.23) scale(0.54)"
       patternUnits="userSpaceOnUse"
       viewBox="0 0 134 134">
      <rect
         class="cls-1"
         width="134"
         height="134"
         id="rect112" />
      <rect
         class="cls-1"
         width="134"
         height="134"
         id="rect114" />
      <rect
         class="cls-1"
         width="134"
         height="134"
         id="rect116" />
      <rect
         class="cls-2"
         width="134"
         height="134"
         id="rect118" />
      <rect
         class="cls-3"
         y="105"
         width="134"
         height="11"
         id="rect120" />
      <rect
         class="cls-4"
         y="35"
         width="134"
         height="11"
         id="rect122" />
      <g
         class="cls-5"
         id="g126">
        <rect
           class="cls-6"
           x="29"
           width="11"
           height="134"
           id="rect124" />
      </g>
      <g
         class="cls-5"
         id="g132">
        <rect
           class="cls-6"
           x="90"
           width="11"
           height="134"
           id="rect128" />
        <rect
           class="cls-7"
           x="105"
           width="5"
           height="134"
           id="rect130" />
      </g>
      <g
         class="cls-5"
         id="g136">
        <rect
           class="cls-8"
           y="53"
           width="134"
           height="5"
           id="rect134" />
      </g>
    </pattern>
  </defs>
  <title
     id="title141">11-01</title>
  <path
     class="cls-10"
     d="m 395.64805,631.00743 c 53.66134,10.41673 120.40052,-4.73961 128.24722,-45.72947 4.13429,-21.6668 -9.87166,-43.69819 -31.80868,-60.05247 -21.93703,-16.35427 -45.73026,-35.15647 -75.76711,-44.01069 -79.31078,-23.43765 -173.8931,-24.37516 -259.70061,-16.51052 -39.3179,3.59377 -78.382676,14.42717 -105.550835,34.21897 -20.924547,15.26051 -34.846119,37.65648 -22.443264,56.71911 10.799766,16.56261 38.474165,25.72933 65.304832,28.12518 26.830667,2.39585 54.083207,-0.46875 81.082617,-0.72917 a 263.5649,162.69896 0 0 1 116.3506,15.57301 c 35.26798,10.20841 67.41416,25.26059 104.28523,32.39605 z"
     id="path145"
     inkscape:connector-curvature="0"
     style="fill:#fbd5af;stroke-width:1" />
  <path
     class="cls-10"
     d="m 407.67161,495.64872 c 23.4,7.4 47.1,16.9 63.8,35 5.2,5.7 9.8,12.4 10.9,20.1 1.1,7.1 -0.9,14.3 -4.2,20.7 -4.2,8 -10.9,15 -19.4,18.2 -8.9,3.4 -18.8,2.3 -28.3,1.3 a 1400.85,1400.85 0 0 0 -168.9,-7.2 c -19.4,0.4 -39.2,1.1 -57.8,-4.7 -21.8,-6.8 -40.1,-22.1 -53.8,-40.4 -5.4,-7.3 -10.3,-15.3 -11.8,-24.3 -3,-18.9 8.1,-27.1 24,-31 a 402.85,402.85 0 0 1 58.8,-9.7 c 40.3,-3.6 81,-1.3 120.8,5.8 a 519.55,519.55 0 0 1 65.9,16.2 z"
     id="path163"
     inkscape:connector-curvature="0"
     style="fill:#fbd5af" />
  <path
     class="cls-13"
     d="m 274.67161,79.148719 c 2.6,-4.5 3.9,-9.6 6.9,-13.9 5.8,-8.3 16.4,-11.4 24.5,-17.399998 3.6,-2.7 6.8,-6.1 10.4,-8.8 8.6,-6.5 21.5,-8.5 31.7,-5.1 5.7,1.9 11,4.9 16.8,6.6 5.8,1.7 12,2.1 17.9,3.8 a 45.37,45.37 0 0 1 25,18.199998 c 2.2,3.3 5.4,6.8 6.7,10.6 0.9,2.8 0.1,6.9 2.4,8.7 1.8,1.4 5.9,1.2 8.1,2.3 a 20.32,20.32 0 0 1 7.3,6 23.09,23.09 0 0 1 4.5,16.100001 c -0.3,3.5 -1.4,7 -1.2,10.5 0.2,4 2,7.7 2.1,11.7 0.1,4.3 -1.8,8.4 -3.6,12.4 -7.4,15.9 -14.5,31.7 -22,47.5 -8.3,17.5 -19.9,42.7 -35.7,54.3 -2.1,1.5 -5.7,-0.8 -4.2,-3.4 5.1,-9 10.4,-18 15.7,-27 -6.1,3.1 -13.3,5.1 -20,7.3 -17.3,5.7 -41.5,4.1 -59.3,-0.2 -13.8,-3.3 -28.9,-9.7 -34.8,-23.5 -6.9,-16 -4.6,-33.9 -5.7,-50.8 -0.8,-12.6 -4.6,-14.4 -6.8,-26.9 -0.5,-2.6 -0.5,-13.8 2.1,-22.1 2.3,-7.900001 7.4,-10.500001 11.2,-16.900001 z"
     id="path165"
     inkscape:connector-curvature="0"
     style="fill:#472516" />
  <path
     class="cls-14"
     d="m 264.77161,152.84872 a 15,15 0 0 1 1.9,-3.2 v 0 c 1.9,-3 5.2,-5.3 8.8,-4.8 a 5.54,5.54 0 0 1 4,2.2 v 0 c 2.6,1.2 4,3.6 2.4,6.8 a 1.32,1.32 0 0 1 -2.2,0.3 7.94,7.94 0 0 0 -1.4,-1.7 v 0 c -0.4,5.7 0.8,11.6 -0.5,17.2 -0.3,1.1 3.5,11.7 6.6,16.2 1,1.4 -0.5,3.7 -2.2,2.8 -0.1,0 -0.1,-0.1 -0.2,-0.1 -0.6,1.2 -2.3,2 -3.4,1 a 5.72,5.72 0 0 1 -0.7,-0.8 v 0 a 1.22,1.22 0 0 1 -1.6,0.1 c -4.2,-2.5 -8.5,-7.5 -9.8,-12 -2.2,-6.7 -4.8,-16.8 -1.7,-24 z"
     id="path167"
     inkscape:connector-curvature="0"
     style="fill:#f28561" />
  <path
     class="cls-14"
     d="m 401.67161,180.24872 a 35.15,35.15 0 0 1 4,-6.4 1.55,1.55 0 0 1 -1.1,-2.1 c 2.5,-5.9 9.9,-8.9 15.5,-5.3 7.2,4.5 5.3,16 2.2,22.5 -3.6,7.6 -10.9,15.9 -18.6,19.7 -6,3 -10.4,-0.2 -9.5,-6.8 1.1,-7.1 4.4,-15.4 7.5,-21.6 z"
     id="path169"
     inkscape:connector-curvature="0"
     style="fill:#f28561" />
  <path
     class="cls-15"
     d="m 277.27161,151.74872 c -1.4,16.1 -3.5,39.8 -2.6,45.7 0.9,5.3 -1.2,20.8 3.8,31.6 8.5,11 21.2,28.1 26.1,33.5 a 23.79,23.79 0 0 0 13.2,7.7 c 4.7,1.1 11.3,2.6 16.1,1.8 2,-0.4 3.6,-1.8 5.2,-2.8 4.4,-2.7 9,-5 13.3,-7.7 4.3,-2.7 20.8,-13.9 29.1,-19.2 5.8,-7.6 9.4,-23.7 12.9,-33.8 5.2,-15.1 11.1,-27.6 14.9,-43 3.5,-14.4 3.8,-27.8 -1,-42 -3.5,-10.3 -8.2,-25.8 -17.1,-33.100001 -12,-9.9 -26.3,-7.4 -38.7,-0.3 -9,-5 -24.9,-2 -33.6,-1 -10.8,1.3 -25.5,12.900001 -32.1,22.100001 1,-4.5 2.4,-8.8 5.2,-12.3 a 1.46,1.46 0 0 0 -2.2,-1.9 c -5.8,5.9 -5.5,8.5 -6.9,16.2 a 357,357 0 0 0 -5.6,38.5 z"
     id="path171"
     inkscape:connector-curvature="0"
     style="fill:#fda689" />
  <path
     class="cls-15"
     d="m 191.57161,329.74872 a 19.13,19.13 0 0 0 4.8,0.6 c -3.1,11.2 1.9,23 9.9,31.2 7.4,7.7 20.2,18.7 31.7,14.9 a 1.52,1.52 0 0 0 -0.3,-3 38.84,38.84 0 0 1 -8.9,-2.3 c 9.8,1.7 19.9,2.5 29.6,3.7 13.9,1.8 27.6,4.1 41.5,6 25.9,3.6 52.6,4.8 78.5,0.7 2,-0.3 4,-0.7 6,-1.1 a 131.93,131.93 0 0 0 14.4,-3.7 c 2.7,-0.9 5.3,-1.8 7.9,-2.9 a 118.71,118.71 0 0 0 11.4,-5.4 86.48,86.48 0 0 0 12.4,-8.3 c 10,-8.1 7.8,-16.7 -3.1,-19.4 l -0.2,-0.2 c -5.4,-2.9 -10.7,-5.7 -15.9,-8.7 a 148.15,148.15 0 0 1 -14.2,-9 103.44,103.44 0 0 1 -9.7,-7.8 c -6.8,-6.2 -8.1,-12.4 -10.6,-21.4 -2.6,-9.3 6.3,-76.7 6.3,-76.7 l -95.3,-8.2 c 0,0 -2.2,38.8 -3.6,52 -1,9.7 -3.4,21.6 -8.4,30.2 -4.4,7.5 -8.2,11.6 -16.1,14.8 -11.3,4.6 -23,8.5 -34.4,12.8 -11,4.1 -22.5,7.3 -33,7 a 2.15,2.15 0 0 0 -0.7,4.2 z"
     id="path173"
     inkscape:connector-curvature="0"
     style="fill:#fda689" />
  <path
     class="cls-13"
     d="m 349.67161,136.74872 c 3.1,-6.8 12.2,-6.5 18.6,-5.9 6.1,0.6 15.5,1.1 19,6.9 a 3.8,3.8 0 0 1 -2.7,5.7 c -1.2,0.2 -22.8,0.2 -32.2,-1.5 a 3.65,3.65 0 0 1 -2.7,-5.2 z"
     id="path175"
     inkscape:connector-curvature="0"
     style="fill:#472516" />
  <path
     class="cls-13"
     d="m 326.17161,141.94872 c -0.1,-7 -8.1,-10.1 -13.7,-12 -5.4,-1.8 -13.7,-4.9 -18.9,-1.1 a 3.6,3.6 0 0 0 0.2,5.9 c 0.9,0.6 17.9,7.4 28.2,10.7 a 3.38,3.38 0 0 0 4.2,-3.5 z"
     id="path177"
     inkscape:connector-curvature="0"
     style="fill:#472516" />
  <path
     class="cls-13"
     d="m 278.47161,110.54872 a 2.89,2.89 0 0 1 1.5,-3.3 46,46 0 0 1 2.5,-4.4 c 7.8,-11.600001 23.4,-15.500001 35.8,-17.100001 9.3,-1.2 19.7,-3.2 29.9,-3.8 -4.4,7.4 22.6,-2.3 24.4,-2 6.1,1.1 12.4,1.9 17.5,5.7 7.1,5.3 9.5,14.600001 15.8,20.700001 a 3.23,3.23 0 0 1 1,1.9 1.93,1.93 0 0 1 1.6,1.3 75.89,75.89 0 0 1 3.3,20.7 2.52,2.52 0 0 1 3.8,1.8 43.39,43.39 0 0 1 0.2,12.5 1.76,1.76 0 0 1 1.1,1.6 11.16,11.16 0 0 1 -2.3,6.8 c 0,0.2 -0.1,0.3 -0.1,0.5 a 3.53,3.53 0 0 1 -0.2,2 c -0.1,0.3 -0.3,0.5 -0.4,0.8 -2,4 -6.6,1.2 -7.7,-1.9 -1.9,-5.3 -0.4,-10.4 -1.1,-15.8 -0.8,-5.9 -3.3,-11.4 -6,-16.6 -2.6,-4.9 -5.7,-10.2 -4.7,-15.8 a 28.58,28.58 0 0 1 -17.8,2.1 c -4.9,-1 -1.6,3.8 -21.8,0.4 -12.8,-2.2 -17.8,-13.600001 -30.2,-9.5 -4.7,1.5 -11.8,8.1 -16,10.5 -5.3,2.9 -17.9,2.4 -18.4,8.4 -1.7,20 -10,20.3 -16.1,20.3 -4.7,0.1 1.5,-12.7 1.8,-16.9 a 60.11,60.11 0 0 1 1.3,-8.5 c 0.6,-1.6 1.8,-1.1 1.3,-2.4 z"
     id="path179"
     inkscape:connector-curvature="0"
     style="fill:#472516" />
  <path
     class="cls-16"
     d="m 298.57161,255.04872 a 19.73,19.73 0 0 0 6.5,15.6 c 2.9,2.5 7.4,4.3 9.4,7.7 2,3.4 3.7,4.9 7.6,6 a 21.81,21.81 0 0 0 11.6,0.5 c 3.6,-1 6.7,-3.4 10.1,-5 5,-2.4 10.7,-3.2 16.2,-3.3 5.5,-0.1 11.1,0.9 16.6,0 0.6,-9.6 1.8,-21.5 3,-32.1 -7.9,6.5 -18,14.9 -21.3,17.4 -4,3.1 -8.4,5.9 -12.5,9 -1.5,1.2 -3,2.7 -4.9,3.3 -4.7,1.4 -11.4,0.5 -16.2,-0.1 a 24.07,24.07 0 0 1 -13.9,-6.3 c -2.3,-2.4 -7,-7.2 -12.2,-12.7 z"
     id="path181"
     inkscape:connector-curvature="0"
     style="opacity:0.08999999;isolation:isolate;fill:#b94a00" />
  <path
     class="cls-14"
     d="m 330.97161,200.84872 c -4.8,3.4 -12.6,6.1 -11.4,-3.7 0.7,-5.3 3.6,-11.1 5.2,-16.1 3.2,-10 7.1,-20.3 8.6,-30.7 0.8,-5.7 0.9,-12.5 -2.1,-17.8 -2.7,-4.8 -8,-7.4 -12.9,-9.2 -1.3,-0.5 -1.9,1.6 -0.6,2.1 8.2,3 13,7.3 13.8,16.2 1,11.4 -4,23.5 -7.4,34.2 -1.7,5.5 -3.5,10.9 -5.3,16.3 -1,3.2 -3.1,7.2 -1.5,10.6 3,6.4 10.7,2.6 14.6,-0.1 1.2,-0.7 0.1,-2.6 -1,-1.8 z"
     id="path183"
     inkscape:connector-curvature="0"
     style="fill:#f28561" />
  <path
     class="cls-14"
     d="m 373.17161,184.54872 a 15.13,15.13 0 0 1 -16.2,-1.5 c -0.5,-0.4 -1.3,0.3 -0.8,0.8 a 16.16,16.16 0 0 0 17.5,1.7 c 0.6,-0.3 0.1,-1.3 -0.5,-1 z"
     id="path185"
     inkscape:connector-curvature="0"
     style="fill:#f28561" />
  <path
     class="cls-14"
     d="m 305.27161,173.94872 a 16.67,16.67 0 0 1 -16,-2 c -0.6,-0.4 -1.1,0.5 -0.5,0.9 a 17.2,17.2 0 0 0 16.8,2.1 c 0.6,-0.2 0.3,-1.3 -0.3,-1 z"
     id="path187"
     inkscape:connector-curvature="0"
     style="fill:#f28561" />
  <path
     class="cls-17"
     d="m 402.87161,82.748719 c -1,-8.6 -8.5,-14.4 -15,-19.1 -7.9,-5.7 -17.2,-9.8 -27,-10.5 -11.1,-0.8 -22.2,3 -33.3,3.7 -9,0.6 -17.9,1.3 -25.2,7.1 -1.4,1.1 0.6,3 1.9,1.9 7.1,-5.7 16.2,-5.8 24.9,-6.4 8.9,-0.6 17.7,-3.2 26.6,-3.7 9.2,-0.4 18.1,2.4 26,7 7.1,4.2 17.5,11.1 18.5,20 0.1,1.7 2.8,1.7 2.6,0 z"
     id="path189"
     inkscape:connector-curvature="0"
     style="fill:#633625" />
  <path
     class="cls-17"
     d="m 344.17161,67.048719 c -18.2,-0.1 -34.3,8.7 -49.1,18.5 -1.5,1 -0.1,3.3 1.4,2.3 14.4,-9.5 30,-18.2 47.7,-18.1 a 1.35,1.35 0 0 0 0,-2.7 z"
     id="path191"
     inkscape:connector-curvature="0"
     style="fill:#633625" />
  <path
     class="cls-17"
     d="m 409.37161,82.248719 c -2.9,4.8 -7.3,10.5 -13.8,8.6 -4,-1.2 -6.9,-4.7 -9.9,-7.4 a 20.73,20.73 0 0 0 -16.4,-5.6 c -1.7,0.2 -1.7,2.9 0,2.7 6.4,-0.7 11.2,1.7 15.7,5.9 2.8,2.6 5.5,5.4 9.2,6.7 7.9,2.8 13.8,-3.5 17.5,-9.6 1,-1.4 -1.4,-2.7 -2.3,-1.3 z"
     id="path193"
     inkscape:connector-curvature="0"
     style="fill:#633625" />
  <path
     class="cls-17"
     d="m 369.37161,90.248719 c -13.9,-3.7 -28.2,-7.1 -42.3,-2.5 -1.6,0.5 -0.9,3.1 0.7,2.6 13.6,-4.4 27.4,-1 40.8,2.5 a 1.3601471,1.3601471 0 0 0 0.8,-2.6 z"
     id="path195"
     inkscape:connector-curvature="0"
     style="fill:#633625" />
  <path
     class="cls-17"
     d="m 277.37161,94.748719 a 49.28,49.28 0 0 0 -4.7,14.500001 c -0.3,1.7 2.3,2.4 2.6,0.7 a 48.16,48.16 0 0 1 4.5,-13.9 c 0.7,-1.500001 -1.6,-2.900001 -2.4,-1.300001 z"
     id="path197"
     inkscape:connector-curvature="0"
     style="fill:#633625" />
  <path
     class="cls-17"
     d="m 290.07161,101.94872 a 1.35,1.35 0 0 0 0,-2.7 1.35,1.35 0 1 0 0,2.7 z"
     id="path199"
     inkscape:connector-curvature="0"
     style="fill:#633625" />
  <path
     class="cls-17"
     d="m 297.67161,100.34872 a 1.35,1.35 0 0 0 0,-2.7 1.35,1.35 0 0 0 0,2.7 z"
     id="path201"
     inkscape:connector-curvature="0"
     style="fill:#633625" />
  <path
     class="cls-17"
     d="m 417.57161,98.54872 c 4.8,5.9 4,11.8 1.8,18.5 -1.8,5.3 -0.5,10.1 1.3,15.2 0.6,1.6 3.2,0.9 2.6,-0.7 -1.5,-4.2 -2.9,-8.5 -1.6,-13 0.8,-2.9 2.1,-5.3 2.4,-8.4 a 19.09,19.09 0 0 0 -4.5,-13.5 c -1.1,-1.400001 -3.1,0.5 -2,1.9 z"
     id="path203"
     inkscape:connector-curvature="0"
     style="fill:#633625" />
  <path
     class="cls-17"
     d="m 409.07161,117.94872 c -1.5,7.4 3,13.8 3.3,21.1 0.1,1.7 2.8,1.7 2.7,0 -0.3,-6.9 -4.8,-13.5 -3.4,-20.4 0.3,-1.6 -2.3,-2.4 -2.6,-0.7 z"
     id="path205"
     inkscape:connector-curvature="0"
     style="fill:#633625" />
  <path
     class="cls-18"
     d="m 274.47161,143.14872 -1.2,7.2 c 0,0 3.2,1.5 3.8,3 0.4,0.8 0.3,4.1 0.4,7.5 a 23.83,23.83 0 0 0 3.4,15.4 c 3.2,4.9 8.4,8 15,9.1 10.5,1.8 23.6,-1.7 28.9,-16.8 a 18,18 0 0 0 1.1,-7.3 c 3.3,-0.2 12.2,-0.4 17.3,3.1 a 17,17 0 0 0 -1.3,7.1 c -0.1,16 11.1,23.6 21.7,25.4 6.6,1.1 12.5,-0.1 17.1,-3.7 a 23.53,23.53 0 0 0 8.4,-13.4 c 1.3,-3.2 2.3,-6.3 2.9,-7 1.1,-1.2 4.6,-1.5 4.6,-1.5 l 1.2,-7.1 c -22.8,-7.4 -29.5,-7.7 -29.5,-7.7 a 0.31,0.31 0 0 1 0.2,0.1 h -0.4 c -8.6,-0.8 -14.5,-0.3 -18.6,1.6 l 0.1,-0.1 a 87.86,87.86 0 0 0 -13.5,-4 c -5.1,-1.1 -10.4,-0.2 -13.2,0.4 -3.1,-3.6 -8.7,-6.2 -17.8,-8.6 -0.1,0 -0.2,-0.1 -0.4,-0.1 h 0.2 c 0,0 -6.4,-2 -30.4,-2.6 z m 73.9,19.7 c 3.2,-2.9 9.2,-3.8 19.3,-2.9 0.7,0.1 1.7,0.2 2.8,0.4 4,0.7 9.7,2.3 13,6.4 a 12.28,12.28 0 0 1 2.6,9.3 c -0.6,5.9 -3.4,11.3 -7.6,14.5 -3.9,3 -8.8,4 -14.5,3 -4.4,-0.8 -18.9,-4.6 -18.8,-22 0.1,-4 1.2,-6.8 3.2,-8.7 z m -66.9,-4.7 c 0.9,-3.6 2.7,-6.3 5.5,-7.9 4.5,-2.7 10.5,-2.3 14.4,-1.6 1.1,0.2 2.1,0.4 2.8,0.6 9.9,2.5 15.2,5.3 17.3,9.1 1.3,2.4 1.3,5.5 0,9.2 -5.7,16.4 -20.6,15.2 -25,14.5 -5.7,-1 -10,-3.6 -12.6,-7.6 a 20.89,20.89 0 0 1 -2.4,-16.3 z"
     id="path207"
     inkscape:connector-curvature="0"
     style="fill:#331318" />
  <polygon
     class="cls-18"
     points="447.1,239.2 448.2,232.1 463.7,227.6 462,235.6 "
     id="polygon209"
     style="fill:#331318"
     transform="translate(-52.728391,-67.651279)" />
  <path
     class="cls-19"
     d="m 274.37161,489.54872 c 0,0 30.8,-97 46.8,-154.7 16,-57.7 51.9,-10.1 119.4,-23.5 46.5,-9.2 73.2,-4.6 79,16.3 9.5,33.8 -8.4,131 -23.7,165.2 z"
     id="path211"
     inkscape:connector-curvature="0"
     style="fill:#182149" />
  <path
     class="cls-15"
     d="m 306.87161,511.54872 a 12.74,12.74 0 0 0 -11.7,-9 c -17.5,-0.6 -56.3,-1.5 -68.1,1.9 -15.4,4.5 -34.2,23.6 -39.4,32.5 -5.2,8.9 8.7,11 8.7,11 0,0 4.7,5.3 10.5,6.7 5.8,1.4 12.5,-0.3 12.5,-0.3 a 17.19,17.19 0 0 0 7.8,5 c 5.1,1.6 21.4,-4.4 27.2,-5.8 5.8,-1.4 14.6,3.3 30.4,2.6 15.8,-0.7 22.9,-16.2 25.1,-24 1.2,-4.8 -1,-13.8 -3,-20.6 z"
     id="path213"
     inkscape:connector-curvature="0"
     style="fill:#fda689" />
  <path
     class="cls-20"
     d="m 505.97161,450.94872 c -0.2,-1.3 -0.5,-2.6 -0.8,-3.9 -0.8,-3.8 -1.5,-7.5 -2.3,-11.1 -7.4,-35.9 -11.7,-71.9 -21.8,-107.1 -1.1,-3.8 -2.2,-7.6 -4.6,-10.7 -2.8,-3.6 -6.9,-5.8 -11,-7.6 -18.9,-8.7 -70.3,-24.8 -87.3,-6.2 -4.2,4.6 -6.1,10.9 -9.9,15.9 -8.7,11.8 -29.9,3.1 -43.6,-2 -13.7,-5.1 -20.6,-5.1 -29.5,-16.8 -8.4,-11.1 -17,-11.8 -30.2,-11.6 -10.3,0.1 -20.8,0.9 -31.1,0.5 -14.1,-0.6 -27.9,12.2 -37.6,21.1 q -18.15,16.65 -35.1,34.6 c -16,17.2 -30.9,35.5 -43.5,55.4 a 247.61,247.61 0 0 0 -12.7,22.4 c -6.400001,12.6 -3.6,31.7 6.1,42.6 10,11.2 27.1,11.6 42.1,11.3 9.2,-0.2 18.4,-0.5 27.5,-0.7 -0.4,0 -3.1,15.4 -1.8,16.8 1.6,1.8 7.4,0.5 9.8,0.4 h 227.2 l -2.5,0.3 c -37.5,3.2 -72.2,4.5 -109.8,2.3 -8,-0.5 -6.5,8.9 -6.5,10.2 -0.6,12.2 -2.6,25.1 -1.7,37.3 0.6,8.6 5.2,10.7 13,12.5 23.2,5.2 47.5,3.6 71.1,4.1 a 562.14,562.14 0 0 0 56.6,-1.2 c 12.7,-1.1 25.3,-2.9 37.9,-5.2 6.8,-1.3 14,-2.9 19.2,-7.5 3.5,-3.1 5.9,-7.4 7.6,-11.8 12.2,-31.1 8.9,-67.9 3.2,-99.7 -6.7,-37.3 -12.3,-74.2 -25.6,-109.7 -1.9,-5.2 -4,-10.5 -8,-14.4 -4.8,-4.7 -11.5,-6.5 -18,-8.2 -13.5,-3.5 -35.3,-7.1 -48.7,-10.6 -10.2,-2.7 -22.1,-5.1 -30.6,1.3 -8.8,6.6 -10.2,20.4 -19.6,26.1 -7.5,4.5 -17.8,2.5 -24.8,7.7"
     id="path215"
     inkscape:connector-curvature="0"
     style="fill:url(#pattern1223)" />
  <path
     class="cls-21"
     d="m 379.07161,274.94872 c 0.2,-0.7 0.3,-3 4.5,9.9 4.2,12.9 7.1,9.3 6.2,16.1 -0.9,6.8 -45.9,47.3 -48.2,48 -2.3,0.7 -16.3,-29.5 -20.7,-34.1 0,0 0.2,-5.2 16.8,-12 16.6,-7 38.5,-19.5 41.4,-27.9 z"
     id="path217"
     inkscape:connector-curvature="0"
     style="fill:url(#pattern1225);stroke:url(#pattern1227);stroke-width:0.63px;stroke-miterlimit:10" />
  <path
     class="cls-22"
     d="m 278.77161,274.04872 c -0.2,-0.6 -2.4,-5.2 -8.7,5.6 -6.3,10.8 -10.5,6 -10.1,11.9 0.4,5.9 29,52 41.7,53.4 9.4,1.1 22.1,-24.1 27.7,-27.8 0,0 0.2,-4.5 -18.7,-11.5 -18.9,-7.2 -29.3,-24.2 -31.9,-31.6 z"
     id="path219"
     inkscape:connector-curvature="0"
     style="fill:url(#pattern1229);stroke:url(#pattern1231);stroke-width:0.54000002px;stroke-miterlimit:10" />
  <path
     class="cls-23"
     d="m 326.57161,328.24872 c 3.3,6.4 6.5,12.4 12.3,16.9 6.7,5.2 12.8,-0.8 17.7,-5.6 12.6,-12.3 25.4,-26.2 34.4,-41.4 a 1.1,1.1 0 0 0 -1.9,-1.1 c -7.9,13.4 -19,25.4 -29.8,36.6 -2.1,2.2 -4.2,4.3 -6.4,6.4 a 38.76,38.76 0 0 1 -3.1,2.6 q -5.7,4.2 -10.8,-0.3 c -4.8,-4.3 -7.5,-9.5 -10.5,-15.1 a 1.0735455,1.0735455 0 1 0 -1.9,1 z"
     id="path221"
     inkscape:connector-curvature="0"
     style="fill:#063c70" />
  <path
     class="cls-23"
     d="m 264.37161,307.04872 a 87.19,87.19 0 0 1 10.4,13 c 2.5,3.7 4.3,8 7.1,11.5 2.7,3.3 6.2,5.9 8.9,9.2 2.4,2.9 4.4,6.6 8.2,7.9 5.4,1.9 9.6,-3.8 12.6,-7.4 a 115.77,115.77 0 0 0 12.4,-18.6 c 0.6,-1.1 -1.1,-2 -1.6,-1 a 137.36,137.36 0 0 1 -10.2,15.8 52.58,52.58 0 0 1 -6.2,7.1 12.21,12.21 0 0 1 -2.5,2 c -5,2.2 -7.8,-2.8 -10.2,-5.7 -4.5,-5.5 -9.8,-9.7 -13.4,-15.9 a 98.72,98.72 0 0 0 -14.2,-19.1 c -0.8,-1 -2.1,0.4 -1.3,1.2 z"
     id="path223"
     inkscape:connector-curvature="0"
     style="fill:#063c70" />
  <path
     class="cls-24"
     d="m 248.77161,299.04872 c 0,0 15.1,-18.5 22.5,-28.6 7.4,-10.1 19.7,-33.7 24.3,-31.4 4.6,2.3 -5.1,18.1 -2,24.6 2.1,4.4 22.5,-3.3 25.5,-4.2 4.7,-1.4 9.3,-2.8 14,-4.1 5.8,-1.7 11,-2.7 16.1,-6.2 3.7,-2.5 7.4,-5.2 10.9,-8 a 2.33,2.33 0 0 1 1.5,-0.7 2,2 0 0 1 1.6,1.1 c 1.4,2.5 -0.2,5.7 -2,8 -6,8.1 -13.8,13.4 -22.2,18.7 -2.6,1.7 -11.9,5.5 -12.3,8.9 1.6,0.2 5.9,-0.8 7.5,7 1.6,7.8 -4.6,4.8 -1.8,10.7 1.2,2.6 5.2,4.1 6.5,7.9 1,3.1 -4.9,6 -3.4,9.1 1.7,3.5 -7.4,14.2 -17.8,18 -2.3,0.8 -45,5.7 -45,5.7 z"
     id="path229"
     inkscape:connector-curvature="0"
     style="opacity:0.12999998;isolation:isolate;fill:#182149" />
  <path
     class="cls-25"
     d="m 203.37161,441.54872 c -3.6,6.5 -7.1,13.1 -11.2,19.2 -3.5,5.2 -7.4,10.2 -10.1,15.8 -2.7,5.6 -4.1,12.2 -2.2,18.2 3.3,1.6 7.4,0.4 10.2,-1.9 2.8,-2.3 4.6,-5.7 6.1,-9 6.5,-14 8.7,-29.3 15.6,-43 17.1,-33.9 38.8,-65.2 60.3,-96.4 a 15.86,15.86 0 0 1 4.4,-4.9 15,15 0 0 1 5.5,-1.9 c 8.5,-1.9 17,-3.8 25.6,-5.7 3.1,-0.7 6.2,-1.4 8.7,-3.4 2.5,-2 4,-5.5 2.6,-8.3 -14.7,2.8 -44.9,9.1 -48.1,9.7 a 9.34,9.34 0 0 0 -2.1,2.7 c -10.9,18.2 -21.5,36.2 -32.8,54 -11.3,18.1 -22.3,36.3 -32.5,54.9 z"
     id="path231"
     inkscape:connector-curvature="0"
     style="opacity:0.28999999;isolation:isolate;fill:#182149" />
  <path
     class="cls-15"
     d="m 246.57161,293.64872 c 0,0 15.1,-18.5 22.5,-28.6 7.4,-10.1 19.7,-33.7 24.3,-31.4 3.4,1.7 -0.3,10.1 -1,12.5 -1.3,4.5 -4,11.8 0.8,15.4 a 7.45,7.45 0 0 0 3.6,1.3 c 4.2,0.5 9.3,-1.5 13.3,-2.6 a 149.32,149.32 0 0 0 46,-21.7 c 1.7,-1.2 3.6,-2.4 5.6,-2 4.2,0.7 2.9,5 1.6,7.4 a 24.72,24.72 0 0 1 -8,9 189.61,189.61 0 0 1 -16.4,10.5 c -2.8,1.6 -5.7,3.1 -8.6,4.6 -1.6,0.8 -5.5,1.7 -5.7,3.8 -0.8,6.4 5.9,-0.8 7.5,7 1.6,7.8 -4.6,4.8 -1.8,10.7 1.2,2.6 5.2,4.1 6.5,7.9 1,3.1 -4.9,6 -3.4,9.1 1.7,3.5 -4.9,11.3 -15.3,15.1 -2.3,0.8 -47.5,8.5 -47.5,8.5 z"
     id="path233"
     inkscape:connector-curvature="0"
     style="fill:#fda689" />
  <path
     class="cls-26"
     d="m 435.27161,467.04872 c -3.2,-19.4 -11.7,-39.5 -17,-58.5 -5.3,-19 -12.7,-48.9 -8.9,-68.2 -1.9,9.8 -4.5,17.8 -4.2,28 0.3,11.3 0.6,22.6 1.7,33.9 a 316.79,316.79 0 0 0 14,67.4 c 1.7,5.3 3.8,7.7 2.5,13.1 -1.5,6.7 -4.8,9.8 -14.9,11.9 17.7,-1 22.9,-3.3 32.7,-6.6 -1.4,-11.4 -4.6,-13 -5.9,-21 z"
     id="path235"
     inkscape:connector-curvature="0"
     style="opacity:0.54000005;isolation:isolate;fill:#182149" />
  <path
     class="cls-14"
     d="m 323.67161,230.54872 c -4.3,-1.5 -8.6,-2.9 -12.9,-4.4 a 9.38,9.38 0 0 1 -1.5,-0.6 5,5 0 0 1 -1.4,-1.5 5.13,5.13 0 0 1 -1,-2.4 1.09,1.09 0 0 1 0.5,-1.3 4.05,4.05 0 0 1 1.1,0 h 1.2 a 16.41,16.41 0 0 1 2.3,0.2 37.35,37.35 0 0 1 4.6,0.9 35.55,35.55 0 0 1 9,3.7 36.22,36.22 0 0 1 4.1,2.7 c 0.6,0.5 1.3,1 1.9,1.5 0.2,0.1 1.6,1.6 1.7,1.6 -2.9,1.6 -6.5,0.7 -9.6,-0.4 z"
     id="path237"
     inkscape:connector-curvature="0"
     style="fill:#f28561" />
  <path
     class="cls-13"
     d="m 296.47161,160.14872 c -0.1,0.1 -0.2,0.2 -0.3,0.2 a 3.47,3.47 0 0 0 -1,2.5 3.74,3.74 0 0 0 1,2.5 4.07,4.07 0 0 0 2.5,1.1 3.41,3.41 0 0 0 2.5,-1.1 c 0.1,-0.1 0.2,-0.2 0.3,-0.2 a 3.47,3.47 0 0 0 1,-2.5 3.74,3.74 0 0 0 -1,-2.5 4.07,4.07 0 0 0 -2.5,-1.1 3.84,3.84 0 0 0 -2.5,1.1 z"
     id="path239"
     inkscape:connector-curvature="0"
     style="fill:#472516" />
  <path
     class="cls-13"
     d="m 365.47161,173.94872 a 4.59,4.59 0 0 0 -1.1,-4.2 3.52,3.52 0 0 0 -3.9,-0.7 3.78,3.78 0 0 0 -2.2,3.3 v 0.9 c 2.2,-0.6 4.4,-1.2 6.7,-1.8 v -0.1 c 0.2,0.6 0.3,1.2 0.5,1.8 v -0.1 c 0,0.3 -0.1,0.6 -0.1,0.9 v -0.1 a 3.55,3.55 0 0 1 -0.4,0.9 v -0.1 c -0.2,0.2 -0.4,0.5 -0.6,0.7 a 0.1,0.1 0 0 1 0.1,-0.1 c -0.2,0.2 -0.5,0.4 -0.7,0.6 a 0.1,0.1 0 0 0 0.1,-0.1 c -0.6,0.2 -1.2,0.3 -1.8,0.5 h 0.1 a 3.41,3.41 0 0 0 2.5,-1.1 3.62,3.62 0 0 0 0,-5 3.41,3.41 0 0 0 -2.5,-1.1 3.61,3.61 0 0 0 -2,0.6 3.76,3.76 0 0 0 -1.4,1.4 4.49,4.49 0 0 0 -0.5,1.9 4.55,4.55 0 0 0 0.5,2 c 0.2,0.2 0.4,0.5 0.6,0.7 a 1.9,1.9 0 0 0 1.1,0.7 3.47,3.47 0 0 0 4.9,-3.2 v -0.9 c -2,0.8 -4.1,1.7 -6.1,2.5 l 0.1,0.1 c -0.2,-0.2 -0.4,-0.5 -0.6,-0.7 a 0.1,0.1 0 0 0 0.1,0.1 3.55,3.55 0 0 0 -0.4,-0.9 0.35,0.35 0 0 0 0.1,0.2 c 0,-0.3 -0.1,-0.6 -0.1,-0.9 v 0.1 c 0,-0.3 0.1,-0.6 0.1,-0.9 v 0.1 a 4,4 0 0 0 0.4,2.8 3.75,3.75 0 0 0 2.1,1.6 3.46,3.46 0 0 0 4.4,-2.4 z"
     id="path241"
     inkscape:connector-curvature="0"
     style="fill:#472516" />
  <path
     class="cls-14"
     d="m 349.67161,129.74872 c 3.6,-5.8 11.5,-5.4 17.4,-4.2 0.7,0.1 1,-0.9 0.3,-1 -6.5,-1.2 -14.7,-1.5 -18.6,4.8 -0.4,0.4 0.5,1 0.9,0.4 z"
     id="path243"
     inkscape:connector-curvature="0"
     style="fill:#f28561" />
  <path
     class="cls-14"
     d="m 350.47161,125.14872 a 9.21,9.21 0 0 1 4.3,-2.4 0.52201533,0.52201533 0 1 0 -0.3,-1 10.9,10.9 0 0 0 -4.8,2.7 c -0.5,0.4 0.3,1.2 0.8,0.7 z"
     id="path245"
     inkscape:connector-curvature="0"
     style="fill:#f28561" />
  <path
     class="cls-14"
     d="m 325.57161,123.74872 a 23.86,23.86 0 0 1 7.7,3.7 c 0.6,0.4 1.1,-0.5 0.5,-0.9 a 23.83,23.83 0 0 0 -8,-3.9 c -0.6,-0.2 -0.9,0.9 -0.2,1.1 z"
     id="path247"
     inkscape:connector-curvature="0"
     style="fill:#f28561" />
  <path
     class="cls-27"
     d="m 363.27161,243.84872 a 24.72,24.72 0 0 1 -8,9 189.61,189.61 0 0 1 -16.4,10.5 c -2.8,1.6 -5.7,3.1 -8.6,4.6 -1.6,0.8 -5.5,1.7 -5.7,3.8 -0.8,6.4 5.9,-0.8 7.5,7 1.6,7.8 -4.6,4.8 -1.8,10.7 1.3,2.6 5.2,4.1 6.5,7.9 1,3.1 -4.9,6 -3.4,9.1 3.2,6.6 -15.4,18.9 -20.2,14.3 a 4,4 0 0 1 -1.1,-2 c -2.8,-7.6 -2.8,-16 -4.8,-23.9 -1.5,-6.1 -4.6,-12.5 -9.9,-16 -2.6,-1.8 -5.5,-1.3 -8.1,-3 a 15,15 0 0 1 -5.5,-7.6 c -1.6,-4.7 -1.1,-10 0.4,-14.8 a 67.15,67.15 0 0 1 6.5,-13.5 c 0.8,-1.4 1.6,-2.9 2.5,-4.3 a 14.31,14.31 0 0 1 1.1,-1.5 c 1.9,2.6 -1.2,9.7 -1.8,11.8 -1.3,4.5 -4,11.8 0.8,15.4 a 7.45,7.45 0 0 0 3.6,1.3 c 4.2,0.5 9.3,-1.5 13.3,-2.6 a 147.32,147.32 0 0 0 46,-21.8 c 1.7,-1.2 3.6,-2.4 5.6,-2 4.1,1 2.7,5.3 1.5,7.6 z"
     id="path249"
     inkscape:connector-curvature="0"
     style="opacity:0.11000001;isolation:isolate;fill:#b94a00" />
  <path
     class="cls-28"
     d="m 313.87161,357.14872 a 4.65,4.65 0 1 1 4.6,-4.7 4.61,4.61 0 0 1 -4.6,4.7 z"
     id="path251"
     inkscape:connector-curvature="0"
     style="fill:#ddd4cf" />
  <path
     class="cls-28"
     d="m 314.07161,401.74872 a 4.65,4.65 0 1 1 -4.6,4.7 4.61,4.61 0 0 1 4.6,-4.7 z"
     id="path253"
     inkscape:connector-curvature="0"
     style="fill:#ddd4cf" />
  <path
     class="cls-28"
     d="m 314.37161,455.64872 a 4.65,4.65 0 1 1 -4.6,4.7 4.61,4.61 0 0 1 4.6,-4.7 z"
     id="path255"
     inkscape:connector-curvature="0"
     style="fill:#ddd4cf" />
  <path
     class="cls-23"
     d="m 321.87161,337.74872 q 0.3,71.55 0.4,143.1 a 1.1,1.1 0 0 0 2.2,0 q -0.15,-71.55 -0.4,-143.1 a 1.1,1.1 0 0 0 -2.2,0 z"
     id="path257"
     inkscape:connector-curvature="0"
     style="fill:#063c70" />
  <path
     class="cls-23"
     d="m 245.97161,399.54872 a 225.39,225.39 0 0 0 24.6,1.4 c 8.1,0 16.9,-1.6 24.9,0.1 -0.3,-0.5 -0.5,-0.9 -0.8,-1.4 -0.2,1.5 0.4,3.3 0,4.6 -0.9,3.6 -3.4,3.1 -6.4,2.8 -5.7,-0.6 -11.4,-1 -17.2,-1.3 -5.4,-0.3 -10.8,-0.5 -16.2,-0.5 h -7.6 c -1.1,0 -3.5,0.4 -4.7,0.1 -1.5,-0.5 -4.9,-4.7 -2.8,-6 a 1.1,1.1 0 0 0 -1.1,-1.9 c -3.4,2 -5.7,5.5 -2,8.6 2.8,2.3 7.3,1.4 10.5,1.4 4.8,-0.1 9.6,0 14.3,0.1 9.6,0.2 19.1,1 28.6,1.9 2.3,0.2 4.6,0.5 6.1,-1.6 1.5,-2.1 0.2,-5.2 0.5,-7.6 a 1.14,1.14 0 0 0 -0.8,-1.4 c -7.7,-1.6 -15.8,-0.2 -23.5,-0.2 a 234,234 0 0 1 -26.5,-1.4 c -1.3,0 -1.3,2.2 0.1,2.3 z"
     id="path259"
     inkscape:connector-curvature="0"
     style="fill:#063c70" />
  <path
     class="cls-23"
     d="m 234.07161,412.44872 a 13.05,13.05 0 0 0 0.4,5.9 1.0920165,1.0920165 0 0 0 2.1,-0.6 12.35,12.35 0 0 1 -0.4,-4.7 c 0.2,-1.4 -1.9,-2 -2.1,-0.6 z"
     id="path261"
     inkscape:connector-curvature="0"
     style="fill:#063c70" />
  <path
     class="cls-23"
     d="m 236.07161,422.84872 a 0.64,0.64 0 0 1 -0.6,0 1.07,1.07 0 0 0 -1.6,0.7 10.74,10.74 0 0 0 0.2,5.9 c 0.5,1.3 2.6,0.8 2.1,-0.6 a 8.37,8.37 0 0 1 -0.2,-4.7 11.11,11.11 0 0 0 -1.6,0.7 2.58,2.58 0 0 0 2.8,0 c 1.2,-0.8 0.1,-2.7 -1.1,-2 z"
     id="path263"
     inkscape:connector-curvature="0"
     style="fill:#063c70" />
  <path
     class="cls-23"
     d="m 234.77161,436.14872 a 11.09,11.09 0 0 0 0.4,6.5 c 0.5,1.3 2.6,0.7 2.1,-0.6 a 8.73,8.73 0 0 1 -0.4,-5.3 c 0.3,-1.4 -1.8,-2 -2.1,-0.6 z"
     id="path265"
     inkscape:connector-curvature="0"
     style="fill:#063c70" />
  <path
     class="cls-23"
     d="m 292.87161,415.54872 a 37.77,37.77 0 0 0 -0.3,8.2 c 0.1,1.4 2.3,1.4 2.2,0 a 33.08,33.08 0 0 1 0.2,-7.7 c 0.3,-1.3 -1.9,-1.9 -2.1,-0.5 z"
     id="path267"
     inkscape:connector-curvature="0"
     style="fill:#063c70" />
  <path
     class="cls-23"
     d="m 292.17161,434.64872 a 15.32,15.32 0 0 0 0.4,6.4 1.0920165,1.0920165 0 1 0 2.1,-0.6 13.12,13.12 0 0 1 -0.4,-5.2 c 0.2,-1.4 -1.9,-2 -2.1,-0.6 z"
     id="path269"
     inkscape:connector-curvature="0"
     style="fill:#063c70" />
  <path
     class="cls-23"
     d="m 292.57161,447.04872 c -0.2,1.4 -0.4,2.8 -0.5,4.2 -0.1,0.6 0.6,1.1 1.1,1.1 0.7,0 1,-0.5 1.1,-1.1 0.2,-1.4 0.4,-2.8 0.5,-4.2 0.1,-0.6 -0.6,-1.1 -1.1,-1.1 a 1.18,1.18 0 0 0 -1.1,1.1 z"
     id="path271"
     inkscape:connector-curvature="0"
     style="fill:#063c70" />
  <path
     class="cls-23"
     d="m 284.27161,461.34872 c -1.1,1.4 -2.1,2.8 -3.2,4.2 -0.9,1.1 1.1,2.2 1.9,1.1 1.1,-1.4 2.1,-2.8 3.2,-4.2 0.9,-1.2 -1,-2.3 -1.9,-1.1 z"
     id="path273"
     inkscape:connector-curvature="0"
     style="fill:#063c70" />
  <path
     class="cls-23"
     d="m 272.57161,469.84872 c -0.4,0.2 -0.7,0.3 -1.1,0.5 a 1.1,1.1 0 1 0 1.1,1.9 c 0.4,-0.2 0.7,-0.3 1.1,-0.5 a 1.1,1.1 0 0 0 -1.1,-1.9 z"
     id="path275"
     inkscape:connector-curvature="0"
     style="fill:#063c70" />
  <path
     class="cls-23"
     d="m 260.47161,468.64872 h -2.1 a 1.1,1.1 0 0 0 0,2.2 h 2.1 a 1.1,1.1 0 0 0 0,-2.2 z"
     id="path277"
     inkscape:connector-curvature="0"
     style="fill:#063c70" />
  <path
     class="cls-23"
     d="m 271.07161,433.34872 c -2.5,4.2 -4.9,8.5 -7.4,12.7 a 1.1,1.1 0 0 0 1.9,1.1 c 2.5,-4.2 4.9,-8.5 7.4,-12.7 a 1.1,1.1 0 1 0 -1.9,-1.1 z"
     id="path279"
     inkscape:connector-curvature="0"
     style="fill:#063c70" />
  <path
     class="cls-23"
     d="m 271.27161,422.44872 a 75.17,75.17 0 0 0 -9.1,14.5 c -0.6,1.3 1.3,2.4 1.9,1.1 a 73.85,73.85 0 0 1 8.8,-14.1 c 0.8,-1 -0.7,-2.6 -1.6,-1.5 z"
     id="path281"
     inkscape:connector-curvature="0"
     style="fill:#063c70" />
  <path
     class="cls-23"
     d="m 356.07161,426.44872 a 103.7,103.7 0 0 0 57.6,45 1.0920165,1.0920165 0 1 0 0.6,-2.1 101.16,101.16 0 0 1 -56.3,-44 1.1,1.1 0 0 0 -1.9,1.1 z"
     id="path283"
     inkscape:connector-curvature="0"
     style="fill:#063c70" />
  <path
     class="cls-23"
     d="m 379.77161,469.14872 c 2.6,1.4 5.3,2.8 7.9,4.2 a 1.1,1.1 0 1 0 1.1,-1.9 c -2.6,-1.4 -5.3,-2.8 -7.9,-4.2 a 1.1,1.1 0 1 0 -1.1,1.9 z"
     id="path285"
     inkscape:connector-curvature="0"
     style="fill:#063c70" />
  <path
     class="cls-23"
     d="m 428.67161,318.54872 a 43.88,43.88 0 0 1 23.1,-12.3 c 1.4,-0.3 0.8,-2.4 -0.6,-2.1 a 45.94,45.94 0 0 0 -24.1,12.9 c -0.9,0.9 0.6,2.5 1.6,1.5 z"
     id="path287"
     inkscape:connector-curvature="0"
     style="fill:#063c70" />
  <path
     class="cls-23"
     d="m 441.77161,486.14872 a 6.89,6.89 0 0 1 0.8,0.3 c -0.1,0.5 -0.3,1 -0.4,1.5 2,-1.1 5.6,-0.8 7.8,-1 2.6,-0.2 5.1,-0.2 7.7,-0.2 a 108.46,108.46 0 0 1 17,1.5 c 1.4,0.2 2,-1.9 0.6,-2.1 a 114.56,114.56 0 0 0 -18.5,-1.6 c -4.5,0 -11.6,-0.7 -15.6,1.5 a 1.13,1.13 0 0 0 -0.4,1.5 c 0,0.1 0.1,0.2 0.2,0.3 a 1,1 0 0 0 1.2,0.5 c 0.1,0 0.2,0 0.2,-0.1 1.3,-0.4 0.7,-2.6 -0.6,-2.1 z"
     id="path289"
     inkscape:connector-curvature="0"
     style="fill:#063c70" />
  <path
     class="cls-23"
     d="m 439.97161,493.04872 a 78.14,78.14 0 0 1 21.4,3.7 1.0920165,1.0920165 0 0 0 0.6,-2.1 78.63,78.63 0 0 0 -22,-3.7 c -1.4,-0.1 -1.4,2.1 0,2.1 z"
     id="path291"
     inkscape:connector-curvature="0"
     style="fill:#063c70" />
  <path
     class="cls-23"
     d="m 136.97161,400.84872 a 666,666 0 0 0 54.8,-47.3 c 1,-1 -0.5,-2.5 -1.6,-1.6 a 685.73,685.73 0 0 1 -54.8,47.3 c -1.1,0.9 0.5,2.4 1.6,1.6 z"
     id="path293"
     inkscape:connector-curvature="0"
     style="fill:#063c70" />
  <path
     class="cls-23"
     d="m 136.57161,394.54872 a 160.13,160.13 0 0 0 14.9,-13.7 c 1,-1 -0.6,-2.6 -1.6,-1.6 a 161.25,161.25 0 0 1 -14.9,13.7 c -1,0.9 0.5,2.5 1.6,1.6 z"
     id="path295"
     inkscape:connector-curvature="0"
     style="fill:#063c70" />
  <path
     class="cls-10"
     d="m 422.27161,493.34872 -6.1,0.9 -32.8,2.7 -121.4,0.8 c -4.8,-6.9 -2.9,-18.9 -2.9,-18.9 v -18.2 c 63.4,0 136.4,22.2 155.3,28.9 0.8,0.3 7.3,3.5 7.9,3.8 z"
     id="path297"
     inkscape:connector-curvature="0"
     style="fill:#fbd5af" />
  <rect
     class="cls-29"
     x="173.4716"
     y="456.4487"
     width="88.599998"
     height="106.7"
     id="rect299"
     style="fill:#f0ecea" />
  <ellipse
     class="cls-29"
     cx="217.77161"
     cy="456.4487"
     rx="44.299999"
     ry="14"
     id="ellipse301"
     style="fill:#f0ecea" />
  <path
     class="cls-30"
     d="m 181.87161,457.74872 c 0,-5.9 16.1,-10.7 35.9,-10.7 19.8,0 35.9,4.8 35.9,10.7 0,5.9 -16.1,10.7 -35.9,10.7 -19.8,0 -35.9,-4.8 -35.9,-10.7 z"
     id="path303"
     inkscape:connector-curvature="0"
     style="fill:#e6dbd3" />
  <ellipse
     class="cls-29"
     cx="217.77161"
     cy="563.64868"
     rx="44.299999"
     ry="14"
     id="ellipse305"
     style="fill:#f0ecea" />
  <path
     class="cls-29"
     d="m 266.77161,550.64872 h -19.1 v -12.2 h 19.1 a 15.83,15.83 0 0 0 15.8,-15.8 v -15.8 a 15.83,15.83 0 0 0 -15.8,-15.8 h -19.1 v -12.2 h 19.1 a 28,28 0 0 1 28,28 v 15.8 a 28,28 0 0 1 -28,28 z"
     id="path307"
     inkscape:connector-curvature="0"
     style="fill:#f0ecea" />
  <path
     class="cls-31"
     d="m 189.57161,502.34872 a 295.57,295.57 0 0 0 2.6,36.4 c 0.3,2.4 3.5,2.1 4.6,0.6 0.1,-0.2 0.3,-0.3 0.4,-0.5 2,-2.6 -2.4,-5.1 -4.4,-2.5 -0.1,0.2 -0.3,0.3 -0.4,0.5 l 4.6,0.6 a 274.84,274.84 0 0 1 -2.5,-35.1 c 0.1,-3.3 -5,-3.3 -4.9,0 z"
     id="path309"
     inkscape:connector-curvature="0"
     style="fill:#4198af" />
  <path
     class="cls-31"
     d="m 193.57161,508.24872 c 4.9,-4.1 11.3,-4.5 14.4,1.8 1.8,3.6 -0.2,8.8 -1.6,12.2 -2.1,5.6 -5.2,10.8 -7.9,16.2 -1.5,2.9 2.9,5.5 4.4,2.5 4.8,-9.5 14.6,-23.3 9.1,-34.5 -4.5,-9.1 -15.5,-7.4 -22,-1.9 -2.5,2.2 1.1,5.8 3.6,3.7 z"
     id="path311"
     inkscape:connector-curvature="0"
     style="fill:#4198af" />
  <path
     class="cls-31"
     d="m 212.47161,547.44872 c 5.2,2.4 8.4,-2.4 10.3,-8.2 0.6,2.2 1.4,4.4 2.1,6.5 1,3.1 5.9,1.7 4.9,-1.3 -2.1,-6.3 -4.2,-12.5 -4.4,-19.2 a 2.46,2.46 0 0 0 -3.7,-2.1 2.27,2.27 0 0 0 -3.3,0.1 c -4,4.3 -15.5,19.8 -5.9,24.2 z m 2.5,-10.1 a 21.35,21.35 0 0 1 2,-4 31.26,31.26 0 0 1 2.9,-4.2 c -0.8,5.5 -2.7,14.4 -5.4,13.4 -1.1,-0.3 0.3,-4.5 0.5,-5.2 z"
     id="path313"
     inkscape:connector-curvature="0"
     style="fill:#4198af" />
  <path
     class="cls-31"
     d="m 236.27161,541.04872 c 6.3,1 8,-10.2 8.5,-14.3 1.4,-10.8 -1.5,-21.7 -3.7,-32.2 -0.6,-3.2 -5.5,-1.8 -4.9,1.3 1.3,6.2 2.8,12.4 3.5,18.7 -10.9,0.1 -14,24.8 -3.4,26.5 z m 3.7,-21.4 v 2 a 31.68,31.68 0 0 1 -0.7,6.9 16.85,16.85 0 0 1 -1.4,4.5 c -0.3,2.4 -0.8,2.7 -1.6,0.9 -2.9,-2.1 -0.8,-15 3.7,-14.3 z"
     id="path315"
     inkscape:connector-curvature="0"
     style="fill:#4198af" />
  <path
     class="cls-31"
     d="m 248.67161,541.34872 c -15.7,13.3 -36.6,12.1 -55,5.6 -3.1,-1.1 -4.4,3.8 -1.3,4.9 20.3,7.1 42.8,7.6 59.9,-6.9 2.4,-2.1 -1.2,-5.6 -3.6,-3.6 z"
     id="path317"
     inkscape:connector-curvature="0"
     style="fill:#4198af" />
  <path
     class="cls-32"
     d="m 199.67161,401.04872 a 33.39,33.39 0 0 0 2.9,-15.9 27.6,27.6 0 0 0 -2.6,-12 c -3.6,-6.9 -9.4,-10.6 -16.7,-16.1 a 35.58,35.58 0 0 1 15.4,8.5 c 8.8,8 12.2,20.9 9.9,32.6 -1.6,8.2 -6.7,16.6 -11.6,23.5 -4.1,5.8 -6.5,9.4 -5.3,16.8 0.6,3.8 1.9,7.4 2.1,11.3 0.1,2.9 -0.9,8.4 -4.2,9 a 18.73,18.73 0 0 0 0.5,-9.4 c -0.9,-5.3 -3.8,-8.3 -4.3,-13.7 -0.6,-5.9 -0.4,-12 2.4,-17.3 2.8,-5.5 8.9,-12 11.5,-17.3 z"
     id="path319"
     inkscape:connector-curvature="0"
     style="opacity:0.5;isolation:isolate;fill:#ffffff;fill-rule:evenodd" />
  <path
     class="cls-33"
     d="m 226.77161,367.94872 c 2.4,-4.9 3,-10.5 2.9,-15.9 a 27.6,27.6 0 0 0 -2.6,-12 c -3.6,-6.9 -11.2,-10.6 -16.7,-16.1 5.5,2.2 11.1,4.5 15.4,8.5 8.8,8 10.5,21.5 8.2,33.1 a 59.62,59.62 0 0 1 -9.9,23 c -4.1,5.8 -6.5,9.4 -5.3,16.8 0.6,3.8 1.9,7.4 2,11.3 0.1,2.9 -0.9,8.4 -4.2,9 a 18.73,18.73 0 0 0 0.5,-9.4 c -0.9,-5.3 -2.2,-10.6 -2.8,-16 -0.6,-5.9 -0.4,-12 2.4,-17.3 2.9,-5.5 7.4,-9.7 10.1,-15 z"
     id="path321"
     inkscape:connector-curvature="0"
     style="opacity:0.2;isolation:isolate;fill:#ffffff;fill-rule:evenodd" />
  <path
     class="cls-32"
     d="m 242.87161,424.34872 a 24.23,24.23 0 0 1 2.1,11.6 20.5,20.5 0 0 1 -1.9,8.8 c -2.6,5.1 -8.2,7.8 -12.2,11.8 4,-1.6 9.5,-4.3 12.7,-7.2 6.4,-5.9 6.3,-14.7 4.6,-23.2 a 44.87,44.87 0 0 0 -7.2,-16.8 c -3,-4.3 -4.7,-6.9 -3.9,-12.3 0.4,-2.8 1.4,-5.5 1.5,-8.2 0.1,-2.1 -0.6,-6.2 -3.1,-6.5 a 12.45,12.45 0 0 1 0.3,6.9 c -0.7,3.9 -2.5,8.1 -2.9,12.1 -0.5,4.3 -0.3,8.8 1.8,12.7 2.1,3.7 6.3,6.4 8.2,10.3 z"
     id="path323"
     inkscape:connector-curvature="0"
     style="opacity:0.5;isolation:isolate;fill:#ffffff;fill-rule:evenodd" />
  <g
     class="cls-36"
     id="g375"
     style="opacity:0.3"
     transform="translate(-63.637713,-109.47035)">
    <path
       class="cls-37"
       d="m 557.1,262.1 a 16.9,16.9 0 1 1 -16.9,-16.9 16.88,16.88 0 0 1 16.9,16.9 z"
       id="path359"
       inkscape:connector-curvature="0"
       style="fill:#007cc7;fill-rule:evenodd" />
    <path
       class="cls-37"
       d="m 529.7,262.5 a 8,8 0 1 1 -8,-8 8,8 0 0 1 8,8 z"
       id="path361"
       inkscape:connector-curvature="0"
       style="fill:#007cc7;fill-rule:evenodd" />
    <circle
       class="cls-38"
       cx="526.03998"
       cy="244.78"
       r="22.799999"
       transform="matrix(0.29,-0.96,0.96,0.29,139.32,677.31)"
       id="circle363"
       style="fill:#007cc7" />
    <path
       class="cls-37"
       d="m 545.1,268.9 a 22,22 0 1 1 30,8.1 22.05,22.05 0 0 1 -30,-8.1 z"
       id="path365"
       inkscape:connector-curvature="0"
       style="fill:#007cc7;fill-rule:evenodd" />
    <path
       class="cls-37"
       d="m 521.6,246.2 a 21.61,21.61 0 1 1 29.5,8 21.59,21.59 0 0 1 -29.5,-8 z"
       id="path367"
       inkscape:connector-curvature="0"
       style="fill:#007cc7;fill-rule:evenodd" />
    <path
       class="cls-37"
       d="m 558.8,247 a 16.93,16.93 0 1 1 23.1,6.3 16.91,16.91 0 0 1 -23.1,-6.3 z"
       id="path369"
       inkscape:connector-curvature="0"
       style="fill:#007cc7;fill-rule:evenodd" />
    <path
       class="cls-37"
       d="m 571.5,257.9 a 12.93,12.93 0 0 1 4.8,-17.6 12.83,12.83 0 1 1 -4.8,17.6 z"
       id="path371"
       inkscape:connector-curvature="0"
       style="fill:#007cc7;fill-rule:evenodd" />
    <path
       class="cls-37"
       d="m 549.4,233.5 a 11.62,11.62 0 0 1 4.3,-15.9 11.77,11.77 0 0 1 16,4.3 11.690274,11.690274 0 0 1 -20.3,11.6 z"
       id="path373"
       inkscape:connector-curvature="0"
       style="fill:#007cc7;fill-rule:evenodd" />
  </g>
  <g
     class="cls-36"
     id="g411"
     style="opacity:0.3"
     transform="translate(-138.18475,-142.19831)">
    <path
       class="cls-37"
       d="M 711.4,234 A 27.3,27.3 0 1 1 684.1,206.7 27.27,27.27 0 0 1 711.4,234 Z"
       id="path395"
       inkscape:connector-curvature="0"
       style="fill:#007cc7;fill-rule:evenodd" />
    <path
       class="cls-37"
       d="m 667.2,234.7 a 12.9,12.9 0 1 1 -12.9,-12.9 12.93,12.93 0 0 1 12.9,12.9 z"
       id="path397"
       inkscape:connector-curvature="0"
       style="fill:#007cc7;fill-rule:evenodd" />
    <circle
       class="cls-38"
       cx="661.29999"
       cy="206.10001"
       r="36.700001"
       id="circle399"
       style="fill:#007cc7" />
    <path
       class="cls-37"
       d="M 692,244.9 A 35.39,35.39 0 1 1 740.3,258 35.37,35.37 0 0 1 692,244.9 Z"
       id="path401"
       inkscape:connector-curvature="0"
       style="fill:#007cc7;fill-rule:evenodd" />
    <path
       class="cls-37"
       d="m 654.2,208.4 a 34.8,34.8 0 1 1 47.5,12.9 34.73,34.73 0 0 1 -47.5,-12.9 z"
       id="path403"
       inkscape:connector-curvature="0"
       style="fill:#007cc7;fill-rule:evenodd" />
    <path
       class="cls-37"
       d="m 714.1,209.8 a 27.26,27.26 0 1 1 37.2,10.1 27.2,27.2 0 0 1 -37.2,-10.1 z"
       id="path405"
       inkscape:connector-curvature="0"
       style="fill:#007cc7;fill-rule:evenodd" />
    <path
       class="cls-37"
       d="m 734.6,227.2 a 20.74,20.74 0 1 1 28.3,7.7 20.69,20.69 0 0 1 -28.3,-7.7 z"
       id="path407"
       inkscape:connector-curvature="0"
       style="fill:#007cc7;fill-rule:evenodd" />
    <path
       class="cls-37"
       d="m 698.9,188 a 18.83,18.83 0 1 1 25.7,7 18.76,18.76 0 0 1 -25.7,-7 z"
       id="path409"
       inkscape:connector-curvature="0"
       style="fill:#007cc7;fill-rule:evenodd" />
  </g>
</svg>
