<?xml version="1.0" encoding="utf-8"?>
<!-- Generator: Adobe Illustrator 23.0.3, SVG Export Plug-In . SVG Version: 6.00 Build 0)  -->
<svg version="1.1" id="Layer_1" xmlns="http://www.w3.org/2000/svg" xmlns:xlink="http://www.w3.org/1999/xlink" x="0px" y="0px"
	 viewBox="0 0 1465 951" style="enable-background:new 0 0 1465 951;" xml:space="preserve">
<style type="text/css">
	.st0{opacity:0.1;fill:#007CC7;enable-background:new    ;}
	.st1{opacity:0.63;fill:#FFFFFF;enable-background:new    ;}
	.st2{fill:#422645;}
	.st3{opacity:0.52;fill:#BF79A4;enable-background:new    ;}
	.st4{opacity:0.52;fill:#007CC7;enable-background:new    ;}
	.st5{opacity:0.52;fill:#FFCC4D;enable-background:new    ;}
	.st6{fill:#8C8C8C;}
	.st7{fill:#C2F4FF;}
	.st8{fill:#FFFFFF;}
	.st9{fill:#C1C1C1;}
	.st10{fill:#BCAF7D;}
	.st11{fill:#EAE4BE;}
	.st12{fill:#E5E7EA;}
	.st13{fill:#F9F5E4;}
	.st14{fill:#40C16F;}
	.st15{fill:#4E9CB7;}
	.st16{fill:#5555E0;}
	.st17{fill:#F9F9F9;}
	.st18{fill:#C7725A;}
	.st19{fill:#935142;}
	.st20{fill:#47261E;}
	.st21{fill:#314387;}
	.st22{fill:#5B6BBC;}
	.st23{fill:#EAB892;}
	.st24{fill:#4F3D31;}
	.st25{fill:#2FB251;}
	.st26{fill:#A9D65B;}
	.st27{fill:#D9EDB4;}
	.st28{fill:#2F8E4F;}
	.st29{fill:#A5A5A5;}
	.st30{fill:#6B6B6B;}
	.st31{fill:#F5BD83;}
	.st32{opacity:0.7;fill:#D19D6F;enable-background:new    ;}
	.st33{fill:#002042;}
	.st34{fill:#3A3937;}
	.st35{fill:#D19D6F;stroke:#D19D6F;stroke-width:0.5;stroke-miterlimit:10;}
	.st36{fill:#CECECE;}
	.st37{fill:#3A3A38;}
	.st38{fill:#D19D6F;}
	.st39{fill:#474F77;}
	.st40{fill:#D32A3F;}
	.st41{fill:#BEBEBF;}
	.st42{fill:#87182B;}
	.st43{fill:none;stroke:#474F77;stroke-miterlimit:10;}
	.st44{fill:#01172B;}
	.st45{fill:#C68467;}
	.st46{fill:#D6B492;}
	.st47{fill:#9A4545;}
	.st48{fill:#3D4C72;}
	.st49{fill:#E8EFB4;}
	.st50{fill:#FDA589;}
	.st51{fill:#C67F6B;}
	.st52{fill:#597096;}
	.st53{fill:#F5F7DA;}
	.st54{fill:#AA6755;}
</style>
<g id="bg">
	<path class="st0" d="M1416.7,474c-7.1,56.2-31.5,87.5-61.1,108.7c-50.2,36-115.1,42.9-134.9,93.5c-31.5,80.5,45.5,94.4,54.2,127.6
		c0.9,3.5,1.5,6.8,1.7,10.1c0,0.1,0,0.2,0,0.2c0,0.5,0.1,1.1,0.1,1.6v0.5c0,0.3,0,0.7,0,1c0,0.2,0,0.5,0,0.7c0,0.1,0,0.2,0,0.3
		c0,0.4,0,0.7,0,1.1c0,0.1,0,0.3,0,0.4c0,0.2,0,0.4,0,0.6c0,0.3,0,0.7-0.1,1c-12.8,149.1-778,39.1-1040.1-3
		c-128.3-20.6-194-148-126.7-246.4c1-1.5,2-3,3.1-4.5c106.1-149,231.6-105,286.5-271.5C454.3,129.5,719.6,79.5,983.3,79
		s205.9,143.8,200.1,217C1177.6,369.2,1435.9,322.3,1416.7,474z"/>
	<g>
		<path class="st1" d="M462.1,270.4c-18.4,0.3-93.6,0-95.9,0.3c-3.8,0.5-2.9,0.1-3.1,3.4c-0.1,1.7,1.6,84.5,2.4,104.1
			c0.2,5.3,0.6,4.2,8.7,4.2c18.7,0,74.2,0.2,78.8,0c3-0.2,8.1,0.5,8.6-3.1c0.2-1.8,0.1-3.7,0.1-5.6c0-2.2,0.5-79.5,0.7-96.7
			c0-2.1,0-4.2,0-6.3C462.4,270.5,462.2,270.4,462.1,270.4z"/>
		<path class="st1" d="M600.2,270.3c-18.4,0.3-93.6,0-95.9,0.3c-3.8,0.5-2.9,0.1-3.1,3.4c-0.1,1.7,1.6,84.5,2.4,104.1
			c0.2,5.3,0.6,4.2,8.7,4.2c18.7,0,74.2,0.2,78.8,0c3-0.2,8.1,0.5,8.6-3.1c0.2-1.8,0.1-3.7,0.1-5.6c0-2.2,0.5-79.5,0.7-96.7
			c0-2.1,0-4.2,0-6.3C600.4,270.4,600.3,270.3,600.2,270.3z"/>
		<path class="st2" d="M451.2,278.5c-25.8-0.1-52.1-0.2-77.9-0.4c-0.2-0.1-0.3-0.1-0.5,0c-0.1,0-0.2,0-0.3,0c0,0.1,0,0.2,0,0.3
			c0,0.1-0.1,0.1-0.1,0.2c0.5,37.6,0.8,64,1.5,95.1c0.5,0,0.7,0,0.9,0l0,0c26.1,0.2,52.3,0.3,78.4,0.4l0,0c0.3,0,0.6-0.2,0.6-0.5
			c-1-31.4-1.9-62.8-2.6-94.2C451.2,279.1,451.2,278.8,451.2,278.5z M452.5,373.1c-25.8-0.1-51.6-0.2-77.4-0.4
			c-0.6-24-1.1-48.3-1.6-72.3c-0.3-14.5,0.3-7.2,0.1-21.1c25.3,0.2,51,0.3,76.3,0.4c0.3,15.1,0.7,31,1.2,49.8
			C451.6,344,452,358.5,452.5,373.1z"/>
		<path class="st3" d="M440.6,292c-18.6-0.1-37.7-0.2-56.3-0.3c-0.1,0-0.2,0-0.4,0c-0.1,0-0.2,0-0.2,0c0,0.1,0,0.1,0,0.2
			s0,0.1,0,0.2c0.4,27.2,0.6,46.3,1.1,68.8c0.4,0,0.5,0,0.6,0l0,0c18.9,0.1,37.8,0.2,56.7,0.3l0,0c0.2,0,0.5-0.1,0.5-0.4
			c-0.7-22.7-1.3-45.5-1.9-68.2C440.6,292.4,440.6,292.2,440.6,292z"/>
		<path class="st4" d="M579.9,292.5c-18.6-0.1-37.7-0.2-56.3-0.3c-0.1,0-0.2,0-0.4,0c-0.1,0-0.2,0-0.2,0c0,0.1,0,0.1,0,0.2
			s0,0.1,0,0.2c0.4,27.2,0.6,46.3,1.1,68.8c0.4,0,0.5,0,0.6,0l0,0c18.9,0.1,37.8,0.2,56.7,0.3l0,0c0.2,0,0.5-0.1,0.5-0.4
			c-0.7-22.7-1.3-45.5-1.9-68.2C579.9,292.9,579.9,292.7,579.9,292.5z"/>
		<path class="st2" d="M589.9,279.5c-25.8-0.1-52.1-0.2-77.9-0.4c-0.2-0.1-0.3-0.1-0.5,0c-0.1,0-0.2,0-0.3,0c0,0.1,0,0.2,0,0.3
			c0,0.1-0.1,0.1-0.1,0.2c0.5,37.6,0.8,64,1.5,95.1c0.5,0,0.7,0,0.9,0l0,0c26.1,0.2,52.3,0.3,78.4,0.4l0,0c0.3,0,0.6-0.2,0.6-0.5
			c-1-31.4-1.9-62.8-2.6-94.2C589.9,280.1,589.9,279.9,589.9,279.5z M591.2,374.1c-25.8-0.1-51.6-0.2-77.4-0.4
			c-0.6-24-1.1-48.3-1.6-72.3c-0.3-14.5,0.3-7.2,0.1-21.1c25.3,0.2,51,0.3,76.3,0.4c0.3,15.1,0.7,31,1.2,49.8
			C590.3,345,590.8,359.5,591.2,374.1z"/>
		<path class="st5" d="M411.6,361.1c0-0.2,0-0.4,0-0.6c0.2-2.5,0.3-5.1,0.4-7.6c0.1-5.1,0-10.2-0.2-15.2c0.4,0.1,0.7,0.2,1.1,0.3
			c0.6,0.3,1.3-0.4,0.7-0.9c-10.2-7.1-19.4-15.3-29.6-22.4c0.2,16.3,0.4,30.4,0.8,46.2c0.4,0,0.5,0,0.6,0l0,0
			C394.1,361,402.8,361,411.6,361.1z"/>
		<path class="st5" d="M524,361.3c0.4,0,0.5,0,0.6,0l0,0c0.4,0,0.7,0,1.1,0c18.3-15,36.6-30.1,54.8-45.2c0-1-0.1-2.1-0.1-3.1
			c-18.7,15.7-37.5,31.2-56.4,46.7C524,360.2,524,360.8,524,361.3z M568.7,361.6c4.3-3.9,8.6-7.7,12.9-11.6c0-1.1-0.1-2.1-0.1-3.2
			c-5.5,4.9-10.9,9.8-16.4,14.8C566.2,361.6,567.4,361.6,568.7,361.6z M547.5,292.3c-8,7.8-16.1,15.5-24.3,23.2c0,1.1,0,2.2,0,3.3
			c9.3-8.8,18.5-17.6,27.7-26.5C549.8,292.3,548.8,292.3,547.5,292.3z M566.2,292.4L523.5,329c0,1.1,0,2.1,0,3.2l46.4-39.8
			C568.7,292.4,567.4,292.4,566.2,292.4z M543.9,361.5c1.2,0,2.4,0,3.7,0c5.3-4.6,10.6-9.2,15.9-13.8c5.8-5,11.7-9.9,17.5-15
			c0-1-0.1-2.1-0.1-3.1c-6.4,5.6-13,11-19.3,16.6C555.8,351.3,549.8,356.4,543.9,361.5z M523.8,343.8c0,1,0,2,0.1,3
			c19.2-15.1,38-30.5,56.4-46.3c0-1-0.1-2.1-0.1-3.1C561.7,313.3,542.8,328.7,523.8,343.8z M531.7,292.2c-2.8,2.7-5.7,5.5-8.5,8.2
			c0,1.1,0,2.2,0,3.3c4-3.8,8-7.6,12-11.5C533.9,292.2,532.8,292.2,531.7,292.2z"/>
	</g>
	<g>
		<path class="st1" d="M1142.3,281.9c-18.4,0.3-93.6,0-95.9,0.3c-3.8,0.5-2.9,0.1-3.1,3.4c-0.1,1.7,1.6,84.5,2.4,104.1
			c0.2,5.3,0.6,4.2,8.7,4.2c18.7,0,74.2,0.2,78.8,0c3-0.2,8.1,0.5,8.6-3.1c0.2-1.8,0.1-3.7,0.1-5.6c0-2.2,0.5-79.5,0.7-96.7
			c0-2.1,0-4.2,0-6.3C1142.6,282,1142.4,281.9,1142.3,281.9z"/>
		<path class="st1" d="M1280.4,281.8c-18.4,0.3-93.6,0-95.9,0.3c-3.8,0.5-2.9,0.1-3.1,3.4c-0.1,1.7,1.6,84.5,2.4,104.1
			c0.2,5.3,0.6,4.2,8.7,4.2c18.7,0,74.2,0.2,78.8,0c3-0.2,8.1,0.5,8.6-3.1c0.2-1.8,0.1-3.7,0.1-5.6c0-2.2,0.5-79.5,0.7-96.7
			c0-2.1,0-4.2,0-6.3C1280.6,281.9,1280.5,281.8,1280.4,281.8z"/>
		<path class="st2" d="M1131.4,290c-25.8-0.1-52.1-0.2-77.9-0.4c-0.2-0.1-0.3-0.1-0.5,0c-0.1,0-0.2,0-0.3,0c0,0.1,0,0.2,0,0.3
			c0,0.1-0.1,0.1-0.1,0.2c0.5,37.6,0.8,64,1.5,95.1c0.5,0,0.7,0,0.9,0l0,0c26.1,0.2,52.3,0.3,78.4,0.4l0,0c0.3,0,0.6-0.2,0.6-0.5
			c-1-31.4-1.9-62.8-2.6-94.2C1131.4,290.6,1131.4,290.3,1131.4,290z M1132.7,384.6c-25.8-0.1-51.6-0.2-77.4-0.4
			c-0.6-24-1.1-48.3-1.6-72.3c-0.3-14.5,0.3-7.2,0.1-21.1c25.3,0.2,51,0.3,76.3,0.4c0.3,15.1,0.7,31,1.2,49.8
			C1131.8,355.5,1132.2,370,1132.7,384.6z"/>
		<path class="st3" d="M1120.8,303.5c-18.6-0.1-37.7-0.2-56.3-0.3c-0.1,0-0.2,0-0.4,0c-0.1,0-0.2,0-0.2,0c0,0.1,0,0.1,0,0.2
			s0,0.1,0,0.2c0.4,27.2,0.6,46.3,1.1,68.8c0.4,0,0.5,0,0.6,0l0,0c18.9,0.1,37.8,0.2,56.7,0.3l0,0c0.2,0,0.5-0.1,0.5-0.4
			c-0.7-22.7-1.3-45.5-1.9-68.2C1120.8,303.9,1120.8,303.7,1120.8,303.5z"/>
		<path class="st4" d="M1260.1,304c-18.6-0.1-37.7-0.2-56.3-0.3c-0.1,0-0.2,0-0.4,0c-0.1,0-0.2,0-0.2,0c0,0.1,0,0.1,0,0.2
			s0,0.1,0,0.2c0.4,27.2,0.6,46.3,1.1,68.8c0.4,0,0.5,0,0.6,0l0,0c18.9,0.1,37.8,0.2,56.7,0.3l0,0c0.2,0,0.5-0.1,0.5-0.4
			c-0.7-22.7-1.3-45.5-1.9-68.2C1260.1,304.4,1260.1,304.2,1260.1,304z"/>
		<path class="st2" d="M1270.1,291c-25.8-0.1-52.1-0.2-77.9-0.4c-0.2-0.1-0.3-0.1-0.5,0c-0.1,0-0.2,0-0.3,0c0,0.1,0,0.2,0,0.3
			c0,0.1-0.1,0.1-0.1,0.2c0.5,37.6,0.8,64,1.5,95.1c0.5,0,0.7,0,0.9,0l0,0c26.1,0.2,52.3,0.3,78.4,0.4l0,0c0.3,0,0.6-0.2,0.6-0.5
			c-1-31.4-1.9-62.8-2.6-94.2C1270.1,291.6,1270.1,291.4,1270.1,291z M1271.4,385.6c-25.8-0.1-51.6-0.2-77.4-0.4
			c-0.6-24-1.1-48.3-1.6-72.3c-0.3-14.5,0.3-7.2,0.1-21.1c25.3,0.2,51,0.3,76.3,0.4c0.3,15.1,0.7,31,1.2,49.8
			C1270.5,356.5,1271,371,1271.4,385.6z"/>
		<path class="st5" d="M1091.8,372.6c0-0.2,0-0.4,0-0.6c0.2-2.5,0.3-5.1,0.4-7.6c0.1-5.1,0-10.2-0.2-15.2c0.4,0.1,0.7,0.2,1.1,0.3
			c0.6,0.3,1.3-0.4,0.7-0.9c-10.2-7.1-19.4-15.3-29.6-22.4c0.2,16.3,0.4,30.4,0.8,46.2c0.4,0,0.5,0,0.6,0l0,0
			C1074.3,372.5,1083,372.5,1091.8,372.6z"/>
		<path class="st5" d="M1204.2,372.8c0.4,0,0.5,0,0.6,0l0,0c0.4,0,0.7,0,1.1,0c18.3-15,36.6-30.1,54.8-45.2c0-1-0.1-2.1-0.1-3.1
			c-18.7,15.7-37.5,31.2-56.4,46.7C1204.2,371.7,1204.2,372.3,1204.2,372.8z M1248.8,373.1c4.3-3.9,8.6-7.7,12.9-11.6
			c0-1.1-0.1-2.1-0.1-3.2c-5.5,4.9-10.9,9.8-16.4,14.8C1246.4,373.1,1247.6,373.1,1248.8,373.1z M1227.7,303.8
			c-8,7.8-16.1,15.5-24.3,23.2c0,1.1,0,2.2,0,3.3c9.3-8.8,18.5-17.6,27.7-26.5C1230,303.8,1228.9,303.8,1227.7,303.8z M1246.4,303.9
			l-42.7,36.6c0,1.1,0,2.1,0,3.2l46.4-39.8C1248.8,303.9,1247.6,303.9,1246.4,303.9z M1224.1,373c1.2,0,2.4,0,3.7,0
			c5.3-4.6,10.6-9.2,15.9-13.8c5.8-5,11.7-9.9,17.5-15c0-1-0.1-2.1-0.1-3.1c-6.4,5.6-13,11-19.3,16.6
			C1235.9,362.8,1230,367.9,1224.1,373z M1203.9,355.3c0,1,0,2,0.1,3c19.2-15.1,38-30.5,56.4-46.3c0-1-0.1-2.1-0.1-3.1
			C1241.8,324.8,1223,340.2,1203.9,355.3z M1211.8,303.7c-2.8,2.7-5.7,5.5-8.5,8.2c0,1.1,0,2.2,0,3.3c4-3.8,8-7.6,12-11.5
			C1214.1,303.7,1212.9,303.7,1211.8,303.7z"/>
	</g>
	<rect x="687" y="206.9" class="st6" width="294.9" height="424.3"/>
	<rect x="699" y="217" class="st7" width="271.2" height="579.5"/>
	<polygon class="st8" points="695.9,412.4 895,213.3 959.3,213.3 693.9,478.7 	"/>
	<polygon class="st8" points="693.9,496.6 970.3,220.2 970.3,245.8 694.7,521.3 	"/>
	<polygon class="st8" points="697.9,622.7 970.2,350.4 970.2,401.1 723.2,648 697.9,648 	"/>
	<path class="st8" d="M446.4,117.1"/>
	<rect x="824.9" y="227.7" class="st7" width="19.9" height="404.7"/>
	<rect x="834.8" y="217" class="st7" width="139.3" height="8"/>
	<rect x="963.4" y="209.3" class="st7" width="13.3" height="428.3"/>
	<path class="st9" d="M690.3,209.3v473.3h288.7V209.3H690.3z M827.6,668.9H703.2V222.7h124.4V668.9z M965.9,668.9H841.5V222.7h124.4
		V668.9z"/>
</g>
<g id="table">
	<path class="st10" d="M94.5,857.5c142.9,70.1,325-39,372-43s225,65,345,67s132-75,202-79s132,71,214,51S1361,785,1320,750
		s-152-51-200-51s-199.5-20.5-213.5-24.5s-363-9-411-4s-293,34-308,38s-95,14-114,44S41.5,831.5,94.5,857.5z"/>
	<path class="st11" d="M95.5,840.5c142.9,70.1,325-39,372-43s225,65,345,67s132-75,202-79s132,71,214,51S1362,768,1321,733
		s-152-51-200-51s-199.5-20.5-213.5-24.5s-363-9-411-4s-293,34-308,38s-95,14-114,44S42.5,814.5,95.5,840.5z"/>
	<path class="st12" d="M221.8,703.3C220,703.3,291,687,293,687s60-2,80,8c-23,16-66,43-66,43S246.6,703.7,221.8,703.3z"/>
	<path class="st12" d="M471,690.7c0,0,62.8-22,77.2-18.6c17.7,10.5,48.5,26.7,50.8,26.7c2.2,0-71.7,37.2-77.2,37.2
		C516.2,736,475.4,694.1,471,690.7z"/>
	<path class="st12" d="M621,697c2,2,77-20,78-20s88,15,88,15l-73,50L621,697z"/>
	<path class="st12" d="M908,703c-1,1-51,25-51,25l124,32l29-50L908,703z"/>
	<path class="st12" d="M1120,686c-2,0-55,20-55,20l113,41l32-46L1120,686z"/>
	<path class="st13" d="M94,829l294-157c0,0,105.8-17.9,117.9-14.5C518,661,194,859,194,859S119,851,94,829z"/>
	<path class="st13" d="M221,859c3-4,302-198,302-198l24-3L261,853L221,859z"/>
	<path class="st13" d="M630,825c0,0,84,23,92,20s218-177,218-177l-95-7L630,825z"/>
	<path class="st13" d="M1085,795l101.6-100.5c0,0,70.6,9,72.5,13.7c1.9,4.8-97.1,121.5-97.1,121.5L1085,795z"/>
	<path class="st13" d="M1176,830c0,0,9,8,27,0s86-108,86-108l-22-10L1176,830z"/>
</g>
<g id="cap">
	<path class="st14" d="M587,545c6-9,27-39,36-47s30-30,46-35s18.2-5,26.6-4c8.4,1,61.4,28,66.4,31s12,8,19,16s32,63,32,63l-43,18
		l11,70l-156,5l-20-38l-24,6C581,630,581,554,587,545z"/>
	<path class="st15" d="M639,572c0,0,77,9,119-14c5.1,23.5,2,32.6,5,45c-7,8-108,23-119,13C642,601,644,578,639,572z"/>
	<g id="capdrink">
		<g>
			<path class="st16" d="M753.4,578.3c0,0,1.8,70,2.2,76s35.5,20.6,41.5,5.2c5.9-15.4,22.1-71.7,22.1-71.7L753.4,578.3z"/>
		</g>
		<g>
			<path class="st12" d="M754.8,619.8c4-0.3,25.6-6.8,43.7-35.1c9.1,1.4,21.2,2.5,21.2,2.5l-9,29.7c0,0-16,29.2-54.7,34.9
				L754.8,619.8z"/>
		</g>
		<path class="st17" d="M790.2,566.2c-9.2-0.5-21.1-0.5-25,0.7c-3.9,1.3-10.6,5.7-11.6,6.8c-0.9,1.1-0.9,2.1-0.6,6.1
			c0.3,4,2.8,11.8,24.1,15.4c21.3,3.5,37.8,0.4,40.8-2.8c2.9-3.2,1.5-9.1,0.2-13C816.9,575.4,798.2,566.7,790.2,566.2z"/>
		<path class="st12" d="M777.5,585.1c7.9,2.4,36.1,0.5,37.8-3.6s-14.9-12-19.9-12.7c-5.1-0.7-23.4-4.4-30.1,0.1
			C758.6,573.4,761.1,580.3,777.5,585.1z"/>
		<path class="st17" d="M789.7,573.3c0,0,4.2-41.4,6.9-44.6c2.8-3.2,32.2-12.3,32.2-12.3s6.3,3.6,1.4,5.9s-23.4,9.6-25.3,10.8
			c-1.9,1.1-6.4,37.5-7.3,39.6S792.9,577.1,789.7,573.3z"/>
		<g>
			<g>
				<path class="st12" d="M796.6,535.6c1.5-0.1,3,0.3,4.2,1.2c0.5,0.4,1.2-0.3,0.7-0.7c-1.4-1.1-3.1-1.7-4.9-1.5
					C796,534.7,796,535.7,796.6,535.6L796.6,535.6z"/>
			</g>
		</g>
		<g>
			<g>
				<path class="st12" d="M796.8,533.2c2-0.2,3.8,0.5,5,2.1c0.4,0.5,1.1-0.2,0.7-0.7c-1.4-1.7-3.5-2.6-5.7-2.4
					C796.1,532.3,796.1,533.3,796.8,533.2L796.8,533.2z"/>
			</g>
		</g>
		<g>
			<g>
				<path class="st12" d="M797.8,530.2c1.5,0.4,4.6,1.4,4.7,3.3c0,0.6,1,0.6,1,0c-0.1-2.5-3.4-3.7-5.4-4.3
					C797.5,529,797.2,530,797.8,530.2L797.8,530.2z"/>
			</g>
		</g>
		<g>
			<g>
				<path class="st12" d="M800.7,528.6c0.7,0.5,1.4,1.1,2,1.6c0.4,0.3,1.8,1.2,1.3,1.9c-0.4,0.5,0.3,1.2,0.7,0.7
					c0.6-0.7,0.4-1.6-0.2-2.3c-0.9-1-2.2-1.8-3.2-2.6C800.9,527.5,800.2,528.2,800.7,528.6L800.7,528.6z"/>
			</g>
		</g>
		<g>
			<g>
				<path class="st12" d="M803.2,527.3c1.8,0.6,3,2.2,2.9,4.1c0,0.6,1,0.6,1,0c0.1-2.3-1.4-4.4-3.6-5.1
					C802.9,526.1,802.6,527.1,803.2,527.3L803.2,527.3z"/>
			</g>
		</g>
		<g>
			<g>
				<path class="st12" d="M759.4,570.7c-2.9,4.7-0.1,9.8,3.7,12.9c4.6,3.9,10.3,6.2,16.2,7.3c6.9,1.3,13.9,1,20.9,0.2
					c5.9-0.7,13.1-1.3,17-6.3c0.4-0.5-0.3-1.2-0.7-0.7c-3.8,4.7-10.8,5.3-16.3,6c-5.9,0.7-11.8,1-17.7,0.2c-5.3-0.7-10.5-2.2-15-5
					c-4.6-2.8-10.7-8.3-7-14.2C760.6,570.7,759.8,570.2,759.4,570.7L759.4,570.7z"/>
			</g>
		</g>
		<path class="st17" d="M804.7,575.2c-4.3-1.7-8.8-3.1-13.3-4.3c-9.2-2.3-18.5-1.9-27.2,2.2c-0.6,0.3-0.3,1.2,0.3,0.9
			c7.6-3.6,15.8-4.4,24-2.8c3.8,0.8,7.5,2,11.2,3.2c2.8,1,11.7,3.2,11.8,7c0,0.6,1,0.6,1-0.1C812.5,577.9,807.3,576.2,804.7,575.2z"
			/>
	</g>
	<path class="st18" d="M700,485c10-0.8,23-2,25-14c-2-16-6-33-6-33l-47-14v14c0,0,0,27,3,32S688,486,700,485z"/>
	<path class="st19" d="M671,441c0,0,8,33,35,30s17-22,17-22L671,441z"/>
	<path class="st18" d="M718,463c15.9-2.1,31-5,35-27s1-28-1-36s-5-30-3-34s-24-15-24-15l-36-6l-39,12l-2,22v25c0,0,18,31,23,37
		S695,466,718,463z"/>
	<path class="st18" d="M822,633c-2-4-30-1-31-3s0-6,4-7s21,2,23-1s-2-7-8-8s-21-2-25-1s-30,13-30,13v-20c0,0-18,7-19,23s1,14-4,16
		s-44-4-50-5s-38-4-38-4s-2-11.8-2.2-20c-5,1-10,2-15,3c-6.4,1.4-12.9,2.7-19.2,4.5c-3.9,1.1-7.6,2.3-11.5,3.4
		c5.3,19.6,12.5,45,14.9,48c4,5,45,7,55,7s49-7,57-7s26,0,35-1s29-9,33-9s20-4,22-8s0-7,0-7s3-1,4-5s-2-4-2-4S824,637,822,633z"/>
	<path class="st20" d="M647,396l11,23l13-9c0,0-8-10-1-16s4.9-13.4,4.9-16.2C675,375,662,373,662,373L647,396z"/>
	<path class="st21" d="M675,315c4-2,12,3,12,5s-15,6-15,6S670,318,675,315z"/>
	<path class="st22" d="M665,326c9.1-4.8,31-11,44-10s26,14,27,19s12,37,12,37l-31-10l-27,6c0,0-13,9-19,13s-18,19-19,23s-9,5-9,5
		s-10-35-5-47S650,334,665,326z"/>
	<path class="st18" d="M662,414c0,0-6-15-16-13s-11,12-9,16s7,13,15,14s15-3,15-3L662,414z"/>
	<path class="st21" d="M739,334c15,0,28,6,34,13s7,20,5,24s-28.5,14.8-28.5,14.8S749,381,746,378s-20-10-30-10s-26,3-31,5
		s-18,11.4-18,11.4s10-18.4,21-28.4s18-15,26-18S724,334,739,334z"/>
	<g id="capburger">
		<path class="st23" d="M673,691c-2.6,5.2-5,10,0,13s32,9,43,7s34-10,34-19s-3-8-7-9S676,685,673,691z"/>
		<path class="st24" d="M697,679c-7,0-23,1-24,4s-1,9,1,10s25,5,40,3s31-4,32-8s2-11-1-12S697,679,697,679z"/>
		<path class="st25" d="M707,662c10,0,47,2,49,5s2,10,0,12s-4-4-8-3s-2,7-6,8s-2.3-4.8-7.1-3.9C730,681,734,689,730,689s-3-8-8-6
			s-3,9-8,8s-4-8-8-7s-4,9-9,7s-1-7-6-7s-0.8,8.6-5.9,7.3s-2.5-6.5-5.8-6.9C676,684,679,691,676,689s-1-8-4-8s-3,6-5,4s-3-9-1-10
			S684,662,707,662z"/>
		<path class="st26" d="M711,656c0,0-45,13-46,14s36.7,12.1,40.3,17.1C720,683,741,671,749,672C749,665,726,656,711,656z"/>
		<path class="st23" d="M707,633c-17,2-34,13-36,22s-6,19,28,20s41-2,44-6s4-11,1-17S733,630,707,633z"/>
		<path class="st27" d="M713.5,665.6c-0.3-0.5-0.9-0.6-1.4-0.4c-0.9,0.4-1.8,0.8-2.6,1.4c-1.1,0.7-0.1,2.4,1,1.7
			c0.8-0.5,1.7-1,2.6-1.4C713.6,666.8,713.7,666.1,713.5,665.6z"/>
		<path class="st27" d="M724.2,662.2c-1.3-0.2-2.5-0.5-3.8-0.7s-1.8,1.7-0.5,1.9s2.5,0.5,3.8,0.7
			C724.9,664.4,725.4,662.4,724.2,662.2z"/>
		<path class="st27" d="M732.6,660.7c-0.8-0.1-1.5-0.3-2.3-0.4c-0.5-0.1-1.1,0.1-1.2,0.7c-0.1,0.5,0.2,1.1,0.7,1.2
			c0.8,0.1,1.5,0.3,2.3,0.4c0.5,0.1,1.1-0.1,1.2-0.7C733.5,661.5,733.2,660.8,732.6,660.7z"/>
		<path class="st27" d="M732.7,652.4l-2,1.3c-1.1,0.7-0.1,2.4,1,1.7c0.7-0.4,1.3-0.9,2-1.3C734.8,653.4,733.8,651.6,732.7,652.4z"/>
		<path class="st27" d="M730.8,646.4c-0.2-0.6-0.7-0.8-1.2-0.7c-0.7,0.1-1.4,0.3-2.1,0.4c-0.5,0.1-0.8,0.7-0.7,1.2
			c0.2,0.6,0.7,0.8,1.2,0.7c0.7-0.1,1.4-0.3,2.1-0.4C730.7,647.6,731,646.9,730.8,646.4z"/>
		<path class="st27" d="M718.1,637.4c-1.1-0.5-2.2-0.8-3.3-0.9c-0.5-0.1-1,0.5-1,1c0,0.6,0.5,0.9,1,1c0.8,0.1,1.6,0.3,2.3,0.7
			c0.5,0.2,1.1,0.1,1.4-0.4C718.7,638.3,718.6,637.6,718.1,637.4z"/>
		<path class="st27" d="M727.8,640.4c-0.5-0.5-1.1-0.8-1.8-0.9c-0.5-0.1-1.1,0.1-1.2,0.7c-0.1,0.5,0.2,1.2,0.7,1.2
			c0.4,0.1,0.6,0.1,0.9,0.4C727.3,642.7,728.7,641.3,727.8,640.4z"/>
		<path class="st27" d="M713.6,645.1c-1.6-0.2-3.1-0.2-4.7,0.2c-1.3,0.3-0.7,2.2,0.5,1.9s2.4-0.4,3.6-0.2
			C714.3,647.2,714.8,645.3,713.6,645.1z"/>
		<path class="st27" d="M703.2,637.9c-0.9,0-1.8,0-2.8,0.2c-0.5,0.1-0.8,0.7-0.7,1.2c0.2,0.6,0.7,0.8,1.2,0.7
			c0.7-0.1,1.5-0.2,2.2-0.1C704.5,640,704.5,638,703.2,637.9z"/>
		<path class="st27" d="M692.9,643.3c-0.2-0.6-0.7-0.8-1.2-0.7c-0.7,0.1-1.4,0.4-2.1,0.8c-1.1,0.6-0.1,2.4,1,1.7
			c0.5-0.3,1-0.5,1.6-0.6C692.7,644.4,693,643.8,692.9,643.3z"/>
		<path class="st27" d="M681,650.5c-0.5-0.3-1.1-0.1-1.4,0.4c-0.3,0.4-0.6,0.8-0.8,1.2c-0.3,0.4-0.1,1.1,0.4,1.4
			c0.5,0.3,1.1,0.1,1.4-0.4c0.3-0.4,0.6-0.8,0.8-1.2C681.6,651.5,681.4,650.8,681,650.5z"/>
		<path class="st27" d="M693.6,650.1c-0.4-1.2-2.3-0.7-1.9,0.5c0.1,0.4,0.1,0.7-0.1,1.1c-0.2,0.5,0.2,1.1,0.7,1.2
			c0.6,0.2,1-0.2,1.2-0.7C693.8,651.6,693.8,650.8,693.6,650.1z"/>
		<path class="st27" d="M683.3,658.3c-0.2,0.7-0.3,1.3-0.5,2c-0.3,1.2,1.6,1.8,1.9,0.5c0.2-0.7,0.3-1.3,0.5-2
			C685.5,657.5,683.6,657,683.3,658.3z"/>
		<path class="st27" d="M697.7,666.2c-0.5-0.8-1-1.6-1.5-2.3c-0.7-1.1-2.4-0.1-1.7,1c0.5,0.8,1,1.6,1.5,2.3
			C696.6,668.3,698.4,667.3,697.7,666.2z"/>
		<path class="st27" d="M705.3,659.8c-0.5-0.1-0.9-0.3-1.2-0.8c-0.7-1.1-2.4-0.1-1.7,1c0.6,0.9,1.4,1.5,2.4,1.7
			c0.5,0.1,1.1-0.1,1.2-0.7C706.1,660.5,705.8,659.9,705.3,659.8z"/>
		<path class="st27" d="M703.1,645.1c-0.6-0.2-1,0.2-1.2,0.7c-0.4,1-0.7,2-1.1,3c-0.2,0.5,0.2,1.1,0.7,1.2c0.6,0.2,1-0.2,1.2-0.7
			c0.4-1,0.7-2,1.1-3C704,645.8,703.6,645.3,703.1,645.1z"/>
		<path class="st27" d="M713.7,655.2c-1.3-0.2-2.5-0.3-3.8-0.2s-1.3,2.1,0,2c1.1-0.1,2.2,0,3.2,0.1c0.5,0.1,1.1-0.1,1.2-0.7
			C714.6,656,714.3,655.3,713.7,655.2z"/>
		<path class="st27" d="M723.3,652.5c-0.5-0.9-1.1-1.7-1.8-2.4c-0.9-0.9-2.3,0.5-1.4,1.4c0.6,0.6,1.1,1.2,1.5,2
			C722.2,654.7,723.9,653.7,723.3,652.5z"/>
		<path class="st27" d="M685.4,666.3c-1.2,0.1-2.4,0-3.6-0.3c-1.2-0.3-1.8,1.6-0.5,1.9c1.3,0.3,2.7,0.5,4.1,0.3
			C686.7,668.2,686.7,666.2,685.4,666.3z"/>
	</g>
	<path class="st20" d="M692,374c4.8-1.6,13,0,13,3s-6,2-9,3s-10,7-12,4S689,375,692,374z"/>
	<path class="st20" d="M736.3,373.4c2.7,0.6,9.7,3.6,9.7,5.6s-6,2-8,1s-8,0-8-4S736.3,373.4,736.3,373.4z"/>
	<ellipse transform="matrix(0.9916 -0.1296 0.1296 0.9916 -45.211 94.2407)" class="st2" cx="701.5" cy="394.5" rx="4.5" ry="6.5"/>
	
		<ellipse transform="matrix(0.9916 -0.1296 0.1296 0.9916 -44.5145 99.1427)" class="st2" cx="739.5" cy="391.6" rx="4.5" ry="6.5"/>
	<path class="st19" d="M735.2,411.1c-0.7-6-3-15-8.4-18.7c-1.2-0.8-2.4,1.2-1.2,2c4.4,3,6.3,10.8,7.1,15.7c0.2,1.2,0.9,3.9,0.4,5
		c-0.6,1.4-2.4,1.6-3.7,2c-2.5,0.7-5,1.1-7.6,1.5c-1.5,0.2-0.8,2.4,0.6,2.2c3.7-0.6,8.3-0.9,11.5-3
		C736.2,416.4,735.5,413.5,735.2,411.1z"/>
	<path class="st19" d="M729.8,432.6c-6.1,3.7-18.6,5.8-20.7-3.7c-0.4-1.9-3.3-1.1-2.9,0.8c2.5,11.4,17.3,10.3,25.1,5.5
		C733,434.2,731.5,431.6,729.8,432.6z"/>
	<path class="st19" d="M814.8,641.1c-9.2,0.9-18.5,1-27.7,0.4c-0.6,0-0.6,1,0,1c9.2,0.6,18.5,0.5,27.7-0.4
		C815.4,642.1,815.5,641.1,814.8,641.1z"/>
	<path class="st19" d="M812.4,650.2c-7.9,4.1-16.9,3.3-25.5,3.3c-0.6,0-0.6,1,0,1c8.8-0.1,17.9,0.7,26-3.5
		C813.4,650.8,812.9,649.9,812.4,650.2z"/>
	<path class="st19" d="M785.7,663.5c-2.1,0.1-4.1-1.1-4.8-3.1c-0.4-1.3,0.2-2.5,0.3-3.8c0.1-1.9-0.9-2.4-2.4-3.1
		c-3.5-1.7-5.6-4.9-2.4-8.1c1.1-1.2,3-2.4,3.3-4.2c0.2-1.3-0.6-2.1-1.5-2.9c-2-1.7-2.4-3.8-0.6-6c0.6-0.7,1.5-1.2,2.1-1.9
		c1-1.3,0.2-2.3-0.7-3.4c-2-2.4-1.9-5.9,1.2-7.5c0.6-0.3,0.1-1.2-0.5-0.9c-1.7,0.9-2.9,2.5-3.1,4.5c-0.1,1,0,2,0.4,2.9
		c0.6,1.4,2.1,2.5,1.3,4.2c-0.2,0.5-1.3,1.2-1.7,1.7c-0.3,0.4-0.6,0.8-0.8,1.3c-0.4,0.9-0.6,1.8-0.5,2.7c0.1,1,0.6,1.8,1.3,2.5
		c0.4,0.4,1,0.6,1.4,1.1c1.5,1.9-0.3,3.3-1.3,4.3c-1.6,1.6-3.4,3.2-2.9,5.7c0.4,2.3,2.3,3.8,4.3,4.8c1.2,0.6,1.5,0.4,1.9,1.8
		c0.3,1.2,0.1,1.4,0,2.5c-0.1,1,0,2,0.5,2.9c1,2.1,3.1,3.3,5.4,3.1C786.4,664.4,786.4,663.4,785.7,663.5z"/>
	<g>
		<g>
			<path class="st28" d="M662.6,466.9c-8,16.6,16.7,27.3,29,29.6c16.4,3,35.9-0.5,43.8-17c0.8-1.7-1.8-3.3-2.6-1.5
				c-6.5,13.5-21.7,17.7-35.7,16.3c-7.3-0.7-14.6-2.7-21-6.4c-6.5-3.8-15-11-10.9-19.4C666,466.7,663.4,465.2,662.6,466.9
				L662.6,466.9z"/>
		</g>
	</g>
	<g>
		<g>
			<path class="st28" d="M590.2,545.7c16.4-5.3,36.7,3.9,44.9,18.7c8.9,16.1,3.9,34.2,7,51.5c0.2,1.3,2.2,0.7,1.9-0.5
				c-2-11.3-0.2-22.5-1.5-33.9c-0.9-8.6-4.2-16.9-9.5-23.8c-9.2-12.1-29-18.6-43.4-13.9C588.5,544.2,589,546.1,590.2,545.7
				L590.2,545.7z"/>
		</g>
	</g>
	<g>
		<g>
			<path class="st28" d="M586.2,625.5c13.3-8.4,30.6-11.1,45.8-14.3c1.3-0.3,0.7-2.2-0.5-1.9c-15.3,3.2-32.8,6-46.3,14.5
				C584.1,624.4,585.1,626.2,586.2,625.5L586.2,625.5z"/>
		</g>
	</g>
	<g>
		<g>
			<path class="st28" d="M602.7,612.9c9.3-3.5,18.8-5.7,28.8-6.4c1.3-0.1,1.3-2.1,0-2c-10.1,0.7-19.9,2.8-29.3,6.4
				C601,611.4,601.5,613.3,602.7,612.9L602.7,612.9z"/>
		</g>
	</g>
	<g>
		<g>
			<path class="st28" d="M624.1,543c5.3,1.1,9.1,7.7,11.8,11.9c3.1,4.8,5.3,9.9,5.9,15.7c0.1,1.3,2.1,1.3,2,0
				c-0.7-6.7-3.3-12.6-7.1-18.1c-3-4.4-6.5-10.2-12.1-11.4C623.4,540.8,622.9,542.7,624.1,543L624.1,543z"/>
		</g>
	</g>
	<g>
		<g>
			<path class="st28" d="M642.7,554.6c3.3,5.4,4.6,11.3,4.1,17.6c-0.1,1.3,1.9,1.3,2,0c0.6-6.6-0.9-12.9-4.4-18.6
				C643.8,552.5,642.1,553.5,642.7,554.6L642.7,554.6z"/>
		</g>
	</g>
	<g>
		<g>
			<path class="st28" d="M668,569.3c26.5-0.3,52.7-5.3,77.5-14.7c1.2-0.5,0.7-2.4-0.5-1.9c-24.6,9.3-50.6,14.3-76.9,14.6
				C666.7,567.4,666.7,569.4,668,569.3L668,569.3z"/>
		</g>
	</g>
	<g>
		<g>
			<path class="st28" d="M678.2,627.8c15.4,1.7,30.7,1,45.9-1.9c1.3-0.2,0.7-2.2-0.5-1.9c-15,2.9-30.2,3.5-45.3,1.8
				C676.9,625.6,676.9,627.7,678.2,627.8L678.2,627.8z"/>
		</g>
	</g>
	<g>
		<g>
			<path class="st28" d="M759.1,493.3c3.6,3.8,4.6,12.1,4.9,17.1c0.4,6.2-1.3,12.3-3,18.2c-2.8,9.6-5.9,19.1-4,29.2
				c0.2,1.3,2.2,0.7,1.9-0.5c-2.6-13.7,4.6-26,6.6-39.2c0.7-4.9,0.6-9.7-0.5-14.5c-0.9-4-1.6-8.6-4.5-11.7
				C759.6,490.9,758.2,492.3,759.1,493.3L759.1,493.3z"/>
		</g>
	</g>
	<g>
		<g>
			<path class="st28" d="M769.3,522c-0.2,12.1-4.5,23.4-12.4,32.6c-0.8,1,0.6,2.4,1.4,1.4c8.2-9.6,12.7-21.4,12.9-34
				C771.3,520.7,769.3,520.7,769.3,522L769.3,522z"/>
		</g>
	</g>
	<g>
		<g>
			<path class="st28" d="M774.8,540.6c-4.6,6.9-8.6,15-16.3,18.8c-1.2,0.6-0.1,2.3,1,1.7c8-4,12.2-12.3,17-19.5
				C777.3,540.5,775.6,539.5,774.8,540.6L774.8,540.6z"/>
		</g>
	</g>
	<g>
		<g>
			<path class="st28" d="M668.2,466.7c-3.4,16,14.6,22.4,27,24.3c7.3,1.1,15,1.1,21.9-1.8c5.3-2.2,12.1-7,13.2-13.1
				c0.2-1.3-1.7-1.8-1.9-0.5c-1,6-8.1,10.5-13.4,12.3c-5.9,2.1-12.4,2.1-18.5,1.2c-11.3-1.5-29.6-6.8-26.4-21.9
				C670.4,466,668.5,465.5,668.2,466.7L668.2,466.7z"/>
		</g>
	</g>
</g>
<g id="geek">
	<path class="st29" d="M901.4,522.2c-6.8,8.9-10.8,25.5-9.8,31.4s4.9,16.7,3.9,29.4c-1,12.8,4.5,52-3.5,77c0,0,12,0,33,2s35,6,35,6
		s-6.6,33.7,0.2,34.6c6.9,1,26.5,1,37.3,0s42.2-8.8,49-6.9s13.7,1,17.7-2s11.8-44.1,10.8-81.4c-1-37.3-5.9-87.3-24.5-103
		s-22.6-14.7-22.6-14.7s9.8-3.9,9.8-11.8s-11.8-15.7-14.7-28.4c-2.9-12.8-5.9-55.9-4.9-59.8s2-12.8,1-21.6
		c-1-8.8-19.6-35.3-29.4-38.3c-9.8-2.9-31.4-11.8-55.9-9.8s-22.7,35-22.7,35l-6.7,92.5l17,46.5l4.6,10.4
		C925.9,509.4,911.2,509.4,901.4,522.2z"/>
	<path class="st29" d="M947.5,512.3c0,0-44.1,1-52-9.8s0-38.3,0-46.1c0-7.8,2.9-101,11.8-111.8c8.8-10.8,11.8-19.6,27.5-19.6
		s23.5,7.8,23.5,7.8l17.7,66.7c0,0,1,54.9,0,55.9s-8.8,38.3-8.8,38.3L947.5,512.3z"/>
	<path class="st30" d="M910.2,480c-4.5,18.1,42.2,27.7,42.2,27.7s10.7-16.9,10.7-17.8s-7.8-47.1-7.8-47.1S922,423.1,921,424.1
		s-11.2,28-11.2,28S912.2,472.1,910.2,480z"/>
	<path class="st31" d="M988.2,430.8c0,0,2.1,38.1,6.5,49c-4.5,18-16.8,17.8-16.8,17.8s-36.6,2.8-38.3-9.8
		c-1.7-12.6-0.4-15.9-3.1-21.5C933.8,460.7,988.2,430.8,988.2,430.8z"/>
	<path class="st32" d="M946.6,482.8c14.4,3.3,43.2-18.3,42.8-36.2c-0.4-17.9-3.2-8.6-3.2-8.6l-48.9,30.2
		C937.3,468.2,938.5,480.9,946.6,482.8z"/>
	<path class="st31" d="M901.8,435.3c-5.8-14.7-0.6-19.7-1.3-24.6c-0.6-4.9-7.3-17.8-4.4-26.1c2.9-8.3,4.4-19.4,10.9-22.2
		c6.6-2.8,12.3-11.5,29-12.7s44.1-2.9,53.9,10.7c9.7,13.6,11.9,38,9.4,41.3s-6.3,19.6-6.3,19.6s-3.7,24.2-7.1,28.6
		c-3.4,4.4-18.1,20.2-39,19S915.1,469.1,901.8,435.3z"/>
	<path class="st33" d="M954.4,388.8c7.9,0,13.7,5.9,12.8,7.8c-1,2-7.8-1-11.8-2s-11.8,2-11.8,0C943.6,392.7,944.5,388.8,954.4,388.8
		z"/>
	<path class="st33" d="M909.2,386.8c4.9,0,13.7,5.9,11.8,7.8c-2,2-6.9-2.9-12.8-2.9c-7.8,0-8.8,5.9-9.8,2.9
		C897.5,391.7,905.3,386.8,909.2,386.8z"/>
	<path class="st33" d="M904.3,405.6c-1.3-1.3,8.1-12.3,13.5,0C914.7,405.6,911.6,401.9,904.3,405.6z"/>
	<path class="st33" d="M909,408.1c3.7,0,3.7-2.5,3.7-3.7s-1.8-2.5-2.8-2.5c-0.9,0-0.9,0-1.8,1.2C907.1,404.4,907.4,408.1,909,408.1z
		"/>
	<path class="st33" d="M944.8,408.5c-1.5-1.5,9.3-13.8,15.4,0C956.7,408.5,953.1,404.4,944.8,408.5z"/>
	<path class="st33" d="M950.1,411.3c4.2,0,4.2-2.8,4.2-4.1c0-1.4-2.1-2.8-3.1-2.8s-1,0-2.1,1.4C948,407.2,948.3,411.3,950.1,411.3z"
		/>
	<path class="st29" d="M923,342.7c5.9,0,19.6-1,29.4,12.8c9.8,13.7,15.7,42.2,16.7,46.1s11.8,50,14.7,55.9s7.8,17.7,8.8,22.6
		s-9.8,19.6-18.6,20.6s-9.8,9.8-9.8,9.8s31.4-2.9,32.4-2.9s17.7-18.6,17.7-18.6l-2-19.6l-2.9-84.4l-6.9-26.5L976,337.9l-47.1-2.9
		L923,342.7z"/>
	<path class="st34" d="M925.9,498.6c2-2.9,7.8-8.8,13.7-10.8c1,8.8,28.3,11.6,41.2,9.8c-6.7,8.1-23.5,11.8-23.5,11.8
		S931.8,504.5,925.9,498.6z"/>
	<path class="st33" d="M944.5,377c0,0-28.4,25.5-53.9,20.6c-5.9-25.5,11.7-49.8,22-52.4s21.7-1.9,28.6,0c9.1,2.6,23.5,24.1,22,34.2
		c-1.4,9.3-28.4,18.2-28.4,18.2S947.5,382.9,944.5,377z"/>
	<path class="st35" d="M928,433.5c-4.6,1-10.6-2.1-11-7.1c-0.3-3.5,1.5-6.7,4.1-8.8c1-0.8-0.4-2.2-1.4-1.4
		c-3.9,3.1-6.1,8.8-3.9,13.6c2,4.4,8.2,6.5,12.6,5.5C929.8,435.1,929.3,433.2,928,433.5z"/>
	<path class="st30" d="M1010.8,450.5c-18.4-20.2-28.8-46.6-28.9-73.9c0-1.3-2-1.3-2,0c0.2,27.8,10.7,54.8,29.5,75.3
		C1010.2,452.9,1011.6,451.5,1010.8,450.5z"/>
	<path class="st30" d="M1001,417.9c-4.1-7.4-8.2-14.9-8.8-23.5c-0.1-1.3-2.1-1.3-2,0c0.6,9,4.7,16.8,9,24.5
		C999.9,420,1001.6,419,1001,417.9z"/>
	<path class="st30" d="M1026.5,494.8c-10.7,11.4-25.6,17.4-41.2,16.5c-1.3-0.1-1.3,1.9,0,2c16,0.9,31.6-5.3,42.6-17
		C1028.8,495.3,1027.4,493.9,1026.5,494.8z"/>
	<path class="st30" d="M1010.3,486.9c-12,9.4-25.2,16.8-39.5,22.1c-1.2,0.4-0.7,2.3,0.5,1.9c14.6-5.3,28.2-12.9,40.4-22.6
		C1012.7,487.5,1011.3,486.1,1010.3,486.9z"/>
	<path class="st30" d="M944.7,508.2c-14-0.8-27.2-5-39.1-12.4c-1.1-0.7-2.1,1-1,1.7c12.1,7.6,25.7,11.9,40,12.7
		C946,510.2,946,508.2,944.7,508.2z"/>
	<path class="st30" d="M976.6,364.1c-7.8-18.7-23.7-36.5-45.9-34.1c-1.2,0.1-1.3,2.1,0,2c21.3-2.4,36.4,14.7,44,32.6
		C975.2,365.8,977.1,365.3,976.6,364.1z"/>
	<path class="st30" d="M1008.5,608.8c-23,3.8-46,0.2-68.7-3.6c-1.2-0.2-1.8,1.7-0.5,1.9c23.1,3.8,46.5,7.5,69.8,3.6
		C1010.2,610.5,1009.7,608.6,1008.5,608.8z"/>
	<path class="st30" d="M989.4,616.3c-13,0.9-25.9-0.3-38.5-3.7c-1.2-0.3-1.7,1.6-0.5,1.9c12.8,3.4,25.9,4.6,39.1,3.7
		C990.7,618.2,990.7,616.2,989.4,616.3z"/>
	<path class="st30" d="M972.8,624.6c-6.6-1-13.2-2-19.7-3c-1.2-0.2-1.8,1.7-0.5,1.9c6.6,1,13.2,2,19.7,3
		C973.5,626.6,974,624.7,972.8,624.6z"/>
	<path class="st30" d="M957.5,659.5c-10.5-0.2-20.6-2.5-30.3-6.8c-1.1-0.5-2.1,1.2-1,1.7c9.9,4.4,20.4,6.8,31.2,7
		C958.8,661.5,958.8,659.5,957.5,659.5z"/>
	<path class="st30" d="M945.6,513c-7.9,2.3-17.3-0.1-25.1-1.8c-1.2-0.3-1.8,1.6-0.5,1.9c8.2,1.8,17.9,4.1,26.2,1.8
		C947.3,514.6,946.8,512.7,945.6,513z"/>
	<path class="st30" d="M1030.7,650.1c-0.1,0.1-0.2,0.2-0.3,0.4c-0.7,0-1.4,0-2.1-0.1c3.1-4.5,8.1-7.3,13.7-7.4c1.3,0,1.3-2,0-2
		c-6.6,0.1-12.5,3.6-15.9,9.2c-0.6,0-1.3-0.1-1.9-0.1c0,0,0,0,0.1,0c7.2-5.5,6.6-17.2,7.2-25.3c0.8-11.1,0.4-22.3-2.5-33.1
		c0.1-0.1,0.2-0.2,0.3-0.3c0.2,0.1,0.3,0.1,0.5,0.2c1.2,0.4,1.7-1.5,0.5-1.9c-0.8-0.3-1.5-0.6-2.1-1.1v-0.1
		c-0.1-0.5-0.5-0.7-0.9-0.7c-4.2-3.9-6-11.8-7.5-16.6c-2.5-8.1-3.1-16.3-1.4-24.6c1.5-7.2,4.5-13.9,8.6-19.9
		c3.5-5.3,12-17.6,19.4-16.3c1.2,0.2,1.8-1.7,0.5-1.9c-7.6-1.4-13.9,7.1-18.1,12.3c-5.9,7.4-10.4,15.9-12.4,25.2
		c-2,9.6-1,19,2.2,28.2c1,3,2.1,6.7,3.7,10c-3.1-3.6-5.5-7.8-7.8-11.8c-4.5-8.1-7.2-17.4-3.3-26.3c0.5-1.1-1.2-2.1-1.7-1
		c-3.7,8.4-2.2,17.3,1.8,25.4c3.2,6.5,7.4,13.8,13.2,18.7c-9-2.5-16.3-9.2-19.3-18.3c-0.4-1.2-2.3-0.7-1.9,0.5
		c3.5,10.7,12.6,18.5,23.7,20.3c2.5,9,3.2,18.3,2.9,27.7c-0.2,4.8-0.6,9.5-1.1,14.3c-0.6,5.2-0.9,11.2-5.4,14.7
		c-0.6,0.5-0.5,1.3,0,1.7c-4.7-0.3-9.4-0.6-14-0.8c-9.8-0.4-20.4-0.3-28.8,5.4c-6.5,4.4-10.2,11.7-8.8,19.5c-2,0.2-4.1,0.4-6.2,0.7
		c-4.8,0.6-11.7,0.3-13.4,5.9c-0.4,1.2,1.5,1.7,1.9,0.5c1.5-5,10.8-4.4,14.9-4.9c5-0.6,9.9-1.1,14.6,1.4c4.1,2.2,8.3,6.5,9.1,11.3
		c1,5.6-2.8,10.2-8.2,11.2c-1.2,0.2-0.7,2.1,0.5,1.9c5-0.9,9.3-4.8,9.8-10.1c0.5-5.7-3.2-10.9-7.5-14.2c-4.2-3.2-8.7-4-13.5-3.8
		c-2-9.7,5-17.6,13.7-20.7c7.5-2.7,15.8-2.4,23.7-2c7.6,0.3,15.2,0.9,22.8,1.4c4.2,0.3,8.4,0.4,12.1,2.6c3.9,2.3,9.1,6.9,8.9,11.9
		c0,1.3,1.9,1.3,2,0c0.2-7.1-8.1-13.8-14.5-15.4c-2.7-0.7-5.6-1-8.6-1.1c8.4-4.3,23.5-1.7,25.3,8.6c0.2,1.2,2.1,0.7,1.9-0.5
		C1058.6,646.3,1039.4,643.5,1030.7,650.1z"/>
	<path class="st30" d="M1041.8,661.8c-1-0.8-2,0.9-1,1.7c8.2,6.3,9,17.7,1.8,25.2c-0.9,0.9,0.5,2.3,1.4,1.4
		C1052.1,681.5,1051,668.9,1041.8,661.8z"/>
	<path class="st30" d="M1071.5,584.9c-8.6-0.2-17-0.3-25.3,2.3c-1.2,0.4-0.7,2.3,0.5,1.9c8.1-2.5,16.4-2.5,24.8-2.2
		C1072.7,586.9,1072.7,584.9,1071.5,584.9z"/>
	<path class="st30" d="M1070.4,590.1c-5.5-1.3-11-1.2-16.4,0.4c-1.2,0.4-0.7,2.3,0.5,1.9c5.1-1.5,10.2-1.7,15.3-0.4
		C1071.1,592.3,1071.7,590.4,1070.4,590.1z"/>
	<path class="st31" d="M920.3,689.3"/>
	<path class="st31" d="M935.3,649.4"/>
	<path class="st29" d="M829,635c12,8,32,12,47-7s24-25,24-25l4-32c0,0-40-14-41-13s-20,3-31,20s-18.4,27.2-15.2,37.6
		C820,626,829,635,829,635z"/>
	<path class="st36" d="M887,692c0,0-19-61-18-64s4-6,6-6s44,6,47,8s6,36,6,36l1,19L887,692z"/>
	<path class="st37" d="M913,637c3,3,10,50.5,10,50.5l-32,8.5c0,0-20.4-61.7-19.2-63.4C873,631,913,637,913,637z"/>
	<path class="st31" d="M942,639c3.5,3.5,5,22,8,23s8.4,9.5,9.2,12.7s2.8,24.3-0.7,25.8S933,710,928,710s-41-10-41-14s0-4,0-4
		s-5-4-5-7s1.6-4,1.6-4s-3-1.5-1.3-4.2C884,674,888,674,894,676s26.3,1.5,27.1-1.3C922,672,909,668,904,668s-21.4-0.1-22.2-2.6
		C881,663,897,658,902,658s37.1,5.7,37.1,5.7S939,655,937,652s-10.8-2.6-10.8-2.6l-1.5-10.3C924.7,639.1,939,636,942,639z"/>
	<g id="drink">
		<path class="st16" d="M860.5,495.5c0,0-3,70-3,76s34,23,41,8s27-70,27-70L860.5,495.5z"/>
		<path class="st12" d="M859,537c4,0,26-5,46-32c9,2,21,4,21,4l-11,29c0,0-18,28-57,31L859,537z"/>
		<path class="st17" d="M898,486c-9.1-1.1-21-2-25-1s-11,5-12,6s-1,2-1,6s2,12,23,17s37.7,3,40.9,0s2.1-9,1.1-13S906,487,898,486z"
			/>
		<path class="st12" d="M884,504c7.7,2.9,36,3,38-1s-14-13-19-14s-23-6-30-2S868,498,884,504z"/>
		<path class="st17" d="M897,493c0,0,7-41,10-44s23-8,23-8s7,3,2,7c-5,2-15,5-17,6s-9,37-10,39S900,497,897,493z"/>
		<g>
			<g>
				<path class="st12" d="M906.5,455.9c1.5,0,3,0.5,4.1,1.5c0.5,0.4,1.2-0.3,0.7-0.7c-1.3-1.2-3-1.8-4.8-1.8
					C905.9,454.9,905.9,455.9,906.5,455.9L906.5,455.9z"/>
			</g>
		</g>
		<g>
			<g>
				<path class="st12" d="M906.9,453.5c1.9-0.1,3.7,0.7,4.7,2.3c0.4,0.5,1.2,0,0.9-0.5c-1.3-1.9-3.3-3-5.6-2.8
					C906.2,452.5,906.2,453.5,906.9,453.5L906.9,453.5z"/>
			</g>
		</g>
		<g>
			<g>
				<path class="st12" d="M908.2,450.6c1.5,0.5,4.4,1.7,4.4,3.7c0,0.6,1,0.6,1,0c0.1-2.5-3.2-4-5.1-4.6
					C907.8,449.4,907.5,450.4,908.2,450.6L908.2,450.6z"/>
			</g>
		</g>
		<g>
			<g>
				<path class="st12" d="M911.1,449.2c0.6,0.6,1.2,1.1,1.9,1.7c0.4,0.4,1.8,1.3,1.2,2c-0.4,0.5,0.3,1.2,0.7,0.7
					c0.6-0.7,0.5-1.5,0-2.3c-0.8-1.1-2-2-3-2.9C911.3,448,910.6,448.8,911.1,449.2L911.1,449.2z"/>
			</g>
		</g>
		<g>
			<g>
				<path class="st12" d="M913.7,448c1.8,0.7,2.8,2.5,2.6,4.3c-0.1,0.6,0.9,0.6,1,0c0.2-2.3-1.2-4.4-3.3-5.3
					C913.4,446.8,913.1,447.8,913.7,448L913.7,448z"/>
			</g>
		</g>
		<g>
			<g>
				<path class="st12" d="M867,488.4c-3.3,4.6-0.6,10,3.1,13.4c4.4,4.1,10,6.8,15.8,8.2c6.6,1.7,13.6,1.9,20.4,1.6
					c5.9-0.3,13.1-0.5,17.4-5.1c0.4-0.5-0.3-1.2-0.7-0.7c-4.1,4.4-11.1,4.6-16.7,4.8c-5.9,0.3-11.9,0.2-17.7-1
					c-4.9-1-9.8-2.7-14-5.6c-4.7-3.1-10.9-9.3-6.7-15.1C868.2,488.4,867.4,487.9,867,488.4L867,488.4z"/>
			</g>
		</g>
		<path class="st17" d="M911.8,495.9c-4.2-2-8.5-3.7-12.9-5.2c-9-2.9-18.3-3.2-27.3,0.3c-0.6,0.2-0.3,1.2,0.3,1
			c7.8-3.1,16.1-3.3,24.2-1.1c3.8,1,7.4,2.5,11,4c2.7,1.1,11.4,4,11.3,7.8c0,0.6,1,0.6,1,0C919.4,499.2,914.4,497.2,911.8,495.9z"/>
	</g>
	<g id="geekburger">
		<path class="st23" d="M916,720c-2.6,5.2-5,10,0,13s32,9,43,7s34-10,34-19s-3-8-7-9S919,714,916,720z"/>
		<path class="st24" d="M940,708c-7,0-23,1-24,4s-1,9,1,10s25,5,40,3s31-4,32-8s2-11-1-12S940,708,940,708z"/>
		<path class="st25" d="M950,691c10,0,47,2,49,5s2,10,0,12s-4-4-8-3s-2,7-6,8s-2.3-4.8-7.1-3.9C973,710,977,718,973,718s-3-8-8-6
			s-3,9-8,8s-4-8-8-7s-4,9-9,7s-1-7-6-7s-0.8,8.6-5.9,7.3s-2.5-6.5-5.8-6.9C919,713,922,720,919,718s-1-8-4-8s-3,6-5,4s-3-9-1-10
			S927,691,950,691z"/>
		<path class="st26" d="M954,685c0,0-45,13-46,14s36.7,12.1,40.3,17.1C963,712,984,700,992,701C992,694,969,685,954,685z"/>
		<path class="st23" d="M950,662c-17,2-34,13-36,22s-6,19,28,20s41-2,44-6s4-11,1-17S976,659,950,662z"/>
		<path class="st27" d="M956.5,694.6c-0.3-0.5-0.9-0.6-1.4-0.4c-0.9,0.4-1.8,0.8-2.6,1.4c-1.1,0.7-0.1,2.4,1,1.7
			c0.8-0.5,1.7-1,2.6-1.4C956.6,695.8,956.7,695.1,956.5,694.6z"/>
		<path class="st27" d="M967.2,691.2c-1.3-0.2-2.5-0.5-3.8-0.7s-1.8,1.7-0.5,1.9s2.5,0.5,3.8,0.7
			C967.9,693.4,968.4,691.4,967.2,691.2z"/>
		<path class="st27" d="M975.6,689.7c-0.8-0.1-1.5-0.3-2.3-0.4c-0.5-0.1-1.1,0.1-1.2,0.7c-0.1,0.5,0.2,1.1,0.7,1.2
			c0.8,0.1,1.5,0.3,2.3,0.4c0.5,0.1,1.1-0.1,1.2-0.7C976.5,690.5,976.2,689.8,975.6,689.7z"/>
		<path class="st27" d="M975.7,681.4l-2,1.3c-1.1,0.7-0.1,2.4,1,1.7c0.7-0.4,1.3-0.9,2-1.3C977.8,682.4,976.8,680.6,975.7,681.4z"/>
		<path class="st27" d="M973.8,675.4c-0.2-0.6-0.7-0.8-1.2-0.7c-0.7,0.1-1.4,0.3-2.1,0.4c-0.5,0.1-0.8,0.7-0.7,1.2
			c0.2,0.6,0.7,0.8,1.2,0.7c0.7-0.1,1.4-0.3,2.1-0.4C973.7,676.6,974,675.9,973.8,675.4z"/>
		<path class="st27" d="M961.1,666.4c-1.1-0.5-2.2-0.8-3.3-0.9c-0.5-0.1-1,0.5-1,1c0,0.6,0.5,0.9,1,1c0.8,0.1,1.6,0.3,2.3,0.7
			c0.5,0.2,1.1,0.1,1.4-0.4C961.7,667.3,961.6,666.6,961.1,666.4z"/>
		<path class="st27" d="M970.8,669.4c-0.5-0.5-1.1-0.8-1.8-0.9c-0.5-0.1-1.1,0.1-1.2,0.7c-0.1,0.5,0.2,1.2,0.7,1.2
			c0.4,0.1,0.6,0.1,0.9,0.4C970.3,671.7,971.7,670.3,970.8,669.4z"/>
		<path class="st27" d="M956.6,674.1c-1.6-0.2-3.1-0.2-4.7,0.2c-1.3,0.3-0.7,2.2,0.5,1.9s2.4-0.4,3.6-0.2
			C957.3,676.2,957.8,674.3,956.6,674.1z"/>
		<path class="st27" d="M946.2,666.9c-0.9,0-1.8,0-2.8,0.2c-0.5,0.1-0.8,0.7-0.7,1.2c0.2,0.6,0.7,0.8,1.2,0.7
			c0.7-0.1,1.5-0.2,2.2-0.1C947.5,669,947.5,667,946.2,666.9z"/>
		<path class="st27" d="M935.9,672.3c-0.2-0.6-0.7-0.8-1.2-0.7c-0.7,0.1-1.4,0.4-2.1,0.8c-1.1,0.6-0.1,2.4,1,1.7
			c0.5-0.3,1-0.5,1.6-0.6C935.7,673.4,936,672.8,935.9,672.3z"/>
		<path class="st27" d="M924,679.5c-0.5-0.3-1.1-0.1-1.4,0.4c-0.3,0.4-0.6,0.8-0.8,1.2c-0.3,0.4-0.1,1.1,0.4,1.4
			c0.5,0.3,1.1,0.1,1.4-0.4c0.3-0.4,0.6-0.8,0.8-1.2C924.6,680.5,924.4,679.8,924,679.5z"/>
		<path class="st27" d="M936.6,679.1c-0.4-1.2-2.3-0.7-1.9,0.5c0.1,0.4,0.1,0.7-0.1,1.1c-0.2,0.5,0.2,1.1,0.7,1.2
			c0.6,0.2,1-0.2,1.2-0.7C936.8,680.6,936.8,679.8,936.6,679.1z"/>
		<path class="st27" d="M926.3,687.3c-0.2,0.7-0.3,1.3-0.5,2c-0.3,1.2,1.6,1.8,1.9,0.5c0.2-0.7,0.3-1.3,0.5-2
			C928.5,686.5,926.6,686,926.3,687.3z"/>
		<path class="st27" d="M940.7,695.2c-0.5-0.8-1-1.6-1.5-2.3c-0.7-1.1-2.4-0.1-1.7,1c0.5,0.8,1,1.6,1.5,2.3
			C939.6,697.3,941.4,696.3,940.7,695.2z"/>
		<path class="st27" d="M948.3,688.8c-0.5-0.1-0.9-0.3-1.2-0.8c-0.7-1.1-2.4-0.1-1.7,1c0.6,0.9,1.4,1.5,2.4,1.7
			c0.5,0.1,1.1-0.1,1.2-0.7C949.1,689.5,948.8,688.9,948.3,688.8z"/>
		<path class="st27" d="M946.1,674.1c-0.6-0.2-1,0.2-1.2,0.7c-0.4,1-0.7,2-1.1,3c-0.2,0.5,0.2,1.1,0.7,1.2c0.6,0.2,1-0.2,1.2-0.7
			c0.4-1,0.7-2,1.1-3C947,674.8,946.6,674.3,946.1,674.1z"/>
		<path class="st27" d="M956.7,684.2c-1.3-0.2-2.5-0.3-3.8-0.2s-1.3,2.1,0,2c1.1-0.1,2.2,0,3.2,0.1c0.5,0.1,1.1-0.1,1.2-0.7
			C957.6,685,957.3,684.3,956.7,684.2z"/>
		<path class="st27" d="M966.3,681.5c-0.5-0.9-1.1-1.7-1.8-2.4c-0.9-0.9-2.3,0.5-1.4,1.4c0.6,0.6,1.1,1.2,1.5,2
			C965.2,683.7,966.9,682.7,966.3,681.5z"/>
		<path class="st27" d="M928.4,695.3c-1.2,0.1-2.4,0-3.6-0.3c-1.2-0.3-1.8,1.6-0.5,1.9c1.3,0.3,2.7,0.5,4.1,0.3
			C929.7,697.2,929.7,695.2,928.4,695.3z"/>
	</g>
	<path class="st31" d="M852,515c-0.7,3.5,0,10,0,10s-3,3-3,7s1,8,1,8s-3,4-3,6s3,6,3,6s-4,3-2,6s4,6,8,5s6-1,7-5c0,0,7-1,8-6
		s-2-5-2-5s10,0,10-6s-4-5-4-5s5-3,2-7s-17-6-17.5-9.4c-0.1-0.6,0.5-12,0.5-12S853,510,852,515z"/>
	<path class="st31" d="M932,522c0.7-4.1-9.8-2.9-9.8-2.9l-5.3,15.8C916.8,534.9,931,528,932,522z"/>
	<path class="st38" d="M934.3,443c-2.6-3.8-7.5-2.3-11.1-3.9c-1.8-0.7-2.6,2.2-0.8,2.9c2.4,1,5,0.5,7.4,1.3c1.1,0.4,2.4,1.2,2.3,2.5
		c-0.2,1.3-1.7,1.9-2.7,2.5c-1.7,0.9-0.2,3.5,1.5,2.6C933.9,449.3,936.6,446.3,934.3,443z"/>
	<path class="st38" d="M873.7,536.5c-4.2,0.1-8.5,0.1-12.5-1.4c-3.8-1.5-8.5-5-7.9-9.6c0.1-0.6-0.9-0.6-1,0c-0.6,4.2,3,7.8,6.5,9.6
		c4.6,2.4,9.9,2.6,14.9,2.4C874.3,537.5,874.3,536.5,873.7,536.5z"/>
	<path class="st38" d="M868.8,546.7c-6.5-0.5-13.9-1.4-17.7-7.5c-0.3-0.5-1.2,0-0.9,0.5c3.9,6.4,11.6,7.4,18.5,8
		C869.4,547.7,869.4,546.7,868.8,546.7z"/>
	<path class="st38" d="M864.1,556.2c-5.3,0.2-10.2-1.8-13.8-5.6c-0.4-0.5-1.2,0.2-0.7,0.7c3.8,4,9,6.1,14.5,5.9
		C864.7,557.2,864.7,556.2,864.1,556.2z"/>
	<path class="st38" d="M913.7,684.3c-10.4,2.2-21.2,0.6-30.6-4.4c-0.6-0.3-1.1,0.6-0.5,0.9c9.6,5.2,20.7,6.7,31.4,4.5
		C914.6,685.1,914.3,684.2,913.7,684.3z"/>
	<path class="st38" d="M910.6,693.5c-7.9,1-15.9,0.2-23.5-2.3c-0.6-0.2-0.9,0.8-0.3,1c7.7,2.5,15.7,3.3,23.7,2.3
		C911.2,694.4,911.2,693.4,910.6,693.5z"/>
	<path class="st30" d="M883.3,586.3c-3.5,3.9-5.9,8.5-6.8,13.7c-1.2,6.8,0.5,13.9-3.2,20.1c-0.7,1.1,1.1,2.1,1.7,1
		c2.7-4.4,2.9-9.2,3-14.2c0.2-7.3,1.8-13.6,6.8-19.2C885.6,586.8,884.2,585.4,883.3,586.3z"/>
	<path class="st30" d="M894.9,584.6c-1.2,3-0.8,6.1-0.7,9.2c0.1,3.9,0.3,7.9,0.6,11.8c0.1,1.3,2.1,1.3,2,0
		c-0.2-3.4-0.4-6.8-0.5-10.2c-0.1-3.3-0.7-7.1,0.6-10.3C897.3,584,895.4,583.4,894.9,584.6z"/>
	<path class="st30" d="M870,596.8c-10.8-2.2-22.1-10.7-18.4-23.1c0.4-1.2-1.6-1.8-1.9-0.5c-4,13.5,7.8,23.1,19.8,25.6
		C870.7,598.9,871.2,597,870,596.8z"/>
	<path class="st30" d="M872.3,602.8c-6.6,3.5-18.3,0-22.5-5.6c-0.8-1-2.5,0-1.7,1c5,6.7,17.7,10.4,25.3,6.3
		C874.5,603.9,873.4,602.2,872.3,602.8z"/>
	<path class="st39" d="M948.8,362.6c-13.6,14.4-31.5,24.3-50.9,28.1c-0.6,0.1-0.4,1.1,0.3,1c19.6-3.9,37.6-13.8,51.3-28.4
		C949.9,362.9,949.2,362.2,948.8,362.6z"/>
	<path class="st39" d="M938.9,359.4c-5.3,5.1-11.1,9.6-17.5,13.2c-3.2,1.8-6.4,3.4-9.8,4.8c-3.8,1.6-7.8,3.2-12,2.9
		c-0.6,0-0.6,1,0,1c4,0.2,7.8-1.2,11.5-2.6c3.5-1.4,6.8-3,10.1-4.8c6.7-3.7,12.9-8.4,18.4-13.8C940.1,359.7,939.3,359,938.9,359.4z"
		/>
	<path class="st39" d="M935.4,354.9c-8.1,6.9-18.2,10.8-28.8,11c-0.6,0-0.6,1,0,1c10.9-0.2,21.3-4.2,29.6-11.3
		C936.6,355.2,935.9,354.5,935.4,354.9z"/>
	<path class="st39" d="M956.5,369.5c0-0.6-1-0.6-1,0c0.4,6.4-2.3,12.4-7.3,16.5c-0.5,0.4,0.2,1.1,0.7,0.7
		C954.1,382.5,956.9,376.2,956.5,369.5z"/>
</g>
<g id="sporty">
	<path class="st40" d="M553,521.6c-8.6-11.4-53.8-31.4-71.1-31.4c-17.3,0-40.9-3.2-62.4,8.6C405.1,506.6,392,524,389,534s-9,84-7,82
		s21-4,21-4l8.8,56.3L446,659l83-7l2-59l47-10.4C578,582.6,561.7,533,553,521.6z"/>
	<path class="st31" d="M438.7,444.4c0,0,2.9,37,0,48c6.7,16.8,38.4,39.6,38.4,39.6s16.3-22.9,16.3-35.2s-1.9-19.1,0-24.8
		S438.7,444.4,438.7,444.4z"/>
	<path class="st32" d="M485.8,489.2c-13.5,5-44.3-12.1-46.2-29.4c-1.9-17.3,2-8.7,2-8.7L493,474C493,474,493.5,486.3,485.8,489.2z"
		/>
	<path class="st33" d="M431.6,455.9c0.9,4.7-6.6-16.1-12.3-23.3c-5.7-7.2-15.2-14.8-15.2-27.2s-0.8-18.1,2-25.7s36.4-13.5,36.4-13.5
		l81.7,4.9c0,0,6.6,8.6,5.7,15.2s-10,26.2-8.3,33.6s-40.8,20.7-40.8,20.7h-35.9C444.9,440.6,430.7,451.1,431.6,455.9z"/>
	<path class="st31" d="M523.2,437.8c3.8-14.9-1.9-19.1-1.9-23.8c0-4.8,4.8-18.1,1-25.7s-6.7-18.1-13.4-20
		c-6.7-1.9-13.4-9.5-29.8-8.6s-43.2,2.9-50.9,17.1c-7.7,14.3-6.7,38.1-3.8,41c2.9,2.9,8.6,18.1,8.6,18.1s6.7,22.9,10.6,26.7
		c3.8,3.8,20.2,17.1,40.3,13.3C504,472.1,514.6,472.1,523.2,437.8z"/>
	<path class="st33" d="M547,366.5c0,0-33.4,38.1-100.3,14.3c-13.2,22.9-2,51.4-2,51.4s-9.1,0-13.2-12.4c-9.1-9.5-13.2,1-19.3-5.7
		c-6.1-6.7-13.2-26.7-6.1-39.1s19.3-12.4,19.3-12.4s-12.2-10.5-19.3-4.8c3-5.7,13.2-8.6,21.3-1.9c-8.1-8.6-13.2-16.2-7.1-22.9
		c2,6.7,8.1,15.2,16.2,14.3c8.1-3.8,14.2-17.1,46.6-11.4s34.5-1,34.5-1s3,8.6-5.1,11.4c8.1,2.9,15.2,2.9,20.3-1
		c-1,4.8-2,12.4-8.1,14.3C529.8,367.4,547,366.5,547,366.5z"/>
	<path class="st31" d="M433.9,425.4c-1-3.8-2.9-17.1-12.5-13.3c-9.6,3.8-8.6,14.3-7.7,17.1c1,2.9,10.6,14.3,20.2,6.7
		C443.5,428.2,433.9,425.4,433.9,425.4z"/>
	<path class="st33" d="M466.6,394.9c-7.7,0-13.4,5.7-12.5,7.6s7.7-1,11.5-1.9c3.8-1,11.5,1.9,11.5,0S476.2,394.9,466.6,394.9z"/>
	<path class="st33" d="M510.8,393c-4.8,0-13.4,5.7-11.5,7.6s6.7-2.9,12.5-2.9c7.7,0,8.6,5.7,9.6,2.9S514.6,393,510.8,393z"/>
	<path class="st33" d="M515.5,411.3c1.3-1.3-8-12-13.2,0C505.4,411.3,508.4,407.7,515.5,411.3z"/>
	<path class="st33" d="M511,413.7c-3.6,0-3.6-2.4-3.6-3.6s1.8-2.4,2.7-2.4c0.9,0,0.9,0,1.8,1.2C512.8,410.1,512.6,413.7,511,413.7z"
		/>
	<path class="st33" d="M528,412"/>
	<path class="st33" d="M475.9,414.1c1.5-1.4-9.1-13.4-15.1,0C464.3,414.1,467.8,410.1,475.9,414.1z"/>
	<path class="st33" d="M470.7,416.8c-4.1,0-4.1-2.7-4.1-4s2.1-2.7,3.1-2.7s1,0,2.1,1.3C472.8,412.8,472.5,416.8,470.7,416.8z"/>
	<path class="st12" d="M504.8,495.3c0,0-10.3-3.5-11.3-3.4c-1,13.5-10.6,32.5-16.4,37.3c-9.6-2.9-37.5-33.3-38.4-37.2
		c-2.9-1-14.5,4.1-14.5,4.1s43.3,47.3,54.8,48.3C494.4,535.9,504.8,495.3,504.8,495.3z"/>
	<path class="st12" d="M526.1,584.5c0,0,25.5-4.6,47.8-13.7c1.2,3.3,4.1,11.8,4.1,11.8s-49,18.1-50,16.2s-1.9-9.5-2.9-10.5
		C525.2,587.3,526.1,584.5,526.1,584.5z"/>
	<path class="st35" d="M492.4,440.2c4.5,1,10.3-2,10.7-6.9c0.3-3.4-1.4-6.5-4-8.6c-1-0.8,0.4-2.1,1.4-1.3c3.8,3.1,6,8.6,3.8,13.2
		c-1.9,4.2-8.1,6.3-12.4,5.4C490.6,441.8,491.1,440,492.4,440.2z"/>
	<path class="st41" d="M432,495.2c12.7,16,28.3,29.3,46.1,39.4c9.2-11.6,17.2-24.2,19.6-39c0.2-1.2,2.1-0.7,1.9,0.5
		c-2.5,15-10.6,27.8-19.9,39.5c0.4,0.7-0.3,1.7-1.2,1.4c-0.5,0.2-1-0.1-1.2-0.7c-18-10.1-33.8-23.6-46.7-39.8
		C429.9,495.6,431.3,494.2,432,495.2z"/>
	<path class="st41" d="M527.5,590.8c16-1.2,31.4-8,45.8-14.5c1.1-0.5,2.1,1.1,1,1.6c-14.8,6.7-30.4,13.6-46.8,14.8
		C526.2,592.8,526.2,590.9,527.5,590.8z"/>
	<path class="st42" d="M529.4,570.1c2-6.6,3.4-13.4,4.3-20.3c1.6-12.8,1.4-25.8,0.6-38.6c-0.1-1.2,1.8-1.2,1.9,0
		c0.8,12.9,1,25.8-0.6,38.6c-0.7,5.9-1.8,11.7-3.4,17.4c-1.1,4-2.7,8-4,12c6-10,11.5-20.5,12.4-32.3c0.1-1.2,2-1.2,1.9,0
		c-0.9,12.2-6.4,22.9-12.6,33.2c5.8-4,10.2-9.5,12.7-16.2c0.4-1.1,2.3-0.6,1.9,0.5c-3.1,8.3-8.9,15-16.7,19.2
		c-0.2,0.4-0.5,0.8-0.7,1.2l-0.1,0.1c-0.1,0.4-0.1,0.8-0.2,1.2c-0.1,1.2-2.1,1.2-1.9,0C525.5,580.6,527.8,575.5,529.4,570.1z"/>
	<path class="st42" d="M452.2,618.6c22.5,2.5,42.7-12.4,65.3-9.5c1.2,0.2,1.2,2.1,0,1.9c-22.5-2.9-42.8,12.1-65.3,9.5
		C451,620.4,451,618.5,452.2,618.6z"/>
	<path class="st42" d="M465.2,621c11.7,1.5,23.4,0.3,34.5-3.5c1.2-0.4,1.7,1.4,0.5,1.8c-11.3,3.9-23.2,5.1-35.1,3.5
		C464,622.8,463.9,620.9,465.2,621z"/>
	<path class="st31" d="M525,596c0,0,27,41.6,30.5,54.8S570,656,570,656l13-42l-6.6-30.5c0,0,0.6-36.5-1.4-36.5s-16-6-16-6l-19.3,7.7
		L525,588V596z"/>
	<path class="st42" d="M452.5,537.5c8,5.9,16.3,11.3,25,16.2c0.3,0.2,0.4,0.4,0.5,0.6c9.3-4.4,16.5-11.9,20.3-21.4
		c0.5-1.1,2.3-0.6,1.9,0.5c-4.1,10-11.5,18-21.3,22.6c-0.6,0.3-1.2-0.1-1.4-0.6c-0.3,0.1-0.6,0.2-0.9,0c-8.6-4.9-17-10.3-25-16.2
		C450.6,538.5,451.5,536.8,452.5,537.5z"/>
	<g id="burger">
		<path class="st23" d="M486,581c-2.6,5.2-5,10,0,13s32,9,43,7s34-10,34-19s-3-8-7-9S489,575,486,581z"/>
		<path class="st24" d="M510,569c-7,0-23,1-24,4s-1,9,1,10s25,5,40,3s31-4,32-8s2-11-1-12S510,569,510,569z"/>
		<path class="st25" d="M520,552c10,0,47,2,49,5s2,10,0,12s-4-4-8-3s-2,7-6,8s-2.3-4.8-7.1-3.9C543,571,547,579,543,579s-3-8-8-6
			s-3,9-8,8s-4-8-8-7s-4,9-9,7s-1-7-6-7s-0.8,8.6-5.9,7.3s-2.5-6.5-5.8-6.9C489,574,492,581,489,579s-1-8-4-8s-3,6-5,4s-3-9-1-10
			S497,552,520,552z"/>
		<path class="st26" d="M524,546c0,0-45,13-46,14s36.7,12.1,40.3,17.1C533,573,554,561,562,562C562,555,539,546,524,546z"/>
		<path class="st23" d="M520,523c-17,2-34,13-36,22s-6,19,28,20s41-2,44-6s4-11,1-17S546,520,520,523z"/>
		<path class="st27" d="M526.5,555.6c-0.3-0.5-0.9-0.6-1.4-0.4c-0.9,0.4-1.8,0.8-2.6,1.4c-1.1,0.7-0.1,2.4,1,1.7
			c0.8-0.5,1.7-1,2.6-1.4C526.6,556.8,526.7,556.1,526.5,555.6z"/>
		<path class="st27" d="M537.2,552.2c-1.3-0.2-2.5-0.5-3.8-0.7s-1.8,1.7-0.5,1.9s2.5,0.5,3.8,0.7
			C537.9,554.4,538.4,552.4,537.2,552.2z"/>
		<path class="st27" d="M545.6,550.7c-0.8-0.1-1.5-0.3-2.3-0.4c-0.5-0.1-1.1,0.1-1.2,0.7c-0.1,0.5,0.2,1.1,0.7,1.2
			c0.8,0.1,1.5,0.3,2.3,0.4c0.5,0.1,1.1-0.1,1.2-0.7C546.5,551.5,546.2,550.8,545.6,550.7z"/>
		<path class="st27" d="M545.7,542.4l-2,1.3c-1.1,0.7-0.1,2.4,1,1.7c0.7-0.4,1.3-0.9,2-1.3C547.8,543.4,546.8,541.6,545.7,542.4z"/>
		<path class="st27" d="M543.8,536.4c-0.2-0.6-0.7-0.8-1.2-0.7c-0.7,0.1-1.4,0.3-2.1,0.4c-0.5,0.1-0.8,0.7-0.7,1.2
			c0.2,0.6,0.7,0.8,1.2,0.7c0.7-0.1,1.4-0.3,2.1-0.4C543.7,537.6,544,536.9,543.8,536.4z"/>
		<path class="st27" d="M531.1,527.4c-1.1-0.5-2.2-0.8-3.3-0.9c-0.5-0.1-1,0.5-1,1c0,0.6,0.5,0.9,1,1c0.8,0.1,1.6,0.3,2.3,0.7
			c0.5,0.2,1.1,0.1,1.4-0.4C531.7,528.3,531.6,527.6,531.1,527.4z"/>
		<path class="st27" d="M540.8,530.4c-0.5-0.5-1.1-0.8-1.8-0.9c-0.5-0.1-1.1,0.1-1.2,0.7c-0.1,0.5,0.2,1.2,0.7,1.2
			c0.4,0.1,0.6,0.1,0.9,0.4C540.3,532.7,541.7,531.3,540.8,530.4z"/>
		<path class="st27" d="M526.6,535.1c-1.6-0.2-3.1-0.2-4.7,0.2c-1.3,0.3-0.7,2.2,0.5,1.9s2.4-0.4,3.6-0.2
			C527.3,537.2,527.8,535.3,526.6,535.1z"/>
		<path class="st27" d="M516.2,527.9c-0.9,0-1.8,0-2.8,0.2c-0.5,0.1-0.8,0.7-0.7,1.2c0.2,0.6,0.7,0.8,1.2,0.7
			c0.7-0.1,1.5-0.2,2.2-0.1C517.5,530,517.5,528,516.2,527.9z"/>
		<path class="st27" d="M505.9,533.3c-0.2-0.6-0.7-0.8-1.2-0.7c-0.7,0.1-1.4,0.4-2.1,0.8c-1.1,0.6-0.1,2.4,1,1.7
			c0.5-0.3,1-0.5,1.6-0.6C505.7,534.4,506,533.8,505.9,533.3z"/>
		<path class="st27" d="M494,540.5c-0.5-0.3-1.1-0.1-1.4,0.4c-0.3,0.4-0.6,0.8-0.8,1.2c-0.3,0.4-0.1,1.1,0.4,1.4
			c0.5,0.3,1.1,0.1,1.4-0.4c0.3-0.4,0.6-0.8,0.8-1.2C494.6,541.5,494.4,540.8,494,540.5z"/>
		<path class="st27" d="M506.6,540.1c-0.4-1.2-2.3-0.7-1.9,0.5c0.1,0.4,0.1,0.7-0.1,1.1c-0.2,0.5,0.2,1.1,0.7,1.2
			c0.6,0.2,1-0.2,1.2-0.7C506.8,541.6,506.8,540.8,506.6,540.1z"/>
		<path class="st27" d="M496.3,548.3c-0.2,0.7-0.3,1.3-0.5,2c-0.3,1.2,1.6,1.8,1.9,0.5c0.2-0.7,0.3-1.3,0.5-2
			C498.5,547.5,496.6,547,496.3,548.3z"/>
		<path class="st27" d="M510.7,556.2c-0.5-0.8-1-1.6-1.5-2.3c-0.7-1.1-2.4-0.1-1.7,1c0.5,0.8,1,1.6,1.5,2.3
			C509.6,558.3,511.4,557.3,510.7,556.2z"/>
		<path class="st27" d="M518.3,549.8c-0.5-0.1-0.9-0.3-1.2-0.8c-0.7-1.1-2.4-0.1-1.7,1c0.6,0.9,1.4,1.5,2.4,1.7
			c0.5,0.1,1.1-0.1,1.2-0.7C519.1,550.5,518.8,549.9,518.3,549.8z"/>
		<path class="st27" d="M516.1,535.1c-0.6-0.2-1,0.2-1.2,0.7c-0.4,1-0.7,2-1.1,3c-0.2,0.5,0.2,1.1,0.7,1.2c0.6,0.2,1-0.2,1.2-0.7
			c0.4-1,0.7-2,1.1-3C517,535.8,516.6,535.3,516.1,535.1z"/>
		<path class="st27" d="M526.7,545.2c-1.3-0.2-2.5-0.3-3.8-0.2s-1.3,2.1,0,2c1.1-0.1,2.2,0,3.2,0.1c0.5,0.1,1.1-0.1,1.2-0.7
			C527.6,546,527.3,545.3,526.7,545.2z"/>
		<path class="st27" d="M536.3,542.5c-0.5-0.9-1.1-1.7-1.8-2.4c-0.9-0.9-2.3,0.5-1.4,1.4c0.6,0.6,1.1,1.2,1.5,2
			C535.2,544.7,536.9,543.7,536.3,542.5z"/>
		<path class="st27" d="M498.4,556.3c-1.2,0.1-2.4,0-3.6-0.3s-1.8,1.6-0.5,1.9c1.3,0.3,2.7,0.5,4.1,0.3
			C499.7,558.2,499.7,556.2,498.4,556.3z"/>
	</g>
	<path class="st31" d="M430,690c3.2,0,14-2,28-24s29-57,29-59s13-3,16-14s-1-19,0-25s9-17,15-18s9-3,7-6s-5-3-5-3s-1.7-3.9-4.8-3.4
		C512,538,508,538,508,538s0-5-5-5s-6,0-6,0s2-2-3-2s-13,1-17,5s-10,13-11,17s5.2,36.4,4.6,39.2S444,628,441,630c-3-2-6-26-6-26
		l-41,8c0,0,3,32,8,43S424,690,430,690z"/>
	<path class="st12" d="M434.4,593.5c0,0-33.4,2.2-53.8,12c-0.7,6.8,1.2,10.9,1.2,10.9s49.3-12.2,54.2-11.2
		C436.4,601,434.4,593.5,434.4,593.5z"/>
	<path class="st41" d="M383.1,609c42.6-11.6,47.9-8,47.3-9.7c0.3,1.2,1.5,1.7,0.2,1.9c-15.8,2.2-31.4,5.4-46.8,9.6
		C382.7,611.1,382,609.3,383.1,609z"/>
	<path class="st31" d="M532,517c2-4,8-8,11-6s2,2,2,2s6-2,8,0s5,6,5,6s8-1,11,2s3,12,3,12s4,2,4,6s2,31,3,34s14,30,15,36s4,40,2,46
		s-9,25-13,26s-21-7-24-15s-4-19-4-20s5-32.2,5-36.6c0-4.4,1-10.4-1-13.4s9-8,9-8l5-12v-12l-1-15l-11-3c0,0-7,5-9,2s-1-9-1-9
		s-3,0-4-2s-2-3-2-3s-4,2-6,0s-2.6-6.1-2.6-6.1S534,530,531,527S530,521,532,517z"/>
	<g id="sporty_drink">
		<path class="st16" d="M430.4,647.7c0,0,17.3,67.9,19,73.6c1.7,5.7,39.2,12.2,41.6-4.2s5.7-74.8,5.7-74.8L430.4,647.7z"/>
		<path class="st12" d="M440.9,687.8c3.8-1.2,23.5-12.3,34.8-43.9c9.2-0.7,21.3-2.2,21.3-2.2l-2.2,30.9c0,0-9.2,32-45.6,46.1
			L440.9,687.8z"/>
		<path class="st17" d="M463.5,627.8c-9.1,1.5-20.7,4.1-24.2,6.2c-3.5,2.1-9.1,8-9.8,9.2s-0.4,2.2,0.8,6s5.4,10.9,26.9,9.6
			s37-8,39.1-11.8s-0.5-9.2-2.7-12.8C491.6,630.8,471.5,626.4,463.5,627.8z"/>
		<path class="st12" d="M455.3,649c8.2,0.5,35.3-7.5,36.1-11.9s-17.2-8.4-22.2-7.9c-5.1,0.5-23.8,0.9-29.3,6.7
			C434.3,641.8,438.3,647.9,455.3,649z"/>
		<path class="st17" d="M464.6,634.8c0,0-5.1-41.3-3.1-45s28.7-19.1,28.7-19.1s6.9,2.1,2.7,5.5s-20.7,14.6-22.3,16.1
			c-1.6,1.5,2,38,1.7,40.2C471.9,634.7,468.6,637.7,464.6,634.8z"/>
		<g>
			<g>
				<path class="st12" d="M463,596.5c1.5-0.5,3-0.4,4.4,0.3c0.6,0.3,1.1-0.6,0.5-0.9c-1.6-0.8-3.4-0.9-5.1-0.4
					C462.1,595.7,462.4,596.7,463,596.5L463,596.5z"/>
			</g>
		</g>
		<g>
			<g>
				<path class="st12" d="M462.6,594.1c1.8-0.6,3.7-0.4,5.2,0.8c0.5,0.4,1.2-0.3,0.7-0.7c-1.8-1.4-4-1.9-6.2-1.1
					C461.8,593.3,462,594.3,462.6,594.1L462.6,594.1z"/>
			</g>
		</g>
		<g>
			<g>
				<path class="st12" d="M463,590.9c1.6,0.1,4.7,0.4,5.3,2.2c0.2,0.6,1.1,0.4,1-0.3c-0.7-2.4-4.1-2.9-6.2-3
					C462.4,589.9,462.4,590.9,463,590.9L463,590.9z"/>
			</g>
		</g>
		<g>
			<g>
				<path class="st12" d="M465.4,588.7c0.8,0.4,1.5,0.7,2.3,1.1c0.5,0.2,2.1,0.8,1.8,1.6c-0.3,0.6,0.6,1.1,0.9,0.5
					c0.4-0.8,0.1-1.6-0.7-2.2c-1.1-0.8-2.5-1.3-3.7-1.9C465.3,587.6,464.8,588.5,465.4,588.7L465.4,588.7z"/>
			</g>
		</g>
		<g>
			<g>
				<path class="st12" d="M467.6,586.9c1.9,0.1,3.4,1.6,3.7,3.4c0.1,0.6,1.1,0.4,1-0.3c-0.4-2.3-2.4-3.9-4.7-4.1
					C467,585.8,467,586.8,467.6,586.9L467.6,586.9z"/>
			</g>
		</g>
		<g>
			<g>
				<path class="st12" d="M434.5,639c-1.8,5.2,2.1,9.5,6.5,11.8c5.5,2.9,11.9,3.8,18.1,3.5c7.1-0.4,13.9-2.3,20.5-4.7
					c5.3-1.9,11.7-4.2,14.3-9.6c0.3-0.6-0.6-1.1-0.9-0.5c-2.5,5.1-8.7,7.3-13.7,9.1c-5.7,2-11.6,3.8-17.7,4.4
					c-5.4,0.6-10.9,0.3-16.1-1.4s-12.4-5.8-10.1-12.4C435.7,638.7,434.7,638.4,434.5,639L434.5,639z"/>
			</g>
		</g>
		<path class="st17" d="M479.6,633.3c-4.6-0.7-9.3-1.1-13.9-1.2c-9.5-0.2-18.5,2.2-26,8.2c-0.5,0.4,0,1.2,0.5,0.8
			c6.6-5.2,14.4-7.8,22.8-8c3.9-0.1,7.8,0.2,11.6,0.6c3,0.3,12.1,0.5,13,4.2c0.2,0.6,1.1,0.3,1-0.3
			C487.9,634.2,482.5,633.7,479.6,633.3z"/>
		<path class="st43" d="M406.1,543.1"/>
	</g>
	<g>
		<g>
			<path class="st38" d="M476.2,448.9c0.7,4.5,5.9,7.8,10,8.9c4.4,1.2,8.8,0.2,12.1-2.9c1.4-1.3-0.7-3.4-2.1-2.1
				c-2.5,2.4-5.8,3.1-9.2,2.2c-3.1-0.8-7.3-3.3-7.9-6.8C478.8,446.2,475.9,447,476.2,448.9L476.2,448.9z"/>
		</g>
	</g>
	<g>
		<g>
			<path class="st38" d="M494.8,557.4c4.6-9.4,15-12.7,24.4-15.4c0.6-0.2,0.4-1.1-0.3-1c-9.6,2.8-20.3,6.2-25,15.9
				C493.6,557.5,494.5,558,494.8,557.4L494.8,557.4z"/>
		</g>
	</g>
	<g>
		<g>
			<path class="st38" d="M487.9,552.1c4.4-6.7,11.3-11.3,19.1-12.9c0.6-0.1,0.4-1.1-0.3-1c-8.1,1.6-15.2,6.4-19.7,13.4
				C486.6,552.1,487.5,552.6,487.9,552.1L487.9,552.1z"/>
		</g>
	</g>
	<g>
		<g>
			<path class="st38" d="M478.6,549.6c4.5-6.7,10-13,18-15.3c0.6-0.2,0.4-1.1-0.3-1c-8.3,2.3-14,8.8-18.6,15.7
				C477.3,549.6,478.2,550.1,478.6,549.6L478.6,549.6z"/>
		</g>
	</g>
	<g>
		<g>
			<path class="st38" d="M537.5,527.6c1.8-4.9,3.5-10.8,9.1-12.5c0.6-0.2,0.4-1.1-0.3-1c-6.1,1.8-7.9,7.9-9.8,13.2
				C536.3,528,537.3,528.2,537.5,527.6L537.5,527.6z"/>
		</g>
	</g>
	<g>
		<g>
			<path class="st38" d="M545.3,533.9c2.3-5,6.1-12,11.8-13.5c0.6-0.2,0.4-1.1-0.3-1c-6,1.6-10,8.7-12.4,13.9
				C544.1,534,545,534.5,545.3,533.9L545.3,533.9z"/>
		</g>
	</g>
	<g>
		<g>
			<path class="st38" d="M551.6,539.9c0.8-3.2,5.8-6,8.7-7.1c3.4-1.3,7.2-1.3,10.5,0.3c0.6,0.3,1.1-0.6,0.5-0.9
				c-3.9-1.8-8.1-1.7-12-0.1c-3,1.3-7.8,4.1-8.7,7.5C550.5,540.2,551.4,540.5,551.6,539.9L551.6,539.9z"/>
		</g>
	</g>
	<g>
		<g>
			<path class="st38" d="M554.4,548.4c5.7,0.9,8.4-5.8,13.8-5.6c0.6,0,0.6-1,0-1c-5.4-0.2-8.2,6.5-13.6,5.7
				C554,547.4,553.7,548.3,554.4,548.4L554.4,548.4z"/>
		</g>
	</g>
	<g>
		<g>
			<path class="st38" d="M563.2,544.2c0.2,0.5-0.3,1.3-0.4,1.8c-0.1,0.7,0.1,1.3,0.5,1.8c0.9,1.2,2.4,1.5,3.7,1.7
				c0.6,0.1,0.9-0.9,0.3-1c-1.3-0.2-3.6-0.5-3.5-2.2c0-1,0.7-1.6,0.3-2.6C563.8,543.1,563,543.6,563.2,544.2L563.2,544.2z"/>
		</g>
	</g>
	<g>
		<g>
			<path class="st38" d="M555.9,591.8c4.2,3.6,5,9.1,5.2,14.3c0.2,5.7-0.1,11.3-1.2,17c-2,9.7-5.3,19.3-2.9,29.2
				c0.1,0.6,1.1,0.4,1-0.3c-2.7-11.5,2.3-22.5,3.8-33.8c0.7-5.3,0.7-11,0.1-16.3c-0.5-4.2-2-8.1-5.2-10.9
				C556.1,590.7,555.4,591.4,555.9,591.8L555.9,591.8z"/>
		</g>
	</g>
	<g>
		<g>
			<path class="st38" d="M413.7,665.1c1.1-7.8,4.4-15.1,9.5-21c5.1-5.8,12.4-9,17.7-14.6c0.4-0.5-0.3-1.2-0.7-0.7
				c-5.7,6-13.4,9.3-18.7,15.8c-4.7,5.8-7.8,12.8-8.8,20.2C412.6,665.5,413.6,665.7,413.7,665.1L413.7,665.1z"/>
		</g>
	</g>
	<path class="st42" d="M444.5,555.9c0.1-0.6-0.9-0.6-1,0c-0.8,6.9-2.8,17.9-10.5,20.3c0-0.6-0.1-1.1-0.1-1.7
		c3.3-3.2,4.1-7.6,4.4-12.1c0.4-6.2,0.6-12.5,0.9-18.7c0-0.6-1-0.6-1,0c-0.3,5.3-0.5,10.5-0.8,15.8c-0.2,4.8-0.4,9.9-3.6,13.6
		c0-1.7,0-3.5,0-5.2c0.1-8.2,0.1-16.2-2.7-24c-4.7-13-16-23.5-30.3-23.7c-0.6,0-0.6,1,0,1c14.8,0.2,26.1,11.8,30.1,25.4
		c2.2,7.6,1.9,15.4,1.9,23.2c0,1.4,0,2.9,0,4.3c-0.1,0-0.1,0.1-0.2,0.2c-0.3,0.3-0.1,0.7,0.2,0.8c0,0.5,0.1,0.9,0.1,1.4
		c-0.5,0.1-0.4,0.8,0.1,0.9c0.1,1.1,0.2,2.1,0.3,3.2c0.5,3.9,2.4,8,1.8,12c-0.1,0.6,0.9,0.9,1,0.3c0.5-3.8-1-7.3-1.6-11
		c-0.3-1.5-0.4-3-0.5-4.6C441.4,574.9,443.6,563.2,444.5,555.9z"/>
	<path class="st42" d="M427.5,586.7c-11.7,7.1-26.7,7.2-38.4,0.2c-0.6-0.3-1.1,0.5-0.5,0.9c12.1,7.1,27.5,7,39.4-0.2
		C428.5,587.2,428,586.4,427.5,586.7z"/>
	<path class="st42" d="M424.8,581.9c-6.3,5-14.8,6.4-22.4,3.8c-0.6-0.2-0.9,0.8-0.3,1c8,2.8,16.8,1.2,23.3-4
		C426,582.2,425.3,581.5,424.8,581.9z"/>
	<path class="st39" d="M518,368c-11.7,4.7-24.3,7.8-36.9,8.4c-11.6,0.6-23.5-1.2-33.2-8c-0.5-0.4-1,0.5-0.5,0.9
		c9.6,6.7,21.4,8.6,32.9,8.2c13-0.5,26-3.7,38-8.5C518.9,368.8,518.6,367.8,518,368z"/>
	<path class="st39" d="M507.7,359.2c-7.4,6.1-17.1,7.5-26.3,7.6c-10.1,0.1-20.4-0.4-30-3.9c-0.6-0.2-0.9,0.7-0.3,1
		c10,3.7,21.2,4.2,31.8,3.9c9.1-0.3,18.3-2,25.5-7.9C508.9,359.5,508.2,358.8,507.7,359.2z"/>
	<path class="st39" d="M485.3,351.9c-10.5,6-23.1,7.2-34.6,3.4c-0.6-0.2-0.9,0.8-0.3,1c11.7,3.9,24.6,2.6,35.4-3.5
		C486.3,352.5,485.8,351.6,485.3,351.9z"/>
	<path class="st39" d="M443.1,376c-8,4.1-22.1,19.7-11.2,27.9c0.5,0.4,1-0.5,0.5-0.9c-5-3.7-3.6-10.5-0.6-15
		c2.9-4.4,7.1-8.8,11.8-11.2C444.2,376.6,443.7,375.7,443.1,376z"/>
	<path class="st39" d="M435.9,371.9c-9.3,1.7-13.6,10.7-15.6,19.1c-0.1,0.6,0.8,0.9,1,0.3c1.9-8,5.9-16.8,14.9-18.4
		C436.8,372.8,436.6,371.8,435.9,371.9z"/>
	<path class="st39" d="M428.8,368.8c-7.8,0.7-12.9,6.7-17.5,12.4c-0.4,0.5,0.3,1.2,0.7,0.7c4.4-5.5,9.3-11.4,16.8-12.1
		C429.4,369.7,429.4,368.7,428.8,368.8z"/>
</g>
<g id="mum">
	<path class="st31" d="M383.2,569.8"/>
	<path class="st31" d="M490.3,550.3"/>
	<path class="st31" d="M505.3,510.4"/>
	<polygon class="st44" points="289.5,394.1 287.6,500.6 231.1,473.3 231.1,428.4 	"/>
	<path class="st33" d="M142.3,510.4c1-2,21.5-44.9,24.4-88.7c2.9-43.9-2.4-92,17.8-112.3s24.1,11.9,24.1,11.9l-16,45.8l0.3,111.2
		L161.7,529L142.3,510.4z"/>
	<path class="st31" d="M339,590c0,0-16-40-17-50s-31,16-31,16l6.6,39c0,0,31.4,54,45.4,57s27-13,29-16s10-45,11-54s5-51,7-56
		s6-12,6-12l-18-52l-1,37l-4,2c0,0,1,3,0,9s-12,40-16,47S339,587,339,590z"/>
	<path class="st45" d="M182.3,469.4c-26.8,15.6-46.8,35.1-50.7,44.9c-3.9,9.8-12.7,44.9-11.7,48.8c1,3.9,40,133.6,41.9,133.6
		S275.9,686,293.5,686c-5.9-28.3-8.8-46.8-6.8-59.5s17.6-16.6,10.7-70.2c14.6-14.6,26.3-15.6,26.3-15.6s-6.8-34.1-15.6-44.9
		c-8.8-10.7-44.9-34.1-59.5-34.1S194,462.6,182.3,469.4z"/>
	<path class="st31" d="M125.8,689.8c4.1,5.1,70.2,43.9,107.3,50.7c5.9,1,7.4,20.2,48.8,13.7c18.5-2.9,21.5,2,29.3,3.9
		c7.8,2,11.7,5.9,10.7-2c10.7,2.9,12.7-1,10.7-5.9c3.9,1,5.9,0,3.9-5.9c5.9-5.9-4.9-15.6-25.4-22.4c-20.5-6.8-56.6-2.9-65.3-2
		c-8.8,1-80.9-51.7-82.9-56.6s2-80.9,2.9-84.8c1-3.9-38-19.5-45.8-15.6C112.1,566.9,118,680,125.8,689.8z"/>
	<path class="st31" d="M197,409.9l3.9,87.8c0,0,13.7,26.3,49.7,40c22.4-34.1,24.4-66.3,24.4-66.3s-15.2-9.8-20.7-9.8
		c-1.7-16.6,0.3-26.3,0.3-26.3L197,409.9z"/>
	<path class="st32" d="M199.9,419.7c0,2,23.8,43.6,53.9,35.9c0.8-24.2,2.7-32,2.7-32L199.9,419.7z"/>
	<path class="st33" d="M269.1,557.2c-2,2,33.2-32.2,32.2-74.1s-6.8-128.7-7.8-140.4s-7.8-11.7-7.8-11.7l-2.9,21.5l-7.8,82
		C274.9,434.4,278.9,547.4,269.1,557.2z"/>
	<path class="st31" d="M284.7,335.8c-1-2,3.9,22.4,2.9,27.3s1,34.1-1,42.9s-11.7,35.1-21.5,38c-9.8,2.9-31.2,4.9-43.9-6.8
		c-12.7-11.7-21.5-16.6-24.4-35.1s-6.8-61.4-6.8-61.4l20.5-33.2l37.1-6.8l20.5,3.9L284.7,335.8z"/>
	<path class="st31" d="M190.1,392.4c-3.9-9.8-4.9-11.7-8.8-10.7s-15.6,4.9-7.8,16.6s15.6,10.7,16.6,9.8
		C191.1,407,190.1,392.4,190.1,392.4z"/>
	<path class="st33" d="M250.6,286.1c-13.9-1.5-59.5,2-70.2,31.2c-10.7,29.3,0,52.7,0,52.7s1,50.7,0,91.7s2.9,74.1,7.8,80
		c-1-16.6,0-19.5,2-28.3c3.9,17.6,22.4,55.6,42.9,52.7c-12.7-17.6-12.6-10.2-19.9-50c-7.4-39.7-5.9-81.2-5.9-81.2l-2.4-79.5
		c0,0,36.1-10.7,55.6-45.8c12.7,21.5,24.4,31.2,33.2,33.2C293.5,342.6,296.4,291.9,250.6,286.1z"/>
	<path class="st33" d="M224.3,353.3c8.3-2.8,17.6,1,17.6,3.9s-10.7,0-14.6,0c-3.9,0-10.7,5.9-12.7,3.9
		C212.6,359.2,218.4,355.3,224.3,353.3z"/>
	<path class="st33" d="M277.3,354c-6.9-0.8-12.4,2.7-12.2,4.6c0.3,1.9,6.9,0,11.9,0.4c5,0.3,9.5,4.6,9.2,2.7S281.3,354.5,277.3,354z
		"/>
	<path class="st33" d="M221.3,375.8c-2.1-2.1,14-13.3,18.5,0C235,373.8,231.1,373.8,221.3,375.8z"/>
	<path class="st33" d="M282.8,372.8c-2-6.8-13.7-8.3-15.6,1C271.4,373.2,275,370.9,282.8,372.8z"/>
	<path class="st33" d="M230.1,377.7c3.9,2.9,5.9-2.9,4.9-3.9s-2.9-2.9-4.9-2C228.2,372.8,226.2,374.8,230.1,377.7z"/>
	<path class="st33" d="M273,375.8c3.5,1.7,5.4-1.6,4.2-3.7c-1.2-2.1-6-2.8-6.1,0S271.1,374.8,273,375.8z"/>
	<path class="st39" d="M247.9,307.5c-1.3,3.3-3.8,5.9-6.1,8.5c-2,2.3-4.1,4.5-6.3,6.7c-4.5,4.5-9.3,8.6-14.3,12.4
		c-9.9,7.4-20.9,13.4-32.7,17.1c-0.6,0.2-0.3,1.1,0.3,0.9c12.4-4,23.9-10.3,34.2-18.2c5.1-3.9,9.9-8.2,14.4-12.8
		c4.1-4.2,9.3-8.9,11.5-14.4C249,307.2,248.1,306.9,247.9,307.5z"/>
	<path class="st39" d="M239.6,303.3c-4.1,8.9-11.6,15.2-19.6,20.5c-4.4,2.9-8.9,5.7-13.4,8.3c-4.7,2.7-9.7,6.4-15.1,7.6
		c-0.6,0.1-0.4,1.1,0.3,0.9c5.2-1.2,10-4.6,14.5-7.3c5.1-2.9,10.1-5.9,14.9-9.2c7.8-5.3,15.2-11.7,19.3-20.4
		C240.7,303.2,239.9,302.7,239.6,303.3z"/>
	<path class="st39" d="M231.1,302.2c-9.2,9.9-20.7,17.3-33.5,21.5c-0.6,0.2-0.3,1.1,0.3,0.9c13-4.3,24.6-11.8,33.9-21.8
		C232.2,302.4,231.5,301.7,231.1,302.2z"/>
	<path class="st39" d="M283.5,325.8c-9.5-4.8-14.3-14.4-18.6-23.6c-0.3-0.6-1.1-0.1-0.8,0.5c4.4,9.3,9.3,19.1,18.9,23.9
		C283.6,327,284.1,326.1,283.5,325.8z"/>
	<path class="st39" d="M283.1,311.6c-5-2.1-11.3-5.9-13.4-11.2c-0.2-0.6-1.2-0.3-0.9,0.3c2.2,5.6,8.6,9.5,13.9,11.8
		C283.2,312.6,283.7,311.8,283.1,311.6z"/>
	<path class="st39" d="M213.5,538.8c-9.9-19.4-14.1-41.1-16-62.6c-2-22.2-2.2-44.5-2.2-66.8c0-12.6,0.1-25.2,0.3-37.8
		c0-0.6-1-0.6-1,0c-0.3,22.9-0.5,45.8,0.1,68.8c0.6,22,1.5,44.3,6.4,65.9c2.6,11.4,6.3,22.5,11.6,33
		C212.9,539.9,213.8,539.4,213.5,538.8z"/>
	<path class="st39" d="M186.8,436.6c0.3-18.2,1-36.4,1.5-54.6c0-0.6-1-0.6-1,0c-0.5,18.5-1.2,37-1.5,55.5
		c-0.3,17.9,0.2,35.8,3.4,53.4c0.1,0.6,1.1,0.4,0.9-0.3C187,472.8,186.5,454.7,186.8,436.6z"/>
	<path class="st39" d="M286.6,434.1c-0.1-0.6-1-0.6-1,0c2.7,29.4,5.3,59.8-3.8,88.4c-0.2,0.6,0.8,0.9,0.9,0.3
		C291.8,494.1,289.2,463.6,286.6,434.1z"/>
	<path class="st39" d="M291.9,432.7c-0.1-0.6-1-0.4-0.9,0.3c2.5,14.4,3.4,29,2.7,43.5c0,0.6,0.9,0.6,1,0
		C295.3,461.8,294.4,447.2,291.9,432.7z"/>
	<path class="st39" d="M178.1,414.7c0-0.6-1-0.6-1,0c1,17,0,34-3.2,50.7c-0.1,0.6,0.8,0.9,0.9,0.3
		C178.1,448.9,179.2,431.8,178.1,414.7z"/>
	<path class="st46" d="M270.2,518.6c-2.3,5.2-4.6,10.4-7,15.5c-1.2,2.5-2.5,4.9-3.8,7.3c-1.3,2.4-2.6,5.2-4.6,7.1
		c-13-4.8-24.3-13.6-35.7-21.2c-0.5-0.3-1,0.5-0.5,0.8c11.6,7.6,23,16.5,36.1,21.4c0,0,0.1,0,0.1,0.1c0.2,0.1,0.5,0.2,0.7,0.3
		c0.6,0.2,0.8-0.7,0.3-0.9l0,0c1.6-1.7,2.7-3.8,3.8-5.8c1.4-2.5,2.8-5.1,4.1-7.7c2.6-5.4,5-10.8,7.5-16.3
		C271.3,518.6,270.4,518.1,270.2,518.6z"/>
	<path class="st46" d="M320.1,536.2c-9.4,0.2-18,7.7-24.1,14.3c-0.1,0.1-0.1,0.2-0.1,0.4c-0.5-1.4-0.9-2.9-1.2-4.4
		c5.3-5.1,11.6-9,18.5-11.4c0.6-0.2,0.3-1.1-0.3-0.9c-6.9,2.4-13.2,6.2-18.5,11.3c-1.5-6.7-1.9-13.7-1.1-20.6c0.1-0.6-0.9-0.6-1,0
		c-0.8,7.2-0.4,14.4,1.3,21.4l-0.1,0.1c-0.3,0.3,0,0.8,0.3,0.8c0.7,2.8,1.6,5.5,2.7,8.1c0.2,0.6,1.2,0.3,0.9-0.3
		c-0.5-1.3-1-2.6-1.5-3.9c0.1,0.3,0.5,0.4,0.7,0.1c5.9-6.4,14.3-13.7,23.4-14C320.7,537.1,320.7,536.2,320.1,536.2z"/>
	<path class="st46" d="M182.7,542.8c-0.1-0.6-1-0.6-1,0c0.6,5.8-0.1,11.7-2.2,17.2c-2.1,5.5-5.5,10.2-9.1,14.8
		c0.2-2.5,0.4-4.9,0.7-7.4c0.4,0.1,0.9-0.4,0.5-0.8c-0.1-0.1-0.2-0.2-0.4-0.3c0.6-5.4,1.4-10.8,2.4-16.2c1.5-8.1,3.1-16.4,1.9-24.6
		c-1.1-7.8-5.4-14.9-10.3-20.9c-4-5-10.4-8.9-16.8-6c-0.6,0.3-0.1,1.1,0.5,0.8c8-3.7,14.6,4,18.6,9.9c4.6,6.9,7.5,13.9,7.5,22.4
		c0,7.8-1.9,15.4-3.2,23c-0.6,3.6-1.1,7.2-1.5,10.8c-7.2-6-15.6-10.1-24.8-12c-0.6-0.1-0.9,0.8-0.3,0.9c9.3,1.9,17.8,6.1,24.9,12.2
		c-0.1,1-0.2,1.9-0.3,2.9c-13.1-8.5-28.3-13-43.9-13.2c-0.6,0-0.6,1,0,1c15.5,0.2,30.6,4.7,43.6,13.2c0.1,0,0.1,0.1,0.2,0.1
		c-0.2,2.3-0.4,4.7-0.5,7.1c0,0.6,0.9,0.6,1,0c0-0.5,0.1-1.1,0.1-1.6c0.2,0,0.4,0,0.5-0.2c3.7-4.9,7.4-9.8,9.6-15.6
		C182.6,554.8,183.2,548.8,182.7,542.8z"/>
	<path class="st46" d="M188.2,558.5c-4.2,7.9-10.6,14.4-18.5,18.7c-0.6,0.3-0.1,1.1,0.5,0.8c8-4.4,14.6-11,18.9-19
		C189.3,558.5,188.5,558,188.2,558.5z"/>
	<path class="st46" d="M195.6,628.2c-11.1-1.6-20.9-7.1-30.4-12.6c-0.5-0.3-1,0.5-0.5,0.8c9.6,5.6,19.5,11.2,30.6,12.7
		C196,629.3,196.3,628.3,195.6,628.2z"/>
	<path class="st46" d="M183.1,631.7c-6.3-3.1-12.5-6.6-18.4-10.4c-0.5-0.3-1,0.5-0.5,0.8c5.9,3.8,12.1,7.3,18.4,10.4
		C183.2,632.8,183.7,632,183.1,631.7z"/>
	<path class="st46" d="M278.3,623.8c-12.7-1.7-25,0-37.2,3.8c-11.7,3.6-23.5,8.1-35.9,6.6c-0.6-0.1-0.6,0.9,0,1
		c11.9,1.5,23.3-2.6,34.5-6.1c12.7-4,25.3-6,38.6-4.3C278.9,624.8,278.9,623.8,278.3,623.8z"/>
	<path class="st46" d="M274.8,631.5c-19.5-6.3-37,9.4-56,10.2c-0.6,0-0.6,1,0,1c18.9-0.8,36.5-16.5,55.8-10.2
		C275.2,632.7,275.4,631.7,274.8,631.5z"/>
	<path class="st38" d="M265.1,386c-2.3-8.1-3.4-16.5-3.5-24.9c0-1.3-2-1.3-2,0c0.1,8.6,1.2,17.1,3.6,25.4c1,3.7,2.7,7.3,3.4,11
		c0.8,4.7-0.6,7.8-6.3,7.5c-3.9-0.2-6.9-1-8.3-4.3c-0.5-1.1-2.4-0.6-1.9,0.5c1.6,3.7,4,5,8.2,5.8c4.3,0.8,8.6,0.7,10-3.4
		C270.3,397.8,266.6,391.4,265.1,386z"/>
	<path class="st38" d="M218.2,375.4c-2.9-0.1-5.7,0.3-8.4,1.2c-0.6,0.2-0.3,1.1,0.3,0.9c2.6-0.9,5.3-1.2,8.1-1.1
		C218.8,376.4,218.8,375.5,218.2,375.4z"/>
	<path class="st38" d="M217.4,378.2c-2.6,0.6-4.9,1.6-7.1,3.2c-0.5,0.4,0,1.2,0.5,0.8c2.1-1.5,4.3-2.5,6.8-3.1
		C218.3,379,218,378,217.4,378.2z"/>
	<path class="st38" d="M218,371.8h-4.3c-0.6,0-0.6,1,0,1h4.3C218.6,372.8,218.6,371.8,218,371.8z"/>
	<path class="st38" d="M322.2,756.5c-2.4-6.6-8.7-9.5-15-11.6c-8.5-2.8-17.4-3.9-26-0.9c-1.2,0.4-0.7,2.3,0.5,1.9
		c7.1-2.5,14.5-2.1,21.7-0.1c6.4,1.8,14.4,4.4,16.9,11.3C320.8,758.1,322.7,757.6,322.2,756.5z"/>
	<path class="st38" d="M333,749.1c-5.1-6.3-15-9.1-22.4-11.6c-8.1-2.8-17.2-6-25.7-3c-1.2,0.4-0.7,2.3,0.5,1.9
		c8.1-2.8,16.9,0.4,24.6,3c7.1,2.5,16.6,5.1,21.5,11.1C332.4,751.4,333.8,750.1,333,749.1z"/>
	<path class="st38" d="M336.9,742.6C324.7,731.9,309.3,726,293,726c-1.3,0-1.3,1.9,0,2c15.7,0,30.7,5.7,42.5,16.1
		C336.5,744.8,337.8,743.4,336.9,742.6z"/>
	<path class="st31" d="M261.3,660.3"/>
	<path class="st31" d="M276.3,620.4"/>
	<path class="st23" d="M257,691c-2.6,5.2-5,10,0,13s32,9,43,7s34-10,34-19s-3-8-7-9S260,685,257,691z"/>
	<path class="st24" d="M281,679c-7,0-23,1-24,4s-1,9,1,10s25,5,40,3s31-4,32-8s2-11-1-12S281,679,281,679z"/>
	<path class="st25" d="M291,662c10,0,47,2,49,5s2,10,0,12s-4-4-8-3s-2,7-6,8s-2.3-4.8-7.1-3.9C314,681,318,689,314,689s-3-8-8-6
		s-3,9-8,8s-4-8-8-7s-4,9-9,7s-1-7-6-7s-0.8,8.6-5.9,7.3s-2.5-6.5-5.8-6.9C260,684,263,691,260,689s-1-8-4-8s-3,6-5,4s-3-9-1-10
		S268,662,291,662z"/>
	<path class="st26" d="M295,656c0,0-45,13-46,14s36.7,12.1,40.3,17.1C304,683,325,671,333,672C333,665,310,656,295,656z"/>
	<path class="st23" d="M291,633c-17,2-34,13-36,22s-6,19,28,20s41-2,44-6s4-11,1-17S317,630,291,633z"/>
	<path class="st27" d="M297.5,665.6c-0.3-0.5-0.9-0.6-1.4-0.4c-0.9,0.4-1.8,0.8-2.6,1.4c-1.1,0.7-0.1,2.4,1,1.7
		c0.8-0.5,1.7-1,2.6-1.4C297.6,666.8,297.7,666.1,297.5,665.6z"/>
	<path class="st27" d="M308.2,662.2c-1.3-0.2-2.5-0.5-3.8-0.7s-1.8,1.7-0.5,1.9s2.5,0.5,3.8,0.7
		C308.9,664.4,309.4,662.4,308.2,662.2z"/>
	<path class="st27" d="M316.6,660.7c-0.8-0.1-1.5-0.3-2.3-0.4c-0.5-0.1-1.1,0.1-1.2,0.7c-0.1,0.5,0.2,1.1,0.7,1.2
		c0.8,0.1,1.5,0.3,2.3,0.4c0.5,0.1,1.1-0.1,1.2-0.7C317.5,661.5,317.2,660.8,316.6,660.7z"/>
	<path class="st27" d="M316.7,652.4l-2,1.3c-1.1,0.7-0.1,2.4,1,1.7c0.7-0.4,1.3-0.9,2-1.3C318.8,653.4,317.8,651.6,316.7,652.4z"/>
	<path class="st27" d="M314.8,646.4c-0.2-0.6-0.7-0.8-1.2-0.7c-0.7,0.1-1.4,0.3-2.1,0.4c-0.5,0.1-0.8,0.7-0.7,1.2
		c0.2,0.6,0.7,0.8,1.2,0.7c0.7-0.1,1.4-0.3,2.1-0.4C314.7,647.6,315,646.9,314.8,646.4z"/>
	<path class="st27" d="M302.1,637.4c-1.1-0.5-2.2-0.8-3.3-0.9c-0.5-0.1-1,0.5-1,1c0,0.6,0.5,0.9,1,1c0.8,0.1,1.6,0.3,2.3,0.7
		c0.5,0.2,1.1,0.1,1.4-0.4C302.7,638.3,302.6,637.6,302.1,637.4z"/>
	<path class="st27" d="M311.8,640.4c-0.5-0.5-1.1-0.8-1.8-0.9c-0.5-0.1-1.1,0.1-1.2,0.7c-0.1,0.5,0.2,1.2,0.7,1.2
		c0.4,0.1,0.6,0.1,0.9,0.4C311.3,642.7,312.7,641.3,311.8,640.4z"/>
	<path class="st27" d="M297.6,645.1c-1.6-0.2-3.1-0.2-4.7,0.2c-1.3,0.3-0.7,2.2,0.5,1.9s2.4-0.4,3.6-0.2
		C298.3,647.2,298.8,645.3,297.6,645.1z"/>
	<path class="st27" d="M287.2,637.9c-0.9,0-1.8,0-2.8,0.2c-0.5,0.1-0.8,0.7-0.7,1.2c0.2,0.6,0.7,0.8,1.2,0.7
		c0.7-0.1,1.5-0.2,2.2-0.1C288.5,640,288.5,638,287.2,637.9z"/>
	<path class="st27" d="M276.9,643.3c-0.2-0.6-0.7-0.8-1.2-0.7c-0.7,0.1-1.4,0.4-2.1,0.8c-1.1,0.6-0.1,2.4,1,1.7
		c0.5-0.3,1-0.5,1.6-0.6C276.7,644.4,277,643.8,276.9,643.3z"/>
	<path class="st27" d="M265,650.5c-0.5-0.3-1.1-0.1-1.4,0.4c-0.3,0.4-0.6,0.8-0.8,1.2c-0.3,0.4-0.1,1.1,0.4,1.4
		c0.5,0.3,1.1,0.1,1.4-0.4c0.3-0.4,0.6-0.8,0.8-1.2C265.6,651.5,265.4,650.8,265,650.5z"/>
	<path class="st27" d="M277.6,650.1c-0.4-1.2-2.3-0.7-1.9,0.5c0.1,0.4,0.1,0.7-0.1,1.1c-0.2,0.5,0.2,1.1,0.7,1.2
		c0.6,0.2,1-0.2,1.2-0.7C277.8,651.6,277.8,650.8,277.6,650.1z"/>
	<path class="st27" d="M267.3,658.3c-0.2,0.7-0.3,1.3-0.5,2c-0.3,1.2,1.6,1.8,1.9,0.5c0.2-0.7,0.3-1.3,0.5-2
		C269.5,657.5,267.6,657,267.3,658.3z"/>
	<path class="st27" d="M281.7,666.2c-0.5-0.8-1-1.6-1.5-2.3c-0.7-1.1-2.4-0.1-1.7,1c0.5,0.8,1,1.6,1.5,2.3
		C280.6,668.3,282.4,667.3,281.7,666.2z"/>
	<path class="st27" d="M289.3,659.8c-0.5-0.1-0.9-0.3-1.2-0.8c-0.7-1.1-2.4-0.1-1.7,1c0.6,0.9,1.4,1.5,2.4,1.7
		c0.5,0.1,1.1-0.1,1.2-0.7C290.1,660.5,289.8,659.9,289.3,659.8z"/>
	<path class="st27" d="M287.1,645.1c-0.6-0.2-1,0.2-1.2,0.7c-0.4,1-0.7,2-1.1,3c-0.2,0.5,0.2,1.1,0.7,1.2c0.6,0.2,1-0.2,1.2-0.7
		c0.4-1,0.7-2,1.1-3C288,645.8,287.6,645.3,287.1,645.1z"/>
	<path class="st27" d="M297.7,655.2c-1.3-0.2-2.5-0.3-3.8-0.2s-1.3,2.1,0,2c1.1-0.1,2.2,0,3.2,0.1c0.5,0.1,1.1-0.1,1.2-0.7
		C298.6,656,298.3,655.3,297.7,655.2z"/>
	<path class="st27" d="M307.3,652.5c-0.5-0.9-1.1-1.7-1.8-2.4c-0.9-0.9-2.3,0.5-1.4,1.4c0.6,0.6,1.1,1.2,1.5,2
		C306.2,654.7,307.9,653.7,307.3,652.5z"/>
	<path class="st27" d="M269.4,666.3c-1.2,0.1-2.4,0-3.6-0.3s-1.8,1.6-0.5,1.9c1.3,0.3,2.7,0.5,4.1,0.3
		C270.7,668.2,270.7,666.2,269.4,666.3z"/>
	<path class="st16" d="M430.9,441.2c0,0-2,69.2-2.7,74.8s-33.9,14.1-37.7-0.6s-13.3-67.9-13.3-67.9L430.9,441.2z"/>
	<path class="st12" d="M429.7,478.8c-3.2-0.4-22.7-6.1-35.5-33.3c-7.4,0.9-17.3,1.6-17.3,1.6l5.4,28.1c0,0,15.4,28.5,46.3,35.3
		L429.7,478.8z"/>
	<path class="st17" d="M401.2,428.3c7.8-0.1,17.9,0.4,21.1,1.8s8.7,5.8,9.4,6.9s0.6,2,0.1,5.7s-3.1,10.9-21.4,13.3
		s-32.1-1.3-34.4-4.4s-0.7-8.6,0.6-12.2C378,435.8,394.3,428.4,401.2,428.3z"/>
	<path class="st12" d="M411.1,446.7c-6.5,1.9-29.2-0.9-30.3-4.8c-1.1-3.9,12.8-10.7,16.9-11.1s19.1-3.2,24.3,1.2
		C427,436.5,424.6,442.8,411.1,446.7z"/>
	<path class="st17" d="M404.9,441.2c0,0-0.7-38.8-2.8-41.9c-2-3.1-25.2-12.7-25.2-12.7s-5.3,3.1-1.5,5.5s18.3,9.9,19.8,11
		s2.8,35.3,3.4,37.3C399.1,442.3,402.1,444.6,404.9,441.2z"/>
	<g>
		<g>
			<path class="st12" d="M401.9,404.8c-1.6-0.2-3,0.2-4.3,1.2c-0.5,0.4,0.2,1.1,0.7,0.7c0.9-0.7,2.1-1.1,3.3-1
				C402.3,405.8,402.5,404.9,401.9,404.8L401.9,404.8z"/>
		</g>
	</g>
	<g>
		<g>
			<path class="st12" d="M401.9,402.5c-2-0.4-3.8,0.5-5,2.1c-0.4,0.5,0.5,1,0.9,0.5c0.9-1.2,2.4-1.9,3.9-1.6
				C402.3,403.6,402.6,402.6,401.9,402.5L401.9,402.5z"/>
		</g>
	</g>
	<g>
		<g>
			<path class="st12" d="M400.9,399.6c-1.9,0.5-4.4,1.6-4.7,3.8c-0.1,0.6,0.9,0.6,1,0c0.2-1.7,2.6-2.5,3.9-2.9
				C401.8,400.4,401.5,399.5,400.9,399.6L400.9,399.6z"/>
		</g>
	</g>
	<g>
		<g>
			<path class="st12" d="M398.3,398.3c-0.9,0.7-2,1.4-2.7,2.3c-0.5,0.6-0.7,1.4-0.3,2.1c0.3,0.6,1.2,0.1,0.9-0.5
				c-0.4-0.7,0.7-1.3,1.1-1.7c0.6-0.5,1.2-1,1.8-1.5C399.5,398.6,398.8,397.9,398.3,398.3L398.3,398.3z"/>
		</g>
	</g>
	<g>
		<g>
			<path class="st12" d="M396.7,396.7c-2,0.6-3.2,2.6-3.3,4.7c0,0.6,1,0.6,1,0c0.1-1.6,1-3.2,2.6-3.7
				C397.6,397.5,397.3,396.5,396.7,396.7L396.7,396.7z"/>
		</g>
	</g>
	<g>
		<g>
			<path class="st12" d="M425.7,434.4c2.4,5.2-2,10-6.1,12.6c-3.6,2.4-7.8,3.8-12.1,4.3c-4.9,0.6-9.8,0.1-14.7-0.7
				c-4.7-0.8-10.4-1.8-13.1-6.2c-0.3-0.5-1.2,0-0.9,0.5c2.9,4.7,8.7,5.8,13.7,6.6c5.6,1,11.4,1.5,17.1,0.4
				c7.5-1.4,21.3-8.3,16.8-18.1C426.3,433.3,425.5,433.8,425.7,434.4L425.7,434.4z"/>
		</g>
	</g>
	<path class="st17" d="M389.7,436.4c3.6-1.4,7.3-2.6,11-3.5c7.6-1.8,15.1-1.1,21.8,3.1c0.4,0.3,0.1,1.2-0.3,0.9
		c-5.9-3.7-12.5-4.7-19.2-3.5c-3.1,0.6-6.2,1.5-9.3,2.6c-2.3,0.8-9.6,2.5-10,6.1c-0.1,0.6-0.9,0.5-0.8-0.1
		C383.2,438.6,387.5,437.3,389.7,436.4z"/>
	<path class="st38" d="M264.2,418.6c-1.2,3.1-8.1,4.6-11.1,4.5c-4.6-0.1-7.7-3.5-10.1-7c-1.1-1.6-3.7-0.1-2.6,1.5
		c3.3,4.7,7.3,8.6,13.4,8.4c4.3-0.2,11.5-2.3,13.2-6.7C267.8,417.6,264.9,416.8,264.2,418.6z"/>
	<path class="st31" d="M373.1,463.9C371,468,368,475,369,482s3,16,4,19s10.2,3.3,10.2,3.3L387,494c0,0,10-14,7-22s4-6,6-4s4,9,7,12
		s5-7,5-10s-3.3-11.5-10.2-13.8C395,454,391,453,386,455S373.1,463.9,373.1,463.9z"/>
	<path class="st31" d="M429,458c3,0-9,9-8,14s4,5,4,5s-9,2-8,5s3,5,3,5s-4,3-3,5s3,4,3,4s-4,3-3,5s0,2,5,3s16-2,15-5s-2-7-2-7
		s3-5,2-8s-2-3-2-3s4-1,4-7s-2-8-2-8s3-5,1-8S429,458,429,458z"/>
	<path class="st38" d="M337.8,589.8c-4,12.9-6.9,25.3-2.2,38.4c0.4,1.2,2.4,0.7,1.9-0.5c-4.6-12.8-1.8-24.9,2.2-37.3
		C340.2,589.1,338.2,588.5,337.8,589.8z"/>
	<path class="st38" d="M436.8,464.9c-1.1,2.7-2,5.5-4.2,7.6c-2,2-4.6,3.2-7.2,4.2c-0.6,0.2-0.3,1.2,0.3,1c2.8-1.1,5.5-2.3,7.6-4.4
		c2.3-2.2,3.2-5.2,4.4-8C438.1,464.5,437.1,464.3,436.8,464.9z"/>
	<path class="st38" d="M435.6,479c-3.3,5.5-9.6,8.5-15.9,7.6c-0.6-0.1-0.9,0.9-0.3,1c6.8,1,13.5-2.1,17.1-8
		C436.8,479,436,478.5,435.6,479z"/>
	<path class="st38" d="M434.9,490.6c-1.7,2.3-4,3.6-6.7,4.2c-2.2,0.6-5.8,1.3-7.9,0c-0.5-0.3-1,0.5-0.5,0.9c2.4,1.5,6.1,0.7,8.7,0.1
		c3-0.7,5.5-2.2,7.3-4.7C436.2,490.6,435.3,490.1,434.9,490.6z"/>
</g>
<g id="girl">
	<path class="st47" d="M1145,352c0,0-31-5-37,16s-4,34-6,38s-12,10-13,20s10,35,10,35s-19,15-18,29s8,18,8,18s-9,7-6,16s5,17,17,22
		s90,17,99,14s48-12,48-12s15,5,21-9s-2-43-7-47s5-30-4-41s-22-20-22-20s3-45-14-60s-34-32-49-31S1145,352,1145,352z"/>
	<path class="st48" d="M1096,537c8-9,29-33,57-33s27-10,51,1s44,31,47,36s10,27,10,32s1,23,4,29s10,40,10,40s17,12,12,20
		c2,5,23,25-15,27s-50,12-50,12l-8-6c0,0-76.8-13.8-96.9-13.9c-20.1-0.1-72.6,3.5-72.6,3.5S1021,685,1026,655c3-12,10.5-11,10.5-11
		s-0.5-9,8.5-15s17-4,17-4s22-47,22.5-56.5S1096,537,1096,537z"/>
	<g id="girlburger">
		<path class="st23" d="M1120,673c-2.6,5.2-5,10,0,13s32,9,43,7s34-10,34-19s-3-8-7-9S1123,667,1120,673z"/>
		<path class="st24" d="M1144,661c-7,0-23,1-24,4s-1,9,1,10s25,5,40,3s31-4,32-8s2-11-1-12S1144,661,1144,661z"/>
		<path class="st25" d="M1154,644c10,0,47,2,49,5s2,10,0,12s-4-4-8-3s-2,7-6,8s-2.3-4.8-7.1-3.9c-4.9,0.9-0.9,8.9-4.9,8.9s-3-8-8-6
			s-3,9-8,8s-4-8-8-7s-4,9-9,7s-1-7-6-7s-0.8,8.6-5.9,7.3s-2.5-6.5-5.8-6.9s-0.3,6.6-3.3,4.6s-1-8-4-8s-3,6-5,4s-3-9-1-10
			S1131,644,1154,644z"/>
		<path class="st26" d="M1158,638c0,0-45,13-46,14s36.7,12.1,40.3,17.1C1167,665,1188,653,1196,654C1196,647,1173,638,1158,638z"/>
		<path class="st23" d="M1154,615c-17,2-34,13-36,22s-6,19,28,20s41-2,44-6s4-11,1-17S1180,612,1154,615z"/>
		<path class="st27" d="M1160.5,647.6c-0.3-0.5-0.9-0.6-1.4-0.4c-0.9,0.4-1.8,0.8-2.6,1.4c-1.1,0.7-0.1,2.4,1,1.7
			c0.8-0.5,1.7-1,2.6-1.4C1160.6,648.8,1160.7,648.1,1160.5,647.6z"/>
		<path class="st27" d="M1171.2,644.2c-1.3-0.2-2.5-0.5-3.8-0.7s-1.8,1.7-0.5,1.9s2.5,0.5,3.8,0.7
			C1171.9,646.4,1172.4,644.4,1171.2,644.2z"/>
		<path class="st27" d="M1179.6,642.7c-0.8-0.1-1.5-0.3-2.3-0.4c-0.5-0.1-1.1,0.1-1.2,0.7c-0.1,0.5,0.2,1.1,0.7,1.2
			c0.8,0.1,1.5,0.3,2.3,0.4c0.5,0.1,1.1-0.1,1.2-0.7C1180.5,643.5,1180.2,642.8,1179.6,642.7z"/>
		<path class="st27" d="M1179.7,634.4l-2,1.3c-1.1,0.7-0.1,2.4,1,1.7c0.7-0.4,1.3-0.9,2-1.3C1181.8,635.4,1180.8,633.6,1179.7,634.4
			z"/>
		<path class="st27" d="M1177.8,628.4c-0.2-0.6-0.7-0.8-1.2-0.7c-0.7,0.1-1.4,0.3-2.1,0.4c-0.5,0.1-0.8,0.7-0.7,1.2
			c0.2,0.6,0.7,0.8,1.2,0.7c0.7-0.1,1.4-0.3,2.1-0.4C1177.7,629.6,1178,628.9,1177.8,628.4z"/>
		<path class="st27" d="M1165.1,619.4c-1.1-0.5-2.2-0.8-3.3-0.9c-0.5-0.1-1,0.5-1,1c0,0.6,0.5,0.9,1,1c0.8,0.1,1.6,0.3,2.3,0.7
			c0.5,0.2,1.1,0.1,1.4-0.4C1165.7,620.3,1165.6,619.6,1165.1,619.4z"/>
		<path class="st27" d="M1174.8,622.4c-0.5-0.5-1.1-0.8-1.8-0.9c-0.5-0.1-1.1,0.1-1.2,0.7c-0.1,0.5,0.2,1.2,0.7,1.2
			c0.4,0.1,0.6,0.1,0.9,0.4C1174.3,624.7,1175.7,623.3,1174.8,622.4z"/>
		<path class="st27" d="M1160.6,627.1c-1.6-0.2-3.1-0.2-4.7,0.2c-1.3,0.3-0.7,2.2,0.5,1.9s2.4-0.4,3.6-0.2
			C1161.3,629.2,1161.8,627.3,1160.6,627.1z"/>
		<path class="st27" d="M1150.2,619.9c-0.9,0-1.8,0-2.8,0.2c-0.5,0.1-0.8,0.7-0.7,1.2c0.2,0.6,0.7,0.8,1.2,0.7
			c0.7-0.1,1.5-0.2,2.2-0.1C1151.5,622,1151.5,620,1150.2,619.9z"/>
		<path class="st27" d="M1139.9,625.3c-0.2-0.6-0.7-0.8-1.2-0.7c-0.7,0.1-1.4,0.4-2.1,0.8c-1.1,0.6-0.1,2.4,1,1.7
			c0.5-0.3,1-0.5,1.6-0.6C1139.7,626.4,1140,625.8,1139.9,625.3z"/>
		<path class="st27" d="M1128,632.5c-0.5-0.3-1.1-0.1-1.4,0.4c-0.3,0.4-0.6,0.8-0.8,1.2c-0.3,0.4-0.1,1.1,0.4,1.4
			c0.5,0.3,1.1,0.1,1.4-0.4c0.3-0.4,0.6-0.8,0.8-1.2C1128.6,633.5,1128.4,632.8,1128,632.5z"/>
		<path class="st27" d="M1140.6,632.1c-0.4-1.2-2.3-0.7-1.9,0.5c0.1,0.4,0.1,0.7-0.1,1.1c-0.2,0.5,0.2,1.1,0.7,1.2
			c0.6,0.2,1-0.2,1.2-0.7C1140.8,633.6,1140.8,632.8,1140.6,632.1z"/>
		<path class="st27" d="M1130.3,640.3c-0.2,0.7-0.3,1.3-0.5,2c-0.3,1.2,1.6,1.8,1.9,0.5c0.2-0.7,0.3-1.3,0.5-2
			C1132.5,639.5,1130.6,639,1130.3,640.3z"/>
		<path class="st27" d="M1144.7,648.2c-0.5-0.8-1-1.6-1.5-2.3c-0.7-1.1-2.4-0.1-1.7,1c0.5,0.8,1,1.6,1.5,2.3
			C1143.6,650.3,1145.4,649.3,1144.7,648.2z"/>
		<path class="st27" d="M1152.3,641.8c-0.5-0.1-0.9-0.3-1.2-0.8c-0.7-1.1-2.4-0.1-1.7,1c0.6,0.9,1.4,1.5,2.4,1.7
			c0.5,0.1,1.1-0.1,1.2-0.7C1153.1,642.5,1152.8,641.9,1152.3,641.8z"/>
		<path class="st27" d="M1150.1,627.1c-0.6-0.2-1,0.2-1.2,0.7c-0.4,1-0.7,2-1.1,3c-0.2,0.5,0.2,1.1,0.7,1.2c0.6,0.2,1-0.2,1.2-0.7
			c0.4-1,0.7-2,1.1-3C1151,627.8,1150.6,627.3,1150.1,627.1z"/>
		<path class="st27" d="M1160.7,637.2c-1.3-0.2-2.5-0.3-3.8-0.2s-1.3,2.1,0,2c1.1-0.1,2.2,0,3.2,0.1c0.5,0.1,1.1-0.1,1.2-0.7
			C1161.6,638,1161.3,637.3,1160.7,637.2z"/>
		<path class="st27" d="M1170.3,634.5c-0.5-0.9-1.1-1.7-1.8-2.4c-0.9-0.9-2.3,0.5-1.4,1.4c0.6,0.6,1.1,1.2,1.5,2
			C1169.2,636.7,1170.9,635.7,1170.3,634.5z"/>
		<path class="st27" d="M1132.4,648.3c-1.2,0.1-2.4,0-3.6-0.3s-1.8,1.6-0.5,1.9c1.3,0.3,2.7,0.5,4.1,0.3
			C1133.7,650.2,1133.7,648.2,1132.4,648.3z"/>
	</g>
	<path class="st49" d="M1163.5,489.5c7,0,24,0,30,8s7,23,2,30s-15,15-20,16s-11-4-11-4l-3,49h-17l4-51c0,0-10,6-15,1s-5-15-2-23
		s11-16,12-17S1163.5,489.5,1163.5,489.5z"/>
	<path class="st50" d="M1188,454c0,0-4,40,0,44s-17,31-32,35c-11-4-17-23-15-25s6-9,0-27S1188,454,1188,454z"/>
	<path class="st51" d="M1188,467c0,0-20,58-43,21S1188,467,1188,467z"/>
	<path class="st50" d="M1111,450c1,14.1,17,33,30,35s41-6,48-17s12-22,11-31s0-23,0-23s-51-20-57-43c-4,9-23,27-31,27c2,8,5,7,5,16
		S1110,436,1111,450z"/>
	<path class="st50" d="M1175,706c6,0,33-12,40-18s20-21,25-23s16-9,28,0s16,11,12,16s-74,45-86,45s-25-5-28-8s-12,2-13,4
		s-7,11-12,11s-14,3-17,0s-7,2-10-2s-4-10-2-16s17.2-18.2,26-20c5-1,4,1,4,1c0-2,2.7-4.4,7.3-4.2C1154,692,1175,706,1175,706z"/>
	<path class="st50" d="M1038,657c-5,6-11,29,15,31s26-5,36-5s16-6,23-4s26.9,4.9,37-1c9.2-5.3,4-9,4-9s6,0,7.8-2.1
		c3-3.4,0.2-4.9,0.2-4.9s4.4-1,2.2-5s-35-3.3-38.1-6.6S1125,638,1136,638s13,7,17,4s-8-13-17-13s-17,1-21,3s-9,19-14,21s-16-4-26-4
		s-25-1.9-29,0.6C1042,652,1038,657,1038,657z"/>
	<g id="girldrink">
		<path class="st16" d="M1044.4,643c0,0,16.2,68.2,17.9,73.9c1.6,5.8,39,12.8,41.6-3.5s6.9-74.7,6.9-74.7L1044.4,643z"/>
		<path class="st12" d="M1054.3,683.3c3.8-1.1,23.6-11.9,35.5-43.3c9.2-0.5,21.3-1.9,21.3-1.9l-2.7,30.9c0,0-9.7,31.8-46.4,45.4
			L1054.3,683.3z"/>
		<path class="st17" d="M1077.9,623.6c-9.1,1.4-20.7,3.8-24.3,5.9s-9.2,7.8-9.9,9s-0.4,2.2,0.7,6s5.2,11,26.8,10.1
			s37.1-7.4,39.3-11.2s-0.4-9.2-2.5-12.8C1105.9,627.1,1085.9,622.4,1077.9,623.6z"/>
		<path class="st12" d="M1069.4,644.7c8.2,0.7,35.5-6.9,36.3-11.3c0.8-4.4-17-8.7-22.1-8.3s-23.8,0.5-29.4,6.3
			C1048.5,637.2,1052.3,643.3,1069.4,644.7z"/>
		<path class="st17" d="M1078.9,630.6c0,0-4.5-41.4-2.4-45.1c2.1-3.7,29-18.6,29-18.6s6.9,2.2,2.6,5.5s-20.9,14.2-22.6,15.8
			c-1.7,1.5,1.4,38.1,1,40.2S1082.8,633.6,1078.9,630.6z"/>
		<g>
			<g>
				<path class="st12" d="M1077.9,592.3c1.5-0.4,3-0.3,4.4,0.3c0.6,0.3,1.1-0.6,0.5-0.9c-1.6-0.8-3.4-1-5.1-0.4
					C1077,591.6,1077.3,592.5,1077.9,592.3L1077.9,592.3z"/>
			</g>
		</g>
		<g>
			<g>
				<path class="st12" d="M1077.6,589.9c1.8-0.6,3.7-0.3,5.2,0.9c0.5,0.4,1.2-0.3,0.7-0.7c-1.7-1.5-4-1.9-6.2-1.2
					C1076.7,589.2,1077,590.1,1077.6,589.9L1077.6,589.9z"/>
			</g>
		</g>
		<g>
			<g>
				<path class="st12" d="M1078,586.8c1.6,0.1,4.7,0.4,5.2,2.3c0.2,0.6,1.1,0.4,1-0.3c-0.6-2.4-4.1-2.9-6.2-3.1
					C1077.4,585.7,1077.4,586.7,1078,586.8L1078,586.8z"/>
			</g>
		</g>
		<g>
			<g>
				<path class="st12" d="M1080.4,584.6c0.7,0.4,1.5,0.7,2.2,1.1c0.5,0.2,2.2,0.8,1.8,1.6c-0.3,0.6,0.6,1.1,0.9,0.5
					c0.4-0.8,0.1-1.7-0.7-2.2c-1.1-0.8-2.5-1.3-3.7-1.9C1080.4,583.5,1079.8,584.3,1080.4,584.6L1080.4,584.6z"/>
			</g>
		</g>
		<g>
			<g>
				<path class="st12" d="M1082.7,582.8c1.9,0.2,3.3,1.6,3.7,3.5c0.1,0.6,1.1,0.4,1-0.3c-0.4-2.3-2.3-4-4.6-4.2
					C1082,581.7,1082,582.7,1082.7,582.8L1082.7,582.8z"/>
			</g>
		</g>
		<g>
			<g>
				<path class="st12" d="M1048.7,634.4c-1.9,5.2,2,9.6,6.3,11.9c5.5,2.9,11.9,4,18.1,3.8c7.1-0.2,14-2.1,20.6-4.3
					c5.3-1.8,11.7-4,14.5-9.3c0.3-0.6-0.6-1.1-0.9-0.5c-2.6,5.1-8.8,7.2-13.9,8.9c-5.8,1.9-11.7,3.6-17.7,4.1
					c-5.4,0.5-10.9,0.1-16.1-1.7s-12.3-6-9.9-12.5C1049.9,634,1049,633.8,1048.7,634.4L1048.7,634.4z"/>
			</g>
		</g>
		<path class="st17" d="M1093.9,629.4c-4.6-0.8-9.2-1.3-13.9-1.4c-9.5-0.4-18.5,1.9-26.1,7.7c-0.5,0.4,0,1.2,0.5,0.9
			c6.7-5.1,14.6-7.6,22.9-7.6c3.9,0,7.8,0.4,11.6,0.8c3,0.4,12.1,0.7,13,4.4c0.2,0.6,1.1,0.4,1-0.3
			C1102.1,630.4,1096.8,629.9,1093.9,629.4z"/>
	</g>
	<path class="st50" d="M1206,408c9.3-3.7,17,9,17,13s-2,18-9,20s-15,4-16,0S1196,412,1206,408z"/>
	<ellipse class="st2" cx="1162" cy="420" rx="4" ry="6"/>
	<ellipse class="st2" cx="1123" cy="420" rx="4" ry="6"/>
	<path class="st47" d="M1155,401c0.8,4,8,2,11,2s9,8,11,7s0-11-5-12S1154,396,1155,401z"/>
	<path class="st47" d="M1122,399c4.1,0,11,1,10,5s-6-1-9,0s-5.4,6.4-6.7,4.2C1115,406,1119,399,1122,399z"/>
	<path class="st51" d="M1156.2,455.7c-0.2-1.9-3.2-1.9-3,0c0.4,3.1-7.7,5.6-9.6,5.5c-4.2,0-7.4-2.9-9.5-6.3c-1-1.6-3.6-0.1-2.6,1.5
		c3,4.8,7.9,8.5,13.8,7.6C1149,463.6,1156.7,460.3,1156.2,455.7z"/>
	<path class="st51" d="M1145.2,440.9c-0.2,6.6-8.3,8.5-10.6,2.2c-1.1-3.1-0.5-5,0.7-7.9c1-2.4,2.3-4.7,2.6-7.4
		c0.7-5.1-1.4-9.9-5.1-13.3c-0.7-0.7-1.8,0.4-1.1,1.1c6.2,5.7,5,12.1,2.2,19.1c-1.4,3.4-2.6,7.5-0.3,10.8c4.4,6.3,13,2.3,13.2-4.6
		C1146.8,439.9,1145.3,439.9,1145.2,440.9z"/>
	<g>
		<g>
			<path class="st51" d="M1157.8,707.8c-7,2.2-12.8,7.3-17.3,12.9c-1.8,2.3-3.9,5.2-4,8.2c-0.1,2.3,1.7,4.3,4.1,3.7
				c0.6-0.2,0.4-1.1-0.3-1c-1-0.9-1.9-1.8-2.9-2.7c0.1-0.5,0.2-1,0.3-1.5c0.2-0.7,0.5-1.4,0.9-2.1c0.6-1.2,1.3-2.3,2.1-3.3
				c1.4-1.9,3.1-3.7,4.8-5.3c3.6-3.5,7.7-6.4,12.5-7.9C1158.7,708.5,1158.4,707.6,1157.8,707.8L1157.8,707.8z"/>
		</g>
	</g>
	<g>
		<g>
			<path class="st51" d="M1150.7,701.9c-7.9,4.4-15.6,10.1-21.4,17.1c-2.9,3.5-8.5,13.1-1.9,16.1c0.6,0.3,1.1-0.6,0.5-0.9
				c-3.7-1.7-2.5-6.6-1.2-9.5c1.6-3.3,4.1-6.1,6.7-8.7c5.3-5.3,11.3-9.7,17.8-13.3C1151.8,702.4,1151.3,701.6,1150.7,701.9
				L1150.7,701.9z"/>
		</g>
	</g>
	<g>
		<g>
			<path class="st51" d="M1138.6,699.1c-7.6,3.1-14,8.6-18.2,15.6c-2.4,4-8.8,17.5,0,18.4c0.6,0.1,0.6-0.9,0-1
				c-5.6-0.5-3-8.2-1.8-11.4c1.2-3.1,2.8-6,4.8-8.6c4-5.4,9.4-9.6,15.5-12.1C1139.4,699.8,1139.2,698.8,1138.6,699.1L1138.6,699.1z"
				/>
		</g>
	</g>
	<g>
		<g>
			<path class="st51" d="M1120.6,662.9c13.4,2.5,27.2,2.4,40.6-0.3c0.6-0.1,0.4-1.1-0.3-1c-13.2,2.7-26.8,2.8-40.1,0.3
				C1120.3,661.8,1120,662.7,1120.6,662.9L1120.6,662.9z"/>
		</g>
	</g>
	<g>
		<g>
			<path class="st51" d="M1120.2,672.2c6.1,1.3,12.3,1.9,18.5,1.6c2.9-0.1,5.8-0.4,8.6-0.9c2.2-0.4,4.8-0.5,6.5-2.1
				c0.5-0.5-0.2-1.2-0.7-0.7c-1.9,1.8-5.8,1.9-8.2,2.2c-2.7,0.3-5.3,0.5-8,0.6c-5.5,0.1-11-0.5-16.3-1.6
				C1119.8,671.1,1119.5,672.1,1120.2,672.2L1120.2,672.2z"/>
		</g>
	</g>
	<path class="st52" d="M1286.9,661c-10.2-13.8-33.3-16.4-45.9-5.7c2-4.8,6.6-9.5,10.8-12c5.4-3.3,15.7-5,21-0.9
		c1,0.8,2.4-0.6,1.4-1.4c-5.9-4.6-15.3-3.2-21.7-0.3c-5.1,2.3-10.3,7.4-12.9,12.8c0-1.2-0.1-2.4-0.2-3.6c0-0.1,0.1-0.1,0.1-0.2
		c1.1-3,1.9-6.6,4.3-8.8c2.5-2.2,5.8-3.8,8.8-5.2c1.2-0.6,0.1-2.3-1-1.7c-3.4,1.7-7.2,3.4-9.8,6.2c-1.4,1.5-2.2,3.3-2.9,5.2
		c-0.6-4.9-1.4-9.7-2.5-14.6c-2.5-11.3-6.2-22.1-9.9-33.1c-3.6-10.8-3.1-22.6-1.2-33.7c2-11.7,8.9-20.4,17.5-28.1
		c1-0.9-0.5-2.3-1.4-1.4c-7.1,6.5-13.8,13.8-16.7,23.1c-2.9,9.4-3.8,21.4-2.6,31.1c0.3,2.4,0.8,4.8,1.4,7.2
		c-2.9-2.8-4.5-7.8-5.6-11.3c-1.5-4.7-2.1-9.4-1-14.3c0.3-1.3-1.7-1.8-1.9-0.5c-1.3,5.9-0.4,11.4,1.6,17.1c1.6,4.3,3.2,9.3,7.2,11.8
		c0.2,0.1,0.3,0.1,0.5,0.1c2.2,7.6,5.4,15,7.5,22.5c1.6,5.8,3,11.6,4,17.5c-5.8,5-12.8,7.6-20.5,7.6c-1.3,0-1.3,2,0,2
		c7.8,0.1,14.9-2.5,20.9-7.3c0.2,1.1,0.4,2.3,0.6,3.5c-0.1,0-0.2,0.1-0.3,0.2c-3.8,3.8-8.3,6.3-13.5,7.6c-1.3,0.3-0.7,2.2,0.5,1.9
		c5.2-1.2,9.8-3.7,13.6-7.4c0.1,0.8,0.2,1.6,0.3,2.4c-0.1,0.2,0,0.4,0.1,0.6c0.3,3.4,0.2,6.7-0.7,9.6c0,0.1,0,0.2,0,0.3
		c-1.7,2.4-2.9,5.1-3.7,8.3c-0.3,1.3,1.6,1.8,1.9,0.5c5.4-22.2,37.8-23.1,50-6.6C1285.9,663,1287.6,662,1286.9,661z"/>
	<path class="st52" d="M1281.3,665.4c-5.2-3.7-10.9-8.2-17.4-9.3c-6.2-1.1-12.6,0.4-18.5,2.3c-1.2,0.4-0.7,2.3,0.5,1.9
		c7.9-2.5,16.4-4.2,24.1,0c3.1,1.7,6,3.8,8.9,5.8c2,1.4,4,2.7,5.5,4.7c2.5,3.1,4.9,11.3-3.1,11.1c-1.3,0-1.3,2,0,2
		c4.1,0.1,7.3-2.8,7.5-7C1289,671.9,1285,668.1,1281.3,665.4z"/>
	<path class="st52" d="M1211.3,606.8c-13-3.3-27.9-1.6-41-0.4c-14.2,1.3-28.2,3.7-42.1,7.2c-1.2,0.3-0.7,2.2,0.5,1.9
		c13.6-3.4,27.5-5.9,41.5-7.2c12.9-1.2,27.8-2.9,40.5,0.4C1212,609.1,1212.6,607.1,1211.3,606.8z"/>
	<path class="st52" d="M1202.4,614c-10.4-2.1-20.9-2.8-31.5-2c-1.3,0.1-1.3,2.1,0,2c10.4-0.8,20.7-0.2,30.9,1.9
		C1203.2,616.1,1203.7,614.2,1202.4,614z"/>
	<path class="st52" d="M1111.6,600.4c-0.1-12.2,2-24.3-0.1-36.5c0-0.3-0.2-0.4-0.3-0.5c-0.9-3.2-3.1-6.3-4.5-9.2
		c-2.9-5.7-5.4-11.3-6.1-17.7c-0.1-1.3-2.1-1.3-2,0c0.4,4.4,1.6,8.5,3.4,12.6c1,2.3,2.2,4.6,3.3,6.9c1.4,2.7,3.9,6.1,4.2,9.1
		c0,0.2,0.1,0.4,0.2,0.5c0,0.2,0.1,0.5,0.1,0.7c-6-4-10.5-9.6-13-16.4c-0.4-1.2-2.4-0.7-1.9,0.5c2.7,7.4,7.6,13.4,14.1,17.7
		c0.4,0.2,0.8,0.2,1,0c1,10.1-0.4,20.2-0.5,30.4c0,3.6,0.2,7.2,0.6,10.7c-6.2-0.7-12.1-2.6-17.5-5.7c-1.1-0.6-2.1,1.1-1,1.7
		c5.9,3.3,12.2,5.3,18.9,6c0.1,0.5,0.1,0.9,0.2,1.4c1.2,6.4,3.2,12.8,0.5,19.2c-0.5,1.2,1.2,2.2,1.7,1
		C1117.4,622.6,1111.7,611,1111.6,600.4z"/>
	<path class="st52" d="M1042.9,642.9c-6.6,0.2-12.5,3.6-16,9.2c-0.7,1.1,1,2.1,1.7,1c3.1-5,8.4-8.1,14.3-8.2
		C1044.2,644.8,1044.2,642.8,1042.9,642.9z"/>
	<path class="st52" d="M1039.8,648.6c-8.4,3.6-10.3,10.9-10.9,19.4c-0.1,1.3,1.9,1.3,2,0c0.6-7.8,2.1-14.3,9.9-17.7
		C1042,649.8,1040.9,648.1,1039.8,648.6z"/>
	<path class="st52" d="M1104.6,598.6c-5.2-0.5-9.8-2.8-13.5-6.5c-0.9-0.9-2.3,0.5-1.4,1.4c4,4.1,9.2,6.5,14.9,7.1
		C1105.9,600.7,1105.9,598.7,1104.6,598.6z"/>
	<path class="st53" d="M1153.4,533c-2.9,2.6-6.3,4.4-10.1,5.1c-5.1,1-8.1-0.6-11.2-4.5c-0.8-1-2.2,0.4-1.4,1.4
		c3,3.8,5.9,5.9,10.9,5.3c5-0.5,9.4-2.7,13.2-6C1155.8,533.6,1154.4,532.2,1153.4,533z"/>
	<path class="st53" d="M1186.8,534.3c-3.7,4.1-8.7,7.4-14.5,6.7c-5.6-0.7-10.7-5-14.9-8.5c-1-0.8-2.4,0.6-1.4,1.4
		c4.7,3.9,10.5,8.8,16.9,9.1c6.1,0.3,11.4-3.1,15.3-7.4C1189,534.7,1187.6,533.3,1186.8,534.3z"/>
	<path class="st53" d="M1158.7,544.9c-1.8-2.6-5.4-1.5-7.3,0.4c-1.8,1.9-1.6,4.8,0.9,6c2.4,1.2,5-0.4,6-2.7c0.3-0.8,0.5-1.7,0.4-2.6
		C1158.8,545.8,1159,545.4,1158.7,544.9z M1156.3,548c-0.2,0.5-0.5,0.9-0.9,1.2c-0.8,0.7-1.9,0.8-2.7,0c-1.5-1.3,0.3-3.2,2.1-3.8
		c0.1,0.7,0.7,1.3,1.4,0.8C1156.8,545.7,1156.3,547.9,1156.3,548z"/>
	<path class="st53" d="M1157.8,562.4c0.3-0.4,0.4-0.9-0.1-1.2c-4.3-3.8-10.5,5.2-5.5,7.9c2.5,1.3,5.1-0.7,6.1-2.9
		C1159,564.7,1158.7,563.3,1157.8,562.4z M1152.8,566.9c-1.1-1.1,0-3.4,1.4-4.3c0.1,0.3,0.4,0.6,0.9,0.6
		C1158.7,563,1155.1,569.3,1152.8,566.9z"/>
	<path class="st53" d="M1157.3,577.4c0.2-0.4,0.1-0.9-0.4-1.2c-2.3-1.4-5.5-1.4-7.1,1.2c-1.3,2.1-0.5,5.2,1.7,6.3s5.1-0.1,5.9-2.4
		C1157.8,580.1,1157.9,578.5,1157.3,577.4z M1155.7,580c-0.1,0.7-0.3,1.4-1,1.8c-1.1,0.7-2.5,0.4-3.1-0.6s-0.5-2.3,0.3-3.2
		c0.5-0.5,1.1-0.7,1.6-0.7c0.1,0.6,0.7,1.3,1.5,0.8C1155.7,577.7,1155.7,579.5,1155.7,580z"/>
	<g>
		<g>
			<path class="st53" d="M1139.8,505c-3.8,5.3-6.8,11.7-5.4,18.3c1.2,5.3,5.3,10.2,11.1,9.8c1.3-0.1,1.3-2.1,0-2
				c-6.9,0.4-9.9-7.2-9.3-12.9c0.4-4.6,2.7-8.6,5.4-12.2C1142.3,504.9,1140.6,503.9,1139.8,505L1139.8,505z"/>
		</g>
	</g>
	<g>
		<g>
			<path class="st53" d="M1190.4,503.9c1.2,7.3,0,12.9-5.9,17.6c-5.1,4.1-10.9,6.9-17.2,8.7c-1.2,0.3-0.7,2.3,0.5,1.9
				c7.5-2.1,14.8-5.7,20.4-11.1c5-4.9,5.3-11,4.1-17.6C1192.2,502.1,1190.2,502.7,1190.4,503.9L1190.4,503.9z"/>
		</g>
	</g>
	<g>
		<g>
			<path class="st54" d="M1148.9,366.7c2.9-1.7,6.7-2.8,10-1.5c4.1,1.6,3.7,4.7,3.8,8.3c0.1,2.5,0.3,4.9,1.5,7.2
				c2.9,5.5,9,8,14.9,8.5c4.2,0.4,8.4-0.6,12.6-0.3c3.6,0.3,7.3,1.7,8.7,5.4c0.5,1.2,0.4,2.6,0.9,3.8c2,4.7,7.6,5.2,12.1,4.6
				c1.3-0.1,1.3-2.1,0-2c-1.9,0.2-3.9,0.4-5.8-0.1c-3.4-0.8-4-2.6-5-5.6c-0.8-2.5-1.5-4.2-3.8-5.8c-6.8-4.7-15.8-0.6-23.4-2.6
				c-5.7-1.5-10.4-5.5-10.8-11.7c-0.2-2.8,0.5-6-1.1-8.6c-3.2-5.3-11.3-4-15.8-1.4C1146.8,365.6,1147.8,367.4,1148.9,366.7
				L1148.9,366.7z"/>
		</g>
	</g>
	<g>
		<g>
			<path class="st54" d="M1160,357.6c4.3-1.2,13.6-2.8,16.7,2.1c1.7,2.7,1,6.4,2,9.3c1.6,4.4,5.8,7.8,10.5,8.4
				c4.2,0.6,8.8-1.9,12.8,0.2c3.3,1.7,4.9,5.4,7.1,8.2c3,3.8,7.4,6.3,11.9,3.6c1.1-0.7,0.1-2.4-1-1.7c-7.9,4.7-11.9-10.1-18.3-12.3
				c-6.5-2.2-13,2.6-18.7-3.1c-4.3-4.3-1.6-11.9-6.6-15.5c-4.6-3.3-12-2.4-17-1C1158.2,356,1158.7,357.9,1160,357.6L1160,357.6z"/>
		</g>
	</g>
	<g>
		<g>
			<path class="st54" d="M1225.4,442.3c6.4-0.7,14.6,0.6,19.1,5.7c5.8,6.6-2.7,12.2-5.2,18c-1.5,3.4-1.9,7.7,0.4,10.9
				c1,1.4,2.2,2.2,3.7,3.1c1,0.7,2.5,1.2,3.4,2.1c2.6,2.9,0.8,5.4-0.3,8c-3,7.1,0.1,10.3,5.9,14.3c2,1.4,5.1,3.2,5.6,5.8
				c0.8,3.9-1.8,7.2-2.8,10.7c-1,3.4-0.9,6.9,1.9,9.3c1,0.9,2.4-0.6,1.4-1.4c-5.5-4.9,2.5-12.4,1.6-18.3c-0.5-3.4-3-5.4-5.7-7.3
				c-1.8-1.3-4-2.3-5.5-4c-3.1-3.5-0.9-6.9,0.5-10.6c1.1-2.9,1.2-5.6-1.1-7.9c-1.5-1.5-3.6-2.1-5.2-3.4c-4.5-3.7-2.8-9.3-0.1-13.5
				c2.5-3.8,6.8-7.6,5.8-12.6c-1.7-9.1-15.8-11.8-23.2-10.9C1224.1,440.4,1224.1,442.4,1225.4,442.3L1225.4,442.3z"/>
		</g>
	</g>
	<g>
		<g>
			<path class="st54" d="M1215.1,452.4c6.8-0.1,12.8,5.4,8.9,12.2c-1.6,2.9-4.3,5.2-5.6,8.3c-3.3,7.6,4.3,11.1,9.6,14.2
				c1.2,0.7,2.5,1.5,3.4,2.5c2.1,2.5,1.4,6-1.1,8.1c-1.1,1-2.7,1.1-3.8,2.3c-1.8,2-1.8,4.7-0.9,7.2c2.5,6.6,10.1,10,16.7,10.9
				c1.3,0.2,1.3-1.8,0-2c-5.7-0.7-13.1-4-15-10c-1.7-5.4,5.6-5.8,7.4-9.8c3.3-7.5-6.7-10.9-11.1-13.9c-10.7-7.3,3.9-14.2,3.8-22.4
				c-0.1-6.3-6.7-9.8-12.3-9.7C1213.8,450.5,1213.8,452.5,1215.1,452.4L1215.1,452.4z"/>
		</g>
	</g>
	<g>
		<g>
			<path class="st54" d="M1105.5,421.5c-8.9,5.8-14.9,14.7-9.8,25.2c3.2,6.4,8.2,12.2,12.3,18.1c2.8,4,8,9.6,3.4,14.4
				c-2.4,2.5-5.9,4-8.8,5.9c-3.1,1.9-6.9,4.6-6.7,8.6c0.1,1.9,1,3.4,2.3,4.8c1.8,1.9,6,3.5,7,5.8c0,2.2,0,4.3,0.1,6.5
				c-0.9,0.8-2,1.5-3.1,2c-1.2,0.7-2.6,1.1-3.7,1.9c-1.8,1.1-3.5,2.7-4.2,4.8c-1.2,4,2.3,6,5.5,7.1c1.2,0.4,1.7-1.5,0.5-1.9
				c-2.1-0.1-3.1-1.1-3.1-3.2c-1.4-2.2-0.6-3.9,2.2-5c1-0.6,2.1-1,3.1-1.6c1.6-0.8,3.3-1.7,4.5-3c2-2.2,2.1-5.1,0.5-7.6
				c-3-4.8-13.9-7.2-7.6-14.7c3.3-3.9,9.2-5.1,12.8-8.8c7.2-7.4-3.1-16.8-7.4-22.9c-3.4-4.8-8.2-10.1-9.5-16.1
				c-1.7-8.1,4.4-14.3,10.6-18.3C1107.5,422.5,1106.5,420.8,1105.5,421.5L1105.5,421.5z"/>
		</g>
	</g>
	<path class="st54" d="M1134.3,370.1c-2.2,4.3-4.6,5.6-9.4,5.6c-2,0-4,0.6-5.7,1.7s-3.1,2.7-3.8,4.6c-1.1,2.6-0.6,10.8-5,10.3
		c-1.3-0.1-1.3,1.9,0,2c2.2,0.2,3.8-0.6,5-2.5c2.3-3.8,0.2-8.5,3.9-11.9c3.8-3.4,7.5-0.7,11.5-2.5c2.5-1.2,4-3.9,5.2-6.2
		C1136.7,369.9,1134.9,368.9,1134.3,370.1z"/>
	<path class="st54" d="M1132.1,363.8c-6.2-2.1-13.1-0.1-17.2,5.1c-0.8,1,0.6,2.4,1.4,1.4c3.7-4.6,9.6-6.4,15.2-4.5
		C1132.8,366.2,1133.3,364.2,1132.1,363.8z"/>
</g>
<path class="st11" d="M970.3,176.8"/>
</svg>
