<?xml version="1.0" encoding="utf-8"?>
<!-- Generator: Adobe Illustrator 23.0.2, SVG Export Plug-In . SVG Version: 6.00 Build 0)  -->
<svg version="1.1" id="Layer_1" xmlns="http://www.w3.org/2000/svg" xmlns:xlink="http://www.w3.org/1999/xlink" x="0px" y="0px"
	 viewBox="0 0 952.7 697.31" style="enable-background:new 0 0 952.7 697.31;" xml:space="preserve">
<style type="text/css">
	.st0{fill:none;}
	.st1{fill:#CC7353;}
	.st2{opacity:0.1;fill:#007CC7;}
	.st3{fill:#AFC7D7;}
	.st4{fill:#FFFFFF;}
	.st5{filter:url(#Adobe_OpacityMaskFilter);}
	.st6{opacity:0.48;mask:url(#SVGID_1_);fill:#99AFBC;}
	.st7{opacity:0.53;fill:#FDA689;}
	.st8{fill:#30170D;}
	.st9{fill:#FBD5AF;}
	.st10{fill:#1B354C;}
	.st11{fill:#F5BD83;}
	.st12{fill:#F0E6E1;}
	.st13{fill:#96C7F6;}
	.st14{fill:#FDA689;}
	.st15{fill:#F4E9DC;}
	.st16{opacity:0.7;fill:#D19D6F;}
	.st17{fill:#002042;}
	.st18{fill:#EFEAEA;}
	.st19{fill:#FFCBB3;}
	.st20{fill:#C64A27;}
	.st21{fill:#331318;}
	.st22{fill:#3E1D1D;}
	.st23{fill:#FFE6D6;}
	.st24{fill:#FFF1E4;}
	.st25{fill:#F7F0ED;}
	.st26{fill:#C09B7E;}
	.st27{fill:#007CC7;}
	.st28{fill:url(#SVGID_2_);}
	.st29{fill:#5B2516;}
	.st30{fill:#56222C;}
	.st31{fill:url(#SVGID_3_);}
	.st32{fill:#D37E37;}
	.st33{fill:#6E439D;}
	.st34{fill:#422645;}
	.st35{filter:url(#Adobe_OpacityMaskFilter_1_);}
	.st36{opacity:0.48;mask:url(#SVGID_4_);fill:#99AFBC;}
	.st37{fill:#035693;}
	.st38{fill:#C7725A;}
	.st39{opacity:0.16;fill:#B94A00;}
	.st40{fill:#853535;}
	.st41{fill:#FFCFC2;}
	.st42{fill:#4F322F;}
	.st43{fill:#4A4141;}
	.st44{fill:#36302F;}
	.st45{fill:#FAFAFA;}
	.st46{fill:#005D8B;}
	.st47{fill:#CCCCCC;}
	.st48{fill:none;stroke:#A1543F;stroke-width:1.1224;stroke-linecap:round;stroke-linejoin:round;stroke-miterlimit:10;}
	.st49{fill:none;stroke:#5B2516;stroke-width:1.1224;stroke-linecap:round;stroke-linejoin:round;stroke-miterlimit:10;}
	.st50{fill:#00456B;}
	.st51{fill:#CB6259;}
	.st52{fill:#A1543F;}
	.st53{fill:#D19D6F;}
	.st54{fill:#FFF4D6;}
	.st55{fill:#F3A769;}
	.st56{fill:none;stroke:#AFC7D7;stroke-width:2.1543;stroke-linecap:round;stroke-linejoin:round;stroke-miterlimit:10;}
	.st57{opacity:0.69;}
	.st58{opacity:0.57;}
	.st59{fill:none;stroke:#AFC7D7;stroke-width:4;stroke-linecap:round;stroke-linejoin:round;stroke-miterlimit:10;}
</style>
<pattern  x="-1212.82" y="-145.37" width="50" height="50" patternUnits="userSpaceOnUse" id="New_Pattern_Swatch_2" viewBox="0 -50 50 50" style="overflow:visible;">
	<g>
		<rect y="-50" class="st0" width="50" height="50"/>
		<rect y="-50" class="st1" width="50" height="50"/>
	</g>
</pattern>
<path class="st2" d="M951.97,343.33c-5.08,45.54-22.5,70.86-43.58,88.02c-35.81,29.17-82.14,34.72-96.32,75.75
	c-22.5,65.17,32.49,76.44,38.69,103.32c0.65,2.81,1.06,5.55,1.23,8.18c0.01,0.07,0.01,0.13,0.02,0.19c0.02,0.43,0.04,0.85,0.06,1.27
	v0.4c0.01,0.28,0.02,0.55,0.02,0.82c0,0.19,0,0.39-0.01,0.57c0.01,0.1,0.01,0.19,0,0.28c0,0.3-0.01,0.58-0.02,0.87
	c0,0.12-0.01,0.23-0.02,0.35c0,0.15-0.01,0.3-0.02,0.45c-0.01,0.26-0.03,0.53-0.05,0.8c-9.16,120.8-555.34,31.7-742.4-2.42
	c-91.56-16.7-138.5-119.87-90.43-199.57c0.72-1.19,1.45-2.4,2.21-3.61c75.72-120.71,165.32-85.05,204.5-219.9
	C265.04,64.27,454.39,23.71,642.64,23.35c188.24-0.38,146.98,116.51,142.82,175.77C781.31,258.38,965.68,220.4,951.97,343.33z"/>
<g>
	<path class="st3" d="M536.52,228.77h-308.9c-1.15,0-2.08-0.93-2.08-2.08l0,0c0-1.15,0.93-2.08,2.08-2.08h308.9
		c1.15,0,2.08,0.93,2.08,2.08l0,0C538.6,227.84,537.67,228.77,536.52,228.77z"/>
	<g>
		<rect x="244.95" y="57.02" class="st4" width="277.07" height="171.36"/>
		<defs>
			<filter id="Adobe_OpacityMaskFilter" filterUnits="userSpaceOnUse" x="186.19" y="128.32" width="357.83" height="95.64">
				<feColorMatrix  type="matrix" values="1 0 0 0 0  0 1 0 0 0  0 0 1 0 0  0 0 0 1 0"/>
			</filter>
		</defs>
		<mask maskUnits="userSpaceOnUse" x="186.19" y="128.32" width="357.83" height="95.64" id="SVGID_1_">
			<g class="st5">
				<rect x="244.95" y="57.02" class="st4" width="277.07" height="171.36"/>
			</g>
		</mask>
		<polygon class="st6" points="186.28,218.38 186.6,218.38 186.6,177.85 205.9,177.85 205.9,149.55 231.95,149.55 231.95,167.24 
			247.72,167.24 247.72,173.67 257.04,173.67 257.04,167.56 267.98,167.56 267.98,154.69 276.66,143.76 291.78,143.76 
			298.86,155.34 298.86,195.87 320.09,195.87 320.09,167.56 357.4,167.56 357.4,175.28 367.69,175.28 367.69,168.2 395.03,168.2 
			395.03,174.32 407.57,174.32 407.57,167.24 410.79,167.24 410.79,137 416.58,137 416.58,132.82 421.73,128.32 433.95,128.32 
			438.13,132.82 438.13,136.68 442.96,136.68 442.96,167.56 445.85,167.56 445.85,182.36 453.25,182.36 453.25,153.09 
			477.05,153.09 477.05,170.78 481.23,170.78 481.23,156.62 485.41,156.62 485.41,146.65 495.71,146.65 495.71,156.3 501.82,156.3 
			501.82,164.02 511.47,164.02 511.47,169.81 536.88,169.81 536.88,151.16 544.02,151.16 544.02,223.96 186.19,223.96 		"/>
		<rect x="339.81" y="54.59" class="st3" width="5.35" height="173.79"/>
		<g>
			<path class="st3" d="M525.26,228.38H242.97V54.59h282.29V228.38z M247.99,223.89h272.24V59.08H247.99V223.89z"/>
		</g>
	</g>
</g>
<g>
	<path class="st3" d="M755.36,649.89c-3.83,0.94-7.1,1.68-9.27,2.25c-12.86,3.36-23.83,5.8-37.13,5.12
		c-8.77-0.45-16.41-0.45-24.91-2.48c-3.45-0.82-6.36-3.47-9.96-2.64c-1.14,0.26-1.06,3.79-2.19,4.1
		c-3.64,0.99-42.07,9.72-41.66,11.08l-0.33-1.11c-7.02,1.94-3.33,1.87-4.23,2.66c-1.45-0.01-1.5-0.62-2.65-0.77
		c-1.14-0.13-3.43,0.1-9.26,2.07c1.32,0.75-1.23,1.71-3.95,2.77c-2.72,1.05-5.65,2.2-5.07,3.1c-5.43,1.97-8.35,1.89-13.93,4.33
		c-2.91,1.77-0.47,1.59,3.1,0.74c3.56-0.85,8.21-2.33,9.8-3.14c7.76-2.95-1.4-0.49,1.71-1.68c2.55-0.76,5.09-1.52,7.63-2.23
		c-3.93,1.9-11.82,5.57-10.45,6.06c-7.75,2.57,5.7-3.31-2.83-0.54l-4.82,2.47c-8.65,2.79,1.17-2.15-10,1.85
		c3.92-0.95,0.91,0.21-2.95,1.72c-3.86,1.52-8.68,3.3-8.07,3.89c-0.57-0.81-5.72,0.9-11.29,2.47c-5.55,1.59-11.53,2.97-12.98,2.43
		c2.12-0.54,4.21-1.21,6.29-1.85l-1.2,1.15c6.96-1.63,12.76-2.88,19.48-5.51c-5.61,1.15,1.27-2.09-5.18-0.62
		c-6.07,1.34-6.81,1.75-6.2,2s2.54,0.21,1.7,0.46c-1.63,0.32-3.29,0.59-4.93,0.89c-1.66,0.25-3.3,0.53-4.97,0.75
		c2.12-0.8,4.22-1.61,6.28-2.49c-7.47,1.82-17.86,3.94-28.42,5.21c-3.87,0.75-5.71,1.01-6.42,1.25c-0.72,0.22-0.33,0.32,0.21,0.41
		c1.06,0.18,2.71,0.31-2.93,1.25c-2.55-0.01-3.52-0.27-4.75-0.36c-0.61-0.05-1.29-0.09-2.27-0.09c-0.97,0.02-2.24,0.04-4.03,0.07
		c1.93-0.24,3.65-0.27,5.23-0.2c1.58,0.06,3.03,0.19,4.38,0.1c0.85-0.37,0.46-0.51-0.57-0.59c-1.04-0.09-2.73-0.1-4.51-0.11
		c-0.89-0.01-1.8-0.01-2.65-0.02c-0.86-0.04-1.66-0.09-2.35-0.14c-1.37-0.12-2.24-0.29-2.06-0.57c-2.92,0.45-2.38,0.93-0.06,1.42
		c-6.03-0.23-11.9-0.63-16.85-0.8c-4.94-0.24-8.98-0.2-11.3,0.23l-4.93-2.08c-10.13-1.25-6.75-0.41-2.94,0.55
		c1.9,0.49,3.91,0.97,4.37,1.23s-0.65,0.41-4.96-0.03c-7.1-0.87-13.96-2.29-16.87-3.48c2.02,0.38,4.02,0.78,6.04,1.13
		c-2.24-0.82-3.22-1.38-4.57-1.95c-1.34-0.58-3.04-1.17-6.61-2.24c-5.21-0.99-2.68,0.58-8.71-1.69c-12.69-2.54-8.55-0.42-5.27,1.54
		c-1.18-0.34-2.44-0.68-3.69-1.03c-4.25-1.19-8.44-2.51-8.99-3.17c-0.14,0.21,0.12,0.71,1.28,1.41c0.49,0.29,1.14,0.62,1.98,0.98
		c5.55,0.78,6.5,1.35,6.67,1.78c0.16,0.43-0.52,0.64,1.91,0.43c0.78,0.19,1.56,0.37,2.34,0.55c0.2,0.14,0.38,0.28,0.52,0.41
		c-4.64-0.89-4.8-0.42-3.79,0.31c-1.34-0.58-2.69-1.18-4.03-1.77l-3.6,0.45c-4.12-0.99-6.43-2.95-8.93-2.9
		c-3.24-0.44-1.18,0.72-0.17,1.44c0.5,0.36,0.73,0.61-0.11,0.49c-0.85-0.13-2.77-0.57-6.61-1.81c-4.1-1.37-7.08-2.64-9.39-3.81
		c-1.15-0.59-2.14-1.12-3.02-1.65c-0.88-0.54-1.65-1.04-2.38-1.52c-2.91-2.01-5.15-3.6-10.51-6.92c0.66,0.18,1.64,0.71,2.87,1.44
		c1.24,0.66,2.73,1.58,4.43,2.44c-3.15-2.45,3.16,0.56-2.36-3.16c-1.96-0.42-5.73-2.41-9.85-5.49c-2.06-1.53-4.18-3.37-6.17-5.38
		c-2.01-2-3.87-4.17-5.39-6.19c1.05,2.51-3.44-2.34-1.84,0.44c-3-4.29-4.96-8.06-5.45-9.93c2.55,3.75,3.49,4.76,3.27,4.15
		c-0.2-0.59-1.38-2.71-2.48-4.83c-1.11-2.14-2.15-4.21-2.48-5.14c-0.32-0.9,0.06-0.77,2.01,1.88c-1.7-2.83-3.04-4.84-4.25-6.42
		c-0.6-0.79-1.16-1.46-1.69-2.06c-0.55-0.59-1.1-1.09-1.61-1.58c-0.52-0.48-1.01-0.94-1.49-1.4c-0.49-0.45-0.94-0.91-1.52-1.32
		c-1.1-0.84-2.24-1.74-3.54-2.88c0.01,0.3,2.09,2.72,3.22,4.21c0.49,0.79,0.78,1.34,0.56,1.24c-0.24-0.09-0.9-0.88-2.73-2.48
		c-0.84-1.1-1.42-1.94-1.83-2.56c-0.46-0.58-0.7-0.97-0.79-1.22c-0.19-0.5,0.23-0.45,0.72-0.34c0.97,0.2,2.26,0.66-0.67-2.94
		l2.98,2.3l2.74,2.5c0.47-0.09,0.16-0.73-0.59-1.67c-0.38-0.47-0.84-1.03-1.41-1.6c-0.61-0.54-1.28-1.13-1.98-1.72
		c-0.7-0.59-1.42-1.19-2.12-1.78c-0.73-0.55-1.48-1.05-2.13-1.52c-1.31-0.93-2.33-1.69-2.67-2.05c-1.07-0.58-1.27-0.61-1.04-0.37
		c0.24,0.23,0.9,0.75,1.49,1.34c1.21,1.15,2.36,2.35,0.19,1.4c-0.74-0.48-1.37-0.99-2.03-1.4c-0.67-0.41-1.28-0.82-1.86-1.21
		c-1.17-0.77-2.14-1.55-3.14-2.19c-1.01-0.63-1.95-1.21-2.91-1.75c-0.96-0.53-1.91-1.05-3.05-1.4c0.91,0.7,1.38,1.19,1.7,1.51
		c0.31,0.33,0.47,0.49,0.65,0.67c0.34,0.36,0.76,0.75,2.7,2.36c-1.82-1-3.17-1.74-4.18-2.26c-0.99-0.54-1.73-0.76-2.15-0.92
		c-0.88-0.28-0.75-0.02-0.53,0.3c0.46,0.65,1.28,1.58-4.57-0.84c-1.84-0.86-2.06-1.26-2.6-1.73c-0.27-0.23-0.62-0.49-1.29-0.82
		c-0.33-0.17-0.75-0.36-1.27-0.58c-0.54-0.2-1.19-0.41-1.99-0.67c2.06,0.1,2.99,0.09,4.66,0.53c0.84,0.22,1.87,0.55,3.31,1.08
		c1.42,0.56,3.19,1.42,5.61,2.55c-1.31-1.49-4.48-3.08-8.35-4.37c-0.96-0.34-1.92-0.72-2.93-1.04c-1.02-0.31-2.04-0.64-3.05-0.98
		c-1.01-0.34-1.99-0.71-2.96-1.08c-0.98-0.34-1.92-0.7-2.81-1.1c1.49,0.42,2.36,0.64,2.92,0.78c0.56,0.15,0.8,0.22,1.07,0.29
		c0.53,0.15,1.1,0.37,4.19,1.59c1.35-0.98,3.84-0.32-1.52-3.59c1.68,0.72,3.13,1.33,4.4,2.08c1.28,0.74,2.48,1.44,3.78,2.18
		c1.32,0.69,2.61,1.58,4.23,2.43c0.8,0.44,1.68,0.87,2.63,1.35c0.92,0.52,1.93,1.06,3.06,1.62c0.79,0.03,0.55-0.38-0.25-1.05
		c-0.82-0.65-2.13-1.65-3.67-2.51c-1.51-0.9-3.1-1.87-4.29-2.7c-1.22-0.77-2.02-1.45-1.86-1.88c-0.56-0.35-1.23-0.73-2-1.12
		s-1.62-0.81-2.59-1.15c-1.91-0.71-4.05-1.5-6.28-2.11c-2.25-0.58-4.5-1.17-6.59-1.58c-2.1-0.38-4-0.68-5.46-0.88
		c-2.45-0.87-5.1-1.61-7.79-2.37c-1.36-0.32-2.73-0.65-4.1-0.97c-1.37-0.32-2.73-0.66-4.09-0.9c-2.72-0.52-5.35-1.14-7.83-1.58
		c-2.47-0.48-4.76-1.06-6.76-1.55c-3.83,0-10.52-0.6-18.14-0.83c-7.61-0.25-16.14-0.2-23.44,0.47c-2.09,0.87-16.69,1.74-9.83,1.99
		c-3.17,0.02-12.12,0.57-9.4-0.3c1.28,0.16,2.64-0.17,5.27-0.35l-2.44-0.81c-7.03,0.99-15.1,0.46-21.86,1.67
		c-2.14,1,12.84-0.63,8.36,0.72c-3.35-0.46-11.71-0.22-20.32,0.24c-8.61,0.47-17.47,1-21.73,1.55c-2.88,0.23-4.47,0.66-5.65,1.07
		c-0.59,0.2-1.07,0.4-1.57,0.56c-0.51,0.15-1.04,0.26-1.67,0.31c-3.42,0-6.81-0.22-10.13-0.57c-1.21,0.28-1.43,0.76-3.34,1.04
		c-4.96-0.33-8.1-1.3-10.96-1.97c-6.23-0.57-7.62-0.26-6.84,0.31c0.8,0.57,3.86,1.5,6.97,2.42c2.35,0.23,4.77,0.47,7.22,0.67
		c2.61,0.67,5.96,1.13,8.06,1.46c2.11,0.32,2.95,0.61,0.52,0.99c-3.91-0.46-3.7-0.96-5.01-1.37c-1.5,0.05-2.97,0.06-4.45,0.07
		c-2.14-0.55-6.08-1.38-9.2-2.11c-3.13-0.73-5.51-1.33-4.87-1.69c-2.03-0.11-4.1-0.29-6.14-0.42l-1.48-0.1
		c-0.38-0.02-0.79-0.03-1.22-0.04l-2.06,0.02c-0.84,0.01-1.67,0.01-2.5-0.03c-3.29-0.12-6.49-1.06-9.08-2.73
		c-2.4-1.5-4.43-3.34-6.14-5.26c0.98,1.04,1.53,1.4,1.72,1.46c0.23,0.05,0.03-0.33-0.26-0.84c-0.58-1.03-1.37-2.59-0.45-1.96
		c1.27,1.62,2.77,3.06,4.42,4.3c1.65,1.23,3.51,2.21,5.51,2.77c-2.38-0.76-4.71-2.32-6.71-4.29c-2.02-1.98-3.72-4.4-4.91-7.01
		s-1.87-5.39-2-8.05c-0.08-1.33,0-2.63,0.18-3.85c0.1-0.61,0.2-1.21,0.3-1.8c0.1-0.59,0.25-1.09,0.36-1.61
		c-0.44,0.41-0.73,0.71-0.82,0.34c-0.07-0.35-0.03-1.44,0.6-3.54c-0.79,3,0.85-0.73,2.7-3.05c0.89-1.2,1.78-2.07,1.97-2.05
		c0.23,0.04-0.33,0.9-1.66,3.68c-1.27,1.91-2.21,3.95-2.9,6.39c-0.71,2.52-0.94,5.39-0.24,8.57c0.55,0.98,0.82,1.05,0.92,0.59
		c0.1-0.47,0.01-1.48,0.03-2.78c0.01-1.3,0.14-2.88,0.56-4.4c0.23-0.75,0.43-1.53,0.71-2.21c0.29-0.67,0.56-1.31,0.86-1.87
		c0.65-1.4,1.48-3.13,2.71-4.81c1.21-1.7,2.69-3.44,4.39-4.99c3.37-3.15,7.41-5.71,10.81-7.49c1.99-1.36,3.17-2.44,4.79-3.58
		c0.82-0.57,1.73-1.18,2.95-1.79c1.23-0.59,2.73-1.25,4.7-1.9c-2.26,1.33-2.74,1.89-2.2,1.9c0.55,0.03,2.13-0.48,4.12-1.03
		c3.7-1.16,8.82-2.52,10.64-2.57c0.94-0.33,1.89-0.67,2.84-0.98c0.54-0.19,1.08-0.36,1.6-0.52c4.08-1.32,8.21-2.52,12.39-3.59
		c-1.89,0.36-4.66,1.01-7.41,1.71c-1.84,0.46-3.68,0.91-5.24,1.3c-1.57,0.37-2.89,0.62-3.69,0.68c-0.36-0.33,0.07-1.08-0.85-1.3
		c-0.91-0.21-3.21,0.03-8.92,2.08c3.33-1.45,5.52-2.3,7.04-2.76c1.51-0.48,2.33-0.65,2.92-0.71c1.19-0.09,1.49,0.21,4.71-0.65
		l-4.74,1.42c2.25-0.39-1.53,1.54,2.62,0.21c7.96-2.74,12.7-4.19,16.74-5.62c4.06-1.35,7.46-2.65,12.96-4.25
		c-2.37,1.09,2.87,0.65,5.52,0.24c10.65-2.63-0.5-1.77,5.91-4.16c3.92,0.15,11.25-1.19,8.86-0.2c4.29-0.62,2.01-0.62,5.03-1.31
		c2.89,0.33,6.16,0.22,12.11-0.56c-0.59-0.29-1.52-0.78-7.19,0.25c6.34-1.24,8.51-2.75,5.62-3.12c-3.46,0.61-6.91,1.3-10.36,1.94
		c-4.89-0.18,9.67-1.77,9.14-2.54c-4.64,0.44-8.03,1.49-11,1.67c2.79-1.33,11.97-1.77,17.29-2.31c8.36-1.24,5.16-1.73,5.23-2.23
		c7.25-0.11,3.16,0.75-1.02,1.69c-4.18,0.95-8.48,1.9-1.75,1.73c2.58,0.18,7.04-0.11,11.97-0.55c4.93-0.47,10.35-0.98,14.83-1.34
		c-3.77,0.99-3.5,1.39-1.15,1.48c1.18,0.04,2.88,0.01,4.87-0.07c1.99-0.06,4.26-0.15,6.57-0.25c-6,0.54-6.73,0.97-7.73,1.32
		c-1,0.35-2.27,0.62-9.35,0.95l-0.16,0.98c2.99-0.31,6.25-0.76,9.51-1.2s6.52-0.81,9.52-1.1c-1.28-0.15,0.09-0.49-1.89-0.47
		c5.97-0.42,11.95-0.71,17.92-1.02l-1.87-0.5c5.51-0.5,11.65-1.05,17.24-1.55c5.59-0.44,10.63-0.78,13.94-0.76
		c-5.33,0.17-9.89,1.35-4.29,1.35c3.25,0.23,9.14,0.5,14.17,0.21c2.6-1.25,21.67-1.63,9.58-2.47c7.79,0.07,10.24,0.28,12.62,0.45
		c1.19,0.09,2.35,0.18,4.15,0.28c1.8,0.09,4.23,0.21,7.94,0.39c-3.32-0.11-6.64-0.18-9.95-0.23c-0.99,0.72,4.14,1.75,1.28,2.48
		c5.34-0.05,10.68-0.07,16.02-0.05c-2.49-0.34-6.32-0.61-6.07-0.79c7.7-0.05-0.14,0.48,7.12,0.73c0.26,0.02,0.5,0.04,0.74,0.06
		c2.56,0.02,5.12,0.06,7.69,0.1c0.72-0.09,1.33-0.2,1.92-0.32c1.96-0.4,3.86-0.84,9.94-0.36c-2.66-0.11-7.4,0.05-4.21,0.55
		c5.64,0.13,8.47,0.31,10.24,0.51c4.87,0.15,9.74,0.33,14.61,0.54c2.28-0.79,2.97-1.51,10.7-1.35l-5.99-0.28
		c4.22-0.45,8.99-0.51,13.34-0.21c11.17,1.24,21.35,2.9,31.44,5.16c3.08,0.7,6.16,1.46,9.25,2.28c5.39,1.05,10.74,2.31,16.01,3.87
		c2.87,0.85,5.76,1.86,8.61,2.64c-0.71-0.55-1.36-1.21-2.06-1.76c12.75,2.89,19.63,2.46,32.2,0.93c16.48-2.01,33.93-1.21,50.54-1.41
		c58.95-0.69,117.87,11.47,176.46,6.7c14.94-1.22,29.57-4.33,44.62-4.47c20.2-0.19,43.15,4.63,62.52,10.13
		c-2.84,0.22-5.79,0.06-8.67,0.23c2.6,1.73,5.98,3.78,8.32,5.8c-1.49-0.31-3.15-0.3-4.62-0.64c11.19,3.58,31.03,14.17,28.42,28.64
		c-0.75-0.16-1.67-0.05-2.49-0.27c1.8,4.04-1.53,5.76-5.18,5.07c0.25,0.33,0.41,0.7,0.48,1.1c-3.09,0.4-6.32,0.11-9.36-0.53
		c0.58,1.86,0.39,3.52,1.78,5.2c-0.53,7.75-13.52,8.4-19.23,10.47c1.88,6.95,18.42,12.26,15.25,20.53
		c-3.48,9.08-36.12,10.94-44.1,13.15C793.8,639.67,770.29,646.24,755.36,649.89z"/>
	<path class="st3" d="M722.36,639.55c-3.15,0.24-3.71,0.08-3.29-0.25C719.65,639.44,720.62,639.53,722.36,639.55z"/>
	<path class="st3" d="M646.55,654.18c0.58-0.1,1.14-0.18,1.65-0.23C647.04,654.17,646.23,654.3,646.55,654.18z"/>
	<path class="st3" d="M688.9,639.84c0.07-0.15,0.24-0.29,0.51-0.43C689.72,639.44,689.62,639.58,688.9,639.84z"/>
	<path class="st3" d="M369.47,655.75c-1.73-1.8-2.94-3.26-3.76-4.36c-0.83-1.1-1.32-1.85-1.61-2.37c1.63,2.33,3.6,4.77,5.57,6.9
		L369.47,655.75z"/>
	<path class="st3" d="M312.15,595.79c0.1,0.06,0.2,0.12,0.29,0.17c-0.18-0.08-0.31-0.13-0.49-0.21L312.15,595.79z"/>
	<path class="st3" d="M375.59,662.17c0.38,0.44,0.81,0.91,0.98,1.23C375.12,662.2,375.13,662.03,375.59,662.17z"/>
	<path class="st3" d="M312.67,594.82c1.77,0.59,3.99,1.39,5.19,2.06l-1.41-0.32l-1.44-0.26l-2.86-0.51
		c-0.66-0.4-1.34-0.81-2.25-1.32C309.52,593.95,310.89,594.23,312.67,594.82z"/>
	<path class="st3" d="M374.26,659.54c0.38,0.33,0.73,0.62,1.04,0.89c0.62,0.53,1.08,0.95,1.43,1.28c0.69,0.66,0.89,0.95,0.81,1.04
		c-0.16,0.21-1.41-0.43-1.95-0.58c-1.3-1.47-3.47-3.55-5.91-6.25c1.08,0.9,2.22,1.68,3.34,2.47
		C373.47,658.81,373.88,659.19,374.26,659.54z"/>
	<path class="st3" d="M83.45,579.74c0.14,0.17,0.31,0.33,0.45,0.5C83.76,580.08,83.61,579.92,83.45,579.74z"/>
	<path class="st3" d="M216.52,584.92c-0.36-0.01-0.67-0.02-0.96-0.03C216.02,584.89,216.36,584.9,216.52,584.92z"/>
	<path class="st3" d="M520.47,544.77c-0.46-0.22-0.93-0.45-1.44-0.69C519.58,544.33,520.05,544.56,520.47,544.77z"/>
	<path class="st3" d="M626.03,659.32l0.08,0.25C626.03,659.5,626.01,659.42,626.03,659.32z"/>
	<path class="st3" d="M708.59,636.8c-0.42,0.08-0.91,0.17-1.5,0.26C707.54,636.98,708.05,636.89,708.59,636.8z"/>
	<path class="st3" d="M435.23,681.89c1.75,0.5,3.08,0.94,3.55,1.26c-1.46-0.32-2.92-0.65-4.37-0.98c-0.42-0.3-0.95-0.62-1.5-0.96
		C433.73,681.45,434.52,681.68,435.23,681.89z"/>
	<path class="st3" d="M432.4,684.17l1.19,0.12C434.72,684.87,435.16,685.11,432.4,684.17z"/>
	<path class="st3" d="M433.6,684.29c-0.76-0.39-1.83-0.94-2.45-1.39c1.15,0.5,2.3,1,3.45,1.49L433.6,684.29z"/>
	<path class="st3" d="M543.14,557.01c-0.42-0.13-0.81-0.26-1.3-0.41C542.34,556.73,542.75,556.87,543.14,557.01z"/>
	<path class="st3" d="M133.09,528l3.95-1.08C135.34,527.42,134.1,527.74,133.09,528z"/>
	<path class="st3" d="M303.33,595.22c-2.69-0.74-4.88-1.29-6.64-1.83c-1.77-0.5-3.17-0.86-4.27-1.24c-2.21-0.74-3.35-1.33-4.52-1.85
		c-1.17-0.55-2.37-1.09-4.74-1.74c-1.19-0.31-2.68-0.58-4.61-0.91c-0.96-0.15-2.03-0.34-3.24-0.48c-1.21-0.12-2.54-0.25-4.02-0.39
		c4.04,0.07,8.06,0.35,12.09,0.64c-0.84,1.18,7.38,3.03,16.13,5.4l2.95-0.2c-1.44-0.65-3-1.27-4.64-1.89
		c3.37,0.77,2.57,1.24,6.64,2.11C302.9,593.11,309.62,596.49,303.33,595.22z"/>
	<path class="st3" d="M296.98,590.56c0.17,0.02,0.39,0.05,0.56,0.08c0.08,0.03,0.18,0.07,0.28,0.1
		C297.54,590.68,297.31,590.63,296.98,590.56z"/>
</g>
<g>
	<g>
		<g>
			<g>
				<path class="st15" d="M763.9,365.4h-0.63c-15.75,0-28.52,12.77-28.52,28.52v156.1h27.11c16.87,0,30.55-13.68,30.55-30.55V393.92
					C792.41,378.16,779.65,365.4,763.9,365.4z"/>
				<path class="st15" d="M213.38,365.4h0.63c15.75,0,28.52,12.77,28.52,28.52v156.1h-27.11c-16.87,0-30.55-13.68-30.55-30.55
					V393.92C184.86,378.16,197.63,365.4,213.38,365.4z"/>
				<path class="st15" d="M739.29,407.5v19.27h-501.3V407.5c0-8.44,0.76-16.7,2.2-24.73c0.03-0.16,0.05-0.33,0.09-0.49
					c11.86-64.37-2.3-119.19,136.07-113.14h224.57c122.67,1.51,136.06,12.21,136.15,94.18v0.81c0,5.38-0.98,13.14,0,18.52
					C738.53,390.71,739.29,399.02,739.29,407.5z"/>
				<rect x="242.53" y="411.34" class="st15" width="492.22" height="138.68"/>
				<g>
					<path class="st9" d="M725.35,407.34c8.11,5.1,5.75,33.79,0.5,35.62c-5.24,1.83-115.89,3.94-115.89,3.94s-62.39,3.09-92.89,2.97
						c-40.79-0.15-116.64,0-155.48,0c-24.7,0-53.79-2.76-80.07-2.76c-21.27,0-25.47-1.99-31.25-2.47
						c-5.62-0.47-7.42-10.96-3.1-30.32c1.96-8.78,18.57-15.98,68.06-16.1c80.09-0.19,101.71,5.26,210.48,0.99
						c25.84-1.01,63.15,1.18,90.96,1.75C642.81,401.5,712.01,398.95,725.35,407.34z"/>
					<g>
						<path class="st9" d="M233.95,423.49c-0.51,0-0.91-0.41-0.91-0.91v-13.49c0-14.53-2.03-31.55-17.82-34.28
							c-9.64-1.66-19.06,6.88-19.15,6.97c-0.37,0.34-0.95,0.32-1.29-0.05c-0.34-0.37-0.32-0.95,0.05-1.29
							c0.41-0.38,10.17-9.25,20.7-7.42c17.14,2.96,19.33,20.84,19.33,36.08v13.49C234.87,423.08,234.46,423.49,233.95,423.49z"/>
					</g>
					<g>
						<path class="st9" d="M741.38,447.36c-0.48,0-0.88-0.38-0.91-0.86c-0.01-0.11-0.65-11.01-0.87-24.53
							c-0.01-0.73-0.03-1.52-0.05-2.35c-0.26-11.2-0.69-29.95,8.93-39.65c4.03-4.07,9.42-6.07,16.13-5.99
							c15.63,0.22,19.86,15.26,20.78,19.86c1.6,7.98,0.76,41.81,0.73,43.25c-0.01,0.5-0.42,0.89-0.91,0.89c-0.01,0-0.02,0-0.02,0
							c-0.5-0.01-0.9-0.43-0.89-0.94c0.01-0.35,0.87-35.05-0.69-42.84c-1.1-5.46-5.14-18.2-19.01-18.39c-0.14,0-0.28,0-0.42,0
							c-5.96,0-10.8,1.83-14.39,5.45c-9.07,9.15-8.65,27.41-8.4,38.32c0.02,0.84,0.04,1.63,0.05,2.37
							c0.23,13.49,0.86,24.35,0.87,24.46c0.03,0.5-0.35,0.94-0.86,0.97C741.42,447.36,741.4,447.36,741.38,447.36z"/>
					</g>
					<g>
						<path class="st9" d="M721.63,480.47c0,0-0.01,0-0.01,0c-1.12-0.02-112.55-1.63-120.27-1.53l-2.85,0.04
							c-75.05,1.07-129.52,1.6-153.39,1.47c-39.19-0.21-192.4-2.99-193.95-3.01c-0.51-0.01-0.91-0.43-0.9-0.93
							c0.01-0.51,0.43-0.9,0.93-0.9c1.54,0.03,154.74,2.8,193.92,3.01c23.85,0.13,78.32-0.39,153.35-1.47l2.85-0.04
							c7.76-0.1,119.2,1.51,120.32,1.53c0.51,0.01,0.91,0.42,0.9,0.93C722.54,480.07,722.13,480.47,721.63,480.47z"/>
					</g>
					<g>
						<path class="st9" d="M242.65,419.38c-0.02,0-0.05,0-0.07,0c-0.5-0.04-0.88-0.48-0.84-0.98c0-0.06,0.44-6.12,0-15.21
							c-0.44-9.01-2.11-14.4-2.12-14.45c-0.15-0.48,0.12-1,0.6-1.15c0.48-0.16,1,0.12,1.15,0.6c0.07,0.23,1.75,5.64,2.2,14.91
							c0.45,9.21,0,15.37,0,15.44C243.52,419.01,243.12,419.38,242.65,419.38z"/>
					</g>
					<g>
						<path class="st9" d="M732.28,413.76c-0.48,0-0.88-0.37-0.91-0.86c-0.01-0.15-0.23-3.65,0-10.59
							c0.23-6.93,1.18-15.28,1.19-15.36c0.06-0.5,0.52-0.87,1.01-0.8c0.5,0.06,0.86,0.51,0.8,1.01c-0.01,0.08-0.95,8.36-1.17,15.21
							c-0.22,6.83,0,10.37,0,10.41c0.03,0.5-0.35,0.94-0.85,0.97C732.32,413.75,732.3,413.76,732.28,413.76z"/>
					</g>
				</g>
				<g>
					<path class="st9" d="M242.53,539.07c-0.51,0-0.91-0.41-0.91-0.91v-88.67c0-0.51,0.41-0.91,0.91-0.91
						c0.51,0,0.91,0.41,0.91,0.91v88.67C243.44,538.66,243.03,539.07,242.53,539.07z"/>
				</g>
				<g>
					<path class="st9" d="M734.75,539.07c-0.51,0-0.91-0.41-0.91-0.91V432.84c0-0.51,0.41-0.91,0.91-0.91
						c0.51,0,0.91,0.41,0.91,0.91v105.32C735.66,538.66,735.25,539.07,734.75,539.07z"/>
				</g>
				<g>
					<g>
						<path class="st9" d="M787.14,506.82c-0.51,0-0.91-0.41-0.91-0.91v-52c0-0.51,0.41-0.91,0.91-0.91s0.91,0.41,0.91,0.91v52
							C788.06,506.41,787.65,506.82,787.14,506.82z"/>
					</g>
					<g>
						<path class="st9" d="M191.95,518.33c-0.51,0-0.91-0.41-0.91-0.91v-97.85c0-0.51,0.41-0.91,0.91-0.91
							c0.51,0,0.91,0.41,0.91,0.91v97.85C192.87,517.93,192.46,518.33,191.95,518.33z"/>
					</g>
				</g>
			</g>
		</g>
	</g>
	<g>
		<path class="st9" d="M275.85,391.27c-3.76-19.44,1.25-38.75,7.23-57.19c0.38-1.19-1.48-1.7-1.87-0.51
			c-6.09,18.8-11.06,38.42-7.23,58.22C274.22,393,276.08,392.48,275.85,391.27L275.85,391.27z"/>
	</g>
	<g>
		<path class="st9" d="M686.89,290.58c12.91,9.67,22.45,18.12,28.04,33.28c6.23,16.91,6.62,39.9,6.42,57.67
			c-0.01,1.25,1.92,1.25,1.93,0c0.21-18.96-0.28-43.16-7.59-61c-5.95-14.52-15.29-22.24-27.83-31.63
			C686.87,288.16,685.91,289.84,686.89,290.58L686.89,290.58z"/>
	</g>
</g>
<g>
	<path class="st16" d="M538.48,219.79c0,0-11.39,37.91-17.67,60.92c-1.49,15.55,17.72,13.6,17.72,13.6
		c10.75-16.16,20.54-67.92,20.54-67.92L538.48,219.79z"/>
	<path class="st16" d="M635.88,222.76c0,0,9.07,41.11,15.09,65.7c6.32,15.07,19.43-1.37,19.43-1.37
		c0.96-20.85-14.48-69.88-14.48-69.88L635.88,222.76z"/>
	<path class="st17" d="M550.29,103.79c-0.47,2.03-0.84,4.08-1.12,6.14c-1.59,11.71-0.38,23.63,1.61,35.28
		c1.14,6.72,2.57,13.47,5.43,19.67c0.56,1.22,1.18,2.41,1.86,3.58c3.94,6.82,11.67,16.13,19.72,17.99
		c4.97,1.15,10.96,0.64,16.04,0.94c9.89,0.58,19.79,1.16,29.68,1.74l-1.9-48.63c-8.14-4.25-15.46-8.66-22.83-14.16
		c-2.34-1.75-4.72-3.53-6.42-5.9c-3.36-4.67-3.6-10.88-2.87-16.58c0.73-5.7,2.3-11.34,2.11-17.08s-2.61-11.89-7.74-14.48
		c-3.35-1.69-7.41-1.6-10.94-0.33c-3.53,1.27-6.58,3.62-9.22,6.28C556.81,85.18,552.49,94.26,550.29,103.79z"/>
	<path class="st11" d="M593.02,187.01L593.02,187.01c-8.44,0-15.28-6.84-15.28-15.28v-35.01h30.56v35.01
		C608.3,180.17,601.46,187.01,593.02,187.01z"/>
	<path class="st16" d="M599.52,148.25c-5.26-1.29-2.97-0.7-6.07-0.5c-5.25,0.33-10.6,1.13-15.42,3.55
		c-0.07,0.04-0.17,0.08-0.25,0.12v13.01c2.88,3.96,7.67,5.61,12.17,5.99c5.63,0.48,10.37-4.2,10.12-9.85L599.52,148.25z"/>
	<path class="st11" d="M593.19,81.62c-33.69-0.14-30.86,29.44-30.77,30.71c0.99,13.81,1.05,25.08,6.77,34.49
		c3.55,5.84,15.34,19.61,23.93,19.78c5.74,0.12,15.49-8.85,19.14-14.93c8.04-13.4,11.05-25.93,10.77-38.98
		C622.67,96.31,620.97,81.73,593.19,81.62z"/>
	<path class="st11" d="M559.66,131.9c1.58,2.31,7.46,7.19,9.57,3.4c1.08-1.95-0.73-4.14-1.68-5.73c-0.28-0.46-0.55-0.93-0.83-1.39
		c0.89,1.48,3.19,0.02,2.37-1.56c-1.33-2.55-5.1-10.58-9.08-7.33C556.77,121.92,556.07,126.66,559.66,131.9z"/>
	<path class="st17" d="M613.34,117.46c-3.29-1.35-6.47-2.85-10.02-2.33c-1.34,0.2-5.34,1.58-3.09,3.62
		c1.01,0.92,8.61,0.65,12.58,1.33C614.56,120.39,615.28,118.26,613.34,117.46z"/>
	<path class="st17" d="M575.52,119.68c0.16-0.71,0.54-1.33,0.86-1.61c2.66-2.35,5.97-3.79,9.55-3.81c1.35-0.01,5.51,0.76,3.6,3.12
		c-0.86,1.06-8.59,1.56-11.96,3.76C575.86,122.27,575.17,121.25,575.52,119.68z"/>
	<path class="st11" d="M625.29,118.72c-3.98-3.25-7.75,4.78-9.08,7.33c-0.83,1.59,1.48,3.05,2.37,1.57
		c-0.28,0.46-0.55,0.93-0.83,1.39c-0.95,1.59-2.76,3.78-1.68,5.73c2.1,3.79,7.98-1.09,9.57-3.4
		C629.21,126.09,628.51,121.35,625.29,118.72z"/>
	<path class="st18" d="M621.44,130.19c-0.83-1.35-2.98-0.11-2.14,1.25c0.8,1.29,1.16,2.62,1.13,4.14c-0.03,1.59,2.44,1.59,2.47,0
		C622.95,133.65,622.46,131.83,621.44,130.19z"/>
	<path class="st11" d="M577.61,172.4l-34.06,16.89c0,0,23.18,88.67,23.99,93.83c0.81,5.15,34.73,24.22,60.38-1.19l16.59-92.31
		c0,0-35.36-16.68-36.68-18.21C607.83,171.41,597.34,183.16,577.61,172.4z"/>
	<path class="st11" d="M568.06,281.56c0,0-18.1,47.33-20.27,57.02c-2.17,9.69-0.98,25.98,0,33.06c0.53,3.81,40.85,39.1,100.9,2.15
		c4.49-2.76-2.39-27.55-3.8-38.1c-1.41-10.55-19.65-53.78-19.65-53.78S592.31,257.06,568.06,281.56z"/>
	<path class="st19" d="M546.98,365.95c0,0,17.66,149.54,18.53,155.65c0.87,6.11,19.97,15.16,28.52-3.25
		c1.22-2.61,2.89-70.86,2.67-77.11c-0.22-6.25,2.95-59.2,1.36-63.57C596.48,373.3,551.59,342.35,546.98,365.95z"/>
	<g>
		<path class="st11" d="M542.6,499.49c0,0,8.08,40.67,36.34,117.85c4.36,11.9,14.75,5.85,13.39-3.26
			c-0.32-2.12-5.32-65.48-22.78-125.29C568.95,486.72,547.1,470.71,542.6,499.49z"/>
		<path class="st11" d="M579.36,608.12c0,0-8.84,32.41-14.21,34.35c-5.37,1.94-16.64,9.01-10.87,10.9
			c5.77,1.89,18.84-0.57,24.48-3.71c5.64-3.14,8.3-16.76,13.96-17.51c5.66-0.74,7.36-3.01,6.97-7.23
			c-0.39-4.23-6.26-15.58-6.26-15.58S585.74,599.04,579.36,608.12z"/>
		<path class="st20" d="M606.34,621.83c-0.22-0.65-0.64-1.13-1.23-1.42c-1.26-0.62-1.98-1.68-2.53-2.9
			c-0.6-1.32-1.39-2.53-2.29-3.67c-0.49-0.63-0.9-1.34-1.27-2.05c-0.57-1.09-1.24-2.08-2.2-2.86c-0.72-0.58-1.48-0.64-2.24-0.15
			c-0.56,0.36-1.09,0.78-1.6,1.21c-0.51,0.43-0.97,0.94-1.49,1.37c-1.13,0.92-2.4,1.46-3.9,1.37c-0.8-0.05-1.62-0.07-2.42,0.04
			c-1.33,0.18-2.69,0.35-3.89,1.01c-0.63,0.34-1.17,0.84-1.93,1.4c0.36-1.48-0.11-2.73-0.61-3.99c-0.61-1.55-1.34-3.01-2.47-4.25
			c-0.64-0.7-1.4-1.17-2.33-1.33c-2.43-0.41-4.73-0.17-6.9,1.17c-1.31,0.81-2.11,1.84-2.27,3.37c-0.16,1.55-0.6,3.03-1.1,4.51
			c-0.41,1.21-0.72,2.46-1.14,3.67c-0.42,1.24-0.88,2.47-1.39,3.68c-0.44,1.05-1.06,2.04-1.46,3.11c-1.41,3.82-3.73,7.08-6.14,10.3
			c-1.05,1.4-2.49,2.35-3.82,3.43c-0.9,0.73-1.64,1.59-2.27,2.56c-0.85,1.3-1.72,2.58-2.59,3.86c-0.91,1.34-1.85,2.65-2.36,4.22
			c-0.53,1.65-0.49,3.3-0.12,4.92c0.32,0.21,0.6,0.34,0.81,0.55c1.17,1.19,2.66,1.69,4.25,1.92c1.5,0.22,3.01,0.31,4.52,0.52
			c3.25,0.45,6.37-0.12,9.42-1.21c1.65-0.59,3.26-1.27,4.9-1.86c2.68-0.96,5.15-2.3,7.51-3.88c3.36-2.25,6.7-4.52,10.11-6.68
			c1.61-1.03,3.39-1.79,5.05-2.75c3.17-1.84,6.41-3.56,9.81-4.95c3.41-1.39,5.88-3.87,7.79-6.95c1.01-1.63,1.29-3.39,0.59-5.23
			C606.89,623.2,606.58,622.53,606.34,621.83z"/>
		<path class="st21" d="M539.78,654.84c0.13-0.41,0.31-0.82,0.38-1.25c0.13-0.74,0.59-1.23,1.2-1.53c1.26-0.63,2.59-0.88,3.99-0.52
			c1,0.25,1.88,0.71,2.67,1.36c1.11,0.92,2.31,1.31,3.71,0.67c0.82-0.37,1.67-0.72,2.54-0.96c0.73-0.21,1.51-0.27,2.28-0.36
			c0.93-0.11,1.87-0.15,2.8-0.26c1.36-0.16,2.76-0.22,4.08-0.55c1.84-0.46,3.52-1.34,4.82-2.78c2.81-3.12,6.36-5.13,10.15-6.77
			c0.79-0.34,1.59-0.12,2.24,0.26c0.91,0.53,1.59,1.3,1.83,2.42c0.37,1.73,0.62,3.45,0.08,5.18c-0.48,1.53-1.26,2.88-2.49,3.96
			c-1.52,1.33-3.28,2.18-5.14,2.9c-2.87,1.11-5.84,1.87-8.85,2.36c-3.53,0.57-6.96,1.57-10.47,2.21c-1.31,0.24-2.67,0.17-4.01,0.26
			c-1.97,0.12-3.8-0.32-5.56-1.19c-1.35-0.67-2.75-1.25-4.09-1.95c-0.61-0.32-1.12-0.84-1.68-1.27
			C540.11,656.28,539.94,655.56,539.78,654.84z"/>
		<path class="st21" d="M611.05,626.06c0.48,1.66-0.13,3.22-0.87,4.82c-0.7,1.5-1.72,2.7-2.88,3.84c-1.61,1.57-3.15,3.22-4.77,4.78
			c-1.61,1.56-3.49,2.7-5.57,3.57c-2.01,0.84-4.04,0.93-6.12,0.46c-0.78-0.18-1.54-0.48-2.3-0.76c-1.25-0.46-1.87-1.4-1.88-2.71
			c-0.01-0.6,0.09-1.21,0.25-1.78c0.53-1.84,1.59-3.39,2.81-4.83c0.89-1.05,1.77-2.11,2.71-3.11c0.45-0.48,0.95-1,1.54-1.26
			c1.74-0.78,3.49-1.52,5.46-1.62c1.21-0.06,2.35-0.58,3.39-1.2c0.79-0.47,1.1-1.33,1.52-2.1c0.26-0.47,0.48-0.97,0.79-1.4
			c0.81-1.13,1.87-1.37,3.1-0.69C609.76,622.91,610.68,624.22,611.05,626.06z"/>
		<path class="st22" d="M565.03,615.05c1.78,0.19,3.47,0.28,5.12,0.56c1.11,0.19,2.19,0.62,3.26,1.01c0.31,0.11,0.53,0.47,0.77,0.69
			c-0.32,1.03-0.76,1.25-1.56,0.79c-1.32-0.76-2.73-1.1-4.24-1.16c-0.64-0.03-1.27-0.16-1.91-0.21c-0.63-0.05-1.27-0.05-1.99-0.08
			c-0.89,1.85-1.78,3.67-2.7,5.58c0.73,0.04,1.35,0.1,1.98,0.1c1.98,0,3.76,0.74,5.47,1.62c0.7,0.36,1.27,0.99,1.83,1.57
			c0.26,0.27,0.34,0.7,0.49,1.01c-0.57,0.62-0.82,0.68-1.34,0.34c-0.28-0.18-0.52-0.42-0.78-0.64c-2.09-1.81-4.55-2.53-7.28-2.44
			c-0.2,0.01-0.4,0.04-0.6,0.02c-0.68-0.06-1.14,0.26-1.52,0.8c-1.3,1.82-2.77,3.47-4.57,4.81c-0.58,0.43-1.18,0.62-1.89,0.46
			c-0.62-0.59-0.82-1.3-0.71-2.12c0.18-1.36,0.7-2.6,1.33-3.79c0.84-1.57,1.76-3.09,2.73-4.78c-0.68,0.42-1.22,0.79-1.79,1.11
			c-0.84,0.48-1.7,0.94-2.56,1.4c-0.17,0.09-0.38,0.14-0.57,0.15c-1.39,0.09-2.11-0.67-1.87-2.15c0.17-1.02,0.47-2.04,0.86-2.99
			c1.08-2.64,3.01-4.55,5.29-6.21c1.79-1.31,3.77-2.21,5.78-3.05c0.8-0.33,1.69-0.51,2.55-0.58c1.15-0.1,2.34-0.06,2.86,1.1
			c1.35,0.14,2.59,0.21,3.81,0.41c1.94,0.32,3.74,1.1,5.46,2.02c0.95,0.51,1,1.05,0.21,1.9c-0.32-0.12-0.71-0.21-1.04-0.42
			c-1.83-1.15-3.84-1.8-5.94-2.19c-0.72-0.13-1.47-0.06-2.21-0.05c-0.64,0.01-1.07,0.37-1.27,0.97c-0.28,0.83-0.54,1.67-0.81,2.5
			C565.48,613.76,565.26,614.39,565.03,615.05z M563.58,613.7c-0.96,1.21-1.89,2.44-2.89,3.61c-1.49,1.74-2.79,3.61-3.98,5.57
			c-0.84,1.39-1.54,2.83-2.05,4.36c-0.06,0.17-0.05,0.36-0.1,0.7c0.32-0.22,0.51-0.33,0.68-0.48c1.58-1.38,2.87-3,4.08-4.7
			c1.33-1.87,2.28-3.96,3.21-6.04C562.97,615.76,563.24,614.71,563.58,613.7c0.01-0.02,0.02-0.05,0.03-0.07
			C563.6,613.65,563.59,613.67,563.58,613.7z M565.43,608.48c-1.37-0.41-2.45,0.3-3.55,0.72c-2.31,0.89-4.38,2.21-6.21,3.87
			c-1.92,1.74-3.21,3.86-3.82,6.39c-0.06,0.23-0.02,0.48-0.03,0.78C556.07,618.51,564,611.34,565.43,608.48z"/>
		<path class="st22" d="M557.48,628.61c2.17-0.07,4.34,0.17,6.42,0.85c1,0.33,1.91,0.97,2.82,1.54c0.29,0.18,0.51,0.54,0.66,0.87
			c0.1,0.21,0.12,0.6,0,0.72c-0.18,0.18-0.54,0.27-0.8,0.24c-0.28-0.04-0.57-0.23-0.78-0.44c-1.08-1.05-2.4-1.61-3.85-1.84
			c-1.29-0.2-2.6-0.31-3.9-0.42c-0.4-0.03-0.75-0.08-0.93-0.45C556.89,629.25,557.09,628.91,557.48,628.61z"/>
		<path class="st22" d="M562.63,636.79c0.63,0.92,0.63,0.92,0.47,1.61c-0.3,0.27-0.66,0.33-1.01,0.11
			c-1.32-0.84-2.88-0.87-4.33-1.21c-0.81-0.19-1.66-0.25-2.49-0.28c-0.55-0.02-1.1,0.12-1.86,0.22c-0.06-0.05-0.28-0.24-0.44-0.37
			c-0.14-0.56,0.06-0.98,0.53-1.12c0.41-0.12,0.85-0.18,1.28-0.23c1.63-0.18,3.19,0.26,4.76,0.58
			C560.63,636.32,561.7,636.57,562.63,636.79z"/>
		<path class="st23" d="M576.72,624.25c-0.52,1.2-1.05,2.41-1.72,3.53c-1.15,1.91-2.75,3.47-4.25,5.11
			c-1.29,1.41-2.58,2.83-3.87,4.24c0.08,0.33,0.15,0.66,0.23,0.99c0.5,0.42,1.08,0.64,1.74,0.73c2.09,0.3,4.16,0.05,6.21-0.29
			c1.66-0.28,3.21-0.95,4.76-1.61c1.57-0.67,2.97-1.59,4.14-2.83c0.87-0.93,1.75-1.87,2.57-2.84c0.69-0.82,1.29-1.72,1.97-2.56
			c0.85-1.05,1.88-1.95,3.05-2.61c0.75-0.42,1.6-0.69,2.42-0.97c1.29-0.43,2.5-1,3.5-1.94c0.95-0.9,1.86-1.85,2.83-2.74
			c0.86-0.79,1.76-1.51,2.74-2.1c-0.16-0.27-0.31-0.56-0.44-0.86c-0.08-0.17-0.17-0.33-0.25-0.5c-0.7,0.4-1.37,0.84-1.97,1.39
			c-1.13,1.01-2.23,2.05-3.31,3.11c-0.8,0.79-1.66,1.47-2.73,1.86c-0.57,0.21-1.13,0.42-1.71,0.61c-2.05,0.67-3.7,1.92-5.07,3.53
			c-1.13,1.33-2.16,2.75-3.27,4.1c-1.1,1.34-2.34,2.56-3.87,3.36c-1.3,0.68-2.7,1.2-4.11,1.65c-2.06,0.65-4.22,0.83-6.38,0.83
			c-0.35,0-0.7-0.08-1.2-0.14c0.27-0.31,0.41-0.49,0.56-0.66c1.92-2.12,3.86-4.22,5.76-6.36c0.51-0.57,1-1.19,1.36-1.87
			c0.66-1.25,1.23-2.54,1.8-3.83c1.04-2.34,1.99-4.72,2.49-7.24c0.25-1.29,0.61-2.53,1.01-3.77c-0.15,0.07-0.3,0.12-0.44,0.2
			c-0.48,0.26-0.91,0.62-1.43,1.02c-0.26,0.9-0.5,1.81-0.68,2.74C578.69,619.87,577.66,622.05,576.72,624.25z"/>
	</g>
	<path class="st24" d="M626.81,218.57c0.57-1.1,6.55-34.17,6.55-34.17l-3.16-1.49c0,0-4.66,28.13-6.03,34.01
		c-0.31-0.33-0.75-0.55-1.34-0.55c-1.65,0-2.2,1.67-1.69,2.83c-0.03,0.01-0.05,0.02-0.08,0.03c-0.13-0.86-0.72-1.64-1.84-1.64
		c-1.82,0-2.3,2.02-1.51,3.16c-0.02,0.01-0.05,0.02-0.07,0.03c-0.21-0.74-0.8-1.35-1.79-1.35c-1.57,0-2.16,1.52-1.78,2.66
		c-0.31-0.45-0.82-0.76-1.53-0.76c-1.61,0-2.18,1.6-1.73,2.75c-0.27-0.18-0.6-0.3-1.02-0.3c-1.56,0-2.16,1.51-1.78,2.65
		c-0.26-0.16-0.58-0.26-0.98-0.26c-1.77,0-2.27,1.92-1.55,3.07c-0.26-0.16-0.57-0.25-0.96-0.25c-2.12,0-2.44,2.76-0.98,3.64
		c-0.02,0.02-0.04,0.04-0.06,0.06c-0.31-0.41-0.79-0.7-1.47-0.7c-2.09,0-2.42,2.67-1.05,3.59c-0.03,0.03-0.06,0.07-0.09,0.1
		c-0.31-0.44-0.8-0.75-1.5-0.75c-2.14,0-2.45,2.81-0.95,3.66c-0.02,0.03-0.05,0.05-0.07,0.08c-0.31-0.43-0.8-0.74-1.49-0.74
		c-1.83,0-2.31,2.04-1.49,3.18c-0.24-0.11-0.51-0.17-0.83-0.17c-1.85,0-2.33,2.1-1.47,3.22c-1.15-0.62-2.94-0.1-2.94,1.62v0.06
		c0,0.89,0.49,1.44,1.12,1.71c-0.19,0.25-0.38,0.5-0.55,0.72c0.01-0.08,0.04-0.14,0.04-0.22v-0.06c0-1.39-1.18-1.98-2.25-1.85
		c0.9-1.11,0.44-3.24-1.43-3.24c-0.47,0-0.82,0.17-1.12,0.39c-0.03-0.06-0.06-0.11-0.1-0.17c1.74-0.69,1.5-3.77-0.74-3.77
		c-0.51,0-0.9,0.19-1.2,0.45c-0.03-0.06-0.06-0.11-0.1-0.17c1.76-0.68,1.53-3.77-0.72-3.77c-0.57,0-0.99,0.22-1.3,0.52
		c-0.01-0.02-0.02-0.03-0.03-0.05c1.79-0.66,1.57-3.78-0.69-3.78c-0.62,0-1.09,0.24-1.41,0.6c-0.01-0.02-0.03-0.04-0.04-0.06
		c1.51-0.85,1.21-3.67-0.94-3.67c-0.56,0-0.98,0.21-1.29,0.52c1.46-0.87,1.16-3.64-0.97-3.64c-0.63,0-1.11,0.25-1.42,0.62
		c-0.03-0.03-0.06-0.07-0.09-0.11c1.35-0.93,1.02-3.57-1.06-3.57c-0.84,0-1.38,0.45-1.66,1.04c0.66-1.16,0.15-3-1.59-3
		c-1.04,0-1.62,0.67-1.81,1.45c-0.05-0.02-0.1-0.04-0.15-0.07c0.48-1.16-0.08-2.79-1.71-2.79h-0.06c-1.1,0-1.69,0.74-1.83,1.58
		c-0.03-0.01-0.06-0.02-0.09-0.03c0.47-0.84,0.39-1.94-0.71-2.51c-0.04-0.02-0.08-0.04-0.12-0.06c-1.39-0.72-2.68,0.32-2.92,1.48
		c-0.02-0.01-0.06-0.03-0.07-0.04c-0.73-1.29-8.52-35.48-8.52-35.48l-2.3,1.14c0,0,8.59,34.08,7.96,36.17
		c-0.36,1.19-4.3,12.3-4.3,13.36c0,1.06,4.94,15.73,5.31,16.65c0.36,0.89,26.77-1.07,30.04-2.03c1.75,0.92,43.59,2.96,43.96,2.04
		c0.37-0.92,3.13-16.38,3.13-17.44C636.41,233.62,626.24,219.67,626.81,218.57z"/>
	<g>
		<path class="st11" d="M607.57,505.51c9.5,40.55,25.78,87.12,41.21,126.54c2.38,6.08,17.99,21.87,12.2-14.4
			c-1.34-8.42-10.84-99.18-26.34-125.99C634.1,490.73,601.32,476.19,607.57,505.51z"/>
		<path class="st11" d="M648.47,622.36c0.57,12.77-11.66,31.75-20.27,33.35c-8.61,1.6-22.96,1.69-17.37,7.64
			c5.58,5.95,20.71,5.18,29.65,3.43c8.95-1.75,17.09-16.41,22.77-20.58c5.68-4.17,8.58-4.73,7.49-10.3
			c-1.1-5.57-4.07-8.67-7.55-13.7C659.71,617.16,653.12,616.61,648.47,622.36z"/>
		<path class="st20" d="M676.55,627.64c-0.37-0.58-0.88-0.74-1.48-0.86c-1.28-0.26-2.16-0.76-3-1.75c-0.84-0.98-1.69-1.66-2.73-2.47
			c-0.57-0.44-0.95-0.86-1.51-1.51c-0.56-0.66-1.53-1.61-2.4-1.99c-0.87-0.39-1.56-0.09-2.17,0.43c-0.61,0.52-0.98,1.01-1.48,1.55
			c-0.5,0.54-0.85,1.16-1.33,1.69c-1.05,1.15-2.17,1.88-3.69,2.23c-0.81,0.19-1.59,0.24-2.38,0.51c-1.32,0.45-2.58,0.9-3.76,1.73
			c-0.62,0.43-1.21,1.17-1.76,1.71c0.04-1.61-0.33-2.78-1.07-4.26c-0.74-1.48-1.66-3.03-2.89-4.23c-0.69-0.68-1.52-1.19-2.51-1.28
			c-2.59-0.24-4.78,0-7.01,1.41c-1.35,0.85-1.91,2.08-2.03,3.62c-0.12,1.54-0.45,3.26-0.83,4.65c-0.39,1.39-0.58,2.55-0.95,3.83
			s-0.76,2.54-1.36,3.63c-0.6,1.1-1.07,1.87-1.68,2.92c-2.18,3.75-5.23,5.65-9.12,7.52c-1.69,0.81-3.68,1.15-5.51,1.78
			c-1.24,0.43-2.1,0.82-3.24,1.74c-1.14,0.91-2.5,2-3.65,3.14c-1.15,1.14-2.47,2.29-3.23,3.83c-0.77,1.54-1.1,3.44-0.93,5.1
			c0.04,0.38,0.51,0.5,0.68,0.75c0.96,1.42,2.38,2.29,3.91,2.84c1.53,0.55,2.88,0.92,4.39,1.35c3.28,0.93,6.08,0.88,9.52,0.36
			c1.86-0.28,3.67-0.58,5.74-0.93c3.38-0.56,6.36-1.28,9.97-2.35c5.14-1.52,10.85-3.64,15.84-6.21c2.36-1.22,5.39-3.02,7.38-4.63
			c3.8-3.08,7.39-7.22,10.96-9.91s5.27-4.9,6.95-8.68c0.89-2,0.5-3.64-0.41-5.46C677.44,628.78,676.92,628.23,676.55,627.64z"/>
		<path class="st21" d="M600.16,662.38c0.03-0.61,0.4-0.71,0.57-1.31c0.17-0.6,0.78-1.16,1.44-1.36c1.36-0.41,2.85-0.37,4.06,0.21
			c1.21,0.58,1.63,1.02,2.55,2.01c0.92,0.99,2.03,1.72,3.53,1.33c0.88-0.23,1.77-0.46,2.66-0.56c0.88-0.1,1.39-0.03,2.34,0
			c0.95,0.03,1.58,0.14,2.8,0.18c1.22,0.03,2.7,0.25,4.26,0.18c2.18-0.1,4.11-0.75,6.39-1.64c4.93-1.92,10.62-3.35,15.79-4.71
			c1.07-0.28,1.77-0.33,2.72,0.16c0.95,0.49,1.54,1.15,1.28,2.39c-0.4,1.92-1,3.86-2.35,5.49c-1.36,1.63-2.7,2.92-4.77,3.91
			c-2.06,0.99-5.02,1.67-7.26,2.03c-3.44,0.56-6.67,0.78-10,0.77c-3.91-0.01-7.68,0.28-11.5,0.36c-1.43,0.03-2.62-0.23-3.98-0.41
			c-2-0.27-3.64-1.03-5.25-2.23c-1.24-0.92-2.58-1.82-3.73-2.82c-0.53-0.46-1.18-1.05-1.41-1.66
			C600.07,664.06,600.13,662.99,600.16,662.38z"/>
		<path class="st21" d="M682.35,631.05c0.71,1.68,0.55,3.37,0.05,5.09c-0.5,1.72-1.25,3.12-2.28,4.56c-1.43,2-2.57,3.84-4.12,5.87
			c-1.55,2.03-3.47,4.05-5.63,5.65c-2.16,1.6-4.78,2.63-7.44,3.15c-1.01,0.2-2.22,0.23-3.21,0.22c-1.63-0.02-2.27-0.69-2.21-2.26
			c0.03-0.72,0.24-1.32,0.48-2c0.77-2.18,2.01-4.2,3.16-6.22c0.84-1.47,1.68-2.98,2.52-4.43c0.4-0.7,0.84-1.42,1.39-1.94
			c1.62-1.57,3.34-3.02,5.31-3.97c1.21-0.59,2.39-1.43,3.27-2.13c0.87-0.7,0.92-1.64,1.23-2.33c0.32-0.68,0.28-1.04,0.62-1.5
			c0.86-1.21,1.51-1.8,3.15-1.36C680.26,627.91,681.64,629.37,682.35,631.05z"/>
		<path class="st22" d="M634.02,629.37c1.82,0.26,3.68,0.44,5.49,0.72c1.22,0.19,2.31,0.64,3.49,1c0.34,0.1,0.58,0.44,0.85,0.67
			c-0.2,0.9-0.58,1.42-1.49,0.99c-1.51-0.71-2.92-1.07-4.57-1.23c-0.7-0.07-1.37-0.23-2.07-0.31c-0.7-0.09-1.44-0.12-2.15-0.17
			c-0.82,1.91-1.62,3.77-2.67,5.56c0.69,0.11,1.51,0.26,2.19,0.33c2.15,0.24,4.07,0.98,5.91,1.96c0.75,0.4,1.62,1.27,2.01,1.7
			c0.39,0.43,0.68,0.84,0.6,1.11c-0.2,0.67-1.04,0.55-1.45,0.3c-0.41-0.25-0.6-0.49-0.9-0.72c-2.42-1.9-4.96-2.74-7.98-3.09
			c-0.22-0.03-0.46-0.02-0.67-0.05c-0.71-0.11-1.2,0.16-1.66,0.65c-1.56,1.67-3.38,2.96-5.46,3.79c-0.67,0.27-1.49,0.48-2.03,0.15
			c-0.63-0.39-0.59-0.96-0.31-1.66c0.45-1.17,0.93-2.06,1.77-3.29c0.84-1.23,2.04-3,2.75-4.47c-0.64,0.39-1.06,0.71-1.81,1.1
			c-0.74,0.39-1.77,0.9-2.6,1.29c-0.16,0.08-0.39,0.14-0.59,0.13c-1.43-0.06-2.15-0.75-2.02-2.23c0.09-1.02,0.31-2.09,0.73-3.03
			c1.14-2.61,2.73-4.6,5.04-6.28c1.81-1.33,3.8-2.1,5.87-3.05c0.82-0.37,1.58-0.52,2.64-0.61s2.39,0.08,3.03,1.2
			c1.33,0.14,2.7,0.15,3.99,0.38c2.06,0.36,3.91,1.08,5.81,1.9c1.04,0.45,0.94,1.11,0.4,1.97c-0.38-0.1-0.73-0.17-1.09-0.34
			c-2.04-0.98-4.1-1.73-6.33-2.11c-0.76-0.13-1.55-0.08-2.29,0c-0.73,0.07-1.03,0.36-1.23,1.1c-0.2,0.74-0.41,1.88-0.62,2.63
			C634.36,628.09,634.22,628.66,634.02,629.37z M632.35,627.87c-0.92,1.21-1.86,2.45-2.81,3.62c-1.42,1.75-2.64,3.66-4.04,5.4
			c-0.99,1.23-1.72,2.47-2.45,3.86c-0.08,0.15-0.18,0.37-0.23,0.55c0.22-0.11,0.61-0.19,0.8-0.32c1.77-1.21,3.26-2.36,4.67-4.05
			c1.42-1.69,2.35-3.83,3.17-5.95C631.84,630,632.07,628.89,632.35,627.87c0.01-0.02,0.03-0.07,0.02-0.07
			C632.37,627.8,632.36,627.85,632.35,627.87z M633.87,622.39c-1.32-0.31-2.47,0.24-3.62,0.71c-2.41,0.98-4.44,2.05-6.31,3.83
			c-1.87,1.78-2.9,3.96-3.56,6.45c-0.06,0.23,0.01,0.55,0,0.78C625.59,631.72,631.03,627.46,633.87,622.39z"/>
		<path class="st22" d="M625.77,642.14c2.44,0.33,4.74,0.77,7.04,1.67c1.11,0.43,2.06,1.16,3.02,1.82c0.31,0.21,0.52,0.62,0.61,0.9
			c0.09,0.28,0.12,0.53-0.13,0.69c-0.24,0.16-0.7,0.15-1.01,0.08c-0.31-0.07-0.58-0.28-0.8-0.51c-1.13-1.16-2.58-1.82-4.07-2.26
			c-1.49-0.44-2.89-0.71-4.34-1.02c-0.45-0.1-0.76-0.13-0.93-0.55C624.97,642.54,625.41,642.28,625.77,642.14z"/>
		<path class="st22" d="M629.32,649.95c0.21,0.56,0.48,0.98-0.1,1.4c-0.33,0.24-0.85,0.13-1.21-0.11c-1.35-0.93-2.97-1.39-4.51-1.96
			c-0.85-0.31-1.88-0.6-2.71-0.82c-0.82-0.22-1.43-0.15-2.21-0.35c-0.08-0.02-0.31-0.15-0.32-0.43s0.5-0.76,0.99-0.69
			c0.48,0.07,1.07,0.07,1.55,0.15c1.81,0.32,3.51,0.96,5.2,1.57C627.17,649.12,628.19,649.5,629.32,649.95z"/>
		<path class="st23" d="M647.25,639.22c-0.36,1.4-0.63,2.91-1.46,4.1c-1.43,2.04-3.49,3.41-5.51,4.66
			c-2.02,1.25-3.91,2.17-6.02,3.16c0.12,0.26-0.29,0.61-0.07,0.87c0.43,0.5,1.09,0.76,1.82,0.96c2.37,0.63,5.3,0.71,7.64,0.55
			c2.34-0.16,4.21-0.87,6.17-1.7c1.97-0.83,3.83-2.25,5.05-3.65c1.22-1.41,1.9-2.52,2.75-3.82s1.14-2.16,1.87-3.47
			c0.73-1.31,1.66-2.71,2.71-3.85c0.67-0.73,1.51-1.34,2.26-1.95c1.18-0.95,2.34-2.04,3.21-3.21c0.86-1.18,1.64-2.36,2.47-3.44
			c0.82-1.08,1.54-1.87,2.48-2.78c-0.18-0.1-0.41-0.48-0.55-0.56c-0.14-0.08-0.18-0.43-0.32-0.33c-0.61,0.44-1.28,1.15-1.79,1.8
			c-0.94,1.2-2.04,2.74-2.88,3.9c-0.84,1.16-1.48,1.94-2.48,2.8c-0.54,0.46-1.09,0.87-1.61,1.29c-1.86,1.49-3.43,3.54-4.55,5.49
			c-1.11,1.95-1.9,3.68-3.07,5.41c-1.17,1.73-2.63,3.38-4.37,4.33s-3.32,1.57-5.16,1.99c-2.7,0.61-5.26,0.44-8,0.18
			c-0.44-0.04-0.95-0.22-1.39-0.31c0.26-0.15,0.68-0.37,0.92-0.49c2.96-1.55,5.8-3.15,8.38-5.21c0.69-0.55,1.36-1,1.69-1.8
			c0.62-1.47,0.95-3.16,1.35-4.68c0.74-2.77,1.37-5.46,1.67-8.28c0.15-1.44,0.31-2.8,0.59-4.23c-0.22,0.22-0.2,0-0.46,0.32
			c-0.27,0.31-1.05,0.67-1.24,1.27c-0.28,0.86-0.28,1.99-0.42,3.01C648.6,634.1,647.92,636.67,647.25,639.22z"/>
	</g>
	<path class="st24" d="M631.35,291.49c-0.19-1.16-0.71-2.16-1.48-3.05c-0.46-0.53-1.19-0.29-1.51,0.22
		c-0.27-0.58-0.82-1.02-1.66-1.02c-1.56,0-2.15,1.49-1.78,2.64c-0.1,0-0.18-0.01-0.28-0.01c0.45-1.16-0.12-2.75-1.73-2.75
		c-0.99,0-1.58,0.61-1.79,1.35c-0.23-0.68-0.81-1.23-1.76-1.23c-1.1,0-1.69,0.75-1.83,1.59c-0.13-0.84-0.74-1.59-1.84-1.59
		c-0.94,0-1.53,0.55-1.77,1.23c-0.2-0.74-0.79-1.35-1.78-1.35c-1.47,0-2.06,1.33-1.81,2.44c-0.06,0-0.11,0-0.17,0
		c0.25-1.11-0.34-2.44-1.81-2.44h-0.12c-1.11,0-1.7,0.76-1.84,1.62c-0.12-0.85-0.72-1.62-1.84-1.62c-1.01,0-1.6,0.64-1.8,1.39
		c-0.08-0.91-0.7-1.76-1.87-1.76c-1.13,0-1.72,0.79-1.84,1.66c-0.15-0.82-0.75-1.54-1.83-1.54c-0.89,0-1.45,0.5-1.71,1.13
		c-0.25-0.64-0.82-1.13-1.71-1.13c-1.1,0-1.69,0.75-1.83,1.59c-0.13-0.84-0.74-1.59-1.84-1.59h-0.12c-1.49,0-2.07,1.36-1.81,2.47
		c-0.1,0-0.2,0-0.3,0c0.27-1.12-0.32-2.47-1.81-2.47c-1.1,0-1.69,0.75-1.83,1.59c-0.13-0.84-0.74-1.59-1.84-1.59
		c-1.47,0-2.06,1.32-1.82,2.43c-0.05,0-0.11,0-0.17,0c0.24-1.11-0.34-2.43-1.82-2.43c-1.46,0-2.05,1.31-1.82,2.42
		c-0.1,0-0.2,0-0.3,0c0.31-1.13-0.28-2.54-1.8-2.54c-1.1,0-1.69,0.75-1.83,1.59c-0.13-0.84-0.74-1.59-1.84-1.59
		c-1.5,0-2.09,1.39-1.8,2.52c-0.05,0-0.12,0-0.17,0c0.22-1.1-0.37-2.39-1.82-2.39c-1.45,0-2.04,1.29-1.82,2.39
		c-0.21,0-0.35,0-0.35,0c-6.18,11.06-17.18,41.54-18.06,56.16c29.35-0.32,50.46,29.43,50.46,29.43c-3.36-25.01,48-36.13,48-36.13
		S644.51,322.79,631.35,291.49z"/>
	<g>
		<path class="st21" d="M563.11,284.67c0.01-0.03,0.53-0.02,0.56-0.03c9.3-2.43,62.22-6,64.98-2.09
			c22.09,31.22,30.4,62.59,29.78,98.26c-0.53,30.52-12.72,60.66-13.51,90.77c-0.5,19.18,4.12,34.47,9.53,52.3
			c2.52,8.29,5.15,16.37,7.41,24.74c1.89,7,2.54,11.95-4.17,16.84c-7.61,5.54-16.83,11.02-26.43,12.62
			c-9.59,1.6-14.96-2.94-23.48-6.45c-4.99-2.05-10.95-1.77-16.41-1.96c-8.69-0.31-18.3,0.3-26.68-0.11
			c-6.74-0.33-9.01-0.3-11.29-7.32c-5.43-16.74-12.5-36.48-17.21-53.35c-9.01-32.31-2.7-63.66,2-94.79
			c3.07-20.33,6.77-33.41,8.5-53.77c1.18-13.91,2.93-31.46,7.46-45.63C557.37,304.63,559.73,294.52,563.11,284.67z"/>
	</g>
	<circle class="st25" cx="597.36" cy="295.04" r="2.78"/>
	<path class="st12" d="M523.19,253.9c0-0.84,0.06-1.69,0.16-2.51c0.55-4.86,1.94-9.64,1.93-14.53c-0.01-3.75-0.84-7.46-0.73-11.2
		c0.08-2.63,0.61-5.22,1.15-7.8c2-9.61,4.03-19.35,8.43-28.13c0.72-1.44,1.52-2.87,2.73-3.93c2.78-2.42,7.93-2.88,11.37-4
		c4.84-1.57,9.68-3.13,14.52-4.7c0.54-0.17,1.09-0.35,1.66-0.32c1.51,0.09,2.51,1.54,3.43,2.75c3.34,4.36,7.27,5.5,12.43,6.15
		c1.41,0.18,2.84,0.26,4.27,0.3c1.46,0.04,2.93-0.06,4.39-0.05c1.58,0.01,3.08-0.46,4.61-0.78c2.13-0.45,4.25-0.96,6.35-1.5
		c2.68-0.7,5.36-1.46,7.77-2.88c1.88-1.11,3.7-2.34,5.23-3.95c0.74-0.78,1.58-1.48,2.31-2.27c0.58-0.62,1.08-1.32,1.58-2.01
		c0.4-0.56,0.92-0.76,1.59-0.78c1.73-0.04,3.43-0.24,5.12-0.67c3.7-0.94,7.83-1.13,11.54-0.17c2.81,0.73,5.79,0.97,8.57,1.93
		c5.84,2.02,10.34,6.56,12.4,12.37c1.97,5.53,2.93,11.54,3.81,17.33c0.82,5.36,1.91,10.58,2.85,15.91c0.5,2.86,0.33,5.74,0.79,8.58
		c1.05,6.48,4.13,12.35,5.47,18.7c0.45,2.14,0.03,4.54-2.31,5.25c-1.43,0.44-2.45,0.21-3.93,0.88c-1.73,0.78-3.42,1.65-5.13,2.47
		c-1.72,0.83-3.48,1.67-5.38,1.93c-0.95,0.13-1.91,0.11-2.86,0.08c-3.14-0.07-8.44-1.3-11.2,0.46c-3.05,1.94-3.36,10.29-4.15,13.74
		c-0.34,1.5-0.68,3.01-0.71,4.55c-0.06,2.87,0.87,6.09-0.87,8.38c-1.04,1.37-2.84,1.99-4.56,2.02c-1.72,0.03-3.4-0.46-5.05-0.94
		c-5.5-1.61-10.99-3.43-16.6-4.58c-0.15-0.03-0.32-0.03-0.55-0.04c-0.1,0.29-0.2,0.56-0.29,0.83c-0.56,1.71-1.28,3.33-2.52,4.66
		c-0.67,0.72-1.28,1.51-2.01,2.17c-1.15,1.04-2.63,1.4-4.07,1.83c-1.62,0.49-3.3,0.5-4.94,0.27c-1.75-0.24-3.43-0.83-4.86-1.94
		c-1.65-1.29-3.08-2.77-3.83-4.8c-1.04-2.84,0.22-3.14-2.32-4.01c-2.69-0.92-6.9,0.26-9.61,0.69c-3.39,0.54-6.9,1.01-10.24,0.17
		c-3.33-0.83-6.49-3.27-7.15-6.65c-0.26-1.31-0.13-2.65-0.07-3.99c0.08-2.11,0.02-4.28-0.37-6.35c-1.99,0.8-3.33,1.61-5.64,1.92
		c-1.8,0.25-3.57-0.11-5.34-0.34c-4.58-0.6-15.7-1.4-18.24-6.13C523.43,256.95,523.2,255.44,523.19,253.9z"/>
	<path class="st26" d="M603.41,272.74c-0.8-1.46-2.07-2.49-3.53-3.19c-1.97-0.95-4.03-1.46-6.25-0.93
		c-2.26,0.53-4.36,1.41-6.13,2.91c-1.71,1.46-3.39,2.97-4.68,4.88c-0.68,1.01-1.37,2-1.9,3.17c0.4-0.05,0.79-0.1,1.19-0.15
		c0.11-0.01,0.22,0.01,0.34,0.03c0.1-0.23,0.21-0.45,0.35-0.65c1.09-1.52,2.17-3.03,3.55-4.33c1.54-1.46,3.1-2.82,5.07-3.62
		c1.45-0.58,2.89-1.21,4.51-0.96c1.76,0.27,3.41,0.71,4.79,2.01c0.91,0.86,1.65,1.77,2.1,2.93c0.08,0.21,0.22,0.41,0.31,0.62
		c0.75,1.65,1.49,3.31,2.24,4.96c0.02,0.04,0.04,0.08,0.06,0.12c0.06-0.18,0.13-0.37,0.2-0.56c0.23,0.02,0.39,0.01,0.55,0.04
		c0.21,0.04,0.42,0.09,0.63,0.13c-0.03-0.17-0.08-0.34-0.15-0.51C605.75,277.25,604.63,274.97,603.41,272.74z M624.94,170.96
		c-0.1,0.22-0.21,0.43-0.3,0.65c-0.58,1.47-1.04,2.99-1.66,4.45c-0.43,1.03-0.94,2.06-1.59,2.95c-1.23,1.7-2.59,3.31-3.91,4.95
		c-0.87,1.08-1.93,1.96-3.06,2.75c-1.15,0.8-2.25,1.72-3.47,2.39c-1.66,0.91-3.39,1.71-5.15,2.4c-3.57,1.4-7.27,2.24-11.09,2.55
		c-0.29,0.02-0.58,0.09-0.87,0.12c-1.17,0.11-2.33,0.27-3.5,0.3c-1.46,0.03-2.92-0.04-4.38-0.09c-1.39-0.06-2.79-0.09-4.18-0.25
		c-2.6-0.29-5.15-0.86-7.56-1.93c-1.19-0.53-2.37-1.1-3.49-1.78c-1.12-0.67-2.13-1.52-3.21-2.25c-1.37-0.92-2.64-1.93-3.64-3.27
		c-0.35-0.47-0.78-0.89-1.18-1.32c-1.15-1.25-2.29-2.52-3.16-3.98c-0.44,0.05-0.88,0.12-1.31,0.19c0.45,0.82,0.93,1.63,1.48,2.38
		c0.98,1.31,2.12,2.51,3.22,3.73c0.79,0.87,1.6,1.74,2.47,2.53c0.58,0.53,1.27,0.91,1.91,1.37c0.96,0.68,1.89,1.41,2.88,2.05
		c1.61,1.04,3.4,1.68,5.17,2.34c2.72,1.02,5.54,1.43,8.42,1.53c0.88,0.03,1.75,0.04,2.63,0.05c1.88,0.02,3.77,0.12,5.65,0
		c1.78-0.11,3.54-0.52,5.32-0.67c2.19-0.18,4.31-0.68,6.38-1.35c3.73-1.21,7.32-2.77,10.53-5.12c1.64-1.21,3.24-2.44,4.52-4.06
		c1-1.26,2.05-2.48,3.05-3.74c0.48-0.62,0.92-1.28,1.31-1.96c0.96-1.66,1.67-3.44,2.3-5.25c0.31-0.9,0.63-1.8,0.95-2.71
		c-0.33,0.01-0.66,0.03-0.98,0.04C625.28,170.95,625.11,170.95,624.94,170.96z"/>
	<path class="st27" d="M571.43,174.19c1.09-0.33,1.26-0.23,1.59,0.57c0.95,2.29,2.05,4.5,3.43,6.57c0.75,1.12,1.39,2.32,2.11,3.46
		c0.72,1.14,1.47,2.27,2.25,3.37c1.29,1.83,2.67,3.58,4.24,5.18c1.03,1.05,1.95,2.23,3.03,3.22c1.06,0.97,2.24,1.81,3.4,2.66
		c0.87,0.64,1.79,1.21,2.71,1.78c0.32,0.2,0.71,0.3,1.1,0.46c0.44-2.19,2.85-3.54,3.67-3.55c0.62,0,1.24-0.07,1.85-0.01
		c1.27,0.11,2.22,0.87,3,1.95c1.23-0.94,2.24-2.06,3.11-3.27c1.1-1.55,2.22-3.1,2.91-4.91c0.38-1.02,0.85-2,1.24-3.02
		c0.76-2,1.61-3.99,2.22-6.04c0.99-3.32,1.86-6.68,2.31-10.14c0.1-0.75,0.07-1.51,0.1-2.27c0-0.1-0.01-0.2-0.01-0.3
		c0.05-0.6,0.41-1.02,0.87-1.01c0.5,0.01,0.92,0.51,0.87,1.12c-0.18,2.5-0.3,5.01-1,7.44c-0.7,2.41-1.2,4.89-2.01,7.26
		c-1.2,3.53-2.49,7.05-4.35,10.29c-1.17,2.05-2.54,3.99-4.42,5.48c-0.28,0.22-0.54,0.49-0.73,0.8c-0.14,0.23-0.22,0.56-0.18,0.82
		c0.31,2.08-0.33,3.75-1.98,5.03c-1.46,1.13-4.65,1.13-6.1-0.05c-0.88-0.72-1.24-1.76-1.47-2.84c-0.07-0.32-0.08-0.64-0.1-0.84
		c-0.99-0.49-1.91-0.84-2.73-1.37c-1.29-0.83-2.52-1.76-3.75-2.68c-0.79-0.59-1.57-1.19-2.28-1.87c-0.87-0.84-1.68-1.75-2.48-2.66
		c-0.99-1.14-2-2.27-2.91-3.47c-1.18-1.54-2.35-3.1-3.38-4.74c-1.46-2.32-2.84-4.69-4.15-7.09c-0.73-1.33-1.28-2.75-1.87-4.15
		C571.43,175.02,571.47,174.6,571.43,174.19z M596.74,203.57c0.1,0.95,0.45,1.77,1.25,2.27c0.84,0.52,1.82,0.59,2.73,0.35
		c1.93-0.51,2.87-2.72,2.04-4.55c-0.54-1.22-1.37-1.88-2.77-1.89C598.35,199.74,596.79,200.21,596.74,203.57z"/>
	<path class="st20" d="M573.44,172.31c0.08-0.65,0.35-0.97,0.92-1.05c0.8,0.37,1.19,1.18,1.67,1.87c1.05,1.51,1.97,3.13,3.08,4.59
		c1.63,2.14,3.1,4.42,5.12,6.24c0.63,0.57,1.1,1.31,1.72,1.89c2.17,1.99,4.61,3.56,7.28,4.76c2.47,1.11,4.69,0.62,6.73-1.06
		c1.45-1.19,2.63-2.62,3.81-4.08c1.67-2.06,2.96-4.34,4.22-6.64c0.58-1.06,1-2.22,1.47-3.34c0.59-1.43,1.2-2.86,1.7-4.33
		c0.37-1.09,0.56-2.23,0.85-3.44c0.06-0.04,0.17-0.17,0.31-0.24c0.72-0.32,1.32,0.11,1.25,0.9c-0.15,1.56-0.55,3.05-1.11,4.5
		c-0.63,1.6-1.22,3.21-1.92,4.78c-1.21,2.71-2.62,5.32-4.36,7.72c-1.06,1.46-2.21,2.86-3.46,4.17c-1.24,1.31-2.68,2.41-4.41,3.01
		c-1.86,0.64-3.72,0.5-5.53-0.21c-1.96-0.77-3.74-1.87-5.49-3.03c-1.65-1.09-2.95-2.55-4.32-3.97c-1.28-1.33-2.47-2.73-3.53-4.24
		c-1.64-2.35-3.21-4.74-4.82-7.11C574.22,173.4,573.8,172.82,573.44,172.31z"/>
	<g>
		<g>
			<path class="st26" d="M552.21,220.01c0.15,14.42-0.29,28.82-1.33,43.2c-0.02,0.33,0.49,0.33,0.51,0
				c1.03-14.38,1.48-28.78,1.33-43.2C552.72,219.69,552.21,219.68,552.21,220.01L552.21,220.01z"/>
		</g>
	</g>
	<g>
		<g>
			<path class="st26" d="M526.81,254.74c6.3,5.06,15.79,5.79,23.56,5.67c0.33,0,0.33-0.51,0-0.51c-7.57,0.11-17.05-0.58-23.2-5.52
				C526.92,254.18,526.55,254.54,526.81,254.74L526.81,254.74z"/>
		</g>
	</g>
	<g>
		<g>
			<path class="st26" d="M545.52,257.82c1.46,0.52,2.98,0.42,4.37-0.26c0.29-0.14,0.04-0.58-0.26-0.44
				c-1.27,0.62-2.65,0.69-3.98,0.21C545.34,257.21,545.21,257.71,545.52,257.82L545.52,257.82z"/>
		</g>
	</g>
	<g>
		<g>
			<path class="st26" d="M545.03,254.62c1.15,0.33,2.29,0.65,3.44,0.98c0.32,0.09,0.45-0.4,0.14-0.49
				c-1.15-0.33-2.29-0.65-3.44-0.98C544.85,254.03,544.71,254.53,545.03,254.62L545.03,254.62z"/>
		</g>
	</g>
	<g>
		<g>
			<path class="st26" d="M541.51,188.31c1.53-0.38,3.75,5.87,4.06,6.71c0.77,2.1,1.35,4.26,1.93,6.42c0.09,0.32,0.58,0.18,0.49-0.14
				c-0.86-3.17-1.72-6.37-3.15-9.34c-0.54-1.12-1.77-4.55-3.47-4.14C541.06,187.9,541.19,188.39,541.51,188.31L541.51,188.31z"/>
		</g>
	</g>
	<g>
		<g>
			<path class="st26" d="M634.88,213.31c1.81,7.25,3.46,14.46,3.33,21.97c-0.13,7.26-0.36,14.31,0.52,21.55
				c0.04,0.32,0.55,0.33,0.51,0c-0.97-7.9-0.42-15.57-0.51-23.48c-0.08-6.88-1.7-13.55-3.36-20.18
				C635.29,212.85,634.8,212.99,634.88,213.31L634.88,213.31z"/>
		</g>
	</g>
	<g>
		<g>
			<path class="st26" d="M638.96,250.73c2.06,2.04,4.63,1.96,7.21,0.87c3.03-1.28,5.63-2.68,8.84-3.63c2.66-0.79,5.2-1.77,7.74-2.88
				c0.3-0.13,0.04-0.57-0.26-0.44c-3.67,1.59-7.36,2.33-11.05,3.72c-3.73,1.4-8.19,5.89-12.12,2
				C639.09,250.14,638.73,250.5,638.96,250.73L638.96,250.73z"/>
		</g>
	</g>
	<g>
		<g>
			<path class="st26" d="M641,249.01c1.62,0.36,3.24,0.26,4.8-0.29c0.31-0.11,0.17-0.6-0.14-0.49c-1.48,0.53-2.99,0.63-4.53,0.29
				C640.82,248.45,640.68,248.94,641,249.01L641,249.01z"/>
		</g>
	</g>
	<g>
		<g>
			<path class="st26" d="M632.29,189.33c0.23-5.8,4.11-10.96,7.05-15.75c0.17-0.28-0.27-0.54-0.44-0.26c-3,4.9-6.88,10.06-7.12,16
				C631.77,189.66,632.28,189.65,632.29,189.33L632.29,189.33z"/>
		</g>
	</g>
	<g>
		<g>
			<path class="st26" d="M618.2,271.92c3.55-9.2,6.95-18.43,7.97-28.3c0.03-0.33-0.48-0.32-0.51,0c-1.02,9.84-4.41,19-7.96,28.17
				C617.59,272.09,618.09,272.23,618.2,271.92L618.2,271.92z"/>
		</g>
	</g>
	<g>
		<g>
			<path class="st26" d="M621.86,272.72c0.86-1.77,1.61-3.58,2.24-5.44c0.11-0.31-0.39-0.45-0.49-0.14
				c-0.62,1.82-1.34,3.59-2.18,5.32C621.28,272.76,621.72,273.01,621.86,272.72L621.86,272.72z"/>
		</g>
	</g>
	<g>
		<g>
			<path class="st26" d="M562.04,238.21c-0.62,12.01,7.74,21.27,11.57,32.06c0.11,0.31,0.6,0.17,0.49-0.14
				c-3.82-10.73-12.17-19.97-11.55-31.92C562.57,237.89,562.06,237.89,562.04,238.21L562.04,238.21z"/>
		</g>
	</g>
	<g>
		<g>
			<path class="st26" d="M574.39,262.58c1.01,2.09,1.69,4.26,2.05,6.56c0.05,0.32,0.54,0.19,0.49-0.14
				c-0.37-2.33-1.08-4.55-2.1-6.68C574.69,262.03,574.25,262.29,574.39,262.58L574.39,262.58z"/>
		</g>
	</g>
	<g>
		<g>
			<path class="st26" d="M555.99,270.93c-0.67,1.3,1.55,2.6,2.48,2.98c3.16,1.29,6.66-0.05,9.9,0.83c0.32,0.09,0.45-0.41,0.14-0.49
				c-1.81-0.49-3.53-0.39-5.39-0.31c-1.07,0.05-2.13,0.09-3.19-0.13c-0.68-0.14-4.17-1.3-3.49-2.62
				C556.58,270.9,556.14,270.64,555.99,270.93L555.99,270.93z"/>
		</g>
	</g>
	<g>
		<g>
			<path class="st26" d="M626.66,175.58c-2.2,5.17-5.72,9.47-10.36,12.63c-0.36,0.24-0.02,0.83,0.34,0.59
				c4.74-3.22,8.36-7.6,10.6-12.88C627.42,175.52,626.83,175.18,626.66,175.58L626.66,175.58z"/>
		</g>
	</g>
	<g>
		<g>
			<path class="st26" d="M562.32,188.04c3.31,2.94,7.05,5.18,11.2,6.72c0.41,0.15,0.59-0.5,0.18-0.66c-4.05-1.5-7.67-3.68-10.9-6.54
				C562.48,187.27,561.99,187.75,562.32,188.04L562.32,188.04z"/>
		</g>
	</g>
	<g>
		<path class="st17" d="M599.12,105.95c6.81-1.28,13.14-4.73,16.11-11.22c2.02,31.42-3.07,62.8-2.8,94.23
			c0.01,1.26,0.2,2.79,1.36,3.28c3.4-4.64,7.19-8.59,9.97-13.78c2.7-5.03,4.84-10.34,6.95-15.63c3.69-9.24,7.42-18.61,8.57-28.5
			c1.21-10.44-0.52-21.01-2.9-31.24c-0.76-3.28-1.6-6.57-3.11-9.57c-1.86-3.72-4.76-6.96-8.26-9.21c-1.38-0.88-3.43-1.18-4.62-2.14
			c-1.4-1.14-1.85-3.03-2.95-4.41c-2.36-2.95-5.45-5.32-8.83-6.99c-5.58-2.76-11.92-3.72-18.14-3.64
			c-7.71,0.09-15.6,1.81-21.89,6.25c-3.82,2.7-6.93,6.3-9.62,10.13c-2.88,4.09-5.39,8.57-6.37,13.48s-0.31,10.31,2.67,14.33
			c2.11,2.84,5.26,4.9,6.77,8.09c0,0,0,0.01,0,0.01c1.23,2.59,1.41,5.42,2.92,7.88c2.04-2.04,0.58-6.18,2.1-9.37
			c1.99-4.17,6.45-7.28,10.71-8.73c0.61-0.21,1.23-0.39,1.85-0.56C585.93,106.92,592.67,107.16,599.12,105.95z"/>
	</g>
	<g>
		<g>
			<pattern  id="SVGID_2_" xlink:href="#New_Pattern_Swatch_2" patternTransform="matrix(1.7099 0 0 1.7099 5746.4243 4745.0107)">
			</pattern>
			<path class="st28" d="M596.56,121.55c-0.59,3.38-0.94,7.17,0.51,10.39c0.66,1.46,1.59,2.24,2.64,3.41
				c0.67,0.74,1.58,0.91,1.18,2.25c-0.62,2.08-4.35,2.81-6.01,2.7c-0.76-0.05-0.76,1.13,0,1.18c2.45,0.16,8.04-1.51,7.71-4.99
				c-0.09-0.9-0.63-1.01-1.25-1.54c-4.17-3.56-4.55-7.86-3.64-13.09C597.83,121.12,596.69,120.8,596.56,121.55L596.56,121.55z"/>
		</g>
	</g>
	<g>
		<g>
			<path class="st29" d="M573.04,557.91c10.91,4.18,22.36-1.89,33.44,1.15c0.56,0.15,0.8-0.72,0.24-0.87
				c-11.09-3.04-22.56,3.02-33.44-1.15C572.74,556.82,572.5,557.7,573.04,557.91L573.04,557.91z"/>
		</g>
	</g>
	<g>
		<g>
			<path class="st29" d="M626.75,559.17c7.94-1.19,16.5-3.51,24.53-2.4c0.57,0.08,0.82-0.79,0.24-0.87
				c-8.21-1.13-16.91,1.19-25.01,2.4C625.93,558.38,626.18,559.26,626.75,559.17L626.75,559.17z"/>
		</g>
	</g>
	<g>
		<g>
			<path class="st29" d="M595.92,305.21c-2.85,25.46,4.53,50.78,1.46,76.23c-0.07,0.58,0.84,0.57,0.91,0
				c3.07-25.45-4.3-50.77-1.46-76.23C596.89,304.63,595.98,304.64,595.92,305.21L595.92,305.21z"/>
		</g>
	</g>
	<g>
		<g>
			<path class="st29" d="M602.39,296.17c0.36,4.66,4.62,27.01-2.08,28.34c-0.57,0.11-0.33,0.99,0.24,0.87
				c3.87-0.77,4.51-4.16,4.39-7.65c-0.25-7.18-1.09-14.39-1.64-21.56C603.25,295.59,602.34,295.59,602.39,296.17L602.39,296.17z"/>
		</g>
	</g>
	<g>
		<g>
			<path class="st29" d="M544.37,420.52c11.34,6.23,24.07,5.51,36.52,4.07c0.57-0.07,0.58-0.97,0-0.91
				c-12.26,1.41-24.88,2.2-36.07-3.95C544.31,419.46,543.86,420.24,544.37,420.52L544.37,420.52z"/>
		</g>
	</g>
	<g>
		<g>
			<path class="st29" d="M550.05,429.96c-0.09,0.1-0.19,0.2-0.28,0.3c-0.27,0.3-0.07,0.75,0.32,0.77c6.13,0.35,12.19,0,18.25-1.03
				c0.57-0.1,0.33-0.97-0.24-0.87c-5.98,1.02-11.95,1.34-18.01,1c0.11,0.26,0.21,0.52,0.32,0.77c0.09-0.1,0.19-0.2,0.28-0.3
				C551.09,430.17,550.45,429.53,550.05,429.96L550.05,429.96z"/>
		</g>
	</g>
	<g>
		<g>
			<path class="st29" d="M643.37,447.94c-8.66,2.87-17.52,3.78-26.58,2.74c-0.58-0.07-0.57,0.84,0,0.91
				c9.16,1.05,18.08,0.13,26.83-2.77C644.16,448.63,643.92,447.75,643.37,447.94L643.37,447.94z"/>
		</g>
	</g>
	<g>
		<g>
			<path class="st30" d="M618.25,293.48c1.84,8.52,12.56,13.87,20.7,13.3c0.75-0.05,0.76-1.23,0-1.18
				c-7.61,0.53-17.83-4.44-19.56-12.43C619.22,292.43,618.09,292.74,618.25,293.48L618.25,293.48z"/>
		</g>
	</g>
	<g>
		<g>
			<path class="st29" d="M575.38,291.34c-4.15,9.14-10.18,18.02-20.65,20.16c-0.57,0.12-0.33,0.99,0.24,0.87
				c10.68-2.19,16.95-11.21,21.19-20.57C576.41,291.27,575.63,290.81,575.38,291.34L575.38,291.34z"/>
		</g>
	</g>
	<g>
		<g>
			<path class="st29" d="M564.87,287.36c2.51-0.09,5.01-0.29,7.49-0.7c3.34-0.54,6.6-1.73,9.99-0.84c0.56,0.15,0.8-0.72,0.24-0.87
				c-2.38-0.63-4.55-0.32-6.93,0.15c-3.59,0.7-7.13,1.23-10.8,1.36C564.29,286.47,564.29,287.38,564.87,287.36L564.87,287.36z"/>
		</g>
	</g>
	<g>
		<g>
			<path class="st30" d="M607.55,285.06c5.76-0.2,10.89,2.9,16.79,2.19c0.75-0.09,0.75-1.27,0-1.18c-5.91,0.71-11.02-2.4-16.79-2.19
				C606.8,283.91,606.79,285.09,607.55,285.06L607.55,285.06z"/>
		</g>
	</g>
	<g>
		<g>
			<path class="st17" d="M565.64,88.15c8.07-8.64,19.83-12.49,31.44-10.15c1.52,0.31,2.17-2.02,0.64-2.33
				c-12.45-2.51-25.11,1.48-33.8,10.77C562.87,87.58,564.57,89.29,565.64,88.15L565.64,88.15z"/>
		</g>
	</g>
	<g>
		<g>
			<path class="st10" d="M631.85,118.1c0.58,10.63-2.5,20.64-5.76,30.62c-0.19,0.58,0.72,0.82,0.91,0.25
				c3.29-10.06,6.37-20.17,5.79-30.87C632.76,117.5,631.82,117.49,631.85,118.1L631.85,118.1z"/>
		</g>
	</g>
	<g>
		<g>
			<path class="st10" d="M628.06,113.86c0.12,4.67-0.12,9.31-0.71,13.94c-0.08,0.6,0.86,0.59,0.94,0c0.59-4.63,0.83-9.27,0.71-13.94
				C628.98,113.26,628.04,113.26,628.06,113.86L628.06,113.86z"/>
		</g>
	</g>
	<g>
		<g>
			<path class="st10" d="M609.66,83.73c-8.77-9.35-22.42-6.55-32.57-1.1c-11.08,5.95-19.42,16.27-19.85,29.18
				c-0.01,0.43,0.66,0.43,0.67,0c0.41-12.05,7.92-21.93,18.12-27.82c10.04-5.8,24.18-9.33,33.15,0.22
				C609.48,84.52,609.96,84.04,609.66,83.73L609.66,83.73z"/>
		</g>
	</g>
	<g>
		<g>
			<path class="st10" d="M574.39,79.52c5.03-2.44,10.31-3.75,15.9-3.95c0.43-0.02,0.43-0.69,0-0.67
				c-5.69,0.21-11.11,1.56-16.24,4.04C573.66,79.12,574,79.7,574.39,79.52L574.39,79.52z"/>
		</g>
	</g>
	<g>
		<g>
			<path class="st10" d="M561.3,149.34c1.09,6.25,3.78,11.85,7.96,16.63c0.29,0.33,0.76-0.15,0.47-0.47
				c-4.11-4.7-6.72-10.18-7.79-16.33C561.88,148.74,561.23,148.92,561.3,149.34L561.3,149.34z"/>
		</g>
	</g>
	<g>
		<g>
			<path class="st10" d="M566.02,151.48c1.4,4.55,3.3,8.86,5.72,12.96c0.22,0.37,0.8,0.03,0.58-0.34c-2.39-4.05-4.27-8.31-5.65-12.8
				C566.54,150.89,565.89,151.06,566.02,151.48L566.02,151.48z"/>
		</g>
	</g>
	<path class="st11" d="M679.05,179.27c-0.4,0.07-0.64,0.49-0.5,0.87c0.65,1.81,1.41,5.25,0.95,7.07
		c-0.53,2.09-3.59,13.04-1.52,20.69c0,0,1.88,2.46-0.91,9.96c-2.64,7.09-11.18,35.07-21.87,46.84c-7.43,8.19-4.94,33.81,5.19,29.5
		c11.56-4.93,17.34-16.73,18.8-24.1c1.46-7.37,5.04-46.24,14.88-52.84c0.4-0.27,10.77-8.58,12.42-9.69c0,0,12.46-4.33,13.68-4.36
		c1.21-0.03,0.73-3.8-4.97-2.27c-5.71,1.53-8.64,1.37-8.97,0.93c-0.33-0.45-0.48-1.31-0.48-1.31s5.82-4.62,7.01-5.91
		c1.2-1.29,6.1-5.78,7.03-6.24c0.92-0.46-0.41-4.28-3.92-1.68c-3.51,2.59-7.19,5.56-8.96,6.71c-1.78,1.14-2.41,2.33-2.9,1.93
		c-0.49-0.4-0.48-0.3,0.3-1.2c0.78-0.9,6.14-6.77,7.64-9.26c1.5-2.49,4.05-4.82,4.85-5.76c0.79-0.94-0.27-4.28-4.08-1.35
		c-3.81,2.93-11.96,13.56-12.58,13.55c-0.62-0.01-1.46-0.82-0.97-2.01c0.49-1.19,4.08-8.3,4.65-9.1c1.43-1.99,3.5-5.34,4.47-6.37
		c0.97-1.03-0.99-3.55-4.45-0.22c-3.46,3.33-9.53,13.5-10.08,14.57c-0.55,1.07-5.63,5.08-6.93,5.79c-1.15,0.63-2.96-0.59-2.39-2.82
		C685.4,187.38,686.23,178.03,679.05,179.27z"/>
	<path class="st11" d="M529.89,177.49c0.5,0.16,0.74,0.72,0.49,1.18c-0.95,1.72-2.21,4.86-2.07,6.68c0.16,2.16,1.3,13.52-2.07,20.73
		c0,0-0.95,2.69-1.97,10.66c-1.26,9.87,11.39,39.46,15.27,49.43c5.42,13.91-1.55,34.33-10.82,28.31
		c-10.58-6.87-14.26-19.44-14.43-26.98c-0.17-7.55-2.34-53.08-4.41-55.01c-0.36-0.33-10.35-10.28-11.79-11.67
		c0,0-11.58-6.43-12.77-6.68c-1.2-0.24-0.07-3.89,5.31-1.39c5.38,2.5,8.31,2.85,8.72,2.47c0.41-0.38,0.7-1.22,0.7-1.22
		s-4.95-5.57-5.92-7.06c-0.96-1.48-5.04-6.77-5.87-7.39c-0.83-0.62,1.15-4.16,4.17-0.99s6.15,6.74,7.71,8.18
		c1.56,1.44,1.98,2.72,2.54,2.41c0.56-0.31,0.52-0.22-0.09-1.24c-0.62-1.02-4.91-7.76-5.96-10.48c-1.05-2.72-3.18-5.47-3.8-6.53
		c-0.62-1.07,1-4.18,4.27-0.63c3.26,3.55,9.48,15.48,10.1,15.57c0.62,0.09,1.59-0.56,1.31-1.82c-0.28-1.26-2.6-8.92-3.03-9.8
		c-1.07-2.21-2.54-5.89-3.32-7.07c-0.78-1.18,1.59-3.34,4.44,0.55c2.85,3.89,7.09,15,7.45,16.15c0.36,1.15,4.53,6.25,5.85,6.93
		c1.76,0.9,2.6-0.81,2.61-2.75C522.51,185.54,523.23,175.33,529.89,177.49z"/>
	<g>
		<path class="st17" d="M586.87,125.34c0.52,1.79-0.01,3.52-1.18,3.86c-2.43,0.71-2.84-2.61-4.17-3.56
			c-0.17-0.12-0.74-0.03-0.92-0.11c-0.27-0.11-0.28-0.44-0.06-0.63c0.56-0.48,1.57-1.04,2.23-1.28
			C584.68,122.93,586.27,123.28,586.87,125.34z"/>
		<path class="st17" d="M603.83,125.84c-0.28,1.59,0.33,3.03,1.37,3.22c2.16,0.38,2.21-2.51,3.26-3.45
			c0.13-0.12,0.64-0.09,0.78-0.18c0.22-0.12,0.2-0.41-0.01-0.55c-0.52-0.36-1.44-0.75-2.04-0.9
			C605.5,123.56,604.16,124.01,603.83,125.84z"/>
	</g>
	
		<pattern  id="SVGID_3_" xlink:href="#New_Pattern_Swatch_2" patternTransform="matrix(1.7087 0.0632 -0.0536 1.45 5487.7871 3485.7407)">
	</pattern>
	<path class="st31" d="M589.62,145.21c-2.36-0.34-4.58-0.34-6.74,0.55c-2.22,0.92-3.83,4.13-0.86,4.86
		c1.48,0.36,4.12,1.64,5.34,2.43c0.99,0.65,4.18,2.86,5.23,3.15c0.14,0.04,0.04-0.48,0.03-0.51c-0.1-0.24-0.34-0.44-0.55-0.61
		c-0.47-0.41-1.01-0.74-1.48-1.15c0.59-0.01,0.69,0.03,1.03-0.42c0.62-0.8,2.42-3.59,3.38-4.83c0.21-0.27,0.65-0.35,1-0.19
		c0.85,0.4,1.06,0.53,1.44,0.75c-0.08-0.72-1.62-1.56-2.24-1.92C594.59,146.97,590.99,145.4,589.62,145.21z"/>
	<path class="st11" d="M524.26,216.73c-1.26,9.87,10.67,39.77,15.27,49.43c9.13,19.14-1.55,34.33-10.82,28.31"/>
</g>
<line class="st56" x1="755.44" y1="243.88" x2="755.44" y2="25.24"/>
<g>
	
		<ellipse transform="matrix(0.9913 -0.1315 0.1315 0.9913 -27.3222 101.6357)" class="st32" cx="755.75" cy="257.65" rx="14.58" ry="19.29"/>
	<path class="st33" d="M770.18,253.28c-0.05-0.48-0.12-0.96-0.19-1.44c-3.79-4.36-9.44-8.15-15.36-7.67
		c-5.92,0.48-10.8,5.13-13.64,10.03c0.02,0.48,0.05,0.96,0.1,1.44c1.09,10.6,8.49,18.66,16.52,18
		C765.65,273,771.27,263.88,770.18,253.28z"/>
	<path class="st34" d="M770.29,256.47c-0.05-0.48-0.12-0.96-0.19-1.44c-3.79-4.36-9.36-6.93-15.29-6.45
		c-5.92,0.48-10.87,3.9-13.71,8.8c0.02,0.48,0.05,0.96,0.1,1.44c1.09,10.6,8.49,18.66,16.52,18
		C765.76,276.18,771.38,267.06,770.29,256.47z"/>
	
		<ellipse transform="matrix(0.6238 -0.7816 0.7816 0.6238 62.2713 697.139)" class="st34" cx="755.34" cy="283.88" rx="11.78" ry="12.04"/>
	<path class="st34" d="M750.21,303.76c-1.69-0.14-3-1.63-2.89-3.31l0.31-5.14c0.1-1.68,1.57-2.95,3.26-2.81
		c1.69,0.14,3,1.63,2.89,3.31l-0.31,5.14C753.37,302.63,751.9,303.9,750.21,303.76z"/>
	<path class="st34" d="M756.52,304.27c-1.69-0.14-3-1.63-2.89-3.31l0.31-5.14c0.1-1.68,1.57-2.95,3.26-2.81
		c1.69,0.14,3,1.63,2.89,3.31l-0.31,5.14C759.68,303.15,758.21,304.41,756.52,304.27z"/>
	<polygon class="st34" points="750.84,273 747.24,275.96 741.69,269.33 745.29,266.37 	"/>
	<polygon class="st34" points="745.29,266.37 741.69,269.33 735.6,262.07 739.74,259.74 	"/>
	<polygon class="st34" points="746.36,276.77 744.46,281.03 736.61,277.43 738.5,273.17 	"/>
	<polygon class="st33" points="738.5,273.17 736.61,277.43 727.99,273.49 730.65,269.58 	"/>
	<polygon class="st34" points="745.3,281.65 744.3,286.22 735.92,284.25 736.91,279.68 	"/>
	<polygon class="st33" points="736.91,279.68 735.92,284.25 726.72,282.09 728.52,277.71 	"/>
	<polygon class="st33" points="739.77,259.72 735.6,262.07 732.44,253.09 736.89,251.61 	"/>
	<path class="st32" d="M731.36,229.52c-0.15,0.2-0.25,0.44-0.27,0.69L729.57,245l2.88,8.1l4.45-1.48l-2.87-8.08l-0.11-13.14
		C733.91,229.05,732.17,228.45,731.36,229.52z"/>
	<path class="st32" d="M728.55,277.72l-7.16-0.11l0-0.03l-13.81,5.47c-0.24,0.09-0.44,0.25-0.59,0.45
		c-0.81,1.07,0.24,2.58,1.54,2.22l12.53-3.42l6.54,0.12L728.55,277.72z"/>
	<polygon class="st34" points="743.47,285.85 747.6,288.21 743.46,295.6 739.33,293.24 	"/>
	<polygon class="st33" points="739.33,293.24 743.46,295.6 738.92,303.7 735.18,300.63 	"/>
	<path class="st32" d="M735.2,300.61l-2.04,6.83l1.55,14.79c0.03,0.25,0.12,0.5,0.27,0.7c0.81,1.1,2.55,0.57,2.55-0.78l0.13-13.24
		l1.69-6.02L735.2,300.61z"/>
	<polygon class="st34" points="766.82,284.85 762.44,286.52 765.66,294.5 770.03,292.84 	"/>
	<polygon class="st33" points="770.03,292.84 765.66,294.5 769.18,303.26 773.25,300.82 	"/>
	<path class="st32" d="M773.23,300.79l-4.4,1.59l1.01,6.34l-1.52,13.02c-0.16,1.34,1.5,2.15,2.43,1.19c0.18-0.18,0.3-0.4,0.36-0.65
		l3.34-14.45l-0.03,0.01L773.23,300.79z"/>
	<path class="st32" d="M724.14,266.82l-14.92,0.95c-0.25,0.02-0.5,0.1-0.71,0.24c-1.11,0.76-0.57,2.51,0.79,2.57l12.88,0.59
		l5.91,2.38l2.57-4.02L724.14,266.82z"/>
	<polygon class="st34" points="759.76,272.03 763.21,275.31 769.06,269.18 765.61,265.91 	"/>
	<polygon class="st34" points="765.61,265.91 769.06,269.18 775.47,262.47 771.46,259.79 	"/>
	<polygon class="st34" points="763.23,275.85 765.95,279.93 774.06,277.3 772.51,272.83 	"/>
	<polygon class="st33" points="772.51,272.83 774.06,277.3 782.94,274.41 780.61,270.2 	"/>
	<polygon class="st34" points="765.07,280.45 765.7,285.12 774.2,284.17 773.58,279.5 	"/>
	<polygon class="st33" points="773.58,279.5 774.2,284.17 783.53,283.13 782.08,278.55 	"/>
	<polygon class="st33" points="771.43,259.76 775.47,262.47 779.04,253.8 774.68,251.92 	"/>
	<path class="st32" d="M778.63,231.02l-0.71,13.1l-3.24,7.81l4.37,1.87l3.25-7.83l-0.83-14.89c-0.01-0.25-0.1-0.5-0.24-0.71
		C780.46,229.23,778.7,229.67,778.63,231.02z"/>
	<path class="st32" d="M802.49,286.39l-13.31-7.11l0,0.03l-7.13-0.75l0.55,4.67l6.29,0.76l12.45,4.94c1.27,0.51,2.43-0.86,1.71-2.03
		C802.91,286.69,802.72,286.51,802.49,286.39z"/>
	<path class="st32" d="M802.76,271.31c-0.2-0.17-0.43-0.28-0.68-0.33l-14.56-2.67l-6.92,1.84l2.24,4.31l6.04-1.62l12.9,0.94
		C803.13,273.88,803.8,272.2,802.76,271.31z"/>
</g>
<g>
	<path class="st9" d="M128.05,402.06c-0.93-8.52-1.27-17.11-1.02-25.67c0.23-7.94-2.7-15.24-4.2-22.91
		c-1.13-5.8-1.53-11.74-1.49-17.65c0.06-8.95,0.99-18.49-3.35-26.32c-4.5-8.12-15.09-12.63-23.78-9.35
		c-8.73,3.29-13.52,12.82-15.28,21.98C75.6,339.38,80.47,358,91.79,371.4c2.64,3.12,5.69,6.12,6.85,10.04
		c0.99,3.32,0.48,6.86,0.54,10.32c0.22,13.59,9.1,25.77,10.08,39.33c0.78,10.84-3.39,22.62,1.89,32.11c1.7,3.05,4.5,5.68,7.93,6.31
		s7.4-1.26,8.36-4.61c0.87-3.04-0.76-6.15-1.47-9.23c-1.76-7.61,2.14-15.23,3.6-22.9c1.78-9.36-0.1-18.96-1.25-28.42
		C128.22,403.6,128.13,402.83,128.05,402.06z"/>
	<path class="st4" d="M172.15,348.83c-1.54-4.56-4.38-8.66-8.46-11.15c-6.06-3.69-13.3-2.59-18.41,2.04
		c-5.64,5.11-5.48,12.16-6.6,19.21c-1.63,10.2-7.23,19.44-7.84,29.85c-0.42,7.23,1.67,14.44,1.2,21.66
		c-0.58,8.76-4.85,16.79-7.58,25.13c-1.84,5.61-2.99,11.43-3.44,17.32c-0.24,3.23-0.04,7,2.55,8.95c3.2,2.41,8.06,0.29,10.26-3.05
		c2.2-3.35,2.66-7.5,3.82-11.33c3.98-13.17,16.1-22.4,21.28-35.15c2.52-6.18,3.28-12.92,5.01-19.36c1.73-6.44,4.42-12.58,6.52-18.91
		c2.1-6.33,3.63-13.01,2.9-19.64C173.17,352.51,172.76,350.63,172.15,348.83z"/>
	<path class="st54" d="M126.45,457.46c0-0.01,0-0.01,0-0.02c0-0.14-0.02-0.28-0.03-0.43c-0.03-0.21-0.05-0.43-0.08-0.63
		c-0.16-1.1-0.43-2.18-0.76-3.25v-0.01c-0.19-0.61-0.4-1.21-0.63-1.8c-0.91-2.34-2.06-4.56-3.38-6.66
		c-3.27-5.19-7.64-9.72-12.33-13.87c-1.69-1.5-3.43-2.95-5.18-4.38c-11.72-9.57-24.64-18.57-39.56-22.18
		c-7.12-1.73-13.93-2.94-19.76,2.24C40,410.71,37,417.55,39.2,423.8c2.16,6.16,8.44,10.03,14.77,11.62
		c6.33,1.59,12.97,1.42,19.43,2.28c11.86,1.58,23.68,7.11,30.38,17.02c0.37,0.55,0.73,1.11,1.07,1.68c1.67,2.73,3.13,5.58,5.25,7.95
		c1.32,1.47,2.99,2.73,4.81,3.47c0.18,0.07,0.37,0.13,0.54,0.2c1.58,0.54,3.24,0.68,4.86,0.21c1.11-0.32,2.09-0.89,2.93-1.67
		c0.54-0.48,1.03-1.04,1.44-1.66c0.8-1.17,1.35-2.52,1.61-3.9C126.51,459.82,126.55,458.64,126.45,457.46z"/>
	<path class="st14" d="M158.95,462.68v54.73c0,14.42-11.69,26.11-26.11,26.11h-27.78c-14.43,0-26.12-11.69-26.12-26.11v-54.73
		c0-3.83,3.11-6.94,6.95-6.94h66.11C155.84,455.74,158.95,458.85,158.95,462.68z"/>
	<g>
		<path class="st55" d="M128.42,447.57c-0.03,0-0.06,0-0.1,0c-0.34-0.02-0.61-0.32-0.59-0.66c0.02-0.28,0.44-6.92,3.47-14.74
			c1.07-2.78,2.7-5.52,4.42-8.42c3.08-5.21,6.58-11.11,7.24-18.26c0.12-1.3,0.23-2.56,0.33-3.8c0.79-9.41,1.48-17.54,7.15-28.67
			c6.21-12.19,5.79-21.85,5.78-21.95c-0.02-0.34,0.25-0.64,0.59-0.66c0.34-0.02,0.64,0.25,0.66,0.59c0.02,0.41,0.44,10.1-5.92,22.58
			c-5.56,10.92-6.24,18.93-7.02,28.21c-0.11,1.24-0.21,2.51-0.33,3.81c-0.69,7.43-4.26,13.46-7.41,18.78
			c-1.69,2.86-3.29,5.56-4.33,8.23c-2.96,7.64-3.38,14.3-3.39,14.37C128.97,447.29,128.72,447.54,128.42,447.57z"/>
	</g>
	<g>
		<path class="st55" d="M122.14,435.01c-0.32,0-0.59-0.24-0.62-0.56c0,0-0.63-6.05-1.25-11.83c-0.3-2.79-1.39-7.1-2.55-11.65
			c-1.2-4.74-2.44-9.64-2.87-13.18c-0.3-2.47-0.41-4.83-0.54-7.56c-0.23-4.92-0.49-10.49-1.96-18.97
			c-1.39-8.01-3.16-11.11-5.62-15.39c-1.6-2.78-3.41-5.94-5.59-11.15c-5.64-13.46-1.46-33.19-1.28-34.02
			c0.07-0.34,0.41-0.55,0.74-0.48c0.34,0.07,0.55,0.41,0.48,0.74c-0.04,0.2-4.27,20.18,1.22,33.28c2.15,5.14,3.94,8.26,5.52,11.01
			c2.52,4.39,4.34,7.56,5.77,15.8c1.48,8.55,1.76,14.41,1.98,19.12c0.13,2.7,0.24,5.04,0.53,7.47c0.42,3.47,1.65,8.33,2.84,13.03
			c1.17,4.6,2.27,8.95,2.58,11.83c0.63,5.78,1.25,11.83,1.25,11.83c0.04,0.34-0.21,0.65-0.56,0.69
			C122.18,435.01,122.16,435.01,122.14,435.01z"/>
	</g>
	<g>
		<path class="st4" d="M109.85,444.17c-0.19,0-0.38-0.09-0.51-0.26c-0.09-0.12-8.88-12.05-26.46-20.01
			c-17.62-7.97-32.24-7.52-32.38-7.52c-0.35,0.03-0.64-0.26-0.65-0.6c-0.01-0.35,0.26-0.64,0.6-0.65
			c0.15-0.01,15.06-0.46,32.94,7.63c17.91,8.1,26.87,20.29,26.96,20.41c0.2,0.28,0.14,0.67-0.14,0.87
			C110.1,444.13,109.97,444.17,109.85,444.17z"/>
	</g>
</g>
<path class="st4" d="M149,478.33V479c0,0.94-0.65,1.77-1.57,1.98c-0.38,0.09-0.73,0.15-1.03,0.19c-4.83,0.68-9.89-0.28-14.51-1.73
	c-5.92-1.87-12.13-4.71-18.46-3.56c-0.01,0-0.03,0-0.04,0.01c-0.32,0.06-0.64,0.12-0.97,0.21c-0.01,0.01-0.03,0.01-0.03,0.01
	s-0.01,0.01-0.02,0.01c-4.62,1.18-7.98,4.95-12.32,6.78c-4.06,1.7-8.23,1.22-12.19-0.52c-4.7-2.05-8.73-5.59-14.17-5.31
	c-0.76,0.04-1.47,0.12-2.15,0.28c-1.3,0.29-2.55-0.63-2.55-1.96v-0.09c0-0.92,0.61-1.74,1.51-1.97c3.35-0.87,7.14-0.57,10.42,0.7
	c4,1.54,7.47,4.53,11.72,5.39c5.17,1.04,8.88-2.52,12.95-5.02c0.01,0,0.01-0.01,0.02-0.01c0.05-0.03,0.09-0.06,0.14-0.08
	c1.83-1.11,3.68-1.84,5.52-2.28h0.01c1.37-0.34,2.73-0.51,4.11-0.55c0.92-0.04,1.83-0.01,2.74,0.07c0.43,0.03,0.86,0.08,1.28,0.12
	c4.73,0.58,9.48,2.26,14.3,3.68c4.4,1.29,8.84,1.8,12.88,1C147.84,476.09,149,477.06,149,478.33z"/>
<g class="st57">
	<g class="st58">
		<g>
			<path class="st3" d="M496.88,68.96c4.47-0.04,7.86,1.35,10.65,4.83c1.49,1.86,2.7,3.94,4.57,5.46c1.52,1.24,3.26,2.03,5.21,2.3
				c2.29,0.32,12.53-2.14,12.23,1.86c-0.19,2.53,3.75,2.52,3.94,0c0.81-10.66-13.49-3.96-18.07-6.6c-3.23-1.87-4.68-6.04-7.59-8.37
				c-3.19-2.54-6.93-3.45-10.94-3.41C494.34,65.04,494.34,68.98,496.88,68.96L496.88,68.96z"/>
		</g>
	</g>
	<g>
		<g>
			<path class="st3" d="M653.68,91.01c3.06-1.82,4.75-4.48,8.79-3.22c2.32,0.72,3.6,2.06,6.22,1.89c2.35-0.15,4.36-1.35,6.31-2.56
				c3.67-2.28,6.85-3.62,11.31-3.22c2.53,0.23,2.51-3.72,0-3.94c-3.07-0.28-5.99,0.02-8.84,1.23c-4.6,1.96-6.96,5.64-12.41,3.52
				c-2.22-0.87-3.83-2.02-6.34-1.5c-2.78,0.57-4.66,3.01-7.01,4.41C649.51,88.9,651.49,92.31,653.68,91.01L653.68,91.01z"/>
		</g>
	</g>
	<g>
		<g>
			<path class="st3" d="M643.83,55.53c6.55-8.25,13.04-15.38,23.96-16.78c3.04-0.39,5.64-1.01,8.06-2.99
				c3.02-2.47,5.45-7.36,9.64-7.88c2.48-0.31,2.52-4.26,0-3.94c-3.56,0.45-5.86,2.23-8.29,4.81c-1.42,1.51-2.7,3.21-4.42,4.39
				c-2.58,1.78-5.48,1.54-8.44,2.04c-10.2,1.7-17.21,9.89-23.3,17.57C639.48,54.71,642.25,57.52,643.83,55.53L643.83,55.53z"/>
		</g>
	</g>
	<g>
		<g>
			<path class="st3" d="M559.6,1.41c-1.79,8.05,0.88,16.56,7.35,21.83c1.8,1.47,3.79,2.19,5.76,3.33c3.35,1.94,3.7,4.09,3.93,7.67
				c0.23,3.47,0.33,6.66,3.12,9.09c1.9,1.66,4.7-1.12,2.79-2.79c-2.74-2.39-1.71-6.61-2.22-9.86c-0.46-2.96-1.71-5.17-4.27-6.79
				c-3.94-2.49-7.56-3.63-10.26-7.8c-2.63-4.08-3.43-8.91-2.39-13.62C563.95-0.01,560.15-1.07,559.6,1.41L559.6,1.41z"/>
		</g>
	</g>
	<g>
		<g>
			<path class="st3" d="M611.63,42.06c-0.19,0.04-0.39,0.09-0.58,0.13c-2.71,0.62-1.56,4.79,1.15,4.16
				c0.19-0.04,0.39-0.09,0.58-0.13C615.49,45.6,614.34,41.44,611.63,42.06c-0.19,0.04-0.39,0.09-0.58,0.13
				c-2.71,0.62-1.56,4.79,1.15,4.16c0.19-0.04,0.39-0.09,0.58-0.13C615.49,45.6,614.34,41.44,611.63,42.06L611.63,42.06z"/>
		</g>
	</g>
	<g>
		<g>
			<path class="st3" d="M620.78,27.79c-0.38-0.24-0.77-0.48-1.15-0.72c-0.96-0.6-2.42-0.23-2.95,0.77
				c-0.56,1.06-0.25,2.31,0.77,2.95c0.38,0.24,0.77,0.48,1.15,0.72c0.96,0.6,2.42,0.23,2.95-0.77
				C622.11,29.68,621.8,28.43,620.78,27.79L620.78,27.79z"/>
		</g>
	</g>
	<g>
		<g>
			<path class="st3" d="M530.88,42.87c-0.33-0.71-0.66-1.42-0.99-2.13c-0.44-0.94-1.86-1.25-2.7-0.71c-0.99,0.64-1.14,1.68-0.71,2.7
				c0.3,0.72,0.61,1.44,0.91,2.16c0.4,0.95,1.88,1.23,2.7,0.71c0.99-0.64,1.14-1.68,0.71-2.7c-0.3-0.72-0.61-1.44-0.91-2.16
				c-1.13,0.66-2.27,1.33-3.4,1.99c0.33,0.71,0.66,1.42,0.99,2.13c0.44,0.94,1.86,1.25,2.7,0.71
				C531.13,44.95,531.34,43.88,530.88,42.87L530.88,42.87z"/>
		</g>
	</g>
	<g>
		<g>
			<path class="st3" d="M542.06,51.73c0,0.58,0,1.17,0,1.75c0,1.03,0.91,2.02,1.97,1.97c1.07-0.05,1.97-0.87,1.97-1.97
				c0-0.58,0-1.17,0-1.75c0-1.03-0.91-2.02-1.97-1.97C542.96,49.81,542.06,50.63,542.06,51.73L542.06,51.73z"/>
		</g>
	</g>
	<path class="st59" d="M651.75,121.34c3.39-2,9.07-1.85,12.69-0.64c7.42,2.48,13.56,5.3,21.9,4.95c6.51-0.27,12.85-3.07,19.43-2.58
		c3.22,0.24,5.93,2.39,9.16,2.26"/>
</g>
<g class="st58">
	<g>
		<path class="st3" d="M528.04,116.1c-7.9,7.81-21.36,1.29-30.66-0.05c-4.76-0.68-8.73-0.2-13.2,1.64
			c-2.99,1.23-6.12,2.97-9.46,2.88c-3.56-0.1-6.99-2.16-10.45-2.83c-2.48-0.49-3.54,3.31-1.05,3.8c3.38,0.66,6.48,2.36,9.89,2.82
			c3.29,0.44,6.28-0.44,9.31-1.66c6.79-2.75,11.33-3.5,18.52-1.99c9.74,2.05,21.74,6.23,29.88-1.82
			C532.63,117.11,529.85,114.32,528.04,116.1L528.04,116.1z"/>
	</g>
</g>
</svg>
