<?xml version="1.0" encoding="utf-8"?>
<!-- Generator: Adobe Illustrator 23.0.2, SVG Export Plug-In . SVG Version: 6.00 Build 0)  -->
<svg version="1.1" id="Layer_1" xmlns="http://www.w3.org/2000/svg" xmlns:xlink="http://www.w3.org/1999/xlink" x="0px" y="0px"
	 viewBox="0 0 852.25 888.76" style="enable-background:new 0 0 852.25 888.76;" xml:space="preserve">
<style type="text/css">
	.st0{fill:#6FB1ED;}
	.st1{opacity:0.1;}
	.st2{fill-rule:evenodd;clip-rule:evenodd;fill:#007CC7;}
	.st3{fill:#B8CDDC;}
	.st4{opacity:0.54;}
	.st5{fill:#035693;}
	.st6{fill:#73A0BE;}
	.st7{clip-path:url(#SVGID_2_);}
	.st8{fill:#FAC0A5;}
	.st9{fill:#FDA589;}
	.st10{fill:#433F4D;}
	.st11{fill:#002042;}
	.st12{fill:#F29542;}
	.st13{fill:#414167;}
	.st14{fill:#FFFFFF;}
	.st15{fill:#FFF88E;}
	.st16{fill:#DDD466;}
	.st17{opacity:0.16;fill:#B94A00;}
	.st18{fill:#162040;}
	.st19{fill:#F28561;}
	.st20{fill:#472516;}
	.st21{fill:#DCDEE0;}
	.st22{opacity:0.13;fill:#182149;}
	.st23{opacity:0.13;}
	.st24{fill:#182149;}
	.st25{opacity:0.11;fill:#B94A00;}
	.st26{opacity:0.31;}
</style>
<g>
	<g>
		<g>
			<g>
				<g>
					<path class="st0" d="M434.79,41.94c-1.13-11.47,6.25-23.88,17.77-26.91c10.26-2.7,23.59,2.44,28.29,12.16
						c5.13,10.62-0.44,23.38-11.09,27.75c-6.43,2.64-13.36,4.01-20,5.99c-5.96,1.78-12.69,3.74-16.92,8.6
						c-9.39,10.82-6.11,27.59,2.78,37.52c6.18,6.9,16.32-3.29,10.16-10.16c-3.48-3.88-5.36-10.03-3.63-15.12
						c1.89-5.57,9.42-6.44,14.41-7.84c14.99-4.22,30.06-7.84,37.14-23.28c6.25-13.63,3.6-30.08-7.81-40.22
						C475.5,1.2,458.8-2.88,445.62,2.22c-15.55,6.02-26.84,22.92-25.19,39.71C421.32,51.06,435.7,51.15,434.79,41.94L434.79,41.94z"
						/>
				</g>
			</g>
		</g>
		<g>
			<g>
				<path class="st0" d="M446.32,130.72c9.25,0,9.26-14.37,0-14.37C437.07,116.35,437.06,130.72,446.32,130.72L446.32,130.72z"/>
			</g>
		</g>
	</g>
	<g>
		<g>
			<g>
				<path class="st0" d="M539.71,90.76c3.79-4.25,8.52-10.51,14.41-11.85c5.39-1.22,8.86,2.83,9.71,7.65
					c1.27,7.23-1.3,19.88-9.31,21.36c-7.14,1.32-16.61-2.83-24.46-3.75c-10.81-1.27-18.74,3.39-22.95,13.39
					c-1.52,3.6,1.64,7.87,5.02,8.84c4.13,1.19,7.34-1.46,8.84-5.02c1.07-2.54,2.58-2.95,4.1-3.08c3.61-0.31,6.61,0.56,10.3,1.41
					c8.21,1.89,17.16,4.29,25.43,1.36c19.87-7.04,25.1-43.49,5.74-53.93c-14.71-7.93-27.56,2.87-37,13.45
					C523.42,87.49,533.55,97.68,539.71,90.76L539.71,90.76z"/>
			</g>
		</g>
		<g>
			<g>
				<path class="st0" d="M505.26,146.85c9.25,0,9.26-14.37,0-14.37C496.02,132.48,496,146.85,505.26,146.85L505.26,146.85z"/>
			</g>
		</g>
	</g>
	<g>
		<g>
			<g>
				<path class="st0" d="M324.33,122.42c-15.91-6.04-15.22-28.25,1.16-33.24c7.46-2.28,17.55-2.08,20.95,5.7
					c3.68,8.4,1.86,18.55,1.66,27.38c-0.33,14.91,7.78,26.11,22.02,30.4c8.87,2.67,12.67-11.19,3.82-13.86
					c-5.62-1.69-9.83-4.8-11.07-10.78c-1.2-5.79,0.07-12.12,0.08-18c0.02-10.98-1.63-23.45-10.83-30.71
					C342,71.32,325.93,72.23,315,78.09c-10.17,5.45-16.69,16.46-16.83,27.95c-0.17,14.34,9.42,25.32,22.34,30.23
					C329.16,139.56,332.91,125.67,324.33,122.42L324.33,122.42z"/>
			</g>
		</g>
		<g>
			<g>
				<path class="st0" d="M391.07,158.63c9.25,0,9.26-14.37,0-14.37C381.83,144.26,381.81,158.63,391.07,158.63L391.07,158.63z"/>
			</g>
		</g>
	</g>
	<g>
		<g>
			<path class="st0" d="M481.95,110.02c-0.15-6.98,3-11.98,8.67-15.83c3.81-2.59,8.11-4.96,10.42-9.13c1.28-2.3,1.51-4.85,2.29-7.31
				c1.14-3.6,3.55-5.43,6.25-7.79c4-3.51,7.07-6.99,8.74-12.13c0.82-2.52-3.15-3.6-3.96-1.09c-2.13,6.57-7.56,9.41-11.96,14.21
				c-4.23,4.63-3.08,11.42-8.05,15.67c-4.03,3.44-8.89,5.45-12.24,9.7c-3.15,3.98-4.37,8.68-4.27,13.7
				C477.9,112.65,482,112.66,481.95,110.02L481.95,110.02z"/>
		</g>
	</g>
	<g>
		<g>
			<path class="st0" d="M410.53,119.4c-8.46-6.75-6.89-18.8-9.06-28.34c-0.98-4.31-2.75-7.52-6.19-10.33
				c-2.5-2.04-4.94-3.66-6.73-6.42c-1.63-2.53-2.8-5.31-4.48-7.82c-1.46-2.19-5.02-0.13-3.55,2.07c3.26,4.88,5.09,9.8,9.81,13.54
				c2.19,1.74,4.54,3.23,5.85,5.8c1.21,2.38,1.6,5.3,1.99,7.91c1.41,9.36,1.38,20.06,9.45,26.49
				C409.68,123.93,412.6,121.04,410.53,119.4L410.53,119.4z"/>
		</g>
	</g>
	<g>
		<g>
			<path class="st0" d="M367.83,183.44c-2.85-2.49-5.69-3.31-9.46-3.23c-5.57,0.12-10.74,0.29-16.16-1.37
				c-3.85-1.18-7.39-2.53-11.48-2.55c-5.75-0.03-11.4,1.79-17.16,0.91c-2.58-0.39-3.7,3.56-1.09,3.96
				c8.6,1.31,16.88-2.15,25.38,0.52c4.1,1.29,8.01,2.49,12.33,2.81c4.81,0.36,10.75-1.63,14.74,1.86
				C366.91,188.07,369.83,185.18,367.83,183.44L367.83,183.44z"/>
		</g>
	</g>
	<g>
		<g>
			<path class="st0" d="M533.86,165.81c6.89-8.77,18.39-7.74,28.38-8.95c5-0.61,8.15-3.68,12.8-5.09c5.2-1.57,10.16-1.32,14.94-4.3
				c2.24-1.39,0.18-4.95-2.07-3.55c-4.96,3.09-10.59,2.4-15.82,4.54c-2.97,1.22-5.33,3.35-8.51,4.1c-2.52,0.59-5.33,0.58-7.9,0.78
				c-9.17,0.72-18.66,1.85-24.72,9.56C529.34,164.96,532.23,167.89,533.86,165.81L533.86,165.81z"/>
		</g>
	</g>
</g>
<g class="st1">
	<path class="st2" d="M401.99,388.47c-7.73-116.06,80.03-216.29,196.1-224.02s216.29,80.03,224.02,196.1
		c7.73,116.06-80.03,216.29-196.1,224.02C510.07,592.3,409.72,504.41,401.99,388.47z"/>
	<path class="st2" d="M129.95,308.87c15.49-52.74,70.65-82.98,123.4-67.49s82.98,70.65,67.49,123.4
		c-15.49,52.74-70.65,82.98-123.4,67.49C144.66,416.9,114.47,361.62,129.95,308.87z"/>
	<path class="st2" d="M664.65,304.43c83.53,125.54,49.49,295.08-76.05,378.61S293.52,732.52,210,606.99s-49.49-295.08,76.05-378.61
		C411.58,144.73,581.12,178.77,664.65,304.43z"/>
	<path class="st2" d="M815.1,439.65c67.83,101.95,40.19,239.47-61.77,307.3c-101.95,67.83-239.47,40.19-307.3-61.77
		c-67.83-101.95-40.19-239.47,61.77-307.3S747.37,337.7,815.1,439.65z"/>
	<path class="st2" d="M457.44,527.17c56.13,84.41,33.29,198.3-51.13,254.43s-198.3,33.29-254.43-51.13S118.59,532.18,203,476.05
		S401.31,442.87,457.44,527.17z"/>
	<path class="st2" d="M315.31,486.31c20.57,85.88-32.32,172.18-118.08,192.79C111.47,699.7,25.01,646.89,4.44,561.02
		s32.2-172.22,118.08-192.79C208.4,347.66,294.71,400.54,315.31,486.31z"/>
	<path class="st2" d="M697.6,605.03c84.44,83.95,50.1,197.28-76.79,253.15s-298.17,33-382.61-50.8
		c-84.44-83.95-50.1-197.28,76.79-253.15C442.09,498.35,613.38,521.08,697.6,605.03z"/>
</g>
<g>
	<path class="st3" d="M378.04,505.46c-7.12,56.2-34.99,73.36-124.61,99.12c-4.85,10.09-10.05,22.99-14.55,35.98
		c-8.17,2.53-15.37,3.05-24.51,1.89c-30.2-3.83-48.94-41.89-45.02-72.79c2.14-16.86,14.8-26.67,41.24-32.6
		c48.06-13.18,56.06-14.31,57.21-23.44c1.96-15.45-20.93-37.62-79.66-52.92c-7.27-10.2-9.18-23.29-7.49-36.64
		c3.92-30.91,33.2-53.6,87.29-46.75C341.01,386.57,384.81,452.07,378.04,505.46z M144.69,719.27c5.25-41.45,28.2-59.24,65.43-54.52
		c36.53,4.63,59.14,34.62,55.22,65.52c-0.1,0.82-0.22,1.63-0.34,2.44c-5.15,33.25-36.24,56.32-69.63,52.21
		c-0.15-0.02-0.31-0.04-0.46-0.06C147.84,778.91,141.3,745.96,144.69,719.27z"/>
</g>
<g class="st4">
	<path class="st5" d="M706.47,353.12c6.37,31.54-5.51,45.84-49.07,75.98c-0.78,6.31-1.23,14.2-1.3,22.01
		c-3.94,2.85-7.72,4.43-12.85,5.47c-16.95,3.43-33.95-13.66-37.45-31c-1.91-9.46,3.12-17.04,16.28-25.04
		c23.48-15.82,27.57-17.88,26.54-23.01c-1.75-8.67-18.1-16.45-52.48-14.01c-5.77-4.17-9.17-10.87-10.69-18.36
		c-3.51-17.35,8.13-34.88,38.49-41.02C664.94,295.85,700.42,323.15,706.47,353.12z M619.7,510.58c-4.7-23.26,4.42-37.01,25.32-41.23
		c20.5-4.14,38.12,7.89,41.62,25.24c2.55,12.62-0.19,23.43-6.48,34.96c-4.1,2.06-12.85,5.47-21.52,7.22
		C632.23,542.11,622.73,525.56,619.7,510.58z"/>
</g>
<g>
	<path class="st6" d="M616.01,789.42c0.23-0.23,0.49-0.49,0.72-0.72c0.43-0.43-0.23-1.11-0.69-0.69c-0.23,0.23-0.49,0.49-0.72,0.72
		C614.9,789.16,615.55,789.85,616.01,789.42L616.01,789.42z"/>
</g>
<g>
	<defs>
		<path id="SVGID_1_" d="M773.23,660.02c8.82-20.64,17.36-44.58,15.26-67.31c-2.25-24.41-12.18-52.33-20.48-75.52
			c-5.19-14.48-10.56-28.66-16.96-42.39c-26.04-55.84-84.5-85.97-116.12-138.51c-16.98-28.22-14.07-56.38-19.37-87.27
			c-6.79-39.47-21.05-81.14-52.1-106.83c-35.82-29.64-87.64-36.58-132.68-27.79c-49.19,9.6-77.43,29.9-91.77,77.91
			c-9.92,33.23-20.89,65.68-34.2,97.65c-11.44,27.46-12.96,56.05-21.93,84.11c-19.1,59.71-72.28,101.59-88.22,162.91
			c-8.67,33.35-15.31,77.3-3.49,110.51c3.39,9.51,8.76,18.15,17.38,23.7c6.19,3.99,13.48,6.34,19.41,10.65
			c-5.88,40.34,17.44,89.17,54.02,125.54c84.44,83.8,214.31,88.79,341.19,32.92c96.89-42.66,139.1-107.57,116.39-178.57
			C739.75,661.28,773.02,660.51,773.23,660.02z"/>
	</defs>
	<clipPath id="SVGID_2_">
		<use xlink:href="#SVGID_1_"  style="overflow:visible;"/>
	</clipPath>
	<g class="st7">
		<g>
			<g>
				<g>
					<path class="st8" d="M597.16,762.59c0.49,1.38,20.69,64.58,5.48,148.75c-30.95,171.33-42.34,217.4-42.79,233.78
						c-1.16,41.88-48.74,70.4-63.61,29.88c-10.6-28.89-15.33-74.08-18.59-176.09c-2.74-85.72-6.3-140.72-6.46-150.82
						C470.38,795.74,581.16,717.33,597.16,762.59z"/>
				</g>
			</g>
			<g>
				<g>
					<path class="st8" d="M339.81,764.01c-0.43,1.4-17.96,65.39,0.77,148.85c38.11,169.88,51.42,215.43,52.56,231.78
						c2.92,41.8,51.65,68.29,64.81,27.18c9.38-29.3,12.21-74.66,11.18-176.72c-0.86-85.76,0.39-140.86,0.12-150.96
						C467.86,791.81,353.89,718.12,339.81,764.01z"/>
				</g>
			</g>
			<g>
				<g>
					<path class="st8" d="M393.05,628.68c-13.48,38-43.34,63.64-52.44,126.31c-3.13,21.57-7.44,48.67,13.18,68.3
						c7.24,6.89,12.33,28.29,111.27,28.92c56.26,0.36,81.76-6.01,107.95-33.63c4.8-5.06,27.91-32.85,20.87-66.86
						c-11.99-57.91-44.16-100.4-50.88-121.63C526.73,578.62,412.86,572.84,393.05,628.68z"/>
				</g>
			</g>
			<g>
				<g>
					<path class="st9" d="M438.06,370.61c-27.55,5.05-78.26,25.44-100.9,41.5c-1.08,0.77,6.2,75.35,24,125.08
						c23.93,66.85,22.06,105.91,29.37,115.05c36.29,45.39,141.94,46.78,156.81-11.7c10.6-41.7,22.47-101.51,22.47-101.51
						l24.52-127.51c-21.41-13.93-56.87-32.54-92.09-40.83C490.01,367.82,464.25,365.81,438.06,370.61z"/>
				</g>
			</g>
			<path class="st10" d="M358.83,695.02c0,0,49.6,22.91,111.59,22.63c56.92-0.25,105.69-21.24,105.69-21.24s17.71,39.09,22.68,69.37
				c0,0-116.84,25.22-127.46,86.47l-3.54-0.03c0,0-15.17-68.04-130.5-84.82C337.28,767.41,342.77,721.89,358.83,695.02z"/>
			<path class="st10" d="M566.47,468.55c-6.46-27.05-2.06-74.23-2.06-74.23l-6.92-3.24c0,0-2.21,49.91-11.31,64.54
				c-9.1,14.63-41.46,36.69-60.02,49.84c-14.84,10.51-18.89,36.21-19.92,46.11c-2.32,0.53-4.79,0.37-7.07-0.31
				c-0.94-10.1-4.73-35.49-19.3-46.09c-18.39-13.38-50.47-35.86-59.38-50.61c-8.91-14.75-4.84-63.05-4.84-63.05l-6.96,3.15
				c0,0-1.85,45.6-8.66,72.57c-6.81,26.96-11.18,44.47-6.58,66.29c6.6,31.34,26.23,42.81,57.89,42.54
				c31.66-0.27,48.13-20.54,48.13-20.54s0-0.09-0.01-0.23c2.1,0.47,4.34,0.61,6.46,0.28c0.09,0.11,16.28,20.47,47.85,21.14
				c31.65,0.68,51.43-10.54,58.43-41.8C577.09,513.16,572.93,495.6,566.47,468.55z"/>
			<path class="st11" d="M383.71,644.93c0,0-35.49,56.19-46.75,97.84c-11.26,41.65-11.35,111.56-5.01,136.79
				c6.34,25.23,275.69,14.14,281.63-7.86c5.94-21.99-10.04-160.54-60.34-226.77C553.23,644.93,458.87,669.62,383.71,644.93z"/>
			<path class="st11" d="M610.57,813.84c-12.43-72.79-126.54-16.63-134.88,10.45c-8.34,27.09-1.28,277.85,15.52,332.81
				c16.8,54.96,73.61,33.77,74.97-12.66c0.62-21.3,22.75-100.7,38.29-186.31C620,872.53,610.57,813.84,610.57,813.84z"/>
			<path class="st11" d="M462.95,820.96c-9.63-26.66-126.29-77.29-135.23-3.99c0,0-6.61,59.07,13,143.84
				c19.61,84.77,45.51,163.02,47.15,184.27c3.58,46.31,61.33,64.76,75.49,9.06C477.51,1098.43,472.58,847.61,462.95,820.96z"/>
			<path class="st12" d="M469.33,664.07c-9.07,0-9.09,14.1,0,14.1C478.4,678.17,478.42,664.07,469.33,664.07z"/>
			<path class="st12" d="M507.22,671.12c0,0,37.11-3.09,55-13.06l7.42,13.06c0,0-42.7,15.56-51.52,13.61
				C509.29,682.79,507.22,671.12,507.22,671.12z"/>
			<path class="st12" d="M422.94,671.12c0,0-32.1-3.09-47.56-13.06l-6.42,13.06c0,0,36.93,15.56,44.56,13.61
				C421.15,682.79,422.94,671.12,422.94,671.12z"/>
			<path class="st11" d="M345.95,406.73c-13.17,1.75-20.29,7.96-26.23,32.03c-3.23,13.08-5.17,26.42-7.17,39.72
				c-0.87,5.78-2.4,11.54-3.07,17.3c-0.68,5.84-0.01,11.93-2.1,17.55c-2.8,7.51-4.45,17.45-3.62,25.35
				c1.09,10.44,0.34,20.3,4.13,30.43c4.04,10.79,4.5,24.19,17.24,28.75c4.63,1.66,9.78,1.77,14.19,4.06
				c3.49,1.81,5.03,3.38,9.08,3.56c5.55,0.25,12.89-1.22,16.59-5.77c3.57-4.4,4.24-12.67,3.24-18.04
				c-1.39-7.47-2.57-15.37-0.16-22.95c1.72-5.4,3.74-10.73,5.26-16.23c1.48-5.31,1.2-11.55,2.81-16.61
				c7.65-24.03,23.32-84.33,8.47-100.57S349.25,406.29,345.95,406.73z"/>
			<path class="st11" d="M592.36,407.55c9.23,6.27,15,10.86,19.09,35.31c5.69,34.05,7,68.88,16.18,102.05
				c3.1,11.22,5.51,22.6,8.29,33.89c3.45,14.02,5.33,26.35-0.47,39.94c-4.52,10.58-15.77,14.99-26.28,18.12
				c-12.68,3.77-27.82,5.32-31.89-9.77c-4.18-15.51-8.35-31.01-12.53-46.52c-5-18.55-7.16-37.75-11.58-56.5
				c-5.79-24.55-16.81-85.86-0.77-100.92C568.45,408.08,589.6,405.68,592.36,407.55z"/>
			<path class="st13" d="M395.95,378.77c2.06-1.04,21.44,13.5,24.31,15.55c12.46,8.91,25.86,15.64,39.72,22.09
				c3.96,1.84,8.21,3.73,12.54,3.13c3.05-0.43,5.77-2.06,8.38-3.69c12.32-7.76,44.48-24.69,43.18-41.93c0,0,26.26,11.34,40.52,17.18
				c14.26,5.84,30.62,17.38,30.62,17.38s-7.08,27.03-7.08,93.16c0,24.75-12.65,51.05-18.49,69.59c-8.49,26.96,2.53,71.21,0,81.6
				c-2.53,10.39-40.4,16.5-54.11,15.42c-13.71-1.08-35.54-8.8-63.74,2.89c-28.2,11.69-89.46-7.53-88.17-16.4
				c1.3-8.86,0.4-61.26-0.02-75.96c-0.42-14.7-20.84-35.65-25.64-69.37c-6.01-42.14,2.76-102.75,2.76-102.75
				S395.91,378.79,395.95,378.77z"/>
			<path class="st11" d="M390.45,383.8c0,0,1.38,84.33,51.08,128.41c49.7,44.08,77.79-43.65,83.41-78.66
				c5.62-35.01,4.71-54.5,4.71-54.5s7.47,82.59-29.09,138.78c-36.56,56.18-86.04,5.38-97.5-33.91
				C383.71,417.56,390.45,383.8,390.45,383.8z"/>
			<path class="st15" d="M589.03,422.32c-2.27-20.63-4-41.45-8.27-61.79c-4.49-21.4-11.7-42.1-18.49-62.85
				c-8.41-25.69-15.04-51.02-18.05-77.94c-2.05-18.35-5.01-36.16-15.34-51.32c0.05-0.83-0.11-1.7-0.61-2.61
				c-17.68-31.67-58.19-42.14-91.35-30.68c-32.52,11.24-55.17,40.67-65.82,72.44c-6.67,19.89-9.1,41.02-9.57,61.92
				c-0.54,24.02,3.9,48.99-0.82,72.73c-4.21,21.19-15.24,39.92-18.09,61.58c-2.87,21.8-3.35,44.04-4.77,65.98
				c-0.16,2.49,2.33,4.95,4.81,4.81c20.29-1.19,40.58-2.39,60.87-3.58c9.22-0.54,31.89,2.85,36.78-7.96
				c2.65-5.84,0.65-15.08-0.72-20.92c-13.54-57.44-11.16-62.28-13.94-82.27c-2.85-20.53-3.26-43.09,1.08-63.6
				c4.13-19.51,14.64-37.54,26.93-53.03c1.72-2.17,3.55-4.21,5.43-6.21c4.95,13.63,11.87,26.42,18.54,39.4
				c10.53,20.5,16.74,41.34,20.99,63.92c4.46,23.73-7.63,15.39-3.28,39.14c1.97,10.77,8.75,51.84,10.72,62.6
				c1.17,6.36,0.81,17.28,6.9,21.5c6.39,4.42,29.39,4.01,36.44,3.37c11.33-1.02,23.65-1.07,34.77-3.44
				c4.89-1.04,7.45-2.85,8.33-7.85C594.2,445.9,590.11,432.16,589.03,422.32z"/>
			<path class="st16" d="M546.31,318.86c-1-21.29-9.23-41.77-11.01-63.13c-0.64-7.65-12.66-7.72-12.01,0
				c0.41,4.93,1.02,9.8,1.75,14.64c-2.83-3.42-9.57-3.49-10.5,1.72c-2.16,0.32-4.09,1.65-4.6,4.19c-0.04,0.21-0.08,0.43-0.13,0.64
				c-1.55,0.65-2.89,1.82-3.52,3.55c-1.11,3.05-2.14,6.12-3.12,9.2c-1.1,0.68-1.95,1.83-2.26,3.57c-0.7,3.93-1.39,7.86-2.09,11.78
				c-1.49,6.02-2.75,12.09-3.83,18.21c1.39,5.6-3.92,32.5,0.43,56.24c1.89,10.32,8.19,48.46,10.45,61.09
				c3.23-3.94,5.79-8.58,7.3-12.04c7.87-17.97,6.51-38.45,13.3-56.86C533.25,353.29,547.28,339.5,546.31,318.86z"/>
			<path class="st16" d="M415.22,361.48c1.81,4.08,8.72,15.61,12.66,19.04c-0.78-7.29-1.07-12.81-2.16-20.66
				c-2.56-18.47-3.12-38.57-0.05-57.35c-1.22-3-2.56-5.95-4.08-8.84c-5.18-9.83-12.91-26.22-23.01-31.89
				c-1.82-1.02-4.26-1.17-6.06,0c-0.14,0.09-0.25,0.21-0.38,0.3c2.26-7.58,5.43-14.8,9.05-21.04c3.89-6.7-6.49-12.75-10.37-6.06
				c-13.01,22.4-19.97,53.31-7.82,77.38c5.77,11.42,14.74,20.75,22.14,31.08C409.25,349.16,412.36,355.01,415.22,361.48z"/>
			<path class="st9" d="M494.64,380.47c1.17-14.42,0.79-54.02,4.09-74.49c0.26-0.65-77.24-5.9-77.1-3.63
				c0.85,13.85,4.26,73.46,6.16,77.91c2.66,6.21,18.56,9.63,24.44,10.42C470.2,393.09,494.32,384.45,494.64,380.47z"/>
			<path class="st17" d="M492.21,312.93c-14.07,3.8-29.36,6.24-43.9,6.57c-7.25,0.17-18.31-4.77-25.83-1.48
				c0.51,8.27,1.14,18.28,1.81,27.87c12.24,10.34,29.15,16.61,43.82,11.72c10.28-3.43,19.53-10.02,26.96-17.99
				c0.3-0.32,0.62-0.66,0.96-1.02c0.38-9.68,0.93-19.28,1.85-27.14C495.93,311.84,493.96,312.46,492.21,312.93z"/>
			<path class="st9" d="M524.7,264.61c2.77-15.64,4.58-32.6,2.82-48.45c-1.67-15.02-15.22-22.52-27.91-28.08
				c-15.65-6.86-26.56-28.23-43.36-23.85c-11.8,3.08-25.74,0.58-36.13,10.03c-4.11-1.55-17.33,30.43-17.85,36.33
				c-2.67,30.18-9.16,65.32,6.6,93.21c6.99,12.36,17.96,22.81,28.75,29.22c12.32,7.33,20.78,7.88,34.52,3.87
				c14.98-4.37,25.46-15.38,35.73-26.71C518.61,298.35,522,279.87,524.7,264.61z"/>
			<path class="st18" d="M442.34,242.14c-0.44,3.94-2.74,6.91-5.15,6.64c-2.41-0.27-4-3.68-3.56-7.61c0.44-3.94,2.74-6.91,5.15-6.64
				C441.18,234.8,442.77,238.21,442.34,242.14z"/>
			<path class="st18" d="M505.84,245.22c-0.42,3.94-2.71,6.92-5.11,6.67c-2.41-0.26-4.02-3.66-3.6-7.59
				c0.42-3.94,2.71-6.92,5.11-6.67C504.64,237.88,506.25,241.28,505.84,245.22z"/>
			<path class="st15" d="M534.7,215.15c-1.67-4.85-3.33-9.97-6.18-14.29c-3.15-4.78-9.23-7.83-12.45-12.39
				c1-0.77,1.67-1.97,1.63-3.64c-0.11-4.24-0.94-7.33-2.85-11.09c-1.86-3.66-6.46-2.71-8.22,0.11c-0.41-0.28-0.86-0.49-1.33-0.64
				c1.67-1.8,3.26-3.74,4.67-5.94c3.35-5.22-4.96-10.05-8.3-4.85c-1.5,2.34-3.25,4.35-5.16,6.16c-1.9-0.48-4.21,0.33-5.47,2.02
				c-0.1-0.39-0.23-0.78-0.42-1.16c-0.12-0.25-0.27-0.46-0.41-0.68c0.32-2.66-1.71-5.51-4.73-5.53c1.11-3.13-2.69-6.72-6.1-6.13
				c-0.98,0.17-1.98,0.35-3,0.54c-0.71-0.47-1.59-0.76-2.69-0.73c-8.66,0.23-16.34,3.09-24.67,5.05c-2.35,0.55-4.03,0.99-5.21,1.32
				c0.16-0.23,0.1-0.49-0.35-0.76c-1.12-0.67-1.71-2.33-3.22-3.03c-4.55-2.11-10.37,1.66-14.39,3.38
				c-9.08,3.91-17.62,8.68-25.87,14.11c-4.49,2.96-1.72,10.14,3.7,8.78c1.32-0.33,2.6-0.74,3.86-1.19
				c-5.84,5.43-11.66,10.88-17.52,16.29c-2.53,2.34-1.66,5.26,0.43,6.85c-0.68,0.25-1.36,0.52-2.05,0.77
				c-2.54,0.9-3.62,3.69-3.22,6.02c-3.14,0.94-3.29,9.88-0.21,12.79c16.34,15.5,47.02-7.31,62.61-16.42
				c12.02-7.02,23.41-15.08,35.51-21.97c3.25-1.85,6.41-3.65,9.46-5.55c3.57,10.59,9.57,19.48,17.7,27.91
				c13.49,14.01,18.44,30.89,22.9,49.35c1.33,5.51,9.07,3.92,9.44-1.28C543.7,244.01,539.66,229.53,534.7,215.15z"/>
			<path class="st19" d="M463.81,277.32c-1.99-0.09-4.85-0.4-5.92-2.5c-0.96-1.88,0.29-4.71,0.8-6.59
				c0.98-3.59,1.98-7.17,2.97-10.75c0.83-2.99-3.81-4.26-4.63-1.28c-1.56,5.65-5.29,13.36-3.89,19.31
				c1.22,5.19,5.96,6.39,10.68,6.61C466.9,282.27,466.89,277.47,463.81,277.32z"/>
			<path class="st20" d="M522.7,222.45c-5.61-4.66-11.48-7.22-18.56-8.09c-4.26-0.53-12.57-1.57-15.8,2.37
				c-0.27,0.33-0.26,0.8-0.18,1.2c0.71,3.53,9.16,3.87,12.63,4.62c8.16,1.76,16,4.65,23.54,8.4c0.68,0.34,1.34-0.21,1.52-0.94
				C526.46,227.49,524.93,224.3,522.7,222.45z"/>
			<path class="st20" d="M414.22,231.4c0.2,0.73,0.87,1.26,1.54,0.91c7.44-3.93,15.2-7.02,23.32-8.98
				c3.45-0.83,11.89-1.38,12.52-4.92c0.07-0.4,0.07-0.87-0.21-1.19c-3.32-3.86-11.61-2.61-15.85-1.98
				c-7.05,1.05-12.85,3.75-18.35,8.54C414.99,225.68,413.55,228.91,414.22,231.4z"/>
			<path class="st9" d="M528.5,242.1c-6.03-0.28-10.21,6.34-12.83,10.82c-1.32,2.25-0.36,4.39,1.3,5.54
				c-1.84,2.82-3.63,6.06-4.88,9.17c-1.08,0.96-1.69,2.39-1.27,3.96c-1.12,4.94,0.02,8.81,6.01,8.86
				c13.11,0.12,20.46-15.03,20.44-26.23C537.28,248.78,534.89,242.4,528.5,242.1z"/>
			<path class="st9" d="M398.11,232.4c6.01,0.52,9.28,7.63,11.29,12.42c1.01,2.41-0.22,4.4-2.02,5.32c1.45,3.03,2.8,6.48,3.63,9.73
				c0.95,1.1,1.36,2.6,0.73,4.09c0.46,5.04-1.18,8.73-7.13,7.99c-13.01-1.61-18.3-17.6-16.8-28.7
				C388.53,237.86,391.73,231.85,398.11,232.4z"/>
			<path class="st16" d="M426.57,203.42c-8.57,6.87-17.49,13.74-28.77,14.96c-3.04,0.33-3.08,5.14,0,4.81
				c12.69-1.37,22.48-8.6,32.17-16.36C432.38,204.89,428.96,201.51,426.57,203.42z M398,210.95c3.2-2.49,6.19-5.2,8.99-8.12
				c2.14-2.23-1.25-5.64-3.4-3.4c-2.8,2.93-5.8,5.63-8.99,8.12c-1.03,0.8-0.83,2.55,0,3.4C395.6,211.97,396.98,211.74,398,210.95z
				 M364.98,365.52c-5.71,12.79-11.13,25.63-13.09,39.61c-1.98,14.08-2.47,28.44-3.55,42.6c-0.23,3.08,4.57,3.07,4.81,0
				c1-13.23,1.58-26.58,3.22-39.74c1.76-14.2,6.97-27.05,12.77-40.05C370.38,365.14,366.24,362.7,364.98,365.52z M365.71,426.98
				c-2.79,11.8-3.97,23.68-3.5,35.8c0.12,3.08,4.93,3.1,4.81,0c-0.45-11.68,0.64-23.14,3.33-34.52
				C371.05,425.25,366.42,423.96,365.71,426.98z M547.78,431.27c2.48,8.24,3.66,16.59,3.56,25.19c-0.04,3.09,4.77,3.1,4.81,0
				c0.11-9.02-1.13-17.82-3.73-26.47C551.53,427.04,546.89,428.3,547.78,431.27z M565.7,377.11c-0.79-2.99-5.43-1.72-4.63,1.28
				c6.01,22.56,9.1,45.42,9.3,68.76c0.03,3.09,4.83,3.1,4.81,0C574.96,423.4,571.81,400.07,565.7,377.11z"/>
			<path class="st21" d="M394.6,262.54c-4.64,0-4.65,7.21,0,7.21C399.24,269.75,399.25,262.54,394.6,262.54z"/>
			<path class="st21" d="M525.76,271.15c-4.64,0-4.65,7.21,0,7.21C530.4,278.36,530.4,271.15,525.76,271.15z"/>
			<g>
				<g>
					<path class="st19" d="M487.6,258.33c6.73,4.68,14.68,7.03,22.87,6.78c0.9-0.03,0.91-1.44,0-1.41
						c-7.97,0.25-15.62-2.04-22.16-6.59C487.56,256.59,486.86,257.81,487.6,258.33L487.6,258.33z"/>
				</g>
			</g>
			<g>
				<g>
					<path class="st19" d="M440.91,255.85c-7.01,3.03-14.71,5.38-22.39,3.94c-0.89-0.17-1.26,1.19-0.37,1.36
						c8.1,1.52,16.08-0.89,23.48-4.08C442.45,256.71,441.73,255.5,440.91,255.85L440.91,255.85z"/>
				</g>
			</g>
			<path class="st21" d="M533.28,235.49c-2.42,0.96-4.69,2.13-6.85,3.47c0.02-0.97,0.03-1.95,0.01-2.92
				c-0.07-3.13-0.08-6.22-2.48-8.56c-5.45-5.29-17.2-5.07-24.14-4.8c-11.53-0.48-21.76,5.86-25.51,15.33
				c-6.2-1.23-12.36-1.36-18.59-0.47c-2.8-10.57-13.4-18.06-25.68-17.87c-6.93-0.45-18.67-0.99-24.26,4.16
				c-1.46,1.34-2.08,2.97-2.38,4.72c-1.03-1.2-2.16-2.27-3.61-3.02c-2.74-1.42-5.18,2.73-2.43,4.15c1.76,0.91,2.87,2.49,4.05,4.03
				c0.53,0.69,1.05,1.38,1.58,2.07c0.01,3.03,0.19,6.05,0.5,9.06c0.01,0.36,0,0.71,0.04,1.07c0.58,6.39,3.91,12.13,9.38,16.16
				c5.38,3.97,12.2,5.8,19.2,5.16c0.9-0.08,1.78-0.2,2.65-0.36c12.8-2.34,22.09-12.81,21.65-24.62c5.56-0.83,11.11-0.7,16.63,0.39
				c-0.04,0.25-0.1,0.5-0.13,0.75c-1.44,12.24,7.77,23.57,20.92,26.34c0.86,0.18,1.75,0.33,2.64,0.43
				c14.53,1.71,27.6-7.51,29.14-20.56c0.04-0.36,0.04-0.71,0.07-1.06c0.15-1.18,0.28-2.36,0.39-3.55c2.59-2.01,5.44-3.68,8.49-4.89
				C537.4,239,536.16,234.35,533.28,235.49z M431.67,262.47c-5.83,0.53-11.48-0.98-15.92-4.25c-3.85-2.84-6.36-6.72-7.2-11.05
				c0-0.02,0.01-0.03,0-0.05c-0.07-0.57-0.16-1.21-0.26-1.87c-0.14-1.79,0.02-3.54,0.42-5.23c1.23-0.5,2.03-1.8,1.09-3.13
				c2.71-5.98,8.72-10.64,16.18-12.01c0.73-0.13,1.47-0.23,2.23-0.3c11.93-1.09,22.41,6.53,23.36,16.98
				C452.53,252,443.6,261.38,431.67,262.47z M520.85,248.83c-0.11,0.66-0.22,1.29-0.31,1.85c0,0.01,0,0.02,0,0.03
				c-2.1,9.53-12.25,16.03-23.51,14.7c-11.89-1.38-20.58-11.01-19.35-21.43c1.23-10.42,11.9-17.75,23.8-16.35
				C513.31,229.01,521.92,238.5,520.85,248.83z"/>
			<g>
				<g>
					<path class="st19" d="M485.5,292.53c3.2,4.26,3.21,10.94-0.01,15.15c-0.55,0.72,0.67,1.42,1.22,0.71
						c3.5-4.56,3.48-11.96,0.01-16.57C486.18,291.1,484.96,291.8,485.5,292.53L485.5,292.53z"/>
				</g>
			</g>
			<g>
				<g>
					<path class="st19" d="M432.87,290.06c-3.31,6.36-2.31,13.71,2.59,18.95c0.62,0.66,1.61-0.33,1-1
						c-4.45-4.76-5.38-11.46-2.37-17.24C434.51,289.96,433.29,289.25,432.87,290.06L432.87,290.06z"/>
				</g>
			</g>
			<g>
				<g>
					<path class="st13" d="M467.11,760.63c1.2,28.29,2.39,56.58,3.59,84.88c0.05,1.2,1.93,1.21,1.88,0
						c-1.2-28.29-2.39-56.58-3.59-84.88C468.93,759.43,467.06,759.42,467.11,760.63L467.11,760.63z"/>
				</g>
			</g>
			<g>
				<g>
					<path class="st13" d="M537.72,973.23c17.35-29.33,32.8-59.76,46.25-91.07c0.47-1.1-1.14-2.05-1.62-0.95
						c-13.45,31.31-28.9,61.74-46.25,91.07C535.48,973.33,537.1,974.27,537.72,973.23L537.72,973.23z"/>
				</g>
			</g>
			<g>
				<g>
					<path class="st13" d="M543.51,723.29c13.43-1.89,26.21-6.91,37.35-14.65c0.98-0.68,0.05-2.31-0.95-1.62
						c-11.02,7.66-23.61,12.6-36.9,14.46C541.82,721.65,542.33,723.46,543.51,723.29L543.51,723.29z"/>
				</g>
			</g>
			<g>
				<g>
					<path class="st13" d="M347.91,708.78c-1.14-1.3-2.28-2.6-3.42-3.9c-0.69-0.79-2.1,0.27-1.47,1.14
						c12.42,17.33,32.81,28.06,54.14,28.43c1.21,0.02,1.21-1.86,0-1.88c-20.63-0.35-40.5-10.72-52.52-27.5
						c-0.49,0.38-0.98,0.76-1.47,1.14c1.14,1.3,2.28,2.6,3.42,3.9C347.38,711.02,348.71,709.69,347.91,708.78L347.91,708.78z"/>
				</g>
			</g>
			<g>
				<g>
					<path class="st11" d="M527.82,500.59c-1.62,27.43-18.6,52.95-43.24,65.09c-0.58,0.28-0.07,1.14,0.5,0.86
						c24.97-12.3,42.1-38.18,43.74-65.95C528.86,499.94,527.86,499.95,527.82,500.59L527.82,500.59z"/>
				</g>
			</g>
			<g>
				<g>
					<path class="st11" d="M393.24,487.55c4.22,31.11,22.58,59.83,49.03,76.75c7.67,4.91,16.75,10.06,26.17,8.14
						c0.63-0.13,0.36-1.09-0.27-0.96c-9.01,1.83-17.73-3.18-25.08-7.84c-6.44-4.09-12.41-8.9-17.82-14.28
						c-10.72-10.67-19.23-23.59-24.75-37.68c-3.08-7.85-5.19-16.04-6.32-24.4C394.12,486.65,393.16,486.92,393.24,487.55
						L393.24,487.55z"/>
				</g>
			</g>
			<g>
				<g>
					<path class="st11" d="M435.78,579.39c24.26,9.45,52.74,5.77,73.81-9.52c0.51-0.37,0.02-1.24-0.5-0.86
						c-20.88,15.16-49,18.78-73.04,9.42C435.44,578.2,435.19,579.16,435.78,579.39L435.78,579.39z"/>
				</g>
			</g>
			<g>
				<g>
					<path class="st11" d="M547.77,567.66c6.66,0.28,13.31,0.55,19.97,0.83c0.64,0.03,0.64-0.97,0-1
						c-6.66-0.28-13.31-0.55-19.97-0.83C547.13,566.64,547.13,567.64,547.77,567.66L547.77,567.66z"/>
				</g>
			</g>
			<g>
				<g>
					<path class="st11" d="M553.6,571.83c2.5,0,4.99,0,7.49,0c0.64,0,0.64-1,0-1c-2.5,0-4.99,0-7.49,0
						C552.96,570.83,552.96,571.83,553.6,571.83L553.6,571.83z"/>
				</g>
			</g>
			<g>
				<g>
					<path class="st11" d="M375.79,575.09c4.84-2.59,10.07-3.96,15.56-4.09c0.64-0.01,0.64-1.01,0-1
						c-5.66,0.13-11.07,1.56-16.06,4.23C374.72,574.53,375.22,575.39,375.79,575.09L375.79,575.09z"/>
				</g>
			</g>
			<g>
				<g>
					<path class="st11" d="M374.84,581.79c4.16-1.66,8.32-3.33,12.48-4.99c0.59-0.24,0.33-1.2-0.27-0.96
						c-4.16,1.66-8.32,3.33-12.48,4.99C373.99,581.07,374.24,582.03,374.84,581.79L374.84,581.79z"/>
				</g>
			</g>
			<g>
				<g>
					<path class="st11" d="M440.76,478.44c4.85,7.27,12.53,12.15,21.19,13.39c0.63,0.09,0.9-0.87,0.27-0.96
						c-8.41-1.2-15.87-5.85-20.59-12.93C441.27,477.4,440.41,477.9,440.76,478.44L440.76,478.44z"/>
				</g>
			</g>
			<g>
				<g>
					<path class="st11" d="M490.84,477.78c-2.22,2.5-4.44,4.99-6.66,7.49c-0.43,0.48,0.28,1.19,0.71,0.71
						c2.22-2.5,4.44-4.99,6.66-7.49C491.97,478.01,491.27,477.3,490.84,477.78L490.84,477.78z"/>
				</g>
			</g>
			<g>
				<g>
					<path class="st11" d="M382.48,647.59c8.06,7.92,19.45,11.56,30.62,9.84c0.63-0.1,0.36-1.06-0.27-0.96
						c-10.8,1.66-21.86-1.94-29.65-9.59C382.73,646.43,382.03,647.13,382.48,647.59L382.48,647.59z"/>
				</g>
			</g>
			<g>
				<g>
					<path class="st11" d="M513.66,657.58c8.05-0.5,16.09-0.99,24.14-1.49c0.64-0.04,0.64-1.04,0-1c-8.05,0.5-16.09,0.99-24.14,1.49
						C513.03,656.62,513.02,657.62,513.66,657.58L513.66,657.58z"/>
				</g>
			</g>
		</g>
		<path class="st22" d="M411.36,365.18c0,0,1.7-19.3,7.32-29.48c5.61-10.18,14.06-33.59,18.58-32.05s-2.52,17.34,1.21,22.98
			c2.51,3.79,20.36-5.81,23.02-6.98c4.16-1.83,8.3-3.69,12.46-5.52c5.17-2.27,9.81-3.87,14.12-7.72c3.13-2.8,6.17-5.71,9.1-8.72
			c0.37-0.38,0.78-0.78,1.31-0.85c0.63-0.08,1.21,0.35,1.59,0.86c1.62,2.17,0.5,5.26-0.82,7.62c-4.6,8.2-11.12,14.03-18.2,20.01
			c-2.22,1.87-10.3,6.57-10.27,9.74c1.53-0.03,5.4-1.47,7.83,5.59c2.44,7.06-3.7,4.98-0.36,10.14c1.48,2.3,5.34,3.18,6.98,6.52
			c1.34,2.74-3.8,6.16-1.98,8.86c2.01,2.98-5.14,14.01-14.22,18.79c-1.98,1.04-40.98,3.99-40.98,3.99L411.36,365.18z"/>
		<g>
			<g>
				<path class="st19" d="M474.67,299.94c-5.98-7.26-24.15-3.93-29.27,3.02c-0.82,1.11,1.04,2.17,1.84,1.08
					c4.36-5.91,20.96-8.61,25.92-2.59C474.03,302.51,475.53,300.99,474.67,299.94L474.67,299.94z"/>
			</g>
		</g>
		<g class="st23">
			<g>
				<path class="st24" d="M363.21,585.99c27.37-47.94,71.16-175.84,76.86-210.64c1.09-6.64-17.84-25.88-31.17-3.44
					c-80.25,135.09-77.36,143.32-81.58,161.62C323,552.26,343.98,619.67,363.21,585.99z"/>
			</g>
		</g>
		<g>
			<g>
				<path class="st9" d="M603.76,629.51c-2.72,2.49-5.19,4.68-9.18,4.61c-17.53-0.34-34.89-0.42-52.36-2.26
					c-17.51-1.84-34.9-4.65-52.21-7.86c-27.07-5.01-53.96-11.5-81.27-15.2c-6.99-0.95-17.54-27.37,9.96-27.37
					c35.45,0,70.89-0.89,106.33-1.92c13.65-0.4,27.3-0.82,40.95-1.06c6.51-0.12,13.03-0.94,19.47,0.72
					c5.14,1.32,8.69,5.06,13.15,7.51c4.58,2.52,11.88,3.01,15.45,7.09c5.21,5.97-1.54,13.98-2.03,20.3
					c-0.5,6.52-2.38,10.13-7.19,14.46C604.46,628.86,604.11,629.19,603.76,629.51z"/>
			</g>
		</g>
		<g>
			<path class="st19" d="M357.8,590.06c-5.36-3.74-21.88-6.17-29.77-11.85c-12.07-8.67-20.92-10.97-20.23-6.36
				c0.44,3.01,7.49,8.11,18.93,15.63c11.45,7.51,24.55,13.09,29.79,12.92C361.74,600.24,363.79,594.26,357.8,590.06z"/>
			<path class="st19" d="M376.7,579.15c0,0-27.91-1.35-32.13-3.43c-4.22-2.08-18.4-9.26-22.14-10.04c-3.74-0.78-6.86,1.15-3.56,5.41
				c3.31,4.25,24.22,18.5,38.6,19.71c14.39,1.21,19.03,0.67,21.36-4.8C381.17,580.54,378.51,579.25,376.7,579.15z"/>
			<path class="st19" d="M390.69,577.89c0,0-27.9-1.35-32.12-3.43c-4.22-2.08-18.4-9.25-22.15-10.04c-3.74-0.78-6.86,1.15-3.56,5.41
				c3.31,4.25,18.8,15.2,33.18,16.4c14.38,1.21,24.46,3.98,26.79-1.49C395.16,579.27,392.51,577.98,390.69,577.89z"/>
			<path class="st9" d="M423.5,584.37c-3.03-2.38-5.06-5.57-15.86-6.93c-10.8-1.35-28.04,12.53-46.68,12.53
				c-16.47-0.01-17.15,13.2,0.03,16.18c17.18,2.97,44.43,3.29,53.4,2.72C428.22,607.99,430.93,590.19,423.5,584.37z"/>
			<path class="st9" d="M361.58,590.95c-8.46-0.78-27.13-3.23-36.31-6.39c-9.19-3.16-17.81-5.91-18.17-2.89
				c-0.36,3.02,5.38,7.19,18.01,12.47c12.64,5.28,27.21,10.84,35.64,11.03C365.99,605.28,368.87,591.63,361.58,590.95z"/>
			<path class="st9" d="M420.58,581.92c-4.2-3.97-23.93-11.57-50.15-12.44c-11.15-0.37-22.19-5.93-22.42-2.49
				c-0.48,7.29,8.31,9.74,15.52,11.27c7.21,1.53,10.41,2.76,21.3,9.88C395.71,595.27,433.88,594.54,420.58,581.92z"/>
		</g>
		<g>
			<g>
				<path class="st9" d="M360.37,580.31c27.37-47.94,71.16-175.84,76.86-210.64c1.09-6.64-17.84-25.88-31.17-3.44
					c-80.25,135.09-77.36,143.32-81.58,161.62C320.16,546.58,341.14,613.99,360.37,580.31z"/>
			</g>
		</g>
		<path class="st9" d="M407.41,363.6c0.08-2.88,0.59-5.75,1.01-8.59c0.58-3.92,2.28-6.93,3.71-10.59c1.46-3.74,3.01-7.44,4.76-11.06
			c5.08-10.48,12.29-34.34,16.89-33.03c3.41,0.97,1.46,9.36,1.26,11.66c-0.39,4.39-1.61,11.53,3.38,13.98
			c1.09,0.53,2.34,0.64,3.55,0.57c3.93-0.22,8.28-2.93,11.76-4.65c14.64-7.23,27.02-16.2,38.49-27.83c1.34-1.36,2.88-2.82,4.79-2.84
			c3.96-0.04,3.5,4.11,2.72,6.51c-1.26,3.9-2.9,6.63-5.78,9.62c-4.21,4.37-8.64,8.52-13.27,12.45c-2.31,1.96-4.68,3.86-7.09,5.71
			c-1.3,1-4.75,2.5-4.62,4.48c0.39,5.99,5.32-1.75,8.13,5.18c2.81,6.93-3.43,5.17,0.17,10.16c1.6,2.22,5.51,2.9,7.32,6.15
			c1.49,2.67-3.47,6.36-1.51,8.96c2.17,2.88-2.59,11.26-11.42,16.52c-3,1.78-6.79,2.75-10.03,3.98c-3.8,1.44-6.97,1.67-11.03,1.84
			c-4.09,0.17-8.11,0.14-12.21-0.23c-7-0.63-12.87-2.5-19.39-4.82c-5.13-1.83-10.46-4.16-11.37-10.2
			C407.43,366.22,407.38,364.91,407.41,363.6z"/>
		<path class="st25" d="M499.73,297.72c-1.26,3.9-2.9,6.63-5.78,9.64c-4.21,4.36-8.64,8.52-13.27,12.44
			c-2.3,1.97-4.67,3.86-7.08,5.71c-1.31,0.99-4.74,2.49-4.62,4.48c0.39,5.99,5.31-1.76,8.12,5.18c2.81,6.92-3.43,5.17,0.17,10.15
			c1.61,2.21,5.52,2.89,7.33,6.15c1.49,2.66-3.48,6.35-1.52,8.97c4.09,5.47-10.91,20.02-16.15,16.58c-0.6-0.4-1.01-1.02-1.37-1.65
			c-3.85-6.55-5.35-14.19-8.51-21.1c-2.43-5.32-6.35-10.66-11.88-13.03c-2.72-1.17-5.29-0.23-7.93-1.35
			c-2.69-1.14-4.98-3.51-6.39-6.03c-2.3-4.08-2.76-8.99-2.18-13.65c0.58-4.64,2.13-9.11,3.68-13.52c0.5-1.45,1-2.9,1.52-4.36
			c0.18-0.51,0.43-1.08,0.78-1.53c2.19,2.06,0.57,9.11,0.39,11.18c-0.38,4.37-1.61,11.53,3.38,13.97c1.1,0.54,2.34,0.65,3.55,0.58
			c3.94-0.24,8.28-2.93,11.76-4.64c14.65-7.24,27.04-16.2,38.51-27.85c1.33-1.36,2.87-2.8,4.79-2.84
			C500.97,291.18,500.51,295.34,499.73,297.72z"/>
	</g>
</g>
<g class="st26">
	<path class="st5" d="M364.57,244.33c7.42,19.34,1.4,29.68-23.03,53.47c0.18,4.09,0.73,9.15,1.53,14.11
		c-2.2,2.23-4.43,3.64-7.57,4.84c-10.39,3.99-23.01-5.04-27.09-15.68c-2.22-5.8,0.16-11.15,7.66-17.63
		c13.21-12.55,15.59-14.3,14.38-17.44c-2.04-5.32-13.24-8.51-34.81-3.29c-4.11-2.03-6.98-5.92-8.74-10.51
		c-4.08-10.64,1.43-23.01,20.05-30.15C332.09,212.42,357.52,225.96,364.57,244.33z M326.32,353.55
		c-5.47-14.26-1.15-23.96,11.66-28.87c12.57-4.82,25.04,0.94,29.11,11.57c2.97,7.74,2.38,14.89-0.38,22.88
		c-2.38,1.75-7.57,4.84-12.89,6.88C337.64,372.22,329.84,362.74,326.32,353.55z"/>
</g>
<g class="st26">
	<path class="st5" d="M675.28,719.17c4.73,24.11-4.4,34.98-37.79,57.8c-0.62,4.82-1,10.84-1.09,16.8c-3.02,2.16-5.91,3.35-9.83,4.12
		c-12.96,2.54-25.86-10.57-28.46-23.83c-1.42-7.23,2.46-13,12.54-19.05c17.99-11.98,21.13-13.53,20.36-17.45
		c-1.3-6.63-13.75-12.64-40.01-10.93c-4.39-3.21-6.96-8.34-8.08-14.06c-2.6-13.26,6.36-26.6,29.57-31.15
		C643.82,675.27,670.79,696.26,675.28,719.17z M608.35,839.02c-3.49-17.78,3.54-28.23,19.51-31.37
		c15.67-3.07,29.07,6.19,31.67,19.45c1.89,9.64-0.25,17.89-5.1,26.66c-3.14,1.55-9.83,4.12-16.46,5.42
		C617.78,863.14,610.6,850.47,608.35,839.02z"/>
</g>
</svg>
