<?xml version="1.0" encoding="UTF-8"?>
<svg width="751.02" height="752.76" data-name="Layer 1" version="1.1" viewBox="0 0 751.02 752.76" xmlns="http://www.w3.org/2000/svg" xmlns:xlink="http://www.w3.org/1999/xlink">
 <defs>
  <pattern id="pattern1084" patternTransform="matrix(.53266 .46944 -.46944 .53266 -137.84 -139.16)" xlink:href="#New_Pattern_Swatch_2-3"/>
  <pattern id="pattern1082" patternTransform="matrix(.22 .02 -.02 .22 -121.97 -131.1)" xlink:href="#New_Pattern_Swatch_4"/>
  <pattern id="pattern1080" patternTransform="matrix(.22 .02 -.02 .22 -121.97 -131.1)" xlink:href="#New_Pattern_Swatch_4"/>
  <pattern id="pattern1078" patternTransform="matrix(.53266 .46944 -.46944 .53266 -139.29 -139.08)" xlink:href="#New_Pattern_Swatch_2-5"/>
  <pattern id="pattern1076" patternTransform="matrix(.53266 .46944 -.46944 .53266 -139.29 -139.08)" xlink:href="#New_Pattern_Swatch_2-5"/>
  <pattern id="pattern1074" patternTransform="matrix(.53266 .46944 -.46944 .53266 -137.84 -139.16)" xlink:href="#New_Pattern_Swatch_2-3"/>
  <pattern id="pattern1072" patternTransform="matrix(.53266 .46944 -.46944 .53266 -137.36 -139.35)" xlink:href="#New_Pattern_Swatch_2"/>
  <style>.cls-1{fill:none;}.cls-2{fill:#cc7353;}.cls-3{fill:#035693;}.cls-4{fill:#333;}.cls-4,.cls-5,.cls-6{opacity:0.14;}.cls-5,.cls-7{fill:#1a1a1a;}.cls-8{fill:#999;}.cls-9{fill:#fff;}.cls-10{fill:#007cc7;opacity:0.1;}.cls-11{fill:#afc7d7;}.cls-12{fill:gray;}.cls-13{fill:#e6e6e6;}.cls-14{fill:#d9ccc3;}.cls-15{fill:#b85c42;}.cls-16{fill:#6b4c33;}.cls-17{fill:#fda689;}.cls-18{fill:url(#New_Pattern_Swatch_2);}.cls-19{fill:#472516;}.cls-20{fill:url(#New_Pattern_Swatch_2-3);}.cls-21{fill:url(#New_Pattern_Swatch_2-5);}.cls-22{fill:#633625;}.cls-23{fill:#331318;}.cls-24{fill:#f28561;}.cls-25{fill:#002042;}.cls-26{fill:url(#New_Pattern_Swatch_4);}.cls-27{fill:#fc927a;}.cls-28{fill:#fab993;}.cls-29{fill:#063c70;}.cls-30{fill:#91d5e5;}.cls-31{fill:#ddd4cf;}.cls-32{fill:#00456b;}</style>
  <pattern id="New_Pattern_Swatch_2" width="50" height="50" data-name="New Pattern Swatch 2" patternTransform="translate(-12.81 -15.74) rotate(41.39) scale(.71)" patternUnits="userSpaceOnUse" viewBox="0 0 50 50">
   <rect class="cls-1" width="50" height="50"/>
   <rect class="cls-2" width="50" height="50"/>
  </pattern>
  <pattern id="New_Pattern_Swatch_2-3" width="50" height="50" data-name="New Pattern Swatch 2" patternTransform="translate(-13.29 -15.55) rotate(41.39) scale(.71)" patternUnits="userSpaceOnUse" viewBox="0 0 50 50">
   <rect class="cls-1" width="50" height="50"/>
   <rect class="cls-2" width="50" height="50"/>
  </pattern>
  <pattern id="New_Pattern_Swatch_2-5" width="50" height="50" data-name="New Pattern Swatch 2" patternTransform="translate(-14.74 -15.47) rotate(41.39) scale(.71)" patternUnits="userSpaceOnUse" viewBox="0 0 50 50">
   <rect class="cls-1" width="50" height="50"/>
   <rect class="cls-2" width="50" height="50"/>
  </pattern>
  <pattern id="New_Pattern_Swatch_4" width="134" height="134" data-name="New Pattern Swatch 4" patternTransform="matrix(.22 .02 -.02 .22 2.58 -7.49)" patternUnits="userSpaceOnUse" viewBox="0 0 134 134">
   <rect class="cls-1" width="134" height="134"/>
   <rect class="cls-3" width="134" height="134"/>
   <polygon class="cls-4" points="134 105 134 116 0 116 0 105"/>
   <polygon class="cls-5" points="0 46 0 35 134 35 134 46"/>
   <g class="cls-6">
    <rect class="cls-7" x="29" width="11" height="134"/>
   </g>
   <g class="cls-6">
    <rect class="cls-7" x="90" width="11" height="134"/>
    <rect class="cls-8" x="105" width="5" height="134"/>
   </g>
   <g class="cls-6">
    <polygon class="cls-9" points="0 58 0 53 134 53 134 58"/>
   </g>
  </pattern>
 </defs>
 <title>52.1</title>
 <path class="cls-10" d="m750.45 446.45c-4 35.9-17.74 55.87-34.36 69.4-28.23 23-64.76 27.37-75.93 59.72-17.74 51.37 25.62 60.26 30.5 81.45a39.88 39.88 0 0 1 1 6.44v0.16 1 0.31 0.65 0.45a0.81 0.81 0 0 1 0 0.22v0.69a2.64 2.64 0 0 1 0 0.28v0.35 0.63c-7.22 95.23-437.81 25-585.27-1.91-72.19-13.16-109.19-94.49-71.29-157.33 0.56-0.94 1.15-1.88 1.74-2.84 59.7-95.16 130.33-67.05 161.22-173.36s180.08-138.28 328.48-138.57 115.91 91.85 112.6 138.57 142.07 16.78 131.31 113.69z" fill="#007cc7" opacity=".1"/>
 <path class="cls-11" d="m149.24 671.65c-3.22 1.18-6 2.78-11.81 4.16 2.57-1.36-3.13 0.44-3.17 0.15-2.89 1.34-5.77 2.82-8.58 4.45-4.33 1.79-9.33 4.41-12.73 7.58a29.25 29.25 0 0 1 4.86-3.45c-2.62 2.2-5.22 4.05-7.86 6.46a21.61 21.61 0 0 0-6.64 10.26 24.42 24.42 0 0 1 1.38-4.24 21.44 21.44 0 0 0-2.82 9.6 23 23 0 0 0 1.3 8.48h-0.72c0.53 0.26 1.63 3.18 3.14 5.88a60 60 0 0 0 3.85 6.3c-3.93-6.1-5-9.57-5.67-12.85a32.91 32.91 0 0 1-0.57-5.72 20.46 20.46 0 0 1 0.31-4 23.47 23.47 0 0 1 1.33-5.21c-1.45 6-1.21 10.74 1.34 16.23 0.63 2.16 0.88 3 0.74 3.24 1.1 1.61 1.84 1.91 3.65 4.73l0.17 1a27.56 27.56 0 0 0 5.12 7.34l2.47 2.54c1 1 2.08 2.25 3.88 3.82 0.51 0.9-1.47-0.1-3.67-2.28a60.16 60.16 0 0 1-6.06-7.57c0.74 2-0.5 0.14-1.72-1.65s-2.39-3.6-1.65-1.11l1.85 2.11c1.42 2.41 0.86 2.36 0 0.88 2.06 3.09 1.47 2.43 2.59 3.42 2 3.12 3.3 4.61 3.77 5.31s0.23 0.62-0.07 0.55-0.61-0.16-0.16 0.56a10.52 10.52 0 0 0 1.45 1.75 19.49 19.49 0 0 0 4 3.15 20.71 20.71 0 0 1-3.61-2.24c-1.09-0.84-1.84-1.46-1.69-1a37.91 37.91 0 0 1-5.25-6.93l-0.66 0.21c2.7 4.31 6.18 8 10.05 9.94a20.36 20.36 0 0 0 9.84 2.31 18 18 0 0 1-4.6-1.08c-0.65-0.26-0.59-0.38-0.37-0.44 0.45-0.17 1.46-0.12-1-1.33a48.7 48.7 0 0 1 4.74 1.64c0.39 0 1.82 0.23 3.05 0.29s2.28 0 2-0.16a11.37 11.37 0 0 0 4.35 1.12c2.14 0.27 4.63 0.34 7 0.47 4.64 0.17 8.46 0.22 6.3 1.19a109 109 0 0 0 14.92-1.75c6.39-1.07 13.44-2.52 19.23-3.55l-3.07 1c12.37-0.73 10.47-2.86 17.44-4.33-6.08 1.44 5.58-0.18 8.11 0 5.4-1.11 9.79-2.45 17.53-2.58 1.62 0.61 1.83 1.53 6.72 1.7 1.11-0.17 2.22-0.35 3.35-0.47 4.89 0.19 11.53 0.33 14.65 1h-0.68c5.51 0.91 5.85 0 1.54-0.58l5.34 0.21 0.15 0.22c7.07 0.45 13.77 0.44 25 2-3.09 0.17 8.32 2.42-1.85 1.11 3 0.12-1.51-0.85-2-1.21a64.6 64.6 0 0 0-8.66-0.65c1.14 0.52-0.06 1.21-2.07 1.41 3.68 0 10.56 1 16.81 1.84s11.86 1.39 12.84 0.65c4.53 0.64 9.8 1.17 15.26 1.58s11.09 0.61 16.34 0.94c-0.43-0.08-1.28-0.23-1-0.35l9.05 0.77-2.09 0.13 6 0.56c0.63 0.27-1.7 0.53-4.18 0.58-1.42 0.09-2.7-0.14-1.32-0.23-6.47 0.52 5.37 0.29 1.17 0.87-1.59-0.11-3.65 0-4.79 0 7.4 0.48 10.81-0.54 15.36 0.16a73.19 73.19 0 0 1 7.44-1c3.05-0.26 6.46-0.63 9.81-0.61-2.55 0.58 7.18-0.62 3.93 0.38 2.54-0.51 8.49-0.69 9.44-1.25a33 33 0 0 1-5.8 0.58c2.71-0.47 3-0.94 6.31-1.2 0.44 0 0.21 0.17 0.21 0.17 4.27-0.87 1.3-1.65 8.83-2.55 19.72-2.83-2.57 2 0.25 2 0.69-0.46 9.39-1.82 13.35-2l-0.92 0.31a33 33 0 0 1 7.08-1.09 38.19 38.19 0 0 1 4.72-2.28l8.79-1.41-1.77 0.61c2-0.44 3.74-0.73 5.51-1 0.84 0.35-1.77 0.61-4.43 1.19a11 11 0 0 0 5.27-0.84l-1.1 0.13c2.22-0.59 10.36-2.53 3.8-1.7 4.83-1.19 6.52-0.5 9.84-1.24 0.41 0.34-2.66 0.92-0.92 1 3.27-0.42 5.45-0.69 8.08-1.26-2.61 0.25 0.69-0.47-3.45-0.1 1.54-0.44 5.69-1.14 5.49-1.31a20.39 20.39 0 0 1-4.59 0.69 117.34 117.34 0 0 1 13.49-2.01 4.71 4.71 0 0 1-1.09 0.42c5.77-1.45 14.62-2.53 18.46-3.71h-1.77a27.33 27.33 0 0 1-5.44 0.72c4.39-0.8-3.24-0.29 1.39-1.25 6.39-1.14 12.22-0.92 15.64-2.19-6.14 0.63-14.48 1.05-16.91 1.82 1.32-0.16 2.64-0.35 4-0.47-3 0.7-5.92 1.48-8.87 2.22-0.4-0.34-7.9 1.31-7.85 0.68 3.08-0.56 5.92-0.91 8.33-1.31-0.61-0.19-8.32 1-11.59 1.38l4.14-0.37c-7.25 1.58-16.64 2.78-23.69 4.27 5.51-1.34-7.18 0.65-2.78-0.55a17.55 17.55 0 0 1 3.93-0.56c0.47-0.65-4.37 0.55-5.88 0.35-0.69 0.47-7.93 1.76-3.57 1.54-2.4 0.1-7.47 1.46-10.74 1.52 1.06 0.52-5.94 1.27-7.08 1.73a27.8 27.8 0 0 1-3.63 0.19l10.3-2.26c1.54-0.1 4.37-0.53 3.51-0.55v-0.26l15.35-3.56 1.94-0.3-0.37 0.13 0.62-0.17c33.09-5 66.2-9.9 99.44-9-2.19 0.07-5.74-0.11-7.2 0.21l0.23-0.12-3.38 0.23c2.85 0 8.5 0 10.94-0.31 2.33 0.07 4.67 0.17 7 0.3l-5.84-0.56-6.91-0.65a96.66 96.66 0 0 1 14.28-0.55c-1.75 0.23 0 0.35 0.41 0.48 15-1.58 29.51-1.51 44.6-1 6.34 0.23 12.72 0.45 19-0.8 12.1-2.42 23.71-10.28 35.93-8.77 4.58 0.57 10 2.07 13.08-2.5 3.47-5.17 0.57-14.25-4.05-17.54s-10.08-2.74-15.26-3c-6.75-0.34-13.49-2.17-20.21-1.49-8.6 0.87-16.32 4.16-25 3.35-6.17-0.58-12.69-2.35-18.88-2.15 3.51-0.11-2.2-0.87-5-1.5-8.56-0.6-26.69-2.22-39.64-2.8 1.76-0.56-1.83-0.86-6-1.15s-8.87-0.56-9.35-1.18c-2.88-0.22-7.37-0.27-7.71 0.14 1.61-0.12 5.48 0.49 5 0.7-4.22-0.18-10.63-0.56-11.25 0l-5.16-0.89a4.24 4.24 0 0 1-2.44 0.67l-3.38-0.2c-2-0.45-2.11-0.33-2.24-0.13l-3.75-0.22a18.5 18.5 0 0 0 3.22-0.65 59.6 59.6 0 0 0-7-0.13c-1-0.4 3.15-0.76 6.54-0.81l-5.66-0.66a162.46 162.46 0 0 1-23.87 0.06c1.46-0.32 4.31-0.14 2-0.85-3.8-0.06-8.9 0.4-13.87-0.32 0.69 0 0.27-0.1 0.95-0.11-8.82 0-6.59-0.59-14.52-1.23a1.44 1.44 0 0 1 0.41-0.19l-4.89 0.07c-10.25 0.19-11.26-1.56-17.29-2.55h1.35a78 78 0 0 0-9.84-1.23c-4-0.38-7.89-0.7-9.61-1 4.24 0.89 1.38 0.57 4.44 1.62 3.81 0.23 2.76-0.7 9 0.2-0.9 0.64-8.9 0-10.62 0.37-3.54-0.32-5.8-1.7-6.09-2.13-8.8-1-13.68-2-24.49-3.27-3.93-0.07-7.1 0.94-16-1.22l0.53-0.17c-0.37 0.39-4.36-0.69-6.24-0.59 3 1.12-3.92 0-0.21 1.13-5.29-0.59-6-1.67-6.5-2.32-3.87 0.56-10.43-1.7-18.65-1.68 1.49-0.39 10.4 0.33 6.78-0.47-3.54 0.05-7.07 0.21-10.59 0.4l4.66 0.27c-8 0.24-10.18-0.63-14.82-1.05-0.45-0.14 0.08-0.25 1-0.31s2.26 0 3.41 0a80.6 80.6 0 0 0-9.62 0.23c-2.43 0.3-10.82 1.09-14.1 2l-1.36 0.06a1.87 1.87 0 0 1 0.6-0.18 15.66 15.66 0 0 0-1.66 0.32l-4.22 0.39 0.83-0.24-1.61 0.32c-1.45 0.11-2.9 0.32-4.34 0.55l-2.17 0.65 1.09-0.18c-0.12 0.41-1.44 1-3.46 1.6-2.45 0.52-4.9 1.11-7.33 1.79s-5.11 1.49-7.66 2.3c-2.77 0.68-5.81 1.74-8.63 2.66-3.5 1.15-6.66 2-8.29 1.87 9.33-3.25 13.79-4.65 23.83-7.84 2.74-0.28 1.1 0.19-1.17 0.94s-5.24 1.71-5.32 2c1.9-0.53 3.81-1 5.73-1.52-0.95-0.36 11.15-3.06 7.92-3.36-3.21 0.72-6.46 1.33-9.58 2.22s-6.18 1.79-9.17 2.7a149 149 0 0 1-17.05 4.46 93.68 93.68 0 0 0 8.64-7.56c0-0.07 0.12-0.22 0.54-0.52l-0.54 0.52c0.07 0.22 2.11-0.58 4.44-1.48-0.42 0.39-0.86 0.83 2-0.1 5.88-1.43 8.84-3.55 13.41-4.62l-1.37 0.44c2.16-0.42 4.62-1 6.92-1.57s4.52-1 6.14-1.59c1.83 0.13-1.28 0.76-4 1.31s-5 1.23-1.56 0.79a65.16 65.16 0 0 0-7.89 2c-2.64 0.88-5 1.82-6.75 2.38a51.5 51.5 0 0 1 7.64-1.56c1.92-0.16 2.89 0 2.12 0.45 6.34-1.87 6.25-2.31 5.94-2.72s-0.84-0.78 4.92-2c2.67-0.49 5.37-0.65 8.05-1 0.88-0.46 1.77-0.94 2.67-1.34 4.85-0.42-2.89 1.07 4.52 0.37 2-0.72 6.8-0.39 8.25-0.78-0.2 0.26-0.28 0.43 3.5 0.43 0.26-0.12-0.09-0.52 2.89-0.52 2 1-7.64 0.23-4.16 1.13 8.46 0 5.42-0.88 6.72-1.26h-1.61c0.09-0.34 3.7 0 3.32-0.4a29.3 29.3 0 0 0-4.14 0.13c2.57-0.3-4.21-0.73-6.84-0.59-5.92 0.54-18.24 1.42-26.37 3.26 0.7-0.18 2.09-0.53 1.17-0.51l-4.07 0.77-3.58 0.85c-2.28 0.53-4.38 1-6.46 1.62-4.17 1.17-8.35 2.57-14.12 4.49l-1.13 1.1c-5 1.49-6 2.16-6.17 2.76s0.71 0.94-0.5 1.33c-2.2 0.54-4 1.36-6 1.22 0.34-0.13 0.67-0.26 1-0.42a16.93 16.93 0 0 0-3.92 0.9c-0.38 0.14-0.71 0.37-3.43 0.3-2.2 0.14-1.25 0.23-0.07 0.27s2.56 0.06 1.14 0.27h-3.21c-0.77 0-1.34 0.2-2 0.23-1.37 0.11-3.1 0.22-7.71-1.53 0.26 0 0.07-0.33 0.51-0.41s1.51 0.1 4.14 0.66c-1.66-0.55-3.33-1.23-5.08-2 3.22 0.85 3.76 0.89 4.38 1a30.78 30.78 0 0 0 4.2 0.71 6.51 6.51 0 0 0 2.49-0.76 10.71 10.71 0 0 1 2.24-0.83 14.27 14.27 0 0 0-2.14 0.41 6.94 6.94 0 0 1-2.95 0c-3.86-0.75 0.69-0.26 1.08-0.46a11.13 11.13 0 0 1-5.38-1 20.88 20.88 0 0 0-5.54-1.67c0.74 1.14-0.21 0.83 3.33 2.5a33 33 0 0 1-5.68-1.92c-1.66-0.74-2.85-1.4-2.53-1.71l-1.09 0.42c-1-0.46-4.53-1.17-4.72-1.4l-1.58 0.11c3.14 1 5.87 1.83 11 3.19-2.22-0.19 2.45 2-4.24 0.11-3-0.8-0.25-0.48-0.38-0.72-2-0.47-3.76-0.75-5.31-1.06s-2.94-0.49-4.18-0.62l-3.35-0.42-2.86-0.3a45 45 0 0 0-13.1 0.61c3-0.79 10.77-1.19 17-1.18-3.75-0.84-8.09 0-11.62 0.28 3.14-0.53 3.68-0.81-0.11-0.83-0.51 0.17-1 0.38-1.5 0.57-2.24 0.2-6.15 0.88-6.48 0.73-0.07 0.17 0.91 0.12 2.92-0.05-2.72 0.66-6.56 1.59-10.83 2.7l-13.49 3.63a82.07 82.07 0 0 0 8-3.21c-10.06 1.64-19.76 0.8-29.69 4.71-5.28 2.08-10.43 4.9-15.89 5.93-6.8 1.29-14.18-0.14-20.16 4.38-2.59 2-4.89 6.28-3.39 9.8 0.88 2.06 2.71 2.92 4.05 4.45 3.21 3.69 3.16 10.59 5.8 15.05 1.69 2.86 4.27 4.38 6.69 6a89 89 0 0 1 19.15 17.04m126.55-72.48-3.88 1.12a22.55 22.55 0 0 1 3.88-1.12zm-69.48 72.64c-1 0.25-2.34 0.55-3.56 0.84-1.09 0.09-1.34 0-1.34-0.07 1.59-0.25 3.22-0.5 4.85-0.77zm-67.05-23.92a3.36 3.36 0 0 1-0.24-0.84c0.03 0.28 0.1 0.6 0.19 0.84zm119 18.88c-1.57 0.28-1.33 1.18-7.59 1.26-0.09-0.09 0.44-0.19 1.06-0.27-2.84 0.26-3.33 0.13-6.44 0.23-1-0.56 3.77-0.83 5.81-1.38-2 0.22-4.22 0.73-6.42 0.84l0.48-0.29c-2.2 0.28-4.4 0.56-6.6 0.88-2.65 0.82 5-0.53 5.43-0.15l-4.18 0.86c-4.81 0.63-17.64 2.88-22.2 2.73-5.67 0.62-3.07 1-4.4 1.6-3.29 1.12-6.57 0.93-9.87 1.69 0.2 0.5-3.78 1.06-3.82 1.71l-5.54 0.64c-3 1.36 6.66-0.73 8.17-0.58 3.07 0.39-4 0.89-2 1.1 4.22-0.73 4.45-1.22 6.47-1.69 2.4-0.45 3.72-0.45 3.7-0.12-6.8 0.73-3.53 1.29-9.08 2l-0.21-0.16c0 0.67-8 1.42-11 2-6.22 0 4.85-1.52 4.6-1.74q-3.69 0.59-7.44 1.07c3.22-0.76-0.12-0.81 4.18-1.71-4.5 0.75-5.11 0.17-9.43 1 4.87-1.32-6.2-0.26-6.77-1a135.44 135.44 0 0 1 13.65-0.18 83 83 0 0 1 8.36-0.87l3.36-1.38c-4 0.58-9.31 1.63-7.91 0.71-1.79 0.33-3.58 0.69-5.38 1a86.18 86.18 0 0 1 9.96-2.92c-10.41 0.51-18.37 3.2-27.05 2.38l1.34-0.1a35.55 35.55 0 0 1-10.55-1 15.76 15.76 0 0 1-6.07-3.06l-0.13-0.13c0.26 0.18 0.51 0.37 0.78 0.53 4.79 2.84 10.75 3.18 16.41 3.1a204.29 204.29 0 0 0 27-2.45l-1.07 0.57 0.62-0.16c10.31-1.89 1.05 0.87 11.58-1.28a5.4 5.4 0 0 0-0.8 0.36c4.27-1 12.23-2 13.05-2.88-1 0.17-5 0.65-6.94 0.72 4.5-0.77 9-1.53 13.5-2.22 0.95 0 1.87-0.06 2.93-0.17a33.33 33.33 0 0 0 3.64-0.64c0.36-0.09 0.6-0.17 0.78-0.23 5.39-0.71 10.79-1.25 16.22-1.53-0.42 0.61 12 0.34 5.71 1.31zm16.9-0.14c-6.4-0.41-1.93-0.32-6.48-0.86-0.25-0.12-0.09-0.22 0.29-0.3 4.8 0.21 9.59 0.58 14.37 1.07-4.24-0.26-8.55-0.61-8.28 0.11zm19.41 1.85c-2.18-0.35-8.39-0.88-8.85-1.5 3 0.33 3.87 0.4 3.54 0.23 3.12 0.38 6.24 0.8 9.36 1.24a3 3 0 0 0 0.82 0.33c-1.5-0.06-3.65-0.27-4.97-0.3zm80.46 9.76c-5.56 0 0.3-0.42-2.53-0.69-4.23 0.91-5.42-0.79-9.9 0.23-5.38 0-3.68-0.51-5.38-0.87 5.35 0.12-2.48-0.75 4.23-0.83a15.86 15.86 0 0 0-4.6 0.07 10.28 10.28 0 0 1-4 0.09l-0.67-0.82-8.81-0.88c-3.46-0.36-7.1-0.74-9.94-0.81 4.68 1-2.83 0.19-2.12 0.72 0.91-0.55 7.37 0.64 7.26 1-3.37-0.18-11.2-1-14.3-1.57l6.14 1.2c-2.58 0.11-11.66-0.45-11.92-0.37-2.75-0.72-6.93-1.27-8.31-1.9l5.26 0.2 1.78 0.77 3.09-0.19c-3.33-0.71-10.33-2.19-11.76-3 5.28 0.78 12.52 1.79 21.2 2.34 5 0.63 10 1.19 15 1.6a296.67 296.67 0 0 0 35.77 0.58l-0.26 0.06a34.27 34.27 0 0 1-5 0.72 28.76 28.76 0 0 1 4.2 0c-3.2 0.54-6.4 1.18-9.64 1.54a18.14 18.14 0 0 0 5.37-0.48 27.88 27.88 0 0 1 6.15-0.63c-0.44 0.75-0.04 1.13-6.41 1.92zm165.61-24.2q6.25 0.14 12.5 0.14h-0.06l4.09 0.55-4.66 0.43zm-285.67-42.49a3.91 3.91 0 0 1 2.11 0.28c-1.06 0.16-2.1 0.31-3.13 0.39zm-38.18-6.24c0.24-0.37 2-0.42 4-0.28s4.13 0.45 5.21 0.33a32.15 32.15 0 0 1 4.92 1.3c1.79 0.6 3.11 1.17 2.23 1.17a13.59 13.59 0 0 0-4.93-1 12 12 0 0 1-4.63-1.2c-0.88 0.3 0.36 0.72 2.2 1.26a2.13 2.13 0 0 0-1.15 0l-2.76-0.62-2.62-0.42c-1.47-0.2-2.88-0.35-2.47-0.54zm-6.8-0.08-1.58 0.14a63.17 63.17 0 0 0-12 1.52c-2.08 0.51-2.58 0.78-2 0.9-1.4 0.28-2.8 0.57-4.2 0.9 2.44-0.95 4.76-1.78 6.11-2.18a59.39 59.39 0 0 1 13.7-1.28zm-31.05 5.42c-0.29 0.27 0 0.28 0.66 0.18l-4.66 1.51c0.6-0.52-0.54-0.55 4-1.69zm-43.15 29.86a18.59 18.59 0 0 1 0.57-3.35 9.85 9.85 0 0 1 1.3-2.86c-0.2-0.56 0.66-3 2.42-5.41a40.89 40.89 0 0 1 6.21-6.45 21.47 21.47 0 0 1 7-3.69 38.46 38.46 0 0 0 6.47-2.64c-1 0.21-2 0.47-3 0.73a80.28 80.28 0 0 1 8.47-3.56c2.62-0.93 5.33-1.73 9.26-2.79 1.14 0.35-3.61 0.94-5.27 1.82l3.88-0.5c-1.67 0.54-4.78 2.11-4.87 1.47 0 0.33-2.43 1.65 2.4-0.16l-3.52 1.64a5.23 5.23 0 0 0 0.87-0.09l-3.19 1.21c-1.45 0.29-3.91 1.24-6.2 1.7-0.25-0.13 2-1.13 3.24-1.73a35.09 35.09 0 0 0-8 3.55c2.52-1.2 3.17-1.35 3.34-1.24s-0.13 0.48 0.55 0.48c-1.49 0.78-3.46 1.79-5.21 2.81a29.28 29.28 0 0 0-4.07 2.71c-1 0.61-1.89 1.25-2.68 1.8s-1.46 1.05-2 1.37c-1 0.65-1.37 0.62-0.43-0.68-1.95 2.3-4.15 4.85-4.77 8a9.23 9.23 0 0 1 1.06-2.4 0.9 0.9 0 0 1 0.69-0.31c0.21 0 0.43-0.09 0.8-0.55 0.2-0.23 0.39-0.58 0.7-1s0.73-1 1.22-1.82c0.4-0.19 0.52-0.14 0.45 0.08a20.66 20.66 0 0 0-4.17 6.77c-0.31 0.68-0.6 1.33-0.81 1.89 0.45-1.9-0.35-0.41-0.46-0.93a6.86 6.86 0 0 0-0.27 1.76 8 8 0 0 0 0 1.06c0 0.49 0.14 0.57 0.3 0.36a4.07 4.07 0 0 0 0.44-1c-0.08 0.43-0.18 0.85-0.22 1.29a19.85 19.85 0 0 0 0.66 7.12 26.76 26.76 0 0 0 0.6 3.41 27.65 27.65 0 0 1-1.7-5.14 10.22 10.22 0 0 0 0.83 4.14c0.57 1.47 1.35 2.93 1.95 4.18 0.52 1.48-0.47 0-1.68-2.41a50.52 50.52 0 0 1-2.91-7.59 10.67 10.67 0 0 1-0.25-3.05z" fill="#afc7d7"/>
 <g fill="#808080">
  <rect class="cls-12" transform="rotate(-26.91)" x="173.19" y="156.84" width="12.92" height="46.19"/>
  <path class="cls-12" d="m237.92 71.88a38 38 0 1 1 16.68-51.07 38 38 0 0 1-16.68 51.07zm-26.93-53.06a21.51 21.51 0 1 0 28.92 9.44 21.54 21.54 0 0 0-28.92-9.44z"/>
  <polygon class="cls-12" transform="translate(-124.55 -123.61)" points="260.22 266.94 480.52 155.15 696.33 424.35 350.06 600.06"/>
 </g>
 <polygon class="cls-8" transform="translate(-124.55 -123.61)" points="260.22 266.96 480.52 155.16 496.86 175.55 267.02 292.18" fill="#999"/>
 <g fill="#e6e6e6">
  <path class="cls-13" d="m239.01 243.49-23.3-44.86 22.43-11.65a5.13 5.13 0 0 1 6.81 2.16l18.64 35.88a5 5 0 0 1-2.16 6.82zm13.28-18.29-14-26.92-9 4.66 14 26.92z"/>
  <path class="cls-13" d="m274.89 224.85a4.88 4.88 0 0 1-6.82-2.16l-18.62-35.88a5 5 0 0 1 2.15-6.82l17.94-9.31a5.13 5.13 0 0 1 6.82 2.15l18.64 35.89a5 5 0 0 1-2.16 6.81zm8.8-16-14-26.91-9 4.66 14 26.91z"/>
  <path class="cls-13" d="m301.8 210.87-23.3-44.85 13.46-7 9.15 6.64-4.66-9 9-4.66 23.29 44.85-9 4.66-7-13.45-18.29-13.25 16.31 31.4z"/>
  <path class="cls-13" d="m313.26 142.49 7.73 17.9-3.88 2-10.09-16.63z"/>
  <path class="cls-13" d="m351.36 185.13-18.64-35.88-9 4.66-4.66-9 26.91-14 4.66 9-9 4.66 18.64 35.88z"/>
  <path class="cls-13" d="m253.22 308.98-23.29-44.86 22.42-11.64a4.82 4.82 0 0 1 3.85-0.31 4.88 4.88 0 0 1 3 2.46l7 13.46a5 5 0 0 1-2.16 6.81 5.14 5.14 0 0 1 6.82 2.16l7 13.45a5 5 0 0 1-2.16 6.82zm4-36.23-4.66-9-9 4.66 4.66 9zm9.32 17.94-4.66-9-9 4.66 4.66 9z"/>
  <path class="cls-13" d="m284.62 292.67-23.3-44.85 9-4.66 18.64 35.88 17.94-9.32 4.66 9z"/>
  <path class="cls-13" d="m316.02 276.39-21-40.37a5 5 0 0 1-0.37-3.81 4.93 4.93 0 0 1 2.53-3l17.94-9.32a5.12 5.12 0 0 1 6.81 2.15l21 40.37-9 4.66-9.32-17.94-9 4.66 9.32 17.94zm4-36.23-4.66-9-9 4.66 4.66 9z"/>
  <path class="cls-13" d="m347.45 260.05-21-40.37a5 5 0 0 1 2.16-6.81l9-4.66a5.12 5.12 0 0 1 6.81 2.15 5 5 0 0 1 2.16-6.81l9-4.66a5.11 5.11 0 0 1 6.81 2.16l21 40.36-9 4.66-18.7-35.88-4.48 2.33 18.64 35.87-9 4.66-18.63-35.88-4.49 2.33 18.66 35.89z"/>
  <path class="cls-13" d="m387.79 239.09-23.34-44.86 26.91-14 4.66 9-17.94 9.32 4.66 9 13.46-7 4.66 9-13.46 7 4.66 9 17.94-9.32 4.66 9z"/>
  <path class="cls-13" d="m244.91 386.17a4.88 4.88 0 0 1-6.82-2.15l-4.66-9 9-4.66 2.33 4.48 9-4.66-4.66-9-13.45 7a4.88 4.88 0 0 1-6.82-2.15l-11.65-22.43 9-4.66 9.27 17.99 9-4.66-9.31-17.94 9-4.66 21 40.37a5 5 0 0 1-2.15 6.81z"/>
  <path class="cls-13" d="m276.3 369.86a4.85 4.85 0 0 1-6.81-2.15l-18.64-35.89a5 5 0 0 1 2.16-6.81l17.94-9.32a5.11 5.11 0 0 1 6.81 2.16l18.69 35.88a4.9 4.9 0 0 1 0.34 3.91 5 5 0 0 1-2.49 2.9zm8.8-16-14-26.91-9 4.66 14 26.91z"/>
  <path class="cls-13" d="m307.7 353.56a4.86 4.86 0 0 1-6.81-2.16l-21-40.37 9-4.66 18.64 35.89 9-4.66-18.64-35.89 9-4.66 21 40.37a5 5 0 0 1-2.16 6.82z"/>
  <path class="cls-13" d="m334.62 339.58-23.3-44.86 22.43-11.65a5.13 5.13 0 0 1 6.81 2.16l7 13.46a5 5 0 0 1-2.16 6.81 5.14 5.14 0 0 1 6.82 2.16l9.32 17.94-9 4.66-9.32-17.94-9 4.66 9.32 17.94zm4-36.23-4.66-9-9 4.65 4.66 9z"/>
  <path class="cls-13" d="m370.5 320.94a4.88 4.88 0 0 1-6.82-2.16l-4.66-9 9-4.66 2.34 4.49 9-4.66-4.66-9-13.46 7a4.86 4.86 0 0 1-6.81-2.16l-9.32-17.94a5 5 0 0 1 2.15-6.81l17.94-9.32a5.13 5.13 0 0 1 6.82 2.15l4.66 9-9 4.66-2.33-4.48-9 4.66 4.66 9 13.45-7a5.13 5.13 0 0 1 6.82 2.15l9.32 17.95a5 5 0 0 1-2.16 6.81z"/>
  <path class="cls-13" d="m397.45 306.96-23.3-44.85 26.92-14 4.66 9-18 9.32 4.66 9 13.46-7 4.66 9-13.46 7 4.66 9 17.94-9.32 4.66 9z"/>
  <path class="cls-13" d="m428.81 290.65-23.3-44.85 9-4.66 18.64 35.88 17.94-9.32 4.66 9z"/>
  <path class="cls-13" d="m460.21 274.39-23.3-44.85 26.91-14 4.66 9-17.94 9.32 4.66 9 13.46-7 4.66 9-13.46 7 9.32 17.94z"/>
 </g>
 <path class="cls-14" d="m258.82 694.86s-3.72 14.53-5.12 23.47a41.87 41.87 0 0 1-1.05 6c-0.4 1.26-1.09 2.32-1.39 3.62-0.94 4.06-1.12 8.17-2.53 12.15-1.63 4.6-4.6 9-9 11.07a19.59 19.59 0 0 1-8.71 1.57c-3.74-0.06-7.79-0.9-10.22-3.74-1.81-2.12-2.41-5-2.95-7.71a19.07 19.07 0 0 1-0.53-6.19 17.37 17.37 0 0 1 1.92-5.31 62.48 62.48 0 0 1 8.79-13.51c3.12-3.5 5.11-8.69 7.17-12.89a72.25 72.25 0 0 0 4.68-12.36 5.33 5.33 0 0 1 2.2 0.88 9.89 9.89 0 0 1 11.17 1.71s5.47-0.8 5.57 1.24z" fill="#d9ccc3"/>
 <path class="cls-15" d="m260.21 691.08s-3.72 14.52-5.13 23.47-3.3 19.32-5.48 25.06-13.4 11.75-21.76 9-8.61-14-7.43-19.41 6.61-10.17 16.16-29.58a30.58 30.58 0 0 0 2.88-13.08 24.83 24.83 0 0 1 4 1.6 9.93 9.93 0 0 1 11.18 1.71s5.48-0.81 5.58 1.23z" fill="#b85c42"/>
 <g fill="#6b4c33">
  <path class="cls-16" d="m260.22 690.79a14.55 14.55 0 0 1-1.13 4.48 28.18 28.18 0 0 0-1.69 6l-2.64 17.46a73.69 73.69 0 0 1-2.68 12.68 24.78 24.78 0 0 1-6.79 10.87 14 14 0 0 1-4.61 2.78c-2.86 1-6 0.82-9 0.58a10.87 10.87 0 0 1-5.5-1.43 10.58 10.58 0 0 1-3-3.81c-1.71-3.19-3.28-6.65-3.09-10.27 0.16-3 1.56-5.87 3-8.55 3.32-6.06 7.11-11.86 10.41-17.94 2.47-4.54 6.61-11 6.17-16.35a8.2 8.2 0 0 1 3.72 0.82 9.93 9.93 0 0 1 11.18 1.71s5.55-1.06 5.65 0.97z"/>
  <path class="cls-16" d="m254.62 689.85s5.92-1.77 5.59 1.23c-0.16 1.42-5.72 27.1-5.72 27.1s-3.8-0.51-5.13 0.76c0 0-2.82-4-2.62-5.38s7.88-23.71 7.88-23.71z"/>
  <path class="cls-16" d="m243.45 688.14s-3 13.11-4.52 17.45-2 6.23-3.65 6.88a4.65 4.65 0 0 1-2.81 0.32s0-2.63-1.4-3.72c0 0 6.26-10.86 7.09-14.56s1.28-8 1.28-8 1.57-1.32 4.01 1.63z"/>
 </g>
 <g fill="#b85c42">
  <path class="cls-15" d="m242.22 702.31c2.6 1.67 6.14 1.14 8.48 3.21l0.31-1.16q-6.22 2.53-12.48 5c-0.82 0.32-0.47 1.67 0.37 1.34q6.26-2.46 12.47-5a0.7 0.7 0 0 0 0.31-1.16c-2.52-2.23-6-1.67-8.76-3.43-0.75-0.49-1.45 0.71-0.7 1.2z"/>
  <path class="cls-15" d="m241.27 702.53 3 5.07c0.84 1.42 2.62 3.46 2.62 5.16l0.88-0.67a53.45 53.45 0 0 1-9.07-3 0.71 0.71 0 0 0-1 0.78c1 3.88 3.64 7.42 5.7 10.79a0.7 0.7 0 0 0 1.27-0.16l0.34-0.89c0.32-0.83-1-1.2-1.34-0.37l-0.34 0.89 1.27-0.17c-2-3.25-4.6-6.73-5.56-10.46l-1 0.79a56.27 56.27 0 0 0 9.41 3.1 0.71 0.71 0 0 0 0.88-0.67c0-1.63-1-2.8-1.81-4.17l-4-6.77a0.7 0.7 0 0 0-1.2 0.71z"/>
  <path class="cls-15" d="m247.96 711.39-13.08 4.17a0.7 0.7 0 0 0-0.16 1.27c2.52 2 6.28 2.77 9.22 3.91 0.84 0.32 1.2-1 0.37-1.34-2.81-1.09-6.5-1.92-8.89-3.77l-0.17 1.27 13.08-4.17c0.85-0.27 0.49-1.61-0.37-1.34z"/>
  <path class="cls-15" d="m233.45 717.33a39.62 39.62 0 0 0 7.13 8.16 0.7 0.7 0 0 0 1.09-0.85l-0.22-0.4c-0.43-0.79-1.63-0.09-1.2 0.7l0.22 0.4 1.09-0.84a37.88 37.88 0 0 1-6.91-7.87c-0.49-0.74-1.69 0-1.2 0.7z"/>
  <path class="cls-15" d="m245.05 718.39c-1.69-0.4-3.94 0.75-5.53 1.2q-4.11 1.2-8.18 2.52a0.7 0.7 0 0 0 0 1.34 30 30 0 0 0 9.78 2.25c0.9 0 0.89-1.34 0-1.39a29.1 29.1 0 0 1-9.41-2.2v1.34c2.23-0.72 4.47-1.43 6.73-2.09 1-0.29 1.93-0.57 2.9-0.84s2.41-1 3.34-0.79 1.24-1.13 0.37-1.34z"/>
  <path class="cls-15" d="m247.92 701.24c-1.52-2.47-9.89-13.83-13.22-7.23-2.78 5.53 11.37 6.64 14 7.64l-0.17-1.27-1 0.66 0.84 1.09c1.46-1.73 5.06-3.4 7.45-2.94 1.43-0.53 1.71-0.23 0.82 0.91-0.05 0.93-0.48 1.29-1.3 1.09-1.2 0.47-4.82-0.18-5.56-0.28s-1.25 1.22-0.37 1.34c1.64 0.23 14.08 1.6 11.51-3.28-2.06-3.89-11.59-0.13-13.53 2.18-0.47 0.56 0.14 1.56 0.84 1.09l1-0.66a0.71 0.71 0 0 0-0.16-1.27c-2.81-1-7.14-1-9.6-2.54-2.1-0.25-1.82-1.33 0.84-3.22a11.38 11.38 0 0 1 2.76 2.27 31.08 31.08 0 0 1 3.61 5.12c0.47 0.76 1.67 0.06 1.2-0.7z"/>
 </g>
 <path class="cls-17" d="m517.96 399.22a22.64 22.64 0 0 0 5-4.18c3.07-3.59 25.49-21.65 25.49-21.65l-23.46-24.44s-16.61 17.44-19.75 18.8-5 2.32-8.25 1.83a38.25 38.25 0 0 1-4.33-0.94 57.7 57.7 0 0 1-5.65-1.91c-2-0.77-3.94-1.61-5.93-2.44h-0.11c-3.19-2.43-6-1.12-6 3.45a29.08 29.08 0 0 0 0.48 5.26 32.61 32.61 0 0 0 1 4.34c0.29 0.95 0.61 1.89 1 2.82a48.8 48.8 0 0 0 2.19 4.8c0.33 0.64 0.68 1.27 1 1.88a91 91 0 0 0 13.81 18.17c4.43 4.44 9.11 0.53 14.28-1.34a47.43 47.43 0 0 0 9.23-4.45z" fill="#fda689"/>
 <path class="cls-18" d="m519.45 354.99a9.85 9.85 0 0 0-0.55 1.22c0 3.5 0.75 12.26 0.8 14.11s0.24 3.62 0.28 5.43a5.64 5.64 0 0 0 0.18 2.09 15.73 15.73 0 0 0 3.63 4.43 8.66 8.66 0 0 0 4.83 2.43c0.3 0 0.66 0.07 1.07 0.1a33.13 33.13 0 0 1-4.16-0.2 8.63 8.63 0 0 1-4.83-2.43 27 27 0 0 1-2.24-2.3 19.48 19.48 0 0 1-1.62-2.64 6 6 0 0 1-0.67-2.23c-0.32-2.06-0.85-4.13-1-6.2a8.3 8.3 0 0 0-0.87-2.73 2.84 2.84 0 0 0-1.43-1.54 5.8 5.8 0 0 0-1.3-0.22c-0.14 0-1.27-0.25-1.31-0.21 0.72-0.89 8.96-8.71 9.19-9.11z" fill="url(#pattern1072)"/>
 <path class="cls-19" d="m587.45 356.55c0.83-1.63 2.1-3 2.79-4.71 1.35-3.32 0.21-7.07 0.44-10.65 0.11-1.6 0.49-3.18 0.6-4.78a12.84 12.84 0 0 0-4.63-10.4c-1.67-1.31-3.58-2.31-5.21-3.69s-2.95-3.15-4.56-4.58a15.89 15.89 0 0 0-10.24-3.9 18.62 18.62 0 0 0-4.42 0.06c-1 0.26-2.06 1.29-3 1-0.77-0.25-1.5-1.51-2.25-2a7.22 7.22 0 0 0-3.19-1 8.18 8.18 0 0 0-5.64 1.77 26.17 26.17 0 0 1-2.88 2.4c-1.22 0.71-2.68 0.91-3.88 1.65a9.9 9.9 0 0 0-3 3.46c-3.28 5.27-6.61 10.42-9.87 15.7-3.6 5.83-8.85 14.16-9.22 21.1 0 0.91 1.34 1.54 1.82 0.61 1.68-3.26 3.32-6.57 5-9.88a50.77 50.77 0 0 0 1.7 7.34c1.65 6.26 6.79 13.11 11.51 17.56 3.65 3.44 8.46 6.71 13.71 5.81 6.09-1 11-5.17 16.19-8.14 3.9-2.21 5.17-1.41 9.3-3.2a22.91 22.91 0 0 0 6.18-4.9c1.83-2.23 1.59-4.27 2.75-6.63z" fill="#472516"/>
 <path class="cls-17" d="m565.45 369.82c-4.51 3.52-17.39 14.49-22.74 15.5-4.9-0.39-12 0-14.57-0.43a8.72 8.72 0 0 1-4.84-2.43c-1.23-1.18-3-2.83-3.62-4.43a5.58 5.58 0 0 1-0.18-2.08c0-1.82-0.25-3.63-0.29-5.44s-0.78-10.6-0.79-14.11c1.14-3.2 5.2-7.36 7.54-10.36 3.48-4.46 6-8.63 9.91-12.74a25.68 25.68 0 0 1 12.68-7.81c3.75-1 9.24-2.54 13.14-1.32 5.24 1.66 7.29 6.4 7.55 11.43 3.21 1.7 5.41 7 6.78 9.78 1.7 3.47 1.1 10-0.36 13.79a10.61 10.61 0 0 0 2.65-3.91 0.5206 0.5206 0 0 1 1 0.29c-0.62 2.86-1.46 3.27-3.48 5.19-3.38 3.18-6.78 6.24-10.38 9.08z" fill="#fda689"/>
 <g fill="#472516">
  <path class="cls-19" d="m546.36 337.1c-0.75 2.55 1.78 4.57 3.61 5.87s4.42 3.3 6.71 2.53a1.35 1.35 0 0 0 0.6-2.14 79.52 79.52 0 0 0-9-7.05 1.33 1.33 0 0 0-1.92 0.79z"/>
  <path class="cls-19" d="m567.45 362.57c-2.49 0-3.65-2.78-4.35-4.76s-1.83-4.82-0.55-6.67a1.26 1.26 0 0 1 2.08 0c0.22 0.32 2.77 6.28 4 9.89a1.21 1.21 0 0 1-1.18 1.54z"/>
  <path class="cls-19" d="m577.45 361.48a1 1 0 0 0 0.69-1.1 15.14 15.14 0 0 0 0.82-1.6c1.94-4.58 0.09-9.94-1.84-13.94-1.45-3-2.86-6.48-4.65-9.62-1.35 2.71-3.67-7.15-4.11-7.62-1.49-1.6-3-3.32-5.07-4.1-2.95-1.08-6.19 0-9.22-0.7a1.25 1.25 0 0 0-0.75 0.07 0.7 0.7 0 0 0-0.71-0.22 26.32 26.32 0 0 0-6.79 3 0.88 0.88 0 0 0-1.27-0.76 15.91 15.91 0 0 0-3.76 2.33 0.64 0.64 0 0 0-0.68 0 4 4 0 0 0-1.58 2l-0.13 0.12a1 1 0 0 0-0.56 0.44l-0.17 0.28c-0.82 1.36 0.92 2.18 2 1.92 1.93-0.44 3.18-1.9 4.92-2.71a17.94 17.94 0 0 1 6.09-1.42c2-0.18 4.14-0.3 5.57-1.66a9.81 9.81 0 0 0 2.82 5.67c1.24 1.28-0.82 1.23 4.08 6.55 3.12 3.38 7.46 2.66 8.66 7.14 0.45 1.67-0.13 5 0 6.78 0.16 2.14 2.75 5.79 1.07 7.1-5.61 4.39-4.09 6.89-2.94 8.7 0.89 1.41 3.5-2.9 4.69-3.8a19.19 19.19 0 0 0 2.27-2.05c0.42-0.42 0.03-0.66 0.55-0.8z"/>
 </g>
 <path class="cls-20" d="m552.22 356.45c-1.53 1.81-2.95 3.71-4.39 5.59-0.78 1-1.55 2-2.34 3-0.55 0.68-1.31 1.94-2.52 1.22-1-0.58-0.76-2.09-0.73-3s-1.39-0.91-1.42 0c-0.06 1.69 0 3.38 1.61 4.34s2.87-0.1 3.88-1.34c2.37-2.9 4.49-6 6.91-8.85 0.59-0.69-0.41-1.7-1-1z" fill="url(#pattern1074)"/>
 <path class="cls-21" d="m536.76 347.69a5.69 5.69 0 0 0 3.87 4.87c0.24 0.08 0.34-0.29 0.1-0.37a5.28 5.28 0 0 1-3.59-4.5c0-0.24-0.41-0.24-0.38 0z" fill="url(#pattern1076)"/>
 <path class="cls-21" d="m553.05 365.9a6.19 6.19 0 0 0 3.92 4.61c0.23 0.08 0.33-0.29 0.11-0.37a5.8 5.8 0 0 1-3.66-4.34c0-0.24-0.41-0.14-0.37 0.1z" fill="url(#pattern1078)"/>
 <g fill="#633625">
  <path class="cls-22" d="m562.02 320.04c6.22-2.41 14.34 3.59 17.18 8.73 1.15 2.07 1.85 4.4 2.93 6.52 1.69 3.29 3.71 6.11 3.58 10 0 0.61 0.94 0.61 1 0 0.12-3.48-1.37-6.18-3-9.16-1.86-3.41-2.91-7.43-5.35-10.5-3.39-4.26-11.11-8.63-16.57-6.51-0.56 0.22-0.32 1.15 0.26 0.92z"/>
  <path class="cls-22" d="m576.82 334.1c3.41 5.34 3.89 11.48 3.86 17.66a0.5 0.5 0 0 0 1 0c0-6.34-0.5-12.67-4-18.14-0.33-0.52-1.16 0-0.83 0.48z"/>
  <path class="cls-22" d="m559.67 316.71c-1.06 2.27-1.84 5.06 0.34 6.95a8.2 8.2 0 0 0 3.5 1.48c2.31 0.58 4.08 1.41 5.23 3.61 0.28 0.55 1.11 0.06 0.82-0.48a7 7 0 0 0-3.74-3.46c-1.21-0.48-2.52-0.6-3.72-1.09-3-1.23-2.77-4-1.6-6.53 0.26-0.55-0.57-1-0.83-0.48z"/>
  <path class="cls-22" d="m565.22 331.29c3.65 3.31 7.31 6.75 8.65 11.65a0.48283 0.48283 0 0 0 0.93-0.26c-1.4-5.06-5.12-8.64-8.9-12.06-0.45-0.42-1.14 0.26-0.68 0.67z"/>
  <path class="cls-22" d="m581.5 358.31a17.48 17.48 0 0 1-3.26 4c-0.45 0.41 0.23 1.09 0.68 0.67a18.2 18.2 0 0 0 3.41-4.2 0.48 0.48 0 0 0-0.83-0.48z"/>
  <path class="cls-22" d="m578.13 356.61a0.5 0.5 0 0 0 0-1 0.5 0.5 0 0 0 0 1z"/>
  <path class="cls-22" d="m577.15 354.05a0.5 0.5 0 0 0 0-1 0.5 0.5 0 0 0 0 1z"/>
  <path class="cls-22" d="m554.2 316.91a6.72 6.72 0 0 0-4.86 1.32 16 16 0 0 0-1.89 2.16 7.37 7.37 0 0 1-4.21 2.17 0.48151 0.48151 0 0 0 0.25 0.93 8.11 8.11 0 0 0 4.45-2.17c1.89-2.09 3.16-3.72 6.26-3.42 0.61 0.06 0.61-0.9 0-1z"/>
  <path class="cls-22" d="m549.28 323.5c-1.79 1.78-4.61 1.67-6.72 2.94-0.52 0.32 0 1.15 0.49 0.83 2.2-1.33 5-1.21 6.91-3.09 0.44-0.43-0.24-1.11-0.68-0.68z"/>
 </g>
 <path class="cls-23" d="m562.45 360.83v0.08l-0.1-0.09c-2.46-2.28-4.32-3.42-6-3.65a11.87 11.87 0 0 0-2.44-4 31.91 31.91 0 0 0-3.81-3.22v0.05c-0.22-1.58-1.22-3.42-3.12-5.83l-0.08-0.1h0.07s-1.41-1.92-8-7.27l-1.89 1.74a3.53 3.53 0 0 1 0.44 1.66 19.73 19.73 0 0 1-1.51 2.2 8.44 8.44 0 0 0-2.36 5.06 7.68 7.68 0 0 0 2.22 5.8c2.57 2.78 7 4.64 11.73 1.53a6.41 6.41 0 0 0 1.85-1.76c2 0.84 3.7 3.51 4.28 4.54a6.13 6.13 0 0 0-2 1.74c-3.48 4.46-2 9 0.6 11.8a7.61 7.61 0 0 0 5.6 2.67 8.44 8.44 0 0 0 5.24-1.95 19.06 19.06 0 0 1 2.31-1.33 3.53 3.53 0 0 1 1.62 0.56l1.88-1.74c-4.69-6.93-6.53-8.49-6.53-8.49zm-15.48-7c-5.15 3.39-9.08-0.17-10.16-1.34a6.32 6.32 0 0 1-1.91-4.87 7.39 7.39 0 0 1 2.83-5.06 4.35 4.35 0 0 1 3.27-1 7.73 7.73 0 0 1 4.4 2.65 8.69 8.69 0 0 1 0.66 0.77c2.24 2.84 3.13 4.78 2.88 6.3a4 4 0 0 1-1.94 2.55zm11.06 18.8a6.41 6.41 0 0 1-4.72-2.28c-1.08-1.17-4.32-5.37-0.53-10.24a4 4 0 0 1 2.73-1.76c1.54-0.13 3.41 0.91 6.06 3.36 0.19 0.18 0.44 0.42 0.72 0.72a7.75 7.75 0 0 1 2.29 4.6 4.31 4.31 0 0 1-1.29 3.18 7.41 7.41 0 0 1-5.23 2.42z" fill="#331318"/>
 <polygon class="cls-23" transform="translate(-124.55 -123.61)" points="658.63 454.44 659.64 457.34 661.86 462.56 663.75 460.85 661.26 455.13" fill="#331318"/>
 <ellipse class="cls-19" transform="rotate(-46.1)" cx="125.49" cy="632.46" rx="1.67" ry="1.42" fill="#472516"/>
 <ellipse class="cls-19" transform="rotate(-46.1)" cx="123.41" cy="655.71" rx="1.51" ry="1.28" fill="#472516"/>
 <path class="cls-24" d="m532.88 339.31c0.4-0.67 1.83-3.16 2-3.46a3.86 3.86 0 0 0-1.42-5.63c-2.74-1.27-5.78 1.53-7.1 3.67a15.86 15.86 0 0 0-2.27 9.34c0.28 2.35 2.06 3.06 3.85 1.5a22.72 22.72 0 0 0 4.94-5.42z" fill="#f28561"/>
 <path class="cls-25" d="m328.67 441.47c-19.56 10.12-23.84 45.63-28.91 64.91-2.86 10.9-5 22-8 32.84-2.25 8.13-7.45 13.75-10 21.54-1.65 5.08-1.17 9.1-3.43 14.25-2.56 5.81-5.08 11.53-7.21 17.71-8.45 24.44-16.61 49.28-26.91 73.12-4.91 11.37-13.49 39.38 10.89 30.37 13.06-4.83 15.55-24.49 21.47-35.45 16-29.69 39.71-56.09 56.66-85.51 7.44-12.92 11.58-26.7 17.38-40.17 1.4-3.28 20.32-36.2 21.39-35.7 5.52 2.56 10.29 11 14.75 15.4 8.79 8.64 18.17 16.51 25.64 26.18 3.14 4.06 19.78 27.89 25.08 26.91-2.26 0.42-4.25 2.44-6.28 3.28 1.59 0.68 2.83 2.3 4.62 2.78-5.8 1.28-5.4 8.9-7.53 14.15-5 12.2-10 24.83-14.15 37.49-3.49 10.73-6.49 21.72-9.49 32.59-2.56 9.34-6.1 18.29-8.55 27.66 3.15 0.06 24.09 2.31 25.28 0.3 8.62-14.53 16.12-29.81 23.25-45.11q11.07-23.75 20.31-48.28c5.76-15.38 14.11-30.55 7.75-47.13-3.24-8.44-9.29-16.25-14.53-23.5-7-9.71-14.7-19.19-20.7-29.58-4.56-7.85-9.23-15.75-13.63-23.57-6.22-11-10.93-23.74-20.05-32.86-22.23 1.69-44.9-0.76-66.9 2.72a26.38 26.38 0 0 0-8.2 2.66z" fill="#002042"/>
 <path class="cls-26" d="m509.72 368.99a18.67 18.67 0 0 1 3.87-8.53c-2.11-1.47-4.47-1.69-6.9-2.53-4.26-1.47-6.65-4.85-9.86-7.62-3.64-3.13-8-5.58-12.18-7.95 0 0-19-13.37-45.32 16.55-24.57 20.2-53 40.31-82.69 52-4.29 1.68-8.58 4-12.89 5.48-3.34 1.11-10.26 0.56-11.81 4.68-0.93 2.46 2 5 2.52 7.07-7.54-1.2-13.27 2.46-5.66 8.38-6.74-0.13-6.36 5-2.5 8.8 3.64 3.59 8.84 4.38 13.37 6.79 5 2.69 7.63 6.45 11.93 10 6.28 5.14 14.44 7 21.86 10a257.22 257.22 0 0 0 28.99 10.01c6.93 1.9 13 5 20.31 4.64 6.31-0.34 8.74-0.92 14 2.26 2.4-3.57-0.95-5.64-2.87-8.78 0.31 0.52 4.21 0.41 4.76 0.08 2.31-1.36 0.62-2 1.48-3.86 3.21-7.14 10.3-11.37 17-16.62 7.77-6.09 15.74-12 24.55-16.49 12.67-6.54 24.19-13.09 35.41-22a22 22 0 0 0 7.92-10.88c0.43-1.24-0.13-3.71 0.12-5.5a98.37 98.37 0 0 0 5.42-12.06c-1.06-1.37-3.78-1.66-6.8-2-4.93-0.5-7.81-3.93-12.83-1.24 0.32-1.75 1.65-3.84 1.54-5.7s-2-3.66-2.57-5.53a19.85 19.85 0 0 1-0.17-9.45z" fill="url(#pattern1080)"/>
 <polygon class="cls-27" transform="translate(-124.55 -123.61)" points="445.67 527.05 457.48 531.46 451.87 538.67 438.59 535.61" fill="#fc927a"/>
 <path class="cls-27" d="m326.02 426.22 4.1-5.79c1.56-2.77 1.59-5.12-2.34-7.44l-8.61-4c-3.88-1.9-9.51 0.71-11.81 3.94l-5.19 7.8a1.86 1.86 0 0 0-0.11 0.19l-3.89 6.27c-1 1.61-0.52 3.19 1 3.43l0.45 0.07a5.06 5.06 0 0 0 3.76-1.53c-0.9 1.62-0.4 3.06 1.23 3.16h0.77a6.2 6.2 0 0 0 4.34-2.27c-0.73 1.5-0.18 2.69 1.42 2.63h0.8a6.06 6.06 0 0 0 4.44-2.55c-0.91 1.57 0.07 2.27 1.82 2l0.82-0.12a8.5 8.5 0 0 0 5.08-3.45z" fill="#fc927a"/>
 <path class="cls-26" d="m472.25 338.98c-3.34-0.29-52.19-1-59.32-0.58-12.69 0.71-31.17 4.67-44 4.05-6.13-0.3-8 0.83-11.56 5.4s-6.69 9.63-10.41 14.18c-4.67 5.72-10.14 11-14.95 16.57-3.58 4.15-6.27 8.73-9.79 12.82-1.56 1.82-3.08 3.45-3.62 5.88-1.06 4.71 3.1 6 6.54 8 1.21 0.72 2.41 1.4 3.61 2.16 1.72 1.08 3 1.06 5 1.16 2.86 0.14 3.37 0 5-2.65 2.05-3.41 5.7-5.34 8.63-7.91s5.41-5.83 8.19-8.56c3.21-3.15 7.08-5.48 10.56-8.3 2.9-2.36 7.76-4.85 8.95-8.63 2.89 2 6.3 2.25 9.83 2.28a102.62 102.62 0 0 1 17.68 1.54c5.67 1 11.53 1.6 17.27 2.2 3.91 0.41 7.9-0.18 11.82 0.09 5.2 0.35 8.18 2 13.58 0.28 5.86-1.88 12.65-4.49 16.82-9.19a97.46 97.46 0 0 1 14.72-13.18c3.56-2.69 12.33-5.38 9.35-11.4-0.87-1.75-2.87-2.69-4.56-3.45a43.57 43.57 0 0 0-9.34-2.76z" fill="url(#pattern1082)"/>
 <path class="cls-28" d="m419.2 689.49s22.92 15.83 29.46 18.23 19.33 5.43 20.16 7.24 0.76 3.62-9.21 5.18-35.62-2.79-39.37-3.16-24.48 0.16-24.83-1.5c-1.72-8.28 2.85-25.3 4.07-27.18s13.32-3.58 19.72 1.19z" fill="#fab993"/>
 <path class="cls-15" d="m422.07 684.67s-4.28 7.43-2.9 9 31.16 15.9 37.28 16.92 11.47 1.59 14 4.46 2.75 4.47 2.75 4.47-4.59 3-15.14 3.9-30-1.56-37.29-3-25.36-0.8-26.39-1.72 0.23-16 1.15-19.62 2.67-8 2.32-12.1-0.56-4.23-0.56-4.23 16.69 0.62 19.56 3.13c-0.04 0.02 3.85-3.95 5.22-1.21z" fill="#b85c42"/>
 <path class="cls-14" d="m472.8 720.39c1.56 0.78 1.15 3.76 0.1 4.77a6.32 6.32 0 0 1-2.89 1.38 66.65 66.65 0 0 1-21 2 88.36 88.36 0 0 1-27-5.71 7.91 7.91 0 0 0-3.15-0.75 2.54 2.54 0 0 0-2.42 1.82c-0.13 0.73 0.18 1.53-0.17 2.19-0.44 0.83-1.59 0.87-2.52 0.81l-13-0.93a14.75 14.75 0 0 1-4.86-0.91 4.94 4.94 0 0 1-3.06-3.63c-0.45-3.59 2-3.26 4.5-3.26q4.27 0 8.57 0.2a156.76 156.76 0 0 1 25 2.94l1.4 0.28a90.31 90.31 0 0 0 27.88 1.32 65.12 65.12 0 0 0 8.32-1.53c1.08-0.28 3-1.4 4-1.1a1.34 1.34 0 0 1 0.3 0.11z" fill="#d9ccc3"/>
 <path class="cls-16" d="m470.45 715.01a5.74 5.74 0 0 0-0.79-0.74 29 29 0 0 0-15.61-6.23c-2.1-0.17-4.31-0.14-6.16-1.15a19.62 19.62 0 0 1-2.41-1.77c-2.78-2.09-6.2-3.13-9.17-5-3.66-2.25-6.61-5.69-10.62-7.24a14.3 14.3 0 0 1-3.62-1.58 2.83 2.83 0 0 1-0.92-3.61c0.22-0.66 1.27-2.36 0.91-3.07-1.37-2.73-5.24 1.21-5.26 1.23-1.41-2.88-7.87-2.81-10.47-3-3.14-0.21-6.31-0.1-9.44-0.16a37.81 37.81 0 0 1 0 5.22c-0.27 2.45-0.53 4.91-0.8 7.36a21.92 21.92 0 0 1-0.71 4.12c-0.39 1.26-1 2.44-1.36 3.7-0.86 3-0.29 6.21-0.65 9.3a6.87 6.87 0 0 0-0.07 2.39c0.59 2.49 7.56 1.39 9.58 1.41 4.68 0.06 9.37 0.16 14 0.53 1.84 0.16 3.58 0.37 5.1 0.62l1.63 0.31h0.18c8.07 1.52 23.45 4.13 33.22 3.28a53 53 0 0 0 10.15-1.79c2.48-0.59 5.29-1.89 3.29-4.13z" fill="#6b4c33"/>
 <g fill="#b85c42">
  <path class="cls-15" d="m440.58 708.82a18.17 18.17 0 0 1 5.87-6.43c0.59-0.39 0-1.36-0.56-1a19.35 19.35 0 0 0-6.27 6.79 0.57306 0.57306 0 0 0 1 0.56z"/>
  <path class="cls-15" d="m435.13 707.5a15.34 15.34 0 0 1 6.79-7.93 0.57306 0.57306 0 0 0-0.56-1 16.5 16.5 0 0 0-7.31 8.6c-0.25 0.67 0.82 1 1.08 0.29z"/>
  <path class="cls-15" d="m429.61 704.65a26.09 26.09 0 0 1 6.76-8.76c0.55-0.46-0.24-1.25-0.79-0.79a27 27 0 0 0-6.93 9c-0.31 0.64 0.66 1.21 1 0.56z"/>
  <path class="cls-15" d="m424.36 701.53a26.32 26.32 0 0 1 7-8.7c0.56-0.45-0.23-1.24-0.78-0.79a27 27 0 0 0-7.2 8.93c-0.32 0.64 0.64 1.2 1 0.56z"/>
  <path class="cls-15" d="m423.67 692.39c-1.54-0.14 4.42-9.06 4.63-6.67 0.07 0.79-3 3.49-3.46 4.11-1.36 1.77-1.28 2.49-3.41 3.05a20.74 20.74 0 0 0-5.41 2c-0.55 0.33-4.38 2.51-2.51 3.76 0.5 0.34 0.92 0 1.41-0.07 2.48-0.63 5.26-2.73 7.46-4 0.63-0.35 0.07-1.31-0.56-1-1.4 0.79-2.82 1.56-4.24 2.3-0.35 0.19-2.52 1.65-2.3 0.73 0.09-0.4 2.33-1.4 2.67-1.56a17 17 0 0 1 5.68-1.46 0.6 0.6 0 0 0 0.54-0.41c0.81-2.23 2.43-3.73 3.91-5.49 0.67-0.8 1.79-1.89 1.93-3s-0.42-1.95-1.69-1.67c-2.23 0.5-8.55 10-4.65 10.32 0.72 0.07 0.71-1.05 0-1.11z"/>
 </g>
 <g fill="#063c70">
  <path class="cls-29" d="m500.24 362.89c-2.3 7-8 12.69-8.12 20.43-0.12 6.36 7.26 5.38 11.86 7 0.48 0.17 0.68-0.59 0.21-0.75-2.58-0.89-5.39-1-7.93-1.94-4.46-1.57-3.4-6.67-2.2-10.15 1.73-5.06 5.26-9.23 6.93-14.34 0.15-0.48-0.6-0.69-0.75-0.21z"/>
  <path class="cls-29" d="m507.76 392.14c-2.27 2.45-4 7.89-1.16 10.43 2.11 1.88 4.73 2.39 7.44 2.52s6.82-1 9.24 0.2c0.45 0.22 0.84-0.45 0.39-0.67-2.41-1.16-5.91-0.22-8.5-0.27-2.8-0.06-7.39-0.41-9-3.34-1.07-2 0.74-6.85 2.09-8.32 0.35-0.37-0.2-0.92-0.55-0.55z"/>
  <path class="cls-29" d="m506.3 390.98c-2.29 0.6-5.07 3.11-7.21 4.28-2.7 1.46-4.71 3.85-7.2 5.6a52.62 52.62 0 0 1-7.4 3.88c-5.41 2.66-8.1 6.39-12.24 10.57-4.34 4.37-9.2 8.16-13.48 12.68-9.46 10-22.91 14-34.52 20.93a361.89 361.89 0 0 0-35.9 24.63c-0.4 0.31 0.16 0.86 0.55 0.55a348 348 0 0 1 37.18-25.35c10.29-6 22.68-9.65 31.24-18.15 4.28-4.25 8.13-8.68 12.83-12.48s7.79-9.15 13.43-12.06a75.47 75.47 0 0 0 13.09-8.16 52.65 52.65 0 0 1 5.5-3.26c1.31-0.81 2.82-2.51 4.33-2.91a0.39 0.39 0 0 0-0.2-0.75z"/>
  <path class="cls-29" d="m424.51 379.88c13.66-0.08 26.91-2.36 38.74-9.57a63 63 0 0 0 11.2-9.13c1.91-1.88 5.36-4.62 5.61-7.54 0-0.5-0.74-0.5-0.78 0-0.29 3.41-5.55 7.21-7.9 9.36a54.54 54.54 0 0 1-11.37 8.24c-11.14 5.9-23 7.78-35.51 7.86a0.39 0.39 0 0 0 0 0.78z"/>
  <path class="cls-29" d="m433.95 349.83c-5.51 3.17-10.57 9.47-12.14 15.66a0.39424 0.39424 0 0 0 0.76 0.21c1.52-6 6.43-12.12 11.78-15.2a0.39016 0.39016 0 0 0-0.4-0.67z"/>
  <path class="cls-29" d="m425.71 353.83c-1.9 2.64-4 5.13-5.4 8.1-0.21 0.45 0.46 0.85 0.67 0.39 1.4-3 3.5-5.46 5.41-8.1 0.29-0.41-0.39-0.8-0.68-0.39z"/>
  <path class="cls-29" d="m342.45 446.51c4.69 4.72 11 7 16.53 10.51 6.42 4.09 11.19 10 18.28 13.09 0.45 0.2 0.85-0.47 0.39-0.67-6.65-2.88-11.27-8.3-17.13-12.33s-12.55-6.15-17.52-11.15a0.39 0.39 0 0 0-0.55 0.55z"/>
  <path class="cls-29" d="m367.9 461.56a31.91 31.91 0 0 0 4.32 3.54c0.41 0.29 0.8-0.39 0.39-0.68a30.93 30.93 0 0 1-4.16-3.41c-0.35-0.36-0.9 0.19-0.55 0.55z"/>
  <path class="cls-29" d="m408.58 473.62a72.25 72.25 0 0 0 11.09 2.09c2.35 0.27 6.17 1 8.2-0.64 0.39-0.32-0.17-0.87-0.55-0.56-2.18 1.79-7.8 0.45-10.22 0.07a71.19 71.19 0 0 1-8.31-1.71 0.39 0.39 0 0 0-0.21 0.75z"/>
  <path class="cls-29" d="m413.89 477.83c2.22 1.47 5.3 1.64 7.81 2.35a0.39 0.39 0 0 0 0.21-0.75c-2.44-0.69-5.47-0.85-7.63-2.28-0.42-0.27-0.81 0.4-0.39 0.68z"/>
 </g>
 <path class="cls-20" d="m529.95 358.6 0.29 0.11c3.1 1.47 2.37 8 1.78 10.63-0.33 1.45-2.35 5.76-3.19 2.25-0.52-2.13 0.43-4.12-0.58-6.28-0.72-1.55-3.31-3.21-2.49-5a3.84 3.84 0 0 1 4.19-1.71z" fill="url(#pattern1084)"/>
 <path class="cls-30" d="m549.18 331.39c-1.09 0.19-6.42 1.75-4.05 3.66 1.29 1.05 3.82-2.14 4-3.63-0.32-0.1-0.19 0.17-0.44 0.25" fill="#91d5e5"/>
 <path class="cls-30" d="m544.45 331.39c-1.09 0.19-6.42 1.75-4 3.66 1.3 1.05 3.82-2.14 4-3.63-0.31-0.1-0.19 0.17-0.43 0.25" fill="#91d5e5"/>
 <g fill="#ddd4cf">
  <path class="cls-31" d="m493.92 393.39a1.8 1.8 0 1 1 2.45 0.67 1.8 1.8 0 0 1-2.45-0.67z"/>
  <path class="cls-31" d="m477.78 403.94a1.8 1.8 0 1 1-2.45-0.66 1.8 1.8 0 0 1 2.45 0.66z"/>
  <path class="cls-31" d="m459.29 420.96a1.8 1.8 0 1 1-2.45-0.66 1.81 1.81 0 0 1 2.45 0.66z"/>
  <path class="cls-31" d="m440.32 434.27a1.8 1.8 0 1 1-2.45-0.66 1.8 1.8 0 0 1 2.45 0.66z"/>
  <path class="cls-31" d="m421.01 444.16a1.8 1.8 0 1 1-2.45-0.67 1.8 1.8 0 0 1 2.45 0.67z"/>
  <path class="cls-31" d="m405.75 453.9a1.8 1.8 0 1 1-2.45-0.67 1.8 1.8 0 0 1 2.45 0.67z"/>
  <path class="cls-31" d="m387.16 467.54a1.79 1.79 0 1 1-2.45-0.66 1.8 1.8 0 0 1 2.45 0.66z"/>
 </g>
 <g fill="#00456b">
  <path class="cls-32" d="m375.61 479.03c0.6 5.94-2.09 13.1-4.59 18.38-0.15 0.33 0.33 0.61 0.48 0.29 2.57-5.41 5.28-12.57 4.67-18.67 0-0.35-0.6-0.35-0.56 0z"/>
  <path class="cls-32" d="m402.75 501.47c-2.15-3.19-4-6.51-6.81-9.14a0.28 0.28 0 0 0-0.39 0.39c5.35 6 9.69 12.76 15.06 18.71s11.81 10.67 17.93 15.73c6.38 5.27 12.63 10.82 17.07 17.88a60.28 60.28 0 0 1 5.76 11.46c1.59 4.42 0.25 7.29-2.18 11a0.28 0.28 0 0 0 0 0.29c0.72 1-4.52 1.81-4.85 1.94a8.11 8.11 0 0 0-2.66 1.72 0.27 0.27 0 0 0 0 0.43c1.21 0.7 3.9 1.51 4 3a13.92 13.92 0 0 0-1.14 1.45c-0.76 1.9-1.49 4.1-2.1 6.08-2.86 9.36-5.4 18.87-8.18 28.28-5.81 19.82-15.34 38.47-19.81 58.7-0.08 0.35 0.46 0.5 0.54 0.15 3.78-16.94 11.29-32.64 16.87-49 2.84-8.34 5.08-16.89 7.63-25.32 1.07-3.57 2.14-7.11 3.08-10.71 0.54-2.05 2.62-8.53 4.53-9.86a0.29 0.29 0 0 0 0-0.49c-1.92-1-6-1.79-2-4.1 1.33-0.77 3.69-0.76 5.19-1.13a0.28 0.28 0 0 0 0.16-0.41c-0.86-1.15 2.58-6.35 2.46-8.45-0.19-3.18-2.22-6.83-3.62-9.62-4.3-8.58-10.44-15.27-17.71-21.46-7.57-6.46-15.8-12.23-22.24-19.88-3.32-3.94-6.27-8.17-9.49-12.19-1.52-1.9-4.73-5.46-1.42-1 1.4 1.87 2.55 3.93 3.86 5.87 0.2 0.29 0.68 0 0.48-0.28z"/>
  <path class="cls-32" d="m324.14 460.95c-8.33 12.53-12.16 27.7-14.75 42.34-1.49 8.45-2 17-3.14 25.44-0.64 4.69-1.43 9.53-3.74 13.72-1.91 3.46-4.88 6.14-7.3 9.22-1 1.26-2.19 2.6-2.24 4.28 0 0.49 0.34 1 0.32 1.43 0 1-0.15 3.13-0.9 4-0.39 0.46-1.39 0.47-1.65 1.08a7.6 7.6 0 0 0-0.5 3.67c0 2.89-1.05 4.22-2.39 6.61-9.19 16.45-14.44 35.07-22.62 52-4.28 8.87-8.41 17.8-12.83 26.6-4.19 8.34-8.06 16.76-9.31 26.09-0.05 0.35 0.49 0.51 0.53 0.15 1.21-9 4.85-17.15 8.88-25.2 3.83-7.66 7.42-15.42 11.16-23.12 8-16.55 14.16-33.83 21.9-50.49a54.16 54.16 0 0 1 3.18-6.6c0.68-1 2.2-2 2.6-3.22 0.54-1.6-1-3.05-0.64-4.71 0.43-2 2.42-2 3.19-3.44 1.05-2-0.71-4.41 0.12-6.53 1.27-3.23 5-6 7.11-8.77a23.7 23.7 0 0 0 3.62-6.78c2.81-8.46 2.66-17.71 3.82-26.47 2.3-17.45 6.18-36.19 16.06-51.06 0.2-0.3-0.28-0.58-0.48-0.28z"/>
  <path class="cls-32" d="m304.51 556.78c5 4.25 11.17 5.68 17.48 7 0.35 0.08 0.5-0.46 0.15-0.54-6.19-1.32-12.27-2.69-17.24-6.87-0.27-0.23-0.67 0.16-0.39 0.39z"/>
  <path class="cls-32" d="m305.28 564.39c4.54 0.32 8.79 2.38 13.31 2.89 0.36 0 0.36-0.51 0-0.55-4.52-0.52-8.77-2.57-13.31-2.9-0.36 0-0.35 0.53 0 0.56z"/>
  <path class="cls-32" d="m265.69 636.6c1.65 2.46 4.8 3.9 7 5.84 0.27 0.24 0.67-0.15 0.4-0.39-1.1-1-2.29-1.83-3.46-2.7a13.86 13.86 0 0 1-3.44-3c-0.2-0.3-0.69 0-0.48 0.28z"/>
  <path class="cls-32" d="m264.63 644.22a32.77 32.77 0 0 0 6.43 2.34c0.35 0.08 0.5-0.45 0.15-0.53a32.08 32.08 0 0 1-6.3-2.29c-0.32-0.15-0.61 0.33-0.28 0.48z"/>
  <path class="cls-32" d="m453.58 577.66c3.15-1.62 9.58-6 13-3.47 0.29 0.22 0.57-0.27 0.29-0.48-3.7-2.77-10.31 1.77-13.6 3.47-0.32 0.17 0 0.65 0.28 0.48z"/>
  <path class="cls-32" d="m454.16 580.56a15.76 15.76 0 0 1 7.39-1.7c0.35 0 0.36-0.57 0-0.56a16.41 16.41 0 0 0-7.67 1.78c-0.31 0.17 0 0.65 0.28 0.48z"/>
  <path class="cls-32" d="m425.59 621.1a11.41 11.41 0 0 0 2.4 0.44 23.24 23.24 0 0 1 3.39 0.72 0.28 0.28 0 0 0 0.14-0.54 22.69 22.69 0 0 0-3.39-0.72 10.72 10.72 0 0 1-2.39-0.44c-0.34-0.13-0.48 0.41-0.15 0.54z"/>
  <path class="cls-32" d="m422.77 627.47h8.1a0.28 0.28 0 0 0 0-0.55h-8.1a0.28 0.28 0 0 0 0 0.55z"/>
  <path class="cls-32" d="m412.28 518.66c0.87 0.22 2.11-0.69 2.81-1.06a24.45 24.45 0 0 1 5.44-2.41 0.28022 0.28022 0 0 0-0.15-0.54 19.15 19.15 0 0 0-4.16 1.73c-0.8 0.42-2.85 2-3.79 1.74a0.28022 0.28022 0 0 0-0.15 0.54z"/>
  <path class="cls-32" d="m415.39 521.52c2.93-1.66 5.71-3.59 8.68-5.2a0.28218 0.28218 0 0 0-0.28-0.49c-3 1.61-5.75 3.55-8.69 5.21a0.2804 0.2804 0 0 0 0.29 0.48z"/>
 </g>
 <path class="cls-29" d="m374.11 366.87c-1.16-1.94-2.8-3.45-4.15-5.24a16.17 16.17 0 0 1-3.11-8.7c0-0.5-0.82-0.5-0.78 0a17.75 17.75 0 0 0 2.08 7.36c1.41 2.59 3.78 4.44 5.28 7 0.26 0.43 0.94 0 0.68-0.39z" fill="#063c70"/>
 <path class="cls-29" d="m366.62 363.1c2.28 3.64 5.77 5.81 9.28 8.12 0.42 0.28 0.81-0.39 0.4-0.67-3.39-2.24-6.8-4.32-9-7.84-0.26-0.42-0.94 0-0.67 0.39z" fill="#063c70"/>
</svg>
