<svg xmlns="http://www.w3.org/2000/svg" xmlns:xlink="http://www.w3.org/1999/xlink" viewBox="0 0 1000 1000"><defs><style>.cls-1{fill:#fff;}.cls-2{fill:none;}.cls-3{fill:#cc7353;}.cls-4{fill:#035693;}.cls-5{fill:#333;}.cls-5,.cls-6,.cls-7{opacity:0.14;}.cls-6,.cls-8{fill:#1a1a1a;}.cls-9{fill:#999;}.cls-10{isolation:isolate;}.cls-11,.cls-54,.cls-55{fill:#007cc7;}.cls-11{opacity:0.1;}.cls-12{fill:#afc7d7;}.cls-13{mask:url(#mask);}.cls-14{fill:#99afbc;opacity:0.48;}.cls-15{fill:#f4e9dc;}.cls-16{fill:#fbd5af;}.cls-17{fill:#e2c6a9;}.cls-18{fill:#108c85;}.cls-19{fill:#3d1c3b;}.cls-20{fill:#002042;}.cls-21{fill:#f0e0d5;}.cls-22{fill:#472516;}.cls-23{fill:#633625;}.cls-24{fill:#f28561;}.cls-25{fill:#fda689;}.cls-26{fill:#b94a00;opacity:0.16;}.cls-26,.cls-56{mix-blend-mode:multiply;}.cls-27{fill:#331318;}.cls-28{fill:url(#New_Pattern_Swatch_4);}.cls-29{stroke-miterlimit:10;stroke-width:0.24px;fill:url(#New_Pattern_Swatch_4-3);stroke:url(#New_Pattern_Swatch_4-5);}.cls-30{fill:#ddd4cf;}.cls-31{fill:url(#New_Pattern_Swatch_4-15);}.cls-32{fill:#063c70;}.cls-33{fill:#00456b;}.cls-34{fill:#f0dfce;}.cls-35{fill:#db8970;}.cls-36{fill:#f7bc7c;}.cls-37{fill:#fda589;}.cls-38{fill:#adad64;}.cls-39{fill:url(#New_Pattern_Swatch_4-17);}.cls-40{fill:#f5bd83;}.cls-41{fill:#c64a27;}.cls-42{fill:#3e1d1d;}.cls-43{fill:#ffe6d6;}.cls-44{fill:#d19d6f;opacity:0.7;}.cls-45{fill:#efeaea;}.cls-46{fill:#fff1e4;}.cls-47{fill:#0076c2;}.cls-48{fill:url(#New_Pattern_Swatch_1);}.cls-49{fill:#1b354c;}.cls-50{fill:#c99667;}.cls-51{fill:#56222c;}.cls-52{fill:url(#New_Pattern_Swatch_1-3);}.cls-53{opacity:0.46;}.cls-54{fill-rule:evenodd;}.cls-56{opacity:0.4;fill:url(#linear-gradient);}.cls-57{opacity:0.53;}.cls-58{fill:#247d99;}.cls-59{fill:#ffcc4d;}.cls-60{fill:#666;}</style><mask id="mask" x="282.03" y="140.14" width="416.12" height="199.28" maskUnits="userSpaceOnUse"><rect class="cls-1" x="350.36" y="140.14" width="322.2" height="199.28"/></mask><pattern id="New_Pattern_Swatch_4" data-name="New Pattern Swatch 4" width="134" height="134" patternTransform="matrix(-0.2, -0.05, -0.05, 0.2, 105.48, -1259.23)" patternUnits="userSpaceOnUse" viewBox="0 0 134 134"><rect class="cls-2" width="134" height="134"/><rect class="cls-4" width="134" height="134"/><polygon class="cls-5" points="134 105 134 116 0 116 0 105 134 105"/><polygon class="cls-6" points="0 46 0 35 134 35 134 46 0 46"/><g class="cls-7"><rect class="cls-8" x="29" width="11" height="134"/></g><g class="cls-7"><rect class="cls-8" x="90" width="11" height="134"/><rect class="cls-9" x="105" width="5" height="134"/></g><g class="cls-7"><polygon class="cls-1" points="0 58 0 53 134 53 134 58 0 58"/></g></pattern><pattern id="New_Pattern_Swatch_4-3" data-name="New Pattern Swatch 4" width="134" height="134" patternTransform="matrix(-0.24, 0, 0, 0.24, 173.83, -1262.92)" patternUnits="userSpaceOnUse" viewBox="0 0 134 134"><rect class="cls-2" width="134" height="134"/><rect class="cls-4" width="134" height="134"/><polygon class="cls-5" points="134 105 134 116 0 116 0 105 134 105"/><polygon class="cls-6" points="0 46 0 35 134 35 134 46 0 46"/><g class="cls-7"><rect class="cls-8" x="29" width="11" height="134"/></g><g class="cls-7"><rect class="cls-8" x="90" width="11" height="134"/><rect class="cls-9" x="105" width="5" height="134"/></g><g class="cls-7"><polygon class="cls-1" points="0 58 0 53 134 53 134 58 0 58"/></g></pattern><pattern id="New_Pattern_Swatch_4-5" data-name="New Pattern Swatch 4" width="134" height="134" patternTransform="matrix(-0.24, 0, 0, 0.24, 173.1, -1262.2)" patternUnits="userSpaceOnUse" viewBox="0 0 134 134"><rect class="cls-2" width="134" height="134"/><rect class="cls-4" width="134" height="134"/><polygon class="cls-5" points="134 105 134 116 0 116 0 105 134 105"/><polygon class="cls-6" points="0 46 0 35 134 35 134 46 0 46"/><g class="cls-7"><rect class="cls-8" x="29" width="11" height="134"/></g><g class="cls-7"><rect class="cls-8" x="90" width="11" height="134"/><rect class="cls-9" x="105" width="5" height="134"/></g><g class="cls-7"><polygon class="cls-1" points="0 58 0 53 134 53 134 58 0 58"/></g></pattern><pattern id="New_Pattern_Swatch_4-15" data-name="New Pattern Swatch 4" width="134" height="134" patternTransform="matrix(0.21, -0.05, 0.06, 0.24, 14.67, -1309.35)" patternUnits="userSpaceOnUse" viewBox="0 0 134 134"><rect class="cls-2" width="134" height="134"/><rect class="cls-4" width="134" height="134"/><polygon class="cls-5" points="134 105 134 116 0 116 0 105 134 105"/><polygon class="cls-6" points="0 46 0 35 134 35 134 46 0 46"/><g class="cls-7"><rect class="cls-8" x="29" width="11" height="134"/></g><g class="cls-7"><rect class="cls-8" x="90" width="11" height="134"/><rect class="cls-9" x="105" width="5" height="134"/></g><g class="cls-7"><polygon class="cls-1" points="0 58 0 53 134 53 134 58 0 58"/></g></pattern><pattern id="New_Pattern_Swatch_4-17" data-name="New Pattern Swatch 4" width="134" height="134" patternTransform="matrix(-0.23, 0.14, -0.09, -0.14, 226.19, -1184.68)" patternUnits="userSpaceOnUse" viewBox="0 0 134 134"><rect class="cls-2" width="134" height="134"/><rect class="cls-4" width="134" height="134"/><polygon class="cls-5" points="134 105 134 116 0 116 0 105 134 105"/><polygon class="cls-6" points="0 46 0 35 134 35 134 46 0 46"/><g class="cls-7"><rect class="cls-8" x="29" width="11" height="134"/></g><g class="cls-7"><rect class="cls-8" x="90" width="11" height="134"/><rect class="cls-9" x="105" width="5" height="134"/></g><g class="cls-7"><polygon class="cls-1" points="0 58 0 53 134 53 134 58 0 58"/></g></pattern><pattern id="New_Pattern_Swatch_1" data-name="New Pattern Swatch 1" width="75.99" height="75.99" patternTransform="translate(7.32 -37.63) scale(1.21)" patternUnits="userSpaceOnUse" viewBox="0 0 75.99 75.99"><rect class="cls-2" width="75.99" height="75.99"/><rect class="cls-3" width="75.99" height="75.99"/></pattern><pattern id="New_Pattern_Swatch_1-3" data-name="New Pattern Swatch 1" width="75.99" height="75.99" patternTransform="translate(-90.76 20.24) rotate(-17.74) scale(2.01)" patternUnits="userSpaceOnUse" viewBox="0 0 75.99 75.99"><rect class="cls-2" width="75.99" height="75.99"/><rect class="cls-3" width="75.99" height="75.99"/></pattern><linearGradient id="linear-gradient" x1="506.18" y1="705.42" x2="447.84" y2="354.46" gradientUnits="userSpaceOnUse"><stop offset="0" stop-color="#00b1aa"/><stop offset="1" stop-color="#3ddeed" stop-opacity="0"/></linearGradient></defs><title>16-svg</title><g class="cls-10"><g id="Layer_1" data-name="Layer 1"><path class="cls-11" d="M959.15,531.94c-4.9,44-21.72,68.42-42.07,85-34.57,28.16-79.3,33.52-93,73.13-21.72,62.91,31.37,73.79,37.35,99.74a49.81,49.81,0,0,1,1.19,7.89c0,.07,0,.13,0,.19l.06,1.23v.38c0,.27,0,.54,0,.8v.82c0,.29,0,.56,0,.84,0,.12,0,.23,0,.34s0,.29,0,.43,0,.52,0,.77c-8.84,116.61-536.11,30.6-716.69-2.33C57.54,785,12.23,685.43,58.63,608.49c.7-1.15,1.41-2.31,2.14-3.48,73.1-116.53,159.59-82.1,197.42-212.28S478.8,223.4,660.53,223,802.41,335.52,798.41,392.73,972.38,413.27,959.15,531.94Z"/><path class="cls-12" d="M127.37,820.9a35.06,35.06,0,0,1-6.7-1.11c-1-.29-.86-.41-.54-.48.67-.19,2.13-.14-1.42-1.42,2.9.6,5.39,1.27,6.91,1.72.56,0,2.64.23,4.45.29s3.33,0,2.9-.2c.75.46,3.23.9,6.34,1.17s6.76.33,10.16.45c6.77.14,12.35.15,9.18,1.22a213.51,213.51,0,0,0,21.8-2c9.34-1.21,19.64-2.84,28.1-4l-4.49,1.06c18.07-.9,15.31-3.18,25.5-4.83-8.88,1.61,8.15-.24,11.83-.07,7.9-1.24,14.33-2.73,25.63-2.94,2.36.65,2.65,1.64,9.79,1.77,1.62-.19,3.25-.39,4.89-.53,7.15.16,16.83.24,21.38,1h-1c8,.93,8.54,0,2.25-.65l7.8.19.21.24c10.32.41,20.09.34,36.5,1.87-4.52.22,12.11,2.54-2.71,1.22,4.33.11-2.2-.9-3-1.28-5.3-.71-10.27-.47-12.63-.63,1.65.55-.1,1.31-3,1.54,5.37,0,15.39,1,24.51,1.83s17.31,1.39,18.74.59c6.61.64,14.29,1.17,22.26,1.56s16.2.55,23.85.86c-.63-.08-1.86-.24-1.49-.37l13.2.75-3.05.17,8.73.54c.92.29-2.49.58-6.11.67-2.07.11-3.94-.13-1.92-.24-9.45.62,7.84.26,1.7.93-2.32-.11-5.33.06-7,0,10.79.44,15.78-.68,22.42,0,2.55-.39,6.42-.83,10.87-1.16s9.44-.73,14.32-.74c-3.72.64,10.5-.73,5.74.37,3.71-.57,12.39-.82,13.79-1.43a64.52,64.52,0,0,1-8.48.68c4-.53,4.38-1,9.23-1.35.64,0,.31.18.31.18,6.24-1,1.91-1.79,12.9-2.82,28.82-3.23-3.77,2.17.36,2.12,1-.51,13.72-2,19.49-2.3l-1.33.34a64,64,0,0,1,10.35-1.23,64,64,0,0,1,6.9-2.51l12.84-1.6-2.59.67c2.9-.49,5.48-.81,8.06-1.13,1.22.36-2.6.67-6.47,1.33a21.13,21.13,0,0,0,7.69-1l-1.61.16c3.25-.66,15.14-2.82,5.56-1.87,7.07-1.32,9.53-.59,14.38-1.42.6.36-3.89,1-1.35,1,4.78-.48,8-.79,11.81-1.43-3.82.29,1-.51-5-.08,2.25-.49,8.31-1.27,8-1.45a39.56,39.56,0,0,1-6.71.77c6.4-1,13.11-1.74,19.78-2.15a8.7,8.7,0,0,1-1.59.46c8.44-1.61,21.36-2.86,27-4.16l-2.58.06a51.54,51.54,0,0,1-8,.83c6.41-.9-4.72-.28,2-1.35,9.34-1.29,17.85-1.1,22.85-2.51-9,.73-21.15,1.26-24.7,2.11,1.92-.18,3.85-.39,5.78-.54-4.33.78-8.65,1.66-13,2.48-.59-.36-11.55,1.47-11.47.8,4.5-.63,8.65-1,12.18-1.48-.9-.21-12.16,1.1-16.94,1.59l6-.44c-10.6,1.76-24.33,3.15-34.62,4.81,8-1.49-10.5.76-4.06-.57a36.13,36.13,0,0,1,5.74-.64c.69-.69-6.38.63-8.58.43-1,.52-11.6,2-5.23,1.7-3.5.13-10.91,1.63-15.7,1.73,1.55.56-8.67,1.42-10.35,1.93-2.05.19-3.86.25-5.29.24l15.05-2.53c2.25-.13,6.39-.61,5.13-.63l0-.27,22.44-4,2.84-.34-.55.14c.3-.07.6-.12.91-.18,48.34-5.72,96.72-11.27,145.23-10.58-3.19.1-8.36-.06-10.51.3l.34-.14-4.94.28c4.16,0,12.41-.09,16-.43,3.41,0,6.81.14,10.22.26l-8.53-.55.05,0-.05,0L705.35,792a189.25,189.25,0,0,1,20.84-.72c-2.56.26,0,.37.6.51,21.86-1.84,43.08-1.89,65.11-1.45,9.26.18,18.57.36,27.72-1,17.68-2.71,34.7-11.29,52.53-9.77,6.67.57,14.57,2.14,19.1-2.82,5.12-5.6,1-15.36-5.75-18.85s-14.69-2.87-22.24-3.11c-9.85-.3-19.67-2.22-29.5-1.42-12.56,1-23.86,4.63-36.56,3.83-9-.56-18.51-2.41-27.54-2.15,5.11-.15-3.21-.91-7.23-1.56-12.49-.58-38.94-2.15-57.84-2.66,2.58-.62-2.66-.91-8.72-1.19s-12.94-.52-13.64-1.18c-4.2-.21-10.75-.23-11.26.22,2.35-.14,8,.47,7.22.7-6.15-.15-15.51-.5-16.42.07l-7.52-.91c-.34.31-1.57.62-3.57.75l-4.94-.19c-3-.47-3.07-.33-3.26-.12l-5.47-.2a36,36,0,0,0,4.7-.73c-6.43-.35-5.58,0-10.15-.07-1.46-.43,4.61-.86,9.55-.93l-8.25-.66a326.43,326.43,0,0,1-34.85.28c2.13-.37,6.3-.2,3-.94-5.53,0-13,.51-20.24-.22,1,0,.4-.11,1.4-.12-12.88.12-9.62-.59-21.19-1.21a3,3,0,0,1,.59-.2l-7.13.12c-15,.3-16.42-1.58-25.22-2.59l2,0c-2.72-.55-8.58-.88-14.36-1.24s-11.52-.68-14-1c6.19.92,2,.61,6.47,1.71,5.56.21,4-.79,13.2.12-1.31.7-13,.1-15.5.51-5.17-.32-8.45-1.78-8.87-2.25-12.84-1-19.95-2-35.72-3.3-5.74,0-10.37,1.08-23.31-1.16l.78-.2c-.54.43-6.36-.7-9.1-.58,4.4,1.18-5.73,0-.32,1.23-7.72-.6-8.81-1.75-9.46-2.45-5.66.64-15.22-1.74-27.22-1.64,2.18-.44,15.18.27,9.9-.57-5.16.09-10.32.29-15.46.53l6.8.25c-11.67.33-14.86-.59-21.62-1-.66-.16.11-.27,1.48-.35s3.3,0,5,0c-3.59-.15-9.36,0-14,.34-3.55.34-15.81,1.27-20.61,2.28l-2,.07a3.87,3.87,0,0,1,.88-.2c-1,.09-1.79.16-2.52.28l-6.15.47,1.2-.27-2.35.36c-2.12.13-4.23.37-6.35.64l-3.16.71,1.59-.2c-.19.44-2.11,1.08-5.07,1.75q-5.37.88-10.71,2c-3.73.78-7.47,1.66-11.21,2.55-4,.77-8.49,1.93-12.62,2.95-5.11,1.26-9.73,2.26-12.11,2.09,13.64-3.59,20.17-5.13,34.86-8.67,4-.32,1.6.2-1.73,1s-7.66,1.89-7.78,2.17c2.79-.59,5.58-1.17,8.39-1.69-1.4-.38,16.3-3.4,11.58-3.69-4.69.8-9.44,1.49-14,2.48s-9,2-13.4,3c-8.72,2-17.08,3.88-24.93,5a142.46,142.46,0,0,0,12.68-8.22c0-.08.18-.25.78-.57l-.78.57c.1.24,3.08-.65,6.49-1.64-.62.42-1.26.9,2.88-.13,8.6-1.59,12.93-3.9,19.62-5.09l-2,.49c3.17-.48,6.75-1.09,10.13-1.76s6.59-1.16,9-1.76c2.68.12-1.87.82-5.82,1.43s-7.25,1.38-2.28.87c-3.47.49-7.66,1.32-11.53,2.26s-7.38,2-9.88,2.63A98.57,98.57,0,0,1,308,732.81c2.82-.19,4.23,0,3.1.46,9.27-2.07,9.15-2.54,8.69-3s-1.21-.82,7.2-2.22c3.9-.56,7.84-.75,11.76-1.13,1.29-.5,2.59-1,3.91-1.47,7.09-.49-4.23,1.18,6.59.36,2.91-.79,9.94-.48,12.05-.92-.29.29-.41.46,5.12.43.37-.13-.14-.55,4.21-.58,3,1.07-11.15.31-6.08,1.26,12.35-.08,7.92-1,9.82-1.42-.43,0-1.1,0-2.34,0,.13-.37,5.39-.06,4.85-.46a58.9,58.9,0,0,0-6.05.17c3.76-.34-6.15-.75-10-.56-8.65.62-26.66,1.68-38.54,3.74,1-.2,3.06-.59,1.72-.56l-5.94.86-5.24,1c-3.34.6-6.41,1.13-9.45,1.81-6.09,1.29-12.21,2.85-20.65,5l-1.67,1.2c-7.34,1.65-8.82,2.38-9,3s1,1-.74,1.44c-3.22.6-5.89,1.5-8.75,1.37.48-.15,1-.29,1.45-.47-4.48.62-5.16.81-5.72,1s-1,.41-5,.36c-3.2.17-1.82.26-.1.3s3.73,0,1.66.27c-2.17,0-3.56,0-4.68.08s-2,.22-2.95.27c-2,.12-4.54.26-11.25-1.59.39-.05.11-.36.75-.44s2.2.09,6,.67c-2.41-.58-4.85-1.29-7.39-2.07,4.69.89,5.48.93,6.38,1.08s1.75.39,6.13.72a12.47,12.47,0,0,0,3.65-.84,18.56,18.56,0,0,1,3.27-.92,26.37,26.37,0,0,0-3.13.47,13.62,13.62,0,0,1-4.3,0c-5.64-.78,1-.29,1.58-.51a20.88,20.88,0,0,1-7.85-1,38.53,38.53,0,0,0-8.07-1.75c1.07,1.22-.32.9,4.83,2.66a58.44,58.44,0,0,1-8.27-2c-2.42-.78-4.15-1.49-3.68-1.82l-1.59.46c-1.4-.48-6.6-1.22-6.87-1.46l-2.31.13c4.57,1.07,8.55,1.92,16,3.34-3.23-.18,3.56,2.07-6.19.15-4.35-.83-.35-.51-.54-.77-2.88-.48-5.48-.77-7.74-1.1s-4.29-.49-6.1-.62l-4.89-.43-4.17-.29a88.69,88.69,0,0,0-19.14.7c4.44-.88,15.72-1.38,24.86-1.43-5.45-.86-11.81.12-17,.41,4.59-.6,5.39-.91-.16-.89-.73.19-1.45.42-2.18.63-3.28.23-9,1-9.47.84-.11.18,1.33.12,4.26-.08-4,.73-9.59,1.77-15.84,3l-19.71,4c3.73-.76,8-2.4,11.72-3.53-14.7,1.87-28.86,1-43.39,5.35-7.72,2.29-15.27,5.37-23.24,6.53-10.5,1.53-34.68,0-37.14,15.23-.86,5.3,2.65,10.22,6,14.43,3.57,4.53,7.23,9.14,12,12.37,6,4,13.32,5.65,19.3,9.7,4.84,3.27,8.54,8,13,11.75C112.31,821.35,118.91,821,127.37,820.9Zm167.4-87.19L289.1,735A43.63,43.63,0,0,1,294.77,733.71ZM192.69,812.6c-1.43.28-3.42.62-5.2.93-1.6.11-2,.06-2,0C187.92,813.2,190.31,812.9,192.69,812.6ZM95,787.44a3.27,3.27,0,0,1-.33-.91C94.8,786.84,94.9,787.14,95,787.44ZM268.5,806.71c-2.3.31-2,1.28-11.1,1.42-.12-.1.65-.21,1.56-.3-4.15.31-4.86.17-9.4.31-1.48-.6,5.51-.93,8.49-1.55-2.93.27-6.17.83-9.38,1l.71-.31c-3.22.31-6.44.63-9.65,1-3.88.91,7.34-.61,7.93-.21l-6.11,1c-7,.72-25.78,3.25-32.43,3.13-8.28.72-4.49,1.06-6.44,1.77-4.82,1.24-9.6,1.06-14.43,1.91.29.53-5.52,1.18-5.59,1.88l-8.09.73c-4.35,1.5,9.74-.85,11.93-.69,4.49.39-5.87,1-3,1.2,6.17-.82,6.51-1.35,9.45-1.88,3.51-.51,5.43-.52,5.4-.16-9.93.85-5.16,1.42-13.27,2.23l-.31-.18c0,.72-11.72,1.61-16.08,2.28-9.09,0,7.09-1.67,6.73-1.91q-5.4.67-10.87,1.22c4.7-.84-.16-.87,6.12-1.88-6.58.85-7.47.24-13.78,1.12,7.12-1.47-9-.24-9.87-1,6.94-.4,19.25-.48,19.92-.32,1-.24,9-.88,12.21-1l4.92-1.51c-5.77.65-13.61,1.83-11.55.83-2.62.37-5.23.78-7.87,1.12,8-2,7.56-1.87,14.79-3.2-15.2.64-26.84,3.61-39.51,2.81l2-.12a70.34,70.34,0,0,1-15.4-1,26.24,26.24,0,0,1-8.83-3.25l-.19-.13c.38.18.74.38,1.13.56,7,3,15.66,3.33,23.93,3.19,13.24-.22,26.38-1.38,39.49-2.89l-1.56.63.9-.17c15.06-2.14,1.53.92,16.91-1.49-.58.16-.84.28-1.16.39,6.24-1.11,17.87-2.31,19.07-3.22-1.48.2-7.29.75-10.13.84,6.57-.86,13.14-1.72,19.73-2.51,1.39,0,2.72-.08,4.27-.21h0c1.5-.13,3.15-.36,5.33-.72.52-.11.88-.19,1.14-.26,7.87-.81,15.76-1.44,23.68-1.79C259.56,806,277.68,805.6,268.5,806.71Zm24.67-.31c-9.34-.38-2.81-.32-9.45-.86-.36-.14-.13-.24.42-.34q10.5.28,21,1C299.07,806,292.78,805.65,293.17,806.4Zm28.32,1.82c-3.19-.36-12.24-.87-12.9-1.54,4.39.33,5.64.39,5.16.22q6.83.57,13.65,1.24a4.21,4.21,0,0,0,1.19.36C326.56,808.45,323.38,808.24,321.49,808.22ZM438.86,818c-8.13.08.44-.46-3.69-.72-6.18,1-7.9-.81-14.46.33-7.85.1-5.37-.51-7.85-.89,7.81.09-3.61-.78,6.2-.93a31.58,31.58,0,0,0-6.73.12,20.37,20.37,0,0,1-5.8.13l-1-.88-12.86-.86c-5-.36-10.35-.74-14.5-.79,6.82,1.08-4.12.23-3.09.8,1.33-.6,10.74.62,10.58.95-4.92-.16-16.35-1-20.86-1.55l9,1.23c-3.76.14-17-.38-17.4-.29-4-.75-10.1-1.3-12.1-2l7.67.17,2.59.81,4.51-.24c-4.86-.73-15.05-2.26-17.14-3.08,7.71.8,18.26,1.81,30.93,2.33,7.26.64,14.53,1.2,21.82,1.59,17.42.93,34.81.93,52.21.31l-.38.06a66.44,66.44,0,0,1-7.26.82,56.65,56.65,0,0,1,6.13-.05c-4.67.61-9.36,1.33-14.08,1.75a35.38,35.38,0,0,0,7.84-.57,53.82,53.82,0,0,1,9-.73C447.58,816.69,448.15,817.1,438.86,818Zm242-27.57c6.08.06,12.16.06,18.25,0H699l6,.55c-2.27.18-4.54.34-6.81.51Zm-416.49-43.2a7.55,7.55,0,0,1,3.08.29c-1.55.18-3.07.35-4.57.45Zm-55.64-6.37c.35-.41,2.93-.48,5.81-.34s6,.44,7.59.31a59.87,59.87,0,0,1,7.18,1.35c2.6.64,4.52,1.23,3.24,1.24a26.59,26.59,0,0,0-7.18-1,22.2,22.2,0,0,1-6.75-1.25c-1.29.33.51.77,3.19,1.34a4,4,0,0,0-1.68.06l-4-.64-3.83-.43C210.06,741.17,208.06,741.07,208.7,740.87Zm-9.92,0-2.3.17A121.22,121.22,0,0,0,179,742.76c-3,.56-3.77.86-2.89,1q-3.09.46-6.15,1c3.57-1,7-2,8.94-2.4A118.18,118.18,0,0,1,198.78,740.84Zm-45.42,6.09c-.42.29.06.3,1,.18l-6.81,1.68C148.39,748.26,146.73,748.23,153.36,746.93ZM90.14,779.52a14.78,14.78,0,0,1,.88-3.61,9.91,9.91,0,0,1,1.91-3.1c-.28-.6,1-3.22,3.58-5.85,2.74-2.92,6.95-5.51,9.13-7a37.08,37.08,0,0,1,10.29-4,68.79,68.79,0,0,0,9.47-2.9c-1.48.23-2.94.52-4.42.81,5-1.79,8.6-2.89,12.41-3.91s7.8-1.91,13.53-3.09c1.66.37-5.28,1-7.7,2l5.66-.58c-2.44.6-7,2.32-7.12,1.63.06.35-3.55,1.8,3.51-.2l-5.16,1.8a9.38,9.38,0,0,0,1.27-.1l-4.76,1.33c-2.13.33-5.72,1.37-9.08,1.89-.36-.14,2.91-1.23,4.76-1.89a62.5,62.5,0,0,0-11.69,3.89c3.7-1.31,4.64-1.47,4.89-1.36s-.19.51.79.51c-2.17.86-5.05,2-7.63,3.08a47,47,0,0,0-6,2.95c-1.44.66-2.76,1.36-3.92,2s-2.14,1.14-2.88,1.49c-1.46.71-2,.68-.62-.73-2.86,2.5-6.1,5.26-7,8.7a8.69,8.69,0,0,1,1.58-2.6,1.55,1.55,0,0,1,1-.34,1.77,1.77,0,0,0,1.17-.6c.28-.25.57-.63,1-1.13s1.06-1.12,1.8-2c.58-.21.76-.16.65.08A22.92,22.92,0,0,0,95.33,774c-.46.73-.88,1.43-1.19,2,.66-2-.52-.43-.67-1a5.66,5.66,0,0,0-.42,1.9,6.88,6.88,0,0,0,0,1.14c0,.53.21.61.44.38a3.77,3.77,0,0,0,.65-1.06,13.54,13.54,0,0,0-.33,1.4,16.16,16.16,0,0,0,.89,7.66,25.28,25.28,0,0,0,.85,3.67,24.55,24.55,0,0,1-2.43-5.52,8.49,8.49,0,0,0,1.17,4.45c.83,1.58,2,3.14,2.81,4.49.75,1.58-.68,0-2.43-2.59a45.54,45.54,0,0,1-4.18-8.15A8.64,8.64,0,0,1,90.14,779.52Z"/><rect class="cls-12" x="332.51" y="334.73" width="364.04" height="4.83" rx="2.42"/><rect class="cls-1" x="350.36" y="140.14" width="322.2" height="199.28"/><g class="cls-13"><polygon class="cls-14" points="282.13 327.79 282.51 327.79 282.51 280.66 304.95 280.66 304.95 247.75 335.25 247.75 335.25 268.32 353.58 268.32 353.58 275.8 364.43 275.8 364.43 268.69 377.14 268.69 377.14 253.73 387.24 241.01 404.82 241.01 413.05 254.48 413.05 301.61 437.74 301.61 437.74 268.69 481.13 268.69 481.13 277.67 493.1 277.67 493.1 269.44 524.89 269.44 524.89 276.55 539.48 276.55 539.48 268.32 543.22 268.32 543.22 233.16 549.95 233.16 549.95 228.3 555.93 223.06 570.15 223.06 575.01 228.3 575.01 232.78 580.62 232.78 580.62 268.69 583.99 268.69 583.99 285.9 592.59 285.9 592.59 251.86 620.27 251.86 620.27 272.43 625.13 272.43 625.13 255.97 630 255.97 630 244.38 641.96 244.38 641.96 255.6 649.07 255.6 649.07 264.58 660.29 264.58 660.29 271.31 689.84 271.31 689.84 249.62 698.15 249.62 698.15 334.28 282.03 334.28 282.13 327.79"/></g><rect class="cls-12" x="460.67" y="137.33" width="6.22" height="202.1"/><path class="cls-12" d="M676.33,339.42H348.06V137.33H676.33ZM353.9,334.2H670.48V142.54H353.9Z"/><path class="cls-15" d="M834.32,496.07h.8a36.32,36.32,0,0,1,36.32,36.32V692.28a38.91,38.91,0,0,1-38.91,38.91H798a0,0,0,0,1,0,0V532.39a36.32,36.32,0,0,1,36.32-36.32Z"/><path class="cls-15" d="M97.7,496.07h34.53A38.91,38.91,0,0,1,171.14,535V694.87a36.32,36.32,0,0,1-36.32,36.32H134A36.32,36.32,0,0,1,97.7,694.87V496.07A0,0,0,0,1,97.7,496.07Z" transform="translate(268.84 1227.26) rotate(180)"/><path class="cls-15" d="M803.78,549.68v24.55H165.36V549.68a177.58,177.58,0,0,1,2.8-31.49c0-.21.07-.42.12-.63,15.1-82-2.92-151.79,173.28-144.08h286C783.79,375.4,800.84,389,801,493.41v1c0,6.85-1.24,16.73,0,23.58A176.67,176.67,0,0,1,803.78,549.68Z"/><rect class="cls-15" x="171.14" y="554.58" width="626.86" height="176.61"/><path class="cls-16" d="M786,549.48c10.33,6.5,7.32,43,.64,45.37s-147.59,5-147.59,5-79.45,3.94-118.29,3.79c-51.95-.2-148.54,0-198,0-31.46,0-68.49-3.52-102-3.52-27.09,0-32.44-2.53-39.8-3.15-7.17-.6-9.45-14-3.95-38.61,2.5-11.18,23.65-20.35,86.68-20.5,102-.24,129.53,6.7,268,1.26,32.91-1.29,80.43,1.51,115.84,2.23C680.91,542.05,769,538.8,786,549.48Z"/><path class="cls-16" d="M160.22,570.06a1.17,1.17,0,0,1-1.17-1.17V551.71c0-18.5-2.58-40.18-22.69-43.66-12.28-2.12-24.27,8.76-24.39,8.87a1.16,1.16,0,1,1-1.58-1.71c.52-.48,13-11.78,26.37-9.46,21.82,3.78,24.62,26.55,24.62,46v17.18A1.16,1.16,0,0,1,160.22,570.06Z"/><path class="cls-16" d="M806.45,600.46a1.17,1.17,0,0,1-1.16-1.1c0-.14-.82-14-1.11-31.24,0-.93,0-1.94-.06-3-.33-14.27-.88-38.14,11.37-50.49,5.13-5.19,12-7.74,20.54-7.63,19.91.28,25.29,19.43,26.47,25.3,2,10.17,1,53.24.93,55.07a1.18,1.18,0,0,1-1.17,1.14h0a1.16,1.16,0,0,1-1.13-1.2c0-.44,1.1-44.64-.89-54.56-1.39-7-6.55-23.17-24.21-23.42h-.53c-7.6,0-13.76,2.33-18.33,6.94-11.55,11.65-11,34.9-10.69,48.79,0,1.08,0,2.08.06,3,.29,17.17,1.1,31,1.1,31.14a1.16,1.16,0,0,1-1.09,1.23Z"/><path class="cls-16" d="M781.3,642.62h0c-1.43,0-143.34-2.07-153.17-1.94l-3.63.05c-95.57,1.37-165,2-195.35,1.87-49.91-.27-245-3.8-247-3.84a1.17,1.17,0,1,1,0-2.33c2,0,197.07,3.57,247,3.84,30.37.16,99.74-.5,195.3-1.87l3.63,0c9.88-.13,151.8,1.92,153.23,1.94a1.17,1.17,0,0,1,0,2.33Z"/><path class="cls-16" d="M171.29,564.82h-.09a1.16,1.16,0,0,1-1.07-1.25,179.13,179.13,0,0,0,0-19.37c-.56-11.48-2.68-18.34-2.71-18.4a1.17,1.17,0,0,1,2.23-.7c.09.28,2.23,7.18,2.8,19a175.4,175.4,0,0,1,0,19.66A1.16,1.16,0,0,1,171.29,564.82Z"/><path class="cls-16" d="M794.86,557.66a1.17,1.17,0,0,1-1.16-1.09c0-.19-.3-4.65,0-13.49s1.5-19.45,1.51-19.56a1.17,1.17,0,0,1,2.32.26c0,.11-1.21,10.65-1.5,19.38s0,13.21,0,13.26a1.16,1.16,0,0,1-1.09,1.23Z"/><path class="cls-16" d="M171.14,717.25a1.17,1.17,0,0,1-1.17-1.17V603.16a1.17,1.17,0,1,1,2.33,0V716.08A1.16,1.16,0,0,1,171.14,717.25Z"/><path class="cls-16" d="M798,717.25a1.16,1.16,0,0,1-1.16-1.17V582a1.17,1.17,0,0,1,2.33,0V716.08A1.17,1.17,0,0,1,798,717.25Z"/><path class="cls-16" d="M864.73,676.18a1.16,1.16,0,0,1-1.17-1.16V608.8a1.17,1.17,0,1,1,2.33,0V675A1.16,1.16,0,0,1,864.73,676.18Z"/><path class="cls-16" d="M106.73,690.84a1.16,1.16,0,0,1-1.16-1.16V565.06a1.17,1.17,0,0,1,2.33,0V689.68A1.17,1.17,0,0,1,106.73,690.84Z"/><path class="cls-17" d="M608.49,497.93a24.33,24.33,0,0,1,2.84,7.23c.11.49.85.29.75-.2a25.13,25.13,0,0,0-2.92-7.42.39.39,0,0,0-.67.39Z"/><path class="cls-16" d="M238.62,723.86q61.83,1,123.67.31a1.23,1.23,0,0,0,0-2.46q-61.83.7-123.67-.32a1.24,1.24,0,0,0,0,2.47Z"/><path class="cls-16" d="M331.17,732.65l28.67-.08a1.24,1.24,0,0,0,0-2.47l-28.67.09a1.23,1.23,0,0,0,0,2.46Z"/><path class="cls-16" d="M213.57,585.07c-4.78-24.76,1.6-49.35,9.21-72.83.49-1.52-1.89-2.16-2.38-.66-7.75,23.95-14.08,48.93-9.2,74.14.3,1.56,2.67.9,2.37-.65Z"/><path class="cls-16" d="M737.9,461.07a107.15,107.15,0,0,1,36.38,48.47c7.93,21.54,7.76,44.73,7.51,67.37a1.24,1.24,0,0,0,2.47,0c.26-24.15.3-48.88-9-71.6a110.09,110.09,0,0,0-36.12-46.37c-1.26-.95-2.49,1.19-1.24,2.13Z"/><path class="cls-16" d="M781.33,588.09a1.23,1.23,0,0,0,0-2.46,1.23,1.23,0,0,0,0,2.46Z"/><path class="cls-16" d="M284.56,443.76v-.55a1.23,1.23,0,0,0-2.46,0v.55a1.23,1.23,0,0,0,2.46,0Z"/><path class="cls-16" d="M289.47,436.11v-.54a1.23,1.23,0,0,0-2.46,0v.54a1.23,1.23,0,0,0,2.46,0Z"/><path class="cls-16" d="M295.84,427.18a131.82,131.82,0,0,1,22.07-12.7c1.45-.65.19-2.78-1.24-2.13a132.16,132.16,0,0,0-22.07,12.71c-1.28.91-.05,3.05,1.24,2.12Z"/><path class="cls-18" d="M311.71,728.5s3,10.14,2,11.72-9.29,4.74-12.05,8.5,8.88,12.44,8.88,13.23,8.89,7.9,8.89,7.9,22.92-.2,28.64-3,2.37-20.54-1-28a89.07,89.07,0,0,1-5.14-17.19Z"/><path class="cls-19" d="M281.15,771.09c-1.77-4,4.3-19.26,15.56-25.34s11.82-4.2,15.34-4.22c3.1,0,9.25,2.74,14.14,9.56,4.35,6,5.88,13.46,7.55,14.22,3.26,1.48,17-3.56,20-1.78a4.44,4.44,0,0,1-1.18,8c-4,1.33-27.37,5.18-46.18,5.93S282.93,775.09,281.15,771.09Z"/><path class="cls-18" d="M386.44,732.26s1.89,6.84.89,8.22-8.78,3.75-11.54,7,7.34,11.92,7.29,12.64,7.62,7.78,7.62,7.78,20.95,1.25,26.35-.92,3.45-18.61.86-25.68a81.49,81.49,0,0,1-3.62-16Z"/><path class="cls-20" d="M446.59,529.58s9.34,32-12.57,47.45-65.32,9.73-77.89,11-14.42.83-23.7-4-16.63-13.38-16.63-26V527.11s51.14-5.26,57.09-4.45,62.12,2.76,66.69,4A25.77,25.77,0,0,1,446.59,529.58Z"/><path class="cls-20" d="M380.46,722a38.88,38.88,0,0,1-.82-5.15c-4-36.1-8.11-67.78-12.14-103.88-1.44-12.84-.16-25.37-.89-38.11-.58-10,1.67-21.16,10.1-28.11,9.1-7.52,24.74-6.88,36.34-4.52,21.27,4.32,16.62,35,16.69,50.18q.18,36.41-3,72.78c-.49,5.58-1,11.15-1.58,16.72-1.3,13.2-2.55,22-3.84,35.19-.28,2.77-.6,5.68-2.25,8-2.33,3.24-6.62,4.39-10.55,5.32-4.74,1.11-9.58,2.23-14.42,1.85s-9.76-2.51-12.17-6.58A13.47,13.47,0,0,1,380.46,722Z"/><path class="cls-20" d="M344.91,719.13a42,42,0,0,0-1.23-8.87c-3.61-18,.36-36.71-.76-55.08-.54-8.92-2.28-17.75-2.65-26.68a173,173,0,0,1,.93-21.82c1.72-20.45,5.58-52.71-15.38-66.24-9.63-6.22-18.69-3.27-29.53.62-15.34,5.52-15.42,28.06-15.59,41.42-.26,20.42,4.19,40.58,9.33,60.23,6.48,24.75,14.2,49.45,15.49,75,.18,3.56.46,7.6,3.26,9.81a11,11,0,0,0,4.71,1.82,56.14,56.14,0,0,0,20.31.3c3.43-.58,7.07-1.65,9.19-4.41A10.06,10.06,0,0,0,344.91,719.13Z"/><path class="cls-19" d="M364.8,768.27c-1.38-3.77.45-19,11.12-23.8s11.06-3.1,14.27-2.9c2.83.18,8.28,3.09,12.32,9.62,3.59,5.8,4.53,12.66,6,13.46,2.89,1.56,13.74-2,16.33-.24a4.06,4.06,0,0,1-1.58,7.24c-3.74,1-23.31,2.88-40.54,2.38S366.17,772,364.8,768.27Z"/><path class="cls-21" d="M379.75,362.82h1c15.84-.16,29.55-12.63,30.12-13.16a.91.91,0,1,0-1.24-1.34c-.13.12-13.77,12.52-28.9,12.68-14.87.16-18.66-3.06-18.69-3.09a.93.93,0,0,0-1.29.05.92.92,0,0,0,0,1.28C361,359.38,364.75,362.82,379.75,362.82Z"/><path class="cls-22" d="M412.52,257c-1-2-1.4-4.37-2.56-6.33-2.26-3.85-6.85-5.57-10.21-8.51-1.51-1.32-2.78-2.89-4.29-4.22a16,16,0,0,0-13.81-3.29c-2.57.67-5,1.8-7.61,2.36s-5.35.54-8,1.06a19.78,19.78,0,0,0-11.62,7.19c-1.09,1.4-2.59,2.81-3.29,4.42-.51,1.19-.28,3-1.34,3.75-.83.57-2.63.34-3.64.74a9.28,9.28,0,0,0-3.44,2.39,10.22,10.22,0,0,0-2.5,6.93,35,35,0,0,1,.19,4.68c-.22,1.74-1.13,3.34-1.31,5.09a12.51,12.51,0,0,0,1.16,5.57c2.74,7.25,5.32,14.45,8.08,21.67,3.06,8,7.32,19.5,13.92,25.13.87.74,2.54-.16,2-1.34-1.95-4.13-4-8.26-6-12.41a63,63,0,0,0,8.57,3.88c7.44,3.11,18.13,3.21,26.12,1.91,6.17-1,13-3.3,16.14-9.19,3.58-6.82,3.17-14.77,4.2-22.2.77-5.54,2.53-6.2,3.88-11.65a28.28,28.28,0,0,0-.18-9.83C416.15,261.29,414,260,412.52,257Z"/><path class="cls-23" d="M355.46,252c2.19-8.5,15.63-11.61,22.86-10.09,3.17.67,6.21,1.59,9.42,2.09,3.85.6,7.48,1,10.6,3.68.58.49,1.43-.35.85-.85-3.27-2.78-7-3.34-11.14-4-4.82-.76-9.57-2.73-14.48-2.72-6.69,0-17.42,4.4-19.26,11.55a.6.6,0,0,0,1.15.32Z"/><path class="cls-23" d="M369.09,257.43c6.11-1.12,12.13-2,18.08.3.71.28,1-.88.31-1.16-6.13-2.39-12.41-1.44-18.71-.29-.75.14-.43,1.29.32,1.15Z"/><path class="cls-23" d="M403.4,264.09a.6.6,0,0,0,0-1.2.6.6,0,0,0,0,1.2Z"/><path class="cls-23" d="M400.12,263.11a.6.6,0,0,0,0-1.19.6.6,0,0,0,0,1.19Z"/><path class="cls-24" d="M343.15,295.89a5.56,5.56,0,0,1,.44-1.58h0a4.17,4.17,0,0,1,3.17-3.07,2.47,2.47,0,0,1,2,.45h0a2,2,0,0,1,1.83,2.59.57.57,0,0,1-.9.37,3.47,3.47,0,0,0-.81-.56,0,0,0,0,0,0,0c.53,2.48,1.7,4.85,1.83,7.39,0,.51,2.86,4.58,4.71,6.11.56.46.23,1.63-.6,1.43l-.09,0a1,1,0,0,1-1.34.81l-.4-.24h0a.61.61,0,0,1-.66.25,10.55,10.55,0,0,1-5.61-3.94C345,303.3,342.68,299.3,343.15,295.89Z"/><path class="cls-24" d="M404.67,291.29a15.39,15.39,0,0,1,1-3.22.71.71,0,0,1-.73-.78,4.81,4.81,0,0,1,6-4.09c3.6,1.07,4.14,6.19,3.6,9.29a19.79,19.79,0,0,1-5.57,10.6c-2.2,2-4.46,1.17-4.84-1.76A34.53,34.53,0,0,1,404.67,291.29Z"/><path class="cls-25" d="M348.35,293.94c1.32,7,3.22,17.37,4.32,19.76,1,2.15,1.93,9,5.34,13,4.91,3.67,12.38,9.46,15.08,11.19a10.84,10.84,0,0,0,6.52,1.72c2.13-.09,5.11-.22,7.05-1.16a7.19,7.19,0,0,0,1.89-1.8c1.53-1.67,3.22-3.19,4.75-4.86s7.22-8.36,10.12-11.63c1.58-3.94,1.21-11.19,1.5-15.93.42-7,1.47-13,1.22-20.08-.22-6.55-1.67-12.3-5.41-17.77-2.73-4-6.55-10-11.21-12.07-6.27-2.77-12.1,0-16.49,4.47-4.41-1.06-10.85,2.09-14.41,3.56-4.46,1.84-9.32,8.49-11,13.2a13.17,13.17,0,0,1,.74-5.84.64.64,0,0,0-1.15-.55c-1.79,3.18-1.34,4.27-1,7.73C346.64,282.62,347.29,288.28,348.35,293.94Z"/><path class="cls-22" d="M406.54,268.46a27.91,27.91,0,0,0-2.18-4c-3.12-4.8-6.85-12.62-13.09-13.91-4.07-.84-10.51,3.73-15,3.12,1.67,3.4-9.87-1.77-10.66-1.7-2.71.27-5.54.41-7.91,1.92-3.33,2.12-5.57,6.33-8.2,9.23A19.55,19.55,0,0,0,344,276a23.45,23.45,0,0,0,.2,3.35,30.53,30.53,0,0,0,3.11,10.08c.18-2,0-3.83,1-5.65.45-.83,1.07-1.58,1.45-2.45.6-1.41.53-3.06,1.3-4.37.9-1.55,2.81-2.37,3.53-4,1-2.29-1.32-5.88.47-7.76s4.93,0,6.83.58a20.81,20.81,0,0,0,8,.83c4.45-.42,9.14-2.24,13.21-.39,2.58,1.17,4.43,3.66,7.11,4.61,2.26.8,4.92.4,7,1.64,2.38,1.42,3.12,4.44,4.13,7s3.18,5.35,5.91,4.88c1.54-.26,1.1-9,.95-10.15A21.28,21.28,0,0,0,406.54,268.46Z"/><path class="cls-25" d="M325.67,373.79a8.24,8.24,0,0,0,2.15-.09c-.51,5.14,2.54,9.88,6.64,12.87,3.8,2.79,10.2,6.64,14.9,4.14a.69.69,0,0,0-.36-1.31,17.46,17.46,0,0,1-4-.34c4.4,0,8.86-.41,13.2-.57,6.17-.24,12.33-.29,18.51-.47,11.57-.35,23.26-1.82,34.26-5.53.85-.28,1.68-.58,2.52-.91a61.82,61.82,0,0,0,6-2.68c1.1-.57,2.18-1.19,3.23-1.84a41.85,41.85,0,0,0,4.56-3.2,38.07,38.07,0,0,0,4.79-4.54c3.75-4.27,2.17-7.85-2.82-8.21l-.12-.07c-2.55-.86-5.08-1.7-7.56-2.61a72.19,72.19,0,0,1-6.87-2.87,46.74,46.74,0,0,1-4.82-2.69c-3.41-2.19-4.46-4.8-6.22-8.52s-3-33.89-3-33.89L358.56,314s1.92,17,2.31,22.92c.29,4.3.15,9.67-1.4,13.79-1.35,3.61-2.72,5.67-5.91,7.63-4.6,2.83-9.37,5.41-14,8.11-4.49,2.6-9.25,4.83-13.86,5.48A1,1,0,0,0,325.67,373.79Z"/><path class="cls-22" d="M379.51,281.57c.94-3.19,5-3.59,7.76-3.72s6.86-.47,8.73,1.89a1.67,1.67,0,0,1-.81,2.64A98.4,98.4,0,0,1,381,283.7,1.66,1.66,0,0,1,379.51,281.57Z"/><path class="cls-22" d="M368.3,282.69c-1.14-2.89-4.93-2.93-7.54-2.81s-6.43.13-8,2.48a1.57,1.57,0,0,0,1,2.4c.47.1,8.56.27,13.31,0A1.53,1.53,0,0,0,368.3,282.69Z"/><path class="cls-26" d="M366.75,333.31a8.75,8.75,0,0,0,4,6.33c1.44.9,3.53,1.33,4.67,2.63a5,5,0,0,0,3.75,2.06,9.36,9.36,0,0,0,5.08-.66,29.68,29.68,0,0,0,4-3,17.29,17.29,0,0,1,6.83-2.64c2.43-.47,4.9-.43,7.25-1.22-.43-4.21-.8-9.49-1.07-14.22-3,3.42-6.74,7.84-8,9.17-1.53,1.67-3.22,3.19-4.75,4.86a7.34,7.34,0,0,1-1.89,1.8c-1.94.94-4.92,1.07-7.05,1.16a10.84,10.84,0,0,1-6.52-1.72C371.8,337.07,369.42,335.32,366.75,333.31Z"/><path class="cls-3" d="M371.52,293.62c-.1,4.76-.82,9.52-.85,14.28,0,5.33,4.54,4.45,7.12,1.32.49-.6-.36-1.46-.86-.85-1.69,2.05-4.46,4.23-5-.87a27.28,27.28,0,0,1,.29-4.42c.21-3.15.48-6.3.54-9.46a.61.61,0,0,0-1.21,0Z"/><path class="cls-3" d="M393.06,296.53a6.62,6.62,0,0,1-7.12,1.25c-.28-.12-.41.34-.13.46a7.1,7.1,0,0,0,7.59-1.37c.23-.21-.11-.54-.34-.34Z"/><path class="cls-3" d="M365.9,299a7.26,7.26,0,0,1-7,1c-.29-.11-.42.36-.13.46a7.71,7.71,0,0,0,7.41-1.08c.24-.19,0-.6-.24-.42Z"/><path class="cls-27" d="M346.3,289.79l.24,3.19s1.52.3,1.95.87a26.12,26.12,0,0,1,1,3.18,10.46,10.46,0,0,0,3.1,6.24,9.48,9.48,0,0,0,7.38,2.34c4.71-.34,10-3.22,10.61-10.25a7.93,7.93,0,0,0-.3-3.24c1.4-.45,5.19-1.47,7.77-.49a7.78,7.78,0,0,0,.19,3.17c1.65,6.87,7.27,8.94,12,8.6a9.51,9.51,0,0,0,7-3.39,10.44,10.44,0,0,0,2.16-6.62,23.31,23.31,0,0,1,.51-3.29c.35-.62,1.81-1.14,1.81-1.14l-.24-3.19c-10.56-.75-13.48-.19-13.48-.19l.09,0-.15,0c-3.79.58-6.26,1.41-7.81,2.65l0-.06a39.19,39.19,0,0,0-6.21-.3,14.74,14.74,0,0,0-5.62,1.54c-1.71-1.2-4.37-1.75-8.56-1.77h-.16l.1,0S356.65,287.52,346.3,289.79Zm33.8.62c1.07-1.6,3.53-2.61,8-3.29.32-.05.76-.11,1.26-.14,1.77-.13,4.42,0,6.27,1.34a5.4,5.4,0,0,1,2.09,3.73,9.24,9.24,0,0,1-1.73,7,8,8,0,0,1-5.89,2.83c-2,.14-8.6,0-10.4-7.44A4.9,4.9,0,0,1,380.1,290.41Zm-29.23,5.06a5.4,5.4,0,0,1,1.53-4c1.63-1.62,4.23-2.1,6-2.23.5,0,.93-.05,1.26-.05,4.51,0,7.09.68,8.38,2.1a4.9,4.9,0,0,1,1,3.94c-.7,7.65-7.23,8.72-9.21,8.87a8,8,0,0,1-6.24-1.94A9.26,9.26,0,0,1,350.87,295.47Z"/><polygon class="cls-27" points="400.17 285.32 406.25 281.58 406.49 285.16 400.53 288.47 400.17 285.32"/><path class="cls-23" d="M380.66,248.09c7.84.66,14.33,4.91,20.4,9.6.61.47,1.21-.57.6-1-6.27-4.84-12.93-9.08-21-9.76-.77-.06-.77,1.13,0,1.2Z"/><path class="cls-23" d="M350.59,254c1.32,2.48,3.14,5.09,6.27,4.95,5-.22,6.71-5.78,12.41-4.9.75.12,1.08-1,.32-1.15a9,9,0,0,0-6.38,1.09c-1.15.68-2.07,1.67-3.2,2.38-3.86,2.41-6.49.6-8.38-3-.37-.68-1.4-.07-1,.61Z"/><path class="cls-23" d="M408.09,261.73a22.07,22.07,0,0,1,1.52,6.25c.07.76,1.26.77,1.19,0a22.91,22.91,0,0,0-1.56-6.57c-.29-.7-1.44-.39-1.15.32Z"/><path class="cls-23" d="M346.46,257.41a8.6,8.6,0,0,0-2.37,4.87,8.87,8.87,0,0,0,.13,2.67c.57,2.94.72,4.75-.51,7.56-.31.7.72,1.31,1,.61.8-1.83,1.6-3.7,1.35-5.75-.19-1.47-.88-2.73-.86-4.25a7.18,7.18,0,0,1,2.07-4.86c.52-.57-.32-1.42-.84-.85Z"/><path class="cls-23" d="M376.12,258.19c4.73,2.7,10.1.13,15.21,1.44,4,1,5.45,3,7.31,6.23a8.22,8.22,0,0,0,3.24,3.56.6.6,0,0,0,.6-1c-3.78-2.21-3.86-7-8.07-9-5.72-2.67-12.43.77-17.69-2.24a.6.6,0,0,0-.6,1Z"/><path class="cls-28" d="M345.51,395.29c.54-11.68-3.65-38.7-21.57-32.35-3.3,1.17-5.69,4.84-7.63,7.58-2.43,3.43-4,7.39-6.07,11-2.81,4.86-7,10.52-9.91,15.34-5.53,9.18-7.11,18.57-10.65,28.69-1.81,5.16-4.06,10.29-4.42,15.76s1.67,11.51,6.49,14.12a18,18,0,0,0,7.59,1.75,25,25,0,0,0,8.41-.66,25.7,25.7,0,0,0,7.26-3.75C333.74,440,344.47,417.74,345.51,395.29Z"/><path class="cls-29" d="M363.93,341.94c-12,6.79-25.09,11.5-36.87,18.61-2.87,1.73-5.78,3.83-7,6.94-.93,2.29-.84,4.84-.75,7.31.68,17.7.8,35.29,2.65,52.91.77,7.38,1.7,14.75,2.39,22.14a344.79,344.79,0,0,1,.86,53.29c-.48,7.76-1.4,16-6.24,22.08-1.53,1.92-3.41,3.57-4.63,5.69s-1.65,5-.17,6.94c1.06,1.38,2.82,2,4.48,2.55,5.54,1.83,11.13,3.67,16.92,4.45,7.41,1,14.94.22,22.42,0a153.57,153.57,0,0,1,32.67,2.5c3.77.7,7.59,1.54,11.4,1.1,3.2-.37,6.21-1.63,9.25-2.69a76.42,76.42,0,0,1,20.17-4.07c5.8-.38,12.89-.82,15.43-6,1.22-2.51.95-5.45.67-8.23a549.79,549.79,0,0,1-1.14-98.21c.65-8.35,1.49-16.68,2.33-25,1.19-11.76,3.25-23.78,3.62-35.59.11-3.33-1.92-5.13-4.63-6.71-11.81-6.89-23.78-13.58-36.37-18.94a6.47,6.47,0,0,0-3-.72c-1.87.18-3.81,2.17-5.52,3-2.23,1.12-4.36,2.46-6.56,3.65-3,1.62-7.73,5-11.32,4.75C381.13,353.37,363.93,341.94,363.93,341.94Z"/><path class="cls-29" d="M359.92,336.5c-.07-.29,0-1.17-2.06,3.61s-3,3.3-2.89,5.95,15.94,19.59,16.82,19.92,7.21-10.7,9-12.34c0,0,.09-2-6-5.15S360.74,339.81,359.92,336.5Z"/><path class="cls-29" d="M402.64,334.49a.63.63,0,0,1,.17-.39.58.58,0,0,1,.43-.1,6.74,6.74,0,0,1,4.72,2.65,44.48,44.48,0,0,0,3.62,4.24c.64.56,1.41,1.09,1.62,1.92a3.37,3.37,0,0,1-.75,2.49c-3.13,4.84-7.31,9-11.36,13.07-2,2-5.5,6.95-8.34,7.72-1.2.32-9.81-10.79-12.27-12.45,0,0-.11-2,8.33-5.08,5.75-2.11,12.87-7.65,13.82-14Z"/><path class="cls-30" d="M380.33,366a2.28,2.28,0,1,0-2.26-2.28A2.26,2.26,0,0,0,380.33,366Z"/><path class="cls-30" d="M380.23,387.8a2.28,2.28,0,1,0,2.26,2.29A2.27,2.27,0,0,0,380.23,387.8Z"/><path class="cls-30" d="M380.09,414.12a2.28,2.28,0,1,0,2.27,2.29A2.29,2.29,0,0,0,380.09,414.12Z"/><path class="cls-30" d="M380,440.45a2.28,2.28,0,1,0,2.27,2.29A2.28,2.28,0,0,0,380,440.45Z"/><path class="cls-30" d="M379.83,466.77a2.28,2.28,0,1,0,2.27,2.29A2.28,2.28,0,0,0,379.83,466.77Z"/><path class="cls-31" d="M427.29,397.32c.19-.94.4-1.87.63-2.8,2.06-8.15,8.24-15.93,7.61-24.55-.19-2.59-.79-5.55.91-7.52,2.12-2.48,8.16-1.25,11,.37,13.41,7.67,17.44,23.26,22.49,37.87q5.71,16.56,11.44,33.11c2.86,8.3,10.75,16.92,9.38,26.26a10.15,10.15,0,0,1-1.07,4.65c-2.08,3.75-7,4.52-11.31,4.85-4.47.35-9,.66-13.38-.51-4.13-1.1-7.81-3.49-11.26-6C433.87,448.43,422.49,421.55,427.29,397.32Z"/><path class="cls-30" d="M379.7,493.09a2.28,2.28,0,1,0,2.27,2.29A2.28,2.28,0,0,0,379.7,493.09Z"/><path class="cls-30" d="M379.57,519.41a2.28,2.28,0,1,0,2.27,2.29A2.29,2.29,0,0,0,379.57,519.41Z"/><path class="cls-32" d="M379.8,355.53a37.91,37.91,0,0,1-5,6.36c-.7.69-1.66,1.91-2.62,2.22-2.13.7-3.84-1.29-5.16-2.49-3.94-3.59-8.17-7-10.7-11.78-.26-.49-1-.06-.74.42a33.29,33.29,0,0,0,7.05,8.55c1.94,1.81,4.82,5.59,7.47,6.34,4.2,1.18,8.61-6.42,10.43-9.19.3-.46-.44-.88-.74-.43Z"/><path class="cls-32" d="M408.81,348.74a45.21,45.21,0,0,0-5.1,6.37,86.52,86.52,0,0,1-7.13,9c-5.54,6.53-10.63-4-13.05-8.45-.26-.48-1-.05-.74.43,1.7,3.11,6,12.11,10.44,11.8,2.75-.19,5.4-4.69,7.1-6.44,3.52-3.62,5.56-8.41,9.07-12.14.38-.39-.22-1-.59-.6Z"/><path class="cls-32" d="M376,374.58c-2.2,33.06-2.14,66.28-2.77,99.4l-.94,49.66c-.07,3.52-.22,7-.29,10.55,0,1.69-.15,3.75.88,5.23,2.23,3.23,7.35,2.71,10.58,1.83a.43.43,0,0,0-.23-.82c-1.88.52-5.41,1.3-7.19.17-1.95-1.24-3.24-4.9-3.15-7.08.12-3.29.18-6.59.24-9.88l.4-20.86.81-42.71c.54-28.49.62-57,2.51-85.49,0-.54-.82-.54-.85,0Z"/><path class="cls-32" d="M460.06,443.38h.19a.42.42,0,0,0,.4-.31l.05-.23a.42.42,0,0,0-.29-.52c-3.36-.53-7.44.53-11,.33-4.66-.26-9.21-.7-13.88-.13-.53.06-.54.91,0,.85a69,69,0,0,1,13,.07c2,.13,4.05.26,6.08.2a33,33,0,0,0,3.43-.27,4,4,0,0,0,2-.85c-.55,0-.54.83,0,.85Z"/><path class="cls-32" d="M457.09,445.69a22.53,22.53,0,0,0-3.76-.42l-3.65,0-6.79-.08a.43.43,0,0,0,0,.85l9.4.12c1.27,0,4,.68,5-.32a.43.43,0,0,0,0-.6l-.17-.14a.44.44,0,0,0-.67.09l-.1.12c-.33.44.41.86.74.43Z"/><path class="cls-32" d="M432,468.06q-12.87-1.4-25.8-2.09c-.55,0-.55.82,0,.85q12.93.69,25.8,2.09c.55.06.54-.79,0-.85Z"/><path class="cls-32" d="M422.25,471.09a67.85,67.85,0,0,0-15.6.55c-.54.08-.31.9.23.82a67,67,0,0,1,15.37-.52c.54,0,.54-.8,0-.85Z"/><path class="cls-32" d="M417.46,413.72a.36.36,0,0,0-.35,0l-.17.09c-.49.24-.06,1,.42.73s.91-.6.74-1.15A.71.71,0,0,0,417,413c-.45.31,0,1.05.42.73Z"/><path class="cls-32" d="M418.08,424.86a6.14,6.14,0,0,1-.18,2.52.43.43,0,0,0,.82.23,6.82,6.82,0,0,0,.17-3c-.08-.53-.89-.31-.81.23Z"/><path class="cls-32" d="M418.08,420.63a6.12,6.12,0,0,1-.18,2.52.43.43,0,0,0,.82.23,6.78,6.78,0,0,0,.17-3c-.08-.54-.89-.31-.81.22Z"/><path class="cls-32" d="M417.74,415.46a5.8,5.8,0,0,1-.18,2.52.43.43,0,0,0,.82.23,6.94,6.94,0,0,0,.18-3c-.08-.54-.9-.31-.82.22Z"/><path class="cls-32" d="M417.62,431.39a1.18,1.18,0,0,1-.26,1.21c-.37.4.22,1,.6.6a2,2,0,0,0,.47-2c-.16-.52-1-.3-.81.23Z"/><path class="cls-32" d="M415.68,435.17a8,8,0,0,1-2.29,2.32c-.45.3,0,1,.43.73a9,9,0,0,0,2.59-2.62c.3-.46-.43-.88-.73-.43Z"/><path class="cls-32" d="M409.87,439.72l-2.21,1.33a.42.42,0,0,0,.42.73l2.21-1.33a.42.42,0,0,0-.42-.73Z"/><path class="cls-32" d="M403.39,443.47l-1.09.29a.42.42,0,0,0,.22.81l1.09-.29a.42.42,0,0,0-.22-.81Z"/><path class="cls-32" d="M399.06,442.13l-2.46-1.07c-.5-.22-.93.51-.43.73l2.47,1.07c.49.21.92-.52.42-.73Z"/><path class="cls-32" d="M394.14,439.13l-1.91-1.36c-.45-.31-.87.42-.43.74l1.91,1.36c.45.31.87-.42.43-.74Z"/><path class="cls-32" d="M391.12,435.67l-.9-1.59a.42.42,0,0,0-.73.43l.9,1.59a.42.42,0,0,0,.73-.43Z"/><path class="cls-32" d="M389.41,430.37l-.29-1.64c-.1-.53-.91-.31-.82.23l.29,1.63c.1.54.92.31.82-.22Z"/><path class="cls-32" d="M388.91,425.44l-.28-1.36c-.11-.53-.93-.31-.82.23l.28,1.36c.11.53.93.31.82-.23Z"/><path class="cls-32" d="M388.37,422l-.28-1.36c-.11-.53-.93-.31-.82.23l.28,1.36c.11.53.93.31.82-.23Z"/><path class="cls-32" d="M387.9,419.14l-.28-1.37c-.11-.53-.93-.31-.82.23l.28,1.36c.11.54.93.31.82-.22Z"/><path class="cls-32" d="M387.58,416.75c-.14-.62-.13-1.27-.27-1.89s-.94-.31-.82.22.13,1.28.27,1.9.94.31.82-.23Z"/><path class="cls-32" d="M386.9,413.09c12.69-3,16.93-2.6,25.52-2.2l5.29.24s.66,1.44-2,1.74a201.9,201.9,0,0,1-21.14,1.56C387,414.38,386,414.42,386.9,413.09Z"/><path class="cls-32" d="M437.16,530.59c-11.92,1.52-21.49,10.9-33.74,10.65a.43.43,0,0,0,0,.85c12.3.25,21.81-9.13,33.74-10.65.54-.07.54-.92,0-.85Z"/><path class="cls-32" d="M412.72,535.71a21.18,21.18,0,0,1-6.46,1.95c-.54.07-.31.89.23.81a21.34,21.34,0,0,0,6.66-2c.49-.23.06-1-.43-.73Z"/><path class="cls-32" d="M349.43,539c-7.68-.87-16.52-3.13-24.2-2.25-.54.06-.54.91,0,.85,7.68-.88,16.53,1.37,24.2,2.25.53.06.53-.78,0-.85Z"/><path class="cls-32" d="M336.73,535c.45-1-.43-1.59-1.39-1.78a66.67,66.67,0,0,0-8-.6c-.55,0-.55.81,0,.85l3.94.29c.5,0,4.92.35,4.72.81s.52.93.73.43Z"/><path class="cls-33" d="M333.72,571.35a75.52,75.52,0,0,0,24.33-.16c.76-.13.44-1.29-.32-1.16a73.56,73.56,0,0,1-23.69.16c-.76-.12-1.09,1-.32,1.16Z"/><path class="cls-33" d="M335.39,574.54a59.39,59.39,0,0,1,11.79,6.62c.63.46,1.24-.59.61-1a61.38,61.38,0,0,0-12.08-6.75c-.72-.3-1,.87-.32,1.17Z"/><path class="cls-33" d="M415.71,614.81a350.57,350.57,0,0,0-3.21,51.5.6.6,0,0,0,1.2,0,350.35,350.35,0,0,1,3.17-51.18c.11-.76-1.06-1.09-1.16-.32Z"/><path class="cls-33" d="M406.55,653.2a66.26,66.26,0,0,1-.64,11.86c-.11.76,1,1.08,1.16.32a67.08,67.08,0,0,0,.68-12.18c0-.77-1.23-.78-1.2,0Z"/><path class="cls-33" d="M305.05,643.5a391.79,391.79,0,0,1,11.18,56.07c.09.76,1.3.77,1.21,0a393.87,393.87,0,0,0-11.23-56.4.6.6,0,0,0-1.16.33Z"/><path class="cls-33" d="M317.47,668.11l2.72,18c.11.77,1.27.44,1.16-.32l-2.72-18c-.12-.77-1.28-.44-1.16.32Z"/><path class="cls-3" d="M353.15,299.45a9.71,9.71,0,0,0,2.68-.29c.3-.07.17-.53-.13-.46a9.15,9.15,0,0,1-2.55.27c-.31,0-.31.47,0,.48Z"/><path class="cls-3" d="M354.34,300.62l.41-.2c.27-.13,0-.55-.25-.41l-.4.2c-.27.14,0,.55.24.41Z"/><path class="cls-3" d="M393.42,295l1.9.12a2.27,2.27,0,0,0,1.24-.14c.27-.15,0-.56-.24-.42a2.85,2.85,0,0,1-1.45.05l-1.45-.08c-.31,0-.31.46,0,.47Z"/><path class="cls-3" d="M394.43,296.09l1.14.14c.3,0,.3-.44,0-.48l-1.14-.13c-.31,0-.31.44,0,.47Z"/><path class="cls-22" d="M363.41,293.7h-.1a1.82,1.82,0,1,0,0,3.64h.1a1.83,1.83,0,0,0,1.81-1.82,1.85,1.85,0,0,0-1.81-1.82Z"/><path class="cls-22" d="M386.89,292.89l-.21.21a1.82,1.82,0,0,0,2.57,2.57l.21-.21a1.84,1.84,0,0,0,0-2.57,1.86,1.86,0,0,0-2.57,0Z"/><path class="cls-32" d="M384.66,418.91c.75,4.29,2.16,8.08,2.45,12.48.18,2.85,1.55,4.79,3.35,6.91.36.42,1-.18.6-.6-1.85-2.18-3-4-3.13-6.9a34.17,34.17,0,0,0-.21-3.64c-.46-2.89-1.74-5.59-2.25-8.48-.09-.53-.91-.31-.81.23Z"/><path class="cls-32" d="M444.64,366.44c-5.46.69-10.33,8.62-13.35,12.79a77.88,77.88,0,0,0-10.65,20.91c-.17.51.65.74.82.22A78.21,78.21,0,0,1,429.73,383a74.19,74.19,0,0,1,5.71-7.71c2.11-2.49,5.84-7.57,9.2-8,.54-.07.54-.92,0-.85Z"/><path class="cls-32" d="M420.37,403.5l-.54,1.07c-.24.49.49.92.73.43l.54-1.07c.25-.49-.49-.92-.73-.43Z"/><path class="cls-32" d="M443.52,373.61,442.18,375a.42.42,0,0,0,.6.6l1.34-1.34a.42.42,0,0,0-.6-.6Z"/><path class="cls-32" d="M423.82,430.13c6.52-2.28,14.26,1.46,20.5,3.51s12.24,4.2,18.29,6.48c.52.19.74-.63.23-.82-7.27-2.73-14.59-5.31-22-7.67-5.57-1.79-11.44-4.35-17.26-2.32-.51.18-.29,1,.23.82Z"/><path class="cls-32" d="M445.31,430.76a35.85,35.85,0,0,1,13.48,6.86c.42.34,1-.26.6-.6a37,37,0,0,0-13.86-7.08.42.42,0,0,0-.22.82Z"/><path class="cls-32" d="M448,428.82a32.67,32.67,0,0,1,7.41,2.37c.49.23.93-.5.43-.73a33.41,33.41,0,0,0-7.62-2.46c-.53-.1-.76.72-.22.82Z"/><path class="cls-32" d="M319.81,383.57q.4,14.13,1.77,28.19c.05.54.9.54.85,0q-1.37-14.07-1.77-28.19a.43.43,0,0,0-.85,0Z"/><path class="cls-34" d="M418.54,440.84a3.24,3.24,0,0,0-3.33-3h-68.6a3.23,3.23,0,0,0-3.32,3c-.27,8.22,2.28,30.46,37.62,31.44C416.26,471.3,418.81,449.06,418.54,440.84Z"/><ellipse class="cls-34" cx="380.85" cy="437.82" rx="37.57" ry="23.84"/><ellipse class="cls-24" cx="382.08" cy="325.05" rx="5.64" ry="5.24"/><path class="cls-35" d="M371.89,381.1a1.83,1.83,0,0,1,2.67-2.3l44.25,29.29a1.82,1.82,0,1,1-2,3l-44.25-29.28A1.87,1.87,0,0,1,371.89,381.1Z"/><path class="cls-36" d="M411.23,436.6c0-10.16-13.87-18.4-31-18.4s-31,8.24-31,18.4,13.87,18.39,31,18.39S411.23,446.76,411.23,436.6Z"/><path class="cls-34" d="M380.64,428.29l-3.66,0s.32-84.78.32-94.52,2.46-11.8,3.92-12.2A1.83,1.83,0,0,1,382.5,325c-.23.25-1.54,2-1.54,8.79C381,343.49,380.64,428.29,380.64,428.29Z"/><path class="cls-34" d="M384.43,430.11a1.83,1.83,0,0,1-1.83-1.78l-2.73-103a1.83,1.83,0,0,1,1.79-1.87,1.81,1.81,0,0,1,1.87,1.78l2.73,103a1.84,1.84,0,0,1-1.78,1.88Z"/><path class="cls-34" d="M390,431a1.83,1.83,0,0,1-1.83-1.7l-6.93-105.17a1.83,1.83,0,0,1,1.7-1.95,1.85,1.85,0,0,1,1.95,1.71l6.93,105.16a1.83,1.83,0,0,1-1.7,1.95Z"/><path class="cls-37" d="M354.28,462.06a60.24,60.24,0,0,0,26.77-.72c12.48-3,9.9,4.7-5.76,6.83,0,0,18-.6,26.06-4.18s10.62,6.09-5.41,15.34c-12.11,7-24,1.7-36.44,1.15a148.17,148.17,0,0,1-15.72-1.61c-5.9-.9-12-.48-17.84-1.69-6.08-1.26-11.76-4-17.14-7-6.14-3.42-12.4-7.78-16.7-13.39-1.6-2.09-3.63-4.84-4.13-7.5-1-5,3.92-8.82,8.35-9.64,5.45-1,10.14,1.86,15,3.72,2.44.93,4.71,1.06,7.22,1.52,3.28.59,6.28,2.53,9.05,4.27,4.31,2.71,8.67,5.5,13.16,7.92A51.1,51.1,0,0,0,354.28,462.06Z"/><path class="cls-34" d="M402.39,437c-.49-3.39-9-4.95-13-4.36s-6.88,3.82-6.38,7.2,4.16,5.66,8.18,5.07S402.89,440.34,402.39,437Z"/><path class="cls-36" d="M395.39,438.19c0-1.6-1.89-2.9-4.23-2.9s-4.24,1.3-4.24,2.9,1.9,2.89,4.24,2.89S395.39,439.79,395.39,438.19Z"/><path class="cls-38" d="M356.17,434.05s-3.05,2.18,1.42,4,8.94,1.49,9.35.58S358,433.27,356.17,434.05Z"/><path class="cls-38" d="M364.82,428.12s6.58-4.33,10.67-2.54S363.41,431.07,364.82,428.12Z"/><path class="cls-38" d="M373.28,449.37s-.19-1.67,3.15-2.51,8.37-.67,8,.41S371.68,451.32,373.28,449.37Z"/><path class="cls-38" d="M393.59,426.36s1.05-1.31,4,.45,6.4,5.43,5.4,6S391.08,426.61,393.59,426.36Z"/><path class="cls-39" d="M455.9,466.53a95.94,95.94,0,0,1-12.27-8.74c-11.51-10.42-22.56-21.31-30.51-34.24-1.65-2.67-3-5.95-1.51-9.8,2-5,8.44-7.19,13.76-9.2a16.16,16.16,0,0,1,5.88-1.42,7,7,0,0,1,3.95,1.76c7.79,5.86,15,12.59,24.48,16.76,9,4,16.5,11.05,22.3,17.75,3.75,4.33,10.92,16.6,0,25.52C469.9,474.73,462.22,470.32,455.9,466.53Z"/><path class="cls-37" d="M429.6,423.14c-6.19,1.82-9.09-.13-17.5-2.71s-11.38-3.34-9.64-7.79,8.86-17,13-15.33,12.08,7.72,17.48,12.07S433.88,421.88,429.6,423.14Z"/><path class="cls-37" d="M406.46,419c-2-1.41-9.09-7.09-11-10.6s-4.07-7-2.44-8.11c1.08-.76,3,1.69,6.28,5.75s8.83,6.61,9,8.89S407.32,419.64,406.46,419Z"/><path class="cls-37" d="M406.69,407.13a133,133,0,0,1-13.43-9.62c-3.05-2.61-6.18-4.28-4.12-6.07,1-.88,4.65,1.43,9.09,4.24s9.78,4.69,12.33,7.57C412,404.91,407.56,407.65,406.69,407.13Z"/><path class="cls-37" d="M406.69,411.86c-3.17-1.88-9.44-6-12.22-8.86s-5.23-5.11-3.17-6.91c1-.88,3.91,2,8.14,5.08s10.5,5.39,11.31,7.53S407.57,412.38,406.69,411.86Z"/><path class="cls-37" d="M410.62,402.72s-5.46-3.71-8.91-6.11-8.95-5.45-9.73-6.06.11-2.69,3.39-2,7.38,3,10.83,4.57,8.22,3.72,9.74,5.31S414.26,404.84,410.62,402.72Z"/><path class="cls-37" d="M434.81,412.91c.26-3.59-4.92-9.54-8-12.38s-7-6-9.59-8.46-4.09-4.86-5.46-3.57-.5,5.4,1.69,7.45,4.48,4.19,5.74,8.82S433.88,425.73,434.81,412.91Z"/><path class="cls-35" d="M374.38,377.4a1.79,1.79,0,0,1,0-1.55,1.82,1.82,0,0,1,2.43-.88l45.43,21.54a1.84,1.84,0,0,1,.87,2.44,1.82,1.82,0,0,1-2.44.87l-45.43-21.53A1.83,1.83,0,0,1,374.38,377.4Z"/><path class="cls-28" d="M285.36,436.73c-2.68,19.5,18.52,34,33.42,40.27,6.89,2.91,14.47,3.15,21.8,3.95,4.81.52,10.94,3.87,13.74-2.23a35.78,35.78,0,0,0,2.93-11.67c.36-4.77-3.72-7.09-7.26-9.09-4.68-2.63-9.49-5-14.31-7.35-3.49-1.7-6.48-4.05-9.86-5.93-2.35-1.32-4.84-2.36-7.19-3.67a66.36,66.36,0,0,0-8-4.34c-4.59-1.8-10.45-2.08-15.33-1.7C291.4,435.27,288.08,437.36,285.36,436.73Z"/><path class="cls-40" d="M612.85,586.56c.43.58,5.1,111.08,4.55,113.25s-10,5.6-11.41.4c-.56-2.14-23.23-73-21.73-109.13C584.53,584.57,597.13,565.08,612.85,586.56Z"/><path class="cls-40" d="M606.08,701s2.73,18.52-.16,25.28-5.57,16.29-3.21,20.16,11.73,3.58,16.85-1.54,7.49-8.32,6.79-12.1a140,140,0,0,0-4-14.83,95.23,95.23,0,0,1-4.65-18.64C615.84,692.71,606.68,693.65,606.08,701Z"/><path class="cls-41" d="M588.38,759.64a6.82,6.82,0,0,0,.88.26,29.6,29.6,0,0,0,7.67.86,11.56,11.56,0,0,0,3.05-.27,1.82,1.82,0,0,1,.57,0l3.21-.88a2.93,2.93,0,0,1,.56-.33,14,14,0,0,0,4.94-2.84c2-1.79,4-3.66,6-5.52,1.49-1.4,3-2.84,4.42-4.28.53-.53,1-1.1,1.5-1.67,2.54-3,5-6,7.24-9.23a4.17,4.17,0,0,1,.3-.4c1.55-1.75,3.07-3.51,4.66-5.21a5.29,5.29,0,0,0,1.29-2.12c-.19-.31-.43-.68-.63-1.06-.42-.78-.81-1.58-1.21-2.37a13.23,13.23,0,0,0-2.45-3.44q-3.09-3-6.17-6.07a7.3,7.3,0,0,0-1.12-.87,1,1,0,0,0-1.58.31,9.06,9.06,0,0,0-.61,1,3.77,3.77,0,0,1-3,1.86,9,9,0,0,1-5.3-1.06,26,26,0,0,1-2.73-1.72,14.54,14.54,0,0,0-5.44-2,1.51,1.51,0,0,0-1.72.9,13.19,13.19,0,0,0-.86,2.06,49.51,49.51,0,0,0-1.55,6.47,20.23,20.23,0,0,1-1.6,4.9c-.68,1.66-1.37,3.33-2.05,5-.49,1.24-1,2.47-1.43,3.73a14.26,14.26,0,0,0-.64,2.41,46.39,46.39,0,0,1-2.2,7.76c-.34,1-.66,1.95-1.08,2.88a15.24,15.24,0,0,1-1.35,2.48,10.56,10.56,0,0,0-1.82,4.86,24,24,0,0,1-.42,2.37A1,1,0,0,0,588.38,759.64Z"/><path class="cls-42" d="M599,765.47c.45-.2.9-.39,1.34-.61,1-.46,1.93-1,2.91-1.41,1.17-.56,2.37-1.07,3.52-1.65a12.59,12.59,0,0,0,2-1.23,22.68,22.68,0,0,1,4.45-2.57,14.79,14.79,0,0,0,5.11-4,7.28,7.28,0,0,0,1.54-3.2,16.73,16.73,0,0,0,.39-3.87,3.09,3.09,0,0,0-1.51-2.53,6.18,6.18,0,0,0-4.23-1.2,4.44,4.44,0,0,0-3.12,1.2c-.07.08-.18.14-.23.23-.9,1.7-2.35,3.12-2.58,5.16a3.52,3.52,0,0,1-.87,1.86c-.66.78-1.23,1.64-1.85,2.45a6.46,6.46,0,0,1-3.07,2,14.23,14.23,0,0,1-4.47.9A13.82,13.82,0,0,1,596,757a21.48,21.48,0,0,0-5.72,0c-.68.08-1.38.1-2.06.16-2.11.2-2.79,1.51-2.62,3.06a6.52,6.52,0,0,0,2.65,4.72,7.8,7.8,0,0,0,4.63,1.38,14.2,14.2,0,0,0,3.56-.23c.06,0,.15,0,.23.07Z"/><path class="cls-42" d="M636.39,726.64a4.17,4.17,0,0,0-2.06-2.53,2,2,0,0,0-2.52.25,5.78,5.78,0,0,0-2.26,3.56,2.13,2.13,0,0,1-1.06,1.52c-.94.59-1.86,1.21-2.8,1.8a9,9,0,0,0-2.63,2.63,4.61,4.61,0,0,0-.59,1.45c-.17.64-.21,1.31-.35,2-.19.81-.39,1.62-.65,2.4s-.65,1.77-1,2.65a4.63,4.63,0,0,0-.22.89.88.88,0,0,0,.66,1,2.57,2.57,0,0,0,.91.12,7.43,7.43,0,0,0,2.57-.47,17,17,0,0,1,3-.86,7.9,7.9,0,0,0,4.84-3.26,32.56,32.56,0,0,1,2.12-2.55,5.56,5.56,0,0,0,1.43-3.89,10.84,10.84,0,0,1,.53-3.1A6.49,6.49,0,0,0,636.39,726.64Z"/><path class="cls-42" d="M590.53,714.29a5.62,5.62,0,0,1-2.39-.65,1.66,1.66,0,0,1-.26-2.79,5.06,5.06,0,0,1,2.82-1.12,16.45,16.45,0,0,1,4.95.15,21.88,21.88,0,0,1,7.75,2.84,4.35,4.35,0,0,1,.66.59,3.62,3.62,0,0,1-1.69,2.66c-.67.51-1.32,1-2,1.5-.83.6-1.64,1.23-2.52,1.75a30,30,0,0,1-3.26,1.63,10.09,10.09,0,0,1-3.74.65,5.19,5.19,0,0,1-1.31-.1,1.83,1.83,0,0,1-1.12-2.93,6.47,6.47,0,0,1,2.63-2.34c1.15-.53,2.32-1,3.51-1.53C593.18,714.5,591.85,714.45,590.53,714.29Zm0,5.87a10.85,10.85,0,0,0,4-.76,21.85,21.85,0,0,0,5.67-3.56c.46-.39,1-.69,1.64-1.15-.53,0-.9,0-1.25.1-.9.16-1.79.35-2.69.52l-2.19.44a18.12,18.12,0,0,0-3.72,1.4,5,5,0,0,0-2.59,2.5A1.24,1.24,0,0,0,590.49,720.16Zm.41-7.17a50.64,50.64,0,0,0,9.92,0,3.88,3.88,0,0,0-.6-.39,19.55,19.55,0,0,0-7.35-1.58,8.46,8.46,0,0,0-3.12.36c-.46.17-.93.34-1.11.89A3.54,3.54,0,0,0,590.9,713Z"/><path class="cls-42" d="M600.25,719.44a8.82,8.82,0,0,1,5.76.48c1.37.51,2.69,1.15,4,1.73l.29.09a.83.83,0,0,0,.6-1,4.77,4.77,0,0,0-1.64-1,18.15,18.15,0,0,0-6.77-1.8,3.94,3.94,0,0,0-2.49.53C600.1,718.76,600.16,719.06,600.25,719.44Z"/><path class="cls-42" d="M597.19,727.47c-.17.72.08,1.06.76.94a8.46,8.46,0,0,1,3.21.19,18.42,18.42,0,0,1,4.82,1.74c.41.21.77.31,1.14,0,.1-.68,0-1.07-.67-1.32a22.14,22.14,0,0,0-5.94-1.79C598.58,727,598.39,727,597.19,727.47Z"/><path class="cls-42" d="M605.45,733.61a2.21,2.21,0,0,0-1.38-1.07,22,22,0,0,0-8-1.33.67.67,0,0,0-.34.81c.12.36.44.38.75.41,1.18.12,2.37.18,3.54.36a13.75,13.75,0,0,1,4.41,1.39C604.93,734.46,605.13,734.33,605.45,733.61Z"/><path class="cls-42" d="M607.64,726.18c.49-.69.51-1,.09-1.51a2.43,2.43,0,0,0-.81-.57,18.94,18.94,0,0,0-7-1.62,1,1,0,0,0-1,.35l.21.76c1,.14,2,.23,2.91.4a12.47,12.47,0,0,1,4.16,1.35c.26.14.48.37.73.53A4,4,0,0,0,607.64,726.18Z"/><path class="cls-42" d="M594.72,736.62a13.43,13.43,0,0,1,4.42.25c1.37.32,2.71.73,4.09,1.1.6-.55.56-1.09-.19-1.43a9.79,9.79,0,0,0-1.51-.47,22.83,22.83,0,0,0-5.58-.78,2.24,2.24,0,0,0-1.4.43C594.6,736,594.65,736.26,594.72,736.62Z"/><path class="cls-42" d="M601.71,741.86c.16-.72,0-1-.56-1.18a20.41,20.41,0,0,0-5.65-.86c-.53,0-1.06,0-1.58,0s-.81.14-.89.67c.15.52.54.6,1,.6a19.81,19.81,0,0,1,4.8.35c.59.14,1.18.32,1.77.48S601.09,742.05,601.71,741.86Z"/><path class="cls-43" d="M627,721a6.75,6.75,0,0,0-3.59,3.2c-.83,1.75-1.56,3.54-2.35,5.31a23,23,0,0,1-1.24,2.71,9.4,9.4,0,0,1-3.23,2.81c-1,.65-2.11,1.22-3.13,1.89a5.75,5.75,0,0,0-2.24,2.6,8.81,8.81,0,0,1-4.23,4.41,32.55,32.55,0,0,0-3.13,2l-1.13.3a1.93,1.93,0,0,1-1.53-1.93,9.25,9.25,0,0,1,1.2-5.44c.8-1.3,1.6-2.6,2.5-3.82a8.56,8.56,0,0,0,1.61-4.13,12.72,12.72,0,0,1,2.23-5.84,8.33,8.33,0,0,0,1.8-4.83c0-1.22.16-2.43.23-3.64a7.39,7.39,0,0,0,0-1.49c.44.31.88.61,1.34.88,0,.15,0,.31,0,.46-.12,1.44-.21,2.88-.29,4.31a8.37,8.37,0,0,1-1.63,4.48,12.37,12.37,0,0,0-2.41,6,8.19,8.19,0,0,1-.8,2.69c-.59,1.15-1.38,2.2-2.08,3.3a25.83,25.83,0,0,0-1.5,2.39,9.12,9.12,0,0,0-.89,4.77,1.23,1.23,0,0,0,.13.38,1.91,1.91,0,0,0,1.2-.38c1.2-.74,2.4-1.48,3.62-2.21a5.34,5.34,0,0,0,1.82-1.78c.39-.64.78-1.29,1.11-2a6.64,6.64,0,0,1,2.06-2.37c.69-.5,1.44-.92,2.17-1.38,1.07-.69,2.17-1.34,3.19-2.09a4.33,4.33,0,0,0,1.17-1.38,22.5,22.5,0,0,0,1.11-2.51,34.38,34.38,0,0,1,2.62-5.64,7.59,7.59,0,0,1,4.63-3.42,13.27,13.27,0,0,1,1.4-.26l1.08,1.06c-.68.13-1.37.23-2.05.35A2.89,2.89,0,0,0,627,721Z"/><path class="cls-40" d="M682,605.64c.31.7.85,116.28-.2,118.42s-11.66,3.59-11.93-2.12c-.11-2.34-8-80.88,1.59-118.13C673.16,597.12,670.4,579.85,682,605.64Z"/><path class="cls-40" d="M669.77,722.79S668.51,742.62,664,749s-9.4,15.69-7.8,20.22,11.39,6.31,17.83,2.13,9.63-7,9.73-11.05a151.14,151.14,0,0,0-.88-16.3,99.81,99.81,0,0,1-.71-20.38C681.74,716.34,672,715.28,669.77,722.79Z"/><path class="cls-41" d="M638.41,779.76a5.36,5.36,0,0,0,.85.46,31,31,0,0,0,7.78,2.6,12.06,12.06,0,0,0,3.23.39,2,2,0,0,1,.58.13l3.53-.2a4.15,4.15,0,0,1,.65-.22,14.65,14.65,0,0,0,5.77-1.85c2.52-1.4,5-2.91,7.45-4.4,1.87-1.13,3.71-2.3,5.54-3.47.67-.43,1.31-.91,1.93-1.4,3.3-2.54,6.52-5.15,9.56-8,.13-.12.26-.24.4-.35,2-1.46,4-3,6-4.38a5.58,5.58,0,0,0,1.8-1.9c-.12-.37-.29-.8-.42-1.25-.26-.9-.49-1.82-.73-2.73a14,14,0,0,0-1.78-4.11q-2.53-3.84-5.06-7.67a7.67,7.67,0,0,0-1-1.15,1.08,1.08,0,0,0-1.71,0,8.94,8.94,0,0,0-.85.89,4,4,0,0,1-3.51,1.28,9.66,9.66,0,0,1-5.27-2.27,27.83,27.83,0,0,1-2.46-2.4,15.18,15.18,0,0,0-5.21-3.24,1.59,1.59,0,0,0-2,.54,13.65,13.65,0,0,0-1.35,2,51.08,51.08,0,0,0-3,6.38,21.25,21.25,0,0,1-2.75,4.72q-1.62,2.37-3.23,4.75c-.79,1.17-1.58,2.34-2.32,3.55a14.91,14.91,0,0,0-1.19,2.36,48.9,48.9,0,0,1-4,7.57c-.56.93-1.11,1.88-1.75,2.76a17.56,17.56,0,0,1-1.95,2.27,11.19,11.19,0,0,0-3,4.65c-.27.8-.62,1.58-1,2.36A1.08,1.08,0,0,0,638.41,779.76Z"/><path class="cls-42" d="M648.1,788.15l1.53-.33c1.11-.27,2.22-.56,3.33-.82,1.34-.32,2.7-.59,4-.94a12.87,12.87,0,0,0,2.32-.84,23.84,23.84,0,0,1,5.19-1.68,15.73,15.73,0,0,0,6.2-3,7.83,7.83,0,0,0,2.31-3,18.1,18.1,0,0,0,1.26-3.94,3.31,3.31,0,0,0-1-3,6.61,6.61,0,0,0-4.13-2.19,4.76,4.76,0,0,0-3.5.56c-.09.07-.22.11-.29.2-1.32,1.56-3.13,2.71-3.82,4.78a3.8,3.8,0,0,1-1.32,1.74c-.86.66-1.63,1.43-2.46,2.13a6.83,6.83,0,0,1-3.65,1.45,15.05,15.05,0,0,1-4.83,0,13.9,13.9,0,0,1-2.31-.56,22.71,22.71,0,0,0-5.93-1.3c-.73-.06-1.45-.2-2.18-.28-2.22-.27-3.22.95-3.39,2.59a6.89,6.89,0,0,0,1.71,5.49,8.23,8.23,0,0,0,4.5,2.46,15.22,15.22,0,0,0,3.74.54c.08,0,.15.08.23.13Z"/><path class="cls-42" d="M695.57,756.12A4.51,4.51,0,0,0,694,753a2.1,2.1,0,0,0-2.68-.3,6.1,6.1,0,0,0-3.14,3.2,2.24,2.24,0,0,1-1.43,1.34c-1.11.4-2.2.84-3.3,1.25a9.62,9.62,0,0,0-3.32,2.14,5,5,0,0,0-.93,1.38c-.32.63-.51,1.32-.8,2-.37.8-.76,1.59-1.2,2.35s-1.07,1.69-1.6,2.54a4.65,4.65,0,0,0-.42.87.94.94,0,0,0,.46,1.2,2.75,2.75,0,0,0,.91.32,7.85,7.85,0,0,0,2.78.08,18.68,18.68,0,0,1,3.35-.22,8.44,8.44,0,0,0,5.75-2.31,32.22,32.22,0,0,1,2.76-2.18,5.92,5.92,0,0,0,2.35-3.72,11.41,11.41,0,0,1,1.23-3.1A7,7,0,0,0,695.57,756.12Z"/><path class="cls-42" d="M650.68,733.14a5.87,5.87,0,0,1-2.34-1.2,1.76,1.76,0,0,1,.35-3,5.37,5.37,0,0,1,3.17-.54A17.71,17.71,0,0,1,657,729.7a23,23,0,0,1,7.42,4.67,4.11,4.11,0,0,1,.56.76,3.84,3.84,0,0,1-2.36,2.38c-.79.38-1.59.76-2.39,1.12-1,.43-2,.91-3,1.25a30.72,30.72,0,0,1-3.74,1,10.94,10.94,0,0,1-4-.15,5.68,5.68,0,0,1-1.35-.4,1.94,1.94,0,0,1-.51-3.29,6.84,6.84,0,0,1,3.25-1.85c1.31-.3,2.64-.54,4-.82C653.38,733.94,652,733.6,650.68,733.14Zm-1.34,6.09a11.21,11.21,0,0,0,4.36.1,23.27,23.27,0,0,0,6.68-2.43,19.63,19.63,0,0,1,2-.83c-.57-.08-1-.17-1.33-.18-1,0-1.93,0-2.9,0l-2.38,0a18.94,18.94,0,0,0-4.17.63,5.31,5.31,0,0,0-3.25,2A1.36,1.36,0,0,0,649.34,739.23Zm2-7.36A53.67,53.67,0,0,0,661.67,734a5.71,5.71,0,0,0-.54-.55,20.84,20.84,0,0,0-7.29-3.26,9,9,0,0,0-3.31-.33,1.63,1.63,0,0,0-1.36.69A3.69,3.69,0,0,0,651.35,731.87Z"/><path class="cls-42" d="M659.63,740.65a9.23,9.23,0,0,1,5.88,1.77c1.31.83,2.53,1.79,3.8,2.68a2.79,2.79,0,0,0,.28.16.87.87,0,0,0,.83-.86A5.14,5.14,0,0,0,669,743a19.56,19.56,0,0,0-6.63-3.38,4.23,4.23,0,0,0-2.7,0C659.62,739.9,659.63,740.22,659.63,740.65Z"/><path class="cls-42" d="M654.68,748.3c-.34.71-.16,1.12.58,1.15a9.16,9.16,0,0,1,3.29.9,19.55,19.55,0,0,1,4.62,2.88c.38.31.73.49,1.19.22.25-.69.2-1.12-.41-1.52a23.18,23.18,0,0,0-5.77-3.17C656.22,748.13,656,748.11,654.68,748.3Z"/><path class="cls-42" d="M661.89,756.51a2.3,2.3,0,0,0-1.19-1.42,23.24,23.24,0,0,0-8-3.15.72.72,0,0,0-.53.76c0,.4.38.49.69.59,1.2.39,2.42.71,3.6,1.16a14.59,14.59,0,0,1,4.27,2.42C661.17,757.27,661.4,757.19,661.89,756.51Z"/><path class="cls-42" d="M665.81,749.28c.66-.61.77-1,.43-1.55a2.74,2.74,0,0,0-.71-.77,20.2,20.2,0,0,0-6.9-3.23,1.06,1.06,0,0,0-1.08.14l.05.85c1,.36,2,.67,2.94,1a13.38,13.38,0,0,1,4,2.33c.24.21.41.49.64.71A4.27,4.27,0,0,0,665.81,749.28Z"/><path class="cls-42" d="M650.09,757.26a14.22,14.22,0,0,1,4.53,1.24c1.35.63,2.66,1.35,4,2,.75-.43.83-1,.12-1.52a9.1,9.1,0,0,0-1.46-.82,23.8,23.8,0,0,0-5.62-2.05,2.38,2.38,0,0,0-1.56.14C650.1,756.56,650.09,756.86,650.09,757.26Z"/><path class="cls-42" d="M656.18,764.25c.33-.71.26-1-.31-1.35a21.37,21.37,0,0,0-5.69-2.14c-.54-.13-1.1-.21-1.64-.35a.77.77,0,0,0-1.07.49c0,.57.43.75.94.85a21,21,0,0,1,4.91,1.43c.58.28,1.15.59,1.73.89A1.4,1.4,0,0,0,656.18,764.25Z"/><path class="cls-43" d="M687,748.16a7.22,7.22,0,0,0-4.43,2.53c-1.25,1.63-2.41,3.33-3.62,5a24.84,24.84,0,0,1-1.89,2.53,10,10,0,0,1-4,2.21c-1.21.44-2.46.8-3.67,1.27a6.18,6.18,0,0,0-2.89,2.2,9.29,9.29,0,0,1-5.37,3.64,35.91,35.91,0,0,0-3.7,1.39l-1.23.07a2.06,2.06,0,0,1-1.17-2.34,9.86,9.86,0,0,1,2.45-5.39c1.12-1.17,2.24-2.34,3.44-3.42a8.91,8.91,0,0,0,2.59-3.92,13.34,13.34,0,0,1,3.61-5.57,8.9,8.9,0,0,0,2.94-4.62c.26-1.26.7-2.49,1-3.73a8.48,8.48,0,0,0,.3-1.55c.39.41.78.83,1.19,1.21a4.05,4.05,0,0,1-.12.47c-.44,1.47-.85,2.94-1.25,4.42a8.82,8.82,0,0,1-2.69,4.28,13.23,13.23,0,0,0-3.83,5.73,8.8,8.8,0,0,1-1.43,2.62c-.86,1.06-1.92,2-2.89,3-.7.71-1.46,1.38-2.09,2.15a9.87,9.87,0,0,0-2,4.76,1.64,1.64,0,0,0,.06.42,2,2,0,0,0,1.32-.12c1.42-.51,2.83-1,4.25-1.5a5.57,5.57,0,0,0,2.29-1.45c.55-.57,1.09-1.16,1.58-1.78a7.09,7.09,0,0,1,2.66-2c.83-.37,1.71-.63,2.56-1,1.27-.48,2.55-.91,3.78-1.46a4.72,4.72,0,0,0,1.52-1.18,23.65,23.65,0,0,0,1.71-2.36,37,37,0,0,1,4-5.28,8,8,0,0,1,5.57-2.52,12.52,12.52,0,0,1,1.5,0l.89,1.34c-.74,0-1.47-.06-2.2-.1A3,3,0,0,0,687,748.16Z"/><path class="cls-27" d="M657.61,729.8c14.42.76,30.74-1.86,31.89-18.64,1.55-22.77.12-81.08,1.1-109.85.1-3-.5-6.14.53-9a37.34,37.34,0,0,1,2.84-5.18c4-7.34,5.37-21.6,3.43-29.76-3-12.7-11.77-25-25.59-29.5-4.76-1.53-9.91-.7-14.83.14l-24.07,4.1c-5.25.9-14.35.61-18.34,4.29-4.93,4.55-29.65,45.82-32.4,52-6.28,14.2,1.11,38.21,4.69,55.23l4.06,19.3c2.38,11.31,5,22,6.62,33.36.47,3.4.91,6.9,2.51,9.94,3.28,6.29,10.62,9.24,17.54,10.8,7.48,1.7,13.51,3.1,20.08,6.91A43.7,43.7,0,0,0,657.61,729.8Z"/><path class="cls-20" d="M613.19,338.05c-.41,1.78-2.23,3.63-2.48,5.43-1.39,10.26.08,20,1.81,30.2a75.65,75.65,0,0,0,5.85,17.92c.5,1.07,1,2.11,1.63,3.13,3.46,6,10.23,14.14,17.29,15.78,4.36,1,9.6.56,14.06.82l26,1.53-1.66-42.63a144.19,144.19,0,0,1-20-12.41,25,25,0,0,1-5.63-5.17c-2.94-4.09-3.16-9.54-2.52-14.54s2-9.94,1.85-15-2.29-10.43-6.79-12.69a12.32,12.32,0,0,0-9.59-.29,22.21,22.21,0,0,0-8.09,5.51C618.9,321.73,615.11,329.69,613.19,338.05Z"/><path class="cls-40" d="M648.23,411h0a13.39,13.39,0,0,1-13.39-13.39v-30.7h26.78v30.7A13.39,13.39,0,0,1,648.23,411Z"/><path class="cls-44" d="M653.93,377c-4.61-1.12-2.6-.61-5.32-.44-4.61.29-9.3,1-13.52,3.11l-.22.11v11.41c2.53,3.47,6.72,4.92,10.67,5.25a8.25,8.25,0,0,0,8.87-8.63Z"/><path class="cls-40" d="M650.52,318.61c-29.53-.12-27,25.81-27,26.92.86,12.1.92,22,5.93,30.23,3.11,5.12,10.95,16.95,18.48,17.1,5,.1,16.08-7.51,19.28-12.85,7-11.75,9.69-22.73,9.44-34.17C676.37,331.49,674.88,318.71,650.52,318.61Z"/><path class="cls-20" d="M630.5,343.69c3.07.55,6.13.93,8.51,3,.9.78,3.21,3.68.59,4.14-1.18.2-6.68-3.57-9.94-4.93C628.22,345.28,628.69,343.37,630.5,343.69Z"/><path class="cls-20" d="M662.19,343.71a2.9,2.9,0,0,0-1.45-.67,12.69,12.69,0,0,0-8.71,2.33c-1,.7-3.48,3.42-.9,4.08,1.16.29,6.85-3.41,10.37-3.63C663.3,345.71,663.25,344.63,662.19,343.71Z"/><path class="cls-40" d="M676.51,351.14c-3.49-2.85-6.79,4.19-8,6.42-.73,1.4,1.29,2.68,2.07,1.38l-.73,1.21c-.84,1.4-2.42,3.32-1.47,5,1.84,3.33,7-.95,8.38-3C680,357.6,679.34,353.44,676.51,351.14Z"/><path class="cls-45" d="M673.15,361.19c-.74-1.18-2.61-.09-1.88,1.1a6.46,6.46,0,0,1,1,3.63,1.09,1.09,0,0,0,2.17,0A8.67,8.67,0,0,0,673.15,361.19Z"/><path class="cls-40" d="M692.72,416s20.81,68.65,21.43,72-8.6,12.65-17.77,7.43c-2.58-1.47-15.45-51.5-16.08-57.29S680.05,409.11,692.72,416Z"/><path class="cls-40" d="M604,413s-6.54,78.3-6.58,81.52,9.8,10.42,17.31,4.12c2.11-1.77,6-50.34,5.62-55.82S614.45,404.6,604,413Z"/><path class="cls-40" d="M634.72,398.19,604.86,413s20.32,77.73,21,82.25,30.44,21.23,52.94-1l14.54-80.93s-31-14.62-32.16-16C661.21,397.32,652,407.63,634.72,398.19Z"/><path class="cls-46" d="M677.85,438.67c.5-1,5.74-30,5.74-30l-2.77-1.31s-4.08,24.66-5.28,29.81a1.61,1.61,0,0,0-1.18-.48,1.7,1.7,0,0,0-1.48,2.48l-.07,0a1.57,1.57,0,0,0-1.61-1.44,1.72,1.72,0,0,0-1.32,2.77l-.06,0a1.57,1.57,0,0,0-1.58-1.19,1.7,1.7,0,0,0-1.55,2.34,1.56,1.56,0,0,0-1.34-.67,1.69,1.69,0,0,0-1.52,2.41,1.57,1.57,0,0,0-.9-.27,1.7,1.7,0,0,0-1.56,2.33,1.61,1.61,0,0,0-.86-.23,1.71,1.71,0,0,0-1.36,2.69,1.56,1.56,0,0,0-.84-.22,1.73,1.73,0,0,0-.86,3.18l-.05.06a1.56,1.56,0,0,0-1.29-.61,1.73,1.73,0,0,0-.92,3.14l-.07.09a1.56,1.56,0,0,0-1.32-.66,1.73,1.73,0,0,0-.83,3.21l-.06.07a1.55,1.55,0,0,0-1.31-.64,1.72,1.72,0,0,0-1.31,2.78,1.67,1.67,0,0,0-.73-.15,1.73,1.73,0,0,0-1.29,2.82,1.69,1.69,0,0,0-2.57,1.42v.05a1.55,1.55,0,0,0,1,1.5l-.49.63a1.18,1.18,0,0,0,0-.2v-.05a1.63,1.63,0,0,0-2-1.62A1.72,1.72,0,0,0,643,460a1.61,1.61,0,0,0-1,.34.71.71,0,0,1-.08-.15,1.73,1.73,0,0,0-.66-3.3,1.6,1.6,0,0,0-1,.39l-.09-.14a1.73,1.73,0,0,0-.63-3.31,1.59,1.59,0,0,0-1.14.46l0-.05a1.73,1.73,0,0,0-.61-3.31,1.55,1.55,0,0,0-1.23.53l0-.05a1.74,1.74,0,0,0-.82-3.22,1.57,1.57,0,0,0-1.14.46,1.73,1.73,0,0,0-.85-3.2,1.58,1.58,0,0,0-1.25.55l-.07-.1a1.73,1.73,0,0,0-.93-3.13,1.55,1.55,0,0,0-1.46.91,1.7,1.7,0,0,0-1.39-2.63,1.55,1.55,0,0,0-1.58,1.27l-.14-.06a1.69,1.69,0,0,0-1.5-2.44h-.05a1.57,1.57,0,0,0-1.61,1.38l-.08,0A1.51,1.51,0,0,0,623,439l-.1-.05a1.77,1.77,0,0,0-2.56,1.3l-.06,0c-.65-1.13-7.47-31.1-7.47-31.1l-2,1s7.53,29.88,7,31.71c-.32,1-3.77,10.78-3.77,11.71s4.33,13.79,4.66,14.59,23.47-.93,26.33-1.78c1.54.81,38.22,2.6,38.54,1.79s2.75-14.36,2.75-15.29S677.36,439.63,677.85,438.67Z"/><path class="cls-1" d="M714,455.15c.39,2.7.72,5.42,1,8.14a5.85,5.85,0,0,1-.39,3.45c-1,1.73-22.44,8.37-22.75,7.12,2.33,8.43,4.26,16.91,6,25.48C700,510.49,702.21,521.68,703,533a55.24,55.24,0,0,1,.17,5.61,65.39,65.39,0,0,1-.86,7.51l-1.88,12.21c-.13.85-.42,1.88-1.26,2s-1.38-.49-1.88-1.06a41.45,41.45,0,0,0-11.09-9.4,23.63,23.63,0,0,0-14-3.07c-2.79.33-5.46,1.26-8.2,1.86a46.6,46.6,0,0,1-13.39.68,32.89,32.89,0,0,1-9-1.72,55.53,55.53,0,0,0-10.46-3.18c-4.09-.68-7.85.57-11.84,1.31-2.4.45-5.4.37-6.64-1.73s0-4.38.65-6.53c1.19-3.69,1.11-7.65,1.05-11.52-.17-9.88-.17-19.77-.18-29.65q0-7.14,0-14.28c0-5.6-1.31-3.53-5.62-2.94a17.49,17.49,0,0,1-4.68-.3c-3.44-.45-10.13-.76-12.24-3.95a8.61,8.61,0,0,1-1.05-4,138.54,138.54,0,0,1,.05-25.92c.79-7.79,1.28-15.49,4.06-22.95,1.9-5.11,4.94-9.94,9.38-13.1,5.07-3.61,12.77-7.23,19.1-6.87,1.33.07,2.2,1.35,3,2.4,2.93,3.82,6.37,4.82,10.9,5.4,1.24.15,2.49.23,3.74.26s2.57-.05,3.85,0a19.08,19.08,0,0,0,4-.69c1.86-.39,3.72-.84,5.57-1.31a25.87,25.87,0,0,0,6.81-2.53c2.12-1.25,3.8-3.3,5.42-5.12,3.34-3.75,12.35-.5,16.24.84,6,2.05,11.68,5.21,15.83,10.05a44.23,44.23,0,0,1,6.89,12.13A134.31,134.31,0,0,1,714,455.15Z"/><path class="cls-47" d="M629.25,396.67c1-.12,1.12,0,1.29.72a34.35,34.35,0,0,0,2.05,6.17c.49,1.08.87,2.2,1.34,3.29s1,2.17,1.47,3.23a36.08,36.08,0,0,0,2.94,5.08c.75,1.06,1.38,2.2,2.17,3.22a35.54,35.54,0,0,0,2.57,2.78c.67.67,1.38,1.29,2.09,1.91a6.8,6.8,0,0,0,.89.56l.43-.49c.43-.46.83-.95,1.29-1.38a2.15,2.15,0,0,1,1.9-.59,14.69,14.69,0,0,1,1.62.23,3.61,3.61,0,0,1,2.37,2,13.28,13.28,0,0,0,3.14-2.4,19,19,0,0,0,3.21-3.83c.48-.83,1-1.62,1.5-2.44.94-1.63,2-3.22,2.77-4.91a57.29,57.29,0,0,0,3.43-8.45c.19-.63.27-1.3.41-2a2.6,2.6,0,0,1,0-.26c.13-.51.5-.82.9-.75a.88.88,0,0,1,.6,1.1,31.28,31.28,0,0,1-1.91,6.29c-.94,2-1.73,4.06-2.76,6a51.56,51.56,0,0,1-5.21,8.29,16.46,16.46,0,0,1-4.6,4.12,2.51,2.51,0,0,0-.74.59,1.1,1.1,0,0,0-.27.68,4.42,4.42,0,0,1-2.42,4.08,5.1,5.1,0,0,1-5.28-.91,4.18,4.18,0,0,1-.87-2.67,7.39,7.39,0,0,1,0-.74,23.26,23.26,0,0,1-2.16-1.57c-1-.9-1.94-1.87-2.87-2.84a21,21,0,0,1-1.71-1.94c-.64-.85-1.21-1.75-1.77-2.65-.7-1.13-1.41-2.25-2-3.42-.8-1.5-1.6-3-2.26-4.57q-1.4-3.33-2.59-6.73a38.44,38.44,0,0,1-1-3.86A3.64,3.64,0,0,1,629.25,396.67Zm17.76,29a2.51,2.51,0,0,0,.76,2.14,3,3,0,0,0,2.31.69,2.88,2.88,0,0,0,2.41-3.66,2.36,2.36,0,0,0-2.13-2,.94.94,0,0,1-.33-.08.9.9,0,0,0-1.21.3,1.12,1.12,0,0,1-.37.35C647.38,423.79,647.25,424.77,647,425.67Z"/><path class="cls-41" d="M631.26,395.33c.16-.56.44-.79.94-.78a4.21,4.21,0,0,1,1.18,1.85c.7,1.46,1.26,3,2,4.41a38.08,38.08,0,0,0,3.55,6.12c.46.58.77,1.29,1.23,1.87a23.53,23.53,0,0,0,5.62,5.15,5.26,5.26,0,0,0,6,0,23.74,23.74,0,0,0,3.88-3,38,38,0,0,0,4.59-5.15,30.14,30.14,0,0,0,1.74-2.69c.71-1.16,1.44-2.3,2.08-3.5.47-.89.8-1.86,1.22-2.86a1,1,0,0,1,.3-.16.73.73,0,0,1,.95.95,14.41,14.41,0,0,1-1.6,3.74c-.76,1.3-1.51,2.61-2.33,3.86a37.51,37.51,0,0,1-4.86,6.07,36.69,36.69,0,0,1-3.58,3.12,9.85,9.85,0,0,1-4.24,2,6.78,6.78,0,0,1-4.75-1,25.79,25.79,0,0,1-4.33-3.39,23.5,23.5,0,0,1-3.17-4.05,30.52,30.52,0,0,1-2.46-4.16c-1.09-2.26-2.11-4.55-3.16-6.83Z"/><path class="cls-17" d="M590.07,470.5c5.56,4.46,13.91,5.12,20.77,5a.39.39,0,0,0,0-.78c-6.58.1-14.86-.49-20.22-4.79-.39-.31-.94.23-.55.55Z"/><path class="cls-17" d="M606.54,473.23a5,5,0,0,0,4-.24c.45-.22.06-.89-.39-.67a4.23,4.23,0,0,1-3.36.16c-.47-.16-.68.59-.21.75Z"/><path class="cls-17" d="M606.11,470.43l3,.86a.39.39,0,0,0,.2-.75l-3-.86a.39.39,0,0,0-.21.75Z"/><path class="cls-17" d="M603.12,412.3c1.16-.28,3.12,5.13,3.35,5.77.68,1.84,1.19,3.73,1.7,5.62a.39.39,0,0,0,.75-.2,47.16,47.16,0,0,0-2.78-8.23c-.52-1.09-1.61-4.1-3.23-3.71a.39.39,0,0,0,.21.75Z"/><path class="cls-17" d="M689.87,466.68c1.9,2.25,3.63,1.84,6.11.56,4.32-2.22,9-3.24,13.46-5.18.46-.19.06-.86-.39-.67a89.06,89.06,0,0,1-9.13,3.08c-2.59.83-6.89,4.75-9.5,1.66-.32-.38-.87.17-.55.55Z"/><path class="cls-17" d="M679.77,418c.21-5,3.61-9.55,6.16-13.72a.39.39,0,0,0-.67-.39c-2.65,4.32-6,8.87-6.26,14.11,0,.5.75.5.77,0Z"/><path class="cls-17" d="M677.65,400.94a25.23,25.23,0,0,1-9,11c-.42.28,0,.95.39.67a25.9,25.9,0,0,0,9.33-11.32c.19-.46-.48-.85-.67-.39Z"/><path class="cls-17" d="M621.25,412a30.88,30.88,0,0,0,9.86,5.91c.47.18.67-.57.21-.75a29.9,29.9,0,0,1-9.52-5.71c-.37-.33-.92.22-.55.55Z"/><path class="cls-20" d="M653.69,340.31c5.68-1.75,11.59-4.92,14-10.21,1.77,27.55-2.69,55.06-2.45,82.61,0,1.1.17,2.44,1.19,2.87,3-4.07,6.3-7.53,8.74-12.08a134.27,134.27,0,0,0,6.1-13.71c3.24-8.1,6.5-16.31,7.51-25,1.06-9.15-.46-18.41-2.55-27.39a37.58,37.58,0,0,0-2.72-8.39,20.56,20.56,0,0,0-7.24-8.07c-1.21-.78-3-1-4-1.88-1.22-1-1.62-2.65-2.59-3.86a22.88,22.88,0,0,0-7.73-6.14A35,35,0,0,0,646,305.89c-6.75.08-13.67,1.59-19.19,5.49a36.15,36.15,0,0,0-8.44,8.87c-2.52,3.59-5,6.91-5.91,11.21a81.64,81.64,0,0,0-.84,35.48c.48,2.37,3.7,5.37,8.73,7.68,1.58.72,4,.84,4.5-.83a3.69,3.69,0,0,0-.62-2.56c-1.21-2.39-2.84-6.2-2.56-8.94a2.69,2.69,0,0,1,1.5-2.29c.54-.23,1.21,1.38,1.47.86a21.58,21.58,0,0,0-.27-3.46c-.44-4.06.28-6.39,2.38-9.09,2.44-3.13,6-4,9.75-4.46,4.37-.59,8.9-1.63,13.23-2.53C651,341.06,652.34,340.72,653.69,340.31Z"/><path class="cls-48" d="M643.36,352c.32,3.29,0,8.56-2.34,11-.67.68-2.39,1.19-2.63,2.33-.63,3.06,4.79,4.64,6.78,4.51.66,0,.67-1.07,0-1-1.54.1-4.8-.52-5.27-2.37-.31-1.23.42-1.27,1-1.94a12.62,12.62,0,0,0,2.36-3c1.18-2.61,1.42-6.65,1.15-9.45-.06-.66-1.1-.67-1,0Z"/><path class="cls-20" d="M624.22,324.34a29.66,29.66,0,0,1,27.57-8.9c1.33.26,1.9-1.78.56-2a31.76,31.76,0,0,0-29.62,9.44c-.94,1,.56,2.5,1.49,1.5Z"/><path class="cls-49" d="M682.27,350.59c.48,9.33-2.18,18.08-5,26.84-.16.51.63.73.8.22,2.89-8.84,5.56-17.66,5.08-27.06,0-.53-.85-.53-.83,0Z"/><path class="cls-49" d="M679,346.88a80.59,80.59,0,0,1-.63,12.22c-.07.52.76.52.82,0a80.59,80.59,0,0,0,.63-12.22c0-.53-.84-.53-.82,0Z"/><path class="cls-49" d="M662.82,320.46c-7.52-7.92-18.92-5.86-27.76-1.38-10.13,5.14-17.74,14.36-18.19,26,0,.38.57.38.59,0,.42-10.85,7.19-19.54,16.43-24.7,8.78-4.9,20.74-7.68,28.51.51.26.27.68-.14.42-.42Z"/><path class="cls-49" d="M631.9,316.77a34.42,34.42,0,0,1,13.93-3.47.3.3,0,0,0,0-.59,35.37,35.37,0,0,0-14.23,3.55c-.34.16,0,.67.3.51Z"/><path class="cls-49" d="M620.43,378a29.5,29.5,0,0,0,7,14.58c.25.28.66-.13.41-.42A29,29,0,0,1,621,377.83c-.06-.38-.63-.22-.56.15Z"/><path class="cls-49" d="M624.56,379.85a52.65,52.65,0,0,0,5,11.37c.2.32.71,0,.51-.3a52.26,52.26,0,0,1-5-11.22c-.11-.37-.68-.21-.57.15Z"/><path class="cls-20" d="M651.87,354.61c-.76,1.74-.45,3.55.69,4,2.35,1,3.2-2.27,4.65-3,.18-.1.75.06.94,0a.38.38,0,0,0,.14-.64,8.76,8.76,0,0,0-2.08-1.57C654.38,352.46,652.73,352.61,651.87,354.61Z"/><path class="cls-20" d="M637.33,355.31c.35,1.66-.25,3.19-1.34,3.42-2.25.48-2.39-2.56-3.53-3.51-.14-.12-.67-.08-.83-.16a.33.33,0,0,1,0-.58,7.87,7.87,0,0,1,2.11-1C635.51,353,636.92,353.4,637.33,355.31Z"/><path class="cls-40" d="M596.84,483c-.15,1-.31,2-.41,3a22.9,22.9,0,0,0,1,9.12c.67,2.1,1.71,4,2.27,6.09.84,3.16,1.8,6.29,2.84,9.38a366.31,366.31,0,0,0,14.67,36.14c1.1,2.41,10.16,4.53,8.29-5.58q-1.29-6.93-2.53-13.88-1.56-8.66-3-17.32c-1.12-6.77-2.33-13.83-5.26-20.09-1.55-3.33-3.7-6.7-3.25-10.34A62.89,62.89,0,0,0,598,478.05a1,1,0,0,0-.53.11c-.26.19-.26.55-.25.87A23.48,23.48,0,0,1,596.84,483Z"/><path class="cls-40" d="M627.67,543.13c1.93,1.23,13.21,20,14.88,23.08,1,1.9-1.49,3.34-2.29,2.75-2.41-1.77-8.87-9.1-9.61-10S624.18,540.9,627.67,543.13Z"/><path class="cls-40" d="M713,490.85s-3.76,13.67-46.44,68.12c-1.8,2.29-12.07,2.23-7.45-8.12,27.8-62.33,32-60.07,35.76-67.53S714.82,474.09,713,490.85Z"/><path class="cls-40" d="M656.08,550.58c3.91-5,14.25-1.13,9.42,11.42-1.34,3.49-12.3,17.14-13.81,19.16-1.28,1.7-4.12,1.63-6,2a46.67,46.67,0,0,0-8,2.49,15.78,15.78,0,0,1-3.81,1.26,4.37,4.37,0,0,1-3.73-1,1.36,1.36,0,0,1-.44-.8c-.05-.59.48-1.06,1-1.39,1.51-1,3.18-1.63,4.68-2.62-.5.52-1.48,0-1.59-.7a2.19,2.19,0,0,1,.9-1.85c1.65-1.46,4-1.8,6-2.72a21.48,21.48,0,0,0,4.42-3,18.36,18.36,0,0,0,3.15-3c2.29-2.93,2.62-6.94,3.85-10.34C653.15,556.59,654.13,553.1,656.08,550.58Z"/><path class="cls-17" d="M632.88,538.68a4.36,4.36,0,0,0,2.29.44c2.33,0,3.69,0,5.68,1.3a19,19,0,0,0,7.3,3.18c.49.1.69-.65.2-.75-3.26-.63-5.44-2.28-8.23-3.83-2.3-1.29-4.65,0-6.85-1-.45-.21-.84.45-.39.67Z"/><path class="cls-50" d="M642.17,577.61a13.18,13.18,0,0,1-6.85,3c-.59.08-1-.73-.73-1.28a2.59,2.59,0,0,1,1.35-1.12,58.42,58.42,0,0,0,7-4c1.67-1.13,3.31-3.21,5.18-3.89C647.12,573,644.35,575.84,642.17,577.61Z"/><path class="cls-17" d="M624.64,462a16.69,16.69,0,0,0,1.59,5.81,37.57,37.57,0,0,1,3,9.74,177.4,177.4,0,0,0,4.69,19.57c.15.47.9.27.75-.21a158.85,158.85,0,0,1-4.33-17.78c-.52-2.62-.91-5.31-1.65-7.89-.94-3.29-2.89-5.63-3.28-9.24-.06-.49-.83-.5-.78,0Z"/><path class="cls-2" d="M689.48,491c-2.77,5-6.44,9.48-9,14.61a9,9,0,0,0-1.19,4.6c.3,3.51,4.31,5.75,7.82,5.36s6.48-2.65,9.13-5a91,91,0,0,0,13.87-15.35,17.25,17.25,0,0,0,3-5.69c1-3.95-.67-8-2.41-11.71-1.47-3.11-3.11-6.25-5.7-8.51s-6.4-3.44-9.57-2.09c-4.38,1.88-3.61,5.73-2.62,9.25C694.16,481.19,691.71,487,689.48,491Z"/><path class="cls-50" d="M634.37,580.15c.83.56,2.07,1,2.7.26a2,2,0,0,0-.16-2.12,27.46,27.46,0,0,0-4.11-5.39l-3.17-3.53c-.62-.68-2.08-3-3-3.24-1.54-.43-1.6,1.69-1.49,2.87C625.61,573.44,631,577.79,634.37,580.15Z"/><path class="cls-50" d="M627.07,563.87a7.85,7.85,0,0,1,0-.84,2.83,2.83,0,0,1,.3-1.31,1.4,1.4,0,0,1,1.06-.75,1.59,1.59,0,0,1,1.43,1,6.86,6.86,0,0,1,.43,1.8c.52,3,2.32,5,4.69,6.64a30.33,30.33,0,0,1,6.84,6.44,1,1,0,0,1,.28.67c-.06.49-.74.6-1.23.52a10.44,10.44,0,0,1-3.84-1.74C632.88,573.56,627.46,569.21,627.07,563.87Z"/><path class="cls-40" d="M657.38,549.24c-2.39.73-19.86,17.15-22.53,19.9-1.65,1.7.57,4,1.59,3.58,3.07-1.15,12-7,13.1-7.68S661.72,547.93,657.38,549.24Z"/><path class="cls-50" d="M642.49,581c.42-.9,0-2.38-.8-3.61a5.43,5.43,0,0,0-3-2.21.42.42,0,0,0-.33,0,.31.31,0,0,0-.09.4,1.05,1.05,0,0,0,.29.34,9.71,9.71,0,0,1,2.22,3.29,1.85,1.85,0,0,1,.26,1.5c-.18.42-.67.18-.84.54s.25.87.54,1C641.68,582.73,642.15,581.74,642.49,581Z"/><path class="cls-40" d="M628.55,544.84c-2.18-5.39-12.24-4.53-11.11,7.69.46,4.91,3.28,10.12,5.1,14.63.83,2.05,1.46,4.66,3.08,6.18,2.87,2.68,6.63,4,9.65,6.42,1.78,1.45,3.25,3.37,5.36,4.26a2,2,0,0,0,1.18.21,1.67,1.67,0,0,0,1.07-2,4.83,4.83,0,0,0-1.33-2.11l-7.94-8.79a11.88,11.88,0,0,1-2-2.76c-1.77-3.7-1.35-8.8-1.59-12.8C629.77,552.28,629.88,548.13,628.55,544.84Z"/><path class="cls-17" d="M679.72,469.12c-.91,7.64-1.39,14.36-5.76,20.92-3.22,4.83-4.93,10-6.5,15.57a.39.39,0,0,0,.75.21,63.61,63.61,0,0,1,3.81-11c1.54-3.13,4-5.72,5.45-8.86,2.38-5,2.38-11.44,3-16.84.06-.49-.72-.49-.78,0Z"/><path class="cls-17" d="M646.34,538.74l.06.69a.39.39,0,0,0,.28.37,26,26,0,0,0,9.9,1.26c.49,0,.5-.81,0-.78a25.18,25.18,0,0,1-4.91-.12c-.72-.09-4.47-.4-4.55-1.42,0-.49-.82-.49-.78,0Z"/><path class="cls-17" d="M682.19,433.17a228,228,0,0,0,9.28,38.67c.16.48.91.27.75-.2A228.37,228.37,0,0,1,682.94,433c-.08-.49-.83-.28-.75.21Z"/><path class="cls-17" d="M626.45,489.7A23.09,23.09,0,0,0,630,498c.28.41,1,0,.67-.4a22.85,22.85,0,0,1-3.52-8.09c-.1-.49-.85-.28-.74.21Z"/><path class="cls-17" d="M691,544.51a24.74,24.74,0,0,0,7.55,5.34c.45.21.85-.46.39-.67A24.43,24.43,0,0,1,691.5,544c-.35-.36-.89.19-.55.55Z"/><path class="cls-17" d="M696.74,537.16a31.09,31.09,0,0,1,1.78,8.41c0,.5.81.5.78,0a31.7,31.7,0,0,0-1.81-8.61c-.16-.47-.92-.27-.75.2Z"/><path class="cls-51" d="M672,662.9a62.74,62.74,0,0,1-27.27,2.81c-.66-.07-.65,1,0,1a63.41,63.41,0,0,0,27.55-2.85c.63-.21.36-1.21-.28-1Z"/><path class="cls-51" d="M637.15,591c-8.32,17.85,3.06,36.47,2.74,54.75a.52.52,0,0,0,1,0c.31-18.06-11.08-36.64-2.88-54.22.28-.6-.61-1.13-.9-.53Z"/><path class="cls-51" d="M633.49,620.65q.81,7.77,1,15.58c0,.66,1.06.66,1,0q-.22-7.82-1-15.58c-.07-.65-1.1-.66-1,0Z"/><path class="cls-51" d="M606.72,686c-2.36,8,1.13,17.2,8.85,20.93,5.82,2.81,12.77,3.68,18.87,5.88a138.62,138.62,0,0,1,20.93,9.65c.58.33,1.11-.57.53-.89a137.91,137.91,0,0,0-28.83-12.25c-5.54-1.63-11.56-2.36-15.69-6.8a16.81,16.81,0,0,1-3.66-16.24.52.52,0,0,0-1-.28Z"/><path class="cls-51" d="M655,714.89l3.68,1.64c.61.26,1.13-.63.53-.9L655.48,714c-.6-.26-1.13.63-.52.9Z"/><path class="cls-51" d="M674.41,604.11a42.64,42.64,0,0,0,13-9.82c.44-.49-.29-1.23-.74-.73a42.11,42.11,0,0,1-12.77,9.66c-.6.29-.07,1.18.52.89Z"/><path class="cls-51" d="M679.42,606.18a4.07,4.07,0,0,1,2.14-1.42.51.51,0,0,0-.28-1,5.19,5.19,0,0,0-2.75,1.89c-.4.53.49,1.05.89.52Z"/><path class="cls-51" d="M587.76,592.47a49.12,49.12,0,0,0,8.78,4.42c.63.24.9-.76.28-1a47.82,47.82,0,0,1-8.54-4.31c-.56-.36-1.08.54-.52.89Z"/><path class="cls-51" d="M589,600.58a13.48,13.48,0,0,1,5.86.19c.65.16.93-.84.28-1a15,15,0,0,0-6.42-.19c-.65.12-.38,1.11.28,1Z"/><path class="cls-52" d="M645.32,380.05c.35-1.58,2.19-2.79,3.66-3.29s4.75-1,5.94.16c2.09,2-1.61,3-3,2.94a5,5,0,0,0-3.21.57c-.72.46-1.1,1.46-1.94,1.72C645.4,382.58,644.93,381.11,645.32,380.05Z"/><g class="cls-53"><path class="cls-54" d="M758.12,340.8a14,14,0,1,1,14.87,13A14,14,0,0,1,758.12,340.8Z"/><path class="cls-54" d="M778.67,338.78a6.6,6.6,0,1,1,7,6.15A6.6,6.6,0,0,1,778.67,338.78Z"/><circle class="cls-55" cx="785.83" cy="352.88" r="18.8"/><path class="cls-54" d="M766,331.17a18.12,18.12,0,1,1-25.13-5.05A18.13,18.13,0,0,1,766,331.17Z"/><path class="cls-54" d="M790.94,350.63a17.85,17.85,0,1,1-24.75-5A17.85,17.85,0,0,1,790.94,350.63Z"/><path class="cls-54" d="M759.28,348.91A14,14,0,1,1,739.93,345,14,14,0,0,1,759.28,348.91Z"/><path class="cls-54" d="M746.51,345.05a10.61,10.61,0,1,1-14.71-3A10.6,10.6,0,0,1,746.51,345.05Z"/><path class="cls-54" d="M765.65,361.69a10.43,10.43,0,1,1-14.47-2.91A10.43,10.43,0,0,1,765.65,361.69Z"/></g><g class="cls-53"><path class="cls-54" d="M819.74,255a21.69,21.69,0,1,1,23.08,20.2A21.7,21.7,0,0,1,819.74,255Z"/><path class="cls-54" d="M851.65,251.85a10.24,10.24,0,1,1,10.9,9.55A10.24,10.24,0,0,1,851.65,251.85Z"/><circle class="cls-55" cx="862.76" cy="273.74" r="29.18"/><path class="cls-54" d="M832,240a28.14,28.14,0,1,1-39-7.84A28.12,28.12,0,0,1,832,240Z"/><path class="cls-54" d="M870.68,270.26a27.7,27.7,0,1,1-38.4-7.72A27.69,27.69,0,0,1,870.68,270.26Z"/><path class="cls-54" d="M821.54,267.57a21.67,21.67,0,1,1-30-6A21.67,21.67,0,0,1,821.54,267.57Z"/><path class="cls-54" d="M801.72,261.59A16.47,16.47,0,1,1,778.88,257,16.48,16.48,0,0,1,801.72,261.59Z"/><path class="cls-54" d="M831.43,287.41A16.2,16.2,0,1,1,809,282.9,16.19,16.19,0,0,1,831.43,287.41Z"/></g><path class="cls-56" d="M298.36,694.35c-9.23-26.17-29-258.3-29-258.3l12.76-108.26,239.11-11.5,130.57,21.3s-26.53,274.14-28.71,276.88-7.34,92-7.34,92Z"/><g class="cls-57"><path class="cls-58" d="M758.6,270.77l-4.82,10.47c-1.32,2.87-2.32,6.88-4.38,9.28-3.1,3.6-7.54,1-11.21.27a20.46,20.46,0,0,0-6.76-.28,18.6,18.6,0,0,0-12.16,6.58c-2.15,2.66-7.35,17.89-12.54,11.7-2-2.36-5.34,1-3.38,3.37,3.55,4.23,9.89,2.84,13.29-.91,2.12-2.34,3.06-5.39,4.48-8.14a13.93,13.93,0,0,1,10.21-7.79c6.38-1.11,13.79,4.56,19.67.37,2.79-2,3.93-5.58,5.3-8.55l6.42-14c1.27-2.77-2.84-5.2-4.12-2.41Z"/><path class="cls-58" d="M591.31,310.4c-5-2.35-8.92-7.31-14.61-8-6.1-.72-9.91,4-15.23,5.85-7.5,2.56-14.61-4.36-21.19-7a33.86,33.86,0,0,0-19-1.69c-3,.53-1.74,5.14,1.27,4.6,7.71-1.38,14.51.42,21.27,4.13,4.63,2.54,9.51,5.59,15,5.36,5.32-.22,8.73-3.9,13.43-5.77,6.51-2.58,11.28,4.09,16.69,6.65,2.77,1.31,5.19-2.81,2.41-4.12Z"/><path class="cls-58" d="M656.51,209.18A21.45,21.45,0,0,1,659,224.56c-1.18,5.51-4.32,9-8.23,12.72-2.71,2.62-4.15,5.45-3.93,9.26.25,4.25,3.66,9.57,1.14,13.51-1.67,2.59,2.46,5,4.12,2.41,2.52-3.93,1.38-8,.3-12.19-1-3.82-1.18-6.6,1.75-9.61,1.81-1.87,3.8-3.39,5.34-5.54a26.46,26.46,0,0,0,1.19-28.35c-1.54-2.66-5.66-.26-4.12,2.41Z"/><path class="cls-58" d="M583.63,350c-14.82,6.46-28.23,15.61-41.62,24.55-2.54,1.7-.15,5.83,2.41,4.12,13.39-8.94,26.8-18.09,41.61-24.55,2.81-1.22.39-5.34-2.4-4.12Z"/><path class="cls-58" d="M586.38,361.64c-11.37,7.78-22.44,16-33.82,23.77-2.52,1.73-.13,5.87,2.41,4.13,11.37-7.78,22.45-16,33.82-23.78,2.52-1.72.13-5.86-2.41-4.12Z"/><path class="cls-58" d="M585.71,381c-8.23-11.32-16.59-22.57-24.51-34.12-1.72-2.51-5.86-.13-4.12,2.41,7.91,11.55,16.28,22.8,24.51,34.12,1.79,2.46,5.93.08,4.12-2.41Z"/><path class="cls-58" d="M540.23,358.21c9.7,10.93,19.28,22,28.93,32.92,2,2.32,5.4-1.07,3.38-3.37-9.65-11-19.23-22-28.93-32.93-2.05-2.3-5.41,1.09-3.38,3.38Z"/><path class="cls-58" d="M615.28,244.83l.66-.05c3-.18,3.07-5,0-4.77l-.66,0c-3,.19-3.07,5,0,4.78l.66-.05c3-.18,3.07-5,0-4.77l-.66,0c-3,.19-3.07,5,0,4.78Z"/><path class="cls-58" d="M604.5,231.12l1-1.13a2.38,2.38,0,1,0-3.37-3.37l-1,1.12a2.39,2.39,0,0,0,3.37,3.38Z"/></g><polygon class="cls-59" points="554.12 219.97 553.02 257.13 505.44 233.88 567.2 283.46 570.05 253.97 599.9 271.75 554.12 219.97"/><polygon class="cls-59" points="757.29 250.22 709.22 236.48 755.27 182.14 670.19 246.25 707.69 259.72 674.63 292.75 757.29 250.22"/><path class="cls-60" d="M501.71,707.35H414.76c8.55,8.49,0,18.27,0,18.27h86.95S493.15,715.84,501.71,707.35Z"/><rect class="cls-9" x="298.36" y="519.02" width="319.74" height="188.33" rx="13"/><rect class="cls-9" x="393.23" y="722.98" width="126.49" height="9.14"/><rect class="cls-1" x="235.82" y="732.12" width="440.08" height="21.61"/><rect class="cls-1" x="263.23" y="753.72" width="16.34" height="57.74"/><rect class="cls-1" x="634.52" y="753.72" width="16.34" height="57.74"/><circle class="cls-60" cx="548.21" cy="669.3" r="3.29"/><circle class="cls-60" cx="537.71" cy="669.3" r="3.29"/><circle class="cls-60" cx="527.22" cy="669.3" r="3.29"/><circle class="cls-60" cx="516.73" cy="669.3" r="3.29"/></g></g></svg>