<?xml version="1.0" encoding="utf-8"?>
<!-- Generator: Adobe Illustrator 23.0.3, SVG Export Plug-In . SVG Version: 6.00 Build 0)  -->
<svg version="1.1" xmlns="http://www.w3.org/2000/svg" xmlns:xlink="http://www.w3.org/1999/xlink" x="0px" y="0px"
	 viewBox="0 0 944.6 709.7" style="enable-background:new 0 0 944.6 709.7;" xml:space="preserve">
<style type="text/css">
	.st0{opacity:0.1;fill-rule:evenodd;clip-rule:evenodd;fill:#007CC7;}
	.st1{opacity:0.2;fill-rule:evenodd;clip-rule:evenodd;fill:#007CC7;}
	.st2{opacity:0.48;}
	.st3{fill-rule:evenodd;clip-rule:evenodd;fill:#007CC7;}
	.st4{opacity:0.3;fill-rule:evenodd;clip-rule:evenodd;fill:#007CC7;}
	.st5{display:none;}
	.st6{display:inline;opacity:0.1;fill:#007CC7;enable-background:new    ;}
	.st7{fill:#96644E;}
	.st8{fill:#E0DEA0;}
	.st9{opacity:0.15;fill:#182149;enable-background:new    ;}
	.st10{fill:#FCF6CA;}
	.st11{opacity:0.27;}
	.st12{fill:#0D6B64;}
	.st13{fill:#00B1AA;}
	.st14{opacity:0.69;}
	.st15{fill:#FFFFFF;}
	.st16{fill:#C7C7C7;}
	.st17{enable-background:new    ;}
	.st18{fill:#01172B;}
	.st19{fill:#002042;}
	.st20{fill:#F5BD83;}
	.st21{fill:#C68467;}
	.st22{opacity:0.7;fill:#D19D6F;enable-background:new    ;}
	.st23{fill:#D19D6F;}
	.st24{fill:#D6B492;}
	.st25{fill:#474F77;}
	.st26{fill:#D32A3F;}
	.st27{fill:#E5E7EA;}
	.st28{fill:#BEBEBF;}
	.st29{fill:#87182B;}
</style>
<g id="Layer_1">
	<g id="Layer_2">
		<path class="st0" d="M896.8,412.3c0-88.9-64.6-163.7-152.5-186c-13.9-19.9-38.6-32.3-65.8-30.7c-4.7,0.3-9.3,1-13.7,2.1
			c-29.8-40.3-81-65.4-137.2-61.9c-30,1.9-57.3,11.6-80,26.8c-65.8-62.8-172.3-75.2-253.6-24.8c-88.4,54.7-114.8,163.6-62.3,247.9
			c-24.5,44.6-23,99.9,8.9,144.5c28.2,39.4,73.7,61.6,120.9,63.7c3.2,9.5,7.8,18.7,14,27.4c35.2,49.2,106.6,62.6,159.5,29.8
			c8.6-5.3,16.2-11.6,22.7-18.5c65.1,49.4,159.7,56,233.3,10.5c19.7-12.2,36.3-27.1,49.5-43.8C830.4,578.2,896.8,502.5,896.8,412.3z
			"/>
		<path class="st1" d="M179.2,219.3c0-16.7-11.3-30.8-26.7-35c-2.4-3.8-6.8-6.1-11.6-5.8c-0.8,0.1-1.6,0.2-2.4,0.4
			c-5.2-7.6-14.2-12.3-24.1-11.7c-5.3,0.3-10.1,2.2-14,5.1c-11.5-11.8-30.2-14.2-44.5-4.7c-10.3,6.9-15.8,18.2-15.6,29.7
			c-0.7,0.3-1.3,0.7-1.9,1.1c-9.4,6.3-12,19-5.7,28.4c2.7,4,6.5,6.8,10.8,8.1c0.7,2.2,1.8,4.4,3.2,6.5c4.9,7.4,12.9,11.6,21.2,12
			c0.6,1.8,1.4,3.5,2.5,5.2c6.2,9.3,18.7,11.8,28,5.6c1.5-1,2.8-2.2,4-3.5c11.4,9.3,28,10.6,40.9,2c3.5-2.3,6.4-5.1,8.7-8.3
			C167.5,250.6,179.2,236.3,179.2,219.3z"/>
		<g class="st2">
			<path class="st3" d="M205.7,145.1c-0.7-10.4,7.2-19.5,17.6-20.2c10.4-0.7,19.5,7.2,20.2,17.6s-7.2,19.5-17.6,20.2
				S206.4,155.6,205.7,145.1z"/>
			<path class="st3" d="M233.6,142.4c-0.3-4.9,3.4-9.2,8.3-9.5c4.9-0.3,9.2,3.4,9.5,8.3c0.3,4.9-3.4,9.2-8.3,9.5
				C238.1,151.1,233.9,147.3,233.6,142.4z"/>
			<ellipse class="st3" cx="243.3" cy="161.5" rx="25.5" ry="25.5"/>
			<path class="st3" d="M216.4,132.1c7.5,11.3,4.4,26.6-6.9,34.1c-11.3,7.5-26.6,4.5-34.1-6.9c-7.5-11.3-4.4-26.6,6.9-34.1
				C193.6,117.7,208.9,120.8,216.4,132.1z"/>
			<path class="st3" d="M250.2,158.5c7.4,11.1,4.4,26.1-6.7,33.5c-11.1,7.4-26.1,4.4-33.6-6.7c-7.4-11.1-4.4-26.1,6.7-33.5
				C227.8,144.3,242.8,147.4,250.2,158.5z"/>
			<path class="st3" d="M207.3,156.1c5.8,8.7,3.4,20.5-5.3,26.2c-8.7,5.8-20.4,3.4-26.2-5.3c-5.8-8.7-3.4-20.5,5.3-26.2
				C189.7,145.1,201.5,147.4,207.3,156.1z"/>
			<path class="st3" d="M189.9,150.9c4.4,6.6,2.6,15.5-4,20s-15.6,2.6-19.9-4s-2.6-15.5,4-19.9S185.5,144.3,189.9,150.9z"/>
			<path class="st3" d="M215.9,173.5c4.3,6.5,2.6,15.3-3.9,19.6c-6.5,4.3-15.3,2.6-19.6-3.9c-4.3-6.5-2.6-15.3,3.9-19.6
				C202.8,165.2,211.6,167,215.9,173.5z"/>
		</g>
		<path class="st0" d="M437.6,93.8c0-20.8-14.1-38.3-33.2-43.6c-3-4.7-8.4-7.6-14.3-7.2c-1,0.1-2,0.2-3,0.5
			c-6.5-9.4-17.6-15.3-29.9-14.5c-6.5,0.4-12.5,2.7-17.4,6.3c-14.3-14.7-37.5-17.6-55.3-5.8c-12.8,8.5-19.6,22.6-19.4,37
			c-0.8,0.4-1.6,0.9-2.4,1.4c-11.7,7.8-14.9,23.6-7.1,35.3c3.3,5,8.1,8.4,13.4,10.1c0.9,2.8,2.2,5.5,3.9,8.1
			c6.1,9.2,16.1,14.4,26.3,14.9c0.7,2.2,1.7,4.4,3.1,6.4c7.7,11.5,23.2,14.7,34.8,7c1.9-1.2,3.5-2.7,4.9-4.3
			c14.2,11.6,34.8,13.1,50.8,2.5c4.3-2.9,7.9-6.3,10.8-10.3C423.1,132.6,437.6,114.9,437.6,93.8z"/>
		<path class="st4" d="M826.5,615.2c0-10.1-6.8-18.6-16.1-21.1c-1.5-2.3-4.1-3.7-7-3.5c-0.5,0-1,0.1-1.5,0.2
			c-3.1-4.6-8.5-7.4-14.5-7c-3.2,0.2-6.1,1.3-8.5,3.1c-7-7.1-18.2-8.6-26.8-2.8c-6.2,4.1-9.5,11-9.4,17.9c-0.4,0.2-0.8,0.4-1.2,0.7
			c-5.7,3.8-7.2,11.5-3.4,17.1c1.6,2.4,3.9,4.1,6.5,4.9c0.4,1.4,1.1,2.7,1.9,3.9c3,4.5,7.8,7,12.8,7.2c0.3,1.1,0.8,2.1,1.5,3.1
			c3.7,5.6,11.3,7.1,16.9,3.4c0.9-0.6,1.7-1.3,2.4-2.1c6.9,5.6,16.9,6.4,24.7,1.2c2.1-1.4,3.8-3.1,5.2-5
			C819.4,634,826.5,625.4,826.5,615.2z"/>
		<path class="st0" d="M923,501.3c0-17.9-12.1-32.9-28.6-37.4c-2.6-4-7.2-6.5-12.3-6.2c-0.9,0.1-1.7,0.2-2.6,0.4
			c-5.6-8.1-15.1-13.1-25.7-12.4c-5.6,0.4-10.7,2.3-15,5.4c-12.3-12.6-32.2-15.1-47.5-5c-11,7.3-16.9,19.5-16.7,31.7
			c-0.7,0.4-1.4,0.8-2.1,1.2c-10.1,6.7-12.8,20.3-6.1,30.3c2.8,4.3,6.9,7.2,11.5,8.7c0.8,2.4,1.9,4.7,3.4,6.9
			c5.3,7.9,13.8,12.4,22.6,12.8c0.6,1.9,1.5,3.8,2.6,5.5c6.6,9.9,19.9,12.6,29.9,6c1.6-1.1,3-2.3,4.2-3.7
			c12.2,9.9,29.9,11.3,43.7,2.1c3.7-2.5,6.8-5.5,9.3-8.8C910.6,534.7,923,519.4,923,501.3z"/>
		<path class="st4" d="M356.5,404.2c0-10.1-6.8-18.6-16.1-21.1c-1.5-2.3-4.1-3.7-7-3.5c-0.5,0-1,0.1-1.5,0.2
			c-3.1-4.6-8.5-7.4-14.5-7c-3.2,0.2-6.1,1.3-8.5,3.1c-7-7.1-18.2-8.6-26.8-2.8c-6.2,4.1-9.5,11-9.4,17.9c-0.4,0.2-0.8,0.4-1.2,0.7
			c-5.7,3.8-7.2,11.5-3.4,17.1c1.6,2.4,3.9,4.1,6.5,4.9c0.4,1.4,1.1,2.7,1.9,3.9c3,4.5,7.8,7,12.8,7.2c0.3,1.1,0.8,2.1,1.5,3.1
			c3.7,5.6,11.3,7.1,16.9,3.4c0.9-0.6,1.7-1.3,2.4-2.1c6.9,5.6,16.9,6.4,24.7,1.2c2.1-1.4,3.8-3.1,5.2-5
			C349.4,423,356.5,414.4,356.5,404.2z"/>
		<path class="st4" d="M847.1,253.2c0-12.9-8.2-23.8-19.4-27.1c-1.8-2.9-4.9-4.7-8.4-4.5c-0.6,0-1.2,0.2-1.8,0.3
			c-3.8-5.9-10.3-9.5-17.4-9c-3.8,0.3-7.3,1.7-10.2,3.9c-8.4-9.2-21.9-11-32.2-3.6c-7.5,5.3-11.4,14.1-11.3,23
			c-0.5,0.3-1,0.6-1.4,0.9c-6.8,4.8-8.7,14.7-4.1,22c1.9,3.1,4.7,5.2,7.8,6.3c0.5,1.7,1.3,3.4,2.3,5c3.6,5.7,9.4,8.9,15.4,9.3
			c0.4,1.4,1,2.7,1.8,4c4.5,7.2,13.5,9.1,20.3,4.3c1.1-0.8,2-1.7,2.9-2.7c8.3,7.2,20.3,8.2,29.7,1.5c2.5-1.8,4.6-3.9,6.2-6.4
			C838.6,277.3,847.1,266.3,847.1,253.2z"/>
	</g>
	<g id="Layer_9" class="st5">
		<path class="st6" d="M871.3,308c-64.6,104.3-141,73.5-174.4,190S502,649.5,341.5,649.8S216.2,549.2,219.7,498S66,479.6,77.7,373.4
			c4.3-39.3,19.2-61.2,37.2-76c30.5-25.2,70-30,82.1-65.4c19.2-56.3-27.7-66-33-89.2c-0.6-2.4-0.9-4.8-1.1-7.1c0-0.1,0-0.1,0-0.2
			c0-0.4,0-0.7-0.1-1.1v-0.3c0-0.2,0-0.5,0-0.7s0-0.3,0-0.5c0-0.1,0-0.2,0-0.2c0-0.3,0-0.5,0-0.8c0-0.1,0-0.2,0-0.3
			c0-0.1,0-0.3,0-0.4c0-0.2,0-0.5,0-0.7c7.8-104.3,473.6-27.4,633.1,2.1C796.1,132.5,921.8,170.5,871.3,308z"/>
	</g>
	<g id="Layer_7">
		<rect x="204.9" y="136.5" class="st7" width="543" height="403"/>
		<rect x="221.9" y="150" class="st8" width="510" height="376"/>
		<polygon class="st9" points="607.9,430.5 371.1,424.4 383.4,236 618.5,248.6 		"/>
		<polygon class="st10" points="385.4,413.9 397.7,230.3 632.8,242.6 620.9,420.5 		"/>
		<g class="st11">
			<path class="st12" d="M299.1,173.5c3.9-2.4,8.3-3.9,12.9-4.2c6-0.6,9,1.6,9.8,5.3c2.1,9.2,5.8,23.7,9.4,32.8
				c2.2,1.4,3.2,2.3,3.4,4.3c0.5,5.1-5.8,8-12.5,8.7c-3.9,0.4-5.3-1.8-7.3-8.9c-3.1,0.6-6.3,1-9.5,1.3c-0.3,2.8-0.3,5.6-0.3,8.4
				c-0.6,0.7-2,1.3-4.1,1.6c-3.4,0.4-8.5-0.4-9-5.1C291.7,215,294.3,191.3,299.1,173.5z M308.2,184.5c-0.7,4.1-1.7,12.7-2.2,18.7
				c2.3-0.2,4.5-0.6,6.7-1.1C311.5,198.5,309.5,189.5,308.2,184.5z"/>
			<path class="st12" d="M355.9,163.6c2,2.7,4.5,7.9,6.5,12.2c1.2,2.6,2.3,5.3,3.4,8.1c1.4-3,2.7-5.8,3.9-8.3
				c2.2-4.4,4.4-9.2,5.5-11c1.8-3,3.5-4.2,6-4.2c8.8-0.1,9.5,1.9,9.5,4.1c0.1,8.6,0,29.2-0.4,37.9c-0.2,7.1-2.8,9.7-8.4,9.8
				c-2.5,0-5-0.7-6-2.2l-0.5-25.3c-1.4,3.4-3.1,6.7-5.1,9.7c-0.2,6.4-2,12.3-7.8,12.3c-3.1,0-5-1.2-5.5-2.4
				c-0.3-3.7-1.1-7.4-2.5-10.9l-3.4-8.1c0.1,6.9,0.1,15.7-0.6,20.9c-0.4,4.1-3,6.1-7.6,6.2c-2.2,0-3.8-0.6-4.4-2.1
				c-0.1-6.3-0.3-23.1-0.5-35.8c-0.8-2.2-1.3-4.4-1.5-6.8c0-3.7,5.3-7,12.1-7.1C352.5,160.9,354.1,161.5,355.9,163.6z"/>
			<path class="st12" d="M397.6,190.9c-0.7-2.1-1-4.2-1.1-6.4c0-3.8,4.1-6.5,11.3-6.6c5.4-0.1,5.8,1.4,5.9,3.9l-0.1,34.3
				c1.8,1,2.8,2.1,2.8,3.7c0.1,6.4-4.8,9.9-11.4,10c-6.2,0.1-7.3-1.4-7.4-9.9c0-4.7,0.1-12.1,0-18
				C397.6,198.3,397.6,194.6,397.6,190.9z"/>
			<path class="st12" d="M452.8,206c1.1,0.8,1.8,2.7,1.9,4.4c0.5,7.1-3.2,9.4-7.5,9.9c-3.1,0.5-6.3,0.8-9.5,1
				c-5.2,0.4-11.3-2.3-11.5-5.6c-1.2-17.8-1-19.6-1.9-33c-0.6-1.8-1-3.7-1.1-5.6c-0.2-3.8,3.7-6.7,10.9-7.1c5.3-0.4,6,1.1,6.2,3.5
				c0.4,6.5,0.8,19.3,1.3,33.4C444.7,206.7,451.1,206.1,452.8,206z"/>
			<path class="st12" d="M478.6,149.9c5.2,0.2,7.7,2.8,8,6.3l-13.8,26.2l-0.6,11.8c-0.2,3.7-3,7.3-12.1,6.9
				c-4.3-0.2-5.5-1.5-5.2-7.1c0.1-2.4,0.3-5.4,0.4-7.5c0.2-1.4,0.2-2.7,0.4-4.1l-7.2-21.3c-1.7-1.4-2.7-3.5-2.7-5.7
				c0.2-4.3,7.1-6.5,12-6.3c3.5,0.1,5.4,1.6,6.5,5.6l3.6,12.1l4.6-12C473.9,151,475.1,149.8,478.6,149.9z"/>
			<path class="st12" d="M547.7,213c4.6,4.9,5.3,5,8.9,5c0.6,0.9,0.9,1.9,1,3c0.5,5.5-2.7,10.4-8.8,10.9c-4.2,0.4-5.6-0.9-7.9-4.5
				c-3-4.3-4.5-6.3-6.3-7.2l0.1,6.1c0,5-1.5,6.5-7,7c-6.2,0.6-6.7-0.9-7.5-9.3c-0.4-4.8-1-11.5-1.2-17.3c-0.2-3.4-0.5-6.9-0.7-10.3
				c-0.6-1.8-1-3.7-1.2-5.6c-0.3-3.7,1.7-5.5,10.5-7.1c3.5-1.9,7.3-3,11.2-3.3c10-0.9,14.6,4.7,15.4,13.1
				C554.9,201.5,552.9,205.9,547.7,213z M533.9,209.3c1.9-0.1,3.8,0.1,5.7,0.5c1.1-3.1,1.5-6.4,1.3-9.7c-0.4-4.6-2.3-6.7-7.7-6.6
				L533.9,209.3z"/>
			<path class="st12" d="M558,175.5c-0.5-1.8-0.7-3.7-0.8-5.6c0-3.8,4.1-6.5,11.3-6.6c4.8-0.1,5.6,2.1,5.6,4.8
				c0,4.9-0.5,12.2-0.5,20.4c0.1,11.8,1.6,13.4,7.2,14.5c-0.1-6,0.1-28.1,0.1-31.4c0-4.9,0.2-8.4,7.2-8.4c3.5,0,6.7,0.9,7.9,2.4
				c0.1,6.5-0.2,25-0.1,39.2c0.1,6.1-3.6,7.5-12.2,8c-2.3,1.4-5.8,2.3-10.2,2.4c-12.4,0.1-15.8-8.1-16-25.2
				C557.4,183.3,557.7,181.1,558,175.5z"/>
			<path class="st12" d="M628.1,218.9c1,0.9,1.5,2.9,1.5,4.6c-0.2,7.1-4.2,9-8.4,9.2c-2.6,0.2-6,0.2-9.5,0.1
				c-5.2-0.2-11-3.4-10.9-6.8c0.6-17.9,0.9-19.6,1.3-33c-0.4-1.9-0.6-3.8-0.6-5.7c0.1-3.8,4.3-6.3,11.6-6c5.3,0.2,5.9,1.7,5.8,4.1
				c-0.2,6.5-1.1,19.3-2,33.4C620,218.9,626.4,218.9,628.1,218.9z"/>
			<path class="st12" d="M656.4,215.8c-2.6,0.8-6.1,1.3-12.6,1.9c-2,0.2-4.1,0.3-6.1,0.3c-4.2-0.1-9-2.6-9.3-5.9
				c-0.4-4.7-1-12.3-1.3-18.7c-0.2-3.8-0.5-7.6-0.8-11.6c-1.2-2.2-1.8-4.6-2-7c-0.4-4.1,1.7-6.4,10.7-7.2c5.1-0.5,19-1.4,22.2-1.7
				c1.1,0.9,1.9,3.4,2.1,5.2c0.5,5.2-1.7,7.6-6.1,8.3c-1.9,0.5-7.7,1.1-12.1,1.5l0.5,8.7c4-0.7,12.5-1.5,13.8-1.6
				c0.8,0.9,1.3,2.1,1.3,3.4c0.4,4.8-1.3,7.4-4.3,7.9c-1.3,0.4-5.3,0.6-10.1,1.3l0.4,5.2l16.3-1.4c0.8,0.9,1.3,2.1,1.3,3.3
				C661,212.3,659.3,215.1,656.4,215.8z"/>
			<path class="st12" d="M681.9,181.9c10,0.1,14.6,5.2,14.6,10.3c0,6-3.5,8.4-7.8,8.4c-1.1,0-2.2-0.2-3.3-0.5
				c-0.7-3.5-2.3-5.2-6.8-6.7c-0.4,1.1-0.6,2.2-0.6,3.3c0,2.4,0.4,3,10.9,9.9c5.9,3.7,7.9,6.6,7.9,12c-0.1,8-6.2,15.4-18.3,15.3
				c-9.9-0.1-16.5-3.1-16.5-11.1c0-4.8,3-7.9,7-7.9c0.7,0,1.5,0.1,2.2,0.3c3.7,6.8,5.9,8.4,8.6,8.4c1.9,0,2.7-1,2.7-2.1
				s-1.4-2.6-11.1-9.4c-5.2-3.8-7-7.3-7-12.5c0-4.5,1.9-9.1,5.7-11.8C672.7,183.5,675.5,181.9,681.9,181.9z"/>
		</g>
		<path class="st12" d="M264.8,170.8c-0.5-2.4-0.5-4.9,0-7.3c0.8-4.1,3.4-5.7,12.2-4c5.1,0.9,14.9,2.7,18.2,3.6
			c0.9,1.5,1.1,3.3,0.8,5c-1.1,6-4,9.2-8.4,8.8c-2.7-0.3-5.4-0.7-8-1.2l-1.9,8.9c4.2,0.5,7.4,1.1,8.7,1.3c2.8,0.5,3.4,1.4,3,3.6
			c-1.2,6.7-4.4,8.9-7.4,8.7c-1.1-0.1-3.2-0.3-6.9-0.9l-1.5,7c-0.9,4.9-3.8,5.7-9.2,4.7c-6.1-1.1-6.2-2.7-4.7-11
			c0.9-4.6,2.2-11.4,3.3-17.1C263.5,177.7,264.1,174.2,264.8,170.8z"/>
		<path class="st12" d="M303.3,170.3c3.9-2.4,8.3-3.9,12.9-4.3c6-0.6,9,1.6,9.8,5.3c2.1,9.2,5.8,23.7,9.4,32.8
			c2.2,1.4,3.2,2.3,3.4,4.3c0.5,5.1-5.8,8-12.5,8.7c-3.9,0.4-5.3-1.8-7.2-8.9c-3.2,0.6-6.3,1-9.5,1.3c-0.3,2.8-0.3,5.6-0.3,8.4
			c-0.6,0.7-1.9,1.3-4.1,1.6c-3.4,0.3-8.5-0.4-8.9-5.1C295.9,211.8,298.5,188.1,303.3,170.3z M312.4,181.3
			c-0.7,4.1-1.7,12.7-2.2,18.7c2.3-0.2,4.5-0.6,6.7-1.1C315.7,195.3,313.6,186.4,312.4,181.3L312.4,181.3z"/>
		<path class="st12" d="M360,160.5c2,2.7,4.5,7.9,6.5,12.2c1.2,2.6,2.3,5.4,3.4,8.2c1.4-3,2.7-5.8,3.9-8.3c2.2-4.4,4.4-9.2,5.4-11
			c1.8-3,3.5-4.2,6-4.2c8.8-0.1,9.5,1.9,9.5,4.1c0.1,8.6,0,29.2-0.4,37.9c-0.2,7.1-2.8,9.7-8.4,9.8c-2.5,0-5-0.7-6-2.2l-0.4-25.3
			c-1.4,3.4-3.1,6.7-5.1,9.7c-0.2,6.4-2,12.3-7.8,12.3c-3.1,0-5-1.2-5.5-2.4c-0.3-3.7-1.1-7.4-2.5-10.9l-3.3-8.1
			c0.1,6.9,0.1,15.7-0.6,20.9c-0.4,4.1-3,6.1-7.6,6.2c-2.2,0-3.8-0.6-4.5-2.1c-0.1-6.3-0.3-23-0.5-35.8c-0.8-2.2-1.3-4.5-1.5-6.8
			c0-3.7,5.3-7,12.1-7.1C356.7,157.7,358.3,158.3,360,160.5z"/>
		<path class="st12" d="M401.8,187.7c-0.6-2.1-1-4.2-1.1-6.4c0-3.8,4.1-6.5,11.3-6.6c5.4-0.1,5.8,1.4,5.9,3.9l-0.1,34.3
			c1.8,1,2.8,2.1,2.8,3.7c0.1,6.4-4.8,9.9-11.4,10c-6.2,0.1-7.4-1.4-7.4-9.9c0-4.7,0.1-12,0-18C401.8,195.1,401.7,191.5,401.8,187.7
			z"/>
		<path class="st12" d="M456.9,202.8c1.1,0.8,1.8,2.7,1.9,4.4c0.5,7.1-3.2,9.4-7.5,9.9c-3.1,0.5-6.3,0.8-9.5,1
			c-5.2,0.4-11.3-2.3-11.5-5.6c-1.2-17.9-1-19.6-1.9-33c-0.6-1.8-1-3.7-1.1-5.6c-0.2-3.8,3.7-6.7,10.9-7.1c5.3-0.4,6,1.1,6.2,3.6
			c0.4,6.5,0.8,19.3,1.3,33.4C448.9,203.5,455.2,202.9,456.9,202.8z"/>
		<path class="st12" d="M482.8,146.7c5.2,0.2,7.7,2.8,8,6.3l-13.9,26.2l-0.6,11.8c-0.2,3.7-3,7.3-12.1,6.9c-4.3-0.2-5.5-1.5-5.2-7.1
			c0.1-2.4,0.3-5.4,0.4-7.5c0.2-1.4,0.2-2.7,0.4-4.1l-7.2-21.3c-1.7-1.4-2.7-3.5-2.7-5.7c0.2-4.3,7.1-6.5,12-6.3
			c3.5,0.1,5.4,1.6,6.5,5.5l3.6,12.1l4.6-12C478.1,147.9,479.3,146.6,482.8,146.7z"/>
		<path class="st12" d="M551.8,209.8c4.6,4.9,5.3,5,8.9,5c0.6,0.9,0.9,1.9,1,3c0.5,5.5-2.7,10.4-8.8,10.9c-4.2,0.4-5.6-0.9-7.9-4.5
			c-3-4.3-4.5-6.3-6.3-7.2l0.1,6.1c0,5-1.5,6.5-7,7c-6.2,0.6-6.7-0.9-7.5-9.3c-0.4-4.8-1-11.5-1.2-17.3c-0.2-3.4-0.5-6.9-0.7-10.3
			c-0.6-1.8-1-3.7-1.2-5.6c-0.3-3.8,1.7-5.5,10.5-7.1c3.5-1.9,7.3-3,11.2-3.3c10-0.9,14.6,4.7,15.4,13.1
			C559.1,198.3,557,202.7,551.8,209.8z M538.1,206.1c1.9-0.1,3.8,0.1,5.7,0.5c1.1-3.1,1.5-6.4,1.3-9.7c-0.4-4.6-2.3-6.7-7.7-6.7
			L538.1,206.1z"/>
		<path class="st12" d="M562.1,172.3c-0.5-1.8-0.8-3.7-0.8-5.6c0-3.8,4.1-6.5,11.3-6.6c4.8,0,5.6,2.1,5.6,4.8
			c0,4.9-0.5,12.2-0.5,20.4c0.1,11.8,1.6,13.4,7.2,14.5c-0.1-6,0.1-28.1,0.1-31.4c0-4.9,0.2-8.4,7.2-8.4c3.5,0,6.7,0.9,7.9,2.4
			c0.1,6.5-0.2,24.9-0.1,39.2c0.1,6.1-3.6,7.5-12.2,8c-2.3,1.4-5.8,2.3-10.2,2.4c-12.4,0.1-15.8-8.1-16-25.3
			C561.6,180.1,561.8,177.9,562.1,172.3z"/>
		<path class="st12" d="M632.3,215.7c1,0.9,1.5,2.9,1.5,4.6c-0.2,7.1-4.1,9-8.4,9.1c-3.2,0.2-6.3,0.2-9.5,0.1
			c-5.2-0.2-11-3.4-10.9-6.7c0.6-17.9,0.9-19.6,1.3-33c-0.4-1.9-0.6-3.8-0.6-5.7c0.1-3.8,4.3-6.3,11.6-6c5.3,0.2,5.9,1.7,5.8,4.1
			c-0.2,6.5-1.1,19.3-2,33.4C624.2,215.7,630.6,215.7,632.3,215.7z"/>
		<path class="st12" d="M660.6,212.6c-2.6,0.8-6.1,1.3-12.6,1.9c-2,0.3-4.1,0.3-6.1,0.3c-4.2-0.1-9-2.6-9.3-5.9
			c-0.4-4.7-1-12.3-1.3-18.7c-0.2-3.8-0.5-7.6-0.8-11.6c-1.2-2.2-1.8-4.6-2-7c-0.4-4.1,1.7-6.4,10.7-7.2c5.1-0.4,19-1.4,22.2-1.7
			c1.1,0.9,1.9,3.4,2.1,5.2c0.5,5.2-1.7,7.6-6.1,8.3c-2,0.5-7.7,1.1-12.1,1.5l0.5,8.7c4-0.7,12.5-1.5,13.8-1.6
			c0.8,0.9,1.3,2.1,1.3,3.4c0.4,4.8-1.3,7.4-4.3,7.9c-1.3,0.4-5.3,0.6-10.1,1.3l0.4,5.3l16.3-1.4c0.8,0.9,1.3,2.1,1.3,3.3
			C665.2,209.1,663.4,211.9,660.6,212.6z"/>
		<path class="st12" d="M686.1,178.7c10,0.1,14.6,5.2,14.6,10.3c0,6-3.5,8.4-7.8,8.4c-1.1,0-2.2-0.2-3.3-0.5
			c-0.7-3.5-2.3-5.2-6.8-6.7c-0.4,1-0.6,2.2-0.6,3.3c0,2.4,0.5,3,10.9,9.9c5.9,3.7,8,6.6,7.9,12c-0.1,8-6.2,15.4-18.3,15.3
			c-9.9-0.1-16.5-3.1-16.5-11.1c0-4.8,3-7.9,7-7.9c0.7,0,1.5,0.1,2.2,0.3c3.7,6.8,5.9,8.4,8.6,8.4c1.9,0,2.6-1,2.7-2.1
			s-1.4-2.6-11.1-9.4c-5.2-3.8-7-7.3-7-12.5c0-4.5,1.9-9.1,5.7-11.8C676.9,180.4,679.7,178.7,686.1,178.7z"/>
		<path class="st13" d="M268.5,167.5c-0.5-2.4-0.5-4.9,0-7.3c0.8-4.1,3.4-5.7,12.2-4c5.1,0.9,14.9,2.7,18.2,3.7
			c0.9,1.5,1.1,3.3,0.8,5c-1.1,6-4,9.2-8.4,8.8c-2.7-0.3-5.4-0.7-8-1.2l-1.9,8.9c4.2,0.5,7.4,1.1,8.7,1.3c2.8,0.5,3.4,1.4,3,3.6
			c-1.2,6.7-4.4,8.9-7.5,8.7c-1.1-0.1-3.2-0.3-6.9-0.9l-1.5,7c-0.9,4.9-3.8,5.7-9.2,4.7c-6.1-1.1-6.2-2.7-4.7-11
			c0.9-4.6,2.2-11.4,3.3-17.1C267.2,174.4,267.8,170.9,268.5,167.5z"/>
		<path class="st13" d="M307,167c3.9-2.4,8.3-3.9,12.9-4.2c6-0.6,9,1.6,9.8,5.3c2.1,9.2,5.8,23.7,9.4,32.8c2.2,1.4,3.2,2.3,3.4,4.3
			c0.5,5.1-5.8,8-12.5,8.7c-3.9,0.4-5.3-1.8-7.2-8.9c-3.2,0.6-6.3,1-9.5,1.3c-0.3,2.8-0.4,5.5-0.3,8.3c-0.6,0.7-1.9,1.3-4.1,1.6
			c-3.4,0.3-8.5-0.4-8.9-5.1C299.6,208.5,302.2,184.8,307,167z M316.1,178c-0.7,4.1-1.7,12.7-2.2,18.7c2.3-0.2,4.5-0.6,6.7-1.1
			C319.4,192,317.3,183.1,316.1,178L316.1,178z"/>
		<path class="st13" d="M363.7,157.2c2,2.7,4.5,7.9,6.5,12.2c1.2,2.6,2.3,5.3,3.4,8.1c1.4-3,2.7-5.8,3.9-8.3c2.2-4.4,4.4-9.2,5.4-11
			c1.8-3,3.5-4.2,6-4.2c8.8-0.1,9.5,1.9,9.5,4.1c0.1,8.6,0,29.2-0.4,37.9c-0.2,7.1-2.8,9.7-8.4,9.8c-2.5,0-5-0.7-6-2.2l-0.4-25.3
			c-1.4,3.4-3.1,6.7-5.1,9.7c-0.2,6.4-2,12.3-7.8,12.3c-3.1,0-5-1.2-5.5-2.4c-0.3-3.7-1.1-7.4-2.5-10.9l-3.3-8.1
			c0.1,6.9,0.1,15.7-0.6,20.9c-0.4,4.1-3,6.1-7.6,6.2c-2.2,0-3.8-0.6-4.4-2.1c-0.1-6.3-0.3-23.1-0.5-35.8c-0.8-2.2-1.3-4.4-1.5-6.8
			c0-3.7,5.3-7,12.1-7.1C360.4,154.4,362,155,363.7,157.2z"/>
		<path class="st13" d="M405.5,184.4c-0.6-2.1-1-4.2-1.1-6.4c0-3.8,4.1-6.5,11.3-6.6c5.4-0.1,5.8,1.4,5.9,3.9l-0.1,34.3
			c1.8,1,2.8,2.1,2.8,3.7c0.1,6.4-4.8,9.9-11.4,10c-6.2,0.1-7.4-1.4-7.4-9.9c0-4.7,0.1-12,0-18C405.5,191.8,405.4,188.1,405.5,184.4
			z"/>
		<path class="st13" d="M460.6,199.5c1.1,0.8,1.8,2.7,1.9,4.4c0.5,7.1-3.2,9.4-7.4,9.9c-3.1,0.5-6.3,0.8-9.5,1
			c-5.2,0.4-11.3-2.3-11.5-5.6c-1.2-17.8-1-19.6-1.9-33c-0.6-1.8-1-3.7-1.1-5.6c-0.3-3.8,3.7-6.7,10.9-7.1c5.3-0.4,6,1.1,6.2,3.5
			c0.4,6.5,0.8,19.3,1.3,33.4C452.6,200.2,458.9,199.6,460.6,199.5z"/>
		<path class="st13" d="M486.5,143.4c5.2,0.2,7.7,2.8,8,6.3l-13.9,26.2l-0.6,11.8c-0.2,3.7-3,7.3-12.1,6.9c-4.3-0.2-5.5-1.5-5.2-7.1
			c0.1-2.4,0.3-5.4,0.4-7.5c0.2-1.4,0.2-2.7,0.4-4.1l-7.2-21.3c-1.7-1.4-2.7-3.5-2.7-5.7c0.2-4.3,7.1-6.5,12-6.3
			c3.5,0.1,5.4,1.6,6.5,5.6l3.7,12.1l4.6-12C481.8,144.6,483,143.3,486.5,143.4z"/>
		<path class="st13" d="M555.5,206.5c4.6,4.9,5.3,5,8.9,5c0.6,0.9,0.9,1.9,1,3c0.5,5.5-2.7,10.4-8.8,10.9c-4.2,0.4-5.6-0.9-7.9-4.5
			c-3-4.3-4.5-6.3-6.3-7.2l0.1,6.1c0,5-1.5,6.5-7,7c-6.2,0.6-6.7-0.9-7.5-9.3c-0.5-4.8-1-11.5-1.2-17.3c-0.2-3.4-0.5-6.9-0.7-10.3
			c-0.6-1.8-1-3.6-1.2-5.5c-0.3-3.7,1.7-5.5,10.5-7.1c3.5-1.9,7.3-3,11.2-3.3c10-0.9,14.6,4.7,15.4,13.1
			C562.8,195,560.7,199.4,555.5,206.5z M541.8,202.8c1.9-0.1,3.8,0.1,5.7,0.5c1.1-3.1,1.5-6.4,1.3-9.7c-0.4-4.6-2.3-6.7-7.7-6.6
			L541.8,202.8z"/>
		<path class="st13" d="M565.9,169c-0.5-1.8-0.7-3.7-0.8-5.6c0-3.8,4.1-6.5,11.3-6.6c4.8,0,5.6,2.1,5.6,4.8c0,4.9-0.5,12.2-0.5,20.4
			c0.1,11.8,1.6,13.4,7.2,14.5c-0.1-6,0.1-28.1,0.1-31.4c0-4.9,0.2-8.4,7.2-8.4c3.5,0,6.7,0.9,7.9,2.4c0.1,6.5-0.2,24.9-0.1,39.2
			c0.1,6.1-3.6,7.5-12.2,8c-2.3,1.4-5.8,2.3-10.2,2.4c-12.4,0.1-15.8-8.1-16-25.2C565.3,176.8,565.5,174.6,565.9,169z"/>
		<path class="st13" d="M636,212.4c1,0.9,1.5,2.9,1.5,4.6c-0.2,7.1-4.1,9-8.4,9.2c-2.6,0.2-6,0.2-9.5,0.1c-5.2-0.2-11-3.4-10.9-6.8
			c0.6-17.9,0.9-19.6,1.3-33c-0.4-1.9-0.6-3.8-0.6-5.7c0.1-3.8,4.3-6.3,11.6-6c5.3,0.2,5.9,1.7,5.8,4.1c-0.2,6.5-1.1,19.3-2,33.4
			C627.9,212.4,634.3,212.4,636,212.4z"/>
		<path class="st13" d="M664.3,209.4c-2.6,0.8-6.1,1.3-12.6,1.9c-2,0.2-4.1,0.3-6.1,0.3c-4.2-0.1-9-2.6-9.3-5.9
			c-0.4-4.7-1-12.3-1.3-18.7c-0.2-3.8-0.5-7.6-0.8-11.6c-1.2-2.2-1.8-4.6-2-7c-0.4-4.1,1.7-6.4,10.7-7.2c5.1-0.4,19-1.4,22.2-1.7
			c1.1,0.9,1.9,3.4,2.1,5.2c0.5,5.2-1.7,7.6-6.1,8.3c-2,0.5-7.7,1.1-12.1,1.5l0.5,8.7c4-0.7,12.5-1.5,13.8-1.6
			c0.8,0.9,1.3,2.1,1.3,3.4c0.4,4.8-1.3,7.4-4.3,8c-1.3,0.4-5.3,0.6-10.1,1.3l0.4,5.2l16.3-1.4c0.8,0.9,1.3,2.1,1.3,3.3
			C668.9,205.8,667.1,208.6,664.3,209.4z"/>
		<path class="st13" d="M689.8,175.4c10,0.1,14.6,5.2,14.6,10.3c0,6-3.5,8.4-7.8,8.4c-1.1,0-2.2-0.2-3.3-0.5
			c-0.7-3.5-2.3-5.2-6.8-6.7c-0.4,1-0.6,2.2-0.6,3.3c0,2.4,0.5,3,10.9,9.9c5.9,3.7,8,6.6,7.9,12c-0.1,8-6.2,15.4-18.3,15.3
			c-9.9-0.1-16.5-3.1-16.5-11.1c0-4.8,3-7.9,7-7.9c0.7,0,1.5,0.1,2.2,0.3c3.7,6.8,5.9,8.4,8.6,8.4c1.9,0,2.6-1,2.7-2.1
			s-1.4-2.6-11.1-9.4c-5.2-3.8-7-7.3-7-12.5c0-4.5,1.9-9.1,5.7-11.8C680.6,177.1,683.4,175.4,689.8,175.4z"/>
		<g class="st14">
			<path class="st15" d="M683,191.9c2.7,0,2.8-4.3,0-4.3S680.2,191.9,683,191.9z"/>
		</g>
		<g class="st14">
			<path class="st15" d="M678.7,192.8c0.8,0,1.4-0.6,1.4-1.4c0-0.8-0.6-1.4-1.4-1.4s-1.4,0.6-1.4,1.4
				C677.2,192.1,677.9,192.8,678.7,192.8z"/>
		</g>
		<g class="st14">
			<path class="st15" d="M682.1,196.2c0.4,0,0.7-0.4,0.6-0.8c0-0.3-0.3-0.6-0.6-0.6c-0.4,0-0.7,0.4-0.6,0.8
				C681.6,195.9,681.8,196.2,682.1,196.2z"/>
		</g>
		<g class="st14">
			<path class="st15" d="M660.1,165.2c2.8,0,2.8-4.3,0-4.3S657.4,165.2,660.1,165.2z"/>
		</g>
		<g class="st14">
			<path class="st15" d="M655.9,166c0.8-0.1,1.4-0.8,1.3-1.5c-0.1-0.7-0.6-1.2-1.3-1.3c-0.8,0.1-1.4,0.8-1.3,1.5
				C654.7,165.4,655.2,166,655.9,166z"/>
		</g>
		<g class="st14">
			<path class="st15" d="M659.4,169.4c0.4,0,0.7-0.3,0.7-0.7s-0.3-0.7-0.7-0.7s-0.7,0.3-0.7,0.7C658.6,169.1,659,169.4,659.4,169.4z
				"/>
		</g>
		<g class="st14">
			<path class="st15" d="M626.2,217.6c2.8,0,2.8-4.3,0-4.3S623.5,217.6,626.2,217.6z"/>
		</g>
		<g class="st14">
			<path class="st15" d="M621.9,218.5c0.8,0,1.4-0.6,1.4-1.4c0-0.8-0.6-1.4-1.4-1.4s-1.4,0.6-1.4,1.4S621.2,218.5,621.9,218.5
				L621.9,218.5z"/>
		</g>
		<g class="st14">
			<path class="st15" d="M625.4,221.9c0.4,0,0.7-0.4,0.6-0.8c0-0.3-0.3-0.6-0.6-0.6c-0.4,0-0.7,0.4-0.6,0.8
				C624.8,221.6,625.1,221.8,625.4,221.9z"/>
		</g>
		<g class="st14">
			<path class="st15" d="M578.9,181.6c2.7,0,2.8-4.3,0-4.3S576.1,181.6,578.9,181.6z"/>
		</g>
		<g class="st14">
			<path class="st15" d="M574.6,182.5c0.8-0.1,1.4-0.8,1.3-1.5c-0.1-0.7-0.6-1.2-1.3-1.3c-0.8,0.1-1.4,0.8-1.3,1.5
				C573.3,181.9,573.9,182.4,574.6,182.5z"/>
		</g>
		<g class="st14">
			<path class="st15" d="M578,185.9c0.4,0,0.7-0.3,0.7-0.7s-0.3-0.7-0.7-0.7s-0.7,0.3-0.7,0.7C577.3,185.6,577.6,185.9,578,185.9z"
				/>
		</g>
		<g class="st14">
			<path class="st15" d="M553.7,180.9c2.8,0,2.8-4.3,0-4.3S550.9,180.9,553.7,180.9z"/>
		</g>
		<g class="st14">
			<path class="st15" d="M549.4,181.8c0.8-0.1,1.4-0.8,1.3-1.5c-0.1-0.7-0.6-1.2-1.3-1.3c-0.8,0.1-1.4,0.8-1.3,1.5
				C548.1,181.2,548.7,181.7,549.4,181.8z"/>
		</g>
		<g class="st14">
			<path class="st15" d="M552.9,185.2c0.4,0,0.7-0.4,0.6-0.8c0-0.3-0.3-0.6-0.6-0.6c-0.4,0-0.7,0.4-0.6,0.8
				C552.3,184.9,552.6,185.2,552.9,185.2z"/>
		</g>
		<g class="st14">
			<path class="st15" d="M489,151.6c2.7,0,2.8-4.3,0-4.3S486.3,151.6,489,151.6z"/>
		</g>
		<g class="st14">
			<path class="st15" d="M484.7,152.4c0.8-0.1,1.4-0.8,1.3-1.5s-0.6-1.2-1.3-1.3c-0.8,0.1-1.4,0.8-1.3,1.5
				C483.5,151.8,484,152.4,484.7,152.4z"/>
		</g>
		<g class="st14">
			<path class="st15" d="M488.2,155.8c0.4,0,0.7-0.4,0.6-0.8c0-0.3-0.3-0.6-0.6-0.6c-0.4,0-0.7,0.4-0.6,0.8
				C487.6,155.5,487.9,155.8,488.2,155.8z"/>
		</g>
		<g class="st14">
			<path class="st15" d="M444.6,178.1c2.7,0,2.8-4.3,0-4.3S441.8,178.1,444.6,178.1z"/>
		</g>
		<g class="st14">
			<path class="st15" d="M440.3,179c0.8-0.1,1.4-0.8,1.3-1.5s-0.6-1.2-1.3-1.3c-0.8,0.1-1.4,0.8-1.3,1.5S439.6,178.9,440.3,179z"/>
		</g>
		<g class="st14">
			<path class="st15" d="M443.8,182.4c0.4,0,0.7-0.3,0.7-0.7s-0.3-0.7-0.7-0.7c-0.4,0-0.7,0.3-0.7,0.7
				C443.1,182.1,443.4,182.4,443.8,182.4z"/>
		</g>
		<g class="st14">
			<path class="st15" d="M418,199.6c2.7,0,2.8-4.3,0-4.3S415.3,199.6,418,199.6z"/>
		</g>
		<g class="st14">
			<path class="st15" d="M413.7,200.4c0.8-0.1,1.4-0.8,1.3-1.5s-0.6-1.2-1.3-1.3c-0.8,0.1-1.4,0.8-1.3,1.5
				C412.5,199.8,413,200.4,413.7,200.4z"/>
		</g>
		<g class="st14">
			<path class="st15" d="M417.2,203.8c0.4,0,0.7-0.4,0.6-0.8c0-0.3-0.3-0.6-0.6-0.6c-0.4,0-0.7,0.4-0.6,0.8
				C416.6,203.5,416.9,203.8,417.2,203.8z"/>
		</g>
		<g class="st14">
			<path class="st15" d="M360.9,161.9c2.8,0,2.8-4.3,0-4.3S358.1,161.9,360.9,161.9z"/>
		</g>
		<g class="st14">
			<path class="st15" d="M356.6,162.7c0.8-0.1,1.4-0.8,1.3-1.5s-0.6-1.2-1.3-1.3c-0.8,0.1-1.4,0.8-1.3,1.5
				C355.4,162.1,355.9,162.7,356.6,162.7z"/>
		</g>
		<g class="st14">
			<path class="st15" d="M360.1,166.1c0.4,0,0.7-0.3,0.7-0.7s-0.3-0.7-0.7-0.7c-0.4,0-0.7,0.3-0.7,0.7S359.7,166.1,360.1,166.1z"/>
		</g>
		<g class="st14">
			<path class="st15" d="M329.4,183.7c2.8,0,2.8-4.3,0-4.3S326.6,183.7,329.4,183.7z"/>
		</g>
		<g class="st14">
			<path class="st15" d="M325.1,184.6c0.8,0,1.4-0.6,1.4-1.4c0-0.8-0.6-1.4-1.4-1.4s-1.4,0.6-1.4,1.4
				C323.7,183.9,324.3,184.6,325.1,184.6z"/>
		</g>
		<g class="st14">
			<path class="st15" d="M328.6,188c0.4,0,0.7-0.4,0.6-0.8c0-0.3-0.3-0.6-0.6-0.6c-0.4,0-0.7,0.4-0.6,0.8
				C328,187.7,328.2,187.9,328.6,188z"/>
		</g>
		<g class="st14">
			<path class="st15" d="M291.1,164.7c2.7,0,2.8-4.3,0-4.3S288.3,164.7,291.1,164.7z"/>
		</g>
		<g class="st14">
			<path class="st15" d="M286.8,165.5c0.8-0.1,1.4-0.8,1.3-1.5s-0.6-1.2-1.3-1.3c-0.8,0.1-1.4,0.8-1.3,1.5
				C285.6,164.9,286.1,165.4,286.8,165.5z"/>
		</g>
		<g class="st14">
			<path class="st15" d="M290.3,168.9c0.4,0,0.7-0.4,0.6-0.8c0-0.3-0.3-0.6-0.6-0.6c-0.4,0-0.7,0.4-0.6,0.8
				C289.7,168.6,290,168.9,290.3,168.9z"/>
		</g>
		<path class="st9" d="M526.2,237.7c-0.1,5.9-5,12.4-10.9,12.3c-5.9-0.1-11.2-4-10.3-13.5C514.7,237.1,519.6,237.6,526.2,237.7z"/>
		<path class="st16" d="M539.9,219.4c-0.6,0.7-1.6,0.8-2.3,0.2c-0.7-0.6-0.8-1.6-0.2-2.3L515,244c-0.6,0.7-0.5,1.7,0.2,2.3
			s1.7,0.5,2.3-0.2l0,0L539.9,219.4z"/>
		<path class="st12" d="M534.9,244L534.9,244c4.5-5,4-12.7-1-17.2s-12.7-4-17.2,1c-0.1,0.2-0.3,0.3-0.4,0.5l0,0
			c-3.5,4.2-2,10.8,3.2,15.1S531.4,248.2,534.9,244L534.9,244z"/>
		<path class="st13" d="M540.6,225c-1.2,1.4-3.7,1.4-5.5-0.2s-2.3-3.9-1.1-5.4l-7.6,9.1c-1.2,1.4-0.7,3.9,1.1,5.4
			c1.8,1.5,4.3,1.6,5.5,0.1L540.6,225z"/>
		<path class="st12" d="M542.3,230.2c-2.8,3.4-8.5,3.3-12.6-0.2c-4.1-3.5-5.2-9-2.4-12.4c2.8-3.4,8.5-3.3,12.6,0.2
			C544,221.3,545.2,226.9,542.3,230.2z"/>
		<path class="st13" d="M543.7,229.8c-2.6,3.1-8.1,2.8-12.2-0.7c-4.1-3.5-5.4-8.8-2.8-11.9c2.6-3.1,8.1-2.8,12.2,0.7
			C545,221.4,546.3,226.7,543.7,229.8z"/>
		<g class="st17">
			<path class="st12" d="M423.9,327.8c-0.1-0.2-0.1-0.5,0-1s0.2-1.1,0.3-1.9c0-1.2,0.1-2,0.1-2.3v-1.2c0-0.6,0.1-1.2,0.1-1.6
				l0.1-1.7c0.1-0.4,0.1-1,0.1-1.8s0-1.9,0.2-3.2c0.2-1.3,0.3-2.1,0.4-2.4v-1.2c0-0.1,0-0.5,0.1-1.3v-0.4c0.1-0.6,0.1-1,0-1.1
				l0.6-2.2l0.3-1.2c0.1-0.2,0.4-0.5,0.9-1c0.1-0.1,0.6-0.2,1.4-0.1c0.8,0,1.4,0.1,1.8,0.1c0.4,0.1,0.7,0.2,0.8,0.4
				c0.1,0.2,0.2,0.6,0.3,1.1c0.2,0.5,0.3,1.2,0.1,2c0,0.2,0,0.4,0,0.5v0.6c0.1,0.8,0,1.6-0.1,2.5c0,0.3,0,0.6,0,1v0.5
				c0,0.8-0.1,1.5-0.3,2.1l-0.1,1.5c0,0.5-0.1,1-0.2,1.5c0,0.2,0,0.6-0.1,1.4c-0.1,0.3-0.2,0.6-0.3,1c0.1,0.3,0.1,0.7,0,1.3
				c-0.1,0.1-0.1,0.6,0.1,1.4c-0.2,0.5-0.2,1.5,0,2.8v1.2c0.1,1.3,0,2.5-0.2,3.8v0.4c0,0.8-0.1,1.4-0.2,1.7c0.1,0.7,0,1.5-0.1,2.6
				v0.4l-0.2,1.4c-0.5,2.8-1.9,4.4-4,4.7c-2.6,0.4-4.6-0.4-6.1-2.3l-0.3-0.9c-0.4-0.1-1-1-1.6-2.8c-1-2.7-1.6-4.2-1.7-4.5
				c-0.5-1.6-0.8-2.4-0.8-2.5l-0.1-1.1c0-0.1-0.1-0.2-0.2-0.5c-0.1-0.2-0.2-0.5-0.3-0.7c0-0.3-0.1-0.9-0.4-1.8
				c0-0.1-0.1-0.6-0.2-1.5l-0.5-5.4c0-0.1,0-0.3,0-0.6l-0.3,1.3c-0.4,2.7-0.6,4.3-0.8,4.8l-0.5,6l-0.1,2.4l-0.3,2.9
				c-0.1,1.5,0,2.9,0,4.1c-0.1,1.2-0.3,1.9-0.7,2.3c-0.4,0.4-1,0.6-1.8,0.6c-0.6-0.2-1.3-0.5-2.2-1c-0.3-0.2-0.5-0.5-0.5-1
				c-0.1-0.5-0.3-0.9-0.6-1.3c-0.3-0.4-0.5-0.8-0.6-1.2l-0.6-4.6c0-0.6,0.1-1.3,0.2-2s0.1-1.4,0.1-2.2c0-0.8,0.1-1.6,0.4-2.6
				s0.4-1.8,0.4-2.5s0.1-1.6,0.2-2.7c0.2-1.1,0.2-1.9,0.3-2.4c0-0.5,0.1-0.9,0.2-1.2c0-0.6,0.1-1.1,0.2-1.5c0-0.1,0.1-0.7,0.4-1.8
				c0-0.3,0.1-0.7,0.2-1.3c0.1-0.6,0.3-1.3,0.4-2.3s0.4-1.7,0.7-2.3c0.3-0.6,0.9-1.3,1.6-2c0.4-0.2,0.7-0.7,1-1.5
				c0.3-0.4,0.8-0.8,1.6-1.1c0.3-0.2,0.7-0.3,1.1-0.3c0.5,0,0.9,0.2,1.3,0.5c1.5,0.7,2.5,1.7,2.8,3.3l0.2,1.5c0,0.2,0.2,0.8,0.5,1.6
				c0,0.4,0,1,0.2,1.7c0,0.6,0.1,1.1,0.4,1.8c0.3,2.1,0.6,3.5,0.8,4.3c0.2,0.3,0.3,0.7,0.4,1.2c0.1,0.4,0.2,0.9,0.4,1.6
				c0.1,0.7,0.2,1.5,0.5,2.4c1.5,5.4,2.4,8.5,2.7,9.2c0.1-0.2,0.1-0.7,0.2-1.5L423.9,327.8z"/>
			<path class="st12" d="M437,329.6l0.3-3.1c0.4-2.7,1.3-5.1,2.8-7c1.4-1.6,3.4-2.4,5.8-2.3h0.4c2.3,0.1,4,0.6,5,1.7
				c1.1,0.9,1.9,1.9,2.4,3s0.8,1.8,1,2.3c0.1,0.5,0.2,1.2,0.2,2.1c0,1.7-0.4,2.7-1.1,2.9c0.4,3.8,0,6.8-1.3,9
				c-0.4,0.9-1,1.9-1.8,2.9c-0.6,0.7-1.6,1.1-3,1.1s-2.7-0.2-3.7-0.4c-1.1-0.2-2.2-0.7-3.5-1.7c-1.2-0.9-2.1-2.3-2.6-4.3
				C437.3,334.1,437,332,437,329.6z M448.2,324.4c-0.2-1.6-1-2.4-2.3-2.3c-0.7,0-1.4,0.5-1.9,1.4c-0.8,1.4-1.1,3.2-1.1,5.4
				c0,2.2,0.1,3.8,0.3,4.8c0.2,1,0.5,1.9,1.1,2.6c0.3,0.6,0.8,0.8,1.4,0.8c1.1,0,2-0.9,2.6-2.7l0.5-1.4c0.2-0.2,0.3-0.4,0.1-0.6
				c0.4-1,0.7-2.2,0.8-3.5c-0.4-0.3-0.6-0.6-0.7-0.8c-0.2-0.7-0.3-1.2-0.3-1.4c-0.3-0.2-0.4-0.6-0.4-1.2
				C448.2,324.9,448.2,324.5,448.2,324.4z"/>
			<path class="st12" d="M473.4,328.5l0.5-2.6c0-0.5,0.1-1,0.3-1.6c0-0.7,0.4-1.7,1.1-3c0-0.1,0.2-0.6,0.6-1.5
				c0-0.1,0.4-1.2,1.3-3.5l0.8-1.7c0-0.2,0.1-0.5,0.3-0.9c0.2-0.5,0.4-0.9,0.5-1.4s0.3-0.9,0.4-1.3c0.6-1.1,1.1-2,1.6-2.7
				c0.9-1.6,2.5-2.2,4.8-2l1.9,0.2c1.2,0.4,2.1,0.7,2.7,1.1c0.9,0.4,1.5,0.8,1.8,1.2c0.3,0.4,0.4,1.1,0.3,2.1c0,0.5,0.1,2.6,0.1,6.2
				c0.1,3.7,0.1,5.5,0.1,5.6l0.2,2.6c0,0.2,0.3,3.1,1,8.7l1.2,4.2c0.7,2.3,1.1,3.5,1.2,3.6s0.2,0.5,0.5,1.3c0.4,1.3,0,2.2-1.2,2.6
				c-1.1,0.1-1.9,0-2.4-0.4c-0.2,0-0.7-0.2-1.4-0.6c-0.1-0.2-0.3-0.4-0.7-0.6c-0.4-0.2-0.6-0.4-0.7-0.5c-0.4-0.1-0.8-0.8-1.1-1.9
				c-0.1-0.1-0.3-0.4-0.6-1c-0.3-0.6-0.3-1-0.2-1.4c-0.3-0.4-0.4-1.1-0.3-2.2c-0.3-0.6-0.5-1.6-0.4-2.8c0-1.3-0.1-2.3-0.5-3
				c-2.1,0.8-4.3,1.3-6.6,1.3c-0.4,0-0.7,0.1-0.7,0.2c0,0.4-0.2,1-0.4,1.9l-1.2,6.6c0.3,3-0.1,4.5-1.2,4.6c-0.3,0-0.9,0-1.6,0.2
				c-0.7,0.1-1.3,0-1.8-0.5c-0.9-0.6-1.5-1.1-1.9-1.7s-0.5-1.2-0.4-1.8c0.1-0.6,0.2-1.8,0.4-3.6c0.1-0.1,0.1-0.5,0.1-1.3
				s0.1-1.4,0.2-1.9l1.1-3.7c0.1-0.1,0.3-0.7,0.5-1.8c0-0.1-0.1-0.3,0-0.6L473.4,328.5z M481.5,327c0.1-0.1,0.6-0.2,1.4-0.2
				c0.9-0.1,1.9-0.4,3.1-0.9c0,0,0-0.5,0-1.4c-0.1-1.7-0.1-2.9-0.2-3.6c0-1-0.1-1.6-0.2-2c0-0.8-0.2-2.3-0.7-4.8l-2.9,8.8
				c-0.6,2.5-0.9,4-0.8,4.5L481.5,327z"/>
			<path class="st12" d="M503.4,311.9l0.5-3.5l0.1-1.9c0-0.5,0.1-0.9,0.3-1.2l0.6-0.8c1.1-0.8,1.8-1.3,2.1-1.4
				c0.3-0.1,0.8-0.1,1.4,0.1s1,0.3,1.1,0.4l0.6,0.6c0.4,0.2,0.5,0.5,0.5,1c0.2,0.2,0.2,0.4,0.2,0.5c-0.2,0.3-0.7,2.6-1.4,7l-0.8,8.1
				l-0.4,1.6c0,0.5,0,0.8,0,0.9v1.1c-0.1,0.8-0.2,1.3-0.3,1.5c0,0.2-0.1,0.4-0.1,0.7c0.1,0.1,0.1,0.4,0.1,0.9s-0.1,0.9-0.2,1
				c-0.1,0.6-0.2,1.2-0.2,1.8c0,0.6,0,1.2,0.1,1.8c0.1,0.6,0.1,1.2,0,1.8l0.2,2.3v0.9c0.1,0.7,0.1,1.3,0.1,1.7l0.2,3.1l0.2,1.6
				c0.1,0.7,0,1.3-0.2,2c-0.2,0.6-0.6,1-1,1.2c-1.3,0.5-2.6,0.1-4-1.2h-0.5c-0.3-0.3-0.5-0.8-0.6-1.3c-0.3-0.2-0.4-0.5-0.4-0.9
				c0.1-0.4,0-0.8-0.2-1.1c-0.2-0.3-0.3-0.6-0.3-0.9c0-0.5,0-1-0.1-1.4l0.1-0.5c-0.1-0.1-0.2-0.3-0.2-0.5l-0.1-1.1v-0.5
				c0-0.3,0-0.5,0-0.7c0-0.1,0-0.3,0.2-0.6c-0.1-0.2-0.1-0.7,0-1.7c0.3-3.1,0.5-5.2,0.6-6.3l0.1-1.4l0.1-1.7c0.1-1,0.1-2.2,0.2-3.7
				s0.2-2.3,0.3-2.4v-0.5c0-1,0.2-2.3,0.6-3.9C503.2,312.9,503.4,312,503.4,311.9z"/>
			<path class="st12" d="M521.6,319.3c1.4-1.1,3.5-1.2,6.3-0.3c0.7,0.3,1.3,0.8,1.8,1.5c0.3,0.5,0.5,1.2,0.6,2.1c0.1,1,0.1,2,0,3
				c-0.1,1-0.4,1.9-0.9,2.6s-1.3,1.2-2.5,1.4c-0.8,0-1.4-0.3-1.5-0.8c-0.3-0.8-0.4-1.4-0.2-2c0.1-0.8,0.1-1.8-0.3-3
				c-0.1-0.1-0.3-0.1-0.6-0.1l-0.8,1.3c-0.1,0.2-0.5,1.3-1.1,3.5c-0.7,2.2-1,3.6-1.1,4.2c-0.1,0.6-0.1,1.1-0.2,1.6
				c-0.1,2.8,0,4.7,0.4,5.8c0.4,1.1,0.7,1.8,1.1,2.1c0.1,0.1,0.5,0.2,1,0.2c0.6,0,1.2-0.1,1.9-0.4c0.6-0.4,1.2-1,1.7-1.7
				c0-0.2,0.4-0.4,1-0.7l0.5-0.5c1.5-0.1,2.2,0.6,2.3,2c0.1,0.4-0.1,0.8-0.4,1.3c-0.2,0.5-0.4,0.7-0.4,0.8c0,0.2-0.6,1.1-1.7,2.7
				c-0.4,0-0.7,0.1-0.8,0.2c-0.8,0.6-1.7,0.8-2.8,0.6c-0.1,0-0.2-0.1-0.4-0.1c-0.1,0-0.7-0.1-1.8-0.4h-0.8c-1-0.3-1.7-0.6-2.1-0.9
				c-0.5-0.1-1-0.4-1.7-0.8l-0.8-0.9c-0.1,0-0.4-0.2-0.7-0.6c-0.4-0.4-0.6-0.6-0.6-0.8c-0.1-0.2-0.2-0.5-0.4-0.9
				c-0.2-0.4-0.3-0.7-0.3-1.1L515,339c0-0.5,0-0.8-0.1-0.9c0-0.1,0-0.3-0.2-0.7c0-0.4,0-1-0.1-1.8c-0.1-1.2,0-2,0.4-2.3
				c0,0,0-0.4-0.1-1.1l0.1-2.2c0-0.6,0.2-1.5,0.6-2.6c0.1-0.5,0.3-1.2,0.8-2.1l0.3-0.8c0.1-0.6,0.5-1.3,1.1-1.9l0.9-1l0.8-1.2
				C520.1,320,520.8,319.6,521.6,319.3z"/>
			<path class="st12" d="M540.8,319.4c0.3,0,0.6,0,0.8-0.1c0.2-0.1,0.5-0.2,1-0.4c0.5-0.1,1.7-0.1,3.6,0.1c1,0.2,2.2,0.8,3.4,1.7
				c1.3,0.7,2.3,1.6,3.1,2.7c1,3,1.5,5.6,1.6,7.8c0,3.4-0.5,6.1-1.2,8.3c-1.1,2.5-1.8,3.9-2.1,4.4c-0.1,0.5-0.4,1.2-1,2
				c-0.2,0-0.4,0-0.5,0c0,0-0.1,0.2-0.3,0.4c-0.2,0.2-0.5,0.3-0.9,0.3c-0.5,0.1-0.8,0.2-0.9,0.3c-0.1,0.1-0.3,0.1-0.6,0.1l-1.5,0.1
				l-1.6-0.1c-1.1,0-1.9-0.2-2.6-0.5l-1.8-1.3l-0.6-0.7c-0.1,0-0.2-0.1-0.2-0.2s0-0.2-0.1-0.3c-0.4-0.3-0.5-0.6-0.5-1
				c-0.4-0.7-0.6-1.2-0.6-1.5s0-0.5-0.2-0.6c0-0.6-0.1-1.5-0.4-2.7l-0.1-0.8v-0.7c0-0.6-0.2-1.3-0.4-2.1c0.1-0.1,0.1-0.3,0-0.7
				c0-0.9,0.1-1.5,0.1-1.9l-0.2-0.8c0.1-0.2,0.2-0.5,0.2-0.7s0-0.5,0.2-0.9v-0.4l0.3-2.1c0-0.3,0.1-0.5,0.1-0.7V326
				c0.1,0,0.1-0.2,0.2-0.6l0.3-0.5l0.1-0.5c0-0.1,0-0.2,0-0.4l0.3-0.9c0-0.1,0.2-0.3,0.4-0.7c0-0.2,0.2-0.5,0.5-0.9
				c0-0.2,0.1-0.4,0.3-0.7c0-0.4,0.2-0.8,0.7-1.4C540.1,319.6,540.5,319.4,540.8,319.4z M548.9,331.1l-0.2-1.6c0-0.1,0-0.3-0.1-0.4
				c-0.1-0.2-0.1-0.5-0.2-0.9c-0.3-0.2-0.5-0.4-0.6-0.6l-0.3-0.5l-0.2-0.5c-0.2-0.1-0.3-0.3-0.3-0.5s-0.1-0.4-0.2-0.5
				c-0.1-0.1-0.2-0.3-0.3-0.4s-0.2-0.2-0.2-0.3c-0.4-0.3-0.8-0.3-1.4-0.1s-1,0.4-1.1,0.8c-0.7,1.5-1.1,2.5-1.1,2.9
				c-0.6,1.9-0.8,3.3-0.6,4.1c-0.1,1.3,0,3,0.3,5.3v0.7c0.3,0.5,0.7,1.1,1,2c0.4,0.5,0.6,0.9,0.8,1.1s0.2,0.4,0.3,0.4
				c0.4,0.3,0.6,0.5,0.7,0.6c0.3-0.1,0.5-0.3,0.7-0.3V342c0.2-0.2,0.4-0.3,0.6-0.3c0,0,0.1-0.1,0.4-0.4l0.3-0.3c0.6-1.3,1-1.9,1-2
				s0-0.2,0-0.4c-0.1-0.4,0-0.6,0.3-0.8l0.8-2.1v-0.4c0.1-0.2,0.1-0.4-0.1-0.5v-0.4c0.1-0.2,0.1-0.3,0.1-0.5c0.2-0.6,0.3-1,0.2-1.1
				c0-0.1,0-0.3,0-0.4c0-0.2,0.1-0.3,0.2-0.4C549.6,331.5,549.4,331.3,548.9,331.1z"/>
			<path class="st12" d="M577.9,342.9l-0.1,1.8c0,0.7,0,1.2,0.1,1.5s0.1,0.7,0.1,0.9c0,0.6-1.1,0.5-3.3-0.4c-0.1,0-0.3,0-0.6-0.1
				s-0.5-0.1-0.6-0.2s-0.2-0.2-0.4-0.3c-0.6-0.2-0.9-0.5-0.8-1c0-0.2-0.1-0.4-0.2-0.7c-0.1-0.2-0.1-0.6-0.1-1s0-1.1,0-2
				c-0.1-0.9-0.1-1.4,0-1.5c0.4-1.9,0.7-3.1,0.9-3.8c0.5-2.1,0.6-4.1,0.4-6c-0.2-1.9-0.9-3-2.1-3.1c-1,0-1.8,0.6-2.6,1.8
				c-1.3,2.4-2.1,6.6-2.3,12.7c0,1,0.1,2,0.3,2.9s0.3,1.7,0.2,2.3c-0.1,0.6-0.7,0.9-1.7,0.7c-1.1-0.1-1.7-0.3-2.1-0.6l-0.7-0.4
				c-0.5,0-0.8-0.2-0.9-0.7c-0.1-0.2-0.2-0.4-0.5-0.7l-1-1.4c-0.3-0.3-0.4-0.6-0.3-0.9v-1.1v-0.4c-0.3-0.3-0.4-0.8-0.3-1.6
				c0.1-0.8,0.3-2.3,0.7-4.5c0.5-3.1,0.9-5.5,0.9-7.1c0-1.5,0-2.3,0.1-2.3l0.7-5.4l0.1-2.2c0.1-2.6,0.5-5.1,1.2-7.5
				c0.2-0.4,0.4-0.7,0.5-0.9c0.1-0.1,0.2-0.3,0.2-0.5c0.1-0.6,0.3-1.2,0.7-1.5l-0.1,0.1c0.1-0.3,0.3-0.5,0.7-0.8
				c0.7-0.3,1.7-0.2,3.2,0.4c0.3,0.2,0.5,0.3,0.6,0.4c0.2,0.1,0.5,0.2,0.7,0.2c0.7,0.5,1,1,0.9,1.4c0,0.1-0.2,0.7-0.5,1.9
				c-0.2,0.9-0.3,1.4-0.3,1.6c-1,3.3-1.7,6.9-2.2,11c0.5-0.5,1.2-0.9,1.8-1.2c1.6-0.5,2.8-0.8,3.7-0.7c2.9,0.3,4.8,1.5,5.8,3.7
				c1,1.8,1.3,4.2,0.9,7.4C579.2,333.7,578.8,337,577.9,342.9z"/>
			<path class="st12" d="M587,330c0.1-0.3,0.2-0.6,0.4-0.9v-0.4c0.2-0.6,0.3-0.9,0.3-0.9c0-0.1,0.1-0.1,0.2,0c0-0.2,0-0.3,0.1-0.4
				c0.1-0.4,0.3-0.8,0.6-1.2c0.3-0.5,0.4-0.8,0.5-0.9c0.3-0.7,0.7-1.1,1.2-1.3c0-0.3,0.6-0.5,1.7-0.6c1.3-0.4,2.3-0.4,3.1-0.1
				c0.4-0.2,1-0.1,1.8,0.4c0.6,0.3,1.2,0.6,1.9,1.1c0.6,0.4,1.1,0.9,1.5,1.4c0.6,0.3,0.9,0.7,1,1.2c1,2.7,1.5,5.1,1.4,7.1l-0.1,0.7
				c0,0.6-0.1,0.9-0.2,1c-0.1,0.1-0.2,0.3-0.2,0.6c0.1,0,0.1,0.2,0,0.5c0,0.2-0.4,1.5-1.1,3.9l-1,1.9c0,0.1-0.1,0.2-0.3,0.4v0.4
				c0,0.1-0.1,0.2-0.3,0.5c-0.4,0.8-0.8,1.4-1.3,1.8c-0.7,1-1.2,1.8-1.7,2.2L596,349l-0.7-0.1c-0.1,0.2-0.2,0.3-0.3,0.3
				s-0.4-0.1-0.9-0.3h0.5c-0.3,0-0.6,0-0.7-0.1c-0.2-0.1-0.3-0.1-0.5-0.1c-0.7-0.4-1.3-0.6-1.6-0.5c-0.2,0-0.8-0.2-1.8-0.5l-1.7-0.4
				l-1.3-0.5c-0.4-0.2-0.7-0.5-1-0.8c-0.1-0.2-0.2-0.4-0.2-0.6l-0.3-1.2c0-0.1,0-0.3-0.1-0.6l0.1-1.6c0.1-0.4,0.1-0.8,0.2-1.1
				c-0.1-0.2-0.1-0.6,0-1.3v-0.7c0-0.1,0-0.3,0.1-0.7c0-0.2,0-0.6,0.1-1.3c0.1-0.7,0.2-1.3,0.2-1.9c0-0.5,0.1-1.2,0.3-2.1
				c0.1-0.3,0.2-0.8,0.3-1.5C586.6,330.9,586.8,330.4,587,330z M590.9,336.6c-0.2,1.4-0.4,2.7-0.4,3.9c0,1.2,0,2,0.2,2.5
				c0,0.4,0.1,0.6,0.2,0.7c0.2,0.1,0.5,0.1,0.8,0c0.6-0.2,0.9-0.5,0.9-0.8c1.2-1.1,1.9-1.8,2.1-2.1c0.2-0.4,0.3-0.6,0.4-0.6
				c0.2-0.2,0.3-0.5,0.3-0.8c0.2-0.2,0.3-0.3,0.4-0.4c0-0.1,0.1-0.5,0.3-1c-0.2-0.3-0.1-0.5,0.1-0.6c0.2-0.1,0.3-0.5,0.3-1.2
				l0.3-1.9c0-0.2,0-0.4,0.1-0.5c0-0.2,0-0.4,0.1-0.7c0.1-0.3,0.1-0.9,0.1-1.6c0-0.8-0.1-1.3-0.4-1.5l-0.1-0.4
				c-0.1-0.3-0.4-0.5-0.9-0.6l-0.5-0.3c0.1,0.2,0,0.6-0.4,0.9C593,331.6,591.7,333.9,590.9,336.6z"/>
			<path class="st12" d="M610.3,315.6l0.5-3.5l0.1-1.9c0-0.5,0.1-0.9,0.3-1.2l0.6-0.8c1.1-0.8,1.8-1.3,2.1-1.4s0.8-0.1,1.4,0.1
				c0.6,0.2,1,0.3,1.1,0.4l0.6,0.6c0.4,0.2,0.5,0.5,0.5,1c0.2,0.2,0.2,0.4,0.2,0.5c-0.2,0.3-0.7,2.6-1.4,7l-0.8,8.1l-0.4,1.6
				c0,0.5,0,0.8,0,0.9v1.1c-0.1,0.8-0.2,1.3-0.3,1.5c0,0.2-0.1,0.4-0.1,0.7c0.1,0.1,0.1,0.4,0.1,0.9s-0.1,0.9-0.2,1
				c-0.1,0.6-0.2,1.2-0.2,1.8c0,0.6,0,1.2,0.1,1.8c0.1,0.6,0.1,1.2,0,1.8l0.2,2.3v0.9c0.1,0.7,0.1,1.3,0.1,1.7l0.2,3.1l0.2,1.6
				c0.1,0.7,0,1.3-0.2,2c-0.2,0.6-0.6,1-1,1.2c-1.3,0.5-2.6,0.1-4-1.2h-0.5c-0.3-0.3-0.5-0.8-0.6-1.3c-0.3-0.2-0.4-0.5-0.4-0.9
				c0.1-0.4,0-0.8-0.2-1.1c-0.2-0.3-0.3-0.6-0.3-0.9c0-0.5,0-1-0.1-1.4l0.1-0.5c-0.1-0.1-0.2-0.3-0.2-0.5l-0.1-1.1V341
				c0-0.3,0-0.5,0-0.7c0-0.1,0-0.3,0.2-0.6c-0.1-0.2-0.1-0.7,0-1.7c0.3-3.1,0.5-5.2,0.6-6.3l0.1-1.4l0.1-1.7c0.1-1,0.1-2.2,0.2-3.7
				c0.1-1.5,0.2-2.3,0.3-2.4V322c0-1,0.2-2.3,0.6-3.9C610.1,316.6,610.3,315.7,610.3,315.6z"/>
		</g>
	</g>
	<g id="mum_x5C_">
		<path class="st18" d="M274.9,237.5c0,0,9,143,8,143s-51-12-51-12l-6-133l23-14L274.9,237.5z"/>
		<path class="st19" d="M203.9,199.5c11.6-5.1,26-4,32-4s29,11,34,20s7.8,12.7,9.4,18.3c1.6,5.7-3,14.7-3.7,15.2
			c-0.7,0.5-27.7,5.5-27.7,5.5l-36,22l-2,102l-11,11l-45,24v-14.1c0,0,19-35.9,20-63.9s-5-65-3-81s7-32,13-39
			S194.9,203.5,203.9,199.5z"/>
		<path class="st20" d="M199.9,310.5c0,0,5,42,0,49s-16.3,14.9-16.3,14.9l29.3,38.1l47,22l14-7l4-12l-18-52c0,0-12-4-13-5
			s-3-22-2-25s-9-18-18-23S202.9,302.5,199.9,310.5z"/>
		<path class="st20" d="M293.7,439.5c0,0,44.3,38,62.6,39c20.9-7,67.7-69,76.8-74s20.9-1,30.1-3s33.4-5,41.8-14s0-7,0-7s6.7,0,7.5-4
			c0.8-4-1.7-3-1.7-3s5-1,5-5s-5.8-3-5.8-3s-0.8-4-3.3-4s-8.4,3-14.2,5s-18.4,5-20,4c-1.7-1-10-1-15.9,0c-0.8-2-0.8-2-1.7-4
			s13.4-2,15-5s1.7-5-1.7-6s-18.4-2-24.2,1c-5.8,3-13.4,11-16.7,18s-1.7,15-6.7,20s-49.3,32-53.5,36s-11.7,12-11.7,12
			s-41.8-36-44.3-40s-18.4,9-18.4,9L293.7,439.5z"/>
		<path class="st20" d="M173.9,459.5c0,0-9,86-8,96s-25,15-28,7s-8-77-2-110S173.9,459.5,173.9,459.5z"/>
		<path class="st21" d="M151.9,401.5c-8,9-16,51-16,51s30,1,36,12c0,11,0,16,0,16s10,16,10,35s2,43,0,52s116,53,124,16
			c-6-27-13-72-11-84s10-26,6-46s-8-25-8-25s12-24,20-26c-6-19-15-28-25-31s-28-8-28-8s-1,37-8,55c-20-6-64-42-65-45
			S159.9,392.5,151.9,401.5z"/>
		<path class="st22" d="M201.9,317.5c0,0,36.5,48,42.7,20S201.9,317.5,201.9,317.5z"/>
		<path class="st19" d="M271.9,246.5c0,0,3,142,2,152s-8,31-8,31s8-5,12-14c1,5,0,16-2,17s12-3,13-47s-3-87-4-96s-1-35-4-50
			s-13-20-13-20l-7,7L271.9,246.5z"/>
		<path class="st20" d="M248.9,226.5c0,0,13,13,23,20c3,8,1,12,1,14s0,9,3,20s1,37-4,44s-9,11-13,13c-4,2-32-1-46-13
			c-13.5-11.6-12-64-12-64S222.9,259.5,248.9,226.5z"/>
		<path class="st20" d="M173.9,283.5c-2,3-1,15,7,18s12-4,12-4s-5-19-10-19S175.9,280.5,173.9,283.5z"/>
		<path class="st19" d="M181.9,251.5c0,0,6,72,6,79s-4,49-1,62s12,39,28,44c-7-23-9-36-8-41c2,8,12,27,20,30c-7-22-14-48-13-72
			s-7-85-4-98C212.9,242.5,181.9,251.5,181.9,251.5z"/>
		<path class="st19" d="M221.9,258.5c4-2,11-4,13-1c2,3-9,2-11,3s-8,7-9,6S217.9,260.5,221.9,258.5z"/>
		<path class="st19" d="M264.9,255.5c3,0,7.9,0.1,6.9,2.6c-0.9,2.4-5.9,0.4-5.9,0.4c-4,0-6,3-7,1S261.9,255.5,264.9,255.5z"/>
		<path class="st19" d="M223.9,276.5c0,0,5-11,13-4C230.9,273.5,224.9,274.5,223.9,276.5z"/>
		<path class="st19" d="M229.9,276.5c2.7,1.3,4,0,4-2s0-4-2-3s-3.7,2.2-3.4,2.6S227.9,275.5,229.9,276.5z"/>
		<path class="st19" d="M272.4,272c0,0-7.4-9.6-13.6-1C266.9,268.5,272.4,272,272.4,272z"/>
		<path class="st19" d="M266.5,272.3c-2.3,1.9-3.9,0.9-4.3-1c-0.5-1.9-0.9-3.9,1.3-3.4c2.2,0.5,4.1,1.3,3.9,1.8
			C267.1,270.1,268.3,270.9,266.5,272.3z"/>
		<path class="st23" d="M256.1,309.1c-4,3.1-11.9,3-15.2-1.5c-1.1-1.6-3.7-0.1-2.6,1.5c4.5,6.3,14.1,6.6,19.9,2.1
			C259.7,310,257.6,307.9,256.1,309.1z"/>
		<path class="st23" d="M260.4,279c-4.6-5-6.8-10.6-6-17.4c0.2-1.3-1.8-1.3-2,0c-0.5,4.4,0.1,8.7,2.1,12.7c0.9,1.9,2.1,3.5,3.5,5
			c1.1,1.2,2.4,2.3,3.2,3.6c0.3,0.8,0.6,1.5,1,2.3c0.8,5.7-2,7.1-8.5,4.1c-0.5-1.2-2.3-0.2-1.7,1c2.9,6.3,11.6,4.1,12.3-2.5
			C264.7,284.3,262.8,281.5,260.4,279z"/>
		<path class="st23" d="M219.6,277.5c-1.9,0.4-3.6,1-5.4,1.8c-1.2,0.5-0.2,2.3,1,1.7c1.6-0.7,3.2-1.2,4.9-1.6
			C221.4,279.1,220.9,277.2,219.6,277.5z"/>
		<path class="st23" d="M221.2,280.2c-2.2,0.7-4.2,1.9-5.8,3.7c-0.8,1,0.6,2.4,1.4,1.4c1.3-1.5,3-2.6,4.9-3.2
			C222.9,281.7,222.4,279.8,221.2,280.2z"/>
		<path class="st23" d="M453.9,364.5c-1.2-1.8-2.5-3.7-4.3-4.4c-1-0.4-1.5,1.5-0.4,1.9c1.5,0.6,2.5,2.3,3.4,3.7
			c1,1.6,1.8,3.2,1.7,5.2c0,1.3,1.6,1.3,1.7,0C456,368.4,455.1,366.4,453.9,364.5z"/>
		<path class="st23" d="M463.3,379.8c-9.7-4.4-21.4-4.8-28.1,6.1c-0.6,1,0.8,2,1.4,1c6.3-10.2,17.4-9.2,26.2-5.2
			C463.9,382.2,464.3,380.2,463.3,379.8z"/>
		<path class="st23" d="M511.1,371.9c-11.7,0.8-21.7,11.5-33.6,9.5c-0.5-1.5-1.1-2.9-1.9-4.2c5.7-0.1,11.4-0.9,16.9-2.7
			c6-1.9,11.9-6.5,18-7.7c1.1-0.2,0.6-2.1-0.4-1.9c-5.7,1.1-10.9,5.3-16.5,7.2c-6.2,2.1-12.6,3.1-19.1,3.1c-0.1,0-0.1,0-0.2,0
			c-1-1.1-2.1-2-3.5-2.7c-1-0.5-1.4,1.4-0.4,1.9c5.3,2.6,6.5,9.7,7.5,15.8c0.2,1.3,1.8,0.7,1.6-0.5c0-0.1,0-0.2,0-0.3
			c4.4-0.1,8.8-0.8,13.1-2.2c4.7-1.5,9-4.5,13.8-5.7c1-0.3,0.6-2.2-0.4-1.9c-4.3,1.1-8.2,3.7-12.3,5.2c-4.7,1.7-9.5,2.5-14.4,2.6
			c-0.2-1.3-0.5-2.7-0.8-3.9c11.8,1.3,21.5-8.7,33-9.6C512.1,373.8,512.2,371.8,511.1,371.9z"/>
		<path class="st24" d="M192.9,443.8c-2.1,3.9-4.5,7.7-7.5,11c-2.6,3-5.8,4-9.3,4.8c0.1-0.3,0.1-0.6,0.2-0.9
			c5.9-6.4,11.5-13.4,10.9-22.7c-0.1-1.3-2.1-1.3-2,0c0.5,7.5-3.3,13.4-7.9,18.7c1.1-4.7,2.2-9.4,3.3-14.1
			c1.7-7.2,2.6-13.5-0.1-20.7c-3.7-9.9-13.5-22.4-25.4-19.6c-1.3,0.3-0.7,2.2,0.5,1.9c13.2-3.1,24.7,15.5,24.9,26.8
			c0.1,6.1-2.1,12.4-3.5,18.3l-2.4,10.4c-0.2,0.2-0.4,0.4-0.6,0.6c-1.3-4.4-6.5-5.3-10.5-6.5c-6.9-2.1-13.9-3.5-21.1-3.3
			c-1.3,0-1.3,2,0,2c5.2-0.1,10.2,0.5,15.2,1.8c4,1,13.7,2.3,14.7,7.2c0.1,0.7,0.9,0.8,1.4,0.6l0,0c-0.1,0-0.1,0-0.2,0
			c-1.1,0.2-0.8,1.7,0,1.9l-0.8,3.5c-0.3,1.3,1.6,1.8,1.9,0.5c0.3-1.5,0.7-2.9,1-4.4c3.9-0.8,7.4-1.5,10.3-4.6
			c3.5-3.7,6.3-8,8.7-12.4C195.2,443.7,193.5,442.7,192.9,443.8z"/>
		<path class="st24" d="M174.5,452.9c-0.7-3.3-3.7-4.2-6.6-5.3c-5.3-1.9-10.7-3.5-16.3-3.9c-1.3-0.1-1.3,1.9,0,2
			c3.8,0.3,7.5,1.1,11.1,2.2c2.8,0.9,9.2,2.1,9.9,5.5C172.8,454.7,174.7,454.2,174.5,452.9z"/>
		<path class="st24" d="M295.9,477.6c-13.7,1.5-26.5,6.3-39.4,10.7c-13.8,4.7-30.1,10.3-44.2,3.5c-1.2-0.6-2.2,1.2-1,1.7
			c12.4,6.1,26.4,2.9,38.9-1.1c15.1-4.7,29.8-11.1,45.6-12.8C297.2,479.5,297.2,477.5,295.9,477.6z"/>
		<path class="st24" d="M288.7,486c-15.9,1.7-29.6,10.4-44.7,14.8c-1.2,0.4-0.7,2.3,0.5,1.9c14.9-4.3,28.5-13.1,44.1-14.7
			C289.9,487.8,289.9,485.8,288.7,486z"/>
		<path class="st24" d="M255.2,529.5c-11.6,2.5-23.5,3.4-35.4,2.7c-10.9-0.7-24.3-1.8-33.5-8.2c-1.1-0.7-2.1,1-1,1.7
			c9.1,6.4,21.8,7.5,32.6,8.4c12.7,1,25.4,0,37.8-2.6C257,531.2,256.4,529.2,255.2,529.5z"/>
		<path class="st24" d="M219.6,538.4c-11.6,0.3-22.6-2.6-32.5-8.6c-1.1-0.7-2.1,1.1-1,1.7c10.2,6.2,21.6,9.2,33.5,8.9
			C220.9,540.3,220.9,538.3,219.6,538.4z"/>
		<path class="st24" d="M206.9,544.2c-6.4-1-12.2-3.3-17.7-6.7c-1.1-0.7-2.1,1-1,1.7c5.6,3.6,11.6,5.9,18.2,6.9
			C207.6,546.3,208.1,544.4,206.9,544.2z"/>
		<path class="st24" d="M291,569.5c-3.6,5.7-14,8.5-20.2,9.8c-7.4,1.6-15,1.6-22.4,0c-1.3-0.3-1.8,1.7-0.5,1.9
			c8.3,1.7,16.8,1.6,25.1-0.4c6.3-1.6,16.1-4.6,19.7-10.3C293.5,569.4,291.7,568.4,291,569.5z"/>
		<path class="st24" d="M263.7,367.5c-0.7,19.8-1.5,39.8-8.3,58.7c-10.9-2.3-20.1-8.6-29-15c-1.1-0.7-2.1,1-1,1.7
			c9.1,6.5,18.5,12.8,29.6,15.2c0.3,0.1,0.5,0,0.7-0.1c0.5,0.2,1.1,0,1.4-0.6c7-19.2,7.9-39.7,8.6-59.9
			C265.7,366.3,263.7,366.3,263.7,367.5z"/>
		<path class="st24" d="M307.8,399.9c-7.6,5.6-15.3,11.7-18.1,20.9c-0.1-0.2-0.2-0.5-0.3-0.7c-0.4-1.2-0.6-2.5-1-3.7
			c1.6-5.5,5.2-9.9,10.3-12.5c1.1-0.6,0.1-2.3-1-1.7c-4.8,2.5-8.4,6.5-10.4,11.4c-0.6-1.1-2.3-0.1-1.7,1c0.3,0.6,0.6,1.2,0.8,1.8
			c-0.1,0.3-0.2,0.6-0.2,0.9c-0.1,0.7,0.3,1.1,0.8,1.2c0.3,1.4,0.7,2.8,1.2,4.1c1,2.3,2.3,4.4,4,6.4c0.8,1,2.2-0.4,1.4-1.4
			c-1-1.2-1.9-2.4-2.6-3.8c2.1-10,10.1-16.3,17.9-22.1C309.8,400.9,308.8,399.2,307.8,399.9z"/>
		<path class="st25" d="M239.6,224.3c-1.3,4.5-6.2,7.8-9.6,10.7c-3.6,3.2-7.4,6.2-11.4,8.9c-8.1,5.5-17.4,9.4-27.3,9.5
			c-0.6,0-0.6,1,0,1c10.4-0.2,20.1-4.3,28.6-10.2c4.2-2.9,8.1-6.1,11.8-9.5c3.3-2.9,7.6-5.9,8.8-10.3
			C240.7,224,239.8,223.7,239.6,224.3z"/>
		<path class="st25" d="M235.1,219.6c-1.5,4.3-4.9,7.4-8.5,10.1c-3.4,2.7-7.1,5.1-10.9,7.3c-7.5,4.3-15.6,7.4-24,9.5
			c-0.6,0.2-0.4,1.1,0.3,1c9-2.2,17.7-5.7,25.8-10.4c6.8-4,15.5-9.3,18.3-17.1C236.3,219.3,235.3,219,235.1,219.6z"/>
		<path class="st25" d="M231,214.8c-10,9.6-22.8,15.7-36.5,17.7c-0.6,0.1-0.4,1.1,0.3,1c13.9-2,26.8-8.3,36.9-18
			C232.2,215.1,231.5,214.4,231,214.8z"/>
		<path class="st25" d="M273.5,236.2c-9.8-1.9-16-10-21-18c-0.3-0.5-1.2,0-0.9,0.5c5.2,8.2,11.6,16.5,21.6,18.4
			C273.9,237.3,274.2,236.4,273.5,236.2z"/>
		<path class="st25" d="M273.5,226.8c-7.6-2.3-14-7.1-18.2-13.8c-0.3-0.5-1.2,0-0.9,0.5c4.4,6.9,11,11.9,18.8,14.3
			C273.9,228,274.2,227,273.5,226.8z"/>
		<path class="st25" d="M213.9,389.5c-3.5-7.7-5.9-15.8-6.9-24.2c-1-8.4-0.4-16.8,0.3-25.2c1.5-16.9,2.1-33.7,0.4-50.6
			c-0.9-9.1-2.3-18.2-4.3-27.2c-0.1-0.6-1.1-0.4-1,0.3c3.7,16.9,5.5,34.1,5.4,51.4c-0.1,17.1-3.8,34.3-1.8,51.3
			c1,8.6,3.4,16.9,7,24.7C213.3,390.6,214.2,390.1,213.9,389.5z"/>
		<path class="st25" d="M204,412.6c-8.2-17.7-9.3-37.1-6.6-56.2c1.3-9.2,3.1-18.3,4-27.5c0.9-9.7,0.7-19.5-0.2-29.3
			c-1-10.8-2.9-21.4-5.1-32c-0.1-0.6-1.1-0.4-1,0.3c4,19.6,7.1,39.6,5.4,59.6c-1.6,19.2-7.1,37.7-5.1,57.1c1,9.9,3.6,19.5,7.7,28.5
			C203.4,413.7,204.3,413.2,204,412.6z"/>
		<path class="st25" d="M280.9,292.6c-0.9-10.5-1.5-21.1-1.1-31.7c0-0.6-1-0.6-1,0c-0.7,18.3,1.7,36.5,3.3,54.7
			c1.7,18.4,2.1,36.6-0.9,54.9c-1.7,10.3-4.1,20.4-6.5,30.6c-0.1,0.6,0.8,0.9,1,0.3c4.2-17.7,8.3-35.4,8.8-53.6
			C285,329.3,282.5,311,280.9,292.6z"/>
		<path class="st25" d="M182.3,316.3c-0.1-0.6-1.1-0.4-1,0.3c3.2,18,0.9,36.6-6.5,53.3c-0.3,0.6,0.6,1.1,0.9,0.5
			C183.2,353.4,185.5,334.6,182.3,316.3z"/>
	</g>
	<g id="sport_bust">
		<path class="st20" d="M651.9,543.5c0,0,0,32-3,40s13,12,18,7s5-37,5-38S651.9,543.5,651.9,543.5z"/>
		<path class="st26" d="M641.9,541.5c0,0,17,13,21,12c0,10,0,35,2,38s93,39,114,10c4-30,3-41,3-41s32-2,37-8c-3-14-7-45-23-68
			s-34-40-56-46s-44,8-49,12s-23,21-29,34s-7,19-9,24S648.9,523.5,641.9,541.5z"/>
		<path class="st20" d="M698.9,423.5c0,0,1,20,0,23.5s11,24.5,13,25.5s33-26,35-30c-2-8-3-21-4-33
			C727.9,414.5,698.9,423.5,698.9,423.5z"/>
		<path class="st23" d="M696.9,426.5l45-15C741.9,411.5,721.9,457.5,696.9,426.5z"/>
		<path class="st20" d="M687.9,324.5c-4,3-15,9-16,24s-13,27-9,47c2,14,7,31,30,34s41-10,45-14s24-26,25-46s-7-44-27-50
			S691.9,321.5,687.9,324.5z"/>
		<path class="st19" d="M746.9,349.5c4.9,1.7,0,29-8,38c0,0,12-3,13-5s11,11,11,11s10-17,15-22s7-26-3-29c0,0,6-6,22,0
			c-8-9-16-14-24-9c0,0,17-7,14-19c-8,9-16,10-21,8c0,0-10-19-27-22s-34,5-49-6c-3,7,0,10-1,10s-10,3-15-2c-3,1,2,11,4,12
			c0,0-11,5-16,2c-1,4,8,10,10,10c0,0-10,4-17,3C656.9,337.5,704.9,360.5,746.9,349.5z"/>
		<path class="st20" d="M748.9,384.5c4-5,12-7,15-3s5,15,2,17s-13,9-20,1S748.9,384.5,748.9,384.5z"/>
		<path class="st19" d="M675.9,346.5c4.1,0,9,6,7,8s-4-3-6-3s-4.9,1.5-5.5,0.7C670.9,351.5,672.9,346.5,675.9,346.5z"/>
		<path class="st19" d="M715.9,357.5c7,2,11,10,9,12s-5-5-11-7c-3-1-11,1-12-2S708.9,355.5,715.9,357.5z"/>
		<path class="st19" d="M698.9,369.5c-1,0.1,2-4,9-2s8,8,8,8S710.9,368.5,698.9,369.5z"/>
		<path class="st19" d="M703.9,374.5c2.8,1.4,6.8-3.3,4.4-4.6c-2.4-1.4-5.4-1.4-5.4-1.4S699.9,372.5,703.9,374.5z"/>
		<path class="st19" d="M682.1,363.5c0.5,0.5,1.1-4.1-4.1-5.3c-5.2-1.2-9.2,3.3-9.2,3.3S675.7,357.8,682.1,363.5z"/>
		<path class="st19" d="M676.4,365.6c-2.5,0-2.1-5.5,0.1-5.6c2.2-0.1,3.9,1.1,3.9,1.1S679.8,365.5,676.4,365.6z"/>
		<path class="st20" d="M772.9,558.5c0,0,2.6,31,1.3,49.5s28.7,11.5,29.7,1.5s4-49,0-57S772.9,558.5,772.9,558.5z"/>
		<path class="st27" d="M708.9,489.5c0,0,41-28,48.6-43.5c-6.6-6.5-11-5.4-11-5.4s-30.6,29.9-33.6,29.9s-13.5-22.6-13.7-25.3
			c-3.3,0.3-7.3,2.3-8.3,5.3S706.9,489.5,708.9,489.5z"/>
		<path class="st27" d="M765.9,550.5l2,15c0,0,48-7,51-13c0-6-2.4-12.3-2.4-12.3S776.9,551.5,765.9,550.5z"/>
		<path class="st27" d="M645.6,531.4c4.9,4.5,11.2,7.6,18.3,10.1c0,0,0,7-1,12c-8-1-22-10-21-12S644.4,535.3,645.6,531.4z"/>
		<ellipse class="st27" cx="732.4" cy="529.5" rx="14.5" ry="16"/>
		<path class="st28" d="M816.4,544.9c-15.3,6.3-31.3,10.7-47.6,13.2c-0.6,0.1-0.4,1.1,0.3,1c16.4-2.5,32.3-6.9,47.6-13.2
			C817.2,545.6,817,544.7,816.4,544.9z"/>
		<path class="st28" d="M663.2,544.6c-3.4-0.3-6.6-1.9-9.7-3.2c-3-1.3-6-2.7-8.8-4.4c-0.6-0.3-1.1,0.5-0.5,0.9
			c3,1.8,6.2,3.3,9.4,4.7c3.1,1.3,6.3,2.7,9.7,3.1C663.8,545.6,663.8,544.6,663.2,544.6z"/>
		<path class="st28" d="M731.8,517.2c-0.2,0.1-0.3,0.2-0.3,0.4c-5.3,0.6-8.6,6.6-9.3,11.7c-0.4,2.9,0.2,5.5,2.6,7.3
			c2.3,1.7,5.8,3.2,8.7,3.3C746,540.2,745.3,513.3,731.8,517.2z M733.3,538.8c-2.5-0.1-5.3-1.3-7.4-2.7c-2.7-1.7-3.3-4.5-2.7-7.5
			c1-5,4.6-11.3,10.7-10c0.5,0.1,0.8-0.5,0.5-0.8C744.1,518,743.7,539.1,733.3,538.8z"/>
		<path class="st28" d="M751,443.2c-6.2,6.7-12.7,13.3-19.4,19.5c-3.3,3.1-6.6,6.1-10,9.1c-1.6,1.4-3.3,2.8-5,4.2
			c-1,0.8-1.9,1.6-2.9,2.4c-0.5,0.4-1,0.8-1.4,1.2c-0.8,1.2-1.9,1.4-3.2,0.5c0.2-0.5-0.4-1-0.8-0.7c-6.3-9.4-12.2-19.4-13.8-30.8
			c-0.1-0.6-1.1-0.4-1,0.3c1.7,11.8,7.9,22,14.4,31.7l0.1,0.1c0.1,0.4,0.3,0.8,0.8,1c1.2,0.7,2.4-0.2,3.3-0.9
			c4.9-3.6,9.4-7.8,13.9-11.8c8.9-8,17.5-16.4,25.6-25.2C752.2,443.4,751.5,442.7,751,443.2z"/>
		<path class="st29" d="M791.1,482.7c-12.2,1.7-19.5,12.1-23.2,23c-4.2,12.5-2.7,25-2.3,37.8c-4.5-9.2-6.4-19.3-5.7-29.5
			c0-0.6-1-0.6-1,0c-0.8,11.1,1.6,22.1,6.8,31.8c0,0.4,0,0.8,0,1.3c-3.7-4.2-6.3-9.2-7.8-14.7c-0.2-0.6-1.1-0.4-1,0.3
			c1.6,6,4.6,11.4,8.8,15.9c0,0.4,0,0.8,0,1.2c0,1,1.3,1.2,1.8,0.6c0.2,0.2,0.3,0.3,0.5,0.5c0.5,0.4,1.2-0.3,0.7-0.7
			c-0.4-0.3-0.7-0.7-1-1c0.1-12.6-2.3-25.2,0.7-37.7c2.9-12.1,9.8-25,23.3-26.9C792.9,484.5,792.4,482.6,791.1,482.7z"/>
		<path class="st29" d="M670.2,473.8c-2,4.9-4,9.8-4.9,15c-0.9,5.1-0.6,10.4-0.6,15.6c0,6.3-0.2,12.5-0.5,18.7
			c-0.8-2.4-1.3-4.9-1.8-7.3c-0.8-3.6-1.5-7.3-2.1-11c-0.1-0.6-1.1-0.4-1,0.3c0.7,4,1.4,7.9,2.3,11.9c0.6,2.9,1.2,5.8,2.4,8.4
			c0,0.5-0.1,1.1-0.1,1.6c-1.8-2.6-3.4-5.3-4.8-8.2c-0.3-0.6-1.2-0.1-0.9,0.5c1.6,3.2,3.5,6.3,5.5,9.2c-0.3,3.8-0.6,7.7-1.1,11.5
			c-0.1,1.3,1.9,1.3,2,0c1.3-11.2,2-22.5,2-33.8c0-5.6-0.5-11.4,0.5-17c0.9-5.2,2.9-10.1,4.9-15
			C672.6,473.1,670.6,472.6,670.2,473.8z"/>
		<path class="st29" d="M745.8,575.1c-23.9,8.3-47.3-11-71.5-4.9c-0.6,0.2-0.4,1.1,0.3,1c24.1-6.1,47.5,13.3,71.5,4.9
			C746.7,575.9,746.4,574.9,745.8,575.1z"/>
		<path class="st29" d="M737.9,579.9c-15.3,6.7-31.4-2.9-46.7-4.4c-0.6-0.1-0.6,0.9,0,1c15.6,1.5,31.6,11.1,47.2,4.3
			C739,580.5,738.5,579.6,737.9,579.9z"/>
		<path class="st29" d="M803.3,536.1c-9.7,4.3-20.1,6.7-30.7,7.1c-0.6,0-0.6,1,0,1c10.8-0.4,21.3-2.9,31.2-7.3
			C804.4,536.7,803.9,535.9,803.3,536.1z"/>
		<path class="st29" d="M801.6,531c-4.7,2.3-9.6,3.8-14.7,4.6c-0.6,0.1-0.4,1.1,0.3,1c5.2-0.8,10.2-2.4,14.9-4.7
			C802.7,531.6,802.2,530.8,801.6,531z"/>
		<path class="st29" d="M735.3,481.8c-6.8,6-13.9,11.7-21.4,16.8c-0.9,0.6-1.7,1.4-2.7,1.8c-1.3,0.6-1.4,0.6-2.4-0.5
			c-1.5-1.7-2.9-3.5-4.2-5.4c-2.4-3.4-4.5-7.1-6.3-10.9c-0.3-0.6-1.1-0.1-0.9,0.5c3.1,6.6,7.2,12.7,12.1,18.1
			c0.1,0.2,0.4,0.2,0.6,0.1c9.1-6,17.7-12.6,25.8-19.8C736.5,482.1,735.8,481.4,735.3,481.8z"/>
		<path class="st23" d="M679.5,388.6c-4.3-0.4-7.4-2-6.3-6.9c0.6-2.9,2.3-5.5,4.7-7.3c1.5-1.2,0-3.8-1.5-2.6
			c-3.9,3-6.7,7.6-6.4,12.7c0.3,5.3,5.1,6.7,9.6,7.1C681.4,391.8,681.4,388.8,679.5,388.6z"/>
		<path class="st23" d="M694.8,402.1c-4.4,5-11,4-16.4,1.1c-1.7-0.9-3.2,1.7-1.5,2.6c6.5,3.5,14.6,4.4,20-1.6
			C698.2,402.8,696.1,400.6,694.8,402.1z"/>
		<path class="st25" d="M752.6,340c-25.5,5.7-52.3,3.5-76.5-6c-0.6-0.2-0.9,0.7-0.3,1c24.4,9.6,51.4,11.7,77.1,6
			C753.5,340.8,753.2,339.8,752.6,340z"/>
		<path class="st25" d="M747.1,333c-20,3.9-40.9,1.8-59.7-5.9c-0.6-0.2-0.9,0.7-0.3,1c19,7.9,40.1,9.9,60.3,5.9
			C748,333.9,747.7,332.9,747.1,333z"/>
		<path class="st25" d="M749.4,325.3c-15.2,1.8-30.5-0.2-44.8-5.8c-0.6-0.2-0.9,0.7-0.3,1c14.3,5.6,29.8,7.6,45,5.8
			C750,326.2,750.1,325.2,749.4,325.3z"/>
		<path class="st25" d="M755.8,347.9c-0.5-0.4-1.2,0.3-0.7,0.7c3,2.4,3.3,7,3.1,10.7c-0.2,3.9-1.5,7.6-4.3,10.3
			c-0.5,0.5,0.2,1.2,0.7,0.7c3-3,4.3-6.9,4.6-11C759.4,355.4,759,350.5,755.8,347.9z"/>
		<path class="st25" d="M762.6,346.2c-0.5-0.5-1.2,0.3-0.7,0.7c5,5,6.8,12.5,4.6,19.2c-0.2,0.6,0.8,0.9,1,0.3
			C769.8,359.3,767.9,351.5,762.6,346.2z"/>
		<path class="st25" d="M774.2,351.5c-0.6-2.1-1.7-3.9-3.2-5.5c-0.7-0.7-2.9-3-4-1.8c-0.4,0.5,0.3,1.2,0.7,0.7s3.2,2.5,3.5,2.9
			c0.9,1.2,1.6,2.5,2,4C773.4,352.4,774.4,352.1,774.2,351.5z"/>
	</g>
</g>
<g id="Layer_3">
	<path class="st0" d="M184.2,575.8c0-17.9-12.1-32.9-28.6-37.4c-2.6-4-7.2-6.5-12.3-6.2c-0.9,0.1-1.7,0.2-2.6,0.4
		c-5.6-8.1-15.1-13.1-25.7-12.4c-5.6,0.4-10.7,2.3-15,5.4c-12.3-12.6-32.2-15.1-47.5-5c-11,7.3-16.9,19.5-16.7,31.7
		c-0.7,0.4-1.4,0.8-2.1,1.2c-10.1,6.7-12.8,20.3-6.1,30.3c2.8,4.3,6.9,7.2,11.5,8.7c0.8,2.4,1.9,4.7,3.4,6.9
		c5.3,7.9,13.8,12.4,22.6,12.8c0.6,1.9,1.5,3.8,2.6,5.5c6.6,9.9,19.9,12.6,29.9,6c1.6-1.1,3-2.3,4.2-3.7
		c12.2,9.9,29.9,11.3,43.7,2.1c3.7-2.5,6.8-5.5,9.3-8.8C171.8,609.2,184.2,593.9,184.2,575.8z"/>
	<path class="st1" d="M246.5,602.6c0,17.9,12.1,32.9,28.6,37.4c2.6,4,7.2,6.5,12.3,6.2c0.9-0.1,1.7-0.2,2.6-0.4
		c5.6,8.1,15.1,13.1,25.7,12.4c5.6-0.4,10.7-2.3,15-5.4c12.3,12.6,32.2,15.1,47.5,5c11-7.3,16.9-19.5,16.7-31.7
		c0.7-0.4,1.4-0.8,2.1-1.2c10.1-6.7,12.8-20.3,6.1-30.3c-2.8-4.3-6.9-7.2-11.5-8.7c-0.8-2.4-1.9-4.7-3.4-6.9
		c-5.3-7.9-13.8-12.4-22.6-12.8c-0.6-1.9-1.5-3.8-2.6-5.5c-6.6-9.9-19.9-12.6-29.9-6c-1.6,1.1-3,2.3-4.2,3.7
		c-12.2-9.9-29.9-11.3-43.7-2.1c-3.7,2.5-6.8,5.5-9.3,8.8C258.9,569.2,246.5,584.5,246.5,602.6z"/>
	<path class="st0" d="M594.1,589.7c0,13.5,9.3,24.8,22,28.2c2,3,5.6,4.9,9.5,4.7c0.7,0,1.3-0.2,2-0.3c4.3,6.1,11.7,9.9,19.8,9.4
		c4.3-0.3,8.3-1.8,11.5-4.1c9.5,9.5,24.9,11.4,36.6,3.8c8.5-5.5,13-14.7,12.9-24c0.5-0.3,1.1-0.6,1.6-0.9c7.8-5,9.9-15.3,4.7-22.9
		c-2.2-3.2-5.4-5.4-8.8-6.6c-0.6-1.8-1.5-3.6-2.6-5.2c-4.1-6-10.7-9.4-17.5-9.7c-0.5-1.4-1.1-2.8-2-4.2c-5.1-7.5-15.4-9.5-23-4.5
		c-1.2,0.8-2.3,1.8-3.3,2.8c-9.4-7.5-23.1-8.5-33.7-1.6c-2.8,1.9-5.2,4.1-7.1,6.7C603.7,564.5,594.1,576,594.1,589.7z"/>
</g>
</svg>
