<?xml version="1.0" encoding="utf-8"?>
<!-- Generator: Adobe Illustrator 23.0.3, SVG Export Plug-In . SVG Version: 6.00 Build 0)  -->
<svg version="1.1" id="Layer_1" xmlns="http://www.w3.org/2000/svg" xmlns:xlink="http://www.w3.org/1999/xlink" x="0px" y="0px"
	 viewBox="0 0 1254 788.1" style="enable-background:new 0 0 1254 788.1;" xml:space="preserve">
<style type="text/css">
	.st0{opacity:0.1;fill:#007CC7;enable-background:new    ;}
	.st1{fill:#FFFFFF;}
	.st2{opacity:0.48;fill:#99AFBC;enable-background:new    ;}
	.st3{fill:#AFC7D7;}
	.st4{fill:#007CC7;}
	.st5{fill:#4B6882;}
	.st6{fill:#F5BD83;}
	.st7{fill:#5A86B7;}
	.st8{opacity:0.7;fill:#D19D6F;enable-background:new    ;}
	.st9{fill:#002042;}
	.st10{fill:#D19D6F;stroke:#D19D6F;stroke-width:0.5;stroke-miterlimit:10;}
	.st11{fill:#D19D6F;}
	.st12{fill:#AD9366;}
	.st13{fill:#3D4877;}
	.st14{fill:#E5E7EA;}
	.st15{fill:#474F77;}
	.st16{fill:#C09B7E;}
	.st17{fill:#FBD5AF;}
	.st18{opacity:0.2;fill:#C09B7E;enable-background:new    ;}
	.st19{fill:#01172B;}
	.st20{fill:#C68467;}
	.st21{fill:#D6B492;}
	.st22{fill:#FCFCFC;}
	.st23{fill:#D32A3F;}
	.st24{fill:#BEBEBF;}
	.st25{fill:#87182B;}
	.st26{fill:#D3D3D3;}
	.st27{fill:#EAEAEA;}
	.st28{fill:#126AB2;}
	.st29{fill:#309AE2;}
	.st30{fill:#3B9B3B;}
	.st31{fill:#9B9B9B;}
	.st32{fill:none;stroke:#EAEAEA;stroke-width:0.5;stroke-miterlimit:10;}
	.st33{fill:#A5A5A5;}
	.st34{fill:#6B6B6B;}
	.st35{fill:#3A3937;}
	.st36{fill:#3A3A38;}
	.st37{display:none;fill:#C09B7E;}
</style>
<g>
	<g id="Layer_7_1_">
		<path class="st0" d="M1172.2,460.4c-5.9,45.5-26.2,70.9-50.8,88c-41.7,29.2-95.7,34.7-112.2,75.8c-26.2,65.2,37.9,76.4,45.1,103.3
			c0.8,2.8,1.3,5.5,1.4,8.2c0,0.1,0,0.1,0,0.2c0,0.4,0.1,1.7,0.1,1.7c0,0.3,0,0.5,0,0.8c0,0.2,0,0.4,0,0.6c0,0.1,0,0.2,0,0.3
			c0,0.3,0,0.6,0,0.9c0,0.1,0,0.2,0,0.3c0,0.2-0.1,1-0.1,1.2c-4.7,52.1-143.3-36.6-297.1-41.4c-202.5-6.3-427.3,85.4-551.2,66
			C100.6,749.6,29.2,619.4,85.2,539.7c0.8-1.2,1.7-2.4,2.6-3.6c88.2-120.7,192.6-85,238.3-219.9c45.7-134.8,266.4-175.4,485.7-175.8
			C1031,140,983,256.9,978.1,316.2C973.3,375.5,1188.2,337.5,1172.2,460.4z"/>
		<g>
			<rect x="596.3" y="152" class="st1" width="266.1" height="164.6"/>
			<polygon class="st2" points="539.9,306.9 540.2,306.9 540.2,268 558.8,268 558.8,240.8 583.8,240.8 583.8,257.8 598.9,257.8 
				598.9,264 607.9,264 607.9,258.1 618.4,258.1 618.4,245.8 626.7,235.3 641.2,235.3 648,246.4 648,285.3 668.4,285.3 668.4,258.1 
				704.3,258.1 704.3,265.5 714.1,265.5 714.1,258.7 740.4,258.7 740.4,264.6 752.4,264.6 752.4,257.8 755.5,257.8 755.5,228.8 
				761.1,228.8 761.1,224.8 766,220.4 777.8,220.4 781.8,224.8 781.8,228.5 786.4,228.5 786.4,258.1 789.2,258.1 789.2,272.3 
				796.3,272.3 796.3,244.2 819.1,244.2 819.1,261.2 823.2,261.2 823.2,247.6 827.2,247.6 827.2,238.1 837.1,238.1 837.1,247.3 
				842.9,247.3 842.9,254.7 852.2,254.7 852.2,260.3 876.6,260.3 876.6,242.4 883.5,242.4 883.5,312.3 539.8,312.3 			"/>
			<path class="st0" d="M777.3,189.7c-1-3.4,1.7-8.5,16.6-7.8c15,0.7,18.6-12,32.6-12.2s11.4,11.3,25.7,9.1s22.7,12.6,6.4,17.4
				s-19.7-2.3-55,1.2C782.1,199.5,778.5,193.5,777.3,189.7z"/>
			<path class="st0" d="M686,239.1c-1.2-4,2-10.2,19.9-9.3s22.3-14.4,39-14.6c16.7-0.2,13.7,13.5,30.8,10.9s27.2,15.1,7.6,20.9
				c-19.6,5.8-23.6-2.8-65.9,1.4C691.7,250.9,687.3,243.7,686,239.1z"/>
			<path class="st0" d="M604.1,203c-2.8,0-11.5-0.5-8.1-7.7c2.1-4.7,7.9-0.6,18.5-4.5s14.6-10.1,28.9-4.9
				c14.2,5.2,11.5,0.4,19.5,0.5c10.9,0.1,13.5,16.9-3.7,17.3S619.2,203.1,604.1,203z"/>
			<rect x="687.3" y="149.7" class="st3" width="5.1" height="166.9"/>
			<g>
				<path class="st3" d="M865.4,316.5h-271V149.7h271.1L865.4,316.5L865.4,316.5z M599.2,312.2h261.4V154H599.2V312.2z"/>
			</g>
		</g>
		<path class="st4" d="M1071.1,727.5"/>
	</g>
	<g id="Layer_3">
		<g id="popa">
			<path class="st5" d="M134.3,628.4C131,625.1,77.6,602,77.6,602l14.2-43.7l22.5-17.3l13.3,8.3L134.3,628.4z"/>
			<path class="st6" d="M419.5,266.8l-28.3-52.6"/>
			<path class="st7" d="M57.2,472.2c12.1,13,16.3,18.4,38.8,13.9c2,13.4-2,45.8-0.5,24c1.5-21.8,3.8,14.7-17.9,91.8
				c0,0,16.7-56.1,40-42.9c23.3,13.2,75,59.4,90.1,59.4c6.7-18.2,26.7-64.4,26.7-64.4s31.7,47.9,28.3,52.8c-3.3,5,36.2-2.1,36.2-8.7
				c0-6.6-10.6-115.2-9.7-137.4c0.8-22.2,3.6-70.6,3.6-70.6l22.8,72.7l44.6-57.4L326.8,318c0,0-13-67.4-77.4-75.9
				c0,0-15-18.2-40-16.5s-50-9.9-60,29.7c0,0-37.4,18.7-64,43.5c-26.7,24.8-26.3,55.5-28.1,68.8s1.4,19.9-0.7,35.4
				c-8.3,4.6-16.8,24.7-17.1,31.5S45.1,459.2,57.2,472.2z"/>
			<path class="st6" d="M164.4,176.2c0,0,6.7,57.8,1.7,64.4s41.7,54.5,66.7,62.7c6.7-1.7,10-62.7,6.7-79.2S164.4,176.2,164.4,176.2z
				"/>
			<path class="st8" d="M169.4,186.1c0,0,10.7,79.9,71.2,68.8c-4.5-37.5,0.5-45.7,0.5-45.7L169.4,186.1z"/>
			<path class="st9" d="M134.3,113.5c0,0-1.7-61.1,70-71c45-11.6,48.4,31.4,48.4,31.4s31.7,1.7,36.7,26.4s-6.7,33-6.7,33
				s5,28.1-20,18.2s-98.4,24.8-98.4,24.8l-24.5-8.3c0,0-18.8-9.9-17.2-26.4S134.3,113.5,134.3,113.5z"/>
			<path class="st6" d="M159.4,167.9c0,0-28.3-21.5-25,8.3c3.3,29.7,30,17.5,30,17.5s27.5,58.4,78.7,42.7c33-14,26.3-38.8,26.3-38.8
				s-3.3-47.9,0-54.5c3.3-6.6,1.7-59.4-28.3-59.4c-15,24.8-51.7,39.6-65,29.7c1.7,18.2-6.7,24.8-16.7,26.4c1.7,11.6,10,24.8,10,24.8
				L159.4,167.9z"/>
			<path class="st9" d="M194.9,136.4c0.8,3.5,12.3-6.1,15.6-6.8s12.1,0.7,13-2.9s-6.3-5.4-12.8-3.9S193.8,131.6,194.9,136.4z"/>
			<path class="st9" d="M251.6,135.4c0.4,3.3,6.8,0.9,10.3,2.2s5.9,7.7,7.2,4.2c1.3-3.5-0.9-8.2-6-9.3S251.1,130.4,251.6,135.4z"/>
			<path class="st9" d="M204.1,150.9c1.1-5.9,16.6-12.6,21.9,0.5C219.2,145.1,209.2,148.2,204.1,150.9z"/>
			<path class="st9" d="M250.7,150.9c0.9-5.8,12-10.6,15,1C262.7,151.4,261.7,143.5,250.7,150.9z"/>
			<path class="st10" d="M254.6,171.2c-0.8-0.7-1.7,0.8-0.8,1.5c0.8,0.5,1.7,1.2,2.3,2c0.8,3.8-0.2,5.4-2.5,4.8
				c-0.5,0.2-1.2,0-1.7,0.3c-1,0.5-1,1-1.8,1.8c-2.2,2.1-2.5,3.1-5.8,2.3c-2.5-0.7-4.7-2.5-7.3-2.5c-0.8,0-1.5,0.2-2.3,0.3
				c-1.5,0.8-3,1-4.7,1c-3.3-2-4-4.5-2.2-7.1c0.5-0.8-0.8-1.7-1.5-0.8c-2.3,3.5-1.2,8.3,3.2,9.6c3.2,1,5.7-1.7,9-1
				c2.8,0.7,5.2,2.8,8.3,2.6c2.3-0.2,2.7-1.2,4.2-2.5c0.5-1.5,1.8-2.1,3.8-2.1c0.5,0,1,0,1.5,0c0.8-0.3,1.2-0.5,1.8-1.2
				C260.9,176.5,257.1,172.9,254.6,171.2z"/>
			<path class="st11" d="M194,150.9c-4.8,0.3-9.5,1.2-14,2.8c-1,0.3-0.5,2,0.5,1.7c4.5-1.5,9-2.5,13.7-2.6
				C195,152.6,195,150.9,194,150.9z"/>
			<path class="st11" d="M195.9,154.4c-3.8,1.5-7,3.6-9.8,6.4c-0.7,0.8,0.5,2,1.2,1.2c2.7-2.6,5.7-4.8,9.2-6.1
				C197.4,155.5,196.9,154.1,195.9,154.4z"/>
			<path class="st11" d="M258.7,113.9c-14-2.6-28.2-1.8-41.9,2.1c-1,0.3-0.7,2,0.5,1.7c13.3-4,27.3-4.8,41-2.1
				C259.2,115.6,259.7,114.1,258.7,113.9z"/>
			<path class="st11" d="M254.6,109c-7.8-2.3-16-1.3-24-0.2c-1,0.2-0.7,1.8,0.5,1.7c7.8-1.2,15.5-2.1,23.2,0.2
				C255.1,111,255.6,109.3,254.6,109z"/>
			<path class="st11" d="M226.2,157.5c-3.3,4.8-8.7,7.4-14.5,7.4c-1,0-1,1.7,0,1.7c6.5,0,12.3-3.1,16-8.3
				C228.4,157.5,226.9,156.7,226.2,157.5z"/>
			<path class="st11" d="M260.9,160.5c-2.7,0.2-5.2-1-7-3c-0.7-0.8-1.8,0.3-1.2,1.2c2,2.3,5,3.6,8.2,3.5
				C261.9,162,261.9,160.3,260.9,160.5z"/>
			<path class="st12" d="M260.1,639.1c-2.3-4.3-6-7.8-9-11.6c-3.3-4.3-6.5-8.7-9.7-13.2c-2.5-3.6-5.2-7.3-8-10.6
				c3-0.5,5.8-1.3,8.7-2.5c1-0.3,0.5-2-0.5-1.7c-3,1.2-6.2,2-9.3,2.6c-0.7-0.8-1.3-1.5-2-2.3c5.3-1.8,10.5-4,15.5-6.8
				c1-0.5,0.2-2-0.8-1.5c-5,2.8-10.3,5.1-15.8,6.9c-0.7-0.7-1.3-1.3-1.8-2c6.3-3.5,12.5-6.9,18.8-10.4c1-0.5,0.2-2-0.8-1.5
				c-6.3,3.6-12.8,7.1-19.2,10.7c-1.2-1-2.3-2.1-3.5-3.1c-0.8-0.7-2,0.5-1.2,1.2c1.2,1,2.3,2,3.5,3.1c0,0.5,0.3,0.8,0.8,0.8
				c0.7,0.7,1.3,1.3,2,2c-0.3,0.5,0.2,1.5,0.8,1.2h0.2c0.8,0.8,1.5,1.8,2.3,2.6c0,0.3,0.3,0.7,0.7,0.7c3.3,4,6.3,8.1,9.2,12.2
				c2.5,3.6,5.2,7.4,7.8,10.9c3.3,4.3,7.3,8.1,10,12.9C259.1,640.9,260.6,640.1,260.1,639.1z"/>
			<path class="st12" d="M171,632.2c-8,7.8-13.7,17.2-16.8,27.7c-0.3,1,1.3,1.5,1.7,0.5c3-10.4,8.5-19.5,16.3-27.1
				C172.9,632.7,171.7,631.5,171,632.2z"/>
			<path class="st12" d="M182.5,638.6c-2.5-0.2-6.5,0.5-7.8-2.5c-0.8-1.7,0.2-3.6-0.2-5.3c-0.3-2.1-2-3.3-3.7-4.8
				c-2.7-2.5-5.2-5-7.8-7.6c-2.2-2.1-4-4.5-7-5.4c-1-0.3-1.5,1.3-0.5,1.7c4,1.2,7.8,6.4,10.7,9.2c1.2,1.2,2.2,2.1,3.3,3.3
				c2.2,2,2.8,3.3,3,6.3c0.2,1.5,0,4.6,1.3,5.8c0.8,0.7,2,0.8,3.5,1c-6.5,5.8-12.5,11.9-18.2,18.6c-0.7,0.8,0.5,2,1.2,1.2
				c6-7.1,12.5-13.7,19.3-19.6c1,0,1.8,0,2.5,0C183.7,640.4,183.7,638.8,182.5,638.6z"/>
			<path class="st12" d="M158.7,588.3c0-1-1.7-1-1.7,0c0.3,7.6,0.3,16.5-6.8,21.3l0,0c-16.3-10.1-31.5-24.4-32.5-44.7
				c0-1-1.7-1-1.7,0c1,22,18.2,37.3,36.2,47.7c1,0.5,1.8-0.8,0.8-1.5c-0.5-0.2-0.8-0.5-1.3-0.8C158.7,605.3,159,596.4,158.7,588.3z"
				/>
			<path class="st12" d="M151.5,586.6c-0.2-1-1.8-0.7-1.7,0.5c0.8,6.1,3.2,14.4-3.2,18.5c-0.8,0.7,0,2,0.8,1.5
				C154.7,602.3,152.5,593.6,151.5,586.6z"/>
			<path class="st13" d="M215.1,299.9c-3.3-1.5-6.7-3-10-4.6c-1.7-0.8-4.3-2.8-6.5-2.5c-1.5,0.2-2.8,2-3.8,3
				c-2.2,2.1-4.2,4.3-6.2,6.4c-7.5,8.6-13.2,18.3-17.3,28.9c-11.8-23.8-11-51.2-20.5-75.6c-0.3-1-2-0.5-1.7,0.5
				c9.7,24.8,8.7,52.5,20.8,76.4c0.2,0.3,0.3,0.3,0.7,0.3c-0.2,0.8,1.3,1.3,1.7,0.3c3.7-9.7,8.8-18.8,15.3-26.9
				c2.5-3.1,5.8-7.9,9.3-10.1c0.7-1,1.5-1.3,2.7-0.8c1.2,0,2.2,0.2,3.2,0.8c1.2,0.5,2.3,1.2,3.5,1.7c2.7,1.2,5.2,2.5,7.8,3.6
				C215.2,301.8,216.1,300.4,215.1,299.9z"/>
			<path class="st13" d="M268.6,294.7c-8.3-15.8-11-33.7-18-50.2c-0.3-1-2-0.5-1.7,0.5c6.5,15.5,9.3,32.5,16.7,47.7
				c-5.8-3.8-12.3-6.8-19.2-8.4c-1.8-0.5-2.8-0.8-3.8,0.8c-1,1.7-1.3,4-2,5.8c-0.8,2.3-1.7,4.6-2.3,6.9c-0.3,1,1.3,1.5,1.7,0.5
				c1.2-3.3,2-6.6,3.3-9.7c0.2-0.8,0.5-1.5,1-2.1c0.3-1,1-1.2,1.8-0.5c1.5,0,3.3,1,4.8,1.5c5.8,2,11.3,5,16.3,8.4
				C268.2,296.9,269.6,295.6,268.6,294.7z"/>
			<path class="st13" d="M238.2,532c-0.3-8.4-0.7-17-0.8-25.4c-0.5-16.7-0.8-33.3-1-50.2c-0.3-33.2,0-66.3,1-99.4
				c0.5-17.2,1.7-34.7-3.7-51.2c-0.3-1-2-0.5-1.7,0.5c4.8,14.9,4.3,30.4,3.8,45.9c-0.5,16.2-0.8,32.3-1,48.5
				c-0.3,32.5-0.2,65.2,0.7,97.7c0.2,9.1,0.5,18,0.8,27.1c0.3,9.4,1.5,19-0.7,28.2c-0.2,1,1.3,1.5,1.7,0.5
				C238.9,546.9,238.6,539.4,238.2,532z"/>
			<path class="st13" d="M214.9,570.6c-3.5,11.4-14.5,29-29,25.4c-1-0.3-1.5,1.3-0.5,1.7c15.5,4,27.2-14.2,31-26.6
				C216.7,570,215.2,569.5,214.9,570.6z"/>
			<path class="st13" d="M219.9,420.3c-1.2-10.2-2.3-20.5-2.8-30.7c-0.3-9.2,0.3-18.6-0.3-27.9c0.3-0.3,0.7-0.8,0.8-1.2
				c0.5-0.7-0.5-1.5-1.2-1.2c0-0.2,0-0.5,0-0.7c0.2-0.3,0.2-0.7-0.2-1c-0.2-0.7-1.2-0.8-1.5-0.3c-23-0.8-46-0.3-69,1.3l0,0
				c-0.3-0.7-1.7-0.3-1.5,0.7c4,22.8,3.8,46,6.5,69.2c0.5,3.8,0.3,8.9,2.3,12.4c1.8,3.3,6,4.8,9.3,6.1c8.7,3.8,18,5.8,27.5,6.3
				c0.2,0.5,0.7,1,1.3,0.7c8.3-3.6,17.5-7.4,24.7-13.2c2.3-1.8,5.2-4.3,5.5-7.4C221.9,429.3,220.4,424.4,219.9,420.3z M214.9,359.2
				c0,0.7,0.2,1.3,0.2,2c-3.8,4.6-9.3,7.8-14,11.4c-4.8,3.6-9.3,7.8-13.5,12c-14.3-6.3-27.7-14.4-39.7-24.1
				C170,358.7,192.5,358.4,214.9,359.2z M219.1,435c-1,2.1-3.5,4.1-5.3,5.4c-6.7,5-14.8,8.4-22.5,11.9c-0.2-0.2-0.3-0.3-0.7-0.3
				c-10-0.5-19.7-2.6-28.9-6.8c-2.3-1-4.7-2-6.3-3.8c-2.2-2.5-2.2-5.6-2.7-8.7c-0.7-5-1.2-10.1-1.5-15.2c-1.5-18.8-2-37.6-5.2-56.3
				c12.2,10.1,25.7,18.3,40.4,24.6c0,0.7,0.8,1,1.3,0.7h0.2c0.8,0.3,1.7-0.7,1.2-1.3c5-5,10.2-9.6,15.8-13.5
				c3.7-2.6,7.3-5.1,10.3-8.3c0.5,7.4,0,14.7,0.2,22.1c0.2,9.4,1,18.8,2.2,28.2c0.5,4.5,1,8.9,1.7,13.4
				C219.4,429.5,220.2,432.6,219.1,435z"/>
			<path class="st13" d="M291.6,359.9c-3.8,4.8-8,9.2-12.5,13.4c-3.7-3.1-8.5-5.1-12.5-7.6c-5-3.1-9.7-6.3-14.5-9.7
				c12.7-2.8,25.5-4.8,38.5-6.1c1-0.2,1-1.8,0-1.7c-13.2,1.3-26.2,3.5-39.2,6.3c-0.7,0.2-0.7,0.7-0.5,1.2c-0.3,0.2-0.5,0.7-0.5,1
				c-0.5,21.5-1,42.9,0.2,64.4c0.2,2.6,0,5.6,2.2,7.6c3,2.6,7.8,4.1,11.7,5.1c5.3,1.5,22.1-1.1,25.9-6.4c0.7-0.8,0.1-2.3-0.6-1.4
				c-2.8,3.8-18.4,7.7-22.2,6.9c-3.7-0.8-7.3-2-10.7-3.6c-5-2.5-4.7-7.4-5-12.2c-0.2-4.1-0.3-8.1-0.5-12.2c-0.3-15.5,0-31,0.3-46.5
				c4,2.8,8.2,5.6,12.3,8.3c4.3,2.6,9.7,5,13.7,8.3c0,0.7,0.8,1.3,1.3,0.7c4.8-4.5,9.2-9.1,13.3-14.2
				C293.4,360.2,292.3,359,291.6,359.9z"/>
			<path class="st13" d="M372.5,214.6c-0.2-0.3-0.7-0.8-1-0.5c-2.3,1-3.8,2.5-4.7,4.8c-0.3,1,1.3,1.5,1.7,0.5
				c0.5-1.5,1.3-2.6,2.7-3.3c6.5,24.9,8.2,50.7,5.2,76.2c-0.2,1,1.5,1,1.7,0C381,266.3,379.1,240,372.5,214.6z"/>
			<path class="st13" d="M414.5,286.9c-7.7,2.8-14.8-1-20.2-6.4c-5.2-5.3-10.7-12-8.5-19.8c0.3-1-1.3-1.5-1.7-0.5
				c-2.3,8.4,3.2,15.7,8.8,21.5s13.5,9.7,21.7,6.8C415.8,288.2,415.5,286.6,414.5,286.9z"/>
			<path class="st13" d="M417,280.3c-5.2,1.3-15.7-0.5-19-5.4c-0.7-0.8-2,0-1.5,0.8c2,3,5.2,4,8.5,5.1c4.2,1.3,8.2,2.1,12.3,1
				C418.5,281.6,418,280,417,280.3z"/>
			<path class="st13" d="M406.7,209.7c-0.5-0.8-2,0-1.5,0.8c7.3,11.7,10.7,25.3,9.7,39c-0.2,1,1.7,1,1.7,0
				C417.7,235.4,414.2,221.7,406.7,209.7z"/>
			<ellipse class="st14" cx="228.6" cy="314" rx="4.2" ry="4.1"/>
			<ellipse class="st14" cx="228.6" cy="373.4" rx="4.2" ry="4.1"/>
			<ellipse class="st14" cx="185.2" cy="375" rx="4.2" ry="4.1"/>
			<ellipse class="st14" cx="278.6" cy="365.1" rx="4.2" ry="4.1"/>
			<ellipse class="st14" cx="228.6" cy="434.5" rx="4.2" ry="4.1"/>
			<ellipse class="st14" cx="228.6" cy="488.9" rx="4.2" ry="4.1"/>
			<ellipse class="st14" cx="226.9" cy="551.6" rx="4.2" ry="4.1"/>
			<path class="st15" d="M230.4,75.5c-3.8,11.9-13.7,20.8-25.2,25.3c-13.3,5.1-28.2,4.5-41.9,1.7c-1-0.2-1.5,1.3-0.5,1.7
				c14.5,3,30.2,3.6,44.2-2.1c11.5-4.8,21.2-13.9,25-25.9C232.2,74.8,230.7,74.5,230.4,75.5z"/>
			<path class="st15" d="M233.9,62.9c-14.8,18.3-38.4,28.4-62,26.4c-1-0.2-1,1.5,0,1.7c24,2,48.2-8.3,63.2-26.9
				C235.7,63.3,234.6,62.1,233.9,62.9z"/>
			<path class="st15" d="M228.4,58.3c-11.8,12.2-28.9,18.3-45.9,16.2c-1-0.2-1,1.5,0,1.7c17.3,2.1,34.9-4.1,47-16.7
				C230.4,58.7,229.2,57.5,228.4,58.3z"/>
			<path class="st15" d="M258.4,81.8c-1-0.5-1.8,1-0.8,1.5c10.7,5.8,14.2,17.5,15.2,28.7c0.2,1,1.8,1,1.7,0
				C273.3,100.1,269.6,87.9,258.4,81.8z"/>
			<path class="st15" d="M269.9,85.4c-1-0.5-1.8,0.8-0.8,1.5c4.5,2.6,7.3,6.8,8.3,11.7c0.2,1,1.8,0.7,1.7-0.5
				C277.9,92.7,274.6,88.2,269.9,85.4z"/>
		</g>
		<path class="st6" d="M74.6,402c23-30.4,86.7-114.8,93.8-121.2c7.1-6.5,15-37.8,22.4-50.2c8.9-15,42.9-9,39.8,0.6
			c18.6-5.8,24.4,0.8,25.5,6.3c2,10.3-2.5,17.5-6.2,18.4c1.5,0.9,5.8,8.9-2.8,13.9c1.8,3.7,6.3,9.2,0,14.7c2.8,5.6,3.6,6.5,0,12.8
			c-2.4,4.3-22.7,16.6-25.6,2.7c-6,4.5-21.2,10.4-28,6.5c-20.5,23-56.6,115.8-67.1,135C115.9,460.8,51.6,432.4,74.6,402z"/>
		<path class="st11" d="M243.7,202.9c-5.5-2.3-5.6-1.8-8.7-1.6c-3.7,0.1-5.3,1.8-8.9,1.1c-3.8-0.7-5.2,3.3-1.4,4
			c3.2,0.6,7.6-1.7,10.9-1.6c3.3,0.1,4.2,1.5,7.4,2.1C246.7,207.7,247.3,204.1,243.7,202.9z"/>
		<path class="st9" d="M215,146.4c-1.8,0.7-3.3,1.1-3.1,3.8s1.7,2.9,3.8,3s4.5-2.5,3.7-5C218.7,145.8,215,146.4,215,146.4z"/>
		<path class="st9" d="M256.1,147.1c-1.4,0.8-3.1,2.2-1.4,3.8s2.5,1.7,4.5,1.1s3-3.5,1.5-5C259.1,145.6,256.1,147.1,256.1,147.1z"/>
		<path class="st11" d="M234.5,229.6c-1,0.2-2,0.4-3,0.6c0-0.2,0-0.4-0.1-0.6c-6.3-12.2-24.8-11.3-34.8-4.9c-6,3.8-10.5,9.6-13.3,16
			c-3.4,7.7-3.2,16.6-7.8,23.7c-0.7,1.1,1,2.1,1.7,1c2.9-4.6,3.9-9.6,5-14.8c1.6-7,4.3-13.7,9.3-19.1c5-5.4,12-9.2,19.4-9.5
			c7.1-0.3,15.2,1.7,18.7,8.4c-3.6,0.6-7.3,1-10.8,1.9c-0.7,0.2-2.2,0.2-2.5,0.1c-2-0.6-3.6-1.8-4.8-3.5c-0.7-1.1-2.4-0.1-1.7,1
			c1,1.6,1.9,2.4,2.2,4.1c-4.2,1.1-6.5,1.7-10.7,2.8c-1.2,0.3-0.7,2.3,0.5,1.9c9.1-2.4,18.1-4.8,27.5-6.2c9.1-1.4,18.7-6.1,25.8,2.4
			C252.3,227.3,242.7,227.7,234.5,229.6z"/>
		<path class="st11" d="M247.9,254.2c-2.6-2.4-5.4-4.5-8.5-6.1c1.2-0.2,2.3-0.4,3.3-0.8c0.4,1.2,1.3,2.2,2.5,2.6
			c0.5,0.2,1.1,0.1,1.4-0.4c0.2-0.4,0.1-1.2-0.4-1.4c-0.9-0.4-1.4-1-1.7-1.9c0.9-0.7,1.6-1.5,2-2.7s-1.5-1.7-1.9-0.5
			c-0.9,2.6-4,3-6.4,3.3c-0.1,0-0.2,0.1-0.3,0.1c-2.2-4.6-7.1-7.5-12.4-5.8c-1.2,0.4-0.7,2.3,0.5,1.9c5-1.7,9.3,1.6,10.7,6.3
			c0.2,0.5,0.6,0.7,1.1,0.7c2.6,1.3,5,3,7.2,4.9c2.4,2,6.1,4.4,7.2,7.7C252.6,258.5,250.4,256.4,247.9,254.2z"/>
		<path class="st11" d="M236.7,263.5C236.7,263.5,236.7,263.4,236.7,263.5c0-0.1,0-0.2-0.1-0.3c-1.7-4.9-5.6-9.2-11.2-8.2
			c-1.3,0.2-0.7,2.2,0.5,1.9c4.4-0.8,7.4,3,8.7,6.7c-0.3,0.4-0.2,1,0.4,1.3c5.4,2.5,11.2,7.2,15.1,11.7
			C249.3,268.6,242,266,236.7,263.5z"/>
		<path class="st11" d="M249.3,289.5c-1.9-9.4-10.8-9.4-15.7-12.7c-1.2-4.4-5.6-6.6-10-6.1c-1.3,0.1-1.3,2.1,0,2
			c3.6-0.4,7.1,1.1,8.1,4.7c0,0.2,0,0.3,0.1,0.5c0,0,0,0,0,0.1c0.1,0.5,0.5,0.7,0.9,0.7C237.4,281.6,246.4,284.3,249.3,289.5z"/>
		<path class="st11" d="M238.2,296.4c-2.6-0.3-5-1.8-6.4-4.1l-0.1-0.1c0.5-1.4,0.7-2.9,0.3-4.7c-1.4,5.4-7.1,9.4-11.3,12.2
			c-1.1,0.7-0.1,2.5,1,1.7c3.2-2.2,6.9-4.2,8.9-7.2c0.5,0.6,1,1.1,1.5,1.6c-1.1,1.6-1.6,3.5-1.3,5.4c0.1,1.3,2.1,1.3,2,0
			c-0.2-1.6,0.2-3,1-4.2c1.3,0.7,2.7,1.2,4.3,1.4C239.5,298.6,239.5,296.6,238.2,296.4z"/>
		<path class="st13" d="M76.7,396.3c-8.2,0.4-15.8,3-22.5,7.8c-1,0.7,0,2.5,1,1.7c6.4-4.6,13.6-7.1,21.5-7.5
			C78,398.2,78,396.2,76.7,396.3z"/>
		<path class="st13" d="M131.8,434.1c-0.8-1-2.2,0.4-1.4,1.4c2.2,2.7,4.1,5.6,5.6,8.7c1.2,2.6,1.8,5.5,0.1,8.2
			c-0.7,1.1-3.1,2.4-4.3,3.2c-3.7,2.7-7.2,5.9-9.4,10.1c-1,2.1-1.4,4.2-2.1,6.4c-1.7,5.1-4.7,7.6-9.6,9.4
			c-6.5,2.3-13.5,3.3-20.4,3.6c-1.3,0-1.3,2,0,2c8-0.3,16.7-1.4,23.9-4.9c2.3-1.1,4.5-2.6,6-4.8c2.5-3.6,2.3-8.3,4.6-12
			c2.5-4.2,6.4-6.8,10.3-9.7c1.6-1.2,3.4-2.5,4.1-4.5C141.3,445.7,135.1,438.1,131.8,434.1z"/>
		<path class="st13" d="M109.6,452.5c-11.7,2.1-23.2-1.5-32.8-8.1c-4.2-2.9-8.1-6.4-11.7-10.1c-4.1-4.4-9.6-9.9-7.9-16.5
			c0.3-1.2-1.6-1.8-1.9-0.5c-2.9,10.7,10.4,21.3,17.8,26.9c10.6,8.1,23.6,12.6,37,10.2C111.4,454.2,110.8,452.2,109.6,452.5z"/>
		<path class="st13" d="M102.1,461.2c-12.1,6.4-26.6,3.3-34.8-7.8c-0.8-1-2.5,0-1.7,1c8.9,12,24.3,15.5,37.5,8.5
			C104.3,462.3,103.2,460.5,102.1,461.2z"/>
		<path class="st13" d="M111.4,315.1c-5.8-7.3-12.7-13.6-20.3-19c-1.1-0.7-2.1,1-1,1.7c6.6,4.6,12.7,9.9,17.9,16.1
			c5.4,6.4,11.6,14.5,12.7,23.1c0.2,1.3,2.2,1.3,2,0C121.6,328.8,116.4,321.5,111.4,315.1z"/>
		<path class="st13" d="M112.7,351.6c-4.8-6.8-12.3-10.2-19.8-13.3c-1.2-0.5-1.7,1.4-0.5,1.9c7,2.9,14.2,6,18.6,12.3
			C111.7,353.7,113.4,352.7,112.7,351.6z"/>
		<path class="st13" d="M108,355.3c-3.9-3.7-8.6-6.3-13.8-7.7c-1.2-0.3-1.8,1.6-0.5,1.9c4.9,1.3,9.2,3.7,12.9,7.2
			C107.5,357.6,109,356.2,108,355.3z"/>
		<path class="st13" d="M83.6,388.6c-6.9-1.1-13.7-0.7-20.4,1.2c-1.2,0.4-0.7,2.3,0.5,1.9c6.4-1.8,12.8-2.2,19.4-1.2
			C84.3,390.7,84.9,388.8,83.6,388.6z"/>
		<path class="st13" d="M307.8,337.3c0.7-1.1-1-2.1-1.7-1c-3,4.7-6.9,8.5-11.7,11.2c-0.1-0.7-0.1-1.4-0.2-2.2
			c0.4,0.2,0.9,0.1,1.2-0.4c5.8-9.9,9.7-20.6,11.7-31.9c0.2-1.3-1.7-1.8-1.9-0.5c-1.9,10.9-5.6,21.2-11.1,30.8
			c-0.5-5.3-1.1-10.5-1.8-15.8c0.4,0,0.8-0.2,1-0.7c5.6-17,11.2-34.5,8.8-52.7c-0.2-1.3-2.2-1.3-2,0c2.3,18-3.2,35.3-8.8,52.2
			c-0.1,0.2-0.1,0.3,0,0.5c-0.5,0.1-1.1,0.5-1,1.2c1.1,8.1,1.9,16.3,2.4,24.4c-0.9,0.2-0.9,1.6,0.1,1.9c0.7,13.4,0.6,26.8-0.3,40.2
			c-0.1,1.3,1.9,1.3,2,0c1-13.4,1-26.7,0.3-40.1c3.8,0,7.4-1,10.6-2.9c1.1-0.7,0.1-2.4-1-1.7c-3,1.8-6.3,2.7-9.7,2.7
			c-0.1-0.9-0.1-1.9-0.2-2.8C299.9,346.8,304.5,342.5,307.8,337.3z"/>
		<path class="st13" d="M197.4,487c-23.6,2.5-46.8,6.9-69.6,13.4c-1.2,0.4-0.7,2.3,0.5,1.9c22.6-6.4,45.7-10.9,69.1-13.4
			C198.7,488.9,198.7,486.9,197.4,487z"/>
		<path class="st13" d="M182,502.9c-17.7,0.1-35.4,1.5-52.9,4c-1.3,0.2-0.7,2.1,0.5,1.9c17.4-2.5,34.8-3.8,52.4-3.9
			C183.2,504.9,183.3,502.9,182,502.9z"/>
	</g>
	<g id="Layer_8_1_">
		<path class="st16" d="M123.3,548.5c-14.2,2,647.5-84.2,987-3.6c287,69.7-34.3,199.6-159.5,184.6c-222-26.7-231.4-89.3-373.4-75.4
			s-288.3,75.7-394,75.8C77.6,729.9-71.6,576.4,123.3,548.5z"/>
		<path class="st17" d="M93,552.2c0,0,679.4-89.9,1033.1-5.9c236.4,68.3-15.5,165.8-200.9,154.8s-210.9-83.8-352.9-69.8
			s-247.2,70.8-387.4,69.8C44.6,700.1-18.4,566.8,93,552.2z"/>
		<path class="st18" d="M311.3,529.3c19,8,91,44,103,46s39,7,61,8s20.9,12.6,39.9,6.8c19.1-5.8,28.1-5.8,18.1-18.8s-97-17-98-17
			s-64-20-64-20l-39-31l10,23L311.3,529.3z"/>
		<path class="st18" d="M698.3,501.9c-12,11.4-27,18.4,0,26.9s161,14.5,179,11.5s17,2,26,4s-11,4,10,14s92,16,102,13
			c10-3,100.5-11.7,117-23c1-18-11-18-11-18l-17-7l-245-21L698.3,501.9L698.3,501.9"/>
	</g>
	<g id="mum_x5C_">
		<path class="st6" d="M553.3,488.3c0,0-43-21-64-79s30-45,30-45s18,63,28,68c9-12,24-25,33-38c0,0,17-21,18-37s2.4-33.4,14.4-43.4
			s43.7-14.6,43-7.1c-2.9,8.4-27.8,5.5-26.8,14.5c18,1,26.8-5.8,44.8-1.8s23.7,7.4,22.7,11.4s-27.8-6.3-35.8-2.3s-1.6,3.3,0.4,4.3
			s31.8,4.4,36.8,10.4s-5.9,5.4-5.9,5.4s4.2,7.8-3.8,6.8s-31.6-6.1-35.6-3.1s9.6,8.5,13.6,9.5s13.4,4.4,11.4,6.4s-22.8-2.5-28.8-1.5
			s-9,1.7-14.5,1.5c-5.4-0.2-13.3-5.2-16.3,1.8s-13.1,33.2-19.7,58.2C589,462.4,553.3,488.3,553.3,488.3z"/>
		<polygon class="st19" points="484.2,214.1 482.3,323.3 424.3,295.3 424.3,249.3 		"/>
		<path class="st9" d="M333.3,333.3c1-2,22-46,25-91s-2.5-94.3,18.3-115.2s24.7,12.2,24.7,12.2l-16.4,47l0.4,114l-32,52L333.3,333.3
			z"/>
		<path class="st20" d="M374.3,291.3c-27.4,16-48,36-52,46s-13,46-12,50s34.9,139.4,36.9,139.4S471,517,489,517
			c-6-29-9.7-51.8-7.7-64.8s18-17,11-72c15-15,27-16,27-16s-7-35-16-46s-46-35-61-35S386.3,284.3,374.3,291.3z"/>
		<path class="st6" d="M316.3,517.3c4.2,5.2,72,45,110,52c6,1,7.6,20.7,50,14c19-3,22,2,30,4s12,6,11-2c11,3,13-1,11-6c4,1,6,0,4-6
			c6-6-5-16-26-23s-58-3-67-2s-83-53-85-58s2-83,3-87s-39-20-47-16S308.3,507.3,316.3,517.3z"/>
		<path class="st6" d="M389.3,230.3l4,90c0,0,14,27,51,41c23-35,25-68,25-68s-15.6-10-21.3-10c-1.7-17,0.3-27,0.3-27L389.3,230.3z"
			/>
		<path class="st8" d="M392.3,240.3c0,2,24.4,44.7,55.2,36.8c0.8-24.8,2.8-32.8,2.8-32.8L392.3,240.3z"/>
		<path class="st9" d="M463.3,381.3c-2,2,34-33,33-76s-7-132-8-144s-8-12-8-12l-3,22l-8,84.1C469.3,255.4,473.3,371.3,463.3,381.3z"
			/>
		<path class="st6" d="M479.3,154.3c-1-2,4,23,3,28s1,35-1,44s-17.9,38.5-27.9,41.5s-27.7-0.1-39.1-9.5s-22-17-25-36s-7-63-7-63
			l21-34l38-7l21,4L479.3,154.3z"/>
		<path class="st6" d="M382.3,212.3c-4-10-5-12-9-11s-16,5-8,17s16,11,17,10S382.3,212.3,382.3,212.3z"/>
		<path class="st9" d="M444.3,103.3c-14.2-1.6-61,2-72,32s0,54,0,54s1,52,0,94s3,76,8,82c-1-17,0-20,2-29c4,18,23,57,44,54
			c-13-18-12.9-10.5-20.4-51.2s-6.1-83.2-6.1-83.2l-2.5-81.6c0,0,37-11,57-47c13,22,25,32,34,34
			C488.3,161.3,491.3,109.3,444.3,103.3z"/>
		<path class="st9" d="M417.3,172.3c8.5-2.8,18,1,18,4s-11,0-15,0s-11,6-13,4S411.3,174.3,417.3,172.3z"/>
		<path class="st9" d="M471.7,173c-7-0.8-12.7,2.7-12.5,4.7c0.3,2,7.1,0,12.2,0.4c5.1,0.3,9.7,4.7,9.5,2.7S475.8,173.5,471.7,173z"
			/>
		<path class="st9" d="M414.3,195.3c-2.1-2.2,14.3-13.7,19,0C428.3,193.3,424.3,193.3,414.3,195.3z"/>
		<path class="st9" d="M477.3,192.3c-2-7-14-8.5-16,1C465.7,192.7,469.3,190.3,477.3,192.3z"/>
		<path class="st9" d="M424.3,197.3c4,3,6-3,5-4s-3-3-5-2S420.3,194.3,424.3,197.3z"/>
		<path class="st9" d="M467.3,195.3c3.6,1.8,5.5-1.7,4.3-3.8c-1.3-2.2-6.1-2.8-6.2,0C465.3,194.3,465.3,194.3,467.3,195.3z"/>
		<path class="st15" d="M441.5,125.3c-1.3,3.4-3.9,6-6.3,8.7c-2.1,2.3-4.2,4.6-6.4,6.8c-4.6,4.6-9.5,8.9-14.7,12.8
			c-10.1,7.6-21.4,13.7-33.5,17.6c-0.6,0.2-0.3,1.2,0.3,1c12.7-4.1,24.5-10.5,35.1-18.6c5.2-4,10.1-8.4,14.7-13.1
			c4.2-4.3,9.6-9.1,11.8-14.8C442.7,125,441.7,124.7,441.5,125.3z"/>
		<path class="st15" d="M433,121c-4.2,9.1-11.9,15.6-20.1,21.1c-4.5,3-9.1,5.8-13.8,8.5c-4.8,2.8-10,6.6-15.5,7.8
			c-0.6,0.1-0.4,1.1,0.3,1c5.3-1.2,10.2-4.8,14.9-7.5c5.2-3,10.3-6.1,15.3-9.5c8-5.5,15.6-12,19.8-21
			C434.2,120.9,433.3,120.4,433,121z"/>
		<path class="st15" d="M424.3,119.8c-9.4,10.1-21.2,17.7-34.3,22.1c-0.6,0.2-0.3,1.2,0.3,1c13.3-4.4,25.2-12.1,34.8-22.3
			C425.4,120.1,424.7,119.4,424.3,119.8z"/>
		<path class="st15" d="M478.1,144.1c-9.7-4.9-14.7-14.8-19.1-24.2c-0.3-0.6-1.1-0.1-0.9,0.5c4.5,9.6,9.6,19.6,19.4,24.5
			C478.1,145.2,478.7,144.4,478.1,144.1z"/>
		<path class="st15" d="M477.6,129.5c-5.1-2.2-11.6-6-13.8-11.5c-0.2-0.6-1.2-0.3-1,0.3c2.3,5.7,8.8,9.8,14.2,12.1
			C477.7,130.6,478.2,129.7,477.6,129.5z"/>
		<path class="st15" d="M406.2,362.5c-10.2-19.9-14.4-42.1-16.4-64.2c-2-22.7-2.3-45.6-2.3-68.5c0-12.9,0.1-25.8,0.3-38.7
			c0-0.6-1-0.6-1,0c-0.3,23.5-0.5,47,0.1,70.5c0.6,22.6,1.6,45.5,6.5,67.6c2.6,11.7,6.4,23.1,11.9,33.8
			C405.7,363.6,406.5,363.1,406.2,362.5z"/>
		<path class="st15" d="M378.9,257.6c0.3-18.7,1-37.3,1.5-55.9c0-0.6-1-0.6-1,0c-0.5,19-1.3,37.9-1.6,56.9
			c-0.3,18.3,0.2,36.7,3.5,54.8c0.1,0.6,1.1,0.4,1-0.3C379.1,294.8,378.6,276.2,378.9,257.6z"/>
		<path class="st15" d="M481.2,255.1c-0.1-0.6-1.1-0.6-1,0c2.7,30.2,5.4,61.3-3.9,90.7c-0.2,0.6,0.8,0.9,1,0.3
			C486.6,316.6,483.9,285.4,481.2,255.1z"/>
		<path class="st15" d="M486.6,253.7c-0.1-0.6-1.1-0.4-1,0.3c2.5,14.7,3.5,29.7,2.7,44.6c0,0.6,1,0.6,1,0
			C490.1,283.6,489.2,268.5,486.6,253.7z"/>
		<path class="st15" d="M368,235.2c0-0.6-1-0.6-1,0c1.1,17.4,0,34.9-3.3,52c-0.1,0.6,0.8,0.9,1,0.3C367.9,270.2,369,252.7,368,235.2
			z"/>
		<path class="st21" d="M464.4,341.8c-2.3,5.3-4.7,10.6-7.2,15.8c-1.2,2.5-2.5,5-3.9,7.5s-2.7,5.3-4.7,7.3
			c-13.3-4.9-24.9-14-36.6-21.7c-0.5-0.4-1,0.5-0.5,0.9c11.9,7.8,23.5,17,37,21.9c0,0,0.1,0,0.2,0.1c0.3,0.1,0.5,0.2,0.7,0.3
			c0.6,0.2,0.9-0.8,0.3-1l0,0c1.6-1.7,2.7-3.9,3.9-5.9c1.5-2.6,2.8-5.2,4.2-7.9c2.7-5.5,5.2-11.1,7.6-16.7
			C465.5,341.7,464.6,341.2,464.4,341.8z"/>
		<path class="st21" d="M515.6,359.8c-9.7,0.2-18.5,7.9-24.7,14.6c-0.1,0.1-0.1,0.2-0.1,0.4c-0.5-1.5-0.9-3-1.3-4.5
			c5.4-5.3,11.9-9.2,19-11.7c0.6-0.2,0.3-1.2-0.3-1c-7.1,2.5-13.5,6.4-19,11.6c-1.6-6.9-2-14-1.2-21.2c0.1-0.6-0.9-0.6-1,0
			c-0.9,7.4-0.4,14.8,1.3,22l-0.1,0.1c-0.3,0.3,0,0.8,0.3,0.9c0.7,2.8,1.6,5.6,2.8,8.3c0.2,0.6,1.2,0.3,1-0.3c-0.5-1.3-1-2.7-1.5-4
			c0.2,0.3,0.5,0.4,0.8,0.1c6-6.5,14.7-14.1,24-14.3C516.2,360.8,516.2,359.8,515.6,359.8z"/>
		<path class="st21" d="M372.6,366.6c-0.1-0.6-1.1-0.6-1,0c0.6,6-0.1,12-2.2,17.7c-2.1,5.6-5.7,10.5-9.3,15.2
			c0.2-2.5,0.4-5.1,0.7-7.6c0.4,0.1,0.9-0.4,0.5-0.8c-0.1-0.1-0.3-0.2-0.4-0.3c0.6-5.6,1.5-11.1,2.5-16.6c1.5-8.3,3.2-16.8,2-25.2
			c-1.2-8-5.6-15.3-10.6-21.5c-4.1-5.1-10.7-9.2-17.2-6.1c-0.6,0.3-0.1,1.1,0.5,0.9c8.2-3.8,15,4.1,19.1,10.2
			c4.8,7.1,7.7,14.3,7.7,22.9c-0.1,8-1.9,15.8-3.3,23.6c-0.6,3.7-1.1,7.4-1.6,11.1c-7.3-6.2-16-10.4-25.4-12.3
			c-0.6-0.1-0.9,0.8-0.3,1c9.5,1.9,18.2,6.2,25.6,12.5c-0.1,1-0.2,2-0.3,3c-13.4-8.7-29.1-13.4-45-13.5c-0.6,0-0.6,1,0,1
			c15.9,0.2,31.4,4.9,44.7,13.5c0.1,0,0.1,0.1,0.2,0.1c-0.2,2.4-0.4,4.8-0.6,7.2c0,0.6,1,0.6,1,0s0.1-1.1,0.1-1.7
			c0.2,0,0.4,0,0.5-0.2c3.8-5,7.6-10.1,9.8-16C372.5,378.8,373.2,372.7,372.6,366.6z"/>
		<path class="st21" d="M380.3,382.7c-4.4,8.1-10.9,14.7-19,19.2c-0.6,0.3-0.1,1.2,0.5,0.9c8.2-4.5,14.9-11.3,19.4-19.5
			C381.5,382.6,380.6,382.1,380.3,382.7z"/>
		<path class="st21" d="M388,454.2c-11.4-1.6-21.4-7.3-31.2-13c-0.6-0.3-1.1,0.5-0.5,0.9c9.8,5.7,19.9,11.5,31.4,13.1
			C388.3,455.2,388.6,454.3,388,454.2z"/>
		<path class="st21" d="M375.1,457.8c-6.5-3.2-12.8-6.7-18.9-10.7c-0.5-0.3-1,0.5-0.5,0.9c6.1,3.9,12.4,7.5,18.9,10.7
			C375.2,458.9,375.7,458,375.1,457.8z"/>
		<path class="st21" d="M472.7,449.6c-13-1.7-25.6,0.1-38.1,3.9c-12,3.7-24.1,8.3-36.8,6.7c-0.6-0.1-0.6,0.9,0,1
			c12.2,1.5,23.9-2.6,35.4-6.2c13-4.1,26-6.2,39.6-4.4C473.4,450.7,473.4,449.7,472.7,449.6z"/>
		<path class="st21" d="M469.1,457.5c-20-6.5-37.9,9.6-57.4,10.5c-0.6,0-0.6,1,0,1c19.4-0.8,37.4-16.9,57.2-10.5
			C469.5,458.7,469.8,457.7,469.1,457.5z"/>
		<path class="st11" d="M459.2,205.8c-2.3-8.3-3.5-16.9-3.6-25.5c0-1.3-2-1.3-2,0c0.1,8.8,1.3,17.6,3.7,26.1
			c1.1,3.7,2.1,3.5,2.8,7.4c0.9,4.8,1.3,10.7-6.7,11.2c-3.1,0.2-4.2,0.4-6.2-1.8c-0.5-1.2-2.2,0.8-1.7,2c0,0,3.3,3.3,7.9,2.4
			c4.6-0.9,7.9-3,9.3-7.2C464.8,214.5,460.7,211.3,459.2,205.8z"/>
		<path class="st11" d="M411,194.9c-2.9-0.1-5.8,0.3-8.6,1.2c-0.6,0.2-0.3,1.2,0.3,1c2.7-0.9,5.5-1.3,8.3-1.2
			C411.7,196,411.7,195,411,194.9z"/>
		<path class="st11" d="M410.3,197.8c-2.6,0.6-5,1.7-7.2,3.3c-0.5,0.4,0,1.2,0.5,0.9c2.1-1.5,4.4-2.6,7-3.2
			C411.2,198.6,410.9,197.6,410.3,197.8z"/>
		<path class="st11" d="M410.8,191.2h-4.4c-0.6,0-0.6,1,0,1h4.4C411.5,192.2,411.5,191.2,410.8,191.2z"/>
		<path class="st22" d="M436.8,239.8c-4.3,4.3,5,10,10,9s12-1,12-6S440.8,235.8,436.8,239.8z"/>
		<path class="st11" d="M634.6,332.8c-1.4-4.5-7.8-9.6-4.8-14.5c-5.1,3.2,0.3,8.8,2.3,13.7c1.6,3.8,1.7,7.7,1.7,10.4
			c0.1,4.2-5.6,7.7-10,7.7c6,3.2,11.1-2.4,11.7-8.8C635.8,337.9,635.6,336.1,634.6,332.8z"/>
		<path class="st11" d="M691.2,347.6c-11.3-4.2-23-6.6-35-7.3c1.5-7.1,1.9-12.4,0.9-19.8c-0.2-1.3-2.1-0.7-1.9,0.5
			c1.1,7.3,0.4,12.6-1.1,19.7c-0.1,0.2-0.2,0.4-0.1,0.7c-1.7,7.1-4.6,13.9-8.8,20.1c-0.7,1.1,1,2.1,1.7,1c4.2-6.2,7.2-13,8.9-20.1
			C667.9,343,692.4,348,691.2,347.6z"/>
		<path class="st11" d="M545.2,431.3c-7.9,6.5-13,15.4-14.6,25.6c-0.2,1.3,9-18.3,16.7-24.6L545.2,431.3z"/>
		<path class="st11" d="M517.8,585.6c-2.4-6.7-9-9.8-15.4-11.9c-8.7-2.9-17.9-4-26.6-0.9c-1.2,0.4-0.7,2.4,0.5,1.9
			c7.3-2.6,14.8-2.2,22.3-0.1c6.6,1.8,14.7,4.5,17.3,11.5C516.3,587.4,518.2,586.9,517.8,585.6z"/>
		<path class="st11" d="M528.8,578.1c-5.2-6.5-15.3-9.3-22.9-11.9c-8.3-2.9-17.6-6.1-26.3-3.1c-1.2,0.4-0.7,2.4,0.5,1.9
			c8.3-2.9,17.3,0.4,25.3,3.1c7.3,2.5,17,5.2,22.1,11.4C528.2,580.5,529.6,579.1,528.8,578.1z"/>
		<path class="st11" d="M532.8,571.4c-12.5-11-28.3-17-45-17c-1.3,0-1.3,2,0,2c16.1,0,31.5,5.8,43.6,16.5
			C532.3,573.7,533.8,572.3,532.8,571.4z"/>
	</g>
	<g id="sporty">
		<path class="st23" d="M727.3,349.3c9-12,56-33,74-33s44-4,65,9s45,33,50,45s14,54,14,54l-20,5l-5,59l-31,15l-29,7l-67-4l-58-15
			v-72l-19-6C701.3,413.3,718.3,361.3,727.3,349.3z"/>
		<path class="st6" d="M920.8,426.9c0,0-34.4,2.6-43.4,8.6c2,10,0,47,0,47l-47.5,10.6c-13.4,2.5-19.3,1.7-26.3-3.5
			c-26.9-23.5-37.1-13.6-37.1-13.6c-2.8-1.7-7.1-4.5-7.1-4.5l-10-5c-1-3,4-36,4-36l-42.3-13.9c0,0-2.7,35.9-6.7,47.9s-9.4,41.3-3,52
			c3,5,6,4,10,6s17,3,25,5s11,0,48,0c33,6,118,2,125,1s12-7,15-10S920.8,426.9,920.8,426.9z"/>
		<path class="st6" d="M846.3,268.3c0,0-3,38.8,0,50.4c-7,17.6-40,41.6-40,41.6s-17-24-17-37s2-20,0-26S846.3,268.3,846.3,268.3z"/>
		<path class="st8" d="M797.3,315.3c14.1,5.3,46.1-12.7,48.1-30.9s-2.1-9.1-2.1-9.1l-53.5,24C789.8,299.3,789.3,312.3,797.3,315.3z"
			/>
		<path class="st9" d="M853.6,280.3c-1,4.9,6.8-16.9,12.8-24.5c5.9-7.5,15.8-15.5,15.8-28.5s0.8-19-2-27s-37.9-14.2-37.9-14.2
			l-85,5.2c0,0-6.9,9-5.9,16s10.4,27.5,8.7,35.2s42.5,21.8,42.5,21.8H840C839.9,264.3,854.6,275.3,853.6,280.3z"/>
		<path class="st6" d="M758.3,261.3c-3.9-15.6,2-20,2-25s-5-19-1-27s7-19,14-21s14-10,31-9s45,3,53,18s7,40,4,43s-9,19-9,19
			s-7,24-11,28s-21,18-42,14S767.3,297.3,758.3,261.3z"/>
		<path class="st9" d="M740.3,183.3c0,0,33,40,99,15c13,24,2,54,2,54s9,0,13-13c9-10,13,1,19-6s13-28,6-41s-19-13-19-13s12-11,19-5
			c-3-6-13-9-21-2c8-9,13-17,7-24c-2,7-8,16-16,15c-8-4-14-18-46-12s-34-1-34-1s-3,9,5,12c-8,3-15,3-20-1c1,5,2,13,8,15
			C757.3,184.3,740.3,183.3,740.3,183.3z"/>
		<path class="st6" d="M851.3,248.3c1-4,3-18,13-14s9,15,8,18s-11,15-21,7S851.3,248.3,851.3,248.3z"/>
		<path class="st9" d="M817.3,216.3c8.1,0,14,6,13,8s-8-1-12-2s-12,2-12,0S807.3,216.3,817.3,216.3z"/>
		<path class="st9" d="M771.3,214.3c5,0,14,6,12,8s-7-3-13-3c-8,0-9,6-10,3S767.3,214.3,771.3,214.3z"/>
		<path class="st9" d="M766.3,233.5c-1.3-1.3,8.3-12.6,13.7,0C776.9,233.5,773.7,229.7,766.3,233.5z"/>
		<path class="st9" d="M771,236c3.7,0,3.7-2.5,3.7-3.8s-1.9-2.5-2.8-2.5c-0.9,0-0.9,0-1.9,1.3S769.4,236,771,236z"/>
		<path class="st9" d="M753.3,234.3"/>
		<path class="st9" d="M807.6,236.5c-1.5-1.5,9.5-14.1,15.7,0C819.7,236.5,816,232.2,807.6,236.5z"/>
		<path class="st9" d="M813,239.3c4.3,0,4.3-2.8,4.3-4.2s-2.1-2.8-3.2-2.8s-1.1,0-2.1,1.4C810.8,235.1,811.1,239.3,813,239.3z"/>
		<path class="st14" d="M777.5,321.7c0,0,10.7-3.7,11.8-3.6c1,14.2,11,34.2,17,39.2c10-3,39-35,40-39c3-1,15.1,4.3,15.1,4.3
			s-45.1,49.7-57.1,50.7C788.3,364.3,777.5,321.7,777.5,321.7z"/>
		<path class="st14" d="M755.3,415.3c0,0-26.6-4.8-49.8-14.4c-1.2,3.4-4.2,12.4-4.2,12.4s51,19,52,17s2-10,3-11
			C756.3,418.3,755.3,415.3,755.3,415.3z"/>
		<path class="st14" d="M874.3,423.3c0,0,30.9-11.3,53-10c3.1,6.3,3,11,3,11s-49,8-53,11C875.3,431.3,874.3,423.3,874.3,423.3z"/>
		<path class="st14" d="M828.3,400.3c-4.5,13.4,7,20,13,21s17-4,14-18S834.3,382.3,828.3,400.3z"/>
		<path class="st10" d="M790.5,263.9c-4.7,1-10.8-2.1-11.2-7.2c-0.3-3.6,1.5-6.8,4.2-9c1-0.8-0.4-2.2-1.4-1.4c-4,3.2-6.2,9-4,13.9
			c2,4.4,8.4,6.6,12.9,5.7C792.2,265.6,791.7,263.6,790.5,263.9z"/>
		<path class="st11" d="M750.2,466.7c-16-6-33.5-2.5-44.8,10.3c-0.8,1,0.6,2.4,1.4,1.4C717.6,466.1,731.9,464.4,750.2,466.7z"/>
		<path class="st11" d="M902.9,488.1c-5.6-7.3-18.7-9.3-27-6.3c-1.2,0.4-0.7,2.4,0.5,1.9c7.1-2.5,19.8-1.1,24.7,5.4
			C901.9,490.2,903.7,489.2,902.9,488.1z"/>
		<path class="st11" d="M875.9,481.8c-9.8,4-52.3,13-63.3,11.3c-9-2.6-17.3-14.3-29.5-17c9.5,6.3,19.6,15.1,27.4,18.6
			c7,3,51.4-5.1,67.2-11.5C880.8,482,876.4,482.4,875.9,481.8z"/>
		<path class="st24" d="M845.1,394.8l-0.1-0.1c-6.5-2.2-12,0.6-12.4,7.7c-0.2,2.7-0.3,5.8,1.6,8c1.8,2,5.3,3.7,7.9,3.9
			c5.9,0.5,9.8-5.1,9.7-10.5C851.6,398.4,849,395.8,845.1,394.8z M843.3,412.2c-2,0.2-3.8-0.6-5.5-1.7c-2.4-1.5-3.1-2.7-3.4-5.5
			c-0.2-2.2-0.1-4.9,1.1-6.8c0.9-1.4,2.2-2.1,3.5-2.3c0.2,0.1,0.3,0.2,0.6,0.2c5.1,0,9.6,1.1,10,7
			C850,407.2,847.8,411.7,843.3,412.2z"/>
		<path class="st24" d="M927.3,418.2c-16.7,2.2-33.1,5.4-49.4,9.6c-1.2,0.3-0.7,2.3,0.5,1.9c16.1-4.2,32.4-7.4,48.9-9.6
			C928.6,420.1,928.6,418.1,927.3,418.2z"/>
		<path class="st24" d="M853.2,321.6c-13.2,16.8-29.4,30.8-48,41.3c-9.6-12.1-17.9-25.4-20.4-40.9c-0.2-1.3-2.1-0.7-1.9,0.5
			c2.6,15.7,11,29.2,20.7,41.5c-0.4,0.7,0.3,1.8,1.2,1.4c0.5,0.2,1.1-0.2,1.2-0.7c18.8-10.6,35.2-24.8,48.6-41.7
			C855.4,322,854,320.6,853.2,321.6z"/>
		<path class="st24" d="M753.9,422c-16.6-1.2-32.7-8.4-47.7-15.2c-1.2-0.5-2.2,1.2-1,1.7c15.4,7,31.7,14.2,48.7,15.5
			C755.2,424.1,755.2,422.1,753.9,422z"/>
		<path class="st25" d="M751.9,400.2c-2.1-6.9-3.6-14.1-4.4-21.3c-1.7-13.5-1.5-27.1-0.6-40.6c0.1-1.3-1.9-1.3-2,0
			c-0.8,13.5-1,27.1,0.6,40.6c0.8,6.2,1.9,12.3,3.5,18.3c1.2,4.2,2.8,8.4,4.1,12.6c-6.3-10.5-11.9-21.5-12.9-33.9
			c-0.1-1.3-2.1-1.3-2,0c1,12.8,6.7,24.1,13.1,34.9c-6-4.2-10.6-10-13.2-17c-0.4-1.2-2.4-0.7-1.9,0.5c3.2,8.7,9.3,15.8,17.4,20.2
			c0.2,0.4,0.5,0.8,0.7,1.2l0.1,0.1c0.1,0.4,0.1,0.8,0.2,1.2c0.1,1.3,2.1,1.3,2,0C756,411.2,753.6,405.9,751.9,400.2z"/>
		<path class="st25" d="M832.2,451.1c-23.4,2.7-44.5-13.1-68-10c-1.3,0.2-1.3,2.2,0,2c23.4-3.1,44.5,12.7,68,10
			C833.5,453,833.5,451,832.2,451.1z"/>
		<path class="st25" d="M818.7,453.7c-12.2,1.6-24.3,0.4-36-3.7c-1.2-0.4-1.7,1.5-0.5,1.9c11.8,4.1,24.1,5.3,36.5,3.7
			C820,455.5,820,453.5,818.7,453.7z"/>
		<path class="st25" d="M876.4,439.9c-12.4,1.8-24.9,1.8-37.3-0.2c-1.3-0.2-1.8,1.7-0.5,1.9c12.8,2,25.6,2.1,38.4,0.2
			C878.2,441.6,877.7,439.7,876.4,439.9z"/>
		<path class="st25" d="M876,443.4c-5.5,3.5-14,3.4-20.4,3.5c-1.3,0-1.3,2,0,2c6.7-0.1,15.5,0,21.4-3.8
			C878.1,444.4,877.1,442.7,876,443.4z"/>
		<path class="st25" d="M890.2,344.4c-8.4,10.6-11.5,23.7-14.1,36.8c-2.9,14.8-5.5,29.7-2.5,44.7c0.3,1.3,2.2,0.7,1.9-0.5
			c-2.9-14.6-0.4-29.2,2.5-43.6c2.5-12.6,5.4-25.6,13.5-35.9C892.4,344.8,891,343.4,890.2,344.4z"/>
		<path class="st25" d="M875.1,430.5c-6.9-6.6-8-16.4-8.1-25.5c-0.2-10.2,1.3-20.3,4.1-30.1c0.4-1.2-1.6-1.8-1.9-0.5
			c-3.2,11.2-4.7,22.8-4,34.4c0.5,8.5,2.2,17.1,8.6,23.1C874.6,432.8,876,431.4,875.1,430.5z"/>
		<path class="st25" d="M831.9,366c-8.3,6.2-17,11.8-26,17c-0.3,0.2-0.4,0.4-0.5,0.6c-9.7-4.6-17.2-12.5-21.2-22.5
			c-0.5-1.2-2.4-0.7-1.9,0.5c4.2,10.5,12,18.9,22.2,23.7c0.7,0.3,1.3-0.1,1.5-0.7c0.3,0.1,0.6,0.2,0.9,0c9-5.1,17.7-10.8,26-17
			C833.9,367,832.9,365.3,831.9,366z"/>
		<path class="st26" d="M611.9,542.8c1.2,0.3,79.2,24.6,82.6,24.6c3.3,0,88.7-17.8,88.7-17.8v-17.5l-84.4-14.9
			c0,0-85.4,11.1-86.9,13.2C610.3,532.6,611.9,542.8,611.9,542.8z"/>
		<path class="st27" d="M691.9,551.2c0,0-79.7-18.5-78.6-20.1c1.1-1.7,85.4-12.2,85.4-12.2l79.9,14.2L691.9,551.2z"/>
		<path class="st9" d="M694.2,540.9c-1.5,0.1-2.5-2.4-3.9-2.9c-0.6-0.1-1.5,0.1-2.1,0c-1.8-0.8-0.3-1.2-1.1-2.2
			c-1.7-1.7-4.4-0.7-6.7,0c0.1-0.6,0.6-1,0.1-1.7c-0.4-0.7-1.1-0.8-1.8-1c-1.2-0.4-2.4-0.1-3.7-0.7c-0.7-0.3-1.1-0.7-1.8-1
			c-1.2-0.4-2.6-0.6-3.9-0.6c1.4-1.7,4.4-1.8,5.7-3.9c0.3-0.4-0.1-1-0.6-1.1c-7.2-0.6-14.4,0.1-21.5,2.1c-0.8,0.3-0.6,1.5,0.4,1.4
			c6.5-1.7,13-2.4,19.7-2.1c-1.8,1.5-4.6,1.5-5.6,4.2c-0.1,0.4,0.3,0.8,0.7,0.8c1.8,0,3.7-0.1,5.4,0.7c0.6,0.3,1.4,1.4,2.2,1.5
			c1.7,0.6,2.9,0.1,3.3,2.2c0,0.4,0.6,0.6,0.8,0.4c1.2-0.3,2.4-0.6,3.6-0.8c2.8-0.6,1.7-0.3,2.5,1.4c0.3,0.4,0.4,0.8,0.8,1.1
			c0.4,0.3,0.8,0.1,1.4,0.3c1.5,0.4,1.2,0.1,3.2,1.7c1,0.8,1.4,1.4,2.6,1.2C695.1,542.3,695.1,540.9,694.2,540.9z"/>
		<path class="st9" d="M719.3,538.4c-2.8,0.6-4.9-1.7-7.6-1.8c-1,0-1.8,0.7-2.8,0.7c-1.9,0-1-0.7-1.8-1.5c-1.1-1.2-2.1-1.7-3.7-1.7
			c-1.4,0-2.9,0.4-4.3,0c-1.9-0.6-1.2-1.5-1.8-2.9c-0.6-1.4-2.1-2.1-3.5-2.4c-1.5-0.3-2.9,0-4.4-0.6c-2.2-1-0.6-0.8-0.8-2.5
			c-0.4-3.9-6.9-1.4-8.9-0.6c-0.8,0.4-0.1,1.5,0.7,1.2c1.4-0.7,6.1-2.9,6.5,0.1c0,0.4-0.6,1.1-0.4,1.7c0.1,1.4,1.5,1.7,2.8,1.8
			c0.8,0.1,1.8,0,2.6,0c2.1-0.4,3.5,0.7,4,2.9c0,0.3,0,0.7,0,1c0.7,1.1,0.6,1.1,1.9,1.4c1.2,0.3,2.6,0.1,3.9,0.1
			c2.2,0,1.9,0.4,4,2.2c0.8,0.7,0,1,1.4,1.2c1,0.1,1.8-0.6,2.6-0.7c1.9-0.4,2.9,0,4.7,0.7c1.7,0.7,3.1,1.1,4.9,0.7
			C720.5,539.5,720.1,538.1,719.3,538.4z"/>
		<path class="st9" d="M741.9,532.8c-3.1-0.6-6.1-0.7-9.2-0.3c-1.5,0.3-1.8,0.6-3.3-0.6c-0.3-0.3-0.4-0.8-1-1
			c-1.8-0.7-3.5-0.1-5.3,0c-2.9,0.1-3.6-1-5.8-2.5c-0.7-0.4-1.1-0.8-1.8-1.1c-1.8-0.7-3.7-0.4-5.7-0.1c-2.8,0.4-2.9-0.1-3.9-2.5
			c-0.1-0.4-0.3-0.8-0.6-1.2c-2.4-3.7-9.2-1.5-12.4-0.6c-0.8,0.3-0.6,1.5,0.4,1.4c3.3-0.8,9.9-3.2,11.2,1.4c0.3,1-0.3,1.9,0.7,2.8
			c1,1,2.5,0.6,3.7,0.4c1.4-0.1,2.9-0.6,4.3-0.4c2.8,0.3,2.8,1.7,4.6,2.9c1.2,1,2.5,1.2,4.2,1.2c1.1,0,2.1-0.3,3.2-0.3
			c1.5,0,1.8,0.6,3.2,1.4c1,0.7,1,0.7,2.2,0.8c1.5,0,3.1-0.6,4.4-0.6c2.1-0.1,4.2,0.1,6.2,0.4C742.5,534.4,742.9,533,741.9,532.8z"
			/>
		<path class="st11" d="M789.9,512.5c-1.5,0.1-2.9-0.3-4.4,0c-1.5,0.3-3.1,1.5-4.4,2.3c-6.3,3.9-13,6.1-15.3,0.3
			c6.1,0.9,13-0.7,16.5-3.7c1-0.9-0.1-2.6-1-1.7c-4.6,4.1-16.6,6.1-22.2,1.6c1.6-0.2,8.3-0.8,11-1.4c2.7-0.6,7.5-0.8,8.7-4.4
			c0.4-1.2-0.6-3.5-1-2.3c-1.4,4.4-10.7,4.3-14.8,5.5c-1,0.3-2.9,0.1-4.4,0.3c0.4-0.5,0.8-0.9,1.1-1.2c5.5-5,17.1-6.1,18.7-14.1
			c0.2-1.3-1.3-2.5-1.6-1.2c-1.3,6.8-12.1,8.8-17.1,12.8c-1.2,1-3.7,3.5-3.7,3.5s-2.4,5.3-5.4,3.5c-2.5-2,0.4-6.1,2.1-8.5
			c2.8-4,7.4-6.6,10.9-10c3.4-3.3,6.1-7,8.2-11.2c0.6-1.1-1.2-2.2-1.7-1c-3.4,6.8-8.6,10.8-13.7,15.5c-0.3-1.5,0-3.6,0.5-4.9
			c0.8-2,2.8-2.3,4.6-2.9c1.2-0.4,0.7-2.3-0.5-1.9c-2.3,0.7-5,1.3-5.9,3.8c-0.8,2.2-1.2,5.2-0.3,7.3c-0.5,0.5-1,0.9-1.5,1.4
			c-2.2,2.2-6.3,7.8-5.3,11.7c-3.7-1-1.2-6.5-1-9.1c0.3-3.1-0.1-6.1-0.6-9.1c-1.2-8.6,11.4-14.3,18.5-15.7c1.3-0.2,1.7-3,0.4-2.7
			c-7.1,1.4-21.7,8.3-21.1,17.1c0.3,4,1.4,7.9,0.5,11.9c-0.4,1.9-1.9,3.9-1.4,6c0.6,2.9,3.4,3.9,6,3.8c2.5,2.3,5.1,0,7.3-2.5
			c0.1,0.1,0.2,0.2,0.3,0.2c0,0.2,0.1,0.5,0.3,0.7c1.7,1.6,3.6,2.4,5.7,2.7c0,0.3,0.2,0.6,0.4,0.9c3.4,5.2,6.5,5,10.8,4.4
			c2.2-0.3,5.3-2.5,7.3-3.4c3.2-1.4,5-2.1,8.5-2.4C791.1,514.4,791.1,512.4,789.9,512.5z"/>
		<path class="st28" d="M763.7,490.8c2-2.1,2.8-3.8,4.2-5.6c5.2-13.5,11.4-29.7,11.4-29.7c-1.3-1.9-3.3-2.8-6.4-2.1l-16.7,43.8
			C757,497.4,761.7,492.8,763.7,490.8z"/>
		<path class="st28" d="M750,514.5l-2.8,7.5c0,0-0.5,6.4,1.2,6.6c1.5,0.2,5.2-5.6,5.6-6.6c0.2-0.6,0.8-2.3,3.5-9.4
			c-0.6-0.1-0.4-0.3-1-1.2C752.6,516.3,750,514.5,750,514.5z"/>
		<path class="st29" d="M761.9,492.6l14.8-38.4c0,0-1.9-0.7-2.9,0l-16,42C757.8,496.5,761.5,493,761.9,492.6z"/>
		<path class="st29" d="M750.7,515l-2.6,6.8c1.7-0.4,2.9-0.1,3.9,0.8l4.5-11.1C754.7,514.1,753.1,514.9,750.7,515z"/>
		<path class="st30" d="M748.9,527c-0.8-0.3-1.7,0.4-1.7,1.2c0,1-0.1,2.4,0.3,2.4c0.5,0,1.8-1.8,2-2.4
			C749.7,527.6,749.4,527.2,748.9,527z"/>
		<path class="st31" d="M688.2,545.1c-2.9-3.9-4.7-6.2-10.5-5.4s-7.8,6.9-8.5,12.2c-1.2,11.2,7.2,20.5,16,13.3l-5.1-1.5
			c-3.6,1.9-7.9-4.3-7.1-11.5c0.4-3.9,1.8-5.7,4.6-7.1s4-1.1,5.8,1.4C685.3,548.8,690,547.4,688.2,545.1z"/>
		<path class="st31" d="M675.4,541.2c-2.9-3.9-4.7-6.2-10.5-5.4s-7.8,6.9-8.5,12.2c-1.2,11.2,7.2,20.5,16,13.3l-5.1-1.5
			c-3.6,1.9-7.9-4.3-7.1-11.5c0.4-3.9,1.8-5.7,4.6-7.1c2.8-1.4,4-1.1,5.8,1.4C672.5,544.9,677.2,543.7,675.4,541.2z"/>
		<path class="st31" d="M663.6,537.8c-2.9-3.9-4.7-6.2-10.5-5.4c-5.8,0.8-7.8,6.9-8.5,12.2c-1.2,11.2,7.2,20.5,16,13.3l-5.1-1.5
			c-3.6,1.9-7.9-4.3-7.1-11.5c0.4-3.9,1.8-5.7,4.6-7.1c2.8-1.4,4-1.1,5.8,1.4C660.7,541.6,665.4,540.2,663.6,537.8z"/>
		<path class="st31" d="M652,534c-2.9-3.9-4.7-6.2-10.5-5.4c-5.8,0.8-7.8,6.9-8.5,12.2c-1.2,11.2,7.2,20.5,16,13.3l-5.1-1.5
			c-3.6,1.9-7.9-4.3-7.1-11.5c0.4-3.9,1.8-5.7,4.6-7.1s4-1.1,5.8,1.4C649,537.7,653.8,536.3,652,534z"/>
		<path class="st31" d="M641,530.9c-2.9-3.9-4.7-6.2-10.5-5.4s-7.8,6.9-8.5,12.2c-1.2,11.2,7.2,20.5,16,13.3l-5.1-1.5
			c-3.6,1.9-7.9-4.3-7.1-11.5c0.4-3.9,1.8-5.7,4.6-7.1s4-1.1,5.8,1.4C638.1,534.6,642.7,533.4,641,530.9z"/>
		<path class="st31" d="M629.3,527.2c-2.9-3.9-4.7-6.2-10.5-5.4c-5.8,0.8-7.8,6.9-8.5,12.2c-1.2,11.2,7.2,20.5,16,13.3l-5.1-1.5
			c-3.6,1.9-7.9-4.3-7.1-11.5c0.4-3.9,1.8-5.7,4.6-7.1s4-1.1,5.8,1.4C626.4,530.9,631.1,529.5,629.3,527.2z"/>
		<path class="st11" d="M804.4,275.9c-5.3,1.6-10.6,2-16,0.9c-2.5-0.5-3.6,3.4-1.1,3.9c6.1,1.2,12.2,0.9,18.2-0.9
			C807.9,279,806.8,275.2,804.4,275.9z"/>
		<line class="st32" x1="692.8" y1="553.5" x2="780.9" y2="535.6"/>
		<line class="st32" x1="693" y1="555.9" x2="781.2" y2="538"/>
		<line class="st32" x1="693.6" y1="558.7" x2="781.7" y2="540.8"/>
		<line class="st32" x1="693.6" y1="561.2" x2="781.7" y2="543.3"/>
		<line class="st32" x1="693.6" y1="564.2" x2="781.7" y2="546.3"/>
		<line class="st32" x1="693.6" y1="566.7" x2="781.7" y2="548.8"/>
	</g>
	<g id="geek">
		<path class="st33" d="M966.3,373.3c-7,9-10.4,24.3-10,32s-7.9,37.9-12.8,51s-50.4,34.1-57.1,36.5c-6.6,2.4-27.7,2.3-33.9,12.5
			s-4.2,31.8,16.2,36.7c10.7,2.6,51.8-4.2,64.1-8.7s55.1-43.9,57.6-52.8c-0.5,8.2-24.2,64.8-24.2,64.8h33c0,0,20,11,27,12
			c7,1,27,1,38,0s43-9,50-7s14,1,18-2s12-45,11-83s-6-89-25-105s-23-15-23-15s10-4,10-12s-12-16-15-29s-6-57-5-61s2-13,1-22
			s-20-36-30-39s-32-12-57-10S976.1,208,976.1,208l-6.8,94.3l17.3,47.4l4.7,10.6C991.3,360.3,976.3,360.3,966.3,373.3z"/>
		<path class="st33" d="M1013.3,363.3c0,0-45,1-53-10s0-39,0-47s3-103,12-114s12-20,28-20s24,8,24,8l18,68c0,0,1,56,0,57s-9,39-9,39
			L1013.3,363.3z"/>
		<path class="st34" d="M975.3,330.3c-4.6,18.4,43.1,28.2,43.1,28.2s10.9-17.2,10.9-18.2s-8-48-8-48s-34-20-35-19
			s-11.4,28.6-11.4,28.6S977.3,322.3,975.3,330.3z"/>
		<path class="st6" d="M1054.8,280.2c0,0,2.1,38.9,6.6,50c-4.6,18.3-17.1,18.1-17.1,18.1s-37.3,2.9-39-10s-0.4-16.2-3.2-21.9
			C999.4,310.7,1054.8,280.2,1054.8,280.2z"/>
		<path class="st8" d="M1012.4,333.2c14.6,3.4,44.1-18.6,43.6-36.9c-0.4-18.2-3.2-8.8-3.2-8.8l-49.9,30.8
			C1002.9,318.3,1004.1,331.2,1012.4,333.2z"/>
		<path class="st6" d="M966.7,284.7c-5.9-15-0.6-20.1-1.3-25c-0.7-5-7.4-18.2-4.5-26.6c2.9-8.5,4.5-19.8,11.1-22.7
			s12.6-11.7,29.6-13s45-2.9,54.9,10.9c9.9,13.8,12.2,38.7,9.6,42.1s-6.4,20-6.4,20s-3.8,24.7-7.2,29.2s-18.5,20.6-39.8,19.4
			S980.3,319.3,966.7,284.7z"/>
		<path class="st9" d="M1020.3,237.3c8.1,0,14,6,13,8s-8-1-12-2s-12,2-12,0S1010.3,237.3,1020.3,237.3z"/>
		<path class="st9" d="M974.3,235.3c5,0,14,6,12,8s-7-3-13-3c-8,0-9,6-10,3S970.3,235.3,974.3,235.3z"/>
		<path class="st9" d="M969.3,254.5c-1.3-1.3,8.3-12.6,13.7,0C979.9,254.5,976.7,250.7,969.3,254.5z"/>
		<path class="st9" d="M974,257c3.7,0,3.7-2.5,3.7-3.8s-1.9-2.5-2.8-2.5c-0.9,0-0.9,0-1.9,1.3S972.4,257,974,257z"/>
		<path class="st9" d="M1010.6,257.5c-1.5-1.5,9.5-14.1,15.7,0C1022.7,257.5,1019,253.2,1010.6,257.5z"/>
		<path class="st9" d="M1016,260.3c4.3,0,4.3-2.8,4.3-4.2c0-1.4-2.1-2.8-3.2-2.8s-1.1,0-2.1,1.4
			C1013.8,256.1,1014.1,260.3,1016,260.3z"/>
		<path class="st33" d="M988.3,190.3c6,0,20-1,30,13c10,14,16,43,17,47s12,51,15,57s8,18,9,23s-10,20-19,21s-10,10-10,10s32-3,33-3
			s18-19,18-19l-2-20l-3-86l-7-27l-27-21l-48-3L988.3,190.3z"/>
		<path class="st35" d="M991.3,349.3c2-3,8-9,14-11c1,9,28.9,11.8,42,10c-6.9,8.2-24,12-24,12S997.3,355.3,991.3,349.3z"/>
		<path class="st9" d="M1010.3,225.3c0,0-29,26-55,21c-6-26,11.9-50.8,22.5-53.4s22.2-2,29.1,0c9.3,2.6,24,24.6,22.4,34.8
			c-1.5,9.5-29,18.6-29,18.6S1013.3,231.3,1010.3,225.3z"/>
		<path class="st6" d="M1004.3,555.3c6,2,21.2,3.7,25.5,1.3c7.7-1.2,9-15,1.5-18.3c-3.2-1.4-8,1-12-2s-25.6-13.2-31-16
			c-9.4-4.8-41.9,10.8-47,22s-7,10-5,16s5,3,5,3s1,4,5,3s6-2,6-2s1,4,6,2s6-2,6-2s1,5,4,4s10-9,15-11s7-6,10-5
			S1004.3,555.3,1004.3,555.3z"/>
		<path class="st33" d="M810.3,566.3c2-1,54-9,57-9s44,10,45,12s1,6,0,7s-56,14-58,14s-43-15-44-16S810.3,566.3,810.3,566.3z"/>
		<path class="st36" d="M812.7,567.4c-1.8-0.6,38.6,14.9,40.6,14.9s56-11,57-12s-40-12-43-12S813.1,567.6,812.7,567.4z"/>
		<path class="st10" d="M993.5,282.9c-4.7,1-10.8-2.1-11.2-7.2c-0.3-3.6,1.5-6.8,4.2-9c1-0.8-0.4-2.2-1.4-1.4c-4,3.2-6.2,9-4,13.9
			c2,4.4,8.4,6.6,12.9,5.7C995.2,284.6,994.7,282.6,993.5,282.9z"/>
		<path class="st11" d="M993.2,540.2c-12,3-26,7.4-29.5,20.9c-0.3,1.2,1.6,1.8,1.9,0.5c3.3-12.8,16.8-16.7,28.1-19.5
			C995,541.9,994.5,539.9,993.2,540.2z"/>
		<path class="st11" d="M985.3,534.4c-16.4,0.5-32.6,9.9-34.3,27.5c-0.1,1.3,1.9,1.3,2,0c1.6-16.4,17.2-25,32.3-25.5
			C986.6,536.3,986.6,534.3,985.3,534.4z"/>
		<path class="st11" d="M975.8,528.8c-8.7-0.3-17.6,5.2-24.3,10.4c-6.7,5.3-11.6,12.5-11.7,21.2c0,1.3,2,1.3,2,0
			c0.1-9,5.7-16,12.8-21c6.1-4.3,13.5-8.9,21.2-8.6C977.1,530.9,977.1,528.9,975.8,528.8z"/>
		<path class="st34" d="M1077.8,300.3c-18.8-20.6-29.3-47.5-29.5-75.4c0-1.3-2-1.3-2,0c0.2,28.4,10.9,55.8,30.1,76.8
			C1077.3,302.7,1078.7,301.2,1077.8,300.3z"/>
		<path class="st34" d="M1067.9,267.1c-4.2-7.6-8.3-15.2-8.9-24c-0.1-1.3-2.1-1.3-2,0c0.6,9.2,4.8,17.1,9.2,25
			C1066.8,269.2,1068.5,268.2,1067.9,267.1z"/>
		<path class="st34" d="M1093.9,345.4c-10.9,11.6-26.1,17.7-42,16.8c-1.3-0.1-1.3,1.9,0,2c16.4,0.9,32.2-5.4,43.4-17.4
			C1096.2,345.9,1094.8,344.5,1093.9,345.4z"/>
		<path class="st34" d="M1077.3,337.4c-12.2,9.6-25.7,17.2-40.3,22.5c-1.2,0.4-0.7,2.4,0.5,1.9c14.9-5.4,28.7-13.2,41.2-23
			C1079.8,338,1078.3,336.6,1077.3,337.4z"/>
		<path class="st34" d="M1010.5,359c-14.2-0.8-27.7-5.1-39.8-12.7c-1.1-0.7-2.1,1-1,1.7c12.4,7.8,26.3,12.1,40.8,12.9
			C1011.8,361.1,1011.8,359.1,1010.5,359z"/>
		<path class="st34" d="M1043,212.2c-8-19.1-24.1-37.3-46.7-34.7c-1.3,0.1-1.3,2.1,0,2c21.7-2.4,37.1,15,44.8,33.3
			C1041.6,213.9,1043.5,213.4,1043,212.2z"/>
		<path class="st34" d="M989.1,417.8c-7.6-5.7-14.9-12.2-18.4-21.3c-0.5-1.2-2.4-0.7-1.9,0.5c3.7,9.6,11.3,16.4,19.3,22.5
			C989.2,420.3,990.2,418.6,989.1,417.8z"/>
		<path class="st34" d="M993.7,419.1c0.1-0.7-10-13.8-14-20.5c-4.7-8-9-16.6-6.6-26.2c0.3-1.2-1.6-1.8-1.9-0.5
			c-2,8.2,0.4,15.9,4.2,23.1c4.6,8.6,10.2,16.8,16.1,24.5c-0.2,1.1-0.5,2.2-0.6,3.2c-5.6-0.9-10-4.5-14.1-8.2
			c-1-0.9-2.4,0.6-1.4,1.4c4.5,3.9,9.1,7.9,15.2,8.8l0,0c-2.2,14.9-0.3,30-0.6,45c-0.1,2.9-0.3,5.7-0.6,8.5h-0.1
			c-4.7,0.1-9.3-0.4-13.9-1.5c-1.3-0.3-1.8,1.6-0.5,1.9c4.7,1.1,9.5,1.7,14.3,1.5c-0.1,0.7-0.2,1.5-0.3,2.2
			c-0.2-0.1-0.4-0.2-0.6-0.2c-3.2,0.3-6.5,0.3-9.7-0.3c-1.3-0.2-1.8,1.7-0.5,1.9c3.4,0.6,6.8,0.7,10.2,0.3c0.1,0,0.3-0.1,0.4-0.1
			c-0.7,4-1.7,7.9-3,11.8c-1.1,3.3-9.3,22.9-10.7,24.7c1,0.3,2.6-0.2,2.6-0.2c2.6-3.4,3.6-6.4,5.2-10.6c0.1-0.2,0.2-0.4,0.2-0.6
			c1.2-3.2,2.3-6.5,3.4-9.5c2.9-8,4.9-16,5.5-24.6C993.2,456.6,989.5,438.6,993.7,419.1z"/>
		<path class="st34" d="M989.1,444.3c-7.5,1.1-14.8,0-21.6-3.3c-1.2-0.6-2.2,1.2-1,1.7c7.3,3.6,15.1,4.7,23.1,3.5
			C990.9,446,990.3,444.1,989.1,444.3z"/>
		<path class="st34" d="M989.1,447.9c-5.3,2.1-10.8,1.1-16.3-0.1c-1.3-0.3-1.8,1.7-0.5,1.9c5.8,1.2,11.7,2.3,17.3,0.1
			C990.8,449.4,990.3,447.5,989.1,447.9z"/>
		<path class="st34" d="M1075.5,461.6c-23.4,3.9-46.9,0.2-70.1-3.7c-1.3-0.2-1.8,1.7-0.5,1.9c23.5,3.9,47.4,7.6,71.1,3.7
			C1077.3,463.4,1076.7,461.4,1075.5,461.6z"/>
		<path class="st34" d="M1056.1,469.3c-13.3,0.9-26.4-0.3-39.3-3.7c-1.2-0.3-1.8,1.6-0.5,1.9c13,3.4,26.4,4.7,39.8,3.8
			C1057.4,471.2,1057.4,469.2,1056.1,469.3z"/>
		<path class="st34" d="M1039.1,477.7c-6.7-1-13.4-2.1-20.1-3.1c-1.3-0.2-1.8,1.7-0.5,1.9c6.7,1,13.4,2.1,20.1,3.1
			C1039.8,479.8,1040.3,477.9,1039.1,477.7z"/>
		<path class="st34" d="M1023.6,513.3c-10.7-0.3-21-2.5-30.8-6.9c-1.2-0.5-2.2,1.2-1,1.7c10.1,4.5,20.8,6.9,31.9,7.2
			C1024.8,515.3,1024.8,513.3,1023.6,513.3z"/>
		<path class="st34" d="M1011.3,364c-8.1,2.3-17.6-0.1-25.6-1.8c-1.3-0.3-1.8,1.7-0.5,1.9c8.4,1.8,18.2,4.2,26.7,1.8
			C1013.1,365.6,1012.6,363.6,1011.3,364z"/>
		<path class="st34" d="M1098.1,503.7c-0.1,0.1-0.2,0.2-0.3,0.4c-0.7,0-1.4,0-2.1-0.1c3.2-4.6,8.3-7.4,13.9-7.5c1.3,0,1.3-2,0-2
			c-6.7,0.2-12.8,3.6-16.2,9.4c-0.6,0-1.3-0.1-1.9-0.1c0,0,0,0,0.1,0c7.3-5.6,6.8-17.5,7.3-25.8c0.8-11.4,0.4-22.7-2.6-33.7
			c0.1-0.1-0.9-3.2-0.9-3.2l-0.9-0.7c-4.3-3.9-6.2-12-7.7-16.9c-2.5-8.2-3.2-16.6-1.4-25.1c1.5-7.3,4.6-14.1,8.8-20.3
			c3.6-5.4,12.2-18,19.8-16.6c1.3,0.2,1.8-1.7,0.5-1.9c-7.7-1.4-14.2,7.3-18.4,12.6c-6,7.5-10.6,16.3-12.6,25.7
			c-2.1,9.8-1,19.3,2.2,28.7c1.1,3.1,2.1,6.8,3.8,10.1c-3.1-3.7-5.7-8-7.9-12.1c-4.6-8.2-7.4-17.7-3.4-26.8c0.5-1.2-1.2-2.2-1.7-1
			c-3.8,8.6-2.2,17.6,1.8,25.8c3.3,6.7,7.6,14,13.4,19c-9.2-2.5-16.6-9.4-19.7-18.7c-0.4-1.2-2.3-0.7-1.9,0.5
			c3.6,10.9,12.8,18.9,24.2,20.7c2.5,9.2,3.3,18.7,2.9,28.2c-0.2,4.9-0.6,9.7-1.1,14.6c-0.6,5.3-0.9,11.4-5.5,14.9
			c-0.6,0.5-0.5,1.3,0,1.7c-4.8-0.3-9.5-0.6-14.3-0.8c-10-0.4-20.8-0.3-29.4,5.5c-6.6,4.5-10.4,12-8.9,19.9
			c-2.1,0.2-4.2,0.4-6.3,0.7c-4.9,0.6-11.9,0.3-13.6,6c-0.4,1.2,1.6,1.8,1.9,0.5c1.5-5,11-4.5,15.2-5c5.1-0.6,10.1-1.1,14.8,1.5
			c4.2,2.3,8.4,6.6,9.3,11.5c1,5.7-2.9,10.4-8.4,11.4c-1.3,0.2-0.7,2.2,0.5,1.9c5.1-0.9,9.5-4.9,10-10.3c0.6-5.8-3.3-11.1-7.7-14.5
			c-4.3-3.3-8.9-4.1-13.8-3.9c-2-9.9,5.1-17.9,14-21.1c7.7-2.8,16.1-2.4,24.1-2.1c7.7,0.4,15.5,0.9,23.2,1.4
			c4.2,0.3,8.5,0.4,12.3,2.6c4,2.4,9.2,7.1,9.1,12.1c0,1.3,2,1.3,2,0c0.2-7.2-8.3-14.1-14.7-15.7c-2.8-0.7-5.8-1-8.7-1.1
			c8.6-4.4,24-1.7,25.8,8.7c0.2,1.3,2.1,0.7,1.9-0.5C1126.6,499.9,1107,497,1098.1,503.7z"/>
		<path class="st34" d="M1109.4,515.6c-1-0.8-2,1-1,1.7c8.4,6.5,9.1,18,1.9,25.6c-0.9,0.9,0.5,2.3,1.4,1.4
			C1119.9,535.8,1118.9,522.9,1109.4,515.6z"/>
		<path class="st34" d="M1139.7,437.3c-8.8-0.2-17.4-0.3-25.8,2.4c-1.2,0.4-0.7,2.3,0.5,1.9c8.3-2.6,16.7-2.5,25.3-2.3
			C1141,439.3,1141,437.3,1139.7,437.3z"/>
		<path class="st34" d="M1138.7,442.6c-5.6-1.4-11.2-1.2-16.7,0.4c-1.2,0.4-0.7,2.3,0.5,1.9c5.2-1.5,10.4-1.7,15.6-0.4
			C1139.4,444.8,1139.9,442.9,1138.7,442.6z"/>
		<path class="st33" d="M833.2,521.4c-0.2-8.1,1.3-16.9,5.9-17.7c4.6-0.8,12.4-0.5,17.6-0.2s7.5,9.3,6.1,15.3
			c-1.3,6,0.2,14.4-4.8,15.6c-5,1.2-19.9,4.8-22.1,0C833.8,529.6,833.2,521.4,833.2,521.4z"/>
		<path class="st6" d="M757.5,525.8c0,0,9.5-1.6,21.9-8.3c7.1-3.8,38.4-12.1,44.2-12c4.5,0.1,17.4-0.2,24.5,4.9
			c1.9,1.4,3.3,11.7,1.3,16.3s-10,6.1-15.5,12.4c-5.5,6.4-27.4,14.5-34.1,5.7c-1.5-1.9-1.5-3.6-1.5-3.6c-1.7,1.3-9.8,6.3-14.2-4
			c-3.2-7.3-2.8-10.6-2.8-10.6s-7.8,4.9-17.2,5.7C754.7,533.1,752.1,528.1,757.5,525.8z"/>
		<path class="st11" d="M824.5,520.5c-1.3,2-2.6,4-3.6,6.2c-0.4,0.8-0.7,1.8-1.1,2.9c0-1-0.3-2-0.9-3c-1.6-2.8-4.7-4-7.8-3.9
			c-0.3,0-0.6,0.1-0.8,0.4c-1.4,0.3-2.6,1.2-3.1,2.5c-0.5-0.6-1.1-1.1-1.7-1.7c-0.9-0.9-2.4,0.4-1.5,1.3c1,0.9,2,1.9,2.7,3
			c0.8,1.3,0.7,2.7,0.5,4.2c-0.2,1.3,1.8,1.4,2,0.1c0.2-1.6,0.3-3.2-0.4-4.6c0-0.1-0.1-0.2-0.1-0.2c0-0.1,0.1-0.2,0.1-0.3
			c0-1.6,1.2-2.6,2.7-2.4c0.3,0,0.5-0.1,0.7-0.2c1.6,0.2,3,0.7,4.1,2c1.7,1.9,1.8,4.6-0.1,6.4c-0.3,0.3-0.4,0.6-0.3,0.9
			c-3,1.6-6.4,2.4-9.6,3.3c-0.2-0.3-0.5-0.5-1-0.4c-6.9,1.9-10.8-9.1-8-13.9V523c1.4-0.3,2.8-0.6,4.3-0.7c1.3-0.1,0.9-2.1-0.4-2
			c-6.4,0.5-34.1,11.3-34.1,11.3c6.8-0.5,11.9-3.6,16-4.5s2.7-0.6,4-0.9c-1.2,3.1,0.5,7.6,2.1,10.1c2,3,5.4,5.6,9.1,5.6
			c0.2,0.6,1,1,1.6,0.5c5.2-3.7,11.9-3.7,17.4-6.8h0.1c2.4-0.9,3-3.2,3.9-5.4c1.2-2.9,2.8-5.7,4.6-8.4
			C826.9,520.5,825.3,519.4,824.5,520.5z M801,539.4c-0.2-0.1-0.4-0.1-0.6-0.1c-3.7,1.1-7.1-1.5-9-4.4c-1.3-1.9-3.6-6.8-1.7-8.9
			c0.2-0.3,0.3-0.6,0.3-0.9c1.7-0.6,3.4-1.2,5.2-1.7c-1.3,3.4-0.7,7,1.3,10.2c1.4,2.2,3.5,4.4,5.9,5.1
			C801.8,539,801.4,539.2,801,539.4z"/>
		<path class="st11" d="M840.8,507.1c-18.9-4.1-30.5-1.7-45.8,3c-2.1,0.8-4.1,1.7-6.1,2.7c0,0,0-0.1-0.1-0.1c-0.4-0.4,1.2-4.3,1.3-5
			c0-1.2-0.3-2.1-1.1-3c-0.4-0.4-1.1-0.8-1.4-1.2c-1.2-1.8,0-2.7,0.5-4c0.4-1.1,0.5-1.9,0-3c-0.6-1.5-2.2-2.4-3-3.7
			c-1.4-2.4,0.7-3.2,0.8-5.2c0.1-2.8-2.5-4.1-4.9-4.4c-0.6-0.1-0.6,0.9,0,1c1.1,0,2.1,0.4,2.9,1.1c1.1,1.1,1.1,2.2,0.6,3.2
			c-0.1,0.6-0.7,1.1-1,1.7c-0.3,0.7-0.3,1.3,0,2.1c0.4,1.1,1.7,1.9,2.4,2.8c1.2,1.4,1.7,2.8,0.9,4.6c-0.2,0.5-0.5,0.9-0.7,1.4
			c-0.8,2.3,0.8,2.8,2.1,4.4c2,2.4-0.1,3.9-0.5,6.2c-0.1,0.7-0.3,1.2,0.2,1.6c-3.6,1.8-7.1,3.6-10.8,5.1c-6.2,2.5-13.3,5.6-19.7,7.7
			c6.9-0.7,24-7.6,35.2-12.7C813.6,503.7,842.3,507.5,840.8,507.1z"/>
		<path class="st11" d="M1011.7,291.9c-6.7,3.3-14,4.1-21.3,2.3c-1.9-0.5-2.7,2.4-0.8,2.9c8.1,2,16.1,1.1,23.6-2.6
			C1015,293.6,1013.4,291,1011.7,291.9z"/>
	</g>
	<path class="st37" d="M1279.5,680.2"/>
</g>
<path class="st34" d="M979.1,410.8"/>
<path class="st34" d="M855.5,502.8c-1.3-0.2-1.8,1.7-0.5,1.9c7,1.3,12.3,7.2,12.1,14.6c-0.2,6.9-4.7,14.1-12.3,13.9
	c-1.3,0-1.3,2,0,2c8,0.2,13.5-6.9,14.2-14.3C869.8,512.2,864.1,504.4,855.5,502.8z"/>
<path class="st34" d="M959.5,484.5c-4.5-9.3-10.9-18.1-21.9-19.6c-1.3-0.2-1.3,1.8,0,2c10.2,1.4,16,10.1,20.1,18.6
	C958.3,486.7,960,485.7,959.5,484.5z"/>
<path class="st34" d="M945.9,476.3c-2.3-5.1-7-8.5-12.6-9.1c-1.3-0.2-1.3,1.8,0,2c4.9,0.6,8.9,3.7,10.8,8.1
	C944.7,478.5,946.4,477.5,945.9,476.3z"/>
<path class="st34" d="M925.9,494.1c-0.9-0.9-2.3,0.5-1.4,1.4c8.4,8.6,13.8,25.2,7.2,36.1c-0.7,1.1,1.1,2.1,1.7,1
	C940.5,520.9,934.9,503.3,925.9,494.1z"/>
<path class="st34" d="M928.3,510.4c-0.7-1.1-2.4-0.1-1.7,1c4.3,7.2,5.6,18.8-3.4,22.8c-1.2,0.5-0.2,2.3,1,1.7
	C934.2,531.5,933.1,518.5,928.3,510.4z"/>
<path class="st34" d="M873.7,521c-0.2-1.3-2.1-0.7-1.9,0.5c1.1,6.6-2.9,10.6-8.1,13.8c-1.1,0.7-0.1,2.4,1,1.7
	C870.7,533.4,874.9,528.5,873.7,521z"/>
</svg>
