<?xml version="1.0" encoding="utf-8"?>
<!-- Generator: Adobe Illustrator 23.0.2, SVG Export Plug-In . SVG Version: 6.00 Build 0)  -->
<svg version="1.1" id="Layer_1" xmlns="http://www.w3.org/2000/svg" xmlns:xlink="http://www.w3.org/1999/xlink" x="0px" y="0px"
	 viewBox="0 0 910.54 637.08" style="enable-background:new 0 0 910.54 637.08;" xml:space="preserve">
<style type="text/css">
	.st0{opacity:0.1;fill:#007CC7;}
	.st1{fill:#AFC7D7;}
	.st2{filter:url(#Adobe_OpacityMaskFilter);}
	.st3{fill:#FFFFFF;}
	.st4{opacity:0.48;mask:url(#SVGID_1_);fill:#99AFBC;}
	.st5{fill:#99AFBC;}
	.st6{opacity:0.22;}
	.st7{opacity:0.72;}
	.st8{opacity:0.73;}
	.st9{opacity:0.22;fill:#99AFBC;}
	.st10{opacity:0.08;fill:#99AFBC;}
	.st11{fill:#DDD466;}
	.st12{fill:#FBD5AF;}
	.st13{fill:#108C85;}
	.st14{fill:#FFF88E;}
	.st15{fill:#C09B7E;}
	.st16{fill:#32373C;}
	.st17{fill:#9B6C53;}
	.st18{fill:#73A0BE;}
	.st19{fill:#91D5E5;}
	.st20{fill:#6E439D;}
	.st21{fill:#FFCC4D;}
	.st22{fill:#D6B6B0;}
	.st23{fill:#F29542;}
	.st24{fill:#422645;}
	.st25{fill:#C7725A;}
	.st26{fill:#481F58;}
	.st27{fill:#FDD2B4;}
	.st28{fill:#F5B98F;}
	.st29{fill:#FE7064;}
	.st30{fill:#33383D;}
	.st31{fill:#FFEBD4;}
	.st32{opacity:0.59;fill:#8B4C3F;}
	.st33{fill:#A50E0E;}
	.st34{fill:#8B4C3F;}
	.st35{fill:#BF79A4;}
	.st36{opacity:0.63;fill:#FFFFFF;}
	.st37{opacity:0.52;fill:#BF79A4;}
	.st38{opacity:0.52;fill:#007CC7;}
	.st39{opacity:0.52;fill:#FFCC4D;}
	.st40{clip-path:url(#XMLID_3_);fill:#808080;}
	.st41{fill:#072439;}
</style>
<path class="st0" d="M909.85,305.83c-4.86,43.52-21.51,67.73-41.65,84.13c-34.23,27.88-78.51,33.19-92.05,72.4
	c-21.51,62.29,31.06,73.06,36.98,98.75c0.62,2.69,1.01,5.3,1.18,7.81c0.01,0.06,0.01,0.12,0.02,0.19c0.02,0.41,0.04,0.82,0.06,1.21
	v0.38c0.01,0.27,0.02,0.53,0.02,0.79c0,0.19,0,0.37-0.01,0.55c0.01,0.09,0.01,0.19,0,0.27c0,0.29-0.01,0.56-0.02,0.83
	c0,0.11-0.01,0.22-0.02,0.33c0,0.14-0.01,0.29-0.02,0.43c-0.01,0.25-0.03,0.51-0.05,0.76c-8.75,115.45-530.77,30.3-709.55-2.31
	C17.22,556.38-27.64,457.79,18.31,381.61c0.69-1.14,1.39-2.29,2.11-3.45c72.37-115.37,158-81.28,195.45-210.17
	C253.32,39.11,434.28,0.35,614.2,0c179.91-0.36,140.47,111.35,136.5,168C746.74,224.64,922.94,188.34,909.85,305.83z"/>
<g>
	<path class="st1" d="M200.49,577.67c6.55,0.85,13.14,1.05,19.7,0.14c0.07,3.99,3.82,7.14,7.74,7.91
		c5.69,1.13,10.49-2.04,15.86-1.98c3.74,0.05,9.11,3.66,12.58,3.09c0.73-0.12,4.2,0.42,6.54,1l0.15,0.41
		c5.36,0.8-1.72-0.74-0.29-0.82c1.94,0.33,4.36,1.04,7.08,1.8c2.72,0.78,5.72,1.69,8.84,2.39c-3.12-0.71-6-1.24-8.67-1.64
		c-2.68-0.38-5.14-0.68-7.41-0.94c11.22,3.06-2.4,1.41-5.1,1.93c9.2,1.32,12.8,1.48,20.36,2.59c8.78,3.02-1.35,2.45-3.63,2.1
		c8.3,1.38,17.15,2.5,21.61,3.4c-3.22-0.17-4.6-0.05-5.9,0.07c-1.29,0.12-2.5,0.22-5.37,0.06c3.14,1.29,5.1,1.77,6.69,1.96
		c1.58,0.22,2.79,0.15,4.42,0.33c-1.84-0.39-4.65-1.1-5.24-1.54c3.84,1.12,5.57,1.1,6.9,0.77c1.33-0.32,2.24-0.91,4.38-0.75
		c5.17,2.09,14.74,5.64,15.1,6.95l0.32-1.11c6.7,1.96,3.18,1.87,4.04,2.67c1.38-0.01,1.43-0.62,2.53-0.77
		c1.09-0.12,3.27,0.11,8.83,2.09c-1.26,0.75,1.17,1.72,3.78,2.78c2.6,1.06,5.39,2.21,4.84,3.11c5.18,1.98,7.96,1.91,13.29,4.36
		c2.78,1.78,0.46,1.59-2.95,0.74c-3.4-0.85-7.83-2.35-9.35-3.16c-7.41-2.97,1.33-0.49-1.64-1.68c-2.44-0.77-4.85-1.53-7.28-2.24
		c3.75,1.91,11.28,5.59,9.98,6.08c7.39,2.59-5.44-3.32,2.7-0.54l4.6,2.48c8.25,2.8-1.12-2.15,9.54,1.87
		c-3.74-0.95-0.87,0.21,2.82,1.72c3.68,1.53,8.28,3.31,7.7,3.91c0.54-0.81,5.46,0.91,10.77,2.49c5.29,1.6,11,3,12.38,2.45
		c-2.03-0.55-4.01-1.22-6-1.86l1.14,1.16c-6.64-1.64-12.17-2.9-18.58-5.55c5.35,1.16-1.22-2.1,4.93-0.6
		c5.79,1.35,6.49,1.77,5.91,2.01c-0.58,0.25-2.42,0.2-1.62,0.46c1.56,0.33,3.14,0.6,4.7,0.9c1.58,0.25,3.15,0.54,4.74,0.76
		c-2.02-0.81-4.03-1.62-5.99-2.5c7.12,1.84,17.03,3.98,27.11,5.26c3.69,0.76,5.44,1.02,6.13,1.26c0.69,0.22,0.31,0.32-0.19,0.41
		c-1.01,0.18-2.58,0.31,2.79,1.25c2.43,0,3.36-0.27,4.53-0.35c0.59-0.05,1.23-0.09,2.16-0.08c0.93,0.02,2.13,0.04,3.84,0.08
		c-1.84-0.25-3.48-0.28-4.99-0.21c-1.51,0.06-2.89,0.19-4.17,0.09c-0.81-0.37-0.44-0.51,0.54-0.59c0.99-0.09,2.6-0.09,4.29-0.1
		c0.85,0,1.71-0.01,2.53-0.01c0.82-0.04,1.58-0.08,2.24-0.14c1.3-0.12,2.14-0.29,1.96-0.57c2.79,0.45,2.27,0.93,0.06,1.42
		c5.75-0.22,11.34-0.6,16.06-0.77c4.71-0.23,8.56-0.18,10.78,0.25l4.7-2.07c9.66-1.23,6.44-0.4,2.81,0.55
		c-1.81,0.49-3.73,0.96-4.17,1.22c-0.44,0.26,0.62,0.41,4.73-0.02c6.77-0.86,13.31-2.26,16.08-3.44c-1.92,0.37-3.83,0.77-5.76,1.12
		c2.13-0.81,3.07-1.37,4.35-1.94c1.28-0.58,2.89-1.16,6.3-2.23c4.97-0.98,2.56,0.58,8.3-1.67c12.09-2.51,8.15-0.4,5.03,1.55
		c1.13-0.33,2.32-0.68,3.52-1.03c4.05-1.18,8.04-2.5,8.56-3.15c0.13,0.21-0.11,0.71-1.22,1.4c-0.46,0.29-1.09,0.62-1.89,0.97
		c-5.29,0.77-6.2,1.34-6.35,1.77c-0.15,0.43,0.5,0.64-1.82,0.43c-0.74,0.19-1.49,0.37-2.23,0.55c-0.19,0.14-0.36,0.28-0.5,0.41
		c4.42-0.88,4.58-0.41,3.62,0.32c1.28-0.58,2.56-1.17,3.83-1.76l3.43,0.46c3.92-0.98,6.12-2.93,8.51-2.88
		c3.09-0.43,1.12,0.72,0.16,1.44c-0.48,0.36-0.7,0.61,0.11,0.49c0.81-0.13,2.64-0.57,6.3-1.79c3.91-1.37,6.74-2.63,8.94-3.79
		c1.1-0.59,2.04-1.11,2.88-1.64c0.84-0.54,1.57-1.04,2.27-1.52c2.77-2,4.9-3.59,10-6.9c-0.63,0.18-1.56,0.71-2.73,1.43
		c-1.18,0.65-2.6,1.57-4.22,2.43c3-2.45-3.02,0.55,2.24-3.15c1.87-0.42,5.46-2.4,9.37-5.47c1.96-1.53,3.98-3.37,5.87-5.37
		c1.91-1.99,3.68-4.17,5.12-6.18c-0.99,2.51,3.28-2.33,1.76,0.44c2.85-4.28,4.71-8.05,5.18-9.92c-2.42,3.74-3.32,4.76-3.11,4.15
		c0.19-0.59,1.31-2.71,2.35-4.83c1.05-2.13,2.04-4.21,2.35-5.14c0.3-0.9-0.06-0.77-1.91,1.87c1.62-2.83,2.89-4.83,4.03-6.41
		c0.57-0.79,1.1-1.46,1.61-2.05c0.52-0.59,1.05-1.09,1.53-1.58c0.49-0.48,0.96-0.94,1.42-1.39c0.47-0.44,0.89-0.91,1.44-1.31
		c1.05-0.84,2.13-1.74,3.37-2.87c-0.01,0.3-1.99,2.71-3.06,4.21c-0.47,0.79-0.74,1.34-0.53,1.24c0.23-0.09,0.85-0.87,2.6-2.48
		c0.8-1.1,1.35-1.94,1.74-2.55c0.44-0.58,0.67-0.97,0.76-1.21c0.18-0.5-0.22-0.45-0.69-0.34c-0.93,0.19-2.16,0.65,0.64-2.94
		l-2.84,2.29l-2.61,2.5c-0.44-0.09-0.15-0.73,0.56-1.67c0.36-0.47,0.8-1.03,1.34-1.6c0.58-0.54,1.22-1.12,1.89-1.72
		c0.67-0.59,1.35-1.19,2.01-1.77c0.7-0.55,1.41-1.04,2.03-1.51c1.25-0.93,2.22-1.68,2.54-2.05c1.02-0.58,1.21-0.61,0.99-0.37
		c-0.23,0.23-0.86,0.75-1.42,1.34c-1.15,1.15-2.24,2.35-0.18,1.4c0.7-0.48,1.3-0.98,1.94-1.39c0.63-0.41,1.22-0.82,1.77-1.21
		c1.11-0.77,2.04-1.55,2.99-2.18c0.96-0.63,1.85-1.21,2.77-1.75c0.92-0.53,1.82-1.05,2.91-1.39c-0.86,0.7-1.32,1.19-1.62,1.51
		c-0.3,0.33-0.45,0.49-0.61,0.67c-0.32,0.36-0.73,0.75-2.57,2.35c1.73-1,3.02-1.73,3.98-2.25c0.94-0.54,1.65-0.76,2.05-0.91
		c0.84-0.28,0.72-0.02,0.5,0.3c-0.43,0.65-1.22,1.57,4.35-0.83c1.75-0.86,1.96-1.25,2.48-1.72c0.26-0.23,0.59-0.48,1.22-0.82
		c0.32-0.17,0.71-0.36,1.21-0.58c0.51-0.2,1.14-0.41,1.9-0.66c-1.97,0.09-2.85,0.08-4.45,0.52c-0.8,0.21-1.78,0.54-3.15,1.07
		c-1.35,0.56-3.04,1.42-5.35,2.54c1.24-1.49,4.26-3.07,7.95-4.35c0.91-0.33,1.83-0.71,2.79-1.04c0.97-0.31,1.94-0.63,2.9-0.98
		c0.96-0.34,1.9-0.71,2.82-1.08c0.93-0.34,1.83-0.7,2.68-1.1c-1.42,0.41-2.25,0.64-2.79,0.77c-0.53,0.15-0.77,0.21-1.02,0.28
		c-0.5,0.15-1.04,0.36-3.99,1.58c-1.29-0.98-3.66-0.33,1.44-3.59c-1.6,0.71-2.98,1.32-4.19,2.07c-1.21,0.73-2.37,1.43-3.6,2.17
		c-1.25,0.69-2.48,1.57-4.02,2.42c-0.76,0.44-1.6,0.87-2.51,1.34c-0.88,0.52-1.84,1.05-2.91,1.61c-0.75,0.03-0.53-0.38,0.24-1.05
		c0.78-0.65,2.03-1.65,3.49-2.5c1.44-0.89,2.95-1.86,4.08-2.69c1.16-0.77,1.92-1.44,1.77-1.87c0.53-0.35,1.17-0.73,1.91-1.11
		c0.73-0.39,1.55-0.81,2.46-1.15c1.82-0.7,3.86-1.49,5.98-2.1c2.14-0.57,4.29-1.16,6.28-1.57c2-0.37,3.81-0.67,5.21-0.87
		c2.33-0.86,4.86-1.6,7.42-2.35c1.3-0.32,2.6-0.64,3.9-0.96c1.3-0.32,2.6-0.65,3.9-0.9c2.59-0.52,5.1-1.13,7.46-1.57
		c2.36-0.48,4.53-1.05,6.44-1.54c3.65,0.01,10.03-0.58,17.3-0.79c7.26-0.24,15.38-0.16,22.35,0.52c2,0.87,15.91,1.77,9.37,2.01
		c3.02,0.03,11.55,0.59,8.96-0.28c-1.22,0.16-2.51-0.18-5.02-0.36l2.32-0.8c6.71,1.01,14.4,0.49,20.84,1.71
		c2.04,1.01-12.25-0.66-7.97,0.71c3.19-0.45,11.16-0.2,19.37,0.28c8.2,0.49,16.65,1.04,20.72,1.59c2.74,0.23,4.26,0.67,5.39,1.08
		c0.56,0.2,1.02,0.41,1.5,0.56c0.49,0.15,0.99,0.27,1.6,0.31c3.26,0.01,6.49-0.2,9.66-0.55c1.16,0.28,1.36,0.76,3.19,1.05
		c4.72-0.32,7.72-1.28,10.44-1.95c5.94-0.56,7.27-0.24,6.52,0.32c-0.76,0.57-3.68,1.49-6.64,2.4c-2.24,0.23-4.55,0.46-6.88,0.66
		c-2.49,0.67-5.68,1.11-7.68,1.44c-2.01,0.31-2.81,0.6-0.49,0.99c3.73-0.46,3.52-0.95,4.78-1.36c1.43,0.05,2.84,0.06,4.24,0.08
		c2.03-0.55,5.79-1.37,8.76-2.09c2.98-0.72,5.25-1.32,4.64-1.68c1.94-0.1,3.91-0.28,5.86-0.41l1.41-0.1
		c0.36-0.02,0.76-0.03,1.16-0.03l1.97,0.03c0.8,0.01,1.59,0.01,2.38-0.03c3.14-0.12,6.18-1.04,8.65-2.72
		c2.29-1.5,4.22-3.33,5.85-5.25c-0.93,1.04-1.45,1.4-1.64,1.45c-0.22,0.05-0.03-0.33,0.24-0.84c0.55-1.03,1.3-2.59,0.43-1.96
		c-1.21,1.62-2.63,3.06-4.2,4.29c-1.57,1.23-3.34,2.21-5.25,2.76c2.27-0.75,4.48-2.31,6.39-4.28c1.92-1.97,3.54-4.39,4.67-7
		c1.13-2.6,1.78-5.39,1.89-8.04c0.07-1.33-0.01-2.62-0.18-3.85c-0.1-0.61-0.19-1.21-0.29-1.8c-0.09-0.59-0.24-1.09-0.35-1.61
		c0.42,0.42,0.7,0.71,0.78,0.34c0.07-0.35,0.03-1.44-0.57-3.54c0.76,3-0.81-0.73-2.58-3.06c-0.85-1.2-1.7-2.07-1.89-2.06
		c-0.22,0.04,0.32,0.9,1.59,3.68c1.21,1.91,2.11,3.95,2.78,6.4c0.68,2.52,0.91,5.39,0.24,8.57c-0.52,0.98-0.78,1.05-0.88,0.58
		c-0.09-0.47-0.01-1.48-0.04-2.78c-0.02-1.3-0.14-2.88-0.54-4.4c-0.22-0.75-0.41-1.53-0.68-2.21c-0.28-0.67-0.54-1.31-0.82-1.87
		c-0.62-1.4-1.42-3.13-2.6-4.82c-1.16-1.7-2.57-3.44-4.19-5c-3.22-3.16-7.08-5.72-10.32-7.51c-1.9-1.36-3.02-2.45-4.57-3.59
		c-0.78-0.57-1.65-1.19-2.82-1.79c-1.17-0.59-2.6-1.25-4.48-1.91c2.15,1.34,2.62,1.89,2.1,1.91c-0.53,0.03-2.03-0.48-3.93-1.04
		c-3.53-1.17-8.42-2.54-10.15-2.59c-0.9-0.34-1.8-0.67-2.71-0.99c-0.52-0.19-1.03-0.36-1.53-0.52c-3.89-1.33-7.83-2.53-11.82-3.62
		c1.8,0.36,4.44,1.02,7.07,1.72c1.76,0.46,3.51,0.92,5,1.31c1.5,0.37,2.76,0.63,3.52,0.69c0.34-0.33-0.06-1.08,0.81-1.3
		c0.87-0.21,3.06,0.03,8.5,2.1c-3.18-1.46-5.27-2.31-6.72-2.78c-1.44-0.48-2.22-0.65-2.79-0.71c-1.14-0.09-1.42,0.21-4.49-0.66
		l4.52,1.43c-2.14-0.39,1.47,1.55-2.5,0.2c-7.59-2.76-12.11-4.21-15.97-5.65c-3.88-1.36-7.11-2.66-12.36-4.28
		c2.26,1.1-2.73,0.65-5.26,0.23c-10.16-2.65,0.47-1.77-5.64-4.17c-3.74,0.15-10.72-1.21-8.44-0.21c-4.09-0.62-1.92-0.63-4.8-1.32
		c-2.76,0.32-5.87,0.21-11.55-0.59c0.56-0.29,1.45-0.77,6.85,0.27c-6.04-1.26-8.12-2.77-5.36-3.13c3.3,0.61,6.59,1.31,9.88,1.96
		c4.66-0.17-9.22-1.79-8.72-2.56c4.43,0.45,7.66,1.51,10.49,1.69c-2.66-1.33-11.42-1.79-16.49-2.35c-7.97-1.25-4.92-1.74-4.99-2.24
		c-6.91-0.13-3.02,0.74,0.97,1.69c3.99,0.95,8.09,1.91,1.68,1.73c-2.46,0.17-6.71-0.13-11.42-0.58c-4.7-0.48-9.87-1-14.14-1.37
		c3.6,0.99,3.34,1.4,1.09,1.48c-1.12,0.04-2.75,0-4.64-0.08c-1.89-0.07-4.06-0.16-6.26-0.27c5.72,0.56,6.42,0.98,7.37,1.34
		c0.95,0.35,2.17,0.63,8.92,0.97l0.16,0.98c-2.85-0.32-5.96-0.77-9.07-1.22c-3.11-0.45-6.22-0.82-9.08-1.12
		c1.22-0.15-0.09-0.49,1.8-0.47c-5.69-0.43-11.39-0.74-17.09-1.05l1.79-0.49c-5.25-0.51-11.11-1.07-16.44-1.59
		c-5.33-0.45-10.14-0.8-13.29-0.79c5.08,0.18,9.43,1.37,4.09,1.35c-3.1,0.22-8.72,0.48-13.5,0.19c-2.48-1.25-20.66-1.67-9.14-2.49
		c-7.42,0.06-9.77,0.26-12.03,0.42c-1.13,0.09-2.24,0.18-3.95,0.28c-1.71,0.09-4.03,0.2-7.57,0.38c3.16-0.11,6.33-0.17,9.49-0.21
		c0.95,0.72-3.95,1.74-1.21,2.47c-5.09-0.06-10.18-0.1-15.27-0.08c2.37-0.34,6.02-0.6,5.78-0.77c-7.34-0.06,0.14,0.48-6.78,0.71
		c-0.25,0.02-0.47,0.04-0.71,0.06c-2.44,0.01-4.88,0.05-7.33,0.08c-0.69-0.09-1.26-0.2-1.83-0.32c-1.87-0.41-3.68-0.85-9.48-0.38
		c2.54-0.11,7.06,0.07,4.02,0.56c-5.37,0.12-8.07,0.29-9.76,0.49c-4.64,0.14-9.29,0.31-13.93,0.51c-2.17-0.8-2.84-1.51-10.2-1.38
		l5.71-0.26c-4.03-0.46-8.57-0.53-12.72-0.24c-10.64,1.22-20.35,2.85-29.96,5.1c-2.94,0.69-5.87,1.45-8.81,2.27
		c-5.14,1.04-10.23,2.29-15.25,3.84c-2.74,0.84-5.48,1.85-8.2,2.63c0.67-0.55,1.29-1.2,1.96-1.75c-12.15,2.86-18.71,2.42-30.69,0.86
		c-15.71-2.04-32.35-1.28-48.18-1.51c-32.02-0.46-64.14,0.25-95.95,4.16c-8.38,1.03-16.83,2.3-24.59,5.63
		c-8.34,3.57-15.63,9.4-24.23,12.29c-16.69,5.6-36.7-0.38-51.46,9.21c7.57-0.66,15.21-0.59,22.77,0.19
		c-10.59,2.93-21.92,3.12-32.61,0.55c0.83-0.98,1.67-1.96,2.5-2.94c-6.4,2.52-12.8,5.04-19.2,7.55c1.49,0.78,3.11,1.5,4.48,2.44
		c-1.49,1.26-3.15,2.13-4.45,3.63c-1.44,1.66-2.45,3.7-4.34,4.94c-1.35,0.89-3.09,1.29-4.08,2.57c-0.58,0.76-0.82,1.72-1.29,2.55
		s-1.37,1.57-2.3,1.35c0.7-1.38,1.12-2.89,1.23-4.44c-2.57,0.85-4.24,3.79-3.67,6.43c1.1,0.38,2.2,0.76,3.29,1.14
		c-1.4,1.16-2.27,2.94-2.3,4.75c-0.01,0.64,0.07,1.31-0.17,1.91c-0.27,0.67-0.89,1.13-1.49,1.54c-1.47,1.01-3.12,1.98-4.9,1.87
		c-1.78-0.11-3.54-1.81-3.03-3.52c-2.09,2.26,0.97,6.37-0.83,8.87c-0.92,1.28-3.04,1.43-4.14,0.31c-1.1-1.13-0.89-3.24,0.41-4.14
		c-1.36-0.78-2.76,0.95-3.37,2.4c-1.23,2.87-2.46,5.73-3.68,8.6c-0.2,0.47-0.4,0.98-0.26,1.47c0.2,0.67,0.95,0.98,1.43,1.49
		c1.7,1.77-0.15,5.38,1.79,6.88c-0.47-1.37,0.32-3.04,1.67-3.56c0.79,2.88,0.48,5.84,2.88,8.05c1.98,1.83,4.69,2.6,7.3,3.31
		c7.59,2.08,15.18,4.16,22.77,6.23C182.19,574.02,191.31,576.48,200.49,577.67z"/>
	<path class="st1" d="M224.96,586.92c3,0.25,3.53,0.09,3.13-0.24C227.55,586.81,226.62,586.9,224.96,586.92z"/>
	<path class="st1" d="M297.26,601.7c-0.55-0.1-1.09-0.18-1.58-0.24C296.8,601.7,297.57,601.82,297.26,601.7z"/>
	<path class="st1" d="M256.86,587.27c-0.06-0.15-0.23-0.29-0.49-0.44C256.08,586.88,256.17,587.01,256.86,587.27z"/>
	<path class="st1" d="M561.41,603.84c1.65-1.79,2.79-3.26,3.57-4.35c0.79-1.1,1.26-1.85,1.53-2.36c-1.55,2.33-3.42,4.77-5.3,6.88
		L561.41,603.84z"/>
	<path class="st1" d="M615.93,544c-0.09,0.06-0.19,0.12-0.28,0.17c0.17-0.08,0.29-0.13,0.46-0.21L615.93,544z"/>
	<path class="st1" d="M555.59,610.24c-0.36,0.44-0.77,0.91-0.93,1.23C556.04,610.28,556.02,610.11,555.59,610.24z"/>
	<path class="st1" d="M615.43,543.03c-1.68,0.59-3.8,1.38-4.94,2.05l1.34-0.32l1.37-0.25l2.73-0.5c0.63-0.39,1.27-0.81,2.14-1.32
		C618.43,542.17,617.12,542.45,615.43,543.03z"/>
	<path class="st1" d="M556.85,607.62c-0.37,0.33-0.69,0.62-0.99,0.89c-0.59,0.53-1.03,0.95-1.36,1.28
		c-0.65,0.66-0.84,0.95-0.77,1.04c0.15,0.21,1.34-0.43,1.86-0.58c1.24-1.47,3.3-3.55,5.63-6.24c-1.02,0.9-2.11,1.68-3.18,2.46
		C557.61,606.89,557.21,607.27,556.85,607.62z"/>
	<path class="st1" d="M833.92,528.41c-0.14,0.17-0.29,0.33-0.43,0.5C833.62,528.76,833.77,528.59,833.92,528.41z"/>
	<path class="st1" d="M707.07,533.33c0.35-0.01,0.64-0.02,0.92-0.03C707.55,533.3,707.23,533.3,707.07,533.33z"/>
	<path class="st1" d="M417.23,492.56c0.43-0.22,0.88-0.45,1.37-0.69C418.08,492.12,417.63,492.35,417.23,492.56z"/>
	<path class="st1" d="M316.83,606.89l-0.07,0.25C316.84,607.07,316.86,606.98,316.83,606.89z"/>
	<path class="st1" d="M238.08,584.2c0.4,0.08,0.86,0.17,1.43,0.27C239.08,584.38,238.6,584.29,238.08,584.2z"/>
	<path class="st1" d="M498.77,629.85c-1.66,0.49-2.93,0.93-3.38,1.26c1.39-0.31,2.78-0.64,4.16-0.97c0.4-0.3,0.9-0.62,1.43-0.95
		C500.2,629.41,499.45,629.63,498.77,629.85z"/>
	<path class="st1" d="M501.47,632.12l-1.14,0.12C499.26,632.82,498.84,633.06,501.47,632.12z"/>
	<path class="st1" d="M500.33,632.24c0.72-0.39,1.74-0.94,2.33-1.39c-1.09,0.5-2.19,0.99-3.29,1.49L500.33,632.24z"/>
	<path class="st1" d="M395.64,504.75c0.4-0.13,0.77-0.26,1.23-0.41C396.4,504.48,396.01,504.61,395.64,504.75z"/>
	<path class="st1" d="M786.49,476.58l-3.77-1.09C784.35,476,785.53,476.32,786.49,476.58z"/>
	<path class="st1" d="M624.34,543.45c2.57-0.73,4.65-1.28,6.33-1.82c1.69-0.5,3.02-0.86,4.07-1.23c2.11-0.74,3.19-1.32,4.31-1.84
		c1.12-0.54,2.26-1.09,4.51-1.73c1.13-0.3,2.55-0.58,4.39-0.9c0.92-0.15,1.94-0.34,3.08-0.47c1.15-0.11,2.42-0.24,3.83-0.38
		c-3.85,0.06-7.68,0.33-11.53,0.62c0.8,1.18-7.03,3.02-15.37,5.36l-2.81-0.2c1.37-0.64,2.86-1.26,4.42-1.88
		c-3.22,0.76-2.45,1.24-6.33,2.1C624.75,541.34,618.34,544.71,624.34,543.45z"/>
	<path class="st1" d="M630.38,538.8c-0.16,0.02-0.37,0.05-0.53,0.08c-0.07,0.03-0.18,0.07-0.27,0.1
		C629.85,538.92,630.07,538.87,630.38,538.8z"/>
</g>
<g>
	<defs>
		<filter id="Adobe_OpacityMaskFilter" filterUnits="userSpaceOnUse" x="172.82" y="88.97" width="338.29" height="90.42">
			<feColorMatrix  type="matrix" values="1 0 0 0 0  0 1 0 0 0  0 0 1 0 0  0 0 0 1 0"/>
		</filter>
	</defs>
	<mask maskUnits="userSpaceOnUse" x="172.82" y="88.97" width="338.29" height="90.42" id="SVGID_1_">
		<g class="st2">
			<rect x="228.36" y="21.56" class="st3" width="261.94" height="162.01"/>
		</g>
	</mask>
	<polygon class="st4" points="172.9,174.11 173.2,174.11 173.2,135.8 191.45,135.8 191.45,109.04 216.08,109.04 216.08,125.76 
		230.98,125.76 230.98,131.84 239.8,131.84 239.8,126.06 250.14,126.06 250.14,113.9 258.35,103.56 272.64,103.56 279.33,114.51 
		279.33,152.82 299.4,152.82 299.4,126.06 334.67,126.06 334.67,133.36 344.4,133.36 344.4,126.67 370.25,126.67 370.25,132.45 
		382.11,132.45 382.11,125.76 385.15,125.76 385.15,97.18 390.63,97.18 390.63,93.22 395.49,88.97 407.05,88.97 411,93.22 
		411,96.87 415.56,96.87 415.56,126.06 418.3,126.06 418.3,140.05 425.29,140.05 425.29,112.38 447.79,112.38 447.79,129.11 
		455.7,129.11 455.7,115.73 455.7,115.73 455.7,106.3 465.43,106.3 465.43,115.42 467.8,115.42 467.8,122.72 480.33,122.72 
		480.33,128.19 504.35,128.19 504.35,110.56 511.11,110.56 511.11,179.38 172.82,179.38 	"/>
	<g>
		<path class="st1" d="M493.37,183.56H226.49V19.27h266.87V183.56z M231.24,179.32h257.37V23.51H231.24V179.32z"/>
	</g>
	<path class="st0" d="M406.61,58.68c-1-3.32,1.63-8.41,16.36-7.68c14.73,0.73,18.33-11.82,32.08-12
		c13.75-0.18,11.25,11.14,25.32,8.93c14.07-2.2,22.38,12.38,6.26,17.17c-16.12,4.79-19.39-2.29-54.18,1.18
		C411.35,68.37,407.74,62.42,406.61,58.68z"/>
	<path class="st0" d="M314.39,108.27c-1.2-3.98,1.95-10.07,19.59-9.2c17.64,0.87,21.94-14.15,38.41-14.37
		c16.46-0.22,13.47,13.33,30.31,10.69c16.85-2.64,26.79,14.82,7.5,20.56c-19.29,5.73-23.22-2.74-64.86,1.41
		C320.06,119.87,315.73,112.74,314.39,108.27z"/>
	<g>
		<path class="st5" d="M301.18,66.34c0-4.27-10.85-7.74-24.23-7.74c-13.21,0-23.95,3.38-24.23,7.58c0,3.38,0,6.75,0,10.13
			c0,8.24,0,16.48,0,24.72c0,10.29,0,20.57,0,30.86c0,9.52,0,19.03,0,28.55c0,5.92,0,11.85,0,17.77c0,3.09,6.17,2.92,8.74,3.27
			c3.98,0.54,7.99,0.82,12.01,0.94c8.07,0.24,16.15-0.2,24.21-0.65c1.07-0.06,2.23-0.15,3.04-0.86c1.25-1.1,0.43-4.48,0.43-5.98
			c0-7.79,0-15.57,0-23.36c0-9.94,0-19.89,0-29.83c0-9.63,0-19.27,0-28.9c0-6.86,0-13.73,0-20.59c0-1.85,0-3.69,0-5.54
			C301.17,66.59,301.18,66.46,301.18,66.34z"/>
		<path class="st5" d="M301.18,66.34c0,0.13-0.01,0.25-0.03,0.37v6.53c-3.21-2.77-10.14-8.51-22.34-8.08
			c-15.78,0.55-23.77,4.69-26.09,6.87v-5.85h0.01c0.27-4.2,11.01-7.58,24.22-7.58C290.34,58.6,301.18,62.07,301.18,66.34z"/>
		<g class="st6">
			<path class="st5" d="M257.34,97.26v4.05c-0.72,0.22-1.43,0.46-2.13,0.71c-0.41,0.15-0.82,0.31-1.23,0.47
				c-0.18,0.07-0.35,0.14-0.53,0.21c-0.01,0-0.01,0.01-0.02,0.01c0,0-0.01,0-0.01,0c0,0,0,0,0,0c0,0,0,0,0,0c0,0,0,0-0.01,0
				c0,0,0,0,0,0c0,0-0.01,0-0.01,0.01c-0.01,0.01-0.04,0.02-0.06,0.03c-0.01,0-0.01,0-0.02,0.01c0,0,0,0-0.01,0c0,0,0,0,0,0
				c-0.01,0-0.01,0-0.02,0.01c0,0-0.01,0-0.01,0c0,0-0.01,0-0.01,0c-0.11,0.05-0.21,0.1-0.32,0.14v-4.16
				C254.37,98.2,255.85,97.7,257.34,97.26z"/>
			<path class="st5" d="M262.12,96.08v3.98c-0.6,0.13-1.19,0.27-1.78,0.41c-0.88,0.22-1.76,0.46-2.63,0.72v-4.04
				C259.17,96.74,260.64,96.38,262.12,96.08z"/>
			<path class="st5" d="M271.7,94.82v3.89c-0.63,0.05-1.26,0.1-1.89,0.16c-0.6,0.06-1.21,0.12-1.81,0.2
				c-0.35,0.04-0.53,0.06-0.7,0.09v-3.91C268.76,95.06,270.23,94.92,271.7,94.82z"/>
			<path class="st5" d="M276.48,94.63v3.87c-0.96,0.01-1.92,0.04-2.88,0.09c-0.51,0.03-1.02,0.06-1.53,0.09V94.8
				c1.13-0.07,2.27-0.12,3.4-0.15C275.81,94.64,276.15,94.63,276.48,94.63z"/>
			<path class="st5" d="M281.27,94.73v3.88c-0.11-0.01-0.21-0.01-0.32-0.02c-1.36-0.07-2.73-0.1-4.09-0.09v-3.87
				C278.33,94.62,279.8,94.65,281.27,94.73z"/>
			<path class="st5" d="M290.84,95.92v3.96c-0.98-0.21-1.97-0.4-2.97-0.56c-0.32-0.05-0.64-0.1-0.96-0.15
				c-0.04-0.01-0.33-0.05-0.49-0.07v-3.9C287.91,95.39,289.38,95.63,290.84,95.92z"/>
			<path class="st5" d="M295.63,97.1v4.04c-0.02,0-0.03-0.01-0.05-0.02c-1.44-0.45-2.89-0.83-4.36-1.15V96
				C292.71,96.31,294.18,96.67,295.63,97.1z"/>
		</g>
		<g class="st7">
			<path class="st5" d="M257.34,103.05v4.05c-0.72,0.22-1.43,0.46-2.13,0.71c-0.41,0.15-0.82,0.31-1.23,0.47
				c-0.18,0.07-0.35,0.14-0.53,0.21c-0.01,0-0.01,0.01-0.02,0.01c0,0-0.01,0-0.01,0c0,0,0,0,0,0c0,0,0,0,0,0c0,0,0,0-0.01,0
				c0,0,0,0,0,0c0,0-0.01,0-0.01,0.01c-0.01,0.01-0.04,0.02-0.06,0.03c-0.01,0-0.01,0-0.02,0.01c0,0,0,0-0.01,0c0,0,0,0,0,0
				c-0.01,0-0.01,0-0.02,0.01c0,0-0.01,0-0.01,0c0,0-0.01,0-0.01,0c-0.11,0.05-0.21,0.1-0.32,0.14v-4.16
				C254.37,103.99,255.85,103.49,257.34,103.05z"/>
			<path class="st5" d="M262.12,101.87v3.98c-0.6,0.13-1.19,0.27-1.78,0.41c-0.88,0.22-1.76,0.46-2.63,0.72v-4.04
				C259.17,102.53,260.64,102.18,262.12,101.87z"/>
			<path class="st5" d="M266.91,101.08v3.91c-0.07,0.01-0.15,0.02-0.25,0.04c-1.39,0.2-2.78,0.45-4.16,0.74v-3.97
				C263.96,101.51,265.43,101.27,266.91,101.08z"/>
			<path class="st5" d="M271.7,100.61v3.89c-0.63,0.05-1.26,0.1-1.89,0.16c-0.6,0.06-1.21,0.12-1.81,0.2
				c-0.35,0.04-0.53,0.06-0.7,0.09v-3.91C268.76,100.85,270.23,100.71,271.7,100.61z"/>
			<path class="st5" d="M276.48,100.42v3.87c-0.96,0.01-1.92,0.04-2.88,0.09c-0.51,0.03-1.02,0.06-1.53,0.09v-3.88
				c1.13-0.07,2.27-0.12,3.4-0.15C275.81,100.43,276.15,100.43,276.48,100.42z"/>
			<path class="st5" d="M286.06,100.94v3.9c-0.5-0.07-1.01-0.12-1.52-0.18c-0.96-0.1-1.93-0.18-2.89-0.24v-3.89
				C283.12,100.63,284.59,100.76,286.06,100.94z"/>
			<path class="st5" d="M295.63,102.89v4.04c-0.02,0-0.03-0.01-0.05-0.02c-1.44-0.45-2.89-0.83-4.36-1.15v-3.97
				C292.71,102.1,294.18,102.46,295.63,102.89z"/>
			<path class="st5" d="M300.42,104.53v4.17c-1.41-0.62-2.81-1.14-4.41-1.65V103C297.5,103.44,298.97,103.95,300.42,104.53z"/>
		</g>
		<g class="st6">
			<path class="st5" d="M257.34,132.09v4.05c-0.72,0.22-1.43,0.46-2.13,0.71c-0.41,0.15-0.82,0.31-1.23,0.47
				c-0.18,0.07-0.35,0.14-0.53,0.21c-0.01,0-0.01,0.01-0.02,0.01c0,0-0.01,0-0.01,0c0,0,0,0,0,0c0,0,0,0,0,0c0,0,0,0-0.01,0
				c0,0,0,0,0,0c0,0-0.01,0-0.01,0.01c-0.01,0.01-0.04,0.02-0.06,0.03c-0.01,0-0.01,0-0.02,0.01c0,0,0,0-0.01,0c0,0,0,0,0,0
				c-0.01,0-0.01,0-0.02,0.01c0,0-0.01,0-0.01,0c0,0-0.01,0-0.01,0c-0.11,0.05-0.21,0.1-0.32,0.14v-4.16
				C254.37,133.03,255.85,132.53,257.34,132.09z"/>
			<path class="st5" d="M262.12,130.91v3.98c-0.6,0.13-1.19,0.27-1.78,0.41c-0.88,0.22-1.76,0.46-2.63,0.72v-4.04
				C259.17,131.57,260.64,131.22,262.12,130.91z"/>
			<path class="st5" d="M271.7,129.65v3.89c-0.63,0.05-1.26,0.1-1.89,0.16c-0.6,0.06-1.21,0.12-1.81,0.2
				c-0.35,0.04-0.53,0.06-0.7,0.09v-3.91C268.76,129.89,270.23,129.75,271.7,129.65z"/>
			<path class="st5" d="M276.48,129.46v3.87c-0.96,0.01-1.92,0.04-2.88,0.09c-0.51,0.03-1.02,0.06-1.53,0.09v-3.88
				c1.13-0.07,2.27-0.12,3.4-0.15C275.81,129.47,276.15,129.47,276.48,129.46z"/>
			<path class="st5" d="M286.06,129.98v3.9c-0.5-0.07-1.01-0.12-1.52-0.18c-0.96-0.1-1.93-0.18-2.89-0.24v-3.89
				C283.12,129.67,284.59,129.8,286.06,129.98z"/>
			<path class="st5" d="M300.42,133.57v4.17c-1.41-0.62-2.81-1.14-4.41-1.65v-4.05C297.5,132.48,298.97,132.99,300.42,133.57z"/>
		</g>
		<g class="st6">
			<path class="st5" d="M257.34,108.85v4.05c-0.72,0.22-1.43,0.46-2.13,0.71c-0.41,0.15-0.82,0.31-1.23,0.47
				c-0.18,0.07-0.35,0.14-0.53,0.21c-0.01,0-0.01,0.01-0.02,0.01c0,0-0.01,0-0.01,0c0,0,0,0,0,0c0,0,0,0,0,0c0,0,0,0-0.01,0
				c0,0,0,0,0,0c0,0-0.01,0-0.01,0.01c-0.01,0.01-0.04,0.02-0.06,0.03c-0.01,0-0.01,0-0.02,0.01c0,0,0,0-0.01,0c0,0,0,0,0,0
				c-0.01,0-0.01,0-0.02,0.01c0,0-0.01,0-0.01,0c0,0-0.01,0-0.01,0c-0.11,0.05-0.21,0.1-0.32,0.14v-4.16
				C254.37,109.78,255.85,109.28,257.34,108.85z"/>
			<path class="st5" d="M266.91,106.87v3.91c-0.07,0.01-0.15,0.02-0.25,0.04c-1.39,0.2-2.78,0.45-4.16,0.74v-3.97
				C263.96,107.3,265.43,107.06,266.91,106.87z"/>
			<path class="st5" d="M271.7,106.4v3.89c-0.63,0.05-1.26,0.1-1.89,0.16c-0.6,0.06-1.21,0.12-1.81,0.2
				c-0.35,0.04-0.53,0.06-0.7,0.09v-3.91C268.76,106.64,270.23,106.5,271.7,106.4z"/>
			<path class="st5" d="M276.48,106.21v3.87c-0.96,0.01-1.92,0.04-2.88,0.09c-0.51,0.03-1.02,0.06-1.53,0.09v-3.88
				c1.13-0.07,2.27-0.12,3.4-0.15C275.81,106.22,276.15,106.22,276.48,106.21z"/>
			<path class="st5" d="M281.27,106.31v3.88c-0.11-0.01-0.21-0.01-0.32-0.02c-1.36-0.07-2.73-0.1-4.09-0.09v-3.87
				C278.33,106.2,279.8,106.23,281.27,106.31z"/>
			<path class="st5" d="M286.06,106.73v3.9c-0.5-0.07-1.01-0.12-1.52-0.18c-0.96-0.1-1.93-0.18-2.89-0.24v-3.89
				C283.12,106.42,284.59,106.55,286.06,106.73z"/>
			<path class="st5" d="M290.84,107.51v3.96c-0.98-0.21-1.97-0.4-2.97-0.56c-0.32-0.05-0.64-0.1-0.96-0.15
				c-0.04-0.01-0.33-0.05-0.49-0.07v-3.9C287.91,106.97,289.38,107.21,290.84,107.51z"/>
			<path class="st5" d="M300.42,110.32v4.17c-1.41-0.62-2.81-1.14-4.41-1.65v-4.05C297.5,109.24,298.97,109.74,300.42,110.32z"/>
		</g>
		<g class="st8">
			<path class="st5" d="M257.34,125.42v4.05c-0.72,0.22-1.43,0.46-2.13,0.71c-0.41,0.15-0.82,0.31-1.23,0.47
				c-0.18,0.07-0.35,0.14-0.53,0.21c-0.01,0-0.01,0.01-0.02,0.01c0,0-0.01,0-0.01,0c0,0,0,0,0,0c0,0,0,0,0,0c0,0,0,0-0.01,0
				c0,0,0,0,0,0c0,0-0.01,0-0.01,0.01c-0.01,0.01-0.04,0.02-0.06,0.03c-0.01,0-0.01,0-0.02,0.01c0,0,0,0-0.01,0c0,0,0,0,0,0
				c-0.01,0-0.01,0-0.02,0.01c0,0-0.01,0-0.01,0c0,0-0.01,0-0.01,0c-0.11,0.05-0.21,0.1-0.32,0.14v-4.16
				C254.37,126.35,255.85,125.85,257.34,125.42z"/>
			<path class="st5" d="M266.91,123.44v3.91c-0.07,0.01-0.15,0.02-0.25,0.04c-1.39,0.2-2.78,0.45-4.16,0.74v-3.97
				C263.96,123.87,265.43,123.64,266.91,123.44z"/>
			<path class="st5" d="M276.48,122.78v3.87c-0.96,0.01-1.92,0.04-2.88,0.09c-0.51,0.03-1.02,0.06-1.53,0.09v-3.88
				c1.13-0.07,2.27-0.12,3.4-0.15C275.81,122.79,276.15,122.79,276.48,122.78z"/>
			<path class="st5" d="M281.27,122.88v3.88c-0.11-0.01-0.21-0.01-0.32-0.02c-1.36-0.07-2.73-0.1-4.09-0.09v-3.87
				C278.33,122.77,279.8,122.81,281.27,122.88z"/>
			<path class="st5" d="M286.06,123.3v3.9c-0.5-0.07-1.01-0.12-1.52-0.18c-0.96-0.1-1.93-0.18-2.89-0.24v-3.89
				C283.12,122.99,284.59,123.12,286.06,123.3z"/>
			<path class="st5" d="M290.84,124.08v3.96c-0.98-0.21-1.97-0.4-2.97-0.56c-0.32-0.05-0.64-0.1-0.96-0.15
				c-0.04-0.01-0.33-0.05-0.49-0.07v-3.9C287.91,123.54,289.38,123.78,290.84,124.08z"/>
			<path class="st5" d="M300.42,126.89v4.17c-1.41-0.62-2.81-1.14-4.41-1.65v-4.05C297.5,125.81,298.97,126.32,300.42,126.89z"/>
		</g>
		<g class="st6">
			<path class="st5" d="M257.34,147.5v4.05c-0.72,0.22-1.43,0.46-2.13,0.71c-0.41,0.15-0.82,0.31-1.23,0.47
				c-0.18,0.07-0.35,0.14-0.53,0.21c-0.01,0-0.01,0.01-0.02,0.01c0,0-0.01,0-0.01,0c0,0,0,0,0,0c0,0,0,0,0,0c0,0,0,0-0.01,0
				c0,0,0,0,0,0c0,0-0.01,0-0.01,0.01c-0.01,0.01-0.04,0.02-0.06,0.03c-0.01,0-0.01,0-0.02,0.01c0,0,0,0-0.01,0c0,0,0,0,0,0
				c-0.01,0-0.01,0-0.02,0.01c0,0-0.01,0-0.01,0c0,0-0.01,0-0.01,0c-0.11,0.05-0.21,0.1-0.32,0.14V149
				C254.37,148.44,255.85,147.94,257.34,147.5z"/>
			<path class="st5" d="M266.91,145.53v3.91c-0.07,0.01-0.15,0.02-0.25,0.04c-1.39,0.2-2.78,0.45-4.16,0.74v-3.97
				C263.96,145.95,265.43,145.72,266.91,145.53z"/>
			<path class="st5" d="M271.7,145.06v3.89c-0.63,0.05-1.26,0.1-1.89,0.16c-0.6,0.06-1.21,0.12-1.81,0.2
				c-0.35,0.04-0.53,0.06-0.7,0.09v-3.91C268.76,145.29,270.23,145.16,271.7,145.06z"/>
			<path class="st5" d="M281.27,144.96v3.88c-0.11-0.01-0.21-0.01-0.32-0.02c-1.36-0.07-2.73-0.1-4.09-0.09v-3.87
				C278.33,144.85,279.8,144.89,281.27,144.96z"/>
			<path class="st5" d="M290.84,146.16v3.96c-0.98-0.21-1.97-0.4-2.97-0.56c-0.32-0.05-0.64-0.1-0.96-0.15
				c-0.04-0.01-0.33-0.05-0.49-0.07v-3.9C287.91,145.62,289.38,145.86,290.84,146.16z"/>
			<path class="st5" d="M300.42,148.97v4.17c-1.41-0.62-2.81-1.14-4.41-1.65v-4.05C297.5,147.89,298.97,148.4,300.42,148.97z"/>
		</g>
		<g class="st6">
			<g>
				<path class="st5" d="M258.61,70.3c0.15,1.34,0.3,2.68,0.45,4.02c-0.7,0.3-1.39,0.62-2.06,0.97c-0.4,0.2-0.79,0.41-1.18,0.63
					c-0.17,0.09-0.33,0.19-0.5,0.28c-0.01,0-0.01,0.01-0.02,0.01c0,0-0.01,0-0.01,0.01c0,0,0,0,0,0c0,0,0,0,0,0c0,0,0,0-0.01,0
					c0,0,0,0,0,0c0,0-0.01,0.01-0.01,0.01c-0.01,0.01-0.03,0.02-0.06,0.04c-0.01,0-0.01,0.01-0.01,0.01c0,0,0,0-0.01,0c0,0,0,0,0,0
					c-0.01,0-0.01,0.01-0.02,0.01c0,0-0.01,0-0.01,0.01c0,0-0.01,0-0.01,0.01c-0.1,0.06-0.2,0.13-0.3,0.19
					c-0.2-1.37-0.41-2.75-0.61-4.12C255.63,71.61,257.1,70.91,258.61,70.3z"/>
				<path class="st5" d="M263.54,68.67c0.09,1.32,0.19,2.64,0.28,3.97c-0.6,0.17-1.2,0.36-1.79,0.56c-0.88,0.3-1.75,0.62-2.6,0.98
					c-0.14-1.34-0.29-2.68-0.43-4.02C260.47,69.57,261.99,69.08,263.54,68.67z"/>
				<path class="st5" d="M268.58,67.61c0.04,1.3,0.08,2.61,0.12,3.91c-0.07,0.01-0.16,0.03-0.26,0.04
					c-1.43,0.25-2.85,0.57-4.24,0.96c-0.09-1.32-0.18-2.64-0.27-3.96C265.46,68.17,267.01,67.85,268.58,67.61z"/>
				<path class="st5" d="M273.68,67.08c-0.01,1.3-0.02,2.59-0.03,3.89c-0.65,0.04-1.31,0.1-1.96,0.16
					c-0.63,0.06-1.25,0.14-1.87,0.23c-0.36,0.05-0.55,0.08-0.73,0.11c-0.04-1.3-0.07-2.61-0.11-3.91
					C270.53,67.32,272.11,67.17,273.68,67.08z"/>
				<path class="st5" d="M278.8,67.03c-0.06,1.29-0.12,2.58-0.19,3.87c-1-0.04-2-0.04-2.99-0.02c-0.53,0.01-1.06,0.03-1.59,0.06
					c0.01-1.29,0.03-2.59,0.05-3.88c1.21-0.06,2.43-0.08,3.63-0.06C278.07,67.01,278.44,67.02,278.8,67.03z"/>
				<path class="st5" d="M283.9,67.47c-0.11,1.29-0.23,2.58-0.34,3.87c-0.11-0.02-0.22-0.03-0.33-0.05
					c-1.4-0.19-2.82-0.32-4.23-0.38c0.07-1.29,0.13-2.58,0.2-3.87C280.77,67.12,282.34,67.26,283.9,67.47z"/>
				<path class="st5" d="M288.94,68.43c-0.17,1.29-0.33,2.58-0.49,3.87c-0.51-0.13-1.02-0.25-1.54-0.36
					c-0.98-0.21-1.97-0.39-2.96-0.54c0.12-1.29,0.23-2.58,0.35-3.87C285.86,67.76,287.41,68.06,288.94,68.43z"/>
				<path class="st5" d="M293.86,69.94c-0.22,1.3-0.44,2.61-0.66,3.91c-0.96-0.38-1.94-0.72-2.93-1.02
					c-0.32-0.1-0.64-0.19-0.96-0.28c-0.04-0.01-0.33-0.09-0.49-0.14c0.17-1.29,0.34-2.58,0.51-3.87
					C290.87,68.93,292.38,69.39,293.86,69.94z"/>
			</g>
		</g>
		<g>
			<g>
				<path class="st5" d="M257.07,77.43c0.16,1.31,0.33,2.61,0.49,3.92c-0.68,0.3-1.35,0.62-2,0.97c-0.38,0.2-0.77,0.41-1.14,0.63
					c-0.16,0.09-0.32,0.19-0.48,0.28c-0.01,0-0.01,0.01-0.02,0.01c0,0-0.01,0-0.01,0.01c0,0,0,0,0,0c0,0,0,0,0,0c0,0,0,0-0.01,0
					c0,0,0,0,0,0c0,0-0.01,0.01-0.01,0.01c-0.01,0.01-0.03,0.02-0.06,0.03c-0.01,0-0.01,0.01-0.01,0.01c0,0,0,0-0.01,0c0,0,0,0,0,0
					c-0.01,0-0.01,0.01-0.02,0.01c0,0-0.01,0-0.01,0.01c0,0-0.01,0-0.01,0.01c-0.1,0.06-0.19,0.12-0.29,0.19
					c-0.21-1.34-0.41-2.68-0.62-4.02C254.2,78.73,255.61,78.04,257.07,77.43z"/>
				<path class="st5" d="M261.8,75.76c0.12,1.29,0.24,2.58,0.36,3.87c-0.58,0.18-1.16,0.37-1.73,0.58c-0.85,0.3-1.69,0.64-2.52,1
					c-0.16-1.31-0.32-2.61-0.48-3.92C258.85,76.7,260.31,76.19,261.8,75.76z"/>
				<path class="st5" d="M266.65,74.61c0.08,1.27,0.15,2.54,0.23,3.81c-0.07,0.01-0.15,0.03-0.25,0.05
					c-1.38,0.29-2.75,0.63-4.1,1.04c-0.12-1.29-0.23-2.57-0.35-3.86C263.65,75.23,265.14,74.89,266.65,74.61z"/>
				<path class="st5" d="M271.56,73.93c0.04,1.26,0.07,2.53,0.11,3.79c-0.63,0.06-1.27,0.14-1.9,0.22
					c-0.61,0.08-1.21,0.17-1.81,0.28c-0.35,0.06-0.53,0.09-0.7,0.12c-0.07-1.27-0.15-2.54-0.22-3.81
					C268.53,74.27,270.04,74.07,271.56,73.93z"/>
				<path class="st5" d="M276.49,73.68c0,1.26-0.01,2.52-0.01,3.78c-0.97,0.01-1.94,0.04-2.9,0.1c-0.51,0.03-1.02,0.07-1.54,0.12
					c-0.03-1.26-0.07-2.53-0.1-3.79c1.17-0.1,2.34-0.17,3.5-0.2C275.79,73.69,276.14,73.68,276.49,73.68z"/>
				<path class="st5" d="M286.34,74.52c-0.08,1.27-0.17,2.53-0.25,3.8c-0.5-0.1-1.01-0.18-1.51-0.26c-0.96-0.15-1.93-0.27-2.9-0.37
					c0.05-1.26,0.09-2.53,0.14-3.79C283.34,74.04,284.85,74.24,286.34,74.52z"/>
				<path class="st5" d="M295.91,77.36c-0.17,1.3-0.34,2.61-0.51,3.91c-0.02-0.01-0.03-0.01-0.05-0.02
					c-1.36-0.61-2.76-1.15-4.18-1.61c0.13-1.29,0.26-2.57,0.39-3.86C293.05,76.24,294.5,76.76,295.91,77.36z"/>
				<path class="st5" d="M300.48,79.65c-0.22,1.34-0.43,2.68-0.65,4.02c-1.27-0.82-2.56-1.53-4.07-2.23
					c0.17-1.31,0.35-2.61,0.52-3.92C297.73,78.15,299.14,78.86,300.48,79.65z"/>
			</g>
		</g>
		<g class="st6">
			<g>
				<path class="st5" d="M257.11,83.23c0.16,1.3,0.32,2.61,0.49,3.91c-0.68,0.3-1.34,0.62-1.99,0.96c-0.38,0.2-0.76,0.41-1.14,0.62
					c-0.16,0.09-0.32,0.19-0.48,0.28c-0.01,0-0.01,0.01-0.02,0.01c0,0-0.01,0-0.01,0.01c0,0,0,0,0,0c0,0,0,0,0,0c0,0,0,0-0.01,0
					c0,0,0,0,0,0c0,0-0.01,0.01-0.01,0.01c-0.01,0.01-0.03,0.02-0.06,0.03c-0.01,0-0.01,0.01-0.01,0.01c0,0,0,0-0.01,0c0,0,0,0,0,0
					c-0.01,0-0.01,0.01-0.02,0.01c0,0-0.01,0-0.01,0.01c0,0-0.01,0-0.01,0.01c-0.1,0.06-0.19,0.12-0.29,0.19
					c-0.21-1.33-0.41-2.67-0.62-4C254.25,84.53,255.66,83.84,257.11,83.23z"/>
				<path class="st5" d="M261.83,81.56c0.12,1.28,0.24,2.57,0.36,3.85c-0.58,0.18-1.15,0.37-1.72,0.57
					c-0.85,0.3-1.69,0.63-2.51,0.99c-0.16-1.3-0.32-2.6-0.48-3.9C258.89,82.5,260.35,82,261.83,81.56z"/>
				<path class="st5" d="M266.66,80.42c0.08,1.27,0.15,2.53,0.23,3.8c-0.07,0.01-0.15,0.03-0.25,0.05
					c-1.38,0.29-2.74,0.63-4.08,1.03c-0.12-1.28-0.23-2.56-0.35-3.85C263.67,81.04,265.16,80.7,266.66,80.42z"/>
				<path class="st5" d="M271.55,79.74c0.04,1.26,0.07,2.52,0.11,3.78c-0.63,0.06-1.26,0.14-1.89,0.22
					c-0.6,0.08-1.21,0.17-1.81,0.28c-0.35,0.06-0.53,0.09-0.7,0.12c-0.07-1.27-0.15-2.53-0.22-3.8
					C268.54,80.08,270.04,79.88,271.55,79.74z"/>
				<path class="st5" d="M276.47,79.49c0,1.26-0.01,2.51-0.01,3.77c-0.97,0.01-1.93,0.04-2.89,0.1c-0.51,0.03-1.02,0.07-1.53,0.12
					c-0.03-1.26-0.07-2.52-0.1-3.78c1.16-0.1,2.33-0.17,3.49-0.2C275.78,79.5,276.12,79.49,276.47,79.49z"/>
				<path class="st5" d="M281.4,79.68c-0.04,1.26-0.09,2.52-0.13,3.78c-0.11-0.01-0.21-0.02-0.32-0.03
					c-1.37-0.11-2.74-0.17-4.11-0.17c0.01-1.26,0.01-2.51,0.02-3.77C278.37,79.49,279.89,79.55,281.4,79.68z"/>
				<path class="st5" d="M286.29,80.33c-0.08,1.26-0.17,2.52-0.25,3.78c-0.5-0.1-1-0.18-1.51-0.26c-0.96-0.15-1.92-0.27-2.89-0.37
					c0.05-1.26,0.09-2.52,0.14-3.78C283.29,79.85,284.8,80.05,286.29,80.33z"/>
				<path class="st5" d="M291.11,81.48c-0.13,1.28-0.25,2.56-0.38,3.84c-0.96-0.3-1.92-0.57-2.9-0.8c-0.31-0.08-0.63-0.15-0.94-0.22
					c-0.04-0.01-0.32-0.07-0.48-0.1c0.09-1.26,0.17-2.53,0.26-3.79C288.17,80.69,289.65,81.05,291.11,81.48z"/>
				<path class="st5" d="M300.38,85.44c-0.22,1.33-0.43,2.67-0.65,4c-1.26-0.82-2.55-1.52-4.06-2.22c0.17-1.3,0.34-2.6,0.52-3.91
					C297.63,83.95,299.03,84.65,300.38,85.44z"/>
			</g>
		</g>
		<g class="st6">
			<path class="st5" d="M257.06,163.93v12.75h-2.29v-11.52C255.46,164.72,256.23,164.31,257.06,163.93z"/>
			<path class="st5" d="M261.72,162.23v14.45h-2.29v-13.71C260.15,162.7,260.92,162.46,261.72,162.23z"/>
			<path class="st5" d="M266.37,161.17v15.51h-2.29v-15.05C264.82,161.46,265.58,161.31,266.37,161.17z"/>
			<path class="st5" d="M271.02,160.55v16.13h-2.29v-15.87C269.48,160.71,270.24,160.62,271.02,160.55z"/>
			<path class="st5" d="M275.68,160.3v16.37h-2.29v-16.29C274.14,160.34,274.9,160.32,275.68,160.3z"/>
			<path class="st5" d="M280.33,160.39v16.29h-2.29v-16.37C278.81,160.32,279.58,160.35,280.33,160.39z"/>
			<path class="st5" d="M284.99,160.83v15.85h-2.29v-16.11C283.47,160.64,284.24,160.73,284.99,160.83z"/>
			<path class="st5" d="M289.64,161.67v15.01h-2.29V161.2C288.13,161.34,288.9,161.49,289.64,161.67z"/>
			<path class="st5" d="M294.3,163.02v13.66H292v-14.4C292.8,162.51,293.57,162.76,294.3,163.02z"/>
			<path class="st5" d="M298.95,165.25v11.42h-2.29V164C297.49,164.39,298.26,164.81,298.95,165.25z"/>
		</g>
		<path class="st5" d="M278.84,60.33c2.24-0.17,6.89-0.23,10.81,1.59l-0.32,3.06c0,0-6.84-1.77-11.66-0.8
			c-0.1-0.97-0.14-1.76-0.16-2.36C277.48,61.03,278.07,60.38,278.84,60.33z"/>
		<path class="st9" d="M301.18,66.34c0,0.13-0.01,0.25-0.03,0.37v117.72H287.4l1.96-124.74c0.53,0.1,1.04,0.21,1.54,0.32
			c0.08,0.02,0.16,0.04,0.24,0.05c0.05,0.01,0.1,0.02,0.15,0.03c0.1,0.02,0.21,0.05,0.31,0.07c0.09,0.02,0.18,0.04,0.27,0.07
			c0.14,0.03,0.28,0.07,0.42,0.11c0.07,0.02,0.14,0.04,0.22,0.06c0.03,0.01,0.06,0.02,0.1,0.03c0.07,0.02,0.14,0.04,0.21,0.06
			c0.37,0.1,0.72,0.21,1.07,0.31c0.11,0.03,0.21,0.07,0.32,0.1c0.01,0,0.01,0,0.02,0.01c0.11,0.04,0.23,0.07,0.34,0.11
			c0.11,0.04,0.22,0.07,0.33,0.11v0C298.8,62.51,301.18,64.33,301.18,66.34z"/>
		<path class="st10" d="M283.78,58.74c2.84,0.17,3.19,0.5,5.58,0.96l-1.72,124.74h-5.31L283.78,58.74z"/>
	</g>
	<path class="st0" d="M236.97,51.66c-2.75-0.02-11.28-0.47-8.01-7.57c2.12-4.6,7.77-0.63,18.21-4.44
		c10.44-3.81,14.41-9.98,28.41-4.84c13.99,5.14,11.27,0.43,19.2,0.51c10.73,0.11,13.29,16.66-3.63,17.03
		C274.23,52.72,251.89,51.78,236.97,51.66z"/>
	<path class="st1" d="M521.76,183.93H198.09c-1.12,0-2.02-0.9-2.02-2.02v0c0-1.12,0.9-2.02,2.02-2.02h323.67
		c1.12,0,2.02,0.9,2.02,2.02v0C523.79,183.02,522.88,183.93,521.76,183.93z"/>
	<rect x="318.04" y="19.27" class="st1" width="5.05" height="164.3"/>
</g>
<g>
	<path class="st11" d="M211.99,169.11c0.08,40.3-0.22,80.6-0.9,120.89c-0.68,40.12-1.74,80.24-3.18,120.35
		c-0.81,22.65-1.75,45.3-2.8,67.95c-0.03,0.65,0.98,0.57,1.01-0.07c1.87-40.25,3.37-80.53,4.47-120.81
		c1.1-40.11,1.83-80.24,2.18-120.37c0.2-22.67,0.27-45.33,0.22-68C213,168.39,211.98,168.46,211.99,169.11z"/>
	<path class="st11" d="M248.15,124.8c-0.99-4.77-3.75-11.22-9.32-11.89c-5.53-0.66-8.93,5.08-10.53,9.52
		c-1.08,2.99-1.93,6.22-3.89,8.78c-2.22,2.91-5.89,3.44-8.58,5.71c-3.76,3.16-5.19,8.22-5.42,12.97c-0.19,3.83,0.74,7.49,0.97,11.29
		c0.28,4.6-2.05,7.94-3.4,12.12c-2.08,6.42-0.67,13.54,3.39,18.87c0.34,0.45,1.01,0.08,0.93-0.36c0.09,0,0.19-0.01,0.28-0.08
		c5.27-3.44,10.64-6.99,14.84-11.74c4.51-5.12,5.99-11.01,7.89-17.4c1.19-4.02,3.02-7.27,5.77-10.43c2.2-2.53,4.39-4.98,5.7-8.1
		C249.23,138.2,249.43,130.94,248.15,124.8z"/>
	<path class="st11" d="M164.87,193.47c-4.76-1.05-11.77-1.18-14.67,3.63c-2.87,4.78,0.97,10.23,4.36,13.51
		c2.29,2.21,4.88,4.31,6.42,7.15c1.74,3.22,0.72,6.78,1.69,10.17c1.34,4.73,5.37,8.1,9.61,10.26c3.42,1.74,7.14,2.39,10.7,3.74
		c4.31,1.63,6.4,5.12,9.66,8.07c5.01,4.52,12.08,6.16,18.6,4.64c0.55-0.13,0.49-0.89,0.05-1c0.04-0.08,0.06-0.17,0.05-0.29
		c-0.98-6.22-2.01-12.57-4.63-18.35c-2.82-6.21-7.59-9.98-12.64-14.32c-3.18-2.73-5.39-5.74-7.15-9.54
		c-1.4-3.04-2.74-6.04-5.05-8.52C177.54,197.98,171,194.82,164.87,193.47z"/>
	<path class="st11" d="M273.02,216.42c-1-1.88-2.84-4.47-4.97-5.17c-2.37-0.78-5.54,1.45-7.6,2.42c-2.92,1.36-5.8,2.86-8.44,4.71
		c-5.31,3.74-8.8,8.94-11.86,14.57c-1.82,3.34-3.44,6.88-5.69,9.96c-2.72,3.72-6.16,5.21-10.41,6.56
		c-6.05,1.93-10.66,5.79-12.74,11.91c-0.1,0.3,0.08,0.49,0.31,0.55c1.1,4.53,5.59,7.36,10.15,7.32c6.24-0.05,10.8-4.59,14.69-8.9
		c2.66-2.95,5.26-5.13,9.14-6.25c2.98-0.87,5.85-1.7,8.63-3.12c4.9-2.49,9.23-6.07,12.66-10.35c3.47-4.34,6.42-9.69,7.46-15.2
		C274.93,222.36,274.5,219.21,273.02,216.42z"/>
	<path class="st11" d="M211.64,311.24c-1.84-4.57-6.14-7.92-11.12-8.26c-1.92-0.13-3.8,0.42-5.71,0.27
		c-2.36-0.19-4.24-1.58-6.17-2.84c-3.38-2.22-6.67-4.56-10.04-6.8c-5.84-3.89-11.94-7.52-18.69-9.58
		c-5.41-1.66-14.61-3.49-19.3,0.88c-1.85,1.72-2.42,5.04-2.86,7.4c-0.64,3.44,0.12,6.58,1.22,9.84c0.86,2.55,1.89,5.41,4.2,7.02
		c2.9,2.03,6.81,1.12,8.33,5.03c1.06,2.72,1.18,5.53,2.95,7.97c1.47,2.03,3.57,3.63,5.93,4.48c6.93,2.5,13.51-2,19.51-4.86
		c2.01-0.96,4.26-2.03,6.52-2.19c2.44-0.17,4.26,0.89,6.23,2.14c2.81,1.78,5.97,2.97,9.35,2.46c5.99-0.92,8.71-6.83,9.12-12.3
		C211.45,311.9,211.8,311.63,211.64,311.24z"/>
	<path class="st11" d="M280.2,311.36c-9.74-10.79-23.86,1.59-31.64,8.51c-3.48,3.09-6.79,6.68-11.21,8.41
		c-3.87,1.51-8.11,1.52-12.09,2.63c-6.44,1.8-11.86,6.25-15.01,12.13c-0.17,0.15-0.24,0.38-0.04,0.6c1.51,1.73,2.65,3.32,2.97,5.67
		c0.18,1.33,0.18,2.67,0.86,3.87c1.08,1.89,3.25,2.46,5.32,2.26c3.28-0.32,5.93-2.78,9.24-2.93c4.11-0.19,8.11,2.37,12.22,2.8
		c5.97,0.62,12.12-1.06,16.43-5.36c2.25-2.25,3.27-5.96,5.93-7.71c2.86-1.88,6.72-1.14,9.93-1.71c5.74-1.02,8.7-7.08,10.22-12.19
		C285.05,322.5,284.39,316,280.2,311.36z"/>
	<path class="st12" d="M254.76,396.2c-0.04-0.23-0.23-0.47-0.49-0.43c-8.15,1.46-85.84,5.29-93.66,4.86l0-0.06
		c0-0.59-0.92-0.53-0.92,0.06c0,0.05,0,0.09,0,0.14c-0.17,0.19-0.19,0.5,0,0.65c-0.08,13.35-0.15,26.7,0.25,40.05
		c0.38,12.73,1.37,25.31,4.38,37.71c2.9,11.99,7.22,23.59,12.44,34.75c2.52,5.38,5.25,10.66,8.14,15.85
		c1.12,2.02,1.61,5.63,3.81,6.36c7.68,2.52,34.49,1.45,49.5-0.17c0.22-0.02,1.99-4.31,2.05-4.51c5.21-16.86,8.71-34.17,11.19-51.63
		c2.47-17.39,4.41-35.04,5.13-52.6C256.99,416.85,256.4,406.47,254.76,396.2z"/>
	<path class="st13" d="M239.61,113.06c-0.25-0.05-0.49-0.11-0.75-0.14c-0.1-0.01-0.2-0.01-0.3-0.02c1.47,7.84,0.5,16.11-4.48,22.6
		c-2.27,2.95-5.04,5.48-7.24,8.49c-2.02,2.77-3.31,5.87-4.03,9.21c-1.77,8.26-1.17,16.53-4.88,24.36c-2.18,4.61-5.81,9.1-6.92,14.06
		c0.13,0.18,0.26,0.37,0.39,0.55c0.13,0.17,0.32,0.22,0.49,0.19c0.5-2.8,1.87-5.47,3.35-7.98c2.03-3.44,4.02-6.79,5.29-10.6
		c2.61-7.87,1.42-16.53,4.4-24.26c2.74-7.13,9.77-11.32,12.91-18.23C240.44,125.57,240.71,119.17,239.61,113.06z"/>
	<path class="st13" d="M270.43,212.89c-2.18,7.04-4.13,14.67-9.03,20.28c-2.48,2.84-5.6,5.12-9.06,6.62
		c-3.39,1.48-7.11,1.61-10.51,2.95c-5.28,2.07-8.57,6.97-12.33,10.93c-2.55,2.68-5.36,4.82-8.96,5.87c-2.87,0.83-5.86,1-8.85,0.99
		c-0.12,0.31-0.27,0.6-0.38,0.92c-0.01,0.02,0,0.04-0.01,0.06c6.31-0.02,12.3-0.93,17.25-5.47c5.3-4.87,8.82-11.41,16.33-13.11
		c6.98-1.58,13.1-3.96,17.78-9.67c4.51-5.49,6.48-12.72,8.56-19.49C270.97,213.45,270.71,213.16,270.43,212.89z"/>
	<path class="st13" d="M199.42,236.8c-2.07-3.17-4.71-5.85-8.26-7.3c-4.23-1.73-9.4-1.04-11.8-5.69c-2.12-4.12-1.3-8.99-2.92-13.27
		c-1.22-3.23-3.57-5.9-6.32-7.92c-5.6-4.09-12.42-5.32-19.11-6.64c-0.24,0.28-0.47,0.57-0.68,0.89c7.53,1.49,15.42,2.78,21.15,8.19
		c4.17,3.93,4.64,8.55,5.45,13.94c0.47,3.11,1.42,6.46,4.1,8.4c3.2,2.3,7.64,1.84,11.12,3.68c4.08,2.16,6.52,6.14,8.63,10.08
		c2.66,4.96,5.49,10.72,10.51,13.42c0.45-0.18,0.39-0.86-0.03-0.96c0.03-0.05,0.04-0.11,0.04-0.18
		C205.46,250.04,202.98,242.27,199.42,236.8z"/>
	<path class="st13" d="M210.95,309.81c-0.23,0.08-0.47,0.16-0.71,0.23c-2.38,0.67-4.34-0.01-6.65-0.42
		c-3.57-0.63-7.02,0.61-10.51,1.12c-2.34,0.34-4.56,0.3-6.74-0.71c-1.95-0.91-3.54-2.44-5.23-3.74c-2.61-2-5.59-3.8-8.96-3.92
		c-3.57-0.14-6.81,1.67-10.33,1.85c-5.31,0.27-7.9-4.56-10.63-8.33c-2.97-4.1-6.73-8.37-11.62-9.63c-0.16,0.28-0.31,0.57-0.44,0.87
		c7.1,1.53,10.85,9.88,15.49,14.98c6.19,6.8,13.8-0.85,21.09,2.07c3.62,1.45,6.13,4.49,9.47,6.37c3.34,1.87,6.75,1.48,10.37,0.75
		c1.85-0.37,3.71-0.81,5.6-0.85c2.13-0.04,3.99,0.8,6.08,0.93c1.46,0.09,2.85-0.19,4.17-0.69
		C211.26,310.39,211.11,310.1,210.95,309.81z"/>
	<path class="st13" d="M256.5,332.87c3.45-0.25,5.41-2.19,7.07-5.05c2.37-4.08,4.79-7.8,9.46-9.45c3.43-1.21,6.5-1.92,8.76-4.94
		c-0.19-0.3-0.39-0.59-0.6-0.87c-0.54,0.78-1.18,1.5-1.95,2.13c-3.16,2.58-7.62,2.44-10.84,5.07c-2.77,2.25-4.28,5.29-6.11,8.26
		c-1.5,2.45-3.29,3.73-6.27,3.88c-2.18,0.11-4.37-0.27-6.56-0.19c-4.05,0.14-7.14,1.69-10.21,4.23c-1.76,1.46-3.43,3.05-5.45,4.14
		c-2.79,1.51-5.26,1.35-8.17,0.4c-5.1-1.67-10.45-1.07-14.84,1.67c-0.17,0.3-0.35,0.59-0.51,0.9c-0.17,0.15-0.24,0.38-0.04,0.6
		c0.02,0.02,0.04,0.04,0.06,0.07c3.24-2.39,7.28-3.58,11.34-3.14c3.58,0.39,6.61,2.5,10.29,1.41c3.97-1.17,6.64-4.49,9.92-6.78
		C246.58,331.88,251.21,333.25,256.5,332.87z"/>
	<path class="st14" d="M235.76,476.25c-2.37,0.16-4.84,0.45-7.2,0.11c-2.29-0.33-4.25-1.38-6.19-2.58
		c-3.35-2.07-6.53-3.58-10.51-3.92c-3.78-0.32-7.62,0.17-11.28,1.13c-3.98,1.05-7.64,2.78-11.13,4.94c-4,2.48-8.09,5.35-13.01,5.21
		c-3.95-0.11-8.34-2.72-12.65-4.28c0.17,0.78,0.33,1.56,0.52,2.33c0.74,3.06,1.58,6.1,2.49,9.11c0.97,0.47,1.88,1.01,2.62,1.54
		c3.27,2.33,6.24,4.82,10.36,5.37c3.51,0.47,7.17-0.29,10.15-2.24c3.72-2.44,5.98-6.56,9.79-8.89c9.34-5.69,20.06,1.78,29.1,4.32
		c3.9,1.1,8.21,1.56,12.15,0.37c1.92-0.58,3.47-1.61,5.11-2.72c1.14-0.77,2.39-1.59,3.82-1.61c0.29-0.01,0.57,0.03,0.84,0.08
		c0.24-1.56,0.48-3.12,0.7-4.69c0.32-2.24,0.63-4.48,0.93-6.72c-0.9,0.39-1.7,0.72-2.33,0.92
		C245.42,475.49,240.56,475.92,235.76,476.25z M251.93,428.09c-8.82,2.5-16.16,12.36-26.13,9.44c-4.6-1.34-7.77-4.91-11.58-7.56
		c-2.9-2.01-6.2-3.06-9.73-3.17c-8.86-0.28-16.63,4.95-23.43,10.02c-4.3,3.21-8.92,9.03-14.82,8.09c-2.28-0.37-4.36-1.42-6.3-2.77
		c0.13,4.22,0.34,8.42,0.66,12.6c0.97,0.38,1.98,0.65,3.04,0.78c4.19,0.54,8.48-0.78,12.14-2.76c8.6-4.64,18.42-16.31,29.34-11.22
		c7.05,3.29,9.22,14.87,18.58,13.35c5.06-0.82,8.48-4.9,12.36-7.84c4.78-3.62,11.32-5.5,16.57-1.71c0.9,0.65,1.76,1.3,2.63,1.88
		c0.58-6.6,1.02-13.2,1.3-19.78C254.99,427.42,253.42,427.66,251.93,428.09z"/>
</g>
<g>
	<path class="st3" d="M659.14,217.33c-1.64,1.96-4.52,2.35-6.86,3.09c-7.95,2.51-15.87,4.67-24.06,6.19
		c-4.25,0.79-6.82,1.33-10.43-1.52c-5.09-4.01-10.54-9.24-15.08-13.91c-2.74-2.82-4.61-5.16-4.05-8.93
		c0.62-4.14,1.42-8.34,2.24-12.45c1.57-7.94,3.76-15.48,5.92-23.26c1.57-5.67,2.79-11.91,3.69-17.66
		c6.23-0.34,12.39,1.19,18.43,2.51c5.38,1.18,11.75,6.13,17.07,6.57c4.51,0.37,8.92-2.05,13.18-2.71
		c5.44-0.85,13.47-2.21,18.98-1.87c-0.73,4.98-1.8,8.95-2.64,12.02c-1.94,7.12-4.88,13.52-6.68,20.66
		c-1.36,5.41-2.26,11.03-3.57,16.43C663.99,207.82,662.73,213.04,659.14,217.33z"/>
	<path class="st15" d="M662.53,486.48c-0.48-18.48-1.02-36.96-1.53-55.44c0.07-0.01,0.15-0.01,0.22-0.02c0-3.9,0-7.8,0-11.7
		c0-3.81,0.1-7.63-0.08-11.42c-0.06-1.25-0.66-2.89-1.37-3.47c-0.47-0.38-1.78,0.53-2.35,1.36c-4.09,5.96-8.1,12.03-12.11,18.09
		c-1.54,2.33-2.42,5.01-2.22,8.36c0.7,11.83,1.24,23.69,2.02,35.51c0.68,10.19,1.63,20.34,2.41,30.52c0.31,4.07,1.94,6.13,4.97,5.52
		c2.57-0.52,5.1-1.45,7.62-2.34c1.53-0.54,2.35-2.06,2.36-4.36C662.5,493.55,662.62,490.01,662.53,486.48z"/>
	<path class="st15" d="M642.32,361.21c0.27,0.47,17.32-2.62,17.69-2.77c0.39-0.16,0.77-1.04,0.81-1.65
		c0.12-1.61,0.02-55.37-0.04-56.99c-0.17-4.31-0.4-8.62-0.6-12.93c-0.85-0.18-1.69-0.47-2.54-0.51c-2.32-0.09-4.65,0.06-6.97-0.13
		c-5.18-0.42-10.35-0.98-15.53-1.49c0.2,0.34,0.35,0.81,0.62,0.99c2.98,2.03,6.01,3.96,8.96,6.04
		C649.92,295.42,638.78,354.98,642.32,361.21z"/>
	<path class="st16" d="M659.64,225.68c-1.76,2.11-4.87,2.53-7.39,3.33c-8.57,2.7-17.09,5.04-25.93,6.67
		c-4.58,0.85-7.34,1.43-11.24-1.63c-5.48-4.32-11.36-9.95-16.24-14.98c-2.95-3.04-4.97-5.56-4.36-9.62
		c0.67-4.46,1.53-8.99,2.41-13.41c1.7-8.55,4.05-16.68,6.38-25.06c1.69-6.11,3.01-12.83,3.98-19.02c6.71-0.37,13.35,1.29,19.85,2.71
		c5.8,1.27,12.66,6.61,18.39,7.07c4.85,0.39,9.61-2.2,14.2-2.92c5.87-0.91,14.51-2.38,20.45-2.02c-0.79,5.37-1.94,9.64-2.84,12.95
		c-2.09,7.67-5.26,14.56-7.2,22.26c-1.47,5.83-2.43,11.88-3.84,17.7C664.86,215.42,663.51,221.05,659.64,225.68z"/>
	<path class="st17" d="M635.14,284.74c-0.09-0.03-0.17-0.08-0.26-0.09c-12-2.18-23.17-7.12-34.81-10.48
		c-3.72-1.07-7.37-2.43-11.05-3.65c-1.86-0.61-2.7-1.69-2.59-3.83c0.25-4.79,0.14-9.59,0.31-14.39c0.12-3.27,1.88-4.82,5.16-4.29
		c10.45,1.69,20.85,3.77,31.33,5.28c18.76,2.69,37.23,6.77,55.59,11.37c3.88,0.97,7.87,2.47,11.14,4.71c5.86,4,5.43,9.7-0.39,13.7
		c-3.43,2.36-7.3,3.08-11.32,3.29c-3.98,0.21-7.96,0.34-11.94,0.5c-1.05-0.18-2.1-0.47-3.16-0.51c-2.89-0.09-5.79,0.06-8.68-0.13
		C648.03,285.81,641.59,285.25,635.14,284.74z"/>
	<path class="st18" d="M416.17,142.97c3.93-1.21,7.89-1.99,11.46-1.49c5.63,0.78,7.17,5.35,8.42,10.43
		c1.37,5.55,1.48,12.47,3.95,17.62c1.96,4.09,4.63,7.46,6.13,11.94c5.35,15.95,14.48,30.1,20.87,45.76
		c3.22,7.87,6.58,15.7,10.4,23.29c6.93,13.78,12.65,28.04,17.65,42.6c4.49,13.09,8.94,26.19,13.04,39.4c0.92,2.95,1,6.55,0.27,9.55
		c-1.32,5.42-5.89,8.24-10.68,10.43c-11.27,5.14-23.31,7.61-35.4,9.77c-7.09,1.27-14.23,2.2-21.35,3.34
		c-0.4,0.06-0.73,0.6-1.09,0.92c-4.2-0.51-8.5-0.6-12.56-1.64c-5.06-1.29-10.63-1.15-14.99-4.82c-0.87-0.73-2.36-0.81-3.6-1.03
		c-1.86-0.32-3.77-0.4-5.63-0.75c-13.73-2.6-27.44-5.25-41.16-7.88c-3.65-0.7-6.4,0.93-7.64,4.47c-0.97,2.78-1.09,5.44,1.43,7.74
		c-0.56,0.1-0.82,0.19-1.09,0.19c-2.85-0.02-4.75,1.62-5.5,4.06c-0.67,2.19,0.33,4.18,2.35,5.58c0.56,0.39,0.75,1.32,1.11,2.01
		c-0.9,0.47-1.78,1.32-2.69,1.34c-5.13,0.13-10.27,0.06-15.67,0.06c-0.03-0.57-0.14-1.46-0.1-2.33c0.14-2.79,0.51-5.59,0.48-8.38
		c-0.1-10.69-0.29-21.37-0.51-32.06c-0.08-3.79-0.34-7.58-0.51-11.37c-0.56-12.55-1.08-25.1-1.68-37.65
		c-0.29-5.95-0.69-11.9-1.12-17.84c-0.67-9.27-1.42-18.53-2.13-27.79c-0.41-5.4-0.65-10.82-1.23-16.2
		c-0.71-6.62-1.43-13.27-2.65-19.81c-1.09-5.85-3.68-12.04-4.12-17.93c-0.44-5.86,3.62-6.43,8.57-9.05
		c7.05-3.74,14.22-7.34,21.6-10.44c16.97-7.13,34.57-11.4,52-17.2C406.73,146.54,411.43,144.43,416.17,142.97z"/>
	<path class="st18" d="M693.68,345.41c0.9,1.45,1.7,9.75,1.67,10.29c-0.26,4.69-0.39,9.4-0.61,14.09
		c-0.16,3.43-0.24,6.87-0.64,10.28c-0.77,6.53-1.65,13.05-2.67,19.54c-0.54,3.44-0.97,7.05-2.35,10.18
		c-1.36,3.08-3.64,5.85-5.91,8.4c-10.29,11.55-20.6,23.08-31.13,34.41c-7.41,7.97-15.11,15.67-22.79,23.37
		c-5.76,5.78-11.49,11.62-17.64,16.96c-2.98,2.59-6.72,5.3-10.43,5.86c-7.73,1.18-15.67,1.05-23.53,1.31
		c-8.42,0.28-16.84,0.56-25.26,0.53c-24.76-0.08-49.53-0.25-74.29-0.54c-7.5-0.09-14.98-0.73-22.48-1.03
		c-10.58-0.42-21.16-0.75-31.74-1.12c-0.54-0.02-1.09,0-1.63-0.03c-10.81-0.71-21.61-1.91-32.42-2.01
		c-13.84-0.14-27.69,0.61-41.54,0.98c-0.27,0.01-0.54,0.04-0.81,0.04c-7.7,0.16-15.4,0.49-23.09,0.33
		c-1.63-0.04-3.92-1.58-4.63-3.05c-0.64-1.33-0.1-3.99,0.94-5.18c1.61-1.85,2.13-3.63,1.98-5.89c-0.08-1.26-0.15-2.59,0.15-3.79
		c2.64-10.5,5.37-20.99,8.07-31.48c0.96-3.74,2.63-7.3,2.07-11.37c-0.69-5.09-1.08-10.21-1.6-15.32c0.93,0.38,1.86,0.75,2.78,1.15
		c1.57,0.69,3.11,1.98,4.69,2.02c7.58,0.2,15.16,0.08,22.74,0.06c0.45,0,0.91,0,1.36-0.02c12.16-0.74,24.27-2.26,36.52-1.14
		c9.62,0.88,19.29,1.27,28.94,1.67c11.75,0.49,23.52,0.72,35.27,1.13c8.67,0.3,17.36,0.53,26.01,1.12c10.35,0.71,20.66,1.93,31,2.63
		c8.84,0.6,17.7,0.95,26.56,1.12c9.8,0.19,19.61-0.09,29.4,0.09c8.22,0.15,16.43,0.81,24.66,0.93c1.92,0.03,4.21-0.76,5.72-1.94
		c4.47-3.51,8.68-7.38,12.92-11.17c7.42-6.63,14.7-13.42,22.22-19.93c10.25-8.87,21.04-17.14,30.02-27.39
		c5.3-6.05,10.53-12.16,15.69-18.33C689.94,350.7,691.75,348,693.68,345.41z"/>
	<path class="st19" d="M693.22,337.26c-0.76-4.57-3.72-4.28-8.4-4.82c-8.16-0.94-17.63-1.34-33.65-0.54
		c-15.11,0.75-37.57,2.3-50.41,10.3c-7.14,4.45,16.97,31.47,9.77,35.81c-5.68,3.42-11.47,6.99-18.4,7.47
		c-2.27-5.32-3.07-5.94-9.06-5.75c-7.32,0.23-14.64,0.94-21.96,0.99c-9.88,0.07-19.76-0.19-29.64-0.51
		c-5.15-0.16-10.29-0.63-15.42-1.16c-7.55-0.77-15.08-1.66-22.61-2.61c-4.38-0.55-8.74-1.25-13.08-2.02
		c-2.47-0.44-4.86-1.32-7.34-1.74c-1.91-0.33-3.53-0.72-4.92-2.35c-0.89-1.04-2.56-1.85-3.95-1.97c-8.1-0.73-16.23-1.23-24.34-1.8
		c-4.2-0.51-8.5-0.6-12.56-1.64c-5.06-1.29-10.63-1.15-14.99-4.82c-0.87-0.73-2.36-0.81-3.6-1.03c-1.86-0.32-3.77-0.4-5.63-0.75
		c-13.73-2.6-27.44-5.25-41.16-7.88c-3.65-0.7-6.4,0.93-7.64,4.47c-0.97,2.78-1.09,5.44,1.43,7.74c-0.56,0.1-0.82,0.19-1.09,0.19
		c-2.85-0.02-4.75,1.62-5.5,4.06c-0.67,2.19,0.33,4.18,2.35,5.58c0.56,0.39,0.75,1.32,1.11,2.01c-0.9,0.47-1.78,1.32-2.69,1.34
		c-5.13,0.13-10.27,0.06-15.67,0.06c-0.03-0.57-0.14-1.46-0.1-2.33c0.14-2.79,0.51-5.59,0.48-8.38c-0.1-10.69-0.29-21.37-0.51-32.06
		c-0.08-3.79-0.34-7.58-0.51-11.37c-0.56-12.55-1.08-25.1-1.68-37.65c-0.29-5.95-0.69-11.9-1.12-17.84
		c-0.67-9.27-1.42-18.53-2.13-27.79c-0.41-5.4-0.65-10.82-1.23-16.2c-0.71-6.62-1.62-13.23-2.65-19.81
		c-2.55-16.39-0.83-20.58,2.62-26.01c-2.53,0.6-12.79,5.78-15,6.96c-6.54,3.5-13.05,7.12-19.2,11.26
		c-6.09,4.1-11.98,8.17-11.21,17.46c0.9,10.7,0.08,21.52,0.37,32.29c0.34,12.66,0.98,25.32,1.66,37.96
		c0.4,7.49,1.15,14.96,1.68,22.44c0.73,10.09,1.44,20.19,2.08,30.29c0.17,2.71-0.1,5.46,0.12,8.16c0.79,9.63,1.74,19.25,2.57,28.88
		c0.8,9.27,1.4,18.56,2.32,27.82c1.3,13.11,2.59,26.23,4.29,39.3c1.88,14.5,4.03,28.98,7.93,43.12c0.74,2.7,1.6,5.29,4.19,6.65
		c1.31,0.69,3.19,1.39,4.35,0.93c1.01-0.4,1.59-2.36,2-3.74c0.5-1.72,0.28-3.69,0.97-5.29c1.43-3.3,1.01-6.43,0.29-9.79
		c-1.02-4.76-1.66-9.6-2.3-14.42c-0.11-0.8,0.37-2.19,0.97-2.47c2.49-1.18,2.42-2.93,1.93-5.22c-0.46-2.17-1.55-4.59,1.58-6.19
		c0.92-0.47,1.14-2.5,1.48-3.87c0.23-0.92,0.12-1.92,0.16-2.82c4.17-0.86,5.53-3.08,4.99-7.11c-0.44-3.24-0.54-6.53-0.78-9.68
		c2.43,0.67,4.48,1.23,6.53,1.8c0.93,0.38,1.86,0.75,2.78,1.15c1.57,0.69,3.11,1.98,4.69,2.02c7.58,0.2,15.16,0.08,22.74,0.06
		c0.45,0,0.91,0,1.36-0.02c12.16-0.74,24.27-2.26,36.52-1.14c9.62,0.88,19.29,1.27,28.94,1.67c11.75,0.49,23.52,0.72,35.27,1.13
		c8.67,0.3,17.36,0.53,26.01,1.12c10.35,0.71,20.66,1.93,31,2.63c8.84,0.6,17.7,0.95,26.56,1.12c9.8,0.19,19.61-0.09,29.4,0.09
		c8.22,0.15,16.43,0.81,24.66,0.93c1.92,0.03,4.21-0.76,5.72-1.94c4.47-3.51,8.68-7.38,12.92-11.17
		c7.42-6.63,14.7-13.42,22.22-19.93c10.25-8.87,21.04-17.14,30.02-27.39c5.3-6.05,10.53-12.16,15.69-18.33
		c2.07-2.47,3.88-5.17,5.81-7.76C694.8,342.61,693.67,340,693.22,337.26z"/>
	<path class="st20" d="M484.03,365.12c-3.65-10.21-7.39-20.38-11-30.6c-8.61-24.4-17.25-48.78-29.11-71.86
		c-1.85-3.6-2.71-4.01-6.49-2.64c-1.95,0.71-3.9,1.44-5.85,2.16c-0.35,0.05-0.7,0.1-1.07,0.21c-17.72,5.4-35.06,12.03-52.27,18.85
		c-7,2.78-17.13,6.29-19.89,12.15c-1.13,1.29-1.58,3.11-1.13,5.26c0.79,3.78,1.46,7.63,2.71,11.27
		c6.51,18.93,13.08,37.85,19.85,56.69c3.99,11.1,7.96,22.25,13.64,32.65c2.01,3.68,4.82,6.41,9.47,6.22
		c0.42-0.02,0.86,0.31,1.29,0.47l7.3-1.54c0.25-0.26,0.45-0.67,0.75-0.77c1.57-0.52,3.21-0.86,4.76-1.44
		c6.73-2.5,13.37-5.26,20.17-7.56c15.49-5.24,30.28-12,44.46-20.12c2.34-1.34,3.74-3.05,3.32-5.83
		C484.76,367.49,484.45,366.28,484.03,365.12z"/>
	<path class="st21" d="M424.37,329.8c-0.36,0.17-0.71,0.35-1.07,0.52c-1.64,0.8-3.61,1-5.35,0.42c-1.58-0.52-3.25-1.85-3.96-3.38
		c-1.54-3.33-0.51-7.62,2.96-9.31c0.36-0.17,0.71-0.35,1.07-0.52c1.64-0.8,3.61-1,5.35-0.42c1.58,0.52,3.25,1.85,3.96,3.38
		C428.87,323.82,427.85,328.11,424.37,329.8z"/>
	<path class="st21" d="M381.59,312.37c-0.36,0.17-0.71,0.35-1.07,0.52c-1.64,0.8-3.61,1-5.35,0.42c-1.58-0.52-3.25-1.85-3.96-3.38
		c-1.54-3.33-0.51-7.62,2.96-9.31c0.36-0.17,0.71-0.35,1.07-0.52c1.64-0.8,3.61-1,5.35-0.42c1.58,0.52,3.25,1.85,3.96,3.38
		C386.09,306.39,385.07,310.68,381.59,312.37z"/>
	<path class="st3" d="M413.88,297.77c-0.36,0.17-0.71,0.35-1.07,0.52c-1.64,0.8-3.61,1-5.35,0.42c-1.58-0.52-3.25-1.85-3.96-3.38
		c-1.54-3.33-0.51-7.62,2.96-9.31c0.36-0.17,0.71-0.35,1.07-0.52c1.64-0.8,3.61-1,5.35-0.42c1.58,0.52,3.25,1.85,3.96,3.38
		C418.38,291.79,417.35,296.08,413.88,297.77z"/>
	<path class="st3" d="M399.06,357.96c-0.36,0.17-0.71,0.35-1.07,0.52c-1.64,0.8-3.61,1-5.35,0.42c-1.58-0.52-3.25-1.85-3.96-3.38
		c-1.54-3.33-0.51-7.62,2.96-9.31c0.36-0.17,0.71-0.35,1.07-0.52c1.64-0.8,3.61-1,5.35-0.42c1.58,0.52,3.25,1.85,3.96,3.38
		C403.56,351.97,402.54,356.26,399.06,357.96z"/>
	<path class="st3" d="M453.05,375.37c-0.36,0.17-0.71,0.35-1.07,0.52c-1.64,0.8-3.61,1-5.35,0.42c-1.58-0.52-3.25-1.85-3.96-3.38
		c-1.54-3.33-0.51-7.62,2.96-9.31c0.36-0.17,0.71-0.35,1.07-0.52c1.64-0.8,3.61-1,5.35-0.42c1.58,0.52,3.25,1.85,3.96,3.38
		C457.55,369.39,456.53,373.68,453.05,375.37z"/>
	<path class="st3" d="M451.67,311.96c-0.36,0.17-0.71,0.35-1.07,0.52c-1.64,0.8-3.61,1-5.35,0.42c-1.58-0.52-3.25-1.85-3.96-3.38
		c-1.54-3.33-0.51-7.62,2.96-9.31c0.36-0.17,0.71-0.35,1.07-0.52c1.64-0.8,3.61-1,5.35-0.42c1.58,0.52,3.25,1.85,3.96,3.38
		C456.17,305.98,455.14,310.27,451.67,311.96z"/>
	<path class="st3" d="M467.79,344.14c-0.36,0.17-0.71,0.35-1.07,0.52c-1.64,0.8-3.61,1-5.35,0.42c-1.58-0.52-3.25-1.85-3.96-3.38
		c-1.54-3.33-0.51-7.62,2.96-9.31c0.36-0.17,0.71-0.35,1.07-0.52c1.64-0.8,3.61-1,5.35-0.42c1.58,0.52,3.25,1.85,3.96,3.38
		C472.29,338.16,471.26,342.44,467.79,344.14z"/>
	<path class="st21" d="M425.46,386.69c-0.36,0.17-0.71,0.35-1.07,0.52c-1.64,0.8-3.61,1-5.35,0.42c-1.58-0.52-3.25-1.85-3.96-3.38
		c-1.54-3.33-0.51-7.62,2.96-9.31c0.36-0.17,0.71-0.35,1.07-0.52c1.64-0.8,3.61-1,5.35-0.42c1.58,0.52,3.25,1.85,3.96,3.38
		C429.96,380.7,428.93,384.99,425.46,386.69z"/>
	<path class="st22" d="M598.16,371.88l4.89,2.16c0,0,38.37-71.89,43.44-115.22c5.07-43.33-7.57-57.68-7.57-57.68l-3.65,0.49
		L598.16,371.88z"/>
	<path class="st23" d="M568.91,196.8c-11.54-19.56-28.72-31.46-50.62-36.47c-5.76-1.32-11.89-0.99-17.84-1.5
		c-1.1-0.09-2.15-0.65-3.25-0.9c-1.52-0.35-3.09-1-4.57-0.86c-14.1,1.32-28.19,2.58-41.54,8.04c-7.38,3.02-13.18,7.93-18.41,13.65
		c-3.93,4.3-7.68,8.77-11.33,13.3c-13.54,16.84-22.14,36.19-28.31,56.7c-2.4,8-2.71,17.01-1.43,25.23c0.49,3.11,0.54,6.31,1.39,9.36
		c0.78,2.82,2.74,4.77,4.02,7.37c1.1,2.25,2.7,4.25,3.98,6.42c3.42,5.82,8.05,10.43,13.61,14.22c0.95,0.65,1.74,1.77,2.23,2.84
		c3.5,7.56,4.62,15.62,5.15,23.85c0.63,9.98,1.24,19.99,4.74,29.52c1.73,4.72,2.81,9.82,5.31,14.09
		c5.84,9.96,14.06,17.3,25.77,19.81c2.95,0.63,4.19-0.12,4.53-2.59c2.1-15.09,7.15-29.36,12.4-43.54
		c16.59-44.78,40.78-85.47,67.68-124.66c7.04-10.26,16.14-18.7,25.3-27.02C570.06,201.57,570.5,199.48,568.91,196.8z"/>
	<path class="st24" d="M530.73,133.6c0.74,9.88-1.85,18.53-8.45,25.92c-0.56,0.63-1.55,1.19-2.37,1.23
		c-6.29,0.24-12.58,0.25-18.87,0.53c-3.92,0.17-7.83,0.71-11.75,1.02c-4.71,0.37-9.43,0.77-14.15,0.95
		c-2.42,0.09-4.92-0.72-7.27-0.35c-12.74,2-23.85,7.38-32.91,16.69c-11.7,12.01-22.54,26.08-30.52,40.64
		c-1.14,2.07-2.32,2.16-4.14,1.31c-5.8-2.73-7.66-6-8.92-11.84c-2.32-10.75,3.43-21.77,10.56-30.04
		c7.23-8.38,12.47-17.8,13.95-28.94c0.41-3.1,0.12-6.28,0.43-9.4c2-20.22,21.07-29.98,27.64-47.85c1.96-5.33,3.76-10.95,6.81-15.77
		c7.36-11.64,22.06-20.25,35.34-23.06c8.18-1.73,17.17-0.96,23.61,4.66c2.01,1.76,3.1,3.55,5.37,4.98c1.86,1.17,3.31,3.63,4.13,5.74
		c1.53,3.89,1.2,4.96,0.05,8.55c5.09,0.75,7.07,11.86,7.71,14.8c0.65,3.02,2.12,5.34,3.19,8.17
		C533.75,111.1,529.98,123.53,530.73,133.6z"/>
	<path class="st3" d="M589.27,404.34l4.72,3.28l42.47,12.86l20.26-3.05l-0.09-1.42c0,0-0.47-5.48-4.56-6.14
		c-4.08-0.66-30.3-12.18-30.3-12.18s-5.58-2.08-6.08-5.98c-0.5-3.91-1.91-5.3-1.91-5.3l-25.64-4.68L589.27,404.34z"/>
	<path class="st20" d="M656.72,417.42c-1.96,5.19-6.45,5.73-10.9,5.3c-13-1.26-25.8-3.61-37.97-8.57
		c-4.14-1.69-8.17-3.67-12.24-5.54c-0.54-0.25-1.03-0.62-1.62-0.99c3.58-1.98,5.01-4.05,4.3-6.37c-0.62-2.03-2.1-3.09-4.27-3.01
		c-2.8,0.1-3.97,1.59-4.75,6.1c-2.47-0.45-3.49-2.34-4.18-4.33c-1.6-4.61-1.44-9.31,0.02-13.92c0.56-1.75,1.55-3.37,2.34-5.05
		c0.77,0.15,1.53,0.31,2.3,0.44c8.87,1.47,17.74,2.94,26.61,4.41c-0.22,1.94-0.4,3.89-0.68,5.82c-0.07,0.47-0.42,0.97-0.77,1.32
		c-2.23,2.23-2.29,5.07-0.11,6.96c1.91,1.66,4.24,1.13,6.22-1.41c0.19-0.24,0.39-0.47,0.74-0.89c10,4.02,20.01,8.04,30.3,12.18
		c-1.42,2.24-1.94,4.02-0.24,5.61c1.43,1.34,3.09,1.38,4.8,0.53C656.66,416.48,656.69,416.95,656.72,417.42z M599.47,384.1
		c-2.34,0.18-4.05,2.06-3.83,4.23c0.21,2.17,2.44,4.02,4.63,3.85c2.14-0.16,3.88-2.28,3.65-4.44
		C603.68,385.54,601.71,383.93,599.47,384.1z M635.82,416.93c2.38-0.18,4.22-2.18,4.01-4.34c-0.21-2.11-1.97-3.38-4.42-3.17
		c-2.43,0.21-4.18,1.94-4.05,4.02C631.49,415.62,633.41,417.12,635.82,416.93z"/>
	<path class="st25" d="M616.37,385.88c-8.87-1.47-17.74-2.94-26.61-4.41c-0.77-0.13-1.54-0.29-2.3-0.44
		c1.8-4.61,4.35-8.59,8.79-10.83c3.74,3.94,8.29,4.32,13.09,4.15c3.09-0.11,6.21-0.06,9.29,0.17c0.41,0.03,1.17,1.67,0.98,2.32
		C618.68,379.91,617.47,382.88,616.37,385.88z"/>
	<path class="st25" d="M517.65,124.26c-0.19,3.56-0.84,6.93-2.16,10.26c-1.47,3.7-3.92,7.03-7.64,8.42
		c-3.22,1.21-5.31,3.14-5.49,6.72c-0.01,0.14-0.02,0.28-0.02,0.44c-0.02,1.98,0.54,4.8,0.78,7.57c0.29,3.44,0.08,6.81-2.37,8.4
		c-4.36,2.82-9,4.54-14.18,5.14c-5.7,0.65-11.19,0.16-16.51-1.96c-0.71-0.28-1.41-0.72-2-1.21c-1.13-0.93-1.51-2.01-0.86-3.52
		c2.95-6.94,3.77-14.19,2.76-21.64c-0.09-0.7-0.47-1.51-0.97-2c-2.32-2.24-3.63-5.08-4.85-7.97c-0.28-0.65-0.42-1.35-0.67-2
		c-1.01-2.61-1.13-2.74-3.94-2.54c-2.28,0.16-4.01-0.95-5.37-2.45c-3.12-3.42-4.31-7.55-3.81-12.16c0.07-0.62,0.07-1.24,0.11-1.87
		c0.18-2.46,2.17-4.99,4.5-5.42c0.91-0.16,3.47-0.46,4.5,1.61c0.4-1.59-0.6-4.51-0.22-6.25c1.22-5.66,4.16-10.21,8.52-13.99
		c3.7-3.22,7.51-6.17,12.35-7.44c7.59-1.99,15.13-2.06,22.64,0.53c6.07,2.1,9.8,6.35,11.36,12.43c1.34,5.2,2.4,10.48,3.44,15.76
		C518.51,114.16,517.92,119.21,517.65,124.26z"/>
	<path class="st3" d="M557.98,399.27c0,0-1.33,6.07,0.17,10.37c1.5,4.3,16.05,11.52,16.05,11.52l8.99,2.56l29.19,4.25l9.59,0.47
		l20.77-5.15c0,0,3.45-4.19-0.8-9.46l-19.34-7.16l-7.97-1.71l-25.48-4.11l-9.02-9.78L557.98,399.27z"/>
	<path class="st26" d="M587.43,388.64c-0.03,2.52-0.12,5.03-0.07,7.55c0.05,2.5,0.1,2.68,2.51,3.24c7.5,1.74,15.03,3.36,22.54,5.03
		c0.74,0.16,1.48,0.34,2.22,0.51c-1.02,4.23,0,6.83,2.73,7.33c2.9,0.53,4.46-1.11,5.23-5.61c6.67,1.5,13.23,3.21,19.34,7.16
		c-2.22,1.3-3.54,2.85-3.35,5.25c0.2,2.52,2.11,3.45,4.15,4.21c-3.01,3.92-11.14,5.91-20.77,5.15c-0.43-2.68-1.15-5.29-4.62-5.4
		c-2.65-0.08-3.81,1.12-4.97,4.92c-7.31,0.49-24.15-1.96-29.19-4.25c-0.31-4.46-0.88-5.54-3.44-6.08c-2.94-0.62-4.54,1.08-5.55,3.51
		c-7.36-2-14.76-6.45-16.05-11.52c1.92-0.4,4.19-0.4,5.09-2.57c0.46-1.1,0.71-2.42,0.61-3.6c-0.21-2.68-2.06-3.96-5.88-4.2
		c1.08-4.91,2.14-9.78,3.21-14.65c0.54-0.03,1.11-0.15,1.63-0.06C571.03,385.9,579.23,387.28,587.43,388.64z M602.27,411.3
		c-0.21-2.6-2.02-4.17-4.55-3.96c-2.71,0.23-4.69,2.58-4.5,5.32c0.18,2.51,2.1,4.17,4.59,3.97
		C600.53,416.42,602.5,414.06,602.27,411.3z M574.81,398.98c0.18,2.41,1.68,3.75,4.01,3.55c2.23-0.18,3.73-2.01,3.59-4.37
		c-0.14-2.28-1.83-3.8-4.04-3.64C576.23,394.68,574.64,396.67,574.81,398.98z"/>
	<path class="st27" d="M587.43,388.64c-8.2-1.37-16.4-2.74-24.6-4.09c-0.53-0.09-1.09,0.04-1.63,0.06c0.85-2.76,1.73-5.51,2.55-8.29
		c0.37-1.27,0.57-2.59,0.96-3.86c0.43-1.42,1.19-2.22,2.9-2.58c5.74-1.17,11.14,0.45,16.62,1.55c0.77,0.15,1.5,0.44,2.27,0.6
		c2.58,0.53,3.34,1.71,2.89,4.35C588.7,380.47,588.08,384.56,587.43,388.64z"/>
	<path class="st28" d="M495.7,119.38c-0.24,0.01-0.47,0.03-0.71,0.04c-2.72,0.15-2.79,0.02-3.07-2.81
		c-0.31-3.16,0.72-6.15,1.04-9.23c0.1-1,0.29-2.02,0.65-2.95c0.18-0.47,0.8-0.95,1.3-1.04c0.34-0.06,1,0.44,1.18,0.84
		c0.56,1.27,1.09,2.58,1.4,3.93c0.42,1.82,0.6,3.69,0.92,5.53c0.17,0.99,0.52,1.95,0.62,2.94c0.23,2.27,0.03,2.46-2.15,2.65
		C496.49,119.33,496.09,119.35,495.7,119.38z"/>
	<path class="st29" d="M502.67,128.47c0.24,1.45-0.7,2.43-1.53,3.04c-1.92,1.4-4.08,2.6-6.61,1.49c-0.76-0.34-1.61-0.79-2.06-1.44
		c-0.42-0.61-0.72-1.72-0.45-2.32c0.44-0.95,1.31-1.77,2.16-2.44c1.08-0.85,2.02,0.32,3.02,0.43c1.07,0.12,1.28-1.8,2.71-1.41
		C501.54,126.26,502.6,127.22,502.67,128.47z"/>
	<path class="st16" d="M477.32,102.56c0.57-0.04,1.13-0.16,1.66-0.09c0.9,0.12,1.56,0.59,1.73,1.58c0.19,1.04-0.39,1.81-1.18,2.04
		c-2.12,0.61-4.31,1.02-6.48,1.45c-0.75,0.15-1.66,0.3-2.05-0.63c-0.36-0.87-0.11-1.71,0.65-2.3
		C473.33,103.33,475.2,102.55,477.32,102.56z"/>
	<path class="st16" d="M508.16,98.67c1.14,0.08,2.38,0.1,3.59,0.27c0.86,0.12,1.57,1.29,1.44,2.13c-0.14,0.88-1.04,1.67-1.95,1.66
		c-1.77-0.03-3.55-0.13-5.32-0.1c-0.9,0.01-1.55-0.14-1.7-1.14c-0.15-0.96,0.37-1.89,1.19-2.16c0.58-0.19,1.15-0.41,1.73-0.57
		C507.44,98.66,507.77,98.69,508.16,98.67z"/>
	<path class="st30" d="M480.04,111.13c0.25,2-0.3,2.63-1.19,3.13c-0.26,0.14-1.2,0.12-1.47,0.04c-0.98-0.28-1.64-2.34-1.21-3.65
		c0.42-1.28,1.55-2.03,2.63-1.45C479.38,109.52,479.94,110.36,480.04,111.13z"/>
	<path class="st30" d="M510.57,107.45c0.26,2-0.3,2.63-1.19,3.13c-0.26,0.14-1.2,0.12-1.47,0.04c-0.98-0.28-1.64-2.34-1.21-3.65
		c0.42-1.28,1.55-2.03,2.63-1.45C509.91,105.83,510.47,106.68,510.57,107.45z"/>
	<path class="st20" d="M489.09,228.54c0.09-5.51,2.34-9.92,7.05-12.42c5.06-2.68,10.35-3.09,15.25,0.92c0.08,0.07,0.21,0.07,0.6,0.2
		c-0.33-2.22-0.66-4.31-0.94-6.41c-0.17-1.22-0.6-4.33-0.71-5.56c1.08-1.37,0.63-1.25,2.94-1.55c11.5-1.5,23.01-2.96,34.52-4.38
		c1.48-0.18,3-0.13,4.5-0.08c2.83,0.1,3.16,0.47,3.6,3.25c0.59,3.72,1.21,7.43,1.86,11.13c0.06,0.35,0.36,0.66,0.55,0.99
		c0.14,0.98,0.29,1.95,0.43,2.93c-0.1,0.72-0.33,1.46-0.28,2.17c0.46,6.8,1.02,13.59,1.44,20.39c0.17,2.81,0.03,5.64,0.12,8.46
		c0.06,1.87-1.07,2.92-2.3,3.95c-1.55,0.23-3.1,0.46-4.64,0.69c-3.45,0.51-25.79,2.68-28.67,2.49c-3.16-0.21-4.18-1.26-5.02-4.37
		c-1.14-4.28-2.28-8.55-3.45-12.93c-0.26,0.17-0.45,0.22-0.51,0.34c-3.96,7.4-16.56,9.6-23.29-0.22c-0.92-1.35-1.46-2.96-2.22-4.43
		C489.75,233.73,489.08,229.09,489.09,228.54z M504.36,236.05c3.49-0.57,5.86-4.02,5.31-7.73c-0.6-4.02-4.18-6.9-7.95-6.39
		c-3.51,0.47-6.32,4.67-5.71,8.54C496.52,233.67,500.91,236.61,504.36,236.05z"/>
	<path class="st31" d="M609.91,339.19c0.99-3.42,1.69-6.92,2.57-10.37c1.75-6.91,3.62-13.79,5.26-20.72
		c1.56-6.62,2.85-13.3,4.33-19.94c1.26-5.66,2.72-11.28,3.91-16.95c2.19-10.44,4.32-20.89,6.33-31.36c0.9-4.7,1.54-9.45,2.14-14.2
		c0.42-3.38,0.59-6.79,0.84-10.18c0.18-2.39,0.29-4.79,0.45-7.18c0.04-0.62,0.07-1.24,0.16-1.85c0.42-2.78-0.44-5.43-1.21-7.99
		c-0.64-2.14-2.23-3.9-4.01-5.39c-4.95-4.15-10.44-7.38-16.52-9.56c-2.41-0.86-4.89-1.61-7.46-1.6c-5.97,0.02-11.72,1.21-17.31,3.38
		c-7.47,2.9-13.79,7.46-19.59,12.86c-1.65,1.54-3.31,3.08-4.93,4.65c-2.3,2.23-4.62,4.44-6.84,6.75c-1.77,1.85-3.43,3.81-5.09,5.77
		c-3.1,3.65-6.22,7.29-9.22,11.02c-3.63,4.51-7.2,9.07-10.69,13.68c-2.87,3.79-5.62,7.68-8.36,11.56
		c-3.47,4.89-6.93,9.79-10.31,14.75c-3.15,4.63-6.31,9.26-9.22,14.05c-3.39,5.58-6.5,11.33-9.72,17.02
		c-2.14,3.79-4.22,7.62-6.39,11.4c-4.04,7.03-7.82,14.2-10.81,21.75c-1.98,5.01-4.16,9.94-6.07,14.98
		c-1.62,4.28-3.16,8.61-4.38,13.02c-1.62,5.89-2.93,11.87-4.31,17.82c-1.4,6.04-2.5,12.13-2.4,18.38c0,0.25,0.31,4.98,0.33,5.22
		c0.24,2.8,1.76,4.85,3.66,6.78c2.89,2.93,6.35,4.64,10.33,5.55c3,0.69,5.9,1.88,8.92,2.45c3.47,0.66,7.02,0.9,10.55,1.27
		c0.62,0.06,10.29-0.6,10.97-0.7c1.85-0.27,3.74-0.41,5.5-0.96c3.02-0.95,6.01-2.03,8.9-3.33c2.62-1.18,5.22-2.51,7.56-4.16
		c2.87-2.04,5.2-4.72,7.52-7.39c3.96-4.56,6.36-9.93,8.53-15.47c1.62-4.14,3.54-8.17,5.36-12.23c0.06-0.14,0.74-0.21,0.82-0.1
		c1.27,1.88,3.22,2.24,5.27,2.59c6.24,1.07,12.45,2.32,18.69,3.39c6.29,1.07,12.59,2.04,19.02,1.27c2.34-0.28,3.94-1.36,4.83-3.49
		c0.78-1.87,1.53-3.75,2.19-5.67c1.83-5.36,3.65-10.73,5.4-16.12C606.96,348.83,608.51,344.03,609.91,339.19z"/>
	<path class="st31" d="M679.85,210.83c-1.9-5.53-4.81-10.5-9.59-14.09c-1.78-1.34-3.68-2.67-6.08-2.72
		c-1.32-0.03-2.66,0.05-3.97-0.09c-3.54-0.38-6.96-0.12-10.35,1.06c-4.03,1.41-7.41,3.9-10.94,6.15c-0.72,0.46-0.73,1.1-0.71,1.84
		c0.06,2.81,0.09,5.62,0.07,8.43c-0.01,1.55-0.12,3.1-0.28,4.64c-0.24,2.38-0.57,4.75-0.84,7.13c-0.35,3.07-0.53,6.17-1.03,9.21
		c-0.77,4.72-1.7,9.42-2.66,14.11c-2.11,10.3-4.25,20.58-6.42,30.87c-1.86,8.85-3.7,17.71-5.7,26.52
		c-1.57,6.94-3.31,13.85-5.09,20.74c-1.93,7.5-3.87,15-6.04,22.43c-1.69,5.81-3.72,11.52-5.65,17.26c-0.84,2.51-1.79,4.97-2.66,7.47
		c-0.54,1.53-0.52,1.57,1.14,2.25c2.82,1.14,5.61,2.38,8.49,3.33c2.93,0.97,5.95,1.7,8.96,2.43c1.45,0.35,2.83-0.01,3.83-1.2
		c0.7-0.83,1.38-1.7,1.94-2.63c1.89-3.13,3.79-6.25,5.54-9.45c2.73-4.98,5.44-9.97,7.97-15.05c2.47-4.95,4.76-10,7.06-15.03
		c3.42-7.45,6.85-14.88,10.14-22.39c2.13-4.86,4.12-9.79,5.96-14.76c2.04-5.53,3.87-11.15,5.74-16.74
		c2.88-8.6,5.28-17.34,7.15-26.22c0.58-2.72,1.3-5.42,1.75-8.16c0.97-6.02,1.79-12.07,2.7-18.1c0.6-4.01,0.95-8.02,0.76-12.1
		C680.67,215.58,680.63,213.08,679.85,210.83z"/>
	<path class="st15" d="M328.56,345.56c3.65,1.26,7.31,2.52,10.96,3.79c4.25,1.48,8.5,2.97,12.75,4.46
		c-0.96,6.12-1.87,12.25-2.88,18.36c-3.93,23.74-7.98,47.45-11.83,71.22c-6.16,37.95-13.58,79.59-19.8,117.52
		c-1.43,8.76-3.27,17.39-5.07,26.02c-1.49,7.13-3.11,11.47-9.59,10.05c-2.77-0.6-3.01-1.57-3.3-4.97
		c-0.86-9.88,1.52-72.87,6.13-101.2c2.81-17.26,4.72-34.64,7.64-51.81c4.97-29.2,9.33-58.58,13.97-87.88
		C327.84,349.25,328.22,347.41,328.56,345.56z"/>
	<path class="st15" d="M565.43,394.86c3.74,0.56,7.47,1.13,11.21,1.68c3.8,0.56,7.6,1.09,11.4,1.63c0.12,4.8,0.25,9.59,0.34,14.39
		c1.08,57.24,2.18,114.49,3.22,171.73c0.15,8.23,0.15,16.48-0.01,24.71c-0.08,4.41-0.93,5.77-4.07,6.22
		c-2.56,0.37-5.2-0.03-7.78-0.45c-1.7-0.27-2.72-1.96-3.07-4.37c-3.44-24.12-6.63-48.27-7.59-72.9
		c-0.91-23.19-2.39-46.35-3.12-69.55c-0.71-22.47-0.79-44.98-1.09-67.47C564.86,398.61,565.24,396.73,565.43,394.86z"/>
	<path class="st32" d="M503.12,157.68c-4.88,3.11-14.36,2.57-19.01,0.39c-3.48-1.63-13.66-13.06-4.98-13.43
		c3.64-0.15,6.78,3.31,9.85,4.75c1.78,0.84,3.64,1.38,5.55,1.65c2.38-0.95,5.42-1.98,7.83-1.37c-0.01,0.14-0.02,0.28-0.02,0.44
		C502.33,152.09,502.89,154.9,503.12,157.68z"/>
	<g>
		<path class="st25" d="M521.91,108.88c0.48-8.75-0.52-21.02-7.09-27.67c-6.4-6.48-32.83-9.18-48.59-1.4
			c-4.57,2.26-8.06,10.16-7.93,14.29c0.39,11.83,0.13,16.75,2.24,28.42c1.82,10.03,7.39,17.86,14.88,24.37
			c5.75,4.99,15.92,9.66,24.55,8.77C506.32,155,519.9,145.45,521.91,108.88z"/>
		<g>
			<path class="st24" d="M487.76,113.34c-0.01,0.68-0.24,5.44-1.67,4.63c-0.48-0.27-0.51-1.42-0.53-1.89
				c-0.04-1-0.07-2.04-0.05-3.04c0.03-1.52-2.33-1.52-2.36,0c-0.04,2.27-0.41,6.79,2.68,7.29c3.81,0.63,4.26-4.38,4.29-6.99
				C490.14,111.82,487.78,111.82,487.76,113.34L487.76,113.34z"/>
		</g>
		<g>
			<path class="st24" d="M513.5,113.47c-0.01,0.68-0.24,5.44-1.67,4.63c-0.48-0.27-0.51-1.42-0.53-1.89c-0.04-1-0.07-2.04-0.05-3.04
				c0.03-1.52-2.33-1.52-2.36,0c-0.04,2.27-0.41,6.79,2.68,7.29c3.81,0.63,4.26-4.38,4.29-6.99
				C515.88,111.95,513.52,111.95,513.5,113.47L513.5,113.47z"/>
		</g>
		<path class="st33" d="M507.18,138.21c0.04-0.45-0.2-0.73-0.7-0.74c-4.68-0.07-8.2-0.27-13.54-0.07c-0.56,0.02-0.79,0.65-0.55,1.1
			c2.96,5.4,10.92,4.61,14.49,0.36C507.04,138.67,507.17,138.41,507.18,138.21z"/>
		<path class="st25" d="M471.91,115.13c-3.16-2.91-7.26-3.68-9.83,0.41c-2.36,3.75-1.38,9.13,0.47,13.02c0.78,1.64,2.11,3,3.48,3.43
			c0.03,0.02,0.04,0.05,0.07,0.07c1.39,1.04,2.9-0.06,3.19-1.41c0.16-0.25,0.31-0.52,0.44-0.84c1.2-2.81,1.07-8.48-0.75-11.66
			c0.17,0.13,0.35,0.25,0.53,0.42C471.53,120.35,473.9,116.96,471.91,115.13z"/>
		<path class="st24" d="M505.74,102.61c-1.49,0.33-1.68,2.7-0.06,3.02c2.17,0.42,4.49-0.09,6.67-0.13c2.52-0.05,5.04,0.51,7.55,0.37
			c0.53-0.03,0.8-0.54,0.72-1.12C519.92,99.37,508.59,101.98,505.74,102.61z"/>
		<path class="st24" d="M494.6,102.19c1.61,0.36,1.81,2.91,0.06,3.25c-2.34,0.45-4.83-0.09-7.18-0.13c-2.71-0.05-5.43,0.55-8.12,0.4
			c-0.57-0.03-0.86-0.58-0.78-1.21C479.36,98.7,491.54,101.51,494.6,102.19z"/>
		<path class="st3" d="M522.43,106.32c-0.08-0.04-0.5-0.28-0.71-0.3c-5.72-0.5-16.04-2.5-18.1,4.66c-1.11-0.32-2.25-0.33-3.4-0.29
			c-0.94,0.03-1.94,0.05-2.86,0.29c-2.08-6.69-12.13-5.24-17.74-5c-0.21,0.01-0.64,0.23-0.72,0.27c-1.49,0.68-2.52,1.78-3.23,3.11
			c-1.3-0.12-2.49-0.18-3.83-0.18c-1.38,0-2.62,0.24-3.97,0.46c-0.55,0.09-2.4,0.74-1.22,1.35c0.44,0.23,1.67-0.21,2.17-0.23
			c0.88-0.04,1.79,0,2.66,0.08c1.21,0.11,2.41,0.08,3.57,0.11c-0.98,3.66-0.47,7.81,1.29,11.18c2.56,4.88,9.52,7.77,14.59,4.77
			c4.67-2.77,7.46-9.12,6.74-14.45c1.67-0.47,4.03-0.46,5.62,0.01c-0.71,5.2,1.77,11.36,6.16,14.24c4.92,3.23,12.01,0.67,14.79-4.09
			C526.9,117.76,527.95,109.15,522.43,106.32z M492.24,123.53c-3.56,3.64-9.83,3.37-13.25-0.42c-3.35-3.72-4.75-13.39,0.65-15.88
			c0.03-0.02,0.66-0.09,0.99-0.1c4.53-0.26,13.17-0.91,15,3.17C497.58,114.61,495.35,120.35,492.24,123.53z M521.53,123.46
			c-3.58,3.63-9.86,3.61-13.25-0.19c-2.96-3.32-4.92-9.16-2.78-13.38c2.02-3.99,10.62-2.94,15.13-2.48
			c0.33,0.03,0.95,0.13,0.99,0.15C526.89,110.3,525.05,119.9,521.53,123.46z"/>
		<path class="st34" d="M505.48,125.66c1.01-4.13-1.22-8.97-2.23-12.9c-0.24-0.92-1.7-0.68-1.47,0.25c0.65,2.56,1.53,5.09,2.02,7.69
			c0.22,1.15,0.56,2.76,0.34,3.91c-0.66,3.49-3,3.21-5.3,3.65c-0.95,0.18-0.7,1.66,0.25,1.48
			C501.96,129.19,504.67,128.97,505.48,125.66z"/>
	</g>
	<path class="st24" d="M457.63,106.18c0.95,0.72,1.78,1.55,2.26,2.7c1.17,2.79,1.08,5.44,1.25,8.32c0.08,1.36-0.03,4.82,1.67,5.01
		c2.68,0.3,2.31-5.16,2.63-6.83c0.7-3.63,1.24-7.46,5.34-8.65c1.58-0.45,2.66-0.12,3.82-1.45c1.05-1.2,1.43-2.72,1.71-4.23
		c0.82-4.4,3-8.69,7.58-10.14c2.83-0.9,5.67-0.55,8.55-0.11c3.44,0.52,6.89,0.47,10.37,0.47c2.04,0,4.43-0.02,6.29-0.98
		c1.49-0.77,2.21-2.42,3.48-3.27c0.36,2.18-0.15,3.88,1.37,5.92c1.15,1.54,3.04,1.97,4.36,3.3c1.11,1.13,2.52,3,3.11,4.51
		c0.5,1.29,0.45,2.66,1.25,3.89c3.21-1.33,1.98-6.27,1.6-8.84c-0.66-4.49-0.68-8.78-2.79-12.98c-1.7-3.39-3.71-6.49-6.98-8.57
		c-3.98-2.54-8.19-3.29-12.77-3.99c-3.29-0.5-6.69-0.61-10-0.29c-3.73,0.36-7.26,1.99-10.92,2.84c-5.85,1.36-12.26,2.63-17.4,5.96
		c-3.79,2.45-6.28,6.98-8.5,10.77c-1.91,3.27-3.59,7.64-2.63,11.52C452.94,103.59,455.56,104.61,457.63,106.18z"/>
	<path class="st17" d="M555.25,395.17c-14.28-1.76-28.6-3.3-42.83-5.34c-16.11-2.32-32.18-4.89-48.19-7.73
		c-18.23-3.23-36.36-6.92-54.55-10.31c-14.83-2.77-29.69-5.39-44.53-8.07c-0.35-0.06-0.72-0.04-1.08-0.05
		c-5.58-1.35-11.16-2.7-16.74-4.04c-4.79-1.15-9.59-2.29-14.38-3.44c-3.63-1.02-7.28-1.96-10.87-3.08
		c-12.27-3.81-24.54-7.59-36.74-11.59c-3.3-1.08-6.49-2.62-9.42-4.36c-4.91-2.91-7.06-7.46-7.42-12.59
		c-0.38-5.37,3.24-9.04,9.15-8.78c4.75,0.21,9.55,1.04,14.14,2.22c15.43,3.98,30.61,8.85,46.18,12.24
		c18.93,4.13,38.16,7.16,57.27,10.57c23.83,4.26,47.65,8.53,71.52,12.58c14.43,2.45,28.98,4.31,43.41,6.74
		c17.46,2.94,34.86,6.2,52.28,9.33c9.86,1.77,19.71,3.61,29.6,5.28c2.74,0.46,5.71,0.07,8.35,0.76c3.16,0.82,6.48,1.9,9.03,3.69
		c6.84,4.83,5.71,13.11-2.31,16.05c-4.1,1.5-8.78,1.75-13.23,2.4c-2.39,0.35-4.84,0.34-7.26,0.5c-5.27-0.49-10.54-0.98-15.81-1.48
		C565.62,396.19,560.43,395.67,555.25,395.17z"/>
	<g>
		<g>
			<path class="st34" d="M449.25,249.32c-7.32,1.6-6.03,17.89-5.66,23.04c0.88,12.18,9.88,19.74,21.65,21.54
				c1.2,0.18,1.71-1.65,0.5-1.83c-10.83-1.66-19.44-8.4-20.26-19.71c-0.31-4.3-1.57-19.93,4.26-21.21
				C450.95,250.89,450.45,249.06,449.25,249.32L449.25,249.32z"/>
		</g>
	</g>
	<g>
		<g>
			<path class="st34" d="M444.22,259.86c2.09,0.28,4.76,3.53,6.29,4.88c2.04,1.8,4.34,3.61,5.89,5.87
				c2.76,4.01,7.93,15.98,3.65,20.12c0.53,0.31,1.06,0.62,1.59,0.92c0.69-1.69,1.7-3.21,2.31-4.94c0.35-0.97-0.93-1.48-1.59-0.92
				c-0.57,0.47-1.12,0.94-1.67,1.43c0.53,0.31,1.06,0.62,1.59,0.92c0.47-1.84,0.44-1.57,0.53-3.37c0.04-0.73-0.83-1.17-1.43-0.82
				c-0.58,0.35-1.17,0.68-1.76,0.99c0.46,0.36,0.93,0.71,1.39,1.07c0.19-0.66,0.41-1.32,0.66-1.97c0.27-0.75-0.73-1.56-1.39-1.07
				c-0.78,0.57-1.59,1.08-2.37,1.65c0.43,0.43,0.87,0.87,1.3,1.3c0.31-0.5,0.61-1,0.88-1.52c0.44-0.8-0.47-1.83-1.3-1.3
				c-0.56,0.37-1.13,0.72-1.7,1.06c0.43,0.43,0.87,0.87,1.3,1.3c0.09-0.17,0.19-0.33,0.28-0.5c0.53-0.92-0.73-1.94-1.49-1.15
				c-0.4,0.32-0.81,0.61-1.24,0.88c0.38,0.5,0.77,0.99,1.15,1.49c0.2-0.06,0.41-0.12,0.61-0.18c-0.4-0.31-0.8-0.61-1.2-0.92
				c0.1,0.81,0.1,1.62,0.02,2.43c0.4-0.31,0.8-0.61,1.2-0.92c-4.87-1.32-16.64-18.42-9.32-21.31c-0.36-0.46-0.71-0.93-1.07-1.39
				c0.18-0.06,0.36-0.11,0.53-0.17c-0.37,0-0.86,0.3-0.92,0.7c-0.02,0.15-0.04,0.3-0.06,0.45c0.53-0.14,1.06-0.28,1.59-0.42
				c-0.49-0.67-0.98-1.33-1.47-2c-0.5,0.38-0.99,0.77-1.49,1.15c0.34,0.4,0.67,0.81,1.01,1.21c0.59,0.71,1.94-0.05,1.59-0.92
				c-0.33-0.81-0.67-1.62-1.01-2.43c-0.32-0.75-1.25-0.95-1.74-0.23c-0.03,0.04-0.05,0.08-0.08,0.11c-0.24,0.36-0.13,0.86,0.15,1.15
				c0.41,0.44,0.8,0.89,1.37,1.13c0.53,0.22,1.28-0.34,1.2-0.92c-0.1-0.75-0.16-1.09-0.47-1.76c-0.55,0.32-1.09,0.64-1.64,0.96
				c0.37,0.5,0.7,1.03,1,1.58c0.63,1.09,2.11,0.13,1.64-0.96c-0.36-0.84-1.04-0.9-1.92-0.83c-0.77,0.06-1.11,0.75-0.82,1.43
				c0.19,0.5,0.37,1,0.56,1.5c0.53-0.31,1.06-0.62,1.59-0.92c-0.18-0.17-0.36-0.34-0.55-0.51c0.61-1.06-1.03-2.02-1.64-0.96
				c-0.72,1.25-0.07,1.93,0.84,2.81c0.65,0.63,1.9,0.01,1.59-0.92c-0.25-0.74-0.45-1.23-0.75-1.95c-0.27,0.48-0.55,0.95-0.82,1.43
				c0.4,0.06,0.49,0.02,0.28-0.11c0.55-0.32,1.09-0.64,1.64-0.96c-0.29-0.55-0.63-1.08-1-1.58c-0.7-1.02-2.14-0.15-1.64,0.96
				c0.07,0.27,0.14,0.53,0.21,0.8c0.4-0.31,0.8-0.61,1.2-0.92c-0.17-0.39-0.27-0.25-0.3,0.4c-0.58-0.08-1.16-0.15-1.74-0.23
				c0.34,0.81,0.68,1.62,1.01,2.43c0.53-0.31,1.06-0.62,1.59-0.92c-0.34-0.4-0.67-0.81-1.01-1.21c-0.68-0.82-2.11,0.27-1.49,1.15
				c0.63,0.91,1.09,1.51,1.76,2.38c0.42,0.53,1.49,0.26,1.59-0.42c0.15-1.05-0.52,1.12-0.28,0.12c0.03-0.11,0.47-0.54,0.53-0.64
				c0.41-0.66-0.29-1.71-1.07-1.39c-9.97,3.93,2.66,23.17,9.32,24.97c0.62,0.17,1.17-0.3,1.2-0.92c0.08-0.81,0.08-1.62-0.02-2.43
				c-0.04-0.67-0.57-1.01-1.2-0.92c-0.73,0.11-0.88,0.22-1.45,0.66c-0.84,0.66,0.26,2.09,1.15,1.49c0.55-0.37,1.16-0.7,1.62-1.18
				c-0.5-0.38-0.99-0.77-1.49-1.15c-0.09,0.17-0.19,0.33-0.28,0.5c-0.46,0.81,0.48,1.8,1.3,1.3c0.58-0.34,1.14-0.69,1.7-1.06
				c-0.43-0.43-0.87-0.87-1.3-1.3c-0.27,0.52-0.57,1.03-0.88,1.52c-0.46,0.77,0.51,1.88,1.3,1.3c0.78-0.57,1.59-1.08,2.37-1.65
				c-0.46-0.36-0.93-0.71-1.39-1.07c-0.25,0.65-0.47,1.3-0.66,1.97c-0.26,0.82,0.69,1.45,1.39,1.07c0.6-0.31,1.18-0.64,1.76-0.99
				c-0.48-0.27-0.95-0.55-1.43-0.82c-0.16,0.95-0.31,1.91-0.47,2.86c-0.24,0.96,0.89,1.54,1.59,0.92c0.55-0.49,1.1-0.96,1.67-1.43
				c-0.53-0.31-1.06-0.62-1.59-0.92c-0.61,1.72-1.62,3.25-2.31,4.94c-0.38,0.93,0.96,1.53,1.59,0.92c5.06-4.9,0.14-16.12-2.59-21.1
				c-1.6-2.92-4.07-5.01-6.54-7.2c-1.77-1.57-4.98-5.38-7.53-5.73C443.53,257.86,443.01,259.69,444.22,259.86L444.22,259.86z"/>
		</g>
	</g>
	<path class="st25" d="M486.32,244.47c0.39,0.28,0.75,0.6,1.1,0.91c1.47,1.27,2.68,2.79,4,4.21c1.74,1.88,3.81,4.43,4.53,6.93
		c0.54,1.87-0.22,2.51-1.66,3.49c-1.77,1.2-3.53,2.42-5.28,3.65c-3.38,2.37-25.06,18.01-28.43,20.4c-2.04,1.45-8.43,0.88-11.48-3.19
		c-3.27-4.36-5.09-12.21-1.02-15.26c2.52-1.89,20.76-12.42,23.4-14.15c2.63-1.72,4.99-3.85,7.7-5.46c1.52-0.91,3.8-2.33,5.63-2.17
		C485.37,243.88,485.86,244.14,486.32,244.47z"/>
	<path class="st25" d="M479.63,247.32c-0.16-0.31-0.28-0.63-0.35-0.99c-0.14-0.72-0.03-1.46,0.13-2.17c0.8-3.7,2.79-7.13,5.61-9.67
		c1.76-1.58,3.97-3.04,4.43-5.37c0.21-1.07,0.01-2.22,0.38-3.24c0.42-1.14,1.54-1.94,2.73-2.21c0.82-0.19,1.73-0.14,2.44,0.31
		c0.44,0.27,0.81,1.33,1.2,1.36c0.38,0.03,1.36-1.1,1.72-1.32c1.2-0.75,2.61-1.17,4.03-1.04c2.3,0.21,4.45,2.01,4.77,4.29
		c2.96,0.17,5.35,3.4,4.63,6.28c2.33,0.3,4.02,2.98,3.31,5.21c1.62,0.08,2.31,2.14,2.21,3.77c-0.25,3.97-2.68,7.55-5.76,10.08
		c-5.43,4.47-12.8,6.95-19.44,9.03c-2.03,0.64-3.52-3.43-3.93-4.69c-0.88-2.68-1.95-5.04-4.46-6.56
		C481.89,249.58,480.35,248.67,479.63,247.32z"/>
	<g>
		<g>
			<path class="st34" d="M429.98,242.93c5.16-2.69,12.7-0.75,17.89,1.02c6.72,2.29,10.92,7.64,12.99,14.27
				c0.18,0.58,1.1,0.33,0.92-0.25c-2.11-6.74-6.36-12.32-13.15-14.76c-5.54-1.99-13.58-3.99-19.12-1.1
				C428.95,242.39,429.43,243.21,429.98,242.93L429.98,242.93z"/>
		</g>
	</g>
	<g>
		<g>
			<path class="st34" d="M451.2,243.18c3.21-5.17,5.83-10.65,8.07-16.31c1.1-2.78,2.12-5.6,3.1-8.43c0.54-1.57,1.07-3.14,1.6-4.71
				c0.43-1.28,0.82-3.96,1.83-4.86c-0.26-0.07-0.53-0.14-0.79-0.21c0.06,0.15,0.02,0.56,0.06,0.73c0.13,0.6,1.04,0.34,0.92-0.25
				c-0.06-0.27,0.04-0.48-0.06-0.73c-0.13-0.34-0.51-0.46-0.79-0.21c-0.76,0.68-0.89,1.74-1.21,2.69c-0.53,1.58-1.06,3.16-1.59,4.74
				c-1.01,2.98-2.05,5.96-3.17,8.91c-2.4,6.31-5.22,12.43-8.78,18.17C450.05,243.22,450.88,243.7,451.2,243.18L451.2,243.18z"/>
		</g>
	</g>
	<g>
		<g>
			<path class="st34" d="M460.23,171.35c14.72,8.95,38.13,7.47,48.23-7.75c0.34-0.51-0.48-0.99-0.82-0.48
				c-9.81,14.79-32.67,16.08-46.93,7.41C460.19,170.22,459.71,171.04,460.23,171.35L460.23,171.35z"/>
		</g>
	</g>
	<g>
		<g>
			<path class="st34" d="M468.43,278.43c1.45,8.39,1.18,16.3-4.07,23.37c-5.46,7.36-13.59,11.94-22.84,11.82
				c-0.61-0.01-0.61,0.94,0,0.95c9.31,0.13,17.53-4.36,23.18-11.66c5.76-7.44,6.2-15.76,4.64-24.73
				C469.25,277.58,468.33,277.83,468.43,278.43L468.43,278.43z"/>
		</g>
	</g>
	<g>
		<g>
			<path class="st34" d="M484.76,274.13c4.11,0.76,8.26-1.01,12.02-2.49c4.07-1.6,7.46-5.12,11.81-5.94
				c0.6-0.11,0.35-1.03-0.25-0.92c-3.78,0.7-6.64,3.48-9.99,5.15c-3.78,1.89-9.07,4.06-13.33,3.27
				C484.42,273.11,484.16,274.02,484.76,274.13L484.76,274.13z"/>
		</g>
	</g>
	<g>
		<g>
			<path class="st34" d="M496.5,276.61c2.75-1.64,5.6-3.11,8.42-4.63c0.54-0.29,0.06-1.11-0.48-0.82c-2.82,1.52-5.67,2.99-8.42,4.63
				C495.49,276.1,495.97,276.93,496.5,276.61L496.5,276.61z"/>
		</g>
	</g>
	<g>
		<g>
			<path class="st34" d="M430.28,330.97c9.16-2.62,21.28-1.14,28.42-8.54c0.42-0.44-0.25-1.11-0.67-0.67
				c-6.96,7.21-19.06,5.74-28,8.3C429.44,330.22,429.69,331.14,430.28,330.97L430.28,330.97z"/>
		</g>
	</g>
	<g>
		<g>
			<path class="st34" d="M439.12,333.08c6.34-1.89,12.23-4.93,17.8-8.47c0.51-0.33,0.04-1.15-0.48-0.82
				c-5.5,3.49-11.31,6.51-17.57,8.37C438.29,332.34,438.54,333.25,439.12,333.08L439.12,333.08z"/>
		</g>
	</g>
	<g>
		<g>
			<path class="st22" d="M589.33,228.15c-10.79,14.56-15.53,33.5-18.74,51.04c-3.92,21.37-5.34,43.32-5.39,65.01
				c0,1.22,1.9,1.22,1.9,0c0.05-21.52,1.43-43.31,5.32-64.51c3.19-17.41,7.85-36.14,18.55-50.58
				C591.7,228.12,590.05,227.17,589.33,228.15L589.33,228.15z"/>
		</g>
	</g>
	<g>
		<g>
			<path class="st22" d="M598.36,253.57c6.29,0.59,12.33,1.39,18.57-0.03c1.19-0.27,0.69-2.1-0.5-1.83
				c-6.06,1.38-11.97,0.54-18.06-0.03C597.14,251.56,597.15,253.46,598.36,253.57L598.36,253.57z"/>
		</g>
	</g>
	<g>
		<g>
			<path class="st22" d="M598.51,258.26c5.75,0.22,11.52,0.27,17.25,0.74c1.22,0.1,1.21-1.8,0-1.9c-5.74-0.47-11.51-0.52-17.25-0.74
				C597.29,256.31,597.29,258.21,598.51,258.26L598.51,258.26z"/>
		</g>
	</g>
	
		<ellipse transform="matrix(0.9914 -0.1307 0.1307 0.9914 -21.8519 71.3357)" class="st20" cx="532.65" cy="202.18" rx="22.61" ry="4.81"/>
	<path class="st35" d="M547.43,200.84c0.06,0.43-0.37,0.89-1.2,1.37c-2.41-0.79-8.14-0.82-14.73,0.05
		c-6.31,0.83-11.66,2.25-13.96,3.59c-0.72-0.23-1.15-0.54-1.2-0.91c-0.22-1.61,6.57-3.84,15.16-4.97
		C540.08,198.84,547.21,199.23,547.43,200.84z"/>
	<path class="st26" d="M546.23,202.21c-2.3,1.34-7.64,2.76-13.96,3.6c-6.59,0.86-12.33,0.84-14.73,0.04
		c2.3-1.34,7.64-2.76,13.96-3.59C538.1,201.39,543.82,201.42,546.23,202.21z"/>
	<g>
		<path class="st3" d="M519.64,199.4c-2.05-3.7,2.53-7.81,0.48-11.78c-0.68-1.32-1.98-1.98-2.93-3.04c-1.87-2.1-1.58-4-1.2-6.58
			c0.19-1.29-1.79-1.85-1.98-0.55c-0.51,3.52-1.04,5.95,1.73,8.58c1.17,1.11,2.81,2.45,3,4.21c0.19,1.78-1.02,3.67-1.41,5.36
			c-0.42,1.81-0.38,3.19,0.54,4.84C518.51,201.59,520.28,200.56,519.64,199.4L519.64,199.4z"/>
	</g>
	<g>
		<path class="st3" d="M545.43,198.51c-3.46-3.87,2.27-9.04,1.22-13.61c-0.59-2.57-1.96-4.65-1.76-7.45
			c0.11-1.59,0.66-2.53,0.12-4.09c-0.43-1.24-2.41-0.71-1.98,0.55c0.69,2.03-0.72,4.37-0.36,6.49c0.7,4.11,2.95,5.26,0.92,10.32
			c-1.49,3.72-2.54,5.99,0.38,9.26C544.86,200.95,546.31,199.49,545.43,198.51L545.43,198.51z"/>
	</g>
	<g>
		<path class="st3" d="M531.59,189.84c-2.23-4.38,2.37-8.37,0.78-12.89c-1.36-3.88-2.44-2.92-1.84-8.26
			c0.17-1.55,0.64-2.02-0.31-3.43c-0.73-1.09-2.51-0.07-1.77,1.04c0.77,1.15-0.96,4.14-0.82,5.55c0.27,2.58,2.31,4.38,2.68,7
			c0.64,4.49-2.78,7.54-0.49,12.04C530.42,192.05,532.19,191.02,531.59,189.84L531.59,189.84z"/>
	</g>
	<g>
		<path class="st3" d="M536.16,184.44c0.06,1.75-0.02,3.45-0.04,5.19c-0.02,1.41,0.72,2.97,0.31,4.33c-0.39,1.27,1.6,1.81,1.98,0.55
			c0.45-1.46-0.15-2.94-0.22-4.41c-0.09-1.86,0.09-3.77,0.03-5.65C538.18,183.12,536.12,183.11,536.16,184.44L536.16,184.44z"/>
	</g>
	<g>
		<path class="st3" d="M521.18,169.14c-0.62,1.78,0.26,3.19,0.56,4.92c0.24,1.37,0.12,2.76,0.68,4.06c0.52,1.21,2.29,0.17,1.77-1.04
			c-0.4-0.93-0.28-2.17-0.42-3.16c-0.2-1.42-1.12-2.82-0.62-4.24C523.59,168.43,521.61,167.9,521.18,169.14L521.18,169.14z"/>
	</g>
</g>
<g>
	<path class="st36" d="M616.88,53.18c-12.53,0.24-63.85-0.02-65.43,0.2c-2.57,0.35-1.96,0.08-2.1,2.6
		c-0.08,1.32,1.09,65.44,1.63,80.58c0.15,4.13,0.43,3.27,5.91,3.27c12.79-0.01,50.59,0.19,53.78-0.03c2.07-0.14,5.52,0.37,5.84-2.38
		c0.16-1.4,0.05-2.9,0.06-4.32c0.01-1.67,0.37-61.56,0.45-74.9c0.01-1.62,0.02-3.23,0.03-4.85
		C617.04,53.26,616.95,53.18,616.88,53.18z"/>
	<path class="st36" d="M711.04,53.13c-12.53,0.24-63.85-0.02-65.43,0.2c-2.57,0.35-1.96,0.08-2.1,2.6
		c-0.08,1.32,1.09,65.44,1.63,80.58c0.15,4.13,0.43,3.27,5.91,3.27c12.79-0.01,50.59,0.19,53.78-0.03c2.07-0.14,5.52,0.37,5.84-2.38
		c0.16-1.4,0.05-2.9,0.06-4.32c0.01-1.67,0.37-61.56,0.45-74.9c0.01-1.62,0.02-3.23,0.03-4.85C711.2,53.2,711.12,53.13,711.04,53.13
		z"/>
	<path class="st24" d="M609.38,59.47c-17.59-0.07-35.54-0.17-53.14-0.32c-0.11-0.04-0.23-0.04-0.34,0c-0.07,0-0.15,0-0.22,0
		c0,0.06,0,0.13,0,0.2c-0.02,0.05-0.04,0.11-0.04,0.18c0.35,29.14,0.56,49.53,1.02,73.64c0.35,0.02,0.46,0.02,0.6,0.02c0,0,0,0,0,0
		c17.83,0.15,35.65,0.25,53.48,0.33c0-0.01,0-0.01-0.01-0.02c0.22,0.01,0.44-0.13,0.43-0.41c-0.69-24.32-1.28-48.63-1.78-72.94
		C609.39,59.9,609.38,59.72,609.38,59.47z M610.3,132.67c-17.6-0.07-35.21-0.18-52.82-0.33c-0.4-18.58-0.77-37.43-1.06-56
		c-0.18-11.24,0.21-5.61,0.09-16.35c17.24,0.14,34.82,0.24,52.07,0.31c0.2,11.68,0.46,23.99,0.82,38.56
		C609.68,110.13,609.98,121.4,610.3,132.67z"/>
	<path class="st37" d="M602.18,69.91c-12.72-0.05-25.72-0.13-38.44-0.23c-0.08-0.03-0.17-0.03-0.24,0c-0.05,0-0.11,0-0.16,0
		c0,0.05,0,0.1,0,0.14c-0.02,0.04-0.03,0.08-0.03,0.13c0.25,21.08,0.4,35.83,0.73,53.28c0.25,0.01,0.33,0.01,0.44,0.02c0,0,0,0,0,0
		c12.9,0.11,25.79,0.18,38.69,0.24c0,0,0-0.01,0-0.01c0.16,0,0.32-0.09,0.31-0.29c-0.5-17.59-0.92-35.19-1.29-52.77
		C602.19,70.23,602.18,70.09,602.18,69.91z"/>
	<path class="st38" d="M697.23,70.28c-12.72-0.05-25.72-0.13-38.44-0.23c-0.08-0.03-0.17-0.03-0.24,0c-0.05,0-0.11,0-0.16,0
		c0,0.05,0,0.1,0,0.14c-0.02,0.04-0.03,0.08-0.03,0.13c0.25,21.08,0.4,35.83,0.73,53.28c0.25,0.01,0.33,0.01,0.44,0.02c0,0,0,0,0,0
		c12.9,0.11,25.79,0.18,38.69,0.24c0,0,0-0.01,0-0.01c0.16,0,0.32-0.09,0.31-0.29c-0.5-17.59-0.92-35.19-1.29-52.77
		C697.24,70.59,697.23,70.46,697.23,70.28z"/>
	<path class="st24" d="M704.03,60.26c-17.59-0.07-35.54-0.17-53.14-0.32c-0.11-0.04-0.23-0.04-0.34,0c-0.07,0-0.15,0-0.22,0
		c0,0.06,0,0.13,0,0.2c-0.02,0.05-0.04,0.11-0.04,0.18c0.35,29.14,0.56,49.53,1.02,73.64c0.35,0.02,0.46,0.02,0.6,0.02c0,0,0,0,0,0
		c17.83,0.15,35.65,0.25,53.48,0.33c0-0.01,0-0.01-0.01-0.02c0.22,0.01,0.44-0.13,0.43-0.41c-0.69-24.32-1.28-48.63-1.78-72.94
		C704.04,60.69,704.03,60.51,704.03,60.26z M704.95,133.46c-17.6-0.07-35.21-0.18-52.82-0.33c-0.4-18.58-0.77-37.43-1.06-56
		c-0.18-11.24,0.21-5.61,0.09-16.35c17.24,0.14,34.82,0.24,52.07,0.31c0.2,11.68,0.46,23.99,0.82,38.56
		C704.33,110.92,704.63,122.19,704.95,133.46z"/>
	<path class="st39" d="M582.38,123.37c0-0.17,0-0.34,0.01-0.48c0.12-1.95,0.2-3.91,0.25-5.87c0.09-3.92,0.03-7.86-0.15-11.8
		c0.25,0.09,0.49,0.18,0.74,0.27c0.43,0.23,0.88-0.34,0.47-0.67c-6.94-5.52-13.21-11.84-20.16-17.34
		c0.15,12.65,0.3,23.54,0.53,35.74c0.25,0.01,0.33,0.01,0.44,0.02c0,0,0,0,0,0C570.46,123.29,576.42,123.33,582.38,123.37z"/>
	<path class="st39" d="M659.08,123.58c0.25,0.01,0.33,0.01,0.44,0.02c0,0,0,0,0,0c0.24,0,0.48,0,0.72,0.01
		c12.51-11.62,24.97-23.3,37.4-35.01c-0.02-0.8-0.04-1.59-0.05-2.39c-12.8,12.07-25.63,24.09-38.52,36.07
		C659.07,122.71,659.08,123.14,659.08,123.58z M689.5,123.79c2.92-3,5.85-5.99,8.79-8.97c-0.02-0.82-0.04-1.65-0.07-2.47
		c-3.74,3.8-7.47,7.61-11.19,11.43C687.86,123.78,688.68,123.78,689.5,123.79z M675.11,70.14c-5.49,6.02-11,12.01-16.55,17.97
		c0.01,0.87,0.02,1.72,0.03,2.57c6.34-6.81,12.65-13.65,18.91-20.53C676.71,70.16,675.91,70.15,675.11,70.14z M687.85,70.22
		l-29.16,28.37c0.01,0.82,0.02,1.63,0.03,2.44l31.66-30.8C689.53,70.22,688.7,70.22,687.85,70.22z M672.66,123.69
		c0.84,0.01,1.67,0.01,2.51,0.02c3.61-3.56,7.22-7.11,10.82-10.67c3.93-3.88,7.97-7.7,11.94-11.59c-0.02-0.81-0.04-1.62-0.06-2.42
		c-4.36,4.32-8.84,8.53-13.19,12.82C680.68,115.79,676.67,119.74,672.66,123.69z M658.85,110.03c0.01,0.78,0.02,1.55,0.04,2.33
		c13.07-11.68,25.89-23.62,38.47-35.81c-0.02-0.8-0.04-1.61-0.05-2.41C684.74,86.36,671.92,98.32,658.85,110.03z M664.24,70.07
		c-1.94,2.11-3.87,4.23-5.82,6.34c0.01,0.87,0.02,1.73,0.03,2.57c2.74-2.95,5.46-5.92,8.18-8.89
		C665.83,70.08,665.04,70.08,664.24,70.07z"/>
</g>
<g>
	<g>
		<defs>
			<path id="XMLID_1_" d="M794.04,489.94c-17.99-11.85-48.42-14.7-69.74,0.21c-1.36-4.68-3.95-10.07-8.82-15.04
				c0,0-0.78-17.11-2.42-18.15c-1.64-1.04-9.66,9.29-11.68,13.87c0,0-12.97,0.98-24.12,5.4c-4.84-3.94-15.44-9.2-16.48-7.57
				c-1.04,1.64,5.55,17.45,5.55,17.45c-2.53,7.26-2.32,13.79-1.31,18.82c-4.51,7.95-16.66,32.92,0.69,44.86
				c2.83,1.95,7.07,3.64,12.34,5.09l-0.53-0.01c-15.75,4.5-19.69,24.39,7.93,13.32c7.16-2.87,13.39-5.09,18.68-6.82
				c14.34,7.48,20.13,4.62,19.84-0.45c9.1,0.42,18.42,0.53,27.38,0.32c-13.96,3.26-8.4,14.52,7.57,11.82c0,0,44.03-2.05,53.12-28.31
				c0.9-2.61,1.5-4.7,1.84-6.35C817.76,522.33,809.34,500.02,794.04,489.94z"/>
		</defs>
		<use xlink:href="#XMLID_1_"  style="overflow:visible;fill:#E6E6E6;"/>
		<clipPath id="XMLID_3_">
			<use xlink:href="#XMLID_1_"  style="overflow:visible;"/>
		</clipPath>
		<path class="st40" d="M767.01,531.58c4.76-4.96,12.14-6.9,13.42-14.35c0.34-1.99,0.26-4.38,1.42-6.14
			c1.35-2.06,4.04-2.71,5.59-4.56c2.78-3.31,1.39-6.69,4.82-9.89c1.78-1.66,7.3-7.85,10.19-6.66c3.17,1.3,7.9,11.1,6.68,14.6
			c-1.36,3.86-7.78,3.88-11.02,4.56c-5.87,1.23-7.8,3.63-10.42,8.55c-1.68,3.16-3.57,5.38-6.26,7.74
			c-4.54,3.98-11.49,2.67-15.46,7.33C766.23,532.47,766.48,532.15,767.01,531.58z"/>
		<path class="st40" d="M767.52,516.98c1.9-3.09,2.95-6.71,5.64-9.7c2.94-3.28,5.19-5.23,6-9.59c0.75-4.02,1.39-6.78,3.71-10.36
			c1.84-2.84,4.9-5.73,1.74-8.03c-2.27-1.65-10.98-2.34-13.18-0.79c-3.29,2.31-1.96,8.05-1.96,11.56c0,7.57-3,12.54-4.23,19.75
			c-0.88,5.16-1.29,9.41-2.98,14.49C765.71,522.17,769.54,516.75,767.52,516.98z"/>
		<path class="st40" d="M754.6,475.5c-3.32,2.97,1.87,9.11,2.47,12.28c0.9,4.75-2.36,6.74-3.44,10.9
			c-1.32,5.08,1.02,11.23,0.66,16.52c-2.52-3.43-3.41-8.85-4.41-12.97c-0.94-3.9,0.25-8.53-1.86-11.94
			c-2.22-3.58-7.74-7.01-5.57-12.23C743.8,474.86,750.73,474.82,754.6,475.5z"/>
		<path class="st40" d="M731.35,481.96c-0.2,3.16,1.04,6.49,3.17,8.82c2.22,2.43,4.35,3.28,4.8,6.82c0.57,4.45,0.87,9.15,1.07,13.62
			c0.32,7.02,5.34,14.96,2.84,22.08c0.65-5.39-4.7-11.07-6.2-16.03c-0.97-3.18-0.71-6.51-1.65-9.65c-1.29-4.29-4.19-7.28-6.88-10.69
			c-1.59-2.03-5.2-6.72-5.16-9.31C723.39,484.03,728.03,484.03,731.35,481.96z"/>
		<path class="st40" d="M771.66,543.21c4.6,0.13,9.65-5,14.04-6.28c5.05-1.47,10.54,0.34,14.85-2.96c5.12-3.93,12.5-7.46,19.13-7.52
			c0.64,1.9-0.13,8.54-1.91,9.76c-0.9,0.61-4.11-0.07-5.15,0.01c-2.36,0.19-4.66,0.86-6.47,2.39c-1.69,1.43-2.62,3.47-4.96,4.16
			c-2.74,0.81-5.96-0.29-8.71-0.59c-4.12-0.46-7.81-0.53-11.76,0.9c-1.84,0.67-3.5,1.62-5.45,2.07c-4.75,1.1-8.78-0.36-13.35-0.9
			c5.16-0.23,10.18-0.28,15.17-1.55"/>
		<path class="st40" d="M653.18,513.1c7.58-2.16,13.05,5.99,19.96,6.76c4.25,0.47,6.9,3.05,10.75,4.56
			c2.59,1.02,6.02,1.42,8.76,1.86c-7.27,1.33-13.73-2.4-20.75-2.72C668.43,523.4,646.43,524.63,653.18,513.1z"/>
		<path class="st40" d="M651.43,530.35c3.39-0.12,6.96-0.39,10.34,0.18c3.96,0.67,7.09,2.58,11.27,2.54
			c2.76-0.03,5.84-1.11,8.59-0.6c2.56,0.47,4.76,0.83,7.55,0.78c-1.92,1.68-5.35,1.73-7.77,1.75c-4.96,0.04-9.27,2.93-14.22,3.3
			c-2.69,0.2-4.91-0.68-7.49-1.13c-2.28-0.4-4.59-0.23-6.88-0.04c-1.45,0.12-1.48,0.45-2.2-0.58
			C649.73,535.28,650.42,532.37,651.43,530.35z"/>
		<path class="st40" d="M657.25,550.89c2.92-3.69,8.79-3.18,12.92-4.44c3.55-1.09,6.81-3.34,10.33-4.6
			c-1.54,2.43-5.43,3.73-7.63,5.65c-1.86,1.63-3.49,3.69-5.78,4.76c-1.16,0.54-2.82,1-4.03,1.1c-0.93,0.08-0.58,0.31-1.75-0.08
			C660.22,552.93,659.35,552.03,657.25,550.89z"/>
	</g>
	<g>
		<g>
			<path class="st41" d="M703.55,498.77c-1.07,0-2.14-0.34-3.08-1.01c-1.24-0.87-2.12-2.2-2.48-3.74c-0.15-0.64,0.25-1.27,0.88-1.42
				c0.64-0.15,1.27,0.25,1.42,0.88c0.23,0.98,0.77,1.81,1.54,2.34c0.72,0.51,1.55,0.69,2.34,0.5c0.79-0.18,1.45-0.71,1.88-1.49
				c0.45-0.82,0.57-1.81,0.34-2.78c-0.15-0.64,0.25-1.27,0.88-1.42c0.64-0.15,1.27,0.25,1.42,0.88c0.36,1.54,0.16,3.12-0.56,4.45
				c-0.75,1.38-1.96,2.32-3.42,2.66C704.32,498.73,703.93,498.77,703.55,498.77z"/>
		</g>
		<g>
			<path class="st41" d="M679.37,504.22c-2.41,0-4.66-1.83-5.28-4.49c-0.15-0.64,0.25-1.27,0.88-1.42c0.63-0.15,1.27,0.25,1.42,0.88
				c0.42,1.79,2.01,2.95,3.53,2.6c0.71-0.17,1.32-0.65,1.7-1.35c0.41-0.75,0.52-1.65,0.31-2.54c-0.15-0.64,0.25-1.27,0.88-1.42
				c0.63-0.15,1.27,0.25,1.42,0.88c0.34,1.46,0.15,2.95-0.53,4.21c-0.71,1.3-1.86,2.2-3.24,2.52
				C680.1,504.18,679.73,504.22,679.37,504.22z"/>
		</g>
		<path class="st41" d="M691.8,499.53c-1.03,0.23-3.98,0.93-2.89,2.34c0.59,0.77,1.66,1.34,2.39,1.66c0.44,0.2,0.96,0.09,1.29-0.26
			C693.88,501.88,696.72,498.44,691.8,499.53z"/>
		<g>
			<path class="st41" d="M684.68,510.64c-0.36,0-0.68-0.27-0.73-0.64c-0.05-0.4,0.23-0.78,0.63-0.83c0.05-0.01,4.56-0.64,6.16-2.98
				c0.53-0.76,0.67-1.61,0.44-2.6c-0.09-0.4,0.15-0.79,0.55-0.89c0.4-0.09,0.79,0.16,0.89,0.55c0.32,1.4,0.1,2.67-0.66,3.78
				c-1.98,2.87-6.97,3.57-7.18,3.6C684.74,510.64,684.71,510.64,684.68,510.64z"/>
		</g>
		<g>
			<path class="st41" d="M696.97,507.47c-1.21,0-2.47-0.19-3.53-0.78c-1.18-0.66-1.94-1.7-2.27-3.09c-0.09-0.4,0.15-0.79,0.55-0.89
				c0.4-0.09,0.79,0.16,0.89,0.55c0.23,0.99,0.74,1.69,1.54,2.14c2.48,1.38,6.79-0.05,6.84-0.06c0.39-0.13,0.81,0.08,0.94,0.46
				c0.13,0.39-0.08,0.81-0.46,0.94C701.34,506.78,699.25,507.47,696.97,507.47z"/>
		</g>
		<g>
			<path class="st41" d="M693.88,515.27c-1.17,0-2.08-0.31-2.15-0.34c-0.38-0.14-0.58-0.56-0.45-0.94c0.14-0.38,0.56-0.58,0.94-0.45
				c0.11,0.04,2.84,0.97,4.38-0.94c0.26-0.32,0.72-0.37,1.04-0.11c0.32,0.26,0.37,0.72,0.11,1.04
				C696.63,514.92,695.11,515.27,693.88,515.27z"/>
		</g>
	</g>
	<g>
		<path class="st41" d="M701.42,560.8c-0.13,0-0.26-0.03-0.37-0.1c-11.59-6.8-21.76-4.89-21.86-4.87c-0.39,0.08-0.79-0.18-0.87-0.58
			c-0.08-0.4,0.18-0.79,0.58-0.87c0.44-0.09,10.83-2.03,22.9,5.04c0.35,0.21,0.47,0.66,0.26,1.01
			C701.92,560.68,701.68,560.8,701.42,560.8z"/>
	</g>
	<g>
		<path class="st41" d="M715.59,551.44c-0.16,0-0.32-0.05-0.46-0.16c-11.78-9.28-26.21-7.25-26.35-7.23
			c-0.42,0.06-0.78-0.22-0.84-0.62c-0.06-0.4,0.22-0.78,0.62-0.84c0.61-0.09,15.18-2.16,27.48,7.53c0.32,0.25,0.38,0.72,0.12,1.04
			C716.02,551.34,715.8,551.44,715.59,551.44z"/>
	</g>
	<g>
		<path class="st41" d="M723.19,563.41c-0.05,0-0.11-0.01-0.16-0.02c-0.4-0.09-0.65-0.49-0.56-0.88c1.08-4.75-3.01-7.96-3.05-8
			c-0.32-0.25-0.38-0.71-0.14-1.04c0.25-0.32,0.71-0.38,1.04-0.14c0.2,0.15,4.88,3.84,3.59,9.5
			C723.83,563.18,723.53,563.41,723.19,563.41z"/>
	</g>
	<g>
		<path class="st41" d="M745.71,564.16c-0.13,0-0.27-0.04-0.39-0.11c-0.33-0.21-0.45-0.64-0.25-0.98c0.22-0.38,2.57-3.73,17.91-4.77
			c16.54-1.12,28.33-5.56,34.1-12.83c0.25-0.32,0.72-0.37,1.04-0.12c0.32,0.25,0.37,0.72,0.12,1.04
			c-6.03,7.6-18.19,12.23-35.16,13.38c-14.45,0.98-16.72,4.03-16.74,4.06C746.19,564.04,745.95,564.16,745.71,564.16z"/>
	</g>
	<g>
		<path class="st41" d="M747.64,551.44c-0.31,0-0.61-0.2-0.71-0.52c-2.96-9.48-2.68-17.66,0.85-24.3
			c4.85-9.13,13.99-11.97,14.38-12.08c0.39-0.12,0.8,0.1,0.92,0.49c0.12,0.39-0.1,0.8-0.49,0.92c-0.09,0.03-8.96,2.8-13.51,11.38
			c-3.32,6.27-3.57,14.06-0.73,23.15c0.12,0.39-0.1,0.8-0.48,0.93C747.78,551.43,747.71,551.44,747.64,551.44z"/>
	</g>
	<g>
		<path class="st41" d="M707.95,521.59c-0.32,0-0.61-0.21-0.71-0.53c-0.12-0.39,0.11-0.8,0.5-0.92c14.8-4.41,15.48-19.47,15.5-20.11
			c0.01-0.4,0.34-0.71,0.74-0.71c0.43,0.01,0.75,0.35,0.74,0.76c-0.01,0.17-0.72,16.76-16.55,21.48
			C708.09,521.58,708.02,521.59,707.95,521.59z"/>
	</g>
</g>
</svg>
