<?xml version="1.0" encoding="utf-8"?>
<!-- Generator: Adobe Illustrator 23.0.2, SVG Export Plug-In . SVG Version: 6.00 Build 0)  -->
<svg version="1.1" id="Layer_1" xmlns="http://www.w3.org/2000/svg" xmlns:xlink="http://www.w3.org/1999/xlink" x="0px" y="0px"
	 viewBox="0 0 694.41 632.18" style="enable-background:new 0 0 694.41 632.18;" xml:space="preserve">
<style type="text/css">
	.st0{opacity:0.1;fill:#007CC7;}
	.st1{fill:none;stroke:#FFFFFF;stroke-width:5;stroke-miterlimit:10;}
	.st2{fill:none;stroke:#FFFFFF;stroke-width:5;stroke-miterlimit:10;stroke-dasharray:11.9324,11.9324;}
	.st3{opacity:0.91;}
	.st4{fill:#FFFFFF;}
	.st5{fill:#035693;}
	.st6{fill:#F9BAA8;}
	.st7{fill:#F3A992;}
	.st8{fill:#E0585E;}
	.st9{fill:#999999;}
	.st10{fill:#666666;}
	.st11{fill:#1B354C;}
	.st12{fill:#6FB1ED;}
	.st13{fill:#7C3A35;}
	.st14{fill:#592721;}
	.st15{fill:#592F21;}
	.st16{fill:#884640;}
	.st17{fill:#F6E6E0;}
	.st18{opacity:0.16;fill:#FFFFFF;}
	.st19{fill:#808080;}
	.st20{fill:#108C85;}
	.st21{fill:#DDD466;}
	.st22{font-family:'BelloCapsPro-Regular';}
	.st23{font-size:41.6561px;}
	.st24{opacity:0.86;}
	.st25{opacity:0.91;fill:#E0585E;}
	.st26{opacity:0.91;fill:#FFFFFF;}
	.st27{font-size:50.4815px;}
	.st28{opacity:0.86;fill:#E0585E;}
	.st29{opacity:0.86;fill:#FFFFFF;}
	.st30{font-size:52.6796px;}
	.st31{fill:none;stroke:#FFFFFF;stroke-width:5.4418;stroke-miterlimit:10;}
	.st32{fill:none;stroke:#FFFFFF;stroke-width:7.4423;stroke-miterlimit:10;}
	.st33{fill:#F29542;}
	.st34{fill:none;stroke:#FFFFFF;stroke-width:6.9035;stroke-miterlimit:10;}
	.st35{fill:#007CC7;}
	.st36{fill:none;stroke:#FFFFFF;stroke-width:5;stroke-miterlimit:10;stroke-dasharray:11.5923,11.5923;}
</style>
<path class="st0" d="M694.14,313.01c4.34-74.34-44.1-175.63-106-215.75C564.2,81.74,547.79,75.09,520.3,77.3
	c-25.91,2.09-56.92,14.28-79.22,25.25c-39.73,19.55-70.37,20.09-112.96,5.53c-51.83-17.72-87.48-65.98-143.71-74.01
	c-64.79-9.26-118.78,38.46-147.16,92.34c-53.32,101.21-50.08,235.54,14.13,331.36c33.73,50.33,84.79,87.27,142.36,106.16
	c35.41,11.62,91.89,26.34,128.96,27.9C480.06,598.43,680.52,546.6,694.14,313.01z"/>
<g>
	<g>
		<path class="st1" d="M147.17,213.03c2.12,0.04,4.12,0.09,6,0.12"/>
		<path class="st2" d="M165.1,213.4c16.39,0.33,21.45,0.46,33.36,1.02c49.68,2.34,99.41,1.63,148.98,6.44
			c35.73,3.47,184.65,18.7,183.48,39.4c-2.81,49.53-115.02,79.38-151.97,95.77c-37.9,16.82-137.51,70.05-177.35,86.63"/>
		<path class="st1" d="M196.07,444.86c-2.18,0.83-4.08,1.48-5.67,1.95"/>
	</g>
</g>
<g class="st3">
	<path class="st4" d="M285.47,131.13c0.56,12.94-9.46,23.88-22.4,24.45l-67.19,2.93c-12.94,0.56-23.89-9.46-24.45-22.4l-2.93-67.19
		c-0.56-12.94,9.47-23.88,22.41-24.45l67.19-2.93c12.94-0.56,23.88,9.46,24.45,22.4L285.47,131.13z"/>
	<g>
		<path class="st5" d="M261.77,76.55c-2.53,1.26-5.28,2.16-8.17,2.63c2.9-1.91,5.06-4.83,5.99-8.24c-2.71,1.78-5.74,3.11-8.99,3.89
			c-2.75-2.68-6.57-4.27-10.71-4.09c-7.95,0.35-14.12,7.08-13.77,15.03c0.05,1.13,0.22,2.22,0.52,3.27
			c-11.99-0.08-22.85-5.35-30.34-13.75c-1.15,2.18-1.75,4.69-1.63,7.32c0.22,5,2.95,9.3,6.93,11.71c-2.36,0.03-4.61-0.52-6.6-1.52
			c0,0.06,0,0.12,0,0.18c0.3,6.98,5.53,12.58,12.17,13.62c-1.19,0.38-2.46,0.61-3.77,0.67c-0.93,0.04-1.83-0.01-2.72-0.14
			c2.08,5.64,7.58,9.57,13.89,9.41c-4.76,4.08-10.87,6.65-17.62,6.95c-1.16,0.05-2.31,0.03-3.44-0.05
			c6.55,3.81,14.22,5.86,22.35,5.51c26.49-1.16,40.02-23.73,39.19-42.76c-0.03-0.62-0.07-1.25-0.12-1.86
			C257.64,82.17,259.97,79.53,261.77,76.55L261.77,76.55z M261.77,76.55"/>
	</g>
</g>
<g>
	<path class="st6" d="M441.82,285.86c0,0,2.49-18.76,14.22-27.3c11.73-8.53,29.27-11.33,22.1,12.29
		c-7.17,23.62-5.04,75.89-7.88,101.13s-27.73,84.62-38.75,111.64c-4.96,12.16-7.64,59.41-9.09,85.7
		c-1.94,35.23-30.96,62.85-66.25,62.85h-0.06c-36.89,0-66.66-30.1-66.33-66.99c0.23-25.34-0.36-68.86-3.19-71.85
		c-6.4-6.76-7.27-16.47-14.38-37.45c-7.11-20.98-16.59-42.67-16.59-42.67L441.82,285.86z"/>
	<path class="st7" d="M318.34,416.55c0,0,36.88,11.85,47.57,29.87c10.69,18.01,1.92-4.27,22.19-23.23
		C408.37,404.22,318.34,416.55,318.34,416.55z"/>
	<path class="st7" d="M243.3,204.45c0,0-10.43-35.37-10.43-55.28s18.87-19.91,25.79-9.01c6.92,10.9,17.68,53.78,17.68,53.78
		l-6.49,110.72l-25.6,2.84L243.3,204.45z"/>
	<g class="st3">
		<path class="st4" d="M396.97,408.65l114.35,38.37c6.94,2.33,14.44-1.41,16.77-8.34l25.18-75.05c2.33-6.94-1.41-14.44-8.34-16.77
			l-114.35-38.37c-6.94-2.33-14.44,1.41-16.77,8.34l-25.18,75.05C386.3,398.82,390.03,406.33,396.97,408.65z"/>
		<polygon class="st4" points="504.79,433.86 498.87,475.02 477.25,423.33 		"/>
		<circle class="st8" cx="539.76" cy="351.68" r="38.14"/>
		<g>
			<path class="st4" d="M536.1,348.91c-1.86,0.4-3.04,0.39-4.36-0.04c-3.22-1.03-4.37-3.4-3.33-6.62
				c3.93-1.74,13.8-7.57,20.11-12.46c0.6,0.1,1.37,0.26,2.03,0.47c4.45,1.43,5.19,5.94,3.76,10.39c-0.03,0.08-0.32,0.99-8.54,25.46
				c2.21,1.35,2.77,2.98,2.24,4.63c-1.8,5.61-6.26,6.45-12.52,4.44c-1.81-0.58-12.95-4.43-13.86-4.72c-0.56-1.36-0.52-2.9-0.02-4.46
				c0.95-2.97,3.9-4.21,9.71-3.34c1.19-3.71,2.39-7.15,3.29-9.68C535.17,351.53,535.62,350.12,536.1,348.91z"/>
		</g>
	</g>
	<path class="st9" d="M432.87,426.98H267.54c-6.58,0-11.91-5.33-11.91-11.91V91.4c0-6.58,5.33-11.91,11.91-11.91h165.33
		c6.58,0,11.91,5.33,11.91,11.91v323.67C444.78,421.64,439.45,426.98,432.87,426.98z"/>
	<path class="st10" d="M432.97,421.05H267.44c-6.52,0-11.81-5.29-11.81-11.81V91.3c0-6.52,5.29-11.81,11.81-11.81h165.53
		c6.52,0,11.81,5.29,11.81,11.81v317.95C444.78,415.76,439.49,421.05,432.97,421.05z"/>
	<path class="st11" d="M434.27,389.05H264.84c-2.01,0-3.64-1.63-3.64-3.64V91.54c0-2.01,1.63-3.64,3.64-3.64h169.43
		c2.01,0,3.64,1.63,3.64,3.64v293.88C437.91,387.42,436.28,389.05,434.27,389.05z"/>
	<rect x="269.73" y="114.21" class="st12" width="159.29" height="225.06"/>
	<path class="st4" d="M405.08,347.94c-8.51,0-15.41,6.08-15.41,13.57c0,1.1,0.17,2.17,0.45,3.19l-6.02,5.87l9.02-0.51
		c2.82,3.06,7.13,5.02,11.96,5.02c8.51,0,15.41-6.08,15.41-13.57C420.49,354.01,413.59,347.94,405.08,347.94z"/>
	<path class="st4" d="M310.92,359.06c-1.79-4.77-6.38-8.17-11.76-8.17c-6.93,0-12.57,5.64-12.57,12.57
		c0,6.93,5.64,12.57,12.57,12.57v-4.27c-4.58,0-8.3-3.72-8.3-8.3c0-4.58,3.72-8.3,8.3-8.3c3.41,0,6.34,2.07,7.62,5.01l-2.61,0.7
		l6.93,6.54l2.4-9.02L310.92,359.06z"/>
	<path class="st6" d="M231.5,326.59c0,0-19.49-41.36-16.17-62.69c3.32-21.33,38.4-18.73,51.67-18.61
		c13.27,0.12,32.39,13.45,7.47,25.56c-11.01,5.35-18.37,6.32-18.37,6.32l-0.47,24.68L231.5,326.59z"/>
	<path class="st7" d="M256.1,277.17c0,0-10.89,1.47-20.27,4.38c0,0-12.1,6.76-4.33,45.04l24.6-21.69V277.17z"/>
	<path class="st6" d="M255.63,413.23c0,0-23.23-47.88-26.07-73.95c-2.84-26.07,37.52-45.57,48.83-46.99
		c11.31-1.42,15.41,17.36-3.91,34.31s-18.84,33.76-18.84,33.76V413.23z"/>
	<path class="st6" d="M217.89,257.08c0,0-7.4-29.69,0-40.59c7.4-10.9,43.66-29.87,51.84-27.02c8.18,2.84,17.18,13.75-2.25,31.29
		C248.04,238.3,246.52,252.16,217.89,257.08z"/>
	<path class="st13" d="M286.83,496.9c-1.14,0-3.51,3.32-2.33,15.46c0.88,8.98,1.75,14.58,3.41,15.76
		c1.66,1.19,13.38,4.46,53.24,4.57c60.21,0.16,83.99-6.85,85.17-8.74c1.19-1.9,8.58-28.21,2.35-30.83c0,0-8.12,3.78-62.4,5.91
		S286.83,496.9,286.83,496.9z"/>
	<circle class="st14" cx="299.79" cy="513.85" r="3.38"/>
	<circle class="st14" cx="327.52" cy="515.86" r="3.38"/>
	<circle class="st15" cx="356.5" cy="515.86" r="3.38"/>
	<circle class="st14" cx="356.5" cy="515.86" r="3.38"/>
	<path class="st16" d="M373.03,499.09c0,0,33.95-1.6,41.42,0c7.47,1.6,9.36,22.87,0,26.49c-9.36,3.62-40.53,5.16-40.53,5.16
		S375.7,502.83,373.03,499.09z"/>
	<path class="st17" d="M367,499.01c0,0,5.32-1.16,5.14,3.82c-0.18,4.98,1.46,25.45,0,27.38c-1.45,1.93-5.15,2.08-5.15,2.08
		s0.17,1.83,4.79,2.01c4.62,0.18,4.62-1.78,5.16-12.98c0.53-11.2,0.53-22.93-1.78-24S367.54,496.25,367,499.01z"/>
	<path class="st17" d="M355.31,514.32c-1.29,0.86-1.36,3.56,1.84,3.44c3.2-0.12,16.24,0.47,17.18-0.53
		c0.95-1.01,0.12-3.49-0.47-3.38C373.27,513.96,356.55,513.49,355.31,514.32z"/>
	
		<ellipse transform="matrix(0.7071 -0.7071 0.7071 0.7071 -183.8825 367.0948)" class="st11" cx="351.18" cy="405.51" rx="12.54" ry="12.54"/>
	<ellipse class="st9" cx="351.18" cy="403.41" rx="12.54" ry="12.15"/>
	<path class="st18" d="M438.56,206.99L261.2,385.41c0,2.01,1.63,3.64,3.64,3.64h74.27l99.46-94.93V206.99L438.56,206.99z"/>
</g>
<g>
	<path class="st19" d="M371.62,295.07h-55.07c-13.45,0-24.36-10.91-24.36-24.36v0c0-13.45,10.91-24.36,24.36-24.36h55.07
		c13.45,0,24.36,10.91,24.36,24.36v0C395.98,284.17,385.08,295.07,371.62,295.07z"/>
	<g>
		<path class="st4" d="M411.87,270.3c0-15.01-12.21-27.22-27.21-27.22h-68.85c-15,0-27.22,12.21-27.22,27.22
			c0,15,12.22,27.22,27.22,27.22h68.85C399.66,297.51,411.87,285.3,411.87,270.3z M407.25,270.3c0,12.46-10.13,22.59-22.59,22.59
			h-68.85c-12.46,0-22.59-10.13-22.59-22.59c0-12.46,10.13-22.59,22.59-22.59h68.85C397.12,247.7,407.25,257.84,407.25,270.3z"/>
		<g>
			<path class="st20" d="M407.3,270.3c0-12.61-10.22-22.83-22.83-22.83c-12.61,0-22.83,10.22-22.83,22.83
				c0,12.61,10.22,22.83,22.83,22.83C397.08,293.13,407.3,282.91,407.3,270.3z"/>
			<path class="st21" d="M384.47,286.11c-8.73,0-15.81-7.08-15.81-15.81c0-8.73,7.08-15.81,15.81-15.81
				c8.74,0,15.81,7.08,15.81,15.81C400.28,279.03,393.21,286.11,384.47,286.11z"/>
			<path class="st20" d="M384.47,277.43c-3.93,0-7.13-3.19-7.13-7.13c0-3.94,3.19-7.13,7.13-7.13c3.94,0,7.13,3.19,7.13,7.13
				C391.6,274.23,388.41,277.43,384.47,277.43z"/>
		</g>
	</g>
	<g>
		<path class="st4" d="M317.83,255.71c5.29,0,9.2,3.85,9.2,11.92c0,9.3-3.24,16.54-11.46,16.54c-6.37,0-10.12-2.72-10.12-12.43
			c0-6.63,1.59-10.07,4.57-11.97C311.67,256.73,314.8,255.71,317.83,255.71z M314.39,262.49c-0.41,2.05-0.46,6.01-0.46,7.5
			c0,6.42,0.93,7.45,4.16,8.06c0.67-3.13,0.82-6.52,0.82-8.06C318.91,265.11,317.47,263.46,314.39,262.49z"/>
		<path class="st4" d="M344.33,256.78c0.98-0.67,1.85-0.92,3.24-0.92c2.47,0,4.06,0.98,4.06,3.34c0,4.42,0,17.67-0.82,21.78
			c-0.36,2.21-1.75,3.03-4.37,3.03c-2.57,0-2.77-1.34-3.03-4.98c-2-3.44-3.9-6.83-5.96-10.12c0,3.7-0.1,8.89-0.51,11.71
			c-0.26,2.21-1.64,3.34-4.16,3.34c-1.18,0-2.11-0.36-2.36-1.18c0-3.49-0.1-12.74-0.1-19.72c-0.41-1.23-0.72-2.72-0.72-3.7
			c0-2,2.26-3.49,6.22-3.49c1.9,0,2.82,0.41,3.34,1.18c1.13,1.54,3.85,6.63,5.14,8.99C344.28,262.95,344.33,258.12,344.33,256.78z"
			/>
	</g>
</g>
<text transform="matrix(1 0 0 1 280.6066 187.8416)"><tspan x="0" y="0" class="st4 st22 st23">parental</tspan><tspan x="0" y="29.07" class="st4 st22 st23">controls</tspan></text>
<g class="st24">
	<path class="st4" d="M270.71,338.69c6.81,12.53,2.18,28.2-10.35,35.01l-65.06,35.38c-12.53,6.81-28.21,2.18-35.02-10.35
		l-35.38-65.06c-6.81-12.53-2.18-28.21,10.35-35.02l65.06-35.38c12.53-6.81,28.2-2.18,35.02,10.35L270.71,338.69z"/>
	<g>
		<path class="st5" d="M191.91,291.66l-28.27,15.37c-12.54,6.82-17.17,22.5-10.35,35.04l15.37,28.27
			c6.81,12.53,22.5,17.17,35.03,10.35l28.27-15.37c12.53-6.81,17.17-22.5,10.35-35.03l-15.37-28.27
			C220.13,289.48,204.45,284.85,191.91,291.66z M233.77,331.42c5.51,10.13,1.76,22.8-8.36,28.31l-22.84,12.42
			c-10.13,5.51-22.8,1.77-28.31-8.37l-12.42-22.85c-5.5-10.12-1.76-22.8,8.37-28.31l22.84-12.42c10.13-5.51,22.8-1.75,28.31,8.37
			L233.77,331.42z"/>
		<path class="st5" d="M187.91,317.86c-10.2,5.55-13.98,18.31-8.43,28.51c5.54,10.2,18.31,13.97,28.51,8.43
			c10.2-5.55,13.97-18.31,8.43-28.51C210.88,316.08,198.11,312.31,187.91,317.86z M204,347.44c-6.14,3.34-13.82,1.07-17.16-5.07
			c-3.34-6.14-1.07-13.82,5.07-17.16c6.13-3.34,13.81-1.07,17.15,5.07C212.4,336.42,210.13,344.1,204,347.44z"/>
		<path class="st5" d="M211.14,303.56c1.48,2.72,0.47,6.14-2.26,7.62c-2.72,1.48-6.13,0.47-7.61-2.25
			c-1.48-2.72-0.48-6.14,2.24-7.62C206.24,299.83,209.66,300.84,211.14,303.56z"/>
	</g>
</g>
<circle class="st25" cx="276.52" cy="32.33" r="26.84"/>
<text transform="matrix(0.9956 -0.0933 0.0933 0.9956 256.0536 47.1364)" class="st26 st22 st27">20</text>
<circle class="st28" cx="222.76" cy="267" r="28.01"/>
<text transform="matrix(0.8525 -0.5228 0.5228 0.8525 211.4746 289.6353)" class="st29 st22 st30">12</text>
<circle class="st31" cx="92.28" cy="596.25" r="17.64"/>
<g>
	<path class="st32" d="M189,453.49c1.96,13.18-2.84,24.15-15.85,57.36c-22.59-28.36-29.92-37.07-31.88-50.25
		c-1.96-13.18,7.13-25.46,20.31-27.42C174.76,431.22,187.03,440.31,189,453.49z"/>
	<path class="st21" d="M180.8,456.11c1.27,8.54-1.84,15.66-10.27,37.18c-14.64-18.38-19.39-24.02-20.67-32.57
		c-1.27-8.54,4.62-16.5,13.16-17.78C171.57,441.67,179.53,447.56,180.8,456.11z"/>
</g>
<g>
	<path class="st32" d="M514.84,514.91c-4.52,12.54-13.95,19.92-41.16,42.98c-6.44-35.68-8.76-46.82-4.24-59.36
		c4.52-12.54,18.35-19.03,30.89-14.51C512.86,488.54,519.36,502.37,514.84,514.91z"/>
	<path class="st33" d="M506.38,513.33c-2.93,8.13-9.04,12.91-26.68,27.86c-4.17-23.13-5.68-30.35-2.75-38.47
		c2.93-8.13,11.89-12.34,20.02-9.41C505.1,496.24,509.31,505.2,506.38,513.33z"/>
</g>
<g>
	<path class="st32" d="M148.17,195.83c1.96,13.18-2.84,24.15-15.85,57.36c-22.59-28.36-29.92-37.07-31.88-50.25
		c-1.96-13.18,7.13-25.46,20.31-27.42C133.92,173.56,146.2,182.65,148.17,195.83z"/>
	<path class="st33" d="M139.97,198.45c1.27,8.54-1.84,15.66-10.27,37.18c-14.64-18.38-19.39-24.02-20.67-32.57
		c-1.27-8.54,4.62-16.5,13.16-17.78C130.74,184.01,138.7,189.9,139.97,198.45z"/>
</g>
<g>
	<path class="st34" d="M540.9,244.05c3.58,11.83,0.65,22.55-6.81,54.78c-24.56-22.98-32.46-29.98-36.04-41.82
		s3.11-24.33,14.94-27.91C524.83,225.52,537.32,232.21,540.9,244.05z"/>
	<path class="st35" d="M533.74,247.55c2.32,7.67,0.42,14.62-4.42,35.51c-15.92-14.9-21.04-19.43-23.36-27.1
		c-2.32-7.67,2.02-15.77,9.69-18.09C523.32,235.55,531.42,239.88,533.74,247.55z"/>
</g>
<g>
	<g>
		<path class="st1" d="M192.61,472.41c1.64,0.39,3.6,0.84,5.85,1.33"/>
		<path class="st36" d="M209.79,476.19c53.86,11.34,187.39,36.8,244.77,46.96"/>
		<path class="st1" d="M460.28,524.15c2.11,0.37,4.08,0.71,5.91,1.02"/>
	</g>
</g>
<g>
	<path class="st4" d="M525.36,188.98c-2.54,11.14-13.64,18.11-24.78,15.57l-57.88-13.22c-11.15-2.55-18.12-13.64-15.57-24.78
		l13.22-57.88c2.55-11.15,13.64-18.11,24.79-15.57L523,106.32c11.14,2.54,18.11,13.64,15.57,24.79L525.36,188.98z"/>
</g>
<g>
	<path id="XMLID_16_" class="st5" d="M507.39,167.54l0.01-0.01c-0.01-0.02-0.03-0.03-0.05-0.05c-0.01,0-0.01,0-0.01-0.01l0,0
		c-0.58-0.59-1.25-0.81-1.65-1.06c-0.01-0.01-0.02-0.01-0.03-0.02c-2.71-1.59-4.78-4.17-6.11-7.03c-0.74-1.59-1.29-3.27-1.52-4.97
		c0-0.01,0-0.01,0-0.02c-0.08-0.73,0.08-1.48,0.53-1.85c0,0,0.01-0.01,0.02-0.01c0.7-0.63,1.78-0.89,2.9-1.03c0,0,0.01,0,0.01,0
		c1.23-0.13,2.59-0.3,3.82-0.97c0,0,0.01-0.01,0.02-0.01c0.19-0.11,0.43-0.26,0.64-0.52c0.05-0.06,0.1-0.14,0.14-0.22
		c0.13-0.25,0.22-0.58,0.14-0.91c0,0,0-0.01,0-0.01c-0.16-0.67-0.6-1.1-0.94-1.42l0,0c-0.56-0.52-1.31-0.72-2.01-0.65c0,0,0,0,0,0
		c-0.01,0-0.01,0-0.02,0c-0.75,0.05-1.39,0.17-1.93,0.12c-0.01,0-0.03,0-0.04,0c-0.79-0.04-1.53-0.17-2.05-0.52
		c0.01-0.08,0.05-0.25,0.07-0.46l0,0c0.24-1.26,0.64-2.52,0.97-3.84c0,0,0,0,0-0.01c0.52-2.01,1.07-4.07,1.26-6.23
		c0-0.01,0-0.02,0-0.03c0.16-3.68-1.42-7.24-3.84-9.93c-1.75-1.95-4.05-3.33-6.52-4.14c0,0,0,0,0,0c-0.84-0.28-1.68-0.5-2.52-0.68
		c-3.42-0.76-7.15-0.67-10.41,0.87c-2.44,1.15-4.56,2.92-6.13,5.08c0,0,0,0.01-0.01,0.02c-1.54,2.24-2.05,4.89-2.48,7.36l0,0
		c-0.31,1.73-0.5,3.43-1.01,4.97c-0.03,0.06-0.03,0.07-0.05,0.11c-0.8-0.04-1.63-0.28-2.42-0.63c0,0-0.01,0-0.01,0
		c-0.55-0.23-1.1-0.6-1.74-0.94c-0.01-0.01-0.02-0.01-0.03-0.02c-0.63-0.31-1.33-0.26-1.91-0.01c-0.01,0-0.02,0-0.02,0.01
		c-0.01,0.01-0.03,0.01-0.04,0.02c-0.47,0.18-1.13,0.5-1.34,1.27c-0.01,0.04-0.02,0.09-0.02,0.14c0,0.01,0,0.01,0,0.02
		c-0.02,0.48,0.19,0.88,0.4,1.16c0.2,0.28,0.41,0.48,0.53,0.62c0.01,0.01,0.02,0.02,0.03,0.03c1.06,1.11,2.35,1.79,3.44,2.52
		c0,0,0,0,0,0c0.74,0.55,1.34,1.28,1.34,2.03c0,0.95-0.62,1.89-1.34,2.77l0,0.01c-1.95,2.35-4.48,4.19-7.32,5.32
		c-1.49,0.58-3.09,0.91-4.7,0.97c-0.02,0-0.04,0-0.07,0.01c-0.34,0.05-1.09-0.05-1.72,0.55c-0.04,0.04-0.08,0.09-0.11,0.14
		c-0.26,0.41-0.19,0.93-0.03,1.25c0.15,0.3,0.36,0.5,0.53,0.65c0.01,0.01,0.02,0.02,0.03,0.02c1.11,1.02,2.43,1.66,3.63,2.27
		c0.01,0,0.01,0.01,0.01,0.01c0.87,0.41,1.69,0.72,2.32,1.17c0.02,0.06,0.04,0.31,0.11,0.73c0.07,0.75-0.02,1.6,0.05,2.53
		c0.02,0.25,0.19,0.5,0.42,0.6c0.55,0.25,0.91,0.13,0.97,0.14c0.03,0,0.05,0.01,0.07,0.01c2.22,0.12,4.42,0.28,6.26,1.21
		c0,0,0,0,0,0c1.93,1,3.39,2.82,5.12,4.49c0.01,0,0.01,0.01,0.01,0.01l0,0c1.14,1.14,2.5,2.31,4.26,2.78l0,0c0,0,0.01,0,0.02,0
		c1.33,0.38,2.66,0.6,3.97,0.81c0.01,0,0.01,0,0.02,0c1.13,0.15,2.28,0.02,3.35-0.35c0.02,0,0.03-0.01,0.05-0.01
		c2.38-0.71,4.59-1.73,6.85-2.16c0.01,0,0.01,0,0.01,0c0.72-0.08,1.55,0.12,2.49,0.27c0.01,0,0.02,0,0.03,0.01
		c1.71,0.33,3.4,0.82,5.04,1.42c0.06,0.02,0.12,0.03,0.18,0.04c0.23,0.03,0.51-0.07,0.66-0.19c0.15-0.12,0.21-0.23,0.26-0.32
		c0.09-0.16,0.15-0.23,0.04-0.11c0.04-0.04,0.07-0.08,0.1-0.12c0.54-0.95,0.92-1.83,1.55-2.29c0.28-0.17,0.69-0.19,1.13-0.08
		c0.03,0.01,0.07,0.01,0.1,0.02c1.51,0.16,2.96-0.06,4.32-0.22c0.02,0,0.03-0.01,0.04-0.01c0.51-0.09,1.27-0.17,1.89-0.72
		c0,0,0.01,0,0.01-0.01l0-0.01C507.89,168.83,507.88,168.02,507.39,167.54z"/>
</g>
<circle class="st8" cx="541.85" cy="110.68" r="26.84"/>
<text transform="matrix(0.9678 0.2519 -0.2519 0.9678 526.9736 120.4963)" class="st4 st22 st27">5</text>
</svg>
