<?xml version="1.0" encoding="utf-8"?>
<!-- Generator: Adobe Illustrator 25.3.1, SVG Export Plug-In . SVG Version: 6.00 Build 0)  -->
<svg version="1.1" id="Layer_1" xmlns="http://www.w3.org/2000/svg" xmlns:xlink="http://www.w3.org/1999/xlink" x="0px" y="0px"
	 viewBox="0 0 985.8 716.2" style="enable-background:new 0 0 985.8 716.2;" xml:space="preserve">
<style type="text/css">
	.st0{fill:#CEEDCC;}
	.st1{fill:#CCE2EF;}
	.st2{opacity:5.000000e-02;fill:#444444;enable-background:new    ;}
	.st3{fill:#D37E37;}
	.st4{fill:#00B1AA;}
	.st5{fill:#BDA746;}
	.st6{fill:#C9C1BD;}
	.st7{fill:#F0E6E1;}
	.st8{fill:#108C85;}
	.st9{fill:#422645;}
	.st10{fill:none;stroke:#724422;stroke-miterlimit:10;}
	.st11{fill:#472516;}
	.st12{fill:#9A4545;}
	.st13{fill:#FDA589;}
	.st14{fill:#FFFFFF;}
	.st15{fill:#E52C2C;}
	.st16{fill:none;stroke:#F28561;stroke-miterlimit:10;}
	.st17{fill:none;stroke:#7A3939;stroke-miterlimit:10;}
	.st18{fill:none;stroke:#776868;stroke-miterlimit:10;}
	.st19{fill:none;stroke:#C9C1BD;stroke-miterlimit:10;}
	.st20{fill:none;stroke:#DBD4D1;stroke-miterlimit:10;}
	.st21{fill:none;stroke:#F28561;stroke-linecap:round;stroke-miterlimit:10;}
	.st22{fill:none;stroke:#108C85;stroke-linecap:round;stroke-miterlimit:10;}
</style>
<g id="Layer_6">
	<path class="st0" d="M768.5,139c-11.1-5.9-22.2-11.8-33.6-16.9c-87.9-39.3-198.2-39-293.9-28c-52,6-95.1,21.1-144.7,37.9
		c-26.8,9.1-53.3,21.5-72.9,42c-22.6,23.6-33.9,55.1-42.9,85.9c-7.3,24.9-23.1,37.4-43.3,53.2c-43,33.3-80.7,65.9-105.4,115.6
		c-0.6,1.3-1.3,2.6-1.9,3.8C-10.4,516.9,46,615.3,138.6,623.1C327.8,638.9,879.2,674.5,877,553c0-0.3,0-0.5,0-0.8c0-0.1,0-0.3,0-0.4
		c0-0.1,0-0.2,0-0.4c0-0.3,0-0.6-0.1-0.9c0-0.1,0-0.2,0-0.3c0-0.2,0-0.4,0-0.6c0-0.3-0.1-0.5-0.1-0.8v-0.4c-0.1-0.4-0.1-0.8-0.2-1.3
		c0-0.1,0-0.1,0-0.2c-0.4-2.6-1.1-5.3-2-8c-8.7-26.2-64.4-32.1-48.2-99.4c10.2-42.4,55.8-52.4,88.6-85.1
		c22.7-22.5,32.9-52.4,34.8-83.9c0.9-15.7-9.4-63.3-42.8-81.7c-23.7-13.1-51.7-15.1-77.8-22.7C807.8,159.9,788.2,149.4,768.5,139z"
		/>
	<path class="st1" d="M240.1,96.4"/>
	<path class="st2" d="M527.1,355.4c3.6-12.2-8.3-23.3-19.7-28.9C471,308.6,425,312,391.5,335c-15.7,10.8-31.8,26.4-50.6,23.1
		c-21.4-3.8-30.4-29.2-33.8-50.6c-3.7-22.9-5.6-46.4-1.5-69.2c4-21.9,12.8-42.8,10.1-65.5c-1.6-13.7-6.5-30.8-15.6-43.4
		c-2,0.7-4,1.3-6,2c-26.8,9.1-53.3,21.5-72.9,42c-22.6,23.6-33.9,55.1-42.9,85.9c-5.7,19.3-16.5,31.2-30.4,42.9
		c-7.2,88.1-5.1,177.1,1.6,265.3c1.4,19,3.8,39.3,10.7,56.9c48.8,3.9,114.3,8.4,185.9,11.5c1.8-6.1,2.6-12.5,2.6-18.8
		c-0.1-16.3-5.5-32.2-13.1-46.6c-7.7-14.5-17.6-27.8-24.4-42.7s-10.4-32.3-4.7-47.7c3.3-8.8,9.3-16.2,15.2-23.4
		c21.9-26.7,44.8-54.2,75.9-69.2c29.9-14.4,64.2-15.7,97.4-16.8C507.6,370.3,523.5,367.6,527.1,355.4z"/>
	<path class="st2" d="M671.8,591.4c-7.1,13.6-11.7,28.5-13.3,43.7c67.6-4.9,126.3-14,165.7-29.5c14.9-28.3,24.2-59.4,27.5-91.2
		c-17.5-14.3-37-32.1-26.5-75.5c2.8-11.5,8.1-20.6,15.1-28.4c-9.8-29.7-25.2-57.6-45.2-81.6c-11.9-14.3-25.9-28.3-29.6-46.5
		c-3.7-17.9,6.8-33.3,6-50c-0.6-11.7-4.3-26.5-12.1-35.4c-8.4-9.4-19.3-16.5-31.1-20.9c-18.2-6.7-38.2-7.3-57.3-3.9
		c-5.9,1-11.9,2.5-16.6,6.1c-3.4,2.6-5.9,6.1-8.2,9.7c-18.8,29.3-25.4,68.3-9.3,99.1c10.4,20,30.1,37.5,28.8,60
		c-1.2,21.1-20.4,36-36.7,49.5c-37.8,31.4-70.1,75.7-68.5,124.8c0.4,12.7,4.6,27.2,16.3,32.1c13.4,5.6,28.2-4.7,37.1-16.1
		c20.4-26.2,27.6-60.2,43.9-89.1c10.7-18.9,25.3-35.5,42.7-48.5c3.7-2.7,8.2-5.4,12.6-4.2c4.5,1.3,6.8,6.2,8.5,10.7
		c12.2,33.1,17.6,70.6,4.4,103.3C713.7,540.2,687,562.5,671.8,591.4z"/>
	<path class="st2" d="M455.1,461c-10.2,4.9-19,13.1-23,23.7c-3.1,8.1-3.1,17-3.1,25.7c0,3.9,0,7.9,1.8,11.4c2.2,4.3,6.6,7,11.1,8.9
		c12.2,5.3,26.2,6.3,39.1,3c15.2-3.9,29.4-15.1,33.1-30.3c1.7-7,1.1-14.4,0.1-21.6c-1-7-2.4-14.1-6.4-20
		C497.1,445.9,469.3,454.2,455.1,461z"/>
</g>
<g id="Layer_4">
	<path class="st3" d="M116.6,657.2c0,0-41.6-60.6-36.3-138s179.2-9.3,179.2-9.3s34.5,55.3,29.2,100s-71.2,27.9-71.2,27.9
		s-4.9-51.3-18.6-59.7c-13.7-8.4,8,56.6,8,56.6s-32.3-8.4-53.5,1.3C132.1,645.7,132.9,649.7,116.6,657.2z"/>
	<path class="st4" d="M102.9,294.9c12.7-15.8,55.3-45.6,77-48.7s85.8,10.6,96,24.3c10.2,13.7,21.2,19.9,24.8,34.5
		c3.5,14.6,11.1,61.5,11.1,61.5s-29.4,4.6-34,7.9c1.2,8.1,0.3,13.4-8.1,25.8s-3.5,35.8-2.2,43.8s7.5,62.8-1.8,72.6
		c-9.3,9.7-54.9,19-67.7,19s-48.2-15.9-68.6-14.2s-50.9,8.8-50.9,8.8s-7.1-91.1,3.1-132.7S94,306,102.9,294.9z"/>
	<path class="st5" d="M713.8,633.3c0.4-1.3,28.8-100.9,68.1-134.5c39.4-33.6,117.2,10.2,117.2,10.2s3.2,79.4-15.5,125.2
		c-8.8,21.7-31.9-0.9-44.7-6.2s-23.9,3.1-23.9,3.1s8.8-40.3,7.5-40.7s-19.4-3-30.1,40.7c-5.3,21.7-32.3,2.2-49.5-0.9
		C725.7,627.2,713.8,633.3,713.8,633.3z"/>
	<path class="st6" d="M717.8,415.9c-0.3,0.7-29-32.3-29.4-36.5s35.8-39.4,52.4-47.8c16.6-8.4,10.2,57.7,10.2,57.7
		S720.7,408.8,717.8,415.9z"/>
	<path class="st7" d="M772.6,437.8c8.4,17.3,7.1,24.3,6.6,33.6c-0.4,9.3-4.9,31-4.9,31s8-0.9,19,7.5c11.1,8.4,8,18.6,30.1,18.6
		s44.7-14.6,56.2-15.9c11.5-1.3,21.2,1.8,21.2,1.8s-1.8-52.2-16.4-87.6S864,377.3,864,377.3s-16.8-50.4-36.3-55.3
		s-76.5-1.3-87.2,9.7c-10.6,11.1-11.9,11.9-11.9,23.9C728.8,367.5,772.6,437.8,772.6,437.8z"/>
	<path class="st6" d="M878.8,388.3c0-0.7-27.2-20.6-39.4-17.9s-30.3-26.8-24.1-37.2c6.2-10.4,7.8-10.2,23-10.2
		c1.1,0,46.9,11.3,52.4,19C896.3,349.8,878.8,388.3,878.8,388.3z"/>
	<path class="st8" d="M180.9,236.2c-2.3,4.5-5.8,21.1-5,35.8c0.8,14.8,4.8,25.1,4.8,25.1s22.2-19.1,29.7-17.9s-3.3-24.1-3.3-24.1
		s-4-22.4-8.6-23.2C193.8,231.1,180.9,236.2,180.9,236.2z"/>
	<path class="st8" d="M268.8,297.6c-0.3-0.5-16.8-13.4-22.9-12.6c-6.1,0.8,0.7-24.4,0.7-24.4l1-9.6c0,0,14.9-0.2,17.4,4.3
		C267.5,259.8,271.8,264.1,268.8,297.6z"/>
	<ellipse class="st9" cx="210" cy="298.5" rx="4.2" ry="4.1"/>
	<ellipse class="st9" cx="216.2" cy="315.5" rx="3.6" ry="4.1"/>
	<path class="st10" d="M205.2,535c2.2,5.2,2.1,11.1,2,16.7c-0.1,3.8-0.2,7.6-1.1,11.3c-1.4,5.3-4.5,10-7.6,14.6"/>
	<path class="st10" d="M229.8,574.7c3.1-4,7.6-6.8,12.3-8.7c8.1-3.4,17-4.7,25.7-3.8"/>
	<path class="st10" d="M241.7,577.8c10.9-4.8,22.9-6.8,34.8-5.9"/>
	<path class="st10" d="M219.1,534c0.1,3.4,0.3,6.7,0.4,10.1c0.1,3.1,0.2,6.4-1.1,9.3c-2.1,4.5-7.2,6.7-12.1,7.5"/>
	<path class="st10" d="M206.1,584c3.6-4.3,8.4-7.5,13.7-9.2"/>
	<path class="st10" d="M209.4,589.5c2.8-2.4,6.4-4,10.1-4.4"/>
	<path class="st10" d="M129.1,558.8c20.9-3.6,43.2,2.1,59.9,15.2"/>
	<path class="st10" d="M145.1,550c9.6-1.2,19.4,0.3,28.2,4.3s16.5,10.3,21.9,18.3"/>
	<path class="st10" d="M96.6,527.7c-0.4,7.4,0.1,14.9,1.4,22.2c1.9,10.2,5.3,20,8.9,29.7c8.3,22.6,17,45.2,28.5,66.4"/>
	<path class="st10" d="M122.2,522.5c5.6,9.4,6,21.7,1.2,31.5c-1.6,3.3-3.7,6.2-5.9,9.2c-1.2,1.6-2.5,3.3-4.2,4.4
		c-2,1.3-4.4,1.8-6.1,3.4"/>
	<path class="st10" d="M125.5,522.6c1.6,2.2,2.4,5,2.9,7.7c1.4,7.7,1.1,15.9-1.5,23.3c-2.6,7.4-7.6,14.1-14.3,18.2
		c-1.9,1.2-4.1,2.2-5.6,3.8"/>
	<path class="st10" d="M825.7,529.8c-2.2,19.8-3.9,39.6-5.2,59.5"/>
	<path class="st10" d="M839.4,575.8c6.8,0.4,13.7-0.8,20.4,0.6c4,0.8,7.7,2.4,11.4,4.1"/>
	<path class="st10" d="M843.6,572c5.8-0.3,11.6-0.2,17.3,0.2c2.2,0.2,4.5,0.4,6.6,1.1c1.2,0.4,2.4,0.9,3.4,1.5"/>
	<path class="st10" d="M879.3,515.2c-2.1,4.2-4.3,8.5-5,13.2s0.3,9.9,3.7,13.1c3.3,3.1,8.2,3.9,12.2,6c0.4,0.2,0.7,0.4,1,0.8
		c0.3,0.5,0.2,1.1,0.1,1.7c-2.9,15.3-3.2,31.1-5.1,46.6c-0.7,5.7-1.6,11.4-2.6,17.1c-0.8,4.7-1.5,9.4-2.9,14
		c-2.1,6.9-5.6,13.4-10.2,18.9"/>
	<path class="st10" d="M785.2,566.2c12.5,5,25,10.1,36,17.7"/>
	<path class="st10" d="M748.1,555.5c5,0.4,9.9,1.7,14.4,3.9"/>
	<path class="st10" d="M741.9,562.9c6.7,0.2,13.4,2.3,19,5.8"/>
	<path class="st10" d="M790.1,577c10.8,2,21.2,6.6,30,13.3"/>
	<path class="st10" d="M817,527.4c-1.1,6.6-2.1,13.2-3.1,19.9c-0.3,2-0.6,4-0.1,6c0.5,1.8,1.6,3.3,2.9,4.6c1.7,1.8,3.6,3.3,5.7,4.6"
		/>
	<path class="st10" d="M885,512.2c-2.9,4.7-5.1,9.9-6.6,15.2c-0.8,3-1.4,6.3,0,9c0.7,1.5,2,2.6,3.3,3.6c4.8,3.7,10.8,5.8,16.9,6"/>
</g>
<g id="Layer_3">
	<path class="st11" d="M195.6,126.6c9-13.9,22.9-11.9,27.2-13.6s16.9-8,27.5-5.6c10.6,2.4,25.9,10.9,25.2,25.5
		c8,3.3,13.9,6.6,15.3,13.3s7.9,19-8.6,26.2c-3.9,1.7-51.9,41.8-79.3,44.1c-8,0.7-16.3-15.9-12.9-21.9c-10-9-12.2-23.9-0.3-38.5
		C189,143.8,186.7,140.5,195.6,126.6z"/>
	<path class="st12" d="M677.3,252.3c-2.2-14.3,8.6-18.7,8.6-18.7s-2.7-7.3,2.3-11.3s9.8-1.5,9.8-1.5s-2-14.4,5.1-18.1
		c7.1-3.6,10,2.2,10,2.2s6.3-14.3,18.6-11.9c12.3,2.3,16.9,13.9,21.9,15.1c5,1.2,23.6-4,30.5,3.3c8.3,9.1-0.7,15.9,0,20.6
		c0.7,4.6,16.3,14.9,15.8,21.9c-0.5,7-7.8,21.9-16.9,20.7s-78,2.2-78,2.2l-13.1-3.8C691.8,272.9,679.4,266.4,677.3,252.3z"/>
	<path class="st13" d="M192.2,183.5c-4.2,3.2-4.5,13.6-1,16.6s7.5,5,9.1,4.5c1.7-0.5-1.8,21.9-3,24.7s-2.5,31,0.3,35.9
		c2.8,4.9,20.2,20.8,21.7,24.1s9.3,14.6,9.1,18.7s17.9-21.4,18.7-23.4s5.1-23.9,4.8-25.9s33.3-51.3,34-53.1s-1.2-16.1,0.8-22.2
		c2-6.1-3.6-30.5-11.6-36c-7.1,3.8-45,10.9-49.9,4.8c-0.3,11.6-6.1,20.1-11.6,26c-2.2,8.3-1.8,13.1-1.8,13.1l-9.6-4.5
		C202.3,187,198.3,178.8,192.2,183.5z"/>
	<path class="st13" d="M116.2,402.3c0,0,29.5-18.2,54.6-17.6c4,18.2,5,21.9,5,21.9s78.6,6.3,82.8,4.6c0.2-1.7,5.5-13.3,16.1-19.6
		c11.4-6.8,30.4-4,32.7-2.8s6.3,7.8,1.8,8.3s-15.3-1.5-18.2,2c-3,3.5-4.5,7.1,1.3,8.3c5.8,1.2,9,6.1,29.4,5.8
		c20.4-0.3,21.4-2.2,23.6-0.2s0.8,3.8,0.8,3.8s5,1.2,3.8,4.3s-5,4.6-5,4.6s-3.2,9.8-10.6,10.9c0.2,0-5.6,10-18.2,10.3
		s-39.2-1.2-51.4-9.5c-49.1,25.1-102,14.4-109.8,10.9C146.9,445.1,120.8,416.7,116.2,402.3z"/>
	<path class="st13" d="M277.7,374.4c0,0,22.3-7.4,28.2-6.5c3.1,5.9,12.3,32.1,14,33.4c1.8,1.3,4-3.8,10.9-6.2
		c7-2.4,58.8-30.5,59.5-31.5s2.5-26.3,6.3-32.2c3.8-5.9,16.1-11.5,26.5-11.1s22.7,1.8,23.3,7.2c0.7,5.4-4.2,4.3-5.1,4.3
		s-16.5,3.1-16.8,3.5s0.9,3.9,7.6,4s12.1,0.8,13.7,0.4c1.7-0.3,16-2.1,19.2-3s9.7-2.3,11.5-0.6c1.8,1.8,4.3,4.9,1,6.1
		c0.6-0.1,6.7-1.8,7.7,0.9c1,2.7,0.2,7.6-4.9,8.7c0.3,0.2,3.6,1.2,3.3,4.8c-0.3,3.5-4.8,6.7-7.7,7.5c6.2,2.1,0.8,7.2-3.3,9.5
		c-4.1,2.3-36.8,19.5-75.4,12.8c-19.7,25.3-45,56.5-50.7,61.6s-30.7,17.7-39.3,16.5c-8.5-1.2-40.5-44.4-39.4-59.4
		C275.5,391.4,277,385.8,277.7,374.4z"/>
	<path class="st13" d="M700.1,234.3c0,0-15.9,16.8-5.1,55.3c7.5,29.9,29.9,40.5,29.9,40.5s15.3,3.1,24.8-8.2
		c0.2-0.2,1.3,6.6,7.7,9.3c6.4,2.7,33.8,11.5,53.5-9.1c-2.7-1.8-12.6-2.7-23.4-8.8c-13.9-12.4-11.3-26.3-11.3-26.3
		s10.8,0.7,8.4-19.5c-6.4-15-16.4-4.2-16.4-4.2s-3.1,4-7.3,4.4s-5.3-2.9-8.2-2.7s-3.1,2.9-7.1,1.1s-5.1-9.1-9.3-10.8
		c-4.2-1.8-13.1,1.5-15.3-2.4s-5.1-13.7-10.8-16.6C704.5,233.4,700.1,234.3,700.1,234.3z"/>
	<path class="st13" d="M688.4,379.4c0,0-46.7,49.3-54,112.8c0,0-18.8,16.4-23.2,31c-4.4,14.6-6.4,33.2-1.8,38.3
		c4.6,5.1,4.6-4.2,4.6-4.2s0.4,10,4.2,7.3s1.8-12.2,2.7-16.8s3.5-12.4,4.9-12.8c1.3-0.4-0.2,8.4-0.4,12.8s0.4,13.1,5.1,15.9
		c4.6,2.9,3.3-0.7,2.7-6c-0.7-5.3-0.9-17.7,1.5-22.3s3.8-8.8,8-8.2c4.2,0.7,8,3.1,6.6,8c-1.3,4.9-2.2,5.8,0.7,8s6-0.7,6.6-9.5
		c0.7-8.8,3.8-15.5-9.7-30.1c1.3-12.8,27.6-54,29.9-57.3s34.1-37.8,34.1-37.8L688.4,379.4z"/>
	<path class="st13" d="M881.9,376.5c-0.7-0.2,8.8-34.5,8.8-34.5s27,17.5,32.1,32.3s21,48.4,16.4,65.5c11.9,11.3,12.2,17.7,10.8,29.2
		c-1.3,11.5-0.9,16.4-4.6,17.5s-16.1-0.2-16.1-0.2s-1.5,10.6-7.7,9.7s-13.7-7.5-11.3-16.8c-1.3-3.1-10.8,1.3-10-13.5
		c0.9-14.8,10-22.1,19-23.4c0-21-8.2-33.8-11.5-40.3C904.5,395.6,887.9,378.5,881.9,376.5z"/>
	<path class="st11" d="M200.6,180.7c0,0,2.2,26.9,2,29.9s-0.8,11.4,1.2,16.4s6.1,8.5,11.1,11.3s26.4,15.4,29.9,16.9
		s9.8,5.5,16.3,4.5s12.8-5.5,14.4-15.8c1.7-10.3-40.3-20.2-40.3-20.2s-21.2-7.1-22.4-19.7c-1.2-12.6-1.7-18.7,0.3-24.2
		s-5.8-10-5.8-10L200.6,180.7z"/>
	<path class="st11" d="M235,167.2c-3.1,3.1,2.5,6,4,6.3s7.6,1,10,2c2.3,1,4.6,5,6.5,4.6c1.8-0.3,4.3-3.5,1.8-5.3s-7.3-5.6-10.8-6.3
		C242.9,167.9,235.8,166.4,235,167.2z"/>
	<path class="st11" d="M280.1,174.9c4-0.2,7.5,0.2,7.8,2.2s1.5,7.5-1,6.5s-4.6-2.3-6.8-2.5s-7.5,1-7.8,1.8s-0.3-3.6,1.5-5.1
		S280.1,174.9,280.1,174.9z"/>
	<path class="st12" d="M717.1,263.1c0,0,6.5-8.5,11.6-10.1c5.1-1.7,7,3.5,7,3.5s-12.4,5.6-14.3,8.8
		C719.6,268.4,717.1,263.1,717.1,263.1z"/>
	<path class="st12" d="M687.9,262.5c0.5,0,11.6,2.8,11.8,4.8s-1.3,3.3-3.3,2s-7.6-1.7-7.6-1.7L687.9,262.5z"/>
	<ellipse class="st9" cx="246.1" cy="189.4" rx="3.2" ry="5"/>
	<ellipse class="st9" cx="277.9" cy="190.5" rx="3.2" ry="5"/>
	<ellipse class="st9" cx="725" cy="273.1" rx="2.8" ry="5"/>
	<ellipse class="st9" cx="698.3" cy="277.1" rx="2.5" ry="4.6"/>
	<path class="st14" d="M716.2,310.2c-0.9-4.4,1-5,3-6.3s15.6-1.3,18.1-0.3s6,2.8,5,4.6c-1,1.8-3.5,2.2-6.1,2.2c-2.7,0-8-0.8-10.5,1
		s-4.1,4-5.8,3.2S716.6,311.9,716.2,310.2z"/>
	<path class="st14" d="M199,183c0,0,1.5-1.7,4.8-1.5s29.7,14.3,32.7,14.9c3,0.7,13.3,2.2,18.6,1.3c5.3-0.8,10-4.3,14.1-4.3
		s5,1.8,6.5,3s10,4.8,10.8,5.6s-0.2,31.2-10.9,41.8c-10.8,10.6-43.1-4-44.3-13.4c-9.6-6.1-30-19.1-31.9-25.7
		c2.2-0.2,2.8-0.3,2.8-0.3s21.1,19.9,30.9,20.1c5.1-3.5,1-24.9,0.5-24.9C233,199.6,199,183,199,183z"/>
	<path class="st14" d="M451.5,486.7c-0.6-1.2,1.3-5.1,5.1-8.6c3.8-3.5,5.6-1.7,10.5-9c4.8-7.3,14.6-22.9,26.5-25.5
		c13.6,3,23.9,20.4,28.4,20.6c-1.2,9.8-16.8,24.6-20.1,30.4c-3.3,5.8-7,12.9-6,16.4S455.4,494.7,451.5,486.7z"/>
	<path class="st14" d="M494.1,445.8c0,0-0.7-25.7,13.8-28c14.4-2.3,17.6,3.3,18.1,6.8s-4.5,9.6-4.3,16.1s3.2,10.3,3.3,15.1
		c0.2,4.8-2.5,9.6-2.5,9.6l-3.3-1.3c0,0,2.5-2.3,1.5-8.6c-1-6.3-5-9.6-3.5-14.6s6.6-11.6,5-14.9c-1.7-3.3-7.6-8.1-12.8-5.3
		c-5.1,2.8-10.5,9-11.3,14.4c-0.8,5.5,0.5,13.6,0.2,13.1C497.9,447.6,494.1,445.8,494.1,445.8z"/>
	<path class="st14" d="M464.7,477.3c0,0-3.2-20.4-7.6-23.4c-4.5-3-6.6-4.5-6.6-4.5s-7.1,2.7-6.5,9.6c0.7,7-0.7,16.1,9.6,22.7
		c10.3,6.6-2.2,3.8-2.2,3.8s-13.1-8.5-13.4-18.7c-0.3-10.3,1-17.3,7.8-19.4c6.8-2.2,12.8-1.5,15.9,2.8c3.2,4.3,7.5,9.6,6.5,17.6
		C467.2,475.8,464.7,477.3,464.7,477.3z"/>
	<ellipse class="st14" cx="604.5" cy="199.5" rx="59.6" ry="53.5"/>
	<path class="st14" d="M665.1,277.9c-1-0.3-52.1-37.8-52.1-37.8l17.6-6L665.1,277.9z"/>
	<path class="st15" d="M577.9,191.9c0.3-1.3,5-15.3,5-15.3l45.8,36.2l-7.6,9L577.9,191.9z"/>
	<polygon class="st15" points="583.2,219.8 615.4,169.7 627.6,180.3 594.5,227.8 	"/>
	<path class="st16" d="M709.9,270.6c-3.4,6.2-5.1,13.2-5.1,20.2c0,2.4,0.5,5.3,2.6,6.4c1.1,0.6,2.3,0.6,3.5,0.6c1.5,0,3-0.1,4.3-0.7
		"/>
	<path class="st16" d="M777.2,275.3c-0.9-1.2-2.4-1.7-3.9-1.6s-2.8,0.9-3.9,1.9c-0.6-1.2-0.3-2.6,0.1-3.8c0.5-1.8,1.1-3.6,2.1-5.1
		c1.1-1.5,2.8-2.7,4.6-2.7c2.4,0,4.6,2.3,4.5,4.8"/>
	<path class="st16" d="M745.1,325.7c4.3-3.8,8.6-7.5,12.8-11.3c0.6-0.6,1.3-1.1,1.8-1.8c0.4-0.5,0.7-1.1,1.1-1.7
		c0.6-0.8,1.2-1.6,1.9-2.4c2.4-3.1,3.4-7,3.9-10.9c0.5-3.8,0.7-7.8,1.7-11.5c3,1,6.2,0.9,9.2-0.1"/>
	<path class="st16" d="M711.1,262.8c0.4-3.1,1-6.2,1.7-9.3"/>
	<path class="st16" d="M707.1,264c-0.7-2.2-1-4.6-0.9-7"/>
	<path class="st16" d="M614,557.8c-0.1-9.2,1.5-18.7,6.2-26.6"/>
	<path class="st16" d="M607.1,555.1c0.1-9,2.3-17.9,6.4-25.9"/>
	<path class="st16" d="M914.7,469c0.6,0.8,0.8,2,0.8,3c0.2,5.5-1.4,11.2,0.2,16.4"/>
	<path class="st16" d="M907.1,477.4c1.5,0.6,3.3,0.6,4.8,0c0.4-0.2,0.9-0.4,1.3-0.6c0.4-0.2,0.8-0.4,1.2-0.8
		c0.3-0.3,0.6-0.8,0.6-1.2"/>
	<path class="st16" d="M911.5,483.3c1-0.8,2.2-1.2,3.4-1.2"/>
	<path class="st16" d="M929.1,486.3c0.5-1.9,0.6-3.9,0.2-5.8"/>
	<path class="st16" d="M934.5,486.9c1.4-1.5,2.1-3.6,1.9-5.7"/>
	<path class="st16" d="M943.3,486.8c0.5-1.8,0.6-3.7,0.4-5.5"/>
	<path class="st16" d="M913,469.7c1.9-0.6,3.6-1.7,4.9-3.2"/>
	<path class="st17" d="M706.3,225.8c5.9-4.3,15.1-2.9,19.5,2.9c3.1,4.1,3.7,9.5,5.7,14.3c0.6,1.3,1.3,2.7,2.5,3.5
		c1.1,0.8,2.5,1,3.9,1c2.5,0,4.8-0.7,7.3-1c2.4-0.3,5.1-0.1,7,1.4c2.8,2.2,3.1,6.4,5.3,9.2c1.1,1.3,2.6,2.3,4.3,2.5s3.5-0.6,4.4-2"
		/>
	<path class="st17" d="M713.3,217.6c2.7-2.8,6.9-3.8,10.6-2.8s6.8,3.9,8.3,7.4c1.1,2.7,1.4,5.8,3.1,8.2c1.8,2.5,4.9,3.9,8,4.2
		s6.2-0.4,9.2-1.3c1.2-0.3,2.4-0.7,3.6-0.6c2,0.2,3.5,1.7,4.8,3.2s2.6,3.2,4.4,3.9c1.9,0.7,4.5-0.1,4.8-2.1"/>
	<path class="st17" d="M721.9,209.3c2.4-1.6,5-3.2,7.9-3s5.3,2.3,7,4.6s3,4.9,5,7.1c0.7,0.7,1.4,1.4,2.4,1.8
		c1.9,0.6,3.9-0.3,5.9-0.2c2.7,0.1,4.9,2,7.2,3.3s5.7,1.8,7.3-0.3"/>
	<path class="st17" d="M693,235.2c-1.7-0.4-3.6,0.7-4.5,2.2s-1.2,3.4-1.4,5.2c-0.1,0.5-0.1,1,0.1,1.5c0.2,0.4,0.6,0.8,0.9,1.1
		c0.9,1.2,0.5,3-0.4,4.2c-1,1.2-2.4,1.8-3.8,2.4"/>
	<path class="st18" d="M231.8,144.2c6.8-0.4,13.6-1.4,20.2-3.1c4.9-1.2,9.9-2.9,13.5-6.5"/>
	<path class="st18" d="M245.4,133.1c5.3,0.8,10.9-0.2,15.6-2.7c0.7-0.4,1.4-0.8,1.8-1.4"/>
	<path class="st18" d="M217.2,153.7c-4-1.6-8.5,0-12.5,1.5c-3.6,1.4-7.3,2.8-10.5,4.9"/>
	<path class="st18" d="M215.7,160.5c-5.1-0.8-10.5,0.6-14.6,3.8"/>
	<path class="st18" d="M215.1,166c-2-0.3-4,0.2-5.7,1.2c-1.7,0.9-3.3,2.3-4.7,3.6"/>
	<path class="st19" d="M750.7,331.1c4.5,6,12.6,8,20.1,8.3c14.5,0.4,29.1-4.5,40.4-13.7"/>
	<path class="st19" d="M776.2,414.8c21.5-4.7,44.2-8,65.4-2.2"/>
	<path class="st19" d="M795,417.4c14.6-1.1,29.2-1,43.8,0.3"/>
	<path class="st19" d="M795,499.7c3.3,0,6.2,2.2,8.4,4.6s4.1,5.2,6.7,7.3c6.3,5,15.3,4.6,23.2,3.1c10.2-1.9,20.2-5,29.7-9.3
		c6-2.7,12-5.8,18.5-5.9"/>
	<path class="st20" d="M839.4,505.5c16.9-1.1,31.7-12.2,48.5-14.9"/>
	<path class="st20" d="M461.1,464c0.6,6.7,3.3,13.2,7.8,18.3c1.9,2.1,4.1,4,6.1,6.1c4.1,4.2,7.5,9.1,10,14.5c0.8,1.8,1.6,3.8,1,5.7"
		/>
	<path class="st20" d="M467.1,460.5c0.9,5.8,1.8,11.7,4.6,16.8c3.1,5.8,8.4,10.1,12.9,14.9s8.7,10.7,8.6,17.3"/>
	<path class="st20" d="M456,485.8c3-3.4,6.1-6.8,9.1-10.1"/>
	<path class="st20" d="M469.5,471.2c6.7-10.3,15.6-19.2,25.9-25.8c7.4,8.1,15.5,15.4,24.3,21.9c-1.2,2.1-3,3.8-4.8,5.6
		c-9.4,9.5-17,20.8-22.3,33"/>
	<path class="st20" d="M456.9,484.8c2.4,1.6,4.6,3.5,6.8,5.3c6.6,5.3,14,9.7,21.7,13"/>
	<path class="st20" d="M285.6,204.9c-5.4-1.2-9.1-6.7-14.5-7.7c-4.1-0.8-8.2,1.1-12.1,2.4c-7,2.2-14.4,2-21.5,0.3
		c1.9,8.2,1.5,17-1.3,24.9c-0.8,2.1-1.7,4.2-2.3,6.4c3.2,5.6,9.4,9.2,15.6,11c6.2,1.7,12.7,1.8,19.1,1.8c2.6,0,5.3,0,7.6-1.2"/>
</g>
<g id="Layer_5">
	<path class="st16" d="M271.9,183c-0.9,3.4-0.7,7.1,0.5,10.4"/>
	<path class="st16" d="M232.3,187.4c1.6-0.1,3.3-0.1,4.9,0.1"/>
	<path class="st16" d="M232.4,191.7c1.9-0.3,3.7-0.6,5.6-1"/>
	<path class="st21" d="M259.3,164.8c2.6,3.5,3.5,8.2,2.6,12.4"/>
	<path class="st21" d="M271.6,172.1c-0.8,1.1-1.1,2.6-0.8,4"/>
	<path class="st21" d="M269.4,395.3c7.3-7.5,18.6-9.6,29.1-9.1c2.9,0.1,5.8,0.5,8.4,1.8s4.7,3.9,4.7,6.8c0,0.3,0,0.7-0.3,1
		s-0.8,0.3-1.2,0.4c-6.8,0.1-14.4-0.1-19.6,4.4c-1,0.9-1.8,2-1.8,3.3c0.1,1.8,2,3,3.6,3.8c3.4,1.6,6.9,3.1,10.6,3.9
		c3.2,0.7,6.5,0.9,9.8,1.1c9,0.6,18.2,1.2,27.1,0c1.5-0.2,3.1-0.4,4.5,0s2.7,1.8,2.5,3.3c-0.2,1.3-8.2,4.4-8.8,4.8
		c-0.6,0.4-15.9,4.4-30.3,3.4c0.5-0.1,1-0.2,1.5-0.3"/>
	<path class="st21" d="M282.3,444.4c5.7,1.8,11.7,1.9,17.6,2c5.3,0.1,10.6,0.1,15.9-0.8c5.2-1,10.3-3.1,14.1-6.8"/>
	<path class="st21" d="M305.6,430.5c2.1,1.2,4.5,1.5,6.9,1.6c7,0.3,13.9-1.1,20.6-3c4.3-1.3,13-2.3,15.1-7.1c1-2.4-0.1-5.7-2.7-6.2"
		/>
	<path class="st21" d="M302.8,438.5c7.5,0.4,15.1,0.1,22.6-0.8c2-0.3,4.1-0.6,6-1.3c4.3-1.6,7.8-5.2,9.3-9.5"/>
	<path class="st21" d="M412.5,359.4c4.6-1.9,8.8-5.2,11.2-9.7c2.4-4.4,2.8-10,0.4-14.5"/>
	<path class="st21" d="M448.4,369.5c2.5,0.2,5-0.4,7.4-1c4.5-1.1,9.1-2.2,13.6-3.3c1.8-0.4,3.6-0.9,5-2.1"/>
	<path class="st21" d="M449.2,356.9c11,0.4,21.7-2.6,32.3-5.5"/>
	<path class="st21" d="M447.9,349c10.5-1.8,20.8-4.4,30.8-7.9"/>
	<path class="st21" d="M447.1,344.9c1.7,1.6,2.2,4,2.7,6.3c0.6,3,1.2,6,1.3,9.1c0.2,6.8-2.3,13.6-6.8,18.7"/>
	<path class="st21" d="M192.5,194.7c0.4-1.8,0.8-3.7,1.8-5.3c0.4-0.7,1.1-1.4,1.9-1.4c0.9,0,1.6,0.7,2.1,1.4
		c1.3,1.9,1.9,4.3,1.8,6.6c-2-1.4-5.2-0.6-6.4,1.5"/>
	<path class="st22" d="M237.7,298.4c-3,5.6-8.1,9.9-10.8,15.6s-2.7,12.2-2.6,18.5c4.4-1.5,9-2.2,13.6-2.1c0.4-8.8,2-17.5,4.7-25.8"
		/>
	<path class="st22" d="M270.2,305.9c7.4,14.4,8.1,31.2,8.3,47.4c0.1,9.3,0,19-4.4,27.3"/>
	<path class="st22" d="M137.4,297.9c13.6,22.8,24.1,47.5,31.2,73.1c1.3,4.7,2.5,9.5,2.3,14.4"/>
	<path class="st22" d="M278.1,308.7c1.2,6.5,0.7,13.2-1.4,19.5"/>
	<path class="st22" d="M152.9,306.6c0.7,8.4,0.9,16.8,0.8,25.2"/>
	<path class="st22" d="M193.5,401.4c18.3,1.2,35.7-7.2,53.6-11"/>
	<path class="st22" d="M205.3,408.6c10-3,20.3-6,30.8-5.6"/>
	<path class="st22" d="M86.6,521.7c10.3-4.2,21.6-4.8,32.6-5.5c15.6-0.9,31.4-1.8,46.7,1.5c6.1,1.3,12,3.2,18.1,4.2
		c6.4,1.1,13,1.2,19.6,1.2c7,0.1,14,0.1,20.8-1.4"/>
	<path class="st22" d="M186,514.3c11.1-2.4,22.6-0.8,34,0c11.3,0.8,23.3,0.7,33.3-4.7"/>
	<path class="st22" d="M96.5,335c-2.2,24.7,1.9,50,11.8,72.8c2.9-2.4,6-4.5,9.3-6.3c4.1-2.1,11-7.1,15.3-8.7
		c11.3-4.2,16.1-5.9,31.6-8.3"/>
</g>
</svg>
