<?xml version="1.0" encoding="utf-8"?>
<!-- Generator: Adobe Illustrator 23.0.2, SVG Export Plug-In . SVG Version: 6.00 Build 0)  -->
<svg version="1.1" id="Layer_1" xmlns="http://www.w3.org/2000/svg" xmlns:xlink="http://www.w3.org/1999/xlink" x="0px" y="0px"
	 viewBox="0 0 910.54 649.42" style="enable-background:new 0 0 910.54 649.42;" xml:space="preserve">
<style type="text/css">
	.st0{opacity:0.1;fill:#007CC7;}
	.st1{fill:#AFC7D7;}
	.st2{fill:#F4E9DC;}
	.st3{fill:#FBD5AF;}
	.st4{fill:#6FB1ED;}
	.st5{fill:#422645;}
	.st6{fill:#00B1AA;}
	.st7{fill:#FFFFFF;}
	.st8{fill:#481F58;}
	.st9{fill:#E0585E;}
	.st10{fill:#035693;}
	.st11{fill:#1F2144;}
	.st12{fill:#007CC7;}
	.st13{fill:#DDD466;}
	.st14{filter:url(#Adobe_OpacityMaskFilter);}
	.st15{opacity:0.48;mask:url(#SVGID_1_);fill:#99AFBC;}
	.st16{fill:#99AFBC;}
	.st17{fill:#803D3D;}
	.st18{fill:#FFCC4D;}
	.st19{fill:#C09B7E;}
	.st20{fill:#D37E37;}
	.st21{opacity:0.43;fill:#5E2C2C;}
	.st22{fill:#8C4C3F;}
	.st23{fill:#995A4D;}
	.st24{fill:#F0A160;}
	.st25{fill:#E6F3FF;}
	.st26{fill:#EA8FC3;}
	.st27{fill:#E5D0CF;}
	.st28{fill:#FFE3E0;}
	.st29{fill:#5E2C2C;}
	.st30{fill:#C6ACAB;}
	.st31{fill:#629FCC;}
	.st32{fill:#96C7F6;}
	.st33{opacity:0.36;fill:#FFF88E;}
	.st34{fill:#CCCCCC;}
	.st35{fill:#002042;}
	.st36{fill:#945549;}
	.st37{fill:#363A5E;}
	.st38{fill:#73A0BE;}
	.st39{fill:#6B4C33;}
	.st40{fill:#FFEDDF;}
	.st41{fill:#5E8296;}
	.st42{fill:#9B6C53;}
	.st43{opacity:0.48;fill:#422645;}
	.st44{fill:none;stroke:#5E2C2C;stroke-width:1.2057;stroke-linecap:round;stroke-linejoin:round;stroke-miterlimit:10;}
	.st45{fill:#FFF4D6;}
	.st46{opacity:0.63;fill:#FFFFFF;}
	.st47{fill:#C64A27;}
	.st48{fill:#F5E4D5;}
	.st49{opacity:0.25;}
	.st50{fill-rule:evenodd;clip-rule:evenodd;fill:#C09B7E;}
</style>
<g>
	<path class="st0" d="M909.85,305.83c-4.86,43.52-21.51,67.73-41.65,84.13c-34.23,27.88-78.51,33.19-92.05,72.4
		c-21.51,62.29,31.06,73.06,36.98,98.75c0.62,2.69,1.01,5.3,1.18,7.81c0.01,0.06,0.01,0.12,0.02,0.19c0.02,0.41,0.04,0.82,0.06,1.21
		v0.38c0.01,0.27,0.02,0.53,0.02,0.79c0,0.19,0,0.37-0.01,0.55c0.01,0.09,0.01,0.19,0,0.27c0,0.29-0.01,0.56-0.02,0.83
		c0,0.11-0.01,0.22-0.02,0.33c0,0.14-0.01,0.29-0.02,0.43c-0.01,0.25-0.03,0.51-0.05,0.76c-8.75,115.45-530.77,30.3-709.55-2.31
		C17.22,556.38-27.64,457.79,18.31,381.61c0.69-1.14,1.39-2.29,2.11-3.45c72.37-115.37,158-81.28,195.45-210.17
		C253.32,39.11,434.28,0.35,614.2,0c179.91-0.36,140.47,111.35,136.5,168C746.74,224.64,922.94,188.34,909.85,305.83z"/>
	<path class="st1" d="M101.89,434.49c-4.64,1.42-8.61,3.33-17,4.99c3.71-1.62-4.49,0.54-4.55,0.2c-4.16,1.6-8.3,3.38-12.35,5.32
		c-6.24,2.15-13.44,5.28-18.35,9.06c1.65-1.22,3.98-2.67,7.01-4.12c-3.78,2.63-7.52,4.83-11.33,7.7c-3.72,2.85-7.72,6.61-9.6,12.18
		c0.39-1.74,1.24-3.36,2.01-5.03c-2.74,3.79-3.8,7.76-4.12,11.39c-0.19,3.69,0.6,7.03,1.83,10.03l-1,0.01
		c0.76,0.3,2.33,3.75,4.48,6.94c2.1,3.25,4.52,6.35,5.49,7.43c-5.61-7.19-7.1-11.29-8.07-15.17c-0.43-1.99-0.76-4.01-0.79-6.77
		c-0.03-1.38,0.09-2.96,0.46-4.75c0.25-1.81,0.92-3.86,1.95-6.18c-2.13,7.14-1.81,12.73,1.82,19.21c0.9,2.56,1.25,3.55,1.05,3.83
		c1.56,1.9,2.63,2.25,5.21,5.58l0.23,1.23c3.11,4.92,5.16,6.79,7.31,8.66c1.09,0.92,2.17,1.83,3.53,2.98
		c1.39,1.16,2.98,2.65,5.56,4.51c0.72,1.06-2.12-0.11-5.27-2.68c-3.19-2.53-6.35-6.33-8.66-8.93c1.06,2.35-0.71,0.17-2.45-1.95
		c-1.74-2.12-3.43-4.24-2.37-1.3l2.64,2.49c2.04,2.84,1.23,2.78-0.07,1.04c2.95,3.65,2.09,2.87,3.71,4.03
		c2.9,3.68,4.71,5.45,5.38,6.27c0.69,0.83,0.33,0.74-0.1,0.65c-0.41-0.09-0.88-0.18-0.24,0.66c0.32,0.42,0.92,1.08,2.07,2.06
		c1.16,0.97,2.88,2.29,5.75,3.71c-1.41-0.5-3.61-1.66-5.17-2.64c-1.57-0.98-2.64-1.71-2.42-1.12c-3.17-2.66-5.51-5.48-7.51-8.17
		l-0.95,0.25c3.85,5.09,8.84,9.39,14.38,11.71c5.55,2.35,10.34,2.71,14.12,2.68c-3.68-0.39-5.67-0.93-6.6-1.25
		c-0.93-0.31-0.84-0.45-0.53-0.52c0.65-0.21,2.09-0.15-1.4-1.56c2.85,0.66,5.31,1.4,6.81,1.91c0.55-0.01,2.61,0.26,4.38,0.32
		c1.78,0.08,3.28,0.03,2.85-0.2c0.74,0.51,3.19,1,6.25,1.3c3.07,0.31,6.65,0.38,10,0.53c6.66,0.17,12.15,0.2,9.03,1.36
		c4.04-0.05,12.29-0.8,21.46-2.16c9.19-1.31,19.32-3.07,27.64-4.32l-4.42,1.16c17.78-0.94,15.06-3.46,25.08-5.24
		c-8.74,1.74,8.02-0.24,11.65-0.04c7.77-1.35,14.09-2.96,25.21-3.17c2.32,0.72,2.62,1.81,9.64,1.97c1.59-0.21,3.19-0.42,4.8-0.57
		c7.04,0.2,16.57,0.32,21.05,1.13l-0.98-0.01c7.91,1.04,8.41-0.02,2.22-0.71l7.67,0.23l0.21,0.26c10.15,0.49,19.77,0.44,35.92,2.16
		c-4.45,0.23,11.93,2.82-2.66,1.33c4.26,0.13-2.17-1-2.93-1.41c-5.22-0.79-10.11-0.54-12.44-0.72c1.63,0.61-0.09,1.43-2.97,1.69
		c5.29-0.03,15.15,1.12,24.13,2.07c8.98,0.93,17.04,1.58,18.45,0.7c6.5,0.72,14.07,1.32,21.91,1.78c7.85,0.29,15.94,0.65,23.48,1.01
		c-0.62-0.09-1.83-0.27-1.48-0.41l12.99,0.86l-3,0.17l8.6,0.62c0.9,0.32-2.45,0.64-6.01,0.72c-2.04,0.11-3.88-0.15-1.89-0.26
		c-9.3,0.65,7.72,0.3,1.67,1.02c-2.28-0.12-5.24,0.05-6.87,0.02c10.62,0.52,15.53-0.71,22.06,0.09c2.51-0.42,6.32-0.9,10.7-1.24
		c4.38-0.32,9.29-0.79,14.09-0.78c-3.66,0.7,10.33-0.77,5.65,0.43c3.65-0.62,12.19-0.87,13.57-1.54c-1.31,0.32-5.46,0.68-8.34,0.73
		c3.89-0.57,4.31-1.14,9.08-1.46c0.63,0.03,0.3,0.21,0.3,0.21c6.14-1.06,1.88-1.97,12.69-3.07c28.36-3.47-3.7,2.38,0.36,2.33
		c0.99-0.56,13.49-2.21,19.18-2.47l-1.31,0.36c2.87-0.52,7.05-1.39,10.18-1.32c1.63-0.93,4.86-2.01,6.78-2.74l12.64-1.72l-2.54,0.73
		c2.85-0.53,5.39-0.88,7.93-1.23c1.2,0.41-2.56,0.73-6.37,1.44c2.16,0.23,4.69-0.12,7.57-1.04l-1.59,0.17
		c3.2-0.72,14.89-3.06,5.46-2.04c6.96-1.44,9.38-0.63,14.15-1.52c0.59,0.39-3.83,1.1-1.33,1.13c4.71-0.51,7.83-0.84,11.62-1.54
		c-3.76,0.31,0.98-0.56-4.96-0.1c2.21-0.54,8.18-1.38,7.9-1.58c-1.9,0.35-3.18,0.71-6.59,0.83c6.29-1.03,12.89-1.88,19.46-2.31
		c-0.21,0.14-0.84,0.31-1.56,0.5c8.3-1.75,21.01-3.09,26.54-4.5l-2.54,0.06c-2.01,0.44-6.14,0.93-7.83,0.89
		c6.31-0.97-4.65-0.33,2-1.48c9.2-1.39,17.57-1.16,22.48-2.69c-8.82,0.78-20.81,1.33-24.3,2.25c1.89-0.2,3.79-0.42,5.69-0.58
		c-4.26,0.85-8.5,1.8-12.75,2.69c-0.58-0.4-11.37,1.59-11.29,0.85c4.43-0.69,8.51-1.11,11.98-1.6c-0.89-0.23-11.96,1.18-16.66,1.7
		l5.95-0.46c-10.43,1.91-23.93,3.4-34.06,5.2c7.92-1.62-10.33,0.81-4-0.64c2.54-0.73,6.9-0.67,5.65-0.69
		c0.68-0.76-6.28,0.68-8.45,0.45c-0.99,0.57-11.41,2.13-5.15,1.85c-3.44,0.13-10.73,1.77-15.44,1.87c1.52,0.61-8.54,1.54-10.18,2.09
		c-2.02,0.2-3.81,0.26-5.21,0.25c4.24-0.78,9.42-1.74,14.81-2.73c2.22-0.14,6.29-0.66,5.05-0.68l0.03-0.3
		c8.12-1.59,16.24-3.17,22.08-4.31c0.93-0.12,1.86-0.24,2.79-0.36l-0.54,0.15c0.3-0.07,0.6-0.13,0.89-0.2
		c47.57-6.15,95.16-12.12,142.91-11.23c-3.14,0.1-8.23-0.09-10.34,0.29l0.33-0.15l-4.86,0.29c4.09-0.02,12.21-0.06,15.72-0.43
		c3.35,0.07,6.7,0.17,10.06,0.31l-8.4-0.62c0.01-0.01,0.04-0.01,0.05-0.02c-0.01,0.01-0.04,0.01-0.05,0.02l-9.92-0.74
		c6.54-0.51,12.69-1.01,20.51-0.73c-2.52,0.28-0.04,0.41,0.59,0.56c21.51-1.97,42.4-1.96,64.08-1.43
		c9.11,0.23,18.27,0.45,27.27-1.07c17.4-2.93,34.12-12.3,51.67-10.59c6.57,0.64,14.35,2.39,18.8-3.05
		c5.02-6.14,0.9-16.87-5.71-20.73s-14.46-3.19-21.9-3.47c-9.69-0.36-19.37-2.5-29.03-1.65c-12.36,1.08-23.47,5.03-35.98,4.12
		c-8.86-0.65-18.22-2.7-27.1-2.44c5.03-0.15-3.17-1.01-7.12-1.74c-12.29-0.67-38.33-2.47-56.93-3.09c2.53-0.67-2.63-1-8.59-1.32
		c-5.97-0.3-12.73-0.6-13.42-1.34c-4.13-0.24-10.58-0.28-11.08,0.21c2.31-0.15,7.87,0.54,7.11,0.79
		c-6.05-0.19-15.27-0.59-16.16,0.03l-7.4-1.02c-0.33,0.33-1.54,0.67-3.52,0.81c-1.62-0.07-3.24-0.15-4.85-0.22
		c-2.92-0.52-3.03-0.38-3.21-0.14c-1.8-0.08-3.59-0.16-5.39-0.23c2.07-0.27,3.79-0.51,4.62-0.79c-6.33-0.4-5.49-0.05-9.99-0.11
		c-1.44-0.47,4.53-0.93,9.39-1l-8.12-0.75c-7.93,0.48-21.68,1.07-34.3,0.21c2.1-0.39,6.2-0.2,2.94-1.02
		c-5.45-0.05-12.78,0.53-19.92-0.29c0.99-0.01,0.39-0.13,1.37-0.13c-12.67,0.11-9.46-0.67-20.85-1.38c0.19-0.06,0.24-0.15,0.58-0.22
		l-7.02,0.11c-14.73,0.29-16.17-1.79-24.83-2.92l1.94,0.03c-2.68-0.61-8.44-0.99-14.13-1.4c-5.69-0.42-11.34-0.78-13.8-1.15
		c6.09,1.02,1.98,0.67,6.37,1.89c5.47,0.25,3.96-0.85,12.99,0.17c-1.29,0.76-12.78,0.07-15.25,0.51c-5.1-0.36-8.32-1.98-8.74-2.49
		c-12.65-1.08-19.64-2.24-35.16-3.72c-5.65-0.06-10.21,1.16-22.95-1.34l0.77-0.21c-0.54,0.47-6.26-0.79-8.96-0.66
		c4.34,1.31-5.64,0-0.31,1.35c-7.6-0.67-8.68-1.94-9.32-2.71c-5.56,0.68-14.98-1.95-26.79-1.89c2.15-0.47,14.94,0.34,9.74-0.59
		c-5.08,0.08-10.16,0.29-15.22,0.54l6.7,0.29c-11.49,0.34-14.63-0.68-21.29-1.15c-0.65-0.17,0.11-0.3,1.45-0.38
		c1.34-0.05,3.25-0.03,4.89,0.01c-3.53-0.18-9.2,0.02-13.82,0.33c-3.49,0.36-15.55,1.36-20.27,2.45c-0.64,0.02-1.29,0.05-1.95,0.07
		c0.18-0.08,0.47-0.17,0.86-0.22c-0.97,0.1-1.76,0.17-2.48,0.31c-2.02,0.17-4.03,0.33-6.06,0.5l1.19-0.3
		c-0.79,0.13-1.56,0.26-2.31,0.39c-2.09,0.14-4.17,0.4-6.25,0.68l-3.12,0.77l1.57-0.21c-0.19,0.49-2.07,1.18-4.98,1.91
		c-3.53,0.63-7.04,1.35-10.54,2.16c-3.67,0.85-7.34,1.8-11.02,2.77c-3.97,0.83-8.35,2.1-12.41,3.2c-5.03,1.38-9.57,2.45-11.92,2.26
		c13.42-3.91,19.84-5.58,34.28-9.43c3.93-0.35,1.58,0.22-1.7,1.13c-3.29,0.88-7.53,2.05-7.65,2.35c2.74-0.63,5.49-1.26,8.25-1.83
		c-1.37-0.42,16.03-3.69,11.39-4.03c-4.61,0.87-9.28,1.61-13.77,2.68c-4.5,1.04-8.89,2.16-13.19,3.25
		c-8.58,2.19-16.79,4.22-24.52,5.39c4.47-2.81,8.49-5.85,12.45-9c-0.03-0.08,0.18-0.27,0.77-0.62l-0.77,0.62
		c0.1,0.26,3.03-0.7,6.38-1.78c-0.6,0.46-1.23,0.99,2.83-0.13c8.46-1.73,12.72-4.26,19.29-5.55l-1.98,0.53
		c3.12-0.52,6.64-1.18,9.96-1.91c3.33-0.7,6.49-1.25,8.82-1.91c2.63,0.14-1.84,0.9-5.73,1.56c-3.89,0.68-7.13,1.49-2.24,0.94
		c-3.42,0.53-7.54,1.43-11.35,2.46c-3.81,1.06-7.26,2.19-9.71,2.86c4.15-0.98,8.25-1.63,10.98-1.89c2.77-0.2,4.15-0.04,3.04,0.52
		c9.12-2.25,9-2.77,8.55-3.26c-0.44-0.49-1.2-0.91,7.08-2.43c3.84-0.6,7.72-0.81,11.57-1.21c1.27-0.55,2.55-1.12,3.85-1.6
		c6.98-0.53-4.16,1.29,6.49,0.41c2.86-0.86,9.77-0.5,11.86-0.98c-0.29,0.32-0.4,0.51,5.04,0.49c0.36-0.15-0.14-0.61,4.14-0.63
		c2.93,1.18-10.97,0.31-5.98,1.36c12.15-0.05,7.79-1.07,9.66-1.54c-0.42,0.04-1.08-0.02-2.31-0.03c0.13-0.41,5.31-0.05,4.77-0.49
		c-2.06-0.11-4.14,0.06-5.95,0.17c3.7-0.36-6.05-0.84-9.82-0.65c-8.51,0.67-26.23,1.78-37.92,4.01c1.01-0.22,3.01-0.65,1.69-0.62
		c-2.09,0.33-4.02,0.64-5.85,0.94c-1.81,0.36-3.52,0.7-5.15,1.03c-3.28,0.64-6.3,1.22-9.3,1.96c-5.99,1.41-12,3.1-20.31,5.4
		l-1.64,1.32c-7.23,1.79-8.67,2.6-8.87,3.31c-0.18,0.68,1.01,1.11-0.72,1.58c-3.17,0.65-5.8,1.63-8.61,1.48
		c0.48-0.16,0.95-0.31,1.43-0.51c-4.41,0.67-5.07,0.88-5.63,1.09c-0.55,0.17-1.03,0.45-4.94,0.38c-3.15,0.19-1.79,0.29-0.1,0.33
		c1.69,0.02,3.68,0.05,1.63,0.31c-2.13-0.01-3.51,0-4.61,0.07c-1.11,0.1-1.93,0.24-2.9,0.29c-1.97,0.13-4.46,0.27-11.08-1.77
		c0.38-0.06,0.11-0.39,0.73-0.48c0.61-0.12,2.17,0.11,5.94,0.76c-2.38-0.65-4.78-1.44-7.28-2.3c4.62,0.99,5.39,1.04,6.28,1.2
		c0.88,0.1,1.73,0.44,6.04,0.81c2.05-0.22,2.86-0.63,3.59-0.91c0.73-0.28,1.43-0.62,3.22-1c-1.59,0.11-2.25,0.38-3.08,0.51
		c-0.83,0.11-1.92,0.36-4.23,0.03c-5.55-0.87,0.99-0.32,1.55-0.55c-3.75,0.15-5.75-0.46-7.73-1.13c-1.99-0.67-3.85-1.39-7.95-1.94
		c1.06,1.35-0.31,0.99,4.76,2.94c-2.67-0.47-5.74-1.39-8.14-2.24c-2.39-0.86-4.09-1.64-3.63-2.01l-1.56,0.5
		c-1.38-0.54-6.5-1.36-6.77-1.62l-2.27,0.14c4.5,1.18,8.42,2.13,15.75,3.71c-3.18-0.21,3.51,2.29-6.09,0.15
		c-4.28-0.92-0.35-0.57-0.53-0.85c-2.83-0.54-5.39-0.87-7.62-1.23c-2.26-0.24-4.22-0.56-6-0.71c-1.77-0.18-3.35-0.33-4.81-0.48
		c-1.46-0.12-2.8-0.23-4.11-0.33c-5.2-0.3-9.94-0.59-18.84,0.72c4.37-0.96,15.47-1.47,24.47-1.5c-5.37-0.97-11.62,0.1-16.69,0.4
		c4.52-0.65,5.3-0.99-0.16-0.98c-0.73,0.21-1.44,0.46-2.15,0.69c-3.23,0.24-8.84,1.08-9.32,0.91c-0.11,0.19,1.31,0.13,4.2-0.08
		c-3.92,0.79-9.44,1.92-15.58,3.25c-6.05,1.37-12.81,2.89-19.39,4.38c3.67-0.83,7.84-2.62,11.53-3.85
		c-14.47,2.01-28.4,1.07-42.68,5.76c-7.6,2.5-15.02,5.86-22.86,7.11c-9.78,1.56-20.38-0.08-29,5.3c-3.72,2.32-7.06,7.46-4.92,11.63
		c1.25,2.43,3.87,3.44,5.78,5.25c4.6,4.35,4.49,12.51,8.25,17.78c2.41,3.37,6.1,5.16,9.57,7.01c9.89,5.27,19.14,12.06,27.42,20.1
		 M240.07,427.12l-5.58,1.36C236.59,427.85,238.68,427.28,240.07,427.12z M139.82,513.54c-1.41,0.3-3.37,0.67-5.12,1.01
		c-1.57,0.12-1.93,0.05-1.92-0.06C135.13,514.18,137.47,513.87,139.82,513.54z M43.63,485.63c-0.12-0.21-0.23-0.55-0.33-1
		C43.4,484.96,43.51,485.29,43.63,485.63z M214.42,507.27c-2.27,0.34-1.93,1.41-10.92,1.53c-0.12-0.11,0.64-0.22,1.53-0.32
		c-4.08,0.32-4.78,0.17-9.25,0.31c-1.45-0.66,5.42-1.01,8.35-1.68c-2.88,0.28-6.07,0.89-9.23,1.04l0.7-0.34
		c-3.17,0.34-6.33,0.68-9.49,1.08c-3.82,0.99,7.22-0.66,7.81-0.21l-6.01,1.05c-6.92,0.78-25.36,3.51-31.91,3.36
		c-8.15,0.77-4.42,1.16-6.34,1.93c-4.74,1.35-9.44,1.14-14.19,2.07c0.29,0.58-5.44,1.27-5.5,2.05L122,519.9
		c-4.28,1.63,9.58-0.9,11.74-0.73c4.42,0.44-5.77,1.08-2.93,1.31c6.07-0.88,6.4-1.46,9.3-2.04c3.46-0.55,5.35-0.56,5.31-0.17
		c-9.77,0.91-5.07,1.55-13.05,2.42l-0.31-0.2c-0.04,0.79-11.53,1.73-15.82,2.47c-8.94,0.01,6.98-1.82,6.62-2.08
		c-3.54,0.48-7.11,0.92-10.69,1.31c4.62-0.92-0.17-0.96,6.01-2.05c-6.48,0.91-7.35,0.24-13.56,1.19c7-1.59-8.9-0.28-9.71-1.1
		c6.83-0.42,18.94-0.48,19.6-0.3c0.99-0.26,8.82-0.94,12.02-1.08l4.83-1.65c-5.68,0.71-13.39,1.98-11.36,0.89
		c-2.58,0.4-5.15,0.84-7.74,1.21c7.84-2.13,7.44-2.04,14.54-3.48c-14.95,0.66-26.4,3.89-38.87,2.98l1.93-0.12
		c-6.13,0.16-11.19-0.22-15.16-1.13c-3.98-0.89-6.79-2.26-8.69-3.59c-0.07-0.05-0.12-0.1-0.19-0.15c0.37,0.2,0.73,0.43,1.12,0.62
		c6.86,3.33,15.42,3.7,23.56,3.58c13.03-0.2,25.97-1.45,38.86-3.07l-1.54,0.69c0.32-0.07,0.54-0.12,0.88-0.19
		c14.82-2.31,1.51,1.02,16.64-1.59c-0.57,0.17-0.83,0.3-1.14,0.43c6.14-1.2,17.58-2.49,18.76-3.49c-1.45,0.21-7.17,0.8-9.97,0.89
		c6.47-0.93,12.94-1.86,19.41-2.7c1.36-0.04,2.68-0.08,4.2-0.22l0,0l0.01-0.01c1.47-0.14,3.1-0.38,5.24-0.77
		c0.51-0.11,0.86-0.2,1.12-0.28c7.74-0.87,15.51-1.54,23.31-1.91C205.61,506.48,223.45,506.07,214.42,507.27z M238.69,507
		c-9.19-0.45-2.77-0.37-9.3-0.98c-0.36-0.15-0.13-0.27,0.41-0.37c6.9,0.22,13.78,0.63,20.65,1.19
		C244.49,506.55,238.31,506.18,238.69,507z M266.57,509.07c-3.14-0.4-12.05-0.99-12.7-1.72c4.32,0.37,5.55,0.45,5.07,0.25
		c4.48,0.43,8.96,0.9,13.44,1.4c0.17,0.11,0.56,0.24,1.18,0.4C271.55,509.34,268.42,509.1,266.57,509.07z M382.11,520.15
		c-8,0.07,0.43-0.5-3.64-0.8c-6.08,1.1-7.77-0.91-14.22,0.33c-7.73,0.09-5.29-0.58-7.73-1c7.68,0.12-3.56-0.87,6.09-1.01
		c-3.91-0.23-5.34-0.09-6.62,0.12c-1.28,0.21-2.42,0.44-5.71,0.13l-0.94-0.97c-2.99-0.23-7.7-0.6-12.66-0.98
		c-4.97-0.41-10.19-0.84-14.27-0.9c6.71,1.2-4.06,0.24-3.04,0.86c1.31-0.65,10.57,0.71,10.42,1.08c-4.84-0.19-16.09-1.17-20.53-1.77
		l8.81,1.38c-3.71,0.15-16.76-0.46-17.13-0.37c-3.94-0.84-9.94-1.46-11.92-2.19l7.56,0.21l2.55,0.89l4.43-0.24
		c-4.78-0.81-14.82-2.53-16.87-3.43c7.58,0.9,17.97,2.04,30.44,2.64c7.15,0.72,14.31,1.36,21.49,1.81
		c17.14,1.07,34.26,1.12,51.38,0.48c-0.13,0.02-0.24,0.04-0.38,0.07c-2,0.39-4.36,0.7-7.14,0.89c1.58-0.12,3.47-0.16,6.03-0.04
		c-4.6,0.66-9.2,1.44-13.85,1.88c3.5,0.13,5.51-0.21,7.71-0.61c2.2-0.38,4.58-0.75,8.85-0.78
		C390.69,518.73,391.25,519.17,382.11,520.15z M620.18,490.51c5.98,0.08,11.97,0.11,17.96,0.1l-0.08,0.01l5.87,0.63
		c-2.23,0.19-4.47,0.36-6.7,0.53L620.18,490.51z M210.16,441.91c1.89-0.07,2.46,0.1,3.03,0.32c-1.53,0.19-3.02,0.38-4.49,0.48
		L210.16,441.91z M155.38,434.75c0.34-0.45,2.88-0.51,5.71-0.36c2.84,0.09,5.93,0.51,7.47,0.37c1.22,0.1,4.52,0.79,7.07,1.5
		c2.56,0.71,4.45,1.36,3.19,1.37c-3.5-1.07-5.36-1.08-7.07-1.14c-1.73-0.05-3.29-0.24-6.65-1.4c-1.27,0.36,0.51,0.85,3.15,1.48
		c-0.94-0.08-1.52-0.04-1.66,0.07c-1.36-0.24-2.68-0.48-3.95-0.71c-1.3-0.17-2.55-0.33-3.77-0.48
		C156.72,435.09,154.75,434.97,155.38,434.75z M145.62,434.69l-2.27,0.18c-8.67,0.3-14.15,1.31-17.23,1.87
		c-2.98,0.61-3.71,0.94-2.84,1.08c-2.02,0.33-4.04,0.7-6.05,1.09c3.51-1.14,6.85-2.13,8.79-2.62
		C133.21,435.04,141.08,434.49,145.62,434.69z M100.93,441.26c-0.41,0.31,0.06,0.33,0.95,0.2c-2.22,0.6-4.46,1.21-6.7,1.82
		C96.04,442.7,94.41,442.67,100.93,441.26z M38.8,476.91c0.02-1.37,0.54-2.75,0.85-3.97c0.77-1.89,1.6-3.26,1.87-3.4
		c-0.27-0.66,0.97-3.54,3.51-6.42c2.69-3.2,6.83-6.03,8.97-7.67c5.74-3.42,8.12-3.81,10.11-4.41c2.06-0.48,3.83-1.03,9.32-3.16
		c-1.46,0.25-2.9,0.57-4.35,0.88c4.88-1.96,8.45-3.15,12.2-4.27c3.77-1.12,7.67-2.08,13.31-3.36c1.63,0.41-5.19,1.13-7.58,2.19
		l5.57-0.62c-2.41,0.64-6.89,2.52-7.01,1.77c0.06,0.39-3.49,1.96,3.45-0.21l-5.07,1.96c0.32,0,0.76-0.04,1.25-0.11
		c-1.54,0.48-3.12,0.96-4.69,1.45c-2.09,0.36-5.62,1.5-8.92,2.05c-0.36-0.15,2.85-1.34,4.67-2.06c-4.91,1.22-8.98,2.98-11.49,4.24
		c3.63-1.43,4.56-1.61,4.81-1.48c0.24,0.12-0.19,0.56,0.78,0.56c-2.14,0.94-4.97,2.14-7.5,3.36c-2.53,1.22-4.78,2.44-5.86,3.23
		c-1.42,0.72-2.72,1.49-3.86,2.15c-1.18,0.63-2.1,1.25-2.82,1.63c-1.44,0.78-1.97,0.74-0.61-0.8c-2.81,2.73-5.99,5.76-6.89,9.53
		c0.68-1.65,1.18-2.46,1.54-2.85c0.43-0.36,0.7-0.34,0.99-0.37c0.3-0.03,0.62-0.11,1.15-0.66c0.28-0.27,0.56-0.69,1.01-1.23
		c0.47-0.53,1.05-1.23,1.77-2.16c0.58-0.23,0.75-0.17,0.65,0.09c-2.65,2.41-4.71,5.09-6.04,8.05c-0.45,0.8-0.86,1.58-1.17,2.23
		c0.65-2.25-0.51-0.48-0.66-1.09c-0.31,0.82-0.36,1.52-0.41,2.08c-0.05,0.55-0.05,0.97-0.03,1.26c0.04,0.58,0.2,0.67,0.43,0.42
		c0.2-0.2,0.4-0.61,0.63-1.16c-0.11,0.51-0.26,1.01-0.32,1.54c-0.36,2.87,0.04,5.68,0.91,8.43c0.17,1.35,0.47,2.69,0.84,4.03
		c-1.02-1.95-1.86-3.97-2.4-6.07c-0.13,1.37,0.34,3.15,1.16,4.89c0.82,1.75,1.92,3.46,2.78,4.95c0.74,1.74-0.68-0.04-2.4-2.85
		c-1.77-2.8-3.34-6.82-4.14-8.97C38.84,479.56,38.7,478.27,38.8,476.91z"/>
	<g>
		<g>
			<g>
				<path class="st2" d="M800.39,314.7h-0.58c-14.44,0-26.15,11.71-26.15,26.15v143.12h24.86c15.47,0,28.01-12.54,28.01-28.01
					v-115.1C826.54,326.4,814.83,314.7,800.39,314.7z"/>
				<path class="st2" d="M295.67,314.7h0.58c14.44,0,26.15,11.71,26.15,26.15v143.12h-24.86c-15.47,0-28.01-12.54-28.01-28.01
					v-115.1C269.52,326.4,281.23,314.7,295.67,314.7z"/>
				<path class="st2" d="M777.83,353.29v17.67H318.22v-17.67c0-7.74,0.7-15.31,2.02-22.67c0.03-0.15,0.05-0.3,0.08-0.45
					c10.87-59.02-2.11-109.28,124.75-103.73h205.89c112.47,1.38,124.74,11.2,124.82,86.34v0.75c0,4.93-0.9,12.04,0,16.98
					C777.14,337.9,777.83,345.52,777.83,353.29z"/>
				<rect x="322.39" y="356.82" class="st2" width="451.28" height="127.14"/>
				<g>
					<path class="st3" d="M765.05,353.15c7.44,4.68,5.27,30.98,0.46,32.66c-4.81,1.68-106.25,3.61-106.25,3.61
						s-57.2,2.83-85.16,2.72c-37.39-0.14-106.93,0-142.55,0c-22.65,0-49.31-2.53-73.41-2.53c-19.5,0-23.35-1.82-28.65-2.27
						c-5.16-0.43-6.8-10.04-2.84-27.8c1.8-8.05,17.02-14.65,62.4-14.76c73.42-0.17,93.25,4.82,192.97,0.91
						c23.69-0.93,57.9,1.08,83.39,1.61C689.37,347.79,752.82,345.46,765.05,353.15z"/>
					<g>
						<path class="st3" d="M314.52,367.96c-0.46,0-0.84-0.38-0.84-0.84v-12.37c0-13.32-1.86-28.93-16.33-31.43
							c-8.84-1.53-17.47,6.31-17.56,6.39c-0.34,0.31-0.87,0.29-1.19-0.05c-0.31-0.34-0.29-0.87,0.05-1.19
							c0.38-0.35,9.32-8.48,18.98-6.81c15.71,2.72,17.73,19.11,17.73,33.08v12.37C315.36,367.59,314.99,367.96,314.52,367.96z"/>
					</g>
					<g>
						<path class="st3" d="M779.75,389.84c-0.44,0-0.81-0.34-0.84-0.79c-0.01-0.1-0.59-10.09-0.8-22.49
							c-0.01-0.67-0.03-1.39-0.05-2.16c-0.24-10.27-0.63-27.45,8.19-36.35c3.7-3.73,8.64-5.57,14.79-5.49
							c14.33,0.2,18.2,13.99,19.05,18.21c1.47,7.32,0.7,38.33,0.67,39.65c-0.01,0.46-0.38,0.82-0.84,0.82c-0.01,0-0.01,0-0.02,0
							c-0.46-0.01-0.83-0.4-0.82-0.86c0.01-0.32,0.8-32.14-0.64-39.28c-1.01-5.01-4.72-16.68-17.43-16.86c-0.13,0-0.26,0-0.38,0
							c-5.47,0-9.9,1.68-13.19,5c-8.32,8.39-7.93,25.13-7.7,35.13c0.02,0.77,0.03,1.5,0.05,2.17c0.21,12.36,0.79,22.32,0.8,22.42
							c0.03,0.46-0.33,0.86-0.79,0.89C779.79,389.84,779.77,389.84,779.75,389.84z"/>
					</g>
					<g>
						<path class="st3" d="M761.64,420.2c0,0-0.01,0-0.01,0c-1.03-0.02-103.19-1.5-110.26-1.4l-2.62,0.04
							c-68.8,0.99-118.75,1.46-140.63,1.34c-35.93-0.19-176.4-2.74-177.82-2.76c-0.46-0.01-0.83-0.39-0.82-0.85
							c0.01-0.46,0.39-0.83,0.85-0.82c1.41,0.03,141.87,2.57,177.79,2.76c21.87,0.11,71.8-0.36,140.6-1.34l2.62-0.04
							c7.11-0.1,109.28,1.38,110.31,1.4c0.46,0.01,0.83,0.39,0.83,0.85C762.48,419.83,762.1,420.2,761.64,420.2z"/>
					</g>
					<g>
						<path class="st3" d="M322.5,364.19c-0.02,0-0.04,0-0.06,0c-0.46-0.03-0.81-0.44-0.77-0.9c0-0.05,0.41-5.61,0-13.94
							c-0.4-8.26-1.93-13.2-1.95-13.25c-0.14-0.44,0.11-0.91,0.55-1.05c0.44-0.14,0.91,0.11,1.05,0.55
							c0.07,0.21,1.61,5.17,2.02,13.67c0.41,8.44,0,14.1,0,14.15C323.3,363.85,322.93,364.19,322.5,364.19z"/>
					</g>
					<g>
						<path class="st3" d="M771.41,359.03c-0.44,0-0.81-0.34-0.84-0.78c-0.01-0.13-0.21-3.35,0-9.71
							c0.21-6.35,1.08-14.01,1.09-14.08c0.05-0.46,0.47-0.8,0.93-0.74c0.46,0.05,0.79,0.47,0.74,0.93
							c-0.01,0.08-0.87,7.67-1.08,13.95c-0.2,6.26,0,9.51,0,9.54c0.03,0.46-0.32,0.86-0.78,0.89
							C771.44,359.03,771.42,359.03,771.41,359.03z"/>
					</g>
				</g>
				<g>
					<path class="st3" d="M322.39,473.92c-0.46,0-0.84-0.38-0.84-0.84v-81.3c0-0.46,0.38-0.84,0.84-0.84c0.46,0,0.84,0.38,0.84,0.84
						v81.3C323.23,473.55,322.85,473.92,322.39,473.92z"/>
				</g>
				<g>
					<path class="st3" d="M773.67,473.92c-0.46,0-0.84-0.38-0.84-0.84v-96.56c0-0.46,0.38-0.84,0.84-0.84
						c0.46,0,0.84,0.38,0.84,0.84v96.56C774.51,473.55,774.13,473.92,773.67,473.92z"/>
				</g>
				<g>
					<g>
						<path class="st3" d="M821.7,444.36c-0.46,0-0.84-0.38-0.84-0.84v-47.67c0-0.46,0.38-0.84,0.84-0.84s0.84,0.38,0.84,0.84v47.67
							C822.54,443.98,822.17,444.36,821.7,444.36z"/>
					</g>
					<g>
						<path class="st3" d="M276.02,454.91c-0.46,0-0.84-0.38-0.84-0.84v-89.71c0-0.46,0.38-0.84,0.84-0.84
							c0.46,0,0.84,0.38,0.84,0.84v89.71C276.86,454.54,276.48,454.91,276.02,454.91z"/>
					</g>
				</g>
			</g>
		</g>
	</g>
	<path class="st2" d="M138.74,130.85c0.01-0.04,0.01-0.08,0.02-0.12c-1.26-0.01-2.5-0.01-3.73-0.02c-0.25-0.01-0.47-0.01-0.67,0
		c-93.11-0.55-101.67-2.01-103.58-2.06c-0.5-0.01-0.91,0-1.25,0.07c-1.72-0.16-1.88,0.61-1.78,4.36c-0.01,0.25-0.02,0.52-0.03,0.81
		c-0.04,1.13-0.06,1.89,0.12,2.42c0,0.11,0.01,0.22,0.01,0.34c0.47,19.3,7.56,327.05,8.01,331.91c0.06,0.67,0.41,11.89,0.41,11.89
		s0.01,0,0.03,0c-0.05,0.57-0.08,1.23-0.1,2.01c-0.14,3.95-0.06,3.52,8.32,3.58c15.52,0.11,22.2,1.84,106.02,2.35
		c-0.06-0.08-0.17-2.81-0.18-5.74c0.09-0.03,0.15-0.11,0.15-0.2c-0.03-0.66-0.07-1.7-0.11-3.07c0-0.02,0-0.05,0-0.07c0,0,0,0,0,0
		c-0.8-24.75-8.53-329.08-8.57-345.13C141.83,131.98,141.77,131.11,138.74,130.85z M39.33,244.58c0.76,0,1.6,0,2.57,0.01
		c14.95,0.11,20.59,0.72,93.66,1.49c0.86,36.89,1.83,78.07,2.71,114.94c-65.54-1.38-88.74-1.73-96.13-1.85
		C41.21,321.88,40.21,281.11,39.33,244.58z M39.12,235.83c-1.14-46.92-2.06-85.48-2.35-98.35c14.51,0.15,21.08,1.68,96.31,2.23
		c0.57,24.18,1.48,63.58,2.29,97.97C65.9,236.42,45.37,235.98,39.12,235.83z M45.22,477.58c-0.44-13.72-1.57-57.58-2.86-109.63
		c0.64,0,1.34,0,2.11,0.01c14.82,0.1,23.86,1.16,94.01,1.85c1.32,54.88,2.4,98.25,2.57,100.05c0.04,0.46,0.23,6.06,0.33,9.41
		C78.82,478.86,54.69,478.04,45.22,477.58z"/>
	<path class="st4" d="M100.59,188.88c-2.94-5.29-8.72-6.1-13.19-3.23c-4.93,3.17-6.24,9.39-3.85,15.05c0.33,0.79,1.25,0.84,1.7,0.44
		c2.56,3.24,8.96,3.19,11.92,1.69C102.1,200.36,103.43,193.98,100.59,188.88z"/>
	<path class="st4" d="M120.83,188.71c-2.94-5.29-8.72-6.1-13.19-3.23c-4.93,3.17-6.24,9.39-3.85,15.05c0.33,0.79,1.25,0.84,1.7,0.44
		c2.56,3.24,8.96,3.19,11.92,1.69C122.34,200.19,123.67,193.81,120.83,188.71z"/>
	<path class="st5" d="M130.9,194.94c-0.79-0.7-45.07-0.56-55.02-1.6c-0.29-0.03-0.33,0.28-0.18,0.47c-0.07,0.07-0.12,0.17-0.08,0.3
		c1.36,5.07,2.2,10.52,5.63,14.9c3.14,4.01,7.34,5.16,12.05,5.38c2.01,0.09,4.02,0.16,6.03,0.24c-1.4,12.56-2.75,14.51-5.57,23.85
		c-0.06,0.18,0.12,0.39,0.34,0.39c5.86-0.01,11.72-0.02,17.58-0.03c1.35,0,3.25,0.42,3.28-1.32c0.02-1.24-3.43-13.12-4.66-22.51
		c0.42,0.01,0.84,0.03,1.26,0.04c4.87,0.15,10.19,0,13.85-3.17c1.94-1.68,3.03-4.06,3.86-6.48c0.97-2.81,1.67-7.17,2.14-10.15
		C131.46,194.96,131.09,194.8,130.9,194.94z"/>
	<path class="st5" d="M69.2,214.87c-1.7-0.13-3.37-0.11-5.07-0.12c-0.12,0-0.19,0.05-0.24,0.12c-0.06,0.05-0.1,0.13-0.09,0.23
		c0.04,1.38,0.11,2.77,0.22,4.15c0.01,0.18,0.19,0.32,0.36,0.33c1.58,0.07,3.17,0.12,4.75,0.17c0.19,0.01,0.3-0.16,0.3-0.33
		c-0.02-1.43-0.01-2.72,0.13-4.13C69.58,215.09,69.43,214.89,69.2,214.87z"/>
	<path class="st6" d="M74.03,224.25c-0.53-0.23-1.09-0.39-1.64-0.56c-1.14-0.34-1.36-0.41-1.61-1.57c-0.23-1.04-0.25-2.48-0.3-3.54
		c-0.03-0.55-0.15-0.63-0.89-0.66c-1.95-0.08-4.15-0.1-5.87-0.07c-0.15,0-0.23,0.08-0.27,0.19c-0.07,0.04-0.12,0.1-0.13,0.2
		c-0.3,2.42-0.03,4.73-2.83,5.51c-1.4,0.39-2.99,0.42-4.12,1.37c-1.1,0.92-1.4,2.39-1.49,3.81c-0.12,1.95-0.16,4.21,0.22,6.18
		c0.24,1.22,1,1.61,2.17,1.83c2.24,0.43,4.55,0.56,6.79,0.66c5.01,0.23,9.98-0.03,14.94-0.3c0.21-0.01,0.3-0.18,0.29-0.34
		c0.05-0.05,0.09-0.12,0.09-0.22C79.43,232.34,79.08,226.45,74.03,224.25z"/>
	<path class="st7" d="M70.68,228.59c-3.22-0.26-6.42-0.32-9.6-0.17c-0.09,0-0.15,0.04-0.2,0.09c-0.1,0.05-0.17,0.13-0.17,0.27
		c0.02,1.22-0.04,2.42-0.19,3.61c-0.01,0.06,0,0.11,0.02,0.16c0.02,0.16,0.14,0.31,0.34,0.31c2.53,0.02,6.84,0.07,9.36,0.01
		c0.62-0.01,0.58-0.51,0.59-0.67l0.2-3.19C71.05,228.79,70.91,228.61,70.68,228.59z"/>
	<path class="st8" d="M57.63,309.59c-1.11-0.26-2.29-0.33-3.41-0.47c-1.32-0.17-2.19-0.09-3.47-0.26c-0.06-0.01-0.12,0.05-0.11,0.11
		c0.65,9.61,2.27,47.14,2.5,48.36c0.37,2,0.13,1.5,2.13,1.86c1.05,0.19,1.84,0.17,4.12,0.43c3.25,0.38,2.57,0,2.36-4.2
		c-0.48-9.78-1.73-38.68-2.02-41.14C59.53,312.7,59.82,310.11,57.63,309.59z"/>
	<path class="st9" d="M41.91,308.79c0.65,9.61,2.27,47.14,2.5,48.36c0.37,2,0.13,1.5,2.13,1.86c1.05,0.19,1.84,0.17,4.12,0.43
		c3.25,0.38,2.57,0,2.36-4.2c-0.48-9.78-1.73-38.68-2.02-41.14c-0.19-1.59,0.09-4.19-2.1-4.7c-1.11-0.26-2.29-0.33-3.41-0.47
		c-1.32-0.17-2.19-0.09-3.47-0.26C41.96,308.68,41.91,308.73,41.91,308.79z"/>
	<path class="st10" d="M136.74,320.5c-0.83-0.82-1.83-1.52-2.74-2.26c-1.06-0.86-1.88-1.29-2.91-2.13
		c-0.05-0.04-0.13-0.03-0.16,0.02c-4.9,7.8-24.87,37.75-25.37,38.83c-0.81,1.76-0.74,1.24,0.82,2.63c0.82,0.73,1.52,1.15,3.39,2.62
		c2.66,2.1,2.27,1.42,4.48-1.94c5.15-7.84,20.53-30.9,21.67-32.97C136.65,323.96,138.38,322.11,136.74,320.5z"/>
	<path class="st7" d="M123.32,311.15c-4.9,7.8-24.87,37.75-25.37,38.83c-0.81,1.76-0.74,1.24,0.82,2.63
		c0.82,0.73,1.52,1.15,3.39,2.62c2.66,2.1,2.27,1.42,4.48-1.94c5.15-7.84,20.53-30.9,21.67-32.97c0.74-1.34,2.47-3.19,0.83-4.8
		c-0.83-0.82-1.83-1.52-2.74-2.26c-1.06-0.86-1.88-1.29-2.91-2.13C123.43,311.09,123.35,311.1,123.32,311.15z"/>
	<path class="st10" d="M58.77,327.53c2.21,6.2,10.25,30.59,10.63,31.36c0.61,1.25,0.37,0.96,1.67,0.84
		c0.69-0.07,1.17-0.22,2.65-0.47c2.1-0.35,1.59-0.47,0.68-3.19c-2.13-6.35-8.33-25.13-8.97-26.69c-0.42-1.01-0.73-2.77-2.19-2.71
		c-0.74,0.03-1.48,0.2-2.21,0.31c-0.85,0.13-1.38,0.34-2.2,0.46C58.78,327.45,58.76,327.5,58.77,327.53z"/>
	<path class="st11" d="M88.76,130.06c6.46,0.07,31.78,0.97,32.59,0.88c1.33-0.14,1.01-0.01,1.1-1.31c0.05-0.68-0.03-1.2-0.02-2.7
		c0-2.13-0.2-1.69-3.03-1.78c-6.6-0.2-26.08-0.89-27.73-0.82c-1.07,0.04-2.84-0.28-3.02,1.14c-0.09,0.72-0.05,1.49-0.06,2.23
		c-0.02,0.86,0.1,1.44,0.09,2.27C88.67,130.02,88.72,130.06,88.76,130.06z"/>
	<path class="st4" d="M89.17,124.13c6.46,0.07,31.78,0.97,32.59,0.88c1.33-0.14,1.01-0.01,1.1-1.31c0.05-0.68-0.03-1.2-0.02-2.7
		c0-2.13-0.2-1.69-3.03-1.78c-6.6-0.2-26.08-0.89-27.73-0.82c-1.07,0.04-2.84-0.28-3.02,1.14c-0.09,0.72-0.05,1.49-0.06,2.23
		c-0.02,0.86,0.1,1.44,0.09,2.27C89.09,124.09,89.13,124.13,89.17,124.13z"/>
	<path class="st12" d="M105.44,230.58c-3-0.17-6-0.33-9-0.5c-0.13,0.42-0.26,0.85-0.4,1.29c3.61,0.2,7.22,0.4,10.83,0.6
		c2.32,0.13,4.65,0.26,6.97,0.39c-0.1-0.42-0.21-0.87-0.32-1.33C110.82,230.88,108.13,230.73,105.44,230.58z M110.73,217.8
		c-3.91-0.25-7.82-0.42-11.71-0.37c-0.06,0.45-0.12,0.9-0.17,1.32c4.02-0.06,8.06,0.12,12.11,0.37
		C110.88,218.68,110.8,218.24,110.73,217.8z M97.72,225.22c4.83-0.01,9.68,0.18,14.54,0.38c-0.1-0.44-0.19-0.88-0.29-1.32
		c-4.66-0.2-9.33-0.38-13.97-0.38C97.91,224.36,97.81,224.8,97.72,225.22z M78.81,204.87c16.78,0.31,33.57,0.63,50.35,0.94
		c0.04-0.12,0.09-0.25,0.13-0.37c0.1-0.29,0.2-0.61,0.29-0.93c-17.11-0.32-34.21-0.64-51.32-0.96
		C78.43,203.99,78.61,204.44,78.81,204.87z M76.5,197.57c0.11,0.44,0.22,0.88,0.33,1.32c17.99,0.62,36.05,1.43,53.89,0.58
		c0.08-0.45,0.16-0.9,0.24-1.34C112.94,199.03,94.68,198.2,76.5,197.57z M107.89,211.21c-5.12-0.21-10.24-0.64-15.37-1.11
		c-2.5-0.23-5.01-0.45-7.5-0.47c-1.06-0.01-2.12,0.05-3.18,0.09c0.49,0.55,1,1.03,1.54,1.47c2.27-0.06,4.54-0.16,6.77,0.01
		c5.53,0.43,11.06,1.02,16.59,1.27c5.85,0.27,11.69,0.34,17.52,0.32c0.41-0.26,0.8-0.55,1.18-0.87c0.17-0.14,0.32-0.3,0.47-0.45
		C119.91,211.51,113.91,211.46,107.89,211.21z"/>
	<path class="st13" d="M109.65,75.54c-8.69,6.43-17.43,12.79-27.02,17.99c-4.32,2.34-8.69,4.63-12.46,7.75
		c-0.8,0.66-1.56,1.34-2.3,2.05C75.06,92,80.71,79.58,88.97,68.97c3.1-3.98,6.35-7.89,8.23-12.67c0.11-0.27-0.22-0.65-0.5-0.45
		c-9.39,6.74-18.32,14.58-25.44,23.65c-3.35,4.27-5.75,8.97-7.12,14.33c-0.59,2.33-1.05,4.71-1.51,7.08
		c0.44-4.37,0.8-8.75,1.06-13.15c0.65-10.87,0.73-21.81,0.28-32.79c-0.01-0.34-0.5-0.44-0.64-0.17
		c-7.21,14.35-7.65,30.97-6.58,47.44c-1.28-6.46-3.17-12.86-5.67-19.08c-2.06-5.16-4.53-10.2-7.37-15.04
		c-2.69-4.58-5.7-9.09-10.01-12.4c-0.29-0.22-0.6-0.01-0.52,0.32c2.52,10.42,6.32,20.63,11.35,30.35c1.92,3.7,4.21,7.33,6.39,11.02
		c-3.38-2.56-7.44-4.38-11.49-5.23c-9.06-1.92-20.75-0.96-25.34,7.31c-0.17,0.3,0.23,0.57,0.5,0.45c7.34-3.42,16-4.12,24.36-2.17
		c4.09,0.96,8.1,2.55,11.78,4.74c1.64,0.98,3.4,2.17,4.86,3.59c0.7,1.55,1.32,3.11,1.83,4.71c0.15,1.7,0.31,3.39,0.46,5.07
		c0.04,0.42,0.69,0.42,0.66,0c-0.02-0.31-0.05-0.61-0.07-0.92c0,0.02,0.01,0.04,0.01,0.06c0.05,0.27,0.4,0.45,0.59,0.23
		c0.4-0.45,0.78-0.92,1.16-1.39c-0.37,1.49-0.87,2.92-1.55,4.25c-0.19,0.36,0.42,0.69,0.61,0.33c0.91-1.77,1.48-3.7,1.88-5.69
		c0.39-0.48,0.76-0.97,1.14-1.46c3.74-3.2,7.56-6.33,11.88-8.78c4.66-2.65,9.76-4.51,14.68-6.7c4.68-2.09,9.17-4.53,12.89-7.99
		c3.58-3.31,6.39-7.34,8.37-11.82C110.27,75.72,109.92,75.34,109.65,75.54z M58.11,110.81c-0.01-0.05-0.01-0.1-0.02-0.15
		c-0.04-0.5-0.09-1-0.13-1.51c0.18,0.35,0.34,0.7,0.47,1.07c0.09,0.69,0.13,1.4,0.13,2.13C58.42,111.83,58.27,111.32,58.11,110.81z"
		/>
	<path class="st3" d="M74.87,106.8c-5.32-0.55-21.04-0.21-25.25-0.29c-0.51-0.01-0.63,0.44-0.49,0.82
		c-0.03,0.07-0.05,0.16-0.05,0.25c0.08,3.55,0.22,7.1,0.46,10.66c0.17,2.53,0.06,5.4,1,7.87c1.67,4.36,6.66,5,10.56,4.89
		c4.43-0.12,10.21-0.76,12.06-5.1c2.3-5.41,2.53-12.32,2.46-18.29C75.63,107.21,75.35,106.85,74.87,106.8z"/>
	<path class="st1" d="M565.45,186.25H251.23c-1.08,0-1.96-0.88-1.96-1.96v0c0-1.08,0.88-1.96,1.96-1.96h314.22
		c1.08,0,1.96,0.88,1.96,1.96v0C567.42,185.38,566.54,186.25,565.45,186.25z"/>
	<defs>
		<filter id="Adobe_OpacityMaskFilter" filterUnits="userSpaceOnUse" x="206.7" y="94.07" width="328.42" height="87.78">
			<feColorMatrix  type="matrix" values="1 0 0 0 0  0 1 0 0 0  0 0 1 0 0  0 0 0 1 0"/>
		</filter>
	</defs>
	<mask maskUnits="userSpaceOnUse" x="206.7" y="94.07" width="328.42" height="87.78" id="SVGID_1_">
		<g class="st14">
			<rect x="260.62" y="28.63" class="st7" width="254.29" height="157.28"/>
		</g>
	</mask>
	<polygon class="st15" points="206.78,176.72 207.07,176.72 207.07,139.53 224.79,139.53 224.79,113.55 248.7,113.55 248.7,129.79 
		263.16,129.79 263.16,135.69 271.72,135.69 271.72,130.08 281.76,130.08 281.76,118.27 289.73,108.24 303.61,108.24 310.1,118.86 
		310.1,156.06 329.58,156.06 329.58,130.08 363.83,130.08 363.83,137.17 373.27,137.17 373.27,130.67 398.37,130.67 398.37,136.28 
		409.88,136.28 409.88,129.79 412.83,129.79 412.83,102.04 418.14,102.04 418.14,98.2 422.87,94.07 434.09,94.07 437.92,98.2 
		437.92,101.74 442.35,101.74 442.35,130.08 445.01,130.08 445.01,143.66 451.8,143.66 451.8,116.8 473.64,116.8 473.64,133.03 
		481.32,133.03 481.32,120.04 481.32,120.04 481.32,110.89 490.77,110.89 490.77,119.75 493.07,119.75 493.07,126.83 505.23,126.83 
		505.23,132.15 528.55,132.15 528.55,115.03 535.11,115.03 535.11,181.84 206.7,181.84 	"/>
	<g>
		<g>
			<rect x="498.93" y="103.19" class="st16" width="16.24" height="79.78"/>
			<polygon class="st16" points="502.87,104.02 498.96,104.02 498.96,97.54 			"/>
			<polygon class="st16" points="511.28,104.02 515.2,104.02 515.2,97.54 			"/>
		</g>
		<polygon class="st16" points="508.46,39.21 500.86,110.52 512.68,108.94 		"/>
	</g>
	<g>
		<g>
			<path class="st16" d="M394.22,181.7c0,0,2.72-42.53,3.48-48.62c0.76-6.09,3.71-15.31,5.99-15.02c0,0-9.85,1.56-14.35,6.81
				c-4.49,5.25-2.51,8.45-0.8,23.78c1.56,14.01,3.35,32.9,3.35,32.9L394.22,181.7z"/>
			<path class="st16" d="M414.3,113.35c-17.83-2.14-26.46,13.62-26.46,13.62s5.92-6.85,16.47-4.14
				c10.56,2.71,81.71,36.51,81.71,36.51v-6.56C486.02,152.78,436.27,117.2,414.3,113.35z"/>
		</g>
		<path class="st16" d="M374.07,180.52c0,0-3.03-41.35-3.79-47.43c-0.76-6.09-3.71-15.31-5.99-15.02c0,0,9.85,1.56,14.35,6.81
			c4.49,5.25,2.51,8.45,0.8,23.78c-1.56,14.01-3.03,31.72-3.03,31.72L374.07,180.52z"/>
		<path class="st16" d="M353.68,113.35c17.83-2.14,26.46,13.62,26.46,13.62s-5.92-6.85-16.47-4.14
			c-10.56,2.71-103.26,49.89-103.26,49.89v-6.56C260.41,166.17,331.71,117.2,353.68,113.35z"/>
	</g>
	<rect x="347.68" y="26.4" class="st1" width="4.91" height="159.5"/>
	<g>
		<path class="st1" d="M517.88,185.9H258.8V26.4h259.08V185.9z M263.42,181.78h249.85V30.52H263.42V181.78z"/>
	</g>
	<g>
		<g>
			<path class="st17" d="M175.93,210.04c5.28,1.88,4.62,7.3,1.73,12.68c-3.77,7.01-57.74,20.51-61.23,22.3
				c-3.49,1.79-11.92-5.31-8.25-11.89C110.48,229,167.67,207.1,175.93,210.04z"/>
		</g>
		<g>
			<path class="st17" d="M119.21,225.4c-1.22-14.96-7.09-44.95-8.54-46.07c-3.09-2.38-6.7,0.27-6.61,2.84
				c1.04,32.35-3.25,55.13,0.4,60.22c3.14,4.38,6.28,3.94,9.49,3.22C119.16,244.45,120.47,240.88,119.21,225.4z"/>
		</g>
		<g>
			<path class="st18" d="M92.35,158.67c0.58,1.54,9.68,11.69,10.44,13.46c0.9,2.1,0.89,4.62,1.12,6.87c0.06,0.55,0.91,0.5,0.85-0.05
				c-0.01-0.13-0.02-0.26-0.04-0.39c0.01,0,0.02,0,0.04,0c1.97-0.26,6.1-0.34,7.13-2.39c0.34-0.68,0.24-1.55,0.36-2.28
				c0.14-0.88,0.4-1.72,0.7-2.56c0.56-1.53,1.37-2.97,1.84-4.53c0.86-2.84-0.73-5.37-2.17-7.75c-1.97-3.28-2.64-4.85-4.75-8.04
				c-0.02-0.26-5.47-0.11-7.32,0.62c-1.34,0.53-2.65,1.14-3.89,1.88C94.83,154.6,91.42,156.23,92.35,158.67z"/>
			<path class="st19" d="M74.4,118.19c-0.71-0.1-1.44-0.15-2.2-0.12c-0.32,0.01-0.46,0.32-0.4,0.59c0.74,3.41,3.78,5.26,6.74,6.63
				c4.22,1.95,8.89,4.44,13.15,6.28c3,4.92,5.63,9.13,8.63,14.05c6.95,11.38,13.9,22.77,20.85,34.15c0.3,0.49,1.04-0.01,0.74-0.5
				c-6.95-11.38-13.9-22.77-20.85-34.15c-2.78-4.56-5.57-9.12-8.35-13.68c0.46,0.06-0.09-15.45-2.99-21.87
				c-0.13-0.29-0.53-0.43-0.76-0.15c-0.5,0.62-0.83,1.28-1.06,1.97c-0.91-4.85-2.68-9.6-6.5-12.83c-2.05-1.73-3.39-1.09-3.59,1.53
				c-0.13,1.65-0.01,3.27,0.3,4.86c-0.57-0.7-1.19-1.35-1.9-1.93c-1.37-1.14-4.18-3.32-6.1-2.7c-2.9,0.94,0.43,6.27,3.27,10.07
				c-0.33-0.12-0.66-0.22-1.01-0.27c-1.13-0.18-2.75,0.02-3.27,1.21c-0.73,1.67,1.25,3.33,2.29,4.36
				C72.33,116.6,73.34,117.43,74.4,118.19z"/>
			<path class="st18" d="M104.4,149.54c0.07,2.34,1.21,4.19,2.82,5.84c2.49,2.54,5.22,4.59,6.76,7.91c0.05,0.11,0.13,0.17,0.22,0.22
				c-0.01,0.51-0.03,1.01-0.04,1.5c-0.02,0.58,0.88,0.52,0.89-0.05c0.09-3.23,0.19-6.76-1.35-9.71c-0.59-1.13-1.35-1.82-2.43-2.45
				c-2.08-1.19-4.16-2.2-6.12-3.61C104.83,148.96,104.39,149.13,104.4,149.54z"/>
			<path class="st18" d="M91.33,156.88c0.14-1.16,1.05-1.53,2.02-1.56c-0.21-0.45-0.33-0.94-0.31-1.46c0.04-1.24,0.86-1.95,1.8-2.07
				c-0.15-0.23-0.29-0.47-0.4-0.72c-0.67-1.59,0.14-2.66,1.41-2.65c-0.5-0.93-0.71-1.94,0.23-2.41c1.83-0.92,4.34,1.58,5.51,2.65
				c0.76,0.69,3.46,3.04,2.61,4.24c-0.3,0.42-0.79,0.51-1.36,0.41c0.19,0.25,0.37,0.51,0.53,0.78c0.32,0.55,0.46,1.09,0,1.6
				c-0.72,0.78-1.86,0.32-2.68-0.02c-0.1-0.04-0.21-0.09-0.32-0.13c0.85,0.79,1.55,1.68,1.96,2.7c0.26,0.65,0.21,1.33-0.43,1.72
				c-0.39,0.24-0.85,0.23-1.32,0.13c0.5,0.78,0.79,1.76-0.31,2.08c-1.65,0.49-4.37-0.84-5.82-1.58
				C93.15,159.9,91.12,158.6,91.33,156.88z"/>
			<path class="st20" d="M94.37,159.41c0.86,0.35,1.71,0.73,2.58,1.04c0.61,0.22,1.5,0.49,2.04-0.09c0.52-0.56,0.31-1.31,0.03-1.92
				c-1.02-0.44-1.99-1.29-2.81-1.85c-0.47-0.33,0.12-0.99,0.59-0.67c0.78,0.54,1.57,1.07,2.39,1.56c0.99,0.6,2.62,0.41,2.26-1.12
				c-1.54-0.55-2.89-2.02-3.94-3.12c-0.4-0.41,0.19-1.09,0.59-0.67c1.06,1.1,2.81,3.15,4.53,3.13c0.05-0.03,0.12-0.06,0.2-0.07
				c0.9-0.1,1.51-0.72,0.73-1.53c-0.34-0.36-0.71-0.69-1.08-1.02c-0.74-0.66-1.52-1.28-2.32-1.86c-0.47-0.34,0.13-1.01,0.59-0.67
				c0.8,0.58,1.58,1.2,2.32,1.86c0.59,0.53,1.39,1.12,1.73,1.86c0.52,1.11-0.3,1.81-1.25,2.1c-0.05,0.06-0.11,0.11-0.21,0.13
				c-0.32,0.07-0.64,0.09-0.95,0.06c0.1,1.09-0.46,1.89-1.72,2.13c-0.21,0.04-0.43,0.05-0.64,0.03c0.27,1.07,0.06,2.26-1.11,2.73
				c-1.56,0.62-3.58-0.68-4.98-1.24C93.43,159.99,93.84,159.19,94.37,159.41z"/>
			<path class="st18" d="M102.08,196.93c2.41-0.1,4.78-0.63,7.19-0.76c2.27-0.12,4.53,0.5,6.78,0.14c0.29-0.05,0.49-0.29,0.4-0.59
				c-0.75-2.38,0.23-4.49-0.06-6.85c-0.27-2.17-1.29-4.16-1.58-6.33c-0.31-2.34,0.28-4.66,0.02-6.97c-0.28-2.5-1.53-4.38-0.93-7.05
				c0.13-0.56-0.75-0.75-0.88-0.18c-0.25,1.1-0.24,2.03-0.1,2.94c-0.88-0.71-2.93-0.6-3.96-0.91c-2.27-0.66-3.89-2.11-6.01-2.99
				c-0.19-0.08-0.39-0.05-0.54,0.1c-0.43,0.45-0.29,0.48-0.39,1.06c-0.2,1.13-0.26,2.29-0.51,3.45c-0.48,2.21,0.32,4.34,0.23,6.56
				c-0.09,2.21-1.48,4.05-1.66,6.24c-0.18,2.23,0.49,4.28,0.1,6.54C99.71,193.92,98.31,197.09,102.08,196.93z"/>
			<path class="st20" d="M104.17,159.63c3.54,3.51,6.54,8.02,5.1,13.2c-0.15,0.55-1.03,0.37-0.88-0.18
				c1.36-4.89-1.49-9.05-4.82-12.35C103.17,159.9,103.76,159.22,104.17,159.63z"/>
		</g>
		<path class="st17" d="M192.59,212.1L192.59,212.1c-7.06,0-12.78-5.72-12.78-12.78v-29.3h25.57v29.3
			C205.38,206.37,199.65,212.1,192.59,212.1z"/>
		<path class="st21" d="M200.67,184.13c-3.59-0.75-8.04-0.53-10.16-0.42c-3.58,0.19-7.23,0.66-10.52,2.08
			c-0.05,0.02-0.12,0.05-0.17,0.07l-0.07,9.71c4.02,3.11,8.51,3.09,14.19,1.86c0.75-0.16,1.71-0.44,2.76-0.81
			c2.38-0.85,3.96-3.13,3.96-5.66V184.13z"/>
		<path class="st17" d="M192.18,129.95c-26.91,0.43-24.4,22.27-24.32,23.33c0.79,11.55,0.43,22.07,4.99,29.94
			c2.83,4.88,9.51,12.01,17.54,12.14c6.63,0.11,11.91-2.54,15.39-7.2c6.21-8.33,8.45-14.64,9.44-35.86
			C215.85,138.61,221.17,129.48,192.18,129.95z"/>
		<path class="st5" d="M173.28,157.13c2.16-0.1,9.03,0.09,9.94-0.56c2.02-1.44-1.09-2.96-2.16-3.25c-2.83-0.77-5.75-0.35-8.37,0.92
			c-0.31,0.15-0.75,0.56-1.03,1.08C171.04,156.48,171.6,157.21,173.28,157.13z"/>
		<path class="st5" d="M205.94,156.34c-2.16-0.1-9.03,0.09-9.94-0.56c-2.02-1.44,1.09-2.96,2.16-3.25c2.83-0.77,5.75-0.35,8.37,0.92
			c0.31,0.15,0.75,0.56,1.03,1.08C208.18,155.69,207.63,156.41,205.94,156.34z"/>
		<path class="st17" d="M216.45,161.22c-3.65-2.28-5.93,4.79-6.76,7.04c-0.52,1.41,1.55,2.37,2.13,1.05
			c-0.18,0.41-0.36,0.83-0.54,1.24c-0.62,1.42-1.89,3.43-0.79,4.93c2.15,2.93,6.51-1.74,7.58-3.83
			C220.48,166.92,219.4,163.07,216.45,161.22z"/>
		<g>
			<g>
				<g>
					<path class="st22" d="M244.17,344.01c0,0,2.35,6.56,2.73,8.04c0.21,0.8,1.72,6.56,3.12,8.67c1.17,1.76,2.61,1.7,2.61,1.7
						c-0.06-0.19-0.42-12.08-0.9-13.08C251.26,348.34,244.17,344.01,244.17,344.01z"/>
				</g>
			</g>
			<g>
				<g>
					<path class="st17" d="M240.15,338.44c-0.19,1.43,4.25,14.55,5.06,16.61c0.5,1.27,2.22,0.65,2.26,0.02
						c0.13-1.89-0.77-8-0.9-8.73C246.44,345.61,240.5,335.84,240.15,338.44z"/>
				</g>
			</g>
			<g>
				<g>
					<path class="st17" d="M240.54,339.44c-1.71-3.26,2.82-7.76,8.25-2.22c1.52,1.55,6.07,10.58,6.76,11.85
						c0.69,1.28-0.85,11.99-1.14,12.8c-0.3,0.81-1.88,0.67-2.1,0.39c-0.4-0.52-0.9-10.04-1.24-11.9
						C250.93,349.54,241.92,342.07,240.54,339.44z"/>
				</g>
			</g>
		</g>
		<g>
			<path class="st17" d="M226.44,209.74c-4.38-3.5-8.64-0.08-11.68,5.21c-3.97,6.9,13.02,59.88,13.33,63.79
				c0.32,3.91,10.8,7.33,14.45,0.74C244.83,275.35,233.29,215.21,226.44,209.74z"/>
		</g>
		<g>
			<path class="st17" d="M246.37,291.13c1.78,14.9,1.98,45.47,0.78,46.84c-2.55,2.94-6.62,1.07-7.05-1.47
				c-5.41-31.92-14.14-53.39-11.56-59.1c2.21-4.91,5.37-5.11,8.67-5.04C242.54,272.48,244.53,275.71,246.37,291.13z"/>
		</g>
		<g>
			<path class="st23" d="M184.66,495.98c0,0-12.98,9.92-19.74,12.31c-6.76,2.39-11.23,1.19-12.78,3.38
				c-1.55,2.19,4.03,4.78,11.98,4.18c7.96-0.6,18.7-3.38,22.68-3.98c3.98-0.6,8.95,0,10.15-0.99c1.19-0.99-2.48-13.5-2.59-15.52
				c-0.11-2.02-2.58-3.38-5.17-3.38S185.3,493.62,184.66,495.98z"/>
		</g>
		<g>
			<path class="st17" d="M182.82,200.55c0,0-21.25,7.11-22.49,7.96c-1.24,0.85,4.51,37.26,5.24,41.24
				c0.74,3.98,2.22,30.33,2.52,32.25c0.29,1.92,26.55,13.88,45.94,2.39c0,0,2.53-37.29,3.26-41.25c0.74-3.96,8.15-34.38,8.15-34.38
				l-24.01-8.56L182.82,200.55z"/>
		</g>
		<g>
			<path class="st17" d="M221.13,310.29c0,0,4.63,15.19,6.9,29.39c1.7,10.69,3.22,64.79,4.03,70.86c0.81,6.07,2.87,17.62-4.38,18.5
				c-7.26,0.89-12.62-4.59-14.77-13.77c-2.14-9.19-15.7-71.78-18.09-81.17C192.42,324.7,209.71,296.01,221.13,310.29z"/>
		</g>
		<g>
			<path class="st17" d="M221.94,406.62c0,0,18.73,10.95,26.56,20.91c7.83,9.95,25.86,35.62,28.33,38.18
				c2.47,2.56,3.96,5.08,2.13,7.9c-1.83,2.82-3.69,3.83-7.65,0.3c-3.96-3.54-50.91-46.89-56.95-51.28
				C202.06,413.65,210.82,402.3,221.94,406.62z"/>
		</g>
		<g>
			<path class="st23" d="M167.94,280.37c0,0-6.46,23.64-7.61,29.74c-1.14,6.1,26.46,18.22,32.05,18.08
				c7.89-0.2,18.98-6.26,25.79-10.6c6.81-4.34,5.88-2.74,5.68-5.29c-0.2-2.55-8.59-31.57-9.82-33.21
				C212.81,277.45,179.54,262.49,167.94,280.37z"/>
		</g>
		<g>
			<path class="st17" d="M161.38,309.95c0,0-1.38,15.82-0.65,30.18c0.55,10.81,10.29,64.05,10.75,70.15
				c0.46,6.1,0.84,17.83,8.13,17.19c7.29-0.64,11.4-7.11,11.59-16.54c0.19-9.43,0.47-73.47,0.86-83.16
				C192.45,318.09,169.59,293.61,161.38,309.95z"/>
		</g>
		<g>
			<path class="st17" d="M174.15,411.17c0,0-3.61,21.39-1,33.79c2.61,12.39,10.74,42.69,11.12,46.23c0.38,3.54,1.35,6.29,4.69,6.7
				c3.34,0.41,5.31-0.37,5.13-5.68c-0.18-5.31-3.31-69.14-2.81-76.59C192.3,400.43,177.97,399.86,174.15,411.17z"/>
		</g>
		<g>
			<path class="st24" d="M163.03,295.93c-4.41,12.17-3.18,36.17-3.18,36.17c25.74-0.17,31.99,6.5,31.99,6.5h4.05
				c4.85-5.99,30.45-7.56,30.45-7.56s-0.3-6.17-0.89-12.21c-1.67-17.02-3.8-20.76-4.76-22.9H163.03z"/>
		</g>
		<g>
			<path class="st5" d="M212.06,142.78c-3.82-5.59-31.38-7.46-39.59-1.24c-3.91,3.78-3.21,18.11-3.55,24.76
				c0.06-1.09-1.4-3.19-1.79-4.2c-0.81-2.1-1.74-4.25-1.99-6.53c-0.1-0.91-0.12-1.83-0.27-2.74c-0.33-1.95-1.29-3.75-1.65-5.69
				c-1.4-7.39,4.31-15.71,9.77-20.2c2.29-1.88,3.78-4.2,6.77-4.96c3.02-0.77,6.19-0.67,9.26-1.1c2.16-0.31,4.38-0.89,6.47-0.28
				c1,0.29,1.9,0.85,2.9,1.13c1.4,0.39,2.89,0.22,4.34,0.18c4.51-0.14,7.61,1.83,11.31,4.03c4,2.37,6.36,7.45,7.28,11.86
				c0.37,1.77,0.55,3.58,0.87,5.36c0.26,1.47,0.61,2.93,0.68,4.42c0.18,3.87-1.55,7.46-3.54,10.68c-0.36,0.58-4.25,7.44-5.39,5.31
				C212.94,161.68,214.01,147.01,212.06,142.78z"/>
		</g>
		<g>
			<path class="st5" d="M218.38,113.48c-6.8-3.38-14.91,12.39-6.66,16.06c0.43,4.24,2.87,9.53,6.1,9.63
				c2.19,5.43,8.04,8.66,11.58,2.85c0.03,0,0.07,0.01,0.1,0c1.88-0.09,3.77-0.94,5.17-2.21c0.45-0.42,0.85-0.9,1.18-1.42
				c1.58,0.05,3.17-0.68,4.24-2.51c0.96-1.64,0.83-4.24,0.12-6.51c2.99-2.34,3.03-8.12-0.84-10.38c-0.08-5.04-5.04-8.45-8.87-6.59
				C227.48,108.79,221.39,109.84,218.38,113.48z"/>
		</g>
		<g>
			<path class="st5" d="M166.07,113.88c6.8-3.38,14.91,12.39,6.66,16.06c-0.43,4.24-2.87,9.53-6.1,9.63
				c-2.19,5.43-8.04,8.66-11.58,2.85c-0.03,0-0.07,0.01-0.1,0c-1.88-0.09-3.77-0.94-5.17-2.21c-0.45-0.42-0.85-0.9-1.18-1.42
				c-1.58,0.05-3.17-0.68-4.24-2.51c-0.96-1.64-0.83-4.24-0.12-6.51c-2.99-2.34-3.03-8.12,0.84-10.38c0.08-5.04,5.04-8.45,8.87-6.59
				C156.97,109.19,163.06,110.24,166.07,113.88z"/>
		</g>
		<g>
			<g>
				<g>
					<path class="st4" d="M165.41,284.61c0,0-8.04,19.51-7.94,41.09c0.05,9.99,11.56,20.35,34.47,20.55
						c22.91,0.2,34.66-11.55,35.8-15.29c1.14-3.73-3.17-21.74-4.51-27.57c-1.33-5.83-7.02-19.02-7.02-19.02
						S189.43,289.28,165.41,284.61z"/>
				</g>
			</g>
		</g>
		<g>
			<g>
				<g>
					<path class="st4" d="M227.43,324.49c1.45,3.59,1.48,8.22,1.9,11.99c1.51,13.63,1.05,27.17,1.82,40.89
						c0.32,5.67,0.63,11.34,0.95,17.01c0.2,3.58,1.81,10.62-0.59,13.81c-0.4,0.53-1.01,0.85-1.6,1.14c-2.83,1.43-5.79,2.9-8.96,2.96
						c-2.3,0.05-4.58-0.65-6.87-0.51c-1.61,0.1-3.33,0.58-4.76-0.17c-3.76-2-3.54-12.36-4.09-15.88
						c-2.71-17.26-6.14-34.26-9.04-51.51C196.19,344.22,205.11,313.41,227.43,324.49z"/>
				</g>
			</g>
		</g>
		<g>
			<path class="st4" d="M192.82,342.37c-2.1-5.6-6.78-10.87-10.92-14.5c-7.31-6.4-16.4-7.76-24.43-1.69
				c-0.57,0.43,0.2,7.02,0.24,7.79c0.21,4.39,0.65,8.76,1.23,13.11c1.17,8.73,2.93,17.36,4.69,25.99c0.45,2.2,0.9,4.41,1.35,6.61
				c0.51,2.49,1.02,4.98,1.64,7.45c0.21,0.85,0.44,1.7,0.46,2.58c0.02,0.72-0.11,1.44-0.15,2.15c-0.05,0.9,0.04,1.8,0.13,2.69
				c0.34,3.47,0.68,6.94,1.03,10.41c0.22,2.22,0.18,6.19,2.47,7.51c1.4,0.8,3.14,0.15,4.75,0.1c2.25-0.07,4.4,1.06,6.65,1.06
				c1.06,0,2.1-0.25,3.13-0.51c2.25-0.55,4.5-1.1,6.75-1.65c0.51-0.12,1.05-0.27,1.41-0.65c0.43-0.45,0.5-1.12,0.55-1.74
				c0.79-10.29,0.25-20.61-0.1-30.91c-0.35-10.05,0.35-20.09,0.27-30.16C193.94,346.14,193.52,344.24,192.82,342.37z M188.88,393.21
				h-17.46v-2.63h17.46V393.21z M191.1,396.27h-17.46v-1.31h17.46V396.27z"/>
		</g>
		<g>
			<g>
				<g>
					<path class="st25" d="M189.52,291.46c0-1.23-0.94-2.23-2.1-2.23c-1.16,0-2.1,1-2.1,2.23c0,1.23,0.94,2.24,2.1,2.24
						C188.58,293.7,189.52,292.69,189.52,291.46z"/>
				</g>
			</g>
		</g>
		<path class="st26" d="M195.99,497.55c-0.32-0.8-0.68-1.65-1.1-2.53c0,0-9.42-2.69-11.5-1.21c-1.44,1.03-3.01,2.07-4.33,3.21
			c-2.2,1.88-3.98,3.96-6.77,5.03c-2.95,1.13-5.96,2.01-8.92,3.15c-2.67,1.03-5.59,1.17-8.44,1.33c-2.47,0.14-5.12,0.36-7.05,1.92
			c-0.69,0.56-1.28,1.32-1.42,2.2c-0.2,1.28,0.6,2.55,1.66,3.28s2.36,1.05,3.61,1.35c2.23,0.53,4.46,1.06,6.7,1.59
			c2.18,0.52,4.38,1.04,6.63,1.11c2.3,0.07,4.58-0.33,6.86-0.61c3.53-0.44,7.09-0.6,10.64-0.65c3.18-0.05,6.36-0.75,9.51-0.28
			c1.26,0.19,2.59,0.51,3.76,0.01c1.48-0.63,2.16-2.32,2.6-3.87c0.22-0.79,0.43-1.61,0.29-2.42c-0.13-0.73-0.52-1.37-0.8-2.05
			c-0.75-1.82,0.03-3.39-0.3-5.12c-0.34-1.76-0.9-3.36-1.63-4.98c-0.71-1.59-0.55-3.05-0.49-4.8c0.01-0.16,0.01-0.34-0.08-0.47
			c-0.15-0.25-0.51-0.28-0.8-0.23c-0.7,0.12-1.31,0.52-1.96,0.81c-2.01,0.92-4.44,0.87-6.41-0.14c-0.48-0.25-0.94-0.55-1.46-0.69
			c-0.52-0.14-1.14-0.09-1.51,0.3c-0.25,0.26-0.35,0.61-0.5,0.94c-1.04,2.39-4.25,3.31-5.13,5.76"/>
		<g>
			<g>
				<g>
					<path class="st7" d="M271.94,479.64c-0.59,1.59,1.87,2.51,2.47,0.92C275,478.97,272.53,478.05,271.94,479.64z"/>
				</g>
				<g>
					<path class="st7" d="M271.07,473.8c-0.59,1.59,1.87,2.51,2.47,0.92C274.13,473.14,271.67,472.22,271.07,473.8z"/>
				</g>
			</g>
			<path class="st26" d="M289.4,468.57c-4.93-2.99-10.77-4.45-16.53-4.15c-0.5,0.03-1.02,0.08-1.42,0.37
				c-1.21,0.87-0.35,2.93-1.15,4.19c-0.24,0.39-0.63,0.67-0.9,1.03c-0.68,0.92-0.41,3.36-0.41,4.55c0,2.13,1.34,3.87,2.2,5.73
				c0.94,2.02,1.26,4.27,1.56,6.48c0.37,2.65,0.71,5.49-0.47,7.89c-0.71,1.44-1.92,2.6-2.58,4.07c-1.13,2.53-0.43,5.54-1.36,8.15
				c-0.62,1.74-1.97,3.56-1.2,5.25c0.51,1.14,1.89,1.7,3.13,1.56s2.34-0.85,3.27-1.68c2.1-1.88,3.5-4.4,4.84-6.88
				c1.94-3.6,3.83-7.25,5.26-11.08c0.81-2.18,1.48-4.44,2.59-6.48c0.78-1.43,1.77-2.73,2.56-4.15c1.54-2.77,2.29-5.89,3.02-8.97
				c0.27-1.14,0.54-2.37,0.1-3.45c-0.41-1.02-1.36-1.71-2.29-2.28C289.54,468.66,289.47,468.62,289.4,468.57z"/>
		</g>
		<g>
			<path class="st27" d="M213.88,261.27c0.21,0.09,0.45,0.14,0.67,0.18c4.59,0.77,9.34-0.17,13.65-1.91
				c4.85-1.99,8.38-5.52,13.02-7.95c0.63-0.33,1.29-0.69,1.64-1.3c0.46-0.81,0.26-1.83,0.05-2.74c-1.87-7.88-3.75-15.78-6.21-23.5
				c-1.29-4.06-3.28-7.13-5.6-10.57c-1.97-2.92-4.13-5.43-7.91-3.48c-3.26,1.69-5.3,5.61-6.8,8.79c-0.78,1.65-2.44,4.38-2.44,6.27
				c0,11.5,0.79,23.32-0.67,34.65c-0.05,0.41-0.09,0.86,0.15,1.2C213.54,261.07,213.7,261.19,213.88,261.27z"/>
		</g>
		<g>
			<path class="st27" d="M143.59,253.02c-0.23-0.01-0.46-0.03-0.69-0.04c-0.57-0.03-1.16-0.07-1.65-0.36
				c-0.65-0.38-0.99-1.11-1.29-1.8c-1.1-2.48-1.97-5.51-3.45-7.78c-1.11-1.7-2.76-2.91-3.65-4.86c-0.81-1.77-1-3.75-1.18-5.69
				c-0.3-3.23-0.61-6.47-0.91-9.7c-0.05-0.52-0.1-1.07,0.07-1.57c0.22-0.67,0.79-1.16,1.34-1.61c1.35-1.11,2.72-2.25,4.35-2.88
				c1.33-0.52,2.77-0.68,4.17-0.94c5.65-1.05,10.83-3.66,16.27-5.42c4.31-1.4,11.43-3.22,15.66-0.68c2.05,0,2.81,4.35,2.84,5.7
				c0.05,2.55-0.66,5.19-1.71,7.48c-2.48,5.43-2.26,12.7-2.96,18.66c-0.14,1.22-0.3,2.46-0.85,3.55c-0.74,1.46-2.11,2.49-3.47,3.4
				c-3.39,2.28-7.11,4.27-11.16,4.81c-2.13,0.28-4.3,0.16-6.45,0.03C147.12,253.22,145.36,253.12,143.59,253.02z"/>
		</g>
		<g>
			<path class="st28" d="M174.68,203.3c0,0-14,3.8-20.32,7.63c-1.69,1.02-0.5,36.96,3.1,52.4c0,5.39,0.34,10.88,1.27,16.19
				c0.47,2.67,0.99,6.43,3.02,8.46c1.75,1.75,4.09,0.75,6.38,1.11c3.14,0.5,6.11,1.86,9.33,1.84c2.77-0.02,5.41-1.08,8.11-1.68
				c5.56-1.22,11.34-0.44,16.96,0.45c3.09,0.49,6.2,1.01,9.32,0.78c3.45-0.26,7.25-1.56,8.82-4.94c1.77-3.84,0.01-8.28,1.29-12.17
				c0.37-1.14,1.05-2.15,1.59-3.22c1-1.99,1.51-4.19,1.88-6.39c1.84-11.06,1.49-22.92,2.04-34.15c0.22-4.56,0.45-9.12,0.55-13.68
				c0.04-1.84,0.5-4.44-0.14-6.22c-0.32-0.89-16.64-6.41-16.64-6.41S188.16,216.94,174.68,203.3z"/>
		</g>
		<g>
			<g>
				<path class="st29" d="M186.82,157.23c0.16,1.66,0.36,3.33,0.45,4.99c0.13,2.43-0.45,4.13-1.37,6.31
					c-0.65,1.55-1.21,3.2,0.15,4.54c2.95,2.91,7.37-0.13,8.25-3.34c0.15-0.55-0.7-0.78-0.85-0.23c-0.25,1.29-0.93,2.3-2.05,3.05
					c-4.34-0.83-5.77-2.3-4.28-4.43c0.19-1.03,0.82-1.95,0.99-3.06c0.37-2.56-0.16-5.28-0.4-7.83
					C187.65,156.67,186.77,156.67,186.82,157.23L186.82,157.23z"/>
			</g>
		</g>
		<g>
			<path class="st5" d="M180.98,160.61c0,0.84,0,1.69-0.21,2.5c-0.2,0.81-0.63,1.6-1.33,2.07c-0.7,0.47-1.68,0.55-2.36,0.06
				c-0.71-0.52-0.92-1.48-1.05-2.36c-0.1-0.64-0.19-1.31,0.06-1.91c0.1-0.24,0.38-0.48,0.58-0.32c0.1,0.08,0.12,0.22,0.12,0.34
				c0.07,1.15-0.06,2.43,0.68,3.31c0.21,0.24,0.5,0.45,0.82,0.43c0.14-0.01,0.28-0.06,0.42-0.12c0.37-0.18,0.68-0.48,0.88-0.83
				c0.6-1.07,0.14-2.49,0.69-3.59c0.1-0.19,0.3-0.39,0.49-0.29c0.06,0.03,0.1,0.1,0.14,0.16c0.19,0.34,0.22,0.77,0.08,1.14"/>
			<g>
				<path class="st5" d="M180.53,160.61c0,1.11,0.01,2.31-0.55,3.3c-0.7,1.24-2.45,1.76-3.16,0.24c-0.35-0.75-0.58-2.06-0.46-2.83
					c-0.11,0.72,0.04,1.77,0.3,2.46c0.44,1.17,1.54,1.83,2.64,1.01c0.6-0.45,0.91-1.1,1.03-1.82c0.07-0.43,0.07-0.87,0.1-1.3
					c0.02-0.3,0.06-0.58,0.12-0.88c0.06-0.31,0.29-0.77,0.01,0.3c-0.15,0.56,0.72,0.8,0.87,0.24c0.17-0.62,0.07-2.14-0.96-1.86
					c-0.99,0.27-0.91,1.94-0.97,2.71c-0.04,0.57-0.08,1.12-0.44,1.58c-0.58,0.74-1.27,0.5-1.58-0.36c-0.25-0.71-0.17-1.49-0.22-2.23
					c-0.05-0.72-0.64-1.4-1.33-0.72c-0.75,0.74-0.42,2.27-0.22,3.16c0.25,1.15,0.86,2.22,2.12,2.4c3.02,0.44,3.6-3.24,3.6-5.39
					C181.44,160.03,180.54,160.03,180.53,160.61L180.53,160.61z"/>
			</g>
		</g>
		<g>
			<path class="st5" d="M203.98,159.4c-0.06,0.96-0.12,1.92-0.41,2.83s-0.83,1.78-1.66,2.27s-1.96,0.51-2.69-0.1
				c-0.78-0.64-0.94-1.75-1.04-2.76c-0.07-0.73-0.12-1.51,0.2-2.17c0.13-0.26,0.46-0.52,0.68-0.32c0.11,0.1,0.12,0.26,0.12,0.4
				c0,1.31-0.24,2.76,0.55,3.81c0.22,0.29,0.54,0.54,0.91,0.55c0.17,0,0.33-0.04,0.48-0.11c0.43-0.18,0.81-0.49,1.06-0.89
				c0.75-1.18,0.33-2.83,1.03-4.04c0.12-0.21,0.37-0.42,0.58-0.3c0.07,0.04,0.11,0.12,0.15,0.19c0.2,0.4,0.2,0.89,0.01,1.3"/>
			<g>
				<path class="st5" d="M203.68,159.4c-0.08,1.29-0.15,2.71-0.89,3.83c-0.97,1.45-3.23,1.99-3.99,0.02
					c-0.27-0.7-0.74-2.92-0.08-3.51c0.39-0.35,0.16,0.29,0.15,0.55c-0.01,0.24-0.02,0.49-0.02,0.73c0,0.44,0.02,0.89,0.12,1.32
					c0.31,1.38,1.44,2.39,2.76,1.47c0.6-0.42,0.95-1.06,1.12-1.77c0.09-0.37,0.12-0.75,0.16-1.13c0.04-0.33,0.02-0.84,0.17-1.14
					c0.19-0.36,0.77-0.69,0.47,0.23c-0.12,0.37,0.46,0.53,0.58,0.16c0.18-0.54,0.25-2.09-0.74-1.89c-0.94,0.19-1,1.96-1.08,2.64
					c-0.08,0.63-0.13,1.31-0.49,1.86c-0.33,0.69-0.79,0.82-1.38,0.39c-0.59,0.02-0.91-0.25-0.96-0.81c-0.26-0.94,0.04-1.86-0.1-2.8
					c-0.09-0.63-0.57-1.04-1.15-0.5c-0.86,0.8-0.51,2.69-0.3,3.69c0.25,1.15,0.87,2.16,2.11,2.37c3.22,0.55,3.99-3.41,4.14-5.72
					C204.31,159.01,203.71,159.01,203.68,159.4L203.68,159.4z"/>
			</g>
		</g>
		<g>
			<path class="st9" d="M190.49,181.93c0.69,0.2,1.44,0.19,2.13-0.02c0.64-0.19,1.21-0.55,1.75-0.94c0.58-0.43,1.13-0.9,1.63-1.42
				c0.45-0.46,0.87-0.96,1.39-1.32c0.15-0.11,0.33-0.21,0.51-0.21c0.35-0.01,0.64,0.33,0.69,0.67c0.05,0.35-0.08,0.69-0.22,1.01
				c-0.98,2.13-3,3.75-5.29,4.25c-0.88,0.19-1.83,0.22-2.64-0.17c-0.45-0.21-0.87-0.62-0.87-1.12s0.66-0.93,1.03-0.59"/>
		</g>
		<g>
			<g>
				<path class="st30" d="M165.47,285.82c4.11,3.26,9.03,3.35,14.01,2.35c4.74-0.95,9.13-2.61,14.05-2.67
					c4.8-0.06,9.55,1.03,14.21,2.06c0.4,0.09,0.57-0.53,0.17-0.62c-5.92-1.3-11.97-2.62-18.06-1.83
					c-7.96,1.03-16.58,6.07-23.93,0.25C165.61,285.11,165.15,285.56,165.47,285.82L165.47,285.82z"/>
			</g>
		</g>
		<g>
			<g>
				<path class="st30" d="M206.22,284.64c2.3,0.65,4.63,0.73,6.97,0.26c0.4-0.08,0.23-0.7-0.17-0.62c-2.24,0.45-4.44,0.36-6.63-0.26
					C206,283.91,205.83,284.52,206.22,284.64L206.22,284.64z"/>
			</g>
		</g>
		<g>
			<g>
				<path class="st30" d="M166.63,283.77c2.32,0.75,4.68,1.15,7.12,1.21c0.41,0.01,0.41-0.63,0-0.64c-2.38-0.06-4.69-0.46-6.95-1.19
					C166.41,283.02,166.24,283.64,166.63,283.77L166.63,283.77z"/>
			</g>
		</g>
		<g>
			<g>
				<path class="st30" d="M143.6,216.74c-1.59,3.83-2.97,7.86-1.35,11.91c0.15,0.38,0.77,0.21,0.62-0.17
					c-1.58-3.95-0.19-7.85,1.35-11.56C144.38,216.53,143.76,216.36,143.6,216.74L143.6,216.74z"/>
			</g>
		</g>
		<g>
			<g>
				<path class="st30" d="M140.15,218.37c-2.05,4.65-4.52,11.45-1.53,16.2c0.22,0.35,0.77,0.03,0.55-0.32
					c-2.83-4.51-0.43-11.13,1.53-15.56C140.86,218.32,140.31,217.99,140.15,218.37L140.15,218.37z"/>
			</g>
		</g>
		<g>
			<g>
				<path class="st30" d="M236.97,240.07c-3.47,3.1-5.97,6.96-7.4,11.38c-0.07,0.23,0.17,0.47,0.39,0.39
					c2.47-0.84,4.79-1.93,7.02-3.27c0.35-0.21,0.03-0.77-0.32-0.55c-2.18,1.32-4.46,2.38-6.87,3.21c0.13,0.13,0.26,0.26,0.39,0.39
					c1.4-4.32,3.86-8.07,7.24-11.1C237.73,240.25,237.27,239.8,236.97,240.07L236.97,240.07z"/>
			</g>
		</g>
		<g>
			<g>
				<path class="st30" d="M237.63,244.55c-1.32,1.35-2.72,2.62-4.18,3.81c-0.32,0.26,0.14,0.71,0.45,0.45
					c1.46-1.19,2.85-2.47,4.18-3.81C238.37,244.7,237.92,244.25,237.63,244.55L237.63,244.55z"/>
			</g>
		</g>
		<g>
			<g>
				<path class="st30" d="M167.16,256.91c9.11-0.67,18.23-0.9,27.36-0.69c0.41,0.01,0.41-0.63,0-0.64
					c-9.14-0.21-18.25,0.02-27.36,0.69C166.75,256.3,166.75,256.94,167.16,256.91L167.16,256.91z"/>
			</g>
		</g>
		<g>
			<g>
				<path class="st30" d="M167.16,259.3c1.86-0.13,3.73-0.27,5.59-0.4c0.41-0.03,0.41-0.67,0-0.64c-1.86,0.13-3.73,0.27-5.59,0.4
					C166.75,258.68,166.75,259.33,167.16,259.3L167.16,259.3z"/>
			</g>
		</g>
		<g>
			<g>
				<path class="st30" d="M227.5,211.72c-6.52,9.98-6.86,21.72-6.84,33.27c0,0.41,0.64,0.41,0.64,0
					c-0.02-11.44,0.3-23.06,6.75-32.95C228.28,211.7,227.73,211.37,227.5,211.72L227.5,211.72z"/>
			</g>
		</g>
		<g>
			<g>
				<path class="st30" d="M155.75,212.85c5.01,5.25,6.16,16.28,6.81,23.15c0.04,0.41,0.68,0.41,0.64,0c-0.69-7.31-1.7-18.05-7-23.61
					C155.92,212.09,155.47,212.55,155.75,212.85L155.75,212.85z"/>
			</g>
		</g>
		<g>
			<g>
				<path class="st30" d="M174.27,207.5c7.75,6.6,20.02,6.01,29.34,3.9c0.4-0.09,0.23-0.71-0.17-0.62
					c-9.03,2.05-21.17,2.69-28.72-3.73C174.41,206.78,173.96,207.23,174.27,207.5L174.27,207.5z"/>
			</g>
		</g>
		<g>
			<path class="st26" d="M185.28,231.75c-2.25-1.64-4.93-2.79-7.71-2.91c-2.78-0.12-5.67,0.87-7.54,2.94
				c-0.83,0.92-1.47,2.15-1.2,3.36c0.23,1.06,1.09,1.86,1.93,2.55c5.74,4.78,12.84,9.05,14.83,16.25
				c3.03-8.46,12.99-12.12,18.42-19.27c1.12-1.47,2.07-3.22,1.96-5.07c-0.22-3.48-4.16-5.64-7.64-5.57c-5.33,0.11-10,3.74-13.2,8.01
				"/>
		</g>
		<g>
			<g>
				<path class="st31" d="M188.48,299.4c0.56,11.28,1.12,22.55,1.67,33.83c0.01,0.27,0.44,0.28,0.43,0
					c-0.56-11.28-1.12-22.55-1.67-33.83C188.9,299.12,188.47,299.12,188.48,299.4L188.48,299.4z"/>
			</g>
		</g>
		<g>
			<g>
				<path class="st31" d="M166.5,344.23c4.06,0.31,8.09,0.83,12.08,1.64c0.87,0.18,4.08,0.4,4.55,1.14
					c0.14,0.22-1.33,1.12-1.63,1.37c-0.21,0.18,0.09,0.48,0.3,0.3c0.85-0.5,1.7-0.99,2.55-1.49c0.19-0.07,0.22-0.35,0-0.41
					c-5.87-1.53-11.8-2.53-17.84-2.99C166.22,343.78,166.22,344.21,166.5,344.23L166.5,344.23z"/>
			</g>
		</g>
		<g>
			<g>
				<path class="st31" d="M217.94,341.34c-2.57-0.33-5.36,0.87-7.73,1.71c-2.8,0.99-5.49,2.22-8.12,3.61c-0.14,0.07-0.14,0.3,0,0.37
					c2.06,1,3.98,1.03,6.25,0.88c3.75-0.24,7.14,0.05,10.82,0.89c0.27,0.06,0.38-0.35,0.11-0.41c-2.32-0.53-4.66-1.07-7.05-1.12
					c-1.76-0.04-6.53,1.17-8.05,0.11c-1.69-1.18,0.24-1.45,1.29-1.94c1.41-0.65,2.84-1.25,4.3-1.78c2.46-0.9,5.56-2.23,8.17-1.89
					C218.21,341.8,218.21,341.38,217.94,341.34L217.94,341.34z"/>
			</g>
		</g>
		<g>
			<g>
				<path class="st31" d="M166.11,353.11c5.32-2.87,11.34-2.6,17.2-3.11c0.27-0.02,0.27-0.45,0-0.43
					c-5.94,0.52-12.02,0.26-17.41,3.17C165.65,352.87,165.87,353.24,166.11,353.11L166.11,353.11z"/>
			</g>
		</g>
		<g>
			<g>
				<path class="st31" d="M177.68,352.25c1.33-0.18,2.66-0.36,3.99-0.53c0.27-0.04,0.27-0.46,0-0.43c-1.33,0.18-2.66,0.36-3.99,0.53
					C177.41,351.86,177.41,352.29,177.68,352.25L177.68,352.25z"/>
			</g>
		</g>
		<g>
			<g>
				<path class="st31" d="M230.03,376.67c-3.27,0.89-6.55,1.28-9.93,1.26c-1.73-0.01-3.15-0.03-4.54,1.07
					c-0.22,0.17,0.09,0.47,0.3,0.3c2.05-1.63,5.81-0.85,8.27-1.08c2.04-0.2,4.03-0.6,6.01-1.14
					C230.41,377.01,230.29,376.6,230.03,376.67L230.03,376.67z"/>
			</g>
		</g>
		<g>
			<g>
				<path class="st31" d="M225.89,378.78c-2.4,0.31-4.8,0.62-7.21,0.94c-0.27,0.03-0.27,0.46,0,0.43c2.4-0.31,4.8-0.62,7.21-0.94
					C226.16,379.17,226.16,378.75,225.89,378.78L225.89,378.78z"/>
			</g>
		</g>
		<g>
			<g>
				<path class="st31" d="M169.45,387.11c3.89-0.46,7.79-0.93,11.68-1.39c0.27-0.03,0.27-0.46,0-0.43
					c-3.89,0.46-7.79,0.93-11.68,1.39C169.18,386.72,169.18,387.15,169.45,387.11L169.45,387.11z"/>
			</g>
		</g>
		<g>
			<g>
				<path class="st31" d="M169.42,388.73c1.72,0.15,3.42,0.05,5.11-0.29c0.27-0.06,0.16-0.47-0.11-0.41c-1.66,0.34-3.31,0.43-5,0.28
					C169.15,388.27,169.15,388.7,169.42,388.73L169.42,388.73z"/>
			</g>
		</g>
		<g>
			<g>
				<path class="st31" d="M227.41,395.66c-0.41,3.38,1.86,6.48,1.04,9.83c-0.07,0.27,0.35,0.38,0.41,0.11
					c0.84-3.42-1.44-6.53-1.03-9.95C227.87,395.39,227.44,395.39,227.41,395.66L227.41,395.66z"/>
			</g>
		</g>
		<g>
			<g>
				<path class="st31" d="M225.95,399.5c0.26,1.51,0.53,3.02,0.79,4.53c0.05,0.27,0.46,0.16,0.41-0.11
					c-0.26-1.51-0.53-3.02-0.79-4.53C226.31,399.11,225.9,399.23,225.95,399.5L225.95,399.5z"/>
			</g>
		</g>
		<g>
			<g>
				<path class="st31" d="M175.52,407.03c-1.47-2.03-3.1-4.43-1.97-7.01c0.11-0.25-0.26-0.47-0.37-0.22
					c-1.19,2.73,0.38,5.25,1.97,7.44C175.31,407.47,175.68,407.25,175.52,407.03L175.52,407.03z"/>
			</g>
		</g>
		<g>
			<g>
				<path class="st31" d="M177.36,408.11c-0.45-1.06-0.91-2.12-1.36-3.18c-0.11-0.25-0.48-0.03-0.37,0.22
					c0.45,1.06,0.91,2.12,1.36,3.18C177.09,408.58,177.46,408.36,177.36,408.11L177.36,408.11z"/>
			</g>
		</g>
		<g>
			<g>
				<path class="st31" d="M212.88,301.56c3.49,5.06,6.53,12.19,13.62,12.44c0.27,0.01,0.27-0.42,0-0.43
					c-6.92-0.25-9.86-7.31-13.25-12.23C213.09,301.12,212.72,301.33,212.88,301.56L212.88,301.56z"/>
			</g>
		</g>
		<g>
			<g>
				<path class="st31" d="M170.2,299.05c-0.9,10.22-5.61,19.33-13.4,25.99c-0.21,0.18,0.09,0.48,0.3,0.3
					c7.89-6.75,12.61-15.96,13.52-26.3C170.65,298.78,170.23,298.78,170.2,299.05L170.2,299.05z"/>
			</g>
		</g>
		<g>
			<g>
				<g>
					<path class="st32" d="M233.46,404.83c0,0-0.04,5.14-0.34,5.8c-0.3,0.65-25.72,3.28-26.05,2.7c-0.33-0.59-0.89-5.2-0.6-6.01
						C206.76,406.51,232.89,403.72,233.46,404.83z"/>
				</g>
			</g>
		</g>
		<g>
			<g>
				<g>
					<path class="st32" d="M168.63,408.88c0,0,0.52,5.03,0.86,5.64c0.34,0.61,24.54,0.61,24.8,0c0.26-0.61,0.35-5.18,0-5.94
						C193.95,407.82,169.07,407.74,168.63,408.88z"/>
				</g>
			</g>
		</g>
	</g>
	<path class="st0" d="M428.67,64.67c-0.97-3.22,1.58-8.17,15.89-7.46c14.3,0.71,17.79-11.47,31.14-11.65
		c13.35-0.18,10.92,10.81,24.58,8.67c13.66-2.14,21.72,12.02,6.08,16.67c-15.65,4.65-18.83-2.22-52.6,1.14
		C433.27,74.08,429.76,68.3,428.67,64.67z"/>
	<path class="st0" d="M346.35,111.92c-1.16-3.86,1.9-9.78,19.02-8.93c17.12,0.85,21.3-13.74,37.28-13.95
		c15.98-0.21,13.07,12.94,29.43,10.38c16.35-2.56,26.01,14.39,7.28,19.96c-18.73,5.57-22.54-2.66-62.97,1.37
		C351.85,123.18,347.66,116.26,346.35,111.92z"/>
	<path class="st0" d="M268.09,77.36c-2.67-0.02-10.95-0.46-7.78-7.34c2.06-4.47,7.54-0.61,17.68-4.31
		c10.14-3.7,13.99-9.68,27.58-4.7c13.59,4.99,10.94,0.42,18.64,0.5c10.42,0.11,12.91,16.17-3.52,16.53
		C304.26,78.39,282.58,77.48,268.09,77.36z"/>
	<path class="st18" d="M369,549.93c-19.2-15.76-45.07-20.67-68.99-23.96c-27.49-3.79-79.29-10.01-139.53-0.08
		c-21.92,3.61-41.76,16.17-58.34,31.07c-15.59,14.01-32.81,37.33-21.57,58.98c5.27,10.14,15.34,16.97,25.56,21.45
		c11.55,5.06,24.05,7.4,36.51,8.8c27.92,3.15,56.36,3.53,84.43,3.07c26.59-0.43,53.33-2.5,79.22-8.81
		c12.55-3.05,24.92-7.08,36.69-12.41c10.68-4.84,21.03-11.07,28.82-19.97c7.17-8.19,11.87-18.85,11.84-29.84
		C383.61,566.75,377.71,557.08,369,549.93z"/>
	<path class="st18" d="M875.82,513.83c-47.74-1.17-95.5-2.34-143.26-1.4c-11.79,0.23-23.57,0.6-35.35,1.12
		c-11.5,0.51-23.06,1.59-34.58,1.02c-6.1-0.3-12.03-1.3-17.97-2.67c-5.1-1.17-10.18-2.31-15.41-2.68
		c-11.53-0.81-23.31,0.27-34.85,0.66c-13.32,0.44-26.63,0.89-39.95,1.33c-6.66,0.22-13.32,0.44-19.97,0.67
		c-4.05,0.14-8.26,0.17-12.04,1.61c-0.19-0.19-21.23,39.57-30.71,58.72c-4.94,9.97-9.8,19.97-14.6,30.01
		c-4.49,9.4-9.22,18.77-13.31,28.36c-1.42,3.33-2.74,7.3-1.76,10.93c0.94,3.5,3.98,5.26,7.37,5.84c4.69,0.81,9.67,0.7,14.42,0.81
		c5.39,0.12,10.78,0.1,16.17-0.01c21.9-0.48,43.71-2.63,65.57-3.84c21.91-1.21,43.58-0.97,65.38,1.67
		c10.92,1.32,21.81,2.5,32.82,2.02c10.25-0.45,20.41-1.96,30.51-3.72c10.52-1.84,20.99-3.97,31.55-5.52
		c10.99-1.61,22.02-2.33,33.12-2.33c21.93,0,43.85,2.21,65.77,0.86c2.55-0.16,5.1-0.36,7.65-0.62c2.13-0.22,4.54-0.3,6.54-1.17
		c3.78-1.65,4.43-6.54,5.55-10.04c3.36-10.5,6.63-21.03,9.8-31.59c6.34-21.12,12.31-42.35,17.9-63.68
		c1.38-5.26,2.73-10.53,4.06-15.81C876.31,514.1,876.1,513.84,875.82,513.83z"/>
	<path class="st33" d="M383.65,578.24c0.01,6.5-1.62,12.88-4.45,18.7c-33.97-3.32-68.32,6.2-102.65,7.23
		c-25.52,0.76-50.97-3.19-76.51-3.12c-8.86,0.02-17.74,0.53-26.58-0.2c-7.65-0.62-15.2-2.19-22.81-3.28
		c-20.44-2.92-41.35-2.45-61.63,1.39c-4.05,0.77-8.13,0.57-11.91-0.53c1.33-15.95,13.61-31.22,25.04-41.48
		c7.66-6.89,16.04-13.28,24.99-18.52c15.16-1.02,30.5-0.9,45.69-1.39c48.98-1.61,97.91-9.99,146.74-7.88
		c17.8,3.53,35.4,9.25,49.43,20.77C377.71,557.08,383.62,566.75,383.65,578.24z"/>
	<g>
		<path class="st17" d="M569.42,243.43c0,0,8.14,19.95,17.66,32.7c9.52,12.75,26.84,32.84,26.84,32.84s17.43,3.66,12.77-7.37
			c-3.48-8.23-10.93-24.62-16.73-39.58c-9.27-23.89-16.36-34.18-27.45-29.44C569.69,238.05,569.42,243.43,569.42,243.43z"/>
	</g>
	<path class="st17" d="M629.34,303.63c-2.38-2.73-5.53-6.66-9.3-7.42c-3.12-0.62-6.03,0.9-8.4,2.8c0-0.02-0.01-0.04-0.01-0.06
		c-0.2-0.96-1.67-0.56-1.47,0.41c1.12,5.5,2.44,10.95,4.03,16.33c1.1,3.74,1.96,9.26,4.51,12.35c1.85,2.24,4.17,1.88,6.65,0.93
		c3.62-1.4,8.77-3.7,11.2-6.86C640.78,316.59,632.76,307.56,629.34,303.63z"/>
	<path class="st34" d="M624.17,316.95c-24.74-30.39-57.7-23.17-94.51-10.89c-39.07,13.04-64.45,27.12-106.55,22.67
		c-11.95-1.26-30.25-4.79-41.94-6.8c-13.33-2.3-27.77-2.98-40.81,1.13c-22.84,7.2-35.76,27.93-47.61,48.74
		c-11.84,20.81-21.93,41.17-36.05,60.51c-4.47,6.12-9.5,11.9-12.96,18.64c-4.86,9.46-8.65,19.3-13.58,28.72
		c-10.75,20.56-25,38.7-41.08,55.35c-3.04,3.15,1.76,7.96,4.81,4.81c12.9-13.35,24.87-27.69,34.64-43.51
		c7.15-11.56,10.87-24.62,18.36-35.8c7.42-11.08,17.28-20.27,24.77-31.31c6.68-9.84,13.3-25.35,18.82-35.88
		c9.23-17.59,16.08-38.79,31.74-51.01s31.15-12.2,51.01-12.47c22.2-0.31,50.24,11.14,72.54,7.93c23.32-3.35,45.39-13.79,68.29-19.07
		c45.06-10.4,75.9-31,105.14,3.2C622.05,325.26,626.94,320.36,624.17,316.95z"/>
	<path class="st35" d="M787.53,545.37c0.25-0.18,0.5-0.35,0.75-0.51c3.33-2.15,6.82-2.87,10.21-2.57
		c-59.1-76.16-172.22-222.99-174.18-225.62c-2.7-3.64-4.05-8.92-10.75-4.96c-2.12,1.25-4.07,0.68-5.31-0.05
		c0.77,0.82,1.9,2.13,3.47,4.15C626.85,335.34,731.92,472.96,787.53,545.37z"/>
	<path class="st33" d="M867.44,554.75c-1.26,3.42-3.77,6.22-6.22,8.93c-15.5,17.09-30.51,31.8-46.01,48.89
		c-36.52-5.83-73.5,5.12-110.47,6.23c-25.52,0.76-50.97-3.19-76.51-3.12c-8.86,0.02-17.74,0.53-26.58-0.2
		c-7.65-0.62-15.2-2.19-22.81-3.28c-20.44-2.92-41.35-2.45-61.63,1.39c-5.21,0.99-38.53-0.87-43.16-2.92
		c4.02-8.39,8.1-16.74,12.23-25.08c3.99-8.06,10.03-19.77,15.7-30.62c23.15-4.52,75.33-2.52,99.05-3.3
		c53.94-1.77,107.83-11.75,161.58-6.9c14.53,1.31,29.27,3.7,43.6,0.93c6.25-1.2,12.29-3.38,18.54-4.55
		c10.77-2.02,21.85-1.03,32.71,0.35c2.99,0.39,6.2,0.91,8.35,3.02C868.43,547.07,868.7,551.33,867.44,554.75z"/>
	<path class="st35" d="M890.43,545.21c-9.79-1.54-7.82-0.89-17.61-2.43c-2.22-0.35-4.43-0.7-6.65-1.05
		c-1.77-0.28-3.78-0.95-5.58-0.74c-1.36,0.15-2.33,1.08-3.38,1.88c-1.7,1.29-3.39,2.59-5.07,3.9
		c-14.39,11.21-28.19,23.16-41.35,35.8c-7.31,7.02-21.9,21.97-21.87,22.29c-0.01,0.01-0.01,0.01-0.02,0.02
		c-0.5,0.53,0.9,0.69,0.95,0.64c8.89,2.82,26.98,5.8,31.43,6.67c4.35,0.85,2.05,0.89,5.38-1.98c14.26-12.31,57.99-55.63,64.1-64.16
		C890.97,545.77,890.77,545.26,890.43,545.21z"/>
	<path class="st17" d="M632.74,336.46c-0.32-1.7-1.95-9.66-4.84-10.03c-0.41-1.79-1.21-3.34-2.74-3.62
		c-1.28-0.24-2.15,0.42-2.75,1.39c-0.2-1-0.51-1.96-1.03-2.73c-0.9-1.32-2.02-1.56-2.97-1.11c-0.49-1.39-1.47-2.49-2.95-1.24
		c-2.92,2.46-2.69,9.02-2.21,12.34c0.26,1.77,2.26,6.41,4.47,3.47c0.06-0.07,0.09-0.16,0.14-0.24c0.29,0.63,0.62,1.24,0.98,1.79
		c0.91,1.36,2.29,1.8,3.22,1.11c0.54,1.65,1.49,3.08,3.22,2.65c0.33-0.08,0.62-0.23,0.88-0.41c0.51,1.87,1.4,3.47,2.92,4.27
		C633.71,346.53,633.18,338.81,632.74,336.46z"/>
	<path class="st17" d="M636.81,318.4c-1.16-2.78-4.66-5.68-6.87-7.59c-0.92-0.8-3.09-2.48-4.45-1.78c0.01-0.77,0.06-1.57,0.19-2.46
		c0.14-0.96-1.33-1.38-1.47-0.41c-0.63,4.27-0.49,6.91,2,10.6c2.93,4.33,4.74,8.3,5.8,13.44c0.3,1.45,0.66,5.17,2.96,5.17
		c2.25,0,2.03-3.47,2.16-4.87C637.47,326.87,638.27,321.9,636.81,318.4z M629.76,312.81c0.86,0.84,1.62,1.77,2.5,2.6
		c1.83,1.74,3.08,3.1,3.48,5.44c-0.3-0.03-0.61,0.1-0.77,0.37c0-0.01-0.01-0.03-0.01-0.04c-0.07-0.51-0.12-1.02-0.21-1.53
		c-0.06-0.33-0.33-0.5-0.62-0.53c-1.12-2.43-2.67-4.67-4.21-5.72c-0.26-0.18-0.54-0.14-0.76,0.01c-0.63-0.92-1.36-1.78-2.22-2.6
		C627.44,309.87,629.05,312.11,629.76,312.81z"/>
	<path class="st11" d="M203,536.9c-0.39-0.85-1.61-0.94-2.35-1.15c-2.37-0.68-4.77-1.27-7.15-1.91c-2.2-0.59-4.4-1.18-6.6-1.76
		c-1.07-0.28-2.72-1.16-3.87-0.81c-0.86,0.26-1.1,0.8-1.52,1.6c-1.09,2.03-2.07,4.13-3.1,6.2c-0.34,0.68,0.68,1.28,1.02,0.6
		c0.01-0.02,0.02-0.04,0.03-0.06c6.77,2.64,13.54,5.29,20.31,7.93c0.3,0.12,0.65-0.13,0.73-0.41l1.89-6.78
		C202.61,539.52,203.43,537.84,203,536.9z"/>
	<path class="st35" d="M196.45,534.86c-1.89,0.63-3.87,0.98-5.87,0.98c-1.62,0-3.16-0.22-4.64-0.58c-1.46,2.23-2.9,4.39-3.66,4.25
		c-1.92-0.35-3.84-0.7-5.77-1.06c-4.42-0.81-8.84-1.62-13.26-2.43c-8.65-1.59-17.3-3.17-25.95-4.76
		c-7.77-1.42-20.44-2.59-29.04-3.33c-6.67-0.58-7.23-0.08-10.23,6.08c-2.41,4.95-2.06,5.48-3.19,11.11
		c-5.63,3.49-10.64,7.9-14.74,13.49c-7.9,10.78-13.87,44.84-13.01,49.2c1.09,5.55,8.1,4.91,12.46,5.26
		c15.28,1.22,104.51,2.42,111.49,1.09c5.43-1.03,7.13-2.61,10.09-7.62c3.18-5.37,5.63-17.63,6.72-23.68
		c1.21-6.78,1.87-13.67,1.89-20.56c0.01-6.14-0.59-12.58-3.71-18C203.73,540.36,200.33,537.2,196.45,534.86z"/>
	<path class="st6" d="M100.15,596.71c34.53,1.59,69.07,3.06,103.63,3.38c1-3.1,1.87-6.61,2.58-9.85
		c-27.92-0.34-79.65-2.8-105.09-3.77C100.67,589.81,100.35,593.27,100.15,596.71z"/>
	<path class="st6" d="M109.95,575.91c-6.33,0.26-11.87,3.48-15.87,8.14c-5.69,5.58-8.95,14.01-7.3,21.73
		c0.37,1.72,1.01,3.31,1.83,4.78c2.57,11.08,16.3,14.66,25.7,8.55c0.68-0.44,1.33-0.92,1.97-1.42c7.28-4.25,12.26-12.88,12.94-20.99
		C130.15,585.46,121.49,575.44,109.95,575.91z"/>
	<path class="st35" d="M837.31,559.82c-6.56-2.45-13.13-4.9-19.54-7.7c-5.94-2.59-12.1-5.25-16.87-9.75
		c-4.55-4.29-8.63-9.15-12.87-13.74c-1.22-1.33-2.51-3.56-4.54-3.35c-2.21,0.22-4.96,2.53-6.65,3.79c-0.09,0.07-0.15,0.16-0.19,0.25
		c-1.01-1.38-2.02-2.76-3.04-4.12c-0.43-0.58-1.42-0.01-0.98,0.57c4.05,5.4,7.95,10.96,12.22,16.19c3.77,4.62,8.43,8.26,13.54,11.3
		c11.24,6.69,23.71,11.7,35.89,16.38c0.29,0.11,0.61-0.13,0.7-0.4c0.91-2.91,1.82-5.82,2.73-8.73
		C837.8,560.21,837.59,559.93,837.31,559.82z"/>
	<path class="st6" d="M770.88,501.95c-2.4-2.72-4.8-5.44-7.2-8.16c-1.2-1.36-2.4-2.72-3.6-4.08c-1.09-1.24-2.26-3.1-3.6-4.08
		c-1.2-0.88-1.74-0.26-2.96,0.62c-2.45,1.77-4.84,3.62-7.18,5.53c-0.4,0.14-0.52,0.22-0.94,0.63c-0.14,0.13-0.21,0.37-0.15,0.55
		c1.05,3.14,3.26,5.49,5.38,7.96c2.82,3.29,5.64,6.59,8.46,9.88c0.16,0.18,0.49,0.21,0.69,0.09c3.9-2.45,7.59-5.16,11.1-8.15
		C771.12,502.55,771.07,502.17,770.88,501.95z"/>
	<path class="st6" d="M707.97,419.21c-2.4-2.72-4.8-5.44-7.2-8.16c-1.2-1.36-2.4-2.72-3.6-4.08c-1.09-1.24-2.26-3.1-3.6-4.08
		c-1.2-0.88-1.74-0.26-2.96,0.62c-2.45,1.77-4.84,3.62-7.18,5.53c-0.4,0.14-0.52,0.22-0.94,0.63c-0.14,0.13-0.21,0.37-0.15,0.55
		c1.05,3.14,3.26,5.49,5.38,7.96c2.82,3.29,5.64,6.59,8.46,9.88c0.16,0.18,0.49,0.21,0.69,0.09c3.9-2.45,7.59-5.16,11.1-8.15
		C708.21,419.8,708.16,419.42,707.97,419.21z"/>
	<g>
		<g>
			<path class="st17" d="M518.92,149.69c13.87,0.33,24.8,7.91,30.96,20.2c3.25,6.49,4.18,13.86,5.06,21.07
				c0.96,7.86,1.92,15.71,2.77,23.58c0.88,8.15,1.63,16.65-0.38,24.7c-0.81,3.27-2.72,6.23-3,9.51c-0.17,2.05,0.3,4.48,0.37,6.57
				c0.46,14.26,0.56,28.61-0.56,42.84c-0.68,8.61-4.63,13.23-6.23,16.42c-7.09,14.16-95.22,14.18-99.71-0.58
				c-0.65-2.15-5.89-4.2-6.37-19.66c-0.73-23.39,2.55-45.86,2.55-45.86c-11.06-20.19-3.79-78.42-3.79-78.42
				c8.28-13.27,40.22-21.41,40.22-21.41S493.69,149.09,518.92,149.69z"/>
		</g>
		<g>
			<path class="st36" d="M456.01,313.15c0,0-1.57,22.76-0.86,33.76c0.64,9.86,30.33,20.61,50.47,18.35
				c9.48-1.07,38.22-7.67,38.07-25.47c-0.24-29.57-4.61-41.63-21.1-47.82c-13.05-4.9-41.93-5.55-58.56,2.46
				C459.73,296.49,456.01,313.15,456.01,313.15z"/>
		</g>
		<g>
			<path class="st36" d="M531.68,341.89c27.98,42.74,34.95,85.62,39.58,98.25c7.69,21.02,0.56,27.65-4.55,33.01
				c-5.11,5.35-17.9,6.86-25.91-1.73c-12.64-13.57-46.99-86.16-48.74-90.25C485.58,365.93,525.37,332.24,531.68,341.89z"/>
		</g>
		<g>
			<path class="st17" d="M540.37,461.86c-0.59,0.93-1.13,1.9-1.63,2.91c-0.95,1.92-1.29,4.07-1.57,6.2
				c-1.41,10.7-1.7,21.55-0.86,32.32c1.13,14.53,4.3,28.84,4.91,43.41c0.41,9.92-2.44,21.05-0.81,30.8c0.02,0.1,2.39,14.1,15.3,3.26
				c1.66-1.39,2.31-5.64,3.41-7.52c2.25-3.84,4.24-6.85,5.78-11.2c3.54-10.03,6.54-20.25,9.01-30.59
				c4.92-20.69,7.67-41.9,8.15-63.17c0.26-11.61-6.15-17.97-17.63-18.99C554.29,448.37,545.6,453.6,540.37,461.86z"/>
		</g>
		<g>
			<path class="st17" d="M444.36,346.63c-7.91,50.47,3.39,92.42,4.38,105.83c1.64,22.32,10.87,25.43,17.73,28.21
				c6.86,2.77,19.14-1.12,22.9-12.24c5.94-17.57,7.43-98.52,7.34-102.96C496.35,348.92,446.15,335.24,444.36,346.63z"/>
		</g>
		<g>
			<path class="st17" d="M442.77,558.97c-1.65,2.73-3.36,5.53-5.86,7.51c-2.5,1.98-6.01,3.02-8.95,1.77
				c-3.25-1.38-4.92-5.17-4.92-8.71c0-3.53,1.32-6.91,2.5-10.24c7.4-20.8,10.12-42.83,15.06-64.26c4.01-17.37,8.28-40.75,31.5-36.59
				c10.47,1.88,15.33,7.79,16.72,15.64c3.37,19.07-13.72,49.6-20.6,61.65c-5.36,9.37-11.05,18.54-17.06,27.5
				c-4.88,7.27-10.79,14.96-19.38,16.7c-0.9,0.18-1.88,0.28-2.68-0.18c-0.95-0.55-1.32-1.71-1.54-2.78
				c-1.66-8.42,2.12-16.82,4.82-24.97c9.04-27.25,6.39-57.26,17.76-83.86c0.33-0.78,0.7-1.52,1.1-2.2"/>
		</g>
		<g>
			<path class="st37" d="M547.8,314.58c0,0-79.52,1.42-99.41-1.39c0,0-6.36,20.38-4.28,35.11c0,0,26.74,0.23,49.96,17.26h5.14
				c0,0,37.21-20.36,50.14-19.08C549.35,346.47,550.85,331.03,547.8,314.58z"/>
		</g>
		<path class="st38" d="M438.45,376.32c-0.87,14.19,1.09,27.9,1.68,41.98c0.61,14.37,1.22,28.73,1.83,43.1
			c0.15,3.49,0.38,7.23,2.51,10c2.54,3.31,7.05,4.32,11.2,4.71c8.36,0.78,16,3.01,24.49,3.48c2.67,0.15,5.45,0.24,7.91-0.83
			c3.28-1.42,5.44-4.7,6.4-8.14c0.96-3.44,0.9-7.07,0.86-10.64c-0.17-15.83,0.07-31.85,1.59-47.62c0.58-6.06,2.3-11.67,2.71-17.89
			c0.31-4.7,0.69-9.41,0.8-14.11c0.32-13.9-11.1-23.3-23.23-27.52c-9.4-3.26-25.22-5.95-33.54,1.46c-1.85,1.65-3,3.87-3.73,6.35
			C438.46,365.7,438.73,371.81,438.45,376.32z M450.14,411.82h32.54v2.8h-32.54V411.82z M450.14,400.99h32.54v6.2h-32.54V400.99z"/>
		<path class="st38" d="M554,313.53c0,0,3.29,41.78,2.65,50.87c-2.12,30.44-113.76,22.4-116.42,4.71
			c-1.99-13.26,5.42-55.92,5.42-55.92L554,313.53z"/>
		<path class="st38" d="M545.46,351.6c1.57,1.65,2.91,3.75,3.95,6.36c12.39,30.89,23.4,62.34,32.98,94.21
			c0.5,1.66,0.99,3.51,0.24,5.08c-0.87,1.84-3.07,2.57-5.03,3.11c-12.01,3.31-24.01,6.63-36.02,9.94c-1.65,0.46-3.49,0.89-5,0.09
			c-2.69-1.43-3.57-7.32-4.92-9.9c-1.64-3.14-3.55-6.23-5.24-9.37c-4.17-7.8-8.26-15.65-12.31-23.51
			c-5.8-11.25-11.88-22.47-17.07-34.02C485.86,368.67,528.68,333.95,545.46,351.6z"/>
		<g>
			<g>
				<path class="st17" d="M542.52,162.82c0,0,10.92,3.82,29.83,33.05c12.49,19.3,19.82,32.73,21.02,36.78
					c1.2,4.04,1.61,27.76-17.5,24.48c-3.31-0.57-34.28-45.86-36.96-49.79C536.24,203.41,511.18,163.96,542.52,162.82z"/>
			</g>
			<g>
				<g>
					<path class="st39" d="M545.45,154.85c2.87-0.12,4.52,1.53,6.99,3.76c7.13,6.45,12.36,14.64,17.49,22.69
						c5.34,8.38,10.67,16.76,16.01,25.14c0.49,0.76,0.99,1.58,0.98,2.49c-0.01,0.96-0.59,1.8-1.15,2.58
						c-2.58,3.6-5.16,7.21-7.75,10.81c-1.75,2.44-3.65,5-6.44,6.11c-1.1,0.44-2.31,0.63-3.33,1.23c-1.34,0.79-2.2,2.19-3.36,3.24
						c-3.26,2.97-8.6,2.68-12.31,0.3c-4.2-2.7-6.63-7.77-9.55-11.67c-2.53-3.37-4.46-7.4-6.6-11.03
						c-4.18-7.08-8.48-14.12-12.36-21.38c-5.1-9.51,2.4-23.38,9.9-29.18c2.85-2.2,6.27-4.01,9.78-4.84
						C544.37,154.95,544.93,154.87,545.45,154.85z"/>
				</g>
			</g>
		</g>
		<g>
			<g>
				<path class="st40" d="M436.07,229.07c3.57,47.77-1.85,53.32-1.93,90.55c0,0.54,0.03,1.07,0.09,1.6
					c3.53,30.87-9.1,42.3,5.91,52.78"/>
			</g>
		</g>
		<g>
			<g>
				<g>
					<g>
						<g>
							<path class="st17" d="M517.75,133.36c-0.16,0.49,1.54,25.99,1.54,25.99s-23.91,9.95-42.83-0.01l1.49-26.64L517.75,133.36z"/>
						</g>
					</g>
				</g>
			</g>
		</g>
		<path class="st21" d="M494.52,147.22c0.37,1.64,1.66,3.07,3.17,3.89c1.83,0.99,3.95,1.27,6.02,1.49c4.01,0.43,8.03,0.74,12.06,0.9
			c1.16,0.05,2-0.69,3.07-1.04c-0.24-3.72-0.53-8.3-0.76-12.04c-3.38,0.61-6.64,1.77-9.96,2.51c-3.37,0.75-7.15,0.54-10.6,0.72
			c-0.87,0.04-1.81,0.12-2.43,0.73c-0.47,0.46-0.65,1.14-0.67,1.79C494.4,146.53,494.44,146.88,494.52,147.22z"/>
		<g>
			<g>
				<path class="st38" d="M656.03,593.71c0.21-0.21,0.42-0.42,0.62-0.62c0.37-0.37-0.21-0.95-0.58-0.58
					c-0.21,0.21-0.42,0.42-0.62,0.62C655.08,593.5,655.66,594.08,656.03,593.71L656.03,593.71z"/>
			</g>
		</g>
		<g>
			<g>
				<path class="st41" d="M495.53,329.88c0.29,22.64-0.15,45.27-1.34,67.88c-0.02,0.44,0.67,0.44,0.69,0
					c1.19-22.61,1.64-45.24,1.34-67.88C496.22,329.43,495.53,329.43,495.53,329.88L495.53,329.88z"/>
			</g>
		</g>
		<g>
			<g>
				<path class="st41" d="M503.33,357.29c0.6,9.88-1.53,19.25-6.37,27.9c-0.22,0.39,0.38,0.74,0.6,0.35
					c4.88-8.72,7.06-18.27,6.46-28.25C503.99,356.85,503.3,356.85,503.33,357.29L503.33,357.29z"/>
			</g>
		</g>
		<g>
			<g>
				<path class="st41" d="M460.08,343.98c-1.8,11.22-7.13,21.18-15.49,28.88c-0.33,0.3,0.16,0.79,0.49,0.49
					c8.44-7.78,13.85-17.85,15.67-29.19C460.82,343.72,460.15,343.54,460.08,343.98L460.08,343.98z"/>
			</g>
		</g>
		<g>
			<g>
				<path class="st41" d="M525.67,344.59c2.12,16.62,9.33,31.9,20.81,44.1c0.31,0.32,0.79-0.17,0.49-0.49
					c-11.35-12.05-18.51-27.18-20.61-43.61C526.31,344.16,525.62,344.15,525.67,344.59L525.67,344.59z"/>
			</g>
		</g>
		<path class="st19" d="M536.42,151.49c-1.96,0.01-3.76,0.35-4.68,1.38c-3.44,3.83-12.38,11.23-30.17,11.23
			c-23.84,0-32.28-8.28-34.88-12.04c-0.73-1.05-2.05-1.51-3.27-1.15c0,0-23.98,6.64-24,6.64c-0.77,0.22-5.09,23.13-5.11,24.89
			c-0.06,9.68-0.14,19.36-0.2,29.04c-0.14,19.87-0.28,39.74-0.42,59.62c-0.06,7.91-0.11,15.83,0.26,23.74
			c0.26,5.55,0.74,11.09,0.64,16.65c-0.12,6.64-1.05,13.23-1.77,19.82c-1.2,10.9-1.86,22.25,0.86,32.99
			c2.64,10.41,8.26,8.79,16.28,13.7c1.45,0.89,3.29,0.67,4.99,0.52c7.21-0.66,9.53-0.58,16.28,2.05c3.48,1.36,6.81,3.13,10.41,4.11
			c15.48,4.21,31.03-6.98,47.07-7.09c8.49-0.06,24.46,8.74,30.04-1.07c1.24-2.18,1.63-4.73,2.01-7.21
			c1.62-10.8,3.24-21.69,2.63-32.59c-0.39-6.82-1.65-13.56-2.11-20.37c-0.92-13.5,1.72-26.72,1.98-40.16
			c0.22-11.05-1.62-22.43-2.37-33.5c-0.78-11.54,0.81-23.09,1.13-34.64c0.3-10.6-0.48-21.24-2.3-31.69
			c-1.07-6.11-2.59-12.35-6.33-17.3c-2.51-3.31-6.25-5.98-10.37-6.78C541.46,151.97,538.82,151.48,536.42,151.49z"/>
		<g>
			<g>
				<path class="st41" d="M482.68,463.93c-8.49,6.27-18.84,8.66-29.22,6.69c-0.43-0.08-0.62,0.58-0.18,0.67
					c10.57,2.01,21.09-0.36,29.75-6.76C483.38,464.27,483.04,463.67,482.68,463.93L482.68,463.93z"/>
			</g>
		</g>
		<g>
			<g>
				<path class="st41" d="M460.47,468.92c-3.08-0.24-6.01-0.96-8.86-2.15c-0.41-0.17-0.59,0.5-0.18,0.67
					c2.91,1.21,5.91,1.93,9.04,2.17C460.92,469.64,460.92,468.95,460.47,468.92L460.47,468.92z"/>
			</g>
		</g>
		<g>
			<g>
				<path class="st42" d="M540.62,187.81c-8.24,9.53-22.22,11.46-32.56,18.09c-10.71,6.87-19.57,16.19-28.28,25.37
					c-0.31,0.32,0.18,0.81,0.49,0.49c9.41-9.91,19.02-20.02,30.93-26.97c9.8-5.72,22.21-7.59,29.91-16.49
					C541.4,187.97,540.91,187.48,540.62,187.81L540.62,187.81z"/>
			</g>
		</g>
		<g>
			<g>
				<path class="st42" d="M498.08,220.63c-2.41,1.76-4.49,3.86-6.23,6.28c-0.26,0.36,0.34,0.71,0.6,0.35
					c1.67-2.32,3.68-4.34,5.99-6.03C498.78,220.97,498.44,220.37,498.08,220.63L498.08,220.63z"/>
			</g>
		</g>
		<g>
			<g>
				<path class="st42" d="M503.68,312.49c10.14-1.21,20.34-0.34,30.07,2.81c2.93,0.95,5.8,2.11,8.57,3.45
					c1.64,0.79,4.79,1.83,5.95,3.26c2.78,3.42-3.41,4.76-5.99,5.56c-2.39,0.74-4.84,1.32-7.31,1.74
					c-19.49,3.35-39.48-1.12-58.83,3.66c-0.43,0.11-0.25,0.77,0.18,0.67c12.9-3.19,26.11-2.34,39.28-2.33
					c10.51,0.01,22.91-0.14,32.46-5.19c7.56-3.99-6.03-8.38-9.35-9.74c-11.11-4.54-23.14-6-35.03-4.59
					C503.24,311.85,503.24,312.55,503.68,312.49L503.68,312.49z"/>
			</g>
		</g>
		<g>
			<g>
				<path class="st42" d="M529.55,327.15c-5.58-0.63-11.09-0.53-16.65,0.27c-0.44,0.06-0.25,0.73,0.18,0.67
					c5.49-0.79,10.95-0.86,16.46-0.24C530,327.89,529.99,327.2,529.55,327.15L529.55,327.15z"/>
			</g>
		</g>
		<g>
			<g>
				<path class="st42" d="M547.14,332.26c-7,4.38-14.83,7.2-23.09,7.84c-6.85,0.53-13.69-0.76-20.38,1.25
					c-0.43,0.13-0.24,0.8,0.18,0.67c7.66-2.3,15.74-0.45,23.58-1.61c7.19-1.06,13.91-3.71,20.06-7.55
					C547.87,332.62,547.52,332.02,547.14,332.26L547.14,332.26z"/>
			</g>
		</g>
		<g>
			<g>
				<path class="st42" d="M497.28,353.27c-10.47,4.84-21.64,5.74-32.83,3.08c-8.56-2.04-16.8-5.03-25.72-3.73
					c-0.44,0.06-0.25,0.73,0.18,0.67c11.19-1.63,21.36,3.73,32.25,5.02c9.12,1.08,18.17-0.61,26.46-4.44
					C498.03,353.68,497.68,353.09,497.28,353.27L497.28,353.27z"/>
			</g>
		</g>
		<g>
			<g>
				<path class="st42" d="M461.57,362.25c-2.04-0.61-4.09-1.23-6.13-1.84c-0.43-0.13-0.61,0.54-0.18,0.67
					c2.04,0.61,4.09,1.23,6.13,1.84C461.81,363.05,461.99,362.38,461.57,362.25L461.57,362.25z"/>
			</g>
		</g>
		<g>
			<g>
				<path class="st42" d="M441.02,258.1c13.71,8.86,29.29,13.79,45.6,14.43c0.44,0.02,0.44-0.67,0-0.69
					c-16.19-0.64-31.64-5.53-45.25-14.33C440.99,257.27,440.65,257.86,441.02,258.1L441.02,258.1z"/>
			</g>
		</g>
		<g>
			<g>
				<path class="st42" d="M456.6,272.38c3.95,0.39,7.57,1.79,10.78,4.12c0.36,0.26,0.71-0.34,0.35-0.6
					c-3.32-2.41-7.05-3.81-11.13-4.21C456.16,271.64,456.16,272.34,456.6,272.38L456.6,272.38z"/>
			</g>
		</g>
		<g>
			<g>
				<path class="st42" d="M552.65,234.91c-3.47,5.54-9.81,7.13-15.76,8.61c-6.79,1.69-13.58,3.36-20.37,5.03
					c-0.43,0.11-0.25,0.77,0.18,0.67c8.22-2.03,16.58-3.77,24.7-6.17c4.78-1.41,9.12-3.45,11.84-7.79
					C553.49,234.88,552.89,234.54,552.65,234.91L552.65,234.91z"/>
			</g>
		</g>
		<g>
			<path class="st17" d="M500.6,52.69c-7.41-0.06-15.09,1.27-21.36,5.44c-4.88,3.24-8.46,8.02-10.58,13.45
				c-0.9,2.3-1.55,4.69-1.99,7.12c-0.19,1.05-0.38,2.13-0.45,3.2c-0.07,0.92,0.27,1.62-0.13,2.53c-0.46,1.05-2.34-1.23-2.41-0.07
				c-0.26,4.15,0.79,9.63,1.9,11.46c0.26,0.44,0.57,0.85,0.78,1.31c0.47,1.06,0.46,2.44,0.43,3.59c-0.25,9.19-3.5,19.62,1.39,28.13
				c3.79,6.6,16.07,17.94,30.91,18.51c4.62,0.18,9.51-0.9,13.74-2.74c3.11-1.35,5.49-3.82,8.31-5.68
				c6.34-4.17,12.09-10.06,13.02-17.94c0.69-5.89-1.39-11.61-1.52-17.46c-0.11-4.94,2.58-8.47,2.97-13.37
				c0.18-2.31,0.39-5.02-0.02-7.3c-0.58-3.23-2.54-6.61-3.77-9.67c-0.72-1.79-0.83-3.68-1.62-5.41c-0.9-1.98-2.05-3.85-3.45-5.51
				c-2.85-3.36-6.65-5.69-10.78-7.15C511.08,53.39,505.77,52.74,500.6,52.69z"/>
			<path class="st5" d="M463.42,80.84c0.14-2.17,0.42-4.35,0.89-6.47c0.59-2.7,1.26-5.59,2.43-8.09c1.42-3.03,3.29-5.85,5.61-8.26
				c2.73-2.85,6.26-4.83,9.89-6.36c4.69-1.97,9.8-2.78,14.87-2.87c1.78-0.03,3.57-0.01,5.34,0.15c6.1,0.55,12.28,1.84,17.72,4.73
				c5.8,3.08,11.07,8.54,13.42,14.68c1.11,2.9,1.59,5.49,1.96,8.56c0.16,1.34,0.77,13.3-1.26,12.3c-0.46-0.23-0.7-0.75-0.84-1.25
				c-0.43-1.54-0.22-3.18-0.33-4.77c-0.11-1.6-0.67-3.34-2.07-4.1c-0.77-0.42-1.71-0.5-2.44-0.99c-1.18-0.79-1.45-2.41-1.36-3.83
				c0.09-1.42,0.44-2.86,0.1-4.24c-0.41-1.64-1.77-2.92-3.3-3.63c-1.53-0.72-3.24-0.95-4.92-1.15c-6.4-0.77-12.84-1.16-19.29-1.18
				c-4.3-0.01-8.73-0.74-12.99,0.06c-0.94,0.17-1.9,0.43-2.65,1.03c-0.71,0.57-1.15,1.41-1.54,2.23c-0.9,1.92-1.6,3.93-2.09,5.99
				c-0.15,0.63-0.35,1.35-0.95,1.59c-0.23,0.09-0.48,0.1-0.72,0.1c-2.14,0.04-4.81-0.48-6.62,0.88c-1.93,1.46-1.75,4.27-2.23,6.5
				c-0.03,0.16,0,3.24-3.73,3.01c-0.8,0.01-2.13-0.13-2.58-0.5c-0.18-0.15-0.39-2.7-0.38-2.93
				C463.37,81.63,463.39,81.23,463.42,80.84z"/>
			
				<ellipse transform="matrix(0.9997 -0.0242 0.0242 0.9997 -2.3115 11.9658)" class="st5" cx="492.27" cy="101.3" rx="2.38" ry="3.63"/>
			<path class="st5" d="M522.87,102.19c0.05,2.01-0.98,3.66-2.29,3.69c-1.31,0.03-2.42-1.57-2.46-3.58
				c-0.05-2.01,0.98-3.66,2.29-3.69C521.72,98.58,522.82,100.18,522.87,102.19z"/>
			<path class="st5" d="M532.63,92.15c-0.27-1.27-1.36-2.08-2.52-2.67c-0.07-0.05-0.12-0.12-0.2-0.17
				c-5.01-2.48-10.45-3.82-15.79-0.76c-1.45,0.83-1.5,3.05,0.08,3.54c3.44,1.07,16.06,3.85,17.74,2.21
				C532.53,93.72,532.82,93.01,532.63,92.15z"/>
			<path class="st5" d="M497.72,86.35c-0.8-1.02-2.14-1.27-3.45-1.28c-0.09-0.02-0.16-0.06-0.26-0.06c-5.59,0-11.06,1.2-14.49,6.31
				c-0.93,1.39,0,3.4,1.64,3.14c3.55-0.56,16.1-3.66,16.88-5.87C498.32,87.8,498.27,87.04,497.72,86.35z"/>
			<path class="st43" d="M463.77,82.22c-0.2,0.61-0.23,1.26-0.23,1.9c-0.05,3.59,0.51,7.19,1.64,10.6c0.21,0.64,0.54,1.36,1.19,1.5
				c0.64,0.14,1.26-0.38,1.51-0.98c0.25-0.6,0.24-1.27,0.32-1.92c0.14-1.14,0.55-2.22,0.85-3.33c0.81-2.98,0.77-6.11,1.22-9.17
				c0.08-0.55,0.17-1.15-0.08-1.65c-0.3-0.61-1.04-0.9-1.72-0.84c-0.68,0.06-1.29,0.42-1.83,0.82c-1.26,0.94-2.28,2.22-2.91,3.66"/>
			<path class="st43" d="M536.24,84.65c-0.16,2.42,0.25,5.92-1.59,7.81c-0.82-0.43-0.88-1.56-0.83-2.49c0.08-1.5,0.16-3,0.24-4.5
				c0.08-1.55,0.19-3.17,0.98-4.51c0.07-0.12,0.17-0.24,0.3-0.23c0.09,0.01,0.16,0.08,0.22,0.16
				C536.38,81.91,536.33,83.35,536.24,84.65z"/>
			<path class="st44" d="M500.33,108.85c-1.4,0.24-2.37,1.88-1.91,3.22s2.22,2.05,3.48,1.39c0.95,2.43,3.61,4.08,6.21,3.85
				c0.94-0.08,1.89-0.41,2.54-1.08c0.66-0.67,0.95-1.74,0.56-2.59c1.17,0.25,2.47-0.06,3.31-0.92c0.83-0.85,1.1-2.26,0.51-3.3
				s-2.04-1.53-3.08-0.95c-0.08-3.62-0.17-7.23-0.25-10.85"/>
			<path class="st17" d="M458.48,109.7c1.98,3.04,9.44,9.54,12.27,4.7c1.46-2.48-0.81-5.38-1.99-7.46
				c-0.34-0.61-0.69-1.22-1.03-1.82c1.1,1.95,4.13,0.13,3.11-1.95c-1.64-3.34-6.27-13.85-11.52-9.77
				C455.06,96.69,454,102.8,458.48,109.7z"/>
			<g>
				<g>
					<path class="st29" d="M461.04,99.7c2.08,2.46,2.8,5.21,3.17,8.35c0.04,0.33,0.56,0.34,0.52,0c-0.14-1.36-0.57-3.17-2.08-3.62
						c-1.2-0.36-2.19,0.43-2.17,1.64c0,0.34,0.53,0.34,0.52,0c0.61-0.33,1.23-0.66,1.84-0.99c0.5,0.34,0.83,0.78,0.99,1.33
						c0.23,0.53,0.32,1.06,0.38,1.64c0.17,0,0.35,0,0.52,0c-0.39-3.28-1.16-6.15-3.33-8.72C461.19,99.07,460.82,99.44,461.04,99.7
						L461.04,99.7z"/>
				</g>
			</g>
			<g>
				<g>
					<path class="st29" d="M490.08,124.31c1.12,3.67,5.92,5.02,9.24,5.63c2.77,0.51,7.89,1.33,10.07-1.08
						c0.52-0.57-0.33-1.43-0.85-0.85c-1.83,2.01-6.6,1.19-8.9,0.77c-2.83-0.52-7.43-1.61-8.4-4.78
						C491.02,123.25,489.85,123.57,490.08,124.31L490.08,124.31z"/>
				</g>
			</g>
		</g>
		<g>
			<path class="st17" d="M438.67,169.24c0,0,1.25-18.05-31.72,17.59c-18.78,20.29-30.28,34.65-32.54,39.19
				c-2.27,4.54-7.68,32.54,15.64,32.63c4.04,0.01,50.14-47.19,54.12-51.29C448.15,203.26,438.1,185.83,438.67,169.24z"/>
		</g>
		<g>
			<g>
				<path class="st39" d="M451.04,157.04c-1.28-0.42-5.27-0.37-6.63-0.33c-6.99,0.23-10.29,3.25-16.02,7.26
					c-7.2,5.03-14.54,10.91-20.75,17.14c-5.99,6.01-11.49,12.49-16.97,18.96c-1.12,1.32-2.24,2.65-3.36,3.98
					c-0.41,0.49-0.84,1.03-0.88,1.67c-0.09,1.61,2.06,2.16,3.37,3.1c1.65,1.19,2.1,3.39,3.09,5.16c1.09,1.94,2.85,3.39,4.58,4.79
					c4.84,3.93,9.8,7.62,14.58,11.73c1.49,1.28,2.98,2.56,4.66,3.58c2.28,1.39,5.89,0.83,7.81-0.92c0.71-0.64,1.26-1.44,1.84-2.2
					c3.43-4.55,8.13-7.38,11.95-11.45c4.08-4.35,7.77-9.06,11.03-14.05c1.2-1.83,2.34-3.71,3.26-5.7c1.53-3.29,3.95-7.09,4.59-10.66
					c1.48-8.17,0.09-16.32-1.16-24.52c-0.32-2.11-0.8-4.34-2.28-5.88C453,157.9,452.06,157.38,451.04,157.04z"/>
			</g>
		</g>
		<g>
			<path class="st17" d="M377.64,222.82c-0.16,0.12-0.31,0.24-0.47,0.36c-9.87,7.78-13.52,20.86-16.61,33.04
				c-4.07,16.04-7.23,32.05-9.94,48.38c0,0,9.37,17.6,15.49,5.68c4.57-8.89,13.24-24.01,21.92-39.73
				c4.73-8.57,11.16-16.66,12.95-26.37c1.08-5.88,1.4-16.33-3.86-20.45c-1.95-1.53-4.41-2.24-6.8-2.88
				c-2.07-0.56-4.21-1.09-6.34-0.86C381.65,220.25,379.52,221.41,377.64,222.82z"/>
		</g>
	</g>
	<path class="st45" d="M533.49,589.8c-0.55,5.07-3.02,8.65-3.03,14.46c-0.01,5.89,3.03,9.69,8.56,11.6
		c5.24,1.81,11.11,1.33,16.61,2.24c5.93,0.98,11.76,2.55,17.37,4.69c3.34,1.27,6.64,2.75,10.18,3.25c2.54,0.36,5.12,0.2,7.68,0.31
		c2.98,0.13,5.94,0.62,8.8,1.45c2.79,0.82,5.59,1.98,8.48,1.71c2.89-0.27,5.87-2.67,5.48-5.55c-0.17-1.3-0.99-2.43-1.83-3.43
		c-2.66-3.16-5.96-5.78-9.64-7.66c-5.33-2.73-11.45-3.9-16.43-7.33c-5.11-3.52-10.08-7.75-14.7-11.92c-0.48-0.43-1.32-1.11-2.32-1.9
		c-2.55-2.26-4.97-4.79-6.24-7.94c-1.12-2.78-0.97-5.64-0.31-8.5c0.24-1.04,0.67-2.13,0.45-3.21c-0.47-2.25-2.79-3.16-4.7-3.87
		c-4.04-1.5-8.27-2.56-12.53-3.21c-2.11-0.32-6.26-1.49-8.25,0.08c-1.96,1.55-2.06,5.71-2.53,7.92c-0.85,3.98-2.04,8.36-1.72,12.46
		c0.1,1.28,0.39,2.5,0.61,3.75C533.48,589.4,533.49,589.6,533.49,589.8z"/>
	<path class="st45" d="M412.33,570.97c-2.11,4.92-5.68,7.75-7.47,13.58c-2.17,7.04,0.31,14.2,7.6,16.72
		c2.75,0.95,5.91,1.09,8.15,2.95c1.13,0.94,1.91,2.23,2.95,3.28c1.2,1.2,2.7,2.05,4.18,2.87c6.89,3.83,13.79,7.64,20.72,11.41
		c1.84,1,3.71,2.02,5.76,2.47c2.51,0.55,5.14,0.23,7.67,0.65c5.23,0.86,9.61,4.78,14.87,5.44c0.6,0.08,1.27,0.09,1.76-0.27
		c0.36-0.26,0.56-0.68,0.72-1.1c1.32-3.43,0.16-7.65-2.72-9.93c-2.16-1.71-5.16-2.43-6.69-4.72c-0.51-0.76-0.81-1.64-1.19-2.47
		c-2.03-4.42-6.21-7.37-10.01-10.4c-2.68-2.14-5.41-4.57-7-7.66c-1.3-2.54-1.34-4.98-2.84-7.48c-0.35-0.58-0.99-1.52-1.75-2.62
		c-1.87-3.05-3.51-6.33-3.82-9.87c-0.27-3.14,0.76-5.96,2.29-8.62c0.56-0.97,1.33-1.93,1.43-3.09c0.22-2.4-1.83-4.02-3.53-5.32
		c-3.6-2.75-7.51-5.11-11.59-7.06c-2.02-0.97-5.82-3.42-8.3-2.45c-2.44,0.95-3.82,5.1-4.96,7.17c-2.07,3.73-4.6,7.76-5.55,11.98
		c-0.29,1.31-0.38,2.63-0.54,3.95C412.43,570.56,412.38,570.77,412.33,570.97z"/>
	<path class="st17" d="M372.57,320.68c-0.14-2.44-1.31-4.68-2.35-6.9c-0.87-1.87-2.1-4.41-1.63-6.53c0.37-1.67,0.96-3.38-0.08-5.02
		c-2.1-3.29-8.69-3.22-12.97-2.77c-0.08-0.65-0.74-1.2-1.38-0.69c-4.12,3.37-7.44,7.76-10.51,12.07
		c-4.4,6.17-10.66,11.55-8.86,20.06c0.55,2.58,2.71,5.02,5.35,4.93c0.45-0.02,0.9-0.1,1.36-0.08c1.71,0.07,2.97,1.55,4.5,2.32
		c1.83,0.92,4.17,0.73,5.83-0.47c0.53,1.18,1.72,1.96,2.98,2.24c1.19,0.27,2.24,0.01,3.42-0.07c0.88-0.06,1.77,0.21,2.69,0.1
		c1.84-0.22,3.57-1.2,4.81-2.57c1.76-1.96,2.59-4.6,2.86-7.21c-1.33-0.59-2.33-1.82-2.72-3.23c-0.39-1.4-0.18-2.94,0.5-4.23
		c0.35-0.66,0.82-1.26,1.04-1.97c0.04-0.12,0.07-0.25,0.17-0.33c0.1-0.08,0.25-0.08,0.38-0.08
		C369.52,320.3,371.02,320.65,372.57,320.68z"/>
	<g>
		<path class="st46" d="M663.31,101.71c-14.02,0.27-71.46-0.02-73.23,0.22c-2.88,0.4-2.19,0.09-2.35,2.91
			c-0.09,1.48,1.22,73.25,1.82,90.2c0.16,4.63,0.48,3.66,6.62,3.66c14.32-0.01,56.63,0.21,60.19-0.04c2.31-0.16,6.18,0.42,6.53-2.67
			c0.18-1.57,0.06-3.24,0.07-4.84c0.01-1.87,0.41-68.91,0.5-83.84c0.01-1.81,0.02-3.62,0.03-5.43
			C663.49,101.79,663.39,101.71,663.31,101.71z"/>
		<path class="st46" d="M768.71,101.65c-14.02,0.27-71.46-0.02-73.23,0.22c-2.88,0.4-2.19,0.09-2.35,2.91
			c-0.09,1.48,1.22,73.25,1.82,90.2c0.16,4.63,0.48,3.66,6.62,3.66c14.32-0.01,56.63,0.21,60.19-0.04c2.31-0.16,6.18,0.42,6.53-2.67
			c0.18-1.57,0.06-3.24,0.07-4.84c0.01-1.87,0.41-68.91,0.5-83.84c0.01-1.81,0.02-3.62,0.03-5.43
			C768.89,101.73,768.79,101.65,768.71,101.65z"/>
		<path class="st5" d="M654.92,108.74c-19.68-0.08-39.78-0.19-59.48-0.36c-0.12-0.04-0.26-0.05-0.38,0c-0.08,0-0.17,0-0.25,0
			c0,0.07,0,0.15,0,0.22c-0.03,0.06-0.04,0.13-0.04,0.2c0.39,32.61,0.63,55.44,1.14,82.42c0.39,0.02,0.51,0.02,0.67,0.03
			c0,0,0,0,0,0.01c19.95,0.17,39.91,0.28,59.85,0.37c0-0.01,0-0.01-0.01-0.02c0.25,0.01,0.5-0.14,0.49-0.45
			c-0.77-27.22-1.43-54.43-1.99-81.64C654.93,109.23,654.92,109.02,654.92,108.74z M655.94,190.68c-19.7-0.08-39.41-0.2-59.12-0.37
			c-0.45-20.8-0.86-41.9-1.18-62.68c-0.2-12.58,0.24-6.28,0.11-18.3c19.29,0.16,38.98,0.27,58.28,0.35
			c0.22,13.07,0.51,26.85,0.91,43.16C655.25,165.45,655.59,178.06,655.94,190.68z"/>
		<path class="st47" d="M646.86,120.43c-14.24-0.06-28.78-0.14-43.03-0.26c-0.09-0.03-0.19-0.03-0.27,0c-0.06,0-0.12,0-0.18,0
			c0,0.05,0,0.11,0,0.16c-0.02,0.04-0.03,0.09-0.03,0.15c0.28,23.59,0.45,40.11,0.82,59.63c0.28,0.01,0.37,0.02,0.49,0.02
			c0,0,0,0,0,0c14.44,0.12,28.87,0.2,43.3,0.26c0,0,0-0.01-0.01-0.01c0.18,0.01,0.36-0.1,0.35-0.33
			c-0.56-19.69-1.03-39.38-1.44-59.07C646.87,120.79,646.86,120.64,646.86,120.43z"/>
		<path class="st6" d="M753.24,120.84c-14.24-0.06-28.78-0.14-43.03-0.26c-0.09-0.03-0.19-0.03-0.27,0c-0.06,0-0.12,0-0.18,0
			c0,0.05,0,0.11,0,0.16c-0.02,0.04-0.03,0.09-0.03,0.15c0.28,23.59,0.45,40.11,0.82,59.63c0.28,0.01,0.37,0.02,0.49,0.02
			c0,0,0,0,0,0c14.44,0.12,28.87,0.2,43.3,0.26c0,0,0-0.01-0.01-0.01c0.18,0.01,0.36-0.1,0.35-0.33
			c-0.56-19.69-1.03-39.38-1.44-59.07C753.25,121.2,753.25,121.05,753.24,120.84z"/>
		<path class="st5" d="M760.86,109.63c-19.68-0.08-39.78-0.19-59.48-0.36c-0.12-0.04-0.26-0.05-0.38,0c-0.08,0-0.17,0-0.25,0
			c0,0.07,0,0.15,0,0.22c-0.03,0.06-0.04,0.13-0.04,0.2c0.39,32.61,0.63,55.44,1.14,82.42c0.39,0.02,0.51,0.02,0.67,0.03
			c0,0,0,0,0,0.01c19.95,0.17,39.91,0.28,59.85,0.37c0-0.01,0-0.01-0.01-0.02c0.25,0.01,0.5-0.14,0.49-0.45
			c-0.77-27.22-1.43-54.43-1.99-81.64C760.88,110.11,760.86,109.91,760.86,109.63z M761.89,191.56c-19.7-0.08-39.41-0.2-59.12-0.37
			c-0.45-20.8-0.86-41.9-1.18-62.68c-0.2-12.58,0.24-6.28,0.11-18.3c19.29,0.16,38.98,0.27,58.28,0.35
			c0.22,13.07,0.51,26.85,0.91,43.16C761.19,166.34,761.53,178.95,761.89,191.56z"/>
		<path class="st18" d="M624.69,180.27c0-0.19,0-0.38,0.01-0.54c0.13-2.19,0.23-4.38,0.28-6.57c0.11-4.39,0.04-8.79-0.17-13.2
			c0.28,0.1,0.55,0.2,0.83,0.3c0.48,0.26,0.98-0.38,0.52-0.75c-7.77-6.18-14.78-13.25-22.56-19.41c0.17,14.16,0.33,26.35,0.59,40.01
			c0.28,0.01,0.37,0.02,0.49,0.02c0,0,0,0,0,0C611.35,180.18,618.02,180.23,624.69,180.27z"/>
		<path class="st48" d="M647.11,132.33c-6.47,9.07-13.51,17.72-21.13,25.86c-1.32,1.42-1.44,1.48-2.87-0.07
			c-1.16-1.26-2.29-2.55-3.4-3.85c-1.98-2.34-3.87-4.76-5.68-7.23c-3.69-5.07-6.96-10.4-9.84-15.92c0,0,0,0,0,0
			c0.07-0.11,0.08-0.25,0.09-0.47c0.01-0.38-0.48-0.57-0.76-0.41c-0.03,0.01-0.05,0.04-0.07,0.05c0.05,4.11,0.09,8.03,0.14,11.8
			c0.02,0.07,0.05,0.14,0.07,0.22c0.02,0.07,0.06,0.13,0.1,0.18c0,0.08,0.01,0.17,0.05,0.26c5.53,10.58,12.56,20.37,20.89,29.12
			c0.19,0.2,0.52,0.17,0.68,0c7.93-8.34,15.28-17.21,22.02-26.53C647.3,141,647.21,136.67,647.11,132.33z"/>
		<path class="st5" d="M646.87,120.99c0-0.2,0-0.35-0.01-0.55c-0.28,0-0.56,0-0.85,0c-6.28,8.72-13.09,17.03-20.43,24.89
			c-1.32,1.42-1.44,1.48-2.87-0.07c-1.16-1.26-2.29-2.55-3.4-3.85c-1.98-2.34-3.88-4.76-5.68-7.23c-3.25-4.47-6.16-9.15-8.78-13.97
			c-0.34,0-0.69,0-1.03-0.01c-0.09-0.03-0.19-0.03-0.27,0c-0.06,0-0.12,0-0.18,0c0,0.05,0,0.11,0,0.16
			c-0.02,0.04-0.03,0.09-0.03,0.15c0.04,3.29,0.08,6.43,0.11,9.47c5.52,10.55,12.53,20.31,20.84,29.04c0.19,0.2,0.52,0.17,0.68,0
			c7.98-8.39,15.36-17.31,22.14-26.7C647.05,128.53,646.95,124.76,646.87,120.99z"/>
		<path class="st18" d="M710.55,180.5c0.28,0.01,0.37,0.02,0.49,0.02c0,0,0,0,0,0c0.27,0,0.53,0,0.8,0.01
			c14-13.01,27.95-26.07,41.86-39.18c-0.02-0.89-0.04-1.78-0.06-2.67c-14.32,13.51-28.69,26.97-43.11,40.37
			C710.53,179.53,710.54,180.01,710.55,180.5z M744.6,180.74c3.27-3.36,6.55-6.7,9.84-10.04c-0.03-0.92-0.05-1.84-0.07-2.76
			c-4.19,4.25-8.36,8.51-12.52,12.79C742.76,180.73,743.68,180.73,744.6,180.74z M728.49,120.69c-6.14,6.74-12.32,13.44-18.53,20.12
			c0.01,0.97,0.02,1.93,0.03,2.88c7.1-7.62,14.16-15.28,21.17-22.98C730.28,120.71,729.39,120.7,728.49,120.69z M742.75,120.78
			l-32.64,31.76c0.01,0.92,0.02,1.83,0.04,2.73l35.43-34.48C744.63,120.78,743.69,120.78,742.75,120.78z M725.75,180.63
			c0.94,0.01,1.87,0.01,2.81,0.02c4.04-3.98,8.08-7.96,12.11-11.95c4.4-4.34,8.93-8.62,13.37-12.97c-0.02-0.9-0.05-1.81-0.07-2.71
			c-4.89,4.83-9.9,9.55-14.76,14.34C734.72,171.78,730.23,176.21,725.75,180.63z M710.29,165.34c0.01,0.87,0.03,1.74,0.04,2.61
			c14.63-13.08,28.98-26.44,43.06-40.08c-0.02-0.9-0.04-1.8-0.06-2.7C739.26,138.84,724.91,152.24,710.29,165.34z M716.32,120.61
			c-2.17,2.36-4.33,4.74-6.51,7.09c0.01,0.97,0.02,1.93,0.03,2.88c3.06-3.31,6.11-6.63,9.15-9.95
			C718.1,120.62,717.21,120.62,716.32,120.61z"/>
	</g>
	<g class="st49">
		<path class="st50" d="M117.92,105.91c0,3.1-2.52,5.62-5.62,5.62c-3.1,0-5.62-2.51-5.62-5.62c0-3.1,2.51-5.62,5.62-5.62
			C115.4,100.3,117.92,102.81,117.92,105.91z"/>
		<path class="st50" d="M108.8,106.06c0,1.47-1.19,2.65-2.65,2.65c-1.47,0-2.65-1.19-2.65-2.65c0-1.47,1.19-2.65,2.65-2.65
			C107.61,103.4,108.8,104.59,108.8,106.06z"/>
		<circle class="st50" cx="107.58" cy="100.16" r="7.56"/>
		<path class="st50" d="M113.91,108.16c-2-3.49-0.8-7.94,2.7-9.95c3.49-2,7.94-0.8,9.95,2.7c2,3.49,0.8,7.94-2.7,9.95
			C120.36,112.86,115.91,111.65,113.91,108.16z"/>
		<path class="st50" d="M106.12,100.64c-1.97-3.44-0.78-7.82,2.65-9.79c3.44-1.97,7.82-0.78,9.79,2.65
			c1.97,3.44,0.78,7.82-2.65,9.79C112.47,105.26,108.09,104.07,106.12,100.64z"/>
		<path class="st50" d="M118.47,100.92c-1.54-2.69-0.61-6.12,2.08-7.66c2.69-1.54,6.12-0.61,7.66,2.08
			c1.54,2.69,0.61,6.12-2.08,7.66C123.44,104.54,120.02,103.61,118.47,100.92z"/>
		<path class="st50" d="M122.69,104.52c-1.17-2.04-0.47-4.65,1.58-5.82c2.04-1.17,4.65-0.47,5.82,1.58
			c1.17,2.04,0.47,4.65-1.58,5.82C126.47,107.27,123.86,106.56,122.69,104.52z"/>
		<path class="st50" d="M115.34,96.43c-1.07-1.86-0.42-4.23,1.43-5.29c1.86-1.07,4.23-0.42,5.29,1.43c1.07,1.86,0.42,4.23-1.43,5.29
			C118.78,98.93,116.41,98.28,115.34,96.43z"/>
	</g>
	<g class="st49">
		<path class="st50" d="M39.81,138.92c1.11,2.9-0.34,6.15-3.24,7.25c-2.9,1.11-6.15-0.34-7.25-3.24c-1.11-2.9,0.34-6.15,3.24-7.25
			C35.45,134.58,38.7,136.03,39.81,138.92z"/>
		<path class="st50" d="M31.34,142.32c0.52,1.37-0.16,2.9-1.53,3.43c-1.37,0.52-2.9-0.16-3.43-1.53c-0.52-1.37,0.16-2.9,1.53-3.43
			C29.28,140.26,30.82,140.95,31.34,142.32z"/>
		
			<ellipse transform="matrix(0.9339 -0.3574 0.3574 0.9339 -47.1984 19.1102)" class="st50" cx="28.1" cy="137.25" rx="7.56" ry="7.56"/>
		<path class="st50" d="M36.87,142.46c-3.12-2.54-3.58-7.13-1.04-10.25c2.54-3.12,7.13-3.58,10.25-1.04
			c3.12,2.54,3.58,7.13,1.04,10.25C44.58,144.54,39.99,145,36.87,142.46z"/>
		<path class="st50" d="M26.91,138.21c-3.07-2.51-3.53-7.03-1.02-10.1c2.51-3.07,7.03-3.53,10.1-1.02c3.07,2.51,3.53,7.03,1.02,10.1
			C34.49,140.26,29.97,140.72,26.91,138.21z"/>
		<path class="st50" d="M38.54,134.06c-2.4-1.96-2.76-5.49-0.8-7.9c1.96-2.4,5.49-2.76,7.9-0.8c2.4,1.96,2.76,5.49,0.8,7.9
			C44.48,135.66,40.95,136.02,38.54,134.06z"/>
		<path class="st50" d="M43.77,135.91c-1.83-1.49-2.1-4.18-0.61-6c1.49-1.83,4.18-2.1,6-0.61c1.83,1.49,2.1,4.18,0.61,6
			C48.28,137.13,45.59,137.4,43.77,135.91z"/>
		<path class="st50" d="M34.01,130.98c-1.66-1.35-1.91-3.8-0.55-5.46c1.35-1.66,3.8-1.91,5.46-0.55c1.66,1.35,1.91,3.8,0.55,5.46
			C38.12,132.09,35.67,132.34,34.01,130.98z"/>
	</g>
</g>
</svg>
