<?xml version="1.0" encoding="utf-8"?>
<!-- Generator: Adobe Illustrator 23.0.2, SVG Export Plug-In . SVG Version: 6.00 Build 0)  -->
<svg version="1.1" id="Layer_1" xmlns="http://www.w3.org/2000/svg" xmlns:xlink="http://www.w3.org/1999/xlink" x="0px" y="0px"
	 viewBox="0 0 713.97 463.96" style="enable-background:new 0 0 713.97 463.96;" xml:space="preserve">
<style type="text/css">
	.st0{opacity:0.09;fill:#007CC7;enable-background:new    ;}
	.st1{fill:#73A0BE;}
</style>
<path class="st0" d="M712.64,179.3C694.37,62.89,521.2-15.79,325.22,2.69C129.23,21.17-15.48,130.95,1.33,246.36
	c9.72,62.28,62.07,112.23,139.81,143.51c0,0,48.79,26.47,152.25,33.02l-29.69,41.06l70.33-39.63c17.06,0.14,35.29-0.26,54.73-1.36
	C584.73,404.49,729.44,294.71,712.64,179.3z"/>
<g>
	<path class="st1" d="M126.04,94.68c-0.33-1.12-0.51-2.29-0.51-3.17c0-1.87,2.05-3.22,5.65-3.22c2.66,0,2.89,0.75,2.89,1.96
		l-0.23,16.98c0.89,0.51,1.35,1.07,1.35,1.87c0,3.17-2.43,4.9-5.69,4.9c-3.08,0-3.64-0.75-3.64-4.95c0-2.33,0.09-5.97,0.09-8.91
		C125.99,98.36,125.99,96.54,126.04,94.68z"/>
	<path class="st1" d="M152.26,89.73c1.63-0.89,4.01-1.45,6.58-1.45c2.99,0,4.34,1.26,4.57,3.13c0.56,4.67,1.68,11.99,2.99,16.66
		c1.03,0.79,1.45,1.31,1.45,2.29c0,2.57-3.27,3.64-6.63,3.64c-1.96,0-2.52-1.17-3.13-4.76c-1.12,0.14-2.89,0.14-4.76,0.14
		c-0.19,0.7-0.56,3.59-0.56,4.11c-0.33,0.33-1.03,0.56-2.1,0.56c-1.68,0-4.15-0.61-4.15-2.99C146.52,109.84,149,98.27,152.26,89.73z
		 M156.18,95.61c-0.56,2.01-1.49,6.16-2.05,9.1c0.7,0,2.52-0.05,3.36-0.19C157.12,102.7,156.56,98.18,156.18,95.61z"/>
	<path class="st1" d="M178.86,89.68c0.98,1.35,2.19,3.92,3.17,6.07c0.56,1.31,1.12,2.66,1.63,4.06c0.7-1.49,1.35-2.85,1.96-4.11
		c1.12-2.19,2.24-4.53,2.75-5.41c0.89-1.49,1.77-2.05,2.99-2.05c4.34,0,4.71,0.98,4.71,2.1c0,4.25-0.14,14.46-0.37,18.8
		c-0.14,3.5-1.45,4.81-4.2,4.81c-1.26,0-2.47-0.37-2.99-1.12l-0.09-12.55c-0.47,1.21-1.45,3.08-2.57,4.81
		c-0.14,3.17-1.07,6.07-3.92,6.07c-1.54,0-2.47-0.61-2.71-1.21c-0.19-2.19-0.61-3.97-1.17-5.41l-1.59-4.01
		c0,3.41-0.05,7.79-0.42,10.36c-0.23,2.01-1.49,3.03-3.78,3.03c-1.07,0-1.87-0.33-2.19-1.07c0-3.13-0.05-11.43-0.05-17.73
		c-0.37-1.12-0.7-2.43-0.7-3.36c0-1.82,2.66-3.45,6.02-3.45C177.23,88.28,178.02,88.61,178.86,89.68z"/>
	<path class="st1" d="M223.28,104.71c2.05,2.61,2.38,2.71,4.15,2.89c0.23,0.42,0.37,1.03,0.37,1.54c0,2.75-1.82,4.99-4.85,4.99
		c-2.1,0-2.71-0.7-3.69-2.57c-1.26-2.24-1.91-3.31-2.8-3.83l-0.23,3.03c-0.23,2.47-1.03,3.13-3.78,3.13c-3.08,0-3.27-0.75-3.27-4.95
		c0-2.38,0.05-5.74,0.19-8.59c0.05-1.68,0.09-3.41,0.14-5.13c-0.23-0.98-0.33-1.91-0.33-2.8c0-1.87,1.07-2.66,5.51-3.03
		c1.91-0.75,3.45-1.12,5.69-1.12c4.99,0,7,2.99,7,7.19C227.39,99.34,226.17,101.44,223.28,104.71z M216.65,102.24
		c0.65,0,2.24,0.28,2.8,0.51c0.7-1.68,1.07-3.22,1.07-4.71c0-2.29-0.84-3.41-3.5-3.64L216.65,102.24z"/>
	<path class="st1" d="M244,113.39c-1.31,0.28-3.08,0.37-6.3,0.37c-1.31,0-2.15,0-3.03-0.14c-2.05-0.23-4.34-1.68-4.34-3.31
		c0-2.33,0.05-6.11,0.19-9.29c0.05-1.87,0.09-3.78,0.14-5.79c-0.51-1.31-0.65-2.19-0.65-3.55c0-2.05,1.12-3.08,5.6-3.08
		c2.52,0,9.43,0.14,11.06,0.14c0.51,0.51,0.79,1.77,0.79,2.66c0,2.61-1.17,3.69-3.36,3.83c-0.98,0.14-3.83,0.19-6.02,0.19
		l-0.14,4.34c2.01-0.19,6.25-0.19,6.91-0.19c0.33,0.42,0.51,1.03,0.51,1.73c0,2.38-0.98,3.59-2.47,3.73
		c-0.65,0.14-2.66,0.05-5.04,0.19l-0.05,2.61l8.12,0.05c0.37,0.51,0.51,0.98,0.51,1.68C246.42,111.85,245.44,113.15,244,113.39z"/>
	<path class="st1" d="M254.22,89.73c1.63-0.89,4.01-1.45,6.58-1.45c2.99,0,4.34,1.26,4.57,3.13c0.56,4.67,1.68,11.99,2.99,16.66
		c1.03,0.79,1.45,1.31,1.45,2.29c0,2.57-3.27,3.64-6.63,3.64c-1.96,0-2.52-1.17-3.13-4.76c-1.12,0.14-2.89,0.14-4.76,0.14
		c-0.19,0.7-0.56,3.59-0.56,4.11c-0.33,0.33-1.03,0.56-2.1,0.56c-1.68,0-4.15-0.61-4.15-2.99
		C248.48,109.84,250.95,98.27,254.22,89.73z M258.14,95.61c-0.56,2.01-1.49,6.16-2.05,9.1c0.7,0,2.52-0.05,3.36-0.19
		C259.07,102.7,258.51,98.18,258.14,95.61z"/>
	<path class="st1" d="M284.96,106.71c0.51,0.42,0.79,1.4,0.79,2.24c0,3.55-1.91,4.53-4.01,4.67c-1.31,0.14-2.99,0.19-4.71,0.19
		c-2.57,0-5.51-1.49-5.51-3.17c0-8.87,0.14-9.71,0.14-16.38c-0.23-0.98-0.37-1.91-0.37-2.8c0-1.87,2.05-3.17,5.65-3.17
		c2.61,0,2.94,0.75,2.94,1.96c0,3.22-0.23,9.57-0.47,16.56C280.95,106.81,284.12,106.71,284.96,106.71z"/>
	<path class="st1" d="M301.11,106.71c0.51,0.42,0.79,1.4,0.79,2.24c0,3.55-1.91,4.53-4.01,4.67c-1.31,0.14-2.99,0.19-4.71,0.19
		c-2.57,0-5.51-1.49-5.51-3.17c0-8.87,0.14-9.71,0.14-16.38c-0.23-0.98-0.37-1.91-0.37-2.8c0-1.87,2.05-3.17,5.65-3.17
		c2.61,0,2.94,0.75,2.94,1.96c0,3.22-0.23,9.57-0.47,16.56C297.1,106.81,300.27,106.71,301.11,106.71z"/>
	<path class="st1" d="M315.81,88.28c2.57,0,3.87,1.21,4.11,2.94l-6.3,13.25l-0.05,5.83c0,1.82-1.31,3.69-5.83,3.69
		c-2.15,0-2.75-0.61-2.75-3.41c0-1.17,0.05-2.66,0.05-3.73c0.05-0.7,0.05-1.35,0.09-2.05l-4.01-10.41
		c-0.98-0.75-1.45-1.87-1.45-2.75c0-2.15,3.36-3.36,5.83-3.36c1.73,0,2.71,0.7,3.36,2.61l2.05,5.93l2.01-6.02
		C313.52,88.94,314.08,88.28,315.81,88.28z"/>
	<path class="st1" d="M332.09,94.68c-0.33-1.12-0.51-2.29-0.51-3.17c0-1.87,2.05-3.22,5.65-3.22c2.66,0,2.89,0.75,2.89,1.96
		l-0.23,16.98c0.89,0.51,1.35,1.07,1.35,1.87c0,3.17-2.43,4.9-5.69,4.9c-3.08,0-3.64-0.75-3.64-4.95c0-2.33,0.09-5.97,0.09-8.91
		C332.04,98.36,332.04,96.54,332.09,94.68z"/>
	<path class="st1" d="M352.67,89.68c0.98,1.35,2.19,3.92,3.17,6.07c0.56,1.31,1.12,2.66,1.63,4.06c0.7-1.49,1.35-2.85,1.96-4.11
		c1.12-2.19,2.24-4.53,2.75-5.41c0.89-1.49,1.77-2.05,2.99-2.05c4.34,0,4.71,0.98,4.71,2.1c0,4.25-0.14,14.46-0.37,18.8
		c-0.14,3.5-1.45,4.81-4.2,4.81c-1.26,0-2.47-0.37-2.99-1.12l-0.09-12.55c-0.47,1.21-1.45,3.08-2.57,4.81
		c-0.14,3.17-1.07,6.07-3.92,6.07c-1.54,0-2.47-0.61-2.71-1.21c-0.19-2.19-0.61-3.97-1.17-5.41l-1.59-4.01
		c0,3.41-0.05,7.79-0.42,10.36c-0.23,2.01-1.49,3.03-3.78,3.03c-1.07,0-1.87-0.33-2.19-1.07c0-3.13-0.05-11.43-0.05-17.73
		c-0.37-1.12-0.7-2.43-0.7-3.36c0-1.82,2.66-3.45,6.02-3.45C351.04,88.28,351.83,88.61,352.67,89.68z"/>
	<path class="st1" d="M379.78,110.77c-0.23,2.47-1.03,3.13-3.78,3.13c-3.08,0-3.27-0.75-3.27-4.95c0-2.38,0.05-5.74,0.19-8.59
		c0.05-1.63,0.09-3.36,0.14-5.09c-0.23-0.98-0.33-1.91-0.33-2.8c0-1.87,1.07-2.71,5.51-3.08c1.91-0.75,3.45-1.12,5.69-1.12
		c5.41,0,7,3.27,7,7.51c0,8.21-3.78,12.74-9.24,12.74c-0.56,0-1.12,0-1.73-0.14L379.78,110.77z M380.2,102.38
		c0.51,0.28,1.77,0.51,2.47,0.51c1.26,0,1.4-2.38,1.4-5.18c0-1.87-0.56-3.03-3.5-3.27L380.2,102.38z"/>
	<path class="st1" d="M407.17,104.71c2.05,2.61,2.38,2.71,4.15,2.89c0.23,0.42,0.37,1.03,0.37,1.54c0,2.75-1.82,4.99-4.85,4.99
		c-2.1,0-2.71-0.7-3.69-2.57c-1.26-2.24-1.91-3.31-2.8-3.83l-0.23,3.03c-0.23,2.47-1.03,3.13-3.78,3.13c-3.08,0-3.27-0.75-3.27-4.95
		c0-2.38,0.05-5.74,0.19-8.59c0.05-1.68,0.09-3.41,0.14-5.13c-0.23-0.98-0.33-1.91-0.33-2.8c0-1.87,1.07-2.66,5.51-3.03
		c1.91-0.75,3.45-1.12,5.69-1.12c4.99,0,7,2.99,7,7.19C411.27,99.34,410.06,101.44,407.17,104.71z M400.54,102.24
		c0.65,0,2.24,0.28,2.8,0.51c0.7-1.68,1.07-3.22,1.07-4.71c0-2.29-0.84-3.41-3.5-3.64L400.54,102.24z"/>
	<path class="st1" d="M427.89,113.39c-1.31,0.28-3.08,0.37-6.3,0.37c-1.31,0-2.15,0-3.03-0.14c-2.05-0.23-4.34-1.68-4.34-3.31
		c0-2.33,0.05-6.11,0.19-9.29c0.05-1.87,0.09-3.78,0.14-5.79c-0.51-1.31-0.65-2.19-0.65-3.55c0-2.05,1.12-3.08,5.6-3.08
		c2.52,0,9.42,0.14,11.06,0.14c0.51,0.51,0.79,1.77,0.79,2.66c0,2.61-1.17,3.69-3.36,3.83c-0.98,0.14-3.83,0.19-6.02,0.19
		l-0.14,4.34c2.01-0.19,6.25-0.19,6.91-0.19c0.33,0.42,0.51,1.03,0.51,1.73c0,2.38-0.98,3.59-2.47,3.73
		c-0.65,0.14-2.66,0.05-5.04,0.19l-0.05,2.61l8.12,0.05c0.37,0.51,0.51,0.98,0.51,1.68C430.31,111.85,429.33,113.15,427.89,113.39z"
		/>
	<path class="st1" d="M441.79,88.28c4.95,0,7.28,2.52,7.28,5.04c0,2.99-1.73,4.2-3.83,4.2c-0.7,0-1.12-0.09-1.63-0.23
		c-0.37-1.73-1.17-2.57-3.41-3.31c-0.19,0.42-0.28,1.07-0.28,1.63c0,1.21,0.23,1.49,5.46,4.85c2.94,1.82,3.97,3.22,3.97,5.93
		c0,3.97-2.99,7.65-9.01,7.65c-4.9,0-8.21-1.49-8.21-5.41c0-2.38,1.45-3.92,3.45-3.92c0.33,0,0.7,0,1.07,0.14
		c1.87,3.36,2.94,4.15,4.29,4.15c0.93,0,1.31-0.51,1.31-1.07c0-0.61-0.7-1.26-5.55-4.62c-2.61-1.87-3.5-3.59-3.5-6.16
		c0-2.24,0.89-4.53,2.75-5.88C437.22,89.12,438.62,88.28,441.79,88.28z"/>
	<path class="st1" d="M460.27,88.28c4.95,0,7.28,2.52,7.28,5.04c0,2.99-1.73,4.2-3.83,4.2c-0.7,0-1.12-0.09-1.63-0.23
		c-0.37-1.73-1.17-2.57-3.41-3.31c-0.19,0.42-0.28,1.07-0.28,1.63c0,1.21,0.23,1.49,5.46,4.85c2.94,1.82,3.97,3.22,3.97,5.93
		c0,3.97-2.99,7.65-9.01,7.65c-4.9,0-8.21-1.49-8.21-5.41c0-2.38,1.45-3.92,3.45-3.92c0.33,0,0.7,0,1.07,0.14
		c1.87,3.36,2.94,4.15,4.29,4.15c0.93,0,1.31-0.51,1.31-1.07c0-0.61-0.7-1.26-5.55-4.62c-2.61-1.87-3.5-3.59-3.5-6.16
		c0-2.24,0.89-4.53,2.75-5.88C455.7,89.12,457.09,88.28,460.27,88.28z"/>
	<path class="st1" d="M484.16,113.39c-1.31,0.28-3.08,0.37-6.3,0.37c-1.31,0-2.15,0-3.03-0.14c-2.05-0.23-4.34-1.68-4.34-3.31
		c0-2.33,0.05-6.11,0.19-9.29c0.05-1.87,0.09-3.78,0.14-5.79c-0.51-1.31-0.65-2.19-0.65-3.55c0-2.05,1.12-3.08,5.6-3.08
		c2.52,0,9.43,0.14,11.06,0.14c0.51,0.51,0.79,1.77,0.79,2.66c0,2.61-1.17,3.69-3.36,3.83c-0.98,0.14-3.83,0.19-6.02,0.19
		l-0.14,4.34c2.01-0.19,6.25-0.19,6.91-0.19c0.33,0.42,0.51,1.03,0.51,1.73c0,2.38-0.98,3.59-2.47,3.73
		c-0.65,0.14-2.66,0.05-5.04,0.19l-0.05,2.61l8.12,0.05c0.37,0.51,0.51,0.98,0.51,1.68C486.58,111.85,485.6,113.15,484.16,113.39z"
		/>
	<path class="st1" d="M495.26,89.12c1.45-0.51,3.08-0.84,4.11-0.84c7.09,0,9.85,3.73,9.85,10.36c0,9.52-4.29,15.26-10.83,15.26
		c-4.29,0-8.59-0.84-8.59-3.59c0-2.33,0.14-6.16,0.14-9.43c0.05-1.91,0.09-3.87,0.14-5.88c-0.37-0.89-0.61-1.87-0.61-3.36
		C489.48,89.82,491.34,89.26,495.26,89.12z M501.75,100.79c0-3.59-1.26-5.55-4.25-6.44c0,3.64-0.14,8.68-0.37,13.67
		c0.42,0.23,0.93,0.33,1.31,0.33C499.74,108.35,501.75,107.88,501.75,100.79z"/>
	<path class="st1" d="M536.84,88.8c0.37,0.51,0.75,1.63,0.75,2.47c0,3.87-1.49,4.9-4.48,5.04c0,1.49-0.14,5.23-0.28,8.4
		c-0.05,1.91-0.14,3.92-0.23,6.11c-0.14,2.29-2.05,3.13-4.81,3.13c-3.03,0-3.13-0.75-3.13-4.95c0-2.38,0.09-5.41,0.09-7.93
		l0.14-4.48c-3.64,0-4.34-0.47-4.34-1.82c0-3.59,1.35-5.79,2.85-6.02c1.31-0.14,2.57-0.19,6.07-0.19
		C533.15,88.56,535.11,88.66,536.84,88.8z"/>
	<path class="st1" d="M550.56,89.4c0.98-0.61,2.24-1.07,4.11-1.07c2.99,0,3.73,0.98,3.73,3.45c0,3.22-0.14,8.4-0.51,18.15
		c-0.14,2.47-1.35,3.87-4.11,3.87c-2.89,0-3.27-0.75-3.27-4.95v-3.92c-0.89,0.14-2.57,0.28-3.78,0.28l-0.23,5.55
		c-0.14,2.05-2.01,3.17-4.9,3.17c-1.31,0-2.24-0.33-2.61-1.12c0-2.38,0-6.95,0.14-11.01c0.05-2.38,0.05-4.85,0.09-7.47
		c-0.23-0.98-0.33-1.91-0.33-2.8c0-1.82,2.05-3.17,5.65-3.17c1.49,0,2.66,0.56,2.66,2.19c0,1.54-0.05,3.69-0.28,9.29l3.64-0.37V89.4
		z"/>
	<path class="st1" d="M566.14,89.73c1.63-0.89,4.01-1.45,6.58-1.45c2.99,0,4.34,1.26,4.57,3.13c0.56,4.67,1.68,11.99,2.99,16.66
		c1.03,0.79,1.45,1.31,1.45,2.29c0,2.57-3.27,3.64-6.63,3.64c-1.96,0-2.52-1.17-3.13-4.76c-1.12,0.14-2.89,0.14-4.76,0.14
		c-0.19,0.7-0.56,3.59-0.56,4.11c-0.33,0.33-1.03,0.56-2.1,0.56c-1.68,0-4.15-0.61-4.15-2.99
		C560.4,109.84,562.87,98.27,566.14,89.73z M570.06,95.61c-0.56,2.01-1.49,6.16-2.05,9.1c0.7,0,2.52-0.05,3.36-0.19
		C570.99,102.7,570.43,98.18,570.06,95.61z"/>
	<path class="st1" d="M597.12,88.8c0.37,0.51,0.75,1.63,0.75,2.47c0,3.87-1.49,4.9-4.48,5.04c0,1.49-0.14,5.23-0.28,8.4
		c-0.05,1.91-0.14,3.92-0.23,6.11c-0.14,2.29-2.05,3.13-4.81,3.13c-3.03,0-3.13-0.75-3.13-4.95c0-2.38,0.09-5.41,0.09-7.93
		l0.14-4.48c-3.64,0-4.34-0.47-4.34-1.82c0-3.59,1.35-5.79,2.85-6.02c1.31-0.14,2.57-0.19,6.07-0.19
		C593.44,88.56,595.4,88.66,597.12,88.8z"/>
	<path class="st1" d="M177.16,125.26c2.57,0,3.87,1.21,4.11,2.94l-6.3,13.25l-0.05,5.83c0,1.82-1.31,3.69-5.83,3.69
		c-2.15,0-2.75-0.61-2.75-3.41c0-1.17,0.05-2.66,0.05-3.73c0.05-0.7,0.05-1.35,0.09-2.05l-4.01-10.41
		c-0.98-0.75-1.45-1.87-1.45-2.75c0-2.15,3.36-3.36,5.83-3.36c1.73,0,2.71,0.7,3.36,2.61l2.05,5.93l2.01-6.02
		C174.87,125.91,175.43,125.26,177.16,125.26z"/>
	<path class="st1" d="M192.46,125.26c4.81,0,8.35,3.5,8.35,10.83c0,8.45-2.94,15.02-10.41,15.02c-5.79,0-9.19-2.47-9.19-11.29
		c0-6.02,1.45-9.15,4.15-10.87C186.86,126.19,189.71,125.26,192.46,125.26z M189.33,131.42c-0.37,1.87-0.42,5.46-0.42,6.81
		c0,5.83,0.84,6.77,3.78,7.33c0.61-2.85,0.75-5.93,0.75-7.33C193.44,133.8,192.13,132.31,189.33,131.42z"/>
	<path class="st1" d="M203.52,131.28c-0.23-1.07-0.37-1.91-0.37-2.8c0-1.87,2.05-3.22,5.65-3.22c2.38,0,2.75,1.07,2.75,2.43
		c0,2.43-0.33,6.07-0.33,10.13c0,5.83,0.75,6.67,3.5,7.23c0-2.99,0.19-13.9,0.19-15.54c0-2.43,0.14-4.15,3.59-4.15
		c1.73,0,3.31,0.47,3.92,1.21c0,3.22-0.23,12.37-0.23,19.41c0,3.03-1.82,3.69-6.11,3.92c-1.17,0.7-2.89,1.12-5.09,1.12
		c-6.16,0-7.79-4.11-7.79-12.6C203.19,135.15,203.33,134.08,203.52,131.28z"/>
	<path class="st1" d="M250.83,125.77c0.37,0.51,0.75,1.63,0.75,2.47c0,3.87-1.49,4.9-4.48,5.04c0,1.49-0.14,5.23-0.28,8.4
		c-0.05,1.91-0.14,3.92-0.23,6.11c-0.14,2.29-2.05,3.13-4.81,3.13c-3.03,0-3.13-0.75-3.13-4.95c0-2.38,0.09-5.41,0.09-7.93
		l0.14-4.48c-3.64,0-4.34-0.47-4.34-1.82c0-3.59,1.35-5.79,2.85-6.02c1.31-0.14,2.57-0.19,6.07-0.19
		C247.15,125.54,249.11,125.63,250.83,125.77z"/>
	<path class="st1" d="M262.87,125.26c4.81,0,8.35,3.5,8.35,10.83c0,8.45-2.94,15.02-10.41,15.02c-5.79,0-9.19-2.47-9.19-11.29
		c0-6.02,1.45-9.15,4.15-10.87C257.27,126.19,260.12,125.26,262.87,125.26z M259.75,131.42c-0.37,1.87-0.42,5.46-0.42,6.81
		c0,5.83,0.84,6.77,3.78,7.33c0.61-2.85,0.75-5.93,0.75-7.33C263.85,133.8,262.55,132.31,259.75,131.42z"/>
	<path class="st1" d="M284.48,125.26c4.81,0,8.35,3.5,8.35,10.83c0,8.45-2.94,15.02-10.41,15.02c-5.79,0-9.19-2.47-9.19-11.29
		c0-6.02,1.45-9.15,4.15-10.87C278.88,126.19,281.72,125.26,284.48,125.26z M281.35,131.42c-0.37,1.87-0.42,5.46-0.42,6.81
		c0,5.83,0.84,6.77,3.78,7.33c0.61-2.85,0.75-5.93,0.75-7.33C285.46,133.8,284.15,132.31,281.35,131.42z"/>
	<path class="st1" d="M295.25,149.85c0-2.29-0.05-7,0.14-10.97c0.05-2.38,0.05-4.9,0.09-7.51c-0.23-0.98-0.33-1.91-0.33-2.8
		c0-1.82,2.05-3.17,5.65-3.17c1.45,0,2.47,0.56,2.47,2.19c0,1.49-0.23,4.39-0.47,9.94c0.37,0,0.84,0.09,1.07,0.14
		c1.49-4.25,2.33-6.81,2.57-9.57c0.23-1.96,2.05-2.89,4.81-2.89c2.47,0,3.45,1.54,3.45,3.41c-1.12,3.22-3.41,7.98-5.32,10.87
		l2.29,3.27c0.89,1.26,1.54,1.45,3.36,1.59c0.23,0.51,0.37,1.07,0.37,1.59c0,2.85-2.19,5.23-5.37,5.23c-1.91,0-2.94-0.65-3.92-2.38
		l-3.5-6.35l-0.23,5.37c-0.14,2.05-1.77,3.17-4.53,3.17C296.56,150.97,295.63,150.64,295.25,149.85z"/>
	<path class="st1" d="M342.85,125.77c0.37,0.51,0.75,1.63,0.75,2.47c0,3.87-1.49,4.9-4.48,5.04c0,1.49-0.14,5.23-0.28,8.4
		c-0.05,1.91-0.14,3.92-0.23,6.11c-0.14,2.29-2.05,3.13-4.81,3.13c-3.03,0-3.13-0.75-3.13-4.95c0-2.38,0.09-5.41,0.09-7.93
		l0.14-4.48c-3.64,0-4.34-0.47-4.34-1.82c0-3.59,1.35-5.79,2.85-6.02c1.31-0.14,2.57-0.19,6.07-0.19
		C339.16,125.54,341.12,125.63,342.85,125.77z"/>
	<path class="st1" d="M356.57,126.38c0.98-0.61,2.24-1.07,4.11-1.07c2.99,0,3.73,0.98,3.73,3.45c0,3.22-0.14,8.4-0.51,18.15
		c-0.14,2.47-1.35,3.87-4.11,3.87c-2.89,0-3.27-0.75-3.27-4.95v-3.92c-0.89,0.14-2.57,0.28-3.78,0.28l-0.23,5.55
		c-0.14,2.05-2.01,3.17-4.9,3.17c-1.31,0-2.24-0.33-2.61-1.12c0-2.38,0-6.95,0.14-11.01c0.05-2.38,0.05-4.85,0.09-7.47
		c-0.23-0.98-0.33-1.91-0.33-2.8c0-1.82,2.05-3.17,5.65-3.17c1.49,0,2.66,0.56,2.66,2.19c0,1.54-0.05,3.69-0.28,9.29l3.64-0.37
		V126.38z"/>
	<path class="st1" d="M381.25,150.36c-1.31,0.28-3.08,0.37-6.3,0.37c-1.31,0-2.15,0-3.03-0.14c-2.05-0.23-4.34-1.68-4.34-3.31
		c0-2.33,0.05-6.11,0.19-9.29c0.05-1.87,0.09-3.78,0.14-5.79c-0.51-1.31-0.65-2.19-0.65-3.55c0-2.05,1.12-3.08,5.6-3.08
		c2.52,0,9.43,0.14,11.06,0.14c0.51,0.51,0.79,1.77,0.79,2.66c0,2.61-1.17,3.69-3.36,3.83c-0.98,0.14-3.83,0.19-6.02,0.19
		l-0.14,4.34c2.01-0.19,6.25-0.19,6.91-0.19c0.33,0.42,0.51,1.03,0.51,1.73c0,2.38-0.98,3.59-2.47,3.73
		c-0.65,0.14-2.66,0.05-5.04,0.19l-0.05,2.61l8.12,0.05c0.37,0.51,0.51,0.98,0.51,1.68C383.68,148.82,382.7,150.13,381.25,150.36z"
		/>
	<path class="st1" d="M402.62,126.1c1.45-0.51,3.08-0.84,4.11-0.84c7.09,0,9.85,3.73,9.85,10.36c0,9.52-4.29,15.26-10.83,15.26
		c-4.29,0-8.59-0.84-8.59-3.59c0-2.33,0.14-6.16,0.14-9.43c0.05-1.91,0.09-3.87,0.14-5.88c-0.37-0.89-0.61-1.87-0.61-3.36
		C396.83,126.8,398.7,126.24,402.62,126.1z M409.11,137.77c0-3.59-1.26-5.55-4.25-6.44c0,3.64-0.14,8.68-0.37,13.67
		c0.42,0.23,0.93,0.33,1.31,0.33C407.1,145.32,409.11,144.86,409.11,137.77z"/>
	<path class="st1" d="M429.54,125.26c4.81,0,8.35,3.5,8.35,10.83c0,8.45-2.94,15.02-10.41,15.02c-5.79,0-9.19-2.47-9.19-11.29
		c0-6.02,1.45-9.15,4.15-10.87C423.94,126.19,426.79,125.26,429.54,125.26z M426.42,131.42c-0.37,1.87-0.42,5.46-0.42,6.81
		c0,5.83,0.84,6.77,3.78,7.33c0.61-2.85,0.75-5.93,0.75-7.33C430.52,133.8,429.22,132.31,426.42,131.42z"/>
	<path class="st1" d="M451.15,139.82c0.89-0.61,2.1-0.93,3.64-0.93c2.61,0,3.22,0.89,3.22,2.99c0,1.87-0.14,4.34-0.37,6.16
		c-0.23,2.1-3.55,2.94-7.61,2.94c-6.35,0-10.13-2.66-10.13-11.53c0-7.51,2.33-10.92,5.93-11.9c1.87-1.63,3.41-2.29,6.72-2.29
		c3.17,0,4.81,1.45,4.81,4.2c0,1.54-0.75,2.99-2.05,3.87c-1.96-0.75-3.55-1.21-6.53-1.21c-0.65,1.91-1.07,4.71-1.07,6.16
		c0,4.81,0.75,6.58,3.36,7.56L451.15,139.82z"/>
	<path class="st1" d="M471.3,132.17c-0.51-1.31-0.65-2.19-0.65-3.55c0-2.05,1.12-3.08,5.6-3.08c2.57,0,7.51-0.05,9.19,0.14
		c0.51,0.51,0.84,1.49,0.84,2.38c0,3.03-1.12,4.85-3.31,5.04c-0.98,0.14-2.89,0.14-4.01,0.14l-0.14,4.53
		c2.1-0.14,3.69-0.14,4.34-0.14c1.4,0,1.77,0.37,1.77,1.49c0,3.36-1.35,4.76-2.85,4.9c-0.56,0.05-1.59,0.14-3.45,0.19l-0.09,3.55
		c0,2.47-1.35,3.13-4.06,3.13c-3.08,0-3.27-0.75-3.27-4.95c0-2.33,0.05-5.74,0.05-8.63C471.3,135.62,471.3,133.89,471.3,132.17z"/>
	<path class="st1" d="M498.65,125.26c4.81,0,8.35,3.5,8.35,10.83c0,8.45-2.94,15.02-10.41,15.02c-5.79,0-9.19-2.47-9.19-11.29
		c0-6.02,1.45-9.15,4.15-10.87C493.05,126.19,495.89,125.26,498.65,125.26z M495.52,131.42c-0.37,1.87-0.42,5.46-0.42,6.81
		c0,5.83,0.84,6.77,3.78,7.33c0.61-2.85,0.75-5.93,0.75-7.33C499.63,133.8,498.32,132.31,495.52,131.42z"/>
	<path class="st1" d="M523.42,141.69c2.05,2.61,2.38,2.71,4.15,2.89c0.23,0.42,0.37,1.03,0.37,1.54c0,2.75-1.82,4.99-4.85,4.99
		c-2.1,0-2.71-0.7-3.69-2.57c-1.26-2.24-1.91-3.31-2.8-3.83l-0.23,3.03c-0.23,2.47-1.03,3.13-3.78,3.13c-3.08,0-3.27-0.75-3.27-4.95
		c0-2.38,0.05-5.74,0.19-8.59c0.05-1.68,0.09-3.41,0.14-5.13c-0.23-0.98-0.33-1.91-0.33-2.8c0-1.87,1.07-2.66,5.51-3.03
		c1.91-0.75,3.45-1.12,5.69-1.12c4.99,0,7,2.99,7,7.19C527.53,136.32,526.32,138.42,523.42,141.69z M516.8,139.21
		c0.65,0,2.24,0.28,2.8,0.51c0.7-1.68,1.07-3.22,1.07-4.71c0-2.29-0.84-3.41-3.5-3.64L516.8,139.21z"/>
	<path class="st1" d="M545.31,126.71c1.63-0.89,4.01-1.45,6.58-1.45c2.99,0,4.34,1.26,4.57,3.13c0.56,4.67,1.68,11.99,2.99,16.66
		c1.03,0.79,1.45,1.31,1.45,2.29c0,2.57-3.27,3.64-6.63,3.64c-1.96,0-2.52-1.17-3.13-4.76c-1.12,0.14-2.89,0.14-4.76,0.14
		c-0.19,0.7-0.56,3.59-0.56,4.11c-0.33,0.33-1.03,0.56-2.1,0.56c-1.68,0-4.15-0.61-4.15-2.99
		C539.57,146.82,542.04,135.25,545.31,126.71z M549.23,132.59c-0.56,2.01-1.49,6.16-2.05,9.1c0.7,0,2.52-0.05,3.36-0.19
		C550.16,139.68,549.6,135.15,549.23,132.59z"/>
	<path class="st1" d="M164.28,163.17c0.51-0.37,1.45-0.84,2.43-0.84c2.61,0,4.11,0.84,4.11,4.39c0,2.01-1.26,8.82-4.25,16.8
		c-0.75,1.87-1.45,2.71-4.67,3.45c-1.12,0.7-2.19,0.93-3.64,0.93c-1.31,0-2.05-0.33-2.57-2.71c-0.19-0.98-0.93-4.85-1.12-5.93
		c-0.89,3.22-1.87,5.97-2.61,6.95c-0.84,1.07-2.99,1.73-5.09,1.73c-2.89,0-3.45-1.45-3.97-4.57c-0.75-4.71-1.12-9.47-2.1-14.33
		c-0.79-0.93-1.17-1.87-1.17-2.99c0-2.75,2.61-3.83,5.93-3.83c1.68,0,2.52,0.7,3.03,3.83c0.14,0.89,0.42,4.43,0.79,7.7
		c0.19,1.91,0.37,4.06,0.56,6.35l2.61-9.15c-0.61-2.75-0.75-3.55-0.75-4.85c0-2.29,2.1-3.73,4.99-3.73c1.91,0,2.29,1.4,2.89,4.9
		c0.23,1.91,1.73,10.22,2.01,12.83C163.58,172.55,164.14,165.88,164.28,163.17z"/>
	<path class="st1" d="M176.64,163.68c1.63-0.89,4.01-1.45,6.58-1.45c2.99,0,4.34,1.26,4.57,3.13c0.56,4.67,1.68,11.99,2.99,16.66
		c1.03,0.79,1.45,1.31,1.45,2.29c0,2.57-3.27,3.64-6.63,3.64c-1.96,0-2.52-1.17-3.13-4.76c-1.12,0.14-2.89,0.14-4.76,0.14
		c-0.19,0.7-0.56,3.59-0.56,4.11c-0.33,0.33-1.03,0.56-2.1,0.56c-1.68,0-4.15-0.61-4.15-2.99
		C170.9,183.79,173.38,172.22,176.64,163.68z M180.56,169.56c-0.56,2.01-1.49,6.16-2.05,9.1c0.7,0,2.52-0.05,3.36-0.19
		C181.5,176.66,180.94,172.13,180.56,169.56z"/>
	<path class="st1" d="M207.39,180.67c0.51,0.42,0.79,1.4,0.79,2.24c0,3.55-1.91,4.53-4.01,4.67c-1.31,0.14-2.99,0.19-4.71,0.19
		c-2.57,0-5.51-1.49-5.51-3.17c0-8.87,0.14-9.71,0.14-16.38c-0.23-0.98-0.37-1.91-0.37-2.8c0-1.87,2.05-3.17,5.65-3.17
		c2.61,0,2.94,0.75,2.94,1.96c0,3.22-0.23,9.57-0.47,16.56C203.38,180.76,206.55,180.67,207.39,180.67z"/>
	<path class="st1" d="M209.96,186.83c0-2.29-0.05-7,0.14-10.97c0.05-2.38,0.05-4.9,0.09-7.51c-0.23-0.98-0.33-1.91-0.33-2.8
		c0-1.82,2.05-3.17,5.65-3.17c1.45,0,2.47,0.56,2.47,2.19c0,1.49-0.23,4.39-0.47,9.94c0.37,0,0.84,0.09,1.07,0.14
		c1.49-4.25,2.33-6.81,2.57-9.57c0.23-1.96,2.05-2.89,4.81-2.89c2.47,0,3.45,1.54,3.45,3.41c-1.12,3.22-3.41,7.98-5.32,10.87
		l2.29,3.27c0.89,1.26,1.54,1.45,3.36,1.59c0.23,0.51,0.37,1.07,0.37,1.59c0,2.85-2.19,5.23-5.37,5.23c-1.91,0-2.94-0.65-3.92-2.38
		l-3.5-6.35l-0.23,5.37c-0.14,2.05-1.77,3.17-4.53,3.17C211.27,187.95,210.33,187.62,209.96,186.83z"/>
	<path class="st1" d="M265.67,163.17c0.51-0.37,1.45-0.84,2.43-0.84c2.61,0,4.11,0.84,4.11,4.39c0,2.01-1.26,8.82-4.25,16.8
		c-0.75,1.87-1.45,2.71-4.67,3.45c-1.12,0.7-2.19,0.93-3.64,0.93c-1.31,0-2.05-0.33-2.57-2.71c-0.19-0.98-0.93-4.85-1.12-5.93
		c-0.89,3.22-1.87,5.97-2.61,6.95c-0.84,1.07-2.99,1.73-5.09,1.73c-2.89,0-3.45-1.45-3.97-4.57c-0.75-4.71-1.12-9.47-2.1-14.33
		c-0.79-0.93-1.17-1.87-1.17-2.99c0-2.75,2.61-3.83,5.93-3.83c1.68,0,2.52,0.7,3.03,3.83c0.14,0.89,0.42,4.43,0.79,7.7
		c0.19,1.91,0.37,4.06,0.56,6.35l2.61-9.15c-0.61-2.75-0.75-3.55-0.75-4.85c0-2.29,2.1-3.73,4.99-3.73c1.91,0,2.29,1.4,2.89,4.9
		c0.23,1.91,1.73,10.22,2.01,12.83C264.97,172.55,265.53,165.88,265.67,163.17z"/>
	<path class="st1" d="M274.77,168.63c-0.33-1.12-0.51-2.29-0.51-3.17c0-1.87,2.05-3.22,5.65-3.22c2.66,0,2.89,0.75,2.89,1.96
		l-0.23,16.98c0.89,0.51,1.35,1.07,1.35,1.87c0,3.17-2.43,4.9-5.69,4.9c-3.08,0-3.64-0.75-3.64-4.95c0-2.33,0.09-5.97,0.09-8.91
		C274.72,172.32,274.72,170.5,274.77,168.63z"/>
	<path class="st1" d="M301.13,162.75c0.37,0.51,0.75,1.63,0.75,2.47c0,3.87-1.49,4.9-4.48,5.04c0,1.49-0.14,5.23-0.28,8.4
		c-0.05,1.91-0.14,3.92-0.23,6.11c-0.14,2.29-2.05,3.13-4.81,3.13c-3.03,0-3.13-0.75-3.13-4.95c0-2.38,0.09-5.41,0.09-7.93
		l0.14-4.48c-3.64,0-4.34-0.47-4.34-1.82c0-3.59,1.35-5.79,2.85-6.02c1.31-0.14,2.57-0.19,6.07-0.19
		C297.45,162.52,299.41,162.61,301.13,162.75z"/>
	<path class="st1" d="M314.85,163.36c0.98-0.61,2.24-1.07,4.11-1.07c2.99,0,3.73,0.98,3.73,3.45c0,3.22-0.14,8.4-0.51,18.15
		c-0.14,2.47-1.35,3.87-4.11,3.87c-2.89,0-3.27-0.75-3.27-4.95v-3.92c-0.89,0.14-2.57,0.28-3.78,0.28l-0.23,5.55
		c-0.14,2.05-2.01,3.17-4.9,3.17c-1.31,0-2.24-0.33-2.61-1.12c0-2.38,0-6.95,0.14-11.01c0.05-2.38,0.05-4.85,0.09-7.47
		c-0.23-0.98-0.33-1.91-0.33-2.8c0-1.82,2.05-3.17,5.65-3.17c1.49,0,2.66,0.56,2.66,2.19c0,1.54-0.05,3.69-0.28,9.29l3.64-0.37
		V163.36z"/>
	<path class="st1" d="M336.46,162.24c4.81,0,8.35,3.5,8.35,10.83c0,8.45-2.94,15.03-10.41,15.03c-5.79,0-9.19-2.47-9.19-11.29
		c0-6.02,1.45-9.15,4.15-10.87C330.86,163.17,333.7,162.24,336.46,162.24z M333.33,168.4c-0.37,1.87-0.42,5.46-0.42,6.81
		c0,5.83,0.84,6.77,3.78,7.33c0.61-2.85,0.75-5.93,0.75-7.33C337.44,170.78,336.13,169.28,333.33,168.4z"/>
	<path class="st1" d="M347.51,168.26c-0.23-1.07-0.37-1.91-0.37-2.8c0-1.87,2.05-3.22,5.65-3.22c2.38,0,2.75,1.07,2.75,2.43
		c0,2.43-0.33,6.07-0.33,10.13c0,5.83,0.75,6.67,3.5,7.23c0-2.99,0.19-13.9,0.19-15.54c0-2.43,0.14-4.15,3.59-4.15
		c1.73,0,3.31,0.47,3.92,1.21c0,3.22-0.23,12.37-0.23,19.41c0,3.03-1.82,3.69-6.11,3.92c-1.17,0.7-2.89,1.12-5.09,1.12
		c-6.16,0-7.79-4.11-7.79-12.6C347.19,172.13,347.33,171.06,347.51,168.26z"/>
	<path class="st1" d="M384.56,162.75c0.37,0.51,0.75,1.63,0.75,2.47c0,3.87-1.49,4.9-4.48,5.04c0,1.49-0.14,5.23-0.28,8.4
		c-0.05,1.91-0.14,3.92-0.23,6.11c-0.14,2.29-2.05,3.13-4.81,3.13c-3.03,0-3.13-0.75-3.13-4.95c0-2.38,0.09-5.41,0.09-7.93
		l0.14-4.48c-3.64,0-4.34-0.47-4.34-1.82c0-3.59,1.35-5.79,2.85-6.02c1.31-0.14,2.57-0.19,6.07-0.19
		C380.88,162.52,382.84,162.61,384.56,162.75z"/>
	<path class="st1" d="M406.4,163.64c0.98,1.35,2.19,3.92,3.17,6.07c0.56,1.31,1.12,2.66,1.63,4.06c0.7-1.49,1.35-2.85,1.96-4.11
		c1.12-2.19,2.24-4.53,2.75-5.41c0.89-1.49,1.77-2.05,2.99-2.05c4.34,0,4.71,0.98,4.71,2.1c0,4.25-0.14,14.46-0.37,18.8
		c-0.14,3.5-1.45,4.81-4.2,4.81c-1.26,0-2.47-0.37-2.99-1.12l-0.09-12.55c-0.47,1.21-1.45,3.08-2.57,4.81
		c-0.14,3.17-1.07,6.07-3.92,6.07c-1.54,0-2.47-0.61-2.71-1.21c-0.19-2.19-0.61-3.97-1.17-5.41l-1.59-4.01
		c0,3.41-0.05,7.79-0.42,10.36c-0.23,2.01-1.49,3.03-3.78,3.03c-1.07,0-1.87-0.33-2.19-1.07c0-3.13-0.05-11.43-0.05-17.73
		c-0.37-1.12-0.7-2.43-0.7-3.36c0-1.82,2.66-3.45,6.02-3.45C404.77,162.24,405.56,162.56,406.4,163.64z"/>
	<path class="st1" d="M440.46,187.34c-1.31,0.28-3.08,0.37-6.3,0.37c-1.31,0-2.15,0-3.03-0.14c-2.05-0.23-4.34-1.68-4.34-3.31
		c0-2.33,0.05-6.11,0.19-9.29c0.05-1.87,0.09-3.78,0.14-5.79c-0.51-1.31-0.65-2.19-0.65-3.55c0-2.05,1.12-3.08,5.6-3.08
		c2.52,0,9.42,0.14,11.06,0.14c0.51,0.51,0.79,1.77,0.79,2.66c0,2.61-1.17,3.69-3.36,3.83c-0.98,0.14-3.83,0.19-6.02,0.19
		l-0.14,4.34c2.01-0.19,6.25-0.19,6.91-0.19c0.33,0.42,0.51,1.03,0.51,1.73c0,2.38-0.98,3.59-2.47,3.73
		c-0.65,0.14-2.66,0.05-5.04,0.19l-0.05,2.61l8.12,0.05c0.37,0.51,0.51,0.98,0.51,1.68C442.89,185.8,441.91,187.11,440.46,187.34z"
		/>
	<path class="st1" d="M460.95,163.68c1.63-0.89,4.01-1.45,6.58-1.45c2.99,0,4.34,1.26,4.57,3.13c0.56,4.67,1.68,11.99,2.99,16.66
		c1.03,0.79,1.45,1.31,1.45,2.29c0,2.57-3.27,3.64-6.63,3.64c-1.96,0-2.52-1.17-3.13-4.76c-1.12,0.14-2.89,0.14-4.76,0.14
		c-0.19,0.7-0.56,3.59-0.56,4.11c-0.33,0.33-1.03,0.56-2.1,0.56c-1.68,0-4.15-0.61-4.15-2.99
		C455.21,183.79,457.68,172.22,460.95,163.68z M464.86,169.56c-0.56,2.01-1.49,6.16-2.05,9.1c0.7,0,2.52-0.05,3.36-0.19
		C465.8,176.66,465.24,172.13,464.86,169.56z"/>
	<path class="st1" d="M486.61,162.24c4.95,0,7.28,2.52,7.28,5.04c0,2.99-1.73,4.2-3.83,4.2c-0.7,0-1.12-0.09-1.63-0.23
		c-0.37-1.73-1.17-2.57-3.41-3.31c-0.19,0.42-0.28,1.07-0.28,1.63c0,1.21,0.23,1.49,5.46,4.85c2.94,1.82,3.97,3.22,3.97,5.93
		c0,3.97-2.99,7.65-9.01,7.65c-4.9,0-8.21-1.49-8.21-5.41c0-2.38,1.45-3.92,3.45-3.92c0.33,0,0.7,0,1.07,0.14
		c1.87,3.36,2.94,4.15,4.29,4.15c0.93,0,1.31-0.51,1.31-1.07c0-0.61-0.7-1.26-5.55-4.62c-2.61-1.87-3.5-3.59-3.5-6.16
		c0-2.24,0.89-4.53,2.75-5.88C482.04,163.08,483.44,162.24,486.61,162.24z"/>
	<path class="st1" d="M496.59,186.83c0-2.29-0.05-7,0.14-10.97c0.05-2.38,0.05-4.9,0.09-7.51c-0.23-0.98-0.33-1.91-0.33-2.8
		c0-1.82,2.05-3.17,5.65-3.17c1.45,0,2.47,0.56,2.47,2.19c0,1.49-0.23,4.39-0.47,9.94c0.37,0,0.84,0.09,1.07,0.14
		c1.49-4.25,2.33-6.81,2.57-9.57c0.23-1.96,2.05-2.89,4.81-2.89c2.47,0,3.45,1.54,3.45,3.41c-1.12,3.22-3.41,7.98-5.32,10.87
		l2.29,3.27c0.89,1.26,1.54,1.45,3.36,1.59c0.23,0.51,0.37,1.07,0.37,1.59c0,2.85-2.19,5.23-5.37,5.23c-1.91,0-2.94-0.65-3.92-2.38
		l-3.5-6.35l-0.23,5.37c-0.14,2.05-1.77,3.17-4.53,3.17C497.9,187.95,496.97,187.62,496.59,186.83z"/>
	<path class="st1" d="M519.32,168.63c-0.33-1.12-0.51-2.29-0.51-3.17c0-1.87,2.05-3.22,5.65-3.22c2.66,0,2.89,0.75,2.89,1.96
		l-0.23,16.98c0.89,0.51,1.35,1.07,1.35,1.87c0,3.17-2.43,4.9-5.69,4.9c-3.08,0-3.64-0.75-3.64-4.95c0-2.33,0.09-5.97,0.09-8.91
		C519.27,172.32,519.27,170.5,519.32,168.63z"/>
	<path class="st1" d="M543.77,163.22c0.89-0.61,1.68-0.84,2.94-0.84c2.24,0,3.69,0.89,3.69,3.03c0,4.01,0,16.05-0.75,19.78
		c-0.33,2.01-1.59,2.75-3.97,2.75c-2.33,0-2.52-1.21-2.75-4.53c-1.82-3.13-3.55-6.21-5.41-9.19c0,3.36-0.09,8.07-0.47,10.64
		c-0.23,2.01-1.49,3.03-3.78,3.03c-1.07,0-1.91-0.33-2.15-1.07c0-3.17-0.09-11.57-0.09-17.92c-0.37-1.12-0.65-2.47-0.65-3.36
		c0-1.82,2.05-3.17,5.65-3.17c1.73,0,2.57,0.37,3.03,1.07c1.03,1.4,3.5,6.02,4.67,8.17C543.72,168.82,543.77,164.43,543.77,163.22z"
		/>
	<path class="st1" d="M564.16,176.8c0.89-0.61,2.1-0.93,3.64-0.93c2.61,0,3.22,0.89,3.22,2.99c0,1.87-0.14,4.34-0.37,6.16
		c-0.23,2.1-3.55,2.94-7.61,2.94c-6.35,0-10.13-2.66-10.13-11.53c0-7.51,2.33-10.92,5.93-11.9c1.87-1.63,3.41-2.29,6.72-2.29
		c3.17,0,4.81,1.45,4.81,4.2c0,1.54-0.75,2.99-2.05,3.87c-1.96-0.75-3.55-1.21-6.53-1.21c-0.65,1.91-1.07,4.71-1.07,6.16
		c0,4.81,0.75,6.58,3.36,7.56L564.16,176.8z"/>
	<path class="st1" d="M573.58,184.63c0-4.11,1.59-5.32,3.64-5.32c3.87,0,4.95,2.19,4.95,3.64c0,1.73-0.79,3.5-2.24,4.85
		c-0.47,0-1.4,0.05-1.73,0.05C574.84,187.85,573.58,186.5,573.58,184.63z"/>
	<path class="st1" d="M135.4,205.61c-0.33-1.12-0.51-2.29-0.51-3.17c0-1.87,2.05-3.22,5.65-3.22c2.66,0,2.89,0.75,2.89,1.96
		l-0.23,16.98c0.89,0.51,1.35,1.07,1.35,1.87c0,3.17-2.43,4.9-5.69,4.9c-3.08,0-3.64-0.75-3.64-4.95c0-2.33,0.09-5.97,0.09-8.91
		C135.35,209.29,135.35,207.47,135.4,205.61z"/>
	<path class="st1" d="M157.37,206.12c-0.51-1.31-0.65-2.19-0.65-3.55c0-2.05,1.12-3.08,5.6-3.08c2.57,0,7.51-0.05,9.19,0.14
		c0.51,0.51,0.84,1.49,0.84,2.38c0,3.03-1.12,4.85-3.31,5.04c-0.98,0.14-2.89,0.14-4.01,0.14l-0.14,4.53
		c2.1-0.14,3.69-0.14,4.34-0.14c1.4,0,1.77,0.37,1.77,1.49c0,3.36-1.35,4.76-2.85,4.9c-0.56,0.05-1.59,0.14-3.45,0.19l-0.09,3.55
		c0,2.47-1.35,3.13-4.06,3.13c-3.08,0-3.27-0.75-3.27-4.95c0-2.33,0.05-5.74,0.05-8.63C157.37,209.57,157.37,207.85,157.37,206.12z"
		/>
	<path class="st1" d="M187.79,224.32c-1.31,0.28-3.08,0.37-6.3,0.37c-1.31,0-2.15,0-3.03-0.14c-2.05-0.23-4.34-1.68-4.34-3.31
		c0-2.33,0.05-6.11,0.19-9.29c0.05-1.87,0.09-3.78,0.14-5.79c-0.51-1.31-0.65-2.19-0.65-3.55c0-2.05,1.12-3.08,5.6-3.08
		c2.52,0,9.43,0.14,11.06,0.14c0.51,0.51,0.79,1.77,0.79,2.66c0,2.61-1.17,3.69-3.36,3.83c-0.98,0.14-3.83,0.19-6.02,0.19
		l-0.14,4.34c2.01-0.19,6.25-0.19,6.91-0.19c0.33,0.42,0.51,1.03,0.51,1.73c0,2.38-0.98,3.59-2.47,3.73
		c-0.65,0.14-2.66,0.05-5.04,0.19l-0.05,2.61l8.12,0.05c0.37,0.51,0.51,0.98,0.51,1.68C190.22,222.78,189.24,224.08,187.79,224.32z"
		/>
	<path class="st1" d="M206.78,217.65c0.51,0.42,0.79,1.4,0.79,2.24c0,3.55-1.91,4.53-4.01,4.67c-1.31,0.14-2.99,0.19-4.71,0.19
		c-2.57,0-5.51-1.49-5.51-3.17c0-8.87,0.14-9.71,0.14-16.38c-0.23-0.98-0.37-1.91-0.37-2.8c0-1.87,2.05-3.17,5.65-3.17
		c2.61,0,2.94,0.75,2.94,1.96c0,3.22-0.23,9.57-0.47,16.56C202.77,217.74,205.94,217.65,206.78,217.65z"/>
	<path class="st1" d="M222.7,199.73c0.37,0.51,0.75,1.63,0.75,2.47c0,3.87-1.49,4.9-4.48,5.04c0,1.49-0.14,5.23-0.28,8.4
		c-0.05,1.91-0.14,3.92-0.23,6.11c-0.14,2.29-2.05,3.13-4.81,3.13c-3.03,0-3.13-0.75-3.13-4.95c0-2.38,0.09-5.41,0.09-7.93
		l0.14-4.48c-3.64,0-4.34-0.47-4.34-1.82c0-3.59,1.35-5.79,2.85-6.02c1.31-0.14,2.57-0.19,6.07-0.19
		C219.01,199.49,220.97,199.59,222.7,199.73z"/>
	<path class="st1" d="M243.6,199.21c4.95,0,7.28,2.52,7.28,5.04c0,2.99-1.73,4.2-3.83,4.2c-0.7,0-1.12-0.09-1.63-0.23
		c-0.37-1.73-1.17-2.57-3.41-3.31c-0.19,0.42-0.28,1.07-0.28,1.63c0,1.21,0.23,1.49,5.46,4.85c2.94,1.82,3.97,3.22,3.97,5.93
		c0,3.97-2.99,7.65-9.01,7.65c-4.9,0-8.21-1.49-8.21-5.41c0-2.38,1.45-3.92,3.45-3.92c0.33,0,0.7,0,1.07,0.14
		c1.87,3.36,2.94,4.15,4.29,4.15c0.93,0,1.31-0.51,1.31-1.07c0-0.61-0.7-1.26-5.55-4.62c-2.61-1.87-3.5-3.59-3.5-6.16
		c0-2.24,0.89-4.53,2.75-5.88C239.03,200.05,240.43,199.21,243.6,199.21z"/>
	<path class="st1" d="M264.41,199.21c4.81,0,8.35,3.5,8.35,10.83c0,8.45-2.94,15.03-10.41,15.03c-5.79,0-9.19-2.47-9.19-11.29
		c0-6.02,1.45-9.15,4.15-10.87C258.81,200.15,261.66,199.21,264.41,199.21z M261.28,205.37c-0.37,1.87-0.42,5.46-0.42,6.81
		c0,5.83,0.84,6.77,3.78,7.33c0.61-2.85,0.75-5.93,0.75-7.33C265.39,207.75,264.08,206.26,261.28,205.37z"/>
	<path class="st1" d="M300.67,199.73c0.37,0.51,0.75,1.63,0.75,2.47c0,3.87-1.49,4.9-4.48,5.04c0,1.49-0.14,5.23-0.28,8.4
		c-0.05,1.91-0.14,3.92-0.23,6.11c-0.14,2.29-2.05,3.13-4.81,3.13c-3.03,0-3.13-0.75-3.13-4.95c0-2.38,0.09-5.41,0.09-7.93
		l0.14-4.48c-3.64,0-4.34-0.47-4.34-1.82c0-3.59,1.35-5.79,2.85-6.02c1.31-0.14,2.57-0.19,6.07-0.19
		C296.98,199.49,298.94,199.59,300.67,199.73z"/>
	<path class="st1" d="M303.42,205.61c-0.33-1.12-0.51-2.29-0.51-3.17c0-1.87,2.05-3.22,5.65-3.22c2.66,0,2.89,0.75,2.89,1.96
		l-0.23,16.98c0.89,0.51,1.35,1.07,1.35,1.87c0,3.17-2.43,4.9-5.69,4.9c-3.08,0-3.64-0.75-3.64-4.95c0-2.33,0.09-5.97,0.09-8.91
		C303.37,209.29,303.37,207.47,303.42,205.61z"/>
	<path class="st1" d="M328.57,215.64c2.05,2.61,2.38,2.71,4.15,2.89c0.23,0.42,0.37,1.03,0.37,1.54c0,2.75-1.82,4.99-4.85,4.99
		c-2.1,0-2.71-0.7-3.69-2.57c-1.26-2.24-1.91-3.31-2.8-3.83l-0.23,3.03c-0.23,2.47-1.03,3.13-3.78,3.13c-3.08,0-3.27-0.75-3.27-4.95
		c0-2.38,0.05-5.74,0.19-8.59c0.05-1.68,0.09-3.41,0.14-5.13c-0.23-0.98-0.33-1.91-0.33-2.8c0-1.87,1.07-2.66,5.51-3.03
		c1.91-0.75,3.45-1.12,5.69-1.12c4.99,0,7,2.99,7,7.19C332.67,210.27,331.46,212.37,328.57,215.64z M321.94,213.17
		c0.65,0,2.24,0.28,2.8,0.51c0.7-1.68,1.07-3.22,1.07-4.71c0-2.29-0.84-3.41-3.5-3.64L321.94,213.17z"/>
	<path class="st1" d="M349.29,224.32c-1.31,0.28-3.08,0.37-6.3,0.37c-1.31,0-2.15,0-3.03-0.14c-2.05-0.23-4.34-1.68-4.34-3.31
		c0-2.33,0.05-6.11,0.19-9.29c0.05-1.87,0.09-3.78,0.14-5.79c-0.51-1.31-0.65-2.19-0.65-3.55c0-2.05,1.12-3.08,5.6-3.08
		c2.52,0,9.43,0.14,11.06,0.14c0.51,0.51,0.79,1.77,0.79,2.66c0,2.61-1.17,3.69-3.36,3.83c-0.98,0.14-3.83,0.19-6.02,0.19
		l-0.14,4.34c2.01-0.19,6.25-0.19,6.91-0.19c0.33,0.42,0.51,1.03,0.51,1.73c0,2.38-0.98,3.59-2.47,3.73
		c-0.65,0.14-2.66,0.05-5.04,0.19l-0.05,2.61l8.12,0.05c0.37,0.51,0.51,0.98,0.51,1.68C351.71,222.78,350.73,224.08,349.29,224.32z"
		/>
	<path class="st1" d="M360.39,200.05c1.45-0.51,3.08-0.84,4.11-0.84c7.09,0,9.85,3.73,9.85,10.36c0,9.52-4.29,15.26-10.83,15.26
		c-4.29,0-8.59-0.84-8.59-3.59c0-2.33,0.14-6.16,0.14-9.43c0.05-1.91,0.09-3.87,0.14-5.88c-0.37-0.89-0.61-1.87-0.61-3.36
		C354.6,200.75,356.47,200.19,360.39,200.05z M366.88,211.72c0-3.59-1.26-5.55-4.25-6.44c0,3.64-0.14,8.68-0.37,13.67
		c0.42,0.23,0.93,0.33,1.31,0.33C364.87,219.28,366.88,218.81,366.88,211.72z"/>
	<path class="st1" d="M391.56,200.66c1.63-0.89,4.01-1.45,6.58-1.45c2.99,0,4.34,1.26,4.57,3.13c0.56,4.67,1.68,11.99,2.99,16.66
		c1.03,0.79,1.45,1.31,1.45,2.29c0,2.57-3.27,3.64-6.63,3.64c-1.96,0-2.52-1.17-3.13-4.76c-1.12,0.14-2.89,0.14-4.76,0.14
		c-0.19,0.7-0.56,3.59-0.56,4.11c-0.33,0.33-1.03,0.56-2.1,0.56c-1.68,0-4.15-0.61-4.15-2.99
		C385.82,220.77,388.29,209.2,391.56,200.66z M395.48,206.54c-0.56,2.01-1.49,6.16-2.05,9.1c0.7,0,2.52-0.05,3.36-0.19
		C396.41,213.63,395.85,209.11,395.48,206.54z"/>
	<path class="st1" d="M409.29,206.12c-0.51-1.31-0.65-2.19-0.65-3.55c0-2.05,1.12-3.08,5.6-3.08c2.57,0,7.51-0.05,9.19,0.14
		c0.51,0.51,0.84,1.49,0.84,2.38c0,3.03-1.12,4.85-3.31,5.04c-0.98,0.14-2.89,0.14-4.01,0.14l-0.14,4.53
		c2.1-0.14,3.69-0.14,4.34-0.14c1.4,0,1.77,0.37,1.77,1.49c0,3.36-1.35,4.76-2.85,4.9c-0.56,0.05-1.59,0.14-3.45,0.19l-0.09,3.55
		c0,2.47-1.35,3.13-4.06,3.13c-3.08,0-3.27-0.75-3.27-4.95c0-2.33,0.05-5.74,0.05-8.63C409.29,209.57,409.29,207.85,409.29,206.12z"
		/>
	<path class="st1" d="M441.02,199.73c0.37,0.51,0.75,1.63,0.75,2.47c0,3.87-1.49,4.9-4.48,5.04c0,1.49-0.14,5.23-0.28,8.4
		c-0.05,1.91-0.14,3.92-0.23,6.11c-0.14,2.29-2.05,3.13-4.81,3.13c-3.03,0-3.13-0.75-3.13-4.95c0-2.38,0.09-5.41,0.09-7.93
		l0.14-4.48c-3.64,0-4.34-0.47-4.34-1.82c0-3.59,1.35-5.79,2.85-6.02c1.31-0.14,2.57-0.19,6.07-0.19
		C437.33,199.49,439.29,199.59,441.02,199.73z"/>
	<path class="st1" d="M457.07,224.32c-1.31,0.28-3.08,0.37-6.3,0.37c-1.31,0-2.15,0-3.03-0.14c-2.05-0.23-4.34-1.68-4.34-3.31
		c0-2.33,0.05-6.11,0.19-9.29c0.05-1.87,0.09-3.78,0.14-5.79c-0.51-1.31-0.65-2.19-0.65-3.55c0-2.05,1.12-3.08,5.6-3.08
		c2.52,0,9.43,0.14,11.06,0.14c0.51,0.51,0.79,1.77,0.79,2.66c0,2.61-1.17,3.69-3.36,3.83c-0.98,0.14-3.83,0.19-6.02,0.19
		l-0.14,4.34c2.01-0.19,6.25-0.19,6.91-0.19c0.33,0.42,0.51,1.03,0.51,1.73c0,2.38-0.98,3.59-2.47,3.73
		c-0.65,0.14-2.66,0.05-5.04,0.19l-0.05,2.61l8.12,0.05c0.37,0.51,0.51,0.98,0.51,1.68C459.5,222.78,458.52,224.08,457.07,224.32z"
		/>
	<path class="st1" d="M476.48,215.64c2.05,2.61,2.38,2.71,4.15,2.89c0.23,0.42,0.37,1.03,0.37,1.54c0,2.75-1.82,4.99-4.85,4.99
		c-2.1,0-2.71-0.7-3.69-2.57c-1.26-2.24-1.91-3.31-2.8-3.83l-0.23,3.03c-0.23,2.47-1.03,3.13-3.78,3.13c-3.08,0-3.27-0.75-3.27-4.95
		c0-2.38,0.05-5.74,0.19-8.59c0.05-1.68,0.09-3.41,0.14-5.13c-0.23-0.98-0.33-1.91-0.33-2.8c0-1.87,1.07-2.66,5.51-3.03
		c1.91-0.75,3.45-1.12,5.69-1.12c4.99,0,7,2.99,7,7.19C480.59,210.27,479.38,212.37,476.48,215.64z M469.86,213.17
		c0.65,0,2.24,0.28,2.8,0.51c0.7-1.68,1.07-3.22,1.07-4.71c0-2.29-0.84-3.41-3.5-3.64L469.86,213.17z"/>
	<path class="st1" d="M516.89,200.15c0.51-0.37,1.45-0.84,2.43-0.84c2.61,0,4.11,0.84,4.11,4.39c0,2.01-1.26,8.82-4.25,16.8
		c-0.75,1.87-1.45,2.71-4.67,3.45c-1.12,0.7-2.19,0.93-3.64,0.93c-1.31,0-2.05-0.33-2.57-2.71c-0.19-0.98-0.93-4.85-1.12-5.93
		c-0.89,3.22-1.87,5.97-2.61,6.95c-0.84,1.07-2.99,1.73-5.09,1.73c-2.89,0-3.45-1.45-3.97-4.57c-0.75-4.71-1.12-9.47-2.1-14.33
		c-0.79-0.93-1.17-1.87-1.17-2.99c0-2.75,2.61-3.83,5.93-3.83c1.68,0,2.52,0.7,3.03,3.83c0.14,0.89,0.42,4.43,0.79,7.7
		c0.19,1.91,0.37,4.06,0.56,6.35l2.61-9.15c-0.61-2.75-0.75-3.55-0.75-4.85c0-2.29,2.1-3.73,4.99-3.73c1.91,0,2.29,1.4,2.89,4.9
		c0.23,1.91,1.73,10.22,2.01,12.83C516.19,209.53,516.75,202.85,516.89,200.15z"/>
	<path class="st1" d="M536.21,199.21c4.81,0,8.35,3.5,8.35,10.83c0,8.45-2.94,15.03-10.41,15.03c-5.79,0-9.19-2.47-9.19-11.29
		c0-6.02,1.45-9.15,4.15-10.87C530.61,200.15,533.45,199.21,536.21,199.21z M533.08,205.37c-0.37,1.87-0.42,5.46-0.42,6.81
		c0,5.83,0.84,6.77,3.78,7.33c0.61-2.85,0.75-5.93,0.75-7.33C537.19,207.75,535.88,206.26,533.08,205.37z"/>
	<path class="st1" d="M560.98,215.64c2.05,2.61,2.38,2.71,4.15,2.89c0.23,0.42,0.37,1.03,0.37,1.54c0,2.75-1.82,4.99-4.85,4.99
		c-2.1,0-2.71-0.7-3.69-2.57c-1.26-2.24-1.91-3.31-2.8-3.83l-0.23,3.03c-0.23,2.47-1.03,3.13-3.78,3.13c-3.08,0-3.27-0.75-3.27-4.95
		c0-2.38,0.05-5.74,0.19-8.59c0.05-1.68,0.09-3.41,0.14-5.13c-0.23-0.98-0.33-1.91-0.33-2.8c0-1.87,1.07-2.66,5.51-3.03
		c1.91-0.75,3.45-1.12,5.69-1.12c4.99,0,7,2.99,7,7.19C565.09,210.27,563.88,212.37,560.98,215.64z M554.36,213.17
		c0.65,0,2.24,0.28,2.8,0.51c0.7-1.68,1.07-3.22,1.07-4.71c0-2.29-0.84-3.41-3.5-3.64L554.36,213.17z"/>
	<path class="st1" d="M567.8,223.8c0-2.29-0.05-7,0.14-10.97c0.05-2.38,0.05-4.9,0.09-7.51c-0.23-0.98-0.33-1.91-0.33-2.8
		c0-1.82,2.05-3.17,5.65-3.17c1.45,0,2.47,0.56,2.47,2.19c0,1.49-0.23,4.39-0.47,9.94c0.37,0,0.84,0.09,1.07,0.14
		c1.49-4.25,2.33-6.81,2.57-9.57c0.23-1.96,2.05-2.89,4.81-2.89c2.47,0,3.45,1.54,3.45,3.41c-1.12,3.22-3.41,7.98-5.32,10.87
		l2.29,3.27c0.89,1.26,1.54,1.45,3.36,1.59c0.23,0.51,0.37,1.07,0.37,1.59c0,2.85-2.19,5.23-5.37,5.23c-1.91,0-2.94-0.65-3.92-2.38
		l-3.5-6.35l-0.23,5.37c-0.14,2.05-1.77,3.17-4.53,3.17C569.1,224.92,568.17,224.6,567.8,223.8z"/>
	<path class="st1" d="M141.48,236.7c0.37,0.51,0.75,1.63,0.75,2.47c0,3.87-1.49,4.9-4.48,5.04c0,1.49-0.14,5.23-0.28,8.4
		c-0.05,1.91-0.14,3.92-0.23,6.11c-0.14,2.29-2.05,3.13-4.81,3.13c-3.03,0-3.13-0.75-3.13-4.95c0-2.38,0.09-5.41,0.09-7.93
		l0.14-4.48c-3.64,0-4.34-0.47-4.34-1.82c0-3.59,1.35-5.79,2.85-6.02c1.31-0.14,2.57-0.19,6.07-0.19
		C137.8,236.47,139.76,236.56,141.48,236.7z"/>
	<path class="st1" d="M153.52,236.19c4.81,0,8.35,3.5,8.35,10.83c0,8.45-2.94,15.03-10.41,15.03c-5.79,0-9.19-2.47-9.19-11.29
		c0-6.02,1.45-9.15,4.15-10.87C147.92,237.12,150.77,236.19,153.52,236.19z M150.4,242.35c-0.37,1.87-0.42,5.46-0.42,6.81
		c0,5.83,0.84,6.77,3.78,7.33c0.61-2.85,0.75-5.93,0.75-7.33C154.5,244.73,153.2,243.24,150.4,242.35z"/>
	<path class="st1" d="M169.99,237.03c1.45-0.51,3.08-0.84,4.11-0.84c7.09,0,9.85,3.73,9.85,10.36c0,9.52-4.29,15.26-10.83,15.26
		c-4.29,0-8.59-0.84-8.59-3.59c0-2.33,0.14-6.16,0.14-9.43c0.05-1.91,0.09-3.87,0.14-5.88c-0.37-0.89-0.61-1.87-0.61-3.36
		C164.21,237.73,166.08,237.17,169.99,237.03z M176.48,248.7c0-3.59-1.26-5.55-4.25-6.44c0,3.64-0.14,8.68-0.37,13.67
		c0.42,0.23,0.93,0.33,1.31,0.33C174.47,256.25,176.48,255.79,176.48,248.7z"/>
	<path class="st1" d="M190.9,237.64c1.63-0.89,4.01-1.45,6.58-1.45c2.99,0,4.34,1.26,4.57,3.13c0.56,4.67,1.68,11.99,2.99,16.66
		c1.03,0.79,1.45,1.31,1.45,2.29c0,2.57-3.27,3.64-6.63,3.64c-1.96,0-2.52-1.17-3.13-4.76c-1.12,0.14-2.89,0.14-4.76,0.14
		c-0.19,0.7-0.56,3.59-0.56,4.11c-0.33,0.33-1.03,0.56-2.1,0.56c-1.68,0-4.15-0.61-4.15-2.99
		C185.16,257.75,187.63,246.18,190.9,237.64z M194.82,243.52c-0.56,2.01-1.49,6.16-2.05,9.1c0.7,0,2.52-0.05,3.36-0.19
		C195.75,250.61,195.19,246.08,194.82,243.52z"/>
	<path class="st1" d="M221.14,236.19c2.57,0,3.87,1.21,4.11,2.94l-6.3,13.25l-0.05,5.83c0,1.82-1.31,3.69-5.83,3.69
		c-2.15,0-2.75-0.61-2.75-3.41c0-1.17,0.05-2.66,0.05-3.73c0.05-0.7,0.05-1.35,0.09-2.05l-4.01-10.41
		c-0.98-0.75-1.45-1.87-1.45-2.75c0-2.15,3.36-3.36,5.83-3.36c1.73,0,2.71,0.7,3.36,2.61l2.05,5.93l2.01-6.02
		C218.85,236.84,219.41,236.19,221.14,236.19z"/>
	<path class="st1" d="M241.62,237.64c1.63-0.89,4.01-1.45,6.58-1.45c2.99,0,4.34,1.26,4.57,3.13c0.56,4.67,1.68,11.99,2.99,16.66
		c1.03,0.79,1.45,1.31,1.45,2.29c0,2.57-3.27,3.64-6.63,3.64c-1.96,0-2.52-1.17-3.13-4.76c-1.12,0.14-2.89,0.14-4.76,0.14
		c-0.19,0.7-0.56,3.59-0.56,4.11c-0.33,0.33-1.03,0.56-2.1,0.56c-1.68,0-4.15-0.61-4.15-2.99
		C235.88,257.75,238.35,246.18,241.62,237.64z M245.54,243.52c-0.56,2.01-1.49,6.16-2.05,9.1c0.7,0,2.52-0.05,3.36-0.19
		C246.47,250.61,245.91,246.08,245.54,243.52z"/>
	<path class="st1" d="M272.09,237.17c0.89-0.61,1.68-0.84,2.94-0.84c2.24,0,3.69,0.89,3.69,3.03c0,4.01,0,16.05-0.75,19.79
		c-0.33,2.01-1.59,2.75-3.97,2.75c-2.33,0-2.52-1.21-2.75-4.53c-1.82-3.13-3.55-6.21-5.41-9.19c0,3.36-0.09,8.07-0.47,10.64
		c-0.23,2.01-1.49,3.03-3.78,3.03c-1.07,0-1.91-0.33-2.15-1.07c0-3.17-0.09-11.57-0.09-17.92c-0.37-1.12-0.65-2.47-0.65-3.36
		c0-1.82,2.05-3.17,5.65-3.17c1.73,0,2.57,0.37,3.03,1.07c1.03,1.4,3.5,6.02,4.67,8.17C272.04,242.77,272.09,238.38,272.09,237.17z"
		/>
	<path class="st1" d="M287.34,237.03c1.45-0.51,3.08-0.84,4.11-0.84c7.09,0,9.85,3.73,9.85,10.36c0,9.52-4.29,15.26-10.83,15.26
		c-4.29,0-8.59-0.84-8.59-3.59c0-2.33,0.14-6.16,0.14-9.43c0.05-1.91,0.09-3.87,0.14-5.88c-0.37-0.89-0.61-1.87-0.61-3.36
		C281.56,237.73,283.43,237.17,287.34,237.03z M293.83,248.7c0-3.59-1.26-5.55-4.25-6.44c0,3.64-0.14,8.68-0.37,13.67
		c0.42,0.23,0.93,0.33,1.31,0.33C291.82,256.25,293.83,255.79,293.83,248.7z"/>
	<path class="st1" d="M322.2,236.19c4.95,0,7.28,2.52,7.28,5.04c0,2.99-1.73,4.2-3.83,4.2c-0.7,0-1.12-0.09-1.63-0.23
		c-0.37-1.73-1.17-2.57-3.41-3.31c-0.19,0.42-0.28,1.07-0.28,1.63c0,1.21,0.23,1.49,5.46,4.85c2.94,1.82,3.97,3.22,3.97,5.93
		c0,3.97-2.99,7.65-9.01,7.65c-4.9,0-8.21-1.49-8.21-5.41c0-2.38,1.45-3.92,3.45-3.92c0.33,0,0.7,0,1.07,0.14
		c1.87,3.36,2.94,4.15,4.29,4.15c0.93,0,1.31-0.51,1.31-1.07c0-0.61-0.7-1.26-5.55-4.62c-2.61-1.87-3.5-3.59-3.5-6.16
		c0-2.24,0.89-4.53,2.75-5.88C317.63,237.03,319.03,236.19,322.2,236.19z"/>
	<path class="st1" d="M346.09,261.29c-1.31,0.28-3.08,0.37-6.3,0.37c-1.31,0-2.15,0-3.03-0.14c-2.05-0.23-4.34-1.68-4.34-3.31
		c0-2.33,0.05-6.11,0.19-9.29c0.05-1.87,0.09-3.78,0.14-5.79c-0.51-1.31-0.65-2.19-0.65-3.55c0-2.05,1.12-3.08,5.6-3.08
		c2.52,0,9.43,0.14,11.06,0.14c0.51,0.51,0.79,1.77,0.79,2.66c0,2.61-1.17,3.69-3.36,3.83c-0.98,0.14-3.83,0.19-6.02,0.19
		l-0.14,4.34c2.01-0.19,6.25-0.19,6.91-0.19c0.33,0.42,0.51,1.03,0.51,1.73c0,2.38-0.98,3.59-2.47,3.73
		c-0.65,0.14-2.66,0.05-5.04,0.19l-0.05,2.61l8.12,0.05c0.37,0.51,0.51,0.98,0.51,1.68C348.52,259.75,347.54,261.06,346.09,261.29z"
		/>
	<path class="st1" d="M365.41,261.29c-1.31,0.28-3.08,0.37-6.3,0.37c-1.31,0-2.15,0-3.03-0.14c-2.05-0.23-4.34-1.68-4.34-3.31
		c0-2.33,0.05-6.11,0.19-9.29c0.05-1.87,0.09-3.78,0.14-5.79c-0.51-1.31-0.65-2.19-0.65-3.55c0-2.05,1.12-3.08,5.6-3.08
		c2.52,0,9.43,0.14,11.06,0.14c0.51,0.51,0.79,1.77,0.79,2.66c0,2.61-1.17,3.69-3.36,3.83c-0.98,0.14-3.83,0.19-6.02,0.19
		l-0.14,4.34c2.01-0.19,6.25-0.19,6.91-0.19c0.33,0.42,0.51,1.03,0.51,1.73c0,2.38-0.98,3.59-2.47,3.73
		c-0.65,0.14-2.66,0.05-5.04,0.19l-0.05,2.61l8.12,0.05c0.37,0.51,0.51,0.98,0.51,1.68C367.83,259.75,366.85,261.06,365.41,261.29z"
		/>
	<path class="st1" d="M371.43,242.58c-0.33-1.12-0.51-2.29-0.51-3.17c0-1.87,2.05-3.22,5.65-3.22c2.66,0,2.89,0.75,2.89,1.96
		l-0.23,16.98c0.89,0.51,1.35,1.07,1.35,1.87c0,3.17-2.43,4.9-5.69,4.9c-3.08,0-3.64-0.75-3.64-4.95c0-2.33,0.09-5.97,0.09-8.91
		C371.38,246.27,371.38,244.45,371.43,242.58z"/>
	<path class="st1" d="M395.88,237.17c0.89-0.61,1.68-0.84,2.94-0.84c2.24,0,3.69,0.89,3.69,3.03c0,4.01,0,16.05-0.75,19.79
		c-0.33,2.01-1.59,2.75-3.97,2.75c-2.33,0-2.52-1.21-2.75-4.53c-1.82-3.13-3.55-6.21-5.41-9.19c0,3.36-0.09,8.07-0.47,10.64
		c-0.23,2.01-1.49,3.03-3.78,3.03c-1.07,0-1.91-0.33-2.15-1.07c0-3.17-0.09-11.57-0.09-17.92c-0.37-1.12-0.65-2.47-0.65-3.36
		c0-1.82,2.05-3.17,5.65-3.17c1.73,0,2.57,0.37,3.03,1.07c1.03,1.4,3.5,6.02,4.67,8.17C395.83,242.77,395.88,238.38,395.88,237.17z"
		/>
	<path class="st1" d="M416.27,250.75c0.89-0.61,2.1-0.93,3.64-0.93c2.61,0,3.22,0.89,3.22,2.99c0,1.87-0.14,4.34-0.37,6.16
		c-0.23,2.1-3.55,2.94-7.61,2.94c-6.35,0-10.13-2.66-10.13-11.53c0-7.51,2.33-10.92,5.93-11.9c1.87-1.63,3.41-2.29,6.72-2.29
		c3.17,0,4.81,1.45,4.81,4.2c0,1.54-0.75,2.99-2.05,3.87c-1.96-0.75-3.55-1.21-6.53-1.21c-0.65,1.91-1.07,4.71-1.07,6.16
		c0,4.81,0.75,6.58,3.36,7.56L416.27,250.75z"/>
	<path class="st1" d="M450.79,236.19c2.57,0,3.87,1.21,4.11,2.94l-6.3,13.25l-0.05,5.83c0,1.82-1.31,3.69-5.83,3.69
		c-2.15,0-2.75-0.61-2.75-3.41c0-1.17,0.05-2.66,0.05-3.73c0.05-0.7,0.05-1.35,0.09-2.05l-4.01-10.41
		c-0.98-0.75-1.45-1.87-1.45-2.75c0-2.15,3.36-3.36,5.83-3.36c1.73,0,2.71,0.7,3.36,2.61l2.05,5.93l2.01-6.02
		C448.51,236.84,449.07,236.19,450.79,236.19z"/>
	<path class="st1" d="M466.1,236.19c4.81,0,8.35,3.5,8.35,10.83c0,8.45-2.94,15.03-10.41,15.03c-5.79,0-9.19-2.47-9.19-11.29
		c0-6.02,1.45-9.15,4.15-10.87C460.5,237.12,463.35,236.19,466.1,236.19z M462.97,242.35c-0.37,1.87-0.42,5.46-0.42,6.81
		c0,5.83,0.84,6.77,3.78,7.33c0.61-2.85,0.75-5.93,0.75-7.33C467.08,244.73,465.77,243.24,462.97,242.35z"/>
	<path class="st1" d="M477.16,242.21c-0.23-1.07-0.37-1.91-0.37-2.8c0-1.87,2.05-3.22,5.65-3.22c2.38,0,2.75,1.07,2.75,2.43
		c0,2.43-0.33,6.07-0.33,10.12c0,5.83,0.75,6.67,3.5,7.23c0-2.99,0.19-13.9,0.19-15.54c0-2.43,0.14-4.15,3.59-4.15
		c1.73,0,3.31,0.47,3.92,1.21c0,3.22-0.23,12.37-0.23,19.41c0,3.03-1.82,3.69-6.11,3.92c-1.17,0.7-2.89,1.12-5.09,1.12
		c-6.16,0-7.79-4.11-7.79-12.6C476.83,246.08,476.97,245.01,477.16,242.21z"/>
	<path class="st1" d="M522.23,246.46c-1.26,0-2.01-0.23-2.52-0.47c-0.51-2.75-0.89-3.36-2.24-3.73c-0.61,1.96-0.84,6.49-0.84,7.93
		c0,4.29,0.84,5.41,6.53,5.41c0.33,0,1.54-0.05,2.05-0.05c0.23,0.37,0.37,1.17,0.37,1.54c0,2.94-2.29,4.81-6.63,4.81
		c-6.39,0-10.13-2.33-10.13-10.45c0-7.09,1.35-11.71,5.65-12.93c1.91-1.54,3.97-2.33,6.35-2.33c3.59,0,5.23,1.91,5.23,4.76
		C526.06,244.5,524.71,246.46,522.23,246.46z"/>
	<path class="st1" d="M538.75,236.19c4.81,0,8.35,3.5,8.35,10.83c0,8.45-2.94,15.03-10.41,15.03c-5.79,0-9.19-2.47-9.19-11.29
		c0-6.02,1.45-9.15,4.15-10.87C533.15,237.12,536,236.19,538.75,236.19z M535.62,242.35c-0.37,1.87-0.42,5.46-0.42,6.81
		c0,5.83,0.84,6.77,3.78,7.33c0.61-2.85,0.75-5.93,0.75-7.33C539.73,244.73,538.42,243.24,535.62,242.35z"/>
	<path class="st1" d="M558.95,237.59c0.98,1.35,2.19,3.92,3.17,6.07c0.56,1.31,1.12,2.66,1.63,4.06c0.7-1.49,1.35-2.85,1.96-4.11
		c1.12-2.19,2.24-4.53,2.75-5.41c0.89-1.49,1.77-2.05,2.99-2.05c4.34,0,4.71,0.98,4.71,2.1c0,4.25-0.14,14.46-0.37,18.8
		c-0.14,3.5-1.45,4.81-4.2,4.81c-1.26,0-2.47-0.37-2.99-1.12l-0.09-12.55c-0.47,1.21-1.45,3.08-2.57,4.81
		c-0.14,3.17-1.07,6.07-3.92,6.07c-1.54,0-2.47-0.61-2.71-1.21c-0.19-2.19-0.61-3.97-1.17-5.41l-1.59-4.01
		c0,3.41-0.05,7.79-0.42,10.36c-0.23,2.01-1.49,3.03-3.78,3.03c-1.07,0-1.87-0.33-2.19-1.07c0-3.13-0.05-11.43-0.05-17.73
		c-0.37-1.12-0.7-2.43-0.7-3.36c0-1.82,2.66-3.45,6.02-3.45C557.32,236.19,558.11,236.52,558.95,237.59z"/>
	<path class="st1" d="M593.02,261.29c-1.31,0.28-3.08,0.37-6.3,0.37c-1.31,0-2.15,0-3.03-0.14c-2.05-0.23-4.34-1.68-4.34-3.31
		c0-2.33,0.05-6.11,0.19-9.29c0.05-1.87,0.09-3.78,0.14-5.79c-0.51-1.31-0.65-2.19-0.65-3.55c0-2.05,1.12-3.08,5.6-3.08
		c2.52,0,9.42,0.14,11.06,0.14c0.51,0.51,0.79,1.77,0.79,2.66c0,2.61-1.17,3.69-3.36,3.83c-0.98,0.14-3.83,0.19-6.02,0.19
		l-0.14,4.34c2.01-0.19,6.25-0.19,6.91-0.19c0.33,0.42,0.51,1.03,0.51,1.73c0,2.38-0.98,3.59-2.47,3.73
		c-0.65,0.14-2.66,0.05-5.04,0.19l-0.05,2.61l8.12,0.05c0.37,0.51,0.51,0.98,0.51,1.68C595.44,259.75,594.46,261.06,593.02,261.29z"
		/>
	<path class="st1" d="M149.35,274.29c0.98-0.61,2.24-1.07,4.11-1.07c2.99,0,3.73,0.98,3.73,3.45c0,3.22-0.14,8.4-0.51,18.15
		c-0.14,2.47-1.35,3.87-4.11,3.87c-2.89,0-3.27-0.75-3.27-4.95v-3.92c-0.89,0.14-2.57,0.28-3.78,0.28l-0.23,5.55
		c-0.14,2.05-2.01,3.17-4.9,3.17c-1.31,0-2.24-0.33-2.61-1.12c0-2.38,0-6.95,0.14-11.01c0.05-2.38,0.05-4.85,0.09-7.47
		c-0.23-0.98-0.33-1.91-0.33-2.8c0-1.82,2.05-3.17,5.65-3.17c1.49,0,2.66,0.56,2.66,2.19c0,1.54-0.05,3.69-0.28,9.29l3.64-0.37
		V274.29z"/>
	<path class="st1" d="M170.95,273.17c4.81,0,8.35,3.5,8.35,10.83c0,8.45-2.94,15.03-10.41,15.03c-5.79,0-9.19-2.47-9.19-11.29
		c0-6.02,1.45-9.15,4.15-10.87C165.35,274.1,168.2,273.17,170.95,273.17z M167.82,279.33c-0.37,1.87-0.42,5.46-0.42,6.81
		c0,5.83,0.84,6.77,3.78,7.33c0.61-2.85,0.75-5.93,0.75-7.33C171.93,281.71,170.62,280.21,167.82,279.33z"/>
	<path class="st1" d="M191.15,274.57c0.98,1.35,2.19,3.92,3.17,6.07c0.56,1.31,1.12,2.66,1.63,4.06c0.7-1.49,1.35-2.85,1.96-4.11
		c1.12-2.19,2.24-4.53,2.75-5.41c0.89-1.49,1.77-2.05,2.99-2.05c4.34,0,4.71,0.98,4.71,2.1c0,4.25-0.14,14.46-0.37,18.8
		c-0.14,3.5-1.45,4.81-4.2,4.81c-1.26,0-2.47-0.37-2.99-1.12l-0.09-12.55c-0.47,1.21-1.45,3.08-2.57,4.81
		c-0.14,3.17-1.07,6.07-3.92,6.07c-1.54,0-2.47-0.61-2.71-1.21c-0.19-2.19-0.61-3.97-1.17-5.41l-1.59-4.01
		c0,3.41-0.05,7.79-0.42,10.36c-0.23,2.01-1.49,3.03-3.78,3.03c-1.07,0-1.87-0.33-2.19-1.07c0-3.13-0.05-11.43-0.05-17.73
		c-0.37-1.12-0.7-2.43-0.7-3.36c0-1.82,2.66-3.45,6.02-3.45C189.52,273.17,190.31,273.49,191.15,274.57z"/>
	<path class="st1" d="M225.22,298.27c-1.31,0.28-3.08,0.37-6.3,0.37c-1.31,0-2.15,0-3.03-0.14c-2.05-0.23-4.34-1.68-4.34-3.31
		c0-2.33,0.05-6.11,0.19-9.29c0.05-1.87,0.09-3.78,0.14-5.79c-0.51-1.31-0.65-2.19-0.65-3.55c0-2.05,1.12-3.08,5.6-3.08
		c2.52,0,9.43,0.14,11.06,0.14c0.51,0.51,0.79,1.77,0.79,2.66c0,2.61-1.17,3.69-3.36,3.83c-0.98,0.14-3.83,0.19-6.02,0.19
		l-0.14,4.34c2.01-0.19,6.25-0.19,6.91-0.19c0.33,0.42,0.51,1.03,0.51,1.73c0,2.38-0.98,3.59-2.47,3.73
		c-0.65,0.14-2.66,0.05-5.04,0.19l-0.05,2.61l8.12,0.05c0.37,0.51,0.51,0.98,0.51,1.68C227.64,296.73,226.66,298.04,225.22,298.27z"
		/>
	<path class="st1" d="M241.45,280.07c-0.51-1.31-0.65-2.19-0.65-3.55c0-2.05,1.12-3.08,5.6-3.08c2.57,0,7.51-0.05,9.19,0.14
		c0.51,0.51,0.84,1.49,0.84,2.38c0,3.03-1.12,4.85-3.31,5.04c-0.98,0.14-2.89,0.14-4.01,0.14l-0.14,4.53
		c2.1-0.14,3.69-0.14,4.34-0.14c1.4,0,1.77,0.37,1.77,1.49c0,3.36-1.35,4.76-2.85,4.9c-0.56,0.05-1.59,0.14-3.45,0.19l-0.09,3.55
		c0,2.47-1.35,3.13-4.06,3.13c-3.08,0-3.27-0.75-3.27-4.95c0-2.33,0.05-5.74,0.05-8.63C241.45,283.53,241.45,281.8,241.45,280.07z"
		/>
	<path class="st1" d="M271.97,289.59c2.05,2.61,2.38,2.71,4.15,2.89c0.23,0.42,0.37,1.03,0.37,1.54c0,2.75-1.82,4.99-4.85,4.99
		c-2.1,0-2.71-0.7-3.69-2.57c-1.26-2.24-1.91-3.31-2.8-3.83l-0.23,3.03c-0.23,2.47-1.03,3.13-3.78,3.13c-3.08,0-3.27-0.75-3.27-4.95
		c0-2.38,0.05-5.74,0.19-8.58c0.05-1.68,0.09-3.41,0.14-5.13c-0.23-0.98-0.33-1.91-0.33-2.8c0-1.87,1.07-2.66,5.51-3.03
		c1.91-0.75,3.45-1.12,5.69-1.12c4.99,0,7,2.99,7,7.19C276.08,284.23,274.86,286.33,271.97,289.59z M265.34,287.12
		c0.65,0,2.24,0.28,2.8,0.51c0.7-1.68,1.07-3.22,1.07-4.71c0-2.29-0.84-3.41-3.5-3.64L265.34,287.12z"/>
	<path class="st1" d="M289.61,273.17c4.81,0,8.35,3.5,8.35,10.83c0,8.45-2.94,15.03-10.41,15.03c-5.79,0-9.19-2.47-9.19-11.29
		c0-6.02,1.45-9.15,4.15-10.87C284.01,274.1,286.85,273.17,289.61,273.17z M286.48,279.33c-0.37,1.87-0.42,5.46-0.42,6.81
		c0,5.83,0.84,6.77,3.78,7.33c0.61-2.85,0.75-5.93,0.75-7.33C290.59,281.71,289.28,280.21,286.48,279.33z"/>
	<path class="st1" d="M309.81,274.57c0.98,1.35,2.19,3.92,3.17,6.07c0.56,1.31,1.12,2.66,1.63,4.06c0.7-1.49,1.35-2.85,1.96-4.11
		c1.12-2.19,2.24-4.53,2.75-5.41c0.89-1.49,1.77-2.05,2.99-2.05c4.34,0,4.71,0.98,4.71,2.1c0,4.25-0.14,14.46-0.37,18.8
		c-0.14,3.5-1.45,4.81-4.2,4.81c-1.26,0-2.47-0.37-2.99-1.12l-0.09-12.55c-0.47,1.21-1.45,3.08-2.57,4.81
		c-0.14,3.17-1.07,6.07-3.92,6.07c-1.54,0-2.47-0.61-2.71-1.21c-0.19-2.19-0.61-3.97-1.17-5.41l-1.59-4.01
		c0,3.41-0.05,7.79-0.42,10.36c-0.23,2.01-1.49,3.03-3.78,3.03c-1.07,0-1.87-0.33-2.19-1.07c0-3.13-0.05-11.43-0.05-17.73
		c-0.37-1.12-0.7-2.43-0.7-3.36c0-1.82,2.66-3.45,6.02-3.45C308.18,273.17,308.97,273.49,309.81,274.57z"/>
	<path class="st1" d="M355.44,273.68c0.37,0.51,0.75,1.63,0.75,2.47c0,3.87-1.49,4.9-4.48,5.04c0,1.49-0.14,5.23-0.28,8.4
		c-0.05,1.91-0.14,3.92-0.23,6.11c-0.14,2.29-2.05,3.13-4.81,3.13c-3.03,0-3.13-0.75-3.13-4.95c0-2.38,0.09-5.41,0.09-7.93
		l0.14-4.48c-3.64,0-4.34-0.47-4.34-1.82c0-3.59,1.35-5.79,2.85-6.02c1.31-0.14,2.57-0.19,6.07-0.19
		C351.76,273.45,353.72,273.54,355.44,273.68z"/>
	<path class="st1" d="M369.16,274.29c0.98-0.61,2.24-1.07,4.11-1.07c2.99,0,3.73,0.98,3.73,3.45c0,3.22-0.14,8.4-0.51,18.15
		c-0.14,2.47-1.35,3.87-4.11,3.87c-2.89,0-3.27-0.75-3.27-4.95v-3.92c-0.89,0.14-2.57,0.28-3.78,0.28l-0.23,5.55
		c-0.14,2.05-2.01,3.17-4.9,3.17c-1.31,0-2.24-0.33-2.61-1.12c0-2.38,0-6.95,0.14-11.01c0.05-2.38,0.05-4.85,0.09-7.47
		c-0.23-0.98-0.33-1.91-0.33-2.8c0-1.82,2.05-3.17,5.65-3.17c1.49,0,2.66,0.56,2.66,2.19c0,1.54-0.05,3.69-0.28,9.29l3.64-0.37
		V274.29z"/>
	<path class="st1" d="M393.85,298.27c-1.31,0.28-3.08,0.37-6.3,0.37c-1.31,0-2.15,0-3.03-0.14c-2.05-0.23-4.34-1.68-4.34-3.31
		c0-2.33,0.05-6.11,0.19-9.29c0.05-1.87,0.09-3.78,0.14-5.79c-0.51-1.31-0.65-2.19-0.65-3.55c0-2.05,1.12-3.08,5.6-3.08
		c2.52,0,9.42,0.14,11.06,0.14c0.51,0.51,0.79,1.77,0.79,2.66c0,2.61-1.17,3.69-3.36,3.83c-0.98,0.14-3.83,0.19-6.02,0.19
		l-0.14,4.34c2.01-0.19,6.25-0.19,6.91-0.19c0.33,0.42,0.51,1.03,0.51,1.73c0,2.38-0.98,3.59-2.47,3.73
		c-0.65,0.14-2.66,0.05-5.04,0.19l-0.05,2.61l8.12,0.05c0.37,0.51,0.51,0.98,0.51,1.68C396.27,296.73,395.29,298.04,393.85,298.27z"
		/>
	<path class="st1" d="M416.48,295.66c-0.23,2.47-1.03,3.13-3.78,3.13c-3.08,0-3.27-0.75-3.27-4.95c0-2.38,0.05-5.74,0.19-8.58
		c0.05-1.63,0.09-3.36,0.14-5.09c-0.23-0.98-0.33-1.91-0.33-2.8c0-1.87,1.07-2.71,5.51-3.08c1.91-0.75,3.45-1.12,5.69-1.12
		c5.41,0,7,3.27,7,7.51c0,8.21-3.78,12.74-9.24,12.74c-0.56,0-1.12,0-1.73-0.14L416.48,295.66z M416.9,287.26
		c0.51,0.28,1.77,0.51,2.47,0.51c1.26,0,1.4-2.38,1.4-5.18c0-1.87-0.56-3.03-3.5-3.27L416.9,287.26z"/>
	<path class="st1" d="M433.27,274.61c1.63-0.89,4.01-1.45,6.58-1.45c2.99,0,4.34,1.26,4.57,3.13c0.56,4.67,1.68,11.99,2.99,16.66
		c1.03,0.79,1.45,1.31,1.45,2.29c0,2.57-3.27,3.64-6.63,3.64c-1.96,0-2.52-1.17-3.13-4.76c-1.12,0.14-2.89,0.14-4.76,0.14
		c-0.19,0.7-0.56,3.59-0.56,4.11c-0.33,0.33-1.03,0.56-2.1,0.56c-1.68,0-4.15-0.61-4.15-2.99
		C427.54,294.72,430.01,283.15,433.27,274.61z M437.19,280.49c-0.56,2.01-1.49,6.16-2.05,9.1c0.7,0,2.52-0.05,3.36-0.19
		C438.13,287.59,437.57,283.06,437.19,280.49z"/>
	<path class="st1" d="M464.44,289.59c2.05,2.61,2.38,2.71,4.15,2.89c0.23,0.42,0.37,1.03,0.37,1.54c0,2.75-1.82,4.99-4.85,4.99
		c-2.1,0-2.71-0.7-3.69-2.57c-1.26-2.24-1.91-3.31-2.8-3.83l-0.23,3.03c-0.23,2.47-1.03,3.13-3.78,3.13c-3.08,0-3.27-0.75-3.27-4.95
		c0-2.38,0.05-5.74,0.19-8.58c0.05-1.68,0.09-3.41,0.14-5.13c-0.23-0.98-0.33-1.91-0.33-2.8c0-1.87,1.07-2.66,5.51-3.03
		c1.91-0.75,3.45-1.12,5.69-1.12c4.99,0,7,2.99,7,7.19C468.55,284.23,467.34,286.33,464.44,289.59z M457.82,287.12
		c0.65,0,2.24,0.28,2.8,0.51c0.7-1.68,1.07-3.22,1.07-4.71c0-2.29-0.84-3.41-3.5-3.64L457.82,287.12z"/>
	<path class="st1" d="M471.26,297.76c0-2.29-0.05-7,0.14-10.97c0.05-2.38,0.05-4.9,0.09-7.51c-0.23-0.98-0.33-1.91-0.33-2.8
		c0-1.82,2.05-3.17,5.65-3.17c1.45,0,2.47,0.56,2.47,2.19c0,1.49-0.23,4.39-0.47,9.94c0.37,0,0.84,0.09,1.07,0.14
		c1.49-4.25,2.33-6.81,2.57-9.57c0.23-1.96,2.05-2.89,4.81-2.89c2.47,0,3.45,1.54,3.45,3.41c-1.12,3.22-3.41,7.98-5.32,10.87
		l2.29,3.27c0.89,1.26,1.54,1.45,3.36,1.59c0.23,0.51,0.37,1.07,0.37,1.59c0,2.85-2.19,5.23-5.37,5.23c-1.91,0-2.94-0.65-3.92-2.38
		l-3.5-6.35l-0.23,5.37c-0.14,2.05-1.77,3.17-4.53,3.17C472.56,298.88,471.63,298.55,471.26,297.76z"/>
	<path class="st1" d="M526.97,274.1c0.51-0.37,1.45-0.84,2.43-0.84c2.61,0,4.11,0.84,4.11,4.39c0,2.01-1.26,8.82-4.25,16.8
		c-0.75,1.87-1.45,2.71-4.67,3.45c-1.12,0.7-2.19,0.93-3.64,0.93c-1.31,0-2.05-0.33-2.57-2.71c-0.19-0.98-0.93-4.85-1.12-5.93
		c-0.89,3.22-1.87,5.97-2.61,6.95c-0.84,1.07-2.99,1.73-5.09,1.73c-2.89,0-3.45-1.45-3.97-4.57c-0.75-4.71-1.12-9.47-2.1-14.33
		c-0.79-0.93-1.17-1.87-1.17-2.99c0-2.75,2.61-3.83,5.93-3.83c1.68,0,2.52,0.7,3.03,3.83c0.14,0.89,0.42,4.43,0.79,7.7
		c0.19,1.91,0.37,4.06,0.56,6.35l2.61-9.15c-0.61-2.75-0.75-3.55-0.75-4.85c0-2.29,2.1-3.73,4.99-3.73c1.91,0,2.29,1.4,2.89,4.9
		c0.23,1.91,1.73,10.22,2.01,12.83C526.27,283.48,526.83,276.81,526.97,274.1z"/>
	<path class="st1" d="M536.07,279.56c-0.33-1.12-0.51-2.29-0.51-3.17c0-1.87,2.05-3.22,5.65-3.22c2.66,0,2.89,0.75,2.89,1.96
		l-0.23,16.98c0.89,0.51,1.35,1.07,1.35,1.87c0,3.17-2.43,4.9-5.69,4.9c-3.08,0-3.64-0.75-3.64-4.95c0-2.33,0.09-5.97,0.09-8.91
		C536.02,283.25,536.02,281.43,536.07,279.56z"/>
	<path class="st1" d="M562.43,273.68c0.37,0.51,0.75,1.63,0.75,2.47c0,3.87-1.49,4.9-4.48,5.04c0,1.49-0.14,5.23-0.28,8.4
		c-0.05,1.91-0.14,3.92-0.23,6.11c-0.14,2.29-2.05,3.13-4.81,3.13c-3.03,0-3.13-0.75-3.13-4.95c0-2.38,0.09-5.41,0.09-7.93
		l0.14-4.48c-3.64,0-4.34-0.47-4.34-1.82c0-3.59,1.35-5.79,2.85-6.02c1.31-0.14,2.57-0.19,6.07-0.19
		C558.74,273.45,560.7,273.54,562.43,273.68z"/>
	<path class="st1" d="M576.15,274.29c0.98-0.61,2.24-1.07,4.11-1.07c2.99,0,3.73,0.98,3.73,3.45c0,3.22-0.14,8.4-0.51,18.15
		c-0.14,2.47-1.35,3.87-4.11,3.87c-2.89,0-3.27-0.75-3.27-4.95v-3.92c-0.89,0.14-2.57,0.28-3.78,0.28l-0.23,5.55
		c-0.14,2.05-2.01,3.17-4.9,3.17c-1.31,0-2.24-0.33-2.61-1.12c0-2.38,0-6.95,0.14-11.01c0.05-2.38,0.05-4.85,0.09-7.47
		c-0.23-0.98-0.33-1.91-0.33-2.8c0-1.82,2.05-3.17,5.65-3.17c1.49,0,2.66,0.56,2.66,2.19c0,1.54-0.05,3.69-0.28,9.29l3.64-0.37
		V274.29z"/>
	<path class="st1" d="M143.38,310.66c0.37,0.51,0.75,1.63,0.75,2.47c0,3.87-1.49,4.9-4.48,5.04c0,1.49-0.14,5.23-0.28,8.4
		c-0.05,1.91-0.14,3.92-0.23,6.11c-0.14,2.29-2.05,3.13-4.81,3.13c-3.03,0-3.13-0.75-3.13-4.95c0-2.38,0.09-5.41,0.09-7.93
		l0.14-4.48c-3.64,0-4.34-0.47-4.34-1.82c0-3.59,1.35-5.79,2.85-6.02c1.31-0.14,2.57-0.19,6.07-0.19
		C139.69,310.42,141.65,310.52,143.38,310.66z"/>
	<path class="st1" d="M157.09,311.26c0.98-0.61,2.24-1.07,4.11-1.07c2.99,0,3.73,0.98,3.73,3.45c0,3.22-0.14,8.4-0.51,18.15
		c-0.14,2.47-1.35,3.87-4.11,3.87c-2.89,0-3.27-0.75-3.27-4.95v-3.92c-0.89,0.14-2.57,0.28-3.78,0.28l-0.23,5.55
		c-0.14,2.05-2.01,3.17-4.9,3.17c-1.31,0-2.24-0.33-2.61-1.12c0-2.38,0-6.95,0.14-11.01c0.05-2.38,0.05-4.85,0.09-7.47
		c-0.23-0.98-0.33-1.91-0.33-2.8c0-1.82,2.05-3.17,5.65-3.17c1.49,0,2.66,0.56,2.66,2.19c0,1.54-0.05,3.69-0.28,9.29l3.64-0.37
		V311.26z"/>
	<path class="st1" d="M181.78,335.25c-1.31,0.28-3.08,0.37-6.3,0.37c-1.31,0-2.15,0-3.03-0.14c-2.05-0.23-4.34-1.68-4.34-3.31
		c0-2.33,0.05-6.11,0.19-9.29c0.05-1.87,0.09-3.78,0.14-5.79c-0.51-1.31-0.65-2.19-0.65-3.55c0-2.05,1.12-3.08,5.6-3.08
		c2.52,0,9.43,0.14,11.06,0.14c0.51,0.51,0.79,1.77,0.79,2.66c0,2.61-1.17,3.69-3.36,3.83c-0.98,0.14-3.83,0.19-6.02,0.19
		l-0.14,4.34c2.01-0.19,6.25-0.19,6.91-0.19c0.33,0.42,0.51,1.03,0.51,1.73c0,2.38-0.98,3.59-2.47,3.73
		c-0.65,0.14-2.66,0.05-5.04,0.19l-0.05,2.61l8.12,0.05c0.37,0.51,0.51,0.98,0.51,1.68C184.2,333.71,183.22,335.01,181.78,335.25z"
		/>
	<path class="st1" d="M203.15,310.98c1.45-0.51,3.08-0.84,4.11-0.84c7.09,0,9.85,3.73,9.85,10.36c0,9.52-4.29,15.26-10.83,15.26
		c-4.29,0-8.59-0.84-8.59-3.59c0-2.33,0.14-6.16,0.14-9.42c0.05-1.91,0.09-3.87,0.14-5.88c-0.37-0.89-0.61-1.87-0.61-3.36
		C197.36,311.68,199.23,311.12,203.15,310.98z M209.63,322.65c0-3.59-1.26-5.55-4.25-6.44c0,3.64-0.14,8.68-0.37,13.67
		c0.42,0.23,0.93,0.33,1.31,0.33C207.63,330.21,209.63,329.74,209.63,322.65z"/>
	<path class="st1" d="M230.07,310.14c4.81,0,8.35,3.5,8.35,10.83c0,8.45-2.94,15.03-10.41,15.03c-5.79,0-9.19-2.47-9.19-11.29
		c0-6.02,1.45-9.15,4.15-10.87C224.47,311.08,227.32,310.14,230.07,310.14z M226.94,316.3c-0.37,1.87-0.42,5.46-0.42,6.81
		c0,5.83,0.84,6.77,3.78,7.33c0.61-2.85,0.75-5.93,0.75-7.33C231.05,318.68,229.74,317.19,226.94,316.3z"/>
	<path class="st1" d="M251.67,324.7c0.89-0.61,2.1-0.93,3.64-0.93c2.61,0,3.22,0.89,3.22,2.99c0,1.87-0.14,4.34-0.37,6.16
		c-0.23,2.1-3.55,2.94-7.61,2.94c-6.35,0-10.13-2.66-10.13-11.53c0-7.51,2.33-10.92,5.93-11.9c1.87-1.63,3.41-2.29,6.72-2.29
		c3.17,0,4.81,1.45,4.81,4.2c0,1.54-0.75,2.99-2.05,3.87c-1.96-0.75-3.55-1.21-6.53-1.21c-0.65,1.91-1.07,4.71-1.07,6.16
		c0,4.81,0.75,6.58,3.36,7.56L251.67,324.7z"/>
	<path class="st1" d="M280.7,311.54c0.98,1.35,2.19,3.92,3.17,6.07c0.56,1.31,1.12,2.66,1.63,4.06c0.7-1.49,1.35-2.85,1.96-4.11
		c1.12-2.19,2.24-4.53,2.75-5.41c0.89-1.49,1.77-2.05,2.99-2.05c4.34,0,4.71,0.98,4.71,2.1c0,4.25-0.14,14.46-0.37,18.8
		c-0.14,3.5-1.45,4.81-4.2,4.81c-1.26,0-2.47-0.37-2.99-1.12l-0.09-12.55c-0.47,1.21-1.45,3.08-2.57,4.81
		c-0.14,3.17-1.07,6.07-3.92,6.07c-1.54,0-2.47-0.61-2.71-1.21c-0.19-2.19-0.61-3.97-1.17-5.41l-1.59-4.01
		c0,3.41-0.05,7.79-0.42,10.36c-0.23,2.01-1.49,3.03-3.78,3.03c-1.07,0-1.87-0.33-2.19-1.07c0-3.13-0.05-11.43-0.05-17.73
		c-0.37-1.12-0.7-2.43-0.7-3.36c0-1.82,2.66-3.45,6.02-3.45C279.06,310.14,279.86,310.47,280.7,311.54z"/>
	<path class="st1" d="M305.66,311.59c1.63-0.89,4.01-1.45,6.58-1.45c2.99,0,4.34,1.26,4.57,3.13c0.56,4.67,1.68,11.99,2.99,16.66
		c1.03,0.79,1.45,1.31,1.45,2.29c0,2.57-3.27,3.64-6.63,3.64c-1.96,0-2.52-1.17-3.13-4.76c-1.12,0.14-2.89,0.14-4.76,0.14
		c-0.19,0.7-0.56,3.59-0.56,4.11c-0.33,0.33-1.03,0.56-2.1,0.56c-1.68,0-4.15-0.61-4.15-2.99
		C299.92,331.7,302.39,320.13,305.66,311.59z M309.58,317.47c-0.56,2.01-1.49,6.16-2.05,9.1c0.7,0,2.52-0.05,3.36-0.19
		C310.51,324.56,309.95,320.04,309.58,317.47z"/>
	<path class="st1" d="M328.52,310.98c1.45-0.51,3.08-0.84,4.11-0.84c7.09,0,9.85,3.73,9.85,10.36c0,9.52-4.29,15.26-10.83,15.26
		c-4.29,0-8.59-0.84-8.59-3.59c0-2.33,0.14-6.16,0.14-9.42c0.05-1.91,0.09-3.87,0.14-5.88c-0.37-0.89-0.61-1.87-0.61-3.36
		C322.74,311.68,324.6,311.12,328.52,310.98z M335.01,322.65c0-3.59-1.26-5.55-4.25-6.44c0,3.64-0.14,8.68-0.37,13.67
		c0.42,0.23,0.93,0.33,1.31,0.33C333,330.21,335.01,329.74,335.01,322.65z"/>
	<path class="st1" d="M358.53,335.25c-1.31,0.28-3.08,0.37-6.3,0.37c-1.31,0-2.15,0-3.03-0.14c-2.05-0.23-4.34-1.68-4.34-3.31
		c0-2.33,0.05-6.11,0.19-9.29c0.05-1.87,0.09-3.78,0.14-5.79c-0.51-1.31-0.65-2.19-0.65-3.55c0-2.05,1.12-3.08,5.6-3.08
		c2.52,0,9.43,0.14,11.06,0.14c0.51,0.51,0.79,1.77,0.79,2.66c0,2.61-1.17,3.69-3.36,3.83c-0.98,0.14-3.83,0.19-6.02,0.19
		l-0.14,4.34c2.01-0.19,6.25-0.19,6.91-0.19c0.33,0.42,0.51,1.03,0.51,1.73c0,2.38-0.98,3.59-2.47,3.73
		c-0.65,0.14-2.66,0.05-5.04,0.19l-0.05,2.61l8.12,0.05c0.37,0.51,0.51,0.98,0.51,1.68C360.95,333.71,359.97,335.01,358.53,335.25z"
		/>
	<path class="st1" d="M383.63,311.54c0.98,1.35,2.19,3.92,3.17,6.07c0.56,1.31,1.12,2.66,1.63,4.06c0.7-1.49,1.35-2.85,1.96-4.11
		c1.12-2.19,2.24-4.53,2.75-5.41c0.89-1.49,1.77-2.05,2.99-2.05c4.34,0,4.71,0.98,4.71,2.1c0,4.25-0.14,14.46-0.37,18.8
		c-0.14,3.5-1.45,4.81-4.2,4.81c-1.26,0-2.47-0.37-2.99-1.12l-0.09-12.55c-0.47,1.21-1.45,3.08-2.57,4.81
		c-0.14,3.17-1.07,6.07-3.92,6.07c-1.54,0-2.47-0.61-2.71-1.21c-0.19-2.19-0.61-3.97-1.17-5.41l-1.59-4.01
		c0,3.41-0.05,7.79-0.42,10.36c-0.23,2.01-1.49,3.03-3.78,3.03c-1.07,0-1.87-0.33-2.19-1.07c0-3.13-0.05-11.43-0.05-17.73
		c-0.37-1.12-0.7-2.43-0.7-3.36c0-1.82,2.66-3.45,6.02-3.45C382,310.14,382.79,310.47,383.63,311.54z"/>
	<path class="st1" d="M417.69,335.25c-1.31,0.28-3.08,0.37-6.3,0.37c-1.31,0-2.15,0-3.03-0.14c-2.05-0.23-4.34-1.68-4.34-3.31
		c0-2.33,0.05-6.11,0.19-9.29c0.05-1.87,0.09-3.78,0.14-5.79c-0.51-1.31-0.65-2.19-0.65-3.55c0-2.05,1.12-3.08,5.6-3.08
		c2.52,0,9.42,0.14,11.06,0.14c0.51,0.51,0.79,1.77,0.79,2.66c0,2.61-1.17,3.69-3.36,3.83c-0.98,0.14-3.83,0.19-6.02,0.19
		l-0.14,4.34c2.01-0.19,6.25-0.19,6.91-0.19c0.33,0.42,0.51,1.03,0.51,1.73c0,2.38-0.98,3.59-2.47,3.73
		c-0.65,0.14-2.66,0.05-5.04,0.19l-0.05,2.61l8.12,0.05c0.37,0.51,0.51,0.98,0.51,1.68C420.12,333.71,419.14,335.01,417.69,335.25z"
		/>
	<path class="st1" d="M441.86,310.14c4.95,0,7.28,2.52,7.28,5.04c0,2.99-1.73,4.2-3.83,4.2c-0.7,0-1.12-0.09-1.63-0.23
		c-0.37-1.73-1.17-2.57-3.41-3.31c-0.19,0.42-0.28,1.07-0.28,1.63c0,1.21,0.23,1.49,5.46,4.85c2.94,1.82,3.97,3.22,3.97,5.93
		c0,3.97-2.99,7.65-9.01,7.65c-4.9,0-8.21-1.49-8.21-5.41c0-2.38,1.45-3.92,3.45-3.92c0.33,0,0.7,0,1.07,0.14
		c1.87,3.36,2.94,4.15,4.29,4.15c0.93,0,1.31-0.51,1.31-1.07c0-0.61-0.7-1.26-5.55-4.62c-2.61-1.87-3.5-3.59-3.5-6.16
		c0-2.24,0.89-4.53,2.75-5.88C437.29,310.98,438.69,310.14,441.86,310.14z"/>
	<path class="st1" d="M462.67,310.14c4.81,0,8.35,3.5,8.35,10.83c0,8.45-2.94,15.03-10.41,15.03c-5.79,0-9.19-2.47-9.19-11.29
		c0-6.02,1.45-9.15,4.15-10.87C457.07,311.08,459.92,310.14,462.67,310.14z M459.54,316.3c-0.37,1.87-0.42,5.46-0.42,6.81
		c0,5.83,0.84,6.77,3.78,7.33c0.61-2.85,0.75-5.93,0.75-7.33C463.65,318.68,462.34,317.19,459.54,316.3z"/>
	<path class="st1" d="M495.29,311.26c0.98-0.61,2.24-1.07,4.11-1.07c2.99,0,3.73,0.98,3.73,3.45c0,3.22-0.14,8.4-0.51,18.15
		c-0.14,2.47-1.35,3.87-4.11,3.87c-2.89,0-3.27-0.75-3.27-4.95v-3.92c-0.89,0.14-2.57,0.28-3.78,0.28l-0.23,5.55
		c-0.14,2.05-2.01,3.17-4.9,3.17c-1.31,0-2.24-0.33-2.61-1.12c0-2.38,0-6.95,0.14-11.01c0.05-2.38,0.05-4.85,0.09-7.47
		c-0.23-0.98-0.33-1.91-0.33-2.8c0-1.82,2.05-3.17,5.65-3.17c1.49,0,2.66,0.56,2.66,2.19c0,1.54-0.05,3.69-0.28,9.29l3.64-0.37
		V311.26z"/>
	<path class="st1" d="M510.87,311.59c1.63-0.89,4.01-1.45,6.58-1.45c2.99,0,4.34,1.26,4.57,3.13c0.56,4.67,1.68,11.99,2.99,16.66
		c1.03,0.79,1.45,1.31,1.45,2.29c0,2.57-3.27,3.64-6.63,3.64c-1.96,0-2.52-1.17-3.13-4.76c-1.12,0.14-2.89,0.14-4.76,0.14
		c-0.19,0.7-0.56,3.59-0.56,4.11c-0.33,0.33-1.03,0.56-2.1,0.56c-1.68,0-4.15-0.61-4.15-2.99
		C505.13,331.7,507.6,320.13,510.87,311.59z M514.79,317.47c-0.56,2.01-1.49,6.16-2.05,9.1c0.7,0,2.52-0.05,3.36-0.19
		C515.72,324.56,515.16,320.04,514.79,317.47z"/>
	<path class="st1" d="M535,332.63c-0.23,2.47-1.03,3.13-3.78,3.13c-3.08,0-3.27-0.75-3.27-4.95c0-2.38,0.05-5.74,0.19-8.59
		c0.05-1.63,0.09-3.36,0.14-5.09c-0.23-0.98-0.33-1.91-0.33-2.8c0-1.87,1.07-2.71,5.51-3.08c1.91-0.75,3.45-1.12,5.69-1.12
		c5.41,0,7,3.27,7,7.51c0,8.21-3.78,12.74-9.24,12.74c-0.56,0-1.12,0-1.73-0.14L535,332.63z M535.42,324.24
		c0.51,0.28,1.77,0.51,2.47,0.51c1.26,0,1.4-2.38,1.4-5.18c0-1.87-0.56-3.03-3.5-3.27L535.42,324.24z"/>
	<path class="st1" d="M555.34,332.63c-0.23,2.47-1.03,3.13-3.78,3.13c-3.08,0-3.27-0.75-3.27-4.95c0-2.38,0.05-5.74,0.19-8.59
		c0.05-1.63,0.09-3.36,0.14-5.09c-0.23-0.98-0.33-1.91-0.33-2.8c0-1.87,1.07-2.71,5.51-3.08c1.91-0.75,3.45-1.12,5.69-1.12
		c5.41,0,7,3.27,7,7.51c0,8.21-3.78,12.74-9.24,12.74c-0.56,0-1.12,0-1.73-0.14L555.34,332.63z M555.76,324.24
		c0.51,0.28,1.77,0.51,2.47,0.51c1.26,0,1.4-2.38,1.4-5.18c0-1.87-0.56-3.03-3.5-3.27L555.76,324.24z"/>
	<path class="st1" d="M583.66,310.14c2.57,0,3.87,1.21,4.11,2.94l-6.3,13.25l-0.05,5.83c0,1.82-1.31,3.69-5.83,3.69
		c-2.15,0-2.75-0.61-2.75-3.41c0-1.17,0.05-2.66,0.05-3.73c0.05-0.7,0.05-1.35,0.09-2.05l-4.01-10.41
		c-0.98-0.75-1.45-1.87-1.45-2.75c0-2.15,3.36-3.36,5.83-3.36c1.73,0,2.71,0.7,3.36,2.61l2.05,5.93l2.01-6.02
		C581.38,310.8,581.93,310.14,583.66,310.14z"/>
	<path class="st1" d="M586.37,332.54c0-4.11,1.59-5.32,3.64-5.32c3.87,0,4.95,2.19,4.95,3.64c0,1.73-0.79,3.5-2.24,4.85
		c-0.47,0-1.4,0.05-1.73,0.05C587.63,335.76,586.37,334.41,586.37,332.54z"/>
</g>
</svg>
