<?xml version="1.0" encoding="utf-8"?>
<!-- Generator: Adobe Illustrator 23.0.3, SVG Export Plug-In . SVG Version: 6.00 Build 0)  -->
<svg version="1.1" id="Layer_1" xmlns="http://www.w3.org/2000/svg" xmlns:xlink="http://www.w3.org/1999/xlink" x="0px" y="0px"
	 viewBox="0 0 984 794" style="enable-background:new 0 0 984 794;" xml:space="preserve">
<style type="text/css">
	.st0{opacity:0.1;fill:#007CC7;enable-background:new    ;}
	.st1{fill:#AFC7D7;}
	.st2{opacity:0.48;fill:#99AFBC;enable-background:new    ;}
	.st3{fill:#99AFBC;}
	.st4{fill:#929E1B;}
	.st5{fill:#301F1F;}
	.st6{fill:#766A0B;}
	.st7{fill:#DDD466;}
	.st8{fill:#F3A769;}
	.st9{fill:#E39552;}
	.st10{fill:#CE7A41;}
	.st11{fill:#F7A763;}
	.st12{fill:#FFEFE3;}
	.st13{fill:#EA8FC3;}
	.st14{fill:#BF79A4;}
	.st15{fill:#A35512;}
	.st16{fill:#A1543F;}
	.st17{fill:#B22019;}
	.st18{fill:#002042;}
	.st19{fill:#852626;}
	.st20{fill:#C25353;}
	.st21{fill:#FFFFFF;}
	.st22{fill:#E38A3E;}
	.st23{fill:#FFCC73;}
	.st24{fill:#6FB1ED;}
	.st25{fill:#96C7F6;}
	.st26{fill:#035693;}
	.st27{fill:#91D5E5;}
	.st28{opacity:0.71;}
	.st29{fill:#AEC8E6;}
	.st30{fill:#9B1B15;}
	.st31{fill:#F2DDCE;}
	.st32{fill:#AFD0E0;}
	.st33{fill:#D2E2F5;}
	.st34{fill:#F2F5F7;}
	.st35{fill:#F2C4C8;}
	.st36{fill:#347F48;}
	.st37{fill:#6D4D2D;}
	.st38{opacity:0.5;fill:#F9F9F9;enable-background:new    ;}
	.st39{fill:#C7C959;}
	.st40{fill:#1B354C;}
	.st41{fill:#808080;}
	.st42{fill:#CCCCCC;}
	.st43{fill:#F4CD98;}
	.st44{fill:#E5E7EA;}
	.st45{fill:#D32A3F;}
	.st46{opacity:0.7;fill:#D19D6F;enable-background:new    ;}
	.st47{fill:#2B4EAF;}
	.st48{fill:#D19D6F;}
	.st49{fill:#87182B;}
	.st50{fill:#BEBEBF;}
	.st51{fill:#474F77;}
	.st52{fill:#2D5184;}
	.st53{fill:#FDA589;}
	.st54{fill:#5CE0A1;}
	.st55{fill:#CE846F;}
	.st56{fill:#9A4545;}
	.st57{fill:#EDD38A;}
	.st58{fill:#B78B5C;}
	.st59{fill:#444444;}
	.st60{fill:#1E1E1E;}
	.st61{fill:#598CC9;}
	.st62{fill:#256334;}
	.st63{fill:#3D3D3D;}
	.st64{fill:#BAA163;}
	.st65{fill:#45AF79;}
	.st66{fill:#6D2F2F;}
</style>
<g id="Layer_8">
	<path class="st0" d="M54.4,433.2c72.4-115.4,158-81.3,195.5-210.2S468.3,55.4,648.2,55c179.9-0.4,140.5,111.4,136.5,168
		s172.2,20.3,159.2,137.8c-4.9,43.5-21.5,67.7-41.7,84.1c-34.2,27.9-78.5,33.2-92.1,72.4c-21.5,62.3,31.1,73.1,37,98.8
		c0.6,2.7,1,5.3,1.2,7.8c0,0.1,0,0.1,0,0.2c0,0.4,0,0.8,0.1,1.2v0.4c0,0.3,0,0.5,0,0.8c0,0.2,0,0.4,0,0.5s0,0.2,0,0.3
		c0,0.3,0,0.6,0,0.8c0,0.1,0,0.2,0,0.3s0,0.3,0,0.4c0,0.2,0,0.5,0,0.8c-8.8,115.5-530.8,30.3-709.5-2.3
		C138.7,627.4-2.2,585.3,54.4,433.2z"/>
	<path class="st1" d="M274.1,482.1l-5.6,1.4C270.6,482.9,272.7,482.3,274.1,482.1z"/>
	<path class="st1" d="M599.4,241.2H285.2c-1.1,0-2-0.9-2-2l0,0c0-1.1,0.9-2,2-2h314.2c1.1,0,2,0.9,2,2l0,0
		C601.4,240.4,600.5,241.2,599.4,241.2z"/>
	<polygon class="st2" points="240.8,231.7 241.1,231.7 241.1,194.5 258.8,194.5 258.8,168.6 282.7,168.6 282.7,184.8 297.2,184.8 
		297.2,190.7 305.7,190.7 305.7,185.1 315.8,185.1 315.8,173.3 323.7,163.2 337.6,163.2 344.1,173.9 344.1,211.1 363.6,211.1 
		363.6,185.1 397.8,185.1 397.8,192.2 407.3,192.2 407.3,185.7 432.4,185.7 432.4,191.3 443.9,191.3 443.9,184.8 446.8,184.8 
		446.8,157 452.1,157 452.1,153.2 456.9,149.1 468.1,149.1 471.9,153.2 471.9,156.7 476.3,156.7 476.3,185.1 479,185.1 479,198.7 
		485.8,198.7 485.8,171.8 507.6,171.8 507.6,188 515.3,188 515.3,175 515.3,175 515.3,165.9 524.8,165.9 524.8,174.8 527.1,174.8 
		527.1,181.8 539.2,181.8 539.2,187.1 562.6,187.1 562.6,170 569.1,170 569.1,236.8 240.7,236.8 	"/>
	<g>
		<g>
			<rect x="532.9" y="158.2" class="st3" width="16.2" height="79.8"/>
			<polygon class="st3" points="536.9,159 533,159 533,152.5 			"/>
			<polygon class="st3" points="545.3,159 549.2,159 549.2,152.5 			"/>
		</g>
		<polygon class="st3" points="542.5,94.2 534.9,165.5 546.7,163.9 		"/>
	</g>
	<rect x="381.7" y="81.4" class="st1" width="4.9" height="159.5"/>
	<g>
		<path class="st1" d="M551.9,240.9H292.8V81.4h259.1V240.9z M297.4,236.8h249.8V85.5H297.4V236.8z"/>
	</g>
	<path class="st0" d="M462.7,119.7c-1-3.2,1.6-8.2,15.9-7.5s17.8-11.5,31.1-11.7c13.4-0.2,10.9,10.8,24.6,8.7
		c13.7-2.1,21.7,12,6.1,16.7c-15.7,4.7-18.8-2.2-52.6,1.1C467.3,129.1,463.8,123.3,462.7,119.7z"/>
	<path class="st0" d="M380.3,166.9c-1.2-3.9,1.9-9.8,19-8.9c17.1,0.8,21.3-13.7,37.3-13.9s13.1,12.9,29.4,10.4
		c16.3-2.6,26,14.4,7.3,20s-22.5-2.7-63,1.4C385.8,178.2,381.7,171.3,380.3,166.9z"/>
	<path class="st0" d="M302.1,132.4c-2.7,0-10.9-0.5-7.8-7.3c2.1-4.5,7.5-0.6,17.7-4.3s14-9.7,27.6-4.7s10.9,0.4,18.6,0.5
		c10.4,0.1,12.9,16.2-3.5,16.5C338.3,133.4,316.6,132.5,302.1,132.4z"/>
	<path class="st1" d="M161.9,651.5c-4.6,1.4-8.6,3.3-17,5c3.7-1.6-4.5,0.5-4.6,0.2c-4.2,1.6-8.3,3.4-12.3,5.3
		c-6.2,2.2-13.4,5.3-18.3,9.1c1.6-1.2,4-2.7,7-4.1c-3.8,2.6-7.5,4.8-11.3,7.7c-3.7,2.8-7.7,6.6-9.6,12.2c0.4-1.7,1.2-3.4,2-5
		c-2.7,3.8-3.8,7.8-4.1,11.4c-0.2,3.7,0.6,7,1.8,10h-1c0.8,0.3,2.3,3.8,4.5,6.9c2.1,3.2,4.5,6.3,5.5,7.4c-5.6-7.2-7.1-11.3-8.1-15.2
		c-0.4-2-0.8-4-0.8-6.8c0-1.4,0.1-3,0.5-4.8c0.2-1.8,0.9-3.9,2-6.2c-2.1,7.1-1.8,12.7,1.8,19.2c0.9,2.6,1.2,3.5,1,3.8
		c1.6,1.9,2.6,2.2,5.2,5.6l0.2,1.2c3.1,4.9,5.2,6.8,7.3,8.7c1.1,0.9,2.2,1.8,3.5,3c1.4,1.2,3,2.6,5.6,4.5c0.7,1.1-2.1-0.1-5.3-2.7
		c-3.2-2.5-6.4-6.3-8.7-8.9c1.1,2.4-0.7,0.2-2.5-2c-1.7-2.1-3.4-4.2-2.4-1.3l2.6,2.5c2,2.8,1.2,2.8-0.1,1c3,3.7,2.1,2.9,3.7,4
		c2.9,3.7,4.7,5.5,5.4,6.3s0.3,0.7-0.1,0.7c-0.4-0.1-0.9-0.2-0.2,0.7c0.3,0.4,0.9,1.1,2.1,2.1c1.2,1,2.9,2.3,5.8,3.7
		c-1.4-0.5-3.6-1.7-5.2-2.6c-1.6-1-2.6-1.7-2.4-1.1c-3.2-2.7-5.5-5.5-7.5-8.2l-1,0.2c3.8,5.1,8.8,9.4,14.4,11.7
		c5.5,2.3,10.3,2.7,14.1,2.7c-3.7-0.4-5.7-0.9-6.6-1.2c-0.9-0.3-0.8-0.5-0.5-0.5c0.7-0.2,2.1-0.2-1.4-1.6c2.9,0.7,5.3,1.4,6.8,1.9
		c0.6,0,2.6,0.3,4.4,0.3c1.8,0.1,3.3,0,2.9-0.2c0.7,0.5,3.2,1,6.2,1.3c3.1,0.3,6.6,0.4,10,0.5c6.7,0.2,12.1,0.2,9,1.4
		c4,0,12.3-0.8,21.5-2.2c9.2-1.3,19.3-3.1,27.6-4.3l-4.4,1.2c17.8-0.9,15.1-3.5,25.1-5.2c-8.7,1.7,8-0.2,11.6,0
		c7.8-1.3,14.1-3,25.2-3.2c2.3,0.7,2.6,1.8,9.6,2c1.6-0.2,3.2-0.4,4.8-0.6c7,0.2,16.6,0.3,21.1,1.1h-1c7.9,1,8.4,0,2.2-0.7l7.7,0.2
		l0.2,0.3c10.1,0.5,19.8,0.4,35.9,2.2c-4.4,0.2,11.9,2.8-2.7,1.3c4.3,0.1-2.2-1-2.9-1.4c-5.2-0.8-10.1-0.5-12.4-0.7
		c1.6,0.6-0.1,1.4-3,1.7c5.3,0,15.2,1.1,24.1,2.1c9,0.9,17,1.6,18.4,0.7c6.5,0.7,14.1,1.3,21.9,1.8c7.8,0.3,15.9,0.7,23.5,1
		c-0.6-0.1-1.8-0.3-1.5-0.4l13,0.9l-3,0.2l8.6,0.6c0.9,0.3-2.4,0.6-6,0.7c-2,0.1-3.9-0.2-1.9-0.3c-9.3,0.7,7.7,0.3,1.7,1
		c-2.3-0.1-5.2,0-6.9,0c10.6,0.5,15.5-0.7,22.1,0.1c2.5-0.4,6.3-0.9,10.7-1.2c4.4-0.3,9.3-0.8,14.1-0.8c-3.7,0.7,10.3-0.8,5.7,0.4
		c3.7-0.6,12.2-0.9,13.6-1.5c-1.3,0.3-5.5,0.7-8.3,0.7c3.9-0.6,4.3-1.1,9.1-1.5c0.6,0,0.3,0.2,0.3,0.2c6.1-1.1,1.9-2,12.7-3.1
		c28.4-3.5-3.7,2.4,0.4,2.3c1-0.6,13.5-2.2,19.2-2.5l-1.3,0.4c2.9-0.5,7.1-1.4,10.2-1.3c1.6-0.9,4.9-2,6.8-2.7l12.6-1.7l-2.5,0.7
		c2.8-0.5,5.4-0.9,7.9-1.2c1.2,0.4-2.6,0.7-6.4,1.4c2.2,0.2,4.7-0.1,7.6-1l-1.6,0.2c3.2-0.7,14.9-3.1,5.5-2c7-1.4,9.4-0.6,14.1-1.5
		c0.6,0.4-3.8,1.1-1.3,1.1c4.7-0.5,7.8-0.8,11.6-1.5c-3.8,0.3,1-0.6-5-0.1c2.2-0.5,8.2-1.4,7.9-1.6c-1.9,0.3-3.2,0.7-6.6,0.8
		c6.3-1,12.9-1.9,19.5-2.3c-0.2,0.1-0.8,0.3-1.6,0.5c8.3-1.8,21-3.1,26.5-4.5l-2.5,0.1c-2,0.4-6.1,0.9-7.8,0.9c6.3-1-4.6-0.3,2-1.5
		c9.2-1.4,17.6-1.2,22.5-2.7c-8.8,0.8-20.8,1.3-24.3,2.2c1.9-0.2,3.8-0.4,5.7-0.6c-4.3,0.8-8.5,1.8-12.8,2.7
		c-0.6-0.4-11.4,1.6-11.3,0.9c4.4-0.7,8.5-1.1,12-1.6c-0.9-0.2-12,1.2-16.7,1.7l5.9-0.5c-10.4,1.9-23.9,3.4-34.1,5.2
		c7.9-1.6-10.3,0.8-4-0.6c2.5-0.7,6.9-0.7,5.7-0.7c0.7-0.8-6.3,0.7-8.4,0.4c-1,0.6-11.4,2.1-5.2,1.9c-3.4,0.1-10.7,1.8-15.4,1.9
		c1.5,0.6-8.5,1.5-10.2,2.1c-2,0.2-3.8,0.3-5.2,0.2c4.2-0.8,9.4-1.7,14.8-2.7c2.2-0.1,6.3-0.7,5.1-0.7v-0.3
		c8.1-1.6,16.2-3.2,22.1-4.3c0.9-0.1,1.9-0.2,2.8-0.4l-0.5,0.2c0.3-0.1,0.6-0.1,0.9-0.2c47.6-6.1,95.2-12.1,142.9-11.2
		c-3.1,0.1-8.2-0.1-10.3,0.3l0.3-0.2l-4.9,0.3c4.1,0,12.2-0.1,15.7-0.4c3.3,0.1,6.7,0.2,10.1,0.3l-8.4-0.6c0,0,0,0,0.1,0
		c0,0,0,0-0.1,0l-9.9-0.7c6.5-0.5,12.7-1,20.5-0.7c-2.5,0.3,0,0.4,0.6,0.6c21.5-2,42.4-2,64.1-1.4c9.1,0.2,18.3,0.4,27.3-1.1
		c17.4-2.9,34.1-12.3,51.7-10.6c6.6,0.6,14.3,2.4,18.8-3c5-6.1,0.9-16.9-5.7-20.7c-6.6-3.9-14.5-3.2-21.9-3.5
		c-9.7-0.4-19.4-2.5-29-1.7c-12.4,1.1-23.5,5-36,4.1c-8.9-0.6-18.2-2.7-27.1-2.4c5-0.2-3.2-1-7.1-1.7c-12.3-0.7-38.3-2.5-56.9-3.1
		c2.5-0.7-2.6-1-8.6-1.3s-12.7-0.6-13.4-1.3c-4.1-0.2-10.6-0.3-11.1,0.2c2.3-0.2,7.9,0.5,7.1,0.8c-6.1-0.2-15.3-0.6-16.2,0l-7.4-1
		c-0.3,0.3-1.5,0.7-3.5,0.8c-1.6-0.1-3.2-0.1-4.8-0.2c-2.9-0.5-3-0.4-3.2-0.1c-1.8-0.1-3.6-0.2-5.4-0.2c2.1-0.3,3.8-0.5,4.6-0.8
		c-6.3-0.4-5.5,0-10-0.1c-1.4-0.5,4.5-0.9,9.4-1l-8.1-0.8c-7.9,0.5-21.7,1.1-34.3,0.2c2.1-0.4,6.2-0.2,2.9-1
		c-5.4,0-12.8,0.5-19.9-0.3c1,0,0.4-0.1,1.4-0.1c-12.7,0.1-9.5-0.7-20.8-1.4c0.2-0.1,0.2-0.2,0.6-0.2l-7,0.1
		c-14.7,0.3-16.2-1.8-24.8-2.9h1.9c-2.7-0.6-8.4-1-14.1-1.4s-11.3-0.8-13.8-1.2c6.1,1,2,0.7,6.4,1.9c5.5,0.2,4-0.8,13,0.2
		c-1.3,0.8-12.8,0.1-15.2,0.5c-5.1-0.4-8.3-2-8.7-2.5c-12.6-1.1-19.6-2.2-35.2-3.7c-5.7-0.1-10.2,1.2-23-1.3l0.8-0.2
		c-0.5,0.5-6.3-0.8-9-0.7c4.3,1.3-5.6,0-0.3,1.4c-7.6-0.7-8.7-1.9-9.3-2.7c-5.6,0.7-15-1.9-26.8-1.9c2.2-0.5,14.9,0.3,9.7-0.6
		c-5.1,0.1-10.2,0.3-15.2,0.5l6.7,0.3c-11.5,0.3-14.6-0.7-21.3-1.1c-0.6-0.2,0.1-0.3,1.5-0.4c1.3-0.1,3.2,0,4.9,0
		c-3.5-0.2-9.2,0-13.8,0.3c-3.5,0.4-15.5,1.4-20.3,2.5c-0.6,0-1.3,0-2,0.1c0.2-0.1,0.5-0.2,0.9-0.2c-1,0.1-1.8,0.2-2.5,0.3
		c-2,0.2-4,0.3-6.1,0.5l1.2-0.3c-0.8,0.1-1.6,0.3-2.3,0.4c-2.1,0.1-4.2,0.4-6.2,0.7l-3.1,0.8l1.6-0.2c-0.2,0.5-2.1,1.2-5,1.9
		c-3.5,0.6-7,1.4-10.5,2.2c-3.7,0.9-7.3,1.8-11,2.8c-4,0.8-8.3,2.1-12.4,3.2c-5,1.4-9.6,2.5-11.9,2.3c13.4-3.9,19.8-5.6,34.3-9.4
		c3.9-0.3,1.6,0.2-1.7,1.1c-3.3,0.9-7.5,2-7.7,2.3c2.7-0.6,5.5-1.3,8.2-1.8c-1.4-0.4,16-3.7,11.4-4c-4.6,0.9-9.3,1.6-13.8,2.7
		c-4.5,1-8.9,2.2-13.2,3.2c-8.6,2.2-16.8,4.2-24.5,5.4c4.5-2.8,8.5-5.9,12.5-9c0-0.1,0.2-0.3,0.8-0.6l-0.8,0.6
		c0.1,0.3,3-0.7,6.4-1.8c-0.6,0.5-1.2,1,2.8-0.1c8.5-1.7,12.7-4.3,19.3-5.5l-2,0.5c3.1-0.5,6.6-1.2,10-1.9c3.3-0.7,6.5-1.2,8.8-1.9
		c2.6,0.1-1.8,0.9-5.7,1.6c-3.9,0.7-7.1,1.5-2.2,0.9c-3.4,0.5-7.5,1.4-11.3,2.5s-7.3,2.2-9.7,2.9c4.1-1,8.2-1.6,11-1.9
		c2.8-0.2,4.1,0,3,0.5c9.1-2.2,9-2.8,8.5-3.3c-0.4-0.5-1.2-0.9,7.1-2.4c3.8-0.6,7.7-0.8,11.6-1.2c1.3-0.5,2.5-1.1,3.8-1.6
		c7-0.5-4.2,1.3,6.5,0.4c2.9-0.9,9.8-0.5,11.9-1c-0.3,0.3-0.4,0.5,5,0.5c0.4-0.1-0.1-0.6,4.1-0.6c2.9,1.2-11,0.3-6,1.4
		c12.2,0,7.8-1.1,9.7-1.5c-0.4,0-1.1,0-2.3,0c0.1-0.4,5.3-0.1,4.8-0.5c-2.1-0.1-4.1,0.1-6,0.2c3.7-0.4-6-0.8-9.8-0.6
		c-8.5,0.7-26.2,1.8-37.9,4c1-0.2,3-0.7,1.7-0.6c-2.1,0.3-4,0.6-5.9,0.9c-1.8,0.4-3.5,0.7-5.1,1c-3.3,0.6-6.3,1.2-9.3,2
		c-6,1.4-12,3.1-20.3,5.4l-1.6,1.3c-7.2,1.8-8.7,2.6-8.9,3.3c-0.2,0.7,1,1.1-0.7,1.6c-3.2,0.7-5.8,1.6-8.6,1.5
		c0.5-0.2,1-0.3,1.4-0.5c-4.4,0.7-5.1,0.9-5.6,1.1c-0.6,0.2-1,0.4-4.9,0.4c-3.2,0.2-1.8,0.3-0.1,0.3c1.7,0,3.7,0,1.6,0.3
		c-2.1,0-3.5,0-4.6,0.1s-1.9,0.2-2.9,0.3c-2,0.1-4.5,0.3-11.1-1.8c0.4-0.1,0.1-0.4,0.7-0.5s2.2,0.1,5.9,0.8
		c-2.4-0.7-4.8-1.4-7.3-2.3c4.6,1,5.4,1,6.3,1.2c0.9,0.1,1.7,0.4,6,0.8c2-0.2,2.9-0.6,3.6-0.9s1.4-0.6,3.2-1
		c-1.6,0.1-2.2,0.4-3.1,0.5c-0.8,0.1-1.9,0.4-4.2,0c-5.6-0.9,1-0.3,1.5-0.5c-3.8,0.1-5.8-0.5-7.7-1.1c-2-0.7-3.8-1.4-7.9-1.9
		c1.1,1.4-0.3,1,4.8,2.9c-2.7-0.5-5.7-1.4-8.1-2.2c-2.4-0.9-4.1-1.6-3.6-2l-1.6,0.5c-1.4-0.5-6.5-1.4-6.8-1.6l-2.3,0.1
		c4.5,1.2,8.4,2.1,15.8,3.7c-3.2-0.2,3.5,2.3-6.1,0.2c-4.3-0.9-0.4-0.6-0.5-0.9c-2.8-0.5-5.4-0.9-7.6-1.2c-2.3-0.2-4.2-0.6-6-0.7
		c-1.8-0.2-3.3-0.3-4.8-0.5c-1.5-0.1-2.8-0.2-4.1-0.3c-5.2-0.3-9.9-0.6-18.8,0.7c4.4-1,15.5-1.5,24.5-1.5c-5.4-1-11.6,0.1-16.7,0.4
		c4.5-0.6,5.3-1-0.2-1c-0.7,0.2-1.4,0.5-2.2,0.7c-3.2,0.2-8.8,1.1-9.3,0.9c-0.1,0.2,1.3,0.1,4.2-0.1c-3.9,0.8-9.4,1.9-15.6,3.2
		c-6.1,1.4-12.8,2.9-19.4,4.4c3.7-0.8,7.8-2.6,11.5-3.8c-14.5,2-28.4,1.1-42.7,5.8c-7.6,2.5-15,5.9-22.9,7.1
		c-9.8,1.6-20.4-0.1-29,5.3c-3.7,2.3-7.1,7.5-4.9,11.6c1.2,2.4,3.9,3.4,5.8,5.2c4.6,4.4,4.5,12.5,8.2,17.8c2.4,3.4,6.1,5.2,9.6,7
		c9.9,5.3,19.1,12.1,27.4,20.1 M300.1,644.1l-5.6,1.4C296.6,644.8,298.7,644.3,300.1,644.1z M199.8,730.5c-1.4,0.3-3.4,0.7-5.1,1
		c-1.6,0.1-1.9,0-1.9-0.1C195.1,731.2,197.5,730.9,199.8,730.5z M103.6,702.6c-0.1-0.2-0.2-0.5-0.3-1
		C103.4,702,103.5,702.3,103.6,702.6z M274.4,724.3c-2.3,0.3-1.9,1.4-10.9,1.5c-0.1-0.1,0.6-0.2,1.5-0.3c-4.1,0.3-4.8,0.2-9.2,0.3
		c-1.5-0.7,5.4-1,8.3-1.7c-2.9,0.3-6.1,0.9-9.2,1l0.7-0.3c-3.2,0.3-6.3,0.7-9.5,1.1c-3.8,1,7.2-0.7,7.8-0.2l-6,1
		c-6.9,0.8-25.4,3.5-31.9,3.4c-8.2,0.8-4.4,1.2-6.3,1.9c-4.7,1.3-9.4,1.1-14.2,2.1c0.3,0.6-5.4,1.3-5.5,2l-8,0.8
		c-4.3,1.6,9.6-0.9,11.7-0.7c4.4,0.4-5.8,1.1-2.9,1.3c6.1-0.9,6.4-1.5,9.3-2c3.5-0.5,5.3-0.6,5.3-0.2c-9.8,0.9-5.1,1.5-13.1,2.4
		l-0.3-0.2c0,0.8-11.5,1.7-15.8,2.5c-8.9,0,7-1.8,6.6-2.1c-3.5,0.5-7.1,0.9-10.7,1.3c4.6-0.9-0.2-1,6-2c-6.5,0.9-7.3,0.2-13.6,1.2
		c7-1.6-8.9-0.3-9.7-1.1c6.8-0.4,18.9-0.5,19.6-0.3c1-0.3,8.8-0.9,12-1.1l4.8-1.7c-5.7,0.7-13.4,2-11.4,0.9
		c-2.6,0.4-5.1,0.8-7.7,1.2c7.8-2.1,7.4-2,14.5-3.5c-15,0.7-26.4,3.9-38.9,3l1.9-0.1c-6.1,0.2-11.2-0.2-15.2-1.1
		c-4-0.9-6.8-2.3-8.7-3.6c-0.1,0-0.1-0.1-0.2-0.2c0.4,0.2,0.7,0.4,1.1,0.6c6.9,3.3,15.4,3.7,23.6,3.6c13-0.2,26-1.5,38.9-3.1
		l-1.5,0.7c0.3-0.1,0.5-0.1,0.9-0.2c14.8-2.3,1.5,1,16.6-1.6c-0.6,0.2-0.8,0.3-1.1,0.4c6.1-1.2,17.6-2.5,18.8-3.5
		c-1.4,0.2-7.2,0.8-10,0.9c6.5-0.9,12.9-1.9,19.4-2.7c1.4,0,2.7-0.1,4.2-0.2l0,0l0,0c1.5-0.1,3.1-0.4,5.2-0.8
		c0.5-0.1,0.9-0.2,1.1-0.3c7.7-0.9,15.5-1.5,23.3-1.9C265.6,723.5,283.4,723.1,274.4,724.3z M298.7,724c-9.2-0.5-2.8-0.4-9.3-1
		c-0.4-0.2-0.1-0.3,0.4-0.4c6.9,0.2,13.8,0.6,20.6,1.2C304.5,723.5,298.3,723.2,298.7,724z M326.6,726.1c-3.1-0.4-12.1-1-12.7-1.7
		c4.3,0.4,5.6,0.5,5.1,0.2c4.5,0.4,9,0.9,13.4,1.4c0.2,0.1,0.6,0.2,1.2,0.4C331.6,726.3,328.4,726.1,326.6,726.1z M442.1,737.2
		c-8,0.1,0.4-0.5-3.6-0.8c-6.1,1.1-7.8-0.9-14.2,0.3c-7.7,0.1-5.3-0.6-7.7-1c7.7,0.1-3.6-0.9,6.1-1c-3.9-0.2-5.3-0.1-6.6,0.1
		s-2.4,0.4-5.7,0.1l-0.9-1c-3-0.2-7.7-0.6-12.7-1s-10.2-0.8-14.3-0.9c6.7,1.2-4.1,0.2-3,0.9c1.3-0.7,10.6,0.7,10.4,1.1
		c-4.8-0.2-16.1-1.2-20.5-1.8l8.8,1.4c-3.7,0.2-16.8-0.5-17.1-0.4c-3.9-0.8-9.9-1.5-11.9-2.2l7.6,0.2l2.5,0.9l4.4-0.2
		c-4.8-0.8-14.8-2.5-16.9-3.4c7.6,0.9,18,2,30.4,2.6c7.2,0.7,14.3,1.4,21.5,1.8c17.1,1.1,34.3,1.1,51.4,0.5c-0.1,0-0.2,0-0.4,0.1
		c-2,0.4-4.4,0.7-7.1,0.9c1.6-0.1,3.5-0.2,6,0c-4.6,0.7-9.2,1.4-13.8,1.9c3.5,0.1,5.5-0.2,7.7-0.6c2.2-0.4,4.6-0.8,8.9-0.8
		C450.7,735.7,451.2,736.2,442.1,737.2z M680.2,707.5c6,0.1,12,0.1,18,0.1h-0.1l5.9,0.6c-2.2,0.2-4.5,0.4-6.7,0.5L680.2,707.5z
		 M270.2,658.9c1.9-0.1,2.5,0.1,3,0.3c-1.5,0.2-3,0.4-4.5,0.5L270.2,658.9z M215.4,651.8c0.3-0.5,2.9-0.5,5.7-0.4
		c2.8,0.1,5.9,0.5,7.5,0.4c1.2,0.1,4.5,0.8,7.1,1.5s4.5,1.4,3.2,1.4c-3.5-1.1-5.4-1.1-7.1-1.1s-3.3-0.2-6.7-1.4
		c-1.3,0.4,0.5,0.9,3.2,1.5c-0.9-0.1-1.5,0-1.7,0.1c-1.4-0.2-2.7-0.5-3.9-0.7c-1.3-0.2-2.6-0.3-3.8-0.5
		C216.7,652.1,214.8,652,215.4,651.8z M205.6,651.7l-2.3,0.2c-8.7,0.3-14.1,1.3-17.2,1.9c-3,0.6-3.7,0.9-2.8,1.1
		c-2,0.3-4,0.7-6.1,1.1c3.5-1.1,6.9-2.1,8.8-2.6C193.2,652,201.1,651.5,205.6,651.7z M160.9,658.3c-0.4,0.3,0.1,0.3,1,0.2
		c-2.2,0.6-4.5,1.2-6.7,1.8C156,659.7,154.4,659.7,160.9,658.3z M98.8,693.9c0-1.4,0.5-2.8,0.9-4c0.8-1.9,1.6-3.3,1.9-3.4
		c-0.3-0.7,1-3.5,3.5-6.4c2.7-3.2,6.8-6,9-7.7c5.7-3.4,8.1-3.8,10.1-4.4c2.1-0.5,3.8-1,9.3-3.2c-1.5,0.2-2.9,0.6-4.3,0.9
		c4.9-2,8.4-3.2,12.2-4.3s7.7-2.1,13.3-3.4c1.6,0.4-5.2,1.1-7.6,2.2l5.6-0.6c-2.4,0.6-6.9,2.5-7,1.8c0.1,0.4-3.5,2,3.4-0.2l-5.1,2
		c0.3,0,0.8,0,1.2-0.1c-1.5,0.5-3.1,1-4.7,1.5c-2.1,0.4-5.6,1.5-8.9,2c-0.4-0.1,2.9-1.3,4.7-2.1c-4.9,1.2-9,3-11.5,4.2
		c3.6-1.4,4.6-1.6,4.8-1.5s-0.2,0.6,0.8,0.6c-2.1,0.9-5,2.1-7.5,3.4c-2.5,1.2-4.8,2.4-5.9,3.2c-1.4,0.7-2.7,1.5-3.9,2.2
		c-1.2,0.6-2.1,1.2-2.8,1.6c-1.4,0.8-2,0.7-0.6-0.8c-2.8,2.7-6,5.8-6.9,9.5c0.7-1.6,1.2-2.5,1.5-2.8c0.4-0.4,0.7-0.3,1-0.4
		c0.3,0,0.6-0.1,1.2-0.7c0.3-0.3,0.6-0.7,1-1.2c0.5-0.5,1-1.2,1.8-2.2c0.6-0.2,0.8-0.2,0.7,0.1c-2.7,2.4-4.7,5.1-6,8
		c-0.4,0.8-0.9,1.6-1.2,2.2c0.7-2.2-0.5-0.5-0.7-1.1c-0.3,0.8-0.4,1.5-0.4,2.1s0,1,0,1.3c0,0.6,0.2,0.7,0.4,0.4
		c0.2-0.2,0.4-0.6,0.6-1.2c-0.1,0.5-0.3,1-0.3,1.5c-0.4,2.9,0,5.7,0.9,8.4c0.2,1.4,0.5,2.7,0.8,4c-1-1.9-1.9-4-2.4-6.1
		c-0.1,1.4,0.3,3.1,1.2,4.9c0.8,1.8,1.9,3.5,2.8,4.9c0.7,1.7-0.7,0-2.4-2.8c-1.8-2.8-3.3-6.8-4.1-9
		C98.8,696.6,98.7,695.3,98.8,693.9z"/>
</g>
<g id="Layer_2">
	<g>
		<g>
			<path class="st4" d="M342.5,347.2c-2.3-2.7-5.4-4.4-9.4-4.7c-4.4-0.3-6.8,1.3-10.2,3.6c-2.5,1.7-5.7,0.8-8.5,1.7
				c-1.9,0.6-3.6,1.7-5,3.2c-10.9,11.6,3.3,29.9,15.3,33.1c2.3,0.6,4.8,0.9,7-0.1c1.5-0.7,2.8-1.9,4.3-2.3c2-0.6,4.1,0.1,6.1-0.6
				c3-1,4.1-4.5,4.6-7.6c1.1-7,1.4-15.7-1.6-22.3C344.4,349.8,343.5,348.4,342.5,347.2z"/>
			<path class="st5" d="M323.1,348.7c0-0.1,0-0.3,0-0.5c0-1.5-1.2-4.4-1.8-5.8c-0.4-0.8-2.6-0.1-2.3,0.8c0.6,1.7,1.8,3.8,2.7,5.3
				C322.5,349.9,323,349.7,323.1,348.7z"/>
			<path class="st6" d="M328.4,345.4c-0.9,1.5-1.9,3.2-3.4,4.3c-2.1,1.6-5.2,1.3-7.7,1.1c-0.8-0.1-1,1.2-0.2,1.2
				c2.6,0.2,5.6,0.4,7.9-0.9c1.9-1.1,3.2-3.1,4.3-5C329.8,345.4,328.8,344.7,328.4,345.4z"/>
			<path class="st7" d="M341.9,348.5c-2.7-3.7-7.1-5.6-11.7-4.9c-0.8,0.1-0.6,1.3,0.2,1.2c4.1-0.6,8.1,1,10.5,4.4
				C341.3,349.9,342.3,349.1,341.9,348.5z"/>
			<path class="st7" d="M343.5,350.8c-0.3-0.7-1.5-0.2-1.1,0.5c1,2.1,1.6,4.4,1.7,6.8c0,0.8,1.2,0.6,1.2-0.2
				C345.2,355.4,344.6,353,343.5,350.8z"/>
			<path class="st7" d="M319.3,348.2c-3.5-0.3-6.8,0.7-9.4,3c-0.6,0.5,0.2,1.5,0.8,1c2.4-2.1,5.3-3.1,8.5-2.7
				C319.9,349.5,320.1,348.3,319.3,348.2z"/>
		</g>
		<path class="st8" d="M464.8,366.1c0,0.1,0,0.1-0.1,0.2c-0.1,0.3-0.2,0.7-0.3,1c0,0,0,0,0,0c-2.6,7.7-5.1,14.3-6.3,15.1
			c0,0,0,0,0,0c-0.2,0.1-0.5,0.2-0.9,0.3c-2.3,0.6-7.9,0.9-13.9,1.1c-0.2,0-0.4,0-0.6,0h0c-0.4,0-0.8,0-1.2,0
			c-2.9,0.1-5.8,0.1-8.4,0.2c-0.6,0-1.2,0-1.8,0c-2.4,0-4.5,0-6,0H425c0,0-0.4,0-1,0h0c-0.7,0-1,0-1,0c-3.9,0-12.6-0.1-20.1-0.4
			c-0.3,0-0.5,0-0.8,0c0,0,0,0,0,0c-0.2,0-0.3,0-0.5,0c-0.4,0-0.9,0-1.3-0.1c-5.3-0.3-9.5-0.7-10.5-1.3c-0.7-0.4-1.8-2.7-3-6
			c-0.1-0.3-0.2-0.6-0.3-0.9c-0.9-2.3-1.8-5-2.8-7.9c-0.2-0.6-0.4-1.1-0.6-1.7c-0.4-1.3-0.9-2.7-1.3-4c-0.1-0.3-0.2-0.6-0.3-0.9
			c-3-9.7-5.4-19.2-4.8-19.8c0.9-0.9,26.4-1.1,40.1-1c0,0,0,0,0,0c0.6,0,1.2,0,1.8,0c2.5,0,4.4,0,5.5,0.1c6.9-0.2,46.3-0.2,47.4,0.9
			C472,341.9,468.5,354.9,464.8,366.1z"/>
		<g>
			<path class="st9" d="M402.8,383.8c-0.3,0-0.5,0-0.8,0c0,0,0,0,0,0c-0.1,0.1-0.2,0.1-0.3,0.2c-0.1-0.1-0.1-0.1-0.2-0.2
				c-0.2-0.2-0.3-0.3-0.5-0.5c-2.6-2.8-5.5-5.8-7.6-7.3c-0.7-0.6-1.6-1.3-2.6-2.1c-0.2-0.2-0.5-0.4-0.7-0.6c-2-1.6-4.3-3.6-6.6-5.6
				c-0.2-0.6-0.4-1.1-0.6-1.7c2.7,2.4,5.6,4.9,8,6.8c0.3,0.2,0.5,0.4,0.7,0.6c0.9,0.7,1.7,1.3,2.3,1.8c2.1,1.7,5.2,4.7,7.8,7.6
				c0.2,0.2,0.4,0.5,0.6,0.7C402.6,383.6,402.7,383.7,402.8,383.8z"/>
		</g>
		<g>
			<path class="st9" d="M425.4,384.2H425c0,0-0.4,0-1,0h0c-2.3-2-5.7-4.7-9.1-7.5c-0.3-0.2-0.5-0.4-0.8-0.6c-3-2.4-6.1-4.9-8.6-6.8
				c-0.9-0.7-2-1.5-3-2.4c-0.2-0.2-0.5-0.4-0.7-0.6c-3.5-3-7.4-6.7-10.8-9.9c-0.2-0.2-0.5-0.4-0.7-0.7c-3.9-3.9-6.9-7-7.2-7.5
				c-0.1-0.2-0.1-0.5,0.1-0.6c0.2-0.1,0.5-0.1,0.6,0.1c0.2,0.4,3.3,3.5,7.3,7.4c0.2,0.2,0.4,0.4,0.7,0.7c3.3,3.2,7.3,6.9,10.8,9.9
				c0,0,0,0,0,0c0.2,0.2,0.5,0.4,0.7,0.6c1,0.8,1.9,1.5,2.7,2.2c2.6,2,5.8,4.5,8.9,7.1c0.3,0.2,0.5,0.4,0.8,0.6
				C419.5,379.3,423.1,382.3,425.4,384.2z"/>
		</g>
		<g>
			<path class="st9" d="M442.7,383.9c-0.4,0-0.8,0-1.2,0c-0.8-0.9-1.7-2-2.8-3.2c-0.2-0.2-0.4-0.5-0.6-0.7
				c-3.2-3.5-7.3-7.6-10.8-10.1c-0.3-0.2-0.5-0.4-0.8-0.5c0,0-0.1,0-0.1-0.1c-3.4-2.3-7.6-6.2-11.2-9.9c-0.2-0.2-0.4-0.5-0.7-0.7
				c-4.1-4.3-7.3-8-7.4-8.1c-0.2-0.2-0.1-0.5,0.1-0.6c0.2-0.2,0.5-0.1,0.6,0.1c0.1,0.1,3.3,3.9,7.5,8.2c0.2,0.2,0.4,0.5,0.7,0.7
				c3.6,3.6,7.7,7.5,11,9.7c0.1,0.1,0.2,0.1,0.3,0.2c0.3,0.2,0.6,0.4,0.8,0.6c3.6,2.6,7.6,6.7,10.8,10.2c0.2,0.2,0.4,0.5,0.6,0.7
				C440.8,381.6,441.9,382.9,442.7,383.9z"/>
		</g>
		<g>
			<path class="st9" d="M458.1,382.4c-0.2,0.1-0.5,0.2-0.9,0.3c-1.9-2.8-4.2-6-6.5-8.8c-0.2-0.2-0.4-0.5-0.6-0.7
				c-1.3-1.7-2.7-3.2-3.8-4.3c-1.6-1.6-3.6-3.7-5.7-6c-0.2-0.2-0.4-0.5-0.6-0.7c-3.7-4.1-7.6-8.5-9.7-10.9c-0.2-0.3-0.4-0.5-0.6-0.7
				c-0.6-0.7-1-1.1-1-1.2c-0.2-0.2-0.1-0.5,0.1-0.7c0.2-0.2,0.5-0.1,0.6,0.1c0,0,0.4,0.5,1.1,1.3c0.2,0.2,0.4,0.4,0.6,0.7
				c2.2,2.5,6,6.9,9.7,10.9c0.2,0.2,0.4,0.5,0.6,0.7c2,2.2,4,4.3,5.5,5.8c1.2,1.2,2.6,2.8,4,4.6c0.2,0.2,0.4,0.5,0.6,0.7
				C453.9,376.4,456.2,379.6,458.1,382.4z"/>
		</g>
		<g>
			<path class="st9" d="M464.7,366.2c-1-1.1-1.9-2.4-2.8-3.7c-2.1-3.1-4.8-6.1-7.1-8.6c-0.2-0.2-0.4-0.5-0.6-0.7
				c-2.7-2.7-4.7-4.6-4.8-4.6c-0.2-0.2-0.5-0.1-0.6,0c-0.2,0.2-0.2,0.5,0,0.6c0,0,2,1.8,4.6,4.5c0.2,0.2,0.4,0.4,0.7,0.7
				c2.3,2.4,5,5.4,7.1,8.5c0.9,1.2,1.8,2.4,2.7,3.5c0.2,0.3,0.4,0.5,0.6,0.7c0,0,0,0,0,0c0,0,0,0,0,0c0.1-0.3,0.2-0.7,0.3-1
				C464.8,366.3,464.7,366.2,464.7,366.2z"/>
		</g>
		<g>
			<path class="st9" d="M418.4,340.2c0,0.2-0.1,0.4-0.3,0.4c-0.1,0-7.9,2.7-11.1,5.4c-1.5,1.3-8.3,5.5-15.3,9.8
				c-0.3,0.2-0.5,0.3-0.8,0.5c-3.2,2-6.5,3.9-9.2,5.6c-0.1-0.3-0.2-0.6-0.3-0.9c2.7-1.6,5.8-3.5,8.8-5.4c0.3-0.2,0.5-0.3,0.8-0.5
				c7.1-4.3,13.9-8.6,15.4-9.8c2.6-2.1,7.8-4.2,10.2-5.1c0,0,0,0,0,0c0.7-0.3,1.1-0.4,1.2-0.4c0.2-0.1,0.5,0,0.6,0.3
				C418.4,340.1,418.4,340.1,418.4,340.2z"/>
		</g>
		<g>
			<path class="st9" d="M444.1,341.8c-0.1,0.1-6.1,4.6-13,9c-0.3,0.2-0.5,0.3-0.8,0.5c-3,1.9-6.2,3.7-9.1,5
				c-1.4,0.6-3.1,1.6-5.2,2.7c-0.3,0.2-0.6,0.3-0.8,0.5c-3.5,1.9-7.7,4.4-12,6.9c-0.3,0.2-0.6,0.3-0.8,0.5
				c-3.7,2.2-7.4,4.5-10.7,6.5c-0.3,0.2-0.6,0.3-0.8,0.5c-1.5,0.9-2.9,1.8-4.2,2.6c-0.1-0.3-0.2-0.6-0.3-0.9
				c1.2-0.7,2.4-1.5,3.8-2.3c0.3-0.2,0.6-0.3,0.8-0.5c3.3-2,7-4.3,10.8-6.5c0.3-0.2,0.6-0.3,0.8-0.5c0,0,0,0,0,0
				c4.3-2.6,8.5-5,12.1-7c0.3-0.2,0.6-0.3,0.8-0.5c2.2-1.2,4-2.2,5.4-2.8c2.8-1.3,5.9-3.1,8.9-4.9c0.3-0.2,0.5-0.3,0.8-0.5
				c6.9-4.3,13-8.9,13-9c0.2-0.2,0.5-0.1,0.6,0.1C444.4,341.3,444.3,341.6,444.1,341.8z"/>
		</g>
		<g>
			<path class="st9" d="M467.1,344.2c-0.4,0.3-6.1,5.2-12.3,9.8c-0.2,0.2-0.5,0.4-0.7,0.6c-3.8,2.8-7.6,5.4-10.5,6.8
				c-0.5,0.3-1.2,0.6-2,1c-0.3,0.1-0.5,0.3-0.8,0.4c-3,1.6-7.5,4-12.5,6.7c-0.3,0.2-0.6,0.3-0.9,0.5c-3.7,2-7.7,4.2-11.6,6.3
				c-0.3,0.2-0.6,0.3-0.9,0.5c-4.5,2.5-8.8,4.8-12.4,6.8c-0.2,0.1-0.3,0.2-0.5,0.3c0,0,0,0,0,0c-0.1,0.1-0.2,0.1-0.3,0.2
				c-0.1-0.1-0.1-0.1-0.2-0.2c-0.4,0-0.9,0-1.3-0.1c0.3-0.1,0.5-0.3,0.8-0.4c0.3-0.2,0.6-0.3,0.8-0.5c3.5-1.9,7.8-4.3,12.2-6.7
				c0.3-0.2,0.6-0.3,0.9-0.5c3.9-2.1,7.8-4.3,11.5-6.3c0.3-0.2,0.6-0.3,0.9-0.5c5-2.7,9.6-5.1,12.7-6.8c0.3-0.2,0.6-0.3,0.8-0.4
				c0.9-0.5,1.6-0.8,2.2-1.1c2.8-1.4,6.6-3.9,10.3-6.7c0.3-0.2,0.5-0.4,0.8-0.6c6.4-4.7,12.3-9.8,12.4-9.9c0.2-0.2,0.5-0.1,0.6,0.1
				C467.3,343.7,467.3,344,467.1,344.2z"/>
		</g>
		<g>
			<path class="st9" d="M464.8,366.1c0,0.1,0,0.1-0.1,0.2c-0.1,0.3-0.2,0.7-0.3,1c0,0,0,0,0,0c-0.4,0.1-0.7,0.3-1.1,0.4
				c-2.6,0.9-7,3.1-11.8,5.7c-0.3,0.1-0.5,0.3-0.8,0.4c-3.8,2.1-7.8,4.4-11.2,6.4c-0.3,0.2-0.5,0.3-0.8,0.5
				c-2.2,1.3-4.2,2.5-5.6,3.3c-0.6,0-1.2,0-1.8,0c1.5-0.9,3.9-2.3,6.8-4.1c0.3-0.2,0.5-0.3,0.8-0.5c3.4-2,7.4-4.3,11.3-6.4
				c0.3-0.2,0.5-0.3,0.8-0.4c4.8-2.6,9.3-4.9,12-5.9c0.2-0.1,0.5-0.2,0.7-0.3c0.3-0.1,0.6-0.2,0.9-0.4
				C464.7,366.2,464.8,366.2,464.8,366.1z"/>
		</g>
		<path class="st10" d="M472.4,340.3c0,0.5-1.1,9.8-2.1,11.5c-0.9,1.7-91.5,0.4-92.3,0c-0.8-0.4-3-9.8-3-10.9c0-0.1,0.1-0.3,0.4-0.6
			c1.6-2,8.2-7.4,10.3-7.8c2.4-0.5,76.4-0.4,77.9,0.3C465.1,333.5,472.4,339.8,472.4,340.3z"/>
		<g>
			<path class="st11" d="M463.2,338.5c0,0.3,0,0.6,0,0.9c-0.1,1.5-0.4,2.7-0.8,3.2c-1.4,1.9-8.9,9.9-20.7,8.3
				c-11.8-1.6-15-11.2-15.9-16.5c-0.9-5.3-0.5-8,2.1-13.2c2.6-5.2,8.4-8.5,10.2-9c2.2-0.6,4.8-0.4,7.5,0.6c0.3,0.1,0.6,0.2,0.9,0.4
				c1.6,0.7,3.3,1.6,4.9,2.8c0,0,0,0,0,0c0,0,0,0,0,0l0.1,0.1c0.4,0.3,0.7,0.5,1.1,0.8c2,1.6,3.9,3.7,5.6,6c0.1,0.2,0.2,0.4,0.4,0.5
				c0.1,0.2,0.2,0.3,0.3,0.5c0.6,0.9,1.1,1.7,1.5,2.6c0.1,0.2,0.2,0.3,0.2,0.5c0.1,0.2,0.2,0.3,0.2,0.5c0.1,0.3,0.3,0.6,0.4,1
				c0,0,0,0,0,0.1c0.1,0.2,0.1,0.3,0.2,0.5c0.1,0.2,0.1,0.3,0.2,0.4c0.2,0.4,0.3,0.9,0.5,1.3c0.1,0.2,0.1,0.3,0.2,0.5
				c0,0.1,0,0.1,0.1,0.2c0,0.1,0.1,0.3,0.1,0.4c0,0.1,0,0.1,0.1,0.2c0,0.1,0.1,0.3,0.1,0.4c0.1,0.2,0.1,0.4,0.2,0.7
				c0,0.2,0.1,0.3,0.1,0.5c0.1,0.3,0.1,0.6,0.1,0.8c0,0.2,0.1,0.5,0.1,0.7c0,0,0,0,0,0c0,0.2,0.1,0.5,0.1,0.7c0,0.2,0,0.4,0,0.5
				c0,0.1,0,0.2,0,0.2c0,0.2,0,0.4,0,0.6C463.2,337.8,463.2,338.2,463.2,338.5z"/>
			<path class="st12" d="M463.2,338.5c0,0.3,0,0.6,0,0.9c-0.2,0.5-0.4,1-0.7,1.5c-1.4,2.5-5.3,4.3-11.1,2.4
				c-5.9-1.9-10.4-6.9-13.5-13.5c-3.1-6.6-3.2-13.4,1.4-15.9c1.8-1,3.8-1.4,6.3-1c0.3,0.1,0.6,0.2,0.9,0.4c1.6,0.7,3.3,1.6,4.9,2.8
				c0,0,0,0,0,0c0,0,0,0,0,0l0.1,0.1l0.5,0.4l0,0l0.5,0.4c2,1.6,3.9,3.7,5.6,6c0.1,0.2,0.2,0.4,0.4,0.5c0.1,0.2,0.2,0.3,0.3,0.5
				c0.6,0.9,1.1,1.7,1.5,2.6c0.1,0.2,0.2,0.3,0.2,0.5c0.1,0.2,0.2,0.3,0.2,0.5c0.1,0.3,0.3,0.6,0.4,1c0,0,0,0,0,0.1
				c0.1,0.2,0.1,0.3,0.2,0.5c0.1,0.2,0.1,0.3,0.2,0.4c0.2,0.4,0.3,0.9,0.5,1.3c0.1,0.2,0.1,0.3,0.2,0.5c0,0.1,0,0.1,0.1,0.2
				c0,0.1,0.1,0.3,0.1,0.4c0,0.1,0,0.1,0.1,0.2c0,0.1,0.1,0.3,0.1,0.4c0.1,0.2,0.1,0.4,0.2,0.7c0,0.2,0.1,0.3,0.1,0.5
				c0.1,0.3,0.1,0.6,0.1,0.8c0,0.2,0.1,0.5,0.1,0.7c0,0,0,0,0,0c0,0.2,0.1,0.5,0.1,0.7c0,0.2,0,0.4,0,0.5c0,0.1,0,0.2,0,0.2
				c0,0.2,0,0.4,0,0.6C463.2,337.8,463.2,338.2,463.2,338.5z"/>
			<path class="st13" d="M463,335.4c0,0.1-0.1,0.4-0.1,0.4s-0.1,1.6-0.4,2.4c-0.2,0.5-0.4,0.9-0.6,1.3c-0.9,1.7-3.1,3-6.4,2.9
				c-0.3,0-0.6,0-0.9-0.1c-0.9-0.1-1.8-0.3-2.8-0.6c-2.2-0.7-4.1-1.8-5.9-3.4c-0.2-0.2-0.5-0.4-0.7-0.6c-2.3-2.2-4.2-5.1-5.7-8.3
				c-0.2-0.5-0.4-0.9-0.6-1.4c-0.1-0.3-0.2-0.6-0.3-0.9c-1.1-3.1-1.3-6-0.5-8.4c0.1-0.3,0.2-0.6,0.3-0.9c0.5-1.2,1.3-2.2,2.4-3
				c1-0.8,3.5-1.2,5.8-1.5c1.2,0.5,2.4,1.1,3.6,1.9c0.4,0.3,0.9,0.6,1.3,0.9c0,0,0,0,0,0c0,0,0,0,0,0l0,0l0.1,0.1l0.5,0.4l0,0
				l0.5,0.4c1.6,1.3,3.1,2.8,4.5,4.6c0.2,0.2,0.4,0.5,0.6,0.7c0.2,0.2,0.4,0.5,0.5,0.7c0.1,0.2,0.2,0.4,0.4,0.5
				c0.1,0.2,0.2,0.3,0.3,0.5c0.6,0.9,1.1,1.7,1.5,2.6c0.1,0.2,0.2,0.3,0.2,0.5c0.1,0.2,0.2,0.3,0.2,0.5c0.1,0.3,0.3,0.6,0.4,1
				c0,0,0,0,0,0.1c0.1,0.2,0.1,0.3,0.2,0.5c0.1,0.2,0.1,0.3,0.2,0.4c0.2,0.4,0.3,0.9,0.5,1.3c0.1,0.2,0.1,0.3,0.2,0.5
				c0,0.1,0,0.1,0.1,0.2c0,0.1,0.1,0.3,0.1,0.4c0,0.1,0,0.1,0.1,0.2c0,0.1,0.1,0.3,0.1,0.4c0.1,0.2,0.1,0.4,0.2,0.7
				c0,0.2,0.1,0.3,0.1,0.5c0,0.1,0,0.2,0.1,0.3c0,0.2,0.1,0.3,0.1,0.5C463,334.9,463,335.1,463,335.4z"/>
			<path class="st12" d="M463,335.4c0,0.1-0.1,0.3-0.1,0.4c-0.1,0-0.1-0.1-0.2-0.2c-1.3-1.9-2.7-3.8-4.2-5.5
				c-1.3-1.4-2.8-2.6-4.4-3.6c0,0,0,0,0,0c-0.1,0.2-0.2,0.4-0.4,0.5c0.7,5.1,2.2,10.1,1.8,15.4c0,0.1,0,0.2,0,0.3c0,0.6-1,0.6-0.9,0
				c0-0.1,0-0.3,0-0.4c0.3-5.2-1.1-10.2-1.8-15.2c-0.1,0-0.1-0.1-0.2-0.1c-1.6,4.1-4.1,7.8-6.7,11.3c-0.2,0.3-0.4,0.5-0.6,0.8
				c-0.3,0.5-1.1,0-0.8-0.5c0.2-0.3,0.5-0.7,0.7-1c2.6-3.6,5.1-7.3,6.7-11.5c-0.1-0.2-0.2-0.5-0.3-0.7c-4.3,0.7-8.5,1.5-12.7,2.5
				c-0.1,0-0.1,0-0.2,0.1c-0.6,0.1-0.8-0.8-0.2-0.9c0,0,0.1,0,0.1,0c4.3-1,8.5-1.8,12.8-2.5c0-0.1,0-0.2,0-0.3
				c-3.9-2.9-8.7-4.2-13.4-5.6c0.1-0.3,0.2-0.6,0.3-0.9c4.7,1.4,9.6,2.7,13.6,5.7c0.1,0,0.2,0,0.3-0.1c0,0,0,0,0.1,0
				c-0.4-2.7-1.2-5.6-2.3-8.3c0.4,0.3,0.9,0.6,1.3,0.9c0,0,0,0,0,0c0,0,0,0,0,0l0,0c0.9,2.4,1.5,5,1.8,7.5c0.8-0.7,1.8-1.1,2.7-1.6
				c0.3-0.2,0.7-0.3,1-0.5c0.2,0.2,0.4,0.5,0.6,0.7c-0.2,0.1-0.4,0.2-0.6,0.3c-1,0.5-2.5,1-3.3,1.9c0.2,0.3,0.3,0.6,0.4,0.9
				c1.8,1.2,3.5,2.4,5,4.1c1.4,1.5,2.5,3.1,3.7,4.7c0,0.2,0.1,0.3,0.1,0.5C463,334.9,463,335.1,463,335.4z"/>
			<path class="st14" d="M449.5,326.9c-0.2-0.2-0.5-0.2-0.6,0c-0.1,0.1-0.3,0.2-0.5,0.2c-0.6,0.2-0.3,1.1,0.2,0.9
				c0.3-0.1,0.6-0.3,0.9-0.5C449.6,327.4,449.6,327.1,449.5,326.9z"/>
			<path class="st14" d="M447.5,329.7c-0.2,0.2-0.4,0.3-0.6,0.4c-0.5,0.3-0.1,1.1,0.5,0.8c0.3-0.1,0.5-0.3,0.7-0.5
				C448.6,329.9,447.9,329.3,447.5,329.7z"/>
			<path class="st14" d="M443.6,329.7c-0.3,0.1-0.6,0.2-0.8,0.3c-0.2,0.1-0.3,0.4-0.2,0.6c0.1,0.2,0.4,0.3,0.6,0.2
				c0.2-0.1,0.4-0.2,0.6-0.2C444.5,330.5,444.2,329.6,443.6,329.7z"/>
			<path class="st14" d="M446.9,322.7c-0.2-0.1-0.4-0.1-0.5-0.1c-0.2,0-0.5,0.1-0.6,0.3c-0.1,0.2,0.1,0.5,0.3,0.6
				c0.2,0,0.4,0.1,0.5,0.1c0.2,0.1,0.5-0.1,0.6-0.3C447.3,323,447.1,322.8,446.9,322.7z"/>
			<path class="st14" d="M445.4,323.9c-0.3-0.1-0.5-0.1-0.8,0c-0.6,0.2-0.3,1,0.2,0.9c0.1,0,0.2,0,0.3,0
				C445.7,324.9,445.9,324,445.4,323.9z"/>
			<path class="st14" d="M440.6,322c-0.2,0-0.4,0-0.6,0c-0.2,0-0.5,0.2-0.5,0.5c0,0.3,0.2,0.4,0.5,0.5c0.2,0,0.4,0,0.6,0
				c0.2,0,0.5-0.2,0.5-0.5C441,322.2,440.8,322,440.6,322z"/>
			<path class="st14" d="M443.1,316.5c-0.2-0.1-0.3-0.2-0.5-0.3c-0.5-0.3-1,0.5-0.5,0.8c0.2,0.1,0.3,0.2,0.5,0.3
				C443.1,317.6,443.6,316.8,443.1,316.5z"/>
			<path class="st14" d="M445.4,315c-0.2-0.3-0.5-0.5-0.7-0.6c-0.5-0.3-1,0.5-0.5,0.8c0.2,0.1,0.4,0.3,0.6,0.5
				c0.2,0.2,0.5,0.2,0.6,0C445.6,315.5,445.6,315.2,445.4,315z"/>
			<path class="st14" d="M449.6,317.3c-0.1-0.2-0.2-0.5-0.4-0.7c-0.2-0.2-0.4-0.3-0.6-0.2c-0.2,0.1-0.3,0.4-0.2,0.6
				c0.1,0.1,0.2,0.3,0.3,0.5c0.1,0.2,0.3,0.4,0.6,0.3C449.5,317.8,449.7,317.5,449.6,317.3z"/>
			<path class="st14" d="M451.3,321.3c-0.1-0.2-0.2-0.3-0.3-0.5c-0.3-0.5-1.1,0-0.8,0.5c0.1,0.2,0.2,0.3,0.3,0.5
				C450.8,322.3,451.6,321.8,451.3,321.3z"/>
			<path class="st14" d="M453.6,320.6c-0.1,0.1-0.1,0.2-0.2,0.3c-0.4,0.4,0.3,1.1,0.6,0.6c0.1-0.1,0.2-0.3,0.3-0.5
				C454.6,320.5,453.9,320.1,453.6,320.6z"/>
			<path class="st14" d="M457.7,324.1c-0.1-0.2-0.3-0.4-0.6-0.3c-0.2,0.1-0.4,0.2-0.6,0.2c-0.2,0.1-0.4,0.3-0.3,0.6
				c0.1,0.2,0.3,0.4,0.6,0.3c0.2-0.1,0.4-0.2,0.6-0.2C457.6,324.6,457.7,324.4,457.7,324.1z"/>
			<path class="st14" d="M460.3,327.6c-0.2-0.2-0.4-0.3-0.7-0.4c-0.5-0.3-1,0.5-0.5,0.8c0.2,0.1,0.3,0.2,0.5,0.3
				c0.2,0.2,0.5,0.2,0.6,0C460.4,328.1,460.5,327.8,460.3,327.6z"/>
			<path class="st14" d="M456.7,329.7c-0.1-0.1-0.2-0.3-0.3-0.4c-0.3-0.5-1.1-0.1-0.8,0.5c0.1,0.2,0.3,0.4,0.5,0.6
				C456.5,330.7,457.1,330.1,456.7,329.7z"/>
			<path class="st14" d="M457.1,332.9c-0.1-0.2-0.1-0.4-0.2-0.6c-0.1-0.2-0.3-0.4-0.6-0.3c-0.2,0.1-0.4,0.3-0.3,0.6
				c0.1,0.2,0.1,0.4,0.2,0.6c0.1,0.2,0.3,0.4,0.6,0.3C457,333.4,457.1,333.2,457.1,332.9z"/>
			<path class="st14" d="M460.7,335c-0.1-0.2-0.3-0.4-0.4-0.7c-0.3-0.5-1.1,0-0.8,0.5c0.1,0.2,0.3,0.4,0.4,0.7
				C460.2,336,461,335.5,460.7,335z"/>
			<path class="st14" d="M458.6,339.8c0-0.2-0.1-0.4-0.1-0.6c0-0.6-0.9-0.6-0.9,0c0,0.3,0,0.5,0.1,0.8
				C457.8,340.6,458.7,340.4,458.6,339.8z"/>
			<path class="st14" d="M449.5,337.6c-0.1,0.1-0.2,0.2-0.2,0.4c-0.3,0.5,0.5,0.9,0.8,0.5c0.1-0.1,0.2-0.2,0.2-0.4
				C450.6,337.6,449.8,337.1,449.5,337.6z"/>
			<path class="st14" d="M451.6,338.8c-0.1,0.2-0.1,0.4-0.1,0.7c-0.1,0.6,0.8,0.8,0.9,0.2c0.1-0.2,0.1-0.4,0.1-0.7
				C452.6,338.5,451.7,338.3,451.6,338.8z"/>
			<path class="st14" d="M452.2,332.5c-0.2-0.1-0.5,0.1-0.6,0.3c0,0.2-0.1,0.4-0.2,0.6c-0.3,0.5,0.5,1,0.8,0.5
				c0.1-0.3,0.2-0.5,0.3-0.8C452.5,332.8,452.4,332.6,452.2,332.5z"/>
		</g>
		<g>
			<g>
				<path class="st11" d="M428.6,343.9c0,0,1.2-8.1-1-14.3c-2.2-6.2-4-9.5-9-13c-6.3-4.4-15-3.3-18.5-1.7c-3.8,1.7-6.5,4.4-8.9,7.8
					c-4.4,6.3-5.5,13.7-4.7,18.3s7.3,7.6,7.3,7.6L428.6,343.9z"/>
				<path class="st12" d="M429.6,343.8c0,0-0.9,0.1-2.1,0.3c-2.2,0.3-5.5,0.7-5.8,0.7c-0.4,0-19.3-0.9-25.3-1.3
					c-1.1-0.1-1.8-0.1-1.8-0.1c-0.8,0-1.7-6.6-1.8-7.2c-0.6-4.4,0.1-9.2,1.8-13.3c5.3-12.3,22.6-9.5,29.6-0.8
					C431.5,331.1,429.6,343.8,429.6,343.8z"/>
				<path class="st13" d="M428.1,339.4c0,0.4,0,0.7,0,1.1c-0.1,1.3-0.2,2.5-0.5,3.6c-2.2,0.3-5.5,0.7-5.8,0.7
					c-0.2,0-4.3-0.2-9.3-0.4c-0.3,0-0.6,0-0.9,0c-3.3-0.2-6.8-0.3-9.8-0.5c-0.4,0-0.8,0-1.2-0.1c-1.7-0.1-3.1-0.2-4.2-0.2
					c-1.4-3.6-2.2-7.4-1.9-10.6c0-0.1,0-0.1,0-0.2c0-0.2,0-0.5,0.1-0.7c0.5-4.5,1.5-7.9,3.1-10.3c0.2-0.3,0.3-0.5,0.5-0.8
					c2.5-3.4,6.2-4.7,10.6-4.7c0.1,0,0.2,0,0.4,0c0.3,0,0.6,0,0.9,0c2.8,0.2,5.4,1.1,7.7,2.6c0.3,0.2,0.5,0.3,0.8,0.5
					c2.9,2,5.2,4.7,6.8,7.8c0.1,0.3,0.3,0.6,0.4,0.8c0.8,1.7,1.4,3.6,1.7,5.4C427.9,335.5,428.1,337.6,428.1,339.4z"/>
				<path class="st12" d="M428.6,340.8c-0.2-0.1-0.3-0.2-0.5-0.3c-2-1.2-4.4-1.8-6.5-2.6c-1.9-0.8-3.8-1.6-5.6-2.5
					c-0.5-0.3-2.5-1.3-3.4-2.3c-0.1,0-0.1,0.1-0.2,0.1c-0.1,0.8,0.1,2,0.2,2.6c0,1.2,0.1,2.4,0.1,3.5c0,1.7,0,3.3,0,5
					c-0.3,0-0.6,0-0.9,0c0.1-2.1,0.1-4.2,0-6.3c0-1.3-0.5-3.3-0.3-4.8c-1.3,0.6-2.6,2.3-3.6,3.3c-1.1,1.1-2.1,2.3-3.1,3.6
					c-1,1.3-1.9,2.5-2.9,3.7c-0.4,0-0.8,0-1.2-0.1c1.7-1.9,3.2-4.1,4.8-6.1c1.2-1.4,2.4-2.6,3.7-3.9c0.5-0.5,0.9-0.9,1.4-1.2
					c0,0,0-0.1-0.1-0.1c-3-0.3-5.9,0-8.9,0.2c-2.4,0.1-4.7,0.2-7.1,0.3c0-0.1,0-0.1,0-0.2c0-0.2,0-0.5,0.1-0.7
					c2.3-0.1,4.7-0.1,7-0.3c2.9-0.2,5.8-0.5,8.7-0.2c0-0.1,0-0.2,0.1-0.4c-2.2-1.9-4.5-3.5-6.9-5.1c-2-1.4-3.7-3.1-5.8-4.3
					c-0.1-0.1-0.3-0.1-0.4-0.2c-0.5-0.3-0.1-1.1,0.5-0.8c0.2,0.1,0.3,0.2,0.4,0.2c2.3,1.4,4.2,3.3,6.4,4.8c2.1,1.4,4.2,2.9,6.1,4.6
					c0.1-0.1,0.2-0.1,0.3-0.2c-0.7-1.7-0.4-4-0.6-5.7c-0.4-2.7-1.4-5.4-1.3-8.2c0-0.1,0-0.1,0-0.2c0-0.6,1-0.6,0.9,0
					c0,0.1,0,0.2,0,0.3c-0.1,2.6,0.8,5,1.2,7.5c0.3,1.7,0,4.4,0.7,6.1c2.1-3.6,4.1-7.3,5.9-11c0.1-0.3,0.3-0.6,0.4-0.9
					c0.3-0.5,1-0.1,0.8,0.5c-0.1,0.3-0.3,0.6-0.4,0.9c-1.8,3.7-3.8,7.4-5.9,11c0.1,0.1,0.1,0.2,0.1,0.3c0,0.5,5.9-1.2,6.5-1.4
					c2.1-0.6,4.1-1.3,6.1-2.1c0.2-0.1,0.3-0.1,0.5-0.2c0.6-0.2,0.8,0.7,0.2,0.9c-0.1,0-0.2,0.1-0.3,0.1c-3.5,1.3-7,2.4-10.5,3.3
					c-0.4,0.1-1.1,0.3-1.7,0.4c0,0.1-0.1,0.1-0.2,0.1c-1.1,0.5,1.5,2,1.8,2.2c0.7,0.4,1.4,0.8,2.1,1.1c1.4,0.7,2.9,1.3,4.3,1.9
					c2.1,0.8,4.4,1.4,6.3,2.5c0.3,0.2,0.6,0.4,0.9,0.6C429.5,340.3,429,341.1,428.6,340.8z"/>
			</g>
			<path class="st14" d="M420.7,323c-0.1-0.2-0.4-0.3-0.6-0.2c-0.3,0.2-0.6,0.4-0.9,0.6c-0.2,0.1-0.3,0.4-0.2,0.6
				c0.1,0.2,0.4,0.3,0.6,0.2c0.3-0.2,0.6-0.4,0.9-0.6C420.7,323.5,420.8,323.2,420.7,323z"/>
			<path class="st14" d="M420.5,325.5c-0.2-0.2-0.5-0.2-0.6,0c-0.3,0.3-0.6,0.5-1,0.6c-0.2,0.1-0.3,0.4-0.2,0.6
				c0.1,0.2,0.4,0.3,0.6,0.2c0.4-0.2,0.8-0.5,1.2-0.8C420.7,326,420.7,325.7,420.5,325.5z"/>
			<path class="st14" d="M416.7,327.3c-0.1-0.2-0.4-0.3-0.6-0.2c-0.3,0.1-0.5,0.3-0.7,0.5c-0.2,0.2-0.2,0.5,0,0.6
				c0.2,0.2,0.5,0.2,0.6,0c0.1-0.2,0.3-0.3,0.5-0.4C416.8,327.8,416.8,327.5,416.7,327.3z"/>
			<path class="st14" d="M412.6,319.1v0.9c0,0.6,0.9,0.6,0.9,0v-0.9C413.5,318.5,412.6,318.5,412.6,319.1z"/>
			<path class="st14" d="M413.7,321.9c-0.3,0-0.4,0.2-0.5,0.5c0,0.2-0.1,0.4-0.1,0.6c0,0.2,0.2,0.5,0.5,0.5c0.3,0,0.4-0.2,0.5-0.5
				c0-0.2,0.1-0.4,0.1-0.6C414.2,322.1,413.9,321.9,413.7,321.9z"/>
			<path class="st14" d="M407.7,318.9c-0.1-0.3-0.2-0.6-0.3-0.8c-0.3-0.5-1.1-0.1-0.8,0.5c0.1,0.2,0.2,0.4,0.2,0.6
				C406.9,319.7,407.8,319.5,407.7,318.9z"/>
			<path class="st14" d="M404.9,319c-0.1-0.3-0.3-0.5-0.5-0.8c-0.2-0.2-0.5-0.2-0.6,0c-0.2,0.2-0.2,0.5,0,0.6
				c0.1,0.2,0.3,0.4,0.4,0.6C404.4,320,405.2,319.5,404.9,319z"/>
			<path class="st14" d="M407.9,323.2c-0.1-0.2-0.3-0.5-0.4-0.7c-0.3-0.5-1.1,0-0.8,0.5c0.1,0.2,0.3,0.5,0.4,0.7
				C407.4,324.2,408.2,323.7,407.9,323.2z"/>
			<path class="st14" d="M410,326.8c-0.1-0.2-0.2-0.3-0.3-0.5c-0.1-0.2-0.4-0.3-0.6-0.2c-0.2,0.1-0.3,0.4-0.2,0.6
				c0.1,0.2,0.2,0.3,0.3,0.5c0.1,0.2,0.4,0.3,0.6,0.2C410,327.3,410.1,327,410,326.8z"/>
			<path class="st14" d="M398.8,325c-0.2-0.1-0.3-0.2-0.5-0.3c-0.4-0.4-1.1,0.2-0.6,0.6c0.2,0.2,0.4,0.4,0.7,0.5
				c0.2,0.1,0.5,0.1,0.6-0.2C399.1,325.4,399,325.1,398.8,325z"/>
			<path class="st14" d="M398.8,328c-0.3-0.2-0.7-0.3-1-0.3c-0.6,0-0.6,0.9,0,0.9c0.2,0,0.4,0,0.6,0.1
				C398.8,329.1,399.3,328.3,398.8,328z"/>
			<path class="st14" d="M402.6,327.7c-0.3-0.1-0.6-0.2-0.9-0.3c-0.6-0.2-0.8,0.7-0.2,0.9c0.3,0.1,0.6,0.2,0.9,0.3
				C403,328.8,403.2,327.9,402.6,327.7z"/>
			<path class="st14" d="M406.7,329.6c-0.2,0-0.3-0.1-0.5-0.2c-0.2-0.1-0.5-0.1-0.6,0.2c-0.1,0.2-0.1,0.5,0.2,0.6
				c0.2,0.1,0.4,0.2,0.7,0.2C407,330.6,407.3,329.7,406.7,329.6z"/>
			<path class="st14" d="M398.2,334.7c-0.4,0.1-0.7,0.1-1.1,0.2c-0.6,0.2-0.3,1.1,0.2,0.9c0.3-0.1,0.6-0.2,0.8-0.2
				c0.2,0,0.5-0.2,0.5-0.5C398.7,335,398.5,334.7,398.2,334.7z"/>
			<path class="st14" d="M398.8,337.4c-0.1-0.3-0.3-0.4-0.6-0.3c-0.4,0.1-0.7,0.2-1,0.4c-0.2,0.1-0.3,0.4-0.2,0.6
				c0.1,0.2,0.4,0.3,0.6,0.2c0.2-0.2,0.5-0.3,0.8-0.3C398.7,338,398.8,337.6,398.8,337.4z"/>
			<path class="st14" d="M402.9,335.2c-0.2,0.1-0.5,0.3-0.7,0.4c-0.5,0.3,0,1.1,0.5,0.8c0.2-0.1,0.5-0.3,0.7-0.4
				C403.9,335.7,403.4,334.9,402.9,335.2z"/>
			<path class="st14" d="M408.2,333.1c-0.2-0.2-0.5-0.2-0.6,0c-0.1,0.2-0.3,0.3-0.5,0.3c-0.6,0.2-0.3,1.1,0.2,0.9
				c0.3-0.1,0.7-0.3,0.9-0.6C408.3,333.5,408.4,333.2,408.2,333.1z"/>
			<path class="st14" d="M410.2,336.6c-0.2-0.1-0.5,0.1-0.6,0.3c-0.1,0.3-0.1,0.6-0.2,0.9c0,0.2,0.1,0.5,0.3,0.6
				c0.2,0.1,0.5-0.1,0.6-0.3c0.1-0.3,0.1-0.6,0.2-0.9C410.6,336.9,410.5,336.6,410.2,336.6z"/>
			<path class="st14" d="M415.1,336.8c-0.1-0.1-0.2-0.3-0.3-0.4c-0.2-0.2-0.4-0.3-0.6-0.2c-0.2,0.1-0.3,0.4-0.2,0.6
				c0.1,0.1,0.2,0.3,0.3,0.4c0.2,0.2,0.4,0.3,0.6,0.2C415.1,337.3,415.2,337,415.1,336.8z"/>
			<path class="st14" d="M418.5,338.6c-0.2-0.1-0.4-0.3-0.5-0.5c-0.2-0.2-0.5-0.2-0.6,0c-0.2,0.2-0.2,0.5,0,0.6
				c0.2,0.2,0.4,0.4,0.7,0.6c0.2,0.1,0.5,0,0.6-0.2C418.8,339,418.7,338.7,418.5,338.6z"/>
			<path class="st14" d="M418.2,331.7c-0.4-0.1-0.7,0-1.1,0.2c-0.2,0.1-0.3,0.4-0.2,0.6c0.1,0.2,0.4,0.3,0.6,0.2
				c0.1-0.1,0.3-0.1,0.4-0.1c0.2,0,0.5-0.1,0.6-0.3C418.6,332,418.5,331.7,418.2,331.7z"/>
			<path class="st14" d="M419.7,333.5l-1,0.1c-0.2,0-0.5,0.2-0.5,0.5c0,0.2,0.2,0.5,0.5,0.5l1-0.1c0.2,0,0.5-0.2,0.5-0.5
				C420.1,333.7,419.9,333.5,419.7,333.5z"/>
			<path class="st14" d="M424.6,331.2h-0.8c-0.6,0-0.6,0.9,0,0.9h0.8C425.2,332.1,425.2,331.2,424.6,331.2z"/>
			<path class="st14" d="M425.2,334c-0.3,0-0.6,0.1-1,0.1c-0.2,0-0.5,0.2-0.5,0.5c0,0.2,0.2,0.5,0.5,0.5c0.3,0,0.6-0.1,1-0.1
				c0.2,0,0.5-0.2,0.5-0.5C425.7,334.2,425.5,334,425.2,334z"/>
		</g>
		<path class="st10" d="M472.4,340.3c0,0.5-1.1,9.8-2.1,11.5c-0.2,0.4-4.4,0.6-11,0.7c-1.4,0-2.8,0.1-4.4,0.1h0
			c-2.6,0-5.5,0.1-8.5,0.1c-1.4,0-2.8,0-4.3,0c-2.7,0-5.6,0-8.5,0c-1.4,0-2.9,0-4.3,0c-2.5,0-5,0-7.4-0.1c-1.4,0-2.9,0-4.3,0
			c-2.9,0-5.7-0.1-8.4-0.1c-1.5,0-2.9,0-4.3-0.1c-2.8,0-5.4-0.1-7.9-0.1h0c-1.5,0-2.9-0.1-4.3-0.1c-3.2-0.1-6.1-0.1-8.4-0.2
			c-1.8,0-3.2-0.1-4.2-0.1c-1.2,0-1.9-0.1-2-0.1c-0.8-0.4-3-9.8-3-10.9c0-0.1,0.1-0.3,0.4-0.6H472.4L472.4,340.3z"/>
		<g>
			<path class="st15" d="M381,340.8c-4,0-4-0.4-4-0.7c0-0.3-0.1-0.8,8.2-6.5c0.2-0.1,0.5-0.1,0.6,0.1c0.1,0.2,0.1,0.5-0.1,0.6
				c-3,2.1-6.3,4.5-7.4,5.5c1.2,0.1,3.9,0.1,6.4,0c0.2,0,0.5,0.2,0.5,0.4c0,0.3-0.2,0.5-0.4,0.5C383.2,340.8,382,340.8,381,340.8z
				 M377.9,340.2L377.9,340.2L377.9,340.2z"/>
		</g>
		<g>
			<path class="st16" d="M463.9,340.8c-0.3,0-0.5-0.2-0.5-0.5c0-0.3,0.2-0.5,0.5-0.5c2,0,4.4-0.1,5.4-0.3c-0.8-0.8-3.2-2.6-5.4-4.2
				c-0.2-0.1-0.3-0.4-0.1-0.6s0.4-0.3,0.6-0.1c6.2,4.5,6.1,5,6,5.3C470.3,340.3,470.2,340.8,463.9,340.8z"/>
		</g>
		<path class="st16" d="M429.6,340.3l-7.7,12.3c-1.4,0-2.9,0-4.3,0l7.7-12.2H429.6z"/>
		<path class="st16" d="M416.7,340.3l-7.6,12.2c-1.5,0-2.9,0-4.3-0.1l7.6-12.1H416.7z"/>
		<path class="st16" d="M404.4,340.3l-7.5,12h0c-1.5,0-2.9-0.1-4.3-0.1l7.5-11.9H404.4z"/>
		<path class="st16" d="M467,340.3l-7.7,12.2c-1.4,0-2.8,0.1-4.4,0.1l7.7-12.3L467,340.3L467,340.3z"/>
		<path class="st16" d="M454.2,340.3l-7.8,12.4c-1.4,0-2.8,0-4.3,0l7.8-12.4H454.2z"/>
		<path class="st16" d="M441.4,340.3l-7.8,12.4c-1.4,0-2.9,0-4.3,0l7.7-12.3L441.4,340.3L441.4,340.3z"/>
		<path class="st16" d="M391.6,340.3l-7.4,11.8c-1.8,0-3.2-0.1-4.2-0.1l7.3-11.6L391.6,340.3L391.6,340.3z"/>
		<g>
			<path class="st17" d="M524.2,353.9c-2.3-3.6-5.6-6-10.3-7c-5.1-1.1-8.2,0.4-12.6,2.6c-3.2,1.6-6.8,0.1-10.3,0.7
				c-2.3,0.4-4.5,1.4-6.4,2.9c-6.4,5.2-7.8,16.6-2.8,23.2c4.4,5.9,11.6,9.2,18.8,10c8.8,0.9,19.2-2.4,24.3-9.9
				c3.4-4.9,3.2-11.7,1.6-17.2C526,357.2,525.2,355.5,524.2,353.9z"/>
			<path class="st18" d="M501.2,352.6c0-0.2,0.1-0.4,0.1-0.6c0.2-1.8-0.8-5.4-1.2-7.1c-0.3-1-3.1-0.6-2.8,0.6c0.4,2,1.5,4.8,2.3,6.7
				C500.3,353.8,501,353.7,501.2,352.6z"/>
			<path class="st19" d="M508,349.5c-1.3,1.6-2.8,3.5-4.7,4.5c-2.8,1.5-6.3,0.7-9.2,0.1c-0.9-0.2-1.3,1.2-0.4,1.4
				c3,0.6,6.5,1.4,9.5,0.2c2.5-1,4.2-3.1,5.9-5.1C509.6,349.8,508.6,348.8,508,349.5z"/>
			<path class="st20" d="M523.2,355.3c-2.5-4.8-7.5-7.7-12.9-7.6c-0.9,0-0.9,1.5,0,1.5c4.9-0.1,9.3,2.5,11.6,6.9
				C522.4,356.9,523.7,356.2,523.2,355.3z"/>
			<path class="st20" d="M524.8,358.3c-0.3-0.9-1.7-0.5-1.4,0.4c0.9,2.7,1.1,5.4,0.9,8.2c-0.1,0.9,1.4,0.9,1.5,0
				C526,363.9,525.7,361.1,524.8,358.3z"/>
			<path class="st20" d="M496.8,351.4c-4-1-8.1-0.3-11.6,2c-0.8,0.5-0.1,1.8,0.7,1.3c3.1-2.1,6.8-2.7,10.4-1.8
				C497.4,353,497.7,351.6,496.8,351.4z"/>
		</g>
		<g>
			<path class="st21" d="M386.2,319.2c-0.7-7.9-4-17-5.5-23.5s-1.4-12.2-1.4-12.2h-11.7h-11.7c0,0,0.1,5.7-1.4,12.2
				c-1.5,6.5-4.7,15.5-5.5,23.5s-1.2,62.3,0,63.7c1.2,1.3,3.8,1.7,5.4,2c2.6,0.6,5.1,1,7.7,1.3c4.5,0.4,9,0.3,13.4-0.3
				c2.8-0.4,8.4-0.7,10.5-3C387.5,381.5,387,327.1,386.2,319.2z"/>
			<g>
				<path class="st22" d="M382.3,320.8c0.3-6-3-11.4-9-11.7c-6-0.3-10.2,4.4-10.4,10.4c-0.3,6,3.5,11.1,9.5,11.3
					C378.3,331.1,382,326.8,382.3,320.8z"/>
				<path class="st11" d="M380.9,320.7c0,0.5-0.1,0.9-0.1,1.3c-0.1,0.3-0.1,0.7-0.2,1c-0.6,2.4-2,4.4-4,5.4
					c-0.3,0.2-0.6,0.3-0.9,0.4c-1,0.3-2.1,0.5-3.3,0.5c-1.5-0.1-2.9-0.5-4.1-1.2c-0.3-0.2-0.6-0.4-0.8-0.6c-2.2-1.8-3.4-4.7-3.2-7.9
					c0-0.3,0-0.5,0.1-0.8c0-0.3,0.1-0.7,0.2-1c0.7-3.3,2.8-6,5.9-6.9c0.3-0.1,0.7-0.2,1-0.2c0.6-0.1,1.2-0.1,1.8-0.1
					c2,0.1,3.6,0.8,4.9,2c0.2,0.2,0.5,0.5,0.7,0.7C380.3,315.3,381,317.9,380.9,320.7z"/>
				<path class="st23" d="M373.2,320.2c2.5,0.7,5,1.3,7.6,1.8c-0.1,0.3-0.1,0.7-0.2,1c-2.6-0.5-5.2-1.1-7.8-1.9c0,0,0,0-0.1,0
					c1.2,2.4,2.3,5,3.8,7.2c-0.3,0.2-0.6,0.3-0.9,0.4c-1.5-2.2-2.6-4.9-3.8-7.3c-0.1,0-0.2,0-0.3,0c-0.5,1.1-1,2.2-1.5,3.3
					c-0.5,1.1-0.9,2.3-1.6,3.2c-0.3-0.2-0.6-0.4-0.8-0.6c0.8-1,1.2-2.4,1.8-3.6c0.5-0.9,0.9-1.9,1.3-2.9c0,0,0,0,0,0
					c-0.2-0.2-0.3-0.3-0.4-0.6c-1.6-0.3-3.3-0.8-4.9-1.3c-0.3-0.1-0.7-0.2-1-0.3c0-0.3,0.1-0.7,0.2-1c0.6,0.2,1.1,0.3,1.6,0.5
					c1.4,0.4,2.7,0.8,4.1,1.1c0.1-0.3,0.3-0.6,0.6-0.8c0,0,0-0.1,0-0.1c-0.2-2.5-0.3-5-0.4-7.5c0.3-0.1,0.7-0.2,1-0.2
					c0.1,2.6,0.2,5.2,0.5,7.7c0,0,0,0,0,0c0.2,0,0.4,0.1,0.6,0.2c1.9-2,3.8-4,5.7-6c0.2,0.2,0.5,0.5,0.7,0.7c-1.9,2-3.8,4-5.7,6.1
					c0,0,0,0.1,0,0.1C373.1,319.8,373.2,320,373.2,320.2z"/>
			</g>
			<g>
				<path class="st22" d="M368.8,337.5c-0.6,0.3-15.8,0.2-16.9-10.2c-1.1-10.4,6.9-15.2,6.9-15.2s0.2,0.6,0.7,1.6
					c1.9,4.4,7.2,17.1,8.9,21.9C368.7,336.8,368.9,337.5,368.8,337.5z"/>
				<path class="st11" d="M368.3,335.6c-1.4,0-3.2,0-5.2-0.4c-0.3-0.1-0.7-0.1-1-0.2c-3.2-0.8-6.3-2.5-7.6-6.1
					c-0.1-0.3-0.2-0.6-0.3-1c-0.1-0.4-0.2-0.8-0.2-1.3c-0.4-3.5,0.4-6.3,1.5-8.5c0.2-0.3,0.3-0.6,0.5-0.9c1-1.6,2.2-2.8,3.3-3.7
					c0.7,1.7,2,4.6,3.3,7.9c0.6,1.5,1.2,3,1.8,4.5C366.1,329.8,367.6,333.5,368.3,335.6z"/>
				<path class="st23" d="M364.6,326.1C364.6,326.1,364.6,326.1,364.6,326.1c-0.5,0.1-0.8,0-1.1-0.1c-0.3,3.1-0.4,6.2-0.3,9.3
					c-0.3-0.1-0.7-0.1-1-0.2c0-3.3,0.1-6.6,0.4-10c0,0,0,0,0-0.1c-2.7,1.2-5.3,2.5-7.9,4c-0.1-0.3-0.2-0.6-0.3-1
					c2.5-1.4,5.1-2.7,7.7-3.8c0,0,0,0,0-0.1c-0.1-0.2-0.1-0.4,0-0.7c-2.2-1.7-4.3-3.4-6.3-5.2c0.2-0.3,0.3-0.6,0.5-0.9
					c2,1.8,4,3.4,6.1,5.1c0-0.1,0.1-0.1,0.1-0.2c0.1-0.2,0.2-0.5,0.4-0.6C363.4,323,364,324.6,364.6,326.1z"/>
			</g>
			<g>
				<path class="st22" d="M384.1,331.7c0.3,0.6,1.3,15.7-8.9,17.6c-10.3,1.9-15.7-5.7-15.7-5.7s0.6-0.3,1.5-0.8
					c4.3-2.2,16.5-8.4,21.2-10.5C383.3,331.9,384,331.6,384.1,331.7z"/>
				<path class="st11" d="M382.2,332.4c0.1,1.3,0.2,3.2,0,5.2c0,0.3-0.1,0.7-0.1,1c-0.6,3.2-2,6.5-5.5,8c-0.3,0.1-0.6,0.3-1,0.4
					c-0.4,0.1-0.8,0.2-1.2,0.3c-3.5,0.6-6.3,0.1-8.6-0.9c-0.3-0.1-0.6-0.3-0.9-0.4c-1.7-0.9-3-2-3.9-3c1.7-0.8,4.5-2.3,7.6-3.9
					c1.4-0.7,2.9-1.5,4.4-2.2C376.6,335,380.1,333.3,382.2,332.4z"/>
				<path class="st23" d="M373,336.8C373,336.8,373,336.8,373,336.8c0.1,0.5,0.1,0.8-0.1,1.1c3.1,0,6.2-0.1,9.3-0.4
					c0,0.3-0.1,0.7-0.1,1c-3.3,0.3-6.6,0.4-10,0.3c0,0,0,0,0,0c1.4,2.6,2.9,5.1,4.5,7.6c-0.3,0.1-0.6,0.3-1,0.4
					c-1.6-2.4-3-4.9-4.4-7.4c0,0,0,0-0.1,0c-0.2,0.1-0.4,0.1-0.7,0.1c-1.5,2.3-3.1,4.5-4.7,6.7c-0.3-0.1-0.6-0.3-0.9-0.4
					c1.6-2.1,3.1-4.3,4.6-6.5c-0.1,0-0.1-0.1-0.2-0.1c-0.2-0.1-0.5-0.2-0.7-0.3C370,338.2,371.5,337.5,373,336.8z"/>
			</g>
			<g>
				<path class="st24" d="M367.5,386.8c-1.7,0-3.4-0.1-5.2-0.2c-2.7-0.2-5.2-0.6-7.8-1.3c-0.3-0.1-0.6-0.1-0.9-0.2
					c-1.6-0.4-3.7-0.8-4.7-2c-1.6-1.7-0.7-57.7-0.1-64c0.5-5.5,2.2-11.5,3.7-16.7c0.7-2.4,1.3-4.7,1.8-6.8c1.5-6.3,1.4-12,1.4-12
					l0-0.5h23.8c0.3,0,0.5,0.2,0.5,0.5s-0.2,0.5-0.5,0.5h-22.8c0,1.6-0.1,6.4-1.4,11.8c-0.5,2.1-1.1,4.4-1.8,6.8
					c-1.5,5.2-3.1,11.2-3.6,16.6c-0.8,8.5-1.1,60.8-0.1,63.3c0.9,0.9,2.8,1.3,4.2,1.7c0.3,0.1,0.6,0.1,0.9,0.2c2.5,0.6,5,1,7.6,1.2
					c4.4,0.4,8.9,0.3,13.3-0.3c0.4-0.1,0.9-0.1,1.4-0.2c2.8-0.3,7.2-0.8,8.8-2.6c1-2.5,0.7-54.8-0.1-63.3c0-0.3,0.2-0.5,0.4-0.5
					c0.3,0,0.5,0.2,0.5,0.4c0.6,6.3,1.5,62.3-0.1,64c-1.9,2.1-6.3,2.6-9.5,3c-0.5,0.1-0.9,0.1-1.3,0.2
					C373,386.6,370.2,386.8,367.5,386.8z"/>
			</g>
			<path class="st25" d="M380.5,303.3c0,0-4.1-1.6-12-1.6s-13.5,1.1-13.5,1.1c-1.3,5.7-3,14.4-3.6,21.4c-0.7,7-1.1,55.1,0,56.3
				c1,1.1,3.3,1.5,4.7,1.8c2.3,0.6,4.5,0.9,6.8,1.1c3.9,0.3,7.9,0.2,11.8-0.3c2.5-0.3,7.5-0.6,9.3-2.6c1.1-1.2,0.7-49.3,0-56.3
				C383.5,317.2,381.8,309,380.5,303.3z"/>
			<path class="st26" d="M379.3,285.3c0,0-3.1,1.2-11.6,1.2c-7.9,0-11.6-1.2-11.6-1.2c-0.7,0-1.2-0.5-1.2-1.2v-4
				c0-0.7,0.5-1.2,1.2-1.2c0,0,3.2-1,11.6-1c8.4,0,11.6,1,11.6,1c0.7,0,1.2,0.5,1.2,1.2v4C380.5,284.8,380,285.3,379.3,285.3z"/>
			<g>
				<path class="st24" d="M383.5,306.2c-0.2,0-0.4-0.1-0.5-0.4c0-0.1-2-7.2-2.8-10.4c-0.8-3.2-1.2-9.3-1.2-9.6
					c0-0.3,0.2-0.5,0.5-0.5c0.3,0,0.5,0.2,0.5,0.5c0,0.1,0.4,6.3,1.2,9.4c0.8,3.2,2.8,10.3,2.8,10.4c0.1,0.3-0.1,0.5-0.3,0.6
					C383.6,306.2,383.5,306.2,383.5,306.2z"/>
			</g>
			<g>
				<path class="st24" d="M386,317.5c-0.2,0-0.4-0.2-0.5-0.4c0,0-0.2-1.4-0.6-3.3c-0.3-1.8-1.5-6.4-1.5-6.5
					c-0.1-0.3,0.1-0.5,0.4-0.6c0.3-0.1,0.5,0.1,0.6,0.4c0.1,0.2,1.2,4.7,1.5,6.5c0.3,1.8,0.6,3.3,0.6,3.3
					C386.5,317.2,386.3,317.5,386,317.5C386,317.5,386,317.5,386,317.5z"/>
			</g>
			<g>
				<path class="st27" d="M367.6,282.5c-0.2,0-0.5,0-0.7,0c-6.8-0.1-10.8-1.7-10.9-1.7c-0.3-0.1-0.4-0.4-0.3-0.6
					c0.1-0.3,0.4-0.4,0.6-0.3c0,0,4,1.5,10.6,1.7c6.8,0.1,12.2-1.6,12.3-1.7c0.2-0.1,0.5,0,0.6,0.3s0,0.5-0.2,0.6
					C379.4,280.9,374,282.5,367.6,282.5z"/>
			</g>
			<g>
				<path class="st21" d="M368.3,306.6c-0.2,0-0.4,0-0.5,0c-8.5-0.1-11.7-2.3-11.8-2.4c-0.2-0.2-0.3-0.5-0.1-0.7
					c0.2-0.2,0.5-0.3,0.7-0.1c0,0,3.1,2.2,11.3,2.2c0.2,0,0.4,0,0.5,0c8.3,0,10.9-1.7,10.9-1.7c0.2-0.2,0.5-0.1,0.7,0.1
					c0.2,0.2,0.1,0.5-0.1,0.7C379.6,304.8,377,306.6,368.3,306.6z"/>
			</g>
			<g class="st28">
				<path class="st29" d="M352.2,380c-0.2,0-0.4-0.1-0.5-0.4c-0.1-0.3,0.1-0.5,0.3-0.6c0.1,0,7.3-2.2,16.3-2.1
					c9,0.1,14.3,2.1,14.5,2.1c0.3,0.1,0.4,0.4,0.3,0.6c-0.1,0.3-0.4,0.4-0.6,0.3c-0.1,0-5.4-2-14.1-2.1c-8.8-0.1-15.9,2.1-16,2.1
					C352.3,380,352.2,380,352.2,380z"/>
			</g>
			<path class="st21" d="M352.7,367.6c0,0.6,2.9,8,4,8.7c1.1,0.7,9.3-2.8,9.5-3.8s-3.7-9.4-4.3-9.4
				C361.3,363.2,352.7,367,352.7,367.6z"/>
			<path class="st21" d="M373.7,366.1c-1,0.3-4.9,5.1-4.5,5.8c0.4,0.7,2.9,5.5,3.2,5.9c0.4,0.4,3.8,1.4,4.6,1.3
				c0.8-0.2,4.6-4.7,4.6-5.2c0.1-0.5-1.4-5.2-1.7-5.9C379.7,367.3,374.8,365.8,373.7,366.1z"/>
			<path class="st21" d="M361,364.3c0,0,0.1-7.2,0.5-7.5s8.4-1.6,8.7-1.3c0.3,0.2,1.8,2.2,1.7,2.6s0.6,7.5,0.3,7.7
				c-0.4,0.2-7.5,1.6-8,1.2C363.7,366.7,361,364.3,361,364.3z"/>
			<path class="st12" d="M379,368.5c-1.1,1-2.2,2-3.3,3c-0.5,0.4,0.2,1.1,0.7,0.7c1.1-1,2.2-2,3.3-3
				C380.2,368.8,379.4,368.1,379,368.5z"/>
			<path class="st12" d="M373.9,371.5c-0.5-0.2-1.1-0.1-1.6-0.1c-0.6-0.1-1.1-0.3-1.7-0.2c-0.6,0.1-0.6,1,0,1c0.6,0,1.1,0.2,1.6,0.2
				c0.5,0.1,1,0,1.4,0.1C374.3,372.7,374.5,371.7,373.9,371.5z"/>
			<path class="st12" d="M377.3,376.7c-0.4-1.3-0.8-2.5-1.3-3.8c-0.2-0.6-1.2-0.3-1,0.3c0.5,1.2,0.9,2.5,1.3,3.8
				C376.6,377.6,377.5,377.4,377.3,376.7z"/>
			<path class="st12" d="M363.5,365.4c-0.5-0.6-0.9-1.2-1.3-1.9c-0.3-0.6-1.2-0.1-0.9,0.5c0.4,0.7,0.9,1.4,1.5,2.1
				C363.2,366.6,363.9,365.9,363.5,365.4z"/>
			<path class="st12" d="M371.6,365c-0.4-0.9-1.2-1.4-1.7-2.2c0,0,0,0,0-0.1c0.2-2,0.4-3.9,0.4-5.9c0-0.6-1-0.6-1,0
				c-0.1,1.9-0.2,3.8-0.4,5.6c-2,0.2-4.1,0.2-6,0.7c-0.6,0.2-0.4,1.1,0.3,1c1.9-0.5,4-0.5,5.9-0.7c0.5,0.7,1.3,1.3,1.7,2.1
				C371.1,366,371.9,365.5,371.6,365z"/>
		</g>
		<g>
			<path class="st30" d="M455.3,351.8c0,0,5.3-7.4,17.1-3.8c1.3,0,6.7-0.5,9.3,0.5c10,3.7,15.4,13.2,12.2,25.2
				c-3.2,12-18.4,14-18.4,14L455.3,351.8z"/>
			<path class="st12" d="M490.9,360.1c-2.9-7.8-11.5-12-19-9.8c-6.1-3.3-13.9-2.2-18.6,3.6c-5.8,7.2-6.2,21.1,1,27.5
				c1.4,1.3,3.1,2.2,4.9,2.7c1.1,0.3,2.1,0.2,3.2,0.3c2.6,0.3,3.7,1.2,5.8,2.1c4.2,1.9,9.2,1.2,13.1-1.1
				C489.5,380.4,494.4,369.3,490.9,360.1z"/>
			<path class="st31" d="M474.7,360.6c-1.9-1-4.1-0.6-5.4,1c-2.6-3-6.8-0.7-7.9,2.6c-1.3,3.8,0.7,9.2,5.5,8.3c1,2.2,3.9,2.2,6,1.3
				c2.6-1,4.5-3.4,4.9-6.2C478.1,365,477.1,361.9,474.7,360.6z M476.3,368.2c-0.4,1.5-1.4,2.9-2.7,3.8c-1.5,1-5.3,2.2-5.8-0.7
				c-0.1-0.7-0.9-0.5-1.2,0l0,0c-3.6,0.8-4.9-3.3-4.2-6.1c0.7-2.5,4.1-5.5,6.2-2.4c0.2,0.3,0.6,0.3,0.9,0.2c0.2,0,0.5,0,0.6-0.3
				c1.4-2,4-1.4,5.3,0.3C476.5,364.4,476.8,366.4,476.3,368.2z"/>
			<path class="st18" d="M464.8,364.6c-0.3,0.2-0.4,0.7-0.3,1.1c0.1,0.8,0.4,1.5,0.8,2.1c0.2,0.2,0.4,0.4,0.7,0.4
				c0.4,0,0.7-0.5,0.6-1c-0.1-0.7-0.2-1.9-0.7-2.4c-0.2-0.3-0.6-0.5-0.9-0.3C464.9,364.5,464.9,364.5,464.8,364.6z"/>
			<path class="st18" d="M473.6,365.6c-0.1-0.1-0.2-0.1-0.3-0.1c-1.2-0.3-2.4,1.1-2.9,2c-0.2,0.3-0.3,0.8-0.1,1.1
				c0.3,0.3,0.8,0.1,1.1-0.1c0.8-0.5,1.5-1,2.1-1.7c0.2-0.2,0.4-0.4,0.4-0.6C473.9,366,473.8,365.8,473.6,365.6z"/>
			<path class="st18" d="M474.1,342.2c-0.5-0.2-1.2-0.2-1.4,0.3c-0.1,0.3-0.1,0.6-0.2,0.9c-0.1,1.7-0.4,3.4-0.9,5.1
				c-0.1,0.3-0.2,0.6-0.1,0.9c0.1,0.3,0.3,0.6,0.7,0.6c1.4-0.2,2.5-5.7,2.5-6.8c0-0.3-0.1-0.5-0.2-0.8
				C474.4,342.3,474.2,342.2,474.1,342.2z"/>
		</g>
		<g>
			<path class="st32" d="M523.8,347c-0.3,0-0.6-0.3-0.6-0.6l-0.8-18c0-0.4,0.3-0.7,0.6-0.7c0.3,0,0.7,0.3,0.7,0.6l0.8,18
				C524.4,346.7,524.2,347,523.8,347C523.8,347,523.8,347,523.8,347z"/>
		</g>
		<g>
			<path class="st33" d="M553.4,386.2c-1.6,0.5-5.3,0.7-6.6,0.9c-5.4,0.9-13,0.7-18.3-0.5c-2.4-0.5-5.7-1-5.8-4.2l-2.3-58
				c-0.1-2.1,10.6-4.3,14-4.5c4.2-0.2,8.3-0.2,12.5,0.1c2.8,0.2,12.5,2.3,12.4,4.4c0,0-2.3,57.9-2.3,58
				C556.9,384.5,555.3,385.6,553.4,386.2z"/>
			<path class="st34" d="M524.1,348.6l1.2,30.1c0.1,2.8,2.9,3.2,4.9,3.6c4.5,1,10.9,1.2,15.5,0.4c1.1-0.2,4.2-0.3,5.5-0.8
				c1.6-0.5,3-1.4,3-3.3c0,0,0.6-16.1,1.2-30.1c0,0-2.8-2.9-15.7-2.9C527,345.7,524.1,348.6,524.1,348.6z"/>
			<g>
				<path class="st25" d="M540.3,352.9c-0.4,0-0.9,0-1.4,0c-12.2-0.2-14.2-2.6-14.4-2.8c-0.2-0.3-0.1-0.7,0.2-0.9
					c0.3-0.2,0.7-0.1,0.9,0.1c0.1,0.1,2.1,2.1,13.3,2.3c4.7,0.1,11-0.2,14.5-2.3c0.3-0.2,0.5-0.3,0.8-0.2c0.3,0.1,0.5,0.5,0.4,0.8
					c-0.1,0.2-0.3,0.4-0.5,0.4c0,0-0.1,0-0.1,0.1C551.3,352,546.6,352.9,540.3,352.9z M553.9,350.3L553.9,350.3L553.9,350.3z"/>
			</g>
			<g>
				<path class="st25" d="M539.2,327c-10.9,0-17.4-2.2-17.6-2.2c-0.3-0.1-0.5-0.5-0.4-0.8c0.1-0.3,0.5-0.5,0.8-0.4
					c0.1,0,7.1,2.4,18.7,2.2c12.8-0.2,17.4-1.6,17.4-1.6c0.3-0.1,0.7,0.1,0.8,0.4c0.1,0.3-0.1,0.7-0.4,0.8
					c-0.2,0.1-4.7,1.5-17.8,1.7C540.2,327,539.7,327,539.2,327z"/>
			</g>
			<g>
				<path class="st29" d="M538,386.1c-10,0-13-2.2-13.2-2.3c-0.3-0.2-0.3-0.6-0.1-0.9c0.2-0.3,0.6-0.3,0.9-0.1c0.1,0,3.4,2.3,14.4,2
					c11.2-0.3,14.5-1.8,14.5-1.8c0.3-0.2,0.7,0,0.9,0.3c0.2,0.3,0,0.7-0.3,0.9c-0.1,0.1-3.5,1.6-15,1.9
					C539.3,386.1,538.6,386.1,538,386.1z"/>
			</g>
		</g>
		<g>
			<g>
				<path class="st35" d="M430.3,307.6c0.3,0,0.3-0.4,0-0.4C430,307.2,430,307.6,430.3,307.6L430.3,307.6z"/>
			</g>
		</g>
		<g>
			<g>
				<path class="st35" d="M432,309.3c0.3,0,0.3-0.4,0-0.4C431.7,308.8,431.7,309.3,432,309.3L432,309.3z"/>
			</g>
		</g>
		<g>
			<g>
				<path class="st35" d="M430.3,309.3c0.3,0,0.3-0.4,0-0.4C430,308.8,430,309.3,430.3,309.3L430.3,309.3z"/>
			</g>
		</g>
		<g>
			<g>
				<path class="st35" d="M416.7,303.6c-0.7,0-1.4,0-2,0c-0.3,0-0.3,0.4,0,0.4c0.7,0,1.4,0,2,0C417,304,417,303.6,416.7,303.6
					L416.7,303.6z"/>
			</g>
		</g>
		<g>
			<g>
				<path class="st35" d="M416,304.4c-0.5,0.1-0.9,0.2-1.4,0.2c-0.3,0-0.3,0.5,0,0.4c0.5,0,0.9-0.1,1.4-0.2
					C416.3,304.9,416.3,304.4,416,304.4L416,304.4z"/>
			</g>
		</g>
	</g>
</g>
<g id="Layer_3">
	<path class="st36" d="M559.8,290c0,0,0,12.1-3.4,17.2c-0.9,1.5-4.4,7.5-5.2,11.2c-2.1,9.4-0.9,19.9-0.9,22.4
		c0,3.4-0.2,41.5,0.7,43.2c0,1.1,34,1.1,34,0c0.9-17.2-1.1-62.1-1.1-62.1s-1.7-7.8-8.6-12.9s-4.3-19.8-4.3-19.8s4.3,0,1.7-5.2
		c-1.1-2.3,2.7-6.4-0.9-6c-3.6,0.4-9.6-0.5-13.8,0c-4.6,0.6-0.9,3.4,0,5.2s-2.6,3.4-0.9,5.2S559.8,290,559.8,290z"/>
	<path class="st37" d="M561.5,293.3c0,0,4.3-2.6,6,0s0,12.7,6.9,17.1c6.9,4.4,6.9,14.7,6.9,14.7s1.5,50.4,0.7,53.8c-4,1-23,2-28-1
		c-2.6-7.8-0.2-53.7-0.2-53.7s1.7-12.9,4.3-16.4S561.5,300.2,561.5,293.3z"/>
	<path class="st38" d="M563.2,289c0,0,0.9,11.2-0.9,15.5s-4.3,6-5.2,12.9s-1.1,57.9-0.2,59.6s5.9,1.6,6,1s-0.6-58,0.2-60.6
		s2.6-11.2,2.6-13.8s-0.9-14.6-0.9-14.6H563.2z"/>
	<ellipse class="st39" cx="575.7" cy="344.1" rx="8.2" ry="14.6"/>
	<path class="st36" d="M601.8,290c0,0,0,12.1-3.4,17.2c-0.9,1.5-4.4,7.5-5.2,11.2c-2.1,9.4-0.9,19.9-0.9,22.4
		c0,3.4-0.2,41.5,0.7,43.2c0,1.1,34,1.1,34,0c0.9-17.2-1.1-62.1-1.1-62.1s-1.7-7.8-8.6-12.9s-4.3-19.8-4.3-19.8s4.3,0,1.7-5.2
		c-1.1-2.3,2.7-6.4-0.9-6c-3.6,0.4-9.6-0.5-13.8,0c-4.6,0.6-0.9,3.4,0,5.2s-2.6,3.4-0.9,5.2S601.8,290,601.8,290z"/>
	<path class="st37" d="M603.5,293.3c0,0,4.3-2.6,6,0s0,12.7,6.9,17.1c6.9,4.4,6.9,14.7,6.9,14.7s1.5,50.4,0.7,53.8c-4,1-23,2-28-1
		c-2.6-7.8-0.2-53.7-0.2-53.7s1.7-12.9,4.3-16.4S603.5,300.2,603.5,293.3z"/>
	<path class="st38" d="M605.2,289c0,0,0.9,11.2-0.9,15.5s-4.3,6-5.2,12.9s-1.1,57.9-0.2,59.6s5.9,1.6,6,1s-0.6-58,0.2-60.6
		s2.6-11.2,2.6-13.8s-0.9-14.6-0.9-14.6H605.2z"/>
	<ellipse class="st39" cx="617.7" cy="344.1" rx="8.2" ry="14.6"/>
	<path class="st36" d="M581.8,289c0,0,0,12.1-3.4,17.2c-0.9,1.5-4.4,7.5-5.2,11.2c-2.1,9.4-0.9,19.9-0.9,22.4
		c0,3.4-0.2,41.5,0.7,43.2c0,1.1,34,1.1,34,0c0.9-17.2-1.1-62.1-1.1-62.1s-1.7-7.8-8.6-12.9s-4.3-19.8-4.3-19.8s4.3,0,1.7-5.2
		c-1.1-2.3,2.7-6.4-0.9-6c-3.6,0.4-9.6-0.5-13.8,0c-4.6,0.6-0.9,3.4,0,5.2s-2.6,3.4-0.9,5.2S581.8,289,581.8,289z"/>
	<path class="st37" d="M604,332c0,0,0.9,42.6,0,46c-4,1-23,2-28-1c-2.6-7.8-1-44-1-44L604,332z"/>
	<path class="st38" d="M585.2,288c0,0,0.9,11.2-0.9,15.5s-4.3,6-5.2,12.9s-1.1,57.9-0.2,59.6s5.9,1.6,6,1s-0.6-58,0.2-60.6
		s2.6-11.2,2.6-13.8s-0.9-14.6-0.9-14.6H585.2z"/>
	<path class="st39" d="M597.7,329.5c4.5,0,8.2,6.6,8.2,14.6S603.5,358,599,358s-9.5-5.8-9.5-13.9S593.2,329.5,597.7,329.5z"/>
</g>
<g id="g406" transform="translate(-56.727137,113.43272)">
	<path id="path318" class="st40" d="M260.3,426.2c-2.5,37.7-2.4,74.6-5.5,112.4c-0.1,1,1.1,1.9,2,1.9c1.9,0-0.1,0,1.9,0
		c0.9,0,1.5-0.6,1.7-1.4c4.5-18.2,14.7-89.6,18.5-113.5C279,424.7,260.3,425.1,260.3,426.2z"/>
	<path id="path320" class="st40" d="M819.5,425.7c3.8,23.9,14.1,95.2,18.5,113.5c0.2,0.8,0.9,1.4,1.7,1.4c1.9,0-0.1,0,1.9,0
		c1,0,2.1-0.9,2-1.9c-3.1-37.9-3-74.8-5.5-112.4C838,425.1,819.3,424.7,819.5,425.7L819.5,425.7z"/>
	<path id="path322" class="st41" d="M227,274c0.1,3.6,0.1,7.2,0.2,10.8c0.5,29.7-0.1,205.8,0,209.5c0.1,3.2-0.1,6.5,0.2,9.6
		c0.8,6.1,8.2,5,12.7,5.3c6.9,0.5,617,0.3,644.7,0.3c11.9,0,12.5,1.9,12.7-7.3c0.8-33.7-2-219.2-2.2-222.2c-0.4-5.6,1-5-4.6-5.8
		c-3.4-0.5-636.2-0.1-663.4-0.6C227.2,273.7,227,273.8,227,274z"/>
	<path id="path324" class="st40" d="M230.7,281.1c19.9,0.3,406.5,2.5,426.3,2.7c49.9,0.4,99.9,0.5,149.8,0.4
		c23.7-0.1,45.5-0.3,69.2-0.5c0,0.3,0,0.6,0,1c-45.7,0.4-89.6,0.6-135.2,0.5c-47.9-0.1-462.5-2.5-510.3-3.1
		C230.7,281.8,230.8,281.5,230.7,281.1L230.7,281.1z"/>
	<path id="path326" class="st40" d="M231.8,487.3c19.9,0.3,406.5,2.5,426.3,2.7c49.9,0.4,99.9,0.5,149.8,0.4
		c23.7-0.1,45.5-0.3,69.2-0.5c0,0.3,0,0.6,0,1c-45.7,0.4-89.6,0.6-135.2,0.5c-47.9-0.1-462.5-2.5-510.3-3.1
		C231.8,487.9,231.9,487.6,231.8,487.3L231.8,487.3z"/>
	<path id="path328" class="st40" d="M717.9,319.7c28.9,0.1,57.9,0.1,86.8,0c23.8-0.1,47.6-0.2,71.5-0.4c0,0.3,0,0.6,0,1
		c-46,0.4-92,0.6-137.9,0.5c-4.8,0-11.7,0-20.4-0.1C717.9,320.3,717.9,320,717.9,319.7L717.9,319.7z"/>
	<path id="path330" class="st40" d="M395.7,330c29.6,0.4,59.2,0.6,88.8,0.8c24.4,0.1,48.7,0.2,73.1,0.2c0,0.3,0,0.6,0,1
		c-47,0-94.1-0.2-141-0.7c-4.9-0.1-12-0.1-20.9-0.3C395.7,330.7,395.8,330.3,395.7,330z"/>
	<path id="path332" class="st40" d="M718.6,425.2c28.9,0.1,57.9,0.1,86.8,0c23.8-0.1,47.6-0.2,71.5-0.4c0,0.3,0,0.6,0,1
		c-46,0.4-92,0.6-137.9,0.5c-4.8,0-11.7,0-20.4-0.1C718.6,425.8,718.6,425.5,718.6,425.2L718.6,425.2z"/>
	<path id="path334" class="st40" d="M876.3,284.3c0.7,45.4,1.2,71.3,1.3,116.8c0,12.8-0.1,76.5-0.1,89.3c0,0.6-0.9,0.6-0.9,0
		c0-45.5-0.1-141.8-0.6-187.2c-0.2-12.8-0.4-6.1-0.6-18.9C875.4,283.7,876.3,283.7,876.3,284.3z"/>
	<path id="path336" class="st40" d="M718.1,284.8c0.7,45.4,1.2,71.3,1.3,116.8c0,12.8-0.1,76.5-0.1,89.3c0,0.6-0.9,0.6-0.9,0
		c0-45.5-0.1-141.8-0.6-187.2c-0.2-12.8-0.4-6.1-0.6-18.9C717.2,284.2,718.1,284.2,718.1,284.8z"/>
	<path id="path338" class="st40" d="M717.4,285.3c0.2,12.2,0.1,6.2,0.3,18.7c0.1,4.7,0.4,16,0.4,16.4c0,0,15.8,0.1,20.4,0.1
		c46,0.1,138.4-0.5,138.6-0.5c-0.2-10.9-0.4-22.3-0.6-35.5c0-0.2-0.1-0.3-0.3-0.4c0,0-45.5,0.2-69.2,0.3c-30,0.1-59.8,0.1-89.7,0
		C717.3,284.7,717.4,284.8,717.4,285.3L717.4,285.3z"/>
	<path id="path340" class="st27" d="M779.4,298.1c0,2.8,0,1.4,0.1,4.3c0,1.1,0.1,3.7,0.1,3.8c0,0,3.7,0,4.7,0c10.6,0,32-0.1,32-0.1
		c0-2.5-0.1-5.1-0.1-8.2c0,0,0-0.1-0.1-0.1c0,0-10.5,0.1-16,0.1c-6.9,0-13.8,0-20.7,0C779.4,298,779.4,298,779.4,298.1z"/>
	<path id="path342" class="st40" d="M718.2,326.3c0.2,12.2,0.1,78.2,0.1,78.5c0,0,15.1,0,19.7,0c46,0.1,138.4-0.5,138.6-0.5
		c-0.2-10.9-0.1-65.8-0.3-79.1c0-0.2-0.1-0.3-0.3-0.4c0,0-44.4,0.5-68.1,0.6c-30,0.1-59.8,0.1-89.7,0
		C718.2,325.6,718.2,325.7,718.2,326.3z"/>
	<path id="path344" class="st27" d="M752.5,340.7c0.1,7.2,0,46.1,0,46.3c0,0,8.9,0,11.6,0c27.1,0,81.6-0.3,81.8-0.3
		c-0.1-6.4-0.1-38.8-0.2-46.6c0-0.1-0.1-0.2-0.2-0.2c0,0-26.2,0.3-40.2,0.3c-17.7,0.1-35.3,0-52.9,0
		C752.5,340.3,752.5,340.3,752.5,340.7L752.5,340.7z"/>
	<path id="path346" class="st40" d="M719.1,426.5c0.2,12.2-0.3,63.7-0.3,64c0,0,15.1,0,19.7,0c46,0.1,138.4-0.5,138.6-0.5
		c-0.2-10.9,0.3-51.4,0.1-64.7c0-0.2-0.1-0.3-0.3-0.4c0,0-44.4,0.5-68.1,0.6c-30,0.1-59.8,0.1-89.7,0
		C719,425.9,719.1,426,719.1,426.5z"/>
	<path id="path348" class="st40" d="M557.9,284.1c0.7,45.4,1.2,71.3,1.3,116.8c0,12.8-0.1,76.5-0.1,89.3c0,0.6-0.9,0.6-0.9,0
		c0-45.5-0.1-141.8-0.6-187.2c-0.2-12.8-0.4-6.1-0.6-18.9C556.9,283.5,557.9,283.5,557.9,284.1z"/>
	<path id="path350" class="st40" d="M395.5,282.6c0.7,45.4,1.2,71.3,1.3,116.8c0,12.8-0.1,76.5-0.1,89.3c0,0.6-0.9,0.6-0.9,0
		c0-45.5-0.1-141.8-0.6-187.2c-0.2-12.8-0.4-6.1-0.6-18.9C394.5,282,395.5,282,395.5,282.6L395.5,282.6z"/>
	<path id="path352" class="st40" d="M231.2,281.6c0.7,45.4,1.2,71.3,1.3,116.8c0,12.8-0.1,76.5-0.1,89.3c0,0.6-0.9,0.6-0.9,0
		c0-45.5-0.1-141.8-0.6-187.2c-0.2-12.8-0.4-6.1-0.6-18.9C230.2,281,231.2,281,231.2,281.6z"/>
	<path id="path354" class="st40" d="M481.1,301c4.9,0,4.4,7.6-0.5,7.6S476.2,301,481.1,301z"/>
	<path id="path356" class="st40" d="M416.3,354.6c4.9,0,4.4,7.6-0.5,7.6C410.9,362.2,411.4,354.6,416.3,354.6z"/>
	<path id="path358" class="st40" d="M374.3,299.8c4.9,0,4.4,7.6-0.5,7.6C368.9,307.4,369.4,299.8,374.3,299.8z"/>
	<path id="path360" class="st27" d="M833.4,297.7c4.9,0,4.4,7.6-0.5,7.6C828,305.3,828.5,297.7,833.4,297.7z"/>
	<path id="path362" class="st27" d="M762.5,298.1c4.9,0,4.4,7.6-0.5,7.6C757.1,305.8,757.6,298.1,762.5,298.1z"/>
	<path id="path364" class="st21" d="M600.9,283.8c0.1,11.4-0.3,22.9,0.3,34.2c0.3,5.2,1.4,10.1,2.4,15.1c1.2,5.9,1.9,11.8,2.3,17.9
		c0.3,4.9,0.3,9.8,0,14.7c-0.2,3.5-0.4,7.5,2.2,10c2.5,2.4,5.8,1.2,8.8,0c4.5-1.9,9.3-4,14.2-4.2c2.6-0.1,5.2,0.3,7.4,1.6
		c1.8,1,3.2,2.4,5,3.5c2.8,1.7,6.1,2.3,9.4,2.4c7.6,0.1,15.9-2.8,23.1,0.1c2.3,0.9,4.9,2.8,6.7-0.3c0.9-1.6,0.9-3.7,1.1-5.4
		c0.2-2.4,0.5-4.8,0.6-7.3c0.5-9.7-1.5-18.4-3.4-27.7c-1-5-1.6-9.9-1.4-15.1c0.2-5.2,0.8-10.3,1.2-15.5c0.6-7.8,0.5-15.8-2.5-22.9
		c0,0,0,0,0-0.1c-1.2-5.8-8.1-4.3-12.4-3.5c-7.5,1.3-14-3.3-21.4-3.4c-7.5,0-14.1,3-21.3,5.3c-4.4,1.4-8.2,0.9-12.5,0.3
		c-3.2-0.5-6.3-0.8-9.5,0C601.1,283.4,600.9,283.6,600.9,283.8L600.9,283.8z"/>
	<path id="path366" class="st7" d="M353.9,267.1c0.4,1.1,1.9,1.5,2.9,1.9c1.9,0.8,3.9,1.6,6,1.9c0.8,0.1,1.6,0.4,2.1-0.3
		c0.2-0.1,0.4-0.3,0.3-0.5c-0.7-3-1.3-8.2-4.2-9.9c-2.3-1.4-4.6,1.6-5.9,3.3C354.3,264.5,353.4,265.9,353.9,267.1L353.9,267.1z"/>
	<path id="path368" class="st7" d="M382.6,263.7c-1-1.8-2.9-4.7-5.4-3.3c-3.1,1.8-4.5,6.9-5.5,9.9c-0.1,0.3,0,0.4,0.2,0.5
		c0.5,0.6,1.3,0.4,2.1,0.3c2.1-0.3,4.2-1.1,6.2-1.9c1.1-0.4,2.5-0.8,3.1-1.9C384,266,383.2,264.7,382.6,263.7z"/>
	<path id="path370" class="st40" d="M785,270.1c-0.6-2.1-1.3-4.9-2.8-6.5c-1.6-1.7-4.5-1.6-6.7-1.8c-1.2-0.1-2.3-0.2-3.5-0.3
		c0.2,2.9,0.5,5.7,0.8,8.6h-1c-0.4-2.9-0.6-5.7-0.8-8.6c-3.3-0.2-6.5-0.3-9.8-0.3c-3.1,0-6.3,0.1-9.4,0.3c0.2,2.9,0.6,5.7,0.9,8.6
		h-1c-0.4-2.8-0.7-5.7-0.9-8.5c-1.2,0.1-2.3,0.2-3.5,0.3c-2.9,0.3-4.9,0.8-5.4,4.1c-0.2,1.3-0.2,2.7-0.2,4.1h-1
		c-0.1-1.9,0-3.8,0.4-5.6c0.4-1.4,1.3-2.4,2.7-2.9c2.1-0.9,4.6-0.8,6.8-1c3.2-0.2,6.5-0.4,9.7-0.4c6-0.1,12,0.1,17.9,0.9
		c2,0.3,3.9,0.8,5.1,2.4c1.3,1.8,1.9,4.3,2.6,6.4c0,0.1,0,0.1,0,0.2L785,270.1z"/>
	<path id="path372" class="st40" d="M856.7,271.1c-0.6-2.1-1.3-4.9-2.8-6.5c-1.6-1.7-4.5-1.6-6.7-1.8c-1.2-0.1-2.3-0.2-3.5-0.3
		c0.2,2.9,0.5,5.7,0.8,8.6h-1c-0.4-2.9-0.6-5.7-0.8-8.6c-3.3-0.2-6.5-0.3-9.8-0.3c-3.1,0-6.3,0.1-9.4,0.3c0.2,2.9,0.6,5.7,0.9,8.6
		h-1c-0.4-2.8-0.7-5.7-0.9-8.5c-1.2,0.1-2.3,0.2-3.5,0.3c-2.9,0.3-4.9,0.8-5.4,4.1c-0.2,1.3-0.2,2.7-0.2,4.1h-1
		c-0.1-1.9,0-3.8,0.4-5.6c0.4-1.4,1.3-2.4,2.7-2.9c2.1-0.9,4.6-0.8,6.8-1c3.2-0.2,6.5-0.4,9.7-0.4c6-0.1,12,0.1,17.9,0.9
		c2,0.3,3.9,0.8,5.1,2.4c1.3,1.8,1.9,4.3,2.6,6.4c0,0.1,0,0.1,0,0.2L856.7,271.1z"/>
	<path id="path374" class="st42" d="M272,270.2h3.3c135.3,0.3,434.2,0.4,437,0.3c3.8-0.1,4.2,1.1,4.5,7.6c0.3,5.7,0.2,5.1-11.7,5.1
		c-22.6,0-320.2,0.2-433.9,0C271.2,277.3,271.3,274.9,272,270.2L272,270.2z"/>
	<path id="path376" class="st7" d="M792.2,218.1c-3.7-3.7-8.6-5.6-13.4-7.2c-4.2-1.3-8.4-2.3-12.7-2.7c1.1-0.8,2.1-1.6,2.5-2.1
		c2.1-2.7,3.3-7.1-0.7-9c-3.4-1.6-7.4,0-9,3.1c-1,2-1.1,5.7,0.5,7.8c-9.3,0.4-18.2,3.5-25.1,9.5c-0.3,0.3,0,0.7,0.4,0.8
		c0.1,0.1,0.2,0.3,0.4,0.3c4.7,0.1,9.3,0.2,14,0.6c4.9,0.4,9.6,1.4,14.4,1c9.5-0.8,18.9-1.4,28.4-1.4
		C792.3,219,792.5,218.4,792.2,218.1z"/>
	<path id="path378" class="st21" d="M792.7,222.2c0.1-1.1,0.6-2.5,0.3-3.6c-0.2-0.6-0.5-0.8-1-1c-1.3-0.4-56-1.7-58.7-0.8
		c-0.2,0.3,0,0.6,0,1.7c-0.1,0.9-0.1,1.8-0.1,2.7c-3.9,0.3-8.1,1.7-8.2,5.5c-0.1,4.3,4.2,5.2,8,5.3c0,1.8,0.1,3.6,0.2,5.5
		c0.4,5.5,1.1,11.5,4.6,16.2c3.4,4.5,8,5.7,13.2,6.1c6.8,0.5,13.5,0.5,20.2,0c2.7-0.2,5.5-0.5,7.9-1.7c2.4-1.2,4.3-3.3,5.8-5.5
		c3.3-4.6,5.1-9.9,6-15.6c0.2-1.4,0.4-2.7,0.5-4.1c0.9-0.2,1.8-0.4,2.6-0.8c1.9-0.7,4.7-1.9,5.3-4
		C800.8,224.2,796.5,222.6,792.7,222.2z M733,231.1c-3.7-0.1-7.7-0.9-6.9-4.8c0.5-2.8,3.8-3.9,7-4.2C733,225.2,733,228.1,733,231.1z
		 M796.2,230.1c-1.4,0.8-3,1.4-4.5,1.8c0.2-1.6,0.3-3.1,0.5-4.7l0.4-4.2c0.8,0.1,1.7,0.3,2.5,0.5c1.1,0.4,2.6,0.9,3.2,2
		C799.6,228,797.7,229.3,796.2,230.1L796.2,230.1z"/>
	<g id="g396">
		<path id="path380" class="st40" d="M740.8,224.4c0,0-0.1,0-0.1-0.1c-0.7-0.1-1.3-0.1-2-0.1c0,0-0.1,0-0.1,0h0c0,0,0,0,0,0
			c-0.1,0-0.1,0.1-0.1,0.2c-0.1,3.5-0.3,6.9-0.4,10.4c0,0.2,0.1,0.2,0.3,0.3c0,0,0,0,0,0c0.4,0,2.2,0.2,2.2,0c0-0.1,0-0.3,0-0.4
			c0,0,0-0.1,0-0.1c0.1-3.4,0.2-6.7,0.4-10.1C741,224.5,740.9,224.4,740.8,224.4L740.8,224.4z"/>
		<path id="path382" class="st40" d="M747.5,224.6c0,0-0.1,0-0.1-0.1c-0.7-0.1-1.3-0.1-2-0.1c0,0-0.1,0-0.1,0h0c0,0,0,0,0,0
			c-0.1,0-0.1,0.1-0.1,0.2c-0.1,3.5-0.3,6.9-0.4,10.4c0,0.2,0.1,0.2,0.3,0.3c0,0,0,0,0,0c0.4,0,2.2,0.2,2.2,0c0-0.1,0-0.3,0-0.4
			c0,0,0-0.1,0-0.1c0.1-3.4,0.2-6.7,0.4-10.1C747.6,224.7,747.6,224.6,747.5,224.6L747.5,224.6z"/>
		<path id="path384" class="st40" d="M754.1,224.6c0,0-0.1,0-0.1-0.1c-0.7-0.1-1.3-0.1-2-0.1c0,0-0.1,0-0.1,0h0c0,0,0,0,0,0
			c-0.1,0-0.1,0.1-0.1,0.2c-0.1,3.5-0.3,6.9-0.4,10.4c0,0.2,0.1,0.2,0.3,0.3c0,0,0,0,0,0c0.4,0,2.2,0.2,2.2,0c0-0.1,0-0.3,0-0.4
			c0,0,0-0.1,0-0.1c0.1-3.4,0.2-6.7,0.4-10.1C754.3,224.7,754.2,224.7,754.1,224.6L754.1,224.6z"/>
		<path id="path386" class="st40" d="M760.8,224.8c0,0-0.1,0-0.1-0.1c-0.7-0.1-1.3-0.1-2-0.1c0,0-0.1,0-0.1,0h0c0,0,0,0,0,0
			c-0.1,0-0.1,0.1-0.1,0.2c-0.1,3.5-0.3,6.9-0.4,10.4c0,0.2,0.1,0.2,0.3,0.3c0,0,0,0,0,0c0.4,0,2.2,0.2,2.2,0c0-0.1,0-0.3,0-0.4
			c0,0,0-0.1,0-0.1c0.1-3.4,0.2-6.7,0.4-10.1C760.9,224.9,760.8,224.9,760.8,224.8L760.8,224.8z"/>
		<path id="path388" class="st40" d="M768.4,224.8c0,0-0.1,0-0.1-0.1c-0.7-0.1-1.3-0.1-2-0.1c0,0-0.1,0-0.1,0h0c0,0,0,0,0,0
			c-0.1,0-0.1,0.1-0.1,0.2c-0.1,3.5-0.3,6.9-0.4,10.4c0,0.2,0.1,0.2,0.3,0.3c0,0,0,0,0,0c0.4,0,2.2,0.2,2.2,0c0-0.1,0-0.3,0-0.4
			c0,0,0-0.1,0-0.1c0.1-3.4,0.2-6.7,0.4-10.1C768.5,225,768.5,224.9,768.4,224.8L768.4,224.8z"/>
		<path id="path390" class="st40" d="M775,225c0,0-0.1,0-0.1-0.1c-0.7-0.1-1.3-0.1-2-0.1c0,0-0.1,0-0.1,0h0c0,0,0,0,0,0
			c-0.1,0-0.1,0.1-0.1,0.2c-0.1,3.5-0.3,6.9-0.4,10.4c0,0.2,0.1,0.2,0.3,0.3c0,0,0,0,0,0c0.4,0,2.2,0.2,2.2,0c0-0.1,0-0.3,0-0.4
			c0,0,0-0.1,0-0.1c0.1-3.4,0.2-6.7,0.4-10.1C775.2,225.1,775.1,225.1,775,225L775,225z"/>
		<path id="path392" class="st40" d="M781.7,225.1c0,0-0.1,0-0.1-0.1c-0.7-0.1-1.3-0.1-2-0.1c0,0-0.1,0-0.1,0h0c0,0,0,0,0,0
			c-0.1,0-0.1,0.1-0.1,0.2c-0.1,3.5-0.3,6.9-0.4,10.4c0,0.2,0.1,0.2,0.3,0.3c0,0,0,0,0,0c0.4,0,2.2,0.2,2.2,0c0-0.1,0-0.3,0-0.4
			c0,0,0-0.1,0-0.1c0.1-3.4,0.2-6.7,0.4-10.1C781.8,225.2,781.7,225.1,781.7,225.1L781.7,225.1z"/>
		<path id="path394" class="st40" d="M788.4,225.5c0-0.1-0.1-0.2-0.1-0.2c0,0-0.1,0-0.1-0.1c-0.7-0.1-1.3-0.1-2-0.1c0,0-0.1,0-0.1,0
			h0c0,0,0,0,0,0c-0.1,0-0.1,0.1-0.1,0.2c-0.1,3.5-0.3,6.9-0.4,10.4c0,0.2,0.1,0.2,0.3,0.3c0,0,0,0,0,0c0.4,0,2.2,0.2,2.2,0
			c0-0.1,0-0.3,0-0.4c0,0,0-0.1,0-0.1C788.2,232.2,788.3,228.9,788.4,225.5z"/>
	</g>
	<path id="path398" class="st7" d="M665.1,356c-6,1.4-11.9,2.9-17.8,4.6c-3,0.9-6,1.8-9,2.8c-2.9,1-5.7,2.2-8.7,2
		c-0.4,0-0.6-0.5-0.3-0.8c10-8.3,19-17.6,28.4-26.5c4.7-4.5,9.6-8.7,14.6-12.8c2.4-1.9,4.8-3.9,7-6.1c0.2-0.2,0.3-0.3,0.5-0.5
		c-0.1,1.5-0.2,3-0.2,4.5c-0.2,5.1,0.4,10.1,1.4,15.1c0.9,4.5,1.9,8.8,2.5,13.2C677.4,353.1,671.2,354.5,665.1,356L665.1,356z"/>
	<path id="path400" class="st7" d="M639.9,319.8c0.3,0.2,0.3,0.8-0.2,0.9c-3.5,0.6-7.1,0.3-10.6,0.1c-4.2-0.2-8.4-0.4-12.6-0.6
		c-5.1-0.3-10.1-0.7-15.2-1.1c0-0.3-0.1-0.7-0.1-1c-0.4-7.2-0.4-14.5-0.4-21.8C613.8,304.1,627.2,311.4,639.9,319.8L639.9,319.8z"/>
	<path id="path402" class="st7" d="M645.7,307c2.6,2.4,12.9,10.8,15.8,12.4c0.3,0.2,0.7,0,0.7-0.4c0.1-6.5,0.2-13,0.3-19.5
		c0.1-0.2-0.1-0.8-0.9-0.4c-5.2,2.5-9.8,4.6-15.6,7.2C645.7,306.3,645.5,306.7,645.7,307L645.7,307z"/>
	<path id="path404" class="st7" d="M627.5,352.4c1.5-3.4,6.8-16.5,7.5-19.9c0.1-0.3-0.2-0.7-0.6-0.5c-6.1,2.5-12.3,4.9-18.4,7.4
		c-0.2,0-0.8,0.4-0.2,1.1c3.7,4,6.9,7.6,10.9,12.1C626.9,352.7,627.3,352.7,627.5,352.4L627.5,352.4z"/>
</g>
<g id="sporty">
	<path class="st43" d="M334,295c0,2,26,54,42,56s12-22,12-22l-30-63l-24,7V295z"/>
	<path class="st43" d="M249,511c0,0,3,20,2,27s-9,15-9,46s8,72,8,73s17,9,19,2s9-94,12-102s7-26,6-39S249,511,249,511z"/>
	<path class="st43" d="M303,492c0,0,12,21,10,33s-9,20-10,44s6,59,5,72s8,25,14,15s10-70,14-85s9-23,9-35s4-33,2-44S303,482,303,492
		z"/>
	<path class="st44" d="M235,402c-1,1-6,95-11,111c14,20,76,13,81-1c0-15,1-12,1-12s39,3,48-10c-1-32-10-95-9-107S235,402,235,402z"
		/>
	<path class="st45" d="M214,230c8.8-17.6,38-36,50-40s52,3,60,7s30,16,38,30s16,34,16,34l-40,22c0,0,6,89,12,100c-5,0-15-3-27,4
		s-32,14-49,16s-35,6-44-1c1-15,2-73-3-95c-8,1-20-1-25-5S201,253,214,230z"/>
	<path class="st43" d="M267,146c0,1,2.5,41,1.3,45s32.7,31,36.7,29s8-20,6-43S267,146,267,146z"/>
	<path class="st43" d="M267,142"/>
	<path class="st46" d="M270,155c0,1,21,65,42,22s-6-35-6-35L270,155z"/>
	<path class="st18" d="M346,99c1.2,5.9-6,21-7,26s-4-33-4-33l8-2C343,90,345,94,346,99z"/>
	<path class="st43" d="M332,80c-7.5-7.5-19-17-37-13s-33,19-36,27s-2,36,3,44s7,25,25,35s28,11,38,6s15-12,16-25s-1-23,0-30
		s2-15,0-24S337,85,332,80z"/>
	<path class="st44" d="M338,283c0,0,33-7,36-13s0-10,0-10l-37,14L338,283z"/>
	<path class="st44" d="M257.4,192.8c0,0,26.6,38.2,47.6,41.2c0,0,17.2-12,16.6-38c-4.6-6-10.1-5.3-10.1-5.3S309,214,305,217
		c0,0-27.6-10.9-35.8-28C264,186,257.4,192.8,257.4,192.8z"/>
	<path class="st43" d="M218,303c0,0,17,59,39,66s59-74,59-74s20-2,22-12s7-32,4-35s-7,2-7,2s0-32,2-36s-2-4-4,0s-6,24-6,28
		s-1-21,0-28s0-8-2-6s-7,21-8,26s4-27,0-27s-8,18-8,18s1.8-8.3-1.6-8.2S299,244,300,251s0,29,2,32s-23,25-28,27s-11,9-11,9
		s-10-20-11-22S218,303,218,303z"/>
	<path class="st43" d="M364,286c0,0,4,14,3,24s-1.4,32,1.8,36c3.2,4,11.2,11,19.2,7s11-9,10-20s-15-50-15-50s13-7,10-25
		c4-18,13-25,14-31s-3-7-5-4s-10,18-10,18s7-28,6-32s-5-3-7,0s-8,28-8,28s4-29,3-33s-7-4-8,0s-5,32-5,32s-1-20,0-27s-3-10-5-6
		s-7,29-7,35c0,0-1-1-4,1s-1,24.2-3,30.1S355,285,364,286z"/>
	<path class="st47" d="M297,654c0,0,0,19-5,28c2,7,33,15,41,15s53,0,56-3s1-14-3-17s-21-5-26-8s-18-16-18-16s6-10,6-16s-1-13-6-13
		s-13,1-17,7s0,21,2,24S297,654,297,654z"/>
	<path class="st44" d="M324,701c12,0.6,62,2,66-1s0.7-9.7,0.3-9.4C390,691,390,693,380,693s-45,1-52,0s-25-5-29-7s-5.4-7.6-5.4-7.6
		S290,680,290,684S305,700,324,701z"/>
	<path class="st47" d="M239,660c0,0,1,24-1,31s0,15,4,17s27,22,49,20s28,0,29-8s-4-18-8-21s-20-8-23-12s-13-18-13-20s7-14,4-22
		s-14-9-18-6s-12,7-5,25C256,667,239,660,239,660z"/>
	<path class="st18" d="M270,106c0,0-3,22,3,31c-8,2-10.3-6.7-14-8c-4.8-1.7-6,3-6,3s-5-16-9-22s1-27,6-29c-1-8-18-8-19-5
		c5-12,16-10,18-6s-10-16-3-21c2,9,9,17,12,18c3-3,10-11,19-13s23,1,33,1s20-8,20-8s0,9-3,10c2,1,12,3,16-1c2,4-2,13-7,14
		c4,3,13,0,15-3c2,3-2,13-7,13c2,3,13,2,16-1c1,13-59,32-87,16C271,98,270,106,270,106z"/>
	<path class="st43" d="M267,142c0,0-2-14-12-14s-10,12-9,15s6,16,17,11S267,142,267,142z"/>
	<path class="st18" d="M289,109c4.8-2.4,16-3,16,1s-8,0-12,2s-8,7-9,5S287,110,289,109z"/>
	<path class="st18" d="M333,105c5,0,8,4,8,6s-5-2-7-2s-6,4-8,1S331,105,333,105z"/>
	<path class="st18" d="M292,125c0.6-4.1,12-8,15-2C303,123,300,123,292,125z"/>
	<path class="st18" d="M298,127c2.2,2.2,5,0,5-2s1-3-2-3S296,125,298,127z"/>
	<path class="st18" d="M340,125.4c-0.5-3.6-10.4-7.1-13-1.8"/>
	<path class="st18" d="M334.8,127.2c-1.9,2-4.3,0-4.3-1.8s-0.9-2.7,1.7-2.7C334.8,122.8,336.5,125.4,334.8,127.2z"/>
	<path class="st44" d="M236,648c-2.3,1.7-4.7,13.5,3.2,17.3C247,669,257,665,257,665s-2.4-7.4-2.2-8.2C254,656,248,653,246,651
		S240,645,236,648z"/>
	<path class="st44" d="M234,695c-1.1,4.3,0,14,6,17s17,12,22,14s20,10,26,10s29-2,32-9s0.1-9.9,0.1-9.9S320,722,310,724s-19,2-25,0
		s-20-6-30-12s-17-15-17-17s1-10,1-10S235,691,234,695z"/>
	<path class="st44" d="M293,655c1.4,5.7,13,6,15,6s15-1,18-3s1-3,1-3s-3-8-3-9.5c-4,0.5-17,0.5-19-1.5s-9-1-11,1S292,651,293,655z"
		/>
	<path class="st44" d="M253,285c0,0-0.9,14.2,0.5,15.1C255,301,209,311,201,306c-1-5-1.1-14.1-1.1-14.1S247,291,253,285z"/>
	<path class="st48" d="M323.5,159.6c-4.8,0.2-9.6,0.7-13.2,4.1c-1.9,1.8,1,4.6,2.8,2.8c2.8-2.6,6.7-2.8,10.4-3
		C326,163.5,326,159.5,323.5,159.6z"/>
	<path class="st48" d="M326.1,130.4c-1-1.6-3.6-0.1-2.6,1.5c1.8,2.8,3.3,6.3,3.1,9.8c-0.3,5.2-6.3,5.5-10.3,4.5
		c-1.9-0.5-2.7,2.4-0.8,2.9c4.4,1.1,11.1,1,13.4-3.7C331.1,140.8,328.6,134.3,326.1,130.4z"/>
	<path class="st48" d="M335,248.5c-3.7,4.8-5.3,10.4-4.5,16.3c-3.6,0.6-6.7,2.5-8.8,5.3c-1.9-2.4-4.4-4.1-7.3-5.2
		c-1.2-0.4-1.7,1.5-0.5,1.9c2.7,1,4.9,2.7,6.7,4.9l0.1,0.1c-0.6,1.2-1.1,2.5-1.3,4c-0.2,1.3,1.7,1.8,1.9,0.5
		c0.8-5.1,4.6-8.9,9.6-9.6c0.5,0.7,2,0.2,1.8-0.9c-1.1-5.7,0.2-11.4,3.8-15.9C337.2,248.9,335.8,247.4,335,248.5z"/>
	<path class="st48" d="M331.2,242.6c-0.9,0-1.9-0.1-2.8,0c-0.2-0.3-0.3-0.6-0.5-0.9c-0.7-1.1-2.3-0.1-1.7,1
		c-2.8,0.2-5.7,0.7-8.4,1.6c-0.2-4-0.1-8,0.4-12c0.2-1.3-1.8-1.3-2,0c-0.6,4.2-0.7,8.4-0.4,12.7c-2,0.8-3.8,1.8-5.5,3
		c-2-7.8,0.8-15.7-0.1-23.7c-0.1-1.3-2.1-1.3-2,0c0.9,8.3-2,16.5,0.3,24.6c0,0.1,0.1,0.3,0.2,0.4c-1.4,1.4-2.7,2.9-3.5,4.8
		c-0.5,1.2,1.2,2.2,1.7,1c4.1-8.6,15.8-10.9,24.4-10.5C332.5,244.7,332.5,242.7,331.2,242.6z"/>
	<path class="st48" d="M381.8,260.6c-2.5,0.8-4.5,2.5-5.7,4.7c-1.8-2.1-4.6-3.4-8.5-4c1-7.5,1-19.8-6-24.2c-1.1-0.7-2.1,1-1,1.7
		c6.3,4,5.8,16.7,4.9,23c-0.1,0.7,0.3,1.2,1,1.3c3.2,0.4,6.9,0.8,8.9,3.8c0,0.1-0.1,0.2-0.1,0.3c-0.2,0.7,0.3,1.1,0.8,1.2
		c0.7,2,0.7,4.3,0.7,6.4c0,1.3,2,1.3,2,0c0-3.1-0.4-5.6-1.4-7.5c0.9-2.2,2.7-4,5-4.7C383.6,262.1,383.1,260.2,381.8,260.6z"/>
	<path class="st48" d="M394.2,245.8c-6.9-7.2-16.6-10.3-26.4-8.4c-1.3,0.2-0.7,2.2,0.5,1.9c9.1-1.7,18,1.2,24.4,7.9
		C393.7,248.1,395.1,246.7,394.2,245.8z"/>
	<path class="st48" d="M375.3,346.5c-20.3-13.6-6.3-41-8.5-60.1c-0.1-0.6-0.6-0.9-1.1-0.9l0,0c-4.7-0.6-8.6-3.5-10.7-7.7
		c-0.6-1.2-2.3-0.1-1.7,1c2.3,4.6,6.5,7.7,11.6,8.5c1.8,20-11.5,46.9,9.4,60.9C375.3,349,376.3,347.2,375.3,346.5z"/>
	<path class="st48" d="M263,317.6c-3.9,3.5-8.8,5.8-12.3,9.8c-3,3.5-4.8,7.6-5.4,12.1c-0.2,1.3,1.7,1.8,1.9,0.5
		c0.7-5.1,2.9-9.7,6.8-13.2c3.3-2.9,7.2-4.9,10.4-7.9C265.4,318.1,264,316.7,263,317.6z"/>
	<path class="st48" d="M335.1,557.1c-2.4-2.3-3.9-5.1-4.5-8.3c-0.2-1.3-2.2-0.7-1.9,0.5c0.7,3.5,2.4,6.7,5,9.2
		C334.6,559.4,336,558,335.1,557.1z"/>
	<path class="st48" d="M274,559.6c-2.4-1.8-5-3.9-5.1-7.1c-0.1-1.3-2.1-1.3-2,0c0.2,4,3.1,6.6,6.1,8.8
		C274,562.2,275,560.4,274,559.6z"/>
	<path class="st49" d="M263.9,269.6c-2,6.1-6,11.1-11.4,14.4c0,0,0,0,0-0.1c7.8-8.4,8.6-19.7,8.1-30.7c-0.1-1.3-2.1-1.3-2,0
		c0.5,9.9,0,20.1-6.3,28c-0.7-7.8-1.3-15.7-2.6-23.5c-1-6.4-3.1-13.1-7.9-17.8c-8.5-8.3-24.7-7.9-33.1,0.4c-0.9,0.9,0.5,2.3,1.4,1.4
		c9.3-9.3,27-7.3,33.7,4.1c3.3,5.6,4.1,12.2,4.7,18.6c0.7,6.4,1.3,12.7,2,19.1c0,0.1,0,0.1,0,0.2c0,0.4,0.1,0.8,0.1,1.1
		c0,0.2,0.1,0.4,0.3,0.6c0,0.7,0.7,1.4,1.5,1c6.5-3.5,11.3-9.3,13.5-16.3C266.2,268.9,264.3,268.4,263.9,269.6z"/>
	<path class="st49" d="M246.4,280.5c-12,5.9-25.4,5.6-38.4,5.1c-1.3,0-1.3,2,0,2c13.4,0.5,27.1,0.6,39.4-5.4
		C248.6,281.6,247.6,279.9,246.4,280.5z"/>
	<path class="st49" d="M239.6,276c-6.5,1.7-13,3-19.6,3.8c-1.3,0.1-1.3,2.2,0,2c6.8-0.8,13.5-2.1,20.2-3.8
		C241.4,277.6,240.8,275.7,239.6,276z"/>
	<path class="st49" d="M340.3,375.7c-15.6-4.3-30,3.4-43.9,9.5c-15.5,6.8-36.6,13.6-53.2,7.4c-1.2-0.5-1.7,1.5-0.5,1.9
		c14.4,5.5,32.3,0.9,46.2-4.1c16.4-5.9,32.7-17.9,50.9-12.8C341,377.9,341.6,376,340.3,375.7z"/>
	<path class="st49" d="M286.7,381.6c-14.1,6.4-31,9.1-44-1.1c-1-0.8-2.4,0.6-1.4,1.4c13.8,10.9,31.5,8.2,46.4,1.5
		C288.9,382.8,287.9,381.1,286.7,381.6z"/>
	<path class="st49" d="M333,306.3c-6-0.6-12-0.4-18,0.5c-1.3,0.2-0.7,2.1,0.5,1.9c5.8-0.8,11.6-1,17.4-0.4
		C334.2,308.4,334.2,306.4,333,306.3z"/>
	<path class="st49" d="M334.1,311.4c-9.2-0.2-18.1,0.9-27,3.1c-1.2,0.3-0.7,2.2,0.5,1.9c8.7-2.2,17.5-3.1,26.5-3
		C335.4,313.4,335.4,311.4,334.1,311.4z"/>
	<path class="st49" d="M343.8,218.1c-0.2-1.3-2.2-1.3-2,0c0.6,4.5,1,9.1,1,13.6c0.1,4.7,0.6,10.5-1.4,14.8c-0.5,1.2,1.2,2.2,1.7,1
		c1.7-3.8,1.6-8.1,1.6-12.2C344.9,229.6,344.5,223.9,343.8,218.1z"/>
	<path class="st49" d="M349.7,232.3c-0.2,5.5-1.5,13.1-6.1,16.6c-1,0.8,0,2.5,1,1.7c5.3-4.1,6.9-12,7.1-18.4
		C351.7,231,349.7,231,349.7,232.3z"/>
	<path class="st50" d="M250.7,292.7c-15.5,4.8-31.6,6.5-47.8,5.2c-1.3-0.1-1.3,1.9,0,2c16.4,1.4,32.6-0.4,48.3-5.2
		C252.4,294.2,251.9,292.3,250.7,292.7z"/>
	<path class="st50" d="M352,272.3c-0.6-0.5-1.2,0-1.4,0.6c-1.6,0.6-3.5,0.9-5.1,1.4c-0.8,0.3-1.5,0.6-2.3,0.9
		c-0.2,0.1-1.4,0.7-1.9,0.9c-0.4-0.2-1,0-1.3,0.4l-0.1,0.1c-0.4,0.6,0,1.2,0.6,1.5c1,0.4,2.3-0.6,3.2-1c1.9-0.8,3.8-1.4,5.8-1.9
		C350.7,274.9,354.3,274,352,272.3z"/>
	<path class="st50" d="M303,223.7c-16.2-7-27.5-20.6-38.2-34.1c-0.8-1-2.2,0.4-1.4,1.4c10.8,13.6,22.3,27.4,38.6,34.4
		C303.1,225.9,304.1,224.2,303,223.7z"/>
	<path class="st50" d="M316.3,194.2c-1.1,6.7-2.5,14.3-6.4,20c-0.7,1.1,1,2.1,1.7,1c4.1-5.9,5.5-13.6,6.6-20.5
		C318.5,193.4,316.6,192.9,316.3,194.2z"/>
	<path class="st50" d="M321.9,407.3c0-5.7-0.3-11.4-0.7-17.1c-0.1-1.3-2.1-1.3-2,0c0.4,4.4,0.6,8.8,0.7,13.3
		c0.1,4.3,0.6,9.6-0.7,13.7c-1,3.4-2.9,6.7-5.2,9.8c0.2-10.9-1-21.6-3.8-32.2c-0.3-1.2-2.3-0.7-1.9,0.5c2.9,11.3,4.1,22.8,3.6,34.4
		c-2,2.6-4.2,5-6.2,7.2c-0.6-0.3-1.5,0-1.5,0.8c0.2,21,0.4,42,0.7,63c0,1.3,2,1.3,2,0c-0.2-20.5-0.4-41-0.6-61.5
		c2.3-2.5,4.8-5.3,7.1-8.2c0.3-0.1,0.5-0.4,0.6-0.7c2.8-3.6,5.2-7.4,6.8-11.3C322.1,415.3,321.9,411.2,321.9,407.3z"/>
	<path class="st50" d="M344.5,429.7c-10.8,1.2-21.4,3.6-31.7,7.2c-1.2,0.4-0.7,2.4,0.5,1.9c10.1-3.5,20.5-5.9,31.1-7.1
		C345.7,431.5,345.7,429.5,344.5,429.7z"/>
	<path class="st50" d="M341.4,436.8c-8.3-0.5-16.4,0.3-24.4,2.4c-1.2,0.3-0.7,2.3,0.5,1.9c7.9-2.1,15.8-2.8,23.9-2.3
		C342.6,438.9,342.6,436.9,341.4,436.8z"/>
	<path class="st50" d="M343.1,488c-8.7,5.7-24.9,11.2-34.4,4.4c-1-0.8-2,1-1,1.7c10.1,7.2,27.2,1.6,36.5-4.4
		C345.2,489,344.2,487.3,343.1,488z"/>
	<path class="st50" d="M343.3,481.7c-7.9,4.2-16.2,6.3-25.1,6.4c-1.3,0-1.3,2,0,2c9.2,0,18-2.3,26.1-6.6
		C345.4,482.9,344.4,481.1,343.3,481.7z"/>
	<path class="st50" d="M294.4,500.8c-5.2,9.1-15,12.7-24.9,13.9c-9.1,1.1-18.7,0.9-26.8-3.9c-1.1-0.7-2.1,1.1-1,1.7
		c8.9,5.3,19.7,5.4,29.7,3.9c10-1.4,19.5-5.6,24.7-14.6C296.8,500.7,295.1,499.7,294.4,500.8z"/>
	<path class="st50" d="M288.5,499.4c-8.5,3.1-17.2,5.6-26.1,7.3c-1.3,0.2-0.7,2.2,0.5,1.9c8.9-1.8,17.6-4.2,26.1-7.3
		C290.2,500.9,289.7,498.9,288.5,499.4z"/>
	<path class="st50" d="M295.2,439.9c-11.7-1-23.3-0.8-35,0.8c-1.3,0.2-1.3,2.2,0,2c11.6-1.5,23.3-1.8,35-0.8
		C296.4,442.1,296.4,440.1,295.2,439.9z"/>
	<path class="st50" d="M294.1,437.1c-10.1-4.2-21-4.7-31.4-1.5c-1.2,0.4-0.7,2.3,0.5,1.9c10.1-3.1,20.6-2.6,30.3,1.5
		C294.8,439.6,295.3,437.6,294.1,437.1z"/>
	<path class="st50" d="M245.1,466c-0.6,0-1.1-0.1-1.7-0.1c0-0.3,0-0.5,0-0.8c0.6-19.6,5.6-39,4.4-58.7c-0.1-1.3-2.1-1.3-2,0
		c1.2,19.7-3.8,39.1-4.4,58.7c0,0.2,0,0.4,0,0.6c-2.3-0.3-4.5-0.9-6.7-1.6c-1.2-0.4-1.7,1.5-0.5,1.9c2.3,0.8,4.7,1.4,7.2,1.7
		c0,0.5,0,1,0,1.6c-1.8-0.2-3.5-0.5-5.3-1c-1.3-0.3-1.8,1.6-0.5,1.9c1.9,0.5,3.8,0.8,5.8,1c-0.2,7.8-0.4,15.7-1.6,23.4
		c-1.4,8.8-4.4,17.2-5.6,26.1c-0.2,1.3,1.8,1.3,2,0c1.3-9.6,4.7-18.7,5.9-28.3c0.9-7,1.1-14,1.3-21c0.4,0,0.8,0.1,1.1,0.1
		c1.3,0.1,1.3-1.9,0-2c-0.4,0-0.7-0.1-1.1-0.1c0-0.5,0-1,0-1.6c0.6,0,1.1,0.1,1.7,0.1C246.4,468,246.4,466,245.1,466z"/>
	<path class="st44" d="M360.4,646.6c-1.8-4.1-5.6-4.1-9.2-2.5c0.2-1.1,0.3-2.1,0.1-3.3c-0.4-3.4-2.5-5.5-6-4.7
		c-3.2,0.7-6.4,2.7-7.9,5.7c-1.9,4-0.2,8.3,1.5,12c0.1,0.1,0.1,0.2,0.2,0.3c-4.3,2.7-7.6,6.8-9.2,11.9c-1,3.1,3.8,4.4,4.8,1.3
		c1.3-4,4.1-7.4,7.7-9.4c0,0,0,0,0.1,0c4.6-0.2,9.9,0.3,14-2C359.7,654,362,650.1,360.4,646.6z M341.6,645.4
		c0.1-1.5,2.6-4.9,4.6-4.4c0.7,0.2,0.3,0,0.2,1.3c-0.1,1.1-0.3,1.9-0.7,3c-0.7,1.8-1.7,3.4-2.8,5C342.1,648.7,341.4,647,341.6,645.4
		z M355.2,650.4c-1.1,2.1-4.8,2.4-8.1,2.4c1.1-1.4,2.5-2.6,4.1-3.4C352.4,648.8,357,647,355.2,650.4z"/>
	<path class="st44" d="M350.2,659.3c-6.1,1.4-10.9,5.8-13.2,11.6c-1.2,3,3.6,4.3,4.8,1.3c1.7-4.2,5.4-7.1,9.7-8.1
		C354.7,663.4,353.4,658.5,350.2,659.3z"/>
	<path class="st44" d="M354.8,664.9c-3.9,2.2-7,5.6-8.8,9.7c-0.6,1.2-0.4,2.7,0.9,3.4c1.1,0.6,2.9,0.3,3.4-0.9
		c1.5-3.4,3.8-6.1,7-7.9C360.1,667.6,357.6,663.2,354.8,664.9z"/>
	<path class="st44" d="M288.3,658.6c-2.7-2.7-6.3-2.9-9.5-1.7c-0.1-0.6-0.2-1.2-0.4-1.7c-1.2-3.4-4.7-5-8.3-4.3
		c-10,1.9-6.9,12.2-2.7,18.2c-4.2,1.4-8.1,3.7-11.4,7c-2.3,2.3,1.2,5.8,3.5,3.5c4.5-4.5,10.2-6.9,16.6-6.9c1.6,0,2.4-1.2,2.4-2.4
		C285.1,668.7,294.9,665,288.3,658.6z M273.2,656.3c1,1.1,0.8,2.7,0.3,4.4c-1.2,1.4-2.1,3-2.5,4.8c-1-1.4-1.9-2.9-2.3-4.5
		C267.9,658.4,270.4,653.3,273.2,656.3z M284.5,662.7c-0.6,1.7-5.1,2.5-7.9,2.9c0.3-0.7,0.6-1.4,0.9-2.1c0.3-0.3,0.6-0.6,1-0.8
		C279.6,662,285.4,659.9,284.5,662.7z"/>
	<path class="st44" d="M281.9,675.8c-7.1-0.4-13.9,2.4-18.5,7.8c-2.1,2.4,1.4,6,3.5,3.5c3.9-4.4,9.1-6.7,15-6.3
		C285.1,681,285.1,676,281.9,675.8z"/>
	<path class="st44" d="M288.8,683.7c-7-0.6-13.7,2-18.8,6.8c-2.3,2.2,1.2,5.8,3.5,3.5c4.2-4,9.5-5.8,15.3-5.4
		C292,689,292,684,288.8,683.7z"/>
	<path class="st44" d="M295.2,688.8c-5.4,0.6-10.2,2.7-14.4,6.2c-2.4,2.1,1.1,5.6,3.5,3.5c3.1-2.7,6.8-4.3,10.8-4.8
		C298.3,693.4,298.4,688.4,295.2,688.8z"/>
	<path class="st44" d="M360.2,668.6c-2.6,2.3-4.1,5.5-4.2,8.9c-0.2,3.2,4.8,3.2,5,0c0.1-2.2,1.1-4,2.8-5.4
		C366.2,670,362.6,666.5,360.2,668.6z"/>
	<path class="st51" d="M333.1,84c-19,8.5-41.3,8.3-60.1-0.7c-0.6-0.3-1.1,0.6-0.5,0.9c19.1,9.1,41.7,9.4,61.1,0.7
		C334.2,84.6,333.7,83.8,333.1,84z"/>
	<path class="st51" d="M325.9,77.3c-16.6,5.9-34.8,6.1-51.5,0.7c-0.6-0.2-0.9,0.8-0.3,1c16.9,5.5,35.3,5.2,52.1-0.7
		C326.8,78.1,326.5,77.1,325.9,77.3z"/>
	<path class="st51" d="M314.2,69.1c-12.5,4.8-26,6.2-39.2,4.1c-0.6-0.1-0.9,0.9-0.3,1c13.4,2.2,27.1,0.8,39.7-4.1
		C315.1,69.8,314.8,68.8,314.2,69.1z"/>
	<path class="st51" d="M268.7,89.6c-9.8,4.3-13.6,15.1-12.8,25.2c0.1,0.6,1.1,0.6,1,0c-0.8-9.8,2.7-20.1,12.3-24.3
		C269.8,90.2,269.3,89.4,268.7,89.6z"/>
	<path class="st51" d="M266.4,85c-6.9,2.3-12.6,7-16.1,13.3c-0.3,0.6,0.5,1.1,0.9,0.5c3.4-6.1,8.9-10.6,15.5-12.8
		C267.3,85.8,267.1,84.8,266.4,85z"/>
	<path class="st51" d="M262.2,80.7c-4.6,1.3-8.6,3.8-11.9,7.3c-0.4,0.5,0.3,1.2,0.7,0.7c3.1-3.4,7-5.7,11.4-7
		C263.1,81.5,262.8,80.5,262.2,80.7z"/>
</g>
<g id="boy">
	<path class="st52" d="M632,640c-1-1-17-246-12-266s102-2,102-2v11.4c0,0,4,76.6,4,84.6s8,71,7,81s4,76,0,88s-26-5-26-5
		s-18-101-22-114s-18-72-18-76s-10,110-10,119s-1,63,0,69S632,640,632,640z"/>
	<path class="st53" d="M478,238c0,0,47.6,2,52.3,3c4.7,1,10.7,23,10.7,23l-13,7c0,0-49-9-52-11c-3,2-2,9-15,6s-16-43-16-43s6-6,11-6
		S476,227,478,238z"/>
	<path class="st36" d="M436,212c0,0,0,14-4,20c-1.1,1.7-5.1,8.7-6,13c-2.4,10.9-1,23.1-1,26c0,4,0,42,1,44s26,14,39,0
		c1-20-1-66-1-66s-2-9-10-15s-5-23-5-23s5,0,2-6c-1.3-2.7,3-6-1-7s-11-2-16,0s-1,4,0,6s-3,4-1,6S436,212,436,212z"/>
	<path class="st37" d="M438,217c0,0,5-3,7,0s0,14.8,8,19.9c8,5.1,8,17.1,8,17.1s1,52,0,56s-28,8-31-1s-1-56-1-56s2-15,5-19
		S438,225,438,217z"/>
	<path class="st38" d="M440,212c0,0,1,13-1,18s-5,7-6,15s0,67,1,69s8,2,8,2s-3-68-2-71s3-13,3-16s-1-17-1-17H440z"/>
	<path class="st53" d="M758,407.1c0,0-2-55.9-4-68.9s28-8.7,27,2s-2,45.9-5,58.9c2,16,4,23,4,32.9s-3,21-5,23.9c-2,3-4,10-10,13
		c-3,4-7,8-11,8s4-11,5-15s3-23.9-1-27.9s-7,7-7,7s-1,6,1,11s-1,10-4,6s-8-19-7-23.9c1-5,2-15,6-18S758,410.1,758,407.1z"/>
	<path class="st54" d="M528,241c-0.7-0.7,26,3,28,4s39-29,45-37s19-27,24-31s25-11,32-11s32-3,43,3s42,23,47,30s12,25,13,35
		s11,32,14,48s8,52,7,58s-26,6-27,1s-2-14-4-23s-14-48-21-56c-4,7-5,58-5,68s5,51,5,51s-22,10-65,7s-44-14-44-14s-1-96,3-117
		c-1-4-4-11-4-15c-3,5-34,32-44,35s-47-5-47-5S541,255,528,241z"/>
	<path class="st53" d="M651,156c0,0-0.2,1-0.4,2.5c-0.5,4.6-0.9,14,4.4,15.5c7,2,18,4,27-1s9.4-6.7,9.4-6.7S687,147,687,133
		S651,156,651,156z"/>
	<path class="st55" d="M686,140c0,0-8.4,25.5-17.7,25.2C659,165,653,163,650,159S686,140,686,140z"/>
	<path class="st56" d="M684,45c0,0-6-19-28-18s-25,12-29,15s-11,2-16,7s-7,16-10,21s-5,7-5,10s10,1,10,1s-5,13-3,17
		s12.3,6.7,16.6,5.9S699,116,699,116s10-1,11-14s-4-11-3-16s5-24-1-31S684,45,684,45z"/>
	<path class="st53" d="M618,81c0,0-1,3-1,8c1,11,3,14,3,18s2,30,9,39s11,12,27,13s36-18,35-39c6,0,11-2,14-12c5.2-17.5-10-14-13-10
		s-2,7-2,10s-25-20-7-42c-7-3-10-2-14-10c-9,12-19.3,7.6-29,10c-4,1-8,9-15,12S618,81,618,81L618,81z"/>
	<path class="st56" d="M655,84c5,0,15,2,15,5s-10-1-12,0s-9,3-10,0S655,84,655,84z"/>
	<path class="st56" d="M623,91c3.1-0.5,5,0,5,2s-2,1-5,2s-4.7,2.9-4.7,2.9S614,98,615,96s2-3.1,2-3.1S617,92,623,91z"/>
	<path class="st53" d="M436,250c0,0,1,6,4,5s6-3,6-8s-1-10-1-10s6,3,13-3s-6-16-6-16s-10,4-12,7c-6,0-17-1-21,3s0,9,0,9s-5,4-2,9
		c-3,2-6,2-5,8s4,6,4,6s-5,2-4,6s5,9,10,5s4-9,2-10s11,0,12-4S436,250,436,250z"/>
	<path class="st57" d="M655,706c3.5,3.5,17,7,36,4s44-10,48-13s12-8,13-12s-1-6-1-6l-11,5l-83,15c0,0-3,1-3,3S654,705,655,706z"/>
	<path class="st57" d="M585,689c0,0-5,1-6,4s1,9,17,9s45-5,45-5s25-8,28-11s9-7,9-11s-3-5-3-5l-3,3L585,689z"/>
	<path class="st58" d="M705,648c0,0,0,12-2,17s-23,18-27,20s-17,4-19,9s-1,7,3,9s15,5,37,0s38-9,46-17s8-7,8-7s-10-9-13-28
		S705,648,705,648z"/>
	<path class="st58" d="M659,641c0,0,7,20,16,29c1,9-24,18-35,21s-41,8-46,6s-14-4-13-9s19-11,23-13s20-11,23-16s3-14,3-14
		S656,633,659,641z"/>
	<path class="st59" d="M639,642c0,0,0,13,2,20s5,16,10,17s15,0,16-5s0-13-3-16s-6-14-6-15c0-0.7-9.6-0.9-15.1-1
		C640.6,642,639,642,639,642z"/>
	<path class="st60" d="M646,666c1.1,1.9,3,8,8.9,8s9.9-2,8.9-6s-2-7-4-11s-4.8-11.1-4.9-14.6s-12-0.4-12-0.4S642,659,646,666z"/>
	<path class="st59" d="M714,650c0,0,0,13,2,20s5,16,10,17s15,0,16-5s0-13-3-16s-6-14-6-15c0-0.7-9.6-0.9-15.1-1
		C715.6,650,714,650,714,650z"/>
	<path class="st60" d="M721,674c1.1,1.9,3,8,8.9,8s9.9-2,8.9-6s-2-7-4-11s-4.8-11.1-4.9-14.6s-12-0.4-12-0.4S717,667,721,674z"/>
	<path class="st61" d="M626,627c1.3-2.5,13,1,17,1s14-4,17-3s2,17,1,19s-30,4-32,2S625,629,626,627z"/>
	<path class="st61" d="M702,631c0-3.6,11,2,19,2s15-7,19-4s3,18,1,21s-13,3-19,3s-15,3-18-2s0-6,0-10S702,633,702,631z"/>
	<ellipse class="st39" cx="454.5" cy="276" rx="9.5" ry="17"/>
	<path class="st38" d="M447.1,208.1c-2.3,2.8-9.4,3.1-11.2-0.6c-0.6-1.1-2.4-0.1-1.7,1c2.5,3.7,10.6,3.7,13.9,1.3
		C449.2,209,448,207.1,447.1,208.1z"/>
	<path class="st38" d="M448.1,201.2c-3.3,2.7-10.1,3.3-13-0.7c-0.7-1.1-2.3,0.5-1.4,1.4c3.6,3.5,11.2,2.9,15.4,1
		C450.3,202.4,449.1,200.4,448.1,201.2z"/>
	<ellipse class="st62" cx="442" cy="199.5" rx="6" ry="1.5"/>
	<ellipse class="st18" cx="656" cy="104" rx="3" ry="5"/>
	<ellipse class="st18" cx="626" cy="106" rx="3" ry="5"/>
	<path class="st55" d="M663.7,127.5c-3.2,7.2-13.9,8.5-20.5,6.2c-2.4-0.8-3.5,3-1.1,3.9c8.1,2.8,21.2,0.7,25-8
		C668.2,127.2,664.7,125.1,663.7,127.5z"/>
	<path class="st55" d="M645.3,123.7c-3,0.4-6,0.4-9,0.3c-1.8-8.6-2.1-17.3-0.6-26c0.3-1.9-2.6-2.7-2.9-0.8
		c-1.6,9.6-1.3,19.2,0.9,28.6c0.2,0.7,0.8,1,1.4,1.1c3.4,0.3,6.8,0.2,10.2-0.2C647.2,126.5,647.2,123.5,645.3,123.7z"/>
	<path class="st55" d="M438.8,224.1c-3.1,2.1-8,4.7-8,8.9c0,1.1,0.2,2.2,0.5,3.3c-4.2,0.7-8.3,0.7-12.5,0.2
		c-1.3-0.2-1.8,1.8-0.5,1.9c4.6,0.6,9.1,0.6,13.6-0.2c0.9,2.7,2.3,5.3,3.1,8.1c-0.1,0-0.2,0-0.3,0c-5.6,0.4-11.2,0.2-16.8-0.4
		c-1.3-0.1-1.3,1.9,0,2c5.6,0.6,11.2,0.8,16.8,0.4c0.3,0,0.5-0.1,0.7-0.3c0.2,1.2,0.4,2.5,0.2,3.8c-0.1,1.3,1.9,1.3,2,0
		c0.4-4.1-1.2-7.4-2.7-11.1c-1.1-2.8-2-5-1.4-8.1c0.7-3.4,3.4-4.9,6.2-6.7C440.9,225.1,439.9,223.4,438.8,224.1z"/>
	<path class="st55" d="M459.5,228.9c-0.4,2.5-1.6,4.6-3.6,6.3c-1,0.8,0.4,2.2,1.4,1.4c2.2-1.8,3.6-4.4,4.1-7.2
		C461.7,228.2,459.7,227.6,459.5,228.9z"/>
	<path class="st55" d="M425.6,258.8c-3.2,0.6-6.5,0.5-9.7-0.3c-1.3-0.3-1.8,1.6-0.5,1.9c3.6,0.8,7.1,0.9,10.7,0.3
		C427.4,260.5,426.9,258.6,425.6,258.8z"/>
	<path class="st55" d="M773.5,434.9c0.2-1.3-1.7-1.8-1.9-0.5c-0.3,2.2-1.6,4.1-3.6,5.1c-0.9,0.5-0.5,1.6,0.3,1.8
		c-1.7,10.5-2.7,22-8.4,31.1c-0.7,1.1,1,2.1,1.7,1c6.1-9.7,6.9-21.9,8.9-32.9c0-0.1,0-0.2,0-0.2C772.1,438.9,773.2,437,773.5,434.9z
		"/>
	<path class="st55" d="M775,438.7c-1.2,9-3.5,17.8-6.7,26.3c-0.5,1.2,1.5,1.7,1.9,0.5c3.3-8.7,5.5-17.6,6.8-26.8
		C777.2,437.4,775.2,437.4,775,438.7z"/>
	<path class="st63" d="M660.6,667.4c-1.1,0.9-2.8,1.4-4.1,1.8c-1.5,0.5-3,0.8-4.6,0.7c-1.3-0.1-1.3,1.9,0,2c3.3,0.2,7.6-1,10.2-3.1
		C663,668,661.6,666.6,660.6,667.4z"/>
	<path class="st63" d="M660,663.4c-3.1,1.7-6.5,2.8-10.1,3.1c-1.3,0.1-1.3,2.1,0,2c3.9-0.4,7.6-1.5,11.1-3.4
		C662.1,664.5,661.1,662.7,660,663.4z"/>
	<path class="st63" d="M658.9,659.7c-3.5,1.6-7.1,2.6-10.9,3c-1.3,0.1-1.3,2.1,0,2c4.2-0.4,8.1-1.5,11.9-3.3
		C661.1,660.9,660.1,659.2,658.9,659.7z"/>
	<path class="st63" d="M656.8,655.8c-3.2,1.5-6.5,2.5-10,2.9c-1.3,0.2-1.3,2.2,0,2c3.9-0.5,7.5-1.5,11-3.2
		C659,657,657.9,655.3,656.8,655.8z"/>
	<path class="st63" d="M655.4,652.3c-2.8,1.7-6.9,2.3-10,2.7c-1.3,0.2-0.7,2.1,0.5,1.9c3.4-0.5,7.6-1.1,10.5-2.9
		C657.5,653.4,656.5,651.7,655.4,652.3z"/>
	<path class="st63" d="M653.6,648.8c-2.1,1.7-5.8,2-8.3,2.5c-1.3,0.2-0.7,2.2,0.5,1.9c3.1-0.6,6.7-1,9.2-3
		C656,649.4,654.6,648,653.6,648.8z"/>
	<path class="st63" d="M653.4,646.2c-2.5,0.9-5.1,1.5-7.8,1.7c-1.3,0.1-1.3,2.1,0,2c2.8-0.3,5.6-0.9,8.3-1.8
		C655.2,647.7,654.6,645.8,653.4,646.2z"/>
	<path class="st63" d="M728.2,653.9c-2.3,1-5.6,0.6-8,0.5c-1.3-0.1-1.3,1.9,0,2c2.9,0.2,6.3,0.5,9.1-0.8
		C730.4,655.1,729.4,653.4,728.2,653.9z"/>
	<path class="st63" d="M728.9,656.6c-2.7,1.3-5.7,1.1-8.6,1c-1.3-0.1-1.3,1.9,0,2c3.3,0.2,6.6,0.2,9.6-1.3
		C731.1,657.8,730.1,656,728.9,656.6z"/>
	<path class="st63" d="M729.6,659.3c-2.8,1.7-5.9,2.3-9.1,1.7c-1.3-0.3-1.8,1.7-0.5,1.9c3.7,0.7,7.4,0.1,10.6-1.9
		C731.7,660.4,730.7,658.6,729.6,659.3z"/>
	<path class="st63" d="M731.4,662.3c-2.6,1.9-7.4,3.6-10.6,2.3c-1.2-0.5-1.7,1.5-0.5,1.9c3.7,1.4,9.2-0.3,12.2-2.5
		C733.4,663.3,732.4,661.5,731.4,662.3z"/>
	<path class="st63" d="M733.2,666.1c-3.5,2.2-7.3,3.1-11.3,2.7c-1.3-0.1-1.3,1.9,0,2c4.4,0.4,8.6-0.6,12.4-2.9
		C735.3,667.1,734.3,665.4,733.2,666.1z"/>
	<path class="st63" d="M734.3,669.7c-3.4,2-7,3-10.9,2.8c-1.3-0.1-1.3,1.9,0,2c4.2,0.2,8.3-0.8,11.9-3.1
		C736.4,670.8,735.4,669.1,734.3,669.7z"/>
	<path class="st63" d="M735,673.4c-3,2-6.3,2.9-9.9,2.7c-1.3-0.1-1.3,1.9,0,2c3.9,0.2,7.7-0.8,10.9-3C737,674.4,736,672.7,735,673.4
		z"/>
	<path class="st63" d="M736.1,676.7c-2,1.5-4.3,2.3-6.9,2.2c-1.3,0-1.3,2,0,2c2.9,0,5.6-0.8,7.9-2.5
		C738.1,677.7,737.1,676,736.1,676.7z"/>
	<path class="st64" d="M641.4,692.6c-0.1-0.4-0.1-0.7-0.2-1.1c0-0.2-0.1-0.4-0.1-0.5c0,0,0,0,0-0.1c0-0.2,0-0.3-0.1-0.5l0,0
		c-0.3-0.5-0.9-0.6-1.4-0.4c-0.4,0.2-0.5,0.5-0.5,0.8c0,0.1,0,0.2,0,0.3c0.1,0.3,0.2,0.7,0.3,1c0.2,1.2,0.4,2.5,0.6,3.7
		c0.2,1.3,2.1,0.7,1.9-0.5C641.7,694.5,641.5,693.6,641.4,692.6z"/>
	<path class="st64" d="M644.5,690.2c-0.4-1.2-2.4-0.7-1.9,0.5c0.4,1.2,0.7,2.5,0.8,3.8c0.1,1.3,2.1,1.3,2,0
		C645.3,693,645,691.6,644.5,690.2z"/>
	<path class="st64" d="M648.4,688.3c-0.5-1.2-2.2-0.2-1.7,1s0.8,2.4,0.8,3.7s2,1.3,2,0C649.4,691.4,649,689.8,648.4,688.3z"/>
	<path class="st64" d="M652.3,687.1c-0.4-1.2-2.3-0.7-1.9,0.5c0.5,1.4,0.8,2.8,1,4.3c0.2,1.3,2.1,0.7,1.9-0.5
		C653.1,690,652.8,688.5,652.3,687.1z"/>
	<path class="st64" d="M716.8,698c-0.4-1.2-2.3-0.7-1.9,0.5c0.5,1.7,0.6,3.4,0.4,5.1c-0.1,1.3,1.9,1.3,2,0
		C717.5,701.7,717.4,699.8,716.8,698z"/>
	<path class="st64" d="M720.3,697.1c-0.4-1.2-2.4-0.7-1.9,0.5c0.6,1.6,0.7,3.2,0.3,4.8c-0.3,1.2,1.6,1.8,1.9,0.5
		C721.1,701,721,699,720.3,697.1z"/>
	<path class="st64" d="M724.5,695.8c-0.5-1.2-2.2-0.2-1.7,1c0.5,1.1,0.6,2.3,0.3,3.5c-0.3,1.2,1.6,1.8,1.9,0.5
		C725.4,699,725.3,697.4,724.5,695.8z"/>
	<path class="st64" d="M727.9,694.3c-0.8-1-2.2,0.4-1.4,1.4c0.9,1.1,1.1,2.6,0.7,4c-0.4,1.2,1.5,1.8,1.9,0.5
		C729.8,698.1,729.3,695.9,727.9,694.3z"/>
	<path class="st61" d="M664.1,414.2c-0.3-3.8-0.6-7.5-1.1-11.3c-0.7-4.8-2.3-9.5-2.2-14.4c0-1.3-2-1.3-2,0c-0.1,4.5,1.2,8.7,2,13.1
		c0.1,0.9,0.3,1.7,0.4,2.6c-3-1.2-5.7-1.6-7.1-5.2c-1.3-3.3-2.2-6.8-2.6-10.3c-0.1-1.3-2.1-1.3-2,0c0.4,4,1.4,8.4,3.1,12.1
		c1.9,3.9,5,3.9,8.6,5.6c0.1,0,0.2,0,0.2,0.1c0.3,3.2,0.6,6.4,0.8,9.5c0.2,2.1,0.3,4.2,0.5,6.3c-8.8,1.5-17.3,3.7-25.8,6.4
		c-1.2,0.4-0.7,2.3,0.5,1.9c8.3-2.8,16.8-4.9,25.5-6.4c0.1,0.6,0.2,1.3,0.2,1.9c-5,0.5-9.9,3.2-14.5,5.1c-1.2,0.5-0.7,2.4,0.5,1.9
		c4.5-1.9,9.3-4.7,14.2-5.1c0.6,4.5,1.3,8.9,2.1,13.3c0.3,1.3,2.2,0.7,1.9-0.5C665.7,432.1,664.7,423.2,664.1,414.2z"/>
	<path class="st61" d="M652.5,410.9c-9.2,0.6-18.3,0.1-27.4-1.5c-1.3-0.2-1.8,1.7-0.5,1.9c9.3,1.6,18.6,2.1,28,1.5
		C653.8,412.9,653.8,410.9,652.5,410.9z"/>
	<path class="st61" d="M649.3,415.5c-7.1,0.1-14.1-0.2-21.1-1c-1.3-0.1-1.3,1.9,0,2c7,0.8,14,1.2,21.1,1
		C650.6,417.5,650.6,415.5,649.3,415.5z"/>
	<path class="st61" d="M700.1,411c-8.9-0.3-17.8-0.1-26.7,0.6c-1.3,0.1-1.3,2.1,0,2c8.9-0.8,17.8-1,26.7-0.6
		C701.4,413,701.4,411,700.1,411z"/>
	<path class="st61" d="M701.7,414.4c-8.5,1.9-17.1,2.4-25.8,1.6c-1.3-0.1-1.3,1.9,0,2c8.9,0.9,17.6,0.3,26.3-1.7
		C703.4,416.1,702.9,414.1,701.7,414.4z"/>
	<path class="st61" d="M722.5,413.8c-6.5-0.3-14.3-0.8-16.2-8.3c-1.5-5.8-2.5-11.8-3-17.8c-0.1-1.3-2.1-1.3-2,0
		c0.4,3.9,0.9,7.9,1.7,11.7c0.7,3.6,1.1,8.4,3.3,11.5c3.3,4.5,11.3,4.6,16.3,4.9C723.8,415.8,723.8,413.8,722.5,413.8z"/>
	<path class="st61" d="M721.3,407.6c-5.2,0.1-9.7-0.6-11-6.3c-1-4.3-1.6-8.8-2-13.2c-0.1-1.3-2.1-1.3-2,0c0.6,5.3,0.6,12.4,3.2,17.2
		c2.2,4.1,7.7,4.4,11.9,4.4C722.6,409.6,722.6,407.6,721.3,407.6z"/>
	<path class="st61" d="M699.8,485.1c-7,0.2-13.9,1.1-20.7,2.8c-1.3,0.3-0.7,2.2,0.5,1.9c6.6-1.6,13.3-2.5,20.2-2.7
		C701.1,487.1,701.1,485.1,699.8,485.1z"/>
	<path class="st61" d="M694.1,490.4c-4.6,0.3-9.2,0.6-13.8,0.9c-1.3,0.1-1.3,2.1,0,2c4.6-0.3,9.2-0.6,13.8-0.9
		C695.4,492.3,695.4,490.3,694.1,490.4z"/>
	<path class="st61" d="M716,529.6c-8.4-1.2-16-4.2-23-9c-1.1-0.7-2.1,1-1,1.7c7.1,4.8,15,7.9,23.5,9.2
		C716.7,531.7,717.2,529.8,716,529.6z"/>
	<path class="st61" d="M708.6,530.8c-3-0.1-6-0.2-8.5-2.1c-1-0.8-2,1-1,1.7c2.7,2.1,6.2,2.3,9.5,2.4
		C709.8,532.9,709.8,530.9,708.6,530.8z"/>
	<path class="st61" d="M642,531.5c-5.3-1-9.7-3.7-13.1-7.9c-0.8-1-2.2,0.4-1.4,1.4c3.5,4.4,8.4,7.3,14,8.4
		C642.7,533.6,643.2,531.7,642,531.5z"/>
	<path class="st61" d="M643.9,535.6c-4.1-0.3-7.8-1.6-11.1-4c-1.1-0.7-2.1,1-1,1.7c3.6,2.6,7.7,4,12.1,4.3
		C645.1,537.7,645.1,535.7,643.9,535.6z"/>
	<path class="st61" d="M650.5,618.6c-4.7,2.6-9.8,3.3-15,2.1c-1.2-0.3-1.8,1.6-0.5,1.9c5.7,1.4,11.4,0.6,16.6-2.3
		C652.6,619.7,651.6,618,650.5,618.6z"/>
	<path class="st61" d="M650.5,615c-4,1.3-8,2-12.2,2.1c-1.3,0-1.3,2,0,2c4.3-0.1,8.6-0.8,12.7-2.2
		C652.3,616.5,651.8,614.6,650.5,615z"/>
	<path class="st61" d="M733,623.4c-6.5,4.2-14.1,3.5-21.5,2.6c-1.3-0.2-1.3,1.9,0,2c7.8,0.9,15.6,1.5,22.5-2.9
		C735.1,624.4,734.1,622.7,733,623.4z"/>
	<path class="st61" d="M730.1,619.4c-3.6,2.2-7.4,3.3-11.6,3.5c-1.3,0-1.3,2,0,2c4.5-0.2,8.8-1.4,12.6-3.8
		C732.2,620.5,731.2,618.7,730.1,619.4z"/>
	<path class="st52" d="M729.8,644.1c-2.7,1.1-5.4,2.2-8.3,2.9c-1.5,0.3-13.7,2.1-11.3-3.5c0.5-1.2-1.4-1.7-1.9-0.5
		c-1.6,3.8,2.1,6,5.4,6.5c5.8,0.9,11.4-1.2,16.7-3.4C731.5,645.6,731,643.6,729.8,644.1z"/>
	<path class="st52" d="M736.4,636.5c-7,3.2-14.5,2.9-22,1.8c-1.3-0.2-1.8,1.7-0.5,1.9c8,1.2,16,1.4,23.5-2
		C738.6,637.7,737.6,636,736.4,636.5z"/>
	<path class="st52" d="M653.7,638.6c-3.4,1.2-22.3,6.3-21.3-1.9c0.2-1.3-1.8-1.3-2,0c-1.3,10.6,19.2,5.5,23.8,3.8
		C655.5,640.1,654.9,638.1,653.7,638.6z"/>
	<path class="st52" d="M654.9,628.7c-4.5,4.7-10.7,6.1-16.8,3.8c-1.2-0.4-1.7,1.5-0.5,1.9c6.7,2.5,13.8,0.9,18.8-4.3
		C657.2,629.2,655.8,627.8,654.9,628.7z"/>
	<path class="st65" d="M534.4,241c-1-0.8-2,1-1,1.7c8.2,6.3,9.1,24.5-0.7,29.6c-1.1,0.6-0.1,2.3,1,1.7
		C545.1,268.2,543.7,248.2,534.4,241z"/>
	<path class="st65" d="M556.9,244.8c-0.7-1.1-2.5-0.1-1.7,1c4,5.8,5.1,12.6,3.2,19.4c-0.4,1.2,1.6,1.8,1.9,0.5
		C562.3,258.5,561.1,251,556.9,244.8z"/>
	<path class="st65" d="M559.8,244.6c-1-0.8-2.4,0.6-1.4,1.4c4.3,3.4,6.7,8.2,7,13.7c0.1,1.3,2.1,1.3,2,0
		C567.1,253.7,564.4,248.3,559.8,244.6z"/>
	<path class="st65" d="M550.7,244.6c-0.6-1.1-2.3-0.1-1.7,1c3.3,6.2,6.4,11.9,3,18.9c-0.6,1.2,1.2,2.2,1.7,1
		C557.5,257.8,554.5,251.6,550.7,244.6z"/>
	<path class="st65" d="M546.1,248.8c-0.5-1.2-2.3-0.2-1.7,1c2.8,6.2,2,13-1.9,18.4c-0.8,1,1,2,1.7,1
		C548.6,263.2,549.2,255.6,546.1,248.8z"/>
	<path class="st65" d="M625.9,179.4c0.7-1.1-1-2.1-1.7-1c-6.4,9-7.7,18.7-7.9,29.5c-0.3,12-0.2,24,2.2,35.8c0.3,1.3,2.2,0.7,1.9-0.5
		c-2.2-11-2.4-22.2-2.1-33.4C618.4,198.6,619.3,188.7,625.9,179.4z"/>
	<path class="st65" d="M617.9,243c-7.2-9.4-7.5-21-5.8-32.2c0.2-1.3-1.7-1.8-1.9-0.5c-1.8,11.5-1.5,23.4,5.5,33.1
		c-3.8-2-6.7-5-8.7-8.8c-0.6-1.1-2.3-0.1-1.7,1c2.2,4.3,5.7,7.7,10,9.8c0.8,0.4,1.5-0.3,1.5-1C617.6,244.6,618.6,243.8,617.9,243z"
		/>
	<path class="st65" d="M703.6,276.7c-19.8-7.7-43.1-7-64-7.1c-1.3,0-1.3,2,0,2c20.8,0.1,43.9-0.6,63.5,7
		C704.2,279.1,704.8,277.2,703.6,276.7z"/>
	<path class="st65" d="M687.4,278.8c-15-3.2-30.2-3.8-45.4-1.7c-1.3,0.2-1.3,2.2,0,2c15-2,30-1.5,44.9,1.7
		C688.1,281,688.6,279.1,687.4,278.8z"/>
	<path class="st65" d="M745.5,200.2c-11.1,0.5-18.9,15.1-20.7,24.7c-2.4,12.7-1.6,26.9,5.1,38.2l0,0c-7.6-4.1-9.2-15.5-10.9-23.2
		c-0.3-1.3-2.2-0.7-1.9,0.5c1.8,8.2,3.6,20,11.9,24.4c1,0.5,1.8-0.7,1.4-1.4c0.8,0.4,1.9-0.4,1.3-1.4c-5.6-9.5-6.6-20.6-5.6-31.3
		c0.5-5.9,1.9-11.4,5.1-16.6c3.1-5.2,7.8-11.6,14.4-12C746.8,202.2,746.8,200.2,745.5,200.2z"/>
	<path class="st65" d="M726.9,263.7c-5.7-0.5-9.3-5.1-12.4-9.4c-0.7-1-2.5,0-1.7,1c3.6,4.9,7.6,9.8,14.1,10.4
		C728.2,265.8,728.2,263.8,726.9,263.7z"/>
	<path class="st65" d="M760.1,244.9c-5.5,0.3-10.7,2-15.3,5.1c-1.1,0.7-0.1,2.4,1,1.7c4.3-2.9,9.1-4.5,14.3-4.8
		C761.4,246.8,761.4,244.8,760.1,244.9z"/>
	<path class="st65" d="M761.6,247.5c-4.3,1-8.2,3-11.7,5.7c-1,0.8,0.4,2.2,1.4,1.4c3.2-2.6,6.8-4.3,10.8-5.2
		C763.3,249.1,762.8,247.2,761.6,247.5z"/>
	<path class="st65" d="M771.7,316.9c-6.1,2.8-12.5,4-19.2,3.8c-1.3,0-1.3,2,0,2c7,0.2,13.8-1.2,20.2-4.1
		C773.9,318.1,772.9,316.4,771.7,316.9z"/>
	<path class="st65" d="M769.1,322.5c-5.1,2.3-10.6,2.7-16,1.2c-1.2-0.3-1.8,1.6-0.5,1.9c6,1.6,11.9,1.1,17.6-1.4
		C771.3,323.7,770.3,322,769.1,322.5z"/>
	<path class="st65" d="M778.2,336.8c-6.4,3.1-13.3,3.3-19.8,0.9c-1.2-0.4-1.7,1.5-0.5,1.9c7.1,2.6,14.6,2.2,21.4-1.1
		C780.4,338,779.4,336.2,778.2,336.8z"/>
	<path class="st65" d="M780.2,330.4c-6.7,2.6-18.4,5.7-25.2,1.6c-1.1-0.7-2.1,1.1-1,1.7c7.2,4.4,19.4,1.4,26.7-1.4
		C781.9,331.9,781.4,330,780.2,330.4z"/>
	<path class="st65" d="M726.7,373.3c-16.7,6.8-34.7,8.8-52.6,7.8c-9.4-0.5-18.7-1.7-27.9-3.3c-8.6-1.5-17-3.3-24.4-8
		c-1.1-0.7-2.1,1-1,1.7c7.3,4.6,15.6,6.6,24,8.1c9.1,1.6,18.2,2.9,27.5,3.5c18.7,1.2,37.5-0.6,55-7.8
		C728.4,374.7,727.9,372.8,726.7,373.3z"/>
	<path class="st65" d="M701.4,170.2c-5.6,10.7-17.5,13.9-28.7,15.2c-5.2,0.6-10.6,1.2-15.8,0.4c-6.1-0.9-19-7.4-12.2-15.2
		c0.8-1-0.6-2.4-1.4-1.4c-3.6,4.2-2.4,9.5,1.3,13.3c5,5,12.5,5.9,19.2,5.7c14.3-0.5,31.9-2.9,39.3-16.9
		C703.8,170,702,169,701.4,170.2z"/>
	<path class="st66" d="M660.9,48.9c-3,3.6-6.5,7.2-11.1,8.4c-4.4,1.2-9.1-0.7-13.4,1.1c-8.4,3.5-9.7,14.5-20.8,12.7
		c-1.3-0.2-1.8,1.7-0.5,1.9c3.8,0.6,7.5,0.1,10.8-2.1c3.8-2.5,5.7-6.9,9.4-9.5c4.9-3.4,11.1-0.6,16.5-2.7c4.3-1.6,7.7-5,10.5-8.4
		C663.1,49.3,661.7,47.9,660.9,48.9z"/>
	<path class="st66" d="M652,44.8c-3.6,3.4-8.1,5.4-13.1,5.5c-2.7,0-5.2-0.6-7.6,0.8c-2.1,1.2-3.2,3.1-4.6,5c-3.3,4.5-7.1,7.1-12.9,7
		c-1.3,0-1.3,2,0,2c3.3,0,6.4-0.6,9.2-2.4c3.2-2,4.4-5.2,7-7.8c3.9-3.9,9.5-2.1,14.4-3.5c3.4-1,6.3-2.8,9-5.2
		C654.4,45.4,653,44,652,44.8z"/>
	<path class="st66" d="M687.4,82.4c0.7-3.3,2.7-6.2,4.9-8.6c0.9-0.9-0.5-2.4-1.4-1.4c-2.8,3-5.5,7-5.8,11.3
		c-0.3,4.2,2.6,7.2,5.6,9.8c1,0.8,2.4-0.6,1.4-1.4C689.1,89.5,686.5,86.8,687.4,82.4z"/>
	<path class="st66" d="M696,79.6c1-0.8-0.4-2.2-1.4-1.4c-4.3,3.5-4.4,9.8-0.3,13.5c1,0.9,2.4-0.6,1.4-1.4
		C692.3,87.3,692.5,82.5,696,79.6z"/>
</g>
</svg>
