<svg id="Layer_1" data-name="Layer 1" xmlns="http://www.w3.org/2000/svg" xmlns:xlink="http://www.w3.org/1999/xlink" viewBox="0 0 924.8 858.2"><defs><style>.cls-1{fill:none;}.cls-2{fill:#035693;}.cls-3{fill:#333;}.cls-3,.cls-4,.cls-5{opacity:0.14;}.cls-16,.cls-24,.cls-25,.cls-26,.cls-27,.cls-3,.cls-32,.cls-33,.cls-4,.cls-9{isolation:isolate;}.cls-4,.cls-6{fill:#1a1a1a;}.cls-7{fill:#999;}.cls-32,.cls-33,.cls-8{fill:#fff;}.cls-37,.cls-38,.cls-9{fill:#007cc7;}.cls-9{opacity:0.1;}.cls-10{fill:#fbd5af;}.cls-11{fill:#fff4d6;}.cls-12{fill:#f3a769;}.cls-13{fill:#472516;}.cls-14{fill:#f28561;}.cls-15{fill:#fda689;}.cls-16,.cls-27{fill:#b94a00;}.cls-16{opacity:0.09;}.cls-17{fill:#633625;}.cls-18{fill:#331318;}.cls-19,.cls-24,.cls-25,.cls-26{fill:#182149;}.cls-20{fill:url(#SVGID_1_);}.cls-21,.cls-22{stroke-miterlimit:10;}.cls-21{stroke-width:0.63px;fill:url(#SVGID_7_);stroke:url(#SVGID_8_);}.cls-22{stroke-width:0.54px;fill:url(#SVGID_9_);stroke:url(#SVGID_10_);}.cls-23{fill:#063c70;}.cls-24{opacity:0.13;}.cls-25{opacity:0.29;}.cls-26{opacity:0.54;}.cls-27{opacity:0.11;}.cls-28{fill:#ddd4cf;}.cls-29{fill:#f0ecea;}.cls-30{fill:#e6dbd3;}.cls-31{fill:#4198af;}.cls-32,.cls-33,.cls-37{fill-rule:evenodd;}.cls-32{opacity:0.5;}.cls-33{opacity:0.2;}.cls-34{fill:#666;}.cls-35{fill:#072439;}.cls-36{opacity:0.3;}</style><pattern id="SVGID_1_" data-name="SVGID 1 " width="134" height="134" patternTransform="translate(-7498.58 8294.93) scale(0.53)" patternUnits="userSpaceOnUse" viewBox="0 0 134 134"><rect class="cls-1" width="134" height="134"/><rect class="cls-1" width="134" height="134"/><rect class="cls-1" width="134" height="134"/><rect class="cls-2" width="134" height="134"/><rect class="cls-3" y="105" width="134" height="11"/><rect class="cls-4" y="35" width="134" height="11"/><g class="cls-5"><rect class="cls-6" x="29" width="11" height="134"/></g><g class="cls-5"><rect class="cls-6" x="90" width="11" height="134"/><rect class="cls-7" x="105" width="5" height="134"/></g><g class="cls-5"><rect class="cls-8" y="53" width="134" height="5"/></g></pattern><pattern id="SVGID_7_" data-name="SVGID 7 " width="134" height="134" patternTransform="matrix(0.63, 0.05, -0.05, 0.63, -6078.12, 9607.18)" patternUnits="userSpaceOnUse" viewBox="0 0 134 134"><rect class="cls-1" width="134" height="134"/><rect class="cls-1" width="134" height="134"/><rect class="cls-1" width="134" height="134"/><rect class="cls-2" width="134" height="134"/><rect class="cls-3" y="105" width="134" height="11"/><rect class="cls-4" y="35" width="134" height="11"/><g class="cls-5"><rect class="cls-6" x="29" width="11" height="134"/></g><g class="cls-5"><rect class="cls-6" x="90" width="11" height="134"/><rect class="cls-7" x="105" width="5" height="134"/></g><g class="cls-5"><rect class="cls-8" y="53" width="134" height="5"/></g></pattern><pattern id="SVGID_8_" data-name="SVGID 8 " width="134" height="134" patternTransform="matrix(0.63, 0.05, -0.05, 0.63, -6083.33, 9693.69)" patternUnits="userSpaceOnUse" viewBox="0 0 134 134"><rect class="cls-1" width="134" height="134"/><rect class="cls-1" width="134" height="134"/><rect class="cls-1" width="134" height="134"/><rect class="cls-2" width="134" height="134"/><rect class="cls-3" y="105" width="134" height="11"/><rect class="cls-4" y="35" width="134" height="11"/><g class="cls-5"><rect class="cls-6" x="29" width="11" height="134"/></g><g class="cls-5"><rect class="cls-6" x="90" width="11" height="134"/><rect class="cls-7" x="105" width="5" height="134"/></g><g class="cls-5"><rect class="cls-8" y="53" width="134" height="5"/></g></pattern><pattern id="SVGID_9_" data-name="SVGID 9 " width="134" height="134" patternTransform="translate(-7434.91 8510.67) scale(0.54)" patternUnits="userSpaceOnUse" viewBox="0 0 134 134"><rect class="cls-1" width="134" height="134"/><rect class="cls-1" width="134" height="134"/><rect class="cls-1" width="134" height="134"/><rect class="cls-2" width="134" height="134"/><rect class="cls-3" y="105" width="134" height="11"/><rect class="cls-4" y="35" width="134" height="11"/><g class="cls-5"><rect class="cls-6" x="29" width="11" height="134"/></g><g class="cls-5"><rect class="cls-6" x="90" width="11" height="134"/><rect class="cls-7" x="105" width="5" height="134"/></g><g class="cls-5"><rect class="cls-8" y="53" width="134" height="5"/></g></pattern><pattern id="SVGID_10_" data-name="SVGID 10 " width="134" height="134" patternTransform="translate(-7433.27 8585.23) scale(0.54)" patternUnits="userSpaceOnUse" viewBox="0 0 134 134"><rect class="cls-1" width="134" height="134"/><rect class="cls-1" width="134" height="134"/><rect class="cls-1" width="134" height="134"/><rect class="cls-2" width="134" height="134"/><rect class="cls-3" y="105" width="134" height="11"/><rect class="cls-4" y="35" width="134" height="11"/><g class="cls-5"><rect class="cls-6" x="29" width="11" height="134"/></g><g class="cls-5"><rect class="cls-6" x="90" width="11" height="134"/><rect class="cls-7" x="105" width="5" height="134"/></g><g class="cls-5"><rect class="cls-8" y="53" width="134" height="5"/></g></pattern></defs><title>11-01</title><path class="cls-9" d="M779,210.7a73.51,73.51,0,0,1-9.3-8.4c-18.7-20.2-29.3-48-42.1-72-15.3-28.6-39.4-52.2-63.1-73.3C634.2,30.1,596.6,12.4,557.2,5.1,427.5-19,260,42.9,220.3,183.6,182.1,319,94.7,283.2,20.8,404.4c-.7,1.2-1.5,2.4-2.2,3.6-46.9,80-1.1,183.6,88.2,200.4C289.3,642.7,822,732.1,831,610.8v-4.6a6.15,6.15,0,0,0-.1-1.3v-.2a62.44,62.44,0,0,0-1.2-8.2c-6-27-59.7-38.3-37.7-103.8,13.8-41.2,59-46.8,94-76.1,17.2-14.4,33-46.8,35-69.5,3.2-35.8-16.3-65.8-40.5-89.3C853.4,231.6,809.1,233.4,779,210.7Z"/><path class="cls-10" d="M457.4,852.1c63.6,20,142.7-9.1,152-87.8,4.9-41.6-11.7-83.9-37.7-115.3s-54.2-67.5-89.8-84.5c-94-45-206.1-46.8-307.8-31.7-46.6,6.9-92.9,27.7-125.1,65.7C24.2,627.8,7.7,670.8,22.4,707.4c12.8,31.8,45.6,49.4,77.4,54s64.1-.9,96.1-1.4a312.38,312.38,0,0,1,137.9,29.9C375.6,809.5,413.7,838.4,457.4,852.1Z"/><path class="cls-10" d="M753.9,568.6a364.43,364.43,0,0,0,2-49c-.4-15.1,5.2-29.1,8-43.7a165.54,165.54,0,0,0,2.8-33.7c-.1-17.1-1.9-35.3,6.4-50.2,8.6-15.5,28.8-24.1,45.4-17.8s25.8,24.5,29.2,41.9a114.82,114.82,0,0,1-24.5,94c-5,5.9-10.8,11.7-13.1,19.2-1.9,6.3-.9,13.1-1,19.7-.4,25.9-17.4,49.2-19.2,75-1.5,20.7,6.5,43.2-3.6,61.3-3.2,5.8-8.6,10.8-15.1,12s-14.1-2.4-16-8.8c-1.7-5.8,1.5-11.7,2.8-17.6,3.3-14.5-4.1-29.1-6.9-43.7-3.4-17.8.2-36.2,2.4-54.2A31.28,31.28,0,0,1,753.9,568.6Z"/><path class="cls-8" d="M669.7,467c2.9-8.7,8.3-16.5,16.1-21.3,11.6-7,25.4-4.9,35.1,3.9,10.8,9.8,10.5,23.2,12.6,36.6,3.1,19.5,13.8,37.1,15,56.9.8,13.8-3.2,27.5-2.3,41.3,1.1,16.7,9.2,32,14.5,47.9a143.09,143.09,0,0,1,6.6,33c.5,6.2.1,13.3-4.9,17.1-6.1,4.6-15.4.6-19.6-5.8s-5.1-14.3-7.3-21.6c-7.6-25.1-30.7-42.7-40.6-67.1-4.8-11.8-6.3-24.6-9.6-36.9s-8.4-24-12.4-36.1-6.9-24.8-5.5-37.5A57.24,57.24,0,0,1,669.7,467Z"/><path class="cls-11" d="M757.2,681a18.57,18.57,0,0,0,3.1,7.4,16.92,16.92,0,0,0,2.8,3.2,13.66,13.66,0,0,0,5.6,3.2,15.54,15.54,0,0,0,9.3-.4,4.18,4.18,0,0,0,1-.4,25.16,25.16,0,0,0,9.2-6.6c4-4.5,6.8-10,10-15.2.7-1.1,1.3-2.2,2-3.2,12.8-18.9,35.3-29.5,58-32.5,12.3-1.6,25-1.3,37.1-4.3s24.1-10.4,28.2-22.2-1.5-25-10.6-33c-11.1-9.9-24.1-7.6-37.7-4.3-28.5,6.9-53.1,24.1-75.5,42.3-3.3,2.7-6.7,5.5-9.9,8.3-8.9,7.9-17.3,16.5-23.5,26.5a79.89,79.89,0,0,0-6.5,12.7c-.5,1.1-.8,2.3-1.2,3.4h0a62.28,62.28,0,0,0-1.5,6.2c-.1.4-.1.8-.2,1.2s-.1.5-.1.8h0A31.26,31.26,0,0,0,757.2,681Z"/><path class="cls-10" d="M694.9,684.2V788.6a49.8,49.8,0,0,0,49.8,49.8h53a49.8,49.8,0,0,0,49.8-49.8V684.2A13.21,13.21,0,0,0,834.2,671h-126A13.21,13.21,0,0,0,694.9,684.2Z"/><path class="cls-12" d="M753.2,655.4h.2a1.11,1.11,0,0,0,1.1-1.3,99.84,99.84,0,0,0-6.6-28.1c-2-5.3-5.2-10.5-8.4-16.1-5.9-9.9-12.5-21.2-13.8-34.8-.2-2.5-.4-4.9-.6-7.3-1.5-18-2.8-33.5-13.7-54.7-11.8-23.2-11-41.7-11-41.9a1.15,1.15,0,1,0-2.3-.1c0,.8-.8,19.3,11.3,43.1C720,535,721.3,550.3,722.8,568c.2,2.4.4,4.8.6,7.3,1.3,14.2,8.1,25.7,14.1,35.8,3.2,5.5,6.3,10.6,8.3,15.7a100.49,100.49,0,0,1,6.5,27.4C752.1,654.9,752.6,655.3,753.2,655.4Z"/><path class="cls-12" d="M765.2,631.5a1.28,1.28,0,0,0,1.2-1.1s1.2-11.5,2.4-22.6c.6-5.3,2.7-13.5,4.9-22.2,2.3-9,4.7-18.4,5.5-25.2.6-4.7.8-9.2,1-14.4a255.13,255.13,0,0,1,3.7-36.2c2.7-15.3,6-21.2,10.7-29.4a178.7,178.7,0,0,0,10.7-21.3c10.8-25.7,2.8-63.3,2.5-64.9a1.18,1.18,0,1,0-2.3.5c.1.4,8.1,38.5-2.3,63.5a167.7,167.7,0,0,1-10.5,21c-4.8,8.4-8.3,14.4-11,30.1a286.48,286.48,0,0,0-3.8,36.5c-.2,5.2-.5,9.6-1,14.2-.8,6.6-3.2,15.9-5.4,24.8s-4.3,17.1-4.9,22.6c-1.2,11-2.4,22.6-2.4,22.6a1.16,1.16,0,0,0,1.1,1.3C765.1,631.5,765.1,631.5,765.2,631.5Z"/><path class="cls-8" d="M788.6,648.9a1.39,1.39,0,0,0,1-.5c.2-.2,16.9-23,50.5-38.2s61.5-14.3,61.8-14.3a1.1,1.1,0,0,0,1.2-1.2,1.16,1.16,0,0,0-1.2-1.2c-.3,0-28.7-.9-62.8,14.6s-51.3,38.7-51.4,38.9a1.18,1.18,0,0,0,.3,1.7A1.07,1.07,0,0,0,788.6,648.9Z"/><path class="cls-8" d="M663.9,710.5v1.3a3.85,3.85,0,0,0,3,3.8,17.66,17.66,0,0,0,2,.4c9.2,1.3,18.9-.5,27.7-3.3,11.3-3.6,23.1-9,35.2-6.8h.1a11.63,11.63,0,0,1,1.8.4h.1c8.8,2.2,15.2,9.4,23.5,12.9,7.7,3.2,15.7,2.3,23.3-1,9-3.9,16.7-10.7,27-10.1a27,27,0,0,1,4.1.5,3.92,3.92,0,0,0,4.9-3.8v-.2a4,4,0,0,0-2.9-3.8,33.12,33.12,0,0,0-19.9,1.3c-7.6,2.9-14.2,8.7-22.3,10.3-9.9,2-17-4.8-24.7-9.6h0c-.1-.1-.2-.1-.3-.2a39.21,39.21,0,0,0-10.5-4.4h0a29.82,29.82,0,0,0-7.8-1,44.69,44.69,0,0,0-5.2.1c-.8.1-1.6.1-2.5.2-9,1.1-18.1,4.3-27.3,7-8.4,2.5-16.9,3.4-24.6,1.9A4.34,4.34,0,0,0,663.9,710.5Z"/><path class="cls-10" d="M460.4,563.3c23.4,7.4,47.1,16.9,63.8,35,5.2,5.7,9.8,12.4,10.9,20.1,1.1,7.1-.9,14.3-4.2,20.7-4.2,8-10.9,15-19.4,18.2-8.9,3.4-18.8,2.3-28.3,1.3a1400.85,1400.85,0,0,0-168.9-7.2c-19.4.4-39.2,1.1-57.8-4.7-21.8-6.8-40.1-22.1-53.8-40.4-5.4-7.3-10.3-15.3-11.8-24.3-3-18.9,8.1-27.1,24-31a402.85,402.85,0,0,1,58.8-9.7c40.3-3.6,81-1.3,120.8,5.8A519.55,519.55,0,0,1,460.4,563.3Z"/><path class="cls-13" d="M327.4,146.8c2.6-4.5,3.9-9.6,6.9-13.9,5.8-8.3,16.4-11.4,24.5-17.4,3.6-2.7,6.8-6.1,10.4-8.8,8.6-6.5,21.5-8.5,31.7-5.1,5.7,1.9,11,4.9,16.8,6.6s12,2.1,17.9,3.8a45.37,45.37,0,0,1,25,18.2c2.2,3.3,5.4,6.8,6.7,10.6.9,2.8.1,6.9,2.4,8.7,1.8,1.4,5.9,1.2,8.1,2.3a20.32,20.32,0,0,1,7.3,6,23.09,23.09,0,0,1,4.5,16.1c-.3,3.5-1.4,7-1.2,10.5.2,4,2,7.7,2.1,11.7.1,4.3-1.8,8.4-3.6,12.4-7.4,15.9-14.5,31.7-22,47.5-8.3,17.5-19.9,42.7-35.7,54.3-2.1,1.5-5.7-.8-4.2-3.4,5.1-9,10.4-18,15.7-27-6.1,3.1-13.3,5.1-20,7.3-17.3,5.7-41.5,4.1-59.3-.2-13.8-3.3-28.9-9.7-34.8-23.5-6.9-16-4.6-33.9-5.7-50.8-.8-12.6-4.6-14.4-6.8-26.9-.5-2.6-.5-13.8,2.1-22.1C318.5,155.8,323.6,153.2,327.4,146.8Z"/><path class="cls-14" d="M317.5,220.5a15,15,0,0,1,1.9-3.2h0c1.9-3,5.2-5.3,8.8-4.8a5.54,5.54,0,0,1,4,2.2h0c2.6,1.2,4,3.6,2.4,6.8a1.32,1.32,0,0,1-2.2.3,7.94,7.94,0,0,0-1.4-1.7h0c-.4,5.7.8,11.6-.5,17.2-.3,1.1,3.5,11.7,6.6,16.2,1,1.4-.5,3.7-2.2,2.8-.1,0-.1-.1-.2-.1-.6,1.2-2.3,2-3.4,1a5.72,5.72,0,0,1-.7-.8h0a1.22,1.22,0,0,1-1.6.1c-4.2-2.5-8.5-7.5-9.8-12C317,237.8,314.4,227.7,317.5,220.5Z"/><path class="cls-14" d="M454.4,247.9a35.15,35.15,0,0,1,4-6.4,1.55,1.55,0,0,1-1.1-2.1c2.5-5.9,9.9-8.9,15.5-5.3,7.2,4.5,5.3,16,2.2,22.5-3.6,7.6-10.9,15.9-18.6,19.7-6,3-10.4-.2-9.5-6.8C448,262.4,451.3,254.1,454.4,247.9Z"/><path class="cls-15" d="M330,219.4c-1.4,16.1-3.5,39.8-2.6,45.7.9,5.3-1.2,20.8,3.8,31.6,8.5,11,21.2,28.1,26.1,33.5a23.79,23.79,0,0,0,13.2,7.7c4.7,1.1,11.3,2.6,16.1,1.8,2-.4,3.6-1.8,5.2-2.8,4.4-2.7,9-5,13.3-7.7s20.8-13.9,29.1-19.2c5.8-7.6,9.4-23.7,12.9-33.8,5.2-15.1,11.1-27.6,14.9-43,3.5-14.4,3.8-27.8-1-42-3.5-10.3-8.2-25.8-17.1-33.1-12-9.9-26.3-7.4-38.7-.3-9-5-24.9-2-33.6-1-10.8,1.3-25.5,12.9-32.1,22.1,1-4.5,2.4-8.8,5.2-12.3a1.46,1.46,0,0,0-2.2-1.9c-5.8,5.9-5.5,8.5-6.9,16.2A357,357,0,0,0,330,219.4Z"/><path class="cls-15" d="M244.3,397.4a19.13,19.13,0,0,0,4.8.6c-3.1,11.2,1.9,23,9.9,31.2,7.4,7.7,20.2,18.7,31.7,14.9a1.52,1.52,0,0,0-.3-3,38.84,38.84,0,0,1-8.9-2.3c9.8,1.7,19.9,2.5,29.6,3.7,13.9,1.8,27.6,4.1,41.5,6,25.9,3.6,52.6,4.8,78.5.7,2-.3,4-.7,6-1.1a131.93,131.93,0,0,0,14.4-3.7c2.7-.9,5.3-1.8,7.9-2.9a118.71,118.71,0,0,0,11.4-5.4,86.48,86.48,0,0,0,12.4-8.3c10-8.1,7.8-16.7-3.1-19.4l-.2-.2c-5.4-2.9-10.7-5.7-15.9-8.7a148.15,148.15,0,0,1-14.2-9,103.44,103.44,0,0,1-9.7-7.8c-6.8-6.2-8.1-12.4-10.6-21.4-2.6-9.3,6.3-76.7,6.3-76.7l-95.3-8.2s-2.2,38.8-3.6,52c-1,9.7-3.4,21.6-8.4,30.2-4.4,7.5-8.2,11.6-16.1,14.8-11.3,4.6-23,8.5-34.4,12.8-11,4.1-22.5,7.3-33,7A2.15,2.15,0,0,0,244.3,397.4Z"/><path class="cls-13" d="M402.4,204.4c3.1-6.8,12.2-6.5,18.6-5.9,6.1.6,15.5,1.1,19,6.9a3.8,3.8,0,0,1-2.7,5.7c-1.2.2-22.8.2-32.2-1.5A3.65,3.65,0,0,1,402.4,204.4Z"/><path class="cls-13" d="M378.9,209.6c-.1-7-8.1-10.1-13.7-12-5.4-1.8-13.7-4.9-18.9-1.1a3.6,3.6,0,0,0,.2,5.9c.9.6,17.9,7.4,28.2,10.7A3.38,3.38,0,0,0,378.9,209.6Z"/><path class="cls-13" d="M331.2,178.2a2.89,2.89,0,0,1,1.5-3.3,46,46,0,0,1,2.5-4.4c7.8-11.6,23.4-15.5,35.8-17.1,9.3-1.2,19.7-3.2,29.9-3.8-4.4,7.4,22.6-2.3,24.4-2,6.1,1.1,12.4,1.9,17.5,5.7,7.1,5.3,9.5,14.6,15.8,20.7a3.23,3.23,0,0,1,1,1.9,1.93,1.93,0,0,1,1.6,1.3,75.89,75.89,0,0,1,3.3,20.7,2.52,2.52,0,0,1,3.8,1.8,43.39,43.39,0,0,1,.2,12.5,1.76,1.76,0,0,1,1.1,1.6,11.16,11.16,0,0,1-2.3,6.8c0,.2-.1.3-.1.5a3.53,3.53,0,0,1-.2,2c-.1.3-.3.5-.4.8-2,4-6.6,1.2-7.7-1.9-1.9-5.3-.4-10.4-1.1-15.8-.8-5.9-3.3-11.4-6-16.6-2.6-4.9-5.7-10.2-4.7-15.8a28.58,28.58,0,0,1-17.8,2.1c-4.9-1-1.6,3.8-21.8.4-12.8-2.2-17.8-13.6-30.2-9.5-4.7,1.5-11.8,8.1-16,10.5-5.3,2.9-17.9,2.4-18.4,8.4-1.7,20-10,20.3-16.1,20.3-4.7.1,1.5-12.7,1.8-16.9a60.11,60.11,0,0,1,1.3-8.5C330.5,179,331.7,179.5,331.2,178.2Z"/><path class="cls-16" d="M351.3,322.7a19.73,19.73,0,0,0,6.5,15.6c2.9,2.5,7.4,4.3,9.4,7.7s3.7,4.9,7.6,6a21.81,21.81,0,0,0,11.6.5c3.6-1,6.7-3.4,10.1-5,5-2.4,10.7-3.2,16.2-3.3s11.1.9,16.6,0c.6-9.6,1.8-21.5,3-32.1-7.9,6.5-18,14.9-21.3,17.4-4,3.1-8.4,5.9-12.5,9-1.5,1.2-3,2.7-4.9,3.3-4.7,1.4-11.4.5-16.2-.1a24.07,24.07,0,0,1-13.9-6.3C361.2,333,356.5,328.2,351.3,322.7Z"/><path class="cls-14" d="M383.7,268.5c-4.8,3.4-12.6,6.1-11.4-3.7.7-5.3,3.6-11.1,5.2-16.1,3.2-10,7.1-20.3,8.6-30.7.8-5.7.9-12.5-2.1-17.8-2.7-4.8-8-7.4-12.9-9.2-1.3-.5-1.9,1.6-.6,2.1,8.2,3,13,7.3,13.8,16.2,1,11.4-4,23.5-7.4,34.2-1.7,5.5-3.5,10.9-5.3,16.3-1,3.2-3.1,7.2-1.5,10.6,3,6.4,10.7,2.6,14.6-.1,1.2-.7.1-2.6-1-1.8Z"/><path class="cls-14" d="M425.9,252.2a15.13,15.13,0,0,1-16.2-1.5c-.5-.4-1.3.3-.8.8a16.16,16.16,0,0,0,17.5,1.7c.6-.3.1-1.3-.5-1Z"/><path class="cls-14" d="M358,241.6a16.67,16.67,0,0,1-16-2c-.6-.4-1.1.5-.5.9a17.2,17.2,0,0,0,16.8,2.1c.6-.2.3-1.3-.3-1Z"/><path class="cls-17" d="M455.6,150.4c-1-8.6-8.5-14.4-15-19.1-7.9-5.7-17.2-9.8-27-10.5-11.1-.8-22.2,3-33.3,3.7-9,.6-17.9,1.3-25.2,7.1-1.4,1.1.6,3,1.9,1.9,7.1-5.7,16.2-5.8,24.9-6.4,8.9-.6,17.7-3.2,26.6-3.7,9.2-.4,18.1,2.4,26,7,7.1,4.2,17.5,11.1,18.5,20,.1,1.7,2.8,1.7,2.6,0Z"/><path class="cls-17" d="M396.9,134.7c-18.2-.1-34.3,8.7-49.1,18.5-1.5,1-.1,3.3,1.4,2.3,14.4-9.5,30-18.2,47.7-18.1a1.35,1.35,0,0,0,0-2.7Z"/><path class="cls-17" d="M462.1,149.9c-2.9,4.8-7.3,10.5-13.8,8.6-4-1.2-6.9-4.7-9.9-7.4a20.73,20.73,0,0,0-16.4-5.6c-1.7.2-1.7,2.9,0,2.7,6.4-.7,11.2,1.7,15.7,5.9,2.8,2.6,5.5,5.4,9.2,6.7,7.9,2.8,13.8-3.5,17.5-9.6,1-1.4-1.4-2.7-2.3-1.3Z"/><path class="cls-17" d="M422.1,157.9c-13.9-3.7-28.2-7.1-42.3-2.5-1.6.5-.9,3.1.7,2.6,13.6-4.4,27.4-1,40.8,2.5a1.36,1.36,0,0,0,.8-2.6Z"/><path class="cls-17" d="M330.1,162.4a49.28,49.28,0,0,0-4.7,14.5c-.3,1.7,2.3,2.4,2.6.7a48.16,48.16,0,0,1,4.5-13.9c.7-1.5-1.6-2.9-2.4-1.3Z"/><path class="cls-17" d="M342.8,169.6a1.35,1.35,0,0,0,0-2.7,1.35,1.35,0,1,0,0,2.7Z"/><path class="cls-17" d="M350.4,168a1.35,1.35,0,0,0,0-2.7,1.35,1.35,0,0,0,0,2.7Z"/><path class="cls-17" d="M470.3,166.2c4.8,5.9,4,11.8,1.8,18.5-1.8,5.3-.5,10.1,1.3,15.2.6,1.6,3.2.9,2.6-.7-1.5-4.2-2.9-8.5-1.6-13,.8-2.9,2.1-5.3,2.4-8.4a19.09,19.09,0,0,0-4.5-13.5c-1.1-1.4-3.1.5-2,1.9Z"/><path class="cls-17" d="M461.8,185.6c-1.5,7.4,3,13.8,3.3,21.1.1,1.7,2.8,1.7,2.7,0-.3-6.9-4.8-13.5-3.4-20.4.3-1.6-2.3-2.4-2.6-.7Z"/><path class="cls-18" d="M327.2,210.8,326,218s3.2,1.5,3.8,3c.4.8.3,4.1.4,7.5a23.83,23.83,0,0,0,3.4,15.4c3.2,4.9,8.4,8,15,9.1,10.5,1.8,23.6-1.7,28.9-16.8a18,18,0,0,0,1.1-7.3c3.3-.2,12.2-.4,17.3,3.1a17,17,0,0,0-1.3,7.1c-.1,16,11.1,23.6,21.7,25.4,6.6,1.1,12.5-.1,17.1-3.7a23.53,23.53,0,0,0,8.4-13.4c1.3-3.2,2.3-6.3,2.9-7,1.1-1.2,4.6-1.5,4.6-1.5l1.2-7.1c-22.8-7.4-29.5-7.7-29.5-7.7a.31.31,0,0,1,.2.1h-.4c-8.6-.8-14.5-.3-18.6,1.6l.1-.1a87.86,87.86,0,0,0-13.5-4c-5.1-1.1-10.4-.2-13.2.4-3.1-3.6-8.7-6.2-17.8-8.6-.1,0-.2-.1-.4-.1h.2S351.2,211.4,327.2,210.8Zm73.9,19.7c3.2-2.9,9.2-3.8,19.3-2.9.7.1,1.7.2,2.8.4,4,.7,9.7,2.3,13,6.4a12.28,12.28,0,0,1,2.6,9.3c-.6,5.9-3.4,11.3-7.6,14.5-3.9,3-8.8,4-14.5,3-4.4-.8-18.9-4.6-18.8-22C398,235.2,399.1,232.4,401.1,230.5Zm-66.9-4.7c.9-3.6,2.7-6.3,5.5-7.9,4.5-2.7,10.5-2.3,14.4-1.6,1.1.2,2.1.4,2.8.6,9.9,2.5,15.2,5.3,17.3,9.1,1.3,2.4,1.3,5.5,0,9.2-5.7,16.4-20.6,15.2-25,14.5-5.7-1-10-3.6-12.6-7.6A20.89,20.89,0,0,1,334.2,225.8Z"/><polygon class="cls-18" points="448.2 232.1 463.7 227.6 462 235.6 447.1 239.2 448.2 232.1"/><path class="cls-19" d="M327.1,557.2s30.8-97,46.8-154.7,51.9-10.1,119.4-23.5c46.5-9.2,73.2-4.6,79,16.3,9.5,33.8-8.4,131-23.7,165.2Z"/><path class="cls-15" d="M359.6,579.2a12.74,12.74,0,0,0-11.7-9c-17.5-.6-56.3-1.5-68.1,1.9-15.4,4.5-34.2,23.6-39.4,32.5s8.7,11,8.7,11,4.7,5.3,10.5,6.7,12.5-.3,12.5-.3a17.19,17.19,0,0,0,7.8,5c5.1,1.6,21.4-4.4,27.2-5.8s14.6,3.3,30.4,2.6,22.9-16.2,25.1-24C363.8,595,361.6,586,359.6,579.2Z"/><path class="cls-20" d="M558.7,518.6c-.2-1.3-.5-2.6-.8-3.9-.8-3.8-1.5-7.5-2.3-11.1-7.4-35.9-11.7-71.9-21.8-107.1-1.1-3.8-2.2-7.6-4.6-10.7-2.8-3.6-6.9-5.8-11-7.6-18.9-8.7-70.3-24.8-87.3-6.2-4.2,4.6-6.1,10.9-9.9,15.9-8.7,11.8-29.9,3.1-43.6-2s-20.6-5.1-29.5-16.8c-8.4-11.1-17-11.8-30.2-11.6-10.3.1-20.8.9-31.1.5-14.1-.6-27.9,12.2-37.6,21.1q-18.15,16.65-35.1,34.6c-16,17.2-30.9,35.5-43.5,55.4a247.61,247.61,0,0,0-12.7,22.4c-6.4,12.6-3.6,31.7,6.1,42.6,10,11.2,27.1,11.6,42.1,11.3,9.2-.2,18.4-.5,27.5-.7-.4,0-3.1,15.4-1.8,16.8,1.6,1.8,7.4.5,9.8.4H468.6l-2.5.3c-37.5,3.2-72.2,4.5-109.8,2.3-8-.5-6.5,8.9-6.5,10.2-.6,12.2-2.6,25.1-1.7,37.3.6,8.6,5.2,10.7,13,12.5,23.2,5.2,47.5,3.6,71.1,4.1a562.14,562.14,0,0,0,56.6-1.2c12.7-1.1,25.3-2.9,37.9-5.2,6.8-1.3,14-2.9,19.2-7.5,3.5-3.1,5.9-7.4,7.6-11.8,12.2-31.1,8.9-67.9,3.2-99.7-6.7-37.3-12.3-74.2-25.6-109.7-1.9-5.2-4-10.5-8-14.4-4.8-4.7-11.5-6.5-18-8.2-13.5-3.5-35.3-7.1-48.7-10.6-10.2-2.7-22.1-5.1-30.6,1.3-8.8,6.6-10.2,20.4-19.6,26.1-7.5,4.5-17.8,2.5-24.8,7.7"/><path class="cls-21" d="M431.8,342.6c.2-.7.3-3,4.5,9.9s7.1,9.3,6.2,16.1-45.9,47.3-48.2,48-16.3-29.5-20.7-34.1c0,0,.2-5.2,16.8-12C407,363.5,428.9,351,431.8,342.6Z"/><path class="cls-22" d="M331.5,341.7c-.2-.6-2.4-5.2-8.7,5.6s-10.5,6-10.1,11.9,29,52,41.7,53.4c9.4,1.1,22.1-24.1,27.7-27.8,0,0,.2-4.5-18.7-11.5C344.5,366.1,334.1,349.1,331.5,341.7Z"/><path class="cls-23" d="M379.3,395.9c3.3,6.4,6.5,12.4,12.3,16.9,6.7,5.2,12.8-.8,17.7-5.6,12.6-12.3,25.4-26.2,34.4-41.4a1.1,1.1,0,0,0-1.9-1.1c-7.9,13.4-19,25.4-29.8,36.6-2.1,2.2-4.2,4.3-6.4,6.4a38.76,38.76,0,0,1-3.1,2.6q-5.7,4.2-10.8-.3c-4.8-4.3-7.5-9.5-10.5-15.1a1.07,1.07,0,1,0-1.9,1Z"/><path class="cls-23" d="M317.1,374.7a87.19,87.19,0,0,1,10.4,13c2.5,3.7,4.3,8,7.1,11.5,2.7,3.3,6.2,5.9,8.9,9.2,2.4,2.9,4.4,6.6,8.2,7.9,5.4,1.9,9.6-3.8,12.6-7.4a115.77,115.77,0,0,0,12.4-18.6c.6-1.1-1.1-2-1.6-1a137.36,137.36,0,0,1-10.2,15.8,52.58,52.58,0,0,1-6.2,7.1,12.21,12.21,0,0,1-2.5,2c-5,2.2-7.8-2.8-10.2-5.7-4.5-5.5-9.8-9.7-13.4-15.9a98.72,98.72,0,0,0-14.2-19.1c-.8-1-2.1.4-1.3,1.2Z"/><path class="cls-23" d="M522.7,594.4a59.41,59.41,0,0,1,32.5-7.6.8.8,0,0,0,0-1.6,61.63,61.63,0,0,0-33.3,7.8c-.9.5-.1,2,.8,1.4Z"/><path class="cls-23" d="M536.2,597.7a64.64,64.64,0,0,1,22.1-5c1,0,1-1.7,0-1.6a64.67,64.67,0,0,0-22.5,5.1c-1,.4-.5,1.9.4,1.5Z"/><path class="cls-24" d="M301.5,366.7s15.1-18.5,22.5-28.6,19.7-33.7,24.3-31.4-5.1,18.1-2,24.6c2.1,4.4,22.5-3.3,25.5-4.2,4.7-1.4,9.3-2.8,14-4.1,5.8-1.7,11-2.7,16.1-6.2,3.7-2.5,7.4-5.2,10.9-8a2.33,2.33,0,0,1,1.5-.7,2,2,0,0,1,1.6,1.1c1.4,2.5-.2,5.7-2,8-6,8.1-13.8,13.4-22.2,18.7-2.6,1.7-11.9,5.5-12.3,8.9,1.6.2,5.9-.8,7.5,7s-4.6,4.8-1.8,10.7c1.2,2.6,5.2,4.1,6.5,7.9,1,3.1-4.9,6-3.4,9.1,1.7,3.5-7.4,14.2-17.8,18-2.3.8-45,5.7-45,5.7Z"/><path class="cls-25" d="M256.1,509.2c-3.6,6.5-7.1,13.1-11.2,19.2-3.5,5.2-7.4,10.2-10.1,15.8s-4.1,12.2-2.2,18.2c3.3,1.6,7.4.4,10.2-1.9s4.6-5.7,6.1-9c6.5-14,8.7-29.3,15.6-43,17.1-33.9,38.8-65.2,60.3-96.4a15.86,15.86,0,0,1,4.4-4.9,15,15,0,0,1,5.5-1.9c8.5-1.9,17-3.8,25.6-5.7,3.1-.7,6.2-1.4,8.7-3.4s4-5.5,2.6-8.3c-14.7,2.8-44.9,9.1-48.1,9.7a9.34,9.34,0,0,0-2.1,2.7c-10.9,18.2-21.5,36.2-32.8,54C277.3,472.4,266.3,490.6,256.1,509.2Z"/><path class="cls-15" d="M299.3,361.3s15.1-18.5,22.5-28.6,19.7-33.7,24.3-31.4c3.4,1.7-.3,10.1-1,12.5-1.3,4.5-4,11.8.8,15.4a7.45,7.45,0,0,0,3.6,1.3c4.2.5,9.3-1.5,13.3-2.6a149.32,149.32,0,0,0,46-21.7c1.7-1.2,3.6-2.4,5.6-2,4.2.7,2.9,5,1.6,7.4a24.72,24.72,0,0,1-8,9,189.61,189.61,0,0,1-16.4,10.5c-2.8,1.6-5.7,3.1-8.6,4.6-1.6.8-5.5,1.7-5.7,3.8-.8,6.4,5.9-.8,7.5,7s-4.6,4.8-1.8,10.7c1.2,2.6,5.2,4.1,6.5,7.9,1,3.1-4.9,6-3.4,9.1,1.7,3.5-4.9,11.3-15.3,15.1-2.3.8-47.5,8.5-47.5,8.5Z"/><path class="cls-26" d="M488,534.7c-3.2-19.4-11.7-39.5-17-58.5s-12.7-48.9-8.9-68.2c-1.9,9.8-4.5,17.8-4.2,28,.3,11.3.6,22.6,1.7,33.9a316.79,316.79,0,0,0,14,67.4c1.7,5.3,3.8,7.7,2.5,13.1-1.5,6.7-4.8,9.8-14.9,11.9,17.7-1,22.9-3.3,32.7-6.6C492.5,544.3,489.3,542.7,488,534.7Z"/><path class="cls-14" d="M376.4,298.2c-4.3-1.5-8.6-2.9-12.9-4.4a9.38,9.38,0,0,1-1.5-.6,5,5,0,0,1-1.4-1.5,5.13,5.13,0,0,1-1-2.4,1.09,1.09,0,0,1,.5-1.3,4.05,4.05,0,0,1,1.1,0h1.2a16.41,16.41,0,0,1,2.3.2,37.35,37.35,0,0,1,4.6.9,35.55,35.55,0,0,1,9,3.7,36.22,36.22,0,0,1,4.1,2.7c.6.5,1.3,1,1.9,1.5.2.1,1.6,1.6,1.7,1.6C383.1,300.2,379.5,299.3,376.4,298.2Z"/><path class="cls-13" d="M349.2,227.8c-.1.1-.2.2-.3.2a3.47,3.47,0,0,0-1,2.5,3.74,3.74,0,0,0,1,2.5,4.07,4.07,0,0,0,2.5,1.1,3.41,3.41,0,0,0,2.5-1.1c.1-.1.2-.2.3-.2a3.47,3.47,0,0,0,1-2.5,3.74,3.74,0,0,0-1-2.5,4.07,4.07,0,0,0-2.5-1.1,3.84,3.84,0,0,0-2.5,1.1Z"/><path class="cls-13" d="M418.2,241.6a4.59,4.59,0,0,0-1.1-4.2,3.52,3.52,0,0,0-3.9-.7A3.78,3.78,0,0,0,411,240v.9c2.2-.6,4.4-1.2,6.7-1.8V239c.2.6.3,1.2.5,1.8v-.1c0,.3-.1.6-.1.9v-.1a3.55,3.55,0,0,1-.4.9v-.1c-.2.2-.4.5-.6.7a.1.1,0,0,1,.1-.1c-.2.2-.5.4-.7.6a.1.1,0,0,0,.1-.1c-.6.2-1.2.3-1.8.5h.1a3.41,3.41,0,0,0,2.5-1.1,3.62,3.62,0,0,0,0-5,3.41,3.41,0,0,0-2.5-1.1,3.61,3.61,0,0,0-2,.6,3.76,3.76,0,0,0-1.4,1.4,4.49,4.49,0,0,0-.5,1.9,4.55,4.55,0,0,0,.5,2c.2.2.4.5.6.7a1.9,1.9,0,0,0,1.1.7,3.47,3.47,0,0,0,4.9-3.2v-.9c-2,.8-4.1,1.7-6.1,2.5l.1.1c-.2-.2-.4-.5-.6-.7a.1.1,0,0,0,.1.1,3.55,3.55,0,0,0-.4-.9.35.35,0,0,0,.1.2c0-.3-.1-.6-.1-.9v.1c0-.3.1-.6.1-.9v.1a4,4,0,0,0,.4,2.8,3.75,3.75,0,0,0,2.1,1.6,3.46,3.46,0,0,0,4.4-2.4Z"/><path class="cls-14" d="M402.4,197.4c3.6-5.8,11.5-5.4,17.4-4.2.7.1,1-.9.3-1-6.5-1.2-14.7-1.5-18.6,4.8-.4.4.5,1,.9.4Z"/><path class="cls-14" d="M403.2,192.8a9.21,9.21,0,0,1,4.3-2.4.52.52,0,1,0-.3-1,10.9,10.9,0,0,0-4.8,2.7c-.5.4.3,1.2.8.7Z"/><path class="cls-14" d="M378.3,191.4a23.86,23.86,0,0,1,7.7,3.7c.6.4,1.1-.5.5-.9a23.83,23.83,0,0,0-8-3.9c-.6-.2-.9.9-.2,1.1Z"/><path class="cls-27" d="M416,311.5a24.72,24.72,0,0,1-8,9A189.61,189.61,0,0,1,391.6,331c-2.8,1.6-5.7,3.1-8.6,4.6-1.6.8-5.5,1.7-5.7,3.8-.8,6.4,5.9-.8,7.5,7s-4.6,4.8-1.8,10.7c1.3,2.6,5.2,4.1,6.5,7.9,1,3.1-4.9,6-3.4,9.1,3.2,6.6-15.4,18.9-20.2,14.3a4,4,0,0,1-1.1-2c-2.8-7.6-2.8-16-4.8-23.9-1.5-6.1-4.6-12.5-9.9-16-2.6-1.8-5.5-1.3-8.1-3a15,15,0,0,1-5.5-7.6c-1.6-4.7-1.1-10,.4-14.8a67.15,67.15,0,0,1,6.5-13.5c.8-1.4,1.6-2.9,2.5-4.3a14.31,14.31,0,0,1,1.1-1.5c1.9,2.6-1.2,9.7-1.8,11.8-1.3,4.5-4,11.8.8,15.4a7.45,7.45,0,0,0,3.6,1.3c4.2.5,9.3-1.5,13.3-2.6a147.32,147.32,0,0,0,46-21.8c1.7-1.2,3.6-2.4,5.6-2C418.6,304.9,417.2,309.2,416,311.5Z"/><path class="cls-28" d="M366.6,424.8a4.65,4.65,0,1,1,4.6-4.7A4.61,4.61,0,0,1,366.6,424.8Z"/><path class="cls-28" d="M366.8,469.4a4.65,4.65,0,1,1-4.6,4.7A4.61,4.61,0,0,1,366.8,469.4Z"/><path class="cls-28" d="M367.1,523.3a4.65,4.65,0,1,1-4.6,4.7A4.61,4.61,0,0,1,367.1,523.3Z"/><path class="cls-23" d="M374.6,405.4q.3,71.55.4,143.1a1.1,1.1,0,0,0,2.2,0q-.15-71.55-.4-143.1a1.1,1.1,0,0,0-2.2,0Z"/><path class="cls-23" d="M298.7,467.2a225.39,225.39,0,0,0,24.6,1.4c8.1,0,16.9-1.6,24.9.1-.3-.5-.5-.9-.8-1.4-.2,1.5.4,3.3,0,4.6-.9,3.6-3.4,3.1-6.4,2.8-5.7-.6-11.4-1-17.2-1.3-5.4-.3-10.8-.5-16.2-.5H300c-1.1,0-3.5.4-4.7.1-1.5-.5-4.9-4.7-2.8-6a1.1,1.1,0,0,0-1.1-1.9c-3.4,2-5.7,5.5-2,8.6,2.8,2.3,7.3,1.4,10.5,1.4,4.8-.1,9.6,0,14.3.1,9.6.2,19.1,1,28.6,1.9,2.3.2,4.6.5,6.1-1.6s.2-5.2.5-7.6a1.14,1.14,0,0,0-.8-1.4c-7.7-1.6-15.8-.2-23.5-.2a234,234,0,0,1-26.5-1.4c-1.3,0-1.3,2.2.1,2.3Z"/><path class="cls-23" d="M286.8,480.1a13.05,13.05,0,0,0,.4,5.9,1.09,1.09,0,0,0,2.1-.6,12.35,12.35,0,0,1-.4-4.7c.2-1.4-1.9-2-2.1-.6Z"/><path class="cls-23" d="M288.8,490.5a.64.64,0,0,1-.6,0,1.07,1.07,0,0,0-1.6.7,10.74,10.74,0,0,0,.2,5.9c.5,1.3,2.6.8,2.1-.6a8.37,8.37,0,0,1-.2-4.7,11.11,11.11,0,0,0-1.6.7,2.58,2.58,0,0,0,2.8,0c1.2-.8.1-2.7-1.1-2Z"/><path class="cls-23" d="M287.5,503.8a11.09,11.09,0,0,0,.4,6.5c.5,1.3,2.6.7,2.1-.6a8.73,8.73,0,0,1-.4-5.3c.3-1.4-1.8-2-2.1-.6Z"/><path class="cls-23" d="M345.6,483.2a37.77,37.77,0,0,0-.3,8.2c.1,1.4,2.3,1.4,2.2,0a33.08,33.08,0,0,1,.2-7.7c.3-1.3-1.9-1.9-2.1-.5Z"/><path class="cls-23" d="M344.9,502.3a15.32,15.32,0,0,0,.4,6.4,1.09,1.09,0,1,0,2.1-.6,13.12,13.12,0,0,1-.4-5.2c.2-1.4-1.9-2-2.1-.6Z"/><path class="cls-23" d="M345.3,514.7c-.2,1.4-.4,2.8-.5,4.2-.1.6.6,1.1,1.1,1.1.7,0,1-.5,1.1-1.1.2-1.4.4-2.8.5-4.2.1-.6-.6-1.1-1.1-1.1a1.18,1.18,0,0,0-1.1,1.1Z"/><path class="cls-23" d="M337,529c-1.1,1.4-2.1,2.8-3.2,4.2-.9,1.1,1.1,2.2,1.9,1.1,1.1-1.4,2.1-2.8,3.2-4.2.9-1.2-1-2.3-1.9-1.1Z"/><path class="cls-23" d="M325.3,537.5c-.4.2-.7.3-1.1.5a1.1,1.1,0,1,0,1.1,1.9c.4-.2.7-.3,1.1-.5a1.1,1.1,0,0,0-1.1-1.9Z"/><path class="cls-23" d="M313.2,536.3h-2.1a1.1,1.1,0,0,0,0,2.2h2.1a1.1,1.1,0,0,0,0-2.2Z"/><path class="cls-23" d="M323.8,501c-2.5,4.2-4.9,8.5-7.4,12.7a1.1,1.1,0,0,0,1.9,1.1c2.5-4.2,4.9-8.5,7.4-12.7a1.1,1.1,0,1,0-1.9-1.1Z"/><path class="cls-23" d="M324,490.1a75.17,75.17,0,0,0-9.1,14.5c-.6,1.3,1.3,2.4,1.9,1.1a73.85,73.85,0,0,1,8.8-14.1c.8-1-.7-2.6-1.6-1.5Z"/><path class="cls-23" d="M408.8,494.1a103.7,103.7,0,0,0,57.6,45,1.09,1.09,0,1,0,.6-2.1,101.16,101.16,0,0,1-56.3-44,1.1,1.1,0,0,0-1.9,1.1Z"/><path class="cls-23" d="M432.5,536.8c2.6,1.4,5.3,2.8,7.9,4.2a1.1,1.1,0,1,0,1.1-1.9c-2.6-1.4-5.3-2.8-7.9-4.2a1.1,1.1,0,1,0-1.1,1.9Z"/><path class="cls-23" d="M481.4,386.2a43.88,43.88,0,0,1,23.1-12.3c1.4-.3.8-2.4-.6-2.1a45.94,45.94,0,0,0-24.1,12.9c-.9.9.6,2.5,1.6,1.5Z"/><path class="cls-23" d="M494.5,553.8a6.89,6.89,0,0,1,.8.3c-.1.5-.3,1-.4,1.5,2-1.1,5.6-.8,7.8-1,2.6-.2,5.1-.2,7.7-.2a108.46,108.46,0,0,1,17,1.5c1.4.2,2-1.9.6-2.1a114.56,114.56,0,0,0-18.5-1.6c-4.5,0-11.6-.7-15.6,1.5a1.13,1.13,0,0,0-.4,1.5c0,.1.1.2.2.3a1,1,0,0,0,1.2.5c.1,0,.2,0,.2-.1,1.3-.4.7-2.6-.6-2.1Z"/><path class="cls-23" d="M492.7,560.7a78.14,78.14,0,0,1,21.4,3.7,1.09,1.09,0,0,0,.6-2.1,78.63,78.63,0,0,0-22-3.7c-1.4-.1-1.4,2.1,0,2.1Z"/><path class="cls-23" d="M189.7,468.5a666,666,0,0,0,54.8-47.3c1-1-.5-2.5-1.6-1.6a685.73,685.73,0,0,1-54.8,47.3c-1.1.9.5,2.4,1.6,1.6Z"/><path class="cls-23" d="M189.3,462.2a160.13,160.13,0,0,0,14.9-13.7c1-1-.6-2.6-1.6-1.6a161.25,161.25,0,0,1-14.9,13.7c-1,.9.5,2.5,1.6,1.6Z"/><path class="cls-10" d="M475,561l-6.1.9-32.8,2.7-121.4.8c-4.8-6.9-2.9-18.9-2.9-18.9V528.3c63.4,0,136.4,22.2,155.3,28.9C467.9,557.5,474.4,560.7,475,561Z"/><rect class="cls-29" x="226.2" y="524.1" width="88.6" height="106.7"/><ellipse class="cls-29" cx="270.5" cy="524.1" rx="44.3" ry="14"/><path class="cls-30" d="M234.6,525.4c0-5.9,16.1-10.7,35.9-10.7s35.9,4.8,35.9,10.7-16.1,10.7-35.9,10.7S234.6,531.3,234.6,525.4Z"/><ellipse class="cls-29" cx="270.5" cy="631.3" rx="44.3" ry="14"/><path class="cls-29" d="M319.5,618.3H300.4V606.1h19.1a15.83,15.83,0,0,0,15.8-15.8V574.5a15.83,15.83,0,0,0-15.8-15.8H300.4V546.5h19.1a28,28,0,0,1,28,28v15.8A28,28,0,0,1,319.5,618.3Z"/><path class="cls-31" d="M242.3,570a295.57,295.57,0,0,0,2.6,36.4c.3,2.4,3.5,2.1,4.6.6.1-.2.3-.3.4-.5,2-2.6-2.4-5.1-4.4-2.5-.1.2-.3.3-.4.5l4.6.6a274.84,274.84,0,0,1-2.5-35.1c.1-3.3-5-3.3-4.9,0Z"/><path class="cls-31" d="M246.3,575.9c4.9-4.1,11.3-4.5,14.4,1.8,1.8,3.6-.2,8.8-1.6,12.2-2.1,5.6-5.2,10.8-7.9,16.2-1.5,2.9,2.9,5.5,4.4,2.5,4.8-9.5,14.6-23.3,9.1-34.5-4.5-9.1-15.5-7.4-22-1.9C240.2,574.4,243.8,578,246.3,575.9Z"/><path class="cls-31" d="M265.2,615.1c5.2,2.4,8.4-2.4,10.3-8.2.6,2.2,1.4,4.4,2.1,6.5,1,3.1,5.9,1.7,4.9-1.3-2.1-6.3-4.2-12.5-4.4-19.2a2.46,2.46,0,0,0-3.7-2.1,2.27,2.27,0,0,0-3.3.1C267.1,595.2,255.6,610.7,265.2,615.1Zm2.5-10.1a21.35,21.35,0,0,1,2-4,31.26,31.26,0,0,1,2.9-4.2c-.8,5.5-2.7,14.4-5.4,13.4C266.1,609.9,267.5,605.7,267.7,605Z"/><path class="cls-31" d="M289,608.7c6.3,1,8-10.2,8.5-14.3,1.4-10.8-1.5-21.7-3.7-32.2-.6-3.2-5.5-1.8-4.9,1.3,1.3,6.2,2.8,12.4,3.5,18.7C281.5,582.3,278.4,607,289,608.7Zm3.7-21.4v2a31.68,31.68,0,0,1-.7,6.9,16.85,16.85,0,0,1-1.4,4.5c-.3,2.4-.8,2.7-1.6.9C286.1,599.5,288.2,586.6,292.7,587.3Z"/><path class="cls-31" d="M301.4,609c-15.7,13.3-36.6,12.1-55,5.6-3.1-1.1-4.4,3.8-1.3,4.9,20.3,7.1,42.8,7.6,59.9-6.9C307.4,610.5,303.8,607,301.4,609Z"/><path class="cls-32" d="M252.4,468.7a33.39,33.39,0,0,0,2.9-15.9,27.6,27.6,0,0,0-2.6-12c-3.6-6.9-9.4-10.6-16.7-16.1a35.58,35.58,0,0,1,15.4,8.5c8.8,8,12.2,20.9,9.9,32.6-1.6,8.2-6.7,16.6-11.6,23.5-4.1,5.8-6.5,9.4-5.3,16.8.6,3.8,1.9,7.4,2.1,11.3.1,2.9-.9,8.4-4.2,9a18.73,18.73,0,0,0,.5-9.4c-.9-5.3-3.8-8.3-4.3-13.7-.6-5.9-.4-12,2.4-17.3C243.7,480.5,249.8,474,252.4,468.7Z"/><path class="cls-33" d="M279.5,435.6c2.4-4.9,3-10.5,2.9-15.9a27.6,27.6,0,0,0-2.6-12c-3.6-6.9-11.2-10.6-16.7-16.1,5.5,2.2,11.1,4.5,15.4,8.5,8.8,8,10.5,21.5,8.2,33.1a59.62,59.62,0,0,1-9.9,23c-4.1,5.8-6.5,9.4-5.3,16.8.6,3.8,1.9,7.4,2,11.3.1,2.9-.9,8.4-4.2,9a18.73,18.73,0,0,0,.5-9.4c-.9-5.3-2.2-10.6-2.8-16-.6-5.9-.4-12,2.4-17.3C272.3,445.1,276.8,440.9,279.5,435.6Z"/><path class="cls-32" d="M295.6,492a24.23,24.23,0,0,1,2.1,11.6,20.5,20.5,0,0,1-1.9,8.8c-2.6,5.1-8.2,7.8-12.2,11.8,4-1.6,9.5-4.3,12.7-7.2,6.4-5.9,6.3-14.7,4.6-23.2a44.87,44.87,0,0,0-7.2-16.8c-3-4.3-4.7-6.9-3.9-12.3.4-2.8,1.4-5.5,1.5-8.2.1-2.1-.6-6.2-3.1-6.5a12.45,12.45,0,0,1,.3,6.9c-.7,3.9-2.5,8.1-2.9,12.1-.5,4.3-.3,8.8,1.8,12.7C289.5,485.4,293.7,488.1,295.6,492Z"/><path class="cls-34" d="M467.7,673.2s-34.8,53.3-1.3,76.4,190.2,24.5,222.1,5.5,19-79.5-15.2-102.1c-32.1-21.2-88.9-24.5-123,9.1C537,675.4,467.7,673.2,467.7,673.2Z"/><path class="cls-34" d="M562.6,673.5l.3-.1s3.3-24.2-16.3-44.2c0,0-1.3-27.6-3.9-29.3s-15.6,15-18.8,22.4c0,0-20.9,1.6-38.9,8.7-7.8-6.3-24.9-14.8-26.6-12.2s9,28.1,9,28.1c-9.2,26.5,4.1,47,4.1,47Z"/><path class="cls-35" d="M527.4,667.3a8.49,8.49,0,0,1-5-1.6,10.1,10.1,0,0,1-4-6,1.9,1.9,0,0,1,3.7-.9,6.28,6.28,0,0,0,2.5,3.8,4.52,4.52,0,0,0,6.8-1.6,6.27,6.27,0,0,0,.5-4.5,1.9,1.9,0,0,1,3.7-.9,10,10,0,0,1-.9,7.2,8.75,8.75,0,0,1-5.5,4.3A11,11,0,0,1,527.4,667.3Z"/><path class="cls-35" d="M488.4,676.1a9.09,9.09,0,0,1-8.5-7.2,1.9,1.9,0,0,1,3.7-.9c.7,2.9,3.2,4.8,5.7,4.2A4.17,4.17,0,0,0,492,670a5.78,5.78,0,0,0,.5-4.1,1.9,1.9,0,0,1,3.7-.9,10,10,0,0,1-.9,6.8,8.21,8.21,0,0,1-5.2,4.1A8.81,8.81,0,0,1,488.4,676.1Z"/><path class="cls-35" d="M508.4,668.5c-1.6.4-6.4,1.5-4.7,3.8a11,11,0,0,0,3.9,2.7,1.86,1.86,0,0,0,2.1-.4C511.8,672.3,516.4,666.8,508.4,668.5Z"/><path class="cls-35" d="M497,686.5a1.19,1.19,0,0,1-1.2-1,1.15,1.15,0,0,1,1-1.3c.1,0,7.4-1,9.9-4.8a4.73,4.73,0,0,0,.7-4.2,1.16,1.16,0,0,1,.9-1.4,1.09,1.09,0,0,1,1.4.9,7.3,7.3,0,0,1-1.1,6.1c-3.2,4.6-11.2,5.8-11.6,5.8C497.1,686.5,497,686.5,497,686.5Z"/><path class="cls-35" d="M516.8,681.3a11.13,11.13,0,0,1-5.7-1.3,7.23,7.23,0,0,1-3.6-5,1.16,1.16,0,0,1,.9-1.4,1.09,1.09,0,0,1,1.4.9,5.37,5.37,0,0,0,2.5,3.5c4,2.2,11-.1,11-.1a1.16,1.16,0,0,1,1.5.8,1.13,1.13,0,0,1-.8,1.5A29.34,29.34,0,0,1,516.8,681.3Z"/><path class="cls-35" d="M511.8,693.9a14.09,14.09,0,0,1-3.5-.5,1.17,1.17,0,1,1,.8-2.2c.2.1,4.6,1.6,7.1-1.5a1.21,1.21,0,0,1,1.9,1.5A7.93,7.93,0,0,1,511.8,693.9Z"/><path class="cls-34" d="M564.9,759s-22.2,2.5-66.7,20.3-38.2-14.2-12.8-21.5Z"/><path class="cls-34" d="M542.5,747.9c24.5,9.9,27.4,42.5-15,20s-64.1-27.3-64.1-27.3Z"/><path class="cls-34" d="M681.5,741.2s-18.4,23.8-66.3,25.6c-35.4,1.3-27.8,25.3,1.4,20.4,0,0,71-3.3,85.6-45.7S681.5,741.2,681.5,741.2Z"/><path class="cls-35" d="M524,767.3a.73.73,0,0,1-.6-.2c-18.7-11-35.1-7.9-35.2-7.9a1.18,1.18,0,1,1-.5-2.3c.7-.1,17.5-3.3,36.9,8.1a1.08,1.08,0,0,1,.4,1.6A1,1,0,0,1,524,767.3Z"/><path class="cls-35" d="M546.8,752.2a.91.91,0,0,1-.7-.3c-19-15-42.3-11.7-42.5-11.7a1.17,1.17,0,0,1-1.4-1,1.1,1.1,0,0,1,1-1.3c1-.2,24.5-3.5,44.3,12.1a1.25,1.25,0,0,1,.2,1.7A1,1,0,0,1,546.8,752.2Z"/><path class="cls-35" d="M559,771.5h-.3a1.3,1.3,0,0,1-.9-1.4c1.7-7.7-4.9-12.8-4.9-12.9a1.21,1.21,0,1,1,1.5-1.9c.3.2,7.9,6.2,5.8,15.3A1.11,1.11,0,0,1,559,771.5Z"/><path class="cls-35" d="M595.4,772.8a1.42,1.42,0,0,1-.6-.2,1.23,1.23,0,0,1-.4-1.6c.3-.6,4.2-6,28.9-7.7,26.7-1.8,45.7-9,55-20.7a1.21,1.21,0,0,1,1.9,1.5c-9.7,12.3-29.3,19.7-56.7,21.6-23.3,1.6-27,6.5-27,6.5A1.54,1.54,0,0,1,595.4,772.8Z"/><path class="cls-35" d="M598.5,752.2a1.08,1.08,0,0,1-1.1-.8c-4.8-15.3-4.3-28.5,1.4-39.2,7.8-14.7,22.6-19.3,23.2-19.5a1.2,1.2,0,1,1,.7,2.3c-.1,0-14.5,4.5-21.8,18.3-5.4,10.1-5.8,22.7-1.2,37.3a1.24,1.24,0,0,1-.8,1.5A.76.76,0,0,1,598.5,752.2Z"/><path class="cls-35" d="M534.5,704.1a1.08,1.08,0,0,1-1.1-.8,1.24,1.24,0,0,1,.8-1.5c23.9-7.1,25-31.4,25-32.4a1.2,1.2,0,0,1,2.4,0c0,.3-1.2,27-26.7,34.6A.76.76,0,0,1,534.5,704.1Z"/><g class="cls-36"><path class="cls-37" d="M557.1,262.1a16.9,16.9,0,1,1-16.9-16.9A16.88,16.88,0,0,1,557.1,262.1Z"/><path class="cls-37" d="M529.7,262.5a8,8,0,1,1-8-8A8,8,0,0,1,529.7,262.5Z"/><circle class="cls-38" cx="526.04" cy="244.78" r="22.8" transform="matrix(0.29, -0.96, 0.96, 0.29, 139.32, 677.31)"/><path class="cls-37" d="M545.1,268.9a22,22,0,1,1,30,8.1A22.05,22.05,0,0,1,545.1,268.9Z"/><path class="cls-37" d="M521.6,246.2a21.61,21.61,0,1,1,29.5,8A21.59,21.59,0,0,1,521.6,246.2Z"/><path class="cls-37" d="M558.8,247a16.93,16.93,0,1,1,23.1,6.3A16.91,16.91,0,0,1,558.8,247Z"/><path class="cls-37" d="M571.5,257.9a12.93,12.93,0,0,1,4.8-17.6,12.83,12.83,0,1,1-4.8,17.6Z"/><path class="cls-37" d="M549.4,233.5a11.62,11.62,0,0,1,4.3-15.9,11.77,11.77,0,0,1,16,4.3,11.69,11.69,0,0,1-20.3,11.6Z"/></g><g class="cls-36"><path class="cls-37" d="M616.3,111.9c0,10.7-9,19.4-20.2,19.4s-20.2-8.7-20.2-19.4,9-19.4,20.2-19.4S616.3,101.2,616.3,111.9Z"/><path class="cls-37" d="M583.5,112.4a9.5,9.5,0,1,1-9.5-9.2A9.37,9.37,0,0,1,583.5,112.4Z"/><ellipse class="cls-38" cx="579.1" cy="92" rx="27.2" ry="26.2"/><path class="cls-37" d="M601.9,119.7a24.64,24.64,0,0,1,9.7-34.4c12.6-6.9,28.6-2.8,35.8,9.3a24.64,24.64,0,0,1-9.7,34.4C625.1,136,609.1,131.8,601.9,119.7Z"/><path class="cls-37" d="M573.8,93.7a24.36,24.36,0,0,1,9.5-33.9c12.3-6.8,28.1-2.7,35.2,9.2a24.36,24.36,0,0,1-9.5,33.9C596.7,109.7,580.9,105.5,573.8,93.7Z"/><path class="cls-37" d="M618.3,94.6a19,19,0,0,1,7.5-26.5,20.73,20.73,0,0,1,27.6,7.2,19,19,0,0,1-7.5,26.5C636.2,107.1,623.8,103.9,618.3,94.6Z"/><path class="cls-37" d="M633.5,107.1a14.5,14.5,0,0,1,5.7-20.2,15.72,15.72,0,0,1,21,5.5,14.5,14.5,0,0,1-5.7,20.2A15.84,15.84,0,0,1,633.5,107.1Z"/><path class="cls-37" d="M607,79.1a13.16,13.16,0,0,1,5.2-18.3,14.12,14.12,0,0,1,19,5A13.16,13.16,0,0,1,626,84.1,14.34,14.34,0,0,1,607,79.1Z"/></g><g class="cls-36"><path class="cls-37" d="M711.4,234a27.3,27.3,0,1,1-27.3-27.3A27.27,27.27,0,0,1,711.4,234Z"/><path class="cls-37" d="M667.2,234.7a12.9,12.9,0,1,1-12.9-12.9A12.93,12.93,0,0,1,667.2,234.7Z"/><circle class="cls-38" cx="661.3" cy="206.1" r="36.7"/><path class="cls-37" d="M692,244.9A35.39,35.39,0,1,1,740.3,258,35.37,35.37,0,0,1,692,244.9Z"/><path class="cls-37" d="M654.2,208.4a34.8,34.8,0,1,1,47.5,12.9A34.73,34.73,0,0,1,654.2,208.4Z"/><path class="cls-37" d="M714.1,209.8a27.26,27.26,0,1,1,37.2,10.1A27.2,27.2,0,0,1,714.1,209.8Z"/><path class="cls-37" d="M734.6,227.2a20.74,20.74,0,1,1,28.3,7.7A20.69,20.69,0,0,1,734.6,227.2Z"/><path class="cls-37" d="M698.9,188a18.83,18.83,0,1,1,25.7,7A18.76,18.76,0,0,1,698.9,188Z"/></g></svg>