<?xml version="1.0" encoding="utf-8"?>
<!-- Generator: Adobe Illustrator 23.0.2, SVG Export Plug-In . SVG Version: 6.00 Build 0)  -->
<svg version="1.1" id="Layer_1" xmlns="http://www.w3.org/2000/svg" xmlns:xlink="http://www.w3.org/1999/xlink" x="0px" y="0px"
	 viewBox="0 0 643.5 601.5" style="enable-background:new 0 0 643.5 601.5;" xml:space="preserve">
<style type="text/css">
	.st0{fill:#AFC7D7;}
	.st1{opacity:0.1;fill:#007CC7;enable-background:new    ;}
	.st2{opacity:0.55;fill:#6FB1ED;enable-background:new    ;}
	.st3{fill:#FFFFFF;}
	.st4{fill:#FDA589;}
	.st5{fill:#E0585E;}
	.st6{fill:#773232;}
	.st7{fill:#FFBB94;}
	.st8{fill:#787DA1;}
	.st9{fill:#BDA746;}
	.st10{fill:#AB983E;}
	.st11{fill:none;stroke:#917E2C;stroke-width:1.0618;stroke-miterlimit:10;}
	.st12{fill:#2D294C;}
	.st13{fill:#181B2D;}
	.st14{fill:#EBEBEB;}
	.st15{fill:#917E2C;}
	.st16{fill:#F0E6E1;}
	.st17{opacity:0.16;fill:#B94A00;enable-background:new    ;}
	.st18{fill:#F28561;}
	.st19{fill:#9A4545;}
	.st20{fill:#C9C1BD;}
	.st21{fill:#A39F9F;}
	.st22{fill:#422645;}
	.st23{opacity:0.34;}
	.st24{fill:#002042;}
	.st25{fill:#808080;}
	.st26{fill:#CCCCCC;}
	.st27{fill:#472842;}
	.st28{fill:#64455E;}
	.st29{fill:#D5D2E1;}
	.st30{fill:#EAE8F1;}
	.st31{fill:#666666;}
	.st32{fill:#EEDBC2;}
	.st33{fill:#CA344D;}
	.st34{fill:#AAA1BA;}
	.st35{fill:#E6E6E6;}
	.st36{fill:#91D5E5;}
	.st37{fill:#8A7E9E;}
	.st38{fill:#FFF88E;}
	.st39{fill:#007CC7;}
</style>
<path class="st0" d="M102.9,581.4c-2.8-0.3-4.3-0.6-5-0.8s-0.6-0.3-0.4-0.4c0.5-0.1,1.6-0.1-1.1-1.1c2.2,0.5,4.1,0.9,5.2,1.3
	c0.4,0,2,0.2,3.3,0.2c1.4,0,2.5,0,2.2-0.1c0.6,0.3,2.4,0.7,4.8,0.9c2.3,0.2,5.1,0.2,7.7,0.3c5.1,0.1,9.3,0.1,6.9,0.9
	c3.1,0,9.4-0.6,16.4-1.5c7-0.9,14.8-2.1,21.1-3l-3.4,0.8c13.6-0.7,11.5-2.4,19.2-3.6c-6.7,1.2,6.1-0.2,8.9,0
	c5.9-0.9,10.8-2,19.3-2.2c1.8,0.5,2,1.2,7.4,1.3c1.2-0.1,2.4-0.3,3.7-0.4c5.4,0.1,12.7,0.2,16.1,0.7l-0.8,0c6,0.7,6.4,0,1.7-0.5
	l5.9,0.1l0.2,0.2c7.8,0.3,15.1,0.3,27.5,1.4c-3.4,0.2,9.1,1.9-2,0.9c3.3,0.1-1.7-0.7-2.2-1c-4-0.5-7.7-0.3-9.5-0.5
	c1.2,0.4-0.1,1-2.3,1.2c4,0,11.6,0.7,18.4,1.4c6.9,0.6,13,1,14.1,0.4c5,0.5,10.8,0.9,16.8,1.2c6,0.2,12.2,0.4,18,0.6
	c-0.5-0.1-1.4-0.2-1.1-0.3l9.9,0.6l-2.3,0.1l6.6,0.4c0.7,0.2-1.9,0.4-4.6,0.5c-1.6,0.1-3-0.1-1.5-0.2c-7.1,0.5,5.9,0.2,1.3,0.7
	c-1.7-0.1-4,0-5.2,0c8.1,0.3,11.9-0.5,16.9,0c1.9-0.3,4.8-0.6,8.2-0.9c3.4-0.2,7.1-0.5,10.8-0.6c-2.8,0.5,7.9-0.5,4.3,0.3
	c2.8-0.4,9.3-0.6,10.4-1.1c-1,0.2-4.2,0.5-6.4,0.5c3-0.4,3.3-0.8,7-1c0.5,0,0.2,0.1,0.2,0.1c4.7-0.7,1.4-1.3,9.7-2.1
	c21.7-2.4-2.8,1.6,0.3,1.6c0.8-0.4,10.3-1.5,14.7-1.7l-1,0.2c2.2-0.4,5.4-1,7.8-0.9c1.2-0.6,3.7-1.4,5.2-1.9l9.7-1.2l-2,0.5
	c2.2-0.4,4.1-0.6,6.1-0.8c0.9,0.3-2,0.5-4.9,1c1.6,0.2,3.6-0.1,5.8-0.7l-1.2,0.1c2.4-0.5,11.4-2.1,4.2-1.4c5.3-1,7.2-0.5,10.8-1.1
	c0.5,0.3-2.9,0.8-1,0.8c3.6-0.4,6-0.6,8.9-1.1c-2.9,0.2,0.8-0.4-3.8-0.1c1.7-0.4,6.3-1,6-1.1c-1.5,0.2-2.4,0.5-5,0.6
	c4.8-0.7,9.9-1.3,14.9-1.6c-0.2,0.1-0.6,0.2-1.2,0.3c6.4-1.2,16.1-2.1,20.3-3.1l-1.9,0c-1.5,0.3-4.7,0.6-6,0.6
	c4.8-0.7-3.5-0.2,1.5-1c7-1,13.4-0.8,17.2-1.9c-6.7,0.5-15.9,1-18.6,1.6c1.5-0.1,2.9-0.3,4.4-0.4c-3.3,0.6-6.5,1.2-9.8,1.9
	c-0.4-0.3-8.7,1.1-8.6,0.6c3.4-0.5,6.5-0.8,9.2-1.1c-0.7-0.2-9.1,0.8-12.8,1.2l4.5-0.3c-8,1.3-18.3,2.4-26,3.6
	c6.1-1.1-7.9,0.6-3-0.4c2-0.5,5.3-0.5,4.3-0.5c0.5-0.5-4.8,0.5-6.5,0.3c-0.8,0.4-8.7,1.5-3.9,1.3c-2.6,0.1-8.2,1.2-11.8,1.3
	c1.2,0.4-6.5,1.1-7.8,1.4c-1.5,0.1-2.9,0.2-4,0.2c3.2-0.5,7.2-1.2,11.3-1.9c1.7-0.1,4.8-0.5,3.9-0.5l0-0.2c6.2-1.1,12.4-2.2,16.9-3
	c0.7-0.1,1.4-0.2,2.1-0.2l-0.4,0.1c0.2,0,0.5-0.1,0.7-0.1c36.4-4.3,72.8-8.4,109.3-7.9c-2.4,0.1-6.3,0-7.9,0.2l0.2-0.1l-3.7,0.2
	c3.1,0,9.3-0.1,12-0.3c2.6,0,5.1,0.1,7.7,0.2l-6.4-0.4c0,0,0,0,0,0c0,0,0,0,0,0l-7.6-0.5c5.2,0.3,11.2-0.3,16.4-0.8
	c5.9-0.5,11.2,0.4,17.1,0.9c10.5,0.8,19-0.4,29-3.8c6.5-2.2,11.8-4.3,18.8-4.5c5-0.1,11.7,0,14.6-5.1c2-3.6,0.9-6.7-3-7.8
	c-5.7-1.7-11.6-1.6-17.2-4.1c-4.8-2.1-8.3-0.8-13.7-1.2c-3.2-0.3-6.1-1.5-9.3-1.9c-8.3-0.9-16.8-0.9-25.1-1.3
	c-4.9-0.2-9.8-0.5-14.6-0.7c-4-0.2-9.6-1.4-13.5-0.5c1.9-0.5-2-0.7-6.6-0.9c-4.6-0.2-9.7-0.4-10.3-0.9c-3.2-0.2-8.1-0.2-8.5,0.2
	c1.8-0.1,6,0.3,5.4,0.5c-4.6-0.1-11.7-0.4-12.4,0l-5.7-0.7c-0.2,0.2-1.2,0.5-2.7,0.6c-1.2,0-2.5-0.1-3.7-0.1
	c-2.2-0.3-2.3-0.2-2.5-0.1c-1.4,0-2.8-0.1-4.1-0.2c1.6-0.2,2.9-0.3,3.5-0.5c-4.8-0.3-4.2,0-7.6,0c-1.1-0.3,3.5-0.6,7.2-0.7l-6.2-0.5
	c-6.1,0.3-16.6,0.8-26.2,0.2c1.6-0.3,4.7-0.2,2.2-0.7c-4.2,0-9.8,0.4-15.2-0.2c0.8,0,0.3-0.1,1-0.1c-9.7,0.1-7.2-0.4-15.9-0.9
	c0.1,0,0.2-0.1,0.4-0.2l-5.4,0.1c-11.3,0.2-12.4-1.2-19-1.9l1.5,0c-2-0.4-6.5-0.7-10.8-0.9c-4.4-0.3-8.7-0.5-10.5-0.8
	c4.6,0.7,1.5,0.5,4.9,1.3c4.2,0.2,3-0.6,9.9,0.1c-1,0.5-9.8,0.1-11.7,0.4c-3.9-0.2-6.4-1.3-6.7-1.7c-9.7-0.7-15-1.5-26.9-2.5
	c-4.3,0-7.8,0.8-17.5-0.9l0.6-0.2c-0.4,0.3-4.8-0.5-6.9-0.4c3.3,0.9-4.3,0-0.2,0.9c-5.8-0.4-6.6-1.3-7.1-1.8
	c-4.3,0.5-11.5-1.3-20.5-1.2c1.6-0.3,11.4,0.2,7.5-0.4c-3.9,0.1-7.8,0.2-11.6,0.4l5.1,0.2c-8.8,0.2-11.2-0.4-16.3-0.7
	c-0.5-0.1,0.1-0.2,1.1-0.3c1,0,2.5,0,3.7,0c-2.7-0.1-7,0-10.6,0.2c-2.7,0.2-11.9,1-15.5,1.7c-0.5,0-1,0-1.5,0
	c0.1-0.1,0.4-0.1,0.7-0.2c-0.7,0.1-1.3,0.1-1.9,0.2c-1.5,0.1-3.1,0.2-4.6,0.3l0.9-0.2c-0.6,0.1-1.2,0.2-1.8,0.3
	c-1.6,0.1-3.2,0.3-4.8,0.5l-2.4,0.5l1.2-0.2c-0.1,0.3-1.6,0.8-3.8,1.3c-2.7,0.4-5.4,0.9-8.1,1.5c-2.8,0.6-5.6,1.2-8.4,1.9
	c-3,0.6-6.4,1.4-9.5,2.2c-3.9,1-7.3,1.7-9.1,1.6c10.3-2.7,15.2-3.8,26.2-6.5c3-0.2,1.2,0.2-1.3,0.8c-2.5,0.6-5.8,1.4-5.9,1.6
	c2.1-0.4,4.2-0.9,6.3-1.3c-1.1-0.3,12.3-2.5,8.7-2.8c-3.5,0.6-7.1,1.1-10.5,1.8c-3.4,0.7-6.8,1.5-10.1,2.2
	c-6.6,1.5-12.9,2.9-18.8,3.7c3.4-1.9,6.5-4,9.5-6.2c0,0,0.1-0.2,0.6-0.4l-0.6,0.4c0.1,0.2,2.3-0.5,4.9-1.2c-0.5,0.3-0.9,0.7,2.2-0.1
	c6.5-1.2,9.7-2.9,14.8-3.8l-1.5,0.4c2.4-0.4,5.1-0.8,7.6-1.3c2.5-0.5,5-0.9,6.8-1.3c2,0.1-1.4,0.6-4.4,1.1c-3,0.5-5.5,1-1.7,0.7
	c-2.6,0.4-5.8,1-8.7,1.7c-2.9,0.7-5.6,1.5-7.4,2c3.2-0.7,6.3-1.1,8.4-1.3c2.1-0.1,3.2,0,2.3,0.3c7-1.5,6.9-1.9,6.5-2.2
	c-0.3-0.3-0.9-0.6,5.4-1.7c2.9-0.4,5.9-0.6,8.8-0.9c1-0.4,2-0.8,2.9-1.1c5.3-0.4-3.2,0.9,5,0.3c2.2-0.6,7.5-0.4,9.1-0.7
	c-0.2,0.2-0.3,0.4,3.9,0.3c0.3-0.1-0.1-0.4,3.2-0.4c2.2,0.8-8.4,0.2-4.6,0.9c9.3-0.1,6-0.8,7.4-1.1c-0.3,0-0.8,0-1.8,0
	c0.1-0.3,4.1,0,3.6-0.4c-1.6-0.1-3.2,0-4.5,0.1c2.8-0.3-4.6-0.6-7.5-0.4c-6.5,0.5-20.1,1.3-29,2.8c0.8-0.1,2.3-0.4,1.3-0.4
	c-1.6,0.2-3.1,0.5-4.5,0.6c-1.4,0.2-2.7,0.5-3.9,0.7c-2.5,0.4-4.8,0.8-7.1,1.3c-4.6,1-9.2,2.1-15.5,3.7l-1.2,0.9
	c-5.5,1.2-6.6,1.8-6.8,2.3c-0.1,0.5,0.8,0.8-0.6,1.1c-2.4,0.5-4.4,1.1-6.6,1c0.4-0.1,0.7-0.2,1.1-0.3c-3.4,0.5-3.9,0.6-4.3,0.8
	c-0.4,0.1-0.8,0.3-3.8,0.3c-2.4,0.1-1.4,0.2-0.1,0.2c1.3,0,2.8,0,1.2,0.2c-1.6,0-2.7,0-3.5,0.1c-0.9,0.1-1.5,0.2-2.2,0.2
	c-1.5,0.1-3.4,0.2-8.5-1.2c0.3,0,0.1-0.3,0.6-0.3c0.5-0.1,1.7,0.1,4.5,0.5c-1.8-0.4-3.6-1-5.6-1.5c3.5,0.7,4.1,0.7,4.8,0.8
	c0.7,0.1,1.3,0.3,4.6,0.5c1.6-0.2,2.2-0.4,2.8-0.6s1.1-0.4,2.5-0.7c-1.2,0.1-1.7,0.3-2.4,0.3c-0.6,0.1-1.5,0.2-3.2,0
	c-4.2-0.6,0.8-0.2,1.2-0.4c-2.9,0.1-4.4-0.3-5.9-0.8c-1.5-0.5-2.9-0.9-6.1-1.3c0.8,0.9-0.2,0.7,3.6,2c-2-0.3-4.4-0.9-6.2-1.5
	c-1.8-0.6-3.1-1.1-2.8-1.4l-1.2,0.3c-1.1-0.4-5-0.9-5.2-1.1l-1.7,0.1c3.4,0.8,6.4,1.4,12,2.5c-2.4-0.1,2.7,1.5-4.7,0.1
	c-3.3-0.6-0.3-0.4-0.4-0.6c-2.2-0.4-4.1-0.6-5.8-0.8c-1.7-0.2-3.2-0.4-4.6-0.5c-1.4-0.1-2.6-0.2-3.7-0.3c-1.1-0.1-2.1-0.2-3.1-0.2
	c-4-0.2-7.6-0.4-14.4,0.5c3.3-0.7,11.8-1,18.7-1.1c-4.1-0.7-8.9,0.1-12.8,0.3c3.5-0.5,4.1-0.7-0.1-0.7c-0.6,0.1-1.1,0.3-1.6,0.5
	c-2.5,0.2-6.8,0.8-7.1,0.6c-0.1,0.1,1,0.1,3.2-0.1c-3,0.5-7.2,1.3-11.9,2.2c-4.6,0.9-9.8,2-14.8,3c2.8-0.6,6-1.8,8.8-2.6
	c-11.1,1.4-21.7,0.8-32.7,4c-5.8,1.7-11.5,4-17.5,4.9c-7.9,1.1-26.1,0-28,11.4c-0.7,4,2,7.6,4.5,10.8c2.7,3.4,5.4,6.8,9,9.2
	c4.5,3,10,4.2,14.5,7.2c3.6,2.5,6.4,6,9.8,8.8C91.5,581.7,96.5,581.4,102.9,581.4z M228.9,516.2l-4.3,0.9
	C226.2,516.7,227.8,516.3,228.9,516.2z M152,575.2c-1.1,0.2-2.6,0.5-3.9,0.7c-1.2,0.1-1.5,0-1.5,0
	C148.4,575.6,150.2,575.4,152,575.2z M78.5,556.4c-0.1-0.2-0.2-0.4-0.2-0.7C78.4,555.9,78.4,556.1,78.5,556.4z M209.1,570.7
	c-1.7,0.2-1.5,1-8.4,1.1c-0.1-0.1,0.5-0.2,1.2-0.2c-3.1,0.2-3.6,0.1-7.1,0.2c-1.1-0.5,4.1-0.7,6.4-1.2c-2.2,0.2-4.6,0.6-7.1,0.7
	l0.5-0.2c-2.4,0.2-4.8,0.5-7.3,0.8c-2.9,0.7,5.5-0.5,6-0.2l-4.6,0.7c-5.3,0.5-19.4,2.4-24.4,2.3c-6.2,0.5-3.4,0.8-4.9,1.3
	c-3.6,0.9-7.2,0.8-10.9,1.4c0.2,0.4-4.2,0.9-4.2,1.4l-6.1,0.5c-3.3,1.1,7.3-0.6,9-0.5c3.4,0.3-4.4,0.8-2.2,0.9
	c4.6-0.6,4.9-1,7.1-1.4c2.6-0.4,4.1-0.4,4.1-0.1c-7.5,0.6-3.9,1.1-10,1.7l-0.2-0.1c0,0.5-8.8,1.2-12.1,1.7c-6.8,0,5.3-1.2,5.1-1.4
	c-2.7,0.3-5.4,0.6-8.2,0.9c3.5-0.6-0.1-0.7,4.6-1.4c-4.9,0.6-5.6,0.2-10.4,0.8c5.4-1.1-6.8-0.2-7.4-0.7c5.2-0.3,14.5-0.4,15-0.2
	c0.8-0.2,6.7-0.7,9.2-0.8l3.7-1.1c-4.3,0.5-10.2,1.4-8.7,0.6c-2,0.3-3.9,0.6-5.9,0.8c6-1.5,5.7-1.4,11.1-2.4
	c-11.4,0.5-20.2,2.7-29.7,2.1l1.5-0.1c-4.7,0.1-8.6-0.1-11.6-0.7c-3-0.6-5.2-1.5-6.6-2.4c-0.1,0-0.1-0.1-0.1-0.1
	c0.3,0.1,0.6,0.3,0.8,0.4c5.2,2.2,11.8,2.5,18,2.4c10-0.2,19.9-1,29.7-2.2l-1.2,0.5c0.2,0,0.4-0.1,0.7-0.1
	c11.3-1.6,1.1,0.7,12.7-1.1c-0.4,0.1-0.6,0.2-0.9,0.3c4.7-0.8,13.4-1.7,14.4-2.4c-1.1,0.2-5.5,0.6-7.6,0.6c4.9-0.7,9.9-1.3,14.9-1.9
	c1,0,2.1-0.1,3.2-0.2l0,0h0c1.1-0.1,2.4-0.3,4-0.5c0.4-0.1,0.7-0.1,0.9-0.2c5.9-0.6,11.9-1.1,17.8-1.3
	C202.3,570.2,216,569.9,209.1,570.7z M227.6,570.5c-7-0.3-2.1-0.2-7.1-0.7c-0.3-0.1-0.1-0.2,0.3-0.2c5.3,0.1,10.5,0.4,15.8,0.8
	C232.1,570.2,227.3,570,227.6,570.5z M248.9,571.9c-2.4-0.3-9.2-0.7-9.7-1.2c3.3,0.2,4.2,0.3,3.9,0.2c3.4,0.3,6.9,0.6,10.3,0.9
	c0.1,0.1,0.4,0.2,0.9,0.3C252.8,572,250.4,571.9,248.9,571.9z M337.3,579.2c-6.1,0.1,0.3-0.3-2.8-0.5c-4.6,0.8-5.9-0.6-10.9,0.2
	c-5.9,0.1-4-0.4-5.9-0.7c5.9,0.1-2.7-0.6,4.7-0.7c-3-0.2-4.1,0-5.1,0.1s-1.9,0.3-4.4,0.1l-0.7-0.7c-2.3-0.2-5.9-0.4-9.7-0.6
	c-3.8-0.3-7.8-0.5-10.9-0.6c5.1,0.8-3.1,0.2-2.3,0.6c1-0.5,8.1,0.5,8,0.7c-3.7-0.1-12.3-0.8-15.7-1.2l6.7,0.9
	c-2.8,0.1-12.8-0.3-13.1-0.2c-3-0.6-7.6-1-9.1-1.5l5.8,0.1l2,0.6l3.4-0.2c-3.7-0.5-11.3-1.7-12.9-2.3c5.8,0.6,13.7,1.3,23.3,1.7
	c5.5,0.5,10.9,0.9,16.4,1.2c13.1,0.7,26.2,0.7,39.3,0.2c-0.1,0-0.2,0-0.3,0c-1.5,0.3-3.3,0.5-5.5,0.6c1.2-0.1,2.6-0.1,4.6,0
	c-3.5,0.5-7,1-10.6,1.3c2.7,0.1,4.2-0.2,5.9-0.4c1.7-0.3,3.5-0.5,6.8-0.5C343.8,578.2,344.3,578.5,337.3,579.2z M519.3,558.5
	c4.6,0,9.2,0,13.7,0l-0.1,0l4.5,0.4c-1.7,0.1-3.4,0.2-5.1,0.4L519.3,558.5z M205.9,526.3c1.4,0,1.9,0.1,2.3,0.2
	c-1.2,0.1-2.3,0.3-3.4,0.3L205.9,526.3z M164.1,521.5c0.3-0.3,2.2-0.3,4.4-0.3c2.2,0,4.5,0.3,5.7,0.2c0.9,0.1,3.4,0.5,5.4,1
	c2,0.5,3.4,0.9,2.4,0.9c-2.7-0.7-4.1-0.7-5.4-0.8c-1.3,0-2.5-0.2-5.1-0.9c-1,0.2,0.4,0.6,2.4,1c-0.7,0-1.2,0-1.3,0
	c-1-0.2-2-0.3-3-0.5c-1-0.1-1.9-0.2-2.9-0.3C165.1,521.8,163.6,521.7,164.1,521.5z M156.6,521.5l-1.7,0.1
	c-6.6,0.2-10.8,0.9-13.2,1.3c-2.3,0.4-2.8,0.7-2.2,0.7c-1.5,0.2-3.1,0.5-4.6,0.8c2.7-0.8,5.2-1.5,6.7-1.8
	C147.1,521.8,153.1,521.4,156.6,521.5z M122.4,526.1c-0.3,0.2,0,0.2,0.7,0.1c-1.7,0.4-3.4,0.8-5.1,1.2
	C118.7,527.1,117.4,527,122.4,526.1z M74.9,550.4c0-0.9,0.4-1.9,0.7-2.7c0.6-1.3,1.2-2.2,1.4-2.3c-0.2-0.5,0.8-2.4,2.7-4.4
	c2.1-2.2,5.2-4.1,6.9-5.2c4.4-2.3,6.2-2.6,7.7-3c1.6-0.3,2.9-0.7,7.1-2.2c-1.1,0.2-2.2,0.4-3.3,0.6c3.7-1.3,6.5-2.2,9.3-2.9
	c2.9-0.8,5.9-1.4,10.2-2.3c1.2,0.3-4,0.8-5.8,1.5l4.3-0.4c-1.8,0.4-5.3,1.7-5.4,1.2c0,0.3-2.7,1.3,2.6-0.2l-3.9,1.3
	c0.2,0,0.6,0,1-0.1c-1.2,0.3-2.4,0.7-3.6,1c-1.6,0.2-4.3,1-6.8,1.4c-0.3-0.1,2.2-0.9,3.6-1.4c-3.8,0.8-6.9,2-8.8,2.9
	c2.8-1,3.5-1.1,3.7-1c0.2,0.1-0.1,0.4,0.6,0.4c-1.6,0.7-3.8,1.5-5.7,2.3c-1.9,0.8-3.7,1.7-4.5,2.2c-1.1,0.5-2.1,1-3,1.5
	c-0.9,0.4-1.6,0.8-2.2,1.1c-1.1,0.5-1.5,0.5-0.5-0.5c-2.2,1.9-4.6,3.9-5.3,6.5c0.5-1.1,0.9-1.7,1.2-1.9c0.3-0.2,0.5-0.2,0.8-0.2
	s0.5-0.1,0.9-0.5c0.2-0.2,0.4-0.5,0.8-0.8c0.4-0.4,0.8-0.8,1.3-1.5c0.4-0.2,0.6-0.1,0.5,0.1c-2,1.6-3.6,3.5-4.6,5.5
	c-0.3,0.5-0.7,1.1-0.9,1.5c0.5-1.5-0.4-0.3-0.5-0.7c-0.2,0.6-0.3,1-0.3,1.4c0,0.4,0,0.7,0,0.9c0,0.4,0.2,0.5,0.3,0.3
	c0.2-0.1,0.3-0.4,0.5-0.8c-0.1,0.3-0.2,0.7-0.2,1c-0.3,2,0,3.9,0.7,5.7c0.1,0.9,0.4,1.8,0.6,2.7c-0.8-1.3-1.4-2.7-1.8-4.1
	c-0.1,0.9,0.2,2.1,0.9,3.3c0.6,1.2,1.5,2.3,2.1,3.4c0.6,1.2-0.5,0-1.8-1.9c-1.3-1.9-2.5-4.6-3.2-6.1
	C74.9,552.2,74.8,551.4,74.9,550.4z"/>
<path class="st1" d="M146.1,557c72.4,43.5,148.7,46.3,228.6,43.9c73-2.2,144.5-36.9,201.9-86.7c48.1-41.7,93-131,48.8-194
	c-31.8-45.4-83-47.3-130.6-52.8c-52.9-6.1-100.8,0.7-148.4-32.1c-42.4-29.2-73.6-72.1-111.1-108.2C196,89.4,125.2,41.3,75,81.6
	c-16.3,13.1-34.1,27.9-44.4,47.6C4.3,179.3-5.4,242.3,2.8,299.7c7.4,51.3,20.3,102.2,42.4,147.9c11.1,23,24.5,44.5,40.3,63.6
	C102.1,531.4,124.6,544.1,146.1,557z"/>
<path class="st2" d="M583.3,542.7H81.8c-10.3,0-18.7-8.4-18.7-18.7V299.4c0-10.4,8.4-18.7,18.7-18.7h501.5
	c10.3,0,18.7,8.4,18.7,18.7V524C602,534.3,593.6,542.7,583.3,542.7z"/>
<g>
	<g>
		<path class="st3" d="M53.2,335.3c36.2,0,72.2,3.1,108.3,4.5c36.8,1.5,73.3-1,110-1.8c36.5-0.8,73.1-0.6,109.7-1.5
			c36.5-0.9,73-0.8,109.5-0.4c41.5,0.4,82.9,1.1,124.4,1.1c1.9,0,1.9-3,0-3c-73.3,0-146.6-2.3-220-1c-36.6,0.6-73.1,1.5-109.7,1.6
			c-36.4,0.1-72.7,3.4-109.2,2.4c-41.1-1.1-82-5-123.1-5.1C51.3,332.4,51.3,335.3,53.2,335.3L53.2,335.3z"/>
	</g>
</g>
<g>
	<g>
		<path class="st4" d="M402.4,169.4c0,0,23.5-53.6,25.3-58.1c1.8-4.5-15.6-63.3-11.6-69.9c2-3.2,3.8-4.6,8-6.2s4.9,0.8,11.2,14.1
			c5.6,11.8,17.4,64.3,17.2,70.8c-0.2,6.5-15.4,46.3-22.8,61.1c-3.2,6.4-8.8,20.1-8.8,20.1s-13.8-8.3-14.2-8.4
			C406.4,193,402.4,169.4,402.4,169.4z"/>
		<path class="st4" d="M274.1,93.9c0,0,1.9-3.6,3.5-8s6.2-13.2,4.6-14.1c-1.7-0.9-4.5,5.4-7.2,5.8c-2.7,0.4-9.4-25.4-12-25.8
			c-2.6-0.5,2.7,16.9,0.9,18.5s-6.9-20.5-9.7-19.3c-2.8,1.2,5.4,20.7,3,21.3c-2.4,0.7-7.4-15.5-10.1-14c-2.7,1.5,7.8,16.7,4.2,16.6
			c-3.6,0-4.1-8.5-6.2-5.8c-1.4,1.8,5.2,15.6,6.2,19.2s8.9,11.6,8.9,11.6L274.1,93.9z"/>
		<path class="st4" d="M336.1,175.9c0,0-13.3-13.8-20.4-23.5c-7.1-9.8-17.3-22-19-24.5c-1.7-2.5-25.2-39.6-27.6-40.3
			c-9.4-2.6-10.6,7.1-9.9,10.8c2.2,11.4,21.1,43.7,26.7,52.3s28.6,43.3,33.1,49s12.4,19.2,12.4,19.2s8.8-11.3,8.3-13.1
			C339.2,204.2,336.1,175.9,336.1,175.9z"/>
		<path class="st5" d="M397.1,108.3c-0.3,1.6-0.1,3.2,0.5,4.7c0.7,1.7-1.8,3.1-2.5,1.4c-1-2.2-1.2-4.5-0.7-6.9
			C394.7,105.6,397.5,106.5,397.1,108.3z"/>
		<g>
			<g>
				<path class="st6" d="M397.2,101c2.4,3.6,2.5,8,0.1,11.6c-0.2,0.4,0.4,0.8,0.6,0.4c2.5-3.8,2.4-8.6-0.1-12.4
					C397.5,100.3,396.9,100.6,397.2,101L397.2,101z"/>
			</g>
		</g>
		<g>
			<g>
				<path class="st6" d="M395.4,102.6c0.6,1.6,0.7,3.3,0.3,4.9c-0.1,0.4,0.6,0.6,0.7,0.2c0.4-1.8,0.3-3.6-0.3-5.3
					C395.9,102,395.2,102.2,395.4,102.6L395.4,102.6z"/>
			</g>
		</g>
		<path class="st7" d="M332.8,340.7c-2.5,4.4-13.5,90.5-15.1,97.8s-2.3,15.5,3,19.4c5.3,3.9,17.2,2.2,21.7-7.2
			c4.5-9.5,25.2-83.4,26.1-87.3C371.9,349,337.9,331.8,332.8,340.7z"/>
		<path class="st4" d="M317.1,440.7c0,0-2.3,20.5-2.9,31.3c-0.4,6.6-10.6,69.5-10.6,69.5s2.6,12.8,15.1,4.5c0,0,17-46.2,18.7-51.6
			c2.9-9.3,4.5-40.6,4.9-43.6C342.7,447.6,328.6,427.1,317.1,440.7z"/>
		<path class="st4" d="M383.3,456.7c0,0,9.6,18.3,15.2,27.5c3.4,5.6,30.5,63.4,30.5,63.4s9.4,9.1,15-4.8c0,0-12-47.7-13.7-53.2
			c-2.9-9.3-19.1-36-20.6-38.8C408.3,448,385.1,439,383.3,456.7z"/>
		<path class="st4" d="M368.9,362.2c0.5,5.1,17.3,83.7,18.5,91.1s7.5,11.4,14.1,11.2c10.1-0.4,13.2-5.8,13.2-14.3
			c0-10.5-8.1-101.5-8.5-105.5C404.8,328.2,366.9,340,368.9,362.2z"/>
		<path class="st7" d="M303.6,541.5c0,0-22.4,7.4-28.1,8.3c-5.7,1-18.2,0.7-19.1,2.1c-1,1.3-0.1,5.8,7.8,8.6
			c7.9,2.8,29.5,3.3,32.7,3.5c3.1,0.3,21.1,3.8,21.3,2.4c0.2-1.4,1.2-20.3,0.5-22.1C317.9,542.6,309.6,538.6,303.6,541.5z"/>
		<path class="st8" d="M330.1,316.7c0,0,57.2,1,72.4-1.7l3.8,29.7c0,0-33.3,4.6-37.4,17.4h-2c0,0-28.5-17.9-38.4-16.7
			C328.5,345.5,327,328.8,330.1,316.7z"/>
		<g>
			<path class="st9" d="M329,305.2c0,0-4.8,29.1-5.9,36.7c-1.1,7.6,0.5,18,0.8,20.4c0.3,2.4,10.5,6.5,33.2,8s53.9-3.5,55.6-5.5
				s0.2-25-0.5-31.5c-0.7-6.4-5.5-30.2-5.5-30.2S342.7,310,329,305.2z"/>
		</g>
		<g>
			<path class="st9" d="M368.1,370.3c0.6-3.1,0.6-6.3-1.1-10.1c-3.4-7.6-11-14-18.3-17.8c-14.5-7.5-22.7,2.2-25.8,15.8
				c-3.6,16.2-0.7,33.5-6.8,49.2c-1.5,3.9-3.6,7.7-4.2,11.9c-0.8,5.1,0.7,10.4-0.3,15.5c-0.9,4.7-3.9,9.7-1.7,14
				c0.7,1.4,1.9,2.5,3.1,3.6c8.3,7,18.8,11.6,29.6,12.9c0.9,0.1,1.8,0.2,2.5-0.3c0.7-0.5,1-1.5,1.2-2.3c3-12,4-24.4,8.1-35.9
				c4.8-13.5,6.2-29.1,9.3-43.1C364.9,378.7,367.2,374.6,368.1,370.3z"/>
		</g>
		<g>
			<g>
				<path class="st10" d="M408.8,318.6c0,0-16.1-2.7-17.6-3.4c-1.5-0.7-3-5.3-3-5.3l-5.7,0.7c0,0,2.6,9.6,6.8,10.4
					c2,0.4,19.9,3.1,19.9,3.1L408.8,318.6z"/>
			</g>
		</g>
		<g>
			<g>
				<path class="st11" d="M343,316.1c-1.4,0.6-15.5,2.5-15.5,2.5l-0.6,5.5c0,0,15.7-1.8,17.5-2.1c3.7-0.6,6.5-10,6.5-10l-4.9-1
					C345.8,311,344.4,315.5,343,316.1z"/>
			</g>
		</g>
		<g>
			<path class="st9" d="M413.1,424.2c-0.5-8.5-0.3-17.1-0.1-25.6c0.3-13.7,0.8-27.3,0.8-41c0.2-19.6-25.7-11.3-34.5-3.9
				c-4.9,4.1-6.6,8.6-9.5,13.9c-2.5,4.5-4.1,7-3.6,12.5c2,21.4,7.1,42.3,12.3,63.1c1.2,5,2.5,10.1,4.5,14.9c2.1,4.9,4.2,5.6,9.5,5.9
				c2.3,0.1,4.7,0.2,6.9-0.5c2.5-0.8,4.6-2.6,7.1-3.2c4.4-1,9.3,2,13.3-0.2c0.4-0.2,0.9-0.5,1-1c0.2-0.5-0.1-1.1-0.3-1.7
				C415.7,447.1,413.8,435.7,413.1,424.2z"/>
		</g>
		<g>
			<path class="st12" d="M301.9,534.2c-0.6,0.1-19.2,12.5-27.5,14.2s-12.5-0.4-16.2,1.5s-3.5,5.5-3.5,5.5s17.8,7.7,31.4,9.2
				s18-3.3,22.5-3.3c4.5-0.1,10.5,2,11.5,0.7c1-1.3,2.8-18.4,1.8-21.7s-5.2,2.4-8.2,3.9C310.7,545.7,310.3,532.6,301.9,534.2z"/>
		</g>
		<g>
			<path class="st13" d="M321.9,550.5c0,0-9.5,3.5-11.4,4.8c-1.9,1.3-6.7,6.9-7.2,7.3c-0.5,0.4,17.8,0.3,17.8,0.3
				S322.7,556.2,321.9,550.5z"/>
		</g>
		<g>
			<path class="st14" d="M321.9,568.3c0,0,1.4-4.2,0.2-8.5s-18.8,4-34.3,3.7c-15.5-0.3-29-8.1-29-8.1s-1.6,3,0.8,5.3
				s12.1,4.6,18.3,5.9C284,568.1,321.9,568.3,321.9,568.3z"/>
		</g>
		<g>
			<path class="st13" d="M255.2,552.3c0,0,2.2-2.4,4.6,2.1s4.4,6.1,11.2,8.4c6.9,2.3,11,3.5,19.3,3.7c8.4,0.2,22.5,1.3,25.8,1.1
				s6,0.1,6,0.1l-0.4,2.1c0,0-11,0.1-21.6-0.5c-10.6-0.6-44.8-2.5-46.1-13.2C253.7,554.1,255.2,552.3,255.2,552.3z"/>
		</g>
		<g>
			<path class="st13" d="M313.7,544.1c0,0,2.6,3.2,3.7,4.3c1,1.1,4.6,0.4,4.6,0.4s2.4-9.6-1.1-9.6
				C319.1,539.2,313.7,544.1,313.7,544.1z"/>
		</g>
		<g>
			<path class="st12" d="M287.4,549.3c0,0,12-7.6,16.2-8.5s7.6-6.9,7.8-8c0.2-1.1-3.1-5.6-10.9-6.2c-7.9-0.6-4,8.5-5.1,10.6
				s-4.9,3.9-8.9,6c-4,2.2-5.2,3.4-5,3.7C281.9,547.2,287.4,549.3,287.4,549.3z"/>
		</g>
		<g>
			<path class="st13" d="M274.9,548.5c0,0,6,0.4,7.6,2.3c1.6,1.9,7.5,7.8,11.1,9.9c3.6,2.2,5.7,1.8,5.7,1.8s-5.4-1.6-8-6.9
				s-6.6-10.4-7.9-10.9C282.1,544.3,274.9,548.5,274.9,548.5z"/>
		</g>
		<g>
			<path class="st14" d="M296.6,544.6c-1.5-1.2-3.1-2.3-4.9-3c-1.3-0.5-3-1.3-4.3-0.7c-1,0.5-0.4,2.2,0.6,1.7
				c1.1-0.5,3.1,0.6,4.1,1.1c1.2,0.6,2.4,1.3,3.4,2.2C296.4,546.7,297.5,545.3,296.6,544.6z"/>
		</g>
		<g>
			<path class="st14" d="M303.6,540.8c-1.6-1.3-3.3-2.3-5.2-2.9c-1.4-0.4-3.2-1.1-4.4,0c-0.9,0.8,0.5,2,1.4,1.2
				c0.5-0.5,3.3,0.8,3.9,1c1.2,0.5,2.3,1.2,3.3,2.1C303.4,542.9,304.5,541.5,303.6,540.8z"/>
		</g>
		<path class="st4" d="M427,537.2c0,0-15.6,19-20.1,23c-4.5,4-15.6,10.8-15.7,12.5s3.1,5.2,11.6,3.2c8.5-1.9,27.9-13.6,30.8-15.1
			c2.9-1.5,20.7-8.4,20.1-9.7c-0.6-1.3-10.3-18.6-11.8-19.8C440.1,530.3,430.6,531.3,427,537.2z"/>
		<g>
			<path class="st12" d="M421.3,531.8c-0.5,0.5-10,21.7-16.3,27.9c-6.3,6.1-11.2,6.5-13.5,10.3s0,6.8,0,6.8s20-3.2,32.8-9.4
				c12.9-6.2,14.1-13,18-15.5s10.3-4.1,10.5-5.8c0.1-1.7-7.9-17.8-10.5-20.1c-2.6-2.3-3.2,5-5.1,8.1
				C435.5,537,427.9,525.7,421.3,531.8z"/>
		</g>
		<g>
			<path class="st13" d="M448.1,535c0,0-6.5,8.4-7.4,10.6s-2,9.8-2.3,10.5c-0.3,0.6,15.9-9.7,15.9-9.7S451.9,539.6,448.1,535z"/>
		</g>
		<g>
			<path class="st14" d="M458,550.7c0,0-1.1-4.5-4.6-7.5c-3.5-3-14.3,14-28.2,22.4c-13.9,8.4-30.1,9-30.1,9s0.2,3.6,3.7,4.3
				c3.5,0.7,13.2-2.7,19.4-5C424.5,571.7,458,550.7,458,550.7z"/>
		</g>
		<g>
			<path class="st13" d="M390.3,573.8c0,0,0.6-3.4,5.2-0.7s7.2,2.9,14.6,1.2c7.3-1.8,11.6-3,19.1-7.5c7.5-4.5,20.6-11.4,23.3-13.4
				c2.8-2,5.3-3.2,5.3-3.2l0.8,2c0,0-9.7,6.2-19.4,11.6s-40.9,22.8-48,14C390,576.2,390.3,573.8,390.3,573.8z"/>
		</g>
		<g>
			<path class="st13" d="M437.3,533.9c0,0,4.1,1.4,5.7,1.8s4.3-2.2,4.3-2.2s-3.2-9.8-6.3-7.9C439.3,526.6,437.3,533.9,437.3,533.9z"
				/>
		</g>
		<g>
			<path class="st12" d="M419.9,551.8c0,0,6.4-13.4,9.6-16.5c3.1-3.1,2.8-10.3,2.4-11.4c-0.4-1.1-5.8-3.3-13.1,0.6s1.2,9.7,1.5,12.2
				c0.2,2.5-2.2,6.2-4.5,10.3c-2.3,4.1-2.8,5.9-2.3,6C413.9,553.1,419.9,551.8,419.9,551.8z"/>
		</g>
		<g>
			<path class="st13" d="M405.5,559.5c0,0,5.5-3,8-2.2c2.5,0.8,10.9,2.7,15.3,2.6c4.4-0.1,6-1.6,6-1.6s-5.6,1.6-10.8-1.6
				c-5.2-3.2-11.6-5.5-13-5.2C409.5,551.8,405.5,559.5,405.5,559.5z"/>
		</g>
		<g>
			<path class="st14" d="M422.5,543.9c-2-0.2-4-0.2-6,0.1c-1.4,0.3-3.4,0.5-4.2,1.8c-0.6,1,0.8,2.2,1.5,1.2c0.7-1.1,3-1.2,4.2-1.3
				c1.4-0.2,2.8-0.1,4.2,0C423.5,545.9,423.8,544,422.5,543.9z"/>
		</g>
		<g>
			<path class="st14" d="M426.6,536.6c-2.1-0.3-4.2-0.2-6.2,0.3c-1.5,0.4-3.4,0.8-3.9,2.5c-0.3,1.2,1.5,1.5,1.9,0.3
				c0.2-0.7,3.4-1.2,4-1.3c1.3-0.2,2.7-0.2,4,0C427.5,538.6,427.8,536.8,426.6,536.6z"/>
		</g>
		<g>
			<g>
				<path class="st15" d="M363.9,351.2c3.4,0.5,4.8,4,5.5,7.1c0.9,3.5,1.4,7,2.1,10.5c1.5,7.6,3,15.2,4.5,22.8
					c0.1,0.7,1.2,0.4,1-0.3c-1.8-8.9-3.5-17.8-5.3-26.7c-0.9-4.7-1.5-13.5-7.6-14.4C363.5,350,363.2,351.1,363.9,351.2L363.9,351.2z
					"/>
			</g>
		</g>
		<g>
			<g>
				<path class="st15" d="M384.8,407.4c-0.4-0.1-0.7-0.3-1.1-0.4c0,0.3,0,0.7,0,1c5-1.4,10.3,1,15.3,1.7c4.7,0.6,9.4,0.6,14.1,0
					c0.7-0.1,0.7-1.1,0-1.1c-5.5,0.7-11.1,0.6-16.6-0.4c-4.4-0.8-8.7-2.4-13.1-1.2c-0.5,0.1-0.5,0.9,0,1c0.4,0.1,0.7,0.3,1.1,0.4
					C385.1,408.7,385.4,407.7,384.8,407.4L384.8,407.4z"/>
			</g>
		</g>
		<g>
			<g>
				<path class="st15" d="M388.8,412.5c2,0.1,4,0.2,6,0.3c0.7,0,0.7-1,0-1.1c-2-0.1-4-0.2-6-0.3
					C388.1,411.4,388.1,412.4,388.8,412.5L388.8,412.5z"/>
			</g>
		</g>
		<g>
			<g>
				<path class="st15" d="M351.8,401.5c-6.6,2.3-13.4,3.9-20.4,4.9c-0.7,0.1-0.4,1.1,0.3,1c7-1,13.8-2.6,20.4-4.9
					C352.8,402.3,352.5,401.3,351.8,401.5L351.8,401.5z"/>
			</g>
		</g>
		<g>
			<g>
				<path class="st15" d="M350.3,406.2c-4.8,0.2-9.5,0.4-14.3,0.6c-0.7,0-0.7,1.1,0,1.1c4.8-0.2,9.5-0.4,14.3-0.6
					C351,407.2,351,406.1,350.3,406.2L350.3,406.2z"/>
			</g>
		</g>
		<g>
			<g>
				<path class="st15" d="M319.1,420.3c4.4,1.8,8.7,3.5,13.1,5.2c0.6,0.2,0.9-0.8,0.3-1c-4.4-1.8-8.7-3.5-13.1-5.2
					C318.7,419,318.4,420.1,319.1,420.3L319.1,420.3z"/>
			</g>
		</g>
		<g>
			<g>
				<path class="st15" d="M376,332.8c4.3-4.3,10-6.6,16.2-6.5c0.7,0,0.7-1,0-1.1c-6.4-0.1-12.4,2.3-16.9,6.8
					C374.8,332.6,375.5,333.3,376,332.8L376,332.8z"/>
			</g>
		</g>
		<path class="st4" d="M414.1,48.2c0,0-4.2-1.4-8.6-3.6s-14.7-5.5-14.1-7.5c0.6-2,7.5,0.8,9.9-0.9c2.4-1.7-11.7-26.6-10-28.9
			s10.6,15,13.1,14.9c2.6-0.1-10-21-7-22.1c3-1.2,11.3,20,13.6,18.7c2.3-1.3-5.8-17.5-2.6-18.4c3.2-0.8,6.4,18.7,9.2,16
			c2.8-2.7-3-10.5,0.7-9.9c2.5,0.3,7.5,16.7,9.4,20.2c1.9,3.4,3.5,13,3.5,13L414.1,48.2z"/>
		<path class="st16" d="M311.8,185.2c-0.2,0.3-0.4,0.6-0.6,0.9c-0.6,1-1.2,2.1-1.2,3.3c0,1.2,0.8,2.3,1.6,3.3
			c4.7,6,10.3,11.4,14.3,18c4.5,7.5,6.3,16.8,7.3,25.3c1.4,12.7,2.9,25.7,0.1,38.1c-2.6,11.7-8.8,22.4-11.3,34.1
			c-0.2,1-0.4,2.2,0.1,3.1c0.5,0.9,1.6,1.3,2.6,1.6c4,1.3,8.1,2,11.8,3.8c4.4,2.1,8,5.5,12.1,8c4.9,3,10.6,4.9,16.4,5.3
			c4.8,0.3,9.7-0.3,14.5-1c8.1-1.1,16.2-2.2,24.3-3.3c3.3-0.4,6.8-1,9-3.5c1.8-2,2.2-4.9,2.5-7.5c1.2-11.3-1.2-23.8,1.1-34.8
			c1.9-9.3,3.1-18.6,3.6-28.2c0.2-3.5,0.5-8.3,0.9-13.5c0.2-2,0.3-4.1,0.5-6.2c0.8-9.3,1.8-18.7,2.8-23.8c0.5-2.7,2.1-7.4,4-12.9
			c0.7-2.1,1.5-4.2,2.3-6.4c2.5-6.9,5.1-14.3,6.8-19.9c0.8-2.9,1.4-5.4,1.6-7.1c0-0.6,0.1-1.1,0-1.6c-0.9-6.8-5.1-8.3-15.6-11.6
			c-2.5-0.8-8.3-4.1-10.9-3c-0.9,0.4-1.4,1.2-2,1.9c-4,5.8-8,11.6-12,17.4c-1.6,2.3-3.4,4.8-6,5.9c-1.6,0.6-3.3,0.7-5,0.8
			c-10.6,0.4-21.6-0.1-31.3,4.2c-1,0.5-2.1,1-3.2,1.2c-2,0.3-4-0.6-5.8-1.6c-6.1-3-12.2-6.1-18.3-9.1c-5-2.5-7.4,4.4-9.7,7.7
			C316.5,177.8,314,181.4,311.8,185.2z"/>
		<path class="st4" d="M375.5,190.1L375.5,190.1c8.5-1.1,14.4-8.9,13.3-17.3l-4.6-35.1l-30.6,4l4.6,35.1
			C359.3,185.3,367.1,191.2,375.5,190.1z"/>
		<path class="st17" d="M355.3,155.2c5.1-2,11.7-2.5,14.8-2.7c5.3-0.4,10.8-0.3,15.9,1.5c0.1,0,0.2,0.1,0.3,0.1l2.3,16.6
			c-5.2,6.1-11.8,6.9-20.4,5.9c-2.5-0.3-6.6-1.3-10.5-3.1L355.3,155.2z"/>
		<path class="st4" d="M360.9,92c32.4,0.6,29.6,28.4,29.5,29.7c-1,13.3-0.6,25.4-6.1,34.4c-3.4,5.6-11.5,15.1-21.2,15.3
			c-8,0.1-12.7-4.9-17.2-10c-4.1-4.6-8-9.4-9.7-15.4c-1.1-3.8-1.3-7.9-0.3-11.7c0.3-1,0.6-2,0.8-3.1c0.5-2.6-0.2-5.3-1-7.9
			c-0.9-2.6-1.8-5.2-2.6-7.9c-0.4-1.2-0.3-2.7-0.4-4c-0.2-2.3-0.3-4.6-0.1-6.8c0.5-4.6,3-8,7.3-9.9C346.2,91.9,354,91.9,360.9,92z"
			/>
		<path class="st4" d="M392.6,129.4c-4.2-2.6-6.8,5.5-7.8,8.1c-0.6,1.6,1.8,2.7,2.5,1.2c-0.2,0.5-0.4,0.9-0.6,1.4
			c-0.7,1.6-2.2,3.9-0.9,5.7c2.5,3.4,7.5-2,8.7-4.4C397.2,135.9,396,131.5,392.6,129.4z"/>
		<path class="st18" d="M361.5,144c-1.8,0.3-3.6,0.7-4.1-1.9c-0.2-1,0.2-2.5,0.3-3.5c0.2-2.1,0.4-2.8,0.7-4.9
			c0.2-1.7-2.4-2.4-2.7-0.7c-0.3,2.5-0.5,3.5-0.8,6c-0.2,1.7-0.5,3.5,0.1,5.1c1.2,3,4.6,2.9,7.3,2.4
			C364,146.3,363.2,143.6,361.5,144z"/>
		<path class="st3" d="M369.1,152.5c-6,0.7-12,0.9-18,0.5c-1.6-0.1-2.4,1.2-1.1,1.6c0,0,0,0,0,0c2.6,1.8,6.7,3.7,10.5,3.6
			c4-0.1,7.7-2.2,10-4.3c0.1-0.1,0.1-0.1,0.1-0.1C371.3,153.2,370.5,152.3,369.1,152.5z"/>
		<path class="st19" d="M366.1,122.5c3.2-1.4,6.5-2.2,10-2.1c1.5,0,4.7,0.3,4.8,2.4c0.2,2.1-2.7,2.2-4.1,2.4
			c-3.3,0.4-10.2-0.4-10.3-0.5C365.5,124.8,364.9,123,366.1,122.5z"/>
		<path class="st19" d="M352.8,123c-3.2-1.2-6.6-1.9-10.1-1.6c-1.5,0.1-4.7,0.6-4.7,2.7c0,2.1,2.8,2.1,4.2,2.2
			c3.3,0.3,10.2-0.9,10.3-1C353.5,125.3,354,123.5,352.8,123z"/>
		<path class="st19" d="M397.6,102.2c1.6-3.7-0.4-8.9-4.9-8.6c2.4-7.3-6.5-12.8-13.8-9.7c-2.6,1.1-2.4,1.9-5.4,1.3
			c-3-0.6-3-1.9-4.9-4.1c-1.5-1.7-3.2-3-5.3-3.8c-4.8-1.6-10-0.1-13.8,3.1c-2,1.7-3.2,4.7-5.3,6.2c-3.2,2.3-7.2,1-10.5,2.8
			c-3.7,2-5.7,7.8-5.8,11.8c0,0.8,0.1,1.5,0.1,2.3c0.5,1.2,0.5,2.3,0,3.5c0.2,1.4-0.3,2.3-1.6,2.6c-0.9,1.3-1.9,1.5-2.3,3.3
			c-0.9,4.6,3.1,7.9,7.1,8.9c-0.4,0.5-0.5,1.4,0.3,1.9c4.1,2.6,8.1,2,11.8-1.1c1.4-1.2,2.6-3.1,4.3-4c5.6-3.1,6.3,0.7,9.6,1.8
			c2.5,0.8,5,0.9,7.5-0.1c6.9-2.8,6.4-13.8,15.5-11.8c2.2,0.5,4.1,0.8,5.9,0.8c-0.2,3.5-1.9,6.9-2,10.5c-0.1,2.6,0.7,4.8,1.9,7.1
			c1.6,3,2.8,5.2,5.7,2.7C399.2,123.4,405.7,109.5,397.6,102.2z"/>
		<g>
			<g>
				<path class="st6" d="M371.9,100c-6.1-3.4-9.4,3.6-14.7,5c-3.5,0.9-6.8-1.7-10.2-0.2c-1.9,0.8-3.2,2.6-4.4,4.2
					c-0.3,0.3,0.3,0.7,0.6,0.3c1.7-2.9,4.4-4.3,8.1-4.2c1,0.2,2,0.5,3,0.7c1.3,0.1,1.8,0.2,3.1-0.2c4.8-1.2,8.2-8.5,14.2-5.1
					C371.9,100.8,372.2,100.2,371.9,100L371.9,100z"/>
			</g>
		</g>
		<g>
			<g>
				<path class="st6" d="M346.1,101c-2.2,0.9-4.2,2-6.2,3.3c-0.4,0.2,0,0.8,0.3,0.6c1.9-1.3,3.9-2.3,6-3.2
					C346.6,101.5,346.5,100.9,346.1,101L346.1,101z"/>
			</g>
		</g>
		<g>
			<g>
				<path class="st6" d="M364.6,96.6c2.7-0.1,5.3,0.5,7.8,1.7c0.4,0.2,0.7-0.4,0.3-0.6c-2.5-1.3-5.3-1.9-8.1-1.8
					C364.1,95.9,364.1,96.6,364.6,96.6L364.6,96.6z"/>
			</g>
		</g>
		<g>
			<g>
				<path class="st6" d="M355.7,114.4c-2.8-0.3-5.8-0.6-8.5,0.2c-3.6,0.9-7.4,5-11,2c-0.3-0.3-0.8,0.2-0.5,0.5
					c1.8,1.5,3.8,1.6,6,0.7c1.9-0.7,3.6-2,5.6-2.5c2.7-0.7,5.6-0.4,8.4-0.1C356.1,115.1,356.1,114.4,355.7,114.4L355.7,114.4z"/>
			</g>
		</g>
		<path class="st20" d="M339.3,197.7c-0.6,1.2-1.2,2.5-1.9,3.8c-1.9,3.8-3.8,7.6-6.1,11.1c-0.6,0.9-1.5,1.9-2.6,1.7
			c-0.5-0.1-0.9-0.5-1.3-0.9c-2.6-3-4.3-6.8-6.9-10c-3-3.6-6.1-7-9-10.7c-0.8-1-1.5-2.1-1.6-3.3c0-1.2,0.6-2.3,1.2-3.3
			c0.2-0.3,0.4-0.6,0.6-0.9c2.3-3.7,4.7-7.4,7.2-10.9c2.3-3.3,4.7-10.1,9.7-7.7c4.5,2.2,9,4.5,13.6,6.7c4.6,2.3,7.9,2.6,5.1,8.3
			C344.7,187,342,192.3,339.3,197.7z"/>
		<path class="st20" d="M438.8,161.9c-0.2,1.8-0.7,4.2-1.6,7.1c-1.6,5.7-4.2,13-6.8,19.9c-0.8,2.2-1.5,4.4-2.3,6.4
			c-1.3,3.7-1.9,5.8-2.9,9.6c-0.7,2.6-1.2,8.8-3,12.9c-4.5-7.5-8.6-14.5-12.4-22.4c-3.8-7.9-8.4-15.6-15.1-21.2
			c-0.8-0.6-1.6-1.3-1.9-2.2c-0.7-1.8,4.2-5.2,5.4-6.9c4-5.8,8-11.6,12-17.4c0.5-0.8,1.1-1.6,1.9-1.9c2.5-1.1,8.4,2.2,10.9,3
			c10.5,3.3,14.7,4.8,15.6,11.6C438.9,160.8,438.9,161.4,438.8,161.9z"/>
		<g>
			<g>
				<path class="st21" d="M346.1,240.6c1.3,11.3,1.1,22.8-0.7,34c-1.6,10.3-6.1,20.6-5.3,31.2c0,0.5,0.9,0.5,0.9,0
					c-0.5-5.7,0.8-11.2,2.2-16.6c1.4-5.3,2.6-10.7,3.4-16.2c1.5-10.7,1.6-21.6,0.4-32.3C346.9,240.1,346,240.1,346.1,240.6
					L346.1,240.6z"/>
			</g>
		</g>
		<g>
			<g>
				<path class="st21" d="M346.5,296c-0.3,2.4-0.6,4.9-1,7.3c-0.1,0.5,0.8,0.5,0.9,0c0.3-2.4,0.6-4.9,1-7.3
					C347.4,295.5,346.5,295.5,346.5,296L346.5,296z"/>
			</g>
		</g>
		<g>
			<g>
				<path class="st21" d="M398.4,206.4c5.9,13.8,9.9,28.2,12,43.1c0.1,0.5,0.9,0.3,0.8-0.2c-2.1-14.9-6.2-29.4-12.1-43.3
					C398.9,205.5,398.2,205.9,398.4,206.4L398.4,206.4z"/>
			</g>
		</g>
		<g>
			<g>
				<path class="st21" d="M403.9,233.9c1.2,4.3,2.1,8.7,2.8,13.1c0.1,0.5,0.9,0.3,0.8-0.2c-0.7-4.4-1.6-8.8-2.8-13.1
					C404.6,233.2,403.8,233.4,403.9,233.9L403.9,233.9z"/>
			</g>
		</g>
		<g>
			<g>
				<path class="st21" d="M379.8,281.1c0.7,0.4,1.4,1.9,2.1,2.5c0.7,0.6,1.4,1.1,2.2,1.6c1.9,1.1,4,1.8,6.1,2.2
					c5.5,1.1,11.3,0.5,16.9,1.5c0.5,0.1,0.8-0.7,0.2-0.8c-6.5-1.1-13.5-0.1-19.8-2.3c-1.7-0.6-3.3-1.4-4.7-2.5
					c-0.8-0.7-1.5-2.1-2.4-2.6c-0.8-0.4-1.3-0.2-1.4,0.7c0,0.1,0.1,0.3,0.2,0.4c0.1,0,0.1,0.1,0.2,0.1
					C379.8,282.1,380.2,281.4,379.8,281.1L379.8,281.1z"/>
			</g>
		</g>
		<g>
			<g>
				<path class="st21" d="M389.2,293.1c3.6-0.4,7.1-0.4,10.7,0c0.5,0.1,0.5-0.8,0-0.9c-3.6-0.5-7.1-0.5-10.7,0
					C388.7,292.3,388.7,293.1,389.2,293.1L389.2,293.1z"/>
			</g>
		</g>
		<g>
			<g>
				<path class="st21" d="M368.3,326.7c6.3-0.1,12.5-1.1,18.6-3.1c0.5-0.2,0.3-1-0.2-0.8c-5.9,2-12.1,3-18.3,3.1
					C367.8,325.8,367.8,326.7,368.3,326.7L368.3,326.7z"/>
			</g>
		</g>
		<g>
			<g>
				<path class="st21" d="M344.5,182.3c-0.5,9.8-7.3,18.3-12.4,26.3c-0.3,0.5,0.4,0.9,0.7,0.4c5.1-8.2,12-16.7,12.5-26.8
					C345.4,181.7,344.5,181.7,344.5,182.3L344.5,182.3z"/>
			</g>
		</g>
		<g>
			<g>
				<path class="st21" d="M395.9,174.7c4.5,5.9,9.2,11.7,13.3,17.8c4.7,7.1,8.4,14.7,11.3,22.6c0.2,0.5,1,0.3,0.8-0.2
					c-2.9-7.8-6.5-15.3-11-22.3c-4.2-6.4-9.1-12.3-13.7-18.4C396.3,173.9,395.6,174.3,395.9,174.7L395.9,174.7z"/>
			</g>
		</g>
		<g>
			<g>
				<path class="st21" d="M420.5,174.9c-1.1,4.1-2.2,8.1-3.4,12.2c-0.1,0.5,0.7,0.8,0.8,0.2c1.1-4.1,2.2-8.1,3.4-12.2
					C421.4,174.6,420.6,174.3,420.5,174.9L420.5,174.9z"/>
			</g>
		</g>
		<g>
			<g>
				<path class="st21" d="M420.5,180.7c-0.5,1.6-1,3.2-1.5,4.9c-0.2,0.5,0.7,0.8,0.8,0.2c0.5-1.6,1-3.2,1.5-4.9
					C421.4,180.4,420.6,180.2,420.5,180.7L420.5,180.7z"/>
			</g>
		</g>
		<g>
			<g>
				<path class="st21" d="M319.9,184.2c0.3,3.1,2,5.8,4.8,7.4c0.5,0.3,0.9-0.4,0.4-0.7c-2.4-1.4-4-3.9-4.3-6.7
					C320.7,183.7,319.9,183.7,319.9,184.2L319.9,184.2z"/>
			</g>
		</g>
		<g>
			<g>
				<path class="st21" d="M325.1,188.2c0.3,1.5,0.6,2.9,1,4.4c0.1,0.5,0.9,0.3,0.8-0.2c-0.3-1.5-0.6-2.9-1-4.4
					C325.8,187.5,325,187.7,325.1,188.2L325.1,188.2z"/>
			</g>
		</g>
		<g>
			<g>
				<path class="st22" d="M341.8,130.2c-0.3,2.5,0.4,6.1,3.6,6.2c3.3,0.1,3.2-4,3.2-6.3c0-1.1-1.7-1.1-1.7,0c0,1.2,0.4,4.7-1.5,4.6
					c-2.2,0-2.1-3-1.9-4.5C343.7,129.1,342,129.1,341.8,130.2L341.8,130.2z"/>
			</g>
		</g>
		<g>
			<g>
				<path class="st22" d="M367.9,129.8c0,1.6-0.1,3.4,0.8,4.8c0.7,1.1,1.9,1.8,3.2,1.6c3.2-0.4,3.9-3.8,4.1-6.5c0-1.3-1.9-1.3-2,0
					c-0.1,1.6-0.2,3.9-2,4.5c-2.4,0.7-2.1-3.1-2.1-4.4C369.9,128.5,367.9,128.5,367.9,129.8L367.9,129.8z"/>
			</g>
		</g>
	</g>
	<g class="st23">
		<g>
			<path class="st24" d="M443.8,18.6c34.9-0.6,69.5,6,101.6,19.7c1.1,0.5,2.1-1.2,1-1.7C513.9,22.8,479,16,443.8,16.6
				C442.5,16.6,442.5,18.6,443.8,18.6L443.8,18.6z"/>
		</g>
	</g>
	<g class="st23">
		<g>
			<path class="st24" d="M491.5,39.8c17.8,3,34.6,9.7,49.6,19.8c1,0.7,2-1,1-1.7c-15.1-10.2-32.1-17-50.1-20
				C490.8,37.7,490.2,39.6,491.5,39.8L491.5,39.8z"/>
		</g>
	</g>
	<g class="st23">
		<g>
			<path class="st24" d="M428.7,49.2c25.1-3.1,50.5,2.2,72.2,15.3c1.1,0.7,2.1-1,1-1.7c-22-13.2-47.7-18.7-73.2-15.6
				C427.5,47.4,427.5,49.4,428.7,49.2L428.7,49.2z"/>
		</g>
	</g>
	<g class="st23">
		<g>
			<path class="st24" d="M298.8,56.5c18.9-9.9,39.1-16.4,60.2-19.4c1.2-0.2,0.7-2.1-0.5-1.9c-21.2,3-41.6,9.6-60.6,19.6
				C296.7,55.4,297.6,57.1,298.8,56.5L298.8,56.5z"/>
		</g>
	</g>
	<g class="st23">
		<g>
			<path class="st24" d="M323,66c15-8.1,31.4-13.3,48.4-15.3c1.2-0.1,1.2-2.1,0-2c-17.4,2-34,7.2-49.4,15.5
				C320.9,64.9,321.9,66.6,323,66L323,66z"/>
		</g>
	</g>
	<g class="st23">
		<g>
			<path class="st24" d="M258,132.1c-9.4,6.8-17.4,15.2-23.7,25c-0.7,1.1,1,2,1.7,1c6.1-9.5,13.9-17.7,23-24.3
				C260,133.1,259,131.4,258,132.1L258,132.1z"/>
		</g>
	</g>
	<g class="st23">
		<g>
			<path class="st24" d="M243.2,99.7c-9.4,6.8-17.4,15.2-23.7,25c-0.7,1.1,1,2,1.7,1c6.1-9.5,13.9-17.7,23-24.3
				C245.2,100.6,244.2,98.9,243.2,99.7L243.2,99.7z"/>
		</g>
	</g>
	<g class="st23">
		<g>
			<path class="st24" d="M244.9,127.9c8.2-8.6,17.6-15.8,28.1-21.4c1.1-0.6,0.1-2.3-1-1.7c-10.6,5.7-20.1,12.9-28.5,21.7
				C242.6,127.4,244,128.8,244.9,127.9L244.9,127.9z"/>
		</g>
	</g>
	<g>
		<g>
			<path class="st18" d="M391,133.8c-1.8,1.5-2.8,3.6-2.9,5.9c0,0.5,0.7,0.6,0.8,0.1c0.3-1.4,2.2-1.1,1.9,0.4
				c-0.1,0.5,0.7,0.8,0.8,0.2c0.6-2.5-3-3.3-3.5-0.8c0.3,0,0.5,0.1,0.8,0.1c0-2.1,1-4,2.6-5.3C392,134.1,391.4,133.5,391,133.8
				L391,133.8z"/>
		</g>
	</g>
</g>
<g>
	<g>
		<path class="st25" d="M223.9,409.6v-39.8c0-2.5-1.4-4.5-3.2-4.5h-2.4h-3.1c1.8,0,3.2,2,3.2,4.5v39.8c0,2,1.2,3.7,2.6,3.7h5.5
			C225.1,413.3,223.9,411.7,223.9,409.6z"/>
		<path class="st26" d="M220.7,353.5h-2.4v11.8h2.4c1.8,0,3.2,2,3.2,4.5v39.8c0,2,1.2,3.7,2.6,3.7s2.6-1.6,2.6-3.7v-44.2
			C229.1,358.8,225.4,353.5,220.7,353.5z"/>
		<polygon class="st22" points="218.3,353.5 212.8,353.5 70.5,353.5 70.5,365.3 212.8,365.3 215.2,365.3 218.3,365.3 		"/>
		<path class="st25" d="M59.6,409.6v-44.2c0-4.9,2.1-9.2,5.2-11c1-0.6,2.1-0.9,3.3-0.9h-3.1h-2.4c-4.6,0-8.4,5.3-8.4,11.9v44.2
			c0,2,1.2,3.7,2.6,3.7h5.5C60.8,413.3,59.6,411.7,59.6,409.6z"/>
		<path class="st26" d="M68,353.5L68,353.5c-1.2,0-2.3,0.3-3.3,0.9c-3,1.8-5.2,6-5.2,11v44.2c0,2,1.2,3.7,2.6,3.7
			c1.4,0,2.6-1.6,2.6-3.7v-39.8c0-2.5,1.4-4.5,3.2-4.5h2.4v-11.8L68,353.5L68,353.5z"/>
	</g>
	<g>
		<path class="st27" d="M168.5,395.3v-6.9c0-0.9,0.4-1.7,0.9-2c0.2-0.1,0.4-0.2,0.6-0.2h-5c0.9,0,1.6,1,1.6,2.2v6.9
			c0,1.2-0.7,2.2-1.6,2.2h5C169.2,397.4,168.5,396.5,168.5,395.3z"/>
		<path class="st28" d="M174,386.2h-3.9l0,0c-0.2,0-0.4,0.1-0.6,0.2c-0.6,0.3-0.9,1.1-0.9,2v6.9c0,1.2,0.7,2.2,1.6,2.2h3.9
			c0.9,0,1.6-1,1.6-2.2v-6.9C175.5,387.2,174.8,386.2,174,386.2z"/>
		<path class="st27" d="M159.5,395.3v-6.9c0-0.9,0.4-1.7,0.9-2c0.2-0.1,0.4-0.2,0.6-0.2h-5c0.9,0,1.6,1,1.6,2.2v6.9
			c0,1.2-0.7,2.2-1.6,2.2h5C160.2,397.4,159.5,396.5,159.5,395.3z"/>
		<path class="st28" d="M166.6,395.3v-6.9c0-1.2-0.7-2.2-1.6-2.2l0,0h-3.9l0,0c-0.2,0-0.4,0.1-0.6,0.2c-0.6,0.3-0.9,1.1-0.9,2v6.9
			c0,1.2,0.7,2.2,1.6,2.2h2.3h1.6C165.9,397.4,166.6,396.5,166.6,395.3z"/>
		<path class="st27" d="M150.6,395.3v-6.9c0-0.9,0.4-1.7,0.9-2c0.2-0.1,0.4-0.2,0.6-0.2h-5c0.9,0,1.6,1,1.6,2.2v6.9
			c0,1.2-0.7,2.2-1.6,2.2h5C151.3,397.4,150.6,396.5,150.6,395.3z"/>
		<path class="st28" d="M157.6,395.3v-6.9c0-1.2-0.7-2.2-1.6-2.2l0,0h-3.9l0,0c-0.2,0-0.4,0.1-0.6,0.2c-0.6,0.3-0.9,1.1-0.9,2v6.9
			c0,1.2,0.7,2.2,1.6,2.2h2.3h1.6C156.9,397.4,157.6,396.5,157.6,395.3z"/>
		<path class="st27" d="M141.6,395.3v-6.9c0-0.9,0.4-1.7,1-2c0.2-0.1,0.4-0.2,0.6-0.2h-6.6c-0.9,0-1.6,1-1.6,2.2v0.7h3.1
			c0.9,0,1.6,1,1.6,2.2v6.1h3.5C142.3,397.4,141.6,396.5,141.6,395.3z"/>
		<path class="st28" d="M148.6,395.3v-6.9c0-1.2-0.7-2.2-1.6-2.2l0,0h-3.9l0,0c-0.2,0-0.4,0.1-0.6,0.2c-0.6,0.3-1,1.1-1,2v6.9
			c0,1.2,0.7,2.2,1.6,2.2h2.3h1.6C147.9,397.4,148.6,396.5,148.6,395.3z"/>
		<path class="st27" d="M132.7,398.2v-6.9c0-1.2,0.7-2.2,1.6-2.2h-3.5v6.1c0,1.2-0.7,2.2-1.6,2.2H126v0.7c0,1.2,0.7,2.2,1.6,2.2h6.6
			C133.4,400.4,132.7,399.4,132.7,398.2z"/>
		<path class="st28" d="M139.7,391.3c0-1.2-0.7-2.2-1.6-2.2H135h-0.8c-0.9,0-1.6,1-1.6,2.2v6.9c0,1.2,0.7,2.2,1.6,2.2h3.9
			c0.9,0,1.6-1,1.6-2.2v-0.7V391.3z"/>
		<path class="st27" d="M123.7,395.3v-6.9c0-0.9,0.4-1.7,0.9-2c0.2-0.1,0.4-0.2,0.6-0.2h-6.6c-0.9,0-1.6,1-1.6,2.2v6.9
			c0,1.2,0.7,2.2,1.6,2.2h6.6C124.4,397.4,123.7,396.5,123.7,395.3z"/>
		<path class="st28" d="M130.7,395.3v-6.1v-0.7c0-1.2-0.7-2.2-1.6-2.2h-3.9l0,0c-0.2,0-0.4,0.1-0.6,0.2c-0.6,0.3-0.9,1.1-0.9,2v6.9
			c0,1.2,0.7,2.2,1.6,2.2h0.8h3.2C130,397.4,130.7,396.5,130.7,395.3z"/>
	</g>
	<g>
		<path class="st29" d="M71.7,525.6L71.7,525.6L71.7,525.6z"/>
		<path class="st29" d="M71.8,526.3L71.8,526.3L71.8,526.3z"/>
		<polygon class="st29" points="71.9,527 71.9,527 71.9,527 71.9,527 71.9,527 		"/>
		<path class="st29" d="M71.4,525.2L71.4,525.2c0,0,0-0.1-0.1-0.1c-0.1-0.1-0.1-0.1-0.2-0.2c0,0-0.1-0.1-0.1-0.2
			c-0.1-0.1-0.2-0.2-0.3-0.2c0,0,0,0,0,0c-0.1,0-0.2-0.1-0.2-0.1c-0.1,0-0.1,0-0.1-0.1s-0.1,0-0.2,0c-0.1,0-0.2,0-0.2,0l0,0l0,0
			C70.5,524.2,71.1,524.6,71.4,525.2z"/>
		<path class="st29" d="M71.7,528.3c0-0.1,0.1-0.1,0.1-0.2c0,0,0,0,0-0.1c0,0,0-0.1,0-0.1C71.8,528.1,71.7,528.2,71.7,528.3z"/>
		<path class="st29" d="M71.9,451.5L71.9,451.5L71.9,451.5c0-0.6-0.2-1.2-0.4-1.7l0,0C71.8,450.3,71.9,450.9,71.9,451.5z"/>
		<path class="st29" d="M71.7,452.8c0,0,0-0.1,0-0.1c0,0,0,0,0,0c0,0,0-0.1,0-0.2C71.8,452.6,71.7,452.7,71.7,452.8z"/>
		<path class="st30" d="M71.9,527C71.9,527,71.9,527,71.9,527c0-0.2,0-0.5-0.1-0.7l0,0c0-0.2-0.1-0.5-0.2-0.7c0,0,0,0,0,0
			c-0.1-0.2-0.2-0.3-0.2-0.5c-0.4-0.6-0.9-0.9-1.5-0.9l0,0c-0.8,0-1.5,0.7-1.8,1.7c-0.1,0.3-0.2,0.7-0.2,1.1c0,0.2,0,0.4,0,0.6
			c0.2,1.3,1,2.2,1.9,2.2c0.1,0,0.3,0,0.4-0.1c0.6-0.2,1-0.7,1.3-1.4c0.1-0.1,0.1-0.2,0.1-0.4c0,0,0,0.1,0,0.1
			C71.9,527.8,71.9,527.4,71.9,527L71.9,527L71.9,527z"/>
		<path class="st30" d="M71.9,451.5c0-0.6-0.2-1.2-0.4-1.7l0,0c-0.2-0.4-0.5-0.7-0.8-0.9c-0.2-0.1-0.5-0.2-0.8-0.2
			c-1.1,0-2,1.2-2,2.8c0,1.5,0.9,2.8,2,2.8c0.1,0,0.3,0,0.4-0.1c0.6-0.2,1.1-0.7,1.4-1.5c0-0.1,0.1-0.2,0.1-0.3c0,0,0,0.1,0,0.2
			C71.9,452.3,71.9,451.9,71.9,451.5L71.9,451.5z"/>
		<path class="st31" d="M62.8,529V400.4c0-5.1,2.9-9.2,6.5-9.2H28.5c-3.6,0-6.5,4.1-6.5,9.2v128.7c0,5.1,2.9,9.2,6.5,9.2h40.9
			C65.7,538.3,62.8,534.1,62.8,529z"/>
		<g>
			<path class="st25" d="M69.3,538.3c-3.6,0-6.5-4.1-6.5-9.2V400.4c0-5.1,2.9-9.2,6.5-9.2h173c3.6,0,6.5,4.1,6.5,9.2V529
				c0,5.1-2.9,9.2-6.5,9.2L69.3,538.3L69.3,538.3z"/>
			<path class="st26" d="M177.3,426h-42.9c-2.5,0-4.4,2.8-4.4,6.3V529c0,3.5,2,6.3,4.4,6.3h42.9c2.5,0,4.4-2.8,4.4-6.3v-96.7
				C181.7,428.8,179.7,426,177.3,426z"/>
			<path class="st26" d="M242.3,426h-52.4c-2.5,0-4.4,2.8-4.4,6.3V529c0,3.5,2,6.3,4.4,6.3h52.4c2.5,0,4.4-2.8,4.4-6.3v-96.7
				C246.7,428.8,244.8,426,242.3,426z"/>
			<path class="st26" d="M242.3,394.1h-173c-2.5,0-4.4,2.8-4.4,6.3v14c0,3.5,2,6.3,4.4,6.3h173c2.5,0,4.4-2.8,4.4-6.3v-14
				C246.7,396.9,244.8,394.1,242.3,394.1z"/>
			<g>
				<path class="st31" d="M84.4,414.1c-0.7,0-1.3-0.8-1.3-1.9v-9.6c0-1,0.6-1.9,1.3-1.9h142.9c0.7,0,1.3,0.8,1.3,1.9v9.6
					c0,1-0.6,1.9-1.3,1.9H84.4z"/>
				<g>
					<path class="st32" d="M226,406.5H85.6c-0.3,0-0.5-0.3-0.5-0.7s0.2-0.7,0.5-0.7H226c0.3,0,0.5,0.3,0.5,0.7
						S226.3,406.5,226,406.5z"/>
				</g>
				<g>
					<path class="st32" d="M226,411.3H85.6c-0.3,0-0.5-0.3-0.5-0.7s0.2-0.7,0.5-0.7H226c0.3,0,0.5,0.3,0.5,0.7
						S226.3,411.3,226,411.3z"/>
				</g>
				<g>
					<path class="st33" d="M112.7,412.7c-0.4,0-0.8-0.5-0.8-1.1v-8.4c0-0.6,0.3-1.1,0.8-1.1s0.8,0.5,0.8,1.1v8.4
						C113.5,412.2,113.2,412.7,112.7,412.7z"/>
				</g>
			</g>
			<g>
				<path class="st34" d="M243.6,407.4c0,4.6-2.6,8.3-5.9,8.3c-3.2,0-5.9-3.7-5.9-8.3s2.6-8.3,5.9-8.3
					C241,399.1,243.6,402.8,243.6,407.4z"/>
				<path class="st30" d="M242.2,407.4c0,3.5-2,6.2-4.4,6.2s-4.4-2.8-4.4-6.2s2-6.2,4.4-6.2C240.2,401.2,242.2,404,242.2,407.4z"/>
			</g>
			<g>
				<path class="st34" d="M79.7,407.4c0,4.6-2.6,8.3-5.9,8.3S68,412,68,407.4s2.6-8.3,5.9-8.3S79.7,402.8,79.7,407.4z"/>
				<path class="st30" d="M78.3,407.4c0,3.5-2,6.2-4.4,6.2c-2.4,0-4.4-2.8-4.4-6.2s2-6.2,4.4-6.2C76.3,401.2,78.3,404,78.3,407.4z"
					/>
			</g>
			<path class="st30" d="M242,430.4h-51.7c-0.9,0-1.6,1-1.6,2.3v7.2c0,1.3,0.7,2.3,1.6,2.3H242c0.9,0,1.6-1,1.6-2.3v-7.2
				C243.6,431.5,242.9,430.4,242,430.4z"/>
			<path class="st31" d="M228,433.7h-23.8c-0.3,0-0.5,0.3-0.5,0.8v3.9c0,0.4,0.2,0.8,0.5,0.8H228c0.3,0,0.5-0.3,0.5-0.8v-3.9
				C228.6,434,228.3,433.7,228,433.7z"/>
			<g>
				<path class="st30" d="M192.5,451.5c0-1.5-0.9-2.8-2-2.8s-2,1.2-2,2.8s0.9,2.8,2,2.8S192.5,453.1,192.5,451.5z"/>
				<path class="st30" d="M243.6,451.5c0-1.5-0.9-2.8-2-2.8s-2,1.2-2,2.8s0.9,2.8,2,2.8S243.6,453.1,243.6,451.5z"/>
				<path class="st30" d="M192.5,527c0-1.5-0.9-2.8-2-2.8s-2,1.2-2,2.8s0.9,2.8,2,2.8S192.5,528.6,192.5,527z"/>
				<path class="st30" d="M243.6,527c0-1.5-0.9-2.8-2-2.8s-2,1.2-2,2.8s0.9,2.8,2,2.8S243.6,528.6,243.6,527z"/>
				<ellipse class="st30" cx="216.1" cy="489.3" rx="28.7" ry="40.5"/>
				<ellipse class="st22" cx="216.1" cy="489.3" rx="24.5" ry="34.6"/>
				<path class="st30" d="M224.7,489.3c0-6.7-3.9-12.2-8.6-12.2c-4.8,0-8.6,5.5-8.6,12.2c0,6.7,3.9,12.2,8.6,12.2
					C220.9,501.4,224.7,496,224.7,489.3z"/>
			</g>
			<path class="st26" d="M121.7,426H69.3c-2.5,0-4.4,2.8-4.4,6.3V529c0,3.5,2,6.3,4.4,6.3h52.4c2.5,0,4.4-2.8,4.4-6.3v-96.7
				C126.1,428.8,124.1,426,121.7,426z"/>
			<path class="st30" d="M121.3,430.4H69.6c-0.9,0-1.7,1-1.7,2.3v7.2c0,1.3,0.7,2.3,1.7,2.3h51.7c0.9,0,1.7-1,1.7-2.3v-7.2
				C123,431.5,122.3,430.4,121.3,430.4z"/>
			<path class="st31" d="M107.4,433.7H83.6c-0.3,0-0.5,0.3-0.5,0.8v3.9c0,0.4,0.2,0.8,0.5,0.8h23.8c0.3,0,0.5-0.3,0.5-0.8v-3.9
				C107.9,434,107.7,433.7,107.4,433.7z"/>
			<g>
				<path class="st30" d="M71.9,451.5c0-1.5-0.9-2.8-2-2.8c-1.1,0-2,1.2-2,2.8s0.9,2.8,2,2.8C71,454.3,71.9,453.1,71.9,451.5z"/>
				<path class="st30" d="M71.9,527c0-1.5-0.9-2.8-2-2.8c-1.1,0-2,1.2-2,2.8s0.9,2.8,2,2.8C71,529.8,71.9,528.6,71.9,527z"/>
				<path class="st30" d="M123,451.5c0-1.5-0.9-2.8-2-2.8c-1.1,0-2,1.2-2,2.8s0.9,2.8,2,2.8S123,453.1,123,451.5z"/>
				<path class="st30" d="M123,527c0-1.5-0.9-2.8-2-2.8c-1.1,0-2,1.2-2,2.8s0.9,2.8,2,2.8S123,528.6,123,527z"/>
				<ellipse class="st30" cx="95.5" cy="489.3" rx="28.7" ry="40.5"/>
				<ellipse class="st22" cx="95.5" cy="489.3" rx="24.5" ry="34.6"/>
				<path class="st30" d="M104.1,489.3c0-6.7-3.8-12.2-8.6-12.2s-8.6,5.5-8.6,12.2c0,6.7,3.9,12.2,8.6,12.2
					C100.2,501.4,104.1,496,104.1,489.3z"/>
			</g>
			<g>
				<path class="st35" d="M175.7,528.3h-39.8c-0.7,0-1.2-0.8-1.2-1.7s0.5-1.7,1.2-1.7h39.8c0.7,0,1.2,0.8,1.2,1.7
					S176.3,528.3,175.7,528.3z"/>
			</g>
			<g>
				<path class="st35" d="M142.7,516.5c-2.7,0-4.9-3.1-4.9-7v-68.9c0-3.9,2.2-7,4.9-7h26.2c2.7,0,4.9,3.1,4.9,7v68.9
					c0,3.9-2.2,7-4.9,7H142.7z"/>
				<path class="st31" d="M168.9,435.9h-26.2c-1.9,0-3.4,2.1-3.4,4.8v68.9c0,2.6,1.5,4.8,3.4,4.8h26.2c1.9,0,3.4-2.1,3.4-4.8v-68.9
					C172.3,438,170.8,435.9,168.9,435.9z"/>
				<path class="st36" d="M168.1,440.1h-24.6c-0.7,0-1.2,0.8-1.2,1.7v58c0,1,0.6,1.7,1.2,1.7h24.6c0.7,0,1.2-0.8,1.2-1.7v-58
					C169.3,440.9,168.8,440.1,168.1,440.1z"/>
				<path class="st35" d="M159.5,505h-7.4c-0.7,0-1.2,0.8-1.2,1.7v2.4c0,1,0.6,1.7,1.2,1.7h7.4c0.7,0,1.2-0.8,1.2-1.7v-2.4
					C160.7,505.8,160.2,505,159.5,505z"/>
			</g>
		</g>
	</g>
	<g>
		<path class="st37" d="M241.4,401.2c-0.1,0-0.2,0-0.4,0l0,0C241.2,401.2,241.3,401.2,241.4,401.2
			C241.4,401.2,241.4,401.2,241.4,401.2z"/>
		<path class="st37" d="M245.5,407.4L245.5,407.4c0-0.2,0-0.4,0-0.6C245.4,407,245.5,407.2,245.5,407.4z"/>
		<path class="st37" d="M242.3,401.4c-0.1,0-0.2-0.1-0.2-0.1c0,0-0.1,0-0.1,0l0,0C242.1,401.3,242.2,401.4,242.3,401.4z"/>
		<path class="st37" d="M244.9,404.3c0,0,0-0.1-0.1-0.1c0-0.1-0.1-0.2-0.1-0.2l0,0C244.8,404,244.8,404.2,244.9,404.3z"/>
		<path class="st37" d="M244.6,403.8c0-0.1-0.1-0.1-0.1-0.2c-0.1-0.2-0.2-0.4-0.3-0.5c-0.1-0.2-0.2-0.3-0.4-0.4
			c-0.1-0.1-0.2-0.2-0.3-0.3c-0.2-0.2-0.4-0.4-0.7-0.5c0,0-0.1,0-0.1,0l0,0C243.5,402.1,244.1,402.8,244.6,403.8z"/>
		<path class="st37" d="M241.1,413.7c0.9,0,1.8-0.4,2.5-1.1C242.8,413.3,242,413.7,241.1,413.7L241.1,413.7z"/>
		<path class="st31" d="M239.6,415.4c-0.2-0.1-0.5-0.2-0.7-0.3c-0.1-0.1-0.2-0.1-0.4-0.2c-0.2-0.1-0.4-0.3-0.6-0.5
			c-0.1-0.1-0.2-0.2-0.3-0.3c-0.1-0.1-0.1-0.1-0.2-0.2l0,0c-0.2-0.2-0.3-0.4-0.5-0.6c0,0,0,0,0,0l0,0c0,0,0,0,0,0
			c-0.1,0-0.3,0-0.4,0c0.1,0,0.3,0,0.4,0c-0.1-0.2-0.3-0.4-0.4-0.7c-0.1,0-0.2,0-0.3,0c0.1,0,0.2,0,0.3,0c-0.1-0.1-0.1-0.2-0.1-0.3
			c-0.1-0.1-0.1-0.3-0.2-0.5c-0.1-0.3-0.2-0.5-0.3-0.8c-0.1-0.2-0.1-0.3-0.2-0.5c-0.1-0.3-0.2-0.6-0.2-1c0-0.2-0.1-0.3-0.1-0.5
			c-0.1-0.5-0.1-1-0.1-1.6c0-0.5,0-1,0.1-1.5c0-0.1,0-0.2,0.1-0.4c0-0.1,0-0.2,0.1-0.3c-0.1,0-0.3,0-0.4,0c0.1,0,0.3,0,0.4,0
			c0-0.2,0.1-0.3,0.1-0.5c0.1-0.3,0.1-0.5,0.2-0.8c0.1-0.2,0.2-0.5,0.3-0.7c0.1-0.2,0.2-0.5,0.3-0.7c0-0.1,0.1-0.2,0.1-0.3
			c0.1-0.2,0.3-0.5,0.4-0.7c0,0,0,0,0,0c0,0,0,0,0.1-0.1c0.1-0.2,0.3-0.4,0.4-0.6c0.1-0.1,0.2-0.2,0.3-0.3c0,0,0,0,0,0s0,0,0,0
			c0.3-0.3,0.6-0.5,0.9-0.7c0.1,0,0.2-0.1,0.3-0.1c0.2-0.1,0.5-0.2,0.8-0.3c0.1,0,0.2-0.1,0.3-0.1c0.4-0.1,0.7-0.1,1.1-0.1l0,0h-3.3
			c-1.2,0-2.3,0.5-3.2,1.4c-0.1,0.1-0.3,0.3-0.4,0.4c-0.2,0.2-0.4,0.5-0.5,0.7l0,0c-0.1,0.2-0.3,0.4-0.4,0.7c-0.5,0.9-0.9,1.9-1.1,3
			l0,0c-0.1,0.7-0.2,1.4-0.2,2.2c0,2,0.5,3.7,1.3,5.1l0,0c0.1,0.2,0.3,0.5,0.4,0.7l0,0c0,0,0,0.1,0.1,0.1c0.1,0.2,0.3,0.4,0.5,0.6
			c1,1.1,2.3,1.8,3.6,1.8h3.3c-0.4,0-0.8-0.1-1.1-0.2C239.8,415.5,239.7,415.5,239.6,415.4z"/>
		<path class="st30" d="M245.4,406.8c-0.1-0.9-0.3-1.7-0.6-2.5c-0.1-0.1-0.1-0.3-0.1-0.4l0,0c0-0.1-0.1-0.1-0.1-0.1
			c-0.5-0.9-1.1-1.7-1.9-2.1c-0.1-0.1-0.3-0.1-0.5-0.2c-0.1,0-0.2-0.1-0.4-0.2c-0.1,0-0.3,0-0.5-0.1c-0.1,0-0.3-0.1-0.4-0.1
			c-0.6,0-1.2,0.2-1.7,0.5c-0.8,0.5-1.5,1.3-1.9,2.3c-0.5,1-0.8,2.2-0.8,3.5c0,1.7,0.5,3.3,1.3,4.4c0.4,0.6,0.9,1,1.4,1.3
			s1.1,0.5,1.7,0.5c0.9,0,1.8-0.4,2.5-1.1c1.2-1.1,1.9-3,1.9-5.2C245.5,407.2,245.4,407,245.4,406.8z"/>
		<path class="st35" d="M241.1,399.1L241.1,399.1L241.1,399.1c-0.4,0-0.7,0.1-1.1,0.1c-0.1,0-0.2,0.1-0.3,0.1
			c-0.3,0.1-0.5,0.2-0.8,0.3c-0.1,0-0.2,0.1-0.3,0.1c-0.3,0.2-0.6,0.4-0.9,0.7c0,0,0,0,0,0c-0.3,0.3-0.6,0.6-0.8,0.9
			c0,0-0.1,0-0.1,0.1c-0.2,0.3-0.4,0.6-0.6,1c-0.1,0.2-0.2,0.5-0.3,0.7c-0.1,0.2-0.2,0.4-0.3,0.7c-0.1,0.3-0.1,0.5-0.2,0.8
			c-0.1,0.3-0.1,0.5-0.2,0.8c0,0.1,0,0.2-0.1,0.4c-0.1,0.5-0.1,1-0.1,1.5c0,0.5,0,1.1,0.1,1.6c0,0.2,0.1,0.3,0.1,0.5
			c0.1,0.3,0.1,0.7,0.2,1c0.1,0.2,0.1,0.3,0.2,0.5c0.1,0.3,0.2,0.6,0.3,0.8c0.1,0.2,0.1,0.3,0.2,0.5c0.2,0.4,0.4,0.7,0.6,1l0,0
			c0.2,0.3,0.5,0.6,0.7,0.8c0.1,0.1,0.2,0.2,0.3,0.3c0.2,0.2,0.4,0.3,0.6,0.5c0.1,0.1,0.2,0.2,0.4,0.2c0.2,0.1,0.5,0.2,0.7,0.3
			c0.1,0,0.2,0.1,0.3,0.1c0.4,0.1,0.7,0.2,1.1,0.2c3.2,0,5.9-3.7,5.9-8.3C246.9,402.8,244.3,399.1,241.1,399.1z"/>
		<path class="st37" d="M79,401.7C79,401.7,78.9,401.7,79,401.7c-0.1-0.1-0.1-0.1-0.1-0.1l0,0C78.9,401.7,79,401.7,79,401.7z"/>
		<path class="st37" d="M79.6,402.2c0.4,0.4,0.8,0.9,1.1,1.5c0-0.1-0.1-0.1-0.1-0.2c-0.1-0.2-0.2-0.4-0.3-0.5
			C80.1,402.7,79.9,402.5,79.6,402.2z"/>
		<path class="st37" d="M81.6,407.4L81.6,407.4c0-0.2,0-0.4-0.1-0.6C81.6,407,81.6,407.2,81.6,407.4z"/>
		<path class="st37" d="M81,404.3c0,0,0-0.1-0.1-0.1c0-0.1-0.1-0.2-0.1-0.2l0,0C80.9,404,80.9,404.2,81,404.3z"/>
		<path class="st31" d="M75.7,415.4c-0.2-0.1-0.5-0.2-0.7-0.3c-0.1-0.1-0.2-0.1-0.4-0.2c-0.2-0.1-0.4-0.3-0.6-0.5
			c-0.1-0.1-0.2-0.2-0.3-0.3c-0.1-0.1-0.1-0.1-0.2-0.2l0,0c-0.2-0.2-0.3-0.4-0.5-0.6c0,0,0,0,0,0l0,0c0,0,0,0,0,0
			c-0.1,0-0.3,0-0.4,0c0.1,0,0.3,0,0.4,0c-0.2-0.2-0.3-0.4-0.4-0.7c-0.1,0-0.2,0-0.3,0c0.1,0,0.2,0,0.3,0c-0.1-0.1-0.1-0.2-0.1-0.3
			c-0.1-0.2-0.2-0.4-0.3-0.6c-0.1-0.2-0.2-0.5-0.3-0.8c-0.1-0.2-0.1-0.4-0.2-0.7c0-0.1-0.1-0.3-0.1-0.4c0-0.1,0-0.2-0.1-0.3
			c0-0.1,0-0.2-0.1-0.3c0-0.1,0-0.2-0.1-0.4c-0.1-0.5-0.1-1-0.1-1.5c0-0.5,0-1,0.1-1.5c0-0.1,0-0.2,0.1-0.4c0-0.1,0-0.2,0.1-0.3
			c-0.1,0-0.3,0-0.4,0c0.1,0,0.3,0,0.4,0c0.1-0.3,0.1-0.5,0.2-0.7c0-0.1,0.1-0.3,0.1-0.4c0.1-0.4,0.3-0.9,0.5-1.3c0,0,0,0,0,0
			s0,0,0-0.1c0.1-0.2,0.2-0.3,0.2-0.5c0.1-0.2,0.3-0.5,0.4-0.7c0,0,0-0.1,0.1-0.1c0,0,0,0,0,0c0.2-0.2,0.3-0.4,0.5-0.6
			c0.1-0.1,0.1-0.1,0.2-0.2c0.1-0.1,0.2-0.2,0.3-0.3c0.2-0.2,0.4-0.3,0.6-0.5c0.1-0.1,0.2-0.2,0.4-0.2c0.2-0.1,0.5-0.2,0.7-0.3
			c0.1,0,0.2-0.1,0.3-0.1c0.4-0.1,0.7-0.2,1.1-0.2l0,0h-3.3c-1.4,0-2.7,0.7-3.7,1.8c-0.2,0.2-0.3,0.4-0.5,0.6
			c-0.2,0.2-0.3,0.5-0.5,0.8c-0.1,0.2-0.2,0.4-0.3,0.6c-0.3,0.7-0.6,1.5-0.8,2.4c-0.1,0.7-0.2,1.4-0.2,2.2c0,0.8,0.1,1.5,0.2,2.2
			c0,0.1,0,0.2,0.1,0.3c0.2,1,0.6,1.9,1,2.7c0.1,0.2,0.3,0.5,0.4,0.7l0,0c0,0,0,0.1,0.1,0.1c0.2,0.2,0.3,0.4,0.5,0.6
			c1,1.1,2.3,1.8,3.6,1.8h3.3c-0.4,0-0.8-0.1-1.1-0.2C75.9,415.5,75.8,415.5,75.7,415.4z"/>
		<path class="st35" d="M77.2,399.1L77.2,399.1L77.2,399.1c-0.4,0-0.8,0.1-1.1,0.2c-0.1,0-0.2,0.1-0.3,0.1c-0.2,0.1-0.5,0.2-0.7,0.3
			c-0.1,0.1-0.2,0.1-0.4,0.2c-0.2,0.1-0.4,0.3-0.6,0.5c-0.1,0.1-0.2,0.2-0.3,0.3c-0.2,0.2-0.5,0.5-0.7,0.8c0,0,0,0.1-0.1,0.1
			c-0.2,0.4-0.5,0.7-0.7,1.1c0,0,0,0,0,0.1c-0.2,0.4-0.4,0.9-0.5,1.3c0,0.1-0.1,0.3-0.1,0.4c-0.1,0.4-0.2,0.7-0.2,1.1
			c0,0.1,0,0.2-0.1,0.4c-0.1,0.5-0.1,1-0.1,1.5c0,0.5,0,1,0.1,1.5c0,0.1,0,0.2,0.1,0.4c0.1,0.4,0.1,0.7,0.2,1
			c0.1,0.2,0.1,0.5,0.2,0.7c0.1,0.3,0.2,0.5,0.3,0.8c0.1,0.2,0.2,0.4,0.3,0.6c0.2,0.4,0.4,0.7,0.6,1l0,0c0.2,0.3,0.5,0.6,0.7,0.9
			c0.1,0.1,0.2,0.2,0.3,0.3c0.2,0.2,0.4,0.3,0.6,0.5c0.1,0.1,0.2,0.2,0.4,0.2c0.2,0.1,0.5,0.2,0.7,0.3c0.1,0,0.2,0.1,0.3,0.1
			c0.4,0.1,0.7,0.2,1.1,0.2c3.2,0,5.9-3.7,5.9-8.3C83.1,402.8,80.4,399.1,77.2,399.1z"/>
	</g>
</g>
<path class="st38" d="M195.4,383c-2.1-2.4-4.7-4.3-7.2-6.2c-3.1-2.4-6.4-4.5-10-6c-3.1-1.3-6.5-1.6-9.8-2.1c-2.3-0.4-6.1-0.9-7-3.5
	c-0.2-0.6-0.8-1.2-1.4-1.2c-0.1,0-0.3,0-0.4,0c-1.1,0-1.6,1.6-1.5,2.5c0,0.7,0.1,1.3,0.2,2c-0.6-0.5-1,1-0.6,1.5
	c0.7,1.2,1.4,2.5,2.1,3.7c0.4,1,0.9,2,1.5,2.9c3.4,6.8,6,13.9,8.4,21.1c1.7,5,3.2,10,4.9,15c0.8,2.4,1.7,4.8,2.6,7.2
	c0.1,0.1,0.1,0.3,0.2,0.4c-7.1-0.5-14,2.5-17.9,8.9c-4.2,7-3.2,16.6,2.9,22.1c6.4,5.8,16.1,3.1,20.6-3.4c0.2-0.3,0.4-0.6,0.6-1
	c2.3-2.4,3.6-5.5,4.1-8.8c0.9-3.8,1.3-8.6-0.1-12.5c0.2-0.4,0.2-1,0.1-1.3c-3-7.3-6.2-14.6-9.2-21.9c-2.1-5-4.2-10.2-7.1-14.9
	c-0.1-0.2-0.2-0.5-0.4-0.7c0.1-0.4,0.1-0.9,0-1.4c-0.2-0.8-0.4-1.6-0.6-2.5c1,0.4,2,0.8,3,1.2c0.2,0.2,0.3,0.3,0.5,0.5
	c0.4,0.4,0.8,0.4,1.2,0.1c4.7,1.8,9.5,3.5,12.6,7.5c5.1,6.5,8.4,13.8,8.5,22.2c0,1,1,3,2.2,1.9C209,407.2,203.5,392.1,195.4,383z
	 M165.4,447.6c0-0.1,0.1-0.3,0.1-0.5c0.1,0.2,0.2,0.4,0.2,0.5C165.6,447.6,165.5,447.6,165.4,447.6z M181.2,426.2
	C181.3,426.2,181.3,426.3,181.2,426.2c0.1,0.3,0.2,0.5,0.3,0.7c0,0,0,0.1-0.1,0.1c0,0,0,0,0,0c0,0-0.1,0-0.1,0
	c0-0.2-0.1-0.4-0.2-0.6C181.2,426.4,181.2,426.3,181.2,426.2z M172.7,400.8c1.9,4.6,3.6,9.2,5.2,13.9c0.6,1.7,1.1,3.5,1.6,5.2
	c-1-2.7-2.2-5.3-3.1-8c-1.4-4.2-2.8-8.4-4.2-12.5C172.3,399.9,172.5,400.3,172.7,400.8z M187.8,388.1c0.1,0,0.2,0,0.3-0.1
	c0.1,0.2,0.2,0.4,0.3,0.6C188.1,388.5,187.9,388.3,187.8,388.1z"/>
<path class="st38" d="M289.4,216c-1.2-1.3-2.6-2.4-4-3.4c-1.7-1.3-3.5-2.5-5.5-3.3c-1.7-0.7-3.6-0.9-5.4-1.1
	c-1.3-0.2-3.4-0.5-3.8-1.9c-0.1-0.3-0.4-0.6-0.8-0.6c-0.1,0-0.1,0-0.2,0c-0.6,0-0.9,0.9-0.8,1.4c0,0.4,0,0.7,0.1,1.1
	c-0.3-0.2-0.5,0.5-0.4,0.9c0.4,0.7,0.8,1.4,1.2,2c0.2,0.6,0.5,1.1,0.8,1.6c1.9,3.7,3.3,7.6,4.6,11.6c0.9,2.8,1.8,5.5,2.7,8.3
	c0.5,1.3,0.9,2.6,1.4,4c0,0.1,0.1,0.2,0.1,0.2c-3.9-0.3-7.7,1.4-9.9,4.9c-2.3,3.8-1.7,9.1,1.6,12.2c3.5,3.2,8.8,1.7,11.4-1.9
	c0.1-0.2,0.2-0.4,0.4-0.5c1.2-1.3,2-3.1,2.3-4.9c0.5-2.1,0.7-4.7-0.1-6.9c0.1-0.2,0.1-0.5,0.1-0.7c-1.7-4-3.4-8-5.1-12
	c-1.1-2.7-2.3-5.6-3.9-8.2c-0.1-0.1-0.1-0.3-0.2-0.4c0.1-0.2,0.1-0.5,0-0.8c-0.1-0.4-0.2-0.9-0.3-1.4c0.5,0.2,1.1,0.5,1.6,0.7
	c0.1,0.1,0.2,0.2,0.3,0.3c0.2,0.2,0.5,0.2,0.7,0.1c2.6,1,5.2,1.9,7,4.1c2.8,3.6,4.6,7.6,4.7,12.2c0,0.6,0.5,1.6,1.2,1
	C296.9,229.3,293.9,221,289.4,216z M272.9,251.5c0-0.1,0-0.2,0.1-0.2c0,0.1,0.1,0.2,0.1,0.3C273.1,251.5,273,251.5,272.9,251.5z
	 M281.7,239.8C281.7,239.8,281.7,239.8,281.7,239.8c0.1,0.2,0.1,0.3,0.2,0.4c0,0,0,0,0,0.1c0,0,0,0,0,0c0,0,0,0-0.1,0
	c0-0.1-0.1-0.2-0.1-0.4C281.6,239.8,281.7,239.8,281.7,239.8z M277,225.8c1,2.5,2,5.1,2.8,7.6c0.3,0.9,0.6,1.9,0.9,2.9
	c-0.5-1.5-1.2-2.9-1.7-4.4c-0.8-2.3-1.5-4.6-2.3-6.9C276.8,225.3,276.9,225.5,277,225.8z M285.2,218.8c0,0,0.1,0,0.2,0
	c0,0.1,0.1,0.2,0.2,0.3C285.5,219,285.4,218.9,285.2,218.8z"/>
<path class="st39" d="M199.2,293.9c0.8-2.8,1.2-5.7,1.3-8.5c0.4-3.1,0.7-6.2,1-9.2c0.4-4.2,0.6-8.3,0.9-12.5
	c0.2-1.8,0.4-3.7,0.3-5.5c0-0.7,0.1-1.3,0.1-2c0.1-0.6,0.2-1.1,0.3-1.7c0.1-0.4,0.1-0.9-0.3-1.1c-0.2-0.2-0.5-0.3-0.7-0.4
	c0,0,0-0.1,0-0.1c0.1-0.4-0.1-1.6-0.8-1.1c-0.3,0.2-0.6,0.4-0.8,0.6c0-0.4-0.2-0.8-0.5-0.9c-1.6-0.7-3.2-1.3-4.8-1.9
	c-1.9-0.8-3.8-1.7-5.7-2.6c-1.5-0.8-2.9-1.5-4.4-2.2c-1.8-0.8-3.7-1.6-5.6-2.3c-0.8-0.4-1.7-0.7-2.5-1.1c-0.1,0-0.3-0.1-0.4-0.1
	c0-0.1,0-0.3,0-0.4c0-1-0.9-0.8-1.1,0l0,0c0-0.2-0.1-0.3-0.2-0.1c-1.2,3.7-2.1,7.6-2.7,11.4c-0.2,0-0.4,0-0.6,0
	c-0.9,0-1.3,1.8-0.4,2c0.2,0.1,0.4,0.1,0.7,0.2c-0.4,2.8-0.9,5.6-1.3,8.4c-0.8,5.3-1.8,10.6-2.6,15.9c-0.1,0-0.3-0.1-0.4-0.2
	c-0.2-0.1-0.7-0.4-0.8-0.3c-0.1-0.1-0.2-0.1-0.3-0.2c-0.1,0-0.2,0-0.3-0.1c-1-0.4-2.1-0.7-3.2-1c0,0,0,0,0,0c-0.1,0-0.1,0-0.2-0.1
	c-0.1,0-0.2-0.1-0.3-0.1c-1.7-0.5-3.2-0.8-4.9-0.5c-0.1-0.2-0.3-0.2-0.5,0.1c0,0,0,0,0,0c-0.2,0-0.3,0.1-0.5,0.1
	c0-0.1,0.1-0.2,0.1-0.3c0.2-0.3-0.2-0.9-0.5-0.5c-0.2,0.4-0.5,0.8-0.7,1.1c-4.1,2-6.9,6.7-6.5,11.3c0.5,5.2,6.1,6.3,10.4,5.3
	c3.7-0.9,8.6-3.4,10.6-7.1c-0.2,1.2-0.3,2.4-0.5,3.6c-0.1,0.5,0.5,1,0.7,0.3c0.4-1,0.7-2.1,0.9-3.2c0.2,0.1,0.5-0.1,0.6-0.4
	c0.5-2.2,0.6-4.5,0.8-6.8c0.1-0.1,0.3-0.4,0.3-0.6c1.9-7,4.5-14.6,5-22.2c2.8,1.1,5.8,1.9,8.6,2.9c2.4,0.8,4.9,1.8,7.2,2.9
	c1,0.5,2,1.1,2.9,1.8c0.2,0.1,0.3,0.3,0.5,0.4c-0.8,3.8-1.2,7.6-1.7,11.4c-0.5,3.4-0.9,6.8-1.2,10.2c-0.1,0.9-0.2,1.9-0.3,2.9
	c-0.3-0.2-0.6-0.4-1-0.5c-0.5-0.4-1.1-0.8-1.7-1c-1.1-0.5-2.3-0.7-3.5-0.8c-0.1-0.1-0.2-0.1-0.3,0c-1.1,0-2.3,0.1-3.4,0.4
	c-5.6,1.3-8.9,6.1-8.2,11.7c0.5,4.1,3.1,7.1,7.3,7.4c4,0.2,8.1-1.6,11.3-3.9c2.1-1.6,4.4-3.7,4.9-6.4
	C199.6,295.5,199.5,294.7,199.2,293.9z M152.6,286.5c-0.1-0.1-0.1-0.3-0.1-0.4c0.1,0.1,0.2,0.2,0.3,0.2
	C152.7,286.3,152.6,286.4,152.6,286.5z M153.2,286c-0.1,0-0.1,0-0.2,0c0.1,0,0.1-0.1,0.1-0.2c0.1-0.1,0.2-0.3,0.3-0.4
	c0,0,0,0.1,0,0.1C153.4,285.7,153.3,285.9,153.2,286z M165.3,280.2c0-0.1,0-0.1-0.1-0.2c0,0,0,0,0,0c0.2,0,0.4,0.1,0.5,0.1
	C165.6,280.2,165.5,280.2,165.3,280.2z M185.1,249.1c0,0,0.1,0,0.1,0c0.5,0.3,1.1,0.7,1.6,1c-0.9-0.4-1.8-0.8-2.6-1.2
	C184.5,249,184.8,249.1,185.1,249.1z M177.6,243.1c0,0,0.1,0.1,0.1,0.1c0,0-0.1,0.1-0.1,0.1c0,0,0,0,0,0c-0.2-0.1-0.4-0.1-0.5,0.1
	c0-0.2,0-0.4-0.1-0.6C177.2,242.9,177.4,243,177.6,243.1z M174.5,247.4L174.5,247.4C174.4,247.3,174.4,247.3,174.5,247.4
	L174.5,247.4c-0.2,0.6-0.3,1.3-0.5,1.9c0.3-1.8,0.6-3.6,0.9-5.4c0.1,0.1,0.1,0.1,0.2,0.2c-0.1,0.6-0.2,1.3-0.3,1.9
	C174.7,246.5,174.6,246.9,174.5,247.4z M173.6,251.5c0,0.1,0.1,0.2,0.2,0.3c0,0.2-0.1,0.4-0.1,0.6c-0.1,0-0.1,0-0.2,0
	C173.5,252.1,173.6,251.8,173.6,251.5z M171.6,263.7c0.4-3,0.9-6,1.4-8.9c0.1,0,0.1,0,0.1,0c-0.6,3.4-1.1,6.7-1.5,10.1
	c0,0.1,0,0.1,0,0.2c-0.1,0.7-0.3,1.5-0.4,2.2C171.3,266.1,171.5,264.9,171.6,263.7z M169.1,284c-0.1,0.1-0.2,0.1-0.4,0.2
	c0,0,0-0.1,0-0.1c0,0,0.1-0.1,0.1-0.2c0-0.1,0.1-0.2,0.1-0.4c0.1,0,0.2-0.1,0.2-0.1C169.1,283.6,169.1,283.8,169.1,284L169.1,284z
	 M175.4,264c0.4-2.3,0.9-4.6,1.4-6.8c-0.2,2.4-0.7,4.9-1.2,7.2c-0.2,0.8-0.3,1.5-0.5,2.3C175.2,265.7,175.3,264.8,175.4,264z
	 M198,260.2c-2.7-2.5-6.1-4.1-9.4-5.5c-3.4-1.5-6.9-2.6-10.5-3.6c-0.1-0.5-0.1-0.9-0.2-1.4c0-0.1,0-0.2,0.1-0.3
	c0.1-0.4,0.2-0.7,0.3-1.1c3.1,1.6,6.2,3.1,9.3,4.5c3.1,1.4,6.4,2.8,9.8,3.6c0.4,0.2,0.8,0.5,1.2,0.6c-0.1,1-0.2,2-0.2,3.1
	c0,0.2-0.1,0.4-0.1,0.5C198.2,260.5,198.1,260.3,198,260.2z M180.1,292.5c-0.1-0.1-0.1-0.2-0.3-0.3c0.6-0.5,1.2-0.9,1.9-1.3
	C181.1,291.3,180.6,291.9,180.1,292.5z M187.8,291.2c0.1-0.1,0.2-0.4,0.2-0.6c0,0,0.1,0,0.1,0c0.1,0,0.1,0,0.2,0.1
	C188.1,290.9,188,291,187.8,291.2z M193.8,294.1c0-0.1,0-0.2-0.1-0.2c0.1-0.1,0.2-0.2,0.2-0.2c0,0,0,0,0,0c0,0.2,0,0.3,0,0.5
	C193.9,294.1,193.9,294.1,193.8,294.1z M196.1,299c-0.6,0.6-1.2,1.1-1.9,1.6c0-0.1,0-0.1-0.1-0.2c0.5-0.4,1-0.8,1.5-1.1
	C195.8,299.2,196,299.1,196.1,299C196.1,299,196.1,299,196.1,299z"/>
<path class="st38" d="M450.9,279.3c0.9-3.1,1.3-6.3,1.5-9.5c0.5-3.4,0.8-6.9,1.1-10.3c0.4-4.6,0.7-9.3,1-14c0.3-2.1,0.4-4.1,0.3-6.2
	c0-0.7,0.1-1.5,0.1-2.2c0.1-0.6,0.2-1.2,0.4-1.9c0.1-0.4,0-1-0.3-1.2c-0.3-0.2-0.5-0.3-0.8-0.5c0,0,0-0.1,0-0.1
	c0.1-0.5-0.1-1.7-0.9-1.2c-0.3,0.2-0.6,0.4-0.9,0.7c0-0.4-0.2-0.8-0.6-1c-1.8-0.7-3.6-1.4-5.4-2.1c-2.1-0.9-4.2-1.9-6.3-2.9
	c-1.6-0.8-3.2-1.7-4.9-2.4c-2.1-0.9-4.1-1.8-6.2-2.6c-0.9-0.4-1.9-0.8-2.8-1.2c-0.1,0-0.3-0.1-0.5-0.1c0-0.1,0-0.3,0-0.4
	c0-1.1-1-0.9-1.3,0l0,0c0-0.2-0.2-0.3-0.2-0.1c-1.4,4.1-2.3,8.4-3,12.8c-0.2,0-0.5,0-0.7,0c-1,0-1.5,2-0.5,2.2
	c0.2,0.1,0.5,0.1,0.8,0.2c-0.5,3.1-0.9,6.3-1.4,9.3c-0.9,5.9-2,11.8-2.8,17.8c-0.2-0.1-0.3-0.1-0.5-0.2c-0.3-0.1-0.8-0.4-0.9-0.4
	c-0.1-0.1-0.2-0.2-0.3-0.2c-0.1,0-0.2-0.1-0.3-0.1c-1.1-0.5-2.3-0.8-3.5-1.2c0,0,0,0,0,0c-0.1,0-0.1,0-0.2-0.1
	c-0.1,0-0.2-0.1-0.3-0.1c-1.9-0.5-3.6-0.9-5.4-0.5c-0.1-0.2-0.4-0.3-0.5,0.1c0,0,0,0,0,0.1c-0.2,0-0.4,0.1-0.6,0.2
	c0-0.1,0.1-0.2,0.1-0.3c0.2-0.4-0.2-1-0.5-0.5c-0.3,0.4-0.5,0.8-0.8,1.3c-4.6,2.2-7.8,7.5-7.3,12.6c0.6,5.8,6.9,7,11.6,5.9
	c4.1-1,9.6-3.8,11.8-7.9c-0.2,1.3-0.4,2.6-0.5,4c-0.1,0.6,0.5,1.1,0.8,0.4c0.4-1.2,0.8-2.4,1-3.6c0.2,0.2,0.6-0.1,0.7-0.5
	c0.5-2.5,0.7-5,0.8-7.6c0.2-0.2,0.3-0.4,0.4-0.7c2.2-7.9,5-16.3,5.6-24.7c3.1,1.2,6.5,2.2,9.6,3.2c2.7,0.9,5.4,1.9,8,3.2
	c1.1,0.6,2.2,1.2,3.2,1.9c0.2,0.1,0.4,0.3,0.5,0.5c-0.8,4.2-1.3,8.5-1.9,12.7c-0.5,3.8-1,7.5-1.3,11.4c-0.1,1-0.2,2.1-0.3,3.3
	c-0.4-0.2-0.7-0.4-1.1-0.6c-0.6-0.5-1.2-0.9-1.9-1.2c-1.2-0.5-2.6-0.8-3.9-0.9c-0.1-0.1-0.2-0.1-0.4,0c-1.3,0-2.5,0.1-3.8,0.4
	c-6.2,1.4-9.9,6.8-9.2,13.1c0.5,4.5,3.4,8,8.1,8.2c4.5,0.2,9-1.8,12.6-4.3c2.4-1.7,4.9-4.1,5.5-7.1
	C451.4,281.1,451.2,280.1,450.9,279.3z M398.8,271c0-0.2-0.1-0.3-0.1-0.5c0.1,0.1,0.2,0.2,0.4,0.2C399,270.8,398.9,270.9,398.8,271z
	 M399.6,270.5c-0.1,0-0.1,0-0.2,0c0.1,0,0.1-0.1,0.2-0.2c0.1-0.2,0.2-0.3,0.3-0.5c0,0,0,0.1,0,0.1
	C399.8,270.2,399.7,270.3,399.6,270.5z M413.1,264c0-0.1,0-0.1-0.1-0.2c0,0,0,0,0,0c0.2,0,0.4,0.1,0.6,0.1
	C413.4,264,413.2,264,413.1,264z M435.2,229.4c0,0,0.1,0,0.1,0c0.6,0.4,1.2,0.7,1.8,1.1c-1-0.4-2-0.9-3-1.4
	C434.5,229.2,434.8,229.3,435.2,229.4z M426.8,222.6c0,0,0.1,0.1,0.1,0.1c0,0-0.1,0.1-0.1,0.1c0,0,0,0,0,0.1
	c-0.2-0.1-0.4-0.1-0.6,0.1c0-0.2,0-0.5-0.1-0.6C426.3,222.4,426.6,222.5,426.8,222.6z M423.3,227.4L423.3,227.4
	C423.2,227.3,423.2,227.3,423.3,227.4L423.3,227.4c-0.2,0.7-0.4,1.4-0.5,2.2c0.4-2,0.7-4,1-6.1c0.1,0.1,0.1,0.1,0.2,0.2
	c-0.1,0.7-0.2,1.4-0.3,2.2C423.5,226.4,423.4,226.9,423.3,227.4z M422.3,232c0,0.1,0.1,0.2,0.2,0.3c0,0.2-0.1,0.4-0.1,0.6
	c-0.1,0-0.1,0-0.2,0C422.2,232.7,422.3,232.3,422.3,232z M420.1,245.6c0.5-3.3,1-6.6,1.6-10c0,0,0.1,0,0.1,0.1
	c-0.7,3.7-1.2,7.5-1.7,11.3c0,0.1,0,0.1,0,0.2c-0.2,0.8-0.3,1.6-0.5,2.4C419.8,248.3,419.9,246.9,420.1,245.6z M417.3,268.2
	c-0.1,0.1-0.3,0.2-0.4,0.2c0,0,0-0.1,0-0.1c0-0.1,0.1-0.1,0.1-0.2c0-0.1,0.1-0.3,0.1-0.4c0.1,0,0.2-0.1,0.3-0.1
	C417.3,267.8,417.3,268,417.3,268.2L417.3,268.2z M424.4,245.9c0.5-2.5,1-5.1,1.5-7.6c-0.3,2.7-0.8,5.4-1.3,8
	c-0.2,0.9-0.4,1.7-0.6,2.6C424.1,247.9,424.2,246.9,424.4,245.9z M449.5,241.7c-3-2.7-6.8-4.5-10.5-6.1c-3.8-1.6-7.7-3-11.7-4
	c0-0.5-0.1-1.1-0.2-1.6c0-0.1,0-0.2,0.1-0.4c0.1-0.4,0.2-0.8,0.3-1.2c3.4,1.8,6.9,3.5,10.4,5.1c3.5,1.6,7.1,3.1,10.9,4.1
	c0.5,0.2,0.9,0.5,1.4,0.7c-0.1,1.1-0.2,2.3-0.3,3.4c0,0.2-0.1,0.4-0.1,0.6C449.7,242,449.6,241.8,449.5,241.7z M429.6,277.7
	c-0.1-0.1-0.2-0.3-0.3-0.3c0.6-0.6,1.3-1,2.1-1.5C430.7,276.4,430.1,277,429.6,277.7z M438.2,276.3c0.1-0.2,0.2-0.4,0.2-0.6
	c0,0,0.1,0,0.1,0c0.1,0,0.1,0,0.2,0.1C438.5,275.9,438.4,276.1,438.2,276.3z M444.8,279.5c0-0.1,0-0.2-0.1-0.3
	c0.1-0.1,0.2-0.2,0.3-0.3c0,0,0,0,0,0c0,0.2,0,0.4,0,0.6C445,279.6,444.9,279.5,444.8,279.5z M447.4,285c-0.6,0.6-1.3,1.3-2.1,1.8
	c0-0.1,0-0.1-0.1-0.2c0.5-0.4,1.1-0.9,1.6-1.3C447.1,285.2,447.3,285.1,447.4,285C447.4,285,447.4,285,447.4,285z"/>
</svg>
