<?xml version="1.0" encoding="utf-8"?>
<!-- Generator: Adobe Illustrator 23.0.3, SVG Export Plug-In . SVG Version: 6.00 Build 0)  -->
<svg version="1.1" id="Layer_1" xmlns="http://www.w3.org/2000/svg" xmlns:xlink="http://www.w3.org/1999/xlink" x="0px" y="0px"
	 viewBox="0 0 1352 995" style="enable-background:new 0 0 1352 995;" xml:space="preserve">
<style type="text/css">
	.st0{opacity:0.1;fill:#007CC7;enable-background:new    ;}
	.st1{fill:#FFF88E;}
	.st2{fill:#99ADE5;}
	.st3{fill:#FFFFFF;}
	.st4{opacity:0.29;fill:#99ADE5;enable-background:new    ;}
	.st5{opacity:0.61;fill:#99ADE5;enable-background:new    ;}
	.st6{opacity:0.7;fill:#99ADE5;enable-background:new    ;}
	.st7{fill:#8C8E9B;}
	.st8{fill:#666666;}
	.st9{fill:#B3B3B3;}
	.st10{fill:#E6E6E6;}
	.st11{fill:#CCCCCC;}
	.st12{fill:#72A084;}
	.st13{fill:#4E725B;}
	.st14{fill:#CCE2EF;}
	.st15{opacity:0.57;}
	.st16{fill:#6382D7;}
	.st17{fill:#AFC7D7;}
	.st18{fill:#AA7B44;}
	.st19{fill:#E5E7EA;}
	.st20{fill:#4B6882;}
	.st21{fill:#F4CD98;}
	.st22{fill:#F5BD83;}
	.st23{fill:#5A86B7;}
	.st24{opacity:0.7;fill:#D19D6F;enable-background:new    ;}
	.st25{fill:#002042;}
	.st26{fill:#D19D6F;stroke:#D19D6F;stroke-width:0.5;stroke-miterlimit:10;}
	.st27{fill:#D19D6F;stroke:#D19D6F;stroke-miterlimit:10;}
	.st28{fill:#D19D6F;}
	.st29{fill:#BEBEBF;}
	.st30{fill:#AD9366;}
	.st31{fill:#3D4877;}
	.st32{fill:#474F77;}
	.st33{fill:#775431;}
	.st34{fill:#331318;}
	.st35{fill:#D1BB3B;}
	.st36{fill:#EDD769;}
	.st37{fill:#9B2135;}
	.st38{fill:#D32A3F;}
	.st39{fill:#2B4EAF;}
	.st40{fill:#87182B;}
</style>
<g id="Layer_6">
	<path class="st0" d="M1262.5,490.1c-6.3,56.3-27.8,87.6-53.9,108.8c-44.3,36.1-101.6,42.9-119.1,93.7
		c-27.8,80.6,40.2,94.5,47.8,127.7c0.8,3.5,1.3,6.9,1.5,10.1c0,0.1,0,0.2,0,0.2c0,0.5,0.1,1.1,0.1,1.6v0.5c0,0.3,0,0.7,0,1
		c0,0.2,0,0.5,0,0.7c0,0.1,0,0.2,0,0.3c0,0.4,0,0.7,0,1.1c0,0.1,0,0.3,0,0.4c0,0.2,0,0.4,0,0.6c0,0.3,0,0.7-0.1,1
		c-11.3,149.3-686.6,39.2-917.9-3C107.8,814.2,49.8,686.7,109.2,588.1c0.9-1.5,1.8-3,2.7-4.5c93.6-149.2,204.4-105.1,252.8-271.9
		C413.2,145.1,647.3,94.9,880,94.5c232.7-0.5,181.7,144,176.6,217.3S1279.4,338.1,1262.5,490.1z"/>
	<circle class="st1" cx="886" cy="152.6" r="101.6"/>
	<g>
		<g>
			<path class="st2" d="M1038.8,420.4"/>
		</g>
	</g>
	<path class="st3" d="M900.6,244.3c-8.7-0.1-35.5-1.5-25.2-23.8c6.7-14.5,24.5-2,57.4-14s45.4-31.4,89.5-15.2
		c44.1,16.2,35.5,1.4,60.5,1.6c33.8,0.3,41.9,52.5-11.4,53.6C1018,247.7,947.6,244.7,900.6,244.3z"/>
	<path class="st3" d="M313,275.1c-11.5-0.3-47-2.7-33-32c9.1-19.1,32.4-2.2,76.2-17.4S417,184.8,475,207.1
		c58.1,22.3,47,2.5,80.1,3.3c44.8,1.1,54.5,70.3-16.1,70.8C468.3,281.7,375.2,276.5,313,275.1z"/>
	<path class="st4" d="M1155.4,511.4l-0.7,46.5h-1c-9.5-2.7-25.2-4.7-32.8-5.1c-11.8-0.7-23.6,1.7-35.4,2.4c-16.5,1-32.8-1.2-49.1-3
		c-8.5-1-17.1-1.8-25.6-2.1c-3.4-0.1-6.8-0.1-10.2,0c-10.5,0.4-20.8,2.5-31,5c-2.9,0.5-5.8,1-8.8,1.7c-9.2,2-18.3,4.6-27.6,6.5
		c-1.4,0.3-2.8,0.5-4.2,0.8c-19.9,3.3-37.3,1.8-57.4-2.8c-11.9-2.7-27.6-5.9-39.6-8.3c-13.2-2.7-25.3-0.6-38.2-0.1
		c-1.2,0-2.3,0.1-3.5,0.1c-14.7,0.1-28.9,6-43.1,8.8c-8.3,1.7-16.7,2.2-25.2,2.7c-9.9,0.6-19.9,1.1-29.8,1.1c-7.1,0-14.1-0.3-21.2-1
		c-4.6-0.5-9.3-1.2-13.9-2.1c-9.7-1.9-18.6-5.8-28-8.6c-3.3-1-6.4-2.6-9.3-4.6c-4.2-2.9-7.7-6.8-10.4-11c-0.4-0.6-0.8-1.4-0.7-2.1
		c0.2-1.4,7.3-4.7,8.8-5.6c3.6-2.3,7.2-4.5,10.9-6.7c6.9-4.2,13.9-8.3,20.9-12.5c13.6-8.2,27.2-16.7,39.5-26.8h0.3l-0.1,8.1
		l10.1,0.1l-0.1,6.1l26.6,0.4l0.3-19.6l17.2,0.2L743,487l8.4,0.1l0.1-8.1l23.9,0.3l0.1-9.4l16.2,0.2l0.3,6.9l8.1,0.1l-0.7,52.3
		l6.4,0.1l0.7-49.6l38.4,0.5l-0.3,19.9l20.2,0.3l-0.4,29.3l8.8,0.1l0.3-21.2l11.1,0.2l0.1-10.4l12.5,0.2l-0.2,10.8l17.5,0.3
		l0.2-10.8h3l0.3-17.2l9-13.7l7.9,12.9l-0.4,30.7l15.8,0.2l0.4-29.7l35.4,0.5l-0.5,33.4l8.4,0.1l0.6-45.9l25,0.4l0.1-10.1l26.6,0.4
		L1046,479l32,0.4l-0.3,19.5l10.5,0.1l0.3-21.9l13.5,0.2l0.4-30.3l38.1,0.5l-0.9,63.7L1155.4,511.4z"/>
	<g>
		<g>
			<path class="st5" d="M320,524.1c-3.2,0.8-6.4,1.7-9.6,2.5c-18.9,4.8-37.2,7.7-56.7,6.9c-7.2-0.3-14.3-0.9-21.4-1.8
				c-0.5-0.4-1-0.9-1.4-1.4c-0.2,0.4-0.5,0.8-0.8,1.1c-12-1.5-23.9-3.6-35.8-5.7c-11-2-22-4-32.3-8.2c-3.9-1.6-7.6-3.4-11.2-5.6
				c2.1-9.6,14.7-15.4,28.6-13c6.1,1.1,11.5,3.6,15.5,6.9c4.9-4.8,12.3-7.2,20-5.8c5.8,1,10.7,4,14.1,8c5.6-6.8,17-10.3,29.3-8.1
				c11.4,2,20.4,8.3,24,15.8c3.2-1.9,7-3.5,11.2-4.4c13-3,25,0.6,26.7,8.1C320.6,521,320.5,522.6,320,524.1z"/>
			<path class="st6" d="M720.7,521.7c0,2.9-1.5,5.5-3.7,7.5c-8.3-0.8-16.6-2.3-25-4.2c-0.3-0.1-0.6-0.1-1-0.2
				c-8.1-1.8-16.2-4-24.4-6.1c-2-0.5-4.1-1.1-6.1-1.6c-12.1-3.1-24.3-5.9-36.5-7.4c-0.1-0.2-0.1-0.4-0.2-0.5
				c-0.1,0.2-0.2,0.3-0.3,0.5c-8.5-1-17-1.3-25.5-0.6c-2.3,0.2-4.7,0.5-7,0.8c-0.5-1-0.9-2.1-1.1-3.2c-1.4-7.6,5.6-15.2,15.5-17
				c8-1.4,15.4,1.3,18.8,6.4c4.3-8.1,16.1-11.8,27.8-8.2c9.1,2.8,15.8,9.2,17.8,16.2c2.6-1,5.5-1.6,8.6-1.5c8.2,0.1,15,4.4,17,10.2
				c2.7-1.8,6.3-2.9,10.2-2.8C714.1,510,720.8,515.3,720.7,521.7z"/>
			<g>
				<g>
					<path class="st3" d="M598,507.1c-29,2.8-55.6,16.9-84.7,18.6c-29.8,1.7-58.2-9.6-87.1-15c-29-5.5-56.7-1.6-85,5.7
						c-31.6,8.2-61.9,17.1-95,14.8c-17.7-1.3-35.1-4.3-52.6-7.4c-17.9-3.2-35.4-7.4-49.9-19.1c-1.9-1.6-4.7,1.2-2.8,2.8
						c11,9,23.8,14.2,37.5,17.3c15.5,3.6,31.5,6.1,47.3,8.2c15,2,30.2,3.4,45.4,2.3c15.1-1,29.9-4.1,44.5-8
						c31.5-8.3,63.2-18.6,96.2-14.9c29.3,3.3,57,14.9,86.4,17.1c34.8,2.5,65.6-15.2,99.6-18.5C600.5,510.7,600.5,506.8,598,507.1
						L598,507.1z"/>
				</g>
			</g>
		</g>
		<g>
			<polygon class="st7" points="497.8,446 497.8,456.4 472.1,455.2 472.2,433.4 472.3,433.3 			"/>
			<polygon class="st8" points="472.2,433.4 472.1,455.2 447.2,454 447.2,445.9 			"/>
			<path class="st9" d="M472.4,441.1L472,526c0,0,17.6,5.9,34.6,2.3c17-3.6,17-3.6,17-3.6l0.2-61.8L472.4,441.1z"/>
			<path class="st10" d="M472.3,441.1L472,526c0,0-17.7,5.8-34.6,2s-17-3.8-17-3.8l0.2-61.8L472.3,441.1z"/>
			<g>
				<polygon class="st7" points="515.5,462.8 515.3,506.3 509.8,506.3 510,460.6 				"/>
				<polygon class="st7" points="502.6,457.5 502.4,501.1 496.9,501.1 497.1,455.3 				"/>
				<polygon class="st7" points="488.7,451.9 488.6,495.1 483,495.1 483.2,449.6 				"/>
			</g>
			<g>
				<polygon class="st7" points="422.6,467.4 422.4,519.8 427.4,519.8 427.6,465.4 				"/>
				<polygon class="st7" points="434.3,462.8 434.1,515.2 439.1,515.2 439.3,460.8 				"/>
				<polygon class="st7" points="446.8,457.8 446.6,509.9 451.6,509.9 451.8,455.8 				"/>
				<polygon class="st7" points="458.5,452.9 458.3,505 463.3,505 463.5,450.9 				"/>
			</g>
			<g>
				<polygon class="st11" points="433.6,467.2 433.5,471.5 428.6,473.4 428.6,469.2 				"/>
				<polygon class="st11" points="445.2,462.5 445.2,467.2 440.2,469.1 440.2,464.5 				"/>
				<polygon class="st11" points="457.7,457.5 457.7,462.5 452.7,464.4 452.8,459.5 				"/>
				<polygon class="st11" points="469.5,452.7 469.4,458.2 464.5,460 464.5,454.7 				"/>
				<g>
					<polygon class="st11" points="433.5,480.3 433.5,484.7 428.5,486.5 428.5,482.3 					"/>
					<polygon class="st11" points="445.2,475.6 445.2,480.3 440.2,482.2 440.2,477.6 					"/>
					<polygon class="st11" points="457.7,470.6 457.7,475.6 452.7,477.5 452.7,472.6 					"/>
					<polygon class="st11" points="469.4,465.8 469.4,471.3 464.4,473.1 464.4,467.7 					"/>
				</g>
				<g>
					<polygon class="st11" points="433.5,493.4 433.4,497.7 428.5,499.6 428.5,495.4 					"/>
					<polygon class="st11" points="445.1,488.7 445.1,493.4 440.1,495.3 440.1,490.7 					"/>
					<polygon class="st11" points="457.7,483.7 457.6,488.7 452.7,490.6 452.7,485.7 					"/>
					<polygon class="st11" points="469.4,478.8 469.3,484.4 464.4,486.2 464.4,480.9 					"/>
				</g>
				<g>
					<polygon class="st11" points="433.4,506.5 433.4,510.8 428.4,512.7 428.4,508.5 					"/>
					<polygon class="st11" points="445.1,501.8 445.1,506.5 440.1,508.4 440.1,503.8 					"/>
					<polygon class="st11" points="457.6,496.8 457.6,501.8 452.6,503.7 452.6,498.8 					"/>
					<polygon class="st11" points="469.3,491.9 469.3,497.5 464.3,499.3 464.3,493.9 					"/>
				</g>
			</g>
		</g>
		<g>
			<path id="XMLID_4_" class="st12" d="M586.1,494.1l5.8-1c-0.7-4.6-1.5-9.8-2.6-15l-6-1.4l5.3-1.7c-0.7-3.5-1.5-7.2-2.4-10.2
				l-3.2-0.1l2.5-2.2c-1.7-6-3.7-11.5-6-15.5l-2.1,1l0.9-2.9c-2-3-4.3-4.9-6.7-5.3c-2.3-0.3-4.9,5.4-7.4,13.7l4.8,3.4l-5.4-1.1
				c-1.4,5-2.8,10.7-4,16.6l4.7,2.7l-5.3-0.2c-1,4.8-1.8,9.6-2.9,14l-1,22.5l14,2.5c2,0.4,4,0.4,6,0.2l19.1-2.4
				c0,0-0.6-6.6-1.9-15.9L586.1,494.1z"/>
			<path id="XMLID_3_" class="st13" d="M576.4,500.6c0.6-4.7,0.9-9.3,1-13.6l12.8-3.7c-0.1-0.5-0.2-1.1-0.3-1.6l-12.5,3.7
				c0.1-3.5,0.1-6.8,0-10l9.8-6.4c-0.1-0.6-0.3-1.1-0.4-1.6l-9.5,6.2c-0.2-3.5-0.4-6.8-0.7-9.8l6.7-8c-0.2-0.6-0.4-1.2-0.6-1.7
				l-6.3,7.5c-0.7-5.7-1.5-10.6-2.3-14.4c1.1-2.1,1.9-3.5,2.3-4.4c-0.4-0.4-0.8-0.8-1.2-1.1c-0.4,0.8-1,1.9-1.6,3.1
				c-0.4-1.9-0.9-3.5-1.2-4.6c-0.2-0.1-0.5-0.1-0.7-0.1c-0.3,0-0.6,0-1,0.2c0.3,1.2,0.8,2.9,1.3,5.2l-3.8-2.2
				c-0.2,0.4-0.5,0.9-0.7,1.4l5,2.9c0.8,3.9,1.7,8.9,2.4,14.8l-12.1-3.5c-0.1,0.5-0.3,1-0.4,1.6l12.7,3.6c0.3,3,0.6,6.3,0.7,9.7
				l-15-6.7c-0.1,0.5-0.3,1.1-0.4,1.6l15.4,6.8c0.1,3.2,0.1,6.5,0,9.9l-17.7-6.2c-0.1,0.5-0.2,1.1-0.3,1.6l18,6.3
				c-0.2,4.3-0.6,8.8-1.1,13.4l-18.8-7.8l-0.1,1.7l18.6,7.7c-0.4,3.3-0.8,6.7-1.5,10.1l1.6,0.3c0.7-3.5,1.2-6.9,1.6-10.2l16.8-1.4
				c-0.1-0.5-0.1-1.1-0.2-1.6L576.4,500.6z"/>
		</g>
		<path class="st14" d="M473.4,525.3c-6.9-1.8-13.5-4.8-20.1-7.5c-10.4-4.4-21.2-8.2-32.3-10.2c-11.1-2-22.7-2.1-33.6,0.8
			c-4.1,1.1-8.2,2.7-11,5.8c-4.8,5.3-4.5,13.6-2.2,20.4c2.8,8.1,8.1,15.2,15,20.2c7,5,15.3,7.8,23.6,9.9c25.7,6.6,52.8,7.9,79,3.6
			c4.1-0.7,8.2-1.5,12-3.2c2-0.9,4.1-2.3,4.8-4.4c0.3-1,0.3-2,0.3-3c0-5.9,0-11.7,0-17.6c0-3.4,1.8-12-2-13.2
			c-2.1-0.7-5.9,0.3-8.1,0.3c-2.8,0.1-5.6,0.1-8.3,0.1C484.8,527.3,479,526.7,473.4,525.3z"/>
		<g>
			<path class="st6" d="M720.7,521.7c0,2.9-1.5,5.5-3.7,7.5c-8.3-0.8-16.6-2.3-25-4.2c-0.3-0.1,1-3.7,0.6-3.8
				c-8.1-1.8-11.3-3.7-19.5-5.9c-2-0.5-9.8-0.7-11.8-1.2c-12.1-3.1-25.1-3-37.2-4.4c-0.1-0.2-0.1-0.4-0.2-0.5
				c-0.1,0.2-0.2,0.3-0.3,0.5c-8.5-1-17-1.3-25.5-0.6c-2.3,0.2-4.7,0.5-7,0.8c-0.5-1-0.9-2.1-1.1-3.2c-1.4-7.6,5.6-15.2,15.5-17
				c8-1.4,15.4,1.3,18.8,6.4c4.3-8.1,16.1-11.8,27.8-8.2c9.1,2.8,15.8,9.2,17.8,16.2c2.6-1,5.5-1.6,8.6-1.5c8.2,0.1,15,4.4,17,10.2
				c2.7-1.8,6.3-2.9,10.2-2.8C714.1,510,720.8,515.3,720.7,521.7z"/>
			<g>
				<g>
					<path class="st3" d="M141,507.4c13.7,11.1,29.8,16,46.9,19.3c18.4,3.5,37.1,6.7,55.8,8.2c18.5,1.5,36.8,0.3,55-3.5
						c18.7-3.9,37-9.9,55.6-14.2c18.9-4.4,38.2-6.9,57.6-4.8c18.4,2,36.1,7.5,54.1,11.7c16.6,3.9,33.7,6.9,50.8,5.3
						c17.2-1.6,33.5-7.5,50-12.2c18.5-5.3,36.7-7.4,55.9-5.6c19.7,1.9,39,6.6,58.3,11c19.5,4.4,38.9,9.3,58.5,13.5
						c18.1,3.9,37,8.4,55.6,8.5c37.2,0.2,71.6-18.1,108.7-19.1c33.9-1,67.7-0.3,101.6-2c15.2-0.8,30-1.4,45.2-0.6
						c16.7,0.8,33.4,2.2,50.1,3.1c36.9,2,74.1-6.2,110.6,2.2c2.5,0.6,3.5-3.2,1-3.8c-32.6-7.5-64.6-0.9-97.5-1.7
						c-28.3-0.7-56.6-4.4-85-4.3c-14.7,0.1-29.4,1.5-44.1,2c-17.4,0.6-34.9,0.8-52.3,0.9c-16.3,0.1-32.5-0.4-48.7,2.2
						c-19.4,3.2-38.2,9.3-57.5,13.3c-18.8,3.9-36.3,4.7-55.4,1.6c-18.9-3.1-37.6-7.3-56.3-11.7c-35.9-8.4-73.1-20.1-110.2-19.8
						c-36.1,0.3-68.4,20.8-104.7,18.9c-35.8-1.9-69.2-18.5-105.4-18c-42.6,0.6-81.8,20.9-124.1,23.7c-22.3,1.5-44.7-1.9-66.6-5.7
						c-21.4-3.7-43.5-6.9-60.9-21C141.9,503,139.1,505.8,141,507.4L141,507.4z"/>
				</g>
			</g>
		</g>
	</g>
	<g class="st15">
		<g>
			<g>
				<path class="st16" d="M612.4,630.1c-0.4,0.6-0.8,1.1-1.2,1.7c-0.7,1-0.2,2.6,0.8,3.1c1.1,0.6,2.5,0.3,3.1-0.8
					c0.4-0.6,0.7-1.2,1.1-1.8c0.6-1,0.3-2.5-0.8-3C614.3,628.7,613.1,629.1,612.4,630.1L612.4,630.1z"/>
			</g>
		</g>
		<g>
			<g>
				<path class="st16" d="M561.9,614.9c-0.1,0.2-0.2,0.3-0.3,0.5c-0.3,0.1-0.5,0.3-0.8,0.4h0.1c-0.3,0-0.6,0-0.9,0
					c0.3,0.1,0.7,0.1,1.1,0c0.3-0.1-0.2,0-0.3,0c-0.2,0-0.1,0,0.1,0c-0.5-0.2-0.9-0.6-0.9-1.2c0.1,1,0.8,1.9,1.9,1.9
					c1,0,2-0.9,1.9-1.9c-0.1-1.2-0.8-2.2-2-2.5c-1.4-0.3-2.9,0.4-3,2c0.1-0.3,0.2-0.6,0.2-0.9c-0.1,0.3-0.3,0.5-0.3,0.8
					c-0.1,0.9,0.2,1.8,1.2,2.1C560.7,616.4,561.5,615.8,561.9,614.9L561.9,614.9z"/>
			</g>
		</g>
		<g>
			<g>
				<path class="st16" d="M566.2,651.5c1.2,1.8,2.4,3.5,3.8,5c1.1,1.2,2.7-0.3,2.1-1.6c-0.8-1.8-1.8-3.5-2.9-5.2
					C568,647.8,564.9,649.6,566.2,651.5L566.2,651.5z"/>
			</g>
		</g>
		<g>
			<g>
				<path class="st16" d="M484.7,626.7c1.8,0.8,3.6,1.6,5.3,2.4c1.7,0.8,3.2-1.8,1.5-2.6c-1.8-0.8-3.6-1.6-5.4-2.4
					C484.4,623.4,482.9,625.9,484.7,626.7L484.7,626.7z"/>
			</g>
		</g>
		<g>
			<g>
				<path class="st16" d="M504.6,666.4c0.9,0.1,1.8,0.2,2.8,0.2c1.7-0.1,2.2-2.7,0.4-3.1c-1.1-0.3-2.1-0.3-3.2-0.4
					c-0.9-0.1-1.7,0.8-1.7,1.7C503,665.7,503.7,666.3,504.6,666.4L504.6,666.4z"/>
			</g>
		</g>
		<g>
			<g>
				<path class="st16" d="M406.3,661.5c1.1-0.6,2.5-0.6,3.5,0.2c0.7,0.6,1.7,0.7,2.4,0c0.6-0.6,0.7-1.8,0-2.4
					c-2.2-1.8-5.1-2.1-7.6-0.7C402.7,659.7,404.4,662.6,406.3,661.5L406.3,661.5z"/>
			</g>
		</g>
		<g>
			<g>
				<path class="st16" d="M388.2,625.3c1.9-0.4,3.8-0.8,5.7-1.5c1.5-0.5,1.4-3.1-0.4-2.9c-2.1,0.2-4.1,0.6-6.2,1.1
					C385.1,622.5,386,625.8,388.2,625.3L388.2,625.3z"/>
			</g>
		</g>
		<g>
			<g>
				<path class="st16" d="M259,635.4c0.6,0.1,1.2,0.1,1.8,0.2c1,0.1,1.8-0.9,1.8-1.8c0-1-0.8-1.7-1.8-1.8c-0.6-0.1-1.2-0.1-1.8-0.2
					c-1-0.1-1.8,0.9-1.8,1.8C257.2,634.7,258,635.4,259,635.4L259,635.4z"/>
			</g>
		</g>
		<g>
			<g>
				<path class="st16" d="M272.3,668.9c2.5,0.2,4.9,0.5,7.4,0.7c1.1,0.1,2.1-1,2.1-2.1c0-1.2-1-2-2.1-2.1c-2.5-0.3-4.9-0.5-7.4-0.8
					C269.6,664.3,269.6,668.6,272.3,668.9L272.3,668.9z"/>
			</g>
		</g>
		<g>
			<g>
				<path class="st16" d="M189,636.1c2.5,0.3,4.9,0.5,7.4,0.8c1.7,0.2,1.7-2.5,0-2.6c-2.5-0.3-4.9-0.5-7.4-0.8
					C187.3,633.3,187.3,636,189,636.1L189,636.1z"/>
			</g>
		</g>
		<g>
			<g>
				<path class="st16" d="M204.9,681c2.7,0,5.2-0.1,7.9-0.5c1.9-0.3,1.1-2.8-0.4-3c-2.5-0.3-4.9-0.3-7.5-0.1
					C202.5,677.4,202.4,681,204.9,681L204.9,681z"/>
			</g>
		</g>
		<g>
			<g>
				<path class="st16" d="M259.5,736.6c1.7-1,3.4-2,5.1-3.1c2.1-1.4,0.3-4.5-2-3.4c-1.8,0.9-3.4,2-5.1,3
					C255.4,734.6,257.3,737.9,259.5,736.6L259.5,736.6z"/>
			</g>
		</g>
		<g>
			<g>
				<path class="st16" d="M359.3,643.9c1.2-0.3,2.7,0.2,3.6,1c1.8,1.7,4.2-0.8,2.7-2.7c-1.8-2.1-4.6-2.8-7.3-2
					C355.9,641,356.9,644.5,359.3,643.9L359.3,643.9z"/>
			</g>
		</g>
		<g>
			<g>
				<path class="st16" d="M364.5,699.5c1.4,1.7,2.8,3.4,4.2,5c0.8,0.9,2.3,0.8,3.1,0c0.9-0.9,0.7-2.2,0-3.1
					c-1.4-1.7-2.7-3.4-4.1-5.1c-0.8-0.9-2.4-0.8-3.2,0C363.6,697.2,363.7,698.5,364.5,699.5L364.5,699.5z"/>
			</g>
		</g>
		<g>
			<g>
				<path class="st16" d="M509,707.2c1.4,2.2,2.8,4.3,4.4,6.3c1.3,1.6,3.7-0.4,2.7-2.1c-1.2-2.1-2.6-4.1-4-6.1
					C510.8,703.5,507.7,705.2,509,707.2L509,707.2z"/>
			</g>
		</g>
		<g>
			<g>
				<path class="st16" d="M609.7,686.7c0.8,0.4,1.6,0.8,2.4,1.2c0.9,0.4,1.7,0.6,2.6,0.9c1.4,0.4,2.7-1.5,1.5-2.6
					c-0.7-0.6-1.4-1.2-2.2-1.7c-0.8-0.4-1.6-0.8-2.3-1.3C609.4,682,607.4,685.5,609.7,686.7L609.7,686.7z"/>
			</g>
		</g>
		<g>
			<g>
				<path class="st16" d="M665.3,621.8c0.2,1.5,0.6,2.9,1.2,4.3c0.3,0.8,1.1,1.5,2.1,1.2c0.8-0.2,1.5-1.2,1.2-2.1
					c-0.5-1.5-1-2.8-1.9-4.1c-0.3-0.5-0.9-0.8-1.5-0.6C665.7,620.6,665.2,621.2,665.3,621.8L665.3,621.8z"/>
			</g>
		</g>
		<g>
			<g>
				<path class="st16" d="M668.7,600.7c0,0.6,0.2,1.2,0.5,1.7c0.5,0.8,1.8,1.1,2.5,0.3c0.4-0.5,0.8-0.9,0.9-1.5
					c0.2-1.2-0.4-2.3-1.6-2.5C669.7,598.6,668.7,599.5,668.7,600.7L668.7,600.7z"/>
			</g>
		</g>
		<g>
			<g>
				<path class="st16" d="M606.5,595.7c0.6,0.7,1.1,1.3,1.8,1.9c0.7,0.6,1.7,0.8,2.5,0.2s1-1.6,0.5-2.5c-0.5-1-1.1-1.7-1.8-2.6
					c-0.7-0.9-2.3-0.8-3,0C605.6,593.6,605.7,594.8,606.5,595.7L606.5,595.7z"/>
			</g>
		</g>
		<g>
			<g>
				<path class="st3" d="M641.8,656.2c-0.3,1.5-0.6,3-0.1,4.5c0.3,1.1,1.9,1.4,2.5,0.3c0.7-1.4,0.8-2.9,0.9-4.4
					C645.1,654.8,642.2,654.3,641.8,656.2L641.8,656.2z"/>
			</g>
		</g>
		<g>
			<g>
				<path class="st3" d="M643.8,655c0,1.6,0.1,3.1,0.2,4.7c0.1,1.1,0.8,2,2,2c1,0,2.1-0.9,2-2c-0.2-1.7-0.4-3.4-0.8-5.2
					C646.7,652.6,643.8,653.1,643.8,655L643.8,655z"/>
			</g>
		</g>
		<g>
			<g>
				<path class="st3" d="M634.6,617.2c0.4,1.9,0.9,3.8,1.3,5.7c0.5,2.2,3.8,1.3,3.4-0.9c-0.4-1.9-0.8-3.8-1.2-5.7
					C637.6,614,634.1,615,634.6,617.2L634.6,617.2z"/>
			</g>
		</g>
		<g>
			<g>
				<path class="st3" d="M580.7,624.8c2.8,0,5.6,0.1,8.4-0.2c2.3-0.2,2.3-3.5,0-3.6c-2.8-0.1-5.6,0-8.4,0.1
					C578.4,621.3,578.4,624.8,580.7,624.8L580.7,624.8z"/>
			</g>
		</g>
		<g>
			<g>
				<path class="st3" d="M536,642.4c2.7,0.1,5.3,0.3,7.9-0.3c1.5-0.3,1.5-2.8,0-3.1c-2.7-0.5-5.2-0.3-7.9-0.1
					C533.8,639.1,533.7,642.3,536,642.4L536,642.4z"/>
			</g>
		</g>
		<g>
			<g>
				<path class="st3" d="M501.4,607.4c2.2-0.1,4.4-0.2,6.5-0.3c2.4-0.1,2.5-3.9,0-3.8c-2.2,0.1-4.4,0.2-6.5,0.3
					C499,603.7,499,607.4,501.4,607.4L501.4,607.4z"/>
			</g>
		</g>
		<g>
			<g>
				<path class="st3" d="M432.5,652.6c2.2-0.1,4.4-0.1,6.5-0.2c2.5-0.1,2.5-4,0-3.9c-2.2,0.1-4.4,0.2-6.5,0.3
					C430,648.9,430,652.6,432.5,652.6L432.5,652.6z"/>
			</g>
		</g>
		<g>
			<g>
				<path class="st3" d="M416.2,698.4c1.9-0.7,3.9-1.4,5.8-2.1c1.1-0.4,1.8-1.4,1.5-2.6c-0.3-1-1.5-1.9-2.6-1.5
					c-1.9,0.8-3.9,1.5-5.8,2.3c-1,0.4-1.7,1.4-1.4,2.5C413.9,698,415.1,698.8,416.2,698.4L416.2,698.4z"/>
			</g>
		</g>
		<g>
			<g>
				<path class="st3" d="M450.5,688.6c1.5,1.4,3.1,2.8,4.6,4.2c0.8,0.8,2.2,0.8,3,0s0.9-2.2,0-3c-1.6-1.4-3.1-2.7-4.7-4.1
					C451.5,684,448.6,686.8,450.5,688.6L450.5,688.6z"/>
			</g>
		</g>
		<g>
			<g>
				<path class="st3" d="M376.2,683.4c0.9,0.1,1.8,0.2,2.8,0.3c1.1,0.1,2.2-1.1,2.2-2.2c-0.1-1.3-1-2-2.2-2.2
					c-0.9-0.1-1.8-0.2-2.8-0.3c-1.1-0.1-2.2,1.1-2.2,2.2C374.1,682.5,374.9,683.3,376.2,683.4L376.2,683.4z"/>
			</g>
		</g>
		<g>
			<g>
				<path class="st3" d="M310.8,666.1c0.6,0.1,1.2,0.1,1.8,0.2c1,0.1,1.9-1,1.9-1.9c0-1.1-0.9-1.8-1.9-1.9c-0.6-0.1-1.2-0.1-1.8-0.2
					c-1-0.1-1.9,1-1.9,1.9C308.9,665.3,309.8,666,310.8,666.1L310.8,666.1z"/>
			</g>
		</g>
		<g>
			<g>
				<path class="st3" d="M299.2,643.6c2.5,0.3,4.9,0.5,7.4,0.3c1.8-0.1,2.3-2.7,0.4-3.2c-2.6-0.7-5.1-1-7.8-1.3
					C296.6,639.3,296.6,643.3,299.2,643.6L299.2,643.6z"/>
			</g>
		</g>
		<g>
			<g>
				<path class="st3" d="M234.6,662.8c2,0.9,3.8,1.7,5.9,2.2c1.8,0.5,2.7-2,1.2-2.9c-1.7-1.1-3.3-1.9-5.1-2.8
					c-1-0.4-2.2-0.3-2.7,0.7C233.4,660.9,233.6,662.4,234.6,662.8L234.6,662.8z"/>
			</g>
		</g>
		<g>
			<g>
				<path class="st3" d="M266.6,700.1c1.2,0.4,2.4,0.8,3.7,1.1c1,0.2,2-0.2,2.4-1.2c0.4-0.9,0.1-2.1-0.8-2.6c-1.3-0.7-2.6-1.2-4-1.7
					c-1.1-0.4-2.6,0.5-2.8,1.6C264.8,698.6,265.4,699.7,266.6,700.1L266.6,700.1z"/>
			</g>
		</g>
		<g>
			<g>
				<path class="st3" d="M246.1,737.5c2.1-0.4,4.1-0.9,6.1-1.7c1.7-0.7,0.8-3.4-0.9-3.3c-2.1,0.1-4.2,0.6-6.3,1
					C242.4,734,243.5,738,246.1,737.5L246.1,737.5z"/>
			</g>
		</g>
		<g>
			<g>
				<path class="st3" d="M356.8,746.9c2.1,0.5,4.2,1,6.4,1.5c3.1,0.8,4.4-4,1.3-4.7c-2.1-0.5-4.2-1.1-6.3-1.6
					C355,741.3,353.7,746.2,356.8,746.9L356.8,746.9z"/>
			</g>
		</g>
	</g>
	<path class="st17" d="M277.8,792.5c-5.4,1.5-10,3.4-19.7,5.2c4.3-1.7-5.2,0.6-5.3,0.2c-4.8,1.7-9.6,3.5-14.3,5.5
		c-7.2,2.2-15.5,5.5-21.2,9.4c1.9-1.3,4.6-2.8,8.1-4.3c-4.4,2.7-8.7,5-13.1,8c-4.3,2.9-8.9,6.8-11.1,12.6c0.5-1.8,1.4-3.5,2.3-5.2
		c-3.2,3.9-4.4,8-4.8,11.7c-0.2,3.8,0.7,7.2,2.1,10.3h-1.2c0.9,0.3,2.7,3.9,5.2,7.1c2.4,3.3,5.2,6.5,6.3,7.6
		c-6.5-7.4-8.2-11.6-9.3-15.6c-0.5-2-0.9-4.1-0.9-7c0-1.4,0.1-3,0.6-4.9c0.3-1.9,1.1-4,2.3-6.4c-2.5,7.4-2.1,13.1,2,19.8
		c1,2.6,1.4,3.6,1.2,3.9c1.8,2,3,2.3,6,5.7l0.3,1.3c3.6,5,5.9,7,8.4,8.9c1.3,1,2.5,1.9,4.1,3.1c1.6,1.2,3.4,2.7,6.4,4.6
		c0.8,1.1-2.5-0.1-6.1-2.7c-3.7-2.6-7.3-6.5-10-9.2c1.2,2.4-0.8,0.2-2.8-2s-3.9-4.4-2.7-1.3l3,2.5c2.3,2.9,1.4,2.9-0.1,1.1
		c3.4,3.7,2.4,3,4.3,4.1c3.3,3.8,5.4,5.6,6.2,6.4c0.8,0.8,0.4,0.8-0.1,0.7s-1-0.2-0.3,0.7c0.4,0.4,1.1,1.1,2.4,2.1
		c1.3,1,3.3,2.3,6.6,3.8c-1.6-0.5-4.2-1.7-6-2.7s-3-1.8-2.8-1.1c-3.7-2.7-6.3-5.6-8.7-8.4l-1.1,0.3c4.4,5.2,10.2,9.6,16.6,12
		c6.4,2.4,11.9,2.8,16.3,2.7c-4.2-0.4-6.6-0.9-7.6-1.3c-1.1-0.3-1-0.5-0.6-0.5c0.8-0.2,2.4-0.2-1.6-1.6c3.3,0.7,6.1,1.4,7.9,1.9
		c0.6,0,3,0.3,5.1,0.3c2.1,0.1,3.8,0,3.3-0.2c0.9,0.5,3.7,1,7.2,1.3c3.6,0.3,7.7,0.4,11.6,0.5c7.7,0.2,14,0.2,10.4,1.4
		c4.7-0.1,14.2-0.9,24.8-2.3c10.6-1.4,22.3-3.2,32-4.5l-5.1,1.2c20.6-1,17.4-3.6,29-5.5c-10.1,1.8,9.3-0.3,13.5-0.1
		c9-1.4,16.3-3.1,29.2-3.3c2.7,0.7,3,1.8,11.1,2c1.8-0.2,3.7-0.4,5.6-0.6c8.1,0.2,19.1,0.3,24.3,1.1h-1.1c9.1,1.1,9.7,0,2.6-0.7
		l8.9,0.2l0.3,0.3c11.7,0.5,22.9,0.4,41.5,2.1c-5.1,0.3,13.8,2.9-3.1,1.4c4.9,0.1-2.5-1-3.4-1.4c-6-0.8-11.7-0.5-14.4-0.7
		c1.9,0.6-0.1,1.5-3.4,1.7c6.1,0,17.5,1.1,27.9,2.1c10.4,0.9,19.7,1.6,21.3,0.7c7.5,0.7,16.3,1.3,25.3,1.8c9.1,0.3,18.4,0.6,27.1,1
		c-0.7-0.1-2.1-0.3-1.7-0.4l15,0.8l-3.5,0.2l9.9,0.6c1,0.3-2.8,0.7-7,0.8c-2.4,0.1-4.5-0.1-2.2-0.3c-10.8,0.7,8.9,0.3,1.9,1
		c-2.6-0.1-6.1,0.1-7.9,0c12.3,0.5,17.9-0.8,25.5,0c2.9-0.4,7.3-0.9,12.4-1.3c5.1-0.3,10.7-0.8,16.3-0.8c-4.2,0.7,11.9-0.8,6.5,0.4
		c4.2-0.6,14.1-0.9,15.7-1.6c-1.5,0.3-6.3,0.7-9.6,0.8c4.5-0.6,5-1.2,10.5-1.5c0.7,0,0.3,0.2,0.3,0.2c7.1-1.1,2.2-2,14.7-3.2
		c32.8-3.7-4.3,2.5,0.4,2.4c1.1-0.6,15.6-2.3,22.2-2.6l-1.5,0.4c3.3-0.5,8.2-1.5,11.8-1.4c1.9-1,5.6-2.1,7.9-2.8l14.6-1.8l-2.9,0.8
		c3.3-0.6,6.2-0.9,9.2-1.3c1.4,0.4-3,0.8-7.4,1.5c2.5,0.2,5.4-0.1,8.8-1.1l-1.8,0.2c3.7-0.8,17.2-3.2,6.3-2.1
		c8.1-1.5,10.8-0.7,16.4-1.6c0.7,0.4-4.4,1.1-1.5,1.2c5.4-0.5,9.1-0.9,13.4-1.6c-4.3,0.3,1.1-0.6-5.7-0.1c2.6-0.6,9.5-1.4,9.1-1.6
		c-2.2,0.4-3.7,0.7-7.6,0.9c7.3-1.1,14.9-2,22.5-2.4c-0.3,0.1-1,0.3-1.8,0.5c9.6-1.8,24.3-3.2,30.7-4.7l-2.9,0.1
		c-2.3,0.5-7.1,1-9.1,0.9c7.3-1-5.4-0.3,2.3-1.5c10.6-1.5,20.3-1.3,26-2.8c-10.2,0.8-24.1,1.4-28.1,2.4c2.2-0.2,4.4-0.4,6.6-0.6
		c-4.9,0.9-9.8,1.9-14.7,2.8c-0.7-0.4-13.1,1.7-13.1,0.9c5.1-0.7,9.8-1.2,13.9-1.7c-1-0.2-13.8,1.2-19.3,1.8l6.9-0.5
		c-12.1,2-27.7,3.6-39.4,5.5c9.2-1.7-11.9,0.9-4.6-0.6c2.9-0.8,8-0.7,6.5-0.7c0.8-0.8-7.3,0.7-9.8,0.5c-1.1,0.6-13.2,2.2-6,1.9
		c-4,0.1-12.4,1.8-17.9,2c1.8,0.6-9.9,1.6-11.8,2.2c-2.3,0.2-4.4,0.3-6,0.3c4.9-0.8,10.9-1.8,17.1-2.9c2.6-0.1,7.3-0.7,5.8-0.7v-0.3
		c9.4-1.7,18.8-3.3,25.5-4.5c1.1-0.1,2.2-0.3,3.2-0.4l-0.6,0.2c0.3-0.1,0.7-0.1,1-0.2c55-6.5,110-12.7,165.2-12
		c-3.6,0.1-9.5-0.1-12,0.3l0.4-0.2l-5.6,0.3c4.7,0,14.1-0.1,18.2-0.5c3.9,0.1,7.7,0.2,11.6,0.3l-9.7-0.6c0,0,0,0,0.1,0
		c0,0,0,0-0.1,0l-11.5-0.7c7.6-0.5,14.7-1.1,23.7-0.8c-2.9,0.3-0.1,0.4,0.7,0.6c24.9-2.1,49-2.2,74.1-1.7
		c10.6,0.2,20.2,2.1,30.5-1.5c8.7-3,18.7-10.5,28.2-10.3c1.6,0,4.8,0,6.9,0.1c-0.6,0.6-1.1,1.9-1.9,2.5c3.6,0.2,8.7-1.1,12.1-2.1
		c3.1-0.3,8.3,0.3,11.6-1c-4,0.1-8.5,0.4-12.3-0.2c8-7,41.9,2.9,32.7-17.1c-1.5-3.2-4.1-5.5-7.2-7.2c-6.7-3.5-14.7-3.9-22.1-4.2
		c-1-0.1-2-0.3-3-0.5c0.2-0.1,0.2-0.3,0.3-0.4c-0.2-0.1-0.5-0.2-0.8-0.2c0.2-0.1,0.3-0.3,0.4-0.4c-2.5-0.6-5-1-7.5-1.2
		c-1.3-0.1-2.6-0.2-3.9-0.2c-0.9,0-2.1-0.2-2.9,0.1c0.4,0.1,1,0.4,1.4,0.4c-1.3,0.1-2.7,0.4-3.9,0.5c0.7,0.1,3.1,0.6,3,0.6
		c-2.1,0-4.8,0.5-4.6,1.6c-16.2-4.7-34.5,4.2-51.1,3.2c-10.2-0.6-21-2.7-31.3-2.4c5.8-0.2-3.7-1-8.2-1.8c-14.2-0.6-44.3-2.4-65.8-3
		c2.9-0.7-3-1-9.9-1.3s-14.7-0.6-15.5-1.3c-4.8-0.2-12.2-0.3-12.8,0.3c2.7-0.2,9.1,0.5,8.2,0.8c-7-0.2-17.6-0.6-18.7,0.1l-8.6-1
		c-0.4,0.3-1.8,0.7-4.1,0.8c-1.9-0.1-3.7-0.1-5.6-0.2c-3.4-0.5-3.5-0.4-3.7-0.1c-2.1-0.1-4.1-0.1-6.2-0.2c2.4-0.3,4.4-0.5,5.3-0.8
		c-7.3-0.4-6.3,0-11.5-0.1c-1.7-0.5,5.2-1,10.9-1.1l-9.4-0.8c-9.2,0.5-25.1,1.2-39.6,0.3c2.4-0.4,7.2-0.2,3.4-1.1
		c-6.3,0-14.8,0.6-23-0.2c1.1,0,0.4-0.1,1.6-0.1c-14.6,0.1-10.9-0.7-24.1-1.4c0.2-0.1,0.3-0.2,0.7-0.2l-8.1,0.1
		c-17,0.3-18.7-1.8-28.7-2.9h2.2c-3.1-0.6-9.8-1-16.3-1.4c-6.6-0.4-13.1-0.8-16-1.1c7,1,2.3,0.7,7.4,1.9c6.3,0.2,4.6-0.9,15,0.1
		c-1.5,0.8-14.8,0.1-17.6,0.6c-5.9-0.4-9.6-2-10.1-2.5c-14.6-1.1-22.7-2.2-40.6-3.7c-6.5,0-11.8,1.2-26.5-1.3l0.9-0.2
		c-0.6,0.5-7.2-0.8-10.4-0.7c5,1.3-6.5,0-0.4,1.4c-8.8-0.7-10-2-10.8-2.8c-6.4,0.7-17.3-2-31-1.9c2.5-0.5,17.3,0.3,11.3-0.6
		c-5.9,0.1-11.7,0.3-17.6,0.6l7.7,0.3c-13.3,0.4-16.9-0.7-24.6-1.1c-0.8-0.2,0.1-0.3,1.7-0.4c1.5-0.1,3.8,0,5.6,0
		c-4.1-0.2-10.6,0-16,0.4c-4,0.4-18,1.4-23.4,2.6c-0.7,0-1.5,0.1-2.3,0.1c0.2-0.1,0.6-0.2,1-0.2c-1.1,0.1-2,0.2-2.9,0.3
		c-2.3,0.2-4.7,0.4-7,0.5l1.4-0.3c-0.9,0.1-1.8,0.3-2.7,0.4c-2.4,0.2-4.8,0.4-7.2,0.7l-3.6,0.8l1.8-0.2c-0.2,0.5-2.4,1.2-5.8,2
		c-4.1,0.7-8.1,1.4-12.2,2.3c-4.2,0.9-8.5,1.9-12.7,2.9c-4.6,0.9-9.7,2.2-14.4,3.3c-5.8,1.4-11.1,2.5-13.8,2.4
		c15.5-4.1,23-5.8,39.7-9.8c4.5-0.4,1.8,0.2-2,1.2c-3.8,0.9-8.7,2.1-8.9,2.4c3.2-0.7,6.3-1.3,9.5-1.9c-1.6-0.4,18.5-3.8,13.2-4.2
		c-5.3,0.9-10.7,1.7-15.9,2.8c-5.2,1.1-10.3,2.2-15.3,3.4c-9.9,2.3-19.4,4.4-28.4,5.6c5.2-2.9,9.8-6,14.4-9.3c0-0.1,0.2-0.3,0.9-0.6
		l-0.9,0.6c0.1,0.3,3.5-0.7,7.4-1.8c-0.7,0.5-1.4,1,3.3-0.1c9.8-1.8,14.7-4.4,22.3-5.8l-2.3,0.6c3.6-0.5,7.7-1.2,11.5-2
		c3.8-0.7,7.5-1.3,10.2-2c3,0.1-2.1,0.9-6.6,1.6c-4.5,0.7-8.2,1.6-2.6,1c-4,0.6-8.7,1.5-13.1,2.6s-8.4,2.3-11.2,3
		c4.8-1,9.5-1.7,12.7-2c3.2-0.2,4.8-0.1,3.5,0.5c10.5-2.3,10.4-2.9,9.9-3.4s-1.4-0.9,8.2-2.5c4.4-0.6,8.9-0.9,13.4-1.3
		c1.5-0.6,3-1.2,4.4-1.6c8.1-0.6-4.8,1.3,7.5,0.4c3.3-0.9,11.3-0.6,13.7-1c-0.3,0.3-0.5,0.5,5.8,0.5c0.4-0.2-0.2-0.6,4.8-0.7
		c3.4,1.2-12.7,0.4-6.9,1.4c14-0.1,9-1.1,11.2-1.6c-0.5,0-1.3,0-2.7,0c0.2-0.4,6.1-0.1,5.5-0.5c-2.4-0.1-4.8,0.1-6.9,0.2
		c4.3-0.4-7-0.8-11.3-0.6c-9.8,0.7-30.3,1.9-43.8,4.2c1.2-0.2,3.5-0.7,2-0.6c-2.4,0.4-4.7,0.7-6.8,1c-2.1,0.4-4.1,0.7-6,1.1
		c-3.8,0.7-7.3,1.3-10.8,2c-6.9,1.5-13.9,3.2-23.5,5.6l-1.9,1.4c-8.4,1.9-10,2.7-10.3,3.4c-0.2,0.7,1.2,1.1-0.8,1.6
		c-3.7,0.7-6.7,1.7-10,1.5c0.6-0.2,1.1-0.3,1.6-0.5c-5.1,0.7-5.9,0.9-6.5,1.1c-0.6,0.2-1.2,0.5-5.7,0.4c-3.6,0.2-2.1,0.3-0.1,0.3
		s4.2,0,1.9,0.3c-2.5,0-4.1,0-5.3,0.1c-1.3,0.1-2.2,0.3-3.4,0.3c-2.3,0.1-5.2,0.3-12.8-1.8c0.4-0.1,0.1-0.4,0.8-0.5
		c0.7-0.1,2.5,0.1,6.9,0.8c-2.7-0.7-5.5-1.5-8.4-2.3c5.3,1,6.2,1.1,7.3,1.2c1,0.1,2,0.4,7,0.8c2.4-0.2,3.3-0.7,4.2-1
		c0.8-0.3,1.6-0.6,3.7-1c-1.8,0.1-2.6,0.4-3.6,0.5s-2.2,0.4-4.9,0c-6.4-0.9,1.1-0.3,1.8-0.6c-4.3,0.2-6.7-0.4-8.9-1.1
		c-2.3-0.7-4.4-1.4-9.2-2c1.2,1.4-0.4,1,5.5,3c-3.1-0.5-6.6-1.4-9.4-2.3c-2.8-0.9-4.7-1.7-4.2-2l-1.8,0.5c-1.6-0.5-7.5-1.4-7.8-1.6
		l-2.6,0.1c5.2,1.2,9.7,2.2,18.2,3.8c-3.7-0.2,4.1,2.3-7,0.2c-4.9-0.9-0.4-0.6-0.6-0.9c-3.3-0.6-6.2-0.9-8.8-1.2
		c-2.6-0.2-4.9-0.6-6.9-0.7c-2-0.2-3.9-0.3-5.6-0.5c-1.7-0.1-3.2-0.2-4.8-0.3c-6-0.3-11.5-0.6-21.8,0.8c5.1-1,17.9-1.6,28.3-1.6
		c-6.2-1-13.4,0.1-19.3,0.5c5.2-0.7,6.1-1-0.2-1c-0.8,0.2-1.7,0.5-2.5,0.7c-3.7,0.3-10.2,1.1-10.8,1c-0.1,0.2,1.5,0.1,4.8-0.1
		c-4.5,0.8-10.9,2-18,3.4c-7,1.4-14.8,3-22.4,4.6c4.2-0.9,9.1-2.7,13.3-4c-16.7,2.1-32.8,1.2-49.4,6.1c-8.8,2.6-17.4,6.1-26.4,7.4
		c-11.3,1.6-23.6,0-33.5,5.5c-4.3,2.4-8.2,7.7-5.7,12c1.4,2.5,4.5,3.5,6.7,5.4c5.3,4.5,5.1,12.9,9.5,18.3c2.8,3.5,7,5.3,11,7.2
		c11.4,5.4,22.1,12.3,31.6,20.6 M437.6,784.5l-6.5,1.4C433.5,785.3,436,784.7,437.6,784.5z M321.4,873.7c-1.6,0.3-3.9,0.7-5.9,1.1
		c-1.8,0.1-2.2,0.1-2.2-0.1C316,874.4,318.7,874,321.4,873.7z M210.3,845.3c-0.1-0.2-0.3-0.6-0.4-1
		C210,844.6,210.2,844.9,210.3,845.3z M407.7,867c-2.6,0.4-2.2,1.5-12.6,1.6c-0.1-0.1,0.7-0.2,1.8-0.3c-4.7,0.3-5.5,0.2-10.7,0.3
		c-1.7-0.7,6.3-1.1,9.7-1.7c-3.3,0.3-7,0.9-10.7,1.1l0.8-0.4c-3.7,0.4-7.3,0.7-11,1.1c-4.4,1,8.4-0.7,9-0.2l-7,1.1
		c-8,0.8-29.3,3.7-36.9,3.6c-9.4,0.8-5.1,1.2-7.3,2c-5.5,1.4-10.9,1.2-16.4,2.2c0.3,0.6-6.3,1.3-6.4,2.1l-9.2,0.8
		c-4.9,1.7,11.1-1,13.6-0.8c5.1,0.4-6.7,1.1-3.4,1.4c7-0.9,7.4-1.5,10.8-2.1c4-0.6,6.2-0.6,6.1-0.2c-11.3,1-5.9,1.6-15.1,2.5
		l-0.4-0.2c-0.1,0.8-13.3,1.8-18.3,2.6c-10.3,0,8.1-1.9,7.7-2.2c-4.1,0.5-8.2,1-12.4,1.4c5.3-1-0.2-1,7-2.1c-7.5,1-8.5,0.3-15.7,1.3
		c8.1-1.7-10.3-0.3-11.2-1.1c7.9-0.4,21.9-0.6,22.7-0.4c1.1-0.3,10.2-1,13.9-1.1l5.6-1.7c-6.6,0.7-15.5,2.1-13.1,1
		c-3,0.4-6,0.9-8.9,1.3c9.1-2.2,8.6-2.1,16.8-3.6c-17.3,0.7-30.5,4.1-45,3.2l2.2-0.1c-7.1,0.2-12.9-0.2-17.5-1.1
		c-4.6-0.9-7.8-2.3-10-3.7c-0.1-0.1-0.1-0.1-0.2-0.2c0.4,0.2,0.8,0.4,1.3,0.6c7.9,3.4,17.8,3.8,27.2,3.6c15.1-0.3,30-1.6,44.9-3.3
		l-1.8,0.7c0.4-0.1,0.6-0.1,1-0.2c17.1-2.4,1.7,1,19.2-1.7c-0.7,0.2-1,0.3-1.3,0.4c7.1-1.3,20.3-2.6,21.7-3.6
		c-1.7,0.2-8.3,0.8-11.5,1c7.5-1,15-2,22.4-2.8c1.6,0,3.1-0.1,4.9-0.2l0,0l0,0c1.7-0.1,3.6-0.4,6.1-0.8c0.6-0.1,1-0.2,1.3-0.3
		c8.9-0.9,17.9-1.6,26.9-2C397.5,866.2,418.1,865.8,407.7,867z M435.7,866.7c-10.6-0.4-3.2-0.4-10.8-1c-0.4-0.1-0.1-0.3,0.5-0.4
		c8,0.2,15.9,0.6,23.9,1.2C442.4,866.2,435.3,865.8,435.7,866.7z M468,868.7c-3.6-0.4-13.9-1-14.7-1.7c5,0.4,6.4,0.4,5.9,0.3
		c5.2,0.4,10.4,0.9,15.5,1.4c0.2,0.1,0.6,0.3,1.4,0.4C473.7,869,470.1,868.7,468,868.7z M601.5,879.8c-9.2,0.1,0.5-0.5-4.2-0.8
		c-7,1.1-9-0.9-16.4,0.4c-8.9,0.1-6.1-0.6-8.9-1c8.9,0.1-4.1-0.9,7-1.1c-4.5-0.2-6.2-0.1-7.7,0.1c-1.5,0.2-2.8,0.5-6.6,0.1l-1.1-1
		c-3.5-0.2-8.9-0.6-14.6-1c-5.7-0.4-11.8-0.8-16.5-0.9c7.8,1.2-4.7,0.3-3.5,0.9c1.5-0.7,12.2,0.7,12,1.1c-5.6-0.2-18.6-1.1-23.7-1.8
		l10.2,1.4c-4.3,0.2-19.4-0.4-19.8-0.3c-4.6-0.8-11.5-1.5-13.8-2.2l8.7,0.2l2.9,0.9l5.1-0.3c-5.5-0.8-17.1-2.6-19.5-3.5
		c8.8,0.9,20.8,2,35.2,2.6c8.3,0.7,16.5,1.4,24.8,1.8c19.8,1,39.6,1.1,59.4,0.3c-0.1,0-0.3,0.1-0.4,0.1c-2.3,0.4-5,0.7-8.2,0.9
		c1.8-0.1,4-0.2,7-0.1c-5.3,0.7-10.7,1.5-16,2c4.1,0.1,6.4-0.2,8.9-0.6c2.5-0.4,5.3-0.8,10.2-0.8
		C611.4,878.3,612.1,878.7,601.5,879.8z M876.8,848.5c6.9,0.1,13.8,0.1,20.8,0h-0.1l6.8,0.6c-2.6,0.2-5.2,0.4-7.7,0.6L876.8,848.5z
		 M403,799.8c2.2-0.1,2.9,0.1,3.5,0.3c-1.8,0.2-3.5,0.4-5.2,0.5L403,799.8z M339.6,792.6c0.4-0.5,3.3-0.5,6.6-0.4
		c3.3,0.1,6.8,0.5,8.6,0.4c1.4,0.1,5.2,0.8,8.2,1.5s5.1,1.4,3.7,1.4c-4-1.1-6.2-1.1-8.2-1.1c-2-0.1-3.8-0.2-7.7-1.4
		c-1.5,0.4,0.6,0.9,3.6,1.5c-1.1-0.1-1.8,0-1.9,0.1c-1.6-0.3-3.1-0.5-4.6-0.7s-2.9-0.3-4.4-0.5C341.2,793,338.9,792.8,339.6,792.6z
		 M328.4,792.6l-2.6,0.2c-10,0.3-16.4,1.4-19.9,2c-3.4,0.6-4.3,1-3.3,1.1c-2.3,0.3-4.7,0.7-7,1.1c4.1-1.2,7.9-2.2,10.2-2.7
		C314,793,323.1,792.4,328.4,792.6z M276.7,799.5c-0.5,0.3,0.1,0.3,1.1,0.2c-2.6,0.6-5.2,1.3-7.8,1.9
		C271,801,269.1,800.9,276.7,799.5z M204.8,836.3c0-1.4,0.6-2.8,1-4.1c0.9-1.9,1.9-3.4,2.2-3.5c-0.3-0.7,1.1-3.6,4.1-6.6
		c3.1-3.3,7.9-6.2,10.4-7.9c6.7-3.5,9.4-3.9,11.7-4.6c2.4-0.5,4.4-1.1,10.8-3.3c-1.7,0.3-3.4,0.6-5,0.9c5.6-2,9.8-3.3,14.1-4.4
		c4.4-1.2,8.9-2.2,15.4-3.5c1.9,0.4-6,1.2-8.8,2.3l6.4-0.6c-2.8,0.7-8,2.6-8.1,1.8c0.1,0.4-4,2,4-0.2l-5.9,2c0.4,0,0.9,0,1.4-0.1
		c-1.8,0.5-3.6,1-5.4,1.5c-2.4,0.4-6.5,1.6-10.3,2.1c-0.4-0.2,3.3-1.4,5.4-2.1c-5.7,1.3-10.4,3.1-13.3,4.4c4.2-1.5,5.3-1.7,5.6-1.5
		c0.3,0.1-0.2,0.6,0.9,0.6c-2.5,1-5.8,2.2-8.7,3.5s-5.5,2.5-6.8,3.3c-1.6,0.8-3.2,1.5-4.5,2.2c-1.4,0.6-2.4,1.3-3.3,1.7
		c-1.7,0.8-2.3,0.8-0.7-0.8c-3.3,2.8-6.9,5.9-8,9.8c0.8-1.7,1.4-2.5,1.8-2.9c0.5-0.4,0.8-0.4,1.1-0.4s0.7-0.1,1.3-0.7
		c0.3-0.3,0.6-0.7,1.2-1.3c0.6-0.6,1.2-1.3,2-2.2c0.7-0.2,0.9-0.2,0.8,0.1c-3.1,2.5-5.5,5.2-7,8.3c-0.5,0.8-1,1.6-1.4,2.3
		c0.8-2.3-0.6-0.5-0.8-1.1c-0.4,0.8-0.4,1.6-0.5,2.1c-0.1,0.6-0.1,1,0,1.3c0.1,0.6,0.2,0.7,0.5,0.4c0.2-0.2,0.5-0.6,0.7-1.2
		c-0.1,0.5-0.3,1-0.4,1.6c-0.4,2.9,0,5.8,1,8.7c0.2,1.4,0.5,2.8,1,4.1c-1.2-2-2.1-4.1-2.8-6.2c-0.2,1.4,0.4,3.2,1.3,5
		c0.9,1.8,2.2,3.6,3.2,5.1c0.8,1.8-0.8,0-2.8-2.9s-3.8-7-4.8-9.2C204.8,839,204.6,837.7,204.8,836.3z"/>
	<g class="st15">
		<g>
			<g>
				<path class="st16" d="M1062.3,637c-0.4,0.6-0.8,1.1-1.2,1.7c-0.7,1-0.2,2.6,0.8,3.1c1.1,0.6,2.5,0.3,3.1-0.8
					c0.4-0.6,0.7-1.2,1.1-1.8c0.6-1,0.3-2.5-0.8-3C1064.2,635.6,1063,636,1062.3,637L1062.3,637z"/>
			</g>
		</g>
		<g>
			<g>
				<path class="st16" d="M1011.7,621.9c-0.1,0.2-0.2,0.3-0.3,0.5c-0.3,0.1-0.5,0.3-0.8,0.4h0.1c-0.3,0-0.6,0-0.9,0
					c0.3,0.1,0.7,0.1,1.1,0c0.3-0.1-0.2,0-0.3,0c-0.2,0-0.1,0,0.1,0c-0.5-0.2-0.9-0.6-0.9-1.2c0.1,1,0.8,1.9,1.9,1.9
					c1,0,2-0.9,1.9-1.9c-0.1-1.2-0.8-2.2-2-2.5c-1.4-0.3-2.9,0.4-3,2c0.1-0.3,0.2-0.6,0.2-0.9c-0.1,0.3-0.3,0.5-0.3,0.8
					c-0.1,0.9,0.2,1.8,1.2,2.1C1010.6,623.3,1011.4,622.7,1011.7,621.9L1011.7,621.9z"/>
			</g>
		</g>
		<g>
			<g>
				<path class="st16" d="M1016,658.4c1.2,1.8,2.4,3.5,3.8,5c1.1,1.2,2.7-0.3,2.1-1.6c-0.8-1.8-1.8-3.5-2.9-5.2
					C1017.9,654.7,1014.7,656.5,1016,658.4L1016,658.4z"/>
			</g>
		</g>
		<g>
			<g>
				<path class="st16" d="M934.5,633.6c1.8,0.8,3.6,1.6,5.3,2.4c1.7,0.8,3.2-1.8,1.5-2.6c-1.8-0.8-3.6-1.6-5.4-2.4
					C934.3,630.3,932.8,632.8,934.5,633.6L934.5,633.6z"/>
			</g>
		</g>
		<g>
			<g>
				<path class="st16" d="M954.5,673.3c0.9,0.1,1.8,0.2,2.8,0.2c1.7-0.1,2.2-2.7,0.4-3.1c-1.1-0.3-2.1-0.3-3.2-0.4
					c-0.9-0.1-1.7,0.8-1.7,1.7C952.8,672.6,953.6,673.2,954.5,673.3L954.5,673.3z"/>
			</g>
		</g>
		<g>
			<g>
				<path class="st16" d="M856.1,668.4c1.1-0.6,2.5-0.6,3.5,0.2c0.7,0.6,1.7,0.7,2.4,0c0.6-0.6,0.7-1.8,0-2.4
					c-2.2-1.8-5.1-2.1-7.6-0.7C852.6,666.6,854.3,669.5,856.1,668.4L856.1,668.4z"/>
			</g>
		</g>
		<g>
			<g>
				<path class="st16" d="M838,632.2c1.9-0.4,3.8-0.8,5.7-1.5c1.5-0.5,1.4-3.1-0.4-2.9c-2.1,0.2-4.1,0.6-6.2,1.1
					C834.9,629.4,835.8,632.7,838,632.2L838,632.2z"/>
			</g>
		</g>
		<g>
			<g>
				<path class="st16" d="M708.8,642.3c0.6,0.1,1.2,0.1,1.8,0.2c1,0.1,1.8-0.9,1.8-1.8c0-1-0.8-1.7-1.8-1.8
					c-0.6-0.1-1.2-0.1-1.8-0.2c-1-0.1-1.8,0.9-1.8,1.8C707,641.6,707.9,642.3,708.8,642.3L708.8,642.3z"/>
			</g>
		</g>
		<g>
			<g>
				<path class="st16" d="M722.2,675.8c2.5,0.2,4.9,0.5,7.4,0.7c1.1,0.1,2.1-1,2.1-2.1c0-1.2-1-2-2.1-2.1c-2.5-0.3-4.9-0.5-7.4-0.8
					C719.4,671.2,719.4,675.5,722.2,675.8L722.2,675.8z"/>
			</g>
		</g>
		<g>
			<g>
				<path class="st16" d="M638.8,643c2.5,0.3,4.9,0.5,7.4,0.8c1.7,0.2,1.7-2.5,0-2.6c-2.5-0.3-4.9-0.5-7.4-0.8
					C637.1,640.2,637.1,642.9,638.8,643L638.8,643z"/>
			</g>
		</g>
		<g>
			<g>
				<path class="st16" d="M654.7,687.9c2.7,0,5.2-0.1,7.9-0.5c1.9-0.3,1.1-2.8-0.4-3c-2.5-0.3-4.9-0.3-7.5-0.1
					C652.3,684.3,652.3,687.9,654.7,687.9L654.7,687.9z"/>
			</g>
		</g>
		<g>
			<g>
				<path class="st16" d="M709.4,743.5c1.7-1,3.4-2,5.1-3.1c2.1-1.4,0.3-4.5-2-3.4c-1.8,0.9-3.4,2-5.1,3
					C705.2,741.5,707.2,744.8,709.4,743.5L709.4,743.5z"/>
			</g>
		</g>
		<g>
			<g>
				<path class="st16" d="M809.1,650.8c1.2-0.3,2.7,0.2,3.6,1c1.8,1.7,4.2-0.8,2.7-2.7c-1.8-2.1-4.6-2.8-7.3-2
					C805.8,647.9,806.7,651.4,809.1,650.8L809.1,650.8z"/>
			</g>
		</g>
		<g>
			<g>
				<path class="st16" d="M814.3,706.4c1.4,1.7,2.8,3.4,4.2,5c0.8,0.9,2.3,0.8,3.1,0c0.9-0.9,0.7-2.2,0-3.1
					c-1.4-1.7-2.7-3.4-4.1-5.1c-0.8-0.9-2.4-0.8-3.2,0C813.4,704.1,813.5,705.4,814.3,706.4L814.3,706.4z"/>
			</g>
		</g>
		<g>
			<g>
				<path class="st16" d="M958.9,714.1c1.4,2.2,2.8,4.3,4.4,6.3c1.3,1.6,3.7-0.4,2.7-2.1c-1.2-2.1-2.6-4.1-4-6.1
					C960.7,710.4,957.6,712.1,958.9,714.1L958.9,714.1z"/>
			</g>
		</g>
		<g>
			<g>
				<path class="st16" d="M1059.5,693.6c0.8,0.4,1.6,0.8,2.4,1.2c0.9,0.4,1.7,0.6,2.6,0.9c1.4,0.4,2.7-1.5,1.5-2.6
					c-0.7-0.6-1.4-1.2-2.2-1.7c-0.8-0.4-1.6-0.8-2.3-1.3C1059.3,688.9,1057.2,692.4,1059.5,693.6L1059.5,693.6z"/>
			</g>
		</g>
		<g>
			<g>
				<path class="st16" d="M1115.1,628.7c0.2,1.5,0.6,2.9,1.2,4.3c0.3,0.8,1.1,1.5,2.1,1.2c0.8-0.2,1.5-1.2,1.2-2.1
					c-0.5-1.5-1-2.8-1.9-4.1c-0.3-0.5-0.9-0.8-1.5-0.6C1115.6,627.5,1115,628.1,1115.1,628.7L1115.1,628.7z"/>
			</g>
		</g>
		<g>
			<g>
				<path class="st16" d="M1118.5,607.6c0,0.6,0.2,1.2,0.5,1.7c0.5,0.8,1.8,1.1,2.5,0.3c0.4-0.5,0.8-0.9,0.9-1.5
					c0.2-1.2-0.4-2.3-1.6-2.5C1119.6,605.5,1118.5,606.4,1118.5,607.6L1118.5,607.6z"/>
			</g>
		</g>
		<g>
			<g>
				<path class="st16" d="M1056.3,602.6c0.6,0.7,1.1,1.3,1.8,1.9c0.7,0.6,1.7,0.8,2.5,0.2s1-1.6,0.5-2.5c-0.5-1-1.1-1.7-1.8-2.6
					c-0.7-0.9-2.3-0.8-3,0C1055.4,600.5,1055.5,601.7,1056.3,602.6L1056.3,602.6z"/>
			</g>
		</g>
		<g>
			<g>
				<path class="st3" d="M1091.7,663.1c-0.3,1.5-0.6,3-0.1,4.5c0.3,1.1,1.9,1.4,2.5,0.3c0.7-1.4,0.8-2.9,0.9-4.4
					C1095,661.7,1092,661.2,1091.7,663.1L1091.7,663.1z"/>
			</g>
		</g>
		<g>
			<g>
				<path class="st3" d="M1093.6,661.9c0,1.6,0.1,3.1,0.2,4.7c0.1,1.1,0.8,2,2,2c1,0,2.1-0.9,2-2c-0.2-1.7-0.4-3.4-0.8-5.2
					C1096.5,659.5,1093.6,660,1093.6,661.9L1093.6,661.9z"/>
			</g>
		</g>
		<g>
			<g>
				<path class="st3" d="M1084.5,624.1c0.4,1.9,0.9,3.8,1.3,5.7c0.5,2.2,3.8,1.3,3.4-0.9c-0.4-1.9-0.8-3.8-1.2-5.7
					C1087.5,620.9,1083.9,621.9,1084.5,624.1L1084.5,624.1z"/>
			</g>
		</g>
		<g>
			<g>
				<path class="st3" d="M1030.5,631.8c2.8,0,5.6,0.1,8.4-0.2c2.3-0.2,2.3-3.5,0-3.6c-2.8-0.1-5.6,0-8.4,0.1
					C1028.2,628.2,1028.2,631.8,1030.5,631.8L1030.5,631.8z"/>
			</g>
		</g>
		<g>
			<g>
				<path class="st3" d="M985.8,649.3c2.7,0.1,5.3,0.3,7.9-0.3c1.5-0.3,1.5-2.8,0-3.1c-2.7-0.5-5.2-0.3-7.9-0.1
					C983.6,646,983.6,649.2,985.8,649.3L985.8,649.3z"/>
			</g>
		</g>
		<g>
			<g>
				<path class="st3" d="M951.3,614.3c2.2-0.1,4.4-0.2,6.5-0.3c2.4-0.1,2.5-3.9,0-3.8c-2.2,0.1-4.4,0.2-6.5,0.3
					C948.9,610.6,948.8,614.3,951.3,614.3L951.3,614.3z"/>
			</g>
		</g>
		<g>
			<g>
				<path class="st3" d="M882.3,659.5c2.2-0.1,4.4-0.1,6.5-0.2c2.5-0.1,2.5-4,0-3.9c-2.2,0.1-4.4,0.2-6.5,0.3
					C879.9,655.8,879.9,659.5,882.3,659.5L882.3,659.5z"/>
			</g>
		</g>
		<g>
			<g>
				<path class="st3" d="M866,705.4c1.9-0.7,3.9-1.4,5.8-2.1c1.1-0.4,1.8-1.4,1.5-2.6c-0.3-1-1.5-1.9-2.6-1.5
					c-1.9,0.8-3.9,1.5-5.8,2.3c-1,0.4-1.7,1.4-1.4,2.5C863.7,704.9,864.9,705.7,866,705.4L866,705.4z"/>
			</g>
		</g>
		<g>
			<g>
				<path class="st3" d="M900.4,695.5c1.5,1.4,3.1,2.8,4.6,4.2c0.8,0.8,2.2,0.8,3,0s0.9-2.2,0-3c-1.6-1.4-3.1-2.7-4.7-4.1
					C901.3,690.9,898.4,693.7,900.4,695.5L900.4,695.5z"/>
			</g>
		</g>
		<g>
			<g>
				<path class="st3" d="M826,690.3c0.9,0.1,1.8,0.2,2.8,0.3c1.1,0.1,2.2-1.1,2.2-2.2c-0.1-1.3-1-2-2.2-2.2
					c-0.9-0.1-1.8-0.2-2.8-0.3c-1.1-0.1-2.2,1.1-2.2,2.2C823.9,689.4,824.8,690.2,826,690.3L826,690.3z"/>
			</g>
		</g>
		<g>
			<g>
				<path class="st3" d="M760.7,673c0.6,0.1,1.2,0.1,1.8,0.2c1,0.1,1.9-1,1.9-1.9c0-1.1-0.9-1.8-1.9-1.9c-0.6-0.1-1.2-0.1-1.8-0.2
					c-1-0.1-1.9,1-1.9,1.9C758.7,672.2,759.6,672.9,760.7,673L760.7,673z"/>
			</g>
		</g>
		<g>
			<g>
				<path class="st3" d="M749,650.5c2.5,0.3,4.9,0.5,7.4,0.3c1.8-0.1,2.3-2.7,0.4-3.2c-2.6-0.7-5.1-1-7.8-1.3
					C746.4,646.2,746.4,650.2,749,650.5L749,650.5z"/>
			</g>
		</g>
		<g>
			<g>
				<path class="st3" d="M684.5,669.7c2,0.9,3.8,1.7,5.9,2.2c1.8,0.5,2.7-2,1.2-2.9c-1.7-1.1-3.3-1.9-5.1-2.8
					c-1-0.4-2.2-0.3-2.7,0.7C683.2,667.8,683.5,669.3,684.5,669.7L684.5,669.7z"/>
			</g>
		</g>
		<g>
			<g>
				<path class="st3" d="M716.5,707c1.2,0.4,2.4,0.8,3.7,1.1c1,0.2,2-0.2,2.4-1.2c0.4-0.9,0.1-2.1-0.8-2.6c-1.3-0.7-2.6-1.2-4-1.7
					c-1.1-0.4-2.6,0.5-2.8,1.6C714.6,705.5,715.3,706.6,716.5,707L716.5,707z"/>
			</g>
		</g>
		<g>
			<g>
				<path class="st3" d="M696,744.4c2.1-0.4,4.1-0.9,6.1-1.7c1.7-0.7,0.8-3.4-0.9-3.3c-2.1,0.1-4.2,0.6-6.3,1
					C692.2,740.9,693.3,744.9,696,744.4L696,744.4z"/>
			</g>
		</g>
		<g>
			<g>
				<path class="st3" d="M806.7,753.8c2.1,0.5,4.2,1,6.4,1.5c3.1,0.8,4.4-4,1.3-4.7c-2.1-0.5-4.2-1.1-6.3-1.6
					C804.9,748.2,803.6,753.1,806.7,753.8L806.7,753.8z"/>
			</g>
		</g>
	</g>
</g>
<g id="popa">
	<path class="st18" d="M173,798c0,0,25-32,40-21c24,15,21,33,31,38s27,14,29,19s3,16,3,16s-31,8-45,0s-29-19-31-23l-12,1
		C188,828,172,814,173,798z"/>
	<path class="st19" d="M224,754c0,0-14,22-19,23s7,26,19,15s22-22,22-22L224,754z"/>
	<path class="st19" d="M362,756c0,0,11,22,9,28s27,5,26-14c-10-10-9-15-14-20S362,756,362,756z"/>
	<path class="st18" d="M366,783c0,0-12,11,6,37c18,12,37,0,37,0l-3-8c0,0,28,1,39-8s21-15,22-34s-9-17-9-17s-33,19-43,20s-18-3-18-3
		s-3.3,14.7-13.6,16.4C373,788,366,783,366,783z"/>
	<path class="st20" d="M250,572c-2-2-34-16-34-16l8.5-26.5L238,519l8,5L250,572z"/>
	<path class="st21" d="M233,516c0,0-7,26-2,40s30,42,30,42s4,55,0,60s-51,96-57,97s33,36,44,34s67-119,67-140s36,115,36,120
		s54-11,55-18s-31-82-31-97s-50-77-50-77s5-20,4-28s-17-37-17-37L233,516z"/>
	<path class="st22" d="M160,473c0,0,7,58,9,62s-17,30-2,65c4,9,8,2,8,2s6,10,8,0c-2-13-9-21-2-29c4,1,4.3,10.9,8,22c3,9,9,9,8,3
		c-1.7-10.1-8-33-5-36c5-1,5-2,9,4c1,6,1,14,5,11s3-16-3-24s-12-5-14-13s1-51,2-55s-1-12-1-12H160z"/>
	<path class="st22" d="M404,321c0,0,100.7-16.6,104.8-17s56.8-6,74.8,10c6.7,11.6-12.6-0.4-16.6-1c0.9,0.7,11.4,5.8,11,11
		c-0.7,8.3-8.7-8.3-23.6-10.8c2.9,1.4,5.5,2.3,7.4,4.1c3.5,4.4,6,9.4,3.5,10.6c-2,1-4.1-2.3-5-4.6c-2.2-0.9-4.7-2.5-5-4.6
		c-2.2,0.9-2.6,0.1-5.8,0c-10.9,2.6-14.3-0.2-21.1,3.3c-0.3,5.9,7.9,10,16.9,11s-0.3,8.4-5.3,6c-2-1-35,4.9-31-15.1
		c-17,2-88,29-88,29L404,321z"/>
	<path class="st23" d="M156,490c0,0,31-9,42-4s5-28,5-28l-5-5l3-11c0,0,22-23,25-24s6,92-10,138c0,0,10-34,24-26s45,36,54,36
		c4-11,16-39,16-39s19,29,17,32s10-2,10-6s-6-64,0-89s10-79,8-84l49-15v7c0,0,28-2,30-5s-1-54-8-53s-23,3-24,4s-3,5-3,5
		s-70,11-70,15c0,0-9-11-24-10s-30-6-36,18c0,0-23,6-39,21s-51,48-54,66s-3,20-3,20s-9,4-10,7S152,486,156,490z"/>
	<path class="st22" d="M268,298c0,0,4,35,1,39s25,33,40,38c4-1,6-38,4-48S268,298,268,298z"/>
	<path class="st24" d="M271,304c0,0,6.4,48.4,42.7,41.7C311,323,314,318,314,318L271,304z"/>
	<path class="st25" d="M250,260c0,0-1-37,42-43c27-7,29,19,29,19s19,1,22,16s-4,20-4,20s3,17-12,11s-59,15-59,15l-14.7-5
		c0,0-11.3-6-10.3-16S250,260,250,260z"/>
	<path class="st22" d="M265,293c0,0-17-13-15,5s18,10.6,18,10.6s16.5,35.4,47.2,25.9C335,326,331,311,331,311s-2-29,0-33s1-36-17-36
		c-9,15-31,24-39,18c1,11-4,15-10,16c1,7,6,15,6,15L265,293z"/>
	<path class="st25" d="M283,272c0,2.2,8-2,10-2s7,2,8,0s-3-4-7-4S283,269,283,272z"/>
	<path class="st25" d="M321,271c0,2,4,1,6,2s3,5,4,3s0-5-3-6S321,268,321,271z"/>
	<path class="st25" d="M292,284c-2-3,10-11,13-1C300.9,279.2,293.5,281.9,292,284z"/>
	<path class="st25" d="M320,284c-2-3,8-10,8.8-0.7C327,283,325,277,320,284z"/>
	<path class="st26" d="M322.1,292.8c-0.5-0.4-1,0.5-0.5,0.9c0.5,0.3,1,0.7,1.4,1.2c0.5,2.3-0.1,3.3-1.5,2.9c-0.3,0.1-0.7,0-1,0.2
		c-0.6,0.3-0.6,0.6-1.1,1.1c-1.3,1.3-1.5,1.9-3.5,1.4c-1.5-0.4-2.8-1.5-4.4-1.5c-0.5,0-0.9,0.1-1.4,0.2c-0.9,0.5-1.8,0.6-2.8,0.6
		c-2-1.2-2.4-2.7-1.3-4.3c0.3-0.5-0.5-1-0.9-0.5c-1.4,2.1-0.7,5,1.9,5.8c1.9,0.6,3.4-1,5.4-0.6c1.7,0.4,3.1,1.7,5,1.6
		c1.4-0.1,1.6-0.7,2.5-1.5c0.3-0.9,1.1-1.3,2.3-1.3c0.3,0,0.6,0,0.9,0c0.5-0.2,0.7-0.3,1.1-0.7C325.9,296,323.6,293.8,322.1,292.8z"
		/>
	<path class="st27" d="M316.3,311.8c-1.8,3.5-5.9,3.8-9.4,2.8c-2.3-0.6-7.4-2.7-7.7-5.5c-0.1-0.6-1.1-0.6-1,0
		c0.3,3.5,5.8,5.8,8.8,6.5c3.8,1,8.2,0.5,10.1-3.3C317.5,311.7,316.6,311.2,316.3,311.8z"/>
	<path class="st28" d="M285.8,282.7c-2.9,0.2-5.7,0.7-8.4,1.7c-0.6,0.2-0.3,1.2,0.3,1c2.7-0.9,5.4-1.5,8.2-1.6
		C286.4,283.7,286.4,282.7,285.8,282.7z"/>
	<path class="st28" d="M286.9,284.8c-2.3,0.9-4.2,2.2-5.9,3.9c-0.4,0.5,0.3,1.2,0.7,0.7c1.6-1.6,3.4-2.9,5.5-3.7
		C287.8,285.5,287.5,284.6,286.9,284.8z"/>
	<path class="st28" d="M324.6,260.3c-8.4-1.6-16.9-1.1-25.1,1.3c-0.6,0.2-0.4,1.2,0.3,1c8-2.4,16.4-2.9,24.6-1.3
		C324.9,261.3,325.2,260.4,324.6,260.3z"/>
	<path class="st28" d="M322.1,257.3c-4.7-1.4-9.6-0.8-14.4-0.1c-0.6,0.1-0.4,1.1,0.3,1c4.7-0.7,9.3-1.3,13.9,0.1
		C322.4,258.5,322.7,257.5,322.1,257.3z"/>
	<path class="st28" d="M305.1,286.7c-2,2.9-5.2,4.5-8.7,4.5c-0.6,0-0.6,1,0,1c3.9,0,7.4-1.9,9.6-5
		C306.4,286.7,305.5,286.2,305.1,286.7z"/>
	<path class="st28" d="M325.9,288.5c-1.6,0.1-3.1-0.6-4.2-1.8c-0.4-0.5-1.1,0.2-0.7,0.7c1.2,1.4,3,2.2,4.9,2.1
		C326.5,289.4,326.5,288.4,325.9,288.5z"/>
	<path class="st28" d="M175.6,602.4c-3.2-8.9-6.4-17.9-6.4-27.5c0-0.6-1-0.6-1,0c0,9.7,3.1,18.8,6.4,27.8
		C174.9,603.3,175.8,603,175.6,602.4z"/>
	<path class="st29" d="M215.2,769.9c-2.1,3.8-5.9,8.1-10.4,8.9c-0.6,0.1-0.4,1.1,0.3,1c4.7-0.8,8.7-5.3,10.9-9.3
		C216.4,769.8,215.5,769.3,215.2,769.9z"/>
	<path class="st29" d="M216,774.2c-2.6,3.6-6.1,6.4-10.2,8.2c-0.6,0.3-0.1,1.1,0.5,0.9c4.3-1.9,7.8-4.8,10.6-8.5
		C217.3,774.2,216.4,773.7,216,774.2z"/>
	<path class="st29" d="M219.5,776.6c-1.5,1.8-3.1,3.4-4.8,5c-1.9,1.7-4.2,3.9-6.7,4.4c-0.6,0.1-0.4,1.1,0.3,1
		c2.3-0.4,4.2-2.1,5.9-3.6c2.2-1.8,4.2-3.8,6.1-6C220.6,776.8,219.9,776.1,219.5,776.6z"/>
	<path class="st29" d="M224.6,778.4c-4.7,3.2-8.9,7-12.5,11.5c-0.4,0.5,0.3,1.2,0.7,0.7c3.5-4.4,7.6-8.2,12.3-11.3
		C225.6,778.9,225.1,778,224.6,778.4z"/>
	<path class="st29" d="M229,780.7c-5,3.2-9.3,7.2-12.8,11.9c-0.4,0.5,0.5,1,0.9,0.5c3.5-4.6,7.7-8.5,12.5-11.6
		C230,781.2,229.5,780.3,229,780.7z"/>
	<path class="st29" d="M376.9,784.1c-0.7-3-0.6-6.1-1.6-9.1c-0.9-2.7-2.3-5.3-4.1-7.6c-0.4-0.5-1.3,0-0.9,0.5
		c1.9,2.5,3.3,5.1,4.2,8.1c0.8,2.7,0.7,5.6,1.4,8.3C376.1,785,377.1,784.7,376.9,784.1z"/>
	<path class="st29" d="M383.7,784.4c-2.3-6-4.8-11.9-7.6-17.7c-0.3-0.6-1.1-0.1-0.9,0.5c2.7,5.7,5.2,11.5,7.5,17.4
		C382.9,785.3,383.9,785,383.7,784.4z"/>
	<path class="st29" d="M390.7,780.8c-2.4-2.1-4.7-3.8-6.4-6.5c-1.6-2.6-2.8-5.4-3.9-8.3c-0.2-0.6-1.2-0.3-1,0.3
		c1.2,2.9,2.3,5.9,4,8.5c1.8,2.8,4.1,4.6,6.6,6.7C390.4,782,391.1,781.3,390.7,780.8z"/>
	<path class="st29" d="M392.3,775.7c-3.3-3.5-6.1-7.4-8.4-11.6c-0.3-0.6-1.2-0.1-0.9,0.5c2.3,4.3,5.2,8.3,8.6,11.8
		C392.1,776.9,392.8,776.2,392.3,775.7z"/>
	<path class="st29" d="M394.5,770.6c-2.5-2.3-4.7-4.9-6.5-7.7c-0.4-0.5-1.2,0-0.9,0.5c1.9,2.9,4.1,5.6,6.7,7.9
		C394.3,771.7,395,771,394.5,770.6z"/>
	<path class="st30" d="M338.2,631.5c-8.3,3.9-16.2,8.4-23.7,13.5c-0.1,0.1-0.2,0.2-0.2,0.3c-0.1,0-0.2,0-0.2-0.1
		c-1.4-0.4-3.7-0.3-4.5-1.6c-0.6-1-0.5-3.2-0.4-4.6c0.1,0,0.2,0,0.3-0.1c7.8-5.9,16.5-10.2,25.9-12.9c0.6-0.2,0.4-1.1-0.3-1
		c-9.4,2.7-18.2,7-26,13c-0.3-0.2-0.8-0.1-0.8,0.4c0,0.1,0,0.2,0,0.3c0,0,0,0,0-0.1c-7.1-7.1-14.2-14.1-22.2-20.2
		c-4.1-3.1-8.1-6.2-11.8-9.8c-3.9-3.8-7.7-7.6-11.6-11.4c-0.5-0.5-1.2,0.3-0.7,0.7c7.1,7,14,14.2,22.1,20.2
		c4.3,3.2,8.3,6.6,12.2,10.2c-7.7,1.7-15.5,1.8-23.2,0.4c-0.6-0.1-0.9,0.8-0.3,1c8,1.5,16,1.3,23.9-0.4c0.1,0,0.2-0.1,0.3-0.2
		c0.9,0.8,1.7,1.7,2.6,2.5c-4.8,1.2-9.6,1.7-14.6,1.6c-0.6,0-0.6,1,0,1c5.2,0.2,10.4-0.4,15.4-1.8c2.4,2.3,4.7,4.6,7,6.9
		c0.2,0.2,0.5,0.2,0.7,0c-0.1,1.8-0.2,4.3,0.9,5.4c0.9,0.9,6.9,1.2,6.4,3c-0.2,0.6,0.8,0.9,1,0.3c0.4-1.2-0.3-1.9-1.1-2.3
		c7.5-5.1,15.3-9.5,23.5-13.4C339.3,632,338.7,631.2,338.2,631.5z"/>
	<path class="st30" d="M335.4,640.8c-4.5,1-9,2.2-13.4,3.8c-0.5,0.2-6,1.5-4,3c0.5,0.4,1.2-0.3,0.7-0.7c0.3,0.2,3.5-1.3,4-1.5
		c1.5-0.5,2.9-1,4.4-1.4c2.8-0.8,5.7-1.6,8.6-2.2C336.3,641.6,336.1,640.7,335.4,640.8z"/>
	<path class="st30" d="M333.6,646.5c-5,0.1-10,0.5-15,1.2c-0.6,0.1-0.6,1.1,0,1c5-0.7,10-1.1,15-1.2
		C334.2,647.5,334.2,646.5,333.6,646.5z"/>
	<path class="st30" d="M325.4,578.5c-1.4-2.6-3.6-4.7-5.4-7c-2-2.6-3.9-5.3-5.8-8c-1.5-2.2-3.1-4.4-4.8-6.4c1.8-0.3,3.5-0.8,5.2-1.5
		c0.6-0.2,0.3-1.2-0.3-1c-1.8,0.7-3.7,1.2-5.6,1.6c-0.4-0.5-0.8-0.9-1.2-1.4c3.2-1.1,6.3-2.4,9.3-4.1c0.6-0.3,0.1-1.2-0.5-0.9
		c-3,1.7-6.2,3.1-9.5,4.2c-0.4-0.4-0.8-0.8-1.1-1.2c3.8-2.1,7.5-4.2,11.3-6.3c0.6-0.3,0.1-1.2-0.5-0.9c-3.8,2.2-7.7,4.3-11.5,6.5
		c-0.7-0.6-1.4-1.3-2.1-1.9c-0.5-0.4-1.2,0.3-0.7,0.7c0.7,0.6,1.4,1.2,2.1,1.9c0,0.3,0.2,0.5,0.5,0.5c0.4,0.4,0.8,0.8,1.2,1.2
		c-0.2,0.3,0.1,0.9,0.5,0.7h0.1c0.5,0.5,0.9,1.1,1.4,1.6c0,0.2,0.2,0.4,0.4,0.4c2,2.4,3.8,4.9,5.5,7.4c1.5,2.2,3.1,4.5,4.7,6.6
		c2,2.6,4.4,4.9,6,7.8C324.8,579.6,325.7,579.1,325.4,578.5z"/>
	<path class="st30" d="M351.9,622.9c-15.8-21.2-31.6-42.5-49-62.5c-0.4-0.5-1.1,0.2-0.7,0.7c17.4,19.9,33.1,41.1,48.9,62.3
		C351.4,623.9,352.3,623.4,351.9,622.9z"/>
	<path class="st30" d="M398.8,740.4c-6.8-16.9-13.2-34-19.1-51.2c-2.9-8.5-5.7-17.1-8.4-25.7c-2.5-8.1-4.8-16.4-8.7-24
		c-0.3-0.6-1.2-0.1-0.9,0.5c4.1,7.9,6.4,16.6,9.1,25.1s5.4,16.9,8.3,25.3c5.8,16.9,12.1,33.7,18.8,50.3
		C398.1,741.3,399.1,741,398.8,740.4z"/>
	<path class="st30" d="M386.2,743.8c-4.6,4-9.5,7.7-14.7,11c-5,3.2-11,7.6-17.3,7.1c-0.6-0.1-0.6,0.9,0,1c6.2,0.5,12-3.6,17-6.7
		c5.5-3.5,10.7-7.4,15.7-11.7C387.4,744.1,386.6,743.4,386.2,743.8z"/>
	<path class="st30" d="M373.5,745.7c-2.5,2.9-5.4,5.5-8.6,7.6c-3.3,2.2-7.3,4.9-11.4,4.6c-0.6,0-0.6,1,0,1c4,0.2,7.9-2.2,11.2-4.3
		c3.5-2.3,6.7-5.1,9.5-8.3C374.6,745.9,373.9,745.2,373.5,745.7z"/>
	<path class="st30" d="M356.9,686.5c-7,1.1-13.5,4.1-19,8.6c-0.5,0.4,0.2,1.1,0.7,0.7c5.3-4.5,11.7-7.3,18.5-8.4
		C357.8,687.4,357.5,686.4,356.9,686.5z"/>
	<path class="st30" d="M355.3,692c-5.8,0.8-11.1,3.1-16.4,5.5c-0.6,0.3-0.1,1.1,0.5,0.9c5.1-2.4,10.2-4.7,15.8-5.4
		C355.9,692.9,355.9,691.9,355.3,692z"/>
	<path class="st30" d="M272,574.3c-4.8,4.7-8.2,10.4-10.1,16.8c-0.2,0.6,0.8,0.9,1,0.3c1.8-6.3,5.1-11.8,9.8-16.4
		C273.1,574.6,272.4,573.9,272,574.3z"/>
	<path class="st30" d="M278.9,578.2c-1.5-0.1-3.9,0.3-4.7-1.5c-0.5-1,0.1-2.2-0.1-3.2c-0.2-1.3-1.2-2-2.2-2.9
		c-1.6-1.5-3.1-3-4.7-4.6c-1.3-1.3-2.4-2.7-4.2-3.3c-0.6-0.2-0.9,0.8-0.3,1c2.4,0.7,4.7,3.9,6.4,5.6c0.7,0.7,1.3,1.3,2,2
		c1.3,1.2,1.7,2,1.8,3.8c0.1,0.9,0,2.8,0.8,3.5c0.5,0.4,1.2,0.5,2.1,0.6c-3.9,3.5-7.5,7.2-10.9,11.3c-0.4,0.5,0.3,1.2,0.7,0.7
		c3.6-4.3,7.5-8.3,11.6-11.9c0.6,0,1.1,0,1.5,0C279.6,579.3,279.6,578.3,278.9,578.2z"/>
	<path class="st30" d="M264.6,547.7c0-0.6-1-0.6-1,0c0.2,4.6,0.2,10-4.1,12.9l0,0c-9.8-6.1-18.9-14.8-19.5-27.1c0-0.6-1-0.6-1,0
		c0.6,13.3,10.9,22.6,21.7,28.9c0.6,0.3,1.1-0.5,0.5-0.9c-0.3-0.1-0.5-0.3-0.8-0.5C264.6,558,264.8,552.6,264.6,547.7z"/>
	<path class="st30" d="M260.3,546.7c-0.1-0.6-1.1-0.4-1,0.3c0.5,3.7,1.9,8.7-1.9,11.2c-0.5,0.4,0,1.2,0.5,0.9
		C262.2,556.2,260.9,550.9,260.3,546.7z"/>
	<path class="st30" d="M308.4,652.8c-4.9,33.7-21.8,64-41.8,90.9c-0.4,0.5,0.5,1,0.9,0.5c20.1-27,37-57.4,41.9-91.2
		C309.4,652.4,308.5,652.2,308.4,652.8z"/>
	<path class="st30" d="M242.4,771.7c-6.1-2.4-11.9-5.8-16.9-10.1c-4.6-4-11.4-11.1-6.3-17.4c0.4-0.5-0.3-1.2-0.7-0.7
		c-4.5,5.6-0.5,12.3,3.8,16.6c5.7,5.5,12.5,9.7,19.8,12.6C242.7,772.9,243,772,242.4,771.7z"/>
	<path class="st30" d="M242.9,764c-4.2-0.3-8.2-1.6-11.8-3.8c-3.7-2.2-8.1-6-8.7-10.5c-0.1-0.6-1.1-0.6-1,0c0.6,4.5,4.3,8,7.9,10.5
		c4,2.8,8.8,4.4,13.7,4.8C243.5,765,243.5,764,242.9,764z"/>
	<path class="st30" d="M286.4,659.3c-6.9-2.2-14.1-3.3-21.4-3.2c-0.6,0-0.6,1,0,1c7.2-0.1,14.3,0.9,21.1,3.1
		C286.8,660.4,287,659.5,286.4,659.3z"/>
	<path class="st30" d="M287,665.1c-6.6-3.3-13.5-5.5-20.7-6.6c-0.6-0.1-0.9,0.9-0.3,1c7.2,1.1,14,3.2,20.5,6.5
		C287.1,666.2,287.6,665.4,287,665.1z"/>
	<path class="st30" d="M278.7,668.8c-4.3-3.4-8.9-6.2-14-8.3c-0.6-0.2-0.9,0.7-0.3,1c4.9,2,9.4,4.7,13.5,8
		C278.5,669.9,279.2,669.2,278.7,668.8z"/>
	<path class="st30" d="M269.2,672.2c-2.2-2.9-4.7-5.6-7.4-8c-0.5-0.4-1.2,0.3-0.7,0.7c2.6,2.4,5.1,5,7.2,7.8
		C268.7,673.2,269.6,672.7,269.2,672.2z"/>
	<path class="st31" d="M298.4,373c-2-0.9-4-1.8-6-2.8c-1-0.5-2.6-1.7-3.9-1.5c-0.9,0.1-1.7,1.2-2.3,1.8c-1.3,1.3-2.5,2.6-3.7,3.9
		c-4.5,5.2-7.9,11.1-10.4,17.5c-7.1-14.4-6.6-31-12.3-45.8c-0.2-0.6-1.2-0.3-1,0.3c5.8,15,5.2,31.8,12.5,46.3
		c0.1,0.2,0.2,0.2,0.4,0.2c-0.1,0.5,0.8,0.8,1,0.2c2.2-5.9,5.3-11.4,9.2-16.3c1.5-1.9,3.5-4.8,5.6-6.1c0.4-0.6,0.9-0.8,1.6-0.5
		c0.7,0,1.3,0.1,1.9,0.5c0.7,0.3,1.4,0.7,2.1,1c1.6,0.7,3.1,1.5,4.7,2.2C298.5,374.1,299,373.3,298.4,373z"/>
	<path class="st31" d="M331.2,370.3c-0.2-0.2-0.5-0.4-0.7-0.5c-5-9.6-6.6-20.4-10.8-30.4c-0.2-0.6-1.2-0.3-1,0.3
		c3.9,9.4,5.6,19.7,10,28.9c-3.5-2.3-7.4-4.1-11.5-5.1c-1.1-0.3-1.7-0.5-2.3,0.5c-0.6,1-0.8,2.4-1.2,3.5c-0.5,1.4-1,2.8-1.4,4.2
		c-0.2,0.6,0.8,0.9,1,0.3c0.7-2,1.2-4,2-5.9c0.1-0.5,0.3-0.9,0.6-1.3c0.2-0.6,0.6-0.7,1.1-0.3c0.9,0,2,0.6,2.9,0.9
		c3.5,1.2,6.8,3,9.8,5.1c0.1,0.2,0.2,0.4,0.3,0.7c0.2,0.3,0.5,0.3,0.7,0.1C331.3,371.5,331.7,370.7,331.2,370.3z"/>
	<path class="st31" d="M312.3,513.6c-0.2-5.1-0.4-10.3-0.5-15.4c-0.3-10.1-0.5-20.2-0.6-30.4c-0.2-20.1,0-40.2,0.6-60.2
		c0.3-10.4,1-21-2.2-31c-0.2-0.6-1.2-0.3-1,0.3c2.9,9,2.6,18.4,2.3,27.8c-0.3,9.8-0.5,19.6-0.6,29.4c-0.2,19.7-0.1,39.5,0.4,59.2
		c0.1,5.5,0.3,10.9,0.5,16.4c0.2,5.7,0.9,11.5-0.4,17.1c-0.1,0.6,0.8,0.9,1,0.3C312.7,522.6,312.5,518.1,312.3,513.6z"/>
	<path class="st31" d="M249.9,388.3c-0.4-0.5-1.3,0-0.9,0.5c1.4,1.8,0.6,4.3,0.3,6.4c-0.3,1.9-0.7,3.8-1.2,5.6
		c-1.1,3.8-2.9,7.4-6.1,9.9c-1.5,1.2-3.2,2.1-5.1,2.5c-1.6,0.3-3.3-0.1-4.9,0.3c-2.7,0.7-5.3,3.3-7.4,5c-0.5,0.4,0.2,1.1,0.7,0.7
		c1.8-1.5,3.8-3.1,5.9-4.2c1.8-1,4-0.3,6-0.8c3.3-0.7,6.1-2.8,8.1-5.4c2.4-3.1,3.6-6.9,4.4-10.7C250.4,395.2,251.9,391,249.9,388.3z
		"/>
	<path class="st31" d="M254.2,405.5c-0.5,4-5.8,6.7-9,8.4c-3.9,2.1-8.5,3.8-12.7,1.4c-0.6-0.3-1.1,0.5-0.5,0.9
		c4.5,2.6,9.4,0.9,13.7-1.4c3.6-1.9,8.9-4.7,9.5-9.2C255.3,404.9,254.3,404.9,254.2,405.5z"/>
	<path class="st31" d="M248.3,419.9c-6,2.6-12.8,1.7-18-2.3c-0.5-0.4-1,0.5-0.5,0.9c5.5,4.2,12.7,5,19,2.3
		C249.4,420.5,248.9,419.6,248.3,419.9z"/>
	<path class="st31" d="M280.8,542.8c-10-0.8-18.8-5.9-27.1-11.3c-3.9-2.5-7.7-5.3-11.8-7.5c-3-1.6-6.3-2.5-9.4-0.6
		c-0.5,0.3,0,1.2,0.5,0.9c4.5-2.9,9.8,1.4,13.6,3.8c3.7,2.4,7.4,4.9,11.2,7.3c7.1,4.3,14.6,7.8,22.9,8.5
		C281.4,543.9,281.4,542.8,280.8,542.8z"/>
	<path class="st31" d="M298.3,537c-2.1,6.9-8.7,17.6-17.4,15.4c-0.6-0.2-0.9,0.8-0.3,1c9.3,2.4,16.3-8.6,18.6-16.1
		C299.4,536.6,298.5,536.3,298.3,537z"/>
	<path class="st31" d="M275.8,467.6c-14.1,2.8-28.6,2.3-42.5-1.5c-0.6-0.2-0.9,0.8-0.3,1c14.1,3.9,28.8,4.4,43.1,1.5
		C276.7,468.5,276.5,467.5,275.8,467.6z"/>
	<path class="st31" d="M270,475.9c-13,1.4-26-1-37.5-7c-0.6-0.3-1.1,0.6-0.5,0.9c11.7,6.1,24.9,8.6,38.1,7.2
		C270.6,476.9,270.6,475.9,270,475.9z"/>
	<path class="st31" d="M248.4,482.5c-5.8-1.1-11-3.7-15.3-7.8c-0.5-0.4-1.2,0.3-0.7,0.7c4.4,4.1,9.8,6.9,15.8,8
		C248.8,483.6,249,482.7,248.4,482.5z"/>
	<path class="st31" d="M301.3,445.9c-0.7-6.2-1.4-12.4-1.7-18.6c-0.2-5.6,0.2-11.3-0.2-16.9c0.2-0.2,0.4-0.5,0.5-0.7
		c0.3-0.4-0.3-0.9-0.7-0.7c0-0.1,0-0.3,0-0.4c0.1-0.2,0.1-0.4-0.1-0.6c-0.1-0.4-0.7-0.5-0.9-0.2c-13.8-0.5-27.6-0.2-41.4,0.8l0,0
		c-0.2-0.4-1-0.2-0.9,0.4c2.4,13.8,2.3,27.9,3.9,41.9c0.3,2.3,0.2,5.4,1.4,7.5c1.1,2,3.6,2.9,5.6,3.7c5.2,2.3,10.8,3.5,16.5,3.8
		c0.1,0.3,0.4,0.6,0.8,0.4c5-2.2,10.5-4.5,14.8-8c1.4-1.1,3.1-2.6,3.3-4.5C302.5,451.4,301.6,448.4,301.3,445.9z M298.3,408.9
		c0,0.4,0.1,0.8,0.1,1.2c-2.3,2.8-5.6,4.7-8.4,6.9c-2.9,2.2-5.6,4.7-8.1,7.3c-8.6-3.8-16.6-8.7-23.8-14.6
		C271.4,408.6,284.9,408.4,298.3,408.9z M300.8,454.8c-0.6,1.3-2.1,2.5-3.2,3.3c-4,3-8.9,5.1-13.5,7.2c-0.1-0.1-0.2-0.2-0.4-0.2
		c-6-0.3-11.8-1.6-17.3-4.1c-1.4-0.6-2.8-1.2-3.8-2.3c-1.3-1.5-1.3-3.4-1.6-5.3c-0.4-3-0.7-6.1-0.9-9.2c-0.9-11.4-1.2-22.8-3.1-34.1
		c7.3,6.1,15.4,11.1,24.2,14.9c0,0.4,0.5,0.6,0.8,0.4h0.1c0.5,0.2,1-0.4,0.7-0.8c3-3,6.1-5.8,9.5-8.2c2.2-1.6,4.4-3.1,6.2-5
		c0.3,4.5,0,8.9,0.1,13.4c0.1,5.7,0.6,11.4,1.3,17.1c0.3,2.7,0.6,5.4,1,8.1C301,451.5,301.5,453.4,300.8,454.8z"/>
	<path class="st31" d="M344.3,409.3c-2.3,2.9-4.8,5.6-7.5,8.1c-2.2-1.9-5.1-3.1-7.5-4.6c-3-1.9-5.8-3.8-8.7-5.9
		c7.6-1.7,15.3-2.9,23.1-3.7c0.6-0.1,0.6-1.1,0-1c-7.9,0.8-15.7,2.1-23.5,3.8c-0.4,0.1-0.4,0.4-0.3,0.7c-0.2,0.1-0.3,0.4-0.3,0.6
		c-0.3,13-0.6,26,0.1,39c0.1,1.6,0,3.4,1.3,4.6c1.8,1.6,4.7,2.5,7,3.1c3.2,0.9,8.3,2.1,10.6-1.1c0.4-0.5-0.5-1-0.9-0.5
		c-1.7,2.3-5.5,1.5-7.8,1c-2.2-0.5-4.4-1.2-6.4-2.2c-3-1.5-2.8-4.5-3-7.4c-0.1-2.5-0.2-4.9-0.3-7.4c-0.2-9.4,0-18.8,0.2-28.2
		c2.4,1.7,4.9,3.4,7.4,5c2.6,1.6,5.8,3,8.2,5c0,0.4,0.5,0.8,0.8,0.4c2.9-2.7,5.5-5.5,8-8.6C345.4,409.5,344.7,408.8,344.3,409.3z"/>
	<path class="st31" d="M352.7,357.5c-0.1-0.6-1-0.4-1,0.3c1,7.5-0.9,14.9-5.2,21c0,0,0,0,0-0.1c2.1-9.5,2.2-19.3,0.2-28.8
		c-0.1-0.6-1.1-0.4-1,0.3c1.8,8.9,1.8,18,0,26.9c-0.6-8.5-1.2-17.3-3.3-25.5c-1.8-7-6.5-12.5-13.2-15.3c-0.6-0.2-0.9,0.7-0.3,1
		c7.4,3.1,11.6,9.5,13,17.3c1.5,8.2,2.2,16.6,2.8,24.9c0,0.5,0.6,0.6,0.8,0.4c0,0.4,0.6,0.7,1,0.2
		C351.7,373.5,353.8,365.5,352.7,357.5z"/>
	<path class="st31" d="M383,359.3c-3.1-8.3-4.4-17-3.8-25.8c0-0.6-1-0.6-1,0c-0.6,8.9,0.7,17.7,3.8,26
		C382.3,360.2,383.3,359.9,383,359.3z"/>
	<path class="st31" d="M388.7,359.6c-2.8-2.1-3.4-7-4-10.2c-0.8-3.8-1.2-7.7-1.7-11.6c-0.1-0.6-1.1-0.6-1,0
		c0.6,4.6,1.1,9.2,2.1,13.7c0.7,3.2,1.3,6.9,4.1,9C388.7,360.9,389.2,360,388.7,359.6z"/>
	<path class="st31" d="M386.6,346.7c-0.2-0.6-1.2-0.3-1,0.3c1.1,3.1,1.7,6.3,1.7,9.6c0,0.6,1,0.6,1,0
		C388.3,353.2,387.7,349.9,386.6,346.7z"/>
	<path class="st31" d="M205.5,437.6c-6.7-7.5-14.9-13.5-24.1-17.6c-0.6-0.3-1.1,0.6-0.5,0.9c9.1,4.1,17.2,10,23.9,17.5
		C205.2,438.7,205.9,438,205.5,437.6z"/>
	<path class="st31" d="M198.8,439.4c-1.7-2.9-4.7-4.6-7.5-6.4c-3.5-2.2-7.2-4.1-10.9-5.8c-0.6-0.3-1.1,0.6-0.5,0.9
		c3.2,1.5,6.4,3.1,9.4,4.9c3.1,1.8,6.8,3.7,8.7,6.9C198.2,440.5,199.1,440,198.8,439.4z"/>
	<path class="st31" d="M196.9,441.2c-4.3-2.7-8.9-5-13.6-6.9c-0.6-0.2-0.9,0.7-0.3,1c4.7,1.9,9.1,4.1,13.4,6.8
		C197,442.4,197.5,441.5,196.9,441.2z"/>
	<path class="st31" d="M237.1,355.2c-0.6-0.3-1.1,0.6-0.5,0.9c11.6,6,19.1,18.5,18.8,31.6c0,0.6,1,0.6,1,0
		C256.6,374.2,249,361.3,237.1,355.2z"/>
	<path class="st31" d="M392.8,321.3c-0.1-0.2-0.4-0.5-0.6-0.3c-1.4,0.6-2.3,1.5-2.8,2.9c-0.2,0.6,0.8,0.9,1,0.3
		c0.3-0.9,0.8-1.6,1.6-2c3.9,15.1,4.9,30.7,3.1,46.2c-0.1,0.6,0.9,0.6,1,0C397.9,352.6,396.8,336.7,392.8,321.3z"/>
	<path class="st31" d="M418,365.1c-4.6,1.7-8.9-0.6-12.1-3.9c-3.1-3.2-6.4-7.3-5.1-12c0.2-0.6-0.8-0.9-1-0.3
		c-1.4,5.1,1.9,9.5,5.3,13s8.1,5.9,13,4.1C418.8,365.9,418.6,364.9,418,365.1z"/>
	<path class="st31" d="M419.5,361.1c-3.1,0.8-9.4-0.3-11.4-3.3c-0.4-0.5-1.2,0-0.9,0.5c1.2,1.8,3.1,2.4,5.1,3.1
		c2.5,0.8,4.9,1.3,7.4,0.6C420.4,361.9,420.1,360.9,419.5,361.1z"/>
	<path class="st31" d="M413.3,318.3c-0.3-0.5-1.2,0-0.9,0.5c4.4,7.1,6.4,15.3,5.8,23.6c-0.1,0.6,1,0.6,1,0
		C419.9,333.9,417.8,325.6,413.3,318.3z"/>
	<path class="st31" d="M197.6,454.1c-4.5-2.6-10.5-2.6-15.6-2.6c-5.9-0.1-11.8,0.5-17.6,1.6c-0.6,0.1-0.4,1.1,0.3,1
		c5.4-1.1,10.9-1.6,16.4-1.6c5.2,0,11.4-0.1,16,2.5C197.7,455.3,198.2,454.4,197.6,454.1z"/>
	<path class="st31" d="M198.2,463.2c-0.4-0.5-1.2,0-0.9,0.5c1,1.4,2.2,3,2.6,4.8c0.6,2.5-0.9,4.3-2.7,5.8c-2.8,2.3-6,4.1-9.4,5.4
		c-6.4,2.5-13.3,3-20,1.7c-0.6-0.1-0.9,0.8-0.3,1c8,1.6,16.2,0.6,23.5-3c3-1.5,7-3.6,8.9-6.5C202.4,469.6,200.2,466,198.2,463.2z"/>
	<path class="st31" d="M179.7,455.7c-8.7,0.5-17.1,3-24.7,7.3c-0.6,0.3-0.1,1.2,0.5,0.9c7.4-4.3,15.6-6.7,24.2-7.2
		C180.4,456.7,180.4,455.7,179.7,455.7z"/>
	<path class="st31" d="M166.8,463.8c-4.3,0.2-8.4,1.1-12.4,2.8c-0.6,0.3-0.1,1.1,0.5,0.9c3.8-1.6,7.7-2.5,11.9-2.7
		C167.4,464.7,167.4,463.7,166.8,463.8z"/>
	<circle class="st19" cx="306.5" cy="381.5" r="2.5"/>
	<circle class="st19" cx="306.5" cy="417.5" r="2.5"/>
	<circle class="st19" cx="280.5" cy="418.5" r="2.5"/>
	<circle class="st19" cx="336.5" cy="412.5" r="2.5"/>
	<circle class="st19" cx="306.5" cy="454.5" r="2.5"/>
	<circle class="st19" cx="306.5" cy="487.5" r="2.5"/>
	<circle class="st19" cx="305.5" cy="525.5" r="2.5"/>
	<path class="st32" d="M307.6,237c-2.3,7.2-8.2,12.6-15.1,15.3c-8,3.1-16.9,2.7-25.1,1c-0.6-0.1-0.9,0.8-0.3,1
		c8.7,1.8,18.1,2.2,26.5-1.3c6.9-2.9,12.7-8.4,15-15.7C308.7,236.6,307.8,236.4,307.6,237z"/>
	<path class="st32" d="M309.7,229.4c-8.9,11.1-23,17.2-37.2,16c-0.6-0.1-0.6,0.9,0,1c14.4,1.2,28.9-5,37.9-16.3
		C310.8,229.6,310.1,228.9,309.7,229.4z"/>
	<path class="st32" d="M306.4,226.6c-7.1,7.4-17.3,11.1-27.5,9.8c-0.6-0.1-0.6,0.9,0,1c10.4,1.3,20.9-2.5,28.2-10.1
		C307.6,226.8,306.9,226.1,306.4,226.6z"/>
	<path class="st32" d="M324.4,240.8c-0.6-0.3-1.1,0.6-0.5,0.9c6.4,3.5,8.5,10.6,9.1,17.4c0.1,0.6,1.1,0.6,1,0
		C333.3,251.9,331.1,244.5,324.4,240.8z"/>
	<path class="st32" d="M331.3,243c-0.6-0.3-1.1,0.5-0.5,0.9c2.7,1.6,4.4,4.1,5,7.1c0.1,0.6,1.1,0.4,1-0.3
		C336.1,247.4,334.1,244.7,331.3,243z"/>
	<path class="st33" d="M273.4,845c-7.4,2.4-15.2,4.1-23,3.6c-8-0.5-14.6-4.2-21.5-8.1c-0.3-0.2-0.6-0.3-0.9-0.5
		c0.1-5.4,2.5-10.3,6.8-13.6s10.2-6.1,15.8-6c0.6,0,0.6-1,0-1c-5.9-0.2-12.3,2.9-16.8,6.5c-0.6,0.5-1.1,1-1.7,1.5
		c-0.1-0.1-0.2-0.2-0.4-0.2c-2.5-0.1-4.4-2.3-3.9-4.9c0.1-0.4-0.2-0.7-0.6-0.6c-3.7,0.7-6-2.9-4-6c0.2-0.3-0.1-0.8-0.4-0.8
		c-3.8,0.2-6.2-3.4-4.5-6.9c0.1-0.3,0-0.7-0.3-0.7c-1.4-0.3-2.6-1.6-2.2-3.1c0.2-0.7,0.9-1.2,1.1-2c0.2-0.8,0.2-1.5-0.2-2.3
		c-1.2-2.5-4.8-3.1-7.1-4c-6.5-2.8-14-8.8-10.8-16.8c0.2-0.6-0.7-0.9-1-0.3c-2.7,6.8,2.2,13.2,8,16.3c1.6,0.9,3.3,1.6,5,2.3
		c0.2,0.1,0.5,0.2,0.7,0.2c-0.9,10-14.7,11.2-22.1,8.5c-2.7-4.5-5-9.2-7.5-13.8c-0.3-0.6-1.2-0.1-0.9,0.5
		c3.9,7.1,7.5,14.7,12.5,21.2c3.2,4.2,7,8,11.1,11.3c0,0.1,0,0.3,0.1,0.4c0.1,0.4,0.5,0.4,0.8,0.3c1,0.8,2.1,1.7,3.1,2.4
		c5.9,4.4,12.1,8.1,18.5,11.8l0,0c0,0.4,0.4,0.6,0.7,0.4c6.3,3.6,12.5,7.4,19.8,8.4c8.7,1.2,17.8-0.7,26.1-3.4
		C274.3,845.8,274,844.8,273.4,845z M227.1,839.4c-7.4-4.3-14.9-8.8-21.5-14.3c0-2.8,4.1-5.2,6.2-6.2c1.2-0.6,2.4-1.1,3.6-1.4
		c0.6-0.1,3.9-0.9,4.4-0.1c0.3,0.6,1.2,0.1,0.9-0.5c-0.6-1.1-2.3-0.8-3.4-0.7c-2.1,0.2-4.1,0.9-6,1.9c-2.3,1.2-6,3.4-6.6,6.3
		c-3.1-2.6-6-5.5-8.7-8.6c-2.1-2.5-4-5.3-5.8-8.1c8.1,2.4,21.1,0.5,22.3-9.5c0.8,0.2,1.5,0.5,2,1c2.8,2.7,1,2.9,0.4,4.6
		c-0.7,1.9,0.5,3.8,2.3,4.5c-1.5,3.7,0.8,7.5,4.8,7.8c-1.6,3.5,1.1,7.1,4.9,6.8c-0.1,2.8,1.8,5.1,4.6,5.4
		C228.8,831.3,227.3,835.3,227.1,839.4z"/>
	<path class="st33" d="M200,825.7c-1-0.6-1.7-1.4-2.4-2.4c-0.3-0.6-0.4-1.4-0.8-1.9c-0.4-0.6-0.7-0.8-1.4-0.7
		c-0.9,0.2-1.7,1.1-2.4,1.6l-4.8,3.7c-0.5,0.4,0.2,1.1,0.7,0.7c1.1-0.9,2.3-1.8,3.4-2.7c0.6-0.4,1.1-1,1.7-1.3
		c0.3-0.3,0.7-0.5,1.2-0.4c0.7-0.4,1-0.2,1.1,0.5c0.5,0.5,0.7,1.3,1.1,1.9c0.6,0.8,1.3,1.3,2.1,1.9
		C200.1,826.9,200.6,826.1,200,825.7z"/>
	<path class="st33" d="M439.1,803.9c-5-3.1-9.9-6.5-14.7-10c-0.5-0.4-1,0.5-0.5,0.9c4.8,3.5,9.6,6.8,14.7,10
		C439.1,805.2,439.6,804.3,439.1,803.9z"/>
	<path class="st33" d="M435.2,805.6c-4.1-2-7.8-4.7-11-8.1c-0.4-0.5-1.2,0.2-0.7,0.7c3.3,3.4,7,6.1,11.2,8.2
		C435.2,806.8,435.7,805.9,435.2,805.6z"/>
	<path class="st33" d="M463.7,781.2c-1.6-2.3-4.2-3.7-6.5-5.2c-3-1.9-6.1-3.8-9.2-5.6c-0.6-0.3-1.1,0.5-0.5,0.9
		c2.6,1.5,5.1,3,7.6,4.5c2.6,1.6,6,3.3,7.8,5.8C463.2,782.2,464.1,781.7,463.7,781.2z"/>
	<path class="st33" d="M465.9,777.9c-4.7-3.2-9.5-6.1-14.4-8.8c-0.6-0.3-1.1,0.6-0.5,0.9c4.9,2.7,9.7,5.6,14.4,8.8
		C466,779.1,466.5,778.3,465.9,777.9z"/>
	<path class="st33" d="M464.4,774.1c-2.7-2.7-5.7-5-9.1-6.8c-0.6-0.3-1.1,0.6-0.5,0.9c3.3,1.8,6.2,4,8.9,6.7
		C464.1,775.3,464.8,774.6,464.4,774.1z"/>
	<path class="st33" d="M394.3,821.9c-4.6-3.1-9.1-6.4-13.5-9.8c-0.5-0.4-1,0.5-0.5,0.9c4.4,3.4,8.9,6.6,13.5,9.8
		C394.4,823.2,394.9,822.3,394.3,821.9z"/>
	<path class="st33" d="M397.5,820.5c-3.7-2.8-7.6-5.3-11.7-7.6c-0.6-0.3-1.1,0.5-0.5,0.9c4,2.3,7.9,4.9,11.7,7.6
		C397.5,821.7,398,820.9,397.5,820.5z"/>
	<path class="st33" d="M464.7,759.3c-5.7-4.1-12.5,3-16.4,6.6c-6,5.6-11.4,11.9-17.3,17.6c-4.8,4.6-10.1,9-16.2,11.9
		c-3.5-4.2-3.4-10.1,0.2-14.2c0.1-0.1,0.1-0.3,0.1-0.5c0.2-0.2,0.4-0.4,0.5-0.7c0.2-0.4,0.3-0.7,0.5-1.1c0.8-0.6,1.7-0.7,2.5-0.2
		c0.6,0.1,1.3,0.3,1.9,0.4c1.2,0.1,2.5-0.1,3.4-0.8c0.7-0.5,1.9-3.3,2.6-3.2c0.3,0.1,0.5-0.1,0.6-0.3c0,2.6,1,5.2,2.9,7.4
		c0.4,0.5,1.1-0.2,0.7-0.7c-3.4-3.8-3.5-8.9-0.5-13c0.4-0.5-0.5-1-0.9-0.5c-1.5,2-2.2,4.2-2.3,6.4c-0.1-0.1-0.2-0.2-0.3-0.2
		c-0.9-0.2-1.4-0.1-2,0.7c-1.1,1.4-0.9,3.1-3.4,3.3c-2.7,0.2-4.7-2.1-6.4,0.6c-1.9,2.9-3.9,2.3-6.7,1.2c-0.7-0.3-1.4-0.7-2.2-0.5
		c-0.5,0.1-0.6,0.2-1,0.6c-0.8,0.8-0.4,0.9-1.8,1.4c-1.6,0.5-2,0-3.2-0.9c-0.4-0.3-0.8-0.6-1.3-0.8c-2.1-1-4,0.1-5.3,1.9
		c-0.9,1.4-1.5,2.9-2.4,4.3c-1.1,1.6-2.5,2.9-4,4c-0.5,0.3-0.9,0.6-1.4,0.8c-0.3-0.1-0.6-0.2-0.9-0.3c-0.6-0.2-0.8,0.7-0.4,0.9
		c-6.3,2.8-13.6,1.4-19.5-2.3c-0.5-0.3-1,0.5-0.5,0.9c5.6,3.5,12.6,5.2,19,2.9c0.8-0.3,1.6-0.6,2.3-1c1.8,0.6,3.5,1.4,4.8,2.7
		c1.5,1.6,2.2,3.6,2.8,5.6c-2.8,0.3-5.6,0.6-8.2,1.5c-6.4,2.2-14.8,6.2-16.8,13.3c-0.2,0.6,0.8,0.9,1,0.3c1.9-7,11-11.2,17.4-13
		c2.3-0.7,4.7-0.9,7.1-1.1c0,0,0.1,0,0.1,0.1c0.1,1.5,0.3,3,0.8,4.5c-0.7,0-1.4,0.1-2,0.2c-2.7,0.4-5.3,1.2-7.8,2.2
		c-3.8,1.5-8.9,3.3-11.7,6.5c-1.8,2.1-2,5.4,0.4,7.1c0.5,0.4,1-0.5,0.5-0.9c-2.5-1.7-1.2-4.8,0.5-6.3c1.4-1.2,3.1-2,4.7-2.8
		c3.5-1.8,7.1-3.3,10.9-4.2c1.1-0.3,2.3-0.6,3.4-0.6c1.7,0,2.8,1,3.9,2.2c1,1.1,1.8,2.2,2.8,3.3c2.1,2.3,4.4,4.4,6.9,6.2
		c0.5,0.4,1-0.5,0.5-0.9c-2.2-1.7-4.3-3.5-6.2-5.5c-1.7-1.8-3-4.1-4.7-5.8c-0.4-0.3-0.7-0.5-1.2-0.6c0,0,0-0.1,0-0.2
		c-0.5-1.4-0.8-2.8-0.8-4.3c4.1,3,7.4,6.8,10.9,10.5c0.4,0.5,1.1-0.2,0.7-0.7c-3.4-3.6-6.6-7.2-10.5-10.2c0.9-0.1,1.7-0.1,2.6-0.2
		c3.5-0.4,7-1,10.3-2.1c13.6-4.2,23.2-15.1,32.7-25c3-3.1,6-6.2,9.2-9c3.3-2.8,8.3-7.6,12.8-4.4
		C464.7,760.6,465.2,759.7,464.7,759.3z M410.5,797.2c-4.2,1.5-8.7,2.2-13.2,2.6c-0.7,0.1-1.3,0.1-2,0.2c-0.1,0-0.1-0.1-0.2-0.1
		c-0.1-0.1-0.2-0.1-0.3-0.1c-0.7-2.2-1.5-4.3-3.1-6c-1.2-1.3-2.8-2.1-4.4-2.7c1.5-0.9,2.9-2.1,4.1-3.5c2.4-2.9,3.9-9.7,8.8-6.1
		c1.8,1.3,3.3,1.8,5.1,0.6c0.2-0.2,0.3-0.4,0.4-0.7c0.8-0.2,1.6-0.4,2.3-0.7c0.6,0,1.7,0.8,2.3,0.9c1,0.3,2.1,0.3,3.1,0.1
		c-3,4.3-2.8,9.9,0.5,14.1C412.8,796.3,411.7,796.8,410.5,797.2z"/>
	<path class="st34" d="M424.8,760c-1.8-2.9-5.9-3.1-8.8-1.8c-1.7,0.7-3,2-4.2,3.4c0-1.1-0.2-2.1-0.7-3c-1.3-2.6-4.5-3.6-7.2-2.8
		c-8.6,2.6-4.5,13-0.2,17.3c0.1,0.1,0.1,0.1,0.2,0.2c-1.5,1.5-2.4,3.4-2.1,5.6c0.3,1.9,3.2,1.1,2.9-0.8c-0.2-1.2,0.9-2.4,2.1-3.4
		c0.3,0.2,0.7,0.3,1.2,0.2s1.2-0.3,1.9-0.5c-0.5,1.6-0.5,3.3-0.3,4.7c0.3,1.9,3.2,1.1,2.9-0.8c-0.3-1.5,0.1-4.6,2-4.9
		c0.7-0.1,1.1-0.7,1.1-1.2c1-0.5,2.1-1,3.1-1.6c-0.9,2-0.3,4.6,0.9,6.6c1,1.7,3.6,0.2,2.6-1.5c-0.8-1.3-1.8-3.6-0.1-4.7
		c1.1-0.7,0.8-2.1-0.1-2.6C425,765.9,426.7,763,424.8,760z M415.4,762.2c1.4-0.6,2.8-1.2,4.2-1.8c2.3,1.8,2.8,3.2,1.3,4.3
		c-2,3.3-7,5.4-11.1,6.6c0.8-1.8,1.7-3.6,2.8-5.4C413.3,764.7,414.1,763,415.4,762.2z M402.1,765.5c-0.1-0.8-0.2-1.6-0.3-2.4
		c-0.1-3,1.2-3.6,3.8-2c4.1,0.9,3.1,1.1,2.4,4.5c-0.4,1.7-0.7,3.3-1.1,4.9c0,0.1,0,0.3,0,0.4c-0.2,0.1-0.4,0.3-0.6,0.4
		c-0.1-0.2-0.2-0.3-0.3-0.4C404.3,769.4,402.7,767.6,402.1,765.5z"/>
	<path class="st34" d="M251.8,793.3c-1.9-2.5-6.4-1.4-8.9-0.6c-1.8,0.7-3.5,1.6-4.9,2.8c0-2.3-0.4-4.7-0.7-6.7
		c-0.6-3.1-3.2-4.8-6.3-4.4c-7.3,1-4.6,9.9-1.7,14.8c-0.1,0-0.3,0-0.4,0.1c-3.8,0.5-7.3,1.8-10,4.5c-1.4,1.4,0.7,3.5,2.1,2.1
		c2-1.9,4.3-3,7-3.5c0.9-0.2,4.6-0.9,6.7-0.7c0.1,0.7,0.5,1.4,1.4,1.5c4.2,0.3,8.5-0.7,12.1-2.9C250.2,799,254,796.1,251.8,793.3z
		 M232.4,798.9c-1.8-2.6-5.8-10.9-0.8-11.5c3.6-0.4,3.7,8.6,2.6,11.5C233.6,798.8,233,798.8,232.4,798.9z M243.4,799.3
		c-1.7,0.6-3.4,0.9-5.2,1c-0.1-0.1-0.1-0.1-0.2-0.2c-0.1-0.1-0.2-0.2-0.3-0.3c1.2-1.4,2.6-2.6,4.3-3.5c0.6-0.3,6.4-2.7,7-1.5
		C249.8,796.7,244.5,798.9,243.4,799.3z"/>
	<path class="st34" d="M238.7,805.8c-5.9-1.5-12.6,2-17,5.8c-1.5,1.3,0.7,3.4,2.1,2.1c3.5-3,9.3-6.2,14.1-5
		C239.8,809.2,240.6,806.3,238.7,805.8z"/>
	<path class="st34" d="M240,812c-4.9,0.1-11.8,1.7-14.2,6.5c-0.9,1.7,1.7,3.2,2.6,1.5c1.9-3.8,7.8-5,11.6-5.1
		C241.9,815,242,812,240,812z"/>
	<path class="st34" d="M244.9,814.6c-4.2,0.3-8,2-10.9,5.1c-1.3,1.4,0.8,3.5,2.1,2.1c2.3-2.5,5.3-4,8.7-4.2
		C246.8,817.5,246.8,814.5,244.9,814.6z"/>
	<circle class="st35" cx="790.5" cy="300.5" r="22"/>
	<circle class="st36" cx="800" cy="297" r="9"/>
	<path class="st3" d="M610,322c-1.8,0.8,87-41,149-31c-4,8-5,18,8,28C737,308,655,302,610,322z"/>
</g>
<g id="Layer_5">
	<path class="st22" d="M995,741.5c0,0,41-56.6,57-56.6c4-14.2,16-50,16-50h66c0,0,18,35.9,18,44.3c0,8.5-32,62.3-32,62.3l-6,7.5
		c0,0-6,5.7-8,5.7s-7,0-7,0l-7-1.9c0,0-2-9.4,5-17c7-7.5,5-50.9,21-61.3c-8-11.3-13-20.8-13-20.8s-13,41.5-21,47.2s-74,49.1-74,57.5
		s-12,3.8-12,3.8s-11-10.4-10-12.3C989,748.1,995,741.5,995,741.5z"/>
	<path class="st37" d="M1127,562.2c1,0,33-5.7,32-11.3c-6-12.3-14-9.4-14-9.4l-11,3.8L1127,562.2z"/>
	<path class="st22" d="M1068,555.6c1,0.9,62,14.2,62,14.2l7-11.3l2-17c0,0-45-4.7-46-4.7S1068,555.6,1068,555.6z"/>
	<path class="st22" d="M1082,288.6c0,0-26,69.8-10,115.1s28-10.4,28-10.4s-21-53.8-3-98.1c21-2.8,24.8-13.8,20.8-27.9
		c-8-12.3-1.8,7.5-5.8,9.3s-3.5-2.8-3.5-2.8s1.6-23.3,5.6-27c1-1.9,2.1-11.5-2.9-4.9c-7,9.4-6.4,18.1-8.4,17.5
		c-2-0.7,5.9-23.5,3.9-25.3s-4.9,2.2-5.9,3.1c-1,0.9-4.5-2.3-7.5,5.3c-5,0-5,1.9-8,6.6C1083.4,252.2,1072,279.2,1082,288.6z"/>
	<path class="st22" d="M1211,337c0,0-8.4,23.9,10,30.9c7,32.1-2,59.4-2,59.4s-24,10.4-34,7.5s0,19.8,0,19.8l6,4.7
		c0,0,44-4.7,51-12.3c7-7.5-1.8-73.5-1.4-78.7c0.4-5.1,9.1-9.5,12.1-44.8c-3-15.1-3.3,9.2-7.3,11.1c-4-2.8,3.3-22.7-0.7-28.2
		c-3.7-5-5.1,25.9-8.1,25.9s-0.1-29.4-4.1-29.4s-1.8,26.7-3.3,27.9c-1.5,1.2-1.7-17.4-3.6-20.2c-1.2-1.7-2.8,5.4-2.8,8.6
		c0,8.5-1.1,31.4-6.1,31.4C1213.9,350.4,1217.6,328.8,1211,337z"/>
	<path class="st22" d="M1123,405.6l-4,20.8c0,0,1,11.3,0,13.2s9,12.3,10,13.2c1,0.9,14,6.6,14,6.6h13l-14-6.6l14-31.1l-4-10.4
		L1123,405.6z"/>
	<path class="st22" d="M1113,431.1"/>
	<path class="st24" d="M1119,429.2c0,0,23,12.6,35-3.1s-34-9.1-34-9.1L1119,429.2z"/>
	<path class="st19" d="M1055,552.8c0,0,38-1.9,54,3.8s28,1.9,28,1.9l5,79.2h-6.6l-1.4-2.8c0,0-60,25.5-69,27.4c0-10.4-2-47.2-8-54.7
		S1048,568.8,1055,552.8z"/>
	<path class="st38" d="M1100,393.3c0,0,20,26.4,19,32.1s23,27.4,23,27.4s8-20.8,10-22.2s27,4.3,40.6,4.1c2.6,3.6-3.6,44.6-4.6,45.5
		s-16-1.9-23-3.8c-3,9.4-2,13.2-6,29.2c-4,16-2,18.9,0,45.3c-21-8.5-105.6,6.2-105.6,6.2s19.6-61.9,21.6-92.1s-20-53.8-20-53.8
		L1100,393.3z"/>
	<path class="st25" d="M1110,353.7c-1,0.9-2,9.4-1,12.3c1,2.8,2.2,8.8,2.1,12.4s6.9-4.9,6.9-4.9l3-15.1l-6-4.7L1110,353.7
		L1110,353.7z"/>
	<path class="st22" d="M1111,404.7c-3-12.3,0-20.8,0-23.6c0-2.8,1-18.9,4-21.7s6-15.1,22-12.3c16,2.8,24-3.8,29,2.8
		c5,6.6,10,29.2,8,31.1s-9,31.1-12,34.9s-7,13.2-25,11.3S1111,404.7,1111,404.7z"/>
	<path class="st25" d="M1097,347.1c2,6.6,38,25.6,66,12.3c0,5.7,6,15.1,8,19.8c2,4.7-3.5,8.7-1.7,15.6c1.7,7,12.7-16.6,16.7-20.4
		s2-17-2-18.9c0-4.7,11-6.6,12-4.7c-4-5.7-12-7.5-15-3.8c5-6.6,4-8.5,0-16c0,6.6-1,10.4-6,10.4c-3-2.8-9-8.5-18-11.3s-22,4.7-30-6.6
		c-2,1.9-3,8.5,0,9.4c0,0-10,0-11-4.7c-1,1.9-3,5.7,2,9.4c-3,0.9-7,1.9-14-0.9c-0.2,3.7,2.7,7,6,8.5C1106,349,1097,347.1,1097,347.1
		z"/>
	<path class="st22" d="M1168,393.3c0,0,8-9.4,13-6.6s6,13.2-1,15.1s-11,2.8-13,0S1168,393.3,1168,393.3z"/>
	<path class="st25" d="M1114.2,373.1c-0.5,2.9,4.8-2.2,7.8-2.5c3-0.2,8.1,0.4,7.9-1.5s-7.2-2.3-9.1-1.2
		C1118.9,369,1114.9,369.3,1114.2,373.1z"/>
	<path class="st25" d="M1155.5,369.8c2.8,1.4,8.1,6,6,6.6s-3.8-1.5-6.6-2.9s-7.1-0.1-7.7-2.1
		C1146.4,369.5,1152.7,368.5,1155.5,369.8z"/>
	<path class="st25" d="M1144,383c0-3.8,9-11.3,12,2.8C1152,379.2,1149,379.2,1144,383z"/>
	<path class="st25" d="M1128,380.2c0.1-3-7.8-9.3-11,1.9C1120.8,376.9,1123.6,377,1128,380.2z"/>
	<path class="st19" d="M967,765.1c0,0-3,0-5,1.9s-5,4.7-5,5.7s6,17,13,21.7s9,18.9,16,23.6c7,4.7,18,12.3,27,14.2s19-0.9,21-1.9
		s5-6.6,4-11.3s-7-4.7-7-4.7L967,765.1z"/>
	<path class="st39" d="M965,767.9c0.7-3.7,8-12.3,15-16s21,14.2,21,14.2s5-17.9,18-15.1s19,10.4,15,14.2s-15,11.3-15,13.2
		s0,17,3,20.8s16,14.2,15,19.8c-1,5.7-20,5.7-25,3.8s-22-8.5-29-22.6S964,773.5,965,767.9z"/>
	<path class="st19" d="M1073,767.9c-1,0-5-0.9-6,0s-4,7.5-1,9.4s17,10.4,19,13.2s15,17,21,19.8s27,8.5,33,5.7s7-4.7,8-6.6
		c1-1.9,2-7.5,0-7.5S1073,767.9,1073,767.9z"/>
	<path class="st39" d="M1082,749c0,0-13,18.9-13,19.8s9,10.4,17,14.2s12,13.2,21,17.9s14,8.5,29,7.5c15-0.9,11-6.6,11-6.6
		s0-7.5-8-10.4c-8-2.8-14-12.3-14-16s-2-9.4-2-9.4s11-8.5,10-15.1s-2-11.3-10-12.3s-13,1.9-14,4.7s-6,15.1-6,15.1
		S1084,751.8,1082,749z"/>
	<path class="st19" d="M1097.7,734.9c0,0-13.7-2.9-16.7,5.6s3,16,8,17.9s13,4.7,13,4.7l2.7-9c0,0-12.7-3.3-9.7-12.7
		C1098,734.9,1097.7,734.9,1097.7,734.9z"/>
	<path class="st19" d="M984,741.5c-2.8,4.4-4,11.3,2,17s15,9.4,15,9.4s-0.3-2.7,4.3-10.8c-9.3-3.4-11.3-5.3-10.3-13.8
		c1-3.8,2.6-5.4,2.6-5.4S990,732,984,741.5z"/>
	<path class="st27" d="M1141.4,406.7c-1.7,2.6-3.7,5-7.2,4.9c-3.3-0.1-5.9-2.4-7.7-4.8c-0.4-0.5-1.2,0-0.9,0.5
		c2,2.7,4.8,5.2,8.5,5.3c3.9,0.2,6.2-2.5,8.1-5.3C1142.6,406.6,1141.7,406.2,1141.4,406.7z"/>
	<path class="st26" d="M1135.2,398.8c-2.3,1-5,1-7.1-0.4c-2.7-1.7-1.8-5.1-1.1-7.6c0.2-0.6-0.8-0.8-1-0.3c-0.7,2.8-1.6,6.3,1.1,8.3
		c2.5,1.9,5.8,1.9,8.6,0.7C1136.3,399.3,1135.8,398.5,1135.2,398.8z"/>
	<path class="st19" d="M1119,426.4c0,0,0,15.1,23,38.7c18-24.5,11.7-34.6,11.8-34.7s-1.8-0.2-1.8-0.2c-3,2.8-8,17.9-10,20.8
		C1139.8,450.9,1119,426.4,1119,426.4z"/>
	<path class="st19" d="M1080,411.3c5-2.8,25.7-10.1,25.7-10.1l-5.7-7.8l-45,17.9c0,0,6.5,7.9,7.2,9.6
		C1066,418.8,1080,411.3,1080,411.3z"/>
	<path class="st19" d="M1185,452.8c-0.6,4.7-3.7,27-3.7,27l7.7,1.4c0,0,8-46.2,4-47.2c-1,0.9-8,0-8,0S1186,445.2,1185,452.8z"/>
	<path class="st29" d="M1118.6,586.5c-2.1-2.9-6.4-3.5-9.9-4c-4.4-0.7-9.3-1.3-13.6,0.1c-0.6,0.2-0.3,1.1,0.3,0.9
		c3.9-1.2,8.2-0.8,12.2-0.2c3.3,0.5,8.2,0.9,10.2,3.8C1118.1,587.5,1119,587,1118.6,586.5z"/>
	<path class="st29" d="M1120.6,587.2c-1.8-4.2-5.9-6.5-10.4-7.5c-5.2-1.2-11.1-1.9-16.2-0.2c-0.6,0.2-0.3,1.1,0.3,0.9
		c4.5-1.5,9.4-1,13.9-0.1c4.7,0.8,9.5,2.8,11.5,7.2C1119.8,588,1120.8,587.7,1120.6,587.2z"/>
	<path class="st29" d="M1136.1,559.7c-0.2-0.6-1.2-0.3-1,0.3c0.6,1.4,0.9,2.8,1,4.3h-0.1c-1.2,0.3-2.5,0.6-3.7,0.8
		c0-1.4,0-2.8-0.2-4.2c-0.1-0.6-1.1-0.6-1,0c0.2,1.5,0.2,2.9,0.2,4.4c-1.1,0.2-2.2,0.3-3.3,0.4c0-1.8-0.1-3.6-0.3-5.4
		c-0.1-0.6-1.1-0.3-1,0.3c0.3,1.7,0.4,3.4,0.3,5.2c-1.3,0.1-2.7,0.1-4,0.1v-5.2c0-0.6-1-0.6-1,0v5.2c-1.2,0-2.4-0.1-3.6-0.2v-5.3
		c0-0.6-1-0.6-1,0v5.2c-1.4-0.1-2.8-0.3-4.2-0.5c0.2-1.8,0.5-3.5,0.8-5.3c0.1-0.6-0.9-0.8-1-0.3c-0.3,1.8-0.6,3.6-0.8,5.4
		c-1.5-0.2-3-0.5-4.5-0.8c0.3-2.2,0.9-4.4,1.7-6.4c0.2-0.6-0.7-0.8-1-0.3c-0.8,2.1-1.4,4.3-1.7,6.5c-1.3-0.3-2.6-0.5-4-0.8
		c0.3-2.1,0.8-4.2,1.4-6.2c0.2-0.6-0.8-0.8-1-0.3c-0.6,2.1-1,4.1-1.4,6.3c-1.4-0.3-2.9-0.6-4.3-0.9c0.5-1.9,0.9-3.9,1.2-5.8
		c0.1-0.6-0.9-0.9-1-0.3c-0.3,2-0.7,3.9-1.2,5.9c-0.4-0.1-0.9-0.2-1.3-0.3c-1-0.2-2-0.4-3-0.6c0.6-1.7,1.7-5,1.1-5.2
		c0.6,0.3,1.1-0.5,0.5-0.8c0,0-0.1,0-0.1-0.1c-0.2-0.1-0.4-0.1-0.5,0c-0.8,0.5-0.8,1.7-1,2.5c-0.3,1.1-0.7,2.3-1,3.4
		c-1.4-0.3-2.8-0.5-4.2-0.8c0.4-1.9,0.8-3.7,1.2-5.6c0.1-0.6-0.8-0.8-1-0.3c-0.4,1.9-0.8,3.8-1.2,5.7c-1.3-0.2-2.7-0.4-4-0.6
		c0,0,0,0,0-0.1c0.2-1.6,0.6-3.2,1.4-4.6c0.3-0.5-0.6-1-0.9-0.5c-0.8,1.6-1.3,3.3-1.5,5c-1.4-0.2-2.9-0.4-4.3-0.5
		c0.2-1.3,0.6-2.6,1.2-3.8c0.3-0.5-0.6-1-0.9-0.5c-0.7,1.3-1.1,2.7-1.4,4.2c-1-0.1-2-0.2-3-0.3c0.3-0.9,0.6-1.8,0.9-2.7
		c0.2-0.6-0.7-0.8-1-0.3c-0.4,1-0.7,1.9-0.9,2.9c-1.3-0.1-2.5-0.2-3.8-0.3l0.3-1.3c0.1-0.6-0.8-0.8-1-0.3c-0.1,0.5-0.2,1-0.4,1.5
		c-3.9-0.2-7.7-0.3-11.6-0.1c-0.6,0-0.6,1,0,0.9c4.6-0.1,9.1,0,13.6,0.3c-1.8,9.1-3.5,18.3-3.3,27.5c0.2,8.7,2.4,17.4,4.6,25.7
		c1,3.7,2.2,7.4,3.8,11c1.8,4,4.4,7.3,6.5,11.1c1.2,2.2,1.8,4.3,1,6.7c-0.5,1.5-1.5,3-1,4.7c0.4,1.4,1.4,1.6,2.5,2.4
		c0.8,0.5,1.3,1.1,1.5,1.7c-4.8,0.2-9.6-0.3-14.5-1.8c-0.6-0.2-0.9,0.7-0.3,0.9c5,1.6,10,2.1,14.9,1.8c0.1,1.6-0.9,3.4-1.9,4.8
		c-0.3,0.5,0.5,1,0.9,0.5c1-1.5,2.1-3.5,2.1-5.3c12.9-0.9,25.4-6.9,36.5-13.1c0.6-0.3,0.1-1.1-0.5-0.8c-11,6.1-23.4,12.1-36.2,13
		c-0.2-0.5-0.4-1.1-0.9-1.6c-1.4-1.6-3.9-1.5-3.2-4.5c0.5-1.9,1.6-3.4,1.4-5.5c-0.3-3.6-3.2-6.6-5-9.6c-2.4-3.8-4.1-8-5.5-12.2
		c-1.3-4.1-2.3-8.2-3.2-12.3c-1.1-4.9-2.2-9.7-2.6-14.7c-0.7-10.2,1.3-20.3,3.2-30.2c5.4,0.4,10.8,1.1,16.1,2
		c0.2,0.2,0.4,0.2,0.6,0.1c1.4,0.3,2.9,0.5,4.3,0.8c0,0.5,0.8,0.7,1,0.2c1.5,0.3,3.1,0.6,4.6,1c0.1,0.1,0.3,0.1,0.4,0.1
		c0.3,0.1,0.5,0.1,0.8,0.2c8.3,1.9,16.8,3.7,25.3,3.8c0.8,7.2,1.5,14.5,0.6,21.7c-0.4-0.5-0.7-1-1-1.5c0.1-0.1,0.1-0.2,0.1-0.3
		c-0.1-3.7-2.4-7-6-8.5c-0.6-0.2-1.1,0.6-0.5,0.8c3.2,1.4,5.3,4.2,5.4,7.5c-0.2,0.1-0.3,0.4-0.1,0.6c0.6,1,1.2,1.9,1.8,2.9
		c0,0.1,0.1,0.1,0.1,0.2l0,0c0,0.3,0.1,0.4,0.3,0.5c0.1,0.3,0.2,0.5,0.3,0.8c-0.1,0-0.2,0.1-0.3,0.1c-0.6,0.2-0.3,1.1,0.3,0.9l0,0
		c-0.1,0.3-0.3,0.6-0.5,1c-0.7,1.2-1.3,1.9-1.4,3.3c-0.4,3.7,1.5,7.7,2.6,11.1c2.8,9.1,6,18.2,9.4,27.1c0.2,0.6,1.2,0.3,1-0.3
		c-3.5-9.1-6.7-18.2-9.6-27.5c-0.5-1.5-1-3.1-1.4-4.7c2.2,0.7,4.4,1.4,6.6,1.9c0.6,0.2,0.9-0.8,0.3-0.9c-2.4-0.6-4.8-1.3-7.2-2.1
		c-0.1-0.2-0.1-0.4-0.2-0.7c-0.1-0.4-0.2-0.8-0.3-1.2c2.8,0.8,5.6,1.2,8.5,1.3c0.6,0,0.6-0.9,0-0.9c-3-0.1-5.8-0.5-8.7-1.3l0,0
		c0-0.3,0-0.6,0-1c3.8,0.6,7.5,0.5,11.2-0.5c0.6-0.2,0.4-1.1-0.3-0.9c-3.6,1-7.2,1.1-10.8,0.5c0.2-1,0.6-1.9,1.4-2.9
		c0.5-0.7,0.9-1.1,0.9-1.8c1.4-0.5,2.7-1.2,3.6-2.3c1.5-1.7,1.6-4.1,2-6.2c0.9-5.7,1.3-11.4,1-17.2c0-0.1,0-0.2-0.1-0.2
		c1.4-0.2,2.8-0.5,4.1-0.8c0,0.6,1,0.6,1,0C1137.2,563.2,1136.8,561.4,1136.1,559.7z M1130.6,579.7c-0.3,2.2-0.5,4.6-1.1,6.8
		c-0.7,2.4-2.2,3.5-4.2,4.4c-0.2-0.4-0.4-0.9-0.7-1.4c1.2-7.6,0.5-15.3-0.4-23c1,0,1.9,0,2.9-0.1c0.1,0.5,0.9,0.4,1-0.1
		c1.1-0.1,2.1-0.2,3.2-0.3v0.1C1131.2,570.7,1131.1,575.2,1130.6,579.7z"/>
	<path class="st29" d="M1117.2,632.8c-8.1,4.9-17.1,8.2-26.6,9.7c-0.6,0.1-0.4,1,0.3,0.9c9.6-1.5,18.7-4.8,26.8-9.8
		C1118.3,633.3,1117.8,632.4,1117.2,632.8z"/>
	<path class="st29" d="M1109.4,592.6c-5.7-0.6-11.3-0.6-17,0c-4.6,0.5-9.6,1.1-13.5,3.7c-0.5,0.4,0,1.2,0.5,0.8
		c4.1-2.8,9.9-3.3,14.8-3.8c5-0.4,10.1-0.3,15.1,0.2C1110,593.6,1110,592.7,1109.4,592.6z"/>
	<path class="st29" d="M1109,594.7c-5.7-0.3-11.3,0-16.9,0.9c-0.6,0.1-0.4,1,0.3,0.9c5.5-0.9,11-1.2,16.6-0.9
		C1109.7,595.7,1109.7,594.7,1109,594.7z"/>
	<path class="st29" d="M1100.1,395.9c-6.9,3.1-13.8,6.3-20.6,9.4c-6.6,3-13.3,5.8-19.2,9.9c-0.5,0.4,0,1.2,0.5,0.8
		c5.9-4.1,12.6-6.9,19.2-9.9c6.9-3.1,13.8-6.3,20.6-9.4C1101.2,396.4,1100.7,395.6,1100.1,395.9z"/>
	<path class="st29" d="M1152.4,434.7c-2.3,8.2-6,16-11,23.1c-8.8-6.8-14.4-16.5-19.6-25.9c-0.3-0.5-1.2-0.1-0.9,0.5
		c5.3,9.6,11,19.3,19.9,26.2c0,0,0,0.1-0.1,0.1c-0.4,0.5,0.5,1,0.9,0.5c0.1,0.1,0.2,0.2,0.4,0.3c0.5,0.4,1-0.4,0.5-0.8
		c-0.1-0.1-0.2-0.2-0.3-0.3c5-7.2,8.8-15.1,11.1-23.4C1153.5,434.3,1152.5,434.1,1152.4,434.7z"/>
	<path class="st29" d="M1190.4,436.1c-0.9,14.4-5.6,28.4-5.8,43c0,0.6,1,0.6,1,0c0.1-14.5,4.8-28.5,5.8-43
		C1191.4,435.5,1190.4,435.5,1190.4,436.1z"/>
	<path class="st29" d="M1036,775.1c-0.6-3.7-6.2-4.1-9.3-3.7c-0.7,0.1-1.4,0.2-2.2,0.4c0.2-0.3,0.3-0.5,0.5-0.8
		c1.9-3.1,1.2-6.8-2.2-8.6c-3.4-1.9-7.7-0.4-9.9,2.5c-2.5,3.4-1.6,6.9-0.8,10.5c-0.8,0-1.6,0-2.4,0.1c-2.6,0.3-8,1-9.8,3.1
		c-0.9,1-0.7,2.9,0.9,3.2h0.1c0.9,0.2,1.7-0.1,2.1-0.7c1.4-1.1,5.6-1.6,7.1-1.8c2.6-0.2,5,0.2,7.3,1.5c0.6,0.3,1.2,0.3,1.7,0.1
		c3,0.7,6.7-0.2,9.6-0.7C1031.6,779.7,1036.6,778.8,1036,775.1z M1015.2,769.8c0.3-2.4,2.7-5.6,5.6-4c2.7,1.5,0.5,3.7-0.7,5.3
		c-1.2,1.7-1.8,3.6-3.9,4.4C1015.8,773.6,1015,771.8,1015.2,769.8z M1031.2,775.6c-0.3,0.9-5.5,1.2-6.4,1.3
		c-1.2,0.1-2.6,0.4-3.8,0.3c1.3-0.8,3-1.4,4.1-1.7C1026,775.3,1031.6,774.5,1031.2,775.6z"/>
	<path class="st29" d="M1020.8,786.2c-4.5-5.8-14.8-3.4-19.9,0.4c-2,1.5,0.8,4.2,2.8,2.7c1.9-1.4,4-2.2,6.4-2.5
		c2-0.2,5.9-0.4,7.2,1.3C1018.8,790.1,1022.3,788.2,1020.8,786.2z"/>
	<path class="st29" d="M1021.7,793.9c-5.2-4.3-13.8-2.6-19.1,0.7c-2.1,1.3-0.1,4.6,2,3.3c3.6-2.2,10.5-4.4,14.2-1.2
		C1020.8,798.1,1023.6,795.5,1021.7,793.9z"/>
	<path class="st29" d="M1023.2,797.6c-5.5-0.9-10.9,0.1-15.5,3.1c-2.1,1.4-0.1,4.6,2,3.3c3.7-2.4,8-3.4,12.5-2.7
		C1024.6,801.7,1025.7,798.1,1023.2,797.6z"/>
	<path class="st29" d="M1138.2,761.1c-1.3-2.9-4.9-2.9-7.7-2.3c0.3-0.8,0.4-1.6,0.4-2.5c-0.2-3-3.1-5.3-6.1-5.6
		c-7.5-0.8-7.1,7.5-5.2,12.7c-4.8,0.3-10.1,2.7-13.3,4.7c-2.1,1.3-0.1,4.6,2,3.3c3-1.9,9.2-4.9,13.5-4.2c-0.2,1.2,0.7,2.1,2,2.2
		c3.5,0.4,7.9,0.7,11.1-1.1C1137.5,767,1139.5,763.9,1138.2,761.1z M1124.7,754.6c4.5,1,0.6,5.5-1.2,8
		C1122.3,759.5,1120.9,753.8,1124.7,754.6z M1134.4,763.7c-0.5,2.3-4.5,2.5-7.5,2.3c-0.1-0.3-0.2-0.5-0.4-0.7
		c0.8-0.9,1.7-1.6,2.8-2.1C1130.4,762.7,1134.9,761.2,1134.4,763.7z"/>
	<path class="st29" d="M1126.8,771c-5.1-3.8-14.2,0.9-18.2,4.3c-1.9,1.6,0.9,4.3,2.8,2.7c1.8-1.5,3.8-2.7,6.1-3.4
		c1.3-0.5,5.3-1.8,6.5-0.8C1125.9,775.2,1128.8,772.5,1126.8,771z"/>
	<path class="st29" d="M1127.8,779.1c-4.7-3.8-13.3,1-16.8,4.4c-1.8,1.7,1,4.4,2.8,2.7c1.5-1.5,3.2-2.6,5.2-3.4c1.1-0.4,4.9-1.8,6-1
		C1126.9,783.4,1129.7,780.7,1127.8,779.1z"/>
	<path class="st29" d="M1130.6,784.3c-4.3-0.2-8.5,1.5-11.2,4.7c-1.6,1.9,1.2,4.6,2.8,2.7c2.1-2.5,5-3.8,8.4-3.6
		C1133.2,788.2,1133.2,784.4,1130.6,784.3z"/>
	<path class="st40" d="M1154.6,536.4c-26-3-52.4-1-77.6,5.9c-0.6,0.2-0.4,1.1,0.3,0.9c25.1-6.8,51.4-8.8,77.3-5.9
		C1155.3,537.5,1155.3,536.5,1154.6,536.4z"/>
	<path class="st40" d="M1144.7,528.5c-10.3-0.1-20.6,0.3-30.9,1.3c-0.6,0.1-0.6,1,0,0.9c10.3-1,20.6-1.4,30.9-1.3
		C1145.3,529.4,1145.3,528.5,1144.7,528.5z"/>
	<path class="st40" d="M1147.7,485.9c-12.1,1.1-24.2,0.5-36-1.8c-0.6-0.1-0.9,0.8-0.3,0.9c12,2.3,24.2,2.9,36.3,1.8
		C1148.3,486.8,1148.3,485.8,1147.7,485.9z"/>
	<path class="st40" d="M1145.4,489c-8.3,0.9-16.6,1.4-24.9,1.6c-0.6,0-0.6,1,0,0.9c8.3-0.2,16.6-0.7,24.9-1.6
		C1146,489.9,1146,488.9,1145.4,489z"/>
	<path class="st40" d="M1104.9,455c4-4.1,6.8-9.2,9.4-14.2c2.9-5.5,5.1-11.3,4.2-17.5c-0.1-0.6-1.1-0.3-1,0.3
		c0.9,6.1-1.4,11.8-4.3,17.2c-2.3,4.3-4.8,8.8-8.1,12.5c-3.2,3.7-7.5,6.5-12.7,6.8c-5.1,0.2-9.9-1.8-13.1-5.5
		c-0.4-0.5-1.1,0.2-0.7,0.7c2.8,3.1,6.7,5.1,10.9,5.6c0.8,1.7,1,3.8-0.7,4.9c-3.5-0.6-6.8-1.8-9.8-3.8c-0.5-0.3-1,0.5-0.5,0.8
		c2.9,1.9,6.2,3.2,9.6,3.8c0,0,0,0,0,0.1c-2.2,1.8-3.1,4.4-3.6,7.1c-0.7,3.7-1,7.4-1.4,11.2c-1,8.4-1.8,16.7-3,25.1
		c-1.2,8.3-2.6,16.6-4.9,24.7c-0.7,2.3-1.5,4.4-3.1,6.3c-1,1.2-2.1,2.4-2.9,3.8c-1.7,2.9-2.5,6-2.6,9.3c0,0.6,1,0.6,1,0
		c0.1-4.2,1.5-8,4.2-11.3c2.1-2.5,3.4-4.7,4.3-7.9c2.2-7.7,3.6-15.6,4.7-23.4c1.1-7.5,1.9-15,2.8-22.6c0.4-3.9,0.9-7.8,1.4-11.7
		c0.5-3.7,0.9-7.7,4.1-10.2c0.1-0.1,0.2-0.2,0.2-0.3c5.4,0.7,10.9-0.2,15.8-2.8c0.6-0.3,0.1-1.1-0.5-0.8c-4.5,2.4-9.6,3.3-14.5,2.7
		c1.2-1.3,1.1-3.3,0.5-5c0.4,0,0.8,0.1,1.1,0.1C1097,460.9,1101.5,458.5,1104.9,455z"/>
	<path class="st40" d="M1172.2,465.3c-1.5,4.1-4.4,7.4-8.2,9.7c0.2-0.7,0.4-1.5,0.5-2.3c0.2,0,0.4,0,0.5-0.2
		c2.2-3.4,4.1-6.9,5.6-10.6c1.4-3.5,3-7.5,2.7-11.3c0-0.6-1-0.6-1,0c0.2,3.7-1.3,7.6-2.7,11c-1.3,3.3-3,6.5-4.9,9.5
		c0.8-6.1,0-12.5-0.3-18.6c-0.2-4.9-0.5-10.6-3.7-14.7c0.2-0.2,0.3-0.6,0-0.8l-2.8-1.8c-0.5-0.3-1,0.5-0.5,0.8
		c6.4,4.1,5.8,12.7,6.1,19.2c0.3,7,1.2,14.4-1.1,21.2c-0.2,0.6,0.8,0.8,1,0.3c0.1-0.2,0.1-0.3,0.1-0.5c4.5-2.4,7.8-6.2,9.5-10.8
		C1173.4,465,1172.5,464.8,1172.2,465.3z"/>
	<path class="st40" d="M1097.2,410.2c-10.8,3.3-21.7,6.8-30.9,13.4c-0.5,0.4,0,1.2,0.5,0.8c9.1-6.5,19.9-10,30.6-13.3
		C1098,410.9,1097.8,410,1097.2,410.2z"/>
	<path class="st40" d="M1085.6,420.3c-5.5,1.1-10.7,3.1-15.5,5.8c-0.6,0.3-0.1,1.1,0.5,0.8c4.8-2.7,9.9-4.6,15.3-5.7
		C1086.5,421.1,1086.2,420.2,1085.6,420.3z"/>
	<path class="st32" d="M1168.9,351c-3.8,3.2-8.7,4.4-13.6,5s-9.8,0.8-14.7,0.6c-10.2-0.3-20.3-2.5-29.1-7.5
		c-0.6-0.3-1.1,0.5-0.5,0.8c9.2,5.2,19.8,7.4,30.4,7.7c9.1,0.2,21,0.2,28.1-5.9C1170.1,351.3,1169.4,350.6,1168.9,351z"/>
	<path class="st32" d="M1168.6,347.2c-5.4,3.2-11.9,3.3-18.1,3.1c-6.7-0.2-13.5-0.5-19.9-2.5c-0.6-0.2-0.9,0.7-0.3,0.9
		c6.8,2.1,13.9,2.4,21,2.5c6.1,0.2,12.4-0.1,17.8-3.3C1169.6,347.6,1169.1,346.8,1168.6,347.2z"/>
	<path class="st32" d="M1165.8,345.6c-3.6,1.3-8.1,1-11.9,0.8c-4.2-0.2-8.3-0.6-12.4-1.3c-0.6-0.1-0.9,0.8-0.3,0.9
		c4.2,0.7,8.4,1.2,12.7,1.3c3.9,0.2,8.4,0.5,12.2-0.8C1166.7,346.3,1166.4,345.4,1165.8,345.6z"/>
	<path class="st32" d="M1177.1,369.6c-4.6-0.3-7.5-6.3-6.6-10.2c0.1-0.6-0.8-0.8-1-0.3c-1,4.5,2.2,11,7.6,11.3
		C1177.7,370.6,1177.7,369.6,1177.1,369.6z"/>
	<path class="st32" d="M1179.9,364.1c-4.6-0.4-6.6-4.7-6.7-8.6c0-0.6-1-0.6-1,0c0.1,4.5,2.5,9,7.7,9.5
		C1180.5,365.1,1180.5,364.2,1179.9,364.1z"/>
	<path class="st32" d="M1179.9,358.1c-1.2-0.8-3.8-2.5-3.3-4.1c0.2-0.6-0.8-0.8-1-0.3c-0.7,2.2,2.2,4.1,3.8,5.1
		C1180,359.3,1180.5,358.5,1179.9,358.1z"/>
</g>
<path class="st28" d="M574.2,315.1c-1.6-0.8-3.2-1.7-5-2.2c-0.1-0.1-0.1-0.1-0.2-0.1c-0.2,0-0.4,0-0.5-0.1c-0.3-0.1-0.6-0.1-0.9-0.1
	c0,0,0,0,0,0c-13.5-3.4-38,3.4-39.6,7.8s3.5,7.5,2.9,7.1c-1.8-1.2-3.4-4.9-1.5-7.1c4.2-5.1,30.2-9.7,38.6-6.8c3,1.1,6,2.6,8.8,3.8
	c2.1,0.9,3.7,1.4,6,1.5C577.2,317.4,577.1,316.6,574.2,315.1z"/>
<path class="st28" d="M1105.8,260.5c-2.1-1-4.9-0.9-7.5-0.6c0-4.3,1.5-8.6,2.6-12.8c0.8-3.2,1.9-6.5,0.5-9.7c-0.2-0.6-1.2-0.3-1,0.3
	c1.6,3.7-0.3,8.1-1.2,11.9c-0.9,3.4-2,6.9-1.9,10.5c-0.9,0.1-1.8,0.2-2.7,0.3c-1.7,0.2-3.4,0.5-5.1,0.9c0.7-6.4,5.9-11.7,4.5-18.4
	c-0.1-0.6-1.1-0.4-1,0.3c1.3,6.5-4,12-4.6,18.3c0,0,0,0,0,0.1c-1.8,0.5-3.5,1.1-5.1,1.9c-0.6,0.3-0.1,1.1,0.5,0.9
	c3.4-1.6,7-2.5,10.7-3c3.1-0.4,7.8-1.3,10.7,0C1105.9,261.6,1106.4,260.8,1105.8,260.5z"/>
<path class="st28" d="M1112.3,276.5c-4.4,0.1-11.5-0.5-15.8,2.1c0.1-0.1,0.1-0.3,0-0.4c-1.5-3-4.1-5.2-7.4-6.2
	c-0.6-0.2-0.9,0.8-0.3,1c3,0.9,5.4,3,6.8,5.8c0.1,0.2,0.2,0.2,0.4,0.2c-1.6,1.1-2.8,2.7-3.1,5.1c-0.1,0.6,0.9,0.9,1,0.3
	c1.2-8.1,12.6-6.7,18.5-6.8C1112.9,277.5,1112.9,276.5,1112.3,276.5z"/>
<path class="st28" d="M1216.8,349.8c-0.6,0-0.6,1,0,1c6-0.4,12.2,2.5,13.4,8.9c0.1,0.6,1.1,0.4,1-0.3
	C1229.9,352.6,1223.2,349.4,1216.8,349.8z"/>
<path class="st28" d="M1247,337.6c-5.4-6.5-14.1-7-21.8-5.2c-0.6,0.2-0.4,1.1,0.3,1c7.4-1.8,15.7-1.3,20.9,4.9
	C1246.7,338.8,1247.4,338.1,1247,337.6z"/>
<path class="st28" d="M1241.2,347.7c-4.2-0.4-8.5-1.2-11.7-4.2c-0.5-0.4-1.2,0.3-0.7,0.7c3.4,3.2,7.9,4,12.4,4.5
	C1241.8,348.8,1241.8,347.8,1241.2,347.7z"/>
</svg>
