<?xml version="1.0" encoding="utf-8"?>
<!-- Generator: Adobe Illustrator 23.0.2, SVG Export Plug-In . SVG Version: 6.00 Build 0)  -->
<svg version="1.1" id="Layer_1" xmlns="http://www.w3.org/2000/svg" xmlns:xlink="http://www.w3.org/1999/xlink" x="0px" y="0px"
	 viewBox="0 0 657.6 567.2" style="enable-background:new 0 0 657.6 567.2;" xml:space="preserve">
<style type="text/css">
	.st0{opacity:0.1;fill:#007CC7;enable-background:new    ;}
	.st1{fill:#AFC7D7;}
	.st2{fill:#FBD5AF;}
	.st3{fill:#FFFFFF;}
	.st4{fill:#FFF4D6;}
	.st5{fill:#FFCC4D;}
	.st6{fill:#F3A769;}
	.st7{fill:#91D5E5;}
	.st8{fill:#73A0BE;}
	.st9{fill:#FDA589;}
	.st10{fill:none;}
	.st11{fill:#853535;}
	.st12{fill:#FFBB94;}
	.st13{fill:#787DA1;}
	.st14{fill:#BDA746;}
	.st15{fill:#AB983E;}
	.st16{fill:#FAE6CF;}
	.st17{fill:#002042;}
	.st18{fill:#1B354C;}
	.st19{fill:#EBEBEB;}
	.st20{fill:#C9C1BD;}
	.st21{fill:#917E2C;}
	.st22{fill:#E0585E;}
	.st23{fill:#773232;}
	.st24{opacity:0.16;fill:#B94A00;enable-background:new    ;}
	.st25{fill:#F28561;}
	.st26{fill:#9A4545;}
	.st27{fill:#F0E6E1;}
	.st28{clip-path:url(#SVGID_2_);}
	.st29{fill:#E0D6D3;}
	.st30{clip-path:url(#SVGID_5_);}
	.st31{clip-path:url(#SVGID_7_);}
	.st32{fill:#999999;}
	.st33{fill:#422645;}
	.st34{fill:#472516;}
	.st35{fill:#363A5E;}
	.st36{fill:#D37E37;}
	.st37{fill:#00B1AA;}
	.st38{fill:#108C85;}
	.st39{fill:#045604;}
	.st40{fill:#C4B1A9;}
	.st41{opacity:0.46;fill:#472516;enable-background:new    ;}
	.st42{opacity:0.61;}
	.st43{fill:#6FB1ED;}
	.st44{opacity:0.7;}
</style>
<path class="st0" d="M501.1,520.3c8-3.7,15.9-7.8,23.6-12.2c38.2-21.8,72.1-51.7,96.7-88.3c23.9-35.4,33.2-69.1,35.7-110.7
	C661.4,239,637,167,556.4,109.3C536,94.6,516.3,82,488,83.2c-24.5,1.1-48.5,17.1-69.5,27.4c-37.5,18.4-66.4,18.9-106.5,5.2
	c-48.9-16.7-82.5-62.2-135.5-69.8c-61.1-8.7-112,36.3-138.8,87.1C-12.6,228.6-9.6,355.2,51,445.6c31.8,47.5,80,82.3,134.2,100.1
	c33.4,11,67.6,16.3,102.4,20.1C356.9,573.2,438.4,549.4,501.1,520.3z"/>
<path class="st1" d="M58.3,519.8c-2.9-0.3-4.5-0.6-5.2-0.9c-0.7-0.2-0.7-0.3-0.4-0.4c0.5-0.1,1.7-0.1-1.1-1.1c2.3,0.5,4.2,1,5.4,1.3
	c0.4,0,2.1,0.2,3.5,0.2c1.4,0.1,2.6,0,2.3-0.1c0.6,0.4,2.5,0.7,5,0.9c2.4,0.2,5.3,0.3,7.9,0.3c5.3,0.1,9.6,0.1,7.2,0.9
	c3.2,0,9.8-0.6,17-1.6c7.3-0.9,15.3-2.2,21.9-3.1l-3.5,0.8c14.1-0.7,12-2.5,19.9-3.8c-6.9,1.3,6.4-0.2,9.2,0c6.2-1,11.2-2.1,20-2.3
	c1.8,0.5,2.1,1.3,7.7,1.4c1.3-0.1,2.5-0.3,3.8-0.4c5.6,0.1,13.1,0.2,16.7,0.8l-0.8,0c6.3,0.7,6.7,0,1.8-0.5l6.1,0.1l0.2,0.2
	c8,0.3,15.7,0.3,28.5,1.4c-3.5,0.2,9.5,2-2.1,0.9c3.4,0.1-1.7-0.7-2.3-1c-4.1-0.5-8-0.4-9.9-0.5c1.3,0.4-0.1,1-2.4,1.2
	c4.2,0,12,0.8,19.1,1.4s13.5,1.1,14.6,0.5c5.2,0.5,11.2,0.9,17.4,1.2c6.2,0.2,12.6,0.4,18.6,0.7c-0.5-0.1-1.5-0.2-1.2-0.3l10.3,0.6
	l-2.4,0.1l6.8,0.4c0.7,0.2-1.9,0.5-4.8,0.5c-1.6,0.1-3.1-0.1-1.5-0.2c-7.4,0.5,6.1,0.2,1.3,0.7c-1.8-0.1-4.2,0-5.4,0
	c8.4,0.3,12.3-0.5,17.5,0c2-0.3,5-0.6,8.5-0.9c3.5-0.2,7.4-0.6,11.2-0.6c-2.9,0.5,8.2-0.6,4.5,0.3c2.9-0.4,9.7-0.6,10.8-1.1
	c-1,0.2-4.3,0.5-6.6,0.5c3.1-0.4,3.4-0.8,7.2-1.1c0.5,0,0.2,0.1,0.2,0.1c4.9-0.8,1.5-1.4,10.1-2.2c22.5-2.5-2.9,1.7,0.3,1.6
	c0.8-0.4,10.7-1.6,15.2-1.8l-1,0.3c2.3-0.4,5.6-1,8.1-1c1.3-0.7,3.9-1.4,5.4-1.9l10-1.2l-2,0.5c2.3-0.4,4.3-0.6,6.3-0.9
	c1,0.3-2,0.5-5.1,1c1.7,0.2,3.7-0.1,6-0.7l-1.3,0.1c2.5-0.5,11.8-2.2,4.3-1.4c5.5-1,7.4-0.5,11.2-1.1c0.5,0.3-3,0.8-1.1,0.8
	c3.7-0.4,6.2-0.6,9.2-1.1c-3,0.2,0.8-0.4-3.9-0.1c1.8-0.4,6.5-1,6.3-1.1c-1.5,0.2-2.5,0.5-5.2,0.6c5-0.7,10.2-1.4,15.4-1.7
	c-0.2,0.1-0.7,0.2-1.2,0.4c6.6-1.3,16.7-2.2,21.1-3.2l-2,0c-1.6,0.3-4.9,0.7-6.2,0.6c5-0.7-3.7-0.2,1.6-1.1c7.3-1,13.9-0.9,17.8-1.9
	c-7,0.6-16.5,1-19.3,1.6c1.5-0.1,3-0.3,4.5-0.4c-3.4,0.6-6.7,1.3-10.1,1.9c-0.5-0.3-9,1.1-9,0.6c3.5-0.5,6.7-0.8,9.5-1.2
	c-0.7-0.2-9.5,0.9-13.2,1.2l4.7-0.3c-8.3,1.4-19,2.5-27,3.7c6.3-1.2-8.2,0.6-3.2-0.4c2-0.5,5.5-0.5,4.5-0.5c0.5-0.5-5,0.5-6.7,0.3
	c-0.8,0.4-9.1,1.5-4.1,1.3c-2.7,0.1-8.5,1.3-12.3,1.3c1.2,0.4-6.8,1.1-8.1,1.5c-1.6,0.1-3,0.2-4.1,0.2c3.4-0.6,7.5-1.3,11.8-2
	c1.8-0.1,5-0.5,4-0.5l0-0.2c6.4-1.1,12.9-2.3,17.5-3.1c0.7-0.1,1.5-0.2,2.2-0.3l-0.4,0.1c0.2,0,0.5-0.1,0.7-0.1
	c37.8-4.4,75.5-8.8,113.4-8.2c-2.5,0.1-6.5,0-8.2,0.2l0.3-0.1l-3.9,0.2c3.2,0,9.7-0.1,12.5-0.3c2.7,0,5.3,0.1,8,0.2l-6.7-0.4
	c0,0,0,0,0,0c0,0,0,0,0,0l-7.9-0.5c5.2-0.4,10.1-0.7,16.3-0.6c-2,0.2,0,0.3,0.5,0.4c17.1-1.4,33.6-1.5,50.8-1.1
	c7.2,0.1,14.5,0.3,21.6-0.8c13.8-2.1,27.1-8.8,41-7.6c5.2,0.4,11.4,1.7,14.9-2.2c4-4.3,0.8-11.9-4.5-14.6s-11.5-2.2-17.4-2.4
	c-7.7-0.2-15.4-1.7-23-1.1c-9.8,0.8-18.6,3.6-28.6,3c-7-0.4-14.5-1.9-21.5-1.7c4-0.1-2.5-0.7-5.6-1.2c-9.7-0.4-30.4-1.7-45.2-2.1
	c2-0.5-2.1-0.7-6.8-0.9c-4.7-0.2-10.1-0.4-10.7-0.9c-3.3-0.2-8.4-0.2-8.8,0.2c1.8-0.1,6.2,0.4,5.6,0.5c-4.8-0.1-12.1-0.4-12.8,0.1
	l-5.9-0.7c-0.3,0.2-1.2,0.5-2.8,0.6c-1.3,0-2.6-0.1-3.9-0.1c-2.3-0.4-2.4-0.3-2.6-0.1c-1.4,0-2.8-0.1-4.3-0.1c1.6-0.2,3-0.4,3.7-0.6
	c-5-0.3-4.4,0-7.9,0c-1.1-0.3,3.6-0.7,7.5-0.7l-6.4-0.5c-6.3,0.4-17.2,0.8-27.2,0.2c1.7-0.3,4.9-0.1,2.3-0.7
	c-4.3,0-10.1,0.4-15.8-0.2c0.8,0,0.3-0.1,1.1-0.1c-10.1,0.1-7.5-0.5-16.5-0.9c0.1,0,0.2-0.1,0.5-0.2l-5.6,0.1
	c-11.7,0.2-12.8-1.2-19.7-2l1.5,0c-2.1-0.4-6.7-0.7-11.2-1c-4.5-0.3-9-0.5-10.9-0.8c4.8,0.7,1.6,0.5,5.1,1.3
	c4.3,0.2,3.1-0.6,10.3,0.1c-1,0.5-10.1,0.1-12.1,0.4c-4-0.2-6.6-1.4-6.9-1.7c-10-0.7-15.6-1.5-27.9-2.6c-4.5,0-8.1,0.8-18.2-0.9
	l0.6-0.1c-0.4,0.3-5-0.5-7.1-0.4c3.4,0.9-4.5,0-0.2,1c-6-0.5-6.9-1.3-7.4-1.9c-4.4,0.5-11.9-1.3-21.3-1.3c1.7-0.3,11.9,0.2,7.7-0.4
	c-4,0.1-8.1,0.2-12.1,0.4l5.3,0.2c-9.1,0.3-11.6-0.4-16.9-0.8c-0.5-0.1,0.1-0.2,1.2-0.3c1.1,0,2.6,0,3.9,0c-2.8-0.1-7.3,0-11,0.3
	c-2.8,0.3-12.3,1-16.1,1.8c-0.5,0-1,0-1.5,0c0.1-0.1,0.4-0.1,0.7-0.2c-0.8,0.1-1.4,0.1-2,0.2c-1.6,0.1-3.2,0.2-4.8,0.4l0.9-0.2
	c-0.6,0.1-1.2,0.2-1.8,0.3c-1.7,0.1-3.3,0.3-5,0.5l-2.5,0.6l1.3-0.1c-0.1,0.3-1.6,0.8-4,1.4c-2.8,0.5-5.6,1-8.4,1.5
	c-2.9,0.6-5.8,1.3-8.8,2c-3.2,0.6-6.6,1.5-9.9,2.3c-4,1-7.6,1.8-9.5,1.6c10.6-2.8,15.8-4,27.2-6.7c3.1-0.3,1.3,0.1-1.3,0.8
	c-2.6,0.6-6,1.5-6.1,1.7c2.2-0.5,4.4-0.9,6.6-1.3c-1.1-0.3,12.7-2.6,9-2.9c-3.7,0.6-7.4,1.2-10.9,1.9c-3.6,0.7-7.1,1.5-10.5,2.3
	c-6.8,1.6-13.3,3-19.5,3.9c3.6-2,6.7-4.1,9.9-6.4c0-0.1,0.1-0.2,0.6-0.4l-0.6,0.4c0.1,0.2,2.4-0.5,5.1-1.3c-0.5,0.3-1,0.7,2.3-0.1
	c6.7-1.2,10.1-3,15.3-4l-1.6,0.4c2.5-0.4,5.3-0.8,7.9-1.4c2.6-0.5,5.2-0.9,7-1.4c2.1,0.1-1.5,0.6-4.5,1.1c-3.1,0.5-5.7,1.1-1.8,0.7
	c-2.7,0.4-6,1-9,1.8c-3,0.8-5.8,1.6-7.7,2c3.3-0.7,6.6-1.2,8.7-1.3c2.2-0.1,3.3,0,2.4,0.4c7.2-1.6,7.1-2,6.8-2.3
	c-0.3-0.3-1-0.6,5.6-1.7c3-0.4,6.1-0.6,9.2-0.9c1-0.4,2-0.8,3.1-1.1c5.5-0.4-3.3,0.9,5.2,0.3c2.3-0.6,7.8-0.4,9.4-0.7
	c-0.2,0.2-0.3,0.4,4,0.3c0.3-0.1-0.1-0.4,3.3-0.5c2.3,0.8-8.7,0.2-4.7,1c9.6-0.1,6.2-0.8,7.7-1.1c-0.3,0-0.9,0-1.8,0
	c0.1-0.3,4.2,0,3.8-0.4c-1.6-0.1-3.3,0-4.7,0.1c2.9-0.3-4.8-0.6-7.8-0.4c-6.7,0.5-20.8,1.3-30.1,2.9c0.8-0.2,2.4-0.5,1.3-0.4
	c-1.7,0.2-3.2,0.5-4.6,0.7c-1.4,0.3-2.8,0.5-4.1,0.7c-2.6,0.5-5,0.9-7.4,1.4c-4.8,1-9.5,2.2-16.1,3.9l-1.3,0.9
	c-5.7,1.3-6.9,1.8-7,2.4c-0.1,0.5,0.8,0.8-0.6,1.1c-2.5,0.5-4.6,1.2-6.8,1.1c0.4-0.1,0.8-0.2,1.1-0.4c-3.5,0.5-4,0.6-4.5,0.8
	c-0.4,0.1-0.8,0.3-3.9,0.3c-2.5,0.1-1.4,0.2-0.1,0.2c1.3,0,2.9,0,1.3,0.2c-1.7,0-2.8,0-3.7,0.1c-0.9,0.1-1.5,0.2-2.3,0.2
	c-1.6,0.1-3.5,0.2-8.8-1.2c0.3,0,0.1-0.3,0.6-0.3c0.5-0.1,1.7,0.1,4.7,0.5c-1.9-0.4-3.8-1-5.8-1.6c3.7,0.7,4.3,0.7,5,0.8
	c0.7,0.1,1.4,0.3,4.8,0.6c1.6-0.2,2.3-0.5,2.8-0.7c0.6-0.2,1.1-0.4,2.6-0.7c-1.3,0.1-1.8,0.3-2.4,0.4c-0.7,0.1-1.5,0.3-3.4,0
	c-4.4-0.6,0.8-0.2,1.2-0.4c-3,0.1-4.6-0.3-6.1-0.8c-1.6-0.5-3-1-6.3-1.3c0.8,0.9-0.2,0.7,3.8,2.1c-2.1-0.3-4.6-1-6.5-1.6
	c-1.9-0.6-3.2-1.2-2.9-1.4L134,455c-1.1-0.4-5.2-0.9-5.4-1.1l-1.8,0.1c3.6,0.8,6.7,1.5,12.5,2.6c-2.5-0.1,2.8,1.6-4.8,0.1
	c-3.4-0.6-0.3-0.4-0.4-0.6c-2.2-0.4-4.3-0.6-6-0.9c-1.8-0.2-3.3-0.4-4.8-0.5c-1.4-0.1-2.7-0.2-3.8-0.3c-1.2-0.1-2.2-0.2-3.3-0.2
	c-4.1-0.2-7.9-0.4-14.9,0.5c3.5-0.7,12.3-1.1,19.4-1.1c-4.3-0.7-9.2,0.1-13.3,0.3c3.6-0.5,4.2-0.7-0.1-0.7c-0.6,0.1-1.1,0.3-1.7,0.5
	c-2.6,0.2-7,0.8-7.4,0.7c-0.1,0.1,1,0.1,3.3-0.1c-3.1,0.6-7.5,1.4-12.4,2.3c-4.8,1-10.2,2.1-15.4,3.1c2.9-0.6,6.2-1.9,9.2-2.7
	c-11.5,1.4-22.5,0.8-33.9,4.2c-6,1.8-11.9,4.2-18.2,5.1c-8.2,1.2-27.1,0-29,11.8c-0.7,4.1,2.1,7.9,4.7,11.2c2.8,3.5,5.6,7.1,9.4,9.6
	c4.7,3.1,10.4,4.4,15.1,7.5c3.8,2.5,6.7,6.2,10.1,9.1C46.5,520.2,51.7,519.9,58.3,519.8z M189,452.1l-4.4,1
	C186.3,452.7,187.9,452.3,189,452.1z M109.3,513.4c-1.1,0.2-2.7,0.5-4.1,0.7c-1.3,0.1-1.5,0-1.5,0
	C105.6,513.8,107.4,513.6,109.3,513.4z M33,493.8c-0.1-0.1-0.2-0.4-0.3-0.7C32.8,493.4,32.9,493.6,33,493.8z M168.5,508.8
	c-1.8,0.2-1.5,1-8.7,1.1c-0.1-0.1,0.5-0.2,1.2-0.2c-3.2,0.2-3.8,0.1-7.3,0.2c-1.2-0.5,4.3-0.7,6.6-1.2c-2.3,0.2-4.8,0.6-7.3,0.8
	l0.6-0.2c-2.5,0.2-5,0.5-7.5,0.8c-3,0.7,5.7-0.5,6.2-0.2l-4.8,0.8c-5.5,0.6-20.1,2.5-25.3,2.4c-6.5,0.6-3.5,0.8-5,1.4
	c-3.8,1-7.5,0.8-11.3,1.5c0.2,0.4-4.3,0.9-4.4,1.5l-6.3,0.6c-3.4,1.2,7.6-0.7,9.3-0.5c3.5,0.3-4.6,0.8-2.3,0.9
	c4.8-0.6,5.1-1.1,7.4-1.5c2.7-0.4,4.2-0.4,4.2-0.1c-7.8,0.7-4,1.1-10.4,1.7l-0.2-0.1c0,0.6-9.2,1.3-12.6,1.8c-7.1,0,5.5-1.3,5.3-1.5
	c-2.8,0.3-5.6,0.7-8.5,0.9c3.7-0.7-0.1-0.7,4.8-1.5c-5.1,0.7-5.8,0.2-10.8,0.9c5.6-1.1-7.1-0.2-7.7-0.8c5.4-0.3,15-0.4,15.6-0.3
	c0.8-0.2,7-0.7,9.5-0.8l3.8-1.2c-4.5,0.5-10.6,1.4-9,0.6c-2,0.3-4.1,0.6-6.1,0.9c6.2-1.5,5.9-1.5,11.5-2.5
	c-11.9,0.5-21,2.8-30.9,2.2l1.5-0.1c-4.9,0.1-8.9-0.1-12-0.8c-3.2-0.6-5.4-1.6-6.9-2.5c-0.1,0-0.1-0.1-0.1-0.1
	c0.3,0.1,0.6,0.3,0.9,0.4c5.4,2.3,12.2,2.6,18.7,2.5c10.3-0.2,20.6-1.1,30.8-2.2l-1.2,0.5c0.3,0,0.4-0.1,0.7-0.1
	c11.8-1.7,1.2,0.7,13.2-1.2c-0.5,0.1-0.7,0.2-0.9,0.3c4.9-0.9,14-1.8,14.9-2.5c-1.2,0.2-5.7,0.6-7.9,0.7c5.1-0.7,10.3-1.3,15.4-1.9
	c1.1,0,2.1-0.1,3.3-0.2l0,0h0c1.2-0.1,2.5-0.3,4.2-0.6c0.4-0.1,0.7-0.1,0.9-0.2c6.1-0.6,12.3-1.1,18.5-1.4
	C161.5,508.2,175.7,507.9,168.5,508.8z M187.8,508.5c-7.3-0.3-2.2-0.3-7.4-0.7c-0.3-0.1-0.1-0.2,0.3-0.3c5.5,0.1,10.9,0.4,16.4,0.8
	C192.4,508.2,187.5,507.9,187.8,508.5z M209.9,509.9c-2.5-0.3-9.6-0.7-10.1-1.2c3.4,0.2,4.4,0.3,4,0.2c3.6,0.3,7.1,0.6,10.7,1
	c0.1,0.1,0.4,0.2,0.9,0.3C213.8,510.1,211.3,510,209.9,509.9z M301.5,517.5c-6.3,0.1,0.3-0.4-2.9-0.6c-4.8,0.8-6.2-0.6-11.3,0.3
	c-6.1,0.1-4.2-0.4-6.1-0.7c6.1,0.1-2.8-0.6,4.8-0.7c-3.1-0.2-4.2,0-5.3,0.1c-1,0.1-1.9,0.3-4.5,0.1l-0.7-0.7
	c-2.4-0.2-6.1-0.4-10-0.7c-3.9-0.3-8.1-0.6-11.3-0.6c5.3,0.8-3.2,0.2-2.4,0.6c1-0.5,8.4,0.5,8.3,0.7c-3.8-0.1-12.8-0.8-16.3-1.2l7,1
	c-2.9,0.1-13.3-0.3-13.6-0.2c-3.1-0.6-7.9-1-9.4-1.5l6,0.1l2,0.6l3.5-0.2c-3.8-0.6-11.8-1.8-13.4-2.4c6,0.6,14.3,1.4,24.1,1.8
	c5.7,0.5,11.4,0.9,17,1.2c13.6,0.7,27.2,0.7,40.8,0.2c-0.1,0-0.2,0-0.3,0c-1.6,0.3-3.5,0.5-5.7,0.6c1.3-0.1,2.7-0.1,4.8,0
	c-3.7,0.5-7.3,1-11,1.4c2.8,0.1,4.4-0.2,6.1-0.4c1.7-0.3,3.6-0.5,7-0.6C308.3,516.5,308.8,516.8,301.5,517.5z M490.5,496.1
	c4.7,0,9.5,0,14.3,0l-0.1,0l4.7,0.4c-1.8,0.1-3.5,0.3-5.3,0.4L490.5,496.1z M165.3,462.6c1.5,0,2,0.1,2.4,0.2
	c-1.2,0.1-2.4,0.3-3.6,0.3L165.3,462.6z M121.8,457.7c0.3-0.3,2.3-0.4,4.5-0.3c2.3,0.1,4.7,0.3,5.9,0.2c1,0.1,3.6,0.5,5.6,1.1
	c2,0.5,3.5,1,2.5,1c-2.8-0.7-4.2-0.8-5.6-0.8c-1.4,0-2.6-0.2-5.3-1c-1,0.3,0.4,0.6,2.5,1c-0.7-0.1-1.2,0-1.3,0
	c-1.1-0.2-2.1-0.3-3.1-0.5c-1-0.1-2-0.2-3-0.3C122.9,457.9,121.3,457.9,121.8,457.7z M114.1,457.7l-1.8,0.1
	c-6.9,0.2-11.2,1-13.7,1.4c-2.4,0.4-2.9,0.7-2.3,0.8c-1.6,0.2-3.2,0.5-4.8,0.8c2.8-0.8,5.4-1.5,7-1.9
	C104.2,457.9,110.5,457.5,114.1,457.7z M78.6,462.4c-0.3,0.2,0,0.2,0.8,0.1c-1.8,0.4-3.5,0.9-5.3,1.3
	C74.7,463.4,73.4,463.4,78.6,462.4z M29.2,487.7c0-1,0.4-1.9,0.7-2.8c0.6-1.3,1.3-2.3,1.5-2.4c-0.2-0.5,0.8-2.5,2.8-4.5
	c2.1-2.3,5.4-4.3,7.1-5.4c4.6-2.4,6.5-2.7,8-3.1c1.6-0.3,3-0.7,7.4-2.3c-1.2,0.2-2.3,0.4-3.5,0.6c3.9-1.4,6.7-2.2,9.7-3
	c3-0.8,6.1-1.5,10.6-2.4c1.3,0.3-4.1,0.8-6,1.6l4.4-0.4c-1.9,0.5-5.5,1.8-5.6,1.3c0,0.3-2.8,1.4,2.7-0.2l-4,1.4c0.3,0,0.6,0,1-0.1
	c-1.2,0.3-2.5,0.7-3.7,1c-1.7,0.3-4.5,1.1-7.1,1.5c-0.3-0.1,2.3-1,3.7-1.5c-3.9,0.9-7.1,2.1-9.1,3c2.9-1,3.6-1.1,3.8-1.1
	c0.2,0.1-0.1,0.4,0.6,0.4c-1.7,0.7-4,1.5-6,2.4c-2,0.9-3.8,1.7-4.7,2.3c-1.1,0.5-2.2,1.1-3.1,1.5c-0.9,0.4-1.7,0.9-2.2,1.2
	c-1.1,0.6-1.6,0.5-0.5-0.6c-2.2,1.9-4.8,4.1-5.5,6.7c0.5-1.2,0.9-1.7,1.2-2c0.3-0.3,0.6-0.2,0.8-0.3c0.2,0,0.5-0.1,0.9-0.5
	c0.2-0.2,0.4-0.5,0.8-0.9c0.4-0.4,0.8-0.9,1.4-1.5c0.5-0.2,0.6-0.1,0.5,0.1c-2.1,1.7-3.7,3.6-4.8,5.7c-0.4,0.6-0.7,1.1-0.9,1.6
	c0.5-1.6-0.4-0.3-0.5-0.8c-0.2,0.6-0.3,1.1-0.3,1.5c0,0.4,0,0.7,0,0.9c0,0.4,0.2,0.5,0.3,0.3c0.2-0.1,0.3-0.4,0.5-0.8
	c-0.1,0.4-0.2,0.7-0.3,1.1c-0.3,2,0,4,0.7,5.9c0.1,1,0.4,1.9,0.7,2.8c-0.8-1.4-1.5-2.8-1.9-4.3c-0.1,1,0.3,2.2,0.9,3.4
	c0.6,1.2,1.5,2.4,2.2,3.5c0.6,1.2-0.5,0-1.9-2c-1.4-2-2.6-4.8-3.3-6.3C29.2,489.6,29.1,488.7,29.2,487.7z"/>
<g>
	<path class="st2" d="M601.5,397.2c0.5-5,0.8-10.1,0.6-15.1c-0.1-4.7,1.6-9,2.5-13.5c0.7-3.4,0.9-6.9,0.9-10.4
		c0-5.3-0.6-10.9,2-15.5c2.6-4.8,8.9-7.4,14-5.5c5.1,1.9,8,7.5,9,12.9c2,10.1-0.9,21.1-7.6,29c-1.6,1.8-3.3,3.6-4,5.9
		c-0.6,2-0.3,4-0.3,6.1c-0.1,8-5.4,15.2-5.9,23.2c-0.5,6.4,2,13.3-1.1,18.9c-1,1.8-2.6,3.3-4.7,3.7c-2,0.4-4.4-0.7-4.9-2.7
		c-0.5-1.8,0.5-3.6,0.9-5.4c1-4.5-1.3-9-2.1-13.5c-1-5.5,0.1-11.2,0.7-16.7C601.4,398.1,601.4,397.6,601.5,397.2z"/>
	<path class="st3" d="M575.5,365.8c0.9-2.7,2.6-5.1,5-6.6c3.6-2.2,7.8-1.5,10.8,1.2c3.3,3,3.2,7.2,3.9,11.3c1,6,4.3,11.4,4.6,17.6
		c0.2,4.3-1,8.5-0.7,12.7c0.3,5.2,2.9,9.9,4.5,14.8c1.1,3.3,1.8,6.7,2,10.2c0.1,1.9,0,4.1-1.5,5.3c-1.9,1.4-4.7,0.2-6-1.8
		c-1.3-2-1.6-4.4-2.2-6.7c-2.3-7.8-9.5-13.2-12.5-20.7c-1.5-3.6-1.9-7.6-3-11.4c-1-3.8-2.6-7.4-3.8-11.1c-1.2-3.7-2.1-7.7-1.7-11.6
		C574.9,368,575.1,366.9,575.5,365.8z"/>
	<path class="st4" d="M602.5,431.9c0.2,0.8,0.5,1.6,0.9,2.3c0.2,0.4,0.5,0.7,0.8,1c0.5,0.5,1.1,0.8,1.7,1c1,0.3,1.9,0.2,2.9-0.1
		c0.1,0,0.2-0.1,0.3-0.1c1.1-0.4,2.1-1.2,2.8-2c1.3-1.4,2.1-3.1,3.1-4.7c0.2-0.3,0.4-0.7,0.6-1c3.9-5.8,10.9-9.1,17.9-10
		c3.8-0.5,7.7-0.4,11.4-1.3c3.7-0.9,7.4-3.2,8.7-6.8c1.3-3.7-0.5-7.7-3.3-10.2c-3.4-3.1-7.4-2.3-11.6-1.3
		c-8.8,2.1-16.4,7.4-23.3,13.1c-1,0.8-2,1.7-3,2.6c-2.8,2.4-5.3,5.1-7.3,8.2c-0.8,1.2-1.5,2.5-2,3.9c-0.1,0.3-0.3,0.7-0.4,1.1v0
		c-0.2,0.6-0.4,1.3-0.4,1.9c0,0.1,0,0.3,0,0.4c0,0.1,0,0.2,0,0.3c0,0,0,0,0,0C602.3,430.5,602.4,431.2,602.5,431.9z"/>
	<path class="st5" d="M583.3,432.8v32.2c0,8.5,6.9,15.4,15.4,15.4H615c8.5,0,15.4-6.9,15.4-15.4v-32.2c0-2.3-1.8-4.1-4.1-4.1h-38.9
		C585.1,428.8,583.3,430.6,583.3,432.8z"/>
	<g>
		<path class="st6" d="M601.3,424C601.3,424,601.3,424,601.3,424c0.3,0,0.4-0.2,0.4-0.4c0-0.2-0.3-4.1-2-8.7c-0.6-1.6-1.6-3.2-2.6-5
			c-1.8-3.1-3.9-6.5-4.3-10.7c-0.1-0.8-0.1-1.5-0.2-2.2c-0.5-5.5-0.9-10.3-4.2-16.9c-3.7-7.2-3.4-12.9-3.4-12.9
			c0-0.2-0.2-0.4-0.3-0.4c-0.2,0-0.4,0.1-0.4,0.3c0,0.2-0.3,5.9,3.5,13.3c3.3,6.4,3.7,11.1,4.1,16.6c0.1,0.7,0.1,1.5,0.2,2.2
			c0.4,4.4,2.5,7.9,4.4,11.1c1,1.7,1.9,3.3,2.5,4.8c1.7,4.5,2,8.4,2,8.5C600.9,423.8,601.1,423.9,601.3,424z"/>
	</g>
	<g>
		<path class="st6" d="M605,416.6c0.2,0,0.3-0.1,0.4-0.3c0,0,0.4-3.6,0.7-7c0.2-1.6,0.8-4.2,1.5-6.9c0.7-2.8,1.4-5.7,1.7-7.8
			c0.2-1.5,0.2-2.8,0.3-4.5c0.1-2.9,0.3-6.2,1.2-11.2c0.8-4.7,1.9-6.5,3.3-9.1c0.9-1.6,2-3.5,3.3-6.6c3.3-7.9,0.9-19.5,0.8-20
			c0-0.2-0.2-0.3-0.4-0.3c-0.2,0-0.3,0.2-0.3,0.4c0,0.1,2.5,11.9-0.7,19.6c-1.3,3-2.3,4.9-3.3,6.5c-1.5,2.6-2.6,4.5-3.4,9.3
			c-0.9,5-1,8.5-1.2,11.3c-0.1,1.6-0.1,3-0.3,4.4c-0.2,2-1,4.9-1.7,7.7c-0.7,2.7-1.3,5.3-1.5,7c-0.4,3.4-0.7,7-0.7,7
			C604.6,416.3,604.7,416.5,605,416.6C604.9,416.6,604.9,416.6,605,416.6z"/>
	</g>
	<g>
		<path class="st3" d="M612.2,422c0.1,0,0.2-0.1,0.3-0.2c0-0.1,5.2-7.1,15.6-11.8c10.4-4.7,19-4.4,19.1-4.4c0.2,0,0.4-0.2,0.4-0.4
			c0-0.2-0.2-0.4-0.4-0.4c-0.1,0-8.9-0.3-19.4,4.5c-10.5,4.8-15.8,11.9-15.9,12c-0.1,0.2-0.1,0.4,0.1,0.5
			C612,421.9,612.1,422,612.2,422z"/>
	</g>
</g>
<g>
	<g>
		<g>
			<path class="st7" d="M553.6,340.6h-0.5c-12.4,0-22.4,10-22.4,22.4v122.5H552c13.2,0,24-10.7,24-24v-98.5
				C576,350.6,566,340.6,553.6,340.6z"/>
			<path class="st7" d="M121.5,340.6h0.5c12.4,0,22.4,10,22.4,22.4v122.5h-21.3c-13.2,0-24-10.7-24-24v-98.5
				C99.2,350.6,109.2,340.6,121.5,340.6z"/>
			<path class="st7" d="M534.3,373.6v15.1H140.9v-15.1c0-6.6,0.6-13.1,1.7-19.4c0-0.1,0-0.3,0.1-0.4c9.3-50.5-1.8-93.6,106.8-88.8
				h176.3c96.3,1.2,106.8,9.6,106.9,73.9v0.6c0,4.2-0.8,10.3,0,14.5C533.7,360.4,534.3,366.9,534.3,373.6z"/>
			<rect x="144.4" y="376.6" class="st7" width="386.3" height="108.8"/>
			<g>
				<path class="st8" d="M523.4,373.5c6.4,4,4.5,26.5,0.4,28c-4.1,1.4-91,3.1-91,3.1s-49,2.4-72.9,2.3c-32-0.1-91.5,0-122,0
					c-19.4,0-42.2-2.2-62.9-2.2c-16.7,0-20-1.6-24.5-1.9c-4.4-0.4-5.8-8.6-2.4-23.8c1.5-6.9,14.6-12.5,53.4-12.6
					c62.9-0.1,79.8,4.1,165.2,0.8c20.3-0.8,49.6,0.9,71.4,1.4C458.6,368.9,512.9,366.9,523.4,373.5z"/>
				<g>
					<path class="st8" d="M137.7,386.2c-0.4,0-0.7-0.3-0.7-0.7v-10.6c0-11.4-1.6-24.8-14-26.9c-7.6-1.3-15,5.4-15,5.5
						c-0.3,0.3-0.8,0.2-1,0c-0.3-0.3-0.2-0.8,0-1c0.3-0.3,8-7.3,16.2-5.8c13.4,2.3,15.2,16.4,15.2,28.3v10.6
						C138.4,385.8,138.1,386.2,137.7,386.2z"/>
				</g>
				<g>
					<path class="st8" d="M536,404.9c-0.4,0-0.7-0.3-0.7-0.7c0-0.1-0.5-8.6-0.7-19.3c0-0.6,0-1.2,0-1.9c-0.2-8.8-0.5-23.5,7-31.1
						c3.2-3.2,7.4-4.8,12.7-4.7c12.3,0.2,15.6,12,16.3,15.6c1.3,6.3,0.6,32.8,0.6,33.9c0,0.4-0.3,0.7-0.7,0.7c0,0,0,0,0,0
						c-0.4,0-0.7-0.3-0.7-0.7c0-0.3,0.7-27.5-0.5-33.6c-0.9-4.3-4-14.3-14.9-14.4c-0.1,0-0.2,0-0.3,0c-4.7,0-8.5,1.4-11.3,4.3
						c-7.1,7.2-6.8,21.5-6.6,30.1c0,0.7,0,1.3,0,1.9c0.2,10.6,0.7,19.1,0.7,19.2C536.7,404.5,536.4,404.8,536,404.9
						C536,404.9,536,404.9,536,404.9z"/>
				</g>
				<g>
					<path class="st8" d="M520.5,430.9L520.5,430.9c-0.9,0-88.4-1.3-94.4-1.2l-2.2,0c-58.9,0.8-101.7,1.2-120.4,1.1
						c-30.8-0.2-151-2.3-152.2-2.4c-0.4,0-0.7-0.3-0.7-0.7c0-0.4,0.3-0.7,0.7-0.7c1.2,0,121.5,2.2,152.2,2.4
						c18.7,0.1,61.5-0.3,120.4-1.1l2.2,0c6.1-0.1,93.5,1.2,94.4,1.2c0.4,0,0.7,0.3,0.7,0.7C521.2,430.6,520.8,430.9,520.5,430.9z"/>
				</g>
				<g>
					<path class="st8" d="M144.5,382.9C144.5,382.9,144.5,382.9,144.5,382.9c-0.4,0-0.7-0.4-0.7-0.8c0,0,0.4-4.8,0-11.9
						c-0.4-7.1-1.6-11.3-1.7-11.3c-0.1-0.4,0.1-0.8,0.5-0.9s0.8,0.1,0.9,0.5c0.1,0.2,1.4,4.4,1.7,11.7c0.4,7.2,0,12.1,0,12.1
						C145.2,382.6,144.9,382.9,144.5,382.9z"/>
				</g>
				<g>
					<path class="st8" d="M528.8,378.5c-0.4,0-0.7-0.3-0.7-0.7c0-0.1-0.2-2.9,0-8.3s0.9-12,0.9-12.1c0-0.4,0.4-0.7,0.8-0.6
						c0.4,0,0.7,0.4,0.6,0.8c0,0.1-0.8,6.6-0.9,11.9c-0.2,5.4,0,8.1,0,8.2C529.5,378.1,529.2,378.5,528.8,378.5
						C528.8,378.5,528.8,378.5,528.8,378.5z"/>
				</g>
			</g>
			<g>
				<path class="st8" d="M144.4,476.9c-0.4,0-0.7-0.3-0.7-0.7v-69.6c0-0.4,0.3-0.7,0.7-0.7s0.7,0.3,0.7,0.7v69.6
					C145.1,476.5,144.8,476.9,144.4,476.9z"/>
			</g>
			<g>
				<path class="st8" d="M530.7,476.9c-0.4,0-0.7-0.3-0.7-0.7v-82.7c0-0.4,0.3-0.7,0.7-0.7c0.4,0,0.7,0.3,0.7,0.7v82.7
					C531.5,476.5,531.1,476.9,530.7,476.9z"/>
			</g>
			<g>
				<g>
					<path class="st8" d="M571.9,451.6c-0.4,0-0.7-0.3-0.7-0.7V410c0-0.4,0.3-0.7,0.7-0.7c0.4,0,0.7,0.3,0.7,0.7v40.8
						C572.6,451.2,572.3,451.6,571.9,451.6z"/>
				</g>
				<g>
					<path class="st8" d="M104.7,460.6c-0.4,0-0.7-0.3-0.7-0.7v-76.8c0-0.4,0.3-0.7,0.7-0.7s0.7,0.3,0.7,0.7v76.8
						C105.4,460.3,105.1,460.6,104.7,460.6z"/>
				</g>
			</g>
		</g>
	</g>
</g>
<g>
	<path class="st2" d="M69,375.5c-0.7-6.3-0.9-12.7-0.8-19c0.2-5.9-2-11.3-3.1-17c-0.8-4.3-1.1-8.7-1.1-13.1c0-6.6,0.7-13.7-2.5-19.5
		c-3.3-6-11.2-9.4-17.6-6.9c-6.5,2.4-10,9.5-11.3,16.3c-2.5,12.8,1.2,26.6,9.5,36.5c2,2.3,4.2,4.5,5.1,7.5c0.7,2.5,0.4,5.1,0.4,7.7
		c0.2,10.1,6.8,19.1,7.5,29.2c0.6,8-2.5,16.8,1.4,23.8c1.3,2.3,3.3,4.2,5.9,4.7c2.6,0.5,5.5-0.9,6.2-3.4c0.6-2.2-0.6-4.6-1.1-6.9
		c-1.3-5.6,1.6-11.3,2.7-17c1.3-6.9-0.1-14.1-0.9-21.1C69.2,376.6,69.1,376,69,375.5z"/>
	<path class="st3" d="M101.8,336c-1.2-3.4-3.2-6.4-6.3-8.3c-4.5-2.7-9.9-1.9-13.7,1.5c-4.2,3.8-4.1,9-4.9,14.3
		c-1.2,7.6-5.4,14.4-5.8,22.1c-0.3,5.4,1.2,10.7,0.9,16.1c-0.4,6.5-3.6,12.5-5.6,18.6c-1.4,4.2-2.2,8.5-2.6,12.9
		c-0.2,2.4,0,5.2,1.9,6.6c2.4,1.8,6,0.2,7.6-2.3c1.6-2.5,2-5.6,2.8-8.4c2.9-9.8,11.9-16.6,15.8-26.1c1.9-4.6,2.4-9.6,3.7-14.4
		c1.3-4.8,3.3-9.3,4.8-14c1.6-4.7,2.7-9.6,2.2-14.6C102.5,338.7,102.2,337.3,101.8,336z"/>
	<path class="st4" d="M67.9,416.6C67.9,416.6,67.9,416.6,67.9,416.6c0-0.1,0-0.2,0-0.3c0-0.1,0-0.3-0.1-0.5
		c-0.1-0.8-0.3-1.6-0.6-2.4v0c-0.1-0.5-0.3-0.9-0.5-1.3c-0.7-1.7-1.5-3.4-2.5-4.9c-2.4-3.9-5.7-7.2-9.1-10.3
		c-1.3-1.1-2.5-2.2-3.8-3.2c-8.7-7.1-18.3-13.8-29.4-16.5c-5.3-1.3-10.3-2.2-14.7,1.7c-3.5,3.1-5.7,8.2-4.1,12.8
		c1.6,4.6,6.3,7.4,11,8.6s9.6,1,14.4,1.7c8.8,1.2,17.6,5.3,22.5,12.6c0.3,0.4,0.5,0.8,0.8,1.2c1.2,2,2.3,4.1,3.9,5.9
		c1,1.1,2.2,2,3.6,2.6c0.1,0,0.3,0.1,0.4,0.1c1.2,0.4,2.4,0.5,3.6,0.1c0.8-0.2,1.6-0.7,2.2-1.2c0.4-0.4,0.8-0.8,1.1-1.2
		c0.6-0.9,1-1.9,1.2-2.9C67.9,418.3,67.9,417.4,67.9,416.6z"/>
	<path class="st5" d="M92,420.4v40.6c0,10.7-8.7,19.4-19.4,19.4H52c-10.7,0-19.4-8.7-19.4-19.4v-40.6c0-2.8,2.3-5.1,5.2-5.1h49.1
		C89.7,415.3,92,417.6,92,420.4z"/>
	<g>
		<path class="st6" d="M69.3,409.2C69.3,409.2,69.3,409.2,69.3,409.2c-0.3,0-0.5-0.2-0.5-0.5c0-0.2,0.3-5.1,2.6-10.9
			c0.8-2.1,2-4.1,3.3-6.2c2.3-3.9,4.9-8.2,5.4-13.5c0.1-1,0.2-1.9,0.2-2.8c0.6-7,1.1-13,5.3-21.3c4.6-9,4.3-16.2,4.3-16.3
			c0-0.3,0.2-0.5,0.4-0.5c0.3,0,0.5,0.2,0.5,0.4c0,0.3,0.3,7.5-4.4,16.8c-4.1,8.1-4.6,14-5.2,20.9c-0.1,0.9-0.2,1.9-0.2,2.8
			c-0.5,5.5-3.2,10-5.5,13.9c-1.3,2.1-2.4,4.1-3.2,6.1c-2.2,5.7-2.5,10.6-2.5,10.7C69.7,409,69.5,409.2,69.3,409.2z"/>
	</g>
	<g>
		<path class="st6" d="M64.7,399.9c-0.2,0-0.4-0.2-0.5-0.4c0,0-0.5-4.5-0.9-8.8c-0.2-2.1-1-5.3-1.9-8.6c-0.9-3.5-1.8-7.1-2.1-9.8
			c-0.2-1.8-0.3-3.6-0.4-5.6c-0.2-3.6-0.4-7.8-1.5-14.1c-1-6-2.3-8.2-4.2-11.4c-1.2-2.1-2.5-4.4-4.2-8.3c-4.2-10-1.1-24.6-1-25.2
			c0-0.2,0.3-0.4,0.5-0.4c0.2,0,0.4,0.3,0.4,0.5c0,0.1-3.2,15,0.9,24.7c1.6,3.8,2.9,6.1,4.1,8.2c1.9,3.3,3.2,5.6,4.3,11.7
			c1.1,6.4,1.3,10.7,1.5,14.2c0.1,2,0.2,3.7,0.4,5.5c0.3,2.6,1.2,6.2,2.1,9.7c0.9,3.4,1.7,6.6,1.9,8.8c0.5,4.3,0.9,8.8,0.9,8.8
			C65.2,399.6,65,399.9,64.7,399.9C64.7,399.9,64.7,399.9,64.7,399.9z"/>
	</g>
	<g>
		<path class="st3" d="M55.5,406.7c-0.1,0-0.3-0.1-0.4-0.2c-0.1-0.1-6.6-8.9-19.6-14.9c-13.1-5.9-23.9-5.6-24-5.6
			c-0.3,0-0.5-0.2-0.5-0.5c0-0.3,0.2-0.5,0.4-0.5c0.1,0,11.2-0.3,24.4,5.7c13.3,6,19.9,15.1,20,15.1c0.2,0.2,0.1,0.5-0.1,0.6
			C55.7,406.7,55.6,406.7,55.5,406.7z"/>
	</g>
</g>
<path class="st9" d="M322.1,204.1c-2.6-1.5-4.2-4.4-4.6-7.3c-0.1-0.8-0.1-1.6-0.3-2.3c-0.2-0.8-0.5-1.5-1.2-2
	c-0.1-0.1-0.3-0.2-0.5-0.2c-0.3,0-0.5,0.2-0.7,0.5c-0.3,0.4-0.5,0.9-0.6,1.3c-0.2-0.5-0.4-1-0.6-1.5c-0.1-0.1-0.2-0.3-0.3-0.4
	c-0.1-0.1-0.3-0.1-0.5,0c-1,0.2-1.6,1.3-1.9,2.3c-0.1-0.3-0.2-0.5-0.4-0.7c-0.2-0.2-0.5-0.3-0.8-0.2c-0.2,0.1-0.3,0.3-0.5,0.4
	c-1.1,1.6-1.4,3.8-0.9,5.7c-0.1-0.3-0.3-0.6-0.5-0.8c-0.2-0.2-0.6-0.4-0.9-0.3c-0.5,0.1-0.7,0.8-0.8,1.3c-0.4,2.9-0.3,5.8,0.3,8.7
	c0.9,4.5,5.3,6.7,8.7,9.2c1.4,1,3.1,1.5,4.7,2.1c2,0.8,4.2,1.7,6.4,1.7c2,0,4.5-1,6.4-1.7c3.4-1.3,9.9-5.3,5.9-9.3
	c-1.8-1.8-4.1-2.9-6.5-3.7s-4.9-1.2-7.4-1.9c-0.8-0.2-1.6-0.4-2.4-0.8C322.4,204.3,322.2,204.2,322.1,204.1z"/>
<path class="st10" d="M329.6,208c-1,1.3-1,3.1-1,4.7c0,0.5,0,0.9,0,1.4c-1.6-0.6-3.3-0.3-5,0c-1.5,0.3-2.9,0.7-4.3,1.1
	c-0.2,0.1-0.4,0.1-0.7,0.1c-0.2,0-0.4-0.1-0.6-0.3c-1-0.6-1.9-1.4-2.8-2.3c-0.2-0.2-0.4-0.4-0.6-0.6c-0.3-0.2-0.7-0.4-1-0.6
	c-1.3-0.8-2.2-2.1-2.8-3.4c-0.6-1.4-0.9-2.9-1.1-4.3"/>
<g>
	<g>
		<path class="st11" d="M334.5,208.6c0-0.6-1.3-1.2-1.7-1.4c-1-0.5-2-0.7-3.1-0.7c-0.2,0-0.2,0.3,0,0.3c0.9,0,1.7,0.2,2.6,0.5
			c0.5,0.2,2,0.8,2,1.4C334.2,208.8,334.5,208.8,334.5,208.6L334.5,208.6z"/>
	</g>
</g>
<g>
	<g>
		<path class="st11" d="M332.1,213.7c-2.3-3.4-6.5-4.5-10.3-3c-0.2,0.1-0.1,0.3,0.1,0.3c3.7-1.5,7.7-0.5,10,2.8
			C331.9,214,332.2,213.9,332.1,213.7L332.1,213.7z"/>
	</g>
</g>
<g>
	<g>
		<path class="st11" d="M321.9,210.8c-1.3,0.2-3.1-0.8-4.2-1.3c-0.2-0.1-0.3,0.2-0.1,0.2c1.3,0.6,3,1.6,4.4,1.4
			C322.1,211.1,322,210.8,321.9,210.8L321.9,210.8z"/>
	</g>
</g>
<g>
	<g>
		<path class="st11" d="M313,209.1c0,0,0.1,0.1,0.1,0.1c0.1,0.1,0.3-0.1,0.2-0.2c-2.5-2.5-4.1-5.7-4.5-9.2c0-0.2-0.3-0.2-0.3,0
			c0.2,1.7,0.6,3.3,1.3,4.9c0.4,0.9,0.9,1.7,1.5,2.5c0.2,0.2,0.4,0.5,0.6,0.7c0.1,0.2,0.3,0.3,0.4,0.5c0.2,0.4,0.5,0.5,0.9,0.5
			C313.1,208.8,312.9,209,313,209.1L313,209.1z"/>
	</g>
</g>
<g>
	<g>
		<path class="st11" d="M314.8,204c-2.4-2.5-3.4-5.7-3.6-9.1c0-0.2-0.3-0.2-0.3,0c0.3,3.5,1.3,6.7,3.7,9.3
			C314.7,204.3,314.9,204.1,314.8,204L314.8,204z"/>
	</g>
</g>
<g>
	<g>
		<path class="st11" d="M317.7,202.6c-0.6-0.7-1.4-1.4-1.7-2.2c-0.3-0.6-0.3-1.3-0.4-1.9c-0.4-1.5-1-2.8-1-4.5c0-0.2-0.3-0.2-0.3,0
			c0,1.9,0.7,3.9,1.2,5.8c0.3,1.2,1.2,2.1,2,3C317.6,202.9,317.8,202.7,317.7,202.6L317.7,202.6z"/>
	</g>
</g>
<g>
	<g>
		<path class="st11" d="M316.1,205.2c-0.5-0.4-1-0.8-1.5-1.3c-0.1-0.1-0.3,0.1-0.2,0.2c0.5,0.5,1,1,1.5,1.4
			C316.1,205.5,316.2,205.3,316.1,205.2L316.1,205.2z"/>
	</g>
</g>
<g>
	<g>
		<path class="st11" d="M319.4,203.7c-0.6-0.4-1.1-0.8-1.6-1.2c-0.1-0.1-0.3,0.1-0.2,0.2c0.5,0.4,1.1,0.8,1.6,1.2
			C319.4,204.1,319.5,203.8,319.4,203.7L319.4,203.7z"/>
	</g>
</g>
<g>
	<g>
		<path class="st11" d="M319.8,203.5c-0.5,0.3-1,0.6-1.4,0.9c-0.1,0.1,0.1,0.3,0.2,0.2c0.4-0.3,0.9-0.6,1.4-0.9
			C320,203.7,319.9,203.5,319.8,203.5L319.8,203.5z"/>
	</g>
</g>
<g>
	<g>
		<path class="st11" d="M316.9,204.8c-0.5,0.4-1,0.8-1.4,1.4c-0.1,0.1,0.1,0.3,0.2,0.1c0.4-0.5,0.8-0.9,1.3-1.3
			C317.2,205,317,204.7,316.9,204.8L316.9,204.8z"/>
	</g>
</g>
<g>
	<g>
		<path class="st11" d="M313.6,208.3c-0.6,0.5-1,1-1.4,1.6c-0.1,0.1,0.1,0.3,0.2,0.1c0.3-0.6,0.8-1.1,1.3-1.6
			C313.9,208.4,313.7,208.2,313.6,208.3L313.6,208.3z"/>
	</g>
</g>
<g>
	<g>
		<g>
			<g>
				<path class="st9" d="M404.7,165.6c0,0-25.1,8.5-25.8,10.8c-0.8,2.3,3.5,20.7,8.7,68.2c0.5,4.4-0.5,36.7,0.2,39.3
					c6.1,22.9,45.5,19.1,58.7,7.5c2.5-2.2,2.4-24.3,3.2-28.7c0.7-4.4-0.3-28.2,1.2-38.4c1.8-12.5,5.8-50.4,5.8-50.4l-26.1-8.3
					C430.5,165.6,423.4,165,404.7,165.6z"/>
			</g>
		</g>
	</g>
	<g>
		<g>
			<g>
				<g>
					<path class="st9" d="M464.6,181c7.2,1.9,7.3,13.8,7.8,19.6c1,11.2,1.5,22.1,0.9,33.4c-0.2,4.9-0.6,9.8-1,14.8
						c-0.4,4.4-0.3,10.4-2.9,14.3c-4.9,7.2-10.3-8.2-11.5-11.2c-2.4-6.2-4.4-13.1-5.1-19.7c-0.4-3.6-1.3-7.1-1.4-10.8
						c-0.1-3.4,0.2-6.5-0.2-9.9c0,0,0,0,0-0.1C450.8,207.8,438.9,174.1,464.6,181z"/>
				</g>
			</g>
		</g>
	</g>
	<g>
		<g>
			<g>
				<g>
					<path class="st9" d="M377.5,180.2c-8.1,2.2-7.2,18.3-9.2,35.1s-2.1,23.4-1.7,26.5c0.4,3.1,5,18.3,14.6,10.2
						c1.7-1.4,9.1-38.2,9.6-41.7C391.3,206.9,403.2,173.4,377.5,180.2z"/>
				</g>
			</g>
		</g>
	</g>
	<g>
		<g>
			<g>
				<path class="st12" d="M385.9,308.3c-1.4,4,3.1,75.8,2.9,82s0.5,13,5.5,15.4c4.9,2.4,14.3-0.8,16.5-9.3
					c2.2-8.4,7.6-71.9,7.7-75.2C419,309,388.6,300.3,385.9,308.3z"/>
			</g>
		</g>
	</g>
	<g>
		<g>
			<g>
				<path class="st9" d="M388.6,392.2c0,0,1.3,17.1,2.5,25.9c0.7,5.4,2.2,58.3,2.2,58.3s4.1,10,13,1.3c0,0,6.7-40.2,7.2-45
					c0.9-8.1-2.6-33.7-2.8-36.3C410.6,393.9,395.8,379.3,388.6,392.2z"/>
			</g>
		</g>
	</g>
	<g>
		<g>
			<g>
				<path class="st12" d="M419.1,321.2c0.4,4.2,14.4,69.4,15.4,75.6c1,6.2,6.2,9.5,11.7,9.3c8.3-0.3,11-4.8,11-11.8
					c0-8.7-6.8-84.2-7-87.5C448.9,293,417.4,302.8,419.1,321.2z"/>
			</g>
		</g>
	</g>
	<g>
		<g>
			<g>
				<path class="st9" d="M435.4,392.8c-3.6,8,5.7,9.2,7.1,31.1c0.3,5.5,12.3,46.1,14.7,53.6c0.8,2.5,7.2,4.6,10.3-2.6
					c0,0-1-36.7-1-41.5c0.1-11.9-8.6-40.4-9.4-42.9C454.9,383,439.5,383.7,435.4,392.8z"/>
			</g>
		</g>
	</g>
	<g>
		<g>
			<g>
				<path class="st12" d="M393.3,476.4c0,0-17.1,9.5-21.6,11.1c-4.5,1.7-14.7,3.4-15.3,4.7c-0.6,1.2,0.8,4.7,7.6,5.8
					c6.9,1.1,24.6-1.9,27.2-2.2c2.6-0.3,17.8-0.2,17.7-1.3c-0.1-1.2-2.2-16.8-3-18.1C405.1,475.1,397.7,473.1,393.3,476.4z"/>
			</g>
		</g>
	</g>
	<g>
		<g>
			<g>
				<path class="st12" d="M457.2,476.8c0,0,1.2,13.3,1,17c-0.2,3.7-2.7,10.1,5,12.8c5.9,2.1,12.3,0.3,15.1-1.6
					c2.8-1.9,0.3-4.5-0.2-5.4c-4.9-7.7-9.6-20.3-10.6-24.8C466.6,470.4,457.2,469.5,457.2,476.8z"/>
			</g>
		</g>
	</g>
	<g>
		<g>
			<g>
				<path class="st13" d="M387,283.5c0,0,47.4,0.8,60-1.4l3.1,24.7c0,0-27.6,3.8-31,14.4h-1.7c0,0-23.6-14.9-31.9-13.9
					C385.6,307.3,384.3,293.4,387,283.5z"/>
			</g>
		</g>
	</g>
	<g>
		<g>
			<g>
				<g>
					<path class="st14" d="M386,273.9c0,0-4,24.1-4.9,30.4c-0.9,6.3,0.4,14.9,0.6,16.9c0.3,2,8.7,5.4,27.5,6.6
						c18.8,1.2,44.7-2.9,46.1-4.6c1.4-1.7,0.2-20.8-0.4-26.1c-0.6-5.3-4.6-25-4.6-25S397.3,277.8,386,273.9z"/>
				</g>
			</g>
		</g>
		<g>
			<g>
				<g>
					<path class="st14" d="M419.2,326.9c0.1-2.6-0.5-5.2-2.5-8c-4-5.7-11.1-9.7-17.7-11.6c-13-3.8-18.2,5.3-18.5,16.9
						c-0.5,13.7,4.6,27.4,2.1,41.1c-0.6,3.4-1.7,6.8-1.6,10.3c0.2,4.3,2.2,8.4,2.2,12.7c0,4-1.6,8.5,0.8,11.7c0.8,1.1,2,1.8,3.1,2.4
						c7.9,4.4,17.1,6.5,26.1,5.9c0.7-0.1,1.5-0.1,2-0.6c0.5-0.5,0.6-1.3,0.6-2.1c0.6-10.3-0.6-20.5,1-30.5
						c1.8-11.8,0.5-24.6,0.9-36.5C417.9,334.3,419.1,330.6,419.2,326.9z"/>
				</g>
			</g>
		</g>
		<g>
			<g>
				<g>
					<g>
						<path class="st15" d="M452.1,285c0,0-13.3-2.2-14.6-2.8c-1.3-0.6-2.5-4.4-2.5-4.4l-4.7,0.6c0,0,2.1,8,5.7,8.6
							c1.7,0.3,16.5,2.6,16.5,2.6L452.1,285z"/>
					</g>
				</g>
			</g>
			<g>
				<g>
					<g>
						<path class="st15" d="M397.6,283c-1.1,0.5-12.9,2-12.9,2l-0.5,4.6c0,0,13-1.5,14.5-1.7c3.1-0.5,5.4-8.3,5.4-8.3l-4.1-0.8
							C400,278.7,398.8,282.5,397.6,283z"/>
					</g>
				</g>
			</g>
		</g>
		<g>
			<g>
				<g>
					<path class="st16" d="M416.6,277.7c0-1.1-0.8-1.9-1.9-2c-1.1,0-1.9,0.8-2,1.9c0,1.1,0.8,1.9,1.9,2
						C415.7,279.6,416.6,278.8,416.6,277.7z"/>
				</g>
			</g>
		</g>
		<g>
			<g>
				<g>
					<path class="st14" d="M461.1,372.6c-1.9-19-2.8-37.9-4.9-56.9c-6.3-20.4-38.7-0.5-36.6,13.2c1.2,7.9,1.8,17.2,4.8,24.6
						c3.8,9.3,2.5,19.3,5.9,28.6c0.7,2,1.8,3.9,2.3,6c0.6,2.2,0.7,4.5,0.7,6.8c0.1,4.8,0.3,9.6,0.4,14.4c0.1,1.8,0.2,3.8,1.4,5.2
						c1.4,1.5,3.7,1.5,5.7,1.5c5.1-0.1,10.4-0.1,15.3-1.5c1.8-0.5,3.6-1.2,5-2.4c4.4-3.7,3.8-10.6,2.8-16.3
						C462.9,388.1,461.9,380.3,461.1,372.6z"/>
				</g>
			</g>
		</g>
	</g>
	<g>
		<g>
			<g>
				<g>
					<path class="st17" d="M390.7,470.8c-0.5,0.2-13.7,13.2-20.2,15.9c-6.5,2.7-10.2,1.6-13,3.7c-2.7,2.1-2,5-2,5s15.7,3.5,27,2.6
						c11.3-0.9,14.2-5.5,17.8-6.2c3.6-0.7,8.8,0,9.5-1.2c0.6-1.2-0.6-15.4-1.9-17.9c-1.2-2.5-3.9,2.7-6.1,4.5
						C399.7,478.7,397.3,468.2,390.7,470.8z"/>
				</g>
			</g>
		</g>
		<g>
			<g>
				<g>
					<path class="st18" d="M409.6,481c0,0-7.2,4.3-8.5,5.7c-1.3,1.4-4.4,6.7-4.8,7.1c-0.4,0.4,14.6-2.5,14.6-2.5
						S411.1,485.4,409.6,481z"/>
				</g>
			</g>
		</g>
		<g>
			<g>
				<g>
					<path class="st19" d="M412.3,495.5c0,0,0.5-3.7-1.2-6.9c-1.7-3.2-14.7,6.2-27.4,8.3c-12.7,2.2-24.9-2.1-24.9-2.1
						s-0.9,2.7,1.5,4.2c2.4,1.5,10.6,1.8,15.8,2C381.4,501.2,412.3,495.5,412.3,495.5z"/>
				</g>
			</g>
		</g>
		<g>
			<g>
				<g>
					<path class="st18" d="M355.5,492.8c0,0,1.5-2.3,4.1,1c2.6,3.3,4.5,4.3,10.5,5.1c5.9,0.8,9.5,1.1,16.3,0
						c6.8-1.1,18.5-2.4,21.2-3.1c2.6-0.6,4.9-0.8,4.9-0.8v1.8c0,0-9,1.8-17.7,2.9c-8.7,1.1-36.9,5-39.6-3.6
						C354.6,494.5,355.5,492.8,355.5,492.8z"/>
				</g>
			</g>
		</g>
		<g>
			<g>
				<g>
					<path class="st18" d="M401.9,477c0,0,2.6,2.2,3.7,3c1,0.7,3.8-0.4,3.8-0.4s0.5-8.2-2.4-7.7C405.5,472.1,401.9,477,401.9,477z"
						/>
				</g>
			</g>
		</g>
		<g>
			<g>
				<g>
					<path class="st17" d="M381.3,485.3c0,0,8.6-8,11.9-9.4c3.2-1.4,5.1-6.8,5.1-7.7c0-0.9-3.4-4.1-9.9-3.4
						c-6.5,0.7-1.9,7.5-2.5,9.4c-0.6,1.9-3.4,3.9-6.3,6.3c-2.9,2.4-3.8,3.6-3.5,3.8C376.5,484.4,381.3,485.3,381.3,485.3z"/>
				</g>
			</g>
		</g>
		<g>
			<g>
				<g>
					<path class="st18" d="M370.9,486.6c0,0,5-0.6,6.5,0.7c1.6,1.3,7.3,5.2,10.6,6.4c3.2,1.2,4.9,0.6,4.9,0.6s-4.6-0.5-7.5-4.4
						c-2.9-3.9-7-7.4-8.1-7.6C376.2,482.1,370.9,486.6,370.9,486.6z"/>
				</g>
			</g>
		</g>
		<g>
			<g>
				<g>
					<path class="st19" d="M388.1,480c-1.4-0.8-2.9-1.4-4.5-1.7c-1.1-0.2-2.7-0.6-3.6,0.1c-0.8,0.6,0,1.9,0.8,1.3
						c0.8-0.6,2.6,0,3.5,0.2c1.1,0.3,2.1,0.7,3.1,1.3C388.2,481.8,388.9,480.5,388.1,480z"/>
				</g>
			</g>
		</g>
		<g>
			<g>
				<g>
					<path class="st19" d="M393.2,475.8c-1.5-0.8-3.1-1.4-4.7-1.6c-1.2-0.1-2.8-0.4-3.6,0.7c-0.6,0.8,0.7,1.5,1.3,0.8
						c0.3-0.5,2.8,0.1,3.3,0.2c1.1,0.2,2,0.7,3,1.2C393.3,477.6,394,476.3,393.2,475.8z"/>
				</g>
			</g>
		</g>
	</g>
	<g>
		<g>
			<g>
				<g>
					<path class="st17" d="M456.6,475.6c0,0,0.8,9.6,0.7,15.2c-0.2,5.7-1.7,9.9,1.6,14.9c1.7,2.5,19.5,2.9,21.5-0.7
						c3-5.3-6.7-15.6-8-19.8c-1.3-4.2-2.3-10.1-3.7-10.5C467.3,474.3,458.9,472.7,456.6,475.6z"/>
				</g>
			</g>
		</g>
		<g>
			<g>
				<g>
					<path class="st19" d="M456.7,499.2c0,0,1.9,5.9,8.4,5.6c6.5-0.2,15.2,1.8,15.2-5.6c0,0,0.9,2.7,0.7,3.7c-0.2,1.1-2,5.1-7.4,4.7
						c-5.4-0.4-13.8-1-14.7-1.9C458,504.8,456.7,499.2,456.7,499.2z"/>
				</g>
			</g>
		</g>
		<g>
			<g>
				<g>
					<path class="st18" d="M456.7,499.2c0,0-0.7,3.6,1.4,7.9c2.2,4.4,19.2,2.8,21.8,1.3c2.6-1.4,2.4-4.6,0.6-8.5
						c0,0-0.6,6.6-3.5,4.6c0,0-6-8.1-11.9,0.2C463.7,506.7,457.8,506.5,456.7,499.2z"/>
				</g>
			</g>
		</g>
		<g>
			<g>
				<g>
					<path class="st17" d="M462.1,490.8c0,0-1.3-12-4.1-15.2s-1.5-5.6,4.6-6.3c6.2-0.7,7.8-0.4,8.1,2.9c0.2,2-2.2,6.6-1.5,11.1
						c0.7,4.5,1.4,6.6,1.4,6.6L462.1,490.8z"/>
				</g>
			</g>
		</g>
		<g>
			<g>
				<g>
					<path class="st18" d="M457,494.4c0,0,2-1.7,4.1-2.6c2.1-0.9,8.9-1.6,11.1-1.1c3.4,0.9,4.8,2.2,4.8,2.2l-1.3-2
						c0,0-2.4-3.4-8-3.4c-4.2,0-9.1,1.6-10.5,4.9L457,494.4z"/>
				</g>
			</g>
		</g>
		<g>
			<g>
				<g>
					<path class="st19" d="M471.3,483.9c-1.8-1.4-4.1-1.3-6.3-1c-2.2,0.3-4.2,0.6-5.6,2.4c-0.5,0.7,0.7,1.4,1.2,0.7
						c1.8-2.4,7.7-2.7,10-1C471.3,485.6,472,484.4,471.3,483.9z"/>
				</g>
			</g>
		</g>
		<g>
			<g>
				<g>
					<path class="st19" d="M470.2,478.3c-2-1.2-4.6-0.9-6.8-0.6c-1.9,0.3-3.7,0.7-5,2.1c-0.6,0.6,0.4,1.6,1,1
						c2-2.1,7.7-2.8,10.2-1.3C470.3,480,471,478.8,470.2,478.3z"/>
				</g>
			</g>
		</g>
	</g>
	<g>
		<g>
			<path class="st20" d="M381.5,173c0,0-18.9,3.4-14.5,51.7l18.2,4.3C385.2,229,395.6,175.2,381.5,173z"/>
		</g>
		<g>
			<path class="st20" d="M455.2,172.4c2.6,0.4,5.3,1.9,7.2,2.9c0.8,0.4,1.5,0.9,2.1,1.5c0.5,0.5,0.9,1.2,1.3,1.8
				c3.5,5.8,5.4,11.1,6.4,17.8c1.1,7,2.1,13.9,3.2,20.9c0.2,1.1,0.3,2.2-0.2,3.2c-0.4,0.7-1.2,1.2-1.9,1.6c-1.2,0.7-2.4,1.5-3.6,2.2
				c-3.4,2-6.8,4.1-10.7,5.1c-1.7,0.5-3.6,0.7-5.2-0.1c-2.9-1.4-1.8-4.5-2.2-7c-0.4-2.2-0.9-4.3-1.3-6.5c-1-5.3-1.9-10.6-2.5-15.9
				c-0.8-7-3.2-20.2,2.1-26.1C451.3,172.4,453.2,172.1,455.2,172.4z"/>
		</g>
	</g>
	<g>
		<g>
			<path class="st21" d="M414.9,312c2.9,0.5,4,3.4,4.6,6c0.7,2.9,1.2,5.9,1.8,8.8c1.2,6.2,2.5,12.4,3.7,18.7c0.1,0.6,1,0.3,0.8-0.2
				c-1.5-7.5-3-15.1-4.5-22.6c-0.8-3.9-1.2-10.6-6.2-11.5C414.6,311.1,414.4,311.9,414.9,312L414.9,312z"/>
		</g>
	</g>
	<g>
		<g>
			<path class="st21" d="M432.3,358.7c-0.3-0.1-0.6-0.2-0.9-0.3c0,0.3,0,0.6,0,0.8c4.2-1.1,8.6,0.8,12.8,1.4c3.9,0.5,7.8,0.5,11.6,0
				c0.6-0.1,0.6-0.9,0-0.9c-4.6,0.6-9.3,0.5-13.8-0.3c-3.6-0.7-7.1-2-10.8-1c-0.4,0.1-0.4,0.7,0,0.8c0.3,0.1,0.6,0.2,0.9,0.3
				C432.6,359.7,432.8,358.9,432.3,358.7L432.3,358.7z"/>
		</g>
	</g>
	<g>
		<g>
			<path class="st21" d="M435.6,362.9c1.7,0.1,3.3,0.2,5,0.3c0.6,0,0.6-0.8,0-0.9c-1.7-0.1-3.3-0.2-5-0.3
				C435,361.9,435,362.8,435.6,362.9L435.6,362.9z"/>
		</g>
	</g>
	<g>
		<g>
			<path class="st21" d="M410.8,354.9c-5,2.9-10.3,5.3-15.7,7.1c-0.5,0.2-0.3,1,0.2,0.8c5.5-1.9,10.9-4.3,16-7.2
				C411.7,355.4,411.3,354.6,410.8,354.9L410.8,354.9z"/>
		</g>
	</g>
	<g>
		<g>
			<path class="st21" d="M410.3,358.9c-3.8,0.9-7.7,1.8-11.5,2.7c-0.5,0.1-0.3,1,0.2,0.8c3.8-0.9,7.7-1.8,11.5-2.7
				C411.1,359.7,410.8,358.8,410.3,358.9L410.3,358.9z"/>
		</g>
	</g>
	<g>
		<g>
			<path class="st21" d="M387,375.3c3.8,0.7,7.7,1.5,11.5,2.2c0.6,0.1,0.8-0.7,0.2-0.8c-3.8-0.7-7.7-1.5-11.5-2.2
				C386.7,374.3,386.4,375.2,387,375.3L387,375.3z"/>
		</g>
	</g>
	<path class="st22" d="M445,113.9c-0.5,1.2-0.6,2.6-0.2,3.9c0.4,1.5-1.9,2.3-2.2,0.8c-0.5-1.9-0.4-3.8,0.3-5.7
		C443.4,111.5,445.5,112.5,445,113.9z"/>
	<g>
		<g>
			<path class="st23" d="M446,108.1c1.5,3.2,0.9,6.8-1.5,9.4c-0.3,0.3,0.2,0.7,0.4,0.4c2.6-2.8,3.2-6.7,1.6-10.1
				C446.4,107.5,445.9,107.8,446,108.1L446,108.1z"/>
		</g>
	</g>
	<g>
		<g>
			<path class="st23" d="M444.3,109.2c0.3,1.4,0.1,2.7-0.4,4c-0.1,0.3,0.4,0.6,0.5,0.3c0.6-1.4,0.8-2.9,0.5-4.4
				C444.8,108.6,444.3,108.8,444.3,109.2L444.3,109.2z"/>
		</g>
	</g>
	<path class="st9" d="M416.5,177.3L416.5,177.3c7,0.2,12.9-5.2,13.1-12.2l1-29l-25.3-0.9l-1,29C404,171.2,409.5,177.1,416.5,177.3z"
		/>
	<path class="st24" d="M404.8,146.3c4.4-0.9,9.8-0.4,12.4-0.2c4.4,0.4,8.8,1.2,12.7,3.4c0.1,0,0.1,0.1,0.2,0.1l-0.4,13.7
		c-5,4.2-10.5,4-17.3,2c-2-0.6-5.2-2-8-3.9L404.8,146.3z"/>
	<path class="st9" d="M417.8,95.9c26.2,4.9,20.2,27,19.9,28c-2.6,10.6-3.9,20.5-9.6,27.1c-3.5,4.1-11.4,10.7-19.2,9.5
		c-6.5-1-9.6-5.7-12.6-10.4c-2.7-4.3-5.2-8.7-5.8-13.8c-0.4-3.2,0-6.5,1.3-9.5c0.3-0.8,0.8-1.6,1-2.4c0.7-2.1,0.6-4.4,0.2-6.5
		c-0.4-2.2-0.8-4.5-1-6.7c-0.1-1.1,0.1-2.2,0.2-3.3c0.2-1.9,0.3-3.8,0.8-5.6c1-3.7,3.5-6.1,7.2-7C406,93.8,412.2,94.9,417.8,95.9z"
		/>
	<path class="st9" d="M438.5,130.4c-3-2.7-6.3,3.5-7.4,5.5c-0.7,1.2,1.1,2.5,1.8,1.3c-0.2,0.4-0.5,0.7-0.7,1.1
		c-0.8,1.2-2.3,2.9-1.5,4.5c1.5,3.1,6.3-0.6,7.7-2.4C441.4,136.4,441,132.6,438.5,130.4z"/>
	<path class="st25" d="M411.3,138.1c-1.5,0-3,0.1-3.1-2.1c0-0.8,0.5-2,0.7-2.8c0.5-1.7,0.7-2.2,1.2-3.9c0.4-1.4-1.6-2.3-2.1-0.9
		c-0.6,2-0.9,2.7-1.5,4.7c-0.4,1.3-0.9,2.8-0.6,4.2c0.6,2.6,3.3,3,5.6,2.9C413,140.3,412.7,138,411.3,138.1z"/>
	<path class="st26" d="M418,121.3c2.7-0.7,5.6-0.9,8.4-0.3c1.2,0.2,3.7,0.9,3.6,2.6c-0.2,1.7-2.5,1.4-3.6,1.4
		c-2.7-0.1-8.2-1.7-8.3-1.8C417.1,123.1,416.9,121.6,418,121.3z"/>
	<path class="st26" d="M407.1,119.9c-2.4-1.4-5.1-2.4-7.9-2.7c-1.2-0.1-3.8-0.2-4.2,1.5c-0.3,1.7,2,2.1,3.1,2.4
		c2.7,0.7,8.4,0.6,8.4,0.6C407.4,121.9,408,120.5,407.1,119.9z"/>
	<path class="st26" d="M446.2,109.1c1.8-2.8,0.9-7.3-2.8-7.6c2.9-5.6-3.5-11.2-9.9-9.7c-2.3,0.5-2.2,1.2-4.6,0.4
		c-2.3-0.9-2.1-1.9-3.4-3.9c-1-1.6-2.2-2.9-3.8-3.8c-3.7-2-8.1-1.4-11.6,0.7c-1.8,1.1-3.3,3.4-5.1,4.3c-2.9,1.4-6-0.1-8.9,0.8
		c-3.3,1.1-5.7,5.6-6.3,8.8c-0.1,0.6-0.1,1.3-0.2,1.9c0.2,1,0.1,1.9-0.5,2.8c0,1.2-0.6,1.8-1.6,1.9c-0.9,1-1.7,1-2.3,2.4
		c-1.4,3.6,1.5,6.8,4.5,8.2c-0.4,0.4-0.6,1.1-0.1,1.6c3,2.6,6.3,2.7,9.7,0.7c1.3-0.8,2.5-2.2,4-2.7c4.9-1.7,5,1.4,7.6,2.8
		c1.9,1,3.9,1.4,6.1,1c6-1.3,7-10.3,14.2-7.5c1.7,0.7,3.2,1.2,4.7,1.4c-0.6,2.8-2.5,5.3-3,8.2c-0.4,2.1-0.1,4,0.6,6
		c0.9,2.6,1.6,4.6,4.3,3C444.6,126.5,451.8,116.1,446.2,109.1z"/>
	<g>
		<g>
			<path class="st23" d="M425.7,103.9c-3.4-2.7-5.9-0.3-9.3,0.9c-2,0.3-4,0.5-5.9,0.8c-1-0.4-1.9-0.8-2.9-1.1
				c-0.5-0.1-1.1-0.3-1.6-0.2c-2.1,0.1-3.7,1.6-5.2,3c-0.3,0.2,0.1,0.6,0.4,0.4c1.6-2,3.7-2.9,6.3-2.6c1,0.3,1.9,0.7,2.9,1.1
				c1.2,0.3,1.8,0.5,3.2,0.3c4.1-0.5,7.6-5.6,11.8-2.2C425.5,104.5,425.9,104.1,425.7,103.9L425.7,103.9z"/>
		</g>
	</g>
	<g>
		<g>
			<path class="st23" d="M404.6,101.2c-1.9,0.4-3.7,1-5.5,1.8c-0.3,0.1,0,0.6,0.3,0.5c1.7-0.8,3.5-1.4,5.3-1.8
				C405.1,101.7,404.9,101.1,404.6,101.2L404.6,101.2z"/>
		</g>
	</g>
	<g>
		<g>
			<path class="st23" d="M420.2,100.1c2.2,0.3,4.3,1.1,6.1,2.5c0.3,0.2,0.6-0.3,0.3-0.5c-1.9-1.4-4-2.2-6.3-2.5
				C420,99.5,419.8,100.1,420.2,100.1L420.2,100.1z"/>
		</g>
	</g>
	<g>
		<g>
			<path class="st23" d="M410.6,113.3c-2.2-0.6-4.6-1.2-6.9-1c-3,0.3-6.6,3.1-9.2,0.1c-0.2-0.3-0.6,0.1-0.4,0.4
				c1.1,1.3,2.5,1.7,4.2,1.5c1.5-0.2,2.8-1,4.3-1.2c2.7-0.5,5.3,0.2,7.9,0.8C410.8,114,411,113.4,410.6,113.3L410.6,113.3z"/>
		</g>
	</g>
	<g>
		<g>
			<path id="SVGID_3_" class="st27" d="M436.7,166l20.9,6.5c1.5,0.5,2.5,1.9,2.3,3.5l-5.7,64.9c-0.5,5.1-0.9,10.2-1.2,15.3
				c-0.3,4-1,8.3-1,12.2c0,2.3,0.8,4.7,1,7c0.2,2.2,0.3,4.4,0.3,6.5c0,1.5-0.1,3-0.7,4.4c-0.8,1.8-2.4,3-4.2,3.9
				c-5.2,2.7-11.4,3.1-16.2,6.2c-2.1,1.4-3.9,3.2-6.1,4.5c-3.5,2.1-7.8,2.5-11.8,1.7c-4-0.8-7.7-2.7-10.9-5.1
				c-3.1-2.3-6-5.1-9.7-6.3c-3.2-1-6.9-0.8-9.7-2.6c-0.9-0.6-1.7-1.4-2-2.4c-0.2-0.7-0.2-1.4-0.2-2.2c0.1-3.9,0.3-7.9,0.4-11.8
				c0.3-9.6-0.4-19.2-0.9-28.8c-0.4-7.1-0.7-14.4-1.7-21.5c-2.2-15.1-2-47.7-2-47.7l0,0l18.9-8.5c0.8-0.3,1.7-0.3,2.4,0.2
				c3.8,2.4,17.4,9.4,35.8,0.3C435.4,165.9,436.1,165.8,436.7,166z"/>
		</g>
		<g>
			<defs>
				<path id="SVGID_1_" d="M436.7,166l20.9,6.5c1.5,0.5,2.5,1.9,2.3,3.5l-5.7,64.9c-0.5,5.1-0.9,10.2-1.2,15.3c-0.3,4-1,8.3-1,12.2
					c0,2.3,0.8,4.7,1,7c0.2,2.2,0.3,4.4,0.3,6.5c0,1.5-0.1,3-0.7,4.4c-0.8,1.8-2.4,3-4.2,3.9c-5.2,2.7-11.4,3.1-16.2,6.2
					c-2.1,1.4-3.9,3.2-6.1,4.5c-3.5,2.1-7.8,2.5-11.8,1.7c-4-0.8-7.7-2.7-10.9-5.1c-3.1-2.3-6-5.1-9.7-6.3c-3.2-1-6.9-0.8-9.7-2.6
					c-0.9-0.6-1.7-1.4-2-2.4c-0.2-0.7-0.2-1.4-0.2-2.2c0.1-3.9,0.3-7.9,0.4-11.8c0.3-9.6-0.4-19.2-0.9-28.8
					c-0.4-7.1-0.7-14.4-1.7-21.5c-2.2-15.1-2-47.7-2-47.7l0,0l18.9-8.5c0.8-0.3,1.7-0.3,2.4,0.2c3.8,2.4,17.4,9.4,35.8,0.3
					C435.4,165.9,436.1,165.8,436.7,166z"/>
			</defs>
			<clipPath id="SVGID_2_">
				<use xlink:href="#SVGID_1_"  style="overflow:visible;"/>
			</clipPath>
			<g class="st28">
				<rect x="355.6" y="165.4" class="st29" width="126.2" height="3.6"/>
			</g>
		</g>
		<g>
			<defs>
				<path id="SVGID_4_" d="M436.7,166l20.9,6.5c1.5,0.5,2.5,1.9,2.3,3.5l-5.7,64.9c-0.5,5.1-0.9,10.2-1.2,15.3c-0.3,4-1,8.3-1,12.2
					c0,2.3,0.8,4.7,1,7c0.2,2.2,0.3,4.4,0.3,6.5c0,1.5-0.1,3-0.7,4.4c-0.8,1.8-2.4,3-4.2,3.9c-5.2,2.7-11.4,3.1-16.2,6.2
					c-2.1,1.4-3.9,3.2-6.1,4.5c-3.5,2.1-7.8,2.5-11.8,1.7c-4-0.8-7.7-2.7-10.9-5.1c-3.1-2.3-6-5.1-9.7-6.3c-3.2-1-6.9-0.8-9.7-2.6
					c-0.9-0.6-1.7-1.4-2-2.4c-0.2-0.7-0.2-1.4-0.2-2.2c0.1-3.9,0.3-7.9,0.4-11.8c0.3-9.6-0.4-19.2-0.9-28.8
					c-0.4-7.1-0.7-14.4-1.7-21.5c-2.2-15.1-2-47.7-2-47.7l0,0l18.9-8.5c0.8-0.3,1.7-0.3,2.4,0.2c3.8,2.4,17.4,9.4,35.8,0.3
					C435.4,165.9,436.1,165.8,436.7,166z"/>
			</defs>
			<clipPath id="SVGID_5_">
				<use xlink:href="#SVGID_4_"  style="overflow:visible;"/>
			</clipPath>
			<g class="st30">
				<g>
					<path class="st29" d="M548.8,238.1c-0.6,13.2-1.2,26.7-5.9,39.2c-4,10.5-15.5,27.4-28.4,18.2c-4.4-3.2-8.6,4.1-4.2,7.3
						c14.1,10.1,29.8-1.8,36.8-14.4c8.4-15.3,9.4-33.2,10.2-50.2C557.4,232.6,549,232.7,548.8,238.1L548.8,238.1z"/>
				</g>
			</g>
		</g>
		<g>
			<defs>
				<path id="SVGID_6_" d="M436.7,166l20.9,6.5c1.5,0.5,2.5,1.9,2.3,3.5l-5.7,64.9c-0.5,5.1-0.9,10.2-1.2,15.3c-0.3,4-1,8.3-1,12.2
					c0,2.3,0.8,4.7,1,7c0.2,2.2,0.3,4.4,0.3,6.5c0,1.5-0.1,3-0.7,4.4c-0.8,1.8-2.4,3-4.2,3.9c-5.2,2.7-11.4,3.1-16.2,6.2
					c-2.1,1.4-3.9,3.2-6.1,4.5c-3.5,2.1-7.8,2.5-11.8,1.7c-4-0.8-7.7-2.7-10.9-5.1c-3.1-2.3-6-5.1-9.7-6.3c-3.2-1-6.9-0.8-9.7-2.6
					c-0.9-0.6-1.7-1.4-2-2.4c-0.2-0.7-0.2-1.4-0.2-2.2c0.1-3.9,0.3-7.9,0.4-11.8c0.3-9.6-0.4-19.2-0.9-28.8
					c-0.4-7.1-0.7-14.4-1.7-21.5c-2.2-15.1-2-47.7-2-47.7l0,0l18.9-8.5c0.8-0.3,1.7-0.3,2.4,0.2c3.8,2.4,17.4,9.4,35.8,0.3
					C435.4,165.9,436.1,165.8,436.7,166z"/>
			</defs>
			<clipPath id="SVGID_7_">
				<use xlink:href="#SVGID_6_"  style="overflow:visible;"/>
			</clipPath>
			<g class="st31">
				<g>
					<path class="st29" d="M530.5,243.3c-1,8.7-6.9,15.7-14.1,20.2c-6,3.7-14.6,8-21.9,7c-17.2-2.3-5.5-31.5-0.8-39.8
						c7.3-12.9,24.2-29.3,38.7-15.6c13.8,13,6,34.6,0.6,49.5c-1.9,5.1,6.3,7.3,8.1,2.2c6-16.4,12.2-36.3,1.7-52.3
						c-9.5-14.4-27.5-16.5-41.1-6.3c-13.4,10.1-21.9,27.8-24,44.3c-0.8,6.8-0.3,14.4,4.1,20c4.7,5.9,12.1,7.2,19.2,6.1
						c18.1-2.9,35.8-16.2,38-35.2C539.6,238,531.2,238,530.5,243.3L530.5,243.3z"/>
				</g>
			</g>
		</g>
	</g>
	<g>
		<g>
			<path class="st32" d="M410.1,272.5c12.9-0.8,25.9-0.9,38.8-0.5c0.3,0,0.3-0.5,0-0.5c-13-0.4-25.9-0.3-38.8,0.5
				C409.8,271.9,409.8,272.5,410.1,272.5L410.1,272.5z"/>
		</g>
	</g>
	<g>
		<g>
			<path class="st32" d="M400.7,270.2c15.7,0.4,31.4-1.5,46.6-5.7c0.3-0.1,0.2-0.6-0.1-0.5c-15.1,4.2-30.8,6.1-46.4,5.7
				C400.4,269.7,400.4,270.2,400.7,270.2L400.7,270.2z"/>
		</g>
	</g>
	<g>
		<g>
			<path class="st32" d="M437.8,270.4c4.1-0.4,8.2,0.1,12.1,1.5c0.3,0.1,0.5-0.4,0.1-0.5c-4-1.5-8-2-12.2-1.5
				C437.4,269.9,437.4,270.4,437.8,270.4L437.8,270.4z"/>
		</g>
	</g>
	<g>
		<g>
			<path class="st32" d="M383.9,214.3c10.9,7.3,23.8,8.7,36.4,10.9c0.3,0.1,0.5-0.5,0.1-0.5c-12.6-2.2-25.4-3.5-36.3-10.8
				C383.8,213.6,383.6,214.1,383.9,214.3L383.9,214.3z"/>
		</g>
	</g>
	<g>
		<g>
			<path class="st32" d="M424.9,296.7c3.7-3.6,8.4-5.5,13.5-5.4c0.3,0,0.3-0.5,0-0.5c-5.3-0.1-10.2,1.9-13.9,5.6
				C424.2,296.6,424.6,296.9,424.9,296.7L424.9,296.7z"/>
		</g>
	</g>
	<g>
		<g>
			<path class="st32" d="M397.7,290.9c2.3-0.6,4.7-0.2,6.6,1.2c0.3,0.2,0.6-0.3,0.3-0.5c-2.1-1.5-4.6-1.9-7.1-1.3
				C397.2,290.4,397.4,291,397.7,290.9L397.7,290.9z"/>
		</g>
	</g>
	<path class="st25" d="M405.9,151.3c3.5,3.1,10.8,1.1,13.7-2.2c1-1.1,1.5-3.2,0.3-4.3c-1.3-1.2-3.8-0.2-5.1,0.5
		c-1.2,0.6-2.1,1.3-3.4,1.5c-1.2,0.1-2.5-0.3-3.7-0.6c-0.7-0.2-1.3-0.3-1.9,0.1C403.6,147.3,404.4,150,405.9,151.3z"/>
	<path class="st10" d="M402.2,149.9c1.9,0.4,4.2-0.8,6-1.3c2.4-0.6,4.8-1.1,7.2-1.7c1.2-0.3,2.3-0.8,3.4-1.1
		c0.6-0.2,1.3-0.2,1.9-0.5"/>
	<path class="st3" d="M420.3,145.4c-0.5,0.2-1,0.2-1.5,0.3c-1.2,0.3-2.2,0.8-3.4,1.1c-2.4,0.6-4.8,1.1-7.2,1.7
		c-1.1,0.3-2.3,0.8-3.5,1.1c-0.5-1.3-0.5-2.7,1-3.5c0.7-0.4,1.2-0.3,1.9-0.1c1.2,0.3,2.4,0.7,3.6,0.6c1.4-0.1,2.3-0.9,3.4-1.4
		c1.3-0.6,3.8-1.7,5.1-0.5C420,145,420.2,145.2,420.3,145.4z"/>
</g>
<path class="st9" d="M496,220.8c0.7-1.3,2.1-2,2.8-3.3c0.9-1.6,1.3-3.5,1.2-5.3c0-0.5-0.1-1,0-1.5c0.1-0.5,0.4-1,0.9-1.1
	c0.7-0.2,1.4,0.5,1.8,1.2c0.9,1.6,1.3,3.3,1.7,5c0.4,1.8,0.9,3.6,1.3,5.4c0.5,2.7-1.9,5.4-4.4,5.9C497.7,228,494,224.2,496,220.8z"
	/>
<path class="st9" d="M512.3,216.6c2.2-1.3,3.6-3.7,3.9-6.2c0.1-0.7,0.1-1.3,0.2-2c0.1-0.6,0.5-1.3,1-1.7c0.1-0.1,0.3-0.2,0.4-0.2
	c0.2,0,0.4,0.2,0.6,0.4c0.2,0.3,0.4,0.7,0.5,1.1c0.1-0.4,0.3-0.8,0.5-1.3c0.1-0.1,0.1-0.3,0.3-0.3c0.1-0.1,0.3-0.1,0.4,0
	c0.9,0.2,1.4,1.1,1.6,2c0.1-0.2,0.2-0.5,0.4-0.6c0.2-0.2,0.4-0.3,0.7-0.2c0.2,0.1,0.3,0.2,0.4,0.4c0.9,1.4,1.1,3.3,0.8,4.8
	c0.1-0.3,0.2-0.5,0.4-0.7c0.2-0.2,0.5-0.3,0.8-0.3c0.5,0.1,0.6,0.7,0.7,1.1c0.3,2.4,0.2,5-0.3,7.4c-0.8,3.8-4.5,5.7-7.4,7.8
	c-1.2,0.8-2.7,1.2-4,1.8c-1.7,0.7-3.5,1.5-5.4,1.4c-1.7,0-3.8-0.9-5.4-1.5c-2.9-1.1-8.4-4.5-5-7.9c1.5-1.5,3.5-2.5,5.6-3.1
	c2.1-0.6,4.2-1,6.3-1.6c0.7-0.2,1.4-0.3,2-0.7C512,216.7,512.1,216.7,512.3,216.6z"/>
<path class="st10" d="M505.8,219.9c0.8,1.1,0.9,2.6,0.8,4c0,0.4,0,0.8,0,1.2c1.4-0.5,2.8-0.3,4.2,0c1.2,0.2,2.5,0.6,3.7,0.9
	c0.2,0.1,0.4,0.1,0.6,0.1c0.2,0,0.4-0.1,0.5-0.2c0.9-0.5,1.6-1.2,2.3-1.9c0.2-0.2,0.3-0.4,0.5-0.5c0.3-0.2,0.6-0.4,0.8-0.5
	c1.1-0.7,1.9-1.8,2.4-2.9c0.5-1.2,0.8-2.4,0.9-3.7"/>
<g>
	<g>
		<path class="st11" d="M502,220.4c0-0.5,1.3-1,1.7-1.2c0.7-0.3,1.4-0.4,2.2-0.4c0.1,0,0.1-0.2,0-0.2c-0.9,0-1.8,0.2-2.6,0.6
			c-0.4,0.2-1.5,0.7-1.5,1.2C501.7,220.6,502,220.6,502,220.4L502,220.4z"/>
	</g>
</g>
<g>
	<g>
		<path class="st11" d="M504,224.9c1.9-2.8,5.4-3.7,8.5-2.4c0.1,0.1,0.2-0.2,0.1-0.2c-3.2-1.3-6.7-0.4-8.7,2.5
			C503.7,224.9,503.9,225,504,224.9L504,224.9z"/>
	</g>
</g>
<g>
	<g>
		<path class="st11" d="M512.4,222.5c1.2,0.2,2.7-0.6,3.8-1.2c0.1-0.1,0-0.3-0.1-0.2c-1,0.5-2.5,1.3-3.6,1.1
			C512.3,222.3,512.2,222.5,512.4,222.5L512.4,222.5z"/>
	</g>
</g>
<g>
	<g>
		<path class="st11" d="M519.8,220.7c0.3,0,0.4-0.1,0.6-0.3c0.2-0.2,0.3-0.4,0.5-0.6c0.1-0.1,0.2-0.3,0.3-0.4c0.6-0.7,1-1.5,1.4-2.4
			c0.6-1.3,1-2.7,1.1-4.1c0-0.1-0.2-0.1-0.2,0c-0.4,3-1.7,5.7-3.8,7.9c-0.1,0.1,0.1,0.2,0.2,0.2c0,0,0.1-0.1,0.1-0.1
			C520.1,220.7,519.9,220.6,519.8,220.7L519.8,220.7z"/>
	</g>
</g>
<g>
	<g>
		<path class="st11" d="M518.6,216.6c2.1-2.2,2.9-4.9,3.2-7.9c0-0.1-0.2-0.1-0.2,0c-0.2,2.9-1.1,5.6-3.1,7.8
			C518.4,216.6,518.5,216.7,518.6,216.6L518.6,216.6z"/>
	</g>
</g>
<g>
	<g>
		<path class="st11" d="M516.2,215.5c0.7-0.8,1.4-1.6,1.7-2.6c0.4-1.6,1-3.3,1-4.9c0-0.1-0.2-0.1-0.2,0c0,1.4-0.5,2.5-0.8,3.8
			c-0.2,0.6-0.1,1-0.3,1.6c-0.3,0.7-1,1.3-1.5,1.9C515.9,215.4,516.1,215.6,516.2,215.5L516.2,215.5z"/>
	</g>
</g>
<g>
	<g>
		<path class="st11" d="M517.4,217.7c0.5-0.3,0.9-0.7,1.3-1.1c0.1-0.1-0.1-0.3-0.2-0.2c-0.4,0.4-0.8,0.8-1.2,1.1
			C517.2,217.6,517.3,217.8,517.4,217.7L517.4,217.7z"/>
	</g>
</g>
<g>
	<g>
		<path class="st11" d="M514.7,216.5c0.5-0.3,0.9-0.7,1.4-1c0.1-0.1-0.1-0.2-0.2-0.2c-0.4,0.4-0.9,0.7-1.3,1
			C514.5,216.3,514.6,216.5,514.7,216.5L514.7,216.5z"/>
	</g>
</g>
<g>
	<g>
		<path class="st11" d="M514.1,216.3c0.4,0.2,0.8,0.5,1.2,0.8c0.1,0.1,0.3-0.1,0.2-0.2c-0.4-0.3-0.8-0.6-1.2-0.8
			C514.1,216,514,216.2,514.1,216.3L514.1,216.3z"/>
	</g>
</g>
<g>
	<g>
		<path class="st11" d="M516.5,217.4c0.4,0.3,0.8,0.7,1.1,1.1c0.1,0.1,0.3,0,0.2-0.1c-0.3-0.5-0.7-0.8-1.2-1.1
			C516.5,217.1,516.4,217.3,516.5,217.4L516.5,217.4z"/>
	</g>
</g>
<g>
	<g>
		<path class="st11" d="M519.3,220.3c0.5,0.4,0.8,0.8,1.1,1.3c0.1,0.1,0.3,0,0.2-0.1c-0.3-0.5-0.7-1-1.2-1.4
			C519.4,220,519.2,220.2,519.3,220.3L519.3,220.3z"/>
	</g>
</g>
<path class="st9" d="M465.8,243c2-1.6,4.6-2.9,6.3-4.2c3.9-2.9,8.1-5.3,12.3-7.7c2-1.2,4.2-2.1,6.2-3.4c2.2-1.3,4.4-3.5,7-4
	c2.8-0.6,5.9,2.7,6.3,5.4c0.4,2.7-2.8,5-4.6,6.6c-4.5,4.2-9.3,8.1-13.7,12.4c-4.9,4.8-9.7,9.7-14.9,14.2c-4.4,3.8-7.6,2.1-8.9-3.4
	c-0.9-3.8,0.1-9.6,1.6-13.1C463.9,244.8,464.8,243.9,465.8,243z"/>
<path class="st9" d="M341.2,209.1c-0.9-1.5-2.5-2.4-3.4-3.9c-1.1-1.8-1.5-4.1-1.4-6.2c0-0.6,0.1-1.2,0-1.8c-0.1-0.6-0.5-1.1-1.1-1.3
	c-0.9-0.2-1.6,0.6-2.1,1.4c-1,1.8-1.5,3.9-2,5.9c-0.5,2.1-1.1,4.2-1.5,6.4c-0.6,3.2,2.2,6.3,5.2,7
	C339.2,217.5,343.6,213.1,341.2,209.1z"/>
<path class="st9" d="M376.8,235.2c-2.3-1.9-5.4-3.4-7.4-5c-4.6-3.4-9.5-6.2-14.4-9.1c-2.4-1.4-5-2.5-7.3-4c-2.6-1.6-5.2-4.1-8.3-4.7
	c-3.3-0.6-6.9,3.2-7.4,6.3c-0.5,3.2,3.3,5.8,5.4,7.8c5.3,5,10.9,9.5,16.1,14.6c5.8,5.6,11.4,11.4,17.5,16.7c5.2,4.5,9,2.5,10.5-4
	c1-4.4-0.1-11.3-1.9-15.4C379,237.3,378,236.2,376.8,235.2z"/>
<path class="st33" d="M419,129.2c0,1.3,0.7,2.4,1.5,2.4c0.9,0,1.6-1,1.6-2.4c0-1.3-0.7-2.4-1.5-2.4C419.7,126.8,419,127.9,419,129.2
	z"/>
<path class="st33" d="M397.8,127.5c0,1.3,0.7,2.4,1.5,2.4s1.6-1,1.6-2.4c0-1.3-0.7-2.4-1.5-2.4C398.5,125.1,397.8,126.2,397.8,127.5
	z"/>
<path class="st9" d="M122.8,221.8c-2,4.5-3.5,9.2-3.7,14.4c-0.3,10.1,7.9,17.3,14.8,23.4c10.8,9.5,23,17.2,35.4,24.5
	c5.3,3.1,17.3,8.4,15.2-3.1c-1.1-5.9-5.4-10.3-9.8-13.9c-5.5-4.4-10.1-9.1-14.8-14.3c-4-4.4-14.6-12.7-14.9-19.1
	c-0.3-6.7,10.6-13.5,13.4-19.3c3.9-8.3,8.1-16.4,11.6-24.9c2.8-6.8,7.5-14.8,4.6-22.4c-3.1-8.1-9.3-6.9-15.2-2.4
	c-7.5,5.7-12.7,15.1-17.4,23.1c-4.3,7.2-8.3,14.5-12.5,21.9C127.2,213.6,124.8,217.6,122.8,221.8z"/>
<path class="st9" d="M300.6,208.9c-4-7.4-7.8-14.8-12-22.2c-4.5-8.1-10.5-11-17.9-16.9c-5.9-4.7-12-5.9-15.3,2.1
	c-3.1,7.5,1.4,15.7,4,22.5c3.3,8.6,9.7,15.6,13.5,24c2.6,5.9,11.7,16.8,11.2,23.5c-0.5,6.4-11.9,11.8-16,16.1
	c-4.8,5.1-9.6,9.7-15.2,13.9c-4.5,3.4-9,7.8-10.2,13.7c-2.4,11.4,9.7,6.4,15.1,3.5c12.6-6.9,25-14.3,36-23.6
	c7.1-6,15.3-12.9,15.3-23c0-5.2-1-12-3-16.6C304.5,221.5,302.8,213,300.6,208.9z"/>
<path class="st9" d="M163.1,162.6c-0.1-1.8-1.2-7.4-0.2-9c6.8-10.9,39-17.8,39-17.8s10.6,0.4,31.3,0.8c0,0,33.5,5,40.4,18
	c1,1.8,0,36.1-11.2,62.7c0,0,1.2,23.1-0.2,41.3c-0.6,7.1-3.8,10.9-5.1,13.5c-2.3,4.7-10.8,5.8-15.2,6.6c-9.2,1.7-18.7,2.1-28,2
	c-9-0.1-18.1-0.6-26.9-2.7c-6.8-1.6-10.6-3.8-14.1-9.8c-1.2-2.1-1.9-4.5-2.5-6.8c-1.3-5.1-0.9-10.1-0.2-15.2
	c0.9-6.3,2.2-12.8,3.8-19c1.8-7.1,4.2-15,3.4-22.3c-0.6-5.4-2.5-9-5.9-13.1c-2.2-2.7-5.3-5.4-6.7-8.6c-1.1-2.5-1.3-5.7-1.2-8.3
	C163.7,170.9,163.2,166.7,163.1,162.6z"/>
<path class="st3" d="M219,498.9c-0.2-3.7,0-9.2,0.5-10.1c0.5-0.9,6.2-1.1,8.3-1c3.2,0.3,12,0.1,13.2,0.7c1.2,0.6,0,5.9,0.5,10.6
	c0.2,1.7,0.2,3.6,1,5.2c1.3,2.9,11.3,6.3,13.7,8.2c2.6,2.1-0.9,2.1,1.9,4c1.5,1,3.1,1.9,4.2,3.4c1.8,2.6,1.1,5.2,0.2,8.1
	c-1,3-19.3,1.1-25.8,0.6c-4.3-0.3-12,1.6-15.7-1.1c-3.1-2.1-2.4-5.7-2.5-9.1c-0.2-5.1,0-10.1,0.5-15.3
	C219,502.3,219,500.3,219,498.9z"/>
<path class="st17" d="M216.3,528.4c-0.5,0.9-0.3,2.8,1,3c2.9,0.4,8.7,0.3,11.6,0.5c4.5,0.2,29.8,0.8,37.1,0.4
	c3.4-0.2,9.2-0.3,10.7-3.6c1.1-2.4-0.3-5.6-1.7-7.6c-2.3-3.1-6.2-5.3-9.7-7.2c-4.8-2.6-8.6-4-11.9-3.7c-1.3,0.1-6.1,6-7.5,8.3
	c-1.8,2.8-3.4,5.7-4.6,8.7c-0.1,0.1-2.3,0-2.5,0c-2,0-4,0-6,0c-3.2,0-6.3,0.1-9.4,0.2c-1.3,0-2.6,0.1-3.9,0.2c-0.7,0-2.2,0-2.9,0.4
	C216.5,528.2,216.4,528.3,216.3,528.4z"/>
<g>
	<g>
		<g>
			<path class="st9" d="M241,120.2c-0.1,0.4,1.3,21.9,1.3,21.9s-21.1,8.3-37.1-0.1l2.2-22.4L241,120.2z"/>
		</g>
	</g>
</g>
<path class="st24" d="M206.1,133.2c1.4,1.5,3.1,2.7,4.9,3.7c1.9,1.1,3.9,2,6.1,2.5c2.3,0.5,4.8,0.5,7.2,0.3c3.3-0.2,6.7-0.7,9.8-2
	c3.1-1.3,5.9-3.5,7.4-6.5c0.1-0.2,0.2-0.3,0.2-0.5c0,0,0,0,0,0c-0.2-3.2-0.4-6.4-0.5-8.4c-0.1-0.3-0.3-0.6-0.4-0.9
	c-0.2-0.5-0.4-0.9-0.7-1.3l-32.6-0.5L206.1,133.2z"/>
<path class="st9" d="M249.1,89.8c0.3-1.6,0.4-3.3,0.5-5c0.2-4.2-0.1-8.6-3.3-11.5c-1.1-1-0.7-1.9-2.2-2.4c-2.4-0.8-5-1-7.5-1.5
	c-1.9-0.5-3.6-1.1-5.5-1.4c-4-0.8-8.3-1.4-12.4-1.1c-1.6,0.1-3.7,0.2-5,1.3c-3.3-1.2-1.9,4-4.8,4.8c-3.6,1-3.7,4.7-5.5,8.2
	c0.1-1.6,0.3-3.1,1.1-4.5c0.3-0.6-0.5-1-0.8-0.5c-1.7,2.3-1.6,5.2-1.7,7.9c-0.1,4.5-0.1,8.9,0.2,13.4c0.4,5.5,1,13.7,1.6,15.7
	c0.6,1.9,0.7,8.4,3.8,11.6c4.6,4.8,8.6,6.5,19,10c7.2-0.1,14.5-10,15.6-11.7c1.5-2.4,1.8-5.5,3.1-8.1c0.7-1.4,1.1-2.8,1.4-4.3
	c0.3-1.7,0.7-3.4,0.6-5.2c-0.1-1.6-0.1-3.2-0.1-4.8c0-0.6-0.2-1.2-0.3-1.8c-0.2-0.9-0.7-1.9-0.4-2.8c0.4-1.8,1.8-3.4,2.3-5.3
	C248.9,90.5,249,90.1,249.1,89.8z"/>
<path class="st25" d="M194.8,92.3c0.1-0.6,0.3-1.1,0.6-1.7c0.6-1.6,1.9-3,3.6-3.2c0.7-0.1,1.6,0.1,2.1,0.6c0.3,0.4,1.1,0.4,1.5,0.9
	c0.5,0.5,0.6,1.3,0.7,1.9c0.4,2.1,0.5,4.3,0.7,6.5c0.1,0.9,0.2,1.8,0.3,2.7c0.1,1.2,0.3,2.4,0.4,3.6c0.1,1,0.2,1.9,0.2,2.9
	c0,0.4,0,0.8-0.3,1c-0.3,0.2-0.7,0-1-0.2c-2.8-1.5-4.9-3.1-6.4-5.9C195.7,98.7,194.3,95.4,194.8,92.3z"/>
<path class="st34" d="M233,88.9c1.3-2.2,4.4-1.8,6.6-1.3c2.1,0.4,5.3,1,6.2,3.1c0.4,0.8-0.2,1.8-1.1,1.8c-0.4,0-7.8-0.8-10.9-1.7
	C232.9,90.5,232.6,89.6,233,88.9z"/>
<path class="st34" d="M221,88c-1.6-2-4.6-1.1-6.7-0.4c-2,0.7-5.1,1.7-5.7,3.9c-0.3,0.9,0.5,1.7,1.4,1.7c0.4,0,6.9-1.9,10.6-3.2
	C221.3,89.7,221.5,88.6,221,88z"/>
<path class="st12" d="M181.5,270.9c0,0-1.3,18.7-0.7,27.7c0.5,8.1,24.9,16.9,41.5,15.1c7.8-0.9,31.4-6.3,31.3-20.9
	c-0.2-24.3-3.8-34.2-17.3-39.3c-10.7-4-34.4-4.6-48.1,2C184.5,257.2,181.5,270.9,181.5,270.9z"/>
<path class="st12" d="M257.5,296.3c7.3,41.3-1.4,75.9-2,87c-1,18.4-8.5,21-14.1,23.4s-15.7-0.6-19-9.7c-5.1-14.3-7.5-80.2-7.5-83.9
	C214.9,299.5,255.9,287,257.5,296.3z"/>
<path class="st12" d="M223,392.8c0,0-4.8,28.9-0.6,51.5c3.5,18.9,2.8,41,2.8,41s2.4,11.4,12.7,2.1c0,0,15.9-39.5,18-54
	c1.3-8.9-0.4-41.3-1-44C252.2,378.2,224.6,376.7,223,392.8z"/>
<path class="st12" d="M171.2,296.9c-8.7,41.1-1.3,76-1,87c0.4,18.4,7.8,21.3,13.3,23.9c5.5,2.6,15.7-0.1,19.3-9
	c5.6-14.1,10.4-80.5,10.5-84.1C213.7,301,173.1,287.6,171.2,296.9z"/>
<path class="st12" d="M202.3,394.6c0,0,3.8,29-1.2,51.5c-4.1,18.7-4.2,40.9-4.2,40.9s-2.8,11.3-12.7,1.7c0,0-14.5-40-16.2-54.6
	c-1-8.9,1.8-41.2,2.5-44C173.6,379,201.2,378.4,202.3,394.6z"/>
<path class="st35" d="M256.9,272.1c0,0-65.3,1.2-81.6-1.1c0,0-5.2,16.7-3.5,28.8c0,0,22,0.2,41,14.2h4.2c0,0,30.6-16.7,41.2-15.7
	C258.2,298.3,259.4,285.6,256.9,272.1z"/>
<path class="st36" d="M261.1,269.6c0,0,3.4,22,4.3,29.1c1,7.1-2.1,24.4-2.5,26.6c-0.4,2.2-20.8,10-45.1,9
	c-36.8-1.4-50.2-8.4-50.6-10.9c-1-5.8-2.9-22-2-27.9s6.4-27.8,6.4-27.8S215.6,273.7,261.1,269.6z"/>
<path class="st36" d="M257.8,395.3c1.5,6.5,0.7,13.3-0.1,20c-2.8,23.2-5.6,46.6-12.1,69c-0.9,3.1-2.4,6.6-5.5,7.2
	c-2.8,0.5-5.8,1.1-8.7,0.7c-3.8-0.5-7.4-0.5-10.8-2.3c-3-1.5-3.5-5.5-3.6-8.8c-0.3-6.1-0.5-12.3-0.8-18.4c-0.4-8.5-0.7-17,0.1-25.5
	c0.7-7.1,3.6-13.7,4.3-20.7c0.8-8.1,29.8-24,36.8-4.4c0.8,2.2,0,6-0.1,8.3c-0.1,5.9-0.4,11.8-1.1,17.7c-1.5,13.9-8,25.3-11.4,38.6
	c-1,4.1-1.5,8.3-3.1,12.2c-0.4,0.9-0.8,1.8-1.7,2.1c-0.2,0.1-0.3,0.1-0.5,0.1"/>
<path class="st36" d="M215.7,329c-0.5-15.5,42.2-34.9,47.1-11.5c0,0,0.7,32.2-1.8,56.3c-0.8,7.1-2,16-2.7,20.6l0,0c0,0,2,7.8,0.4,9
	c-1.6,1.3-1.2,2-0.6,3.4c0.6,1.4,1.9,1.9-0.3,3.4c-2.2,1.5-1.9,3.6-1.8,5.1c0.1,0.5-1.3,1.7-3.2,2.9c-1.9,4.2-5,7.5-10.7,8.2
	c-7.3,0.9-17.8,0.1-20.2-1.7C219.8,423,216.3,351.5,215.7,329z"/>
<path class="st36" d="M168,412.3c0,0-1,17.9,0.2,30.2c1.3,12.3,11.9,48.1,11.9,48.1c8,5.9,21.7,1.4,21.7,1.4s3.1-65.4,2.7-73.5
	C204.1,410.4,175.9,393.1,168,412.3z"/>
<path class="st36" d="M214.5,330.8c1.5-15.4-40.8-38.5-47.3-15.5c0,0-1.8,32.8-1,57c0.3,7.1,0.9,16.1,1.2,20.7l0,0c0,0-2.5,7.6-1,9
	c1.5,1.4,1.1,2.1,0.4,3.4c-0.7,1.3-2,1.7,0.1,3.4c2,1.7,1.7,3.7,1.4,5.2c-0.1,0.5,1.1,1.8,3,3.1c1.6,4.4,4.5,7.8,10.1,8.9
	c7.2,1.4,17.7,1.4,20.2-0.3C203.8,424.3,212.2,353.2,214.5,330.8z"/>
<path class="st37" d="M239.5,140.6c1.8-1.7,3.9-2.8,6.6-1.8c2.2,0.9,4.2,1.7,6.6,2.3c1.2,0.3,2.2,0.6,3.3,1.1c1.7,0.8,2.9,2,4.7,2.5
	c1.8,0.5,3.2,1,4.8,2.1c9,6,9.5,8,9.5,8c-0.8,5.9-2.2,11.8-2.7,17.6c-0.3,3.4-1.2,6.5-1.6,9.9c-0.5,4,0.6,8.2-0.8,11.9
	c-4.6,12.5-5.1,17-5.9,25.5c-1.6,16,8.9,22.5,1.1,47c-1.2,3.9-2.6,8.4-6.4,9.8c-3.6,1.4-6.4,0.6-10.2-0.2
	c-8.2-1.7-14.8-0.3-22.1,3.9c-4.8,2.8-12.3,3.5-17.7,2.7c-4.8-0.7-9.2-1.4-13.3-3.9c-3.7-2.3-8.1-3.7-12.4-3.7
	c-1.7,0-3.1,0.8-4.7,0.8c-2,0.1-3.7-1.7-5.2-2.8c-3.2-2.5-4.8-4.8-5.7-8.8c-2.1-9.2-0.5-19.5,1.1-28.7c1-5.7,2.8-11.2,3.4-17
	c0.4-4.5,0.1-9.3-0.3-13.7c-0.8-9.6-4.8-18.7-7.5-27.8c-1.4-4.8-4.1-9.8-4.7-14.7c-0.4-3-0.1-7.5,1.5-10.1c2-3.2,7.3-5.9,10.5-7.7
	c4-2.3,8.3-4.4,12.8-5.4c5.2-1.2,10.5-1.9,15.8-2.5c1.9-0.2,2.9-0.5,4,0.6c3,3,2.7,8,5.4,11.2c1,1.2,1.5,1.2,2.9,0.8
	c1.7-0.6,3.1-1.1,5-1.2c1-0.1,3.9-0.3,4.8,0.1c1.1,0.5,0.2,2.3,1,3.4c2,2.9,3.4,4.5,4,8.2c0.4,2,0.5,4,0.6,6.1c0,1.2-0.3,2.9,0.2,4
	c1.9-3.7,0.8-10.5-0.3-14.4c-0.5-1.8-2.7-5.4-0.5-7c0.7-0.5,2.5-0.6,3.4-1.1c2.3-1.2,4.9-2.6,6.7-4.4
	C237.8,142.3,238.7,141.4,239.5,140.6z"/>
<path class="st38" d="M243.6,134.8c0,0,7.9,0.8,9.7,2.5c1.8,1.6-12.4,18.3-14.3,20.2c-1.9,1.9-4.6-6.5-11.6-9.5
	C227.4,148,242.2,140.1,243.6,134.8z"/>
<path class="st38" d="M206.1,134.6c0,0-7.1,0.8-9,2.4c-1.9,1.6,10.4,19.3,12.9,20.4c3.1,1.4,5.5-6.6,12-9.1
	C222.1,148.3,207.3,140,206.1,134.6z"/>
<path class="st17" d="M222.1,156c-1.1,1.5-3.3,0.8-3.4-1c0-0.3,0.1-0.6,0.3-0.9c1.1-1.5,3.3-0.8,3.4,1
	C222.4,155.4,222.3,155.8,222.1,156z"/>
<path class="st17" d="M222.3,164.8c1-1.4,3-0.9,3.3,0.7c0.1,0.6-0.1,1.1-0.5,1.5c-1.1,1.1-3.1,0.4-3.1-1.3
	C222,165.4,222.1,165.1,222.3,164.8z"/>
<path class="st17" d="M226.8,175.6c1.1-1.7,3.6-0.9,3.4,1.2c0,0.1-0.1,0.3-0.1,0.4c-1,1.8-3.6,1.1-3.5-0.9
	C226.6,176.1,226.7,175.8,226.8,175.6z"/>
<path class="st3" d="M183,531.2c-2.1-1-9-3.2-9-3.2s3.8-20.7,4-21.1c0.8-1.7,0.5-4.8,0.7-6.6c0.6-4.8-0.1-10.3,0.8-10.9
	c1-0.6,10.2-0.4,13.6-0.6c2.1-0.1,7.4,0.1,8.4,0.9c1,0.8,0.7,6.8,0.5,10.6c-0.1,1.4,0,3.4,0,4.4c0.4,5.3,0.6,10.6,0.3,15.8
	c-0.2,3.4,0.4,7.2-2.7,9.3c-3.9,2.7-8,0.7-12.4,1C186,531,184.6,531.1,183,531.2z"/>
<path class="st17" d="M174.2,520.8c0.6-1.3,1.4-2.5,2.3-3.5c4.4-4.5,11.9-5.2,17.3-2.2c4.6,2.5,7.5,7.8,8.4,13.2
	c0.5,2.6-6.1,22.6-18.6,21.2c-6.5-0.7-9.4-4.2-10.5-10.2C172.3,534.9,172.2,525.1,174.2,520.8z"/>
<path class="st34" d="M214.3,71.8c-0.2-0.2-0.5-0.3-0.7-0.5c0.4,2.7-2.6,4.9-4.4,6.4c-1.9,1.6-3.6,3.6-4.2,6c-0.3,1.1,0,2.3-0.7,3.2
	c-0.6,0.8-2,1.5-2.9,0.8c-1.1-0.8-0.7-3.1-0.9-4.3c-0.3-1.5-0.3-2.9-0.3-4.5c0.1-2.9,0.6-5.9,1.8-8.6c1.7-3.8,6.2-9.1,10.6-7.2
	c1.5-7.6,9.9-9.5,16.5-7.5c1,0.3,1.9,0.5,2.9,0.4c2.5-0.3,4.6-1.8,7.2-1.6c3.1,0.3,5.3,2.8,6.4,5.6c0.6,1.4,0.9,2.9,0.8,4.5
	c0,0.6-0.4,1.5-0.1,2.1c0.2,0.6,1.3,1.2,1.7,1.8c0.9,1.4,1.5,3.1,1.9,4.8c0.6,2.4,0.5,4.9,0.3,7.4c-0.1,1.3,0.1,4.4-0.7,5.3
	c-1.5-1.4-1.1-3.6-1.8-5.4c-1.1-2.8-3.7-5.5-3.3-8.8c-3.5,3.4-8.6,3.9-13.2,4c-4.6,0.1-9.2-0.5-13.5-2.1
	C216.3,73.3,215.3,72.6,214.3,71.8z"/>
<path class="st37" d="M293.5,181.1c0.7,2,1.6,3.9,3,5.7c2.3,3,3.1,5.3,4.1,9c0.7,2.4,2.8,5.5,2.3,7.9c-0.6,2.5-3.1,4.1-5.1,5.5
	c-2.2,1.6-3.6,3-5.1,5.1c-4,5.3-10.7,12.8-18.1,12.1c-6.4-0.6-9-6.1-11.7-11.4c-3.2-6.2-4.4-13.5-7.7-19.5c-2.8-5.1-6.1-12.3-3.2-18
	c0.8-1.7,2.2-3.1,3.3-4.7c5-7.1,3.1-26.9,15.2-21.3c6.4,2.9,11.3,9.6,15.2,15.2c2.1,3,4.3,6.1,5.9,9.5
	C292.3,177.9,292.9,179.6,293.5,181.1z"/>
<path class="st37" d="M148.6,169.8c-0.2,0.3-0.4,0.6-0.6,0.9c-2,3.1-4,6.3-5.5,9.6c-1.4-0.4-2.5,1.2-3.1,2.6c-0.5,1.2-1,2.4-1.5,3.5
	c-0.4,0.9-0.8,1.8-0.6,2.8c0.1,0.8,0.6,1.5,1.1,2.1c3.3,4.4,5.5,9.1,7.7,14c1.9,4.2,5.3,6.9,7.7,10.7c2.8,4.4,7.4,9.5,12.3,4.2
	c3.7-4,5.5-11.1,6.8-16.3c1.5-6.1,2-13.1,2-19.4c0-3-0.1-6,0.2-9c0.6-6,2.8-13,7-17.5c2.6-2.8,6.4-5.2,6.7-9
	c0.3-3.3-2.4-6.3-5.6-7.3c-3.1-1-6.6-0.3-9.7,0.9c-2.6,1-5.1,2.4-7.4,4.1c-5.7,4.4-9.7,10.6-13.5,16.6
	C151.3,165.5,149.9,167.6,148.6,169.8z"/>
<path class="st34" d="M229.6,111.8c-0.7-2.4-6.2-3.5-8.4-3.1c-2.9,0.5-3,0.6-5.4,1.8c-1.4,0.7-2.5,2.1-4.2,2.8
	c-2.8-4.1-4.7-8.7-5.2-10.8c-0.4-1.7-1.3-3.2-1.6-5c-0.1-0.9-0.2-1.9-0.7-2.7c-1.2,2.1-1.2,4.7-1.3,7.2c-0.2,4.4-0.7,8.6-0.4,13.1
	c0.2,3.3,1.1,5.4,3.4,7.9c2.4,2.6,8.1,7.1,11.2,8.8c1,0.6,2.2,0.9,3.3,1.3c1.5,0.6,2.9,1.4,4.4,1.8c5.2,1.5,10.8-1.4,14.6-4.9
	c1.9-1.8,1.5-3.1,3.2-5.1c1.4-1.7,2.6-4.7,3.2-6.9c2.3-7.9,2.9-19.6,1.4-18.8c-0.6,0.3-0.1,2.3-0.1,2.8c-0.6,4.7-2.5,10-4.4,10.7
	c-2.1-1.2-4.9-2.2-5.7-2.5C234.3,109,230.5,109.9,229.6,111.8z M218.5,117.2c0.5-1.4,2-2.3,3.5-2.5c2.6-0.4,5.1,0.6,7.7,0.4
	c1.9-0.2,3.8-1.1,5.8-0.7c1.8,0.4,3.3,2.3,2.7,4c-0.3,0.9-1.2,1.6-2,2.2c-1.8,1.3-3.8,2.7-6,2.8c-0.6,0-1.4-0.2-1.5-0.8
	c-0.1-0.3,0.1-0.7-0.1-1c-0.1-0.1-0.3-0.2-0.5-0.2c-0.8-0.1-1.9-0.1-2.1,0.7c-0.1,0.3,0,0.7-0.1,1c-0.1,0.7-1,1.2-1.8,1.1
	c-0.8-0.1-1.4-0.5-2-1c-1-0.7-2.1-1.5-2.8-2.5C218.5,119.8,218.1,118.4,218.5,117.2z"/>
<g>
	<g>
		<path class="st11" d="M171.5,283.7c1.4,8.6,7,16,14.9,19.7c0.1,0,0.2-0.1,0.1-0.1c-0.2-0.2-0.5-0.4-0.7-0.6
			c-0.1-0.1-0.2,0.1-0.1,0.1c0.3,0.2-1.5-0.7-1.8-0.9c-1.1-0.6-2.1-1.4-3.1-2.2c-1.6-1.3-2.9-2.7-4.2-4.4c-2.6-3.4-4.3-7.4-4.9-11.7
			C171.7,283.5,171.5,283.6,171.5,283.7L171.5,283.7z"/>
	</g>
</g>
<g>
	<g>
		<path class="st11" d="M254.9,284.9c0.3-0.4-0.2,2.1-0.3,2.6c-0.3,1.1-0.7,2.2-1.1,3.3c-1,2.4-2.2,4.6-3.6,6.7
			c-2.9,4.2-6.7,7.7-11.1,10.3c-0.1,0.1,0,0.2,0.1,0.1c8.7-5.1,14.8-13.8,16.7-23.8c0-0.1-0.1-0.1-0.1-0.1c-0.2,0.2-0.4,0.5-0.6,0.7
			C254.7,284.8,254.8,284.9,254.9,284.9L254.9,284.9z"/>
	</g>
</g>
<g>
	<g>
		<path class="st11" d="M219.4,283.2c0.7,4.2,1.1,8.4,1.2,12.7c0.1,2.5,0.8,14.7-4.8,12c-0.1,0-0.2,0.1-0.1,0.1
			c3.4,1.7,4.8-2.7,4.9-5.2c0.4-6.5,0-13.1-1.1-19.6C219.6,283.1,219.4,283.1,219.4,283.2L219.4,283.2z"/>
	</g>
</g>
<g>
	<g>
		<path class="st11" d="M212.3,297.1c0.3,8.1,0.5,16.2,0.8,24.2c0,0.1,0.2,0.1,0.2,0c-0.3-8.1-0.5-16.2-0.8-24.2
			C212.5,297,212.3,297,212.3,297.1L212.3,297.1z"/>
	</g>
</g>
<g>
	<g>
		<path class="st11" d="M199.2,402.1c-5.4-2-10.9-3-16.6-3c-0.1,0-0.1,0.2,0,0.2c5.7,0.1,11.2,1.1,16.6,3
			C199.2,402.3,199.3,402.2,199.2,402.1L199.2,402.1z"/>
	</g>
</g>
<g>
	<g>
		<path class="st11" d="M195.7,405.2c0.7,1.2-1.1,0.5-1.7,0.3c-0.9-0.2-1.8-0.5-2.7-0.8c-2.2-0.7-4.2-1.7-6.2-2.8
			c-0.1-0.1-0.2,0.1-0.1,0.1c3.6,2,7.3,3.4,11.3,4.1c0.1,0,0.1-0.1,0.1-0.1c-0.2-0.3-0.4-0.6-0.5-0.9
			C195.8,405,195.6,405.1,195.7,405.2L195.7,405.2z"/>
	</g>
</g>
<g>
	<g>
		<path class="st11" d="M181,409.8c-3.6,1.1-7.3,1.4-11.1,0.8c-0.1,0-0.1,0.1,0,0.2c3.8,0.6,7.5,0.3,11.2-0.8
			C181.1,409.9,181,409.8,181,409.8L181,409.8z"/>
	</g>
</g>
<g>
	<g>
		<path class="st11" d="M181.4,415c-4.1,0.4-8,0-11.9-1.2c-0.1,0-0.1,0.1,0,0.2c3.9,1.3,7.9,1.7,11.9,1.3
			C181.5,415.2,181.5,415,181.4,415L181.4,415z"/>
	</g>
</g>
<g>
	<g>
		<path class="st11" d="M225.1,403.9c7.6-0.3,15.1-0.2,22.7,0.2c0.1,0,0.1-0.2,0-0.2c-7.6-0.4-15.1-0.4-22.7-0.2
			C225,403.8,225,403.9,225.1,403.9L225.1,403.9z"/>
	</g>
</g>
<g>
	<g>
		<path class="st11" d="M226.3,410.4c4.7-1.3,9.4-2.1,14.3-2.4c0.1,0,0.1-0.2,0-0.2c-4.9,0.3-9.6,1.1-14.3,2.4
			C226.1,410.3,226.2,410.4,226.3,410.4L226.3,410.4z"/>
	</g>
</g>
<g>
	<g>
		<path class="st11" d="M226.7,415.7c5.6-2,11.1-4,16.7-6c0.1,0,0.1-0.2,0-0.2c-5.6,2-11.1,4-16.7,6
			C226.6,415.6,226.6,415.7,226.7,415.7L226.7,415.7z"/>
	</g>
</g>
<g>
	<g>
		<path class="st11" d="M225.3,350.5c5.9,4.8,12.4,8.8,19.3,11.8c0.1,0,0.2-0.1,0.1-0.1c-7-3-13.4-7-19.3-11.8
			C225.4,350.3,225.3,350.4,225.3,350.5L225.3,350.5z"/>
	</g>
</g>
<g>
	<g>
		<path class="st11" d="M230.2,358c1.7,1.3,3.4,2.7,5.2,4c0.1,0.1,0.2-0.1,0.1-0.1c-1.7-1.3-3.4-2.7-5.2-4
			C230.2,357.8,230.1,357.9,230.2,358L230.2,358z"/>
	</g>
</g>
<g>
	<g>
		<path class="st38" d="M160.5,212.9c-0.4-1-3-2.5-3.8-3.2c-1.5-1.3-2.9-2.6-4.3-4c-2.8-2.7-5.4-5.6-7.8-8.6
			c-0.2-0.2-0.5,0.1-0.4,0.3c0.1,0.2,0.3,0.5,0.4,0.7c0.2,0.3,0.6,0,0.4-0.2c-0.5,0.3-0.3,0.6,0.3,0.9c0.3,0.3,0.6,0.7,0.9,1
			c0.6,0.7,1.2,1.4,1.8,2c1.3,1.4,2.7,2.8,4,4.2c2.8,2.7,5.7,5.3,8.8,7.6c0.2,0.1,0.5,0,0.4-0.2c-0.1-0.2-0.2-0.5-0.3-0.7
			C160.8,212.5,160.4,212.7,160.5,212.9L160.5,212.9z"/>
	</g>
</g>
<g>
	<g>
		<path class="st38" d="M162,216.7c-3.8-2.1-7.1-5-9.8-8.4c-0.2-0.2-0.5,0.1-0.3,0.3c2.7,3.5,6.1,6.3,9.9,8.5
			C162,217.2,162.3,216.8,162,216.7L162,216.7z"/>
	</g>
</g>
<g>
	<g>
		<path class="st38" d="M270.1,197.7c-0.4-10.2-3.6-20-9.2-28.5c-0.2-0.3-0.6,0-0.4,0.2c5.6,8.5,8.7,18.2,9.1,28.3
			C269.6,198,270.1,198,270.1,197.7L270.1,197.7z"/>
	</g>
</g>
<g>
	<g>
		<path class="st38" d="M280,181.2c-0.5,3.3-1.5,6.5-3,9.6c-0.6,1.3-1.3,2.5-2.1,3.7c-0.6,0.9-1.2,1.8-1.9,2.7
			c-0.4,0.5-2.1,2.1-0.3,0.7c0.2-0.2,0-0.6-0.2-0.4c-0.7,0.5-1,0.9-1.2,1.8c-0.1,0.2,0.2,0.4,0.4,0.2c4.6-5.1,7.6-11.3,8.7-18.1
			C280.5,181,280.1,180.9,280,181.2L280,181.2z"/>
	</g>
</g>
<g>
	<g>
		<path class="st38" d="M281.3,189.6c-2.6,3.1-5.1,6.2-7.7,9.3c-0.2,0.2,0.1,0.6,0.3,0.3c2.6-3.1,5.1-6.2,7.7-9.3
			C281.9,189.7,281.5,189.4,281.3,189.6L281.3,189.6z"/>
	</g>
</g>
<g>
	<g>
		<path class="st38" d="M259.8,223.3c-7,4.5-15.5,5.8-23.5,3.6c-0.3-0.1-0.4,0.4-0.1,0.5c8.2,2.2,16.8,0.9,23.9-3.7
			C260.3,223.6,260.1,223.2,259.8,223.3L259.8,223.3z"/>
	</g>
</g>
<g>
	<g>
		<path class="st38" d="M257.4,230.9c-5,0.5-10,0.4-15-0.5c-0.3-0.1-0.4,0.4-0.1,0.5c5,0.9,10.1,1.1,15.1,0.5
			C257.7,231.3,257.7,230.8,257.4,230.9L257.4,230.9z"/>
	</g>
</g>
<g>
	<g>
		<path class="st38" d="M197.9,238.8c-7.2-3.2-14.8-5.6-22.6-7.3c-0.2,0-0.3,0.1-0.3,0.3c0,0.3,0.1,0.6,0.1,0.8
			c0,0.3,0.5,0.2,0.5-0.1c-0.1-0.6,4.6,0.6,5.1,0.7c1.8,0.5,3.7,1,5.5,1.6c3.9,1.2,7.7,2.7,11.4,4.4
			C197.9,239.4,198.2,239,197.9,238.8L197.9,238.8z"/>
	</g>
</g>
<g>
	<g>
		<path class="st38" d="M188.1,239.6c-3.9-2.3-8.1-3.4-12.6-3.4c-0.3,0-0.3,0.5,0,0.5c4.4,0,8.5,1.2,12.3,3.4
			C188.2,240.1,188.4,239.7,188.1,239.6L188.1,239.6z"/>
	</g>
</g>
<g>
	<g>
		<path class="st38" d="M262,269.2c-9.8,3.8-20.5-0.3-30.3,3.4c-0.3,0.1-0.2,0.6,0.1,0.5c9.8-3.7,20.5,0.4,30.3-3.4
			C262.4,269.5,262.3,269.1,262,269.2L262,269.2z"/>
	</g>
</g>
<g>
	<g>
		<path class="st38" d="M198.4,276.5c-5.3-4.6-12.3-6.6-19.3-5.5c-0.3,0.1-0.2,0.5,0.1,0.5c6.8-1.1,13.6,0.9,18.8,5.4
			C198.3,277,198.7,276.7,198.4,276.5L198.4,276.5z"/>
	</g>
</g>
<g>
	<g>
		<path class="st38" d="M164.9,154.4c2.9,1.9,5,4.6,6.2,7.9c0.1,0.3,0.6,0.2,0.5-0.1c-1.2-3.4-3.4-6.2-6.4-8.2
			C164.9,153.8,164.6,154.2,164.9,154.4L164.9,154.4z"/>
	</g>
</g>
<g>
	<g>
		<path class="st38" d="M265.1,150.6c-1.4,2.6-2.4,5.3-3.2,8.1c-0.1,0.3,0.4,0.4,0.5,0.1c0.7-2.8,1.8-5.5,3.1-8
			C265.7,150.5,265.3,150.3,265.1,150.6L265.1,150.6z"/>
	</g>
</g>
<g>
	<g>
		<path class="st39" d="M214.7,159.8C214.8,159.8,214.8,159.8,214.7,159.8c0.1,0.1,0.3,0.1,0.4,0.1c0.1,0,0.1-0.1,0.2-0.2
			c0.1-0.1,0-0.3-0.1-0.4c0,0,0,0,0,0C215,159,214.6,159.5,214.7,159.8C214.8,159.8,214.8,159.8,214.7,159.8c0.1-0.2,0.1-0.3,0-0.4
			c0,0,0,0,0,0c0.1,0,0.2,0,0.4,0.1c0,0,0,0,0,0C214.9,159.2,214.5,159.6,214.7,159.8L214.7,159.8z"/>
	</g>
</g>
<g>
	<g>
		<path class="st25" d="M227,89.8c0.9,3.2,2,6.4,3,9.7c0.4,1.3,1.1,3,1.1,4.4c0,0.8,0.2,0.7-0.6,1.1c-0.6,0.3-2.4,0.6-2.9,0.1
			c-0.6-0.5-1.4,0.3-0.8,0.8c1.1,1,3.5,0.6,4.7,0c1.1-0.6,1.1-1.3,0.9-2.5c-0.7-4.8-2.7-9.3-4-13.9C228,88.8,226.8,89.1,227,89.8
			L227,89.8z"/>
	</g>
</g>
<path class="st25" d="M232.9,119.2c-1.2,0.6-2.7,0.8-4,0.9c-0.7,0-1.5,0-2.2,0c-1.3-0.1-2.8-0.1-3.9-1c-1-0.8-1.1-2.7,0.2-3.1
	c0.8-0.3,1.7,0.2,2.5,0.4c0.8,0.3,1.7,0.4,2.5,0.4c1.1,0,2.1-0.2,3.1-0.5c0.8-0.3,1.5-0.5,2.3-0.2c1.4,0.6,1.2,2,0.1,2.8
	C233.3,119,233.1,119.1,232.9,119.2z"/>
<g>
	<g>
		<path class="st40" d="M231.5,63.7c-5.5,2.2-11.3,4.4-17.3,2.8c-0.4-0.1-0.5,0.5-0.2,0.6c6.1,1.6,12-0.5,17.7-2.8
			C232,64.1,231.9,63.5,231.5,63.7L231.5,63.7z"/>
	</g>
</g>
<g>
	<g>
		<path class="st40" d="M232.8,65.2c-1.6,0.5-3.3,1.1-4.9,1.6c-0.4,0.1-0.2,0.7,0.2,0.6c1.6-0.5,3.3-1.1,4.9-1.6
			C233.3,65.6,233.1,65.1,232.8,65.2L232.8,65.2z"/>
	</g>
</g>
<g>
	<g>
		<path class="st40" d="M214.7,125c0.9,1.5,2.3,2.5,4,2.9c0.4,0.1,0.5-0.5,0.2-0.6c-1.5-0.3-2.8-1.3-3.6-2.6
			C215,124.4,214.5,124.7,214.7,125L214.7,125z"/>
	</g>
</g>
<g>
	<g>
		<path class="st40" d="M214,126.7c1,0.4,1.8,1.1,2.3,2.1c0.2,0.3,0.7,0,0.5-0.3c-0.6-1-1.4-1.8-2.5-2.3
			C213.9,126.1,213.6,126.6,214,126.7L214,126.7z"/>
	</g>
</g>
<path class="st41" d="M249.3,89.2c-0.6-0.8-0.3-2.3-0.4-3.3c-0.2-1.4-0.5-2.7-0.6-4.1c-0.1-0.7-0.1-1.5,0.1-2.1
	c0.2-0.7,0.9-0.8,1.3-0.1c0.2,0.4,0.2,0.7,0.2,1.1c0.1,0.9-0.1,1.8-0.1,2.8c0,1,0,2,0,3c0,0.6,0.1,1.2,0,1.8
	C249.8,88.4,249.5,89.5,249.3,89.2z"/>
<path class="st41" d="M200.3,84.1c0.7,3.8,2.1,7.4,3.6,11c0.2-4.3,0.3-8.7,1.7-12.8c0.4-1.2,0.9-2.5,0.4-3.7
	c-0.7-1.6-2.7-1.9-4.5-1.9c0.4,0,0.3-2.7-0.3-2.9c-0.9-0.3-1,2-1.1,2.6C199.8,79,199.9,81.6,200.3,84.1z"/>
<g>
	<g>
		<path class="st34" d="M217,97.9C217,97.9,217.1,97.9,217,97.9c-0.1-0.1-0.4-0.2-0.6-0.4c-0.5-0.7-0.4-1.3,0.5-1.8
			c0.3,0,0.5,0,0.8,0c0.8,0.5,1,1.1,0.5,1.8c-0.2,0.1-0.4,0.3-0.7,0.4c0,0,0.1,0,0.1,0c-0.5-0.1-1-0.3-1.5-0.4
			c0.1,0.1,0.3,0.2,0.4,0.4c-0.1-0.5-0.3-1-0.4-1.5c0-0.1,0-0.1,0.1-0.2c0.2-0.2,0.4-0.4,0.5-0.5c0.2,0,0.3-0.1,0.5-0.1
			c0.3,0.1,0.5,0.1,0.8,0.2c0,0-0.1,0-0.1,0c0.2,0.4,0.5,0.9,0.7,1.3c0,0,0-0.1,0-0.1c-0.1,0.3-0.3,0.7-0.4,1.1c0,0,0,0,0.1-0.1
			c-0.2,0.1-0.4,0.3-0.7,0.4c-0.1,0-0.2,0-0.3,0c-0.3-0.1-0.7-0.3-1.1-0.4c0,0,0,0,0,0.1c0.5,0.6,1.6,0.5,2.1,0
			c0.6-0.6,0.5-1.5,0-2.1c-0.9-1.1-2.9-0.2-2.8,1.1c0,0.5,0.3,1.1,0.7,1.3c0.6,0.2,1,0.3,1.6,0.1c0.5-0.2,0.9-0.7,1-1.2
			c0.1-0.5,0-1.1-0.4-1.5c-0.1-0.1-0.3-0.2-0.4-0.4c-0.4-0.3-1-0.6-1.5-0.4c-0.8,0.3-1.4,1-1.3,1.9c0,1,0.8,1.8,1.8,1.8
			c1,0,1.8-0.8,1.8-1.8c0-0.9-0.5-1.5-1.3-1.9c-0.7-0.3-1.6,0.3-1.8,1C215.7,96.9,216.3,97.6,217,97.9L217,97.9z"/>
	</g>
</g>
<g>
	<g>
		<path class="st25" d="M241,100.9c-2.4,0.2-4.7-0.1-6.9-1.1c-0.3-0.1-0.5,0.3-0.2,0.4c2.3,1,4.7,1.4,7.1,1.1
			C241.3,101.3,241.3,100.8,241,100.9L241,100.9z"/>
	</g>
</g>
<g>
	<g>
		<path class="st25" d="M219.9,99.6c-2,1.1-4.2,1.5-6.5,1.3c-0.3,0-0.3,0.4,0,0.5c2.4,0.2,4.6-0.3,6.7-1.4
			C220.4,99.9,220.2,99.5,219.9,99.6L219.9,99.6z"/>
	</g>
</g>
<path class="st9" d="M275.9,267c-1.5-1.7-9.3-6.3-9.3-6.3s-6.3,6.5-8.7,8l-1.3,1c-1.5,1.2-3.2,2.1-4.7,3.4c-2.3,2-4.9,3.7-7.3,5.6
	c-2.5,2.1-4.8,4.3-7.1,6.6c-0.6,0.6-0.5,1.4-0.1,2c0.4,0.7,1.2,1.2,2.1,0.6l11.6-7.9c-4.3,3.4-8.6,6.8-12.8,10.2
	c-1.5,1.2,0.6,3.6,2.1,2.8c2.1-1.1,4.1-2.3,6.1-3.5c2-0.9,3.9-1.9,5.8-2.9c-2.9,2.2-6,4.1-9.3,5.7c-1.2,0.6-0.7,2.4,0.2,3.1
	c1.4,1,4-0.9,5.3-1.5c0.2,0.6,0.6,1.1,1.4,1.1c3.8-0.1,7.1-2.7,10-5c6.1-3.7,15.5-15.8,15.6-15.9c1.3-1.1,3.8-3.7,3.8-3.7
	S277.1,268.3,275.9,267z"/>
<path class="st9" d="M156.9,266.9c1.3-1.9,5.2-11.4,5.2-11.4s10.2,9.6,12.8,10.8l1.4,0.8c1.7,1,3.4,1.7,5.1,2.8
	c2.5,1.7,5.3,3,7.9,4.7c2.7,1.7,5.3,3.6,7.8,5.7c0.7,0.6,0.7,1.3,0.3,1.9c-0.3,0.8-1.1,1.3-2,0.8l-12.5-6.5c4.7,2.8,9.3,5.7,14,8.5
	c1.6,1-0.2,3.6-1.8,3c-2.2-0.8-4.4-1.8-6.5-2.8c-2.1-0.7-4.1-1.4-6.1-2.2c3.2,1.8,6.5,3.3,10,4.5c1.2,0.4,1,2.3,0.2,3.1
	c-1.3,1.2-4.1-0.4-5.5-0.9c-0.1,0.6-0.5,1.2-1.3,1.2c-3.8,0.3-7.4-1.8-10.6-3.7c-6.5-2.9-17.3-13.8-17.4-13.9
	c-1.4-1-4.3-3.2-4.3-3.2S155.9,268.5,156.9,266.9z"/>
<path class="st3" d="M234.2,117.6c-1.4,0.3-3,0.3-4.5,0.3c-1.7,0-3.4-0.3-5.1-0.6c-0.8-0.2-1.7-0.4-2.5-0.6c0.2-0.3,0.4-0.5,0.8-0.6
	c0.8-0.3,1.7,0.2,2.5,0.4c0.8,0.3,1.7,0.4,2.5,0.4c1.1,0,2.1-0.1,3.1-0.5c0.8-0.3,1.5-0.5,2.2-0.1
	C233.9,116.5,234.2,117,234.2,117.6z"/>
<g class="st42">
	<path class="st43" d="M188.3,16.9c-1-11.2-20-18.6-42.3-16.5s-39.5,12.9-38.5,24.1c0.4,4.7,4,8.7,9.7,11.7
		c-2.9,0.4-5.8,0.8-8.7,1.4C75.7,44,51.7,62.7,55,79.1c3.3,16.5,32.5,24.6,65.3,18c8.5-1.7,16.3-4.2,23.3-7.2l39.1,13.5l-23.9-22
		c10.8-7.8,16.7-17.2,15-25.9c-1.4-6.9-7.3-12.3-16-15.8c2.8-0.6,5.5-1.2,8-2l23.1,14.8l-12.4-19.4
		C184.2,28.6,188.8,22.8,188.3,16.9z"/>
	<path class="st43" d="M154.9,118.1c-1.4-8.5-16.3-13.3-33.3-10.6c-17,2.7-29.7,11.8-28.4,20.4c1.4,8.5,16.3,13.3,33.3,10.6
		c4.4-0.7,8.5-1.8,12.1-3.3l19.5,3.6l-11.5-7.7C152.4,127.3,155.6,122.7,154.9,118.1z"/>
</g>
<g class="st44">
	<path class="st43" d="M459.3,26.2c0.9-9.7,17.4-16.2,36.7-14.3s34.4,11.2,33.5,20.9c-0.4,4.1-3.5,7.6-8.5,10.2
		c2.5,0.3,5,0.7,7.6,1.2c28.5,5.7,49.3,21.9,46.5,36.2c-2.8,14.3-28.3,21.3-56.8,15.7c-7.4-1.5-14.2-3.6-20.3-6.3l-29.1,11.9
		l15.9-19.3c-9.4-6.8-14.5-14.9-13-22.5c1.2-6,6.3-10.7,13.9-13.7c-2.4-0.5-4.8-1.1-7-1.8L463.1,53l6.4-12.7
		C462.8,36.4,458.9,31.4,459.3,26.2z"/>
	<path class="st43" d="M488.3,114.2c1.2-7.4,14.1-11.5,28.9-9.2c14.8,2.4,25.8,10.3,24.7,17.7c-1.2,7.4-14.1,11.5-28.9,9.2
		c-3.8-0.6-7.4-1.6-10.6-2.8l-13.7,5.3l6.8-8.9C490.5,122.2,487.7,118.1,488.3,114.2z"/>
</g>
<g>
	<g>
		<path class="st34" d="M238.8,98.5c1.9,0,1.9-3,0-3C236.8,95.5,236.8,98.5,238.8,98.5L238.8,98.5z"/>
	</g>
</g>
<g>
	<g>
		<path class="st40" d="M247.1,75.1c0.3,1.5,0.7,3.1,1,4.6c0.2-0.1,0.4-0.1,0.6-0.2c-0.4-1.1-0.5-2.2-0.8-3.3
			c-0.3-1.2-1.3-2.4-1.1-3.8c0.1-0.4-0.5-0.5-0.6-0.2c-0.2,1.3,0.5,2.1,0.9,3.3c0.5,1.3,0.5,2.7,1,4.1c0.1,0.3,0.7,0.2,0.6-0.2
			c-0.3-1.5-0.7-3.1-1-4.6C247.5,74.6,247,74.7,247.1,75.1L247.1,75.1z"/>
	</g>
</g>
<g>
	<g>
		<path class="st38" d="M227.3,148c-4.9,0.7,0.3,8.9,1,11.3c0.9,2.6,1.1,5.5,0.3,8.2c-0.6,2.1-1.8,3.7-2.9,5.6c-1.2,2-3,5.2-1.7,7.5
			c0.1,0.3,0.6,0,0.4-0.2c-1.5-2.8,1.5-6.7,2.9-9c1.7-2.7,2.5-5.7,2.1-8.9c-0.3-2.3-1.1-4.3-2-6.3c-0.8-1.8-3.5-7.1,0-7.6
			C227.7,148.4,227.6,147.9,227.3,148L227.3,148z"/>
	</g>
</g>
<g>
	<g>
		<path class="st38" d="M170.4,213.3c1.7-4.5,4.1-8.7,6.2-13.1c1.9-4.1,3.6-8.3,6.1-12.1c0.2-0.3-0.2-0.5-0.4-0.2
			c-2.6,4.1-4.4,8.5-6.4,12.9c-2,4.1-4.2,8.1-5.8,12.4C169.8,213.5,170.3,213.6,170.4,213.3L170.4,213.3z"/>
	</g>
</g>
<g>
	<g>
		<path class="st38" d="M177.7,207.7c-0.6-3.1,1.2-6.1,2.7-8.7c0.2-0.3-0.3-0.5-0.4-0.2c-1.6,2.7-3.4,5.8-2.7,9
			C177.3,208.1,177.8,208,177.7,207.7L177.7,207.7z"/>
	</g>
</g>
<g>
	<g>
		<path class="st38" d="M265.7,217.5c-2.9-3.6-3.6-8.6-4.8-12.9c-1.1-3.9-2.6-7.7-4.7-11.2c-0.2-0.3-0.6,0-0.4,0.2
			c2.6,4.2,4.1,8.8,5.3,13.5c1,3.7,1.8,7.6,4.2,10.7C265.5,218.1,265.9,217.7,265.7,217.5L265.7,217.5z"/>
	</g>
</g>
<g>
	<g>
		<path class="st38" d="M255.8,198.9c-0.3-1.1-0.5-2.2-0.7-3.3c0-0.3-0.5-0.3-0.5,0c0.2,1.2,0.4,2.3,0.7,3.5
			C255.5,199.3,255.9,199.2,255.8,198.9L255.8,198.9z"/>
	</g>
</g>
</svg>
