<?xml version="1.0" encoding="utf-8"?>
<!-- Generator: Adobe Illustrator 23.0.2, SVG Export Plug-In . SVG Version: 6.00 Build 0)  -->
<svg version="1.1" id="Layer_1" xmlns="http://www.w3.org/2000/svg" xmlns:xlink="http://www.w3.org/1999/xlink" x="0px" y="0px"
	 viewBox="0 0 952.7 667.16" style="enable-background:new 0 0 952.7 667.16;" xml:space="preserve">
<style type="text/css">
	.st0{opacity:0.1;fill:#007CC7;}
	.st1{fill:#DDD466;}
	.st2{fill:#FFF4D6;}
	.st3{fill:#108C85;}
	.st4{fill:#00B1AA;}
	.st5{fill:#AFC7D7;}
	.st6{filter:url(#Adobe_OpacityMaskFilter);}
	.st7{fill:#FFFFFF;}
	.st8{opacity:0.48;mask:url(#SVGID_1_);fill:#99AFBC;}
	.st9{fill:#99AFBC;}
	.st10{fill:#002042;}
	.st11{fill:#F0E6E1;}
	.st12{fill:#803D3D;}
	.st13{fill:#945549;}
	.st14{fill:#363A5E;}
	.st15{fill:#5E2C2C;}
	.st16{fill:#6B4C33;}
	.st17{opacity:0.43;fill:#5E2C2C;}
	.st18{fill:#422645;}
	.st19{fill:#5E8296;}
	.st20{fill:#C09B7E;}
	.st21{opacity:0.48;fill:#422645;}
	.st22{fill:#9B6C53;}
	.st23{fill:none;stroke:#5E2C2C;stroke-width:1.1554;stroke-linecap:round;stroke-linejoin:round;stroke-miterlimit:10;}
	.st24{fill:#D3B197;}
	.st25{fill:#C9C1BD;}
	.st26{fill:#007CC7;}
	.st27{opacity:0.27;fill:#5E2C2C;}
	.st28{fill:#FBD5AF;}
	.st29{fill:#9A4545;}
	.st30{fill:#F7F0EC;}
	.st31{fill:#853535;}
	.st32{fill:none;stroke:#853535;stroke-width:1.4343;stroke-linecap:round;stroke-linejoin:round;stroke-miterlimit:10;}
	.st33{opacity:0.27;fill:#C9C1BD;}
	.st34{fill:none;}
	.st35{opacity:0.76;}
	.st36{opacity:0.78;}
	.st37{fill:#E8664A;}
	.st38{fill:none;stroke:#C9C1BD;stroke-width:1.5212;stroke-miterlimit:10;}
	.st39{fill:#E0585E;}
	.st40{fill:#F5E7D8;}
	.st41{fill:#361C15;}
	.st42{opacity:0.83;fill:#F0E6E1;}
	.st43{opacity:0.29;fill:#F0E6E1;}
	.st44{opacity:0.37;fill:#F0E6E1;}
	.st45{fill:#634138;}
</style>
<path class="st0" d="M951.97,319.99c-5.08,45.54-22.5,70.86-43.58,88.02c-35.81,29.17-82.14,34.72-96.32,75.75
	c-22.5,65.17,32.49,76.44,38.69,103.32c0.65,2.81,1.06,5.55,1.23,8.18c0.01,0.07,0.01,0.13,0.02,0.19c0.02,0.43,0.04,0.85,0.06,1.27
	v0.4c0.01,0.28,0.02,0.55,0.02,0.82c0,0.19,0,0.39-0.01,0.57c0.01,0.1,0.01,0.19,0,0.28c0,0.3-0.01,0.58-0.02,0.87
	c0,0.12-0.01,0.23-0.02,0.35c0,0.15-0.01,0.3-0.02,0.45c-0.01,0.26-0.03,0.53-0.05,0.8c-9.16,120.8-555.34,31.7-742.4-2.42
	c-91.56-16.7-138.5-119.87-90.43-199.57c0.72-1.19,1.45-2.4,2.21-3.61c75.72-120.71,165.32-85.05,204.5-219.9
	C265.04,40.92,454.39,0.37,642.64,0c188.24-0.38,146.98,116.51,142.82,175.77C781.31,235.04,965.68,197.06,951.97,319.99z"/>
<g>
	<path class="st1" d="M144.38,143.13c0.07,34.62-0.19,69.25-0.77,103.87c-0.58,34.48-1.49,68.95-2.73,103.4
		c-0.7,19.46-1.5,38.92-2.41,58.38c-0.03,0.56,0.84,0.49,0.87-0.06c1.61-34.59,2.89-69.19,3.84-103.8
		c0.95-34.47,1.57-68.94,1.87-103.42c0.17-19.48,0.23-38.95,0.19-58.43C145.25,142.51,144.38,142.57,144.38,143.13z"/>
	<path class="st1" d="M175.45,105.06c-0.85-4.1-3.22-9.64-8.01-10.22c-4.76-0.57-7.68,4.36-9.05,8.18
		c-0.93,2.57-1.66,5.34-3.34,7.55c-1.91,2.5-5.06,2.95-7.38,4.9c-3.23,2.72-4.46,7.06-4.66,11.14c-0.16,3.29,0.64,6.44,0.84,9.7
		c0.24,3.96-1.76,6.82-2.92,10.41c-1.78,5.52-0.58,11.64,2.91,16.21c0.29,0.38,0.87,0.07,0.8-0.31c0.08,0,0.16-0.01,0.24-0.07
		c4.53-2.96,9.14-6,12.75-10.09c3.88-4.4,5.15-9.46,6.78-14.95c1.02-3.45,2.6-6.25,4.96-8.96c1.89-2.17,3.77-4.28,4.9-6.96
		C176.38,116.58,176.55,110.34,175.45,105.06z"/>
	<path class="st1" d="M103.89,164.06c-4.09-0.9-10.12-1.01-12.6,3.12c-2.47,4.1,0.83,8.79,3.75,11.61c1.97,1.9,4.19,3.7,5.51,6.14
		c1.5,2.77,0.62,5.82,1.45,8.74c1.15,4.07,4.62,6.96,8.25,8.81c2.94,1.49,6.13,2.05,9.19,3.21c3.71,1.4,5.5,4.4,8.3,6.93
		c4.3,3.89,10.38,5.3,15.98,3.99c0.47-0.11,0.42-0.76,0.05-0.86c0.03-0.07,0.05-0.15,0.04-0.25c-0.84-5.34-1.73-10.8-3.98-15.76
		c-2.42-5.34-6.52-8.58-10.86-12.31c-2.73-2.35-4.63-4.93-6.14-8.2c-1.21-2.61-2.35-5.19-4.34-7.32
		C114.78,167.93,109.16,165.23,103.89,164.06z"/>
	<path class="st1" d="M196.82,183.79c-0.86-1.61-2.44-3.84-4.27-4.44c-2.03-0.67-4.76,1.25-6.53,2.08
		c-2.51,1.17-4.98,2.45-7.25,4.05c-4.57,3.21-7.56,7.68-10.19,12.52c-1.56,2.87-2.95,5.91-4.89,8.56c-2.34,3.2-5.29,4.48-8.94,5.64
		c-5.19,1.65-9.16,4.98-10.95,10.24c-0.09,0.25,0.07,0.42,0.27,0.47c0.94,3.9,4.8,6.33,8.72,6.29c5.36-0.05,9.28-3.95,12.62-7.65
		c2.29-2.54,4.52-4.4,7.85-5.37c2.56-0.74,5.03-1.46,7.42-2.68c4.21-2.14,7.93-5.21,10.87-8.89c2.98-3.73,5.52-8.33,6.41-13.06
		C198.46,188.88,198.1,186.18,196.82,183.79z"/>
	<path class="st1" d="M144.08,265.25c-1.58-3.92-5.27-6.8-9.55-7.1c-1.65-0.11-3.27,0.36-4.91,0.23c-2.03-0.16-3.65-1.35-5.3-2.44
		c-2.9-1.9-5.73-3.92-8.62-5.84c-5.02-3.34-10.26-6.46-16.06-8.23c-4.65-1.42-12.55-3-16.58,0.76c-1.59,1.48-2.08,4.33-2.46,6.36
		c-0.55,2.95,0.1,5.65,1.05,8.45c0.74,2.19,1.62,4.65,3.61,6.03c2.5,1.74,5.85,0.96,7.16,4.32c0.91,2.34,1.01,4.75,2.53,6.85
		c1.27,1.75,3.07,3.12,5.1,3.85c5.95,2.15,11.61-1.71,16.76-4.18c1.73-0.83,3.66-1.75,5.61-1.88c2.1-0.15,3.66,0.77,5.35,1.84
		c2.41,1.53,5.13,2.56,8.03,2.11c5.15-0.79,7.48-5.86,7.83-10.57C143.92,265.82,144.22,265.59,144.08,265.25z"/>
	<path class="st1" d="M202.99,265.36c-8.37-9.27-20.5,1.37-27.19,7.31c-2.99,2.65-5.84,5.74-9.63,7.23
		c-3.32,1.3-6.97,1.31-10.39,2.26c-5.54,1.55-10.19,5.37-12.9,10.42c-0.14,0.13-0.2,0.33-0.04,0.52c1.3,1.49,2.28,2.85,2.55,4.87
		c0.15,1.14,0.15,2.3,0.74,3.32c0.93,1.63,2.8,2.11,4.57,1.94c2.82-0.28,5.09-2.39,7.94-2.52c3.53-0.16,6.97,2.04,10.5,2.41
		c5.13,0.53,10.42-0.91,14.12-4.61c1.94-1.93,2.81-5.12,5.09-6.63c2.45-1.62,5.77-0.98,8.53-1.47c4.93-0.88,7.47-6.09,8.78-10.47
		C207.16,274.93,206.59,269.35,202.99,265.36z"/>
	<path class="st2" d="M181.13,338.25c-0.03-0.19-0.2-0.41-0.42-0.37c-7,1.25-73.75,4.54-80.48,4.18l0-0.05
		c0-0.51-0.79-0.45-0.79,0.05c0,0.04,0,0.08,0,0.12c-0.15,0.17-0.17,0.43,0,0.56c-0.07,11.47-0.12,22.95,0.21,34.41
		c0.32,10.94,1.18,21.74,3.76,32.4c2.49,10.3,6.2,20.27,10.69,29.86c2.16,4.62,4.51,9.16,6.99,13.62c0.97,1.73,1.87,4.05,3.27,5.46
		c1.34,1.35,3.59,0.67,5.25,0.49c12.9-1.4,25.79-2.8,38.69-4.2c0.19-0.02,0.31-0.14,0.36-0.32c4.48-14.48,7.48-29.36,9.62-44.36
		c2.12-14.94,3.79-30.11,4.41-45.19C183.05,356,182.54,347.08,181.13,338.25z"/>
	<path class="st3" d="M168.12,94.98c-0.21-0.05-0.42-0.09-0.64-0.12c-0.09-0.01-0.17-0.01-0.26-0.01
		c1.26,6.74,0.43,13.84-3.85,19.42c-1.95,2.54-4.33,4.71-6.22,7.29c-1.74,2.38-2.85,5.04-3.46,7.91c-1.52,7.09-1.01,14.2-4.19,20.93
		c-1.87,3.96-4.99,7.82-5.95,12.08c0.11,0.16,0.22,0.32,0.34,0.47c0.11,0.15,0.27,0.19,0.42,0.17c0.43-2.41,1.61-4.7,2.88-6.86
		c1.75-2.96,3.46-5.83,4.54-9.11c2.24-6.76,1.22-14.2,3.78-20.84c2.36-6.12,8.4-9.73,11.09-15.66
		C168.83,105.72,169.06,100.23,168.12,94.98z"/>
	<path class="st3" d="M194.6,180.75c-1.87,6.05-3.55,12.61-7.76,17.43c-2.13,2.44-4.81,4.4-7.78,5.69c-2.91,1.27-6.1,1.38-9.03,2.53
		c-4.54,1.78-7.36,5.99-10.6,9.39c-2.19,2.3-4.61,4.14-7.7,5.04c-2.47,0.71-5.04,0.86-7.6,0.85c-0.11,0.27-0.23,0.52-0.32,0.79
		c-0.01,0.02,0,0.03-0.01,0.05c5.42-0.02,10.57-0.8,14.82-4.7c4.55-4.19,7.58-9.81,14.03-11.27c6-1.36,11.25-3.4,15.28-8.31
		c3.87-4.72,5.57-10.93,7.35-16.75C195.06,181.23,194.83,180.98,194.6,180.75z"/>
	<path class="st3" d="M133.58,201.29c-1.78-2.73-4.05-5.02-7.1-6.27c-3.63-1.48-8.08-0.89-10.14-4.89
		c-1.82-3.54-1.12-7.72-2.51-11.4c-1.05-2.77-3.06-5.07-5.43-6.8c-4.81-3.52-10.67-4.57-16.42-5.71c-0.21,0.24-0.41,0.49-0.58,0.77
		c6.47,1.28,13.25,2.39,18.17,7.03c3.58,3.38,3.99,7.34,4.68,11.98c0.4,2.68,1.22,5.55,3.53,7.21c2.75,1.98,6.56,1.58,9.55,3.16
		c3.51,1.85,5.6,5.28,7.42,8.66c2.29,4.27,4.71,9.21,9.03,11.53c0.39-0.16,0.33-0.74-0.02-0.83c0.02-0.05,0.03-0.1,0.04-0.15
		C138.77,212.67,136.65,205.99,133.58,201.29z"/>
	<path class="st3" d="M143.49,264.02c-0.2,0.07-0.4,0.14-0.61,0.2c-2.05,0.58-3.73-0.01-5.71-0.36c-3.06-0.54-6.03,0.53-9.03,0.96
		c-2.01,0.29-3.92,0.26-5.79-0.61c-1.68-0.78-3.04-2.1-4.5-3.21c-2.24-1.72-4.8-3.26-7.7-3.37c-3.07-0.12-5.85,1.44-8.88,1.59
		c-4.57,0.23-6.79-3.92-9.14-7.15c-2.55-3.52-5.78-7.19-9.99-8.27c-0.14,0.24-0.27,0.49-0.38,0.75c6.1,1.32,9.32,8.49,13.31,12.87
		c5.32,5.84,11.86-0.73,18.12,1.78c3.11,1.25,5.27,3.86,8.14,5.47c2.87,1.61,5.8,1.27,8.91,0.65c1.59-0.32,3.18-0.7,4.81-0.73
		c1.83-0.04,3.43,0.69,5.22,0.8c1.25,0.08,2.45-0.16,3.58-0.6C143.76,264.53,143.63,264.27,143.49,264.02z"/>
	<path class="st3" d="M182.63,283.84c2.96-0.21,4.65-1.88,6.08-4.34c2.03-3.5,4.12-6.7,8.13-8.12c2.95-1.04,5.59-1.65,7.53-4.25
		c-0.16-0.26-0.33-0.51-0.51-0.75c-0.47,0.67-1.02,1.29-1.68,1.83c-2.72,2.22-6.55,2.1-9.32,4.35c-2.38,1.93-3.68,4.55-5.25,7.1
		c-1.29,2.1-2.83,3.2-5.39,3.34c-1.88,0.1-3.75-0.23-5.63-0.16c-3.48,0.12-6.13,1.45-8.77,3.64c-1.51,1.25-2.95,2.62-4.69,3.56
		c-2.4,1.3-4.52,1.16-7.02,0.34c-4.38-1.44-8.97-0.92-12.75,1.43c-0.15,0.25-0.3,0.51-0.44,0.77c-0.14,0.13-0.2,0.33-0.04,0.52
		c0.02,0.02,0.03,0.04,0.05,0.06c2.79-2.05,6.25-3.07,9.74-2.7c3.08,0.33,5.68,2.15,8.84,1.21c3.41-1.01,5.71-3.86,8.52-5.83
		C174.11,282.99,178.09,284.16,182.63,283.84z"/>
	<path class="st4" d="M164.81,407.03c-2.04,0.14-4.15,0.39-6.19,0.1c-1.97-0.28-3.65-1.19-5.32-2.22c-2.87-1.78-5.61-3.08-9.03-3.37
		c-3.25-0.28-6.55,0.15-9.69,0.97c-3.42,0.9-6.57,2.39-9.56,4.24c-3.44,2.13-6.95,4.59-11.18,4.48c-3.39-0.09-7.17-2.34-10.87-3.68
		c0.15,0.67,0.28,1.34,0.44,2c0.64,2.63,1.35,5.24,2.14,7.83c0.84,0.4,1.61,0.87,2.25,1.33c2.81,2.01,5.36,4.14,8.9,4.62
		c3.02,0.41,6.16-0.25,8.72-1.92c3.2-2.09,5.13-5.64,8.41-7.63c8.03-4.89,17.23,1.53,25,3.71c3.35,0.94,7.05,1.34,10.44,0.31
		c1.65-0.5,2.98-1.39,4.39-2.33c0.98-0.66,2.05-1.36,3.28-1.39c0.25,0,0.49,0.02,0.72,0.07c0.21-1.34,0.41-2.68,0.6-4.03
		c0.27-1.92,0.54-3.85,0.79-5.77c-0.77,0.33-1.46,0.62-2,0.79C173.11,406.38,168.93,406.75,164.81,407.03z M178.7,365.65
		c-7.58,2.15-13.89,10.62-22.45,8.11c-3.95-1.16-6.68-4.22-9.95-6.49c-2.49-1.73-5.33-2.63-8.36-2.73
		c-7.61-0.24-14.29,4.26-20.13,8.61c-3.7,2.75-7.67,7.76-12.73,6.95c-1.96-0.31-3.74-1.22-5.41-2.38c0.11,3.62,0.29,7.23,0.57,10.82
		c0.83,0.33,1.7,0.55,2.61,0.67c3.6,0.46,7.28-0.67,10.43-2.37c7.39-3.99,15.82-14.01,25.21-9.64c6.06,2.82,7.92,12.78,15.96,11.47
		c4.34-0.71,7.29-4.21,10.62-6.73c4.11-3.11,9.73-4.72,14.24-1.47c0.77,0.56,1.51,1.12,2.26,1.62c0.5-5.67,0.88-11.34,1.11-17
		C181.33,365.08,179.98,365.29,178.7,365.65z"/>
</g>
<g>
	<path class="st5" d="M606.47,191.09H273.14c-1.15,0-2.08-0.93-2.08-2.08l0,0c0-1.15,0.93-2.08,2.08-2.08h333.33
		c1.15,0,2.08,0.93,2.08,2.08l0,0C608.55,190.15,607.62,191.09,606.47,191.09z"/>
	<defs>
		<filter id="Adobe_OpacityMaskFilter" filterUnits="userSpaceOnUse" x="247.11" y="93.29" width="348.39" height="93.12">
			<feColorMatrix  type="matrix" values="1 0 0 0 0  0 1 0 0 0  0 0 1 0 0  0 0 0 1 0"/>
		</filter>
	</defs>
	<mask maskUnits="userSpaceOnUse" x="247.11" y="93.29" width="348.39" height="93.12" id="SVGID_1_">
		<g class="st6">
			<rect x="304.31" y="23.87" class="st7" width="269.76" height="166.84"/>
		</g>
	</mask>
	<polygon class="st8" points="247.2,180.98 247.51,180.98 247.51,141.52 266.3,141.52 266.3,113.96 291.67,113.96 291.67,131.18 
		307.01,131.18 307.01,137.45 316.09,137.45 316.09,131.5 326.74,131.5 326.74,118.97 335.19,108.32 349.91,108.32 356.8,119.6 
		356.8,159.06 377.47,159.06 377.47,131.5 413.8,131.5 413.8,139.01 423.82,139.01 423.82,132.12 450.44,132.12 450.44,138.07 
		462.65,138.07 462.65,131.18 465.78,131.18 465.78,101.75 471.42,101.75 471.42,97.68 476.43,93.29 488.33,93.29 492.4,97.68 
		492.4,101.43 497.1,101.43 497.1,131.5 499.92,131.5 499.92,145.9 507.12,145.9 507.12,117.41 530.29,117.41 530.29,134.63 
		538.44,134.63 538.44,120.85 538.44,120.85 538.44,111.14 548.46,111.14 548.46,120.54 550.9,120.54 550.9,128.05 563.8,128.05 
		563.8,133.69 588.54,133.69 588.54,115.53 595.5,115.53 595.5,186.41 247.11,186.41 	"/>
	<g>
		<g>
			<rect x="535.9" y="102.97" class="st9" width="17.22" height="84.63"/>
			<polygon class="st9" points="540.08,103.85 535.93,103.85 535.93,96.98 			"/>
			<polygon class="st9" points="549.01,103.85 553.16,103.85 553.16,96.98 			"/>
		</g>
		<polygon class="st9" points="546.02,35.09 537.95,110.75 550.49,109.07 		"/>
	</g>
	<g>
		<g>
			<path class="st9" d="M446.04,186.25c0,0,2.88-45.12,3.69-51.57s3.93-16.24,6.36-15.94c0,0-10.45,1.65-15.22,7.23
				c-4.77,5.57-2.66,8.97-0.84,25.23c1.66,14.86,3.55,34.9,3.55,34.9L446.04,186.25z"/>
			<path class="st9" d="M467.34,113.75c-18.91-2.27-28.07,14.45-28.07,14.45s6.28-7.26,17.48-4.39
				c11.2,2.87,86.68,38.73,86.68,38.73v-6.96C543.43,155.58,490.64,117.83,467.34,113.75z"/>
		</g>
		<path class="st9" d="M424.66,185c0,0-3.21-43.86-4.02-50.32s-3.93-16.24-6.36-15.94c0,0,10.45,1.65,15.22,7.23
			c4.77,5.57,2.66,8.97,0.84,25.23c-1.66,14.86-3.22,33.65-3.22,33.65L424.66,185z"/>
		<path class="st9" d="M403.03,113.75c18.91-2.27,28.07,14.45,28.07,14.45s-6.28-7.26-17.48-4.39
			c-11.2,2.87-109.54,52.92-109.54,52.92v-6.96C304.09,169.78,379.73,117.83,403.03,113.75z"/>
	</g>
	<rect x="396.67" y="21.51" class="st5" width="5.21" height="169.2"/>
	<g>
		<path class="st5" d="M577.23,190.71H302.39V21.51h274.84V190.71z M307.28,186.34h265.05V25.88H307.28V186.34z"/>
	</g>
	<path class="st0" d="M487.89,62.1c-1.03-3.42,1.68-8.66,16.85-7.91c15.17,0.75,18.88-12.17,33.04-12.36s11.58,11.47,26.07,9.2
		c14.49-2.27,23.05,12.75,6.45,17.68c-16.6,4.93-19.97-2.35-55.79,1.21C492.76,72.08,489.05,65.95,487.89,62.1z"/>
	<path class="st0" d="M395.26,112.23c-1.23-4.09,2.01-10.37,20.18-9.48c18.16,0.9,22.6-14.57,39.55-14.8
		c16.95-0.22,13.87,13.73,31.22,11.01c17.35-2.72,27.59,15.26,7.72,21.17c-19.87,5.91-23.91-2.82-66.8,1.45
		C401.1,124.18,396.64,116.84,395.26,112.23z"/>
	<path class="st0" d="M312.24,75.57c-2.84-0.02-11.61-0.49-8.25-7.79c2.18-4.74,8-0.64,18.75-4.57
		c10.75-3.93,14.84-10.27,29.25-4.98c14.41,5.29,11.61,0.44,19.77,0.53c11.05,0.11,13.69,17.16-3.73,17.53
		C350.61,76.66,327.61,75.7,312.24,75.57z"/>
</g>
<path class="st10" d="M714.56,478.3c0,0-238.42-3.6-238.42-3.6s33.09-104.3,50.39-166.45c17.3-62.15,55.79-10.84,128.5-25.26
	c50.08-9.93,78.7-4.97,85,17.51c3.55,12.66,4.05,25.99,3.39,39.06c-0.65,12.89-3.74,25.61-4.05,38.35
	c-0.45,18.28-5.01,36.08-9.67,53.66c-2.21,8.35-3.44,17.8-6.59,25.81C722.23,459.6,715.67,478.32,714.56,478.3z"/>
<path class="st10" d="M422.54,459.79c0,0-28.68-90.41-43.68-144.28s-48.36-9.4-111.38-21.89c-43.41-8.61-68.22-4.31-73.68,15.18
	c-8.84,31.56,7.8,122.2,22.08,154.11L422.54,459.79z"/>
<path class="st11" d="M518.73,292.17c0,0,17.95-42.19,40.36-46.97c22.41-4.78,34.65-9.54,34.65-9.54s28.87,6.42,46,8.51
	c17.13,2.09,45.96,12.44,55.34,19.84c9.38,7.41,29.8,83.55,29.8,83.55l-23.19,15.52l-65.39-52.9L518.73,292.17z"/>
<g>
	<path class="st12" d="M278.45,288.54c0,0-41.61,7.69-49.66,24.14c-1.11,2.27,1.47,45.13,16.65,77.77c0,0-0.56,28.94,2,51.57
		c0.99,8.81,5.21,13.4,6.96,16.62c7.76,14.28,93.5,11.26,97.6-4.03c0.6-2.23,5.89-4.51,5.86-20.38
		c-0.06-24.01-4.19-46.94-4.19-46.94c10.64-21.09,8.65-80.56,8.65-80.56c-8.95-13.32-44.81-20.56-44.81-20.56
		S304.3,287.07,278.45,288.54z"/>
</g>
<g>
	<path class="st13" d="M337.96,433.15c0,0,2.39,23.28,2.04,34.59c-0.31,10.13-25.77,22.18-46.5,20.55
		c-9.75-0.77-39.45-6.55-39.92-24.8c-0.77-30.33,3.3-42.85,19.99-49.77c13.22-5.48,42.8-7.14,60.14,0.51
		C338.19,416.2,337.96,433.15,337.96,433.15z"/>
</g>
<g>
	<path class="st14" d="M248.5,437.78c0,0,76.97-1.28,97.27-4.85c0,0,7.22,20.68,5.6,35.85c0,0-22.79,1.15-46.02,19.41l-5.27,0.18
		c0,0-38.85-19.6-52.07-17.84C248.01,470.54,245.93,454.75,248.5,437.78z"/>
</g>
<g>
	<path class="st15" d="M316.69,479.65c0,0,3.92,13.06,3.5,15.89c-0.23,1.54-1.79,12.6-0.9,17.25c0.74,3.89,3.29,4.84,3.29,4.84
		c0.03-0.38,8.06-21.19,7.96-23.28C330.42,492.28,316.69,479.65,316.69,479.65z"/>
</g>
<g>
	<path class="st12" d="M313.77,467.08c-1.37,2.33,1.4,28.25,1.3,32.4c-0.07,2.56,3.37,2.73,3.9,1.68c1.6-3.18-0.13-14.39,0.17-15.75
		C319.43,484.07,316.26,462.85,313.77,467.08z"/>
</g>
<g>
	<path class="st12" d="M313.72,469.11c-0.59-6.87,10.51-11.37,15.88,2.17c1.5,3.77,7.43,22.7,7.7,25.41
		c0.27,2.72-10.17,20.12-11.27,21.31c-1.1,1.19-3.74-0.21-3.91-0.85c-0.31-1.18,5.74-18.02,6.51-21.48
		C328.98,494.13,314.2,474.65,313.72,469.11z"/>
</g>
<g>
	<path class="st12" d="M357.59,305.56c0,0,12.93,4.86,20.45,48.1c4.28,24.63,5.95,41.18,5.44,45.74
		c-0.51,4.56-10.16,28.47-27.9,17.08c-3.07-1.97-14.87-60.45-15.87-65.52C338.69,345.88,325.73,293.4,357.59,305.56z"/>
</g>
<g>
	<path class="st12" d="M383.5,394.4c0,0,7.84,22.08,9.35,39.31c1.5,17.23,2,46.07,2,46.07s-11.5,15.59-15.69,3.27
		c-3.13-9.19-11.35-24.13-17.47-40.47c-9.78-26.09-9.07-43.33,3.36-47.51C379.39,390.23,383.5,394.4,383.5,394.4z"/>
</g>
<g>
	<g>
		<path class="st16" d="M354.48,296.7c2.02,0.59,3.77,1.9,5.05,4.14c2.87,5.06,5.73,10.12,8.6,15.18c2.56,4.51,5.12,9.03,7.23,13.77
			c5.25,11.75,7.63,24.55,9.78,37.23c0.3,1.76,0.59,3.51,0.89,5.27c0.11,0.65,0.21,1.35-0.09,1.93c-0.76,1.47-2.94,0.83-4.59,0.98
			c-2.07,0.19-3.63,1.9-5.43,2.94c-1.97,1.15-4.29,1.5-6.55,1.84c-5.29,0.79-10.58,1.57-15.87,2.36c-1.57,0.23-3.2,0.46-4.72,0
			c-1.48-0.45-2.69-1.51-3.78-2.61c-7.12-7.23-8.12-17.17-10.71-26.65c-2.19-8.02,0.13-16.04-1.72-24.15
			c-1.71-7.45,1.12-16.47,5.49-22.5C341.84,301.18,347.44,294.63,354.48,296.7z"/>
	</g>
</g>
<g>
	<g>
		<g>
			<g>
				<g>
					<path class="st12" d="M281.67,271.17c0.15,0.51-2.22,26.62-2.22,26.62s24.28,10.79,43.93,1.05l-0.88-27.37L281.67,271.17z"/>
				</g>
			</g>
		</g>
	</g>
</g>
<path class="st17" d="M280.5,286.21c-0.11-0.03,0.33-3.97,0.65-7.81l1.65-7.69c3.61,0.74,5.45,9.77,9.07,10.46
	c6.1,1.16,15.01,1.58,22.95-0.08C314.7,288,308.68,293.63,280.5,286.21z"/>
<path class="st12" d="M303.73,193.91c-7.1-0.06-14.46,1.22-20.46,5.21c-4.68,3.11-8.1,7.69-10.14,12.89
	c-0.86,2.2-1.49,4.5-1.91,6.82c-0.18,1.01-0.36,2.04-0.44,3.06c-0.07,0.89,0.26,1.56-0.13,2.42c-0.44,1-2.24-1.18-2.31-0.07
	c-0.24,3.98,0.76,9.22,1.82,10.98c0.25,0.42,0.55,0.81,0.74,1.26c0.45,1.02,0.44,2.34,0.41,3.44c-0.24,8.8-3.36,18.8,1.34,26.96
	c3.64,6.32,15.4,17.19,29.62,17.74c4.43,0.17,9.11-0.87,13.17-2.63c2.98-1.29,5.26-3.66,7.97-5.44c6.08-3.99,11.59-9.64,12.47-17.19
	c0.66-5.64-1.33-11.12-1.46-16.73c-0.11-4.73,2.47-8.11,2.84-12.81c0.18-2.22,0.37-4.81-0.02-7c-0.56-3.1-2.43-6.34-3.61-9.27
	c-0.69-1.72-0.79-3.53-1.55-5.18c-0.87-1.89-1.96-3.69-3.31-5.28c-2.73-3.22-6.38-5.45-10.33-6.85
	C313.77,194.58,308.68,193.95,303.73,193.91z"/>
<path class="st18" d="M268.1,220.88c0.14-2.08,0.41-4.17,0.85-6.2c0.56-2.59,1.2-5.36,2.33-7.75c1.36-2.9,3.16-5.6,5.38-7.92
	c2.62-2.73,6-4.63,9.48-6.1c4.5-1.89,9.39-2.67,14.25-2.75c1.7-0.03,3.42-0.01,5.12,0.15c5.84,0.53,11.77,1.76,16.98,4.53
	c5.56,2.95,10.61,8.18,12.86,14.07c1.06,2.78,1.52,5.26,1.88,8.21c0.15,1.28,0.73,12.75-1.21,11.79c-0.44-0.22-0.67-0.72-0.81-1.19
	c-0.41-1.48-0.21-3.05-0.32-4.57c-0.11-1.53-0.64-3.2-1.98-3.93c-0.74-0.41-1.64-0.48-2.34-0.95c-1.13-0.76-1.39-2.31-1.3-3.67
	c0.09-1.36,0.42-2.74,0.09-4.06c-0.39-1.57-1.69-2.79-3.16-3.48c-1.47-0.69-3.1-0.91-4.71-1.11c-6.13-0.74-12.31-1.11-18.48-1.13
	c-4.12-0.01-8.37-0.71-12.45,0.05c-0.9,0.17-1.82,0.41-2.54,0.99c-0.68,0.55-1.1,1.35-1.47,2.14c-0.86,1.84-1.53,3.77-2.01,5.74
	c-0.14,0.6-0.34,1.29-0.91,1.53c-0.22,0.09-0.46,0.09-0.69,0.1c-2.05,0.04-4.61-0.46-6.34,0.85c-1.85,1.4-1.68,4.1-2.13,6.23
	c-0.03,0.15,0,3.11-3.58,2.88c-0.77,0.01-2.04-0.12-2.47-0.48c-0.17-0.14-0.37-2.59-0.36-2.81
	C268.05,221.64,268.07,221.26,268.1,220.88z"/>
<ellipse transform="matrix(0.9997 -0.0242 0.0242 0.9997 -5.7441 7.2416)" class="st18" cx="295.74" cy="240.49" rx="2.28" ry="3.48"/>
<path class="st18" d="M325.07,241.34c0.05,1.92-0.93,3.51-2.19,3.54c-1.26,0.03-2.31-1.5-2.36-3.43s0.93-3.51,2.19-3.54
	C323.97,237.88,325.03,239.41,325.07,241.34z"/>
<path class="st18" d="M334.43,231.72c-0.26-1.22-1.3-2-2.42-2.56c-0.07-0.05-0.11-0.12-0.2-0.16c-4.8-2.37-10.01-3.66-15.13-0.73
	c-1.39,0.8-1.44,2.92,0.08,3.39c3.29,1.02,15.39,3.69,17,2.11C334.33,233.22,334.6,232.55,334.43,231.72z"/>
<path class="st18" d="M300.97,226.16c-0.77-0.98-2.05-1.21-3.3-1.23c-0.08-0.01-0.15-0.06-0.25-0.06c-5.35,0-10.6,1.15-13.89,6.05
	c-0.9,1.33,0,3.26,1.57,3.01c3.41-0.54,15.43-3.5,16.18-5.63C301.55,227.55,301.49,226.83,300.97,226.16z"/>
<g>
	<g>
		<path class="st19" d="M229.79,487.12c-0.63,10.22,1.62,20.05,6.63,28.98c0.22,0.4,0.84,0.04,0.61-0.36
			c-4.95-8.84-7.15-18.51-6.53-28.62C230.53,486.66,229.82,486.66,229.79,487.12L229.79,487.12z"/>
	</g>
</g>
<g>
	<g>
		<path class="st19" d="M274.19,473.64c1.85,11.62,7.42,21.98,16.08,29.94c0.34,0.31,0.84-0.19,0.5-0.5
			c-8.58-7.89-14.06-18.12-15.9-29.63C274.8,473.01,274.12,473.2,274.19,473.64L274.19,473.64z"/>
	</g>
</g>
<path class="st20" d="M258.77,291.26c1.59-0.67,3.4-0.25,4.58,1.06c3.46,3.82,12.38,11.11,29.61,10.53
	c23.09-0.78,30.98-9.54,33.37-13.48c0.67-1.1,1.93-1.61,3.13-1.29c5.19,1.69,10.39,3.39,15.58,5.08c3.13,1.02,5.36,1.35,6.85,4.35
	c2.03,4.11,2.18,10.56,2.92,15.07c3.51,21.38,4.24,43.22,2.15,64.78c-0.39,3.99-0.87,8.01-0.47,12c0.36,3.56,1.4,7.01,2.24,10.48
	c2.11,8.79,2.87,17.91,2.24,26.92c-0.54,7.7-2.1,15.33-2.22,23.06c-0.12,7.44,1.17,14.87,2.18,22.23
	c1.54,11.14,6.94,22.76,4.67,33.86c-2.2,10.76-7.7,9.28-15.3,14.57c-1.38,0.96-3.17,0.8-4.81,0.69c-7.01-0.44-9.25-0.29-15.7,2.63
	c-3.32,1.5-6.49,3.43-9.94,4.55c-14.85,4.82-30.3-6.15-45.84-5.74c-8.23,0.22-23.39,9.76-29.14-0.12c-1.28-2.2-1.75-4.8-2.19-7.33
	c-1.94-11.02-3.89-22.13-3.67-33.33c0.14-7,1.13-13.96,1.34-20.96c0.65-20.81-2.27-41.47-3.47-62.26
	c-0.33-5.74,0.79-11.83,2.11-18.93c0.97-5.22-0.74-10.62-1.55-15.87c-1.76-11.33-3.53-22.65-5.29-33.98
	c-1-6.46-6.01-20.23-1.77-25.94C235.22,297.43,251.5,294.32,258.77,291.26z"/>
<path class="st21" d="M268.43,222.21c-0.19,0.58-0.22,1.21-0.23,1.82c-0.04,3.44,0.49,6.89,1.57,10.16c0.2,0.61,0.52,1.3,1.14,1.44
	c0.61,0.13,1.2-0.36,1.44-0.94c0.24-0.58,0.23-1.22,0.3-1.84c0.13-1.09,0.53-2.13,0.81-3.19c0.77-2.85,0.74-5.86,1.17-8.78
	c0.08-0.53,0.17-1.1-0.07-1.58c-0.29-0.58-1-0.86-1.65-0.81c-0.65,0.06-1.24,0.4-1.76,0.79c-1.21,0.9-2.18,2.12-2.79,3.5"/>
<path class="st21" d="M337.88,224.53c-0.16,2.32,0.24,5.68-1.53,7.49c-0.79-0.41-0.84-1.5-0.8-2.38c0.08-1.44,0.15-2.88,0.23-4.32
	c0.08-1.49,0.18-3.04,0.94-4.32c0.07-0.11,0.16-0.23,0.29-0.22c0.09,0.01,0.16,0.08,0.21,0.15
	C338.01,221.91,337.97,223.29,337.88,224.53z"/>
<g>
	<g>
		<path class="st22" d="M257.02,328.89c8.19,8.85,20.99,10.38,31.23,15.88c12.46,6.69,22.66,16.75,32.64,26.59
			c0.33,0.32,0.83-0.18,0.5-0.5c-9.25-9.11-18.65-18.34-29.87-25.04c-10.84-6.47-25.22-7.93-34.01-17.43
			C257.21,328.06,256.71,328.56,257.02,328.89L257.02,328.89z"/>
	</g>
</g>
<g>
	<g>
		<path class="st22" d="M301.92,361.19c2.45,1.67,4.59,3.7,6.41,6.05c0.28,0.36,0.78-0.14,0.5-0.5c-1.85-2.4-4.05-4.45-6.55-6.16
			C301.9,360.32,301.54,360.94,301.92,361.19L301.92,361.19z"/>
	</g>
</g>
<g>
	<g>
		<path class="st22" d="M293.66,433.41c-11.82-1.01-23.67,0.74-34.61,5.4c-2.47,1.05-17.94,6.69-11.19,10.5
			c9.67,5.46,23.64,4.89,34.29,4.52c13.47-0.47,26.98-1.79,40.3,1.04c0.45,0.09,0.64-0.59,0.19-0.68
			c-19.33-4.1-38.93,0.69-58.38-1.47c-2.74-0.31-5.48-0.76-8.16-1.42c-1.36-0.33-2.71-0.72-4.04-1.16
			c-2.17-0.71-2.32-0.41-2.75-3.01c-0.45-2.66-0.19-2.31,1.78-3.48c1.2-0.72,2.43-1.4,3.67-2.04c2.46-1.27,5.01-2.38,7.6-3.36
			c9.99-3.75,20.69-5.04,31.3-4.13C294.11,434.16,294.11,433.45,293.66,433.41L293.66,433.41z"/>
	</g>
</g>
<g>
	<g>
		<path class="st22" d="M203.6,456.9c5.65-0.63,11.26-0.56,16.89,0.25c0.45,0.06,0.64-0.62,0.19-0.68
			c-5.7-0.82-11.36-0.92-17.08-0.27C203.15,456.24,203.14,456.95,203.6,456.9L203.6,456.9z"/>
	</g>
</g>
<g>
	<g>
		<path class="st22" d="M185.19,462.05c6.3,3.94,13.2,6.67,20.58,7.75c8.03,1.18,16.34-0.71,24.19,1.65
			c0.44,0.13,0.63-0.55,0.19-0.68c-6.87-2.06-13.88-0.69-20.91-1.28c-8.5-0.71-16.48-3.54-23.69-8.05
			C185.16,461.19,184.81,461.8,185.19,462.05L185.19,462.05z"/>
	</g>
</g>
<g>
	<g>
		<path class="st22" d="M236.35,483.61c8.51,3.93,17.8,5.67,27.15,4.56c9.81-1.17,18.35-6.66,28.47-5.15
			c0.45,0.07,0.64-0.62,0.19-0.68c-8.04-1.2-14.52,1.77-22.11,3.83c-11.16,3.03-22.91,1.66-33.34-3.16
			C236.29,482.81,235.93,483.42,236.35,483.61L236.35,483.61z"/>
	</g>
</g>
<g>
	<g>
		<path class="st22" d="M273.54,492.89c2.1-0.63,4.19-1.26,6.29-1.89c0.44-0.13,0.25-0.82-0.19-0.68c-2.1,0.63-4.19,1.26-6.29,1.89
			C272.92,492.34,273.1,493.03,273.54,492.89L273.54,492.89z"/>
	</g>
</g>
<g>
	<g>
		<path class="st22" d="M357.07,396.43c-12.62,8.88-25.71,15.12-41.29,16.26c-0.45,0.03-0.46,0.74,0,0.71
			c15.75-1.15,28.87-7.37,41.65-16.36C357.8,396.78,357.45,396.16,357.07,396.43L357.07,396.43z"/>
	</g>
</g>
<g>
	<g>
		<path class="st22" d="M341.94,411.5c-1.32,0.17-2.58,0.46-3.58,1.4c-1.12,1.06-1.94,2.35-3.14,3.35c-0.35,0.29,0.15,0.79,0.5,0.5
			c1.03-0.85,1.81-1.84,2.68-2.84c0.96-1.12,2.09-1.51,3.54-1.7C342.39,412.15,342.39,411.44,341.94,411.5L341.94,411.5z"/>
	</g>
</g>
<g>
	<g>
		<path class="st22" d="M246.19,377.46c3.08,4.57,7.92,6.48,13.11,7.77c8.2,2.04,16.57,3.55,24.84,5.3
			c0.45,0.09,0.64-0.59,0.19-0.68c-6.74-1.43-13.48-2.85-20.22-4.28c-6.41-1.36-13.38-2.64-17.3-8.46
			C246.55,376.73,245.93,377.08,246.19,377.46L246.19,377.46z"/>
	</g>
</g>
<path class="st23" d="M303.47,247.72c-1.34,0.23-2.27,1.8-1.83,3.08c0.44,1.29,2.13,1.96,3.33,1.33c0.91,2.33,3.46,3.91,5.95,3.69
	c0.9-0.08,1.81-0.39,2.44-1.04c0.63-0.65,0.91-1.67,0.54-2.49c1.12,0.24,2.37-0.06,3.17-0.88c0.8-0.82,1.05-2.17,0.49-3.16
	c-0.56-1-1.95-1.47-2.95-0.91c-0.08-3.46-0.16-6.93-0.24-10.39"/>
<path class="st11" d="M653.06,503.42c5.98,4.38,15.64,2.13,19.07-4.44c2.12-4.05,1.94-8.87,1.75-13.44
	c-0.7-17.21-0.8-34.49,1.05-51.62c0.65-5.99,1.54-11.97,1.74-17.99c0.18-5.22-0.16-10.45,0.35-15.64c0.75-7.6,3.3-14.89,4.88-22.36
	c2.47-11.68,1.24-23.16,2.4-34.86c0.94-9.54,4.05-19.28,5.36-28.97c1.75-12.99,7.35-37.22-1.84-48.75
	c-2.28-2.86-60.36-24.7-60.36-24.7s-24.97,12.65-30,12.29c-5.02-0.36-24.1-13.83-24.16-13.87c-0.37-0.25-21.69,6.21-23.46,7.27
	c-8.88,5.32-12.33,17.88-13.13,27.51c-0.9,10.74,0.78,21.52,0.89,32.3c0.13,13.52-2.22,27.03-1.11,40.5
	c0.48,5.85,1.62,11.67,1.55,17.54c-0.08,6.59-1.67,13.05-3.06,19.49c-2.74,12.68-4.75,25.52-5.99,38.43
	c-1.21,12.6-0.13,25.5-1.44,38c-0.79,7.57-5.03,17.24,7.2,15.63c3.79-0.5,6.26,3.18,9.65,4.82c6.52,3.15,14.22,0.78,21.45,0.96
	c8.37,0.21,16.2,3.9,24.29,6.06c7.68,2.05,15.73,2.73,23.65,2c2.29-0.21,4.59-0.55,6.72-1.41c1.94-0.78,3.68-1.97,5.49-3.01
	c6.13-3.52,13.23-5.35,20.3-5.23c3.83,0.06,7.67,0.68,11.46,0.18c3.79-0.5,7.71-2.42,9.24-5.93c1.33-3.05,0.61-6.55-0.07-9.81
	c-2.8-13.52-2.19-26.26-0.43-39.86c0.14-1.11,0.29-2.21,0.43-3.32"/>
<g>
	<g>
		<path class="st24" d="M603.36,415.36"/>
	</g>
</g>
<g>
	<g>
		<path class="st25" d="M660.2,467.54c-4.27-1.53-8.11-0.1-11.65,2.52c-4.81,3.56-8.98,7.37-14.46,9.97
			c-0.47,0.22-0.06,0.92,0.41,0.7c3.52-1.67,6.8-3.66,9.84-6.11c4.6-3.7,9.1-8.65,15.66-6.3
			C660.48,468.49,660.69,467.71,660.2,467.54L660.2,467.54z"/>
	</g>
</g>
<g>
	<g>
		<path class="st25" d="M642.12,471.54c-2.45,2.68-5.22,4.96-8.32,6.84c-0.44,0.27-0.04,0.97,0.41,0.7c3.16-1.92,6-4.24,8.49-6.97
			C643.04,471.72,642.47,471.15,642.12,471.54L642.12,471.54z"/>
	</g>
</g>
<g>
	<g>
		<path class="st25" d="M607.4,488.27c-1.36-1.27-0.55-4.65-0.5-6.28c0.07-2.02,0.04-4.03-0.15-6.04c-0.31-3.29-1.3-6.24-0.9-9.58
			c0.06-0.52-0.75-0.51-0.81,0c-0.52,4.41,1.03,8.61,1.09,13.04c0.04,2.67-1.48,7.41,0.69,9.44
			C607.21,489.2,607.78,488.62,607.4,488.27L607.4,488.27z"/>
	</g>
</g>
<g>
	<g>
		<path class="st25" d="M583.08,390.46c-15.03-2.42-30.05-0.48-43.98,5.68c-0.33,0.15-0.21,0.65,0.1,0.74
			c13.14,3.54,26.65,3.63,39.84,0.27c0.5-0.13,0.29-0.91-0.21-0.78c-6.46,1.64-13.05,2.56-19.72,2.51
			c-3.61-0.02-7.22-0.3-10.78-0.85c-1.52-0.23-3.96-0.39-5.37-1.03c-0.59-0.14-1.18-0.29-1.77-0.43c0.67-0.68,1.46-1.16,2.36-1.42
			c11.72-5.58,26.77-5.93,39.33-3.91C583.37,391.33,583.59,390.55,583.08,390.46L583.08,390.46z"/>
	</g>
</g>
<g>
	<g>
		<path class="st25" d="M540.59,401.99c5.42,2,10.95,2.57,16.67,1.77c0.51-0.07,0.29-0.85-0.21-0.78
			c-5.56,0.78-10.98,0.17-16.24-1.77C540.31,401.03,540.1,401.81,540.59,401.99L540.59,401.99z"/>
	</g>
</g>
<g>
	<g>
		<path class="st25" d="M640.95,399.23c-5.12,1.42-9.93,3.37-14.6,5.92c-6.44,3.52-12.24,5.29-19.57,6.1
			c-0.51,0.06-0.52,0.87,0,0.81c5.46-0.6,10.76-1.41,15.73-3.88c6.19-3.08,11.92-6.3,18.65-8.17
			C641.67,399.87,641.45,399.09,640.95,399.23L640.95,399.23z"/>
	</g>
</g>
<g>
	<g>
		<path class="st25" d="M607.06,414.92c3.86-0.02,7.71-0.22,11.55-0.59c0.51-0.05,0.52-0.86,0-0.81c-3.84,0.37-7.69,0.56-11.55,0.59
			C606.54,414.11,606.54,414.92,607.06,414.92L607.06,414.92z"/>
	</g>
</g>
<g>
	<g>
		<path class="st25" d="M537.32,441.68c1.87,2.63,4.56,3.32,7.67,3.72c5.3,0.69,10.69,0.84,16.03,0.8c0.52,0,0.52-0.81,0-0.81
			c-3.55,0.03-7.09-0.04-10.62-0.29c-4-0.28-9.71-0.07-12.38-3.83C537.72,440.86,537.02,441.26,537.32,441.68L537.32,441.68z"/>
	</g>
</g>
<g>
	<g>
		<path class="st25" d="M536.23,446.89c4.59,2.56,9.58,3.83,14.84,3.75c0.52-0.01,0.52-0.82,0-0.81c-5.14,0.08-9.94-1.13-14.43-3.64
			C536.18,445.94,535.78,446.64,536.23,446.89L536.23,446.89z"/>
	</g>
</g>
<g>
	<g>
		<path class="st25" d="M608.07,316.82c-0.21,1.03-0.19,2.06,0.06,3.08c0.14,0.54,0.98,0.31,0.84-0.23
			c-0.22-0.87-0.24-1.74-0.06-2.62C609.02,316.51,608.18,316.27,608.07,316.82L608.07,316.82z"/>
	</g>
</g>
<g>
	<g>
		<path class="st25" d="M608.01,323.72c-0.05,1.04-0.11,2.07-0.16,3.11c-0.03,0.56,0.84,0.56,0.87,0c0.05-1.04,0.11-2.07,0.16-3.11
			C608.91,323.16,608.04,323.17,608.01,323.72L608.01,323.72z"/>
	</g>
</g>
<g>
	<g>
		<path class="st25" d="M607.39,331.51c-0.17,0.94-0.12,1.87,0.16,2.79c0.17,0.53,1.01,0.3,0.84-0.23
			c-0.24-0.76-0.31-1.54-0.16-2.32C608.32,331.19,607.48,330.96,607.39,331.51L607.39,331.51z"/>
	</g>
</g>
<g>
	<g>
		<path class="st25" d="M607.57,340.12c-0.01,0.28-0.03,0.57-0.04,0.85c-0.03,0.56,0.84,0.56,0.87,0c0.01-0.28,0.03-0.57,0.04-0.85
			C608.46,339.56,607.59,339.57,607.57,340.12L607.57,340.12z"/>
	</g>
</g>
<g>
	<g>
		<path class="st25" d="M609.56,346.67c0.65,0.61,1.29,1.23,1.94,1.84c0.41,0.39,1.02-0.23,0.62-0.62
			c-0.65-0.61-1.29-1.23-1.94-1.84C609.77,345.67,609.15,346.28,609.56,346.67L609.56,346.67z"/>
	</g>
</g>
<g>
	<g>
		<path class="st25" d="M618.4,352.53c0.76,0.6,1.53,1.2,2.29,1.8c0.44,0.34,1.06-0.27,0.62-0.62c-0.76-0.6-1.53-1.2-2.29-1.8
			C618.58,351.58,617.96,352.19,618.4,352.53L618.4,352.53z"/>
	</g>
</g>
<g>
	<g>
		<path class="st25" d="M628.02,356.35c0.5,0.62,1.17,1.05,1.92,1.3c0.53,0.17,0.76-0.67,0.23-0.84c-0.62-0.2-1.13-0.56-1.54-1.07
			C628.28,355.3,627.67,355.92,628.02,356.35L628.02,356.35z"/>
	</g>
</g>
<g>
	<g>
		<path class="st25" d="M634.88,358.5c1.23-0.24,2.33-0.83,3.22-1.72c0.4-0.4-0.22-1.01-0.62-0.62c-0.79,0.79-1.74,1.28-2.83,1.49
			C634.1,357.77,634.33,358.61,634.88,358.5L634.88,358.5z"/>
	</g>
</g>
<g>
	<g>
		<path class="st25" d="M643.91,353.09c0.82-0.87,1.72-1.65,2.69-2.35c0.45-0.32,0.02-1.08-0.44-0.75
			c-1.03,0.74-1.99,1.56-2.87,2.48C642.91,352.88,643.52,353.5,643.91,353.09L643.91,353.09z"/>
	</g>
</g>
<g>
	<g>
		<path class="st25" d="M649.6,346.39c1.34-1.41,2.33-3.13,3.44-4.72c0.32-0.46-0.43-0.9-0.75-0.44c-1.07,1.53-2.01,3.18-3.3,4.54
			C648.6,346.18,649.22,346.8,649.6,346.39L649.6,346.39z"/>
	</g>
</g>
<g>
	<g>
		<path class="st25" d="M655.35,337.55c0.21-1.32,0.21-2.61-0.01-3.93c-0.09-0.55-0.93-0.32-0.84,0.23c0.2,1.15,0.2,2.31,0.01,3.46
			C654.42,337.86,655.26,338.1,655.35,337.55L655.35,337.55z"/>
	</g>
</g>
<g>
	<g>
		<path class="st25" d="M655.37,328.94c0.05-1.6,0.11-3.21,0.16-4.81c0.02-0.56-0.85-0.56-0.87,0c-0.05,1.6-0.11,3.21-0.16,4.81
			C654.48,329.5,655.35,329.5,655.37,328.94L655.37,328.94z"/>
	</g>
</g>
<g>
	<g>
		<path class="st25" d="M655.57,320.46c0.05-1.04,0.09-2.07,0.14-3.11c0.03-0.56-0.84-0.56-0.87,0c-0.05,1.04-0.09,2.07-0.14,3.11
			C654.67,321.02,655.54,321.02,655.57,320.46L655.57,320.46z"/>
	</g>
</g>
<path class="st26" d="M595.6,260.69c-7.96,1.44-13.65,128.55-16.62,157.07c-0.84,8.02-1.97,16.04-1.68,24.1
	c0.3,8.05,2.13,16.26,6.74,22.88c5.11-3.04,8.39-8.54,10-14.27s1.72-11.76,1.81-17.71c0.42-29.27,3.38-91.18,3.98-97.34
	c0.57-5.8,1.46-15.18,1.54-21c0.11-8.67,2.97-22.45,3.08-31.12c0.06-4.66,1.91-16.82-1.97-20.11
	C600.85,261.8,597.47,260.35,595.6,260.69z"/>
<g>
	<path class="st25" d="M637.8,312.69c-10.46,0.61-19.5,0.15-29.97,0.76c0.11,0.04,0.22,0.08,0.33,0.11l-0.19-0.01
		c0.17,0.04,0.35,0.09,0.52,0.13c0.22,0.08,0.45,0.16,0.67,0.24l0.4,0.02c12.01,2.81,24.61,2.88,36.96,2.48
		c2.23-0.07,4.46-0.14,6.68-0.22l1.91,0.1C651.42,312.64,643.1,312.38,637.8,312.69z"/>
</g>
<g>
	<g>
		<path class="st25" d="M610.84,323.06c2,0.33,4,0.6,6.01,0.81c0.56,0.06,0.55-0.81,0-0.87c-1.93-0.2-3.86-0.46-5.78-0.78
			C610.53,322.13,610.29,322.97,610.84,323.06L610.84,323.06z"/>
	</g>
</g>
<g>
	<g>
		<path class="st25" d="M620.8,324.14c2.41,0.1,4.82,0.21,7.23,0.31c0.56,0.02,0.56-0.85,0-0.87c-2.41-0.1-4.82-0.21-7.23-0.31
			C620.24,323.25,620.24,324.12,620.8,324.14L620.8,324.14z"/>
	</g>
</g>
<path class="st27" d="M294.82,278.59c-1.45,1-2.22,2.72-3.2,3.77c-0.38-0.17-1.58-0.68-1.96-0.85c-2.49,2.38-5.05,4.86-6.33,8.06
	c-1.09,2.71-1.15,5.71-1.11,8.64c0.01,0.69,0.02,1.39-0.08,2.08c-0.07,0.49-0.33,1.13,0.07,1.56c0.19,0.21,0.47,0.31,0.74,0.4
	c1.35,0.41,2.78,0.48,4.2,0.52c0.89,0.03,1.78,0.05,2.65-0.14c1.17-0.26,1.74-0.81,2.42-1.71c0.78-1.03,1.82-1.91,2.62-2.93
	c0.62-0.79,1.2-1.62,1.63-2.52c0.46-0.95,0.74-1.98,1.02-3c0.76-2.77,1.53-5.54,1.98-8.38c0.32-2.01,1.1-4.73-1.01-6.08
	C297.03,277.07,296.03,277.75,294.82,278.59z"/>
<g>
	<g>
		<path class="st25" d="M633.28,324.9c2.59,0.14,5.17,0.28,7.76,0.41c0.56,0.03,0.56-0.84,0-0.87c-2.59-0.14-5.17-0.28-7.76-0.41
			C632.72,324,632.72,324.87,633.28,324.9L633.28,324.9z"/>
	</g>
</g>
<path class="st28" d="M125.68,531.04c9.9,3.74,20.68,6.36,31.5,8.35c42.05,7.75,85.85,6.83,128.54,12.05
	c63.7,7.78,123.65,29.15,176.64,56.41c24.25,12.47,47.33,26.25,73.17,36.92c42.45,17.53,92.58,26.09,140.07,20.87
	c47.5-5.22,91.69-24.93,114.93-54.57s23.43-68.96-3.01-98.46c-19.58-21.84-51.6-37.02-85.49-46.06
	c-33.89-9.05-69.89-12.53-105.57-15.45c-123.18-10.07-247.03-14.21-370.41-12.37c-32.65,0.49-139.1,6.23-139.06,54.88
	c0.01,11.95,11,23.12,24.29,30.72C115.78,526.91,120.61,529.12,125.68,531.04z"/>
<g>
	<g>
		<path class="st25" d="M645.76,325.79c2.33,0,4.65,0,6.98,0c0.56,0,0.56-0.87,0-0.87c-2.33,0-4.65,0-6.98,0
			C645.2,324.92,645.2,325.79,645.76,325.79L645.76,325.79z"/>
	</g>
</g>
<g>
	<g>
		<path class="st25" d="M542.38,367.41c-8.7-20.61-1.87-45.05-14.4-64.4c-0.28-0.43-0.98-0.03-0.7,0.41
			c12.5,19.31,5.69,43.79,14.4,64.4C541.88,368.3,542.58,367.89,542.38,367.41L542.38,367.41z"/>
	</g>
</g>
<g>
	<g>
		<path class="st25" d="M526.93,312.95c1.07,4.48,2.15,8.96,3.22,13.43c0.12,0.51,0.9,0.29,0.78-0.21
			c-1.07-4.48-2.15-8.96-3.22-13.43C527.59,312.23,526.81,312.44,526.93,312.95L526.93,312.95z"/>
	</g>
</g>
<g>
	<g>
		<path class="st25" d="M707.21,316.7c-1.85,13.5-4.37,26.87-7.57,40.11c-0.12,0.51,0.66,0.72,0.78,0.21
			c3.2-13.24,5.72-26.61,7.57-40.11C708.06,316.4,707.28,316.18,707.21,316.7L707.21,316.7z"/>
	</g>
</g>
<g>
	<g>
		<path class="st25" d="M501.41,424.77c2.87-0.53,5.73-1.06,8.6-1.59c0.51-0.09,0.29-0.87-0.21-0.78c-2.87,0.53-5.73,1.06-8.6,1.59
			C500.68,424.08,500.9,424.86,501.41,424.77L501.41,424.77z"/>
	</g>
</g>
<g>
	<g>
		<path class="st11" d="M526.96,394.01c-0.23-1.87-0.46-3.73-0.69-5.6c-0.09-0.72-1.12-0.76-1.16,0c-0.1,2.32-0.15,4.63-0.16,6.95
			c0,0.74,1.15,0.74,1.16,0c0.01-2.32,0.07-4.64,0.16-6.95c-0.39,0-0.77,0-1.16,0c0.23,1.87,0.46,3.73,0.69,5.6
			C525.89,394.74,527.05,394.75,526.96,394.01L526.96,394.01z"/>
	</g>
</g>
<g>
	<g>
		<path class="st11" d="M525.88,394.08c3.06-6.29,6.13-12.58,9.24-18.84c2.78-5.58,5.21-12.35,10.11-16.45
			c-0.33-0.14-0.66-0.27-0.99-0.41c-0.03,0.46-0.06,0.92-0.09,1.37c-0.19,0.72,0.92,1.03,1.11,0.31c0.26-0.95,0.25-0.71,0.14-1.68
			c-0.06-0.51-0.58-0.75-0.99-0.41c-4.77,4-7.14,10.37-9.85,15.81c-3.27,6.55-6.47,13.13-9.68,19.71
			C524.56,394.16,525.55,394.75,525.88,394.08L525.88,394.08z"/>
	</g>
</g>
<g>
	<g>
		<path class="st11" d="M515.16,388.99c7.02-12.53,14.6-24.74,22.7-36.59c0.42-0.62-0.58-1.19-1-0.58
			c-8.1,11.86-15.67,24.07-22.7,36.59C513.8,389.06,514.8,389.64,515.16,388.99L515.16,388.99z"/>
	</g>
</g>
<g>
	<g>
		<path class="st11" d="M524.33,395.11c10.27-16.49,21.13-32.6,32.58-48.29c0.44-0.6-0.56-1.18-1-0.58
			c-11.45,15.69-22.32,31.8-32.58,48.29C522.94,395.16,523.93,395.74,524.33,395.11L524.33,395.11z"/>
	</g>
</g>
<g>
	<g>
		<path class="st11" d="M518.79,385.93c11.24-22.38,20.74-45.6,28.4-69.44c0.23-0.71-0.89-1.01-1.11-0.31
			c-7.64,23.75-17.09,46.87-28.29,69.17C517.46,386.01,518.46,386.6,518.79,385.93L518.79,385.93z"/>
	</g>
</g>
<g>
	<g>
		<path class="st11" d="M537.94,353.73c7.91-18.71,8.48-39.98,1.47-59.06c-0.21-0.56-1.2-0.54-1.13,0.15
			c0.9,9.07,1.81,18.15,2.71,27.22c0.38-0.05,0.76-0.1,1.13-0.15c-3.75-13.02-6.12-26.37-7.07-39.88c-0.39,0-0.77,0-1.16,0
			c0.8,7.56,2.3,15,4.52,22.27c0.22,0.71,1.33,0.41,1.11-0.31c-2.19-7.18-3.69-14.51-4.48-21.97c-0.08-0.73-1.21-0.75-1.16,0
			c0.95,13.62,3.33,27.07,7.11,40.19c0.17,0.6,1.2,0.52,1.13-0.15c-0.9-9.07-1.81-18.15-2.71-27.22c-0.38,0.05-0.76,0.1-1.13,0.15
			c6.89,18.77,6.44,39.75-1.35,58.17C536.66,353.82,537.65,354.41,537.94,353.73L537.94,353.73z"/>
	</g>
</g>
<g>
	<g>
		<path class="st11" d="M546.4,279.61c0.38,1.88,0.77,3.77,1.15,5.65c0.35-0.15,0.7-0.3,1.06-0.45c-2.42-4.93-4.58-9.97-6.45-15.13
			c-0.26-0.71-1.21-0.42-1.11,0.31c0.86,6.35,2.26,12.59,4.2,18.7c0.35-0.15,0.7-0.3,1.06-0.45c-1.64-2.61-3.13-5.3-4.45-8.09
			c-0.73-1.55-1.4-3.12-2.02-4.72c-0.13-0.32-1.91-5.3-1.02-5.08c-0.12-0.28-0.23-0.57-0.35-0.85
			c-7.32,14.66-13.25,29.96-17.71,45.73c-0.2,0.72,0.91,1.02,1.11,0.31c4.44-15.67,10.32-30.88,17.59-45.45
			c0.16-0.32,0.04-0.75-0.35-0.85c-3.32-0.83-0.93,5.1-0.56,6.09c1.79,4.72,4.07,9.22,6.74,13.5c0.34,0.54,1.26,0.2,1.06-0.45
			c-1.94-6.11-3.34-12.35-4.2-18.7c-0.37,0.1-0.74,0.2-1.11,0.31c1.91,5.26,4.1,10.39,6.57,15.41c0.3,0.62,1.18,0.16,1.06-0.45
			c-0.38-1.88-0.77-3.77-1.15-5.65C547.36,278.58,546.25,278.89,546.4,279.61L546.4,279.61z"/>
	</g>
</g>
<g>
	<g>
		<path class="st11" d="M529.9,285.79c0.51-1.38,0.55-2.55,0.14-3.96c-0.14-0.5-0.79-0.55-1.06-0.14
			c-6.09,9.26-11.35,19.02-15.73,29.21c-0.29,0.66,0.65,1.26,1,0.58c4.24-8.3,7.69-16.95,10.33-25.89c0.18-0.62-0.74-1.02-1.06-0.45
			c-5.39,9.92-9.24,20.55-11.42,31.63c-0.14,0.73,0.97,1.04,1.11,0.31c2.17-10.98,5.96-21.52,11.31-31.35
			c-0.35-0.15-0.7-0.3-1.06-0.45c-2.61,8.84-6.02,17.4-10.22,25.61c0.33,0.19,0.67,0.39,1,0.58c4.38-10.19,9.64-19.95,15.73-29.21
			c-0.35-0.05-0.7-0.09-1.06-0.14c0.35,1.22,0.29,2.18-0.14,3.34C528.53,286.18,529.64,286.48,529.9,285.79L529.9,285.79z"/>
	</g>
</g>
<g>
	<g>
		<path class="st11" d="M511.22,477.81c3.92-2.9,7.87-5.77,11.77-8.7c2.74-2.06,5.13-4.85,8.22-6.36c1.48-0.73,2.75-2.82,2.58-4.49
			c-1.97-18.47-3.22-37.03-4.26-55.58c-0.5-8.86-1.35-17.86,3.5-25.76c6.02-9.81,12.51-19.08,17.86-29.33
			c3.1-5.94-5.35-10.89-8.98-5.25c-9.52,14.78-14.92,32.02-25.55,46.13c2.99,1.75,5.99,3.5,8.98,5.25
			c7.14-12.16,14.28-24.31,21.42-36.47c3.4-5.79-5.51-10.97-8.98-5.25c-6.74,11.12-13.97,21.93-21.67,32.41
			c2.99,1.75,5.99,3.5,8.98,5.25c6.24-14.21,13.23-28.06,20.94-41.53c3.36-5.86-5.3-10.78-8.98-5.25
			c-8.84,13.28-17.68,26.57-26.52,39.85c3.17,1.34,6.34,2.67,9.5,4.01c5.74-16.43,12.6-32.38,20.53-47.87
			c-2.99-1.75-5.99-3.5-8.98-5.25c-7.97,16.13-17.01,31.67-27.07,46.58c3.17,1.34,6.34,2.67,9.5,4.01
			c7.9-18.91,16.49-37.52,25.68-55.84c-3.17-1.34-6.34-2.67-9.5-4.01c-6.92,17.97-16.19,34.88-25.44,51.73
			c3.17,1.34,6.34,2.67,9.5,4.01c8.44-25.54,18.92-50.29,31.38-74.12c-3.17-1.34-6.34-2.67-9.5-4.01
			c-7.7,18.73-15.81,37.29-24.31,55.68c3.17,1.34,6.34,2.67,9.5,4.01c6.36-20.31,12.71-40.62,19.07-60.94
			c1.72-5.5-7.1-9.47-9.5-4.01c-6.9,15.69-13.8,31.38-20.7,47.07c3.17,1.34,6.34,2.67,9.5,4.01c4.84-15.46,9.67-30.91,14.51-46.37
			c1.78-5.67-6.55-9.05-9.5-4.01c-4.35,7.43-7.84,15.25-10.54,23.43c-1.82,5.5,7.05,9.42,9.5,4.01
			c6.6-14.57,14.72-28.74,17.04-44.79c0.96-6.63-7.5-9.03-10.03-2.76c-1.82,4.53-3.92,8.7-4.14,13.67c-0.2,4.42,5.88,6.97,8.88,3.68
			c3.75-4.13,7.3-11.74,5.29-17.35c-1.79-4.99-8.19-4.85-10.03,0c-6.63,17.48-13.21,34.98-19.84,52.46
			c-3.26,8.59-6.52,17.17-9.81,25.74c-3.21,8.36-6.49,16.38-7.5,25.34c-0.69,6.12,8.42,6.6,10.21,1.38
			c6.69-19.45,13.38-38.89,20.07-58.34c2.22-6.45-7.56-8.8-10.03-2.76c-4.48,10.97-4.32,22.14-1.4,33.48
			c3.07,11.89,7.2,23.11,7.37,35.55c3.4-0.46,6.81-0.92,10.21-1.38c0,0-0.56-4.56-0.38-4.55c0.37,0.02-2.04,2.79-0.81,1.98
			c1.93-1.28,1.64-4.37,1.37-6.25c-0.83-5.92-10.18-4.31-10.21,1.38c-0.07,11.35-8.9,22.29-14.25,31.75
			c-5.39,9.53-11.54,20.86-8.49,32.13c1.55,5.73,10.07,4.45,10.21-1.38c0.39-15.7-3.35-31-6.99-46.16
			c-1.34-5.59-10.67-4.54-10.21,1.38c1.8,23.18,6.4,45.99,13.88,68.01c2.2,6.49,10.95,3.74,10.03-2.76
			c-1.97-13.83-3.93-27.67-5.9-41.5c-0.94-6.61-10.94-3.78-10.03,2.76c1.77,12.67,4.92,25,9.48,36.96
			c1.93,5.05,10.68,4.92,10.21-1.38c-1.79-24.04-4.49-47.99-8.05-71.83c-0.86-5.73-10.89-4.45-10.21,1.38
			c2.57,22.21,6.55,44.2,12.07,65.87c1.7,6.68,10.91,3.65,10.03-2.76c-2.94-21.45-5.88-42.89-8.82-64.34
			c-0.79-5.75-10.75-4.45-10.21,1.38c2,21.63,5.37,43.09,10.16,64.28c1.28,5.66,10.55,4.51,10.21-1.38
			c-1.06-18.55-2.13-37.1-3.19-55.66c-3.47,0-6.93,0-10.4,0c1.75,18.31,4.6,36.49,8.6,54.45c1.27,5.69,10.48,4.49,10.21-1.38
			c-0.76-16.5-1.53-33-2.29-49.5c-3.4,0.46-6.81,0.92-10.21,1.38c1.05,6.82,2.11,13.65,3.16,20.47c1.02,6.59,11.04,3.79,10.03-2.76
			c-1.05-6.82-2.11-13.65-3.16-20.47c-0.9-5.8-10.48-4.42-10.21,1.38c0.76,16.5,1.53,33,2.29,49.5c3.4-0.46,6.81-0.92,10.21-1.38
			c-3.8-17.06-6.56-34.29-8.23-51.68c-0.63-6.55-10.79-6.76-10.4,0c1.06,18.55,2.13,37.1,3.19,55.66c3.4-0.46,6.81-0.92,10.21-1.38
			c-4.59-20.29-7.87-40.81-9.79-61.52c-3.4,0.46-6.81,0.92-10.21,1.38c2.94,21.45,5.88,42.89,8.82,64.34
			c3.34-0.92,6.68-1.84,10.03-2.76c-5.28-20.76-9.23-41.82-11.7-63.1c-3.4,0.46-6.81,0.92-10.21,1.38
			c3.42,22.92,5.96,45.96,7.68,69.07c3.4-0.46,6.81-0.92,10.21-1.38c-4.56-11.95-7.71-24.29-9.48-36.96
			c-3.34,0.92-6.68,1.84-10.03,2.76c1.97,13.83,3.93,27.67,5.9,41.5c3.34-0.92,6.68-1.84,10.03-2.76
			c-7.18-21.13-11.77-42.98-13.5-65.24c-3.4,0.46-6.81,0.92-10.21,1.38c3.43,14.3,6.99,28.58,6.62,43.39
			c3.4-0.46,6.81-0.92,10.21-1.38c-2.71-10.02,5.97-21.64,10.71-29.77c5.55-9.51,12.33-19.95,12.4-31.34
			c-3.4,0.46-6.81,0.92-10.21,1.38c0.06,0.4,2.32-6.41,0.15-2.47c-0.36,0.66-0.66,1.34-0.84,2.06c-0.74,2.95,0.08,6.3,0.51,9.22
			c0.87,5.86,10.29,4.36,10.21-1.38c-0.16-11.99-3.42-23.1-6.69-34.52c-3.16-11.01-4.07-20.92,0.35-31.75
			c-3.34-0.92-6.68-1.84-10.03-2.76c-6.69,19.45-13.38,38.89-20.07,58.34c3.4,0.46,6.81,0.92,10.21,1.38
			c0.99-8.79,5.05-17.15,8.18-25.34c3.17-8.27,6.32-16.55,9.45-24.83c6.39-16.87,12.75-33.75,19.14-50.62c-3.34,0-6.68,0-10.03,0
			c0.68,1.89-1.27,5.74-2.62,7.23c2.96,1.23,5.92,2.45,8.88,3.68c0.17-3.81,2.37-7.43,3.77-10.9c-3.34-0.92-6.68-1.84-10.03-2.76
			c-2.2,15.21-9.74,28.5-15.99,42.31c3.17,1.34,6.34,2.67,9.5,4.01c2.42-7.34,5.59-14.27,9.49-20.94c-3.17-1.34-6.34-2.67-9.5-4.01
			c-4.84,15.46-9.67,30.91-14.51,46.37c-1.72,5.5,7.1,9.47,9.5,4.01c6.9-15.69,13.8-31.38,20.7-47.07c-3.17-1.34-6.34-2.67-9.5-4.01
			c-6.36,20.31-12.71,40.62-19.07,60.94c-1.73,5.51,7,9.42,9.5,4.01c8.87-19.2,17.32-38.6,25.36-58.16c2.24-5.45-6.8-9.18-9.5-4.01
			c-12.87,24.61-23.71,50.24-32.43,76.61c-1.85,5.6,6.68,9.15,9.5,4.01c9.69-17.65,19.24-35.38,26.49-54.21
			c2.11-5.48-6.87-9.25-9.5-4.01c-9.59,19.13-18.47,38.58-26.73,58.32c-2.39,5.71,6.41,8.59,9.5,4.01
			c10.06-14.91,19.1-30.45,27.07-46.58c2.95-5.96-5.91-11.23-8.98-5.25c-8.34,16.28-15.54,33.09-21.58,50.35
			c-2.03,5.81,6.39,8.69,9.5,4.01c8.84-13.28,17.68-26.57,26.52-39.85c-2.99-1.75-5.99-3.5-8.98-5.25
			c-7.72,13.47-14.7,27.32-20.94,41.53c-2.69,6.13,4.98,10.69,8.98,5.25c7.7-10.48,14.93-21.29,21.67-32.41
			c-2.99-1.75-5.99-3.5-8.98-5.25c-7.14,12.16-14.28,24.31-21.42,36.47c-3.48,5.93,5.06,10.45,8.98,5.25
			c10.63-14.1,16.03-31.34,25.55-46.13c-2.99-1.75-5.99-3.5-8.98-5.25c-2.75,5.28-5.64,10.48-8.75,15.56
			c-3.01,4.91-6.64,9.47-9.52,14.44c-4.96,8.54-5.17,17.99-4.65,27.58c1.04,19.47,2.34,38.95,4.41,58.34
			c0.86-1.5,1.72-2.99,2.58-4.49c-3.18,1.55-5.52,4.2-8.25,6.38c-3.8,3.02-7.83,5.8-11.74,8.68
			C500.64,472.76,505.82,481.79,511.22,477.81L511.22,477.81z"/>
	</g>
</g>
<path class="st11" d="M556.56,318.66c3.21-8.21,9.18-15.02,13.18-22.87c5.16-10.15,6.86-22.02,4.75-33.2
	c-0.69-3.66-2.36-7.83-5.99-8.68c-2.22-0.52-4.5,0.41-6.6,1.33c-6.5,2.84-12.99,5.68-19.49,8.52c-1.89,0.82-3.83,1.68-5.26,3.16
	c-1.09,1.12-1.83,2.53-2.55,3.91c-9.31,17.94-18.43,35.99-26.76,54.42c-8.33,18.44-14.33,35.4-21.4,54.3
	c-3.41,9.13-1.43,18.57,1.28,27.92c0.81,2.81,13.22,50.23,15.05,56.35c2.41,8.04,15.67-7.98,16.38-10.43
	c5.25-18-0.79-36.9,2.78-55.1c1.9-9.69,7.53-18.13,12.1-26.79c4.97-9.43,9.94-18.85,14.91-28.28c1.89-3.58,3.78-7.16,5.67-10.75
	c5.86-11.12,11.76-22.31,15.57-34.29c3.48-10.95,7.42-21.99,5.79-33.67c-0.8-5.71-3.96-11.59-10.31-10.1
	c-7.56,1.77-15.54,6.94-22.59,10.2c-2.06,0.95-4.15,1.92-5.92,3.35c-3.8,3.06-7.24,4.76-8.99,9.32
	c-5.83,15.14-16.26,32.42-23.26,47.06c-7.36,15.38-9.97,31.38-13.33,48.1"/>
<path class="st11" d="M634.76,247.35c12.66,3.34,25.16,7.3,37.44,11.86c6.66,2.48-4.65,6.76-0.16,12.26
	c7.25,8.87,6.67,22,9.66,32.62c3.4,12.09,26.1,22.55,27.59,35.09c0.39,3.29,0.67,6.84,2.83,9.35c1.08-3.61,3.51-6.63,5.88-9.56
	c6.76-8.35,14.2-15.76,19.18-25.28c1.09-2.09,2.49-4.42,4.81-4.84c1.46-0.27,2.94,0.31,4.31,0.88c4.46,1.85,9.01,3.75,12.69,6.88
	c2.33,1.98,4.24,4.39,6.13,6.78c0.6,0.75,1.22,1.57,1.28,2.53c0.04,0.73-0.25,1.44-0.54,2.11c-13.43,31.34-24.37,63.29-51.93,85.37
	c-2.75,2.2-5.95,4.39-9.45,4.05c-3.49-0.34-6.21-3.08-8.43-5.8c-11.84-14.5-18.31-32.53-24.57-50.18
	c-4.56-12.86-9.12-25.73-13.68-38.59c-4.07-11.49-10.02-22.49-13.3-34.06c-1.8-6.37-1.94-13.06-3.99-19.34
	c-1.19-3.62-2.97-7-4.45-10.51c-1.27-3.02-2.3-6.52-0.93-9.5c1.37-2.98,11.17,6.33,12.83,9.15L634.76,247.35z"/>
<path class="st29" d="M528.91,465.23c0,0,8.38,1.36,15.08,3.52c6.7,2.16,21.56,4.5,21.2,7.33c-0.36,2.83-10.55,0.46-13.43,3.29
	c-2.88,2.83,22.33,34.14,20.58,37.65c-1.75,3.52-18.1-18.42-21.63-17.7c-3.54,0.71,18.66,26.77,14.79,28.99
	c-3.87,2.22-20.27-25.07-23.18-22.83c-2.91,2.24,12.15,22.87,7.93,24.7c-4.21,1.83-13.2-24.38-16.41-20.04
	c-3.22,4.34,6.6,13.74,1.38,13.79c-3.5,0.04-14.3-21.46-17.68-25.79c-3.38-4.34-9.65-26.49-9.65-26.49L528.91,465.23z"/>
<path class="st30" d="M497.21,459.31c-3.44-1.12,5.46,23.57,6.51,23.25c1.05-0.32,36.98-14.14,37.74-16.28
	c0.76-2.14-4.95-17.74-4.95-17.74S500.91,460.52,497.21,459.31z"/>
<path class="st30" d="M763.89,340.19c0.95,3.5,16.73-17.48,15.89-18.18c-0.84-0.7-32.09-23.19-34.29-22.65
	c-2.2,0.54-12.13,13.86-12.13,13.86S762.87,336.43,763.89,340.19z"/>
<path class="st29" d="M750.42,292.09c1.96-2.64,5.14-4.05,7.09-6.74c2.37-3.26,3.63-7.48,3.82-11.47c0.05-1.11,0.03-2.24,0.38-3.3
	c0.35-1.05,1.18-2.04,2.28-2.19c1.7-0.23,2.98,1.5,3.66,3.08c1.57,3.65,2.14,7.6,2.55,11.52c0.42,4.09,1.19,8.2,1.56,12.27
	c0.57,6.15-5.46,11.52-11.2,12.17C752.42,308.36,745.19,299.15,750.42,292.09z"/>
<path class="st29" d="M787.4,286.81c5.17-2.32,8.85-7.3,10.08-12.7c0.32-1.43,0.5-2.89,0.97-4.28s1.3-2.73,2.6-3.48
	c0.28-0.16,0.6-0.3,0.93-0.26c0.54,0.06,0.9,0.56,1.15,1.04c0.42,0.82,0.69,1.7,0.82,2.6c0.41-0.92,0.9-1.8,1.45-2.65
	c0.17-0.26,0.36-0.52,0.65-0.64c0.27-0.11,0.58-0.06,0.86,0.03c1.93,0.61,2.74,2.8,3.03,4.73c0.26-0.47,0.53-0.95,0.95-1.29
	s1.04-0.51,1.54-0.27c0.36,0.18,0.59,0.54,0.77,0.89c1.66,3.22,1.79,7.45,0.61,10.83c0.31-0.53,0.63-1.06,1.11-1.45
	c0.48-0.39,1.16-0.6,1.75-0.4c0.99,0.35,1.2,1.58,1.23,2.59c0.14,5.46-0.63,10.95-2.27,16.18c-2.59,8.23-11.21,11.43-18.25,15.54
	c-2.76,1.61-6.21,2.13-9.3,3.06c-3.99,1.19-8.16,2.42-12.39,1.92c-3.78-0.45-8.34-2.79-11.69-4.51
	c-6.11-3.12-17.57-11.82-9.31-18.53c3.67-2.99,8.34-4.62,13.05-5.58s9.52-1.3,14.26-2.03c1.65-0.26,3.06-0.41,4.63-1.02
	C786.87,287.03,787.14,286.92,787.4,286.81z"/>
<g>
	<g>
		<g>
			<path class="st29" d="M591.38,204.26c0.18,0.61-6.24,52.83-6.24,52.83c-4.02-0.4,26.27,2.9,51.24-8.92l3.16-52.93L591.38,204.26z
				"/>
		</g>
	</g>
</g>
<path class="st17" d="M639.44,211.08c-0.16,2.1-0.19,4.22-0.37,6.33c-0.38,4.39-0.98,8.76-1.8,13.09c-0.34,1.81-0.73,3.63-0.78,5.47
	c-0.02,0.92-0.12,2.07-0.98,2.37c-1.78-1.83-3.58-3.68-5.7-5.13c-2.11-1.45-4.58-2.49-7.14-2.51c-3.72-0.03-7.13,2.04-10.8,2.62
	c-1.5,0.24-3.02,0.22-4.54,0.21c1.17,0.01,2.99-1.27,3.96-1.87c1.3-0.8,2.51-1.75,3.6-2.82c2.3-2.26,4.1-4.99,6.21-7.42
	c1.33-1.53,2.77-2.96,4.07-4.53c1.11-1.34,2.11-2.77,3.27-4.07c2.26-2.54,5.07-4.51,7.95-6.28c0.92-0.56,2.93-2.4,3.53-0.87
	c0.61,1.58-0.32,3.43-0.45,5.01C639.46,210.82,639.45,210.95,639.44,211.08z"/>
<g>
	<path class="st29" d="M653.49,152.03c0.21,1.51,0.34,3.02,0.4,4.53c0.28,7.85-1.28,15.63-2.85,23.33c-0.22,1.08-0.47,2.22-1.26,3
		c-0.86,0.86-2.17,1.11-3.17,1.81c-2.88,2.03-2.9,7.29-3.61,10.34c-1,4.3-2.12,8.58-3.37,12.81c-0.78,2.64-1.64,5.34-3.37,7.52
		c-1.18,1.48-2.7,2.65-4.23,3.79c-4.46,3.33-9.05,6.5-13.75,9.5c-4.32,2.75-8.6,6.37-13.93,6.36c-4.85-0.01-9.7-0.52-14.44-1.52
		c-3.62-0.76-8.26-2.94-9.01-4.76c-2.2-6.97-2.57-13.02-4.37-20.09c-1.79-7.01-5.98-13.55-5.85-20.77
		c0.09-4.63,2.92-10.34,2.92-14.86c0-2.64-1.71-5.04-1.87-7.67c-0.18-2.97,1.58-5.55,3.05-7.99c1.7-2.82,2.29-5.23,3.12-8.33
		c3.52-13.08,11.26-22.62,25.45-26.01c10-2.39,20.78-0.86,30.19,3.29c4.62,2.04,9.02,4.74,12.37,8.44
		C650.26,139.53,652.6,145.7,653.49,152.03z"/>
	<path class="st29" d="M655.65,177.99c-5.12-5.45-11.88,5.76-14.21,9.31c-1.45,2.21,1.58,4.74,3.1,2.7
		c-0.48,0.64-0.95,1.27-1.43,1.91c-1.63,2.18-4.58,5.12-3.39,8.17c2.34,5.94,11.57-0.28,14.23-3.43
		C659.97,189.5,659.79,182.4,655.65,177.99z"/>
	<g>
		<g>
			<path class="st31" d="M651.83,182.54c-2.85,2.87-5.03,6.18-6.54,9.93c-0.21,0.51,0.55,0.73,0.83,0.35c0.47-0.64,2.24-3,3.15-2.96
				c1.41,0.07,0.09,2.46-0.26,3.32c-0.22,0.54,0.66,0.77,0.87,0.24c0.38-0.94,2.39-4.28,0.29-4.77c-1.7-0.4-4.04,2.63-4.83,3.71
				c0.28,0.12,0.55,0.23,0.83,0.35c1.45-3.61,3.57-6.78,6.31-9.53C652.88,182.77,652.24,182.13,651.83,182.54L651.83,182.54z"/>
		</g>
	</g>
	<g>
		<g>
			<path class="st31" d="M646.74,141.31c0.1,0.12,0.2,0.24,0.29,0.36c0.3,0.37,0.82-0.16,0.52-0.52c-0.1-0.12-0.2-0.24-0.29-0.36
				C646.96,140.42,646.44,140.94,646.74,141.31L646.74,141.31z"/>
		</g>
	</g>
	<g>
		<g>
			<g>
				<path class="st31" d="M629.54,131.27c-0.06,0.05-0.12,0.09-0.18,0.14c-0.37,0.29,0,0.93,0.37,0.64
					c0.06-0.05,0.12-0.09,0.18-0.14C630.28,131.63,629.92,130.98,629.54,131.27L629.54,131.27z"/>
			</g>
		</g>
		<path class="st18" d="M633,168.98c-0.09-1.4-1.12-2.41-2.26-3.18c-0.07-0.07-0.1-0.15-0.19-0.2c-4.91-3.26-10.44-5.35-16.53-2.66
			c-1.66,0.73-2.04,3.12-0.44,3.84c3.46,1.56,16.35,6.03,18.37,4.45C632.66,170.65,633.07,169.93,633,168.98z"/>
		<path class="st18" d="M594.17,162.24c-0.63-1.28-1.97-1.85-3.32-2.17c-0.09-0.04-0.15-0.1-0.25-0.12
			c-5.8-1.31-11.73-1.31-16.34,3.34c-1.25,1.27-0.69,3.63,1.06,3.73c3.81,0.23,17.47-0.13,18.73-2.31
			C594.49,163.93,594.59,163.11,594.17,162.24z"/>
		<g>
			<path class="st18" d="M615.98,214.77c0.22-1.33,0.42-2.66,0.53-4c0.27-3.36-0.3-7.04-2.72-9.48c-3.15-3.16-8.21-3.22-12.68-3.89
				c-2.9-0.43-5.78-1.22-8.71-1.15c-4.65,0.11-11.48,2.05-12.6,7.05c-0.17,0.75-0.2,1.52-0.24,2.29c-0.31,6.78-0.52,13.6,0.37,20.36
				c0.18,1.36,0.43,2.78,1.33,3.85c0.65,0.78,1.58,1.28,2.5,1.73c3.25,1.55,6.97,3.1,10.56,3.66c3,0.47,6.06,0.14,9.08-0.21
				c0.08-0.01,0.17-0.02,0.25-0.03c3.47-0.41,7.96-3.14,9.76-6.2c1.47-2.51,1.74-5.14,1.83-7.95
				C615.31,218.78,615.66,216.78,615.98,214.77z M609.99,220.52c-0.42,0.7-0.96,1.36-1.64,1.98c-1.45,1.33-3.08,2.09-4.96,2.45
				c-0.91,0.17-1.84,0.35-2.76,0.22c-0.92-0.12-1.84-0.6-2.27-1.43c-0.38-0.73-0.28-1.68,0.19-2.36c0.17-0.24-0.01-0.56-0.3-0.56
				c-1.71,0.01-3.41-0.2-5.07-0.63c-0.3-0.08-0.58,0.22-0.45,0.51c0.47,0.98,0.5,2.19,0.03,3.19c-0.11,0.23-0.26,0.46-0.49,0.55
				c-0.2,0.08-0.43,0.03-0.64-0.02c-4.63-1.11-7.43-4.36-7.77-9.13c-0.21-2.93-0.43-8.87,2.58-10.57c1.39-0.79,3.07-0.92,4.68-1.03
				c1.6-0.11,3.19-0.22,4.79-0.33c0.44-0.03,0.89-0.06,1.32,0.02c0.41,0.08,0.79,0.25,1.18,0.4c1.91,0.72,3.99,0.81,6.01,1.13
				c2.02,0.32,4.12,0.94,5.48,2.42C612.57,210.24,611.87,217.39,609.99,220.52z"/>
		</g>
		<path class="st32" d="M595.17,169.29c-1.48,5.12-2.97,10.48-1.86,15.71c-1.63,0.18-3.12,1.26-3.76,2.73
			c-0.14,0.33-0.24,0.72-0.05,1.02c0.39,0.63,1.46,0.26,2.07,0.68c0.59,0.41,0.45,1.27,0.42,1.97c-0.1,2.33,2,4.45,4.39,4.77
			c2.38,0.32,4.81-0.95,6.16-2.87c0.26-0.36,0.52-0.78,0.96-0.9c0.45-0.12,0.92,0.12,1.38,0.19c1.34,0.2,2.53-1.23,2.33-2.54
			c-0.2-1.31-1.43-2.3-2.75-2.62"/>
		<g>
			<g>
				<path class="st31" d="M612.66,183.91c1.69,1.72,4.05,1.89,6.33,1.69c0.34-0.03,0.34-0.57,0-0.54c-2.13,0.19-4.37,0.09-5.95-1.53
					C612.8,183.28,612.42,183.66,612.66,183.91L612.66,183.91z"/>
			</g>
		</g>
		<g>
			<g>
				<path class="st31" d="M578.76,180.64c2.7,1.31,5.52,0.74,8.17-0.42c0.29-0.13,0.04-0.55-0.25-0.43
					c-2.47,1.08-5.14,1.65-7.67,0.42C578.72,180.07,578.47,180.5,578.76,180.64L578.76,180.64z"/>
			</g>
		</g>
		<g>
			<g>
				<path class="st31" d="M579.26,182.86c0.87,0.13,1.73,0.12,2.6-0.04c0.31-0.06,0.18-0.53-0.13-0.48
					c-0.78,0.14-1.56,0.16-2.34,0.04C579.08,182.33,578.95,182.81,579.26,182.86L579.26,182.86z"/>
			</g>
		</g>
		<g>
			<g>
				<path class="st31" d="M615.36,186.48c0.8,0.35,1.63,0.54,2.51,0.55c0.35,0,0.35-0.53,0-0.54c-0.78-0.01-1.52-0.16-2.24-0.48
					C615.32,185.88,615.05,186.34,615.36,186.48L615.36,186.48z"/>
			</g>
		</g>
		<g>
			<g>
				<path class="st31" d="M611.57,190.56c2.33,1.81,5.18,4.07,4.95,7.34c-0.02,0.32,0.47,0.32,0.49,0c0.24-3.41-2.66-5.8-5.09-7.69
					C611.68,190.02,611.32,190.37,611.57,190.56L611.57,190.56z"/>
			</g>
		</g>
		<g>
			<g>
				<path class="st31" d="M588.01,187.97c-3.01,0.94-5.21,3.13-7.33,5.36c-0.22,0.23,0.13,0.58,0.35,0.35
					c2.05-2.17,4.19-4.32,7.11-5.23C588.44,188.35,588.31,187.88,588.01,187.97L588.01,187.97z"/>
			</g>
		</g>
		<g>
			<g>
				<path class="st31" d="M627.72,131.81c0.01-0.05,0.01-0.11,0.02-0.16c0.06-0.47-0.69-0.47-0.74,0c-0.01,0.05-0.01,0.11-0.02,0.16
					C626.92,132.28,627.66,132.27,627.72,131.81L627.72,131.81z"/>
			</g>
		</g>
		<g>
			<g>
				<path class="st31" d="M628.76,134.54c-0.33-0.08-0.56,0.03-0.76,0.29c-0.28,0.39,0.36,0.76,0.64,0.37
					c-0.03,0.02-0.05,0.03-0.08,0.05C629.03,135.36,629.23,134.65,628.76,134.54L628.76,134.54z"/>
			</g>
		</g>
		<g>
			<g>
				<path class="st31" d="M588.82,152.19c3.16-0.01,5.14,1.43,7.96,2.23c1.93,0.55,3.33,0.2,5.29-0.02
					c3.32-0.37,5.81,0.52,8.96,0.94c3.63,0.48,6.98-0.4,10.42,1.51c0.28,0.15,0.53-0.27,0.25-0.43c-1.92-1.07-3.71-1.35-5.89-1.46
					c-3.47-0.17-6.56-1.06-9.93-1.42c-3.57-0.37-6.49,1.13-10.19-0.14c-2.48-0.85-4.17-1.71-6.87-1.71
					C588.5,151.7,588.5,152.19,588.82,152.19L588.82,152.19z"/>
			</g>
		</g>
		<g>
			<g>
				<path class="st31" d="M587.21,153.44c-0.1,0.04,1.11,0.41,1.3,0.44c0.43,0.07,0.85,0.15,1.27,0.24
					c0.79,0.16,1.56,0.35,2.34,0.56c0.31,0.08,0.44-0.39,0.13-0.48c-1.07-0.29-2.15-0.54-3.24-0.74c-0.55-0.1-1.41-0.43-1.93-0.15
					c-0.07,0.04-0.12,0.13-0.12,0.21c0,0.15,0.03,0.22,0.14,0.32c0.09,0.08,0.19,0.09,0.3,0.04c0.02-0.01,0.04-0.02,0.06-0.03
					C587.75,153.74,587.5,153.31,587.21,153.44L587.21,153.44z"/>
			</g>
		</g>
		<g>
			<g>
				<path class="st31" d="M614.64,158.01c1.55-0.02,3.07,0.17,4.58,0.57c0.31,0.08,0.44-0.4,0.13-0.48
					c-1.55-0.41-3.11-0.61-4.71-0.59C614.32,157.52,614.32,158.02,614.64,158.01L614.64,158.01z"/>
			</g>
		</g>
	</g>
</g>
<path class="st26" d="M604.67,249.37c-2.16-0.47-4.27-1.21-6.25-2.2c-1.04-0.52-2.07-1.11-3.2-1.39c-1.13-0.28-2.42-0.2-3.33,0.53
	c-2.59,2.08-1.19,7.86-1.06,10.66c0.13,2.76,0.27,5.59,1.36,8.13c0.2,0.47,0.44,0.93,0.8,1.28c0.29,0.28,0.64,0.47,0.99,0.65
	c2.31,1.17,4.87,1.83,7.46,1.91c0.82,0.02,1.66-0.01,2.42-0.34c2.44-1.05,2.36-3.92,3.32-5.96c1.26-2.69,2.41-5.27,3.05-8.22
	c0.16-0.73,0.29-1.5,0.08-2.22c-0.55-1.84-2.87-2.31-4.76-2.66C605.26,249.49,604.97,249.43,604.67,249.37z"/>
<path class="st11" d="M578.95,236.36c-0.3,0.08-0.61,0.17-0.9,0.27c-2.58,0.81-5.09,1.85-7.5,3.09c-0.41,0.21-0.83,0.44-1.09,0.83
	c-0.55,0.84-0.07,1.95,0.43,2.82c2.56,4.41,5.63,8.85,8.65,12.91c1.62,2.17,3.3,4.31,5.02,6.39c0.67,0.81,1.71,2.6,2.75,3
	c1.33,0.5,15.74-13.29,17.34-16.86c-7.23-2.28-13.49-7.62-16.07-10.13c-0.83-0.81-1.65-1.67-2.68-2.2
	C583.08,235.54,580.94,235.81,578.95,236.36z"/>
<path class="st11" d="M622.39,244.67c2.91-0.95,6.4-2,8.95-3.74c2.39-1.64,4.52-3.63,7.08-5.12c0.42-0.25,0.87-0.49,1.35-0.52
	c1.14-0.07,1.96,0.99,2.74,1.82c2.5,2.66,9.48,5.58,5.55,9.63c-6.28,6.47-13.38,11.6-21.27,15.91c-2.94,1.6-5.93,3.12-8.97,4.54
	c-1.68,0.79-5.17,3.2-7.05,3.16c-1.32-0.03-2.8-6.07-3.11-6.99c-1.37-3.99-5.16-8.09-6.64-12.04c-0.37-1-1.07-2.52-0.19-3.12
	c0.44-0.3,3.93,0.03,4.47,0.04C611.04,248.38,616.97,246.43,622.39,244.67z"/>
<g>
	<g>
		<path class="st25" d="M607.09,262.53c4.35,6.1,9.85,3.41,15.94,0.96c7.45-3,14.2-7.34,20.49-12.29c0.41-0.32-0.17-0.89-0.57-0.57
			c-4.71,3.7-9.66,7.07-15.02,9.76c-5.49,2.76-15.47,8.27-20.14,1.73C607.48,261.7,606.78,262.11,607.09,262.53L607.09,262.53z"/>
	</g>
</g>
<g>
	<g>
		<path class="st25" d="M570.97,247.61c2.45,4.73,5.56,9.08,9.81,12.37c2.75,2.12,6.47,5.04,9.98,3.35c0.47-0.23,0.06-0.92-0.41-0.7
			c-3.78,1.82-9.46-3.34-11.92-5.81c-2.8-2.81-4.95-6.11-6.77-9.62C571.43,246.74,570.73,247.15,570.97,247.61L570.97,247.61z"/>
	</g>
</g>
<path class="st11" d="M657.16,244.75"/>
<g>
	<g>
		<path class="st25" d="M545.4,277.47c-11.33,34.48-7.05,71.22-11.83,106.7c-0.07,0.51,0.71,0.73,0.78,0.21
			c4.78-35.48,0.5-72.24,11.83-106.7C546.34,277.19,545.56,276.97,545.4,277.47L545.4,277.47z"/>
	</g>
</g>
<g>
	<g>
		<path class="st25" d="M531.31,387.6c-6.82-0.83-13.64-1.59-20.47-2.28c-0.52-0.05-0.51,0.76,0,0.81
			c6.83,0.69,13.66,1.45,20.47,2.28C531.82,388.47,531.82,387.66,531.31,387.6L531.31,387.6z"/>
	</g>
</g>
<g>
	<g>
		<path class="st25" d="M528.81,392.07c-5.57-0.87-11.09-0.8-16.62,0.22c-0.51,0.09-0.29,0.87,0.21,0.78
			c5.4-0.99,10.77-1.07,16.2-0.22C529.1,392.93,529.32,392.15,528.81,392.07L528.81,392.07z"/>
	</g>
</g>
<g>
	<g>
		<path class="st25" d="M527.36,397.37c-2.48-0.76-5.02-0.66-7.42,0.31c-0.48,0.19-0.27,0.97,0.21,0.78
			c2.28-0.92,4.64-1.04,6.99-0.31C527.64,398.31,527.86,397.53,527.36,397.37L527.36,397.37z"/>
	</g>
</g>
<path class="st33" d="M539.8,297.97c-6.36,20.99-13.17,42.68-14.58,64.67c-0.37,5.84-0.46,11.89-2.99,17.16
	c-1.07,2.23-2.6,4.3-4.68,5.64c-5.81,3.77-14.03,1.01-20.09,4.36c-0.78,0.43-1.6,1.26-1.23,2.07c0.22,0.49,0.8,0.7,1.33,0.84
	c3.64,0.98,7.68,1.03,10.73,3.23c4.15,3,4.92,8.74,5.57,13.82c1.65,12.7,4.8,25.2,9.37,37.16c1.3,3.41,5.64,6.65,8.9,2.98
	c2.73-3.07-0.63-10.6-1.09-14.24c-1.51-12.08-0.4-24.29,1.12-36.31c2.72-21.56,3.69-43.48,5.23-65.15
	C538.16,323.12,536.59,308.55,539.8,297.97z"/>
<g>
	<g>
		<path class="st25" d="M666.25,328.5c2.45,19.64,7.57,38.73,15.29,56.95c0.2,0.48,0.9,0.07,0.7-0.41
			c-7.66-18.09-12.75-37.05-15.18-56.54C666.99,327.99,666.19,327.99,666.25,328.5L666.25,328.5z"/>
	</g>
</g>
<g>
	<g>
		<path class="st25" d="M669.46,366.2c0.9,2.82,1.79,5.64,2.69,8.45c0.16,0.49,0.94,0.28,0.78-0.21c-0.9-2.82-1.79-5.64-2.69-8.45
			C670.08,365.49,669.3,365.7,669.46,366.2L669.46,366.2z"/>
	</g>
</g>
<g>
	<g>
		<path class="st25" d="M664.66,306.54c0.27-12.57,3.03-29.83,13.55-38.14c0.41-0.32-0.17-0.89-0.57-0.57
			c-10.72,8.48-13.51,25.9-13.78,38.71C663.84,307.06,664.65,307.06,664.66,306.54L664.66,306.54z"/>
	</g>
</g>
<g>
	<g>
		<path class="st25" d="M688.19,264.65c0.85,0.18,1.57,0.65,2.04,1.39c0.28,0.43,0.98,0.03,0.7-0.41c-0.59-0.9-1.47-1.53-2.52-1.76
			C687.9,263.76,687.68,264.54,688.19,264.65L688.19,264.65z"/>
	</g>
</g>
<g>
	<g>
		<path class="st25" d="M694.66,368.88c2.64-13.97,16.82-24.56,27.14-33.1c0.4-0.33-0.17-0.9-0.57-0.57
			c-10.4,8.6-24.68,19.31-27.35,33.45C693.79,369.17,694.57,369.39,694.66,368.88L694.66,368.88z"/>
	</g>
</g>
<g>
	<g>
		<path class="st25" d="M718.06,335.66c-3.71,2.23-7.47,4.35-11.28,6.38c-0.46,0.24-0.05,0.94,0.41,0.7
			c3.82-2.03,7.58-4.16,11.28-6.38C718.92,336.09,718.51,335.39,718.06,335.66L718.06,335.66z"/>
	</g>
</g>
<g>
	<g>
		<path class="st25" d="M714.98,334.36c-2.21,0.96-4.2,2.28-5.96,3.92c-0.38,0.36,0.19,0.93,0.57,0.57c1.71-1.6,3.65-2.86,5.8-3.8
			C715.86,334.85,715.45,334.15,714.98,334.36L714.98,334.36z"/>
	</g>
</g>
<path class="st12" d="M263.37,248.53c1.89,2.92,9.04,9.14,11.76,4.5c1.39-2.38-0.78-5.15-1.91-7.15c-0.33-0.58-0.66-1.16-0.99-1.75
	c1.06,1.86,3.96,0.12,2.98-1.87c-1.57-3.2-6.01-13.27-11.04-9.36C260.09,236.07,259.08,241.93,263.37,248.53z"/>
<g>
	<g>
		<path class="st15" d="M265.82,238.95c1.99,2.36,2.68,4.99,3.04,8c0.04,0.31,0.53,0.32,0.5,0c-0.14-1.31-0.54-3.03-2-3.46
			c-1.15-0.34-2.1,0.41-2.08,1.57c0,0.32,0.5,0.32,0.5,0c0.59-0.32,1.18-0.63,1.77-0.95c0.48,0.32,0.8,0.75,0.95,1.27
			c0.22,0.51,0.3,1.01,0.36,1.57c0.17,0,0.33,0,0.5,0c-0.38-3.15-1.11-5.89-3.19-8.35C265.97,238.35,265.61,238.71,265.82,238.95
			L265.82,238.95z"/>
	</g>
</g>
<g>
	<g>
		<path class="st15" d="M293.65,262.54c1.08,3.51,5.67,4.81,8.86,5.39c2.66,0.49,7.55,1.27,9.65-1.04c0.5-0.55-0.31-1.37-0.82-0.82
			c-1.76,1.92-6.32,1.14-8.53,0.74c-2.73-0.5-7.11-1.54-8.05-4.58C294.55,261.52,293.43,261.83,293.65,262.54L293.65,262.54z"/>
	</g>
</g>
<path class="st12" d="M319.79,306.38c-0.57,0.65-10.2,8.27-15.28,12.29c-0.23,0.18-0.47,0.34-0.72,0.49
	c0.39-1.17,0.73-2.4,0.43-3.59c-0.25-1.07-0.99-1.95-1.77-2.73c-4.81-4.77-12.88-3.86-19.35-2.04c0.08-0.64,0.68-3.8,0.72-4.7
	c0.12-3.19,1.26-6.26,1.94-9.38c0.45-2.06,0.72-4.14,1.07-6.22c0.42-2.57,1.1-5.33,3.13-6.95c1.48-1.19,3.49-1.62,4.8-2.99
	c0.85-0.9,1.49-2.23,2.7-2.43c1.06-0.18,2.09,0.67,2.42,1.69c0.33,1.01,0.11,2.13-0.26,3.15c1.03-2.11,2.49-4.28,3.95-6.11
	c0.43-0.53,0.87-1.08,1.45-1.45c1.99-1.33,4.92-0.11,6.01,2.01c0.85,1.64-0.43,6.31,0.39,6.97c1.16,0.94,2.86-1.4,4.33,0.33
	c2.51,3-0.87,3.12,1.73,5.03c1.15,0.84,3.2,0.55,4.63,1.87c1.17,1.09-0.7,3.72,0.69,4.7C324.34,297.4,323.33,302.34,319.79,306.38z"
	/>
<g>
	<path class="st12" d="M303.79,319.15c-0.06,0.15-0.11,0.28-0.16,0.43c-6.22,17.53-12.47,35.14-21.31,51.51
		c-2.74,5.06-5.73,10.04-9.53,14.39c-3.47,3.97-7.79,7.49-12.92,8.71c-9.05,2.16-19.2-4.43-20.93-13.56
		c-1.11-5.84,0.86-11.83,3.63-17.08c3.44-6.53,8.11-12.32,12.75-18.05c9.02-11.17,17.84-22.43,26.66-33.74
		c1-1.28,2.04-2.6,3.48-3.34c4.94-2.56,13.36,0.86,16.98,4.43c0.78,0.77,1.52,1.66,1.77,2.73
		C304.51,316.76,304.17,317.98,303.79,319.15z"/>
	<path class="st17" d="M310.04,276c0.47,0.48,0.83,1.1,1.04,1.73c0.41,1.25,0.3,2.53,0.37,3.81c0.04,0.74-0.26,2.15,0.26,2.66
		c1.09,1.05,2.8-0.94,4.02,0.52c2.51,2.99-0.87,3.12,1.73,5.02c1.16,0.84,3.21,0.54,4.64,1.87c1.17,1.08-0.7,3.72,0.69,4.71
		c1.78,1.26,0.49,4.06,0.03,5.62c-0.29,0.97-0.53,1.66-1.3,2.4c-0.22,0.21-2.36,1.79-2.62,1.42c-0.79-1.16-2.23-1.68-3.23-2.67
		c-0.73-0.72-1.19-1.66-1.76-2.51c-1.01-1.52-2.35-2.78-3.68-4.02c-0.74-0.69-1.5-1.4-2.43-1.81c-1.09-0.47-2.32-0.5-3.44-0.87
		c-1.31-0.42-2.43-1.28-3.66-1.9c-1.32-0.67-2.77-1.07-4.24-1.18c-1.41-0.1-3.05-0.02-3.95-1.11c1.18-0.99,2.36-1.99,3.53-3
		c1.64-1.42,3.31-2.89,4.48-4.74c0.55-0.86,0.8-1.73,1.44-2.54c0.7-0.89,1.46-1.73,2.27-2.52c1.07-1.05,2.4-2.07,3.89-1.91
		C308.86,275.08,309.52,275.46,310.04,276z"/>
</g>
<path class="st34" d="M315.72,308.88c0-0.09,0-0.17,0-0.26"/>
<path class="st12" d="M259.79,358.46c1.21,3.96,5.86,5.53,9.88,6.53c4.68,1.16,9.35,2.32,14.03,3.48c-0.45,2.78-1.91,5.28-3.35,7.71
	c-3.57,6-7.31,12.13-12.87,16.37c-5.55,4.24-13.4,6.22-19.64,3.07c-3.13-1.58-5.55-4.25-7.74-6.98
	c-9.68-12.06-16.46-26.61-18.39-41.96c-1.92-15.35,1.18-31.45,9.58-44.44c6.65,8.37,11.89,17.78,16.11,27.58
	c3.88,9.02,8.29,19.32,9.77,29.06c-2.43-2.64-3-7.35-4.06-10.67c-1.63-5.08-3.54-10.08-5.71-14.96
	c-4.41-9.93-9.91-19.38-16.37-28.11"/>
<path class="st16" d="M238.55,388.68c1.88-3.08,3.18-7,3.47-10.6c0.32-4.01-0.56-8.02-0.14-12.03c0.42-4.08,2.15-7.9,4.15-11.48
	c1.75-3.13,3.95-6.34,7.33-7.53c0.51-0.18,1.03-0.31,1.5-0.58c1.62-0.94,1.9-3.18,1.57-5.02c-0.74-4.07-3.3-7.61-4.5-11.56
	c-0.64-2.09-2.23-4.18-3.38-6.05c-1.27-2.08-2.6-4.12-3.98-6.12c-2.76-4.01-5.74-7.86-8.94-11.52c-0.94-1.08-1.6-2.11-2.48-2.62
	c-0.61-0.36-1.33-0.47-2.33-0.17c-1.82,0.55-3.86,3.24-5,4.67c-2.98,3.76-4.84,8.37-5.76,13.05c-1.36,6.96-0.82,14.15-0.09,21.21
	c1.65,15.99,4.45,32.51,13.59,45.74c0.86,1.24,2.27,2.6,3.66,2C237.82,389.81,238.21,389.24,238.55,388.68z"/>
<g>
	<path class="st18" d="M611.82,175.86c3.51-2.75,8.37,0.68,9.81,3.96c0.6,1.36,2.59,0.18,1.99-1.17c-2.13-4.84-8.84-8.02-13.44-4.42
		C609.02,175.14,610.66,176.77,611.82,175.86L611.82,175.86z"/>
</g>
<g>
	<path class="st18" d="M577.91,174.27c1-1.13,2.27-1.83,3.79-1.98c0.43-0.04,2.77-0.16,3.65,0.87c1.25,1.46,2.91,1.45,2.41-0.22
		c-0.65-2.16-3.36-2.89-5.1-2.97c-2.42-0.12-4.78,0.86-6.39,2.67C575.29,173.75,576.92,175.39,577.91,174.27L577.91,174.27z"/>
</g>
<path class="st31" d="M604.57,208.29c1.2,0.74,1.69,2.35,1.33,3.72c-0.36,1.36-1.43,2.46-2.68,3.12s-2.66,0.94-4.06,1.11
	c-2.48,0.3-5.06,0.27-7.37-0.67c-2.73-1.12-7.86-8.36-2.36-8.64c2.07-0.1,4.29,1.02,6.39,1.13
	C598.37,208.19,602.27,206.88,604.57,208.29z"/>
<g>
	<g>
		<path class="st25" d="M703.53,407.14c4.24-2.13,5.86-7.33,7.73-11.38c2.73-5.91,5.49-11.7,10.1-16.42
			c0.36-0.37-0.21-0.94-0.57-0.57c-3.52,3.6-6.02,7.78-8.22,12.29c-2.33,4.79-4.39,12.85-9.44,15.38
			C702.65,406.67,703.06,407.37,703.53,407.14L703.53,407.14z"/>
	</g>
</g>
<g>
	<g>
		<path class="st25" d="M706.27,408.33c3.12-3.1,6.42-6,9.9-8.69c0.41-0.32-0.16-0.89-0.57-0.57c-3.48,2.69-6.78,5.59-9.9,8.69
			C705.33,408.13,705.9,408.7,706.27,408.33L706.27,408.33z"/>
	</g>
</g>
<g>
	<g>
		<path class="st25" d="M660.51,374.21c-4.51,19.16-0.08,39.32-6.16,58.21c-0.16,0.5,0.62,0.71,0.78,0.21
			c6.08-18.9,1.65-39.05,6.16-58.21C661.41,373.92,660.63,373.71,660.51,374.21L660.51,374.21z"/>
	</g>
</g>
<g>
	<g>
		<path class="st25" d="M669.88,393.37c-0.52,5.9-1.04,11.8-1.57,17.69c-0.05,0.52,0.76,0.51,0.81,0c0.52-5.9,1.04-11.8,1.57-17.69
			C670.73,392.85,669.92,392.85,669.88,393.37L669.88,393.37z"/>
	</g>
</g>
<g>
	<g>
		<path class="st25" d="M668.17,417.56c0.07,0.36-0.01,0.67-0.19,0.97c-0.27,0.45,0.43,0.85,0.7,0.41c0.3-0.5,0.38-1.03,0.28-1.6
			C668.85,416.84,668.07,417.05,668.17,417.56L668.17,417.56z"/>
	</g>
</g>
<g>
	<g>
		<path class="st25" d="M667.44,424.92c-0.3,0.5-0.38,1.03-0.28,1.6c0.09,0.51,0.87,0.29,0.78-0.21c-0.06-0.35,0.01-0.67,0.2-0.97
			C668.41,424.89,667.71,424.48,667.44,424.92L667.44,424.92z"/>
	</g>
</g>
<g>
	<g>
		<path class="st25" d="M666.63,434.1c0,0.17,0,0.34,0,0.51c0,0.52,0.81,0.52,0.81,0c0-0.17,0-0.34,0-0.51
			C667.44,433.58,666.63,433.58,666.63,434.1L666.63,434.1z"/>
	</g>
</g>
<g>
	<g>
		<path class="st25" d="M667.03,439.37c0.52,0,0.52-0.81,0-0.81C666.51,438.56,666.51,439.37,667.03,439.37L667.03,439.37z"/>
	</g>
</g>
<g class="st35">
	<path class="st7" d="M640.93,95.58c6.14-38.64,73.5-60.05,150.44-47.82c76.94,12.23,134.34,53.47,128.2,92.11
		c-6.14,38.64-73.5,60.05-150.44,47.82c-19.86-3.16-38.39-8.26-54.89-14.73l-53.43,21.22l17.33-39.69
		C652.26,137.25,637.68,116.05,640.93,95.58z"/>
</g>
<g class="st36">
	<g>
		<path class="st37" d="M772.89,127.77c-1.74,0-3.41-0.59-4.67-1.74c-2.73-2.5-2.37-6.29-2.25-7.54c0.22-2.25,0.68-4.44,1.28-6.58
			c-2.66,2.78-5.46,5.43-8.37,7.92c-1.46,1.24-3.65,1.07-4.9-0.39c-1.25-1.46-1.07-3.66,0.39-4.9
			c10.38-8.85,19.12-19.84,25.45-31.95c0.54-1.09,1.08-2.17,1.63-3.25c0.86-1.7,2.93-2.39,4.64-1.54c1.71,0.84,2.42,2.91,1.6,4.62
			c-0.53,1.11-1.09,2.22-1.66,3.31c-3.16,6.39-6.15,12.92-8.91,19.47c-1.97,4.67-3.77,9.24-4.22,13.96
			c-0.09,0.94-0.03,1.43,0.03,1.65c0.14-0.01,0.32-0.05,0.51-0.14c0.77-0.4,1.53-1.35,2.24-2.3c8.86-11.75,14.56-25.78,20.08-39.35
			c0.72-1.76,2.71-2.62,4.48-1.93c1.77,0.69,2.66,2.68,1.99,4.46c-4.08,10.91-8.3,22.19-11.4,33.56c-0.43,1.58-0.77,2.98-0.57,4.08
			c0.1,0.57,0.46,1,0.62,1.06c-0.01-0.01,0.46,0.01,1.99-1.43c2.79-2.61,5.39-5.48,7.71-8.52c1.17-1.53,3.35-1.82,4.87-0.65
			c1.53,1.17,1.82,3.35,0.65,4.87c-2.56,3.35-5.42,6.51-8.49,9.38c-1.16,1.09-3.86,3.64-7.51,3.25c-3.28-0.34-6.03-3.11-6.69-6.72
			c-0.05-0.26-0.08-0.51-0.11-0.76c-0.68,0.97-1.37,1.93-2.09,2.88c-1.14,1.51-2.52,3.21-4.57,4.28
			C775.45,127.46,774.15,127.77,772.89,127.77z"/>
	</g>
	<g>
		<path class="st37" d="M810.8,129.57c-0.62,0-1.25-0.08-1.9-0.26c-2.25-0.64-4.04-2.39-5.31-5.2c-0.75-1.65-1.28-3.33-1.63-5.04
			c-0.86,0.2-1.81,0.07-2.63-0.44c-1.63-1.02-2.13-3.16-1.11-4.79c1.18-1.89,2.37-3.79,3.56-5.7c0.56-4.09,1.66-8.21,2.84-12.22
			c5.8-19.72,12.39-40.52,23.38-59.08c1.77-2.99,3.91-5.89,7.52-6.89c1.82-0.5,3.7,0.53,4.25,2.33c3.82,12.44-1.41,25.37-7.04,36.37
			c-7.35,14.37-15.8,28.3-24.21,41.83c-0.37,3.82-0.08,7.49,1.41,10.76c0.54,1.18,0.92,1.4,0.92,1.4c0.03-0.01,0.38-0.02,1.48-0.52
			c5.42-2.5,10.05-6.72,13.03-11.88c0.96-1.66,3.09-2.23,4.75-1.27c1.66,0.96,2.23,3.09,1.27,4.75c-3.7,6.4-9.43,11.63-16.15,14.72
			C814,128.99,812.48,129.57,810.8,129.57z M834.08,40.19c-0.04,0.06-0.07,0.12-0.11,0.18c-8.66,14.62-14.54,30.89-19.5,46.89
			c4.22-7.16,8.29-14.43,12.05-21.79C830.56,57.58,834.4,48.65,834.08,40.19z"/>
	</g>
	<g>
		<path class="st37" d="M834.42,134.93c-2.38,0-4.85-1.16-6.93-3.31c-5.37-5.58-6.84-14.6-4.14-25.39
			c2.74-10.96,7.9-19.61,14.92-25.01c0.68-0.52,2.27-1.75,4.4-1.75c2.82,0,5.31,2.18,5.91,5.17c0.4,1.97-0.04,3.77-0.57,5.42
			c-3.11,9.68-9.27,18.4-17.35,24.56c-0.5,0.38-1.08,0.61-1.66,0.68c-0.15,4.07,0.58,8.46,3.51,11.5c0.93,0.97,1.76,1.24,1.95,1.18
			c0.24-0.08,0.81-0.58,1.15-0.88l5.7-5.02c1.44-1.27,3.64-1.13,4.91,0.31c1.27,1.44,1.13,3.64-0.31,4.91l-5.7,5.02
			c-0.85,0.75-2,1.76-3.63,2.28C835.87,134.82,835.15,134.93,834.42,134.93z M841.51,87.53c-5.7,4.86-8.89,11.84-10.67,17.68
			c4.8-4.84,8.47-10.82,10.55-17.29C841.42,87.82,841.46,87.68,841.51,87.53z"/>
	</g>
	<g>
		<path class="st37" d="M831.49,182.61c-8.07,0-16.14-2.18-23.04-6.41c-10.72-6.57-18.34-17.89-20.37-30.3
			c-0.31-1.89,0.97-3.68,2.87-3.99c1.89-0.31,3.68,0.97,3.99,2.87c1.71,10.44,8.12,19.97,17.14,25.49c9.02,5.52,20.42,6.9,30.5,3.68
			c5.38-1.72,9.96-4.58,13.23-8.27c6.97-7.85,9.09-19.81,6.67-37.63c-1.03-7.59-2.49-15.2-4.36-22.64
			c-3.95,8.8-8.94,17.15-14.82,24.72c-1.18,1.52-3.36,1.79-4.88,0.61c-1.52-1.18-1.79-3.36-0.61-4.88
			c7.83-10.09,14-21.64,18.08-33.79c0.04-3.55,0.86-7.07,3.19-10.16c1-1.32,2.78-1.76,4.27-1.05c1.49,0.71,2.28,2.37,1.88,3.97
			c-0.69,2.79-1.48,5.55-2.36,8.29c0.12,2.88,0.87,6.14,1.76,9.63c2.04,8,3.64,16.19,4.75,24.37c1.71,12.57,2.7,30.73-8.37,43.18
			c-4.11,4.62-9.75,8.18-16.32,10.27C840.43,181.94,835.96,182.61,831.49,182.61z"/>
	</g>
	<g>
		<path class="st37" d="M776.05,151.49c-4.82,0-10.17-1.03-15.89-3.1c-2.01-0.73-4.03-1.53-5.99-2.31
			c-7.19-2.86-13.98-5.56-20.95-5.06c-5.45,0.39-10.74,2.88-14.51,6.83c-1.33,1.39-3.53,1.44-4.92,0.12
			c-1.39-1.33-1.44-3.53-0.12-4.92c4.95-5.19,11.89-8.46,19.04-8.97c8.56-0.61,16.41,2.51,24.01,5.53c1.91,0.76,3.88,1.54,5.79,2.23
			c6.21,2.25,17.68,5.12,24.77-0.88c1.47-1.24,3.66-1.06,4.9,0.41c1.24,1.47,1.06,3.66-0.41,4.9
			C787.7,149.75,782.33,151.49,776.05,151.49z"/>
	</g>
	<g>
		<g>
			<path class="st37" d="M728.69,67.11c-3.78,13.75-7,27.82-11.64,41.32c-3.79,11.02-11.44,25.35-25.33,23.17
				c-13.71-2.15-19.54-17.29-14.07-29.23c2.53-5.52,10.19-13.19,16.45-7.73c6.29,5.48,1.92,14.19-2.83,18.83
				c-3.2,3.12,1.71,8.02,4.9,4.9c8.44-8.24,12.25-24.29-0.42-30.95c-12.18-6.4-23.91,6.97-26.38,17.76
				c-2.98,13.03,3.04,26.57,15.63,31.69c12.47,5.07,24.5-0.99,31.66-11.55c4.96-7.32,7.56-16.04,9.92-24.47
				c2.98-10.62,5.85-21.27,8.78-31.9C736.56,64.64,729.87,62.8,728.69,67.11L728.69,67.11z"/>
		</g>
	</g>
	<g>
		<g>
			<path class="st37" d="M739.74,107.68c16.13,0.81,27.31-14.24,28.98-29.02c1.76-15.67-5.98-31.1-19.82-38.73
				c-12.86-7.09-29.57-6.81-41.18,2.71c-11.43,9.38-13.72,26.24-4.14,37.73c2.86,3.43,7.74-1.5,4.9-4.9
				c-7.87-9.44-3.6-23.19,6.18-29.32c9.82-6.15,22.54-5.34,32.23,0.64c10.06,6.21,15.72,17.4,15.12,29.17
				c-0.62,12.02-8.88,25.47-22.26,24.79C735.28,100.52,735.3,107.45,739.74,107.68L739.74,107.68z"/>
		</g>
	</g>
	<g>
		<g>
			<path class="st37" d="M737.68,106.85c14.9,16-1.72,37.66,5.77,55.33c5.95,14.05,23.87,16.49,34.4,6.23c3.2-3.12-1.7-8.02-4.9-4.9
				c-5.65,5.51-14.48,6.16-20.21,0.33c-6.57-6.7-3.7-17.36-2.61-25.57c1.7-12.82,1.79-26.29-7.55-36.32
				C739.53,98.67,734.64,103.58,737.68,106.85L737.68,106.85z"/>
		</g>
	</g>
	<g>
		<g>
			<path class="st37" d="M879.34,107.24c2.99-3.29,6.18-6.38,9.56-9.27c2.27-1.93-1.01-5.19-3.27-3.27
				c-3.39,2.88-6.58,5.97-9.56,9.27C874.08,106.17,877.34,109.45,879.34,107.24L879.34,107.24z"/>
		</g>
	</g>
	<g>
		<g>
			<path class="st37" d="M880.98,130.58c10.86,1.8,21.73,3.59,32.59,5.39c2.91,0.48,4.16-3.97,1.23-4.46
				c-10.86-1.8-21.73-3.59-32.59-5.39C879.3,125.65,878.05,130.1,880.98,130.58L880.98,130.58z"/>
		</g>
	</g>
	<g>
		<g>
			<path class="st37" d="M875.3,165.63c2.56,3.07,5.12,6.15,7.68,9.22c1.91,2.29,5.16-1,3.27-3.27c-2.56-3.07-5.12-6.15-7.68-9.22
				C876.67,160.08,873.41,163.36,875.3,165.63L875.3,165.63z"/>
		</g>
	</g>
	<g>
		<g>
			<path class="st37" d="M687.17,64.51c-4.25-5.92-8.32-11.95-12.22-18.11c-1.59-2.51-5.59-0.19-3.99,2.33
				c3.89,6.16,7.97,12.19,12.22,18.11C684.9,69.24,688.91,66.93,687.17,64.51L687.17,64.51z"/>
		</g>
	</g>
	<g>
		<g>
			<path class="st37" d="M666.39,81.35c-7.55-4.5-15.34-8.49-23.39-12c-2.7-1.18-5.06,2.8-2.33,3.99c8.06,3.51,15.84,7.51,23.39,12
				C666.62,86.86,668.94,82.87,666.39,81.35L666.39,81.35z"/>
		</g>
	</g>
	<g>
		<g>
			<path class="st37" d="M659.09,106.38c-7.69-0.3-15.28,0.13-22.9,1.2c-2.93,0.41-1.68,4.87,1.23,4.46
				c7.19-1.01,14.42-1.32,21.67-1.03C662.07,111.12,662.06,106.5,659.09,106.38L659.09,106.38z"/>
		</g>
	</g>
</g>
<g>
	<ellipse class="st7" cx="257.75" cy="492.96" rx="63.06" ry="49.24"/>
	<ellipse class="st38" cx="257.75" cy="492.96" rx="46.76" ry="36.51"/>
	<ellipse class="st7" cx="370.39" cy="505.78" rx="19.5" ry="15.23"/>
	<polygon class="st7" points="389.61,468.26 389.89,505.78 350.88,505.78 350.6,468.26 	"/>
	<ellipse class="st7" cx="370.11" cy="468.26" rx="19.5" ry="15.23"/>
	<ellipse class="st25" cx="370.11" cy="468.26" rx="14.46" ry="11.29"/>
	<path class="st7" d="M350.74,476.22c0,0-7.12-1.95-7.23,10.79c-0.11,12.74,11.65,16.66,11.65,16.66l-1.9-4.93
		c0,0-6.45-5.56-6.45-13.53c0-7.97,10.37-5.19,10.37-5.19L350.74,476.22z"/>
	<path class="st39" d="M218.14,511.98c13.42,5.69,30.13-0.9,33.27-15.86c2.48-11.8-7.73-25.23-19.65-20.13
		c-7.92-6.35-20.01-5.37-25.88,4.69C199.01,492.46,206.3,506.96,218.14,511.98z"/>
	<path class="st39" d="M283.62,488.19c14.56,0.65,27.93-11.34,25.66-26.46c-1.79-11.92-16.04-20.96-25.43-12.02
		c-9.64-3.19-20.63,1.94-22.62,13.41C258.89,476.56,270.78,487.62,283.62,488.19z"/>
	<g>
		<path class="st39" d="M267.23,499.88c0,0-15.72,12.65-5.1,25.47c7.76,9.36,25.33,3.55,25.33,3.55L267.23,499.88z"/>
		<path class="st40" d="M279.06,529.42c12,1.86,21.05-7.18,21.05-18.2c0-7.38-9.1-18.57-17.68-12.02
			c-7.69-3.52-16.95-1.88-19.64,7.44C259.63,517.55,268.47,527.78,279.06,529.42z"/>
		<path class="st41" d="M279.87,511.86c-0.18-0.77-0.48-1.46-0.92-2.12c-1.22-1.81-4.19-0.11-2.95,1.72c0.3,0.44,0.45,0.78,0.58,1.3
			C277.08,514.91,280.37,514,279.87,511.86z"/>
		<path class="st41" d="M285.12,509.51c-0.18,0.5-0.36,1-0.53,1.5c-0.74,2.08,2.56,2.97,3.3,0.91c0.18-0.5,0.36-1,0.53-1.5
			C289.15,508.34,285.85,507.45,285.12,509.51z"/>
	</g>
	<path class="st42" d="M374.26,453.34c0.22-2.45,1.25-4.95,3.26-6.37c1.48-1.05,3.38-1.44,4.76-2.62c1.88-1.61,2.39-4.28,2.65-6.74
		c0.24-2.26,0.44-4.91-0.38-7.09c-0.59-1.58-2.92-3.53-1.53-5.26c3.57,4.27,5.54,9.85,5.44,15.42c-0.02,1.15-0.13,2.33-0.64,3.36
		c-0.55,1.13-1.52,1.99-2.51,2.77c-1.95,1.53-4.06,2.85-5.86,4.55s-3.29,3.88-3.56,6.33c-0.19,1.76,0.25,3.65-0.65,5.23
		C374.05,460.57,374.03,455.92,374.26,453.34z"/>
	<path class="st43" d="M365.66,434.17c0.22-2.45,1.25-4.95,3.26-6.37c1.48-1.05,3.38-1.44,4.76-2.62c1.88-1.61,2.39-4.28,2.65-6.74
		c0.24-2.26,0.44-4.91-0.38-7.09c-0.59-1.58-2.92-3.53-1.53-5.26c3.57,4.27,5.54,9.85,5.44,15.42c-0.02,1.15-0.13,2.33-0.64,3.36
		c-0.55,1.13-1.52,1.99-2.51,2.77c-1.95,1.53-4.06,2.85-5.86,4.55c-1.8,1.7-3.29,3.88-3.56,6.33c-0.19,1.76,0.25,3.65-0.65,5.23
		C365.45,441.4,365.43,436.75,365.66,434.17z"/>
	<path class="st44" d="M361.92,434.33c0.6,2.39,0.44,5.09-1,7.09c-1.06,1.47-2.72,2.46-3.64,4.03c-1.26,2.14-0.86,4.83-0.3,7.24
		c0.51,2.22,1.19,4.78,2.67,6.57c1.08,1.3,3.91,2.38,3.17,4.47c-4.77-2.87-8.45-7.5-10.18-12.79c-0.36-1.09-0.64-2.24-0.5-3.38
		c0.15-1.25,0.79-2.38,1.47-3.44c1.34-2.08,2.9-4.02,4.04-6.22s1.84-4.74,1.3-7.15c-0.39-1.72-1.43-3.37-1.1-5.15
		C359.76,427.43,361.3,431.82,361.92,434.33z"/>
</g>
<path class="st34" d="M772.38,292.3c1.6,2.63,1.3,5.95,0.94,9.01c-0.1,0.86-0.2,1.73-0.3,2.59c3.1-0.72,6.33,0.06,9.37,1.01
	c2.69,0.84,5.34,1.8,7.93,2.89c0.39,0.16,0.8,0.33,1.22,0.33c0.43-0.01,0.83-0.19,1.22-0.39c2.02-1.01,3.92-2.28,5.63-3.76
	c0.43-0.37,0.85-0.76,1.33-1.07c0.62-0.41,1.32-0.67,1.99-1c2.54-1.26,4.56-3.44,5.98-5.9c1.42-2.46,2.28-5.2,2.95-7.96"/>
<g>
	<g>
		<path class="st31" d="M763.7,292.6c0.11-1.04,3.49-2.06,4.31-2.28c1.54-0.42,3.11-0.51,4.69-0.37c0.32,0.03,0.31-0.47,0-0.49
			c-2.24-0.2-4.44,0.09-6.52,0.98c-0.86,0.37-2.85,1.05-2.97,2.16C763.17,292.91,763.66,292.91,763.7,292.6L763.7,292.6z"/>
	</g>
</g>
<g>
	<g>
		<path class="st31" d="M767.07,303c4.94-5.77,12.73-7,19.36-3.43c0.28,0.15,0.53-0.28,0.25-0.43c-6.8-3.67-14.87-2.43-19.96,3.51
			C766.52,302.89,766.86,303.24,767.07,303L767.07,303z"/>
	</g>
</g>
<g>
	<g>
		<path class="st31" d="M786.32,299.69c2.64,0.77,6.07-0.77,8.53-1.68c0.3-0.11,0.17-0.59-0.13-0.48c-2.32,0.87-5.79,2.4-8.27,1.68
			C786.14,299.13,786.01,299.6,786.32,299.69L786.32,299.69z"/>
	</g>
</g>
<g>
	<g>
		<path class="st31" d="M803.24,297.28c0.53,0.11,0.95-0.03,1.25-0.43c0.4-0.34,0.79-0.7,1.17-1.07c0.5-0.49,0.99-1,1.45-1.53
			c1.06-1.2,2.01-2.5,2.85-3.86c1.79-2.89,2.99-6.03,3.76-9.33c0.07-0.31-0.4-0.44-0.48-0.13c-1.54,6.61-5.02,12.34-10.33,16.58
			c-0.22,0.17,0.07,0.55,0.3,0.39c0.09-0.06,0.18-0.13,0.27-0.19C803.75,297.53,803.51,297.1,803.24,297.28L803.24,297.28z"/>
	</g>
</g>
<g>
	<g>
		<path class="st31" d="M801.52,288.05c5.06-4.34,7.6-10.26,8.79-16.78c0.06-0.31-0.42-0.44-0.48-0.13
			c-1.17,6.43-3.66,12.27-8.67,16.56C800.93,287.9,801.28,288.25,801.52,288.05L801.52,288.05z"/>
	</g>
</g>
<g>
	<g>
		<path class="st31" d="M796.34,284.87c1.3-1.17,2.84-2.45,3.76-3.95c0.6-0.97,0.72-1.98,1.05-3.07c0.95-3.14,2.6-5.62,2.96-8.96
			c0.03-0.32-0.46-0.31-0.49,0c-0.32,2.97-1.68,5.24-2.66,7.97c-0.63,1.73-0.72,3-1.91,4.58c-0.86,1.15-2,2.13-3.06,3.09
			C795.75,284.73,796.1,285.08,796.34,284.87L796.34,284.87z"/>
	</g>
</g>
<g>
	<g>
		<path class="st31" d="M798.68,290.19c1.13-0.62,2.16-1.37,3.1-2.25c0.23-0.22-0.12-0.57-0.35-0.35c-0.91,0.86-1.91,1.58-3,2.18
			C798.15,289.91,798.4,290.34,798.68,290.19L798.68,290.19z"/>
	</g>
</g>
<g>
	<g>
		<path class="st31" d="M792.84,286.74c1.12-0.59,2.21-1.24,3.27-1.95c0.26-0.18,0.02-0.61-0.25-0.43
			c-1.05,0.71-2.14,1.36-3.27,1.95C792.31,286.47,792.56,286.89,792.84,286.74L792.84,286.74z"/>
	</g>
</g>
<g>
	<g>
		<path class="st31" d="M791.61,286.28c0.87,0.58,1.67,1.24,2.41,1.98c0.22,0.23,0.57-0.12,0.35-0.35
			c-0.77-0.77-1.61-1.46-2.51-2.06C791.6,285.67,791.35,286.1,791.61,286.28L791.61,286.28z"/>
	</g>
</g>
<g>
	<g>
		<path class="st31" d="M796.71,289.26c0.89,0.77,1.64,1.66,2.24,2.67c0.16,0.27,0.59,0.02,0.43-0.25c-0.62-1.05-1.4-1.97-2.32-2.77
			C796.82,288.7,796.47,289.05,796.71,289.26L796.71,289.26z"/>
	</g>
</g>
<g>
	<g>
		<path class="st31" d="M802.25,296.33c0.94,0.93,1.68,2.01,2.21,3.22c0.13,0.29,0.55,0.04,0.43-0.25
			c-0.55-1.25-1.32-2.36-2.29-3.32C802.37,295.76,802.02,296.11,802.25,296.33L802.25,296.33z"/>
	</g>
</g>
<path class="st7" d="M605.89,212.01c-0.07,0.27-0.17,0.53-0.3,0.79c-6.35-0.43-12.64-1.81-18.58-4.11c0.08-0.98,0.78-1.69,2.42-1.77
	c2.07-0.1,4.29,1.03,6.39,1.14c2.56,0.13,6.45-1.18,8.75,0.23C605.77,209.03,606.26,210.65,605.89,212.01z"/>
<g>
	
		<ellipse transform="matrix(0.1165 -0.9932 0.9932 0.1165 50.0552 1075.3766)" class="st7" cx="629.47" cy="509.55" rx="49.24" ry="63.06"/>
	
		<ellipse transform="matrix(0.1165 -0.9932 0.9932 0.1165 50.0552 1075.3766)" class="st38" cx="629.47" cy="509.55" rx="36.51" ry="46.76"/>
	
		<ellipse transform="matrix(0.1165 -0.9932 0.9932 0.1165 121.8998 1207.8413)" class="st7" cx="739.85" cy="535.4" rx="15.23" ry="19.5"/>
	<polygon class="st7" points="763.31,500.38 759.22,537.68 720.48,533.13 724.57,495.83 	"/>
	
		<ellipse transform="matrix(0.1165 -0.9932 0.9932 0.1165 162.5584 1178.9528)" class="st7" cx="743.94" cy="498.11" rx="15.23" ry="19.5"/>
	
		<ellipse transform="matrix(0.1165 -0.9932 0.9932 0.1165 162.5584 1178.9528)" class="st25" cx="743.94" cy="498.11" rx="11.29" ry="14.46"/>
	<path class="st7" d="M723.78,503.77c0,0-6.84-2.76-8.43,9.87c-1.59,12.64,9.63,17.9,9.63,17.9l-1.31-5.12c0,0-5.76-6.28-4.83-14.19
		c0.93-7.91,10.9-3.94,10.9-3.94L723.78,503.77z"/>
	<path class="st42" d="M749.8,483.78c0.5-2.41,1.82-4.77,3.98-5.95c1.59-0.87,3.52-1.04,5.03-2.04c2.06-1.38,2.87-3.97,3.42-6.39
		c0.5-2.22,1-4.82,0.45-7.08c-0.4-1.64-2.49-3.84-0.91-5.4c3.05,4.66,4.35,10.43,3.61,15.95c-0.15,1.14-0.4,2.3-1.02,3.26
		c-0.68,1.06-1.75,1.8-2.82,2.46c-2.11,1.29-4.36,2.36-6.35,3.84c-1.98,1.48-3.72,3.47-4.28,5.88c-0.4,1.72-0.18,3.65-1.25,5.12
		C748.75,490.93,749.27,486.31,749.8,483.78z"/>
	<path class="st43" d="M743.5,463.74c0.5-2.41,1.82-4.77,3.98-5.95c1.59-0.87,3.52-1.04,5.03-2.04c2.06-1.38,2.87-3.97,3.42-6.39
		c0.5-2.22,1-4.82,0.45-7.08c-0.4-1.64-2.49-3.84-0.91-5.4c3.05,4.66,4.35,10.43,3.61,15.95c-0.15,1.14-0.4,2.3-1.02,3.26
		c-0.68,1.06-1.75,1.8-2.82,2.46c-2.11,1.29-4.36,2.36-6.35,3.84c-1.98,1.48-3.72,3.47-4.28,5.88c-0.4,1.72-0.18,3.65-1.25,5.12
		C742.44,470.89,742.97,466.27,743.5,463.74z"/>
	<path class="st44" d="M739.77,463.46c0.32,2.44-0.16,5.1-1.82,6.92c-1.22,1.34-2.99,2.13-4.08,3.58c-1.5,1.97-1.42,4.69-1.15,7.15
		c0.25,2.26,0.63,4.89,1.89,6.84c0.92,1.42,3.61,2.82,2.63,4.81c-4.4-3.41-7.52-8.43-8.62-13.89c-0.23-1.13-0.37-2.3-0.1-3.42
		c0.3-1.22,1.06-2.27,1.86-3.25c1.57-1.91,3.35-3.66,4.74-5.7s2.38-4.49,2.12-6.95c-0.19-1.76-1.03-3.51-0.49-5.25
		C738.42,456.35,739.44,460.89,739.77,463.46z"/>
	<g>
		<path class="st39" d="M671.26,470.76c-0.06-1.21-1.61-1.47-2.41-0.89c-27.68,19.82-57.19,36.8-88.23,50.79
			c-1.45,0.65-0.83,2.61,0.43,2.8c0.14,0.13,0.32,0.23,0.55,0.3c20.75,6.4,44.47,6.69,63.48-5.06
			C661.59,508.49,672.29,490.31,671.26,470.76z"/>
		<path class="st1" d="M674.2,470.77c-0.48-1.89-1.38-3.34-2.91-3.85c-2.81-0.94-2.26,6.13-2.53,7.51c-1,5.14-2.62,10.16-4.85,14.91
			c-4.27,9.08-10.73,17.06-18.67,23.17c-16.15,12.42-37.7,16.46-57.21,10.53c-2.7-0.82-5.35-1.82-7.92-2.98
			c-3.89-1.76,0.43,4.82,1.06,5.51c13.72,15.25,41.2,11.63,57.81,3.62c11.18-5.39,20.36-14.34,26.41-25.15
			c3.23-5.78,6.23-11.84,7.89-18.28C673.94,483.15,675.41,475.54,674.2,470.77z"/>
		<path class="st45" d="M599.3,516.95c-0.46-0.42-0.92-0.84-1.37-1.25c-1.41-1.29-3.14,1.13-1.74,2.41
			c0.46,0.42,0.92,0.84,1.37,1.25C598.97,520.65,600.69,518.23,599.3,516.95z"/>
		<path class="st45" d="M619.49,518.86c-0.44-0.55-0.88-1.09-1.32-1.64c-1.2-1.5-3.5,0.4-2.3,1.89c0.44,0.55,0.88,1.09,1.32,1.64
			C618.4,522.24,620.69,520.35,619.49,518.86z"/>
		<path class="st45" d="M629.95,503.61c-0.42-0.79-0.83-1.58-1.25-2.37c-0.89-1.69-3.6-0.45-2.7,1.25c0.42,0.79,0.83,1.58,1.25,2.37
			C628.13,506.55,630.84,505.31,629.95,503.61z"/>
		<path class="st45" d="M645.62,507.04c-0.52-1.05-1.04-2.09-1.56-3.14c-0.85-1.71-3.56-0.47-2.7,1.25
			c0.52,1.05,1.04,2.09,1.56,3.14C643.77,510,646.47,508.76,645.62,507.04z"/>
		<path class="st45" d="M653.25,491.34c-0.35-1.53-0.7-3.06-1.05-4.58c-0.43-1.86-3.36-1.36-2.93,0.51c0.35,1.53,0.7,3.06,1.05,4.58
			C650.75,493.7,653.68,493.21,653.25,491.34z"/>
	</g>
</g>
</svg>
