<?xml version="1.0" encoding="UTF-8" standalone="no"?>
<!-- Generator: Adobe Illustrator 23.0.2, SVG Export Plug-In . SVG Version: 6.00 Build 0)  -->

<svg
   xmlns:dc="http://purl.org/dc/elements/1.1/"
   xmlns:cc="http://creativecommons.org/ns#"
   xmlns:rdf="http://www.w3.org/1999/02/22-rdf-syntax-ns#"
   xmlns:svg="http://www.w3.org/2000/svg"
   xmlns="http://www.w3.org/2000/svg"
   xmlns:sodipodi="http://sodipodi.sourceforge.net/DTD/sodipodi-0.dtd"
   xmlns:inkscape="http://www.inkscape.org/namespaces/inkscape"
   version="1.1"
   id="Layer_1"
   x="0px"
   y="0px"
   viewBox="0 0 726.43 729.87"
   style="enable-background:new 0 0 726.43 729.87;"
   xml:space="preserve"
   sodipodi:docname="26-03-MCB.svg"
   inkscape:version="0.92.4 (5da689c313, 2019-01-14)"><metadata
   id="metadata161"><rdf:RDF><cc:Work
       rdf:about=""><dc:format>image/svg+xml</dc:format><dc:type
         rdf:resource="http://purl.org/dc/dcmitype/StillImage" /><dc:title></dc:title></cc:Work></rdf:RDF></metadata><defs
   id="defs159" /><sodipodi:namedview
   pagecolor="#ffffff"
   bordercolor="#666666"
   borderopacity="1"
   objecttolerance="10"
   gridtolerance="10"
   guidetolerance="10"
   inkscape:pageopacity="0"
   inkscape:pageshadow="2"
   inkscape:window-width="1920"
   inkscape:window-height="986"
   id="namedview157"
   showgrid="false"
   inkscape:zoom="0.45727925"
   inkscape:cx="236.9037"
   inkscape:cy="239.02575"
   inkscape:window-x="-11"
   inkscape:window-y="-11"
   inkscape:window-maximized="1"
   inkscape:current-layer="g148" />
<style
   type="text/css"
   id="style2">
	.st0{opacity:0.1;fill:#007CC7;}
	.st1{fill:#643526;}
	.st2{fill:#422645;}
	.st3{fill:#673636;}
	.st4{fill:#311C33;}
	.st5{fill:#F29542;}
	.st6{fill:#D37E37;}
	.st7{fill:#522727;}
	.st8{fill:#FFFFFF;}
	.st9{font-family:'BelloCapsPro-Regular';}
	.st10{font-size:51.8098px;}
</style>
<g
   id="g148">
	<path
   class="st0"
   d="M725.88,376.91c-3.88,34.72-17.16,54.03-33.23,67.12c-27.31,22.24-62.64,26.48-73.44,57.76   c-17.16,49.69,24.78,58.29,29.5,78.78c0.5,2.14,0.81,4.23,0.94,6.23c0.01,0.05,0.01,0.1,0.01,0.15c0.01,0.33,0.03,0.65,0.04,0.97   v0.3c0.01,0.21,0.01,0.42,0.01,0.63c0,0.15,0,0.3-0.01,0.44c0.01,0.07,0.01,0.15,0,0.21c0,0.23-0.01,0.44-0.01,0.67   c0,0.09-0.01,0.18-0.01,0.27c0,0.11-0.01,0.23-0.01,0.34c-0.01,0.2-0.02,0.41-0.04,0.61c-6.98,92.11-423.45,24.17-566.08-1.84   c-69.82-12.74-105.61-91.4-68.95-152.17c0.55-0.91,1.11-1.83,1.69-2.75c57.74-92.04,126.05-64.85,155.93-167.67   C202.1,164.12,346.47,133.2,490.01,132.92c143.53-0.29,112.07,88.84,108.9,134.03S736.33,283.18,725.88,376.91z"
   id="path4" />
	<path
   class="st1"
   d="M289.32,398.32c11.56-6.36,24.21-8,37.08-5.38c6.76,1.37,3.43,11.6-3.3,10.23   c-9.99-2.03-19.89-0.23-28.76,4.65C288.27,411.17,283.27,401.66,289.32,398.32z"
   id="path6" />
	<path
   class="st2"
   d="M587.01,192.72c12.78,1.37,24.63-0.25,29.64-10.66c7.43-15.45-23.72-21.85-31.61-24.2   c-1.08-0.32-3.06-0.95-5.51-1.67c5.87-3.6,11.62-7.31,17.14-10.6c8.14-4.85,18-10.8,16.92-21.68c-0.81-8.26-6.75-12.29-14.76-12.63   c-11.41-0.49-20.95,7.52-29.76,13.55c-1.99,1.36-4.03,2.55-6.09,3.61c0.67-2.32,0.97-4.8,0.58-7.55   c-1.63-11.45-14.34-16.01-25.67-20.17c15.1-3.08,28.31-8.58,27.49-21.04c-1.86-28.27-48.63-8.68-60.16-4.39   c-14.92,5.55-29.82,11.49-43.86,19.05c11.44-10.59,22.98-21.09,33.36-32.46c8.43-9.24,19.15-24.17,14.38-37.66   c-13.24-37.47-50.49,20.21-60.21,28.54c-15.48,13.24-37.43,20.16-56.45,29.72c7.16-10.05,15.84-19.18,27.76-27.24   c11.97-8.1,54.99-31.89,28.47-51.4c-24.74-18.2-61.05,33.68-74.83,45.85c-13.27,11.72-20.48,25.57-25.88,40.12   c1.91-13.86,3.46-27.7,8.45-40.98c4.77-12.7,18.98-43.88-6.34-47.2c-22.25-2.92-22.44,33.5-25.62,46.7   c-3.85,15.96-14.36,27.6-18.9,42.49c-1.6,5.26-2.17,11.41-2.23,17.89c-4.75-16.74-5.47-32.2-6.25-50.4   c-0.5-11.53-2.98-44.78-21.65-42.78c-19.73,2.12-8.28,33.41-6.42,44.29c2.71,15.86-1.59,32.29,3.22,47.71   c0.28,0.91,0.76,2.23,1.33,3.73c-8.12-7.15-16.43-14.12-22.71-22.77c-6.2-8.53-18.7-37.38-34.37-26.67   c-15.69,10.71,4.97,36.83,12.83,44.93c2.48,2.56,5.02,4.96,7.56,7.35c-1.56-0.29-2.99-0.73-4.63-0.93   c-12.33-1.47-56.34-7.08-50.1,19.28c1.49,6.3,5.42,8.43,11.25,10.05c5.82,1.62,13.82-0.79,19.85-0.66   c8.73,0.19,17.61,1.46,25.93,4.3c-21.83,0.67-43.64,10.53-47.54,29.51c-2.68,13.03,6.94,24.73,20.37,20.63   c11.75-3.59,21.99-11.64,34.22-14.95c8.37-2.26,20.27-0.95,28.68-4.29c8.2,8.08,16.81,13.49,25.31,8.3   c2.39-1.46,3.1-3.89,2.69-6.51c-0.26-1.66-0.84-3.21-1.39-4.78c0.31-0.46,0.52-0.98,0.68-1.51c0.05-0.01,0.1,0.02,0.15,0.01   c0.52-0.08,1.05-0.16,1.58-0.24c0.39-0.06,0.71-0.42,1.08-0.61c1.47,0.49,2.85,0.3,4-0.41c0.89,0.25,1.81,0.19,2.69-0.05   c1.22,0.15,2.51,0.01,3.79-0.78c1.12-0.69,2.26-1.18,3.38-1.83c2,1.72,4.85,2.13,7.05-0.54c1.34-1.63,2.52-3.3,3.7-4.96   c0.53-0.23,1.07-0.41,1.6-0.64c1.51,2.57,4.8,4.06,7.73,2.29c4.22-2.55,7.84-5.34,11.07-8.36c5.22-1.17,10.55-2.11,16.16-2.6   c9.66-0.85,18.52-0.79,27.61-4.05c-0.35,3.16,2.24,6.33,5.43,6.57c-0.17,1.67-0.13,3.35,0.17,5.04c0.44,2.47,2.25,4.69,4.86,5.03   c6.32,0.82,12.36-0.11,18.21-2.15c8.58,4.4,17.56,8.75,26.84,11.75c1.48,2.01,3.95,3.28,6.6,2.11c0.15-0.06,0.29-0.11,0.44-0.17   c3.1,0.73,6.23,1.3,9.39,1.61c0.25,3.71,3.62,7.31,7.63,5.19c4.88-2.59,9.93-4.77,14.9-7.11c-2.52,8.29-3.67,16.4,7.16,19.68   c2.02,0.61,3.81,0.12,5.23-0.87c-0.13,0.85-0.13,1.71-0.22,2.56c-1.16,1.54-1.15,3.37-0.42,4.99c-0.03,2.47,0.12,4.97,0.55,7.49   c1.21,7.3,12.7,6,11.47-1.36c-0.27-1.61-0.4-3.24-0.44-4.87c23.45-12.88,43.42,1.69,60.32,17.99c7.23,6.98,16.09,15.42,26.94,15.83   c13.37,0.51,22.7-9.86,15.37-22.21C608.48,207.22,596.18,199.89,587.01,192.72z"
   id="path8" />
	<path
   class="st3"
   d="M368.86,215.93c-157.1,6.83-140.16,141.41-139.57,147.3c6.41,64.29,8.18,116.87,36.09,160.03   c17.31,26.77,51.5,85.49,113.71,85.49c100.22,0,136.09-190.97,133.06-251.8C508.34,280.63,538.14,208.57,368.86,215.93z"
   id="path10" />
	<path
   class="st3"
   d="M531.28,405.51c-20.74-15.96-38.79,25.44-45.17,38.62c-3.98,8.21,7.97,15.3,12.27,7.63   c-1.35,2.4-2.69,4.79-4.04,7.19c-4.62,8.22-13.49,19.64-7.73,29.39c11.24,19.01,40.49-6.67,48.22-18.68   C552.34,442.46,548.08,418.44,531.28,405.51z"
   id="path12" />
	<path
   class="st3"
   d="M220.16,476.73c7.69,10.59,35.77,32.59,45.08,14.61c4.77-9.22-3.93-19.21-8.58-26.5   c-1.36-2.12-2.71-4.25-4.07-6.37c4.33,6.8,14.9-0.31,10.83-7.61c-6.52-11.73-25.16-48.69-43.32-33.02   C205.4,430.54,202.73,452.74,220.16,476.73z"
   id="path14" />
	<path
   class="st2"
   d="M258.78,326.76c-1.71-3.62-6.49-3.36-9.07-1.17c-8.08,6.86-9.44,18.87-12.14,28.6   c-3.46,12.43-6.47,24.98-9.41,37.54c-3.42-2.09-9.02-0.62-8.96,4.59c0.16,13.19,14.14,28.58,22.79,11.36   c6.67-13.27,8.48-31.17,12.19-45.55C257.04,351.07,263.96,337.74,258.78,326.76z"
   id="path16" />
	<path
   class="st2"
   d="M515.03,345.46c-0.27-3.9-3.51-5.71-6.5-5.48c-1.2-11.91-5.42-22.6-11.44-32.96   c-3.73-6.42-13.72-0.62-9.97,5.83c17.11,29.44,1.53,61.35,15.43,91.03c2.1,4.49,9.51,3.27,10.55-1.38   C517.22,384.12,515.1,364.19,515.03,345.46z"
   id="path18" />
	<path
   class="st5"
   d="M580.84,234.75c-10.93-37.62-51.32-67.67-84.31-85.24c-38.83-25.16-98.81-23.7-138.17-3.05   c-4.91,0.2-9.97,0.68-15.19,1.47c-57.15,8.69-116.18,42.06-121,104.5c-1.93,2.4-3.87,4.81-5.64,7.34   c-31.79,45.35-34.29,114.23,5.58,155.19c2.99,3.07,6.86,2.76,9.74,1.09c1.79-1.04,2.92-3.66,3.37-6.41   c5.44-33.09,12.95-69.12,37.75-93.64c23.54-23.28,57.05-36.47,89.47-40.49c33.07-4.11,68.95,0.27,96.62,19.98   c33.23,23.68,61.55,61.43,46.17,103.67c-0.53,1.44,1.67,12.87,6.85,11.53c24.69-6.41,36.23-26.13,42.6-49.63   c6.44-23.76,11.84-53.42,7.86-79.31C578.64,274.09,587.43,257.43,580.84,234.75z"
   id="path20" />
	<g
   id="g26">
		<g
   id="g24">
			<path
   class="st6"
   d="M244.18,294.44c45.1-45.54,116.24-55.19,176.71-42.31c1.84,0.39,2.63-2.43,0.78-2.83     c-48.49-10.33-102.28-6.5-146.19,17.85c-12.26,6.8-23.51,15.26-33.37,25.22C240.77,293.71,242.84,295.79,244.18,294.44     L244.18,294.44z"
   id="path22" />
		</g>
	</g>
	<g
   id="g32">
		<g
   id="g30">
			<path
   class="st6"
   d="M413.05,231.72c22.47,3.89,45.64,8.88,65.15,21.26c10.85,6.89,18.8,16,26.55,26.1     c8.12,10.58,17.17,20.28,26.4,29.88c1.31,1.36,3.38-0.71,2.07-2.07c-10.31-10.74-20.04-21.69-29.15-33.47     c-6.97-9.01-14.75-16.85-24.4-22.97c-19.72-12.52-43.14-17.63-65.85-21.56C411.98,228.57,411.19,231.4,413.05,231.72     L413.05,231.72z"
   id="path28" />
		</g>
	</g>
	<g
   id="g38">
		<g
   id="g36">
			<path
   class="st6"
   d="M522.94,276.43c6.23,9.28,12.45,18.57,18.68,27.85c1.05,1.56,3.59,0.09,2.53-1.48     c-6.23-9.28-12.45-18.57-18.68-27.85C524.43,273.39,521.89,274.86,522.94,276.43L522.94,276.43z"
   id="path34" />
		</g>
	</g>
	<g
   id="g44">
		<g
   id="g42">
			<path
   class="st6"
   d="M238.36,224.27c10-11.88,22.74-21.19,37.22-26.88c15.25-5.99,30.71-6.38,46.87-6.45     c7.93-0.04,15.87-0.33,23.64-2.01c7.27-1.57,14.27-4.16,21.22-6.79c14.68-5.56,29.97-11.92,45.93-8.47     c1.84,0.4,2.63-2.43,0.78-2.83c-15.41-3.33-30.1,1.87-44.37,7.29c-7.22,2.74-14.44,5.56-21.95,7.42     c-9.54,2.37-19.3,2.46-29.07,2.46c-16.24,0-31.64,1.29-46.73,7.75c-13.78,5.9-25.96,14.97-35.6,26.44     C235.08,223.63,237.14,225.72,238.36,224.27L238.36,224.27z"
   id="path40" />
		</g>
	</g>
	<g
   id="g50">
		<g
   id="g48">
			<path
   class="st6"
   d="M390.3,161.2c10.05-2.75,20.39-2.12,29.99,1.97c1.72,0.73,3.21-1.79,1.48-2.53     c-10.35-4.42-21.38-5.25-32.25-2.27C387.7,158.87,388.47,161.7,390.3,161.2L390.3,161.2z"
   id="path46" />
		</g>
	</g>
	<g
   id="g56">
		<g
   id="g54">
			<path
   class="st6"
   d="M508.51,206.82c20.21,15.62,38.6,33.37,54.92,53c1.21,1.45,3.27-0.63,2.07-2.07     c-16.32-19.64-34.72-37.39-54.92-53C509.11,203.6,507.02,205.66,508.51,206.82L508.51,206.82z"
   id="path52" />
		</g>
	</g>
	<g
   id="g62">
		<g
   id="g60">
			<path
   class="st7"
   d="M346.66,381.54c3,14.53,5.32,29.68,3.43,44.53c-1.45,11.39-5.93,21.25-12.11,30.8     c-3.29,5.09-5.39,10.43-3.99,16.54c1.12,4.89,4.29,9.72,8.96,11.82c6.4,2.88,13.2,0.1,19.46-1.74c6.1-1.79,12.97-0.5,18.83-3.03     c9.06-3.91,13.14-21.09,2.23-25.26c-1.61-0.61-2.3,1.96-0.71,2.57c4.93,1.89,5.23,8.73,3.75,12.96     c-1.34,3.83-4.02,6.72-7.95,7.85c-2.8,0.81-5.71,0.63-8.58,0.79c-3.98,0.22-7.66,1.38-11.44,2.54c-4.34,1.33-9.1,2.84-13.58,1.26     c-4.04-1.42-6.81-5.19-8.04-9.17c-2.7-8.72,3.3-14.96,7.28-21.99c12.47-21.98,9.98-47.34,5.05-71.18     C348.89,379.15,346.32,379.86,346.66,381.54L346.66,381.54z"
   id="path58" />
		</g>
	</g>
	<g
   id="g68">
		<g
   id="g66">
			<path
   class="st3"
   d="M299.8,405.9c-6.12,4.17-8.75,11.96-5.02,18.71c3.54,6.4,11.57,9.09,16.36,2.51     c4.18-5.74,3.86-14.68-0.72-20.09c-6.05-7.16-12.75-1.12-15.78,5.3c-0.8,1.7,1.73,3.19,2.53,1.48c0.88-1.86,1.75-3.98,3.27-5.41     c2.92-2.76,7.08-0.99,8.91,2.15c2.33,4.01,2.37,9.53,0.19,13.62c-3.62,6.8-11.34,2.78-13.13-3.21     c-1.46-4.89,0.77-9.74,4.87-12.53C302.83,407.38,301.36,404.84,299.8,405.9L299.8,405.9z"
   id="path64" />
		</g>
	</g>
	<g
   id="g74">
		<g
   id="g72">
			<path
   class="st7"
   d="M394.68,476.85c0.82,7.12,4.52,13.09,10.16,17.48c2.94,2.29,6.24,4.04,9.67,5.47     c4.54,1.89,9.91,2.89,12.88,7.17c0.97,1.4,3.29,0.07,2.3-1.35c-3.61-5.19-9.58-6.25-15.06-8.66c-8.56-3.76-16.16-10.3-17.28-20.1     C397.16,475.16,394.49,475.14,394.68,476.85L394.68,476.85z"
   id="path70" />
		</g>
	</g>
	<g
   id="g80">
		<g
   id="g78">
			<path
   class="st7"
   d="M332.15,483.21c-6.7,11.74-15.32,20.38-29.16,22.62c-1.69,0.27-0.97,2.85,0.71,2.57     c14.5-2.35,23.73-11.53,30.75-23.85C335.31,483.06,333.01,481.72,332.15,483.21L332.15,483.21z"
   id="path76" />
		</g>
	</g>
	<g
   id="g86">
		<g
   id="g84">
			<path
   class="st7"
   d="M397.78,439.39c6.95,1.11,14.05,1.98,21.05,0.79c6.24-1.06,11.94-3.82,17.52-6.69     c1.54-0.79,0.18-3.12-1.36-2.33c-5.04,2.59-10.17,5.11-15.77,6.21c-6.85,1.34-13.91,0.5-20.73-0.59     C396.8,436.51,396.07,439.11,397.78,439.39L397.78,439.39z"
   id="path82" />
		</g>
	</g>
	<g
   id="g92">
		<g
   id="g90">
			<path
   class="st7"
   d="M288.09,433.34c10.08,5.9,21.72,5.95,32.92,3.92c1.69-0.31,0.97-2.88-0.71-2.57     c-10.48,1.9-21.43,1.88-30.87-3.65C287.95,430.17,286.6,432.47,288.09,433.34L288.09,433.34z"
   id="path88" />
		</g>
	</g>
	<g
   id="g98">
		<g
   id="g96">
			<path
   class="st7"
   d="M527.5,431.94c-7.38,0.83-12.72,8.49-16.92,13.98c-5.53,7.24-9.79,15.25-12.93,23.79     c0.86,0.24,1.72,0.47,2.57,0.71c1.4-3.93,3.71-7.19,7.11-9.65c1.21-0.88,3.85-2.99,5.33-2.71c3.21,0.6,1.14,5.36,0.05,7.44     c-0.79,1.52,1.51,2.87,2.3,1.35c1.75-3.35,4.33-12.73-2.37-11.57c-7.13,1.23-12.72,8.04-14.99,14.44     c-0.58,1.63,1.99,2.31,2.57,0.71c2.49-6.79,5.73-13.22,9.8-19.2c3.63-5.34,10.45-15.82,17.47-16.61     C529.19,434.42,529.2,431.75,527.5,431.94L527.5,431.94z"
   id="path94" />
		</g>
	</g>
	<path
   class="st4"
   d="M337.85,359.92c-0.49-0.91-1.14-1.71-1.97-2.33c-1.37-1.02-3.08-1.45-4.74-1.85   c-22.64-5.46-50.3,10.88-62.25,29.9c-0.55,0.5-1.01,1.09-1.34,1.8c-1.03,1.89-1.81,3.83-2.33,5.81c-0.59,1.9,0.19,3.25,1.49,4.07   c1,1.5,2.98,2.29,5.68,1.06c9.54-4.32,17.25-10.43,26.42-15.25c11.13-5.84,23.61-6.41,35.28-10.38c1.24-0.42,2.49-0.97,3.41-1.91   c1.64-1.68,1.91-4.28,1.63-6.61C338.96,362.75,338.57,361.23,337.85,359.92z"
   id="path100" />
	<path
   class="st4"
   d="M382.29,370.11c14.14,0.85,25.92-0.87,39.93,3.69c10.23,3.33,19.2,8.25,29.72,11.01   c2.98,0.78,4.87-0.37,5.63-2.08c1.19-1.07,1.76-2.59,0.82-4.43c-0.89-1.93-2.02-3.78-3.4-5.54c-0.46-0.67-1.04-1.2-1.69-1.61   c-16.74-18.73-57.89-32.5-77.84-15.25C367.74,362.6,370.99,369.43,382.29,370.11z"
   id="path102" />
	<path
   class="st7"
   d="M381.04,508.3c-6.97,0.14-14.08,0.89-20.41,3.82c-5.73,2.66-10.68,7.28-12.84,13.31   c-1.34,3.77-0.99,10.01,3.18,11.95c0.66,0.31,1.57,0.42,2.01-0.16c0.16-0.22,0.22-0.5,0.26-0.77c0.17-1.24-0.05-2.56,0.43-3.72   c1.53-3.71,7.39-3.6,10.62-3.14c3.34,0.48,6.52,1.66,9.72,2.72c7.15,2.35,17.49,6.46,25.03,3.9c3.27-1.12,5.67-4.15,6.57-7.49   C409.8,513.04,392.55,508.08,381.04,508.3z"
   id="path104" />
	<path
   class="st4"
   d="M320.79,403.95c3.06,7.26,0.51,16.25-5.96,17.39c-10.52,1.85-13.23-9.68-19.25-12.99   c-0.76-0.42-3.12,0.24-3.92,0c-1.19-0.35-1.39-1.72-0.55-2.63c2.11-2.28,9-5.66,11.67-6.99   C310.43,394.92,317.27,395.6,320.79,403.95z"
   id="path106" />
	<path
   class="st4"
   d="M400.59,404.92c-3,8.03,0.19,17.69,7.28,18.63c11.52,1.53,13.94-11.13,20.33-15.01   c0.81-0.49,3.4,0.11,4.26-0.18c1.28-0.43,1.43-1.93,0.48-2.88c-2.39-2.38-10.05-5.73-13.01-7.06   C411.43,394.62,404.03,395.68,400.59,404.92z"
   id="path108" />
	<g
   id="g114">
		<g
   id="g112">
			<path
   class="st7"
   d="M280.49,418.29c-6.71,1.38-13.63,3.19-18.45,8.37c-0.71,0.76,0.43,1.91,1.15,1.15     c4.63-4.97,11.3-6.64,17.73-7.95C281.95,419.65,281.51,418.08,280.49,418.29L280.49,418.29z"
   id="path110" />
		</g>
	</g>
	<g
   id="g120">
		<g
   id="g118">
			<path
   class="st7"
   d="M278.01,423c-5.23,1.17-10.21,5.05-12.92,9.64c-0.53,0.9,0.87,1.72,1.4,0.82c2.5-4.25,7.11-7.82,11.95-8.89     C279.46,424.34,279.03,422.78,278.01,423L278.01,423z"
   id="path116" />
		</g>
	</g>
	<g
   id="g126">
		<g
   id="g124">
			<path
   class="st7"
   d="M448.42,415.9c6.43,1.32,13.1,2.98,17.73,7.95c0.71,0.77,1.86-0.38,1.15-1.15c-4.82-5.18-11.74-7-18.45-8.37     C447.83,414.13,447.39,415.7,448.42,415.9L448.42,415.9z"
   id="path122" />
		</g>
	</g>
	<g
   id="g132">
		<g
   id="g130">
			<path
   class="st7"
   d="M450.9,420.62c4.83,1.08,9.44,4.65,11.95,8.89c0.53,0.9,1.93,0.08,1.4-0.82c-2.7-4.59-7.68-8.47-12.92-9.64     C450.31,418.83,449.88,420.39,450.9,420.62L450.9,420.62z"
   id="path128" />
		</g>
	</g>
	<g
   aria-label="Passive"
   transform="matrix(1 0 0 1 302.7693 715.6697)"
   style="font-style:normal;font-variant:normal;font-weight:bold;font-stretch:normal;font-size:51.80932999px;font-family:BelloCapsPro-Regular;-inkscape-font-specification:'BelloCapsPro-Regular, Bold';font-variant-ligatures:normal;font-variant-caps:normal;font-variant-numeric:normal;font-feature-settings:normal;text-align:start;writing-mode:lr-tb;text-anchor:start"
   id="text134"><path
     d="m 35.897187,-25.778177 q 0,2.529752 -0.885413,4.958314 -0.885414,2.403265 -2.529753,4.047604 -2.251479,2.226182 -5.034207,3.364571 -2.75743,1.138389 -6.880927,1.138389 H 14.520779 V 0 H 4.8065296 V -37.668014 H 20.794565 q 3.592249,0 6.046108,0.632438 2.479158,0.607141 4.376472,1.84672 2.276777,1.492553 3.465761,3.819926 1.214281,2.327372 1.214281,5.590753 z M 25.85407,-25.5505 q 0,-1.593744 -0.860116,-2.732132 -0.860116,-1.163686 -1.998504,-1.619042 -1.517852,-0.60714 -2.959811,-0.657735 -1.441959,-0.07589 -3.845223,-0.07589 h -1.669637 v 11.282696 h 2.782728 q 2.479157,0 4.072901,-0.30357 1.619042,-0.303571 2.706835,-1.214282 0.936009,-0.80952 1.340769,-1.922611 0.430058,-1.138389 0.430058,-2.757431 z"
     style=""
     id="path165" /><path
     d="m 59.449181,-7.4121747 v -5.9196203 q -1.846719,0.151785 -3.997009,0.430058 -2.150289,0.252975 -3.263381,0.60714 -1.366066,0.430058 -2.099694,1.264876 -0.708331,0.809521 -0.708331,2.1502899 0,0.8854134 0.151785,1.4419589 0.151786,0.5565456 0.758926,1.062496 0.581843,0.5059505 1.391364,0.7589258 0.809521,0.2276777 2.529752,0.2276777 1.366067,0 2.757431,-0.5565455 1.416661,-0.5565456 2.479157,-1.4672565 z m 0,4.4017693 q -0.733628,0.5565455 -1.821422,1.3407688 -1.087793,0.78422325 -2.049099,1.23957869 -1.340769,0.60714058 -2.782728,0.88541335 -1.441959,0.30357029 -3.16219,0.30357029 -4.047604,0 -6.779737,-2.50445493 -2.732133,-2.5044549 -2.732133,-6.4002737 0,-3.1115951 1.391364,-5.0848021 1.391364,-1.973207 3.946414,-3.111596 2.529752,-1.138388 6.273786,-1.619041 3.744034,-0.480653 7.76634,-0.708331 v -0.151785 q 0,-2.35267 -1.922612,-3.238083 -1.922612,-0.910711 -5.666645,-0.910711 -2.25148,0 -4.80653,0.809521 -2.55505,0.784223 -3.668141,1.214281 H 42.60103 v -6.855629 q 1.441959,-0.379463 4.680042,-0.885414 3.26338,-0.531248 6.526761,-0.531248 7.76634,0 11.206803,2.403265 3.465761,2.377967 3.465761,7.488067 V 0 h -9.031216 z"
     style=""
     id="path167" /><path
     d="m 101.54426,-9.0059187 q 0,4.4017693 -3.946412,7.1086044 -3.946414,2.68153756 -10.802043,2.68153756 -3.794628,0 -6.880926,-0.70833069 -3.086298,-0.70833068 -4.958315,-1.56844647 v -7.4880673 h 0.834818 q 0.683033,0.480653 1.568447,1.0624961 0.91071,0.5565455 2.55505,1.2142811 1.416661,0.5818431 3.212785,1.011901 1.796124,0.4047604 3.845224,0.4047604 2.681537,0 3.971711,-0.5818431 1.290174,-0.6071405 1.290174,-1.7708267 0,-1.0371985 -0.758926,-1.4925539 -0.758926,-0.480653 -2.883918,-0.9107107 -1.011901,-0.227678 -2.75743,-0.480653 -1.720231,-0.278273 -3.136893,-0.657736 -3.870521,-1.011901 -5.742538,-3.136893 -1.872017,-2.150289 -1.872017,-5.337777 0,-4.098199 3.870522,-6.805035 3.895818,-2.732132 10.62496,-2.732132 3.187488,0 6.096703,0.657735 2.934513,0.632439 4.578854,1.366067 v 7.184497 h -0.784225 q -2.023802,-1.391364 -4.629447,-2.25148 -2.580348,-0.885413 -5.236588,-0.885413 -2.200884,0 -3.718736,0.60714 -1.492554,0.607141 -1.492554,1.720232 0,1.011901 0.683034,1.543149 0.683033,0.531248 3.212785,1.062496 1.391364,0.278273 2.985108,0.556545 1.619042,0.252976 3.238083,0.657736 3.592249,0.936009 5.31248,2.95981 1.72023,1.998505 1.72023,5.0089103 z"
     style=""
     id="path169" /><path
     d="m 132.30605,-9.0059187 q 0,4.4017693 -3.94641,7.1086044 -3.94642,2.68153756 -10.80205,2.68153756 -3.79463,0 -6.88092,-0.70833069 -3.0863,-0.70833068 -4.95832,-1.56844647 v -7.4880673 h 0.83482 q 0.68303,0.480653 1.56845,1.0624961 0.91071,0.5565455 2.55505,1.2142811 1.41666,0.5818431 3.21278,1.011901 1.79613,0.4047604 3.84523,0.4047604 2.68153,0 3.97171,-0.5818431 1.29017,-0.6071405 1.29017,-1.7708267 0,-1.0371985 -0.75893,-1.4925539 -0.75892,-0.480653 -2.88391,-0.9107107 -1.0119,-0.227678 -2.75743,-0.480653 -1.72023,-0.278273 -3.1369,-0.657736 -3.87052,-1.011901 -5.74253,-3.136893 -1.87202,-2.150289 -1.87202,-5.337777 0,-4.098199 3.87052,-6.805035 3.89582,-2.732132 10.62496,-2.732132 3.18749,0 6.0967,0.657735 2.93452,0.632439 4.57886,1.366067 v 7.184497 h -0.78423 q -2.0238,-1.391364 -4.62944,-2.25148 -2.58035,-0.885413 -5.23659,-0.885413 -2.20089,0 -3.71874,0.60714 -1.49255,0.607141 -1.49255,1.720232 0,1.011901 0.68303,1.543149 0.68303,0.531248 3.21279,1.062496 1.39136,0.278273 2.9851,0.556545 1.61905,0.252976 3.23809,0.657736 3.59225,0.936009 5.31248,2.95981 1.72023,1.998505 1.72023,5.0089103 z"
     style=""
     id="path171" /><path
     d="m 147.48456,0 h -9.10711 v -28.40912 h 9.10711 z m 0.25298,-32.456724 h -9.61306 v -6.906224 h 9.61306 z"
     style=""
     id="path173" /><path
     d="M 184.69722,-28.40912 173.74339,0 H 163.422 l -10.87793,-28.40912 h 9.63835 l 6.57736,19.5296889 6.50146,-19.5296889 z"
     style=""
     id="path175" /><path
     d="m 217.76109,-12.522275 h -20.84516 q 0.20238,3.3392736 2.52975,5.1101003 2.35267,1.7708268 6.90622,1.7708268 2.88392,0 5.59076,-1.0371985 2.70683,-1.0371985 4.27528,-2.2261822 h 1.0119 v 7.3109846 q -3.0863,1.23957866 -5.81843,1.7961242 -2.73213,0.55654553 -6.04611,0.55654553 -8.55056,0 -13.10412,-3.84522373 -4.55355,-3.8452237 -4.55355,-10.953828 0,-7.032712 4.30058,-11.130911 4.32587,-4.123496 11.83924,-4.123496 6.93152,0 10.42258,3.516356 3.49106,3.491058 3.49106,10.068414 z m -9.05652,-5.337777 q -0.0759,-2.85862 -1.41666,-4.300579 -1.34077,-1.441959 -4.17409,-1.441959 -2.63094,0 -4.32588,1.366066 -1.69493,1.366066 -1.89731,4.376472 z"
     style=""
     id="path177" /></g>
	<g
   id="g140">
		<g
   id="g138">
			<path
   class="st7"
   d="M466.64,365.89c1.57-9.02,1.33-19.24-6.98-24.85c-0.87-0.59-1.68,0.82-0.82,1.4     c7.63,5.15,7.66,14.83,6.24,23.02C464.9,366.48,466.46,366.91,466.64,365.89L466.64,365.89z"
   id="path136" />
		</g>
	</g>
	<g
   id="g146">
		<g
   id="g144">
			<path
   class="st7"
   d="M263.55,372.51c0.01-5.56,0.26-10.77,4.09-15.16c0.69-0.78-0.46-1.94-1.15-1.15     c-4.13,4.71-4.56,10.28-4.57,16.3C261.93,373.55,263.55,373.55,263.55,372.51L263.55,372.51z"
   id="path142" />
		</g>
	</g>
</g>
<g
   id="g154">
	<g
   id="g152">
		<path
   class="st7"
   d="M221.55,442.03c7.82,6.98,14.12,15.18,18.86,24.54c0.69,1.36,2.84,0.41,2.44-1.03    c-1.48-5.26-5.69-10.13-11.72-9.23c-6.74,1.01-5.33,7.2-4.43,12.12c0.31,1.69,2.88,0.97,2.57-0.71    c-0.61-3.34-3.38-10.09,4.99-8.58c3.42,0.61,5.19,4.2,6.01,7.11c0.81-0.34,1.63-0.69,2.44-1.03    c-4.83-9.55-11.29-17.95-19.27-25.08C222.16,439.01,220.27,440.89,221.55,442.03L221.55,442.03z"
   id="path150" />
	</g>
</g>
</svg>