<?xml version="1.0" encoding="utf-8"?>
<!-- Generator: Adobe Illustrator 23.0.2, SVG Export Plug-In . SVG Version: 6.00 Build 0)  -->
<svg version="1.1" id="Layer_1" xmlns="http://www.w3.org/2000/svg" xmlns:xlink="http://www.w3.org/1999/xlink" x="0px" y="0px"
	 viewBox="0 0 936.74 844.28" style="enable-background:new 0 0 936.74 844.28;" xml:space="preserve">
<style type="text/css">
	.st0{opacity:0.1;fill:#007CC7;}
	.st1{fill:#422645;}
	.st2{fill:#803D3D;}
	.st3{fill:#5E2C2C;}
	.st4{opacity:0.48;fill:#422645;}
	.st5{fill:none;stroke:#5E2C2C;stroke-width:5.4531;stroke-linecap:round;stroke-linejoin:round;stroke-miterlimit:10;}
	.st6{fill:#FFFFFF;}
	.st7{opacity:0.1;fill-rule:evenodd;clip-rule:evenodd;fill:#007CC7;}
	.st8{fill:#73A0BE;}
	.st9{opacity:0.2;fill-rule:evenodd;clip-rule:evenodd;fill:#73A0BE;}
	.st10{opacity:0.59;fill-rule:evenodd;clip-rule:evenodd;fill:#73A0BE;}
	.st11{opacity:0.35;fill-rule:evenodd;clip-rule:evenodd;fill:#007CC7;}
	.st12{opacity:0.09;fill-rule:evenodd;clip-rule:evenodd;fill:#007CC7;}
</style>
<path class="st7" d="M842.87,200.97c-4.28-38.3-35.29-69.35-75.13-72.33c-12.58-0.94-24.71,1.03-35.73,5.32
	C707.74,75.71,652.36,32.9,585.12,27.88c-40.49-3.02-78.76,8.15-109.93,29.31C409.68-1.38,312.87-18.27,228.66,22.03
	c-54.52,26.08-93.68,71.31-113.31,123.76c-13.75,1.69-27.46,5.61-40.64,11.91C9.25,189.02-18.42,267.48,12.9,332.94
	c8.29,17.33,19.89,32.02,33.68,43.66c-8.18,36.5-4.62,75.9,12.78,112.26c33.51,70.03,108.03,107.18,181.01,96.45
	c0.4,0.88,0.8,1.76,1.22,2.63c28.47,59.52,99.8,84.68,159.33,56.2c2.32-1.11,4.59-2.29,6.8-3.53
	c64.39,54.51,157.25,69.5,238.28,30.73c26.76-12.8,49.76-30.3,68.5-51.02c116.15-5.12,212.72-96.41,221.58-215.22
	C942.24,322.62,904.62,246.98,842.87,200.97z"/>
<g>
	<g>
		<path class="st8" d="M129.05,256.3c-5.33,0.04-9.03-5.27-9.07-11.01c-0.04-5.58,2.19-9.26,8.43-9.3
			c7.58-0.05,11.1,3.59,11.13,7.17C139.59,249.73,135.05,256.26,129.05,256.3z"/>
		<path class="st8" d="M165.38,234.39c-0.93-2.33-1.19-3.91-1.21-6.32c-0.02-3.66,1.96-5.51,9.96-5.56
			c4.58-0.03,13.41-0.17,16.41,0.14c0.92,0.91,1.52,2.65,1.53,4.24c0.04,5.41-1.94,8.67-5.85,9.03c-1.75,0.26-5.16,0.29-7.16,0.3
			l-0.19,8.08c3.75-0.28,6.58-0.29,7.74-0.3c2.5-0.02,3.17,0.64,3.18,2.64c0.04,6-2.36,8.51-5.02,8.78c-1,0.09-2.83,0.27-6.16,0.38
			l-0.12,6.33c0.03,4.41-2.38,5.6-7.21,5.63c-5.5,0.04-5.84-1.29-5.89-8.79c-0.03-4.16,0.01-10.24-0.02-15.41
			C165.43,240.56,165.41,237.48,165.38,234.39z"/>
		<path class="st8" d="M219.91,266.5c-2.33,0.52-5.49,0.7-11.24,0.74c-2.33,0.02-3.83,0.03-5.42-0.21
			c-3.67-0.39-7.77-2.95-7.79-5.86c-0.03-4.16,0.01-10.91,0.22-16.57c0.06-3.33,0.12-6.75,0.18-10.33
			c-0.93-2.33-1.19-3.91-1.21-6.32c-0.02-3.66,1.96-5.51,9.96-5.56c4.5-0.03,16.82,0.14,19.74,0.12c0.92,0.91,1.44,3.15,1.45,4.74
			c0.03,4.66-2.04,6.59-5.95,6.87c-1.75,0.26-6.83,0.38-10.74,0.41l-0.2,7.75c3.58-0.36,11.16-0.41,12.32-0.42
			c0.59,0.75,0.93,1.83,0.94,3.08c0.03,4.25-1.71,6.42-4.37,6.69c-1.16,0.26-4.75,0.12-8.99,0.39l-0.05,4.67l14.49-0.02
			c0.67,0.91,0.93,1.74,0.94,2.99C224.22,263.73,222.49,266.07,219.91,266.5z"/>
		<path class="st8" d="M254.39,266.27c-2.33,0.52-5.49,0.7-11.24,0.74c-2.33,0.02-3.83,0.03-5.42-0.21
			c-3.67-0.39-7.77-2.95-7.79-5.86c-0.03-4.16,0.01-10.91,0.22-16.58c0.06-3.33,0.12-6.75,0.18-10.33
			c-0.93-2.33-1.19-3.91-1.21-6.32c-0.02-3.66,1.96-5.51,9.96-5.56c4.5-0.03,16.82,0.14,19.74,0.12c0.92,0.91,1.44,3.15,1.45,4.74
			c0.03,4.66-2.04,6.59-5.95,6.87c-1.75,0.26-6.83,0.38-10.74,0.41l-0.2,7.75c3.58-0.36,11.16-0.41,12.32-0.42
			c0.59,0.75,0.93,1.83,0.94,3.08c0.03,4.25-1.71,6.42-4.37,6.69c-1.16,0.26-4.75,0.12-8.99,0.39l-0.05,4.66l14.49-0.02
			c0.67,0.91,0.93,1.74,0.94,2.99C258.7,263.49,256.97,265.84,254.39,266.27z"/>
		<path class="st8" d="M288.2,254.13c0.92,0.74,1.43,2.49,1.44,3.99c0.04,6.33-3.36,8.1-7.11,8.38c-2.33,0.27-5.33,0.37-8.41,0.39
			c-4.58,0.03-9.85-2.6-9.87-5.6c-0.11-15.82,0.13-17.32,0.05-29.23c-0.43-1.75-0.69-3.41-0.7-4.99c-0.02-3.33,3.63-5.69,10.04-5.73
			c4.66-0.03,5.26,1.3,5.27,3.46c0.04,5.75-0.3,17.08-0.63,29.57C281.04,254.34,286.7,254.14,288.2,254.13z"/>
		<path class="st8" d="M311.46,231.82c-0.43-1.91-0.69-3.41-0.7-4.99c-0.02-3.33,3.62-5.77,10.04-5.81c4.25-0.03,4.93,1.88,4.94,4.3
			c0.03,4.33-0.51,10.83-0.46,18.08c0.07,10.41,1.41,11.9,6.33,12.87c-0.04-5.33,0.16-24.82,0.14-27.73
			c-0.03-4.33,0.2-7.41,6.36-7.46c3.08-0.02,5.92,0.79,7.01,2.12c0.04,5.75-0.27,22.07-0.18,34.65c0.04,5.41-3.2,6.6-10.86,7.07
			c-2.07,1.26-5.15,2.03-9.06,2.06c-10.99,0.08-13.96-7.23-14.06-22.39C310.92,238.73,311.16,236.82,311.46,231.82z"/>
		<path class="st8" d="M374.11,222.4c1.58-1.09,2.99-1.52,5.24-1.53c4-0.03,6.59,1.54,6.62,5.37c0.05,7.16,0.2,28.65-1.09,35.32
			c-0.56,3.58-2.8,4.93-7.05,4.96c-4.16,0.03-4.51-2.14-4.97-8.05c-3.29-5.56-6.41-11.03-9.77-16.34c0.04,6-0.07,14.41-0.7,18.99
			c-0.39,3.58-2.63,5.43-6.71,5.46c-1.92,0.01-3.42-0.56-3.84-1.89c-0.04-5.66-0.31-20.65-0.38-31.98c-0.68-1.99-1.2-4.41-1.21-5.99
			c-0.02-3.25,3.63-5.69,10.04-5.73c3.08-0.02,4.58,0.63,5.43,1.88c1.85,2.49,6.32,10.7,8.43,14.52
			C374.09,232.39,374.12,224.56,374.11,222.4z"/>
		<path class="st8" d="M414.45,238.69c-2.25,0.02-3.58-0.39-4.5-0.8c-0.95-4.91-1.62-5.98-4.04-6.63c-1.06,3.5-1.42,11.59-1.4,14.17
			c0.05,7.66,1.57,9.65,11.73,9.58c0.58,0,2.75-0.1,3.66-0.11c0.42,0.66,0.68,2.08,0.69,2.74c0.04,5.25-4.02,8.61-11.77,8.66
			c-11.41,0.08-18.1-4.04-18.2-18.53c-0.09-12.66,2.27-20.92,9.92-23.14c3.4-2.77,7.05-4.21,11.3-4.24
			c6.41-0.04,9.35,3.35,9.39,8.43C421.25,235.15,418.86,238.67,414.45,238.69z"/>
		<path class="st8" d="M449.61,264.94c-2.33,0.52-5.49,0.7-11.24,0.74c-2.33,0.02-3.83,0.03-5.42-0.21
			c-3.67-0.39-7.77-2.95-7.79-5.86c-0.03-4.16,0.01-10.91,0.22-16.58c0.06-3.33,0.12-6.75,0.18-10.33
			c-0.93-2.33-1.19-3.91-1.21-6.32c-0.02-3.66,1.96-5.51,9.96-5.56c4.5-0.03,16.82,0.14,19.74,0.12c0.92,0.91,1.44,3.15,1.45,4.74
			c0.03,4.66-2.04,6.59-5.95,6.87c-1.75,0.26-6.83,0.38-10.74,0.41l-0.2,7.75c3.58-0.36,11.16-0.41,12.32-0.42
			c0.59,0.75,0.93,1.83,0.94,3.08c0.03,4.25-1.71,6.42-4.37,6.69c-1.16,0.26-4.75,0.12-8.99,0.39l-0.05,4.66l14.49-0.02
			c0.67,0.91,0.93,1.74,0.94,2.99C453.92,262.16,452.19,264.51,449.61,264.94z"/>
		<path class="st8" d="M484.15,249.21c3.7,4.64,4.28,4.8,7.45,5.11c0.42,0.75,0.68,1.83,0.69,2.74c0.03,4.91-3.19,8.93-8.6,8.97
			c-3.75,0.03-4.84-1.22-6.61-4.54c-2.28-3.98-3.46-5.89-5.04-6.79l-0.38,5.42c-0.39,4.42-1.79,5.59-6.71,5.63
			c-5.5,0.04-5.84-1.29-5.89-8.79c-0.03-4.25,0.01-10.24,0.23-15.33c0.06-3,0.12-6.08,0.19-9.16c-0.43-1.75-0.61-3.41-0.62-4.99
			c-0.02-3.33,1.88-4.76,9.79-5.48c3.41-1.36,6.15-2.04,10.15-2.07c8.91-0.06,12.53,5.25,12.58,12.74
			C491.41,239.59,489.27,243.35,484.15,249.21z M472.29,244.88c1.17-0.01,4,0.47,5,0.88c1.23-3.01,1.88-5.76,1.86-8.42
			c-0.03-4.08-1.54-6.07-6.29-6.45L472.29,244.88z"/>
		<path class="st8" d="M523.27,220.55c0.67,0.91,1.35,2.91,1.36,4.4c0.05,6.91-2.61,8.76-7.93,9.05c0.02,2.67-0.19,9.33-0.4,14.99
			c-0.06,3.42-0.2,7-0.34,10.91c-0.22,4.08-3.63,5.6-8.54,5.64c-5.41,0.04-5.59-1.29-5.64-8.79c-0.03-4.25,0.1-9.66,0.07-14.16
			l0.2-8c-6.5,0.04-7.75-0.78-7.77-3.19c-0.04-6.41,2.34-10.34,5.01-10.78c2.33-0.27,4.58-0.36,10.82-0.41
			C516.69,220.18,520.18,220.32,523.27,220.55z"/>
		<path class="st8" d="M532.36,222.15c2.9-1.6,7.14-2.63,11.73-2.66c5.33-0.04,7.76,2.2,8.2,5.52c1.06,8.32,3.14,21.38,5.53,29.69
			c1.84,1.4,2.6,2.31,2.61,4.06c0.03,4.58-5.78,6.54-11.78,6.58c-3.5,0.02-4.51-2.05-5.64-8.46c-2,0.26-5.16,0.29-8.49,0.31
			c-0.33,1.25-0.96,6.42-0.95,7.34c-0.58,0.59-1.83,1.01-3.74,1.02c-3,0.02-7.42-1.03-7.45-5.28
			C522.36,258.11,526.63,237.43,532.36,222.15z M539.43,232.6c-0.97,3.59-2.59,11.01-3.55,16.26c1.25-0.01,4.5-0.11,5.99-0.37
			C541.18,245.24,540.12,237.17,539.43,232.6z"/>
		<path class="st8" d="M564.15,230.76c-0.6-2-0.94-4.07-0.96-5.66c-0.02-3.33,3.62-5.77,10.04-5.82c4.75-0.03,5.17,1.3,5.19,3.46
			l-0.21,30.32c1.59,0.91,2.43,1.9,2.44,3.31c0.04,5.66-4.27,8.77-10.1,8.81c-5.5,0.04-6.5-1.29-6.56-8.78
			c-0.03-4.16,0.09-10.66,0.06-15.91C564.11,237.34,564.09,234.09,564.15,230.76z"/>
		<path class="st8" d="M607.73,220.81c1.58-1.09,2.99-1.52,5.24-1.53c4-0.03,6.59,1.54,6.62,5.37c0.05,7.16,0.19,28.65-1.09,35.32
			c-0.56,3.58-2.8,4.93-7.05,4.96c-4.16,0.03-4.51-2.13-4.97-8.04c-3.29-5.56-6.4-11.03-9.77-16.34c0.04,6-0.07,14.41-0.7,18.99
			c-0.39,3.58-2.63,5.43-6.71,5.46c-1.92,0.01-3.42-0.56-3.84-1.89c-0.04-5.66-0.31-20.65-0.38-31.98c-0.68-1.99-1.2-4.41-1.21-5.99
			c-0.02-3.25,3.63-5.69,10.04-5.73c3.08-0.02,4.58,0.63,5.43,1.88c1.85,2.49,6.32,10.7,8.43,14.52
			C607.71,230.8,607.74,222.97,607.73,220.81z"/>
		<path class="st8" d="M171.66,299.65c2.9-1.6,7.14-2.63,11.73-2.66c5.33-0.04,7.76,2.2,8.2,5.52c1.06,8.32,3.14,21.38,5.53,29.69
			c1.84,1.4,2.6,2.31,2.61,4.06c0.03,4.58-5.79,6.54-11.78,6.58c-3.5,0.02-4.51-2.05-5.64-8.46c-2,0.26-5.16,0.29-8.49,0.31
			c-0.33,1.25-0.96,6.42-0.95,7.34c-0.58,0.59-1.83,1.01-3.74,1.02c-3,0.02-7.42-1.03-7.45-5.28
			C161.66,335.61,165.93,314.93,171.66,299.65z M178.73,310.1c-0.98,3.59-2.59,11.01-3.55,16.26c1.25-0.01,4.5-0.11,5.99-0.37
			C180.48,322.74,179.42,314.67,178.73,310.1z"/>
		<path class="st8" d="M235.73,327.86c0.05,7.91-3.98,14.77-16.97,14.86c-5.41,0.04-10-0.76-12.34-1.41
			c-3.67-1.31-4.02-3.14-4.06-9.72c-0.03-4.25,0.02-9.66,0.24-14.33c0.07-2.58,0.13-5.25,0.19-8c-0.59-1.75-0.61-3.41-0.62-4.99
			c-0.02-3.33,1.88-4.76,9.79-5.48c3.4-1.36,6.15-2.04,10.15-2.07c9.08-0.06,12.53,5.16,12.57,11.16c0.03,4.5-2.03,7.68-4.67,11.61
			C234.36,321.96,235.46,323.95,235.73,327.86z M215.03,332.59c1.5,0.66,3.76,1.14,5.34,1.13c1.67-0.01,3.33-0.19,3.31-3.69
			c-0.02-2.25-0.78-3.74-8.36-4.77L215.03,332.59z M215.59,317.17c1-0.01,4.75-0.12,6.08,0.12c0.65-2.34,0.73-3.5,0.71-5.09
			c-0.02-2.83-1.45-4.57-6.2-4.95L215.59,317.17z"/>
		<path class="st8" d="M258.92,296.47c8.58-0.06,14.95,6.14,15.04,19.22c0.1,15.07-5.06,26.85-18.39,26.94
			c-10.33,0.07-16.44-4.3-16.54-20.04c-0.07-10.74,2.47-16.34,7.28-19.46C248.94,298.21,254.01,296.51,258.92,296.47z
			 M253.42,307.51c-0.64,3.34-0.68,9.75-0.67,12.16c0.07,10.41,1.58,12.07,6.83,13.03c1.05-5.09,1.26-10.59,1.24-13.08
			C260.78,311.7,258.43,309.05,253.42,307.51z"/>
		<path class="st8" d="M278.74,307.08c-0.43-1.91-0.69-3.41-0.7-4.99c-0.02-3.33,3.62-5.77,10.04-5.81c4.25-0.03,4.93,1.88,4.94,4.3
			c0.03,4.33-0.51,10.83-0.46,18.08c0.07,10.41,1.41,11.9,6.33,12.87c-0.04-5.33,0.16-24.82,0.14-27.73
			c-0.03-4.33,0.2-7.41,6.36-7.46c3.08-0.02,5.92,0.79,7.01,2.12c0.04,5.75-0.27,22.07-0.18,34.65c0.04,5.41-3.2,6.6-10.86,7.07
			c-2.07,1.26-5.15,2.03-9.06,2.06c-10.99,0.07-13.96-7.23-14.06-22.39C278.2,314,278.44,312.08,278.74,307.08z"/>
		<path class="st8" d="M344.8,296.81c0.67,0.91,1.35,2.91,1.36,4.4c0.05,6.91-2.61,8.76-7.93,9.05c0.02,2.67-0.19,9.33-0.4,14.99
			c-0.06,3.42-0.2,7-0.34,10.91c-0.22,4.08-3.63,5.6-8.54,5.64c-5.41,0.04-5.59-1.29-5.64-8.79c-0.03-4.25,0.1-9.66,0.07-14.16
			l0.2-8c-6.5,0.04-7.75-0.78-7.77-3.2c-0.04-6.41,2.34-10.34,5.01-10.78c2.33-0.27,4.58-0.36,10.82-0.41
			C338.22,296.43,341.72,296.58,344.8,296.81z"/>
		<path class="st8" d="M408.6,297.12c0.91-0.67,2.57-1.52,4.32-1.53c4.66-0.03,7.34,1.45,7.38,7.78c0.02,3.58-2.14,15.75-7.38,30.03
			c-1.31,3.34-2.55,4.85-8.29,6.22c-1.99,1.26-3.9,1.69-6.48,1.71c-2.33,0.02-3.67-0.56-4.61-4.8c-0.34-1.75-1.72-8.65-2.07-10.56
			c-1.54,5.76-3.26,10.68-4.58,12.44c-1.49,1.93-5.31,3.12-9.06,3.14c-5.16,0.04-6.18-2.54-7.13-8.11
			c-1.39-8.4-2.11-16.89-3.92-25.54c-1.43-1.66-2.1-3.32-2.12-5.32c-0.03-4.91,4.62-6.86,10.53-6.9c3-0.02,4.51,1.22,5.46,6.79
			c0.26,1.58,0.8,7.91,1.51,13.73c0.36,3.41,0.72,7.24,1.08,11.32l4.55-16.35c-1.12-4.91-1.38-6.32-1.39-8.65
			c-0.03-4.08,3.7-6.69,8.87-6.72c3.41-0.02,4.1,2.47,5.22,8.71c0.44,3.41,3.21,18.22,3.74,22.88
			C407.46,313.87,408.38,301.95,408.6,297.12z"/>
		<path class="st8" d="M444.42,297.21c1.74-1.09,3.98-1.94,7.32-1.97c5.33-0.04,6.67,1.7,6.7,6.12c0.04,5.75-0.15,14.99-0.7,32.4
			c-0.22,4.42-2.37,6.93-7.28,6.96c-5.16,0.04-5.84-1.29-5.89-8.79l-0.05-7c-1.58,0.26-4.58,0.53-6.74,0.55l-0.35,9.91
			c-0.22,3.67-3.54,5.69-8.71,5.72c-2.33,0.02-4-0.56-4.68-1.97c-0.03-4.25-0.08-12.41,0.12-19.66c0.05-4.25,0.02-8.66,0.08-13.33
			c-0.43-1.75-0.61-3.41-0.62-4.99c-0.02-3.25,3.63-5.69,10.04-5.73c2.67-0.02,4.75,0.97,4.77,3.88c0.02,2.75-0.04,6.58-0.39,16.58
			l6.49-0.71L444.42,297.21z"/>
		<path class="st8" d="M472.24,297.6c2.9-1.6,7.14-2.63,11.72-2.66c5.33-0.04,7.76,2.2,8.2,5.52c1.06,8.32,3.14,21.38,5.53,29.69
			c1.84,1.4,2.6,2.31,2.61,4.06c0.03,4.58-5.79,6.54-11.78,6.58c-3.5,0.02-4.51-2.05-5.64-8.46c-2,0.26-5.16,0.29-8.49,0.31
			c-0.33,1.25-0.96,6.42-0.95,7.34c-0.58,0.59-1.83,1.01-3.74,1.02c-3,0.02-7.42-1.03-7.45-5.28
			C462.24,333.57,466.51,312.88,472.24,297.6z M479.31,308.05c-0.97,3.59-2.59,11.01-3.55,16.26c1.25-0.01,4.5-0.11,5.99-0.37
			C481.06,320.7,480,312.63,479.31,308.05z"/>
		<path class="st8" d="M527.53,295.56c0.67,0.91,1.35,2.91,1.36,4.4c0.05,6.91-2.61,8.76-7.94,9.05c0.02,2.67-0.19,9.33-0.4,14.99
			c-0.06,3.42-0.2,7-0.34,10.91c-0.22,4.08-3.63,5.6-8.54,5.64c-5.41,0.04-5.59-1.29-5.64-8.79c-0.03-4.25,0.1-9.66,0.07-14.16
			l0.2-8c-6.5,0.04-7.75-0.78-7.77-3.2c-0.04-6.41,2.34-10.34,5.01-10.78c2.33-0.27,4.58-0.36,10.82-0.41
			C520.95,295.19,524.45,295.33,527.53,295.56z"/>
		<path class="st8" d="M576.33,294.31c4.58-0.03,6.93,2.12,7.36,5.2l-11.08,23.73l-0.01,10.41c0.02,3.25-2.29,6.59-10.37,6.65
			c-3.83,0.03-4.92-1.05-4.96-6.05c-0.01-2.08,0.05-4.75,0.04-6.66c0.08-1.25,0.07-2.42,0.14-3.67l-7.29-18.52
			c-1.76-1.32-2.61-3.31-2.62-4.9c-0.03-3.83,5.96-6.04,10.37-6.07c3.08-0.02,4.84,1.22,6.03,4.62l3.74,10.55l3.51-10.77
			C572.25,295.51,573.25,294.33,576.33,294.31z"/>
		<path class="st8" d="M603.65,294.13c8.58-0.06,14.95,6.14,15.04,19.22c0.1,15.07-5.06,26.85-18.39,26.94
			c-10.33,0.07-16.44-4.3-16.54-20.04c-0.07-10.74,2.47-16.34,7.28-19.46C593.66,295.86,598.73,294.16,603.65,294.13z
			 M598.14,305.16c-0.64,3.34-0.68,9.75-0.67,12.16c0.07,10.41,1.58,12.07,6.83,13.03c1.05-5.09,1.26-10.59,1.24-13.08
			C605.5,309.36,603.15,306.71,598.14,305.16z"/>
		<path class="st8" d="M623.46,304.74c-0.43-1.91-0.69-3.41-0.7-4.99c-0.02-3.33,3.62-5.77,10.04-5.81c4.25-0.03,4.93,1.88,4.94,4.3
			c0.03,4.33-0.51,10.83-0.46,18.08c0.07,10.41,1.41,11.9,6.33,12.87c-0.04-5.33,0.16-24.82,0.14-27.73
			c-0.03-4.33,0.2-7.41,6.36-7.46c3.08-0.02,5.92,0.79,7.01,2.12c0.04,5.75-0.27,22.07-0.18,34.65c0.04,5.41-3.2,6.6-10.86,7.07
			c-2.07,1.26-5.15,2.03-9.06,2.06c-10.99,0.07-13.96-7.23-14.06-22.39C622.92,311.65,623.16,309.73,623.46,304.74z"/>
		<path class="st8" d="M722.34,294.98c0.91-0.67,2.57-1.52,4.32-1.53c4.66-0.03,7.34,1.45,7.38,7.78
			c0.02,3.58-2.14,15.75-7.37,30.03c-1.31,3.34-2.55,4.85-8.29,6.22c-1.99,1.26-3.9,1.69-6.48,1.71c-2.33,0.02-3.67-0.56-4.61-4.8
			c-0.34-1.75-1.72-8.65-2.07-10.56c-1.54,5.76-3.26,10.68-4.58,12.44c-1.49,1.93-5.31,3.12-9.06,3.14
			c-5.16,0.04-6.18-2.54-7.13-8.11c-1.39-8.4-2.11-16.89-3.92-25.54c-1.43-1.66-2.1-3.32-2.12-5.32c-0.03-4.91,4.62-6.86,10.53-6.9
			c3-0.02,4.5,1.22,5.46,6.79c0.26,1.58,0.8,7.91,1.51,13.73c0.36,3.41,0.71,7.24,1.08,11.32l4.55-16.35
			c-1.12-4.91-1.38-6.32-1.39-8.65c-0.03-4.08,3.7-6.69,8.87-6.72c3.41-0.02,4.1,2.47,5.22,8.71c0.44,3.41,3.21,18.22,3.74,22.88
			C721.2,311.73,722.12,299.82,722.34,294.98z"/>
		<path class="st8" d="M744.42,295.75c2.9-1.6,7.14-2.63,11.73-2.66c5.33-0.04,7.76,2.2,8.2,5.52c1.06,8.32,3.15,21.38,5.53,29.69
			c1.84,1.4,2.6,2.31,2.61,4.06c0.03,4.58-5.78,6.54-11.78,6.58c-3.5,0.02-4.51-2.05-5.64-8.46c-2,0.26-5.16,0.29-8.49,0.31
			c-0.32,1.25-0.96,6.42-0.95,7.34c-0.58,0.59-1.83,1.01-3.74,1.02c-3,0.02-7.42-1.03-7.45-5.28
			C734.42,331.71,738.69,311.03,744.42,295.75z M751.49,306.2c-0.97,3.59-2.59,11.01-3.55,16.26c1.25-0.01,4.5-0.11,5.99-0.37
			C753.24,318.84,752.18,310.77,751.49,306.2z"/>
		<path class="st8" d="M798.8,294.55c1.58-1.09,2.99-1.52,5.24-1.53c4-0.03,6.59,1.54,6.62,5.37c0.05,7.16,0.2,28.65-1.09,35.32
			c-0.56,3.58-2.8,4.93-7.04,4.96c-4.16,0.03-4.51-2.13-4.97-8.04c-3.29-5.56-6.4-11.03-9.77-16.34c0.04,6-0.07,14.41-0.7,18.99
			c-0.39,3.58-2.63,5.43-6.71,5.46c-1.92,0.01-3.42-0.56-3.84-1.89c-0.04-5.66-0.31-20.65-0.38-31.98c-0.68-1.99-1.2-4.41-1.21-5.99
			c-0.02-3.25,3.62-5.69,10.04-5.73c3.08-0.02,4.58,0.63,5.43,1.88c1.85,2.49,6.32,10.7,8.43,14.52
			C798.78,304.54,798.81,296.71,798.8,294.55z"/>
		<path class="st8" d="M843.02,293.41c0.67,0.91,1.35,2.91,1.36,4.4c0.05,6.91-2.61,8.76-7.94,9.05c0.02,2.67-0.19,9.33-0.4,14.99
			c-0.06,3.42-0.2,7-0.34,10.91c-0.22,4.08-3.63,5.6-8.54,5.64c-5.41,0.04-5.59-1.29-5.64-8.79c-0.03-4.25,0.1-9.66,0.07-14.16
			l0.2-8c-6.5,0.04-7.75-0.78-7.77-3.2c-0.04-6.41,2.34-10.34,5.01-10.78c2.33-0.27,4.58-0.36,10.83-0.41
			C836.44,293.04,839.93,293.18,843.02,293.41z"/>
		<path class="st8" d="M130.07,406.37c-5.33,0.04-9.03-5.27-9.07-11.01c-0.04-5.58,2.19-9.26,8.43-9.3
			c7.58-0.05,11.1,3.59,11.13,7.17C140.61,399.81,136.07,406.33,130.07,406.37z"/>
		<path class="st8" d="M192.48,372.89c0.67,0.91,1.35,2.91,1.36,4.4c0.05,6.91-2.6,8.76-7.93,9.05c0.02,2.67-0.19,9.33-0.4,14.99
			c-0.06,3.41-0.2,7-0.34,10.91c-0.22,4.08-3.63,5.6-8.54,5.64c-5.41,0.04-5.59-1.29-5.64-8.79c-0.03-4.25,0.1-9.66,0.07-14.16
			l0.2-8c-6.5,0.04-7.75-0.78-7.77-3.19c-0.04-6.41,2.34-10.34,5.01-10.78c2.33-0.27,4.58-0.36,10.82-0.41
			C185.9,372.51,189.4,372.66,192.48,372.89z"/>
		<path class="st8" d="M216.97,373.8c1.74-1.09,3.98-1.94,7.32-1.97c5.33-0.04,6.67,1.7,6.7,6.12c0.04,5.75-0.15,14.99-0.7,32.4
			c-0.22,4.42-2.37,6.93-7.28,6.96c-5.16,0.04-5.84-1.29-5.89-8.79l-0.05-7c-1.58,0.26-4.58,0.53-6.74,0.55l-0.35,9.91
			c-0.22,3.67-3.54,5.69-8.71,5.72c-2.33,0.02-4-0.56-4.68-1.97c-0.03-4.25-0.08-12.41,0.12-19.66c0.05-4.25,0.02-8.66,0.08-13.33
			c-0.43-1.75-0.61-3.41-0.62-4.99c-0.02-3.25,3.63-5.69,10.04-5.73c2.67-0.02,4.75,0.97,4.77,3.88c0.02,2.75-0.04,6.58-0.39,16.58
			l6.49-0.71L216.97,373.8z"/>
		<path class="st8" d="M237.36,383.07c-0.6-2-0.94-4.07-0.95-5.66c-0.02-3.33,3.63-5.77,10.04-5.82c4.75-0.03,5.17,1.3,5.19,3.46
			l-0.21,30.32c1.59,0.91,2.43,1.9,2.44,3.31c0.04,5.66-4.27,8.77-10.1,8.81c-5.5,0.04-6.51-1.29-6.56-8.78
			c-0.03-4.16,0.09-10.66,0.06-15.91C237.32,389.65,237.3,386.4,237.36,383.07z"/>
		<path class="st8" d="M280.94,373.12c1.58-1.09,2.99-1.52,5.24-1.53c4-0.03,6.59,1.54,6.62,5.37c0.05,7.16,0.19,28.65-1.09,35.32
			c-0.56,3.58-2.8,4.93-7.05,4.96c-4.16,0.03-4.51-2.14-4.97-8.05c-3.29-5.56-6.4-11.03-9.77-16.34c0.04,6-0.07,14.41-0.7,18.99
			c-0.39,3.58-2.63,5.43-6.71,5.46c-1.92,0.01-3.42-0.56-3.84-1.89c-0.04-5.66-0.31-20.65-0.38-31.98c-0.68-1.99-1.2-4.41-1.21-5.99
			c-0.02-3.25,3.63-5.69,10.04-5.73c3.08-0.02,4.58,0.63,5.43,1.88c1.85,2.49,6.32,10.7,8.43,14.52
			C280.92,383.11,280.95,375.28,280.94,373.12z"/>
		<path class="st8" d="M298.3,415.14c-0.03-4.08-0.17-12.49,0.12-19.57c0.05-4.25,0.02-8.75,0.08-13.41
			c-0.43-1.75-0.61-3.41-0.62-4.99c-0.02-3.25,3.63-5.69,10.04-5.73c2.58-0.02,4.42,0.97,4.44,3.88c0.02,2.67-0.36,7.83-0.71,17.74
			c0.67,0,1.5,0.16,1.92,0.24c2.61-7.6,4.08-12.19,4.46-17.1c0.39-3.5,3.63-5.19,8.54-5.22c4.41-0.03,6.18,2.71,6.2,6.04
			c-1.96,5.76-5.98,14.28-9.36,19.47l4.12,5.8c1.6,2.24,2.77,2.56,6.02,2.79c0.42,0.91,0.68,1.91,0.69,2.83
			c0.03,5.08-3.85,9.35-9.51,9.39c-3.41,0.02-5.25-1.13-7.02-4.2l-6.32-11.28l-0.35,9.58c-0.23,3.67-3.13,5.68-8.04,5.72
			C300.64,417.12,298.97,416.55,298.3,415.14z"/>
		<path class="st8" d="M382.95,371.59c0.67,0.91,1.35,2.91,1.36,4.41c0.05,6.91-2.61,8.76-7.93,9.05c0.02,2.67-0.19,9.33-0.4,14.99
			c-0.06,3.41-0.2,7-0.34,10.91c-0.22,4.08-3.63,5.6-8.54,5.64c-5.41,0.04-5.59-1.29-5.64-8.79c-0.03-4.25,0.1-9.66,0.07-14.16
			l0.2-8c-6.5,0.04-7.75-0.78-7.77-3.19c-0.04-6.41,2.34-10.34,5.01-10.78c2.33-0.27,4.58-0.36,10.82-0.41
			C376.37,371.22,379.87,371.36,382.95,371.59z"/>
		<path class="st8" d="M407.45,372.5c1.74-1.09,3.98-1.94,7.32-1.97c5.33-0.04,6.67,1.7,6.7,6.12c0.04,5.75-0.15,14.99-0.7,32.4
			c-0.22,4.42-2.37,6.93-7.28,6.96c-5.16,0.04-5.84-1.29-5.89-8.79l-0.05-7c-1.58,0.26-4.58,0.53-6.74,0.55l-0.35,9.91
			c-0.22,3.67-3.54,5.69-8.71,5.72c-2.33,0.02-4-0.56-4.68-1.97c-0.03-4.25-0.08-12.41,0.12-19.66c0.05-4.25,0.02-8.66,0.08-13.33
			c-0.43-1.75-0.61-3.41-0.62-4.99c-0.02-3.25,3.63-5.69,10.04-5.73c2.67-0.02,4.75,0.97,4.77,3.88c0.02,2.75-0.04,6.58-0.39,16.58
			l6.49-0.71L407.45,372.5z"/>
		<path class="st8" d="M451.8,415.01c-2.33,0.52-5.49,0.7-11.24,0.74c-2.33,0.02-3.83,0.03-5.42-0.21
			c-3.67-0.39-7.77-2.94-7.79-5.86c-0.03-4.16,0.01-10.91,0.22-16.58c0.06-3.33,0.12-6.75,0.18-10.33
			c-0.93-2.33-1.19-3.91-1.21-6.32c-0.02-3.66,1.96-5.51,9.96-5.56c4.5-0.03,16.82,0.14,19.74,0.12c0.92,0.91,1.44,3.16,1.45,4.74
			c0.03,4.66-2.04,6.59-5.95,6.87c-1.75,0.26-6.83,0.38-10.74,0.41l-0.2,7.75c3.58-0.36,11.16-0.41,12.32-0.42
			c0.59,0.75,0.93,1.83,0.94,3.08c0.03,4.25-1.71,6.42-4.37,6.69c-1.16,0.26-4.75,0.12-8.99,0.39l-0.05,4.66l14.49-0.02
			c0.67,0.91,0.93,1.74,0.94,2.99C456.11,412.23,454.38,414.58,451.8,415.01z"/>
		<path class="st8" d="M487.81,369.96c4.58-0.03,6.93,2.12,7.36,5.2l-11.08,23.73l-0.01,10.41c0.02,3.25-2.29,6.6-10.37,6.65
			c-3.83,0.03-4.92-1.05-4.96-6.05c-0.01-2.08,0.05-4.75,0.04-6.66c0.07-1.25,0.07-2.42,0.14-3.67l-7.29-18.52
			c-1.76-1.32-2.6-3.31-2.62-4.9c-0.03-3.83,5.96-6.04,10.37-6.07c3.08-0.02,4.84,1.22,6.03,4.62l3.74,10.55l3.51-10.77
			C483.73,371.15,484.72,369.98,487.81,369.96z"/>
		<path class="st8" d="M539.07,387.93c-2.25,0.02-3.58-0.39-4.5-0.8c-0.95-4.91-1.62-5.99-4.04-6.63c-1.06,3.5-1.42,11.59-1.4,14.17
			c0.05,7.66,1.56,9.65,11.73,9.58c0.58,0,2.75-0.1,3.66-0.11c0.42,0.66,0.68,2.08,0.68,2.74c0.04,5.25-4.02,8.61-11.77,8.66
			c-11.41,0.08-18.1-4.04-18.2-18.53c-0.09-12.66,2.27-20.92,9.92-23.14c3.4-2.77,7.05-4.21,11.3-4.24
			c6.41-0.04,9.35,3.35,9.38,8.43C545.87,384.39,543.48,387.9,539.07,387.93z"/>
		<path class="st8" d="M557.7,372.06c2.9-1.6,7.14-2.63,11.72-2.66c5.33-0.04,7.76,2.2,8.2,5.52c1.06,8.32,3.14,21.38,5.53,29.69
			c1.84,1.4,2.6,2.31,2.61,4.06c0.03,4.58-5.78,6.54-11.78,6.58c-3.5,0.02-4.51-2.05-5.64-8.46c-2,0.26-5.16,0.29-8.49,0.31
			c-0.32,1.25-0.96,6.42-0.95,7.34c-0.58,0.59-1.83,1.01-3.74,1.02c-3,0.02-7.42-1.03-7.45-5.28
			C547.7,408.03,551.98,387.34,557.7,372.06z M564.77,382.51c-0.97,3.59-2.59,11.01-3.55,16.27c1.25-0.01,4.5-0.11,5.99-0.37
			C566.52,395.16,565.46,387.09,564.77,382.51z"/>
		<path class="st8" d="M612.08,370.86c1.58-1.09,2.99-1.52,5.24-1.54c4-0.03,6.59,1.54,6.62,5.37c0.05,7.16,0.2,28.65-1.09,35.32
			c-0.56,3.58-2.8,4.93-7.05,4.96c-4.16,0.03-4.51-2.13-4.97-8.04c-3.29-5.56-6.4-11.03-9.77-16.34c0.04,6-0.07,14.41-0.7,18.99
			c-0.39,3.58-2.63,5.43-6.71,5.46c-1.92,0.01-3.42-0.56-3.84-1.89c-0.04-5.66-0.31-20.65-0.38-31.98c-0.68-1.99-1.2-4.41-1.21-5.99
			c-0.02-3.25,3.63-5.69,10.04-5.73c3.08-0.02,4.58,0.64,5.42,1.88c1.85,2.49,6.32,10.7,8.43,14.52
			C612.06,380.85,612.09,373.03,612.08,370.86z"/>
		<path class="st8" d="M674.62,369.6c0.67,0.91,1.35,2.91,1.36,4.41c0.05,6.91-2.61,8.76-7.93,9.05c0.02,2.67-0.19,9.33-0.4,14.99
			c-0.06,3.41-0.2,7-0.34,10.91c-0.22,4.08-3.63,5.6-8.54,5.64c-5.41,0.04-5.59-1.29-5.64-8.79c-0.03-4.25,0.1-9.66,0.07-14.16
			l0.2-8c-6.5,0.04-7.75-0.78-7.77-3.19c-0.04-6.41,2.34-10.34,5.01-10.78c2.33-0.27,4.58-0.36,10.82-0.41
			C668.04,369.23,671.54,369.37,674.62,369.6z"/>
		<path class="st8" d="M683.71,371.21c2.9-1.6,7.14-2.63,11.72-2.66c5.33-0.04,7.76,2.2,8.2,5.52c1.06,8.32,3.14,21.38,5.53,29.69
			c1.84,1.4,2.6,2.31,2.61,4.06c0.03,4.58-5.78,6.54-11.78,6.58c-3.5,0.02-4.51-2.05-5.64-8.46c-2,0.26-5.16,0.29-8.49,0.31
			c-0.32,1.25-0.96,6.42-0.95,7.34c-0.58,0.59-1.83,1.01-3.74,1.02c-3,0.02-7.42-1.03-7.45-5.28
			C673.71,407.17,677.99,386.49,683.71,371.21z M690.78,381.65c-0.97,3.59-2.59,11.01-3.55,16.27c1.25-0.01,4.5-0.11,5.99-0.37
			C692.53,394.3,691.48,386.23,690.78,381.65z"/>
		<path class="st8" d="M714.64,412.3c-0.03-4.08-0.17-12.49,0.12-19.57c0.05-4.25,0.02-8.75,0.08-13.41
			c-0.43-1.75-0.61-3.41-0.62-4.99c-0.02-3.25,3.63-5.69,10.04-5.73c2.58-0.02,4.42,0.97,4.44,3.88c0.02,2.67-0.36,7.83-0.71,17.74
			c0.67,0,1.5,0.16,1.92,0.24c2.61-7.6,4.08-12.19,4.46-17.1c0.39-3.5,3.63-5.19,8.54-5.22c4.41-0.03,6.18,2.71,6.21,6.04
			c-1.96,5.76-5.98,14.28-9.36,19.47l4.12,5.8c1.6,2.24,2.77,2.56,6.02,2.79c0.42,0.91,0.68,1.91,0.69,2.83
			c0.03,5.08-3.85,9.35-9.51,9.39c-3.41,0.02-5.25-1.13-7.02-4.2l-6.32-11.28l-0.35,9.58c-0.22,3.67-3.12,5.69-8.04,5.72
			C716.99,414.29,715.32,413.72,714.64,412.3z"/>
		<path class="st8" d="M778.94,412.78c-2.33,0.52-5.49,0.7-11.24,0.74c-2.33,0.02-3.83,0.03-5.42-0.21
			c-3.67-0.39-7.77-2.95-7.79-5.86c-0.03-4.16,0.01-10.91,0.22-16.58c0.06-3.33,0.12-6.75,0.18-10.33
			c-0.93-2.33-1.19-3.91-1.21-6.32c-0.02-3.66,1.96-5.51,9.96-5.56c4.5-0.03,16.82,0.14,19.74,0.12c0.92,0.91,1.44,3.16,1.45,4.74
			c0.03,4.66-2.04,6.59-5.95,6.87c-1.75,0.26-6.83,0.38-10.74,0.41l-0.2,7.75c3.58-0.36,11.16-0.41,12.32-0.42
			c0.59,0.75,0.93,1.83,0.94,3.08c0.03,4.25-1.71,6.42-4.37,6.69c-1.16,0.26-4.75,0.12-8.99,0.39l-0.05,4.66l14.49-0.02
			c0.67,0.91,0.93,1.74,0.94,2.99C783.26,410,781.52,412.35,778.94,412.78z"/>
		<path class="st8" d="M177.68,449.69c2.9-1.6,7.14-2.63,11.73-2.66c5.33-0.04,7.76,2.2,8.2,5.52c1.06,8.32,3.14,21.38,5.53,29.69
			c1.84,1.4,2.6,2.31,2.61,4.06c0.03,4.58-5.79,6.54-11.78,6.58c-3.5,0.02-4.51-2.05-5.64-8.46c-2,0.26-5.16,0.29-8.49,0.31
			c-0.32,1.25-0.96,6.42-0.95,7.34c-0.58,0.59-1.83,1.01-3.74,1.02c-3,0.02-7.42-1.03-7.45-5.28
			C167.68,485.66,171.95,464.97,177.68,449.69z M184.75,460.14c-0.98,3.59-2.59,11.01-3.55,16.26c1.25-0.01,4.5-0.11,5.99-0.37
			C186.5,472.79,185.44,464.72,184.75,460.14z"/>
		<path class="st8" d="M218.48,448.33c2.58-0.93,5.49-1.54,7.32-1.55c12.66-0.09,17.62,6.54,17.7,18.37
			c0.12,16.99-7.48,27.28-19.14,27.36c-7.66,0.05-15.33-1.39-15.37-6.31c-0.03-4.16,0.18-10.99,0.14-16.82
			c0.06-3.41,0.12-6.91,0.18-10.5c-0.68-1.58-1.11-3.32-1.12-5.99C208.16,449.65,211.49,448.63,218.48,448.33z M230.2,469.08
			c-0.04-6.41-2.32-9.9-7.66-11.44c0.04,6.5-0.14,15.49-0.5,24.41c0.75,0.41,1.67,0.57,2.34,0.57
			C226.71,482.59,230.29,481.73,230.2,469.08z"/>
		<path class="st8" d="M271.04,448.14c0.74-0.75,2.66-1.52,4.4-1.53c4.58-0.03,8,1.44,8.05,7.77c0.02,3.66-2.56,15.09-7.79,29.54
			c-1.06,3.26-2.96,5.02-9.12,6.39c-1.32,1.17-3.98,2.11-8.06,2.14c-4,0.03-4.85-2.55-5.8-8.12c-1.39-8.32-3.03-16.89-5-25.53
			c-1.93-1.74-2.77-3.31-2.78-5.31c-0.03-4.91,5.95-6.87,11.86-6.91c3.5-0.02,4.35,2.47,5.47,8.79c0.44,3.41,2.96,19.05,3.49,23.71
			C268.91,465.56,271.07,452.97,271.04,448.14z"/>
		<path class="st8" d="M293.11,448.91c2.9-1.6,7.14-2.63,11.72-2.66c5.33-0.04,7.76,2.2,8.2,5.52c1.06,8.32,3.14,21.38,5.53,29.69
			c1.84,1.4,2.6,2.31,2.61,4.06c0.03,4.58-5.79,6.54-11.78,6.58c-3.5,0.02-4.51-2.05-5.64-8.46c-2,0.26-5.16,0.29-8.49,0.31
			c-0.32,1.25-0.96,6.42-0.95,7.34c-0.58,0.59-1.83,1.01-3.74,1.02c-3,0.02-7.42-1.03-7.45-5.28
			C283.11,484.87,287.39,464.19,293.11,448.91z M300.18,459.35c-0.98,3.59-2.59,11.01-3.55,16.26c1.25-0.01,4.5-0.11,5.99-0.37
			C301.93,472,300.88,463.93,300.18,459.35z"/>
		<path class="st8" d="M347.49,447.71c1.57-1.09,2.99-1.52,5.24-1.53c4-0.03,6.59,1.54,6.62,5.37c0.05,7.16,0.2,28.65-1.09,35.32
			c-0.56,3.58-2.8,4.93-7.05,4.96c-4.16,0.03-4.51-2.13-4.97-8.04c-3.29-5.56-6.41-11.03-9.77-16.34c0.04,6-0.07,14.41-0.7,18.99
			c-0.39,3.58-2.63,5.43-6.71,5.46c-1.92,0.01-3.42-0.56-3.84-1.89c-0.04-5.66-0.31-20.65-0.38-31.98c-0.68-1.99-1.2-4.41-1.21-5.99
			c-0.02-3.25,3.63-5.69,10.04-5.73c3.08-0.02,4.58,0.63,5.43,1.88c1.85,2.49,6.32,10.7,8.43,14.52
			C347.48,457.7,347.51,449.87,347.49,447.71z"/>
		<path class="st8" d="M391.71,446.57c0.67,0.91,1.35,2.91,1.36,4.41c0.05,6.91-2.61,8.76-7.93,9.05c0.02,2.67-0.19,9.33-0.4,14.99
			c-0.06,3.42-0.2,7-0.34,10.91c-0.22,4.08-3.63,5.6-8.54,5.64c-5.41,0.04-5.59-1.29-5.64-8.79c-0.03-4.25,0.1-9.66,0.07-14.16
			l0.2-8c-6.5,0.04-7.75-0.78-7.77-3.2c-0.04-6.41,2.34-10.34,5.01-10.78c2.33-0.27,4.58-0.36,10.82-0.41
			C385.13,446.2,388.63,446.34,391.71,446.57z"/>
		<path class="st8" d="M400.8,448.17c2.9-1.6,7.14-2.63,11.72-2.66c5.33-0.04,7.76,2.2,8.2,5.52c1.06,8.32,3.14,21.38,5.53,29.69
			c1.84,1.4,2.6,2.31,2.61,4.06c0.03,4.58-5.79,6.54-11.78,6.58c-3.5,0.02-4.51-2.05-5.64-8.46c-2,0.26-5.16,0.29-8.49,0.31
			c-0.32,1.25-0.96,6.42-0.95,7.34c-0.58,0.59-1.83,1.01-3.74,1.02c-3,0.02-7.42-1.03-7.45-5.28
			C390.8,484.14,395.08,463.46,400.8,448.17z M407.87,458.62c-0.98,3.59-2.59,11.01-3.55,16.26c1.25-0.01,4.5-0.11,5.99-0.37
			C409.62,471.27,408.57,463.2,407.87,458.62z"/>
		<path class="st8" d="M450.93,471.24c1.57-1.09,3.74-1.69,6.48-1.71c4.66-0.03,5.76,1.54,5.78,5.29c0.02,3.33-0.2,7.75-0.59,11
			c-0.39,3.75-6.29,5.29-13.54,5.34c-11.33,0.08-18.1-4.62-18.21-20.45c-0.09-13.41,4.03-19.52,10.43-21.31
			c3.31-2.94,6.05-4.12,11.96-4.16c5.66-0.04,8.6,2.52,8.63,7.44c0.02,2.75-1.3,5.34-3.62,6.94c-3.51-1.31-6.34-2.12-11.67-2.09
			c-1.14,3.42-1.86,8.42-1.84,11.01c0.06,8.58,1.41,11.73,6.09,13.45L450.93,471.24z"/>
		<path class="st8" d="M492.54,489.78c-2.33,0.52-5.49,0.7-11.24,0.74c-2.33,0.02-3.83,0.03-5.42-0.21
			c-3.67-0.39-7.77-2.95-7.79-5.86c-0.03-4.16,0.01-10.91,0.22-16.58c0.06-3.33,0.12-6.75,0.18-10.33
			c-0.93-2.33-1.19-3.91-1.21-6.32c-0.02-3.66,1.96-5.51,9.96-5.56c4.5-0.03,16.82,0.14,19.74,0.12c0.92,0.91,1.44,3.16,1.45,4.74
			c0.03,4.66-2.04,6.59-5.95,6.87c-1.75,0.26-6.83,0.38-10.74,0.41l-0.2,7.75c3.58-0.36,11.16-0.41,12.32-0.42
			c0.59,0.75,0.93,1.83,0.94,3.07c0.03,4.25-1.71,6.42-4.37,6.69c-1.17,0.26-4.75,0.12-8.99,0.39l-0.05,4.67l14.49-0.02
			c0.67,0.91,0.93,1.74,0.94,2.99C496.85,487,495.12,489.34,492.54,489.78z"/>
		<path class="st8" d="M539.54,444.65c8.58-0.06,14.95,6.14,15.04,19.22c0.1,15.07-5.06,26.85-18.39,26.94
			c-10.33,0.07-16.44-4.3-16.54-20.04c-0.07-10.74,2.47-16.34,7.28-19.45C529.56,446.38,534.63,444.68,539.54,444.65z
			 M534.03,455.68c-0.64,3.34-0.68,9.75-0.67,12.16c0.07,10.41,1.58,12.07,6.83,13.03c1.05-5.09,1.26-10.59,1.24-13.08
			C541.39,459.88,539.04,457.23,534.03,455.68z"/>
		<path class="st8" d="M559.86,456.84c-0.93-2.33-1.19-3.91-1.21-6.32c-0.03-3.66,1.96-5.51,9.96-5.56
			c4.58-0.03,13.41-0.17,16.41,0.14c0.92,0.91,1.52,2.65,1.53,4.24c0.04,5.41-1.94,8.67-5.85,9.03c-1.75,0.26-5.16,0.29-7.16,0.3
			l-0.19,8.08c3.75-0.28,6.58-0.29,7.74-0.3c2.5-0.02,3.17,0.64,3.18,2.64c0.04,6-2.36,8.51-5.02,8.78c-1,0.09-2.83,0.27-6.16,0.38
			l-0.12,6.33c0.03,4.41-2.38,5.6-7.21,5.63c-5.5,0.04-5.84-1.29-5.89-8.79c-0.03-4.16,0.01-10.24-0.02-15.41
			C559.91,463,559.89,459.92,559.86,456.84z"/>
		<path class="st8" d="M634.23,444c4.58-0.03,6.93,2.12,7.37,5.2l-11.08,23.73l-0.01,10.41c0.02,3.25-2.29,6.6-10.37,6.65
			c-3.83,0.03-4.92-1.05-4.96-6.05c-0.01-2.08,0.05-4.75,0.04-6.66c0.08-1.25,0.07-2.42,0.14-3.67l-7.29-18.52
			c-1.76-1.32-2.6-3.31-2.62-4.9c-0.03-3.83,5.96-6.04,10.37-6.07c3.08-0.02,4.84,1.22,6.03,4.62l3.74,10.55l3.51-10.77
			C630.16,445.2,631.15,444.02,634.23,444z"/>
		<path class="st8" d="M661.55,443.82c8.58-0.06,14.95,6.14,15.04,19.22c0.1,15.07-5.06,26.85-18.39,26.94
			c-10.33,0.07-16.44-4.3-16.54-20.04c-0.07-10.74,2.47-16.34,7.28-19.45C651.57,445.55,656.64,443.85,661.55,443.82z
			 M656.05,454.85c-0.64,3.34-0.68,9.75-0.67,12.16c0.07,10.41,1.58,12.07,6.83,13.03c1.05-5.09,1.26-10.59,1.24-13.08
			C663.4,459.05,661.06,456.4,656.05,454.85z"/>
		<path class="st8" d="M681.37,454.43c-0.43-1.91-0.69-3.41-0.7-4.99c-0.02-3.33,3.62-5.77,10.04-5.82c4.25-0.03,4.93,1.88,4.94,4.3
			c0.03,4.33-0.51,10.83-0.46,18.08c0.07,10.41,1.41,11.9,6.33,12.87c-0.04-5.33,0.17-24.82,0.15-27.73
			c-0.03-4.33,0.2-7.41,6.36-7.46c3.08-0.02,5.92,0.79,7.01,2.12c0.04,5.75-0.27,22.07-0.18,34.65c0.04,5.41-3.2,6.6-10.86,7.07
			c-2.07,1.26-5.15,2.03-9.06,2.06c-10.99,0.08-13.96-7.23-14.06-22.39C680.83,461.34,681.07,459.43,681.37,454.43z"/>
	</g>
</g>
<path class="st9" d="M808.35,807.55c-1.03-1.72-2.4-3.14-3.97-4.23c0.59-3.82-0.09-7.85-2.25-11.46
	c-4.15-6.95-12.42-10.2-20.15-8.53c-0.05-0.09-0.09-0.18-0.14-0.27c-3.52-5.91-11.36-7.95-17.5-4.56c-0.24,0.13-0.46,0.28-0.69,0.43
	c-7.33-5.12-17.38-5.96-25.75-1.35c-2.76,1.52-5.08,3.5-6.92,5.78c-12.39,1.42-21.99,11.55-21.99,23.85
	c0,8.54,4.63,16.03,11.61,20.29c0.76,3.91,4.33,6.87,8.61,6.87c1.36,0,2.64-0.31,3.79-0.84c3.06,5.81,9.32,9.81,16.56,9.81
	c4.36,0,8.35-1.45,11.52-3.87c7.48,5.53,17.98,6.53,26.67,1.73c5.63-3.1,9.45-8.07,11.13-13.62c1.46-0.28,2.9-0.78,4.26-1.53
	C809.89,822.34,812.23,814.05,808.35,807.55z"/>
<path class="st10" d="M698.8,723.16c-1.33-2.23-3.1-4.07-5.14-5.49c0.76-4.96-0.13-10.2-2.93-14.89
	c-5.39-9.03-16.13-13.25-26.17-11.08c-0.06-0.11-0.11-0.23-0.18-0.34c-4.57-7.67-14.75-10.32-22.72-5.92
	c-0.31,0.17-0.6,0.37-0.9,0.56c-9.51-6.65-22.58-7.74-33.44-1.75c-3.59,1.98-6.6,4.55-8.99,7.51c-16.09,1.84-28.56,15-28.56,30.97
	c0,11.08,6.02,20.81,15.07,26.35c0.99,5.08,5.62,8.92,11.19,8.92c1.76,0,3.42-0.4,4.91-1.08c3.98,7.55,12.11,12.73,21.51,12.73
	c5.66,0,10.86-1.88,14.97-5.02c9.71,7.18,23.34,8.47,34.62,2.25c7.31-4.03,12.28-10.47,14.46-17.69c1.89-0.36,3.76-1.01,5.53-1.98
	C700.8,742.36,703.83,731.6,698.8,723.16z"/>
<path class="st11" d="M873.19,623.32c-1.76-2.96-4.1-5.39-6.79-7.27c1-6.56-0.18-13.47-3.88-19.67
	c-7.12-11.93-21.32-17.51-34.58-14.65c-0.08-0.15-0.16-0.3-0.25-0.45c-6.05-10.14-19.49-13.65-30.04-7.83
	c-0.41,0.23-0.81,0.47-1.21,0.72c-12.57-8.78-29.83-10.21-44.18-2.3c-4.74,2.62-8.72,6.02-11.88,9.93
	c-21.26,2.44-37.75,19.83-37.75,40.94c0,14.65,7.95,27.51,19.92,34.82c1.31,6.71,7.42,11.8,14.79,11.8c2.33,0,4.52-0.52,6.49-1.43
	c5.25,9.98,16.01,16.82,28.44,16.82c7.48,0,14.35-2.48,19.79-6.63c12.84,9.49,30.85,11.2,45.77,2.97
	c9.66-5.33,16.22-13.84,19.11-23.36c2.5-0.48,4.97-1.35,7.31-2.64C875.83,648.7,879.84,634.47,873.19,623.32z"/>
</svg>
