<?xml version="1.0" encoding="utf-8"?>
<!-- Generator: Adobe Illustrator 23.0.2, SVG Export Plug-In . SVG Version: 6.00 Build 0)  -->
<svg version="1.1" id="Layer_1" xmlns="http://www.w3.org/2000/svg" xmlns:xlink="http://www.w3.org/1999/xlink" x="0px" y="0px"
	 viewBox="0 0 722.32 597.58" style="enable-background:new 0 0 722.32 597.58;" xml:space="preserve">
<style type="text/css">
	.st0{opacity:0.1;fill:#007CC7;}
	.st1{fill:#422645;}
	.st2{fill:#803D3D;}
	.st3{fill:#5E2C2C;}
	.st4{opacity:0.48;fill:#422645;}
	.st5{fill:none;stroke:#5E2C2C;stroke-width:5.4531;stroke-linecap:round;stroke-linejoin:round;stroke-miterlimit:10;}
	.st6{fill:#FFFFFF;}
	.st7{opacity:0.1;fill-rule:evenodd;clip-rule:evenodd;fill:#007CC7;}
	.st8{fill:#73A0BE;}
	.st9{opacity:0.2;fill-rule:evenodd;clip-rule:evenodd;fill:#73A0BE;}
	.st10{opacity:0.59;fill-rule:evenodd;clip-rule:evenodd;fill:#73A0BE;}
	.st11{opacity:0.35;fill-rule:evenodd;clip-rule:evenodd;fill:#007CC7;}
	.st12{opacity:0.09;fill-rule:evenodd;clip-rule:evenodd;fill:#007CC7;}
</style>
<g>
	<path class="st0" d="M721.77,260.33c-3.85,34.53-17.06,53.73-33.04,66.74c-27.15,22.11-62.28,26.33-73.02,57.43
		c-17.06,49.41,24.64,57.96,29.34,78.33c0.49,2.13,0.8,4.21,0.93,6.2c0.01,0.05,0.01,0.1,0.01,0.15c0.01,0.32,0.03,0.65,0.04,0.96
		v0.3c0.01,0.21,0.01,0.42,0.01,0.63c0,0.15,0,0.29-0.01,0.43c0.01,0.07,0.01,0.15,0,0.21c0,0.23-0.01,0.44-0.01,0.66
		c0,0.09-0.01,0.18-0.01,0.26c0,0.11-0.01,0.23-0.01,0.34c-0.01,0.2-0.02,0.4-0.04,0.6c-6.94,91.59-421.05,24.03-562.87-1.83
		c-69.42-12.66-105.01-90.88-68.56-151.31c0.54-0.9,1.1-1.82,1.68-2.74c57.41-91.52,125.34-64.48,155.05-166.72
		C200.95,48.75,344.51,18,487.23,17.72c142.72-0.29,111.43,88.34,108.29,133.27C592.37,195.92,732.16,167.13,721.77,260.33z"/>
	<g>
		<path class="st1" d="M286.98,570.64c1.8-0.98,4.43-1.6,7.26-1.6c3.3,0,4.79,1.39,5.05,3.45c0.62,5.15,1.85,13.24,3.3,18.39
			c1.13,0.88,1.6,1.44,1.6,2.52c0,2.83-3.61,4.02-7.31,4.02c-2.16,0-2.78-1.29-3.45-5.25c-1.24,0.16-3.19,0.16-5.25,0.16
			c-0.21,0.77-0.62,3.97-0.62,4.53c-0.36,0.36-1.13,0.62-2.32,0.62c-1.85,0-4.58-0.67-4.58-3.3
			C280.65,592.84,283.38,580.07,286.98,570.64z M291.31,577.13c-0.62,2.21-1.65,6.8-2.27,10.04c0.77,0,2.78-0.05,3.71-0.21
			C292.34,584.96,291.72,579.97,291.31,577.13z"/>
		<path class="st1" d="M315.32,569.04c5.46,0,8.04,2.78,8.04,5.56c0,3.3-1.91,4.64-4.22,4.64c-0.77,0-1.24-0.1-1.8-0.26
			c-0.41-1.91-1.29-2.83-3.76-3.66c-0.21,0.46-0.31,1.18-0.31,1.8c0,1.34,0.26,1.65,6.03,5.36c3.25,2.01,4.38,3.55,4.38,6.54
			c0,4.38-3.3,8.45-9.94,8.45c-5.41,0-9.07-1.65-9.07-5.97c0-2.63,1.6-4.33,3.81-4.33c0.36,0,0.77,0,1.18,0.16
			c2.06,3.71,3.25,4.58,4.74,4.58c1.03,0,1.44-0.57,1.44-1.19c0-0.67-0.77-1.39-6.13-5.1c-2.88-2.06-3.86-3.97-3.86-6.8
			c0-2.47,0.98-5,3.04-6.49C310.27,569.97,311.81,569.04,315.32,569.04z"/>
		<path class="st1" d="M335.72,569.04c5.46,0,8.04,2.78,8.04,5.56c0,3.3-1.91,4.64-4.22,4.64c-0.77,0-1.24-0.1-1.8-0.26
			c-0.41-1.91-1.29-2.83-3.76-3.66c-0.21,0.46-0.31,1.18-0.31,1.8c0,1.34,0.26,1.65,6.03,5.36c3.25,2.01,4.38,3.55,4.38,6.54
			c0,4.38-3.3,8.45-9.94,8.45c-5.41,0-9.07-1.65-9.07-5.97c0-2.63,1.6-4.33,3.81-4.33c0.36,0,0.77,0,1.18,0.16
			c2.06,3.71,3.25,4.58,4.74,4.58c1.03,0,1.44-0.57,1.44-1.19c0-0.67-0.77-1.39-6.13-5.1c-2.88-2.06-3.86-3.97-3.86-6.8
			c0-2.47,0.98-5,3.04-6.49C330.67,569.97,332.21,569.04,335.72,569.04z"/>
		<path class="st1" d="M362.09,596.76c-1.44,0.31-3.4,0.41-6.95,0.41c-1.44,0-2.37,0-3.35-0.15c-2.27-0.26-4.79-1.85-4.79-3.66
			c0-2.58,0.05-6.75,0.21-10.25c0.05-2.06,0.1-4.17,0.16-6.39c-0.57-1.44-0.72-2.42-0.72-3.92c0-2.27,1.24-3.4,6.18-3.4
			c2.78,0,10.41,0.15,12.21,0.15c0.57,0.57,0.88,1.96,0.88,2.94c0,2.88-1.29,4.07-3.71,4.22c-1.08,0.15-4.22,0.21-6.65,0.21
			l-0.16,4.79c2.22-0.21,6.9-0.21,7.62-0.21c0.36,0.46,0.57,1.13,0.57,1.91c0,2.63-1.08,3.97-2.73,4.12
			c-0.72,0.15-2.94,0.05-5.56,0.21l-0.05,2.88l8.96,0.05c0.41,0.57,0.57,1.08,0.57,1.85C364.77,595.06,363.69,596.5,362.09,596.76z"
			/>
		<path class="st1" d="M383.52,587.18c2.27,2.88,2.63,2.99,4.58,3.19c0.26,0.46,0.41,1.13,0.41,1.7c0,3.04-2.01,5.51-5.36,5.51
			c-2.32,0-2.99-0.77-4.07-2.83c-1.39-2.47-2.11-3.66-3.09-4.22l-0.26,3.35c-0.26,2.73-1.13,3.45-4.17,3.45
			c-3.4,0-3.61-0.82-3.61-5.46c0-2.63,0.05-6.34,0.21-9.48c0.05-1.85,0.1-3.76,0.15-5.67c-0.26-1.08-0.36-2.11-0.36-3.09
			c0-2.06,1.18-2.94,6.08-3.35c2.11-0.82,3.81-1.24,6.29-1.24c5.51,0,7.73,3.3,7.73,7.93C388.06,581.25,386.72,583.57,383.52,587.18
			z M376.21,584.45c0.72,0,2.47,0.31,3.09,0.57c0.77-1.85,1.18-3.55,1.18-5.2c0-2.52-0.93-3.76-3.86-4.02L376.21,584.45z"/>
		<path class="st1" d="M407.84,569.61c0.41,0.57,0.82,1.8,0.82,2.73c0,4.28-1.65,5.41-4.95,5.56c0,1.65-0.15,5.77-0.31,9.27
			c-0.05,2.11-0.15,4.33-0.26,6.75c-0.16,2.52-2.27,3.45-5.31,3.45c-3.35,0-3.45-0.82-3.45-5.46c0-2.63,0.1-5.98,0.1-8.76l0.15-4.95
			c-4.02,0-4.79-0.52-4.79-2.01c0-3.97,1.49-6.39,3.14-6.65c1.44-0.15,2.83-0.21,6.7-0.21
			C403.77,569.35,405.93,569.46,407.84,569.61z"/>
		<path class="st1" d="M410.88,576.1c-0.36-1.24-0.57-2.52-0.57-3.5c0-2.06,2.27-3.55,6.23-3.55c2.94,0,3.19,0.82,3.19,2.16
			l-0.26,18.75c0.98,0.57,1.49,1.18,1.49,2.06c0,3.5-2.68,5.41-6.28,5.41c-3.4,0-4.02-0.82-4.02-5.46c0-2.58,0.1-6.59,0.1-9.84
			C410.83,580.17,410.83,578.16,410.88,576.1z"/>
		<path class="st1" d="M437.92,570.08c0.46-0.46,1.65-0.93,2.73-0.93c2.83,0,4.95,0.93,4.95,4.84c0,2.27-1.65,9.32-4.95,18.24
			c-0.67,2.01-1.85,3.09-5.67,3.92c-0.82,0.72-2.47,1.29-5,1.29c-2.47,0-2.99-1.6-3.55-5.05c-0.82-5.15-1.8-10.46-2.99-15.81
			c-1.18-1.08-1.7-2.06-1.7-3.3c0-3.04,3.71-4.22,7.37-4.22c2.16,0,2.68,1.55,3.35,5.46c0.26,2.11,1.75,11.8,2.06,14.68
			C436.53,580.84,437.92,573.06,437.92,570.08z"/>
		<path class="st1" d="M462.65,596.76c-1.44,0.31-3.4,0.41-6.95,0.41c-1.44,0-2.37,0-3.35-0.15c-2.27-0.26-4.79-1.85-4.79-3.66
			c0-2.58,0.05-6.75,0.21-10.25c0.05-2.06,0.1-4.17,0.15-6.39c-0.57-1.44-0.72-2.42-0.72-3.92c0-2.27,1.24-3.4,6.18-3.4
			c2.78,0,10.41,0.15,12.21,0.15c0.57,0.57,0.88,1.96,0.88,2.94c0,2.88-1.29,4.07-3.71,4.22c-1.08,0.15-4.22,0.21-6.64,0.21
			l-0.15,4.79c2.21-0.21,6.9-0.21,7.62-0.21c0.36,0.46,0.57,1.13,0.57,1.91c0,2.63-1.08,3.97-2.73,4.12
			c-0.72,0.15-2.94,0.05-5.56,0.21l-0.05,2.88l8.96,0.05c0.41,0.57,0.57,1.08,0.57,1.85C465.33,595.06,464.25,596.5,462.65,596.76z"
			/>
	</g>
	<g>
		<path class="st2" d="M374.21,18.48c-35.84,0.55-72.81,7.9-102.62,28.76c-23.21,16.24-39.95,39.77-49.6,66.25
			c-4.09,11.22-6.96,22.86-8.8,34.65c-0.8,5.12-1.57,10.33-1.83,15.51c-0.22,4.47,1.49,7.82-0.34,12.24
			c-2.11,5.11-11.44-5.66-11.65-0.08c-0.75,20.1,4.94,46.45,10.51,55.2c1.32,2.08,2.86,4.03,3.91,6.26
			c2.39,5.09,2.52,11.76,2.51,17.29c-0.13,44.44-14.66,95.28,10,135.87c19.11,31.45,79.78,84.88,151.6,85.91
			c44.74,0.64,97.92-25.95,124.66-53.28c14.61-14.93,25.81-32.51,31.6-52.67c6.43-22.4,6.94-46.16,6.79-69.3
			c-0.08-13.21-0.49-26.41-0.91-39.61c-0.24-7.63-1.25-20.69-1.53-28.32c9.28-10.25,8.92-30.19,9.32-37.58
			c0.41-7.4,0.35-45.89-4.74-51.27c-1.19-1.25-4.43,28.34-5.43,26.93c-1.98-2.76-0.74-5.63-0.99-8.74c-0.2-2.51-0.42-5.02-0.67-7.53
			c-0.49-4.97-1.09-9.94-1.83-14.88c-1.44-9.67-3.39-19.27-6.13-28.66c-5.29-18.14-13.66-35.48-26.29-49.67
			c-14.15-15.89-32.83-26.75-52.93-33.33C424.96,20.65,399.21,18.1,374.21,18.48z"/>
		<path class="st1" d="M198.67,170.62c-0.26-10.5,0.16-21.13,1.46-31.57c1.66-13.26,3.63-27.46,8.2-40.03
			c5.53-15.2,13.33-29.59,23.46-42.23c11.94-14.9,28.06-25.99,44.91-34.93c21.75-11.54,46-17.66,70.37-20.29
			C355.61,0.65,364.26,0,372.85,0c29.6,0,59.94,3.54,87.42,15.11c29.29,12.33,57.01,36.34,70.99,64.9
			c6.6,13.49,10.03,25.74,13.14,40.4c4.47,21.09,5.84,40.48,4.02,57.23c-0.08,0.78-0.23,1.65-0.87,2.09
			c-0.63,0.44-3.23-0.45-3.98-0.61c-5.79-1.24-11.58-2.48-17.38-3.72c-0.72-0.15-1.46-0.32-2.02-0.79
			c-0.84-0.71-1.04-1.91-1.14-3.01c-0.61-6.42,0.07-12.95-1-19.34c-1-5.93-3.52-8.84-8.59-11.95c-9.12-5.6-20.28-6.93-30.67-8.35
			c-1-0.14-2.05-0.3-2.81-0.96c-0.91-0.79-1.16-2.1-1.28-3.3c-0.74-7.03,0.72-14.08,0.97-21.14c0.25-7.06-0.99-14.72-6.01-19.68
			c-2.98-2.94-6.97-4.62-10.96-5.91c-11.78-3.81-24.27-4.82-36.64-5.35c-26.66-1.14-53.37-0.16-80.04,0.88
			c-21.05,0.82-42.25,1.7-62.78,6.44c-3.77,0.87-7.73,1.99-10.37,4.83c-4.27,4.59-3.57,11.75-2.59,17.95
			c1.07,6.74,2.14,13.49,3.2,20.23c0.47,2.96,0.78,6.44-1.38,8.53c-1.86,1.8-4.77,1.76-7.35,1.7c-9.05-0.21-18.82,1.01-25.53,7.09
			c-8.67,7.86-9.8,21.87-11.11,32.79c-0.09,0.78-0.2,1.6-0.69,2.21c-1.01,1.27-2.95,0.97-4.58,0.97c-3.04-0.01-5.87,1.4-8.8,2.18
			c-3.76,1-7.79,0.94-11.52-0.15c-1.08-0.32-2.2-0.77-2.86-1.68c-0.65-0.9-0.73-2.09-0.78-3.2
			C198.78,174.47,198.71,172.55,198.67,170.62z"/>
		<path class="st2" d="M558.96,232.67c-21.46-17.5-41.78,25.76-48.93,39.5c-4.46,8.56,7.97,16.42,12.75,8.43
			c-1.5,2.49-2.99,4.99-4.49,7.48c-5.13,8.56-14.85,20.37-9.04,30.86c11.33,20.45,43.02-5.85,51.55-18.32
			C580.14,272.37,576.35,246.85,558.96,232.67z"/>
		<path class="st2" d="M191.56,297.67c8.53,12.47,40.23,38.77,51.55,18.32c5.81-10.49-3.91-22.3-9.04-30.86
			c-1.5-2.49-2.99-4.99-4.49-7.48c4.78,7.99,17.2,0.13,12.75-8.43c-7.15-13.75-27.46-57.01-48.93-39.5
			C176.02,243.89,172.23,269.41,191.56,297.67z"/>
		<ellipse class="st1" cx="292.71" cy="266.07" rx="11.49" ry="17.58"/>
		<path class="st1" d="M463.07,265.68c0,9.71-5.14,17.58-11.49,17.58c-6.35,0-11.49-7.87-11.49-17.58s5.14-17.58,11.49-17.58
			C457.93,248.1,463.07,255.97,463.07,265.68z"/>
		<path class="st1" d="M508.73,206.11c-2.08-5.93-7.8-9.15-13.77-11.26c-0.38-0.21-0.63-0.52-1.08-0.68
			c-25.55-8.78-52.48-11.86-76.21,6.15c-6.46,4.9-5.32,15.55,2.58,16.93c17.14,3,79.4,8.5,86.44-0.42
			C509.19,213.67,510.14,210.12,508.73,206.11z"/>
		<path class="st1" d="M339.66,201.65c-2.78-5.63-8.85-8.14-15.02-9.52c-0.4-0.16-0.69-0.44-1.15-0.54
			c-26.42-5.64-53.53-5.45-74.91,15.28c-5.82,5.64-3.41,16.07,4.6,16.49c17.38,0.91,79.85-1.11,85.77-10.82
			C341.03,209.11,341.54,205.47,339.66,201.65z"/>
		<g>
			<g>
				<path class="st3" d="M551.48,257.61c-9.86,6.2-11.71,21.4-11.68,32.01c0,1.21,1.85,1.51,2.15,0.29
					c0.69-2.86,1.78-5.44,3.58-7.79c1.75-2.28,1.38-2.4,4.47-1.05c3.57,1.57,2.87,2.48,2.33,6.49c-0.19,1.38,1.92,1.97,2.11,0.58
					c0.47-3.48,1.33-12.8-4.83-12.1c-5.26,0.6-8.73,9-9.76,13.28c0.72,0.1,1.43,0.19,2.15,0.29c-0.03-9.68,1.54-24.42,10.6-30.12
					C553.77,258.75,552.67,256.86,551.48,257.61L551.48,257.61z"/>
			</g>
		</g>
		<g>
			<g>
				<path class="st3" d="M201.19,255.78c4.28,4.69,7.69,10.09,9.97,16.02c2.3,5.99,3.23,12.36,4.13,18.68
					c0.17,1.2,2.27,0.93,2.14-0.29c-0.62-5.67-2.67-12.83-8.77-14.79c-4.81-1.54-10.11,1.93-9.1,7.24c0.26,1.37,2.36,0.79,2.1-0.58
					c-0.38-2.02,0.92-4.01,2.85-4.67c2.25-0.77,4.75,0.29,6.39,1.83c2.9,2.73,3.94,7.16,4.36,10.97c0.71-0.1,1.42-0.19,2.14-0.29
					c-0.98-6.9-2.06-13.78-4.76-20.26c-2.37-5.69-5.75-10.86-9.9-15.4C201.78,253.21,200.24,254.75,201.19,255.78L201.19,255.78z"/>
			</g>
		</g>
		<path class="st4" d="M199.55,165.52c-0.89,2.97-0.95,6.12-0.92,9.21c0.19,17.37,3.3,34.7,9.15,51.05
			c1.09,3.05,2.76,6.49,5.94,7.11c3.09,0.6,6.03-1.98,7.16-4.91c1.14-2.93,1.01-6.18,1.3-9.31c0.52-5.52,2.4-10.81,3.72-16.19
			c3.55-14.5,3.01-29.65,4.82-44.46c0.33-2.69,0.7-5.58-0.56-7.98c-1.52-2.91-5.16-4.24-8.42-3.86c-3.26,0.38-6.19,2.16-8.77,4.19
			c-6,4.7-10.76,10.97-13.67,18.02"/>
		<path class="st4" d="M547.69,168.78c0.89,2.97,0.95,6.12,0.92,9.21c-0.2,17.37-0.09,36.02-7.69,52.41
			c-1.36,2.94-4.23,5.13-7.41,5.74c-3.09,0.6-6.03-1.98-7.16-4.91c-1.14-2.93-1.01-6.18-1.3-9.31c-0.52-5.52-0.4-45.89-2.21-60.71
			c-0.33-2.69-0.7-5.58,0.56-7.98c1.52-2.91,5.16-4.24,8.42-3.86s6.19,2.16,8.77,4.19c6,4.7,4.42,11.03,7.33,18.07"/>
		<path class="st5" d="M344.33,287.62c-6.73,1.32-11.25,9.34-8.89,15.78c2.36,6.44,10.99,9.64,16.98,6.3
			c4.87,11.66,17.92,19.33,30.47,17.9c4.52-0.51,9.07-2.19,12.16-5.53c3.09-3.34,4.41-8.52,2.41-12.61
			c5.68,1.06,11.95-0.6,15.89-4.83s5.05-11.05,2.1-16.02c-2.95-4.96-10.04-7.18-15.02-4.25c-0.82-17.47-1.64-34.95-2.47-52.42"/>
	</g>
	<g>
		<path class="st6" d="M437.51,377.17l-115.3,0.41c-0.34-0.91-0.55-4.01-0.23-5.33c0.87-3.55,3-4.74,6.54-4.18
			c15.1,2.34,68.03,1.06,102.23-2.72c4-0.45,8.95,0.91,9.36,4.93C440.53,374.33,437.77,376.99,437.51,377.17z"/>
		<path class="st3" d="M437.51,377.17c-18.52,22.02-78.96,36.37-111.91,5.54c-0.64-0.6-3.17-4.53-3.4-5.14L437.51,377.17z"/>
	</g>
</g>
</svg>
