<?xml version="1.0" encoding="utf-8"?>
<!-- Generator: Adobe Illustrator 23.0.3, SVG Export Plug-In . SVG Version: 6.00 Build 0)  -->
<svg version="1.1" id="Layer_1" xmlns="http://www.w3.org/2000/svg" xmlns:xlink="http://www.w3.org/1999/xlink" x="0px" y="0px"
	 viewBox="0 0 952.7 726.5" style="enable-background:new 0 0 952.7 726.5;" xml:space="preserve">
<style type="text/css">
	.st0{opacity:0.1;fill:#007CC7;enable-background:new    ;}
	.st1{opacity:0.53;fill:#FDA689;enable-background:new    ;}
	.st2{fill:#30170D;}
	.st3{fill:#FBD5AF;}
	.st4{fill:#1B354C;}
	.st5{fill:#F5BD83;}
	.st6{fill:#AFC7D7;}
	.st7{fill:#F0E6E1;}
	.st8{fill:#96C7F6;}
	.st9{fill:#FDA689;}
	.st10{fill:#D37E37;}
	.st11{fill:#6E439D;}
	.st12{fill:#422645;}
	.st13{fill:#FFFFFF;}
	.st14{opacity:0.48;fill:#99AFBC;enable-background:new    ;}
	.st15{fill:#002042;}
	.st16{fill:#035693;}
	.st17{opacity:0.16;fill:#B94A00;enable-background:new    ;}
	.st18{fill:#853535;}
	.st19{fill:#FFCFC2;}
	.st20{fill:#4F322F;}
	.st21{fill:#4A4141;}
	.st22{fill:#36302F;}
	.st23{fill:#FAFAFA;}
	.st24{fill:#007CC7;}
	.st25{fill:#005D8B;}
	.st26{fill:#CCCCCC;}
	.st27{fill:none;stroke:#D19D6F;stroke-width:1.1224;stroke-linecap:round;stroke-linejoin:round;stroke-miterlimit:10;}
	.st28{fill:#EFEAEA;}
	.st29{fill:#00456B;}
	.st30{fill:#CB6259;}
	.st31{fill:#D19D6F;}
	.st32{opacity:0.7;fill:#D19D6F;enable-background:new    ;}
	.st33{fill:#FFCBB3;}
	.st34{fill:#FFF1E4;}
	.st35{fill:#331318;}
	.st36{fill:#F7F0ED;}
	.st37{fill:#C64A27;}
	.st38{fill:#3E1D1D;}
	.st39{fill:#FFE6D6;}
	.st40{fill:#C09B7E;}
	.st41{fill:#5B2516;}
	.st42{fill:#56222C;}
	.st43{fill:#FFF4D6;}
	.st44{fill:#F3A769;}
	.st45{opacity:0.69;}
</style>
<path class="st0" d="M952,373.9c-5.1,45.5-22.5,70.9-43.6,88c-35.8,29.2-82.1,34.7-96.3,75.8c-22.5,65.2,32.5,76.4,38.7,103.3
	c0.7,2.8,1.1,5.5,1.2,8.2c0,0.1,0,0.1,0,0.2c0,0.4,0,0.8,0.1,1.3v0.4c0,0.3,0,0.5,0,0.8c0,0.2,0,0.4,0,0.6c0,0.1,0,0.2,0,0.3
	c0,0.3,0,0.6,0,0.9c0,0.1,0,0.2,0,0.3c0,0.2,0,0.3,0,0.5c0,0.3,0,0.5,0,0.8c-9.2,120.8-555.3,31.7-742.4-2.4
	C18,636.1-28.9,532.9,19.1,453.2c0.7-1.2,1.5-2.4,2.2-3.6c75.7-120.7,165.3-85,204.5-219.9C265,94.8,454.4,54.3,642.6,53.9
	c188.2-0.4,147,116.5,142.8,175.8C781.3,289,965.7,251,952,373.9z"/>
<path id="XMLID_1_" class="st1" d="M880.6,510.5c-14.4-2-29,1.2-43.5,0.7c-14.6-0.5-29.1-3.2-43.6-5.2c-14-1.9-28-3.2-42.1-1.5
	c-14.3,1.8-28.4,5.7-42.9,5.6c-15.3-0.1-30.5-3.4-45.6-5.6c-14.6-2.1-29.3-4-44.1-4.9c-15-0.9-29.9-0.6-44.8,1.2
	c-14.7,1.8-29.3,4.5-44.1,5.8c-14.6,1.2-28.9,0-43.4-1.4c-13.7-1.4-27.6-2.6-41.2-0.4c-3.5,0.6-7,1.4-10.4,2.5
	c-0.3,0.1-0.2,0.6,0.1,0.5c0,0,0.1,0,0.1,0c-9.4,28.7-21.8,56.4-37,82.5c-0.1,0.2,0.1,0.5,0.3,0.4c33.1-10.3,67.2,3.7,100.7,4.5
	c17.7,0.5,35.3-2,53-3.5c8.8-0.8,17.7-1.3,26.5-1.1c9,0.2,18,1,27,2.1c17.7,2.1,35.3,4.7,53.1,4.9c17.9,0.2,35.8-1.3,53.6-2.9
	c17.9-1.6,35.7-3.3,53.7-3.6c18.2-0.2,36.5,0.8,54.7,0.8c9,0,18.1-0.1,27.1-0.8c2.5-0.2,5.1-0.6,6.7-2.7c2.1-2.8,2.7-7.1,3.8-10.4
	c5.6-17.5,11.2-35,16.9-52.5c1.4-4.3,5-14.1,5.5-14.6C880.8,510.8,880.8,510.5,880.6,510.5z"/>
<g>
	<path class="st2" d="M502.2,453.5c-3.5,32.6-4.6,64.6-8.7,97.3c-0.1,0.9,0.9,1.7,1.7,1.7c1.7,0-0.1,0,1.6,0c0.7,0,1.3-0.5,1.5-1.2
		c4.5-15.8,15.8-77.6,19.9-98.2C518.4,452.2,502.3,452.5,502.2,453.5z"/>
	<path class="st2" d="M777.4,459.3c5.8,32.3,13.5,63.3,18.8,95.9c0.1,0.9,1.3,1.4,2.1,1.1c1.6-0.5-0.1,0,1.5-0.5
		c0.7-0.2,1.1-0.9,1.1-1.6c-0.1-16.4-6.5-78.9-8.3-99.9C792.6,453.6,777.2,458.4,777.4,459.3z"/>
	<path class="st3" d="M829.4,320.5c-23.5,0.5-348.6,0.5-351.5,0.9c-4.9,0.7-3.7,0.2-4.2,5c-0.3,2.5-4.4,126-4.9,155.1
		c-0.1,8,0.5,6.3,10.8,6.3c24,0,323.7-0.1,329.7-0.5c3.9-0.3,10.3,0.7,11.2-4.6c0.4-2.7,0.4-5.6,0.5-8.3
		c0.2-3.2,6.8-118.5,8.2-144.2c0.2-3.1,0.4-6.2,0.5-9.3C829.7,320.7,829.5,320.5,829.4,320.5z"/>
	<path class="st4" d="M811.6,467.3c-2,0-4,0-6,0.1h-0.8c-82.6,0.7-181.5,1.5-207.7,1.5c-39.2,0.1-78.4,0-117.5-0.3h-0.7
		c0-0.3,0-0.6,0-0.8h0.8c20.2,0.1,40.3,0.3,60.5,0.3c43.1,0.1,86.2-0.1,129.3-0.5c9.5-0.1,73.5-0.6,135.4-1.2c0.3,0,0.5,0,0.8,0
		c1.6,0,3.3,0,4.9,0c0.3,0,0.5,0,0.8,0c0,0,0,0,0,0C811.5,466.7,811.5,467,811.6,467.3z"/>
	<path class="st2" d="M815.3,332.3c-17.2,0.2-124.2,1-141.4,1.1c-43.1,0.4-86.2,0.6-129.3,0.5c-20.4,0-40.8-0.2-61.3-0.3
		c0,0.3,0,0.5,0,0.8c39.4,0.3,78.8,0.4,118.3,0.3c41.3-0.1,172.6-1,213.9-1.6C815.3,332.9,815.2,332.6,815.3,332.3z"/>
	<path class="st2" d="M814,374.5c-62.2,0.5-130.3,1.1-139.8,1.2c-43.4,0.4-86.8,0.6-130.1,0.5c-20.5,0-41.1-0.2-61.6-0.3
		c0,0.3,0,0.5,0,0.8c39.7,0.3,79.3,0.4,119,0.3c26.3-0.1,129.6-0.9,212.7-1.6C814,375.1,814,374.8,814,374.5z"/>
	<path class="st2" d="M812.5,425.2C812.5,425.2,812.5,425.2,812.5,425.2h-0.9c-83,0.7-185.8,1.5-212,1.6c-39.6,0.1-79.3,0-119-0.3
		h-0.1c0-0.3,0-0.6,0-0.8h0.1c20.5,0.1,41,0.3,61.6,0.3c43.4,0.1,86.8-0.1,130.2-0.5c9.5-0.1,77.1-0.7,139.1-1.2h0.7
		c0,0.3,0,0.5,0.1,0.8C812.5,425.1,812.5,425.1,812.5,425.2z"/>
	<path class="st2" d="M484.1,333.9c-0.4,11.1-0.5,5.3-0.9,16.4c-0.9,25.1-1.7,50.2-2.4,75.3c0,0.3,0,0.5,0,0.8
		c0,1.5-0.1,3.1-0.1,4.6c0,0.3,0,0.5,0,0.8c-0.3,12-0.6,24-0.9,35.9c0,0.2,0,0.4,0,0.6c0,0.1,0,0.1,0,0.2c-0.2,0.4-0.8,0.3-0.8-0.2
		c0.3-11.1,0.5-22.2,0.9-33.4c0-1.1,0.1-2.2,0.1-3.2c0-0.3,0-0.6,0-0.8c1-36.9,2-59.1,3.5-97.1C483.3,333.4,484.1,333.4,484.1,333.9
		z"/>
	<path class="st3" d="M789.4,465.6c-0.7,0-1.4,0.1-2,0.1c-3.8,0.2-7.4-0.5-11.3-0.7c-8.7-0.4-17.3-0.4-26-0.1
		c-0.7,0-1.2,0.4-1.4,0.9c-11.3-0.6-22.7-0.6-34-0.1c-0.9,0-1.4,0.7-1.5,1.4c-1.1,0-2.2,0-3.4-0.1c-1.1,0-12.2-0.5-12.2-0.5
		c-0.5-2-3.4-1.2-3.2,0.6c-9.2,0.8-18.1-0.8-27.4-1c-10.3-0.2-20.6,0-30.8,0.1c-0.8,0-1.3,0.5-1.5,1.1c-18.1,0.6-36.2,0-54.3-1.9
		c-1.3-0.1-1.8,1.1-1.4,2.1c-10.8-0.9-21.5-1.7-32.3-2.6c-5.7-0.5-11.4-0.9-17.2-1.2c-3.2-0.2-9.6-1.9-12,0.8
		c-0.5,0.6-0.5,1.3-0.2,2c0.2,0.5,0.5,0.8,0.9,1.2c-1.6,0-3.1-0.1-4.7-0.1c-7.1-0.2-14.5,0.1-21.3-2.1c-1.4-0.5-2.2,1-1.9,2.1
		l-0.2,0c-1.3-0.1-2.6-0.1-3.9-0.2c-0.7,0-4.1,0.1-4.7-0.2c-1.4-1-0.6-5.7-0.6-7.3c0-2.7,0.1-5.4,0.1-8.1c0-4.9-0.1-10,0.2-14.9
		c0.9-0.1,1.6-0.9,1.3-2c-0.4-1.2-0.5-1.5-1.1-2.6c-0.7-1.1-2.8-1-3,0.4c-0.9,6.8-0.6,13.9-0.6,20.7c0,3.8-0.1,7.6-0.1,11.4
		c0,1.5-0.6,3.9,0.8,5.1c1.4,1.2,4.6,0.7,6.3,0.8c3.7,0.2,7.4,0.4,11.1,0.6c6.7,0.4,13.6,1.2,20.2,0.1c0.3,0,0.5-0.2,0.7-0.3
		c6,0.2,12,0.4,17.9,0.5c15.7,0.3,31.4,0.4,47-0.4c1.2-0.1,1.7-1.1,1.5-2.1c18.1,1.7,36.3,2.2,54.5,1.5c0.8,0,1.2-0.5,1.4-1
		c9.3-0.1,18.6-0.2,27.9-0.1c9.6,0.2,18.8,1.9,28.5,0.9c0.7-0.1,1.2-0.5,1.4-1c0.9,0.2,2,0.2,2.8,0.3c4.9,0.6,9.9,0.8,14.8,0.9
		c9.7,0.1,19.3-0.1,29,0.7c1.3,0.1,1.8-1.2,1.4-2.2c2.7,0.1,5.4,0.2,8.1,0.4c8.4,0,16.7,1,25,0.8c3.7-0.1,7.2-0.7,10.9-0.8
		c4.2-0.1,8.3-0.2,12.5-0.3c0.7,0,2.7,0.5,3.3,0.2c0.6-0.3,0-1.1,0.1-1.8c0-1,0-1.4,0-2.3c-0.8-0.3-3.2-0.1-4,0
		C797,465.2,793.2,465.4,789.4,465.6z"/>
	<path class="st2" d="M645.4,376.6c0.3-8.5,0.6-17.1,0.9-25.6c0.4-11,0.5-5.2,0.9-16.3c0-0.5-0.8-0.5-0.8,0
		c-0.6,16-1.2,29.2-1.7,41.9C644.9,376.6,645.1,376.6,645.4,376.6z"/>
	<path class="st2" d="M815.8,332.6c-0.4,11.1-0.6,9.9-1,21c-0.9,25-1.6,47.9-2.3,71.4v0.1c-0.4,13.4-0.7,27-1,41.2
		c0,0.1,0,0.2,0,0.4c0,0.5-0.8,0.5-0.8,0c0-0.1,0-0.2,0-0.4c0.2-10.9,0.3-17,0.7-28c0.1-4.6,0.2-9,0.4-13.3c0-0.3,0-0.6,0-0.9
		c1-32.1,2-57.2,3.3-91.6C815,332.1,815.8,332.1,815.8,332.6z"/>
	<path class="st2" d="M806.7,429.7c0,0-0.1,0-0.1,0v0h-0.3c-0.1,0-0.3-0.1-0.4-0.1v0.1c-62,0.5-129.7,1.1-139.1,1.2
		c-43.4,0.4-86.8,0.6-130.2,0.5c-18.6,0-37.3-0.1-55.9-0.3c-0.3,0-0.5,0-0.8,0c-1.7,0-3.3,0-5,0v0c-0.2,0-0.4,0-0.7,0
		c-0.1,3.1-0.2,6.1-0.3,9.5c-0.3,11.1-0.6,22.2-0.9,33.4c0,0.5,0.6,0.5,0.8,0.2c39.2,0.3,78.4,0.4,117.5,0.3
		c26.3-0.1,130.5-0.9,213.4-1.6c0,0,0,0,0,0c0.4,0,0.5,0,0.8,0c0-1.8,0.1-3.6,0.1-5.3c0-0.3,0-0.6,0-0.9c0.3-11.9,0.6-23.9,1-35.9
		c0,0,0,0,0,0c0,0,0-0.1,0-0.1C806.7,430.2,806.7,430,806.7,429.7z M805.4,443.8c-0.2,7.4-0.4,15.1-0.6,22.6c0,0.3,0,0.6,0,0.9
		c0,1.5-0.1,3-0.1,4.4c-62.4,0.5-131.5,1.1-141.1,1.2c-43.1,0.4-86.2,0.6-129.3,0.5c-20.2,0-40.3-0.1-60.5-0.3
		c0.3-13.8,0.7-27.5,1.1-41.3c1.6,0,3.2,0,4.9,0c0.3,0,0.5,0,0.8,0c37.8,0.3,75.5,0.4,113.3,0.2c26.2-0.1,129-0.9,212-1.6
		C805.7,434.9,805.6,439.2,805.4,443.8z"/>
	<path class="st2" d="M811.6,425.2c-0.1,4.3-0.2,8.7-0.4,13.3c-0.3,11-0.4,17.1-0.7,28c-1.6,0-3.3,0-4.9,0c0.3-11.9,0.6-23.9,1-35.9
		c0,0,0,0,0,0c0,0,0-0.1,0-0.1c0-0.2,0-0.5,0-0.7c0,0-0.1,0-0.1,0v0h-0.3c-0.1,0-0.3-0.1-0.4-0.1v0.1c-62,0.5-129.7,1.1-139.1,1.2
		c-43.4,0.4-86.8,0.6-130.2,0.5c-18.6,0-37.3-0.1-55.9-0.3c0-1.5,0.1-3.1,0.1-4.6c39.7,0.3,79.3,0.4,118.9,0.3
		C625.9,426.7,728.6,425.9,811.6,425.2z"/>
	<path class="st2" d="M561.7,358.6c-4.2,0-4,6.6,0.2,6.6C566.1,365.2,565.9,358.6,561.7,358.6z"/>
	<path class="st2" d="M733.2,349.9c-4.2,0-4,6.6,0.2,6.6C737.6,356.5,737.4,349.9,733.2,349.9z"/>
	<path class="st2" d="M643.5,398.5c-4.2,0-4,6.6,0.2,6.6C647.8,405.1,647.7,398.5,643.5,398.5z"/>
	<path class="st2" d="M644.2,445.4c-4.2,0-4,6.6,0.2,6.6C648.5,452,648.4,445.4,644.2,445.4z"/>
	<path class="st3" d="M644.1,374.7c-0.7-1.4-3.2-1.2-3.1,0.7c0,0.1,0,0.1,0,0.2c-0.5-0.2-1-0.4-1.9-0.4c-4.5-0.2-9.2,0.4-13.7,0.3
		c-9.1-0.1-18.3-0.7-27.4-1.9c-1.4-0.2-1.8,1.2-1.3,2.2c-5.5-0.7-11-1.5-16.5-1.9c-0.8-0.1-1.3,0.4-1.4,0.9
		c-9.3-2-18.7-2.4-28.1-2.4c-5.1,0-10.2,0.2-15.3,0.2c-4,0.1-8.2-0.3-11.9,1.4c-0.4,0.2-0.6,0.4-0.7,0.7c-1-0.2-2-0.3-3-0.5
		c-0.3-0.4-0.8-0.7-1.4-0.7c-1.8-0.2-3.4-0.1-5.1,0.2c-1.1,0.2-1.3,1.2-1,2c-8.1-0.3-16.2-0.7-24.3-1c0.2-1.8-2.4-2.5-3.1-0.9
		c-0.7-0.4-1.8-0.3-2.2,0.5c0.1-1.3,0.3-2.6,0.3-3.3c0.2-3,0.7-6,0.9-8.9c0.5-6.7,0.8-13.4,1.1-20.1c0.1-1.6-2.4-2.2-3.1-0.8
		c-0.1,0.2-0.2,0.5-0.4,0.7c-0.3,0.6-0.2,1.1,0.1,1.6c-0.4,7.1-0.6,14.3-1.3,21.4c-0.3,3.1-0.7,6.2-0.8,9.3
		c-0.1,2.2-0.6,5.5,0.8,7.5c0.8,1.1,2.6,1.1,3-0.4c0.2-1.1,0.6-2,1-2.9c0.1,0,0.1,0,0.2,0c0.4,0.1,0.8,0,1.1-0.2c0.2,0,0.4,0,0.6,0
		c31.4,1.1,63.4,3.6,94.6,0.6c0.8-0.1,1.3-0.6,1.5-1.3c9.3,0.8,18.5,2.5,27.9,3c10.2,0.5,20.4,0.4,30.5-0.2c0.2,0,0.5-0.1,0.6-0.2
		c0.8,0.5,1.9,0.5,2.4-0.4c0.1-0.1,0.1-0.2,0.2-0.4c0.2-0.2,0.3-0.5,0.4-0.8c0-0.1,0-0.2,0-0.4c0.2-0.6,0.3-1.3,0.3-2
		C644.9,375.4,644.6,375,644.1,374.7z"/>
	<path class="st2" d="M643,340C643,340,643,340,643,340c-34.3,0.2-68.7,0.3-103,0.2c-20.2,0-40.5-0.1-60.7-0.3c-0.1,0-0.2,0-0.3,0
		c-0.1,0-0.1,0-0.2,0c0,0.1,0,0.1,0,0.2c0,0,0,0.1,0,0.2c-0.6,16.1-1.2,30-1.7,42.8c0.1,0,0.2,0,0.3-0.1
		c39.6,0.3,79.9,0.4,119.5,0.3c8.2,0,23.9-0.1,44.2-0.3c0,0,0,0,0-0.1c0.2,0,0.4,0,0.6,0c0.3-8.7,0.6-17.4,0.9-26.1
		c0.4-11.2,0.5-5.3,0.9-16.6C643.3,340.1,643.2,340,643,340z M640.8,382.3c-33.8,0.2-67.6,0.3-101.4,0.2c-20.3,0-41.4-0.2-61.8-0.3
		c0.3-8.3,0.6-17.2,0.9-25.5c0.4-11,0.5-5.5,0.9-15.9c39.2,0.3,78.3,0.4,117.5,0.3c10.4,0,26.5-0.1,45.5-0.2
		C641.8,356.6,641.3,369.7,640.8,382.3z"/>
	<path class="st2" d="M646.6,334.3c0-0.2-0.2-0.3-0.4-0.3c-0.8,0-1.7,0.1-2.5,0.2c-0.6,0.1-1,0.1-1.6,0c-0.1,0-0.2-0.1-0.4-0.1
		c-0.2-0.1-0.5,0-0.5,0.2c0,0,0,0,0,0c-11,0-22,0-33,0c0,0-0.1,0-0.1,0c-2.4-0.6-5-0.4-7.4-0.2c-0.1,0-0.2,0.1-0.3,0.1
		c-0.1,0-0.3,0-0.4,0.2c0,0,0,0-0.1,0c-10.4,0-20.7,0-31.1,0c0,0-0.1,0-0.1,0c-2.2-0.6-4.7-0.4-6.9-0.2c-0.1,0-0.2,0.1-0.3,0.1
		c0,0,0,0-0.1,0c-0.1,0-0.1-0.1-0.2-0.1c-10.4,0-20.7,0-31.1,0c0,0-0.1,0-0.1,0c-2.2-0.6-4.7-0.4-6.9-0.2c0,0,0,0,0,0
		c-0.1-0.1-0.2-0.1-0.3-0.1c-10.4,0-20.7,0-31.1,0c0,0-0.1,0-0.1,0c-2.2-0.6-4.7-0.4-6.9-0.2c-0.1,0-0.2,0.1-0.3,0.1
		c-0.2,0-0.4,0.1-0.5,0.4c-0.1,1.7-0.5,3.8-0.1,5.5c0,0.1,0.2,0.2,0.3,0.3c1.3,0.4,2.9,0,4.2,0c1.6-0.1,3.2-0.2,4.8-0.3
		c0,0,0.1,0,0.1,0c5,0.1,9.9,0.1,14.9,0c4.7,0.2,9.5,0.4,14.2,0.4c0.1,0.1,0.1,0.2,0.2,0.2c1.3,0.4,2.9,0,4.2,0
		c1.6-0.1,3.2-0.2,4.8-0.3c0,0,0.1,0,0.1,0c5,0.1,9.9,0.1,14.9,0c4.8,0.2,9.7,0.5,14.5,0.4c0,0,0.1,0,0.1,0c0,0,0,0,0,0
		c1.3,0.4,2.9,0,4.2,0c1.6-0.1,3.2-0.2,4.8-0.3c0,0,0.1,0,0.1,0c5,0.1,9.9,0.1,14.9,0c4.8,0.2,9.7,0.5,14.5,0.4
		c0.2,0,0.3-0.1,0.3-0.2c1.3,0.4,3.1,0,4.5,0c1.7-0.1,3.4-0.2,5.2-0.3c0,0,0.1,0,0.1,0c5.3,0.1,10.6,0.1,15.9,0
		c5.2,0.2,10.3,0.5,15.5,0.4c0.2,0,0.3-0.1,0.4-0.3c0.5,0.1,1,0,1.5,0c-0.1,1.9-0.1,3.7,0,5.5c0,0.1,0,0.2,0,0.3
		c0,0.1-0.1,0.1-0.1,0.2c-0.1,1.1-0.1,2.1-0.2,3.2c0,0.4-0.1,0.9-0.1,1.3c0,0.2,0,0.5,0,0.7c-0.1,1-0.2,2.1-0.3,3.1
		c-0.1,0.9-0.5,2.4,0.1,3.2c-0.1,2-0.2,4-0.2,5.9c-0.2,2.1-0.4,4.2-0.4,6.3c0,0.2,0.1,0.3,0.2,0.3l-0.4,6c0,0,0,0.1,0,0.1
		c-0.1,1-0.2,2.1-0.2,3.1c0,0,0,0,0,0l0,0.2c0,0.1,0,0.1,0,0.2c0,0.3-0.1,0.5-0.2,0.8c0,0.2,0.1,0.4,0.2,0.5
		c-0.2,0.2-0.3,0.5-0.5,0.7c-0.3,0.4,0.3,1,0.6,0.6c1.5-2,2.8-4,4-6.2c0.2-0.3-0.1-0.6-0.4-0.6c0-3.8,0.4-7.5,0.4-11.3
		c0-0.1,0-0.2-0.1-0.3c0-0.7,0.1-1.4,0.1-2.1c0.1-2.2,0.2-4.5,0.1-6.8c0,0,0,0,0-0.1c0,0,0-0.1,0-0.1c0.1-1.3,0.2-2.5,0.1-3.8
		c0,0,0,0,0-0.1c0,0,0-0.1,0-0.1c0.2,0,0.3-0.2,0.3-0.4c0-0.4,0-0.7,0-1c0-0.1,0-0.1,0-0.2c0-0.3,0-0.6-0.1-0.9c0-0.5,0.1-1,0.1-1.5
		c0.1-0.5,0-0.9,0-1.4c0-1.2,0-2.4,0-3.6c0.1-1.7,0.1-3.3,0.2-5C646.6,336.3,646.8,335.3,646.6,334.3z"/>
	<polygon class="st5" points="811.5,464.2 811.4,468.2 813.4,467.9 	"/>
</g>
<path class="st6" d="M181.6,708.4c-3.6-0.6-5.6-1.3-6.5-1.7c-0.9-0.4-0.8-0.5-0.5-0.6c0.7-0.2,2.1-0.1-1.3-1.8
	c2.8,0.9,5.2,1.8,6.7,2.4c0.6,0,2.6,0.4,4.3,0.5c1.8,0.2,3.2,0.2,2.8-0.1c0.7,0.6,3.1,1.2,6.1,1.7c3,0.5,6.6,0.7,9.9,1
	c6.6,0.4,12,0.7,8.9,1.9c4,0.1,12.2-0.5,21.3-1.7c9.1-1.2,19.3-2.8,27.6-3.9l-4.4,1.2c17.7-0.4,15-3.4,25-5c-8.7,1.7,8,0,11.5,0.4
	c7.8-1.2,14.1-2.8,25.1-2.7c2.3,0.9,2.5,2.2,9.5,2.6c1.6-0.2,3.2-0.4,4.8-0.5c7,0.5,16.4,1,20.8,2.1l-1,0c7.8,1.5,8.3,0.3,2.2-0.7
	l7.6,0.5l0.2,0.3c10,0.9,19.6,1.2,35.5,3.8c-4.4,0.1,11.7,3.7-2.7,1.4c4.2,0.3-2.1-1.2-2.9-1.7c-5.1-1.1-10-1-12.3-1.3
	c1.6,0.8-0.1,1.6-3,1.8c5.2,0.2,15,1.8,23.8,3.3c8.9,1.4,16.8,2.4,18.3,1.5c6.4,1.1,13.9,2,21.6,2.8c7.8,0.6,15.8,1.3,23.2,2
	c-0.6-0.1-1.8-0.4-1.5-0.5l12.9,1.5l-3,0.1l8.5,1c0.9,0.4-2.5,0.6-6,0.6c-2,0-3.8-0.3-1.9-0.4c-9.2,0.4,7.6,0.6,1.6,1.2
	c-2.3-0.2-5.2-0.1-6.8-0.2c10.5,1,15.4-0.2,21.9,0.9c2.5-0.4,6.3-0.8,10.6-1c4.4-0.2,9.2-0.5,14-0.4c-3.6,0.7,10.3-0.5,5.6,0.7
	c3.6-0.6,12.1-0.5,13.5-1.2c-1.3,0.3-5.4,0.6-8.3,0.5c3.9-0.5,4.3-1.1,9-1.3c0.6,0.1,0.3,0.2,0.3,0.2c6.1-1,1.9-2.2,12.7-3
	c28.2-2.9-3.8,2.6,0.3,2.7c1-0.6,13.5-2,19.1-2.1l-1.3,0.4c2.9-0.5,7-1.3,10.1-1.1c1.7-1,4.9-2.1,6.8-2.9l12.6-1.5l-2.5,0.7
	c2.8-0.5,5.4-0.8,7.9-1.1c1.2,0.5-2.6,0.7-6.4,1.4c2.1,0.3,4.7,0,7.5-0.9l-1.6,0.1c3.2-0.7,14.9-2.9,5.5-2.1c7-1.4,9.3-0.4,14.1-1.2
	c0.6,0.5-3.8,1.1-1.4,1.2c4.7-0.4,7.8-0.7,11.6-1.3c-3.7,0.2,1-0.6-4.9-0.3c2.2-0.5,8.2-1.3,7.9-1.5c-1.9,0.3-3.2,0.7-6.6,0.7
	c6.3-0.9,12.8-1.7,19.4-1.9c-0.2,0.2-0.8,0.3-1.6,0.5c8.3-1.7,20.9-2.7,26.5-4.1l-2.5,0c-2,0.4-6.1,0.8-7.8,0.7
	c6.3-0.9-4.6-0.5,2-1.6c9.2-1.2,17.5-0.7,22.4-2.2c-8.8,0.6-20.7,0.7-24.2,1.7c1.9-0.2,3.8-0.3,5.7-0.5c-4.2,0.8-8.5,1.7-12.7,2.6
	c-0.6-0.5-11.3,1.4-11.2,0.5c4.4-0.6,8.5-1,11.9-1.4c-0.9-0.3-11.9,0.9-16.6,1.3l5.9-0.3c-10.4,1.8-23.8,3-33.9,4.6
	c7.9-1.5-10.3,0.5-3.9-0.9c2.5-0.7,6.9-0.5,5.6-0.6c0.7-0.8-6.2,0.5-8.4,0.2c-1,0.6-11.4,2-5.2,1.9c-3.4,0-10.7,1.6-15.4,1.5
	c1.5,0.8-8.5,1.4-10.2,2c-2,0.2-3.8,0.2-5.2,0.1c4.2-0.7,9.4-1.6,14.8-2.5c2.2-0.1,6.3-0.5,5-0.6l0-0.3c8.1-1.5,16.2-3,22-4.1
	c0.9-0.1,1.8-0.2,2.8-0.3l-0.5,0.2c0.3-0.1,0.6-0.1,0.9-0.2c19.2-4.4,40.8-4.4,60.4-6c19.1-1.5,38.1-1.7,57.1-2.6
	c7.5-0.3,20.5-0.8,27.4,2.1c-0.6,0.4-1.3,1-2,1.4c5.4-1.5,13.8-5.3,18.6-0.7c-0.4,0.7-0.8,1.6-1.2,2.4c2-4.2,13.5-6.1,17.4-6.3
	c6-0.2,12,0.3,18,0c4.1-0.2,14.4-2.3,17.2,0.4c-0.8,0.5-1.3,1.5-2.4,1.8c1,0.1,2.2,0.1,3.2,0c-0.9-0.2-1.6-0.8-2.5-1
	c4.9-3.7,15.8-5.2,21.5-5.7c-2-5.2,4.9-5.6,7.2-9.1c2.1-3.1,1.3-8.8,1-12.1c-0.2-2.2-0.1-2.5-1.1-4.5c-0.9-2-3.6-7.8-4.9-9.2
	c-3.9-4.2-11.3-5.4-16.4-7.2c-0.1-0.5-0.1-0.7-0.2-1.2c-2-0.2-3.9,0.5-5.5,0c3.7,4.2-9.8,1.6-11.6,0.8c0.6,0.6,1,1.5,1.6,2.1
	c-12.2-4.3-24.1-1.7-37-2c-9.3-0.2-21.3-6.3-30.4-4c2.5-0.7-2.6-1.2-8.5-1.8c-5.9-0.6-12.6-1.2-13.3-2c-4.1-0.4-10.5-0.7-11-0.2
	c2.3-0.1,7.8,0.9,7,1.2c-6-0.4-15.1-1.2-16-0.6l-7.3-1.4c-0.3,0.4-1.5,0.7-3.5,0.8c-1.6-0.1-3.2-0.3-4.8-0.4c-2.9-0.7-3-0.5-3.2-0.3
	c-1.8-0.2-3.5-0.3-5.3-0.5c2.1-0.2,3.8-0.4,4.6-0.7c-6.3-0.7-5.4-0.3-9.9-0.5c-1.4-0.6,4.5-0.9,9.3-0.8l-8-1.2
	c-7.9,0.2-21.5,0.4-34-1c2.1-0.4,6.2,0,3-1c-5.4-0.3-12.7,0.1-19.7-1.1c1,0,0.4-0.1,1.4-0.1c-12.6-0.4-9.4-1.1-20.6-2.3
	c0.2-0.1,0.2-0.2,0.6-0.2l-7-0.1c-14.6-0.2-16-2.6-24.5-4.2l1.9,0.1c-2.6-0.8-8.3-1.4-14-2.1s-11.2-1.3-13.6-1.8
	c6,1.4,1.9,0.8,6.2,2.4c5.4,0.5,4-0.8,12.9,0.7c-1.3,0.8-12.7-0.4-15.1,0c-5-0.6-8.2-2.6-8.6-3.2c-12.5-1.7-19.4-3.3-34.7-5.5
	c-5.6-0.3-10.2,0.9-22.7-2.4l0.8-0.2c-0.5,0.5-6.2-1.1-8.9-1.1c4.2,1.7-5.6-0.2-0.4,1.5c-7.5-1-8.5-2.5-9.1-3.4
	c-5.5,0.6-14.8-2.8-26.5-3.2c2.1-0.5,14.8,1,9.7-0.3c-5-0.1-10.1,0-15.1,0l6.6,0.6c-11.4,0-14.5-1.3-21.1-2.1
	c-0.6-0.2,0.1-0.3,1.5-0.4c1.3,0,3.2,0.1,4.9,0.2c-3.5-0.3-9.1-0.3-13.7-0.2c-3.5,0.3-15.5,1-20.2,2c-0.6,0-1.3,0-1.9,0
	c0.2-0.1,0.5-0.2,0.9-0.2c-1,0.1-1.8,0.1-2.5,0.3c-2,0.1-4,0.2-6,0.3l1.2-0.3c-0.8,0.1-1.6,0.2-2.3,0.4c-2.1,0.1-4.1,0.3-6.2,0.5
	l-3.1,0.8l1.6-0.2c-0.2,0.5-2.1,1.3-5,2c-3.5,0.6-7,1.3-10.5,2.1c-3.7,0.8-7.3,1.8-11,2.7c-4,0.8-8.4,2.1-12.4,3.2
	c-5,1.4-9.6,2.4-11.9,2.1c13.4-3.9,19.9-5.6,34.3-9.4c3.9-0.2,1.6,0.3-1.7,1.2c-3.3,0.9-7.5,2-7.7,2.4c2.7-0.6,5.5-1.2,8.2-1.8
	c-1.3-0.5,16-3.6,11.4-4.2c-4.6,0.8-9.3,1.5-13.8,2.5c-4.5,1-8.9,2.1-13.2,3.2c-8.6,2.2-16.8,4.2-24.5,5.2c4.5-3,8.6-6.3,12.7-9.8
	c0-0.1,0.2-0.3,0.8-0.7l-0.8,0.7c0.1,0.3,3-0.7,6.4-1.8c-0.6,0.5-1.3,1.1,2.8,0c8.5-1.7,12.8-4.4,19.3-5.6l-2,0.5
	c3.1-0.5,6.6-1.1,9.9-1.8c3.3-0.7,6.5-1.2,8.8-1.8c2.6,0.3-1.9,1-5.7,1.6c-3.9,0.6-7.1,1.4-2.2,1c-3.4,0.5-7.5,1.3-11.3,2.4
	c-3.8,1.1-7.3,2.2-9.7,2.9c4.1-1,8.2-1.5,11-1.7c2.8-0.1,4.1,0.1,3,0.7c9.1-2.2,9-2.8,8.6-3.4c-0.4-0.6-1.1-1.1,7.1-2.5
	c3.8-0.5,7.7-0.6,11.5-0.9c1.3-0.6,2.6-1.2,3.9-1.7c6.9-0.3-4.2,1.3,6.4,0.7c2.9-0.9,9.7-0.2,11.8-0.7c-0.3,0.3-0.4,0.6,5,0.8
	c0.4-0.2-0.1-0.7,4.1-0.6c2.9,1.5-10.9-0.1-6,1.3c12,0.4,7.8-0.9,9.6-1.4c-0.4,0-1.1-0.1-2.3-0.1c0.1-0.5,5.3,0.1,4.8-0.4
	c-2-0.2-4.1-0.1-5.9,0c3.7-0.3-6-1.2-9.7-1.1c-8.5,0.4-26.1,1-37.7,3.1c1-0.2,3-0.6,1.7-0.6c-2.1,0.3-4,0.6-5.8,0.8
	c-1.8,0.3-3.5,0.7-5.1,1c-3.3,0.6-6.3,1.2-9.3,1.9c-6,1.4-12,3.1-20.3,5.4l-1.7,1.4c-7.2,1.8-8.7,2.6-8.9,3.4
	c-0.2,0.8,1,1.3-0.8,1.8c-3.2,0.6-5.8,1.6-8.6,1.4c0.5-0.2,1-0.3,1.4-0.5c-4.4,0.6-5.1,0.8-5.6,1c-0.5,0.2-1,0.5-4.9,0.2
	c-3.1,0.1-1.8,0.3-0.1,0.4c1.7,0.1,3.6,0.2,1.6,0.4c-2.1-0.1-3.5-0.1-4.6-0.1c-1.1,0.1-1.9,0.2-2.9,0.2c-2,0.1-4.4,0.1-10.9-2.4
	c0.4,0,0.1-0.4,0.8-0.5c0.6-0.1,2.1,0.2,5.9,1.1c-2.3-0.8-4.7-1.8-7.1-2.9c4.5,1.3,5.3,1.4,6.2,1.6c0.9,0.2,1.7,0.6,6,1.2
	c2-0.2,2.9-0.6,3.6-0.9c0.7-0.3,1.4-0.7,3.2-1c-1.6,0.1-2.2,0.3-3.1,0.5c-0.8,0.1-1.9,0.3-4.2-0.1c-5.5-1.2,1-0.3,1.6-0.6
	c-3.7,0-5.7-0.7-7.6-1.6c-2-0.8-3.8-1.7-7.8-2.5c1,1.6-0.3,1.1,4.6,3.5c-2.6-0.6-5.6-1.8-8-2.8c-2.3-1.1-4-2-3.5-2.4l-1.6,0.5
	c-1.4-0.7-6.4-1.8-6.7-2.1l-2.3,0.1c4.4,1.5,8.3,2.7,15.5,4.8c-3.1-0.4,3.4,2.7-6-0.1c-4.2-1.2-0.3-0.7-0.5-1
	c-2.8-0.7-5.3-1.2-7.5-1.7c-2.2-0.3-4.2-0.8-5.9-1c-1.8-0.3-3.3-0.5-4.8-0.7c-1.4-0.2-2.8-0.4-4.1-0.5c-5.1-0.5-9.8-1-18.7,0.1
	c4.4-0.9,15.4-1.1,24.3-0.8c-5.3-1.3-11.5-0.3-16.6-0.2c4.5-0.6,5.3-0.9-0.1-1.1c-0.7,0.2-1.4,0.5-2.1,0.7c-3.2,0.2-8.8,0.9-9.3,0.7
	c-0.1,0.2,1.3,0.2,4.2,0.1c-3.9,0.8-9.4,1.8-15.6,3.1c-6.1,1.3-12.8,2.8-19.4,4.2c3.7-0.8,7.9-2.7,11.6-3.9
	c-14.4,1.7-28.2,0.2-42.5,5c-7.6,2.5-15.1,6.1-22.9,7.2c-10.3,1.5-33.8-1.4-36.8,17.5c-1,6.6,2.2,12.9,5.3,18.3
	c3.3,5.8,6.7,11.7,11.2,15.9c5.7,5.3,12.8,7.6,18.5,12.9c4.6,4.3,8,10.3,12.2,15.2C166.9,708.4,173.4,708.2,181.6,708.4z
	 M348.1,606.2l-5.6,1.3C344.6,606.9,346.7,606.3,348.1,606.2z M245.6,700.7c-1.4,0.3-3.4,0.6-5.1,1c-1.6,0.1-1.9,0-1.9-0.1
	C241,701.2,243.3,701,245.6,700.7z M151.3,665.3c-0.1-0.2-0.2-0.6-0.3-1.2C151.1,664.6,151.2,664.9,151.3,665.3z M319.8,696.3
	c-2.3,0.3-2,1.5-10.9,1.3c-0.1-0.1,0.6-0.2,1.5-0.3c-4.1,0.2-4.7,0-9.2,0c-1.4-0.8,5.4-0.9,8.3-1.6c-2.9,0.2-6,0.8-9.2,0.8l0.7-0.4
	c-3.1,0.3-6.3,0.5-9.5,0.9c-3.8,1,7.2-0.5,7.7,0l-6,1c-6.9,0.6-25.3,3-31.8,2.6c-8.1,0.6-4.4,1.2-6.4,2c-4.7,1.4-9.4,0.9-14.1,1.8
	c0.3,0.7-5.4,1.2-5.5,2.1l-7.9,0.6c-4.3,1.7,9.5-0.7,11.7-0.4c4.4,0.7-5.8,1-2.9,1.4c6.1-0.8,6.4-1.4,9.3-2c3.4-0.5,5.3-0.4,5.3,0
	c-9.7,0.7-5.1,1.6-13,2.3l-0.3-0.2c-0.1,0.9-11.5,1.5-15.8,2.2c-8.9-0.3,7-1.8,6.6-2.1c-3.5,0.4-7.1,0.8-10.6,1.1
	c4.6-0.9-0.1-1.1,6-2.1c-6.4,0.8-7.3,0-13.5,0.8c7-1.5-8.8-0.7-9.6-1.6c6.8-0.2,18.8,0.2,19.4,0.4c1-0.3,8.8-0.7,11.9-0.8l4.9-1.7
	c-5.6,0.6-13.3,1.8-11.3,0.6c-2.6,0.4-5.1,0.8-7.7,1.1c7.9-2.1,7.4-2,14.5-3.4c-14.8,0.2-26.3,3.4-38.6,1.9l1.9-0.1
	c-6.1,0-11.1-0.7-15-1.9c-3.9-1.2-6.6-2.8-8.5-4.4c-0.1-0.1-0.1-0.1-0.2-0.2c0.4,0.2,0.7,0.5,1.1,0.7c6.7,4,15.1,4.8,23.2,5
	c12.9,0.3,25.8-0.7,38.6-2l-1.6,0.7c0.3-0.1,0.5-0.1,0.9-0.2c14.8-2.1,1.5,1.2,16.6-1.2c-0.6,0.2-0.8,0.3-1.1,0.4
	c6.1-1.1,17.5-2.2,18.7-3.3c-1.5,0.2-7.1,0.6-9.9,0.6c6.4-0.8,12.9-1.6,19.3-2.3c1.4,0,2.7,0,4.2-0.1l0,0l0,0
	c1.5-0.1,3.1-0.3,5.2-0.7c0.5-0.1,0.9-0.2,1.1-0.3c7.7-0.7,15.4-1.2,23.2-1.3C311.1,695.1,328.8,695.3,319.8,696.3z M343.9,697
	c-9.1-0.9-2.7-0.5-9.2-1.5c-0.4-0.2-0.1-0.3,0.4-0.4c6.8,0.5,13.6,1.2,20.4,2.1C349.6,696.7,343.5,696,343.9,697z M371.4,700.4
	c-3.1-0.6-11.9-1.6-12.5-2.4c4.3,0.6,5.5,0.7,5,0.5c4.4,0.7,8.9,1.4,13.3,2.1c0.2,0.1,0.5,0.3,1.1,0.5
	C376.4,700.8,373.3,700.5,371.4,700.4z M485.5,717.3c-7.9-0.2,0.4-0.5-3.6-1c-6.1,1-7.7-1.3-14.1-0.2c-7.7-0.2-5.2-0.9-7.6-1.4
	c7.6,0.4-3.5-1.1,6.1-0.9c-3.9-0.4-5.3-0.3-6.6-0.1c-1.3,0.2-2.4,0.4-5.7-0.1l-0.9-1.1c-3-0.4-7.6-1-12.5-1.6
	c-4.9-0.7-10.1-1.3-14.1-1.6c6.6,1.6-4,0.1-3,0.9c1.3-0.7,10.5,1.2,10.3,1.6c-4.8-0.4-15.9-1.9-20.3-2.8l8.7,1.9
	c-3.7,0-16.6-1.2-17-1.1c-3.9-1.1-9.8-2-11.7-2.9l7.5,0.5l2.5,1.1l4.4-0.1c-4.7-1.1-14.6-3.4-16.6-4.5c7.5,1.3,17.7,3,30.1,4.2
	c7.1,1.1,14.1,2.1,21.2,2.9c17,1.9,33.9,2.6,50.9,2.5c-0.1,0-0.2,0-0.4,0.1c-2,0.4-4.3,0.6-7.1,0.7c1.6-0.1,3.4-0.1,6,0.2
	c-4.6,0.6-9.2,1.3-13.8,1.6c3.5,0.3,5.5,0,7.7-0.4c2.2-0.3,4.6-0.7,8.8-0.6C494.1,716,494.6,716.5,485.5,717.3z M722.6,692.5
	c5.9,0.3,11.9,0.6,17.8,0.8l-0.1,0l5.8,0.9c-2.2,0.1-4.4,0.2-6.7,0.4L722.6,692.5z M317.9,621.9c1.9,0,2.4,0.2,3,0.5
	c-1.5,0.2-3,0.3-4.5,0.4L317.9,621.9z M263.9,611.7c0.4-0.5,2.9-0.5,5.7-0.2c2.8,0.2,5.9,0.8,7.4,0.7c1.2,0.2,4.5,1.1,7,2
	c2.5,0.9,4.4,1.7,3.1,1.7c-3.4-1.3-5.3-1.4-7-1.6c-1.7-0.1-3.3-0.4-6.5-1.8c-1.3,0.4,0.5,1,3.1,1.8c-0.9-0.1-1.5-0.1-1.6,0
	c-1.3-0.3-2.6-0.7-3.9-1c-1.3-0.2-2.5-0.5-3.7-0.7C265.2,612.1,263.2,611.9,263.9,611.7z M254.2,611.2l-2.3,0.1
	c-8.6,0-14.1,1-17.1,1.5c-3,0.6-3.7,0.9-2.9,1.1c-2,0.3-4,0.6-6,1c3.5-1.2,6.9-2.2,8.8-2.7C241.9,611.2,249.7,610.8,254.2,611.2z
	 M209.7,617c-0.4,0.3,0.1,0.4,0.9,0.3c-2.2,0.6-4.5,1.2-6.7,1.8C204.8,618.5,203.1,618.4,209.7,617z M146.8,655.2
	c0.1-1.5,0.6-3.1,1-4.5c0.8-2.1,1.7-3.7,2-3.8c-0.2-0.8,1.1-4,3.7-7.2c2.8-3.5,7-6.6,9.2-8.4c5.8-3.7,8.2-4,10.2-4.6
	c2.1-0.5,3.8-1,9.4-3.2c-1.4,0.2-2.9,0.5-4.3,0.8c4.9-2,8.5-3.3,12.2-4.4c3.8-1.1,7.7-2.1,13.3-3.3c1.6,0.5-5.2,1.1-7.6,2.2l5.6-0.5
	c-2.4,0.6-6.9,2.6-7,1.8c0,0.4-3.5,2.1,3.4-0.1l-5.1,2c0.3,0,0.8,0,1.2-0.1c-1.5,0.5-3.1,1-4.7,1.5c-2.1,0.3-5.6,1.5-8.9,2
	c-0.4-0.2,2.9-1.4,4.7-2.2c-4.9,1.2-9,3.1-11.5,4.4c3.6-1.5,4.6-1.7,4.8-1.5c0.2,0.2-0.2,0.6,0.8,0.7c-2.1,1-5,2.2-7.6,3.5
	s-4.8,2.6-5.9,3.5c-1.4,0.8-2.8,1.6-3.9,2.3c-1.2,0.7-2.1,1.3-2.9,1.8c-1.4,0.8-2,0.8-0.6-0.9c-2.9,3-6.1,6.3-7.2,10.6
	c0.7-1.8,1.2-2.8,1.6-3.2c0.4-0.4,0.7-0.4,1-0.4c0.3,0,0.6-0.1,1.2-0.7c0.3-0.3,0.6-0.8,1-1.4c0.5-0.6,1.1-1.4,1.8-2.4
	c0.6-0.2,0.8-0.2,0.6,0.1c-2.7,2.6-4.9,5.6-6.3,8.9c-0.5,0.9-0.9,1.8-1.2,2.5c0.7-2.5-0.5-0.6-0.6-1.3c-0.3,0.9-0.4,1.7-0.5,2.3
	s-0.1,1.1-0.1,1.4c0,0.7,0.2,0.8,0.4,0.5c0.2-0.2,0.4-0.7,0.7-1.3c-0.1,0.6-0.3,1.1-0.4,1.7c-0.5,3.2-0.2,6.5,0.6,9.6
	c0.1,1.5,0.4,3.1,0.7,4.6c-0.9-2.2-1.7-4.6-2.2-7c-0.2,1.5,0.2,3.6,1,5.6c0.8,2,1.8,4,2.6,5.7c0.7,2-0.7-0.1-2.3-3.3
	c-1.6-3.2-3.1-7.9-3.8-10.3C146.8,658.2,146.7,656.8,146.8,655.2z"/>
<g>
	<g>
		<path class="st7" d="M830.1,123.9c-18.1-0.1-54.5-0.3-54.6-0.3c0,0.1,3.7,144.1,4.5,169.9c0.4,0,0.5,0,0.6,0l0,0
			c18.3,0.1,36.6,0.2,54.9,0.3c0,0,0,0,0,0c0.2,0,1.9,0.2,1.9-0.1c-1.1-26-4-143.7-4.9-169.7C832.6,123.8,830.1,124.1,830.1,123.9z"
			/>
		<path class="st8" d="M829.4,211.1c-1.9,0.2-3.3,1-4.7,2.2c-0.8,0.8-1.5,1.7-2.5,2.3c-2,1.1-4,0.6-6.2,0.3
			c-2.6-0.3-6.3-0.4-7.4,2.3c-0.9,2.2,0.8,3.8,3,3.7c1.9-0.1,3.6-1.2,5.3-1.8c1.8-0.7,3.3-0.9,5.3-0.3c1.1,0.3,2,0.9,3.1,1.1
			c2.2,0.4,4.3-0.1,6.3-0.5c1.2-0.2,2.4-0.4,3.5-0.6c-0.1-2.7-0.2-5.5-0.2-8.2C833.1,211.2,831.2,210.9,829.4,211.1z M805.3,207.2
			c-3.4-1.8-8-2.1-11.6-1.4c-3.2,0.6-5.9,2.6-9.4,1.8c-2-0.4-3.9-1.5-5.9-1.8c-0.2,0-0.5-0.1-0.8-0.1c0.1,3,0.2,5.9,0.2,8.9
			c1,0.1,1.9,0.3,2.6,0.4c2.2,0.4,4.4,0.9,6.5,0.6c2-0.3,3.6-1.5,5.4-2.3c2.7-1.3,5.6-2,8.7-2.1c1.5,0,4.1,0.8,5.4,0.1
			C808.7,210.1,806.9,208.1,805.3,207.2z M826,162.2c-4.2,0.2-7.6-1.9-11.7-3c-3.2-0.8-5.9-0.4-8.7,0.9c-3.7,1.7-7.8,5.3-12.5,3.6
			c-2-0.7-2.9-2.4-4.6-3.5c-1.3-0.9-2.7-1.3-4.1-1.5c-2.7-0.4-5.4,0-7.9,0.9c0.3,10.3,0.6,22.1,0.9,34.4c8.6-2.5,15.6-13.8,25.5-8.2
			c3.9,2.1,6.4,3.5,10.7,2.5c2.3-0.5,4.5-1.4,6.9-1.9c3.3-0.7,6.1-0.1,9.3,1.1c1.5,0.6,3.1,1.2,4.6,1.5c-0.3-9.9-0.5-19.6-0.8-28.3
			C831.2,161.4,828.7,162.1,826,162.2z"/>
		<path class="st4" d="M826.8,112c-2.2-4.1-4.2-8.3-6-12.6c-3.4-8.1-6.3-16.4-10.8-24.1c-1.2-2.1-3.4-6.2-6.5-5.5
			c-1.5,0.4-2.3,1.8-3.2,2.9c-1.2,1.6-2.4,3.2-3.6,4.8c-4.5,6.5-8,13.6-11.1,20.8c-3.6,8.3-6.7,16.8-10.3,25.1
			c-0.2,0.4,0.5,0.7,0.6,0.3c5.9-13.6,10.5-27.8,18-40.5c1.9-3.2,4-6.3,6.2-9.2c1.2-1.5,3-4.6,5.4-3.2c1.8,1,2.9,3.2,3.8,4.8
			c4.3,7.4,7.2,15.3,10.4,23.1c1.7,4.1,3.5,8.2,5.7,12.2c2.3,4.3,4.8,8.7,6,13.4c0.1,0.4,0.7,0.2,0.6-0.2
			C831,119.9,828.9,115.9,826.8,112z"/>
	</g>
	<path class="st9" d="M837.4,293.2c0,0.2-0.1,0.4-0.1,0.6c-0.4,0.1-1.5,0-1.7,0c0,0,0,0,0,0c-18.3-0.1-36.6-0.2-54.9-0.3
		c0,0,0,0,0,0c-0.2,0-0.3,0-0.6,0c-0.1-3.1-0.2-7.9-0.4-13.9c3.4-12.7,15-22,28.7-22c13.7,0,25.2,9.2,28.6,21.8
		C837.1,285.1,837.3,289.8,837.4,293.2z"/>
</g>
<g>
	<g>
		<path class="st7" d="M269.5,123.3c-18.5-0.1-55.9-0.3-56-0.3c0,0.1,3.8,147.7,4.6,174.2c0.4,0,0.5,0,0.6,0l0,0
			c18.8,0.1,37.5,0.2,56.3,0.3c0,0,0,0,0,0c0.2,0,1.9,0.2,1.9-0.1c-1.1-26.7-4.1-147.3-5-174C272,123.2,269.5,123.6,269.5,123.3z"/>
		<path class="st8" d="M268.7,212.8c-1.9,0.2-3.4,1-4.8,2.2c-0.9,0.8-1.5,1.7-2.6,2.3c-2,1.2-4.1,0.6-6.4,0.3
			c-2.6-0.4-6.4-0.4-7.6,2.4c-0.9,2.2,0.8,3.9,3.1,3.8c2-0.1,3.7-1.2,5.5-1.9c1.8-0.7,3.4-0.9,5.5-0.3c1.1,0.3,2,0.9,3.2,1.1
			c2.2,0.4,4.4-0.1,6.5-0.5c1.2-0.2,2.4-0.4,3.6-0.6c-0.1-2.8-0.1-5.6-0.2-8.5C272.6,212.8,270.6,212.6,268.7,212.8z M244.1,208.7
			c-3.5-1.9-8.2-2.1-11.9-1.4c-3.2,0.6-6.1,2.6-9.6,1.8c-2.1-0.5-4-1.5-6.1-1.9c-0.3,0-0.5-0.1-0.8-0.1c0.1,3,0.2,6.1,0.2,9.1
			c1,0.2,1.9,0.3,2.7,0.4c2.2,0.4,4.5,0.9,6.7,0.6c2.1-0.4,3.7-1.5,5.5-2.4c2.8-1.3,5.8-2.1,8.9-2.2c1.6-0.1,4.2,0.8,5.6,0.1
			C247.5,211.7,245.7,209.6,244.1,208.7z M265.3,162.6c-4.3,0.2-7.8-2-12-3c-3.2-0.8-6.1-0.4-8.9,1c-3.8,1.8-8,5.5-12.8,3.7
			c-2.1-0.8-3-2.4-4.7-3.6c-1.3-0.9-2.7-1.3-4.2-1.5c-2.8-0.4-5.6,0-8.1,0.9c0.3,10.6,0.6,22.7,0.9,35.3c8.8-2.5,16-14.1,26.2-8.4
			c3.9,2.2,6.6,3.6,11,2.6c2.4-0.5,4.7-1.5,7.1-2c3.4-0.7,6.2-0.1,9.5,1.2c1.6,0.6,3.2,1.2,4.7,1.6c-0.3-10.2-0.5-20.1-0.8-29
			C270.6,161.8,268,162.4,265.3,162.6z"/>
		<path class="st4" d="M266.1,111.1c-2.3-4.2-4.3-8.5-6.1-12.9c-3.5-8.3-6.5-16.8-11.1-24.7c-1.2-2.1-3.5-6.4-6.6-5.6
			c-1.5,0.4-2.4,1.8-3.3,2.9c-1.3,1.6-2.5,3.2-3.7,4.9c-4.6,6.7-8.2,13.9-11.4,21.4c-3.7,8.5-6.9,17.2-10.6,25.8
			c-0.2,0.4,0.5,0.7,0.6,0.3c6-13.9,10.8-28.5,18.5-41.6c1.9-3.3,4.1-6.5,6.4-9.5c1.2-1.6,3-4.7,5.6-3.3c1.8,1,2.9,3.2,3.9,4.9
			c4.4,7.6,7.4,15.7,10.7,23.7c1.8,4.2,3.6,8.4,5.8,12.5c2.4,4.5,4.9,8.9,6.1,13.7c0.1,0.4,0.8,0.2,0.6-0.2
			C270.4,119.2,268.3,115.2,266.1,111.1z"/>
	</g>
	<path class="st9" d="M277,296.9c0,0.2-0.1,0.4-0.1,0.6c-0.4,0.1-1.6,0-1.8,0c0,0,0,0,0,0c-18.8-0.1-37.5-0.2-56.3-0.3c0,0,0,0,0,0
		c-0.1,0-0.3,0-0.6,0c-0.1-3.2-0.2-8.1-0.4-14.2c3.5-13,15.3-22.6,29.4-22.6c14,0,25.8,9.4,29.3,22.3
		C276.6,288.6,276.8,293.4,277,296.9z"/>
</g>
<g>
	
		<ellipse transform="matrix(0.6927 -0.7212 0.7212 0.6927 -234.9481 768.8038)" class="st10" cx="784.7" cy="660.1" rx="22.8" ry="17.2"/>
	<path class="st11" d="M799.4,670.2c0.4-0.4,0.8-0.8,1.2-1.2c1.2-6.7,0.6-14.7-4.2-19.9c-4.8-5.1-12.7-6.2-19.3-5.2
		c-0.4,0.4-0.8,0.8-1.3,1.2c-9,8.8-11,21.6-4.5,28.6C777.9,680.6,790.5,679.1,799.4,670.2z"/>
	<path class="st12" d="M796.6,672.7c0.4-0.4,0.8-0.8,1.2-1.2c1.2-6.7-0.5-13.8-5.3-18.9c-4.8-5.1-11.6-7.2-18.3-6.2
		c-0.4,0.4-0.8,0.8-1.3,1.2c-9,8.8-11,21.6-4.5,28.6C775,683,787.6,681.5,796.6,672.7z"/>
	<ellipse class="st12" cx="760.2" cy="679.1" rx="13.9" ry="14.2"/>
	<path class="st12" d="M738,689c-1.1-1.7-0.7-4,0.9-5.1l5-3.5c1.6-1.2,3.9-0.7,5,0.9c1.1,1.7,0.7,4-0.9,5.1l-5,3.5
		C741.4,691.1,739.2,690.7,738,689z"/>
	<path class="st12" d="M742.2,695.2c-1.1-1.7-0.7-4,0.9-5.1l5-3.5c1.6-1.2,3.9-0.7,5,0.9c1.1,1.7,0.7,4-0.9,5.1l-5,3.5
		C745.6,697.3,743.3,696.9,742.2,695.2z"/>
	<polygon class="st12" points="767,666.9 761.5,665.8 763.6,655.7 769,656.9 	"/>
	<polygon class="st12" points="769,656.9 763.6,655.7 765.8,644.8 771,646.9 	"/>
	<polygon class="st12" points="760.2,665.5 754.8,666.9 752.3,657 757.7,655.6 	"/>
	<polygon class="st11" points="757.7,655.6 752.3,657 749.6,646.2 755.2,645.7 	"/>
	<polygon class="st12" points="754.8,668.2 749.9,670.6 745.5,661.4 750.5,659 	"/>
	<polygon class="st11" points="750.5,659 745.5,661.4 740.7,651.3 746.1,649.8 	"/>
	<polygon class="st11" points="771,646.9 765.8,644.8 771.8,635.2 776.4,638.2 	"/>
	<path class="st10" d="M792.8,616.8c-0.3,0-0.6,0.1-0.8,0.3l-14.8,9.5l-5.4,8.6l4.7,3l5.3-8.6l12.1-9.8
		C795.1,618.8,794.3,616.8,792.8,616.8z"/>
	<path class="st10" d="M746.1,649.8l-5.2-6.7l0,0l-15.2-8.7c-0.3-0.2-0.5-0.2-0.8-0.2c-1.6,0-2.2,2.1-0.9,3.1l12.4,9.1l4.7,6.1
		L746.1,649.8z"/>
	<polygon class="st12" points="749.6,669.6 750.5,675.1 740.6,676.8 739.7,671.2 	"/>
	<polygon class="st11" points="739.7,671.2 740.6,676.8 729.8,678.5 729.8,672.8 	"/>
	<path class="st10" d="M729.9,672.8l-7.8,3.2l-12.5,12.3c-0.2,0.2-0.4,0.5-0.5,0.8c-0.4,1.6,1.3,2.8,2.6,1.8l12.3-9.7l6.8-2.9
		L729.9,672.8z"/>
	<polygon class="st12" points="767.8,690.4 763,687.6 758,696.5 762.8,699.3 	"/>
	<polygon class="st11" points="762.8,699.3 758,696.5 752.5,706.2 757.8,708.2 	"/>
	<path class="st10" d="M757.8,708.1l-4.7-2.9l-5.1,5.6l-13.2,8.2c-1.4,0.8-0.9,3,0.7,3.1c0.3,0,0.6,0,0.9-0.2l15.8-7.6l0,0
		L757.8,708.1z"/>
	<path class="st10" d="M753,637.7l-11.9-13.1c-0.2-0.2-0.5-0.4-0.8-0.5c-1.5-0.5-2.7,1.3-1.8,2.6l9,12.3l2.2,7.2l5.6-0.6L753,637.7z
		"/>
	<polygon class="st12" points="774.4,674.4 773.9,680 783.9,680.9 784.4,675.3 	"/>
	<polygon class="st12" points="784.4,675.3 783.9,680.9 794.8,681.9 794.4,676.2 	"/>
	<polygon class="st12" points="773.5,680.5 771.7,686 780.1,691.5 783.1,686.8 	"/>
	<polygon class="st11" points="783.1,686.8 780.1,691.5 789.3,697.6 791.5,692.4 	"/>
	<polygon class="st12" points="770.5,685.6 766.7,689.6 773.8,696.8 777.7,692.7 	"/>
	<polygon class="st11" points="777.7,692.7 773.8,696.8 781.7,704.6 784.9,699.9 	"/>
	<polygon class="st11" points="794.4,676.2 794.8,681.9 805.5,678.8 804,673.4 	"/>
	<path class="st10" d="M826.3,661.6l-12.6,9l-9.6,2.8l1.5,5.4l9.6-2.8l13.2-11.8c0.2-0.2,0.4-0.5,0.5-0.8
		C829.3,662,827.6,660.7,826.3,661.6z"/>
	<path class="st10" d="M792.7,724.5l-3.2-17.5l0,0l-4.6-7.2l-3.9,4l3.9,6.4l4.6,15.2c0.5,1.5,2.6,1.6,3.1,0.1
		C792.7,725.2,792.7,724.8,792.7,724.5z"/>
	<path class="st10" d="M806.8,713.7c0-0.3-0.1-0.6-0.2-0.9l-8.3-15.4l-6.8-5l-2.3,5.2l6,4.4l8.7,12.6
		C804.7,715.9,806.8,715.3,806.8,713.7z"/>
</g>
<g>
	<path class="st6" d="M663.2,240.4H354.3c-1.1,0-2.1-0.9-2.1-2.1l0,0c0-1.1,0.9-2.1,2.1-2.1h308.9c1.2,0,2.1,0.9,2.1,2.1l0,0
		C665.3,239.5,664.4,240.4,663.2,240.4z"/>
	<g>
		<rect x="371.6" y="68.6" class="st13" width="277.1" height="171.4"/>
		<polygon class="st14" points="313,230 313.3,230 313.3,189.5 332.6,189.5 332.6,161.2 358.6,161.2 358.6,178.9 374.4,178.9 
			374.4,185.3 383.7,185.3 383.7,179.2 394.7,179.2 394.7,166.3 403.4,155.4 418.5,155.4 425.6,167 425.6,207.5 446.8,207.5 
			446.8,179.2 484.1,179.2 484.1,186.9 494.4,186.9 494.4,179.8 521.7,179.8 521.7,185.9 534.3,185.9 534.3,178.9 537.5,178.9 
			537.5,148.6 543.3,148.6 543.3,144.4 548.4,139.9 560.7,139.9 564.8,144.4 564.8,148.3 569.7,148.3 569.7,179.2 572.5,179.2 
			572.5,194 580,194 580,164.7 603.8,164.7 603.8,182.4 607.9,182.4 607.9,168.2 612.1,168.2 612.1,158.3 622.4,158.3 622.4,167.9 
			628.5,167.9 628.5,175.6 638.2,175.6 638.2,181.4 663.6,181.4 663.6,162.8 670.7,162.8 670.7,235.6 312.9,235.6 		"/>
		<rect x="466.5" y="66.2" class="st6" width="5.4" height="173.8"/>
		<g>
			<path class="st6" d="M652,240H369.7V66.2H652L652,240L652,240z M374.7,235.5h272.2V70.7H374.7V235.5z"/>
		</g>
	</g>
</g>
<path class="st15" d="M595.5,77.2c0,0,13.9-18.2,39.8-4.1c17.9,9.8,20.7,21.3,22.8,39.7s-10.8,35.8-7.6,41.5c3.2,5.7,6.9,8,6.9,8
	s-5.4,2.7-11.4,0.7c0.2,2.5,0.6,3.2,6,5c-3.4,1.7-14.9,9.3-24.3-0.6c-9.4-9.9-23.2-3.9-23.2-3.9s-7.6,9.2-17.3,8.5
	c2.8-3.1,0.7-5.7,1.5-4.6c0.8,1.1-14.4,1.9-16.8-2.4c1.1-0.6,6.4,1.2,6.4-11.7s-12.7-15.8-7.7-52C572.5,86.9,583.5,76.5,595.5,77.2z
	"/>
<g>
	<path class="st16" d="M543,204c-7.8,23.9-22.9,61.4-27.6,78.5c-1.1,11.7,8.8,14.2,15.7,14.7c3.7,0.2,7.2-1.7,9-4.9
		c13-23.1,35.9-81.3,35.9-81.3l-8.3-23.6C556.1,183.7,546.8,192.5,543,204z"/>
	<path class="st16" d="M660,194.5c0,0,8.3,38.7,17.1,70.6c2.7,9.7,6.8,18.4,9.1,26.6c8.7,10.6,19.7-8,19.7-8
		c-1.3-19.4-11.2-58.4-18.3-81.4c-3.6-11.6-18.5-18.8-29.2-13.2L660,194.5z"/>
	<path class="st5" d="M615.3,187.5L615.3,187.5c-8.5,0-15.3-6.9-15.3-15.3v-35h30.6v35C630.6,180.6,623.8,187.5,615.3,187.5z"/>
	<path class="st17" d="M630.6,148.9c-5.3-1.3-11.8-0.9-14.9-0.7c-5.3,0.3-10.6,1.1-15.4,3.6c-0.1,0-0.2,0.1-0.2,0.1v13
		c5.9,5.3,12.4,8.9,20.7,6.8c2.4-0.6,6.3-2.2,9.9-4.4L630.6,148.9L630.6,148.9z"/>
	<path class="st5" d="M646.7,129.6c1-7.5,1.5-15.7,0.4-23.3c-1.1-7.2-4.2-15.4-10.4-17.9c-7.6-3-15.1-6.2-24.8-5.6
		c-5.6,1.7-12.3,0.8-17.1,5.5c-2-0.7-7.7,14.9-7.8,17.8c-0.7,14.5-3.1,31.5,5,44.5c3.6,5.8,9,10.6,14.3,13.4
		c6,3.3,10.1,3.4,16.6,1.2c7.1-2.4,11.9-7.9,16.6-13.5C644.5,145.9,645.7,136.9,646.7,129.6z"/>
	<path class="st5" d="M583,138.6c1.7,2.3,7.7,7,9.7,3.1c1-2-0.8-4.1-1.8-5.7c-0.3-0.5-0.6-0.9-0.9-1.4c0.9,1.5,3.2-0.1,2.3-1.6
		c-1.4-2.5-5.4-10.4-9.3-7.1C579.8,128.7,579.2,133.4,583,138.6z"/>
	<path class="st15" d="M612.6,111c-4.9-2.9-13,1.6-15.9,6.1c-0.1,0.1-0.2,0.2-0.3,0.4c-0.2,0.4-0.4,0.9-0.5,1.3
		c-0.1,0.4,0,0.7,0.3,0.9c0.2,0.3,0.7,0.5,1.3,0.2c2.1-1,3.8-2.3,5.9-3.4c2.8-1.5,5.3-1.6,8.3-2.3
		C614.1,113.7,614.5,112.1,612.6,111z"/>
	<path class="st15" d="M628.1,116.4c3,0.3,5.6,0.1,8.5,1.2c2.2,0.8,4,2,6.2,2.7c0.6,0.2,1,0,1.2-0.4c0.3-0.2,0.4-0.5,0.2-0.9
		c-0.2-0.4-0.4-0.8-0.7-1.2c-0.1-0.2-0.2-0.3-0.3-0.4c-3.4-4.2-12.1-7.6-16.5-4.1C625,114.6,625.7,116.1,628.1,116.4z"/>
	<path class="st5" d="M648.2,123.8c-4.1-3.1-7.6,5-8.9,7.6c-0.8,1.6,1.6,3,2.4,1.5c-0.3,0.5-0.5,0.9-0.8,1.4
		c-0.9,1.6-2.7,3.9-1.5,5.8c2.2,3.7,8-1.3,9.5-3.7C652.3,131.1,651.5,126.4,648.2,123.8z"/>
	<g>
		<path class="st5" d="M594.8,604.2c0,0-15.7,36.9-22.3,38.3c-6.6,1.4-20.9,7.9-14.5,11.1c6.4,3.2,22.1,2.5,29.2-0.3
			c7.1-2.8,10.9-15.3,17-18.3c5.7-2.8,11.3-2.5,11.6-7.6c0.2-5.1-4.7-19.5-4.7-19.5S603.7,594.5,594.8,604.2z"/>
	</g>
	<g>
		<g>
			<path class="st18" d="M561.2,646.3c-0.1,1,0.3,2.1,0.9,2.9c1.9,2.5,3.7,2.7,4.5,6.1c0,0,11.5,1.2,17.3-1.1s11.5-9.5,14-13.5
				c2.2-3.5-9.1-8.3-11-9.3c-2.5-1.3-5.4-2.7-8.1-1.6c-2.5,1-3.6,3.9-5.2,6.2c-2.2,3.3-5.7,5.7-9.3,7.3c-1,0.5-2.2,1-2.8,1.9
				C561.3,645.5,561.2,645.9,561.2,646.3z"/>
		</g>
	</g>
	<g>
		<g>
			<path class="st18" d="M555,653.5c-0.2,0.1-0.5,0.3-0.7,0.5c-1.8,1.5-1.9,4.2-1.5,6.5c0.3,1.5,0.9,3.1,2.2,3.9
				c1,0.6,2.3,0.7,3.5,0.6c1.2-0.1,2.3-0.2,3.5-0.5c1-0.2,2-0.4,2.9-0.5c6.2-0.5,12.3,2.3,18.5,1c4.8-1,8.7-4.3,11.4-8.2
				c1.6-2.4,2.8-8.5,5.6-9.7c0.9,2-0.1,5-0.5,7.1c-0.4,2.1-0.5,4.4,0.8,6.2c1.5,2.2,4.5,2.7,7.1,3.1c3.1,0.4,6.7,0.7,8.9-1.6
				c2-2.1,1.8-5.4,1.5-8.2c-0.5-4.8-1.1-9.5-1.6-14.2c-0.3-3.1,0.2-6.1,0-9.2c0,0-10,1-16.1,6.1c-5.5,4.5-8.1,12.6-14.3,16.3
				c-1.7,1-2.6,0.7-4.5,0.7c-3.1,0-6.2,0.4-9.3,0.5c-5,0.2-9.4-0.5-14.2-0.8C557.1,652.8,556,653,555,653.5z"/>
		</g>
	</g>
	<g>
		<path class="st5" d="M607.4,492.8c0.5,0.6,2.5,114.5,1.8,116.7c-0.7,2.2-10.3,5.5-11.7,0.1c-0.6-2.2-25.4-75.4-23-112.6
			C574.9,490.3,589.7,470.4,607.4,492.8z"/>
	</g>
	<g>
		<path class="st19" d="M580.7,332.3c0,0-11,152.5-11.3,158.6c-0.4,6,17.3,24.5,30.2,9.6c1.8-2.1,15.5-69.9,16.5-75.9
			c1.1-6,15-56.1,14.5-60.7C629.2,348.7,590.5,311.3,580.7,332.3z"/>
	</g>
	<g>
		<path class="st19" d="M677,354.7c0,0-2.4,158.5-2.5,164.8c-0.1,6.3-22.2,24-35.9,7.5c-1.9-2.3-11.8-73.4-12.5-79.7
			c-0.7-6.3-11.4-71.6-10.2-76.2C617.2,366.4,667.4,332.2,677,354.7z"/>
	</g>
	<g>
		<path class="st19" d="M583.2,294.6c0,0-18.3,49.2-20.2,60.1c-8.4,49.2,7.9,51.2,56.5,47c38.9-3.3,66.6,8.9,51.9-50.3
			c-2.9-11.5-18.9-60-18.9-60S610.3,267.3,583.2,294.6z"/>
	</g>
	<g>
		<path class="st5" d="M600.8,168.8l-42.6,23.7c0,0,24,96.4,24.9,102.2s40.6,25.3,69.2-3.1l18.5-99.3c0,0-40.1-21.8-41.5-23.5
			C629.3,168.8,623.1,179.9,600.8,168.8z"/>
	</g>
	<g>
		<path class="st20" d="M568.1,337.8c0,0,98.3,0.1,99.4,0.6c1.2,0.5,4.8,17.1,4.8,17.1s-42.6,15.3-48.9,46.3l-6.2,0.2
			c0,0-12.6-38.8-55.1-40.2C562.2,361.9,562.3,348.4,568.1,337.8z"/>
	</g>
	<g>
		<g>
			<path class="st20" d="M569.8,185.4l-3,1.8c0,0,8.8,33,9.4,34.3c0.6,1.2-7.1,14.9-7.3,16.1c-1.1,7,5.2,19.8,5.6,20.9
				c0.4,1,29.6-0.4,31.5-1.4c0.1,0,1.1-1.6,1.1-1.7c0-1.7-5.7-12.6-12.2-20.4c-7-8.3-15.1-13.5-15.5-14.2
				C578.7,219.3,569.8,185.4,569.8,185.4z"/>
		</g>
	</g>
	<g>
		<g>
			<path class="st20" d="M652.5,219.7c0.6-1.2,9.2-32.9,9.2-32.9l-2.9-1.8c0,0-8,31.9-8.9,33.3c-0.4,0.8-15.3,9.7-26.8,19.2
				c-9.4,7.8-15.9,16.2-15.9,17.9c0,0.1-1.2,1.7-1.1,1.7c1.9,1,52,2.4,52.5,1.4c0.4-1,3.6-17.9,3.6-19.1
				C662.1,238.2,651.8,220.9,652.5,219.7z"/>
		</g>
	</g>
	<g>
		<path class="st15" d="M588.5,601c0.2,0.6,0.4,1.1,0.6,1.7c0.3,0.9,0.7,1.9,1.5,2.5c1.6,1.3,3.8,0.6,5.8,0.3
			c5.5-0.9,11.9,1.6,16.3-1.9c2.1-1.7,3.2-4.5,3.4-7.2c0.2-2.7-0.3-5.4-0.7-8.1c-2.5-18.2-0.8-37-1.7-55.4
			c-1.1-23.3-1.3-35.3-3.4-58.5c-0.3-3-1.8-17.2-3-19.9c-2.9-6.5-10.8-9.9-17.9-8.8c-11.8,1.8-20.6,8-22.7,20.5
			c-1.5,8.6,0.5,17.4,2.2,25.9c3.7,18.8,6.3,37.7,8.8,56.7c1.2,9.4,3.2,18.8,5.3,28C584.8,584.7,586,593.2,588.5,601z"/>
	</g>
	<g>
		<path class="st15" d="M614.1,325.6c16.4,8.7,16.2,30.6,17.4,46.3c2,26.2-11.5,70.8-17.6,96.4c-3.5,14.7,0.4,70.7-22,68.5
			c-15.8-1.6-21.4-29-25.8-60.9c-0.1-0.9-0.1-1.7,0-2.5c2.6-24.7,2.9-51.3,3.2-76.1c0.2-19,1-40.9,6.1-59.3
			C581.8,314.8,600.6,318.5,614.1,325.6z"/>
	</g>
	<g>
		<path class="st15" d="M635.2,337c-25.2,10-23.1,42.4-20.9,63.1c0.8,7.7,1.6,15.3,2.9,22.9c2.8,15.6,7.8,30.9,9,46.6
			c1.3,16.8,2.2,46.7,26.8,46.6c8.8,0,18.3-1.8,21.9-9.9c5-11.5,3.5-25.3,2.8-37.4c-1.2-22.1-1.1-44.4,0.4-66.5
			c1.2-17.2,3.5-35.1,0.8-52.3C674.8,323.8,650.2,331,635.2,337z"/>
	</g>
	<g>
		<path class="st15" d="M573.3,309.4l86.5-0.5c0,0,15.8,34.5,19.7,71.1c3.1,29.5-59.5,34.1-59.5,34.1s-61.4-3.3-62.2-25.5
			C556.1,343.6,573.3,309.4,573.3,309.4z"/>
	</g>
	<g>
		<path class="st21" d="M621.7,323.6c0-1.4-1.4-2.6-3.2-2.6s-3.2,1.2-3.2,2.6c0,1.4,1.4,2.6,3.2,2.6
			C620.3,326.2,621.7,325,621.7,323.6z"/>
	</g>
	<g>
		<g>
			<polygon class="st22" points="567.5,345.7 571.3,348.1 589,323.3 585.2,321 			"/>
		</g>
	</g>
	<g>
		<g>
			<polygon class="st22" points="649.5,321 645.8,323.3 663.5,348.1 667.2,345.7 			"/>
		</g>
	</g>
	<g>
		<g>
			<path class="st23" d="M656.5,183.5c-0.2,0-0.4,0-0.7,0.1c-8,1.1-15.9,2.5-23.7,4.4c-4.2,1-8.5,2.2-12.8,2.7
				c-13.5,1.6-26.9-3-39.6-7.8c-0.9-0.3-1.8-0.7-2.7-0.6c-2.5,0.1-2.1,2.6-2.5,4.4c-0.3,1.6-0.6,3.2-0.8,4.8
				c-1.7,10.4-2.8,20.8-4,31.3c-0.6,6-1.3,12-1.8,18.1c5,13.7,12.6,48.5,12.6,48.5l-12.6,33.9c32.9,18.1,85,10.2,97.7,1l-12-36.5
				c0,0,3.6-25.7,8-34.5c0.2-0.5,0.5-1,0.7-1.4c4.6-10.8,3.8-24,2.6-35.4c-0.7-6.1-1.6-12.1-2.9-18.1c-0.5-2.5-1.1-5-1.8-7.4
				c-0.3-1.1-0.7-2.2-1-3.4c-0.4-1.2-0.2-3.1-1.6-3.7C657.2,183.5,656.8,183.5,656.5,183.5z"/>
		</g>
	</g>
	<path class="st24" d="M555.6,188c-0.3,27.7-0.6,55.4-0.9,83.1c-0.2,15.5,0.8,31.1-0.3,46.5c-1.2,17-4.9,34-3.3,51.1
		c0.8,9,3.2,18,3.1,27c-0.1,9.4-2.8,18.5-3,27.9c-0.3,12,5.2,21.2,14.5,28.4c8.4,6.5,18,11.5,28.1,14.8c1.1,0.4,2.3,0.7,3.3,0.1
		c1.3-0.7,1.4-2.5,1.3-4c-1.4-35-2.8-70.1-4.2-105.1c-0.3-7.8-0.6-15.7,0.4-23.5c0.9-7.2,2.9-14.2,3.5-21.4
		c0.6-7.7-0.5-15.5-1.7-23.1c-3.9-27-7.1-52.6-6.8-79.9c0.1-5.4,0.1-10.8,1.1-16.1c1-5.5,2.9-11.2,1.4-16.6c-0.3-1.2-0.9-2.5-2-3.3
		c-1.9-1.4-4.6-0.8-6.8,0.1C580.7,175.1,555.6,187.1,555.6,188z"/>
	<path class="st24" d="M674.4,188.4c1,0.5,0.6,11.8,0.6,12.8c0.6,11.7,1.2,23.5,1.7,35.2c1.6,32.7,3.1,65.2,5.2,97.8
		c0.4,6.4,0.8,12.8,1.2,19.2c0,11.6,1.3,23.4,2,35.1c0.3,6,0.7,12.1,1,18.1c0.5,8.8,3.6,22-2.9,29.5c-1,1.1-2.2,2-3.3,2.9
		c-3.7,3-6.9,6.7-9.2,10.9c-0.9,1.7-1.7,3.4-3.1,4.8c-4.2,4.2-11.3,2.6-16.7,5c-7.1,3.2-15.3,9.5-16-3.2c-1.9-33.3,2.5-66.5,2-99.9
		c-0.2-14.1,1.9-28.4,2.1-42.7c0.2-16.5,0.3-33,0.3-49.5c0-7.4,0-14.7-0.5-22.1c-0.4-5.5-1-10.9-0.9-16.4c0.1-5.8,1.1-11.5,1.8-17.3
		c1-8.3,1.4-16.7,0.7-25c-0.2-3.3-0.7-7.5,1.8-10C652.1,179.3,664,183.3,674.4,188.4z"/>
	<g>
		<g>
			<path class="st25" d="M643.4,458.5c2.9-4.3,7.7-3.8,11.9-5.4c2.1-0.8,4-2.1,5.7-3.6c4.5-4,7.5-9.2,12.2-13
				c0.4-0.3-0.2-0.8-0.5-0.5c-5.4,4.2-8.6,10.7-14.2,14.6c-5,3.4-12.1,2.2-15.7,7.5C642.5,458.6,643.1,458.9,643.4,458.5
				L643.4,458.5z"/>
		</g>
	</g>
	<g>
		<g>
			<path class="st25" d="M665.1,439.9c3.3-3.8,7.8-6.3,11.1-10.1c3.1-3.6,3.6-7.5,3.6-12.1c0-0.5-0.7-0.5-0.7,0
				c-0.1,6-1.6,10.2-6,14.2c-2.8,2.5-5.9,4.7-8.4,7.5C664.3,439.8,664.8,440.3,665.1,439.9L665.1,439.9z"/>
		</g>
	</g>
	<g>
		<g>
			<path class="st25" d="M570.7,394.4c-1.6,10.4-4.7,21.6-3.5,32.2c0,0.5,0.8,0.5,0.7,0c-1.2-10.5,1.8-21.6,3.5-32
				C571.5,394.1,570.8,393.9,570.7,394.4L570.7,394.4z"/>
		</g>
	</g>
	<g>
		<g>
			<path class="st25" d="M573,446.2c0.8,2.8,2.4,5.1,5,6.5c1.6,0.9,3.4,1.4,5,2.3c2.3,1.3,4.4,3,6.5,4.6c0.4,0.3,0.9-0.2,0.5-0.5
				c-2.6-2-5.2-4.1-8.2-5.5c-3.8-1.8-6.9-3-8.1-7.5C573.6,445.6,572.9,445.8,573,446.2L573,446.2z"/>
		</g>
	</g>
	<g>
		<g>
			<path class="st25" d="M593.4,461.2c0,0.1,0,0.2,0,0.3c0,0.5,0.7,0.5,0.7,0c0-0.1,0-0.2,0-0.3
				C594.2,460.8,593.4,460.8,593.4,461.2L593.4,461.2z"/>
		</g>
	</g>
	<g>
		<g>
			<path class="st25" d="M561.9,315.6c3.6,0.9,7.3,1.1,11,0.6c0.5-0.1,0.5-0.8,0-0.7c-3.6,0.5-7.2,0.3-10.8-0.6
				C561.6,314.7,561.4,315.5,561.9,315.6L561.9,315.6z"/>
		</g>
	</g>
	<g>
		<g>
			<path class="st25" d="M561.3,320.6c3,0.4,6,0.3,9-0.5c0.5-0.1,0.3-0.8-0.2-0.7c-2.8,0.8-5.7,0.9-8.6,0.5
				C561,319.8,560.8,320.5,561.3,320.6L561.3,320.6z"/>
		</g>
	</g>
	<g>
		<g>
			<path class="st25" d="M675.4,304c-3.3,8.7-13.9,13.1-21.9,16.5c-0.4,0.2-0.1,0.8,0.4,0.6c8.2-3.6,18.8-8,22.2-17
				C676.3,303.7,675.6,303.5,675.4,304L675.4,304z"/>
		</g>
	</g>
	<g>
		<g>
			<path class="st25" d="M669.9,316c-4.2,2.3-8.5,4.1-13,5.4c-0.5,0.1-0.3,0.9,0.2,0.7c4.6-1.4,9-3.2,13.2-5.5
				C670.7,316.4,670.3,315.7,669.9,316L669.9,316z"/>
		</g>
	</g>
	<g>
		<g>
			<path class="st25" d="M583.6,193.1c6.5,21.5-11.2,44-0.4,64.9c0.2,0.4,0.8,0,0.6-0.4c-10.8-20.7,6.9-43.2,0.5-64.7
				C584.2,192.5,583.5,192.7,583.6,193.1L583.6,193.1z"/>
		</g>
	</g>
	<g>
		<g>
			<path class="st25" d="M575.1,224.6c-0.2,2.9-0.4,5.9-0.7,8.8c0,0.5,0.7,0.5,0.7,0c0.2-2.9,0.4-5.9,0.7-8.8
				C575.9,224.1,575.1,224.1,575.1,224.6L575.1,224.6z"/>
		</g>
	</g>
	<g>
		<g>
			<path class="st25" d="M652.4,202c2.3,11.4,4.6,22.9,4.1,34.6c-0.2,5.9-1.3,11.7-3.3,17.2c-1.9,5.3-4.4,10.2-5.4,15.8
				c-0.1,0.5,0.6,0.7,0.7,0.2c1-5.9,3.8-11.1,5.7-16.7c1.8-5.3,2.8-10.9,3-16.6c0.5-11.7-1.8-23.4-4.2-34.8
				C653,201.3,652.3,201.5,652.4,202L652.4,202z"/>
		</g>
	</g>
	<g>
		<g>
			<path class="st25" d="M663.1,241.2c-0.8,6.9-5.5,12.5-6.2,19.4c0,0.5,0.7,0.5,0.7,0c0.7-6.9,5.4-12.5,6.2-19.4
				C663.9,240.8,663.1,240.8,663.1,241.2L663.1,241.2z"/>
		</g>
	</g>
	<g>
		<g>
			<path class="st25" d="M565.7,243.4c-0.2,9.6,2.8,18.6,8.9,26.1c0.3,0.4,0.8-0.2,0.5-0.5c-5.9-7.4-8.9-16.1-8.7-25.6
				C566.4,242.9,565.7,242.9,565.7,243.4L565.7,243.4z"/>
		</g>
	</g>
	<g>
		<g>
			<path class="st25" d="M647.8,340.2c7.2,11.4,17.3,21.2,31.4,22.2c0.3,0,0.5-0.4,0.3-0.6c-0.4-0.4-0.8-0.7-1.3-1
				c-0.4-0.3-0.9,0.2-0.5,0.5c0.1,0.1-3.4-0.3-4-0.4c-1.8-0.5-3.6-1.1-5.3-1.9c-3-1.4-5.8-3.2-8.3-5.3c-4.6-3.9-8.3-8.7-11.6-13.8
				C648.2,339.4,647.6,339.8,647.8,340.2L647.8,340.2z"/>
		</g>
	</g>
	<g>
		<g>
			<path class="st25" d="M652.8,347c7.2,3.2,13.5,7.8,18.6,13.8c0.3,0.4,0.8-0.2,0.5-0.5c-5.2-6-11.5-10.7-18.8-13.9
				C652.8,346.1,652.4,346.8,652.8,347L652.8,347z"/>
		</g>
	</g>
	<g>
		<g>
			<path class="st25" d="M655,349.3c1.7,2.1,3.3,4.3,5,6.4c0.2,0.2,0.7,0.2,0.7-0.2c-0.2-1.6-0.5-3-1.1-4.5
				c-0.2-0.4-0.8-0.3-0.7,0.2c0.5,2.2,1.5,3.9,3.2,5.4c0.2,0.2,0.5,0.1,0.6-0.2c0.4-1.5,0.2-2.6-0.9-3.7c-0.3-0.3-0.7,0-0.6,0.4
				c0.7,2.4,2,4.2,4.1,5.7c0.3,0.2,0.8-0.3,0.5-0.6c-2.5-2.1-4.6-4.5-6.2-7.2c-0.2,0.1-0.4,0.3-0.6,0.5c2,2.1,4.1,4.3,6.1,6.4
				c0.3,0.4,0.8-0.2,0.5-0.5c-2.2-2.6-4.2-5.4-6-8.3c-0.2,0.1-0.4,0.2-0.6,0.4c2.3,3.5,4.8,6.8,7.5,9.9c0.2-0.2,0.3-0.4,0.5-0.5
				c-1.9-2.1-3.5-4.4-4.9-6.9c-0.2-0.4-0.9,0-0.6,0.4c1.5,2.8,3.5,5.2,6,7.2c0.3,0.2,0.8-0.1,0.6-0.5c-0.8-1.4-1.6-2.8-2.3-4.2
				c-0.2,0.1-0.4,0.2-0.6,0.4c1.1,1.9,2.4,3.4,4,4.8c0.3,0.2,0.8-0.1,0.6-0.5c-0.6-0.9-1.2-1.9-1.8-2.8c-0.2,0.1-0.4,0.3-0.6,0.5
				c0.4,0.4,0.7,0.8,1.1,1.2c0.2-0.2,0.3-0.4,0.5-0.5c-3.3-2.7-6.6-5.4-9.9-8c-0.3-0.3-0.8,0.1-0.6,0.5c1,2.2,2.4,4,4.3,5.6
				c0.4,0.3,0.8-0.2,0.5-0.5c-1.8-2-3.8-3.9-6-5.5c-0.3-0.3-0.7,0.3-0.5,0.6c1.3,1.6,2.7,3.2,4,4.8c0.3,0.4,0.8-0.2,0.5-0.5
				c-1.3-1.6-2.7-3.2-4-4.8c-0.2,0.2-0.3,0.4-0.5,0.6c2.1,1.6,4.1,3.4,5.9,5.4c0.2-0.2,0.3-0.4,0.5-0.5c-1.9-1.5-3.2-3.2-4.2-5.4
				c-0.2,0.1-0.4,0.3-0.6,0.5c3.3,2.7,6.6,5.4,9.9,8c0.4,0.3,0.8-0.2,0.5-0.5c-0.4-0.4-0.7-0.8-1.1-1.2c-0.3-0.3-0.8,0.1-0.6,0.5
				c0.6,0.9,1.2,1.9,1.8,2.8c0.2-0.1,0.4-0.3,0.6-0.5c-1.6-1.3-2.9-2.8-3.9-4.6c-0.2-0.4-0.9,0-0.6,0.4c0.8,1.4,1.6,2.8,2.3,4.2
				c0.2-0.1,0.4-0.3,0.6-0.5c-2.5-1.9-4.4-4.3-5.9-7c-0.2,0.1-0.4,0.2-0.6,0.4c1.4,2.5,3.1,4.9,5,7.1c0.3,0.4,0.8-0.2,0.5-0.5
				c-2.6-3.1-5.1-6.4-7.3-9.8c-0.3-0.4-0.9,0-0.6,0.4c1.8,3,3.9,5.8,6.1,8.5c0.2-0.2,0.3-0.4,0.5-0.5c-2-2.1-4.1-4.3-6.1-6.4
				c-0.3-0.3-0.8,0.1-0.6,0.5c1.7,2.9,3.8,5.3,6.3,7.4c0.2-0.2,0.3-0.4,0.5-0.6c-1.9-1.3-3.1-3.1-3.8-5.3c-0.2,0.1-0.4,0.2-0.6,0.4
				c1.1,2.3,1.3,3,0.5,2c-0.4-0.4-0.8-0.9-1.1-1.5c-0.5-0.9-0.8-1.8-1.1-2.8c-0.2,0.1-0.5,0.1-0.7,0.2c0.5,1.4,0.9,2.8,1,4.4
				c0.2-0.1,0.5-0.1,0.7-0.2c-1.7-2.1-3.3-4.3-5-6.4C655.4,348.5,654.8,348.9,655,349.3L655,349.3z"/>
		</g>
	</g>
	<g>
		<g>
			<path class="st25" d="M583,341.8c-2.1,6.8-8,11.5-13,16.2c-2.2,2.1-4.5,4.1-6.7,6.2c-1.4,1.2-2.7,2.4-4.1,3.6
				c-0.5,0.4-0.9,0.8-1.4,1.2c-1.3,0.4-1.7,1-1.2,1.8c0.3-0.3-0.2-0.9-0.5-0.5c-0.4,0.4-0.7,0.7-1.1,1.1c-0.3,0.3,0.2,0.8,0.5,0.5
				c6-5.1,12-10.4,17.7-15.9c4.3-4.1,8.7-8.1,10.5-14C583.8,341.5,583.1,341.3,583,341.8L583,341.8z"/>
		</g>
	</g>
	<g>
		<g>
			<path class="st25" d="M563.7,363.3c4.2-5.1,9.5-9,15.5-11.7c0.4-0.2,0.1-0.8-0.3-0.7c-5.6,1.9-9.9,5.6-13.5,10.2
				c0.2,0.1,0.4,0.3,0.6,0.5c3.6-5,8.2-9,13.7-11.7c0.4-0.2,0.1-0.8-0.3-0.7c-6.9,2.4-12.5,7-16.1,13.4c0.2,0.1,0.4,0.2,0.6,0.4
				c3-5.6,7.6-10,13.4-12.7c0.4-0.2,0.1-0.8-0.3-0.7c-6,1.8-9.9,6.5-13.5,11.2c-0.3,0.4,0.2,0.9,0.5,0.5c1.4-1.3,2.8-2.6,4.3-3.9
				c0.6-0.5,1.2-1,1.8-1.5c-1.1,0.9,3.3-2.8,3-1.8c-0.2,0.5,0.6,0.6,0.7,0.2c0.3-0.9,0.3-0.7,0.1-1.6c0-0.2-0.4-0.4-0.5-0.2
				c-3.5,2.5-6.8,5.3-9.9,8.2c0.2,0.2,0.3,0.4,0.5,0.5c3.6-4.6,7.4-9.3,13.2-11c-0.1-0.2-0.2-0.5-0.3-0.7c-5.9,2.8-10.6,7.2-13.6,13
				c-0.2,0.4,0.4,0.8,0.6,0.4c3.5-6.2,9-10.7,15.7-13c-0.1-0.2-0.2-0.5-0.3-0.7c-5.6,2.8-10.3,6.8-14,12c-0.2,0.3,0.3,0.8,0.6,0.5
				c3.5-4.5,7.7-8.2,13.2-10c-0.1-0.2-0.2-0.5-0.3-0.7c-6.1,2.7-11.4,6.6-15.7,11.8C562.8,363.2,563.4,363.7,563.7,363.3
				L563.7,363.3z"/>
		</g>
	</g>
	<g>
		<g>
			<path class="st25" d="M557.8,412.8c-0.3,4.7-2.1,9.3-1.8,14.1c0.3,3.9,2,7.7,3.2,11.4c0.2,0.5,0.9,0.3,0.7-0.2
				c-1.4-4.2-3.3-8.5-3.2-13c0.1-4.1,1.6-8.2,1.8-12.3C558.5,412.4,557.8,412.4,557.8,412.8L557.8,412.8z"/>
		</g>
	</g>
	<g>
		<g>
			<path class="st25" d="M557.7,426.1c0,3.3,0.8,6.4,2.2,9.3c0.2,0.4,0.8,0,0.6-0.4c-1.4-2.8-2.1-5.8-2.2-8.9
				C558.5,425.6,557.7,425.6,557.7,426.1L557.7,426.1z"/>
		</g>
	</g>
	<g>
		<g>
			<path class="st26" d="M633.7,198.6c-1,4.6-0.4,9.2-1.2,13.8c-0.7,3.7-1.8,7.4-3.1,11c-2.4,7.2-5,14.3-4.9,22.1
				c0,0.5,0.8,0.5,0.7,0c-0.2-8.3,2.8-15.7,5.4-23.4c1.2-3.6,2.3-7.2,2.8-11c0.5-4.1,0.1-8.2,1-12.2
				C634.5,198.4,633.8,198.2,633.7,198.6L633.7,198.6z"/>
		</g>
	</g>
	<g>
		<g>
			<path class="st26" d="M630.1,211.6c-1,4.1-2,8.2-3,12.3c-0.1,0.5,0.6,0.7,0.7,0.2c1-4.1,2-8.2,3-12.3
				C630.9,211.3,630.2,211.1,630.1,211.6L630.1,211.6z"/>
		</g>
	</g>
	<g>
		<g>
			<path class="st26" d="M600.4,209.2c1.8,10.4,4.1,20.8,6.9,31c0.1,0.5,0.8,0.3,0.7-0.2c-2.8-10.2-5.1-20.6-6.9-31
				C601,208.6,600.3,208.8,600.4,209.2L600.4,209.2z"/>
		</g>
	</g>
	<g>
		<g>
			<path class="st26" d="M602.1,231.9c0.6,3.3,1.4,6.6,2.5,9.8c0.2,0.4,0.9,0.3,0.7-0.2c-1.1-3.2-1.9-6.5-2.5-9.8
				C602.7,231.2,602,231.4,602.1,231.9L602.1,231.9z"/>
		</g>
	</g>
	<g>
		<g>
			<path class="st26" d="M607.3,303.7c5.6,2.2,11.3,3.4,17.2,3.8c0.5,0,0.5-0.7,0-0.7c-5.9-0.4-11.6-1.6-17.1-3.8
				C607.1,302.8,606.9,303.5,607.3,303.7L607.3,303.7z"/>
		</g>
	</g>
	<g>
		<g>
			<path class="st26" d="M614.2,310c2.1,0.6,4.2,1.1,6.3,1.7c0.5,0.1,0.7-0.6,0.2-0.7c-2.1-0.6-4.2-1.1-6.3-1.7
				C613.9,309.2,613.8,309.9,614.2,310L614.2,310z"/>
		</g>
	</g>
	<path class="st27" d="M617.8,129.8c-0.7,0.8-1.4,1.6-1.8,2.7s-0.3,2.4,0.4,3.1c0.6,0.7,1.6,0.8,2.5,0.9c2.1,0.1,4.3,0.1,6.4-0.2
		c0.5-0.1,1.1-0.1,1.5-0.5c0.6-0.6,0.7-1.6,0.5-2.4c-0.2-1.2-0.8-2.2-1.5-3.1"/>
	<g>
		<g>
			<path class="st28" d="M645.2,137.5c3.7,2.7,2.2,12-3.2,11.5c-0.8-0.1-0.8,1.2,0,1.2c3.2,0.3,5.4-2.4,6.1-5.3
				c0.8-3.2,0.5-6.4-2.2-8.5C645.2,136,644.6,137,645.2,137.5L645.2,137.5z"/>
		</g>
	</g>
	<g>
		<g>
			<path class="st28" d="M586.6,139.4c-2.6,2.2-3.7,5.7-2.4,8.9c1.2,3,4.3,4.5,7.4,3.5c0.7-0.3,0.4-1.4-0.3-1.2
				c-2.9,1-5.6-0.9-6.2-3.8c-0.5-2.5,0.6-4.9,2.5-6.5C588.1,139.7,587.2,138.9,586.6,139.4L586.6,139.4z"/>
		</g>
	</g>
	<g>
		<g>
			<path class="st29" d="M607.4,412.9c3,0.5,5.9,0.5,8.9,0c0.2,0,0.1-0.3-0.1-0.3c-2.9,0.5-5.8,0.5-8.8,0
				C607.2,412.6,607.2,412.9,607.4,412.9L607.4,412.9z"/>
		</g>
	</g>
	<g>
		<g>
			<path class="st29" d="M602,418.8c3.6,0,7.2-0.4,10.8-1c0.2,0,0.1-0.3-0.1-0.3c-3.6,0.6-7.1,0.9-10.8,1
				C601.8,418.5,601.8,418.8,602,418.8L602,418.8z"/>
		</g>
	</g>
	<g>
		<g>
			<path class="st29" d="M632.2,474.8c8.7,5,18.2,2.5,27.2-0.3c0.2-0.1,0.1-0.4-0.1-0.3c-8.9,2.7-18.3,5.2-27,0.3
				C632.2,474.4,632.1,474.7,632.2,474.8L632.2,474.8z"/>
		</g>
	</g>
	<g>
		<g>
			<path class="st29" d="M634.5,481.7c5.8,0.8,11.5,0.5,17.3-0.6c0.2,0,0.1-0.3-0.1-0.3c-5.7,1.2-11.4,1.4-17.2,0.6
				C634.3,481.4,634.3,481.7,634.5,481.7L634.5,481.7z"/>
		</g>
	</g>
	<g>
		<g>
			<path class="st29" d="M659.1,503.7c4.2,5.3,10.9,2.2,15.3-1.1c0.2-0.1,0-0.4-0.2-0.3c-4.2,3.2-10.8,6.4-14.9,1.1
				C659.2,503.3,658.9,503.5,659.1,503.7L659.1,503.7z"/>
		</g>
	</g>
	<g>
		<g>
			<path class="st5" d="M672.3,614.4c0,0,2.7,23.6,8.2,29.7c5.5,6.1,11.6,15.1,9.9,19.6c-1.7,4.5-13.1,6.5-20.8,2.5
				c-7.7-3.9-11.5-6.6-11.8-10.6c-0.3-4-0.2-14.4,0.2-17.5c1.5-11.7-0.5-21.6-0.4-23C657.9,607.9,669.4,607.1,672.3,614.4z"/>
		</g>
		<g>
			<path class="st5" d="M637.7,514.1c-0.4,0.7,20.5,114.1,21.7,116.2c1.2,2.1,13.4,5.4,13.9-0.2c0.2-2.3,10.2-81.5,0.2-118
				C671.7,505.5,651.9,488.6,637.7,514.1z"/>
		</g>
		<g>
			<path class="st15" d="M648.1,478.5c-8.2,2-19.6,7.4-15.3,24.6c4.1,16.4,6.4,33.5,8,50.1c2.3,22.9,6.5,45.6,12.4,67.9
				c0.2,0.8,0.5,1.7,1.1,2.3c0.9,0.9,2.4,0.9,3.7,0.9c5.2,0,10.5,0,15.7,0c1.8,0,3.9-0.1,5.1-1.4c0.7-0.8,0.9-1.9,1.1-3
				c3.2-20.3,4.1-41,2.8-61.6c-0.6-10-3.6-20.5-3.4-30.5c0.2-9.6-0.8-19.1-2.2-28.7C677.1,499.1,674.3,472,648.1,478.5z"/>
		</g>
		<g>
			<g>
				<path class="st18" d="M656.5,654.8c1.4,4.6,0.7,10,1.9,14.7c1.7,6.5,10.4,10.6,15.7,11.8c3.9,0.8,14,0.3,17-7.9
					c1.5-4.3-0.1-12.5-0.1-12.5s-2.3,8-9.7,8.6c-11.4,0.9-21.1-4.8-24.9-14.8c0,4-0.3,7.8,0.6,11.8c0.3,1.5,0.8,2.9,1.5,4.2
					c1.7,2.8,4.7,4.5,7.7,6c3.7,1.9,7.6,3.6,11.8,4s8.8-0.9,11.2-4.1c2.2-2.8,2.3-6.5,2.4-9.9c0.1-2.2,0-4.6-1.5-6.3
					c0.1,4.3-4,8-8.6,8.8c-4.5,0.7-9.2-1-12.9-3.6"/>
			</g>
		</g>
		<g>
			<g>
				<path class="st30" d="M667,637.8l4.5-0.3c0,0,3.6,13.3,3.4,15.3c-0.2,1.9-3.5,0.2-4.1-1.1C670.2,650.4,667,637.8,667,637.8z"/>
			</g>
		</g>
		<g>
			<g>
				<path class="st18" d="M688.5,654.3c-4.4-8.8-9.8-15.4-9.8-15.4s-2.8-1.3-7.2-1.5l2.8,15.3c0,0-7.3-14.9-7.3-15
					c-0.4-0.8-9,3.1-9.7,3.9c-2.2,2.5-1.5,8.5-1.8,11.6c-0.1,1.1-0.2,2.3,0,3.4c0.5,2.2,2.5,3.9,4.4,5.4c1.8,1.4,3.6,2.8,5.4,4.2
					c0.8,0.6,1.7,1.3,2.8,1.4c1.3,0.1,2.5-0.9,3.2-1.9c0.7-1,1.2-2.2,2-3.2c2.8-3.1,8.2-2.4,11.8-0.1c1.8,1.1,3.7,2.7,5.8,2.4
					c0.1-8.5-3.1-17.1-9-23.7c-0.8-0.8-1.6-1.7-2.6-2.2c-1.8-0.9-4-0.7-6-0.6c-3,0-5.9-0.4-8.9-0.1c-6.2,0.6-7.3,3.4-7.8,8.5
					c-0.4,4.1-1.1,9,0.2,13c1.5,4.7,11.1,7.7,11.1,7.7s4.6-4.8,9.2-6.2c4.6-1.4,13.6,3.9,13.6,3.9S692.9,663.2,688.5,654.3z"/>
			</g>
		</g>
		<g>
			<g>
				<path class="st29" d="M658.5,616.8c-1.1-9.2-2.2-18.4-3.3-27.5c0-0.2-0.3-0.2-0.3,0c1.1,9.2,2.2,18.4,3.3,27.5
					C658.2,617,658.6,617,658.5,616.8L658.5,616.8z"/>
			</g>
		</g>
		<g>
			<g>
				<path class="st29" d="M662.9,615.3c-1.1-6.8-1.9-13.5-2.4-20.3c0-0.2-0.3-0.2-0.3,0c0.5,6.9,1.3,13.7,2.4,20.4
					C662.6,615.6,663,615.5,662.9,615.3L662.9,615.3z"/>
			</g>
		</g>
	</g>
	<g>
		<g>
			<path class="st29" d="M583.1,494.2c7.9,3.3,18,5.4,23.8-2.7c0.1-0.2-0.2-0.3-0.3-0.2c-5.6,8-15.7,5.8-23.3,2.6
				C583,493.9,582.9,494.1,583.1,494.2L583.1,494.2z"/>
		</g>
	</g>
	<g>
		<g>
			<path class="st29" d="M617,341.1c0.9,12.9,1.8,25.9,2.8,38.8c0,0.2,0.3,0.2,0.3,0c-0.9-12.9-1.8-25.9-2.8-38.8
				C617.3,340.9,617,340.9,617,341.1L617,341.1z"/>
		</g>
	</g>
	<path class="st5" d="M704.3,164.5c-0.4,0.1-0.6,0.6-0.5,1c0.9,1.9,2.2,5.6,1.9,7.6c-0.3,2.3-2.4,14.6,0.8,22.7c0,0,2.3,2.5,0.2,11
		c-2,8-8.1,39.6-18.3,53.6c-7.1,9.8-1.4,37.5,9.1,31.6c12-6.7,16.9-20.3,17.7-28.5c0.7-8.2,0.1-51,10-59.4
		c0.4-0.3,10.7-10.6,12.4-12c0,0,13.1-6.2,14.4-6.4c1.3-0.2,0.3-4.2-5.7-1.9c-6,2.3-9.3,2.5-9.7,2.1s-0.7-1.4-0.7-1.4s5.8-5.7,7-7.3
		s6-7,6.9-7.6s-1-4.6-4.5-1.4c-3.5,3.2-7.2,6.9-9,8.4s-2.3,2.8-2.9,2.4c-0.6-0.4-0.6-0.3,0.2-1.3c0.7-1.1,5.9-8.1,7.2-11
		s3.8-5.7,4.6-6.9c0.8-1.1-0.8-4.6-4.6-1c-3.8,3.6-11.5,16.2-12.1,16.2s-1.7-0.7-1.3-2.1s3.5-9.5,4-10.5c1.3-2.3,3.2-6.2,4.1-7.5
		c0.9-1.2-1.5-3.8-4.9,0.3c-3.4,4-8.8,15.8-9.3,17.1c-0.5,1.2-5.5,6.2-6.9,7.1c-1.2,0.8-3.3-0.3-2.9-2.8
		C712.1,172.6,711.9,162.3,704.3,164.5z"/>
	<path class="st5" d="M525.7,166c0.6,0.2,0.8,0.8,0.5,1.3c-1.1,1.9-2.5,5.5-2.3,7.5c0.2,2.4,1.5,15.3-2.3,23.4c0,0-1.1,3-2.2,12
		c-1.4,11.1,10.8,49.2,15.1,60.5c6.1,15.7,0.4,34.1-10.1,27.3c-12-7.8-16.1-22-16.3-30.5c-0.2-8.5-2.6-59.9-5-62.1
		c-0.4-0.4-11.7-11.6-13.3-13.2c0,0-13.1-7.3-14.4-7.5c-1.4-0.3-0.1-4.4,6-1.6c6.1,2.8,9.4,3.2,9.8,2.8c0.5-0.4,0.8-1.4,0.8-1.4
		s-5.6-6.3-6.7-8c-1.1-1.7-5.7-7.6-6.6-8.3s1.3-4.7,4.7-1.1s6.9,7.6,8.7,9.2c1.8,1.6,2.2,3.1,2.9,2.7c0.6-0.4,0.6-0.2-0.1-1.4
		s-5.5-8.8-6.7-11.8c-1.2-3.1-3.6-6.2-4.3-7.4s1.1-4.7,4.8-0.7c3.7,4,10.7,17.5,11.4,17.6s1.8-0.6,1.5-2.1
		c-0.3-1.4-2.9-10.1-3.4-11.1c-1.2-2.5-2.9-6.6-3.8-8c-0.9-1.3,1.8-3.8,5,0.6s8,16.9,8.4,18.2s5.1,7.1,6.6,7.8c2,1,2.9-0.9,3-3.1
		C517.3,175.1,518.1,163.5,525.7,166z"/>
	<path class="st16" d="M708.9,286.7c-1.4,2.5-3.4,4.7-5.8,6.5c-3.4,2.5-11.3,3.9-15,1c-3.1-2.5-3.5-9.7-3.7-13.2
		c-0.3-4,0-7.9,0.8-11.8c0.9-4.9,1.9-9.9,3.6-14.6c1.6-4.5,4.5-8.1,5.8-12.6c3.3-11.6,6.7-23.3,10-34.9c0.2-0.6,0.4-1.3,1-1.4
		c0.4-0.1,0.8,0.1,1.2,0.3c10.2,5.9,15.2,6.8,15.1,18.6c0,3.7-1.2,7.2-1.4,11c-0.2,4.8-0.7,9.6-1.9,14.2c-1.2,4.6-2.8,9.1-3.9,13.7
		c-1.4,6-1.9,12.3-3.6,18.3C710.5,283.5,709.8,285.2,708.9,286.7z"/>
	<path class="st16" d="M511.3,286.5c-2.9-7.1-3.7-13.1-3.7-20.7c0-8.3-1-16-2.4-24.2c-0.8-4.9-1.6-9.7-2.5-14.6
		c-0.7-4.2-2.3-9.1-2.3-13.3c-0.1-0.6-0.2-1.4,0.3-1.8c0.4-0.3,0.8-0.3,1.3-0.2c12.3,1,17.4-0.5,22.6,10.7c4,8.6,5.5,19.1,7.5,28.3
		c2.3,10.6,5.2,21.5,6.5,32.2c0.5,4,1.4,9.4-0.7,13c-2.8,5-10.4,4.8-15.1,3.1C517.3,296.9,513.4,291.7,511.3,286.5z"/>
	<path class="st31" d="M612.6,142.8c-2.2-0.3-4.3-0.3-6.3,0.5c-2.1,0.9-3.6,3.9-0.8,4.6c1.4,0.3,3.9,1.5,5,2.3c0.9,0.6,4,2.7,4.9,3
		c0.1,0,0-0.4,0-0.5c-0.1-0.2-0.3-0.4-0.5-0.6c-0.5-0.4-1-0.7-1.4-1.1c0.6,0,0.7,0,1-0.4c0.6-0.8,2.3-3.4,3.2-4.6
		c0.2-0.3,0.6-0.3,0.9-0.2c0.8,0.4,1,0.5,1.4,0.7c-0.1-0.7-1.5-1.5-2.1-1.8C617.3,144.4,613.9,142.9,612.6,142.8z"/>
</g>
<g>
	<g>
		<path class="st15" d="M327.2,147.9c-0.4,1.7-0.7,3.4-0.9,5.1c-1.3,9.8-0.3,19.7,1.3,29.4c1,5.6,2.1,11.2,4.5,16.4c0.5,1,1,2,1.5,3
			c3.3,5.7,9.7,13.4,16.4,15c4.1,1,9.1,0.5,13.4,0.8c8.2,0.5,16.5,1,24.7,1.4l-1.6-40.5c-6.8-3.5-12.9-7.2-19-11.8
			c-2-1.4-3.9-2.9-5.4-4.9c-2.8-3.9-3-9.1-2.4-13.8c0.6-4.8,1.9-9.4,1.8-14.2c-0.2-4.8-2.2-9.9-6.5-12.1c-2.8-1.4-6.2-1.3-9.1-0.3
			c-2.9,1.1-5.5,3-7.7,5.2C332.6,132.4,329,140,327.2,147.9z"/>
		<path class="st5" d="M362.8,217.2L362.8,217.2c-7,0-12.7-5.7-12.7-12.7v-29.1h25.4v29.1C375.5,211.5,369.8,217.2,362.8,217.2z"/>
		<path class="st32" d="M368.2,184.9c-4.4-1.1-2.5-0.6-5-0.4c-4.4,0.3-8.8,0.9-12.8,2.9c-0.1,0-0.1,0.1-0.2,0.1v10.8
			c2.4,3.3,6.4,4.7,10.1,5c4.7,0.4,8.6-3.5,8.4-8.2L368.2,184.9z"/>
		<path class="st5" d="M365.6,129.5c-28-0.1-25.7,24.5-25.6,25.6c0.8,11.5,0.9,20.9,5.6,28.7c3,4.9,12.8,16.3,19.9,16.5
			c4.8,0.1,12.9-7.4,15.9-12.4c6.7-11.2,9.2-21.6,9-32.4C390.1,141.8,388.7,129.6,365.6,129.5z"/>
		<path class="st5" d="M335,171.3c1.3,1.9,6.2,6,8,2.8c0.9-1.6-0.6-3.4-1.4-4.8c-0.2-0.4-0.5-0.8-0.7-1.2c0.7,1.2,2.7,0,2-1.3
			c-1.1-2.1-4.2-8.8-7.6-6.1C332.6,163,332,166.9,335,171.3z"/>
		<path class="st15" d="M380.9,159.3c-2.7-1.1-5.4-2.4-8.3-1.9c-1.1,0.2-4.4,1.3-2.6,3c0.8,0.8,7.2,0.5,10.5,1.1
			C382,161.7,382.6,159.9,380.9,159.3z"/>
		<path class="st15" d="M347.8,160.7c0.1-0.6,0.5-1.1,0.7-1.3c2.2-2,5-3.2,8-3.2c1.1,0,4.6,0.6,3,2.6c-0.7,0.9-7.1,1.3-10,3.1
			C348.1,162.9,347.5,162,347.8,160.7z"/>
		<path class="st5" d="M389.6,160.3c-3.3-2.7-6.5,4-7.6,6.1c-0.7,1.3,1.2,2.5,2,1.3c-0.2,0.4-0.5,0.8-0.7,1.2
			c-0.8,1.3-2.3,3.1-1.4,4.8c1.8,3.2,6.6-0.9,8-2.8C392.9,166.5,392.3,162.5,389.6,160.3z"/>
		<path class="st28" d="M386.4,169.9c-0.7-1.1-2.5-0.1-1.8,1c0.7,1.1,1,2.2,0.9,3.4c0,1.3,2,1.3,2.1,0
			C387.7,172.8,387.3,171.2,386.4,169.9z"/>
		<path class="st5" d="M340.1,496.9c0,0,1.6,34.5,15.4,101.5c2.1,10.3,11.4,6.6,11.4-1c0-1.8,3.7-54.6-3.3-106
			C363.4,489.6,347.3,473.8,340.1,496.9z"/>
		<path class="st5" d="M391.6,498.2c-0.2,0.6,20,93.2,20.9,94.9c0.9,1.7,9.5,2.5,9.5-2.2c0-1.9,3.4-65.5-5.7-95.2
			C414.7,490.4,400,477,391.6,498.2z"/>
		<path class="st5" d="M405.6,219.4c0,0,18.6,72.3,19.2,75.3s-7.5,11.3-15.5,6.6c-2.3-1.3-13.6-46.2-14.2-51.4
			C394.5,244.7,394.5,213.1,405.6,219.4z"/>
		<path class="st5" d="M424.8,294.6c0,0,6.1,10.5,14,69.6c0.3,2.5-5.9,8.8-9.5-0.3c-21.6-54.6-17.7-55.8-20.1-62.6
			C406.9,294.4,415.6,283.4,424.8,294.6z"/>
		<path class="st5" d="M320.7,219.5c0,0-14.1,73.3-14.5,76.3c-0.4,3,8.2,10.8,15.9,5.7c2.2-1.5,10.8-46.9,11-52.1
			C333.4,244.1,331.4,212.6,320.7,219.5z"/>
		<path class="st5" d="M311.1,287.2c0,0-6.8,10.1-18.3,68.6c-0.5,2.5,5.3,9.1,9.5,0.3c25-53.1,21.2-54.6,23.9-61.3
			C328.9,288.1,321,276.6,311.1,287.2z"/>
		<path class="st5" d="M349.9,205l-28.4,14.1c0,0,19.3,73.8,20,78.1c0.7,4.3,28.9,20.2,50.3-1l13.8-76.9c0,0-29.4-13.9-30.5-15.2
			C375.1,204.2,366.4,214,349.9,205z"/>
		<path class="st5" d="M342,295.9c0,0-15.1,39.4-16.9,47.5c-1.8,8.1-0.8,21.6,0,27.5c0.4,3.2,34,32.5,84,1.8
			c3.7-2.3-2-22.9-3.2-31.7s-14.1-44.8-14.1-44.8S362.2,275.5,342,295.9z"/>
		<path class="st33" d="M324.4,366.2c0,0,14.7,124.5,15.4,129.6c0.7,5.1,16.6,12.6,23.8-2.7c1-2.2,2.4-59,2.2-64.2
			c-0.2-5.2,2.5-49.3,1.1-52.9C365.6,372.3,328.3,346.5,324.4,366.2z"/>
		<path class="st33" d="M409.9,365.8c0,0,6.2,124.8,6.5,129.9c0.2,5.1-14.4,19-24.1,5.6c-1.4-1.9-12.6-60-13.4-65.1
			c-0.8-5.1-12.5-56.5-11.9-60.3C367.6,372,402.6,347.4,409.9,365.8z"/>
		<path class="st5" d="M422.2,591.6c0,0,1.8,15.9,5.6,20.9c3.9,5,8.2,12.3,7,16c-1.1,3.7-9,5.5-14.3,2.4c-5.4-3.1-8-5.3-8.3-8.5
			c-0.2-3.3-0.1-10.6,0.1-13.2c0.9-9.7-0.2-15.3-0.2-16.5C412.3,586.9,420.1,585.7,422.2,591.6z"/>
		<path class="st34" d="M390.9,243.5c0.5-0.9,5.5-28.4,5.5-28.4l-2.6-1.2c0,0-3.9,23.4-5,28.3c-0.3-0.3-0.6-0.5-1.1-0.5
			c-1.4,0-1.8,1.4-1.4,2.4c0,0,0,0-0.1,0c-0.1-0.7-0.6-1.4-1.5-1.4c-1.5,0-1.9,1.7-1.2,2.6c0,0,0,0-0.1,0c-0.2-0.6-0.7-1.1-1.5-1.1
			c-1.3,0-1.8,1.3-1.5,2.2c-0.3-0.4-0.7-0.6-1.3-0.6c-1.3,0-1.8,1.3-1.4,2.3c-0.2-0.1-0.5-0.2-0.9-0.2c-1.3,0-1.8,1.2-1.5,2.2
			c-0.2-0.1-0.5-0.2-0.8-0.2c-1.5,0-1.9,1.6-1.3,2.6c-0.2-0.1-0.5-0.2-0.8-0.2c-1.8,0-2,2.3-0.8,3c0,0,0,0,0,0.1
			c-0.3-0.3-0.7-0.6-1.2-0.6c-1.7,0-2,2.2-0.9,3c0,0,0,0.1-0.1,0.1c-0.3-0.4-0.7-0.6-1.2-0.6c-1.8,0-2,2.3-0.8,3c0,0,0,0-0.1,0.1
			c-0.3-0.4-0.7-0.6-1.2-0.6c-1.5,0-1.9,1.7-1.2,2.6c-0.2-0.1-0.4-0.1-0.7-0.1c-1.5,0-1.9,1.8-1.2,2.7c-1-0.5-2.5-0.1-2.5,1.3v0
			c0,0.7,0.4,1.2,0.9,1.4c-0.2,0.2-0.3,0.4-0.5,0.6c0-0.1,0-0.1,0-0.2v0c0-1.1-1-1.6-1.9-1.5c0.8-0.9,0.4-2.7-1.2-2.7
			c-0.4,0-0.7,0.1-0.9,0.3c0,0,0-0.1-0.1-0.1c1.5-0.6,1.2-3.1-0.6-3.1c-0.4,0-0.8,0.2-1,0.4c0,0,0-0.1-0.1-0.1
			c1.5-0.6,1.3-3.1-0.6-3.1c-0.5,0-0.8,0.2-1.1,0.4c0,0,0,0,0,0c1.5-0.5,1.3-3.1-0.6-3.1c-0.5,0-0.9,0.2-1.2,0.5c0,0,0,0,0-0.1
			c1.3-0.7,1-3.1-0.8-3.1c-0.5,0-0.8,0.2-1.1,0.4c1.2-0.7,1-3-0.8-3c-0.5,0-0.9,0.2-1.2,0.5c0,0,0-0.1-0.1-0.1c1.1-0.8,0.9-3-0.9-3
			c-0.7,0-1.1,0.4-1.4,0.9c0.5-1,0.1-2.5-1.3-2.5c-0.9,0-1.4,0.6-1.5,1.2c0,0-0.1,0-0.1-0.1c0.4-1-0.1-2.3-1.4-2.3h0
			c-0.9,0-1.4,0.6-1.5,1.3c0,0,0,0-0.1,0c0.4-0.7,0.3-1.6-0.6-2.1c0,0-0.1,0-0.1-0.1c-1.2-0.6-2.2,0.3-2.4,1.2c0,0,0,0,0,0
			c-0.6-1.1-7.1-29.5-7.1-29.5l-1.9,0.9c0,0,7.1,28.4,6.6,30.1c-0.3,1-3.6,10.2-3.6,11.1c0,0.9,4.1,13.1,4.4,13.9
			c0.3,0.7,22.3-0.9,25-1.7c1.5,0.8,36.3,2.5,36.6,1.7c0.3-0.8,2.6-13.6,2.6-14.5C398.9,256,390.4,244.4,390.9,243.5z"/>
		<path class="st34" d="M394.7,304.2c-0.2-1-0.6-1.8-1.2-2.5c-0.4-0.4-1-0.2-1.3,0.2c-0.2-0.5-0.7-0.9-1.4-0.9
			c-1.3,0-1.8,1.2-1.5,2.2c-0.1,0-0.1,0-0.2,0c0.4-1-0.1-2.3-1.4-2.3c-0.8,0-1.3,0.5-1.5,1.1c-0.2-0.6-0.7-1-1.5-1
			c-0.9,0-1.4,0.6-1.5,1.3c-0.1-0.7-0.6-1.3-1.5-1.3c-0.8,0-1.3,0.5-1.5,1c-0.2-0.6-0.7-1.1-1.5-1.1c-1.2,0-1.7,1.1-1.5,2
			c0,0-0.1,0-0.1,0c0.2-0.9-0.3-2-1.5-2h-0.1c-0.9,0-1.4,0.6-1.5,1.3c-0.1-0.7-0.6-1.3-1.5-1.3c-0.8,0-1.3,0.5-1.5,1.2
			c-0.1-0.8-0.6-1.5-1.6-1.5c-0.9,0-1.4,0.7-1.5,1.4c-0.1-0.7-0.6-1.3-1.5-1.3c-0.7,0-1.2,0.4-1.4,0.9c-0.2-0.5-0.7-0.9-1.4-0.9
			c-0.9,0-1.4,0.6-1.5,1.3c-0.1-0.7-0.6-1.3-1.5-1.3h-0.1c-1.2,0-1.7,1.1-1.5,2.1c-0.1,0-0.2,0-0.2,0c0.2-0.9-0.3-2.1-1.5-2.1
			c-0.9,0-1.4,0.6-1.5,1.3c-0.1-0.7-0.6-1.3-1.5-1.3c-1.2,0-1.7,1.1-1.5,2c0,0-0.1,0-0.1,0c0.2-0.9-0.3-2-1.5-2s-1.7,1.1-1.5,2
			c-0.1,0-0.2,0-0.2,0c0.2-0.9-0.2-2.1-1.5-2.1c-0.9,0-1.4,0.6-1.5,1.3c-0.1-0.7-0.6-1.3-1.5-1.3c-1.2,0-1.7,1.2-1.5,2.1
			c0,0-0.1,0-0.1,0c0.2-0.9-0.3-2-1.5-2s-1.7,1.1-1.5,2c-0.2,0-0.3,0-0.3,0c-5.1,9.2-14.3,34.6-15,46.8c24.4-0.3,42,24.5,42,24.5
			c-2.8-20.8,40-30.1,40-30.1S405.6,330.2,394.7,304.2z"/>
		<g>
			<path class="st31" d="M430.6,374.9c0,0,0,10.5-0.2,12.8c-0.1,1.2-0.9,10.1,0,13.8c0.8,3.1,2.8,3.7,2.8,3.7
				c0-0.3,5.6-17.3,5.4-18.9C438.4,384.6,430.6,374.9,430.6,374.9z"/>
		</g>
		<g>
			<path class="st5" d="M427.7,364.9c-1,1.9-1.4,22.7-1.3,26c0,2,2.8,2,3.2,1.2c1.1-2.6,3-11.7,3.2-12.8
				C432.9,378.3,429.5,361.5,427.7,364.9z"/>
		</g>
		<g>
			<path class="st5" d="M427.8,366.6c-0.8-5.5,7.9-9.5,12.8,1.1c1.4,3,3.2,18,3.5,20.2c0.3,2.2-7.3,16.5-8.1,17.5
				c-0.8,1-3,0-3.2-0.5c-0.3-0.9,3.9-14.6,4.3-17.4C437.3,386.1,428.4,371,427.8,366.6z"/>
		</g>
		<g>
			<path class="st31" d="M299,368.4c0,0-1,10.4-1,12.7c0,1.2-0.1,10.2-1.4,13.8c-1.1,3-3.2,3.4-3.2,3.4c0-0.3-3.8-17.8-3.5-19.4
				C290.2,377.3,299,368.4,299,368.4z"/>
		</g>
		<g>
			<path class="st5" d="M302.8,358.9c0.8,2-0.9,22.7-1.3,26c-0.3,2-3,1.8-3.3,0.9c-0.9-2.7-1.8-11.9-1.9-13
				C296.2,371.6,301.3,355.2,302.8,358.9z"/>
		</g>
		<g>
			<path class="st5" d="M302.6,360.5c1.3-5.4-6.9-10.3-12.8-0.2c-1.6,2.8-5,17.6-5.5,19.7c-0.5,2.1,5.6,17.2,6.3,18.2s3,0.3,3.2-0.2
				c0.4-0.9-2.4-15-2.5-17.8C291.1,379,301.5,364.8,302.6,360.5z"/>
		</g>
		<path class="st35" d="M340.1,296.4C340.1,296.4,340.1,296.4,340.1,296.4c6,0.1,51.4-3.3,52.7,0c10.8,26.5,17.6,54.9,20.8,83.2
			c2.8,24.3,2.9,48.7,4.1,73.1c1.3,24.2,5,48.2,5.2,72.4c0,1.3-0.1,2.8-1,3.7c-0.6,0.6-1.5,0.8-2.4,1c-6.1,1.4-12.4,2.2-18.7,2.7
			c-6.1,0.4-12.5-0.6-18.5,0.2c-12,1.7-24.4,1.1-36.6,0.6c-1.3-0.1-2.7-0.1-3.9-0.8c-1.9-1.2-2.5-3.7-2.8-5.9c-2.3-14-4.5-28-6.8-42
			c-4.2-26.3-8.5-52.7-11.3-79.2c-1.8-17.3-3-34.9-0.8-52.1c1.5-11.8,4.6-23.5,10-34.1C334.2,311.6,336.5,303.9,340.1,296.4z"/>
		<circle class="st36" cx="363.6" cy="307" r="2.3"/>
		<path class="st5" d="M357,596.8c0,0-11.3,25.6-15.9,26.5c-4.7,0.9-14.8,5.4-10.3,7.6s15.6,1.8,20.6,0c5-1.9,8.9-12.8,13.6-12.7
			s6.4-1.6,6.6-5.1c0.2-3.5-3.2-13.6-3.2-13.6S363.4,590.1,357,596.8z"/>
		<path class="st37" d="M377.5,611.4c-0.1-0.6-0.4-1-0.8-1.3c-1-0.7-1.4-1.6-1.7-2.7c-0.3-1.2-0.8-2.2-1.4-3.3
			c-0.3-0.6-0.6-1.2-0.8-1.8c-0.3-1-0.8-1.9-1.5-2.6c-0.5-0.6-1.1-0.7-1.8-0.4c-0.5,0.2-1,0.5-1.5,0.8c-0.5,0.3-0.9,0.7-1.4,0.9
			c-1,0.6-2.1,0.9-3.4,0.6c-0.6-0.1-1.3-0.3-2-0.3c-1.1,0-2.3,0-3.3,0.3c-0.6,0.2-1.1,0.5-1.8,0.9c0.5-1.2,0.2-2.3,0-3.4
			c-0.3-1.3-0.7-2.6-1.5-3.8c-0.4-0.7-1-1.1-1.8-1.4c-2-0.6-3.9-0.7-5.8,0.1c-1.2,0.5-2,1.2-2.3,2.5c-0.3,1.3-0.9,2.4-1.5,3.6
			c-0.5,1-0.9,1.9-1.4,2.9c-0.5,1-1,1.9-1.6,2.8c-0.5,0.8-1.1,1.5-1.6,2.4c-1.6,3-3.9,5.4-6.3,7.7c-1,1-2.3,1.6-3.6,2.4
			c-0.8,0.5-1.5,1.1-2.2,1.8c-0.9,1-1.7,1.9-2.6,2.9c-0.9,1-1.9,2-2.5,3.2c-0.6,1.3-0.8,2.7-0.7,4c0.2,0.2,0.5,0.4,0.6,0.5
			c0.8,1.1,2,1.7,3.3,2.1c1.2,0.4,2.4,0.6,3.6,1c2.6,0.8,5.3,0.7,7.9,0.2c1.4-0.3,2.8-0.7,4.3-0.9c2.3-0.5,4.5-1.3,6.7-2.3
			c3-1.4,6.1-2.9,9.1-4.3c1.5-0.7,3-1,4.5-1.6c2.8-1.1,5.7-2.2,8.7-2.9s5.3-2.5,7.3-4.8c1-1.2,1.5-2.6,1.1-4.2
			C377.8,612.6,377.6,612,377.5,611.4z"/>
		<path class="st35" d="M318.6,630.4c0.2-0.3,0.4-0.6,0.5-1c0.2-0.6,0.6-0.9,1.2-1.1c1.1-0.4,2.2-0.4,3.4,0.1c0.8,0.3,1.5,0.8,2,1.5
			c0.8,0.9,1.7,1.4,3,1c0.7-0.2,1.5-0.4,2.2-0.5c0.6-0.1,1.3,0,1.9,0c0.8,0,1.6,0.1,2.3,0.1c1.1,0,2.3,0.2,3.4,0
			c1.6-0.2,3.1-0.7,4.3-1.7c2.7-2.2,5.9-3.4,9.2-4.3c0.7-0.2,1.3,0.1,1.8,0.5c0.7,0.5,1.1,1.3,1.2,2.2c0.1,1.5,0.1,2.9-0.6,4.3
			c-0.6,1.2-1.4,2.2-2.5,3c-1.4,0.9-3,1.4-4.6,1.8c-2.5,0.6-5,0.8-7.6,0.9c-3,0-5.9,0.4-8.9,0.5c-1.1,0-2.2-0.2-3.3-0.3
			c-1.6-0.1-3.1-0.7-4.4-1.7c-1-0.7-2.1-1.4-3.1-2.1c-0.5-0.3-0.8-0.8-1.2-1.2C318.7,631.6,318.7,631,318.6,630.4z"/>
		<path class="st35" d="M380.9,615.5c0.2,1.4-0.5,2.6-1.3,3.9c-0.8,1.2-1.8,2-2.8,2.8c-1.5,1.1-3,2.3-4.5,3.3
			c-1.5,1.1-3.2,1.8-5,2.3c-1.8,0.4-3.4,0.3-5.1-0.4c-0.6-0.2-1.2-0.6-1.8-0.9c-1-0.5-1.4-1.4-1.2-2.5c0.1-0.5,0.2-1,0.4-1.4
			c0.7-1.5,1.7-2.6,2.9-3.6c0.9-0.8,1.7-1.5,2.6-2.2c0.4-0.3,0.9-0.7,1.4-0.8c1.5-0.4,3.1-0.8,4.7-0.7c1,0.1,2-0.2,2.9-0.6
			c0.7-0.3,1.1-1,1.5-1.5c0.3-0.4,0.5-0.7,0.8-1.1c0.8-0.8,1.7-0.9,2.6-0.2C380.2,612.7,380.8,613.9,380.9,615.5z"/>
		<path class="st38" d="M344.3,600.8c1.5,0.4,2.8,0.7,4.1,1.1c0.9,0.3,1.7,0.8,2.6,1.2c0.2,0.1,0.4,0.5,0.5,0.7
			c-0.4,0.8-0.8,0.9-1.4,0.5c-1-0.8-2.1-1.2-3.4-1.5c-0.5-0.1-1-0.3-1.5-0.4c-0.5-0.1-1-0.2-1.6-0.3c-1,1.4-1.9,2.8-2.9,4.3
			c0.6,0.1,1.1,0.2,1.6,0.3c1.6,0.2,3,1.1,4.3,2c0.5,0.4,0.9,1,1.3,1.5c0.2,0.2,0.2,0.6,0.3,0.9c-0.5,0.4-0.8,0.5-1.1,0.1
			c-0.2-0.2-0.4-0.4-0.6-0.6c-1.5-1.8-3.4-2.6-5.7-2.9c-0.2,0-0.3,0-0.5-0.1c-0.6-0.1-1,0.1-1.4,0.5c-1.3,1.3-2.7,2.5-4.4,3.4
			c-0.5,0.3-1,0.4-1.6,0.2c-0.4-0.6-0.5-1.2-0.3-1.8c0.3-1.1,0.9-2.1,1.6-3c0.9-1.2,1.8-2.3,2.8-3.6c-0.6,0.3-1.1,0.5-1.6,0.7
			c-0.8,0.3-1.5,0.6-2.3,0.8c-0.1,0-0.3,0.1-0.5,0.1c-1.1-0.1-1.6-0.8-1.3-2c0.3-0.8,0.6-1.6,1.1-2.4c1.2-2,3-3.4,5.1-4.5
			c1.6-0.9,3.4-1.3,5.1-1.8c0.7-0.2,1.5-0.2,2.2-0.2c1,0.1,1.9,0.2,2.2,1.3c1.1,0.3,2.1,0.5,3.1,0.8c1.6,0.5,2.9,1.4,4.2,2.3
			c0.7,0.5,0.7,1-0.1,1.6c-0.2-0.1-0.6-0.3-0.8-0.5c-1.4-1.2-2.9-2-4.6-2.5c-0.6-0.2-1.2-0.2-1.8-0.3c-0.5-0.1-0.9,0.2-1.2,0.6
			c-0.3,0.7-0.6,1.3-1,2C344.9,599.7,344.6,600.2,344.3,600.8z M343.3,599.5c-0.9,0.9-1.9,1.8-2.8,2.6c-1.4,1.2-2.8,2.6-4,4.1
			c-0.9,1-1.6,2.1-2.2,3.3c-0.1,0.1-0.1,0.3-0.2,0.6c0.3-0.1,0.5-0.2,0.6-0.3c1.5-0.9,2.7-2.1,3.9-3.4c1.3-1.4,2.4-3,3.4-4.6
			C342.5,601.1,342.9,600.2,343.3,599.5C343.3,599.4,343.3,599.4,343.3,599.5C343.3,599.4,343.3,599.4,343.3,599.5z M345.5,595.4
			c-1.1-0.5-2.1,0-3,0.2c-2,0.5-3.9,1.3-5.6,2.4c-1.8,1.2-3.1,2.8-3.9,4.8c-0.1,0.2-0.1,0.4-0.1,0.6
			C336.5,602.5,343.9,597.6,345.5,595.4z"/>
		<path class="st38" d="M336.5,611c1.8,0.2,3.6,0.7,5.2,1.5c0.8,0.4,1.5,1,2.1,1.6c0.2,0.2,0.4,0.5,0.4,0.8c0.1,0.2,0,0.5-0.1,0.6
			c-0.2,0.1-0.5,0.2-0.7,0.1c-0.2-0.1-0.4-0.3-0.6-0.5c-0.8-1-1.8-1.6-3-2c-1-0.3-2.1-0.6-3.2-0.8c-0.3-0.1-0.6-0.2-0.7-0.5
			C335.9,611.4,336.1,611.2,336.5,611z"/>
		<path class="st38" d="M339.7,618.3c0.4,0.8,0.4,0.8,0.2,1.4c-0.3,0.2-0.6,0.2-0.9,0c-1-0.8-2.3-1.1-3.4-1.5
			c-0.6-0.3-1.3-0.4-2-0.5c-0.5-0.1-0.9,0-1.6,0c0,0-0.2-0.2-0.3-0.4c0-0.5,0.2-0.8,0.6-0.9c0.4,0,0.7,0,1.1,0
			c1.4,0,2.6,0.6,3.9,1.1C338.1,617.7,338.9,618.1,339.7,618.3z"/>
		<path class="st39" d="M352.8,609.8c-0.6,0.9-1.2,1.9-1.9,2.7c-1.2,1.4-2.7,2.5-4.1,3.7c-1.2,1-2.5,2-3.7,3c0,0.3,0,0.6,0.1,0.8
			c0.4,0.4,0.8,0.7,1.3,0.8c1.7,0.5,3.4,0.5,5.1,0.5c1.4,0,2.8-0.4,4.1-0.7c1.4-0.4,2.6-0.9,3.8-1.8c0.8-0.7,1.7-1.3,2.5-2
			c0.7-0.6,1.3-1.3,1.9-1.9c0.8-0.8,1.8-1.4,2.8-1.8c0.7-0.3,1.4-0.4,2.1-0.5c1.1-0.2,2.2-0.5,3.1-1.2c0.9-0.6,1.8-1.3,2.7-1.9
			c0.8-0.5,1.6-1,2.5-1.4c-0.1-0.2-0.2-0.5-0.3-0.8c0-0.2-0.1-0.3-0.1-0.4c-0.6,0.2-1.2,0.5-1.8,0.9c-1,0.7-2.1,1.4-3.1,2.2
			c-0.8,0.5-1.5,1-2.5,1.2c-0.5,0.1-1,0.2-1.5,0.3c-1.8,0.3-3.3,1.1-4.6,2.3c-1.1,1-2.1,2-3.2,3c-1.1,1-2.2,1.8-3.6,2.3
			c-1.1,0.4-2.4,0.7-3.6,0.8c-1.8,0.3-3.6,0.2-5.4-0.1c-0.3,0-0.6-0.2-1-0.3c0.3-0.2,0.4-0.3,0.5-0.5c1.8-1.5,3.7-3,5.5-4.5
			c0.5-0.4,1-0.9,1.4-1.4c0.7-1,1.3-1.9,2-2.9c1.1-1.8,2.2-3.6,2.9-5.7c0.4-1,0.8-2,1.3-3c-0.1,0-0.3,0.1-0.4,0.1
			c-0.4,0.2-0.8,0.4-1.3,0.7c-0.3,0.7-0.6,1.4-0.9,2.2C355,606.4,353.9,608.1,352.8,609.8z"/>
		<path class="st37" d="M449.9,635.2c-0.3-0.6-0.6-1.2-0.9-1.9c-0.5-1.4-1.4-2.6-2.6-3.6c-0.6-0.5-1.2-1.1-1.7-1.8
			c-0.5-0.7-1-1.4-1.5-2.2c-1.3-1.9-2.6-3.8-3.5-6c-0.3-0.7-0.6-1.3-1-1.9c-0.6-1-1.3-1.9-2-2.8c-0.9-1.2-1.9-2.5-2.8-3.7
			c-0.9-1.2-1.8-2.3-2.4-3.7c-0.7-1.8-1.7-3.4-2.7-5c-0.3-0.5-0.8-1-1.2-1.5c-0.4-0.5-1-0.6-1.6-0.4c-1.5,0.7-2.9,1.6-4.1,2.8
			c-0.6,0.7-1.2,1.4-1.9,2c-1.2,1-2.5,1.9-4.2,2c-1.1,0.1-2.1-0.1-2.9-0.9c-0.2-0.2-0.5-0.5-0.7-0.7c-0.5-0.4-0.9-0.4-1.4,0.1
			c-0.3,0.3-0.5,0.6-0.7,1c-1.3,2.1-2.5,4.2-3.8,6.4c-0.6,1-1,2.2-1.3,3.4c-0.2,0.7-0.3,1.5-0.5,2.2c-0.1,0.4-0.2,0.7-0.3,1
			c0.4,0.7,0.9,1.1,1.5,1.5c1.7,1.1,3.3,2.2,5,3.3c0.1,0.1,0.2,0.2,0.3,0.3c2.6,2.2,5.3,4.2,8,6.1c0.5,0.4,1.1,0.7,1.6,1
			c1.5,0.9,3,1.8,4.6,2.6c2,1.1,4.1,2.2,6.2,3.3c1.5,0.7,3,1.2,4.7,1.3c0.2,0,0.4,0.1,0.5,0.2c1,0,1.9,0,2.9,0
			c0.2,0,0.3-0.1,0.5-0.1c0.9,0,1.7-0.2,2.6-0.4c2.1-0.5,4.2-1.3,6.2-2.4c0.2-0.1,0.5-0.2,0.7-0.4
			C450,636.1,450.1,635.7,449.9,635.2z"/>
		<path class="st35" d="M442.1,643.5c-0.4-0.1-0.8-0.1-1.2-0.2c-0.9-0.2-1.8-0.4-2.7-0.5c-1.1-0.2-2.2-0.4-3.3-0.6
			c-0.6-0.1-1.3-0.3-1.9-0.6c-1.4-0.6-2.8-0.9-4.2-1.2c-1.9-0.3-3.6-1.1-5.1-2.2c-0.8-0.6-1.5-1.4-2-2.3c-0.5-1-0.9-2-1.2-3.1
			c-0.2-1,0.1-1.7,0.7-2.4c0.9-1,2-1.7,3.2-1.9c0.9-0.2,2-0.3,2.8,0.3c0.1,0,0.2,0.1,0.2,0.1c1.1,1.2,2.6,2.1,3.3,3.7
			c0.2,0.5,0.6,1,1.1,1.3c0.7,0.5,1.4,1.1,2.1,1.6c0.9,0.7,1.9,1,3,1c1.3,0.1,2.6,0.1,3.9-0.2c0.6-0.2,1.3-0.3,1.8-0.5
			c1.5-0.7,3.1-1,4.7-1.3c0.6-0.1,1.2-0.2,1.8-0.3c1.8-0.3,2.6,0.6,2.8,2c0.2,1.6-0.1,3.2-1.2,4.5c-0.9,1.1-2.2,1.8-3.5,2.2
			c-1,0.3-2,0.6-3,0.6c-0.1,0-0.1,0.1-0.2,0.1C443.4,643.5,442.8,643.5,442.1,643.5z"/>
		<path class="st35" d="M402.6,619.5c0-0.9,0.4-1.8,1.2-2.5c0.7-0.6,1.3-0.8,2.1-0.3c1.1,0.5,2.1,1.2,2.6,2.5c0.2,0.5,0.6,0.9,1.2,1
			c0.9,0.3,1.8,0.6,2.7,0.9c1,0.3,1.9,0.9,2.8,1.6c0.3,0.3,0.6,0.7,0.8,1.1c0.3,0.5,0.5,1,0.7,1.5c0.3,0.6,0.7,1.2,1,1.8
			c0.4,0.7,0.9,1.3,1.4,2c0.1,0.2,0.3,0.5,0.4,0.7c0.2,0.4,0,0.8-0.3,1c-0.2,0.1-0.5,0.2-0.7,0.3c-0.7,0.2-1.5,0.3-2.2,0.2
			c-0.9-0.1-1.8-0.1-2.7,0c-1.8,0.1-3.3-0.5-4.7-1.7c-0.7-0.6-1.5-1.1-2.3-1.7c-1.1-0.7-1.7-1.7-2-2.9c-0.2-0.9-0.6-1.7-1.1-2.5
			C402.9,621.6,402.6,620.6,402.6,619.5z"/>
		<path class="st38" d="M434.7,600.4c1.1,0.2,2.2,0.3,3.2,0.5c1,0.2,1.9,0.7,2.7,1.4c0.9,0.8,0.8,2.1-0.3,2.7
			c-0.3,0.2-0.7,0.3-1.1,0.4c-1.1,0.3-2.1,0.4-3.2,0.3c-1-0.2-2-0.4-3-0.7c-0.8-0.2-1.6-0.6-2.5-0.9c-0.7-0.3-1.3-0.5-2-0.8
			c-0.9-0.3-1.6-0.8-2-1.8c0.1-0.2,0.2-0.4,0.4-0.6c1.7-1.7,3.6-3.1,5.8-4c1.3-0.6,2.6-1,4.1-1.2c0.9-0.1,1.8-0.1,2.6,0.3
			c1,0.5,1.1,1.6,0.4,2.4c-0.5,0.5-1.2,0.8-1.8,1.1C436.9,599.7,435.8,600,434.7,600.4z M440,603.4c-0.7-0.9-1.6-1.3-2.7-1.5
			c-1.1-0.2-2.2-0.4-3.4-0.3c-0.6,0-1.3,0.1-1.9,0.1c-0.8,0-1.6,0.1-2.3,0.2c-0.3,0-0.6,0.1-1.1,0.2c0.6,0.2,1.1,0.4,1.6,0.6
			c1.7,0.8,3.5,1.4,5.5,1.7c1.2,0.2,2.4,0,3.5-0.2C439.6,604,439.9,603.8,440,603.4z M439.1,597.1c-0.3-0.4-0.7-0.5-1.1-0.5
			c-0.9-0.1-1.8,0.2-2.7,0.4c-2.1,0.6-4,1.6-5.8,2.9c-0.1,0.1-0.2,0.2-0.4,0.5c2.9-0.5,5.6-1.2,8.2-2.1
			C438,598,438.7,597.8,439.1,597.1z"/>
		<path class="st38" d="M431,605.6c-0.5,0-0.8,0-1.1,0.1c-1.3,0.3-2.5,0.8-3.5,1.6c-1,0.7-2,1.5-3,2.3c-0.1,0.1-0.2,0.1-0.2,0.1
			c-0.4,0-0.6-0.2-0.7-0.7c0.2-0.5,0.7-0.9,1.1-1.2c1.5-1.3,3.3-2.3,5.2-3c0.7-0.2,1.4-0.3,2.2-0.1C431,605,431,605.3,431,605.6z"/>
		<path class="st38" d="M435.3,611.6c0.3,0.6,0.2,0.9-0.4,1c-1,0.1-1.8,0.5-2.6,0.8c-1.3,0.7-2.5,1.5-3.6,2.5
			c-0.3,0.3-0.6,0.4-1,0.2c-0.2-0.5-0.2-0.9,0.3-1.2c1.4-1.1,2.9-2.1,4.5-2.8C434,611.5,434.2,611.5,435.3,611.6z"/>
		<path class="st38" d="M429.8,618.5c0.1-0.6,0.5-0.9,0.9-1.2c1.9-1.4,4.1-2.3,6.4-2.8c0.3,0.1,0.5,0.3,0.5,0.6
			c0,0.3-0.3,0.4-0.5,0.5c-1,0.4-1.9,0.7-2.9,1.1c-1.2,0.5-2.4,1.2-3.4,2.1C430.4,619.1,430.2,619,429.8,618.5z"/>
		<path class="st38" d="M426.4,612.8c-0.6-0.5-0.7-0.8-0.4-1.2c0.1-0.2,0.3-0.5,0.5-0.7c1.6-1.3,3.5-2.2,5.5-2.9
			c0.3-0.1,0.5-0.2,0.9,0.1c0,0.2,0,0.4,0,0.7c-0.8,0.3-1.6,0.6-2.3,1c-1.1,0.5-2.2,1.1-3.2,2c-0.2,0.2-0.3,0.4-0.5,0.6
			C426.7,612.6,426.5,612.7,426.4,612.8z"/>
		<path class="st38" d="M439.3,618.7c-1.3,0.2-2.5,0.6-3.6,1.2c-1.1,0.6-2.1,1.2-3.1,1.8c-0.6-0.3-0.7-0.8-0.1-1.2
			c0.4-0.3,0.8-0.5,1.1-0.7c1.4-0.8,2.9-1.5,4.5-1.9c0.4-0.1,0.8-0.1,1.3,0C439.3,618.1,439.3,618.3,439.3,618.7z"/>
		<path class="st38" d="M434.7,624.5c-0.3-0.6-0.2-0.8,0.2-1.1c1.4-0.9,2.9-1.5,4.5-1.9c0.4-0.1,0.9-0.2,1.3-0.3
			c0.4-0.1,0.7-0.1,0.9,0.4c0,0.5-0.3,0.6-0.7,0.7c-1.3,0.3-2.7,0.7-3.9,1.3c-0.5,0.2-0.9,0.5-1.4,0.8
			C435.2,624.6,435.2,624.6,434.7,624.5z"/>
		<path class="st39" d="M409.2,612.7c1.4,0.2,2.7,0.8,3.7,1.9c1.1,1.3,2.1,2.6,3.1,3.9c0.5,0.7,1,1.4,1.6,2c0.9,0.9,2.1,1.3,3.3,1.6
			c1,0.3,2,0.5,3,0.9c1,0.3,1.8,0.8,2.4,1.7c1.1,1.4,2.6,2.3,4.5,2.7c1,0.2,2,0.7,3,1c0.3,0,0.7,0,1,0c0.8-0.4,1-1.1,0.9-1.9
			c-0.4-1.6-1-3.1-2.2-4.2c-1-0.9-1.9-1.8-2.9-2.6c-1-0.8-1.8-1.8-2.2-3.1c-0.7-1.7-1.7-3.2-3.1-4.3c-1.1-1-2.1-2.1-2.5-3.6
			c-0.3-1-0.7-2-1-3c-0.1-0.4-0.2-0.8-0.3-1.2c-0.3,0.3-0.6,0.7-0.9,1c0,0.1,0.1,0.2,0.1,0.4c0.4,1.2,0.8,2.3,1.2,3.5
			c0.4,1.3,1.2,2.5,2.3,3.4c1.5,1.2,2.6,2.7,3.3,4.5c0.3,0.7,0.7,1.5,1.2,2.1c0.7,0.8,1.6,1.5,2.4,2.3c0.6,0.5,1.2,1.1,1.8,1.7
			c1,1.1,1.5,2.4,1.8,3.8c0,0.1,0,0.2,0,0.3c-0.4,0.1-0.7,0.1-1.1,0c-1.2-0.4-2.3-0.7-3.5-1c-0.7-0.2-1.4-0.6-1.9-1.1
			c-0.5-0.4-0.9-0.9-1.4-1.4c-0.6-0.7-1.4-1.2-2.2-1.5c-0.7-0.3-1.4-0.5-2.1-0.7c-1-0.3-2.1-0.6-3.1-1c-0.5-0.2-0.9-0.5-1.3-0.9
			c-0.5-0.6-1-1.2-1.5-1.8c-1.1-1.4-2.1-2.9-3.4-4.1c-1.3-1.2-2.8-1.8-4.6-1.8c-0.4,0-0.8,0-1.2,0.1c-0.2,0.4-0.4,0.7-0.7,1.1
			c0.6,0,1.2-0.1,1.8-0.2C408.8,612.7,409,612.7,409.2,612.7z"/>
		<path class="st7" d="M304.6,272.9c0-0.7,0-1.4,0.1-2.1c0.5-4,1.6-8,1.6-12.1c0-3.1-0.7-6.2-0.6-9.3c0.1-2.2,0.5-4.4,1-6.5
			c1.7-8,3.4-16.1,7-23.4c0.6-1.2,1.6-4.2,2.6-5.1c2.3-2,6.6-2.4,9.5-3.3c4-1.3,7.7-0.8,11.8-2.1c0.5-0.1,0.9-0.3,1.4-0.3
			c1.3,0.1,2.1,1.3,2.9,2.3c2.8,3.6,6,4.6,10.4,5.1c1.2,0.1,2.4,0.2,3.5,0.2c1.2,0,2.4-0.1,3.6,0c1.3,0,2.6-0.4,3.8-0.6
			c1.8-0.4,3.5-0.8,5.3-1.2c2.2-0.6,4.5-1.2,6.5-2.4c1.6-0.9,3.1-1.9,4.4-3.3c0.6-0.6,1.3-1.2,1.9-1.9c0.5-0.5,0.9-1.1,1.3-1.7
			c0.3-0.5,0.8-0.6,1.3-0.6c1.4,0,3.7,2.8,5.1,2.4c7.1-1.8,14.3,1.1,20.2,5.4c5.2,3.7,9,9.3,10.7,15.4c1.9,7.1,1.3,10.8,4.2,17.6
			c2.7,6.4,3.1,14.8,2.4,21.8c0,0.4-0.1,0.9-0.4,1.2c-0.3,0.4-0.8,0.6-1.2,0.9c-2.8,1.3-5.5,2.7-8.3,4c-1.4,0.7-2.9,1.4-4.5,1.6
			c-0.8,0.1-1.6,0.1-2.4,0.1c-2.6-0.1-7-1.1-9.3,0.4c-2.5,1.6-2.8,8.6-3.5,11.4c-0.3,1.2-0.6,2.5-0.6,3.8c0,2.4,0.7,5.1-0.7,7
			c-0.9,1.1-2.4,1.7-3.8,1.7c-1.4,0-2.8-0.4-4.2-0.8c-4.6-1.3-9.1-2.9-13.8-3.8c-0.1,0-0.3,0-0.5,0c-0.1,0.2-0.2,0.5-0.2,0.7
			c-0.5,1.4-1.1,2.8-2.1,3.9c-0.6,0.6-1.1,1.3-1.7,1.8c-1,0.9-2.2,1.2-3.4,1.5c-1.4,0.4-2.7,0.4-4.1,0.2c-1.5-0.2-2.9-0.7-4-1.6
			c-1.4-1.1-2.6-2.3-3.2-4c-0.9-2.4,0.2-2.6-1.9-3.3c-2.2-0.8-5.7,0.2-8,0.6c-2.8,0.5-5.8,0.8-8.5,0.1c-2.8-0.7-5.4-2.7-6-5.5
			c-0.2-1.1-0.1-2.2-0.1-3.3c0.1-1.8,0-3.6-0.3-5.3c-1.7,0.7-2.8,1.3-4.7,1.6c-1.5,0.2-3-0.1-4.5-0.3c-3.8-0.5-13.1-1.2-15.2-5.1
			C304.8,275.4,304.6,274.1,304.6,272.9z"/>
		<path class="st40" d="M371.4,288.6c-0.7-1.2-1.7-2.1-2.9-2.7c-1.6-0.8-3.4-1.2-5.2-0.8c-1.9,0.4-3.6,1.2-5.1,2.4
			c-1.4,1.2-2.8,2.5-3.9,4.1c-0.6,0.8-1.1,1.7-1.6,2.6c0.3,0,0.7-0.1,1-0.1c0.1,0,0.2,0,0.3,0c0.1-0.2,0.2-0.4,0.3-0.5
			c0.9-1.3,1.8-2.5,3-3.6c1.3-1.2,2.6-2.4,4.2-3c1.2-0.5,2.4-1,3.8-0.8c1.5,0.2,2.8,0.6,4,1.7c0.8,0.7,1.4,1.5,1.8,2.4
			c0.1,0.2,0.2,0.3,0.3,0.5c0.6,1.4,1.2,2.8,1.9,4.1c0,0,0,0.1,0,0.1c0-0.1,0.1-0.3,0.2-0.5c0.2,0,0.3,0,0.5,0
			c0.2,0,0.4,0.1,0.5,0.1c0-0.1-0.1-0.3-0.1-0.4C373.4,292.3,372.4,290.4,371.4,288.6z M389.3,203.8c-0.1,0.2-0.2,0.4-0.2,0.5
			c-0.5,1.2-0.9,2.5-1.4,3.7c-0.4,0.9-0.8,1.7-1.3,2.5c-1,1.4-2.1,2.8-3.2,4.1c-0.7,0.9-1.6,1.6-2.5,2.3c-1,0.7-1.9,1.4-2.9,2
			c-1.4,0.8-2.8,1.4-4.3,2c-3,1.2-6,1.9-9.2,2.1c-0.2,0-0.5,0.1-0.7,0.1c-1,0.1-1.9,0.2-2.9,0.2c-1.2,0-2.4,0-3.6-0.1
			c-1.2-0.1-2.3-0.1-3.5-0.2c-2.2-0.2-4.3-0.7-6.3-1.6c-1-0.4-2-0.9-2.9-1.5c-0.9-0.6-1.8-1.3-2.7-1.9c-1.1-0.8-2.2-1.6-3-2.7
			c-0.3-0.4-0.6-0.7-1-1.1c-1-1-1.9-2.1-2.6-3.3c-0.4,0-0.7,0.1-1.1,0.2c0.4,0.7,0.8,1.4,1.2,2c0.8,1.1,1.8,2.1,2.7,3.1
			c0.7,0.7,1.3,1.4,2.1,2.1c0.5,0.4,1.1,0.8,1.6,1.1c0.8,0.6,1.6,1.2,2.4,1.7c1.3,0.9,2.8,1.4,4.3,1.9c2.3,0.9,4.6,1.2,7,1.3
			c0.7,0,1.5,0,2.2,0c1.6,0,3.1,0.1,4.7,0c1.5-0.1,2.9-0.4,4.4-0.6c1.8-0.1,3.6-0.6,5.3-1.1c3.1-1,6.1-2.3,8.8-4.3
			c1.4-1,2.7-2,3.8-3.4c0.8-1.1,1.7-2.1,2.5-3.1c0.4-0.5,0.8-1.1,1.1-1.6c0.8-1.4,1.4-2.9,1.9-4.4c0.3-0.8,0.5-1.5,0.8-2.3
			c-0.3,0-0.5,0-0.8,0C389.6,203.8,389.5,203.8,389.3,203.8z"/>
		<path class="st24" d="M344.8,206.5c0.9-0.3,1-0.2,1.3,0.5c0.8,1.9,1.7,3.8,2.9,5.5c0.6,0.9,1.1,1.9,1.8,2.9
			c0.6,0.9,1.2,1.9,1.9,2.8c1.1,1.5,2.2,3,3.5,4.3c0.9,0.9,1.6,1.9,2.5,2.7c0.9,0.8,1.9,1.5,2.8,2.2c0.7,0.5,1.5,1,2.2,1.5
			c0.3,0.2,0.6,0.2,0.9,0.4c0.1-0.2,0.2-0.4,0.3-0.5c0.3-0.5,0.6-1,1-1.5c0.4-0.6,1-0.8,1.7-0.8c0.5,0,1-0.1,1.5,0
			c1.1,0.1,1.9,0.6,2.5,1.6c1-0.8,1.9-1.7,2.6-2.7c0.9-1.3,1.9-2.6,2.4-4.1c0.3-0.9,0.7-1.7,1-2.5c0.6-1.7,1.3-3.3,1.9-5
			c0.8-2.8,1.5-5.6,1.9-8.4c0.1-0.6,0.1-1.3,0.1-1.9c0-0.1,0-0.2,0-0.2c0-0.5,0.3-0.9,0.7-0.8c0.4,0,0.8,0.4,0.7,0.9
			c-0.1,2.1-0.2,4.2-0.8,6.2c-0.6,2-1,4.1-1.7,6c-1,2.9-2.1,5.9-3.6,8.6c-1,1.7-2.1,3.3-3.7,4.6c-0.2,0.2-0.5,0.4-0.6,0.7
			c-0.1,0.2-0.2,0.5-0.1,0.7c0.3,1.7-0.3,3.1-1.6,4.2c-1.2,0.9-3.9,0.9-5.1,0c-0.7-0.6-1-1.5-1.2-2.4c-0.1-0.3-0.1-0.5-0.1-0.7
			c-0.8-0.4-1.6-0.7-2.3-1.1c-1.1-0.7-2.1-1.5-3.1-2.2c-0.6-0.5-1.3-1-1.9-1.6c-0.7-0.7-1.4-1.5-2.1-2.2c-0.8-0.9-1.7-1.9-2.4-2.9
			c-1-1.3-2-2.6-2.8-3.9c-1.2-1.9-2.4-3.9-3.5-5.9c-0.6-1.1-1.1-2.3-1.5-3.5C344.8,207.2,344.8,206.9,344.8,206.5z M365.9,231
			c0.1,0.8,0.4,1.5,1,1.9c0.7,0.4,1.5,0.5,2.3,0.3c1.6-0.4,2.4-2.3,1.7-3.8c-0.5-1-1.1-1.6-2.3-1.6c-0.1,0-0.2,0-0.3,0
			c-0.5-0.1-0.8,0-1.1,0.5c-0.1,0.1-0.2,0.3-0.3,0.4C365.9,229.1,366,230.1,365.9,231z"/>
		<path class="st37" d="M346.5,204.9c0.1-0.6,0.3-0.8,0.8-0.9c0.7,0.3,1,1,1.4,1.6c0.9,1.3,1.6,2.6,2.6,3.8c1.4,1.8,2.6,3.7,4.3,5.2
			c0.5,0.5,0.9,1.1,1.4,1.6c1.8,1.7,3.8,3,6.1,4c2,0.9,3.9,0.5,5.6-0.9c1.2-1,2.2-2.2,3.2-3.4c1.4-1.7,2.5-3.6,3.5-5.5
			c0.5-0.9,0.8-1.8,1.2-2.8c0.5-1.2,1-2.4,1.4-3.6c0.3-0.9,0.5-1.9,0.7-2.9c0,0,0.1-0.1,0.3-0.2c0.6-0.3,1.1,0.1,1,0.8
			c-0.1,1.3-0.5,2.5-0.9,3.8c-0.5,1.3-1,2.7-1.6,4c-1,2.3-2.2,4.4-3.6,6.4c-0.9,1.2-1.8,2.4-2.9,3.5s-2.2,2-3.7,2.5
			c-1.5,0.5-3.1,0.4-4.6-0.2c-1.6-0.6-3.1-1.6-4.6-2.5c-1.4-0.9-2.5-2.1-3.6-3.3c-1.1-1.1-2.1-2.3-2.9-3.5c-1.4-1.9-2.7-3.9-4-5.9
			C347.1,205.9,346.8,205.4,346.5,204.9z"/>
		<g>
			<g>
				<path class="st40" d="M328.8,244.7c0.1,12-0.2,24-1.1,36c0,0.3,0.4,0.3,0.4,0c0.9-12,1.2-24,1.1-36
					C329.2,244.4,328.8,244.4,328.8,244.7L328.8,244.7z"/>
			</g>
		</g>
		<g>
			<g>
				<path class="st40" d="M307.6,273.6c5.2,4.2,13.1,4.8,19.6,4.7c0.3,0,0.3-0.4,0-0.4c-6.3,0.1-14.2-0.5-19.3-4.6
					C307.7,273.1,307.4,273.4,307.6,273.6L307.6,273.6z"/>
			</g>
		</g>
		<g>
			<g>
				<path class="st40" d="M323.2,276.1c1.2,0.4,2.5,0.4,3.6-0.2c0.2-0.1,0-0.5-0.2-0.4c-1.1,0.5-2.2,0.6-3.3,0.2
					C323.1,275.6,323,276,323.2,276.1L323.2,276.1z"/>
			</g>
		</g>
		<g>
			<g>
				<path class="st40" d="M322.8,273.5c1,0.3,1.9,0.5,2.9,0.8c0.3,0.1,0.4-0.3,0.1-0.4c-1-0.3-1.9-0.5-2.9-0.8
					C322.6,273,322.5,273.4,322.8,273.5L322.8,273.5z"/>
			</g>
		</g>
		<g>
			<g>
				<path class="st40" d="M319.9,218.3c1.3-0.3,3.1,4.9,3.4,5.6c0.6,1.8,1.1,3.6,1.6,5.3c0.1,0.3,0.5,0.1,0.4-0.1
					c-0.7-2.6-1.4-5.3-2.6-7.8c-0.5-0.9-1.5-3.8-2.9-3.4C319.5,217.9,319.6,218.3,319.9,218.3L319.9,218.3z"/>
			</g>
		</g>
		<g>
			<g>
				<path class="st40" d="M397.6,239.1c1.6,6.3,2.9,12.6,2.8,19.1c-0.1,5.8-0.2,11.4,0.5,17.1c0,0.3,0.5,0.3,0.4,0
					c-0.8-6.3-0.4-12.4-0.4-18.8c0-6-1.4-11.8-2.8-17.6C398,238.7,397.5,238.8,397.6,239.1L397.6,239.1z"/>
			</g>
		</g>
		<g>
			<g>
				<path class="st40" d="M401,270.2c1.7,1.7,3.9,1.6,6,0.7c2.5-1.1,4.7-2.2,7.4-3c2.2-0.7,4.3-1.5,6.4-2.4c0.2-0.1,0-0.5-0.2-0.4
					c-3,1.3-6.1,1.9-9.2,3.1c-3.1,1.2-6.8,4.9-10.1,1.7C401.1,269.7,400.8,270,401,270.2L401,270.2z"/>
			</g>
		</g>
		<g>
			<g>
				<path class="st40" d="M402.7,268.8c1.4,0.3,2.7,0.2,4-0.2c0.3-0.1,0.1-0.5-0.1-0.4c-1.2,0.4-2.5,0.5-3.8,0.2
					C402.5,268.3,402.4,268.8,402.7,268.8L402.7,268.8z"/>
			</g>
		</g>
		<g>
			<g>
				<path class="st40" d="M395.5,219.1c0.2-4.8,3.4-9.1,5.9-13.1c0.1-0.2-0.2-0.4-0.4-0.2c-2.5,4.1-5.7,8.4-5.9,13.3
					C395,219.4,395.4,219.4,395.5,219.1L395.5,219.1z"/>
			</g>
		</g>
		<g>
			<g>
				<path class="st40" d="M383.7,287.9c3-7.7,5.8-15.3,6.6-23.6c0-0.3-0.4-0.3-0.4,0c-0.9,8.2-3.7,15.8-6.6,23.5
					C383.2,288,383.6,288.1,383.7,287.9L383.7,287.9z"/>
			</g>
		</g>
		<g>
			<g>
				<path class="st40" d="M386.8,288.5c0.7-1.5,1.3-3,1.9-4.5c0.1-0.3-0.3-0.4-0.4-0.1c-0.5,1.5-1.1,3-1.8,4.4
					C386.3,288.6,386.6,288.8,386.8,288.5L386.8,288.5z"/>
			</g>
		</g>
		<g>
			<g>
				<path class="st40" d="M337,259.8c-0.4,10,6.4,17.7,9.6,26.7c0.1,0.2,0.5,0.1,0.4-0.1c-3.2-8.9-10-16.6-9.6-26.6
					C337.4,259.5,337,259.5,337,259.8L337,259.8z"/>
			</g>
		</g>
		<g>
			<g>
				<path class="st40" d="M347.2,280.1c0.8,1.7,1.4,3.5,1.7,5.5c0,0.3,0.5,0.1,0.4-0.1c-0.3-1.9-0.9-3.8-1.8-5.6
					C347.5,279.6,347.1,279.9,347.2,280.1L347.2,280.1z"/>
			</g>
		</g>
		<g>
			<g>
				<path class="st40" d="M331.9,287c-0.6,1.1,1.3,2.2,2.1,2.5c2.6,1.1,5.5,0,8.2,0.7c0.3,0.1,0.4-0.3,0.1-0.4
					c-1.5-0.4-2.9-0.3-4.5-0.3c-0.9,0-1.8,0.1-2.7-0.1c-0.6-0.1-3.5-1.1-2.9-2.2C332.4,287,332,286.8,331.9,287L331.9,287z"/>
			</g>
		</g>
		<g>
			<g>
				<path class="st40" d="M390.8,207.7c-1.8,4.3-4.8,7.9-8.6,10.5c-0.3,0.2,0,0.7,0.3,0.5c4-2.7,7-6.3,8.8-10.7
					C391.4,207.6,390.9,207.3,390.8,207.7L390.8,207.7z"/>
			</g>
		</g>
		<g>
			<g>
				<path class="st40" d="M337.2,218.1c2.8,2.4,5.9,4.3,9.3,5.6c0.3,0.1,0.5-0.4,0.1-0.6c-3.4-1.2-6.4-3.1-9.1-5.4
					C337.3,217.4,336.9,217.8,337.2,218.1L337.2,218.1z"/>
			</g>
		</g>
		<g>
			<g>
				<path class="st15" d="M367.8,149.7c5.7-1.1,10.9-3.9,13.4-9.3c1.7,26.2-2.5,52.3-2.3,78.4c0,1.1,0.2,2.3,1.1,2.7
					c2.8-3.9,6-7.1,8.3-11.5c2.2-4.2,4-8.6,5.8-13c3.1-7.7,6.2-15.5,7.1-23.7c1-8.7-0.4-17.5-2.4-26c-0.6-2.7-1.3-5.5-2.6-8
					c-1.5-3.1-4-5.8-6.9-7.7c-1.1-0.7-2.9-1-3.8-1.8c-1.2-0.9-1.5-2.5-2.5-3.7c-2-2.5-4.5-4.4-7.4-5.8c-4.6-2.3-9.9-3.1-15.1-3
					c-6.4,0.1-13,1.5-18.2,5.2c-3.2,2.2-5.8,5.2-8,8.4c-2.4,3.4-4.5,7.1-5.3,11.2s-0.3,8.6,2.2,11.9c1.8,2.4,4.4,4.1,5.6,6.7
					c0,0,0,0,0,0c1,2.2,1.2,4.5,2.4,6.6c1.7-1.7,0.5-5.1,1.8-7.8c1.7-3.5,5.4-6.1,8.9-7.3c0.5-0.2,1-0.3,1.5-0.5
					C356.9,150.5,362.5,150.7,367.8,149.7z"/>
			</g>
		</g>
		<g>
			<g>
				<path class="st31" d="M367,162.6c-0.5,2.8-0.8,6,0.4,8.6c0.5,1.2,1.3,1.9,2.2,2.8c0.6,0.6,1.3,0.8,1,1.9c-0.5,1.7-3.6,2.3-5,2.2
					c-0.6,0-0.6,0.9,0,1c2,0.1,6.7-1.2,6.4-4.2c-0.1-0.8-0.5-0.8-1-1.3c-3.5-3-3.8-6.5-3-10.9C368.1,162.2,367.1,162,367,162.6
					L367,162.6z"/>
			</g>
		</g>
		<g>
			<g>
				<path class="st41" d="M346.1,526c9.1,3.4,18.6-1.5,27.8,1c0.5,0.1,0.7-0.6,0.2-0.7c-9.2-2.5-18.8,2.4-27.8-1
					C345.9,525.1,345.7,525.8,346.1,526L346.1,526z"/>
			</g>
		</g>
		<g>
			<g>
				<path class="st41" d="M390.8,527c6.6-1,13.7-2.9,20.4-2c0.5,0.1,0.7-0.7,0.2-0.7c-6.8-0.9-14.1,1-20.8,2
					C390.2,526.4,390.4,527.1,390.8,527L390.8,527z"/>
			</g>
		</g>
		<g>
			<g>
				<path class="st41" d="M362.8,316.4c-2.3,21.2,3.7,42.3,1.2,63.5c-0.1,0.5,0.7,0.5,0.8,0c2.5-21.2-3.5-42.3-1.2-63.5
					C363.6,315.9,362.9,315.9,362.8,316.4L362.8,316.4z"/>
			</g>
		</g>
		<g>
			<g>
				<path class="st41" d="M368.2,308.9c0.3,3.9,3.9,22.5-1.7,23.6c-0.5,0.1-0.3,0.8,0.2,0.7c2.9-0.6,3.6-2.9,3.7-5.7
					c0.2-6.1-0.9-12.6-1.4-18.7C368.9,308.4,368.1,308.4,368.2,308.9L368.2,308.9z"/>
			</g>
		</g>
		<g>
			<g>
				<path class="st41" d="M324.6,413.4c10.1,3.9,20.5,1.9,30.6-0.6c0.5-0.1,0.3-0.8-0.2-0.7c-10.1,2.5-20.2,4.5-30.2,0.6
					C324.3,412.5,324.1,413.2,324.6,413.4L324.6,413.4z"/>
			</g>
		</g>
		<g>
			<g>
				<path class="st41" d="M330.2,420.6c-0.1,0.1-0.1,0.2-0.2,0.3c-0.2,0.2,0,0.6,0.3,0.6c5.1-0.4,10.1-1.3,15-2.8
					c0.5-0.1,0.3-0.9-0.2-0.7c-2.2,0.7-4.5,1.3-6.8,1.8c-1.2,0.2-2.5,0.4-3.7,0.6c-0.9,0.1-3.2-0.1-3.7,0.7
					C331.2,420.5,330.5,420.2,330.2,420.6L330.2,420.6z"/>
			</g>
		</g>
		<g>
			<g>
				<path class="st41" d="M411.2,434.4c-7.2,2.4-14.6,3.1-22.1,2.3c-0.5,0-0.5,0.7,0,0.8c7.6,0.9,15,0.1,22.3-2.3
					C411.9,435,411.7,434.3,411.2,434.4L411.2,434.4z"/>
			</g>
		</g>
		<g>
			<g>
				<path class="st42" d="M383.8,305.8c1.5,7.1,10.5,11.5,17.2,11.1c0.6,0,0.6-1,0-1c-6.3,0.4-14.9-3.7-16.3-10.4
					C384.6,305,383.6,305.2,383.8,305.8L383.8,305.8z"/>
			</g>
		</g>
		<g>
			<g>
				<path class="st41" d="M349.8,304.3c-3.5,7.6-8.5,15-17.2,16.8c-0.5,0.1-0.3,0.8,0.2,0.7c8.9-1.8,14.1-9.3,17.6-17.1
					C350.6,304.3,350,303.9,349.8,304.3L349.8,304.3z"/>
			</g>
		</g>
		<g>
			<g>
				<path class="st41" d="M341.6,299.5c2.4,0.2,4.8,0.2,7.2,0.1c2.5-0.2,5-0.6,7.4,0.3c0.5,0.2,0.6-0.5,0.2-0.7
					c-2.2-0.9-4.3-0.6-6.6-0.4c-2.8,0.2-5.5,0.2-8.2,0C341.1,298.8,341.1,299.5,341.6,299.5L341.6,299.5z"/>
			</g>
		</g>
		<g>
			<g>
				<path class="st42" d="M374.4,299.4c4.5,0.4,9,1,13.5,0.4c0.6-0.1,0.4-1-0.3-1c-4.4,0.6-8.8,0-13.2-0.4
					C373.8,298.3,373.8,299.3,374.4,299.4L374.4,299.4z"/>
			</g>
		</g>
		<g>
			<g>
				<path class="st15" d="M340,134.9c6.8-7.2,16.5-10.4,26.2-8.4c1.3,0.2,1.8-1.7,0.5-1.9c-10.4-2.1-20.8,1.2-28.1,9
					C337.6,134.4,339.1,135.8,340,134.9L340,134.9z"/>
			</g>
		</g>
		<g>
			<g>
				<path class="st4" d="M395.1,159.8c0.4,8.9-2.1,17.2-4.8,25.5c-0.2,0.5,0.6,0.7,0.8,0.2c2.8-8.4,5.3-16.8,4.8-25.7
					C395.9,159.3,395.1,159.3,395.1,159.8L395.1,159.8z"/>
			</g>
		</g>
		<g>
			<g>
				<path class="st4" d="M391.9,156.3c0.1,3.9-0.1,7.8-0.6,11.6c-0.1,0.5,0.7,0.5,0.8,0c0.5-3.9,0.7-7.7,0.6-11.6
					C392.7,155.8,391.9,155.8,391.9,156.3L391.9,156.3z"/>
			</g>
		</g>
		<g>
			<g>
				<path class="st4" d="M376.6,131.2c-7.6-7.9-19.1-5.4-27.8-0.6c-9,5-15.5,13.5-15.9,23.9c0,0.4,0.5,0.4,0.6,0
					c0.4-9.7,6.1-17.7,14.2-22.7c8.5-5.2,20.6-8.4,28.4-0.3C376.5,131.9,376.9,131.5,376.6,131.2L376.6,131.2z"/>
			</g>
		</g>
		<g>
			<g>
				<path class="st4" d="M347.2,127.7c4.2-2,8.6-3.1,13.2-3.3c0.4,0,0.4-0.6,0-0.6c-4.7,0.2-9.2,1.3-13.5,3.4
					C346.6,127.4,346.9,127.8,347.2,127.7L347.2,127.7z"/>
			</g>
		</g>
		<g>
			<g>
				<path class="st4" d="M336.4,185.8c0.9,5.2,3.1,9.9,6.6,13.8c0.2,0.3,0.6-0.1,0.4-0.4c-3.4-3.9-5.6-8.5-6.5-13.6
					C336.8,185.3,336.3,185.5,336.4,185.8L336.4,185.8z"/>
			</g>
		</g>
		<g>
			<g>
				<path class="st4" d="M340.3,187.6c1.2,3.8,2.8,7.4,4.8,10.8c0.2,0.3,0.7,0,0.5-0.3c-2-3.4-3.6-6.9-4.7-10.7
					C340.7,187.1,340.2,187.3,340.3,187.6L340.3,187.6z"/>
			</g>
		</g>
	</g>
	<path class="st15" d="M358.1,165.6c0,1.8-0.9,3.2-2,3.3c-2.4,0.1-2-3.1-3-4.3c-0.1-0.1-0.7-0.2-0.8-0.3c-0.2-0.2-0.1-0.5,0.1-0.6
		c0.6-0.3,1.7-0.6,2.4-0.6C356.6,162.9,358,163.6,358.1,165.6z"/>
	<path class="st15" d="M372.6,165.8c0,1.7,0.8,3.1,1.9,3.1c2.3,0.1,1.9-3,2.9-4.1c0.1-0.1,0.6-0.2,0.8-0.3c0.2-0.2,0.1-0.5-0.1-0.6
		c-0.6-0.3-1.6-0.6-2.3-0.6C374,163.2,372.6,163.9,372.6,165.8z"/>
</g>
<g>
	<path class="st3" d="M199.2,456.5c-1.1-9.6-1.4-19.2-1.1-28.8c0.3-8.9-3-17.1-4.7-25.7c-1.3-6.5-1.7-13.2-1.7-19.8
		c0.1-10.1,1.1-20.8-3.8-29.6c-5.1-9.1-17-14.2-26.7-10.5c-9.8,3.7-15.2,14.4-17.2,24.7c-3.7,19.4,1.7,40.3,14.5,55.3
		c3,3.5,6.4,6.9,7.7,11.3c1.1,3.7,0.5,7.7,0.6,11.6c0.2,15.3,10.2,29,11.3,44.2c0.9,12.2-3.8,25.4,2.1,36.1c1.9,3.4,5.1,6.4,8.9,7.1
		s8.3-1.4,9.4-5.2c1-3.4-0.9-6.9-1.7-10.4c-2-8.5,2.4-17.1,4.1-25.7c2-10.5-0.1-21.3-1.4-31.9C199.4,458.2,199.2,457.4,199.2,456.5z
		"/>
	<path class="st13" d="M248.7,396.7c-1.7-5.1-4.9-9.7-9.5-12.5c-6.8-4.1-14.9-2.9-20.7,2.3c-6.3,5.7-6.2,13.7-7.4,21.6
		c-1.8,11.5-8.1,21.8-8.8,33.5c-0.5,8.1,1.9,16.2,1.4,24.3c-0.6,9.8-5.4,18.9-8.5,28.2c-2.1,6.3-3.4,12.9-3.9,19.4
		c-0.3,3.6,0,7.9,2.9,10c3.6,2.7,9.1,0.3,11.5-3.4s3-8.4,4.3-12.7c4.5-14.8,18.1-25.2,23.9-39.5c2.8-7,3.7-14.5,5.6-21.8
		s5-14.1,7.3-21.2c2.4-7.1,4.1-14.6,3.3-22.1C249.9,400.8,249.4,398.7,248.7,396.7z"/>
	<path class="st43" d="M197.4,518.7C197.4,518.7,197.4,518.7,197.4,518.7c0-0.2,0-0.3,0-0.5c0-0.2-0.1-0.5-0.1-0.7
		c-0.2-1.2-0.5-2.5-0.9-3.7v0c-0.2-0.7-0.4-1.4-0.7-2c-1-2.6-2.3-5.1-3.8-7.5c-3.7-5.8-8.6-10.9-13.9-15.6c-1.9-1.7-3.9-3.3-5.8-4.9
		c-13.2-10.8-27.7-20.9-44.4-24.9c-8-1.9-15.7-3.3-22.2,2.5c-5.3,4.7-8.7,12.4-6.2,19.5c2.4,6.9,9.5,11.3,16.6,13
		c7.1,1.8,14.6,1.6,21.8,2.6c13.3,1.8,26.6,8,34.1,19.1c0.4,0.6,0.8,1.2,1.2,1.9c1.9,3.1,3.5,6.3,5.9,8.9c1.5,1.7,3.4,3.1,5.4,3.9
		c0.2,0.1,0.4,0.2,0.6,0.2c1.8,0.6,3.6,0.8,5.5,0.2c1.2-0.4,2.4-1,3.3-1.9c0.6-0.5,1.1-1.2,1.6-1.9c0.9-1.3,1.5-2.8,1.8-4.4
		C197.4,521.4,197.5,520,197.4,518.7z"/>
	<path class="st9" d="M233.9,524.6v61.5c0,16.2-13.1,29.3-29.3,29.3h-31.2c-16.2,0-29.3-13.1-29.3-29.3v-61.5c0-4.3,3.5-7.8,7.8-7.8
		h74.3C230.4,516.8,233.9,520.3,233.9,524.6z"/>
	<g>
		<path class="st44" d="M199.6,507.6c0,0-0.1,0-0.1,0c-0.4,0-0.7-0.4-0.7-0.7c0-0.3,0.5-7.8,3.9-16.6c1.2-3.1,3-6.2,5-9.5
			c3.5-5.9,7.4-12.5,8.1-20.5c0.1-1.5,0.2-2.9,0.4-4.3c0.9-10.6,1.7-19.7,8-32.2c7-13.7,6.5-24.5,6.5-24.7c0-0.4,0.3-0.7,0.7-0.7
			s0.7,0.3,0.7,0.7c0,0.5,0.5,11.3-6.6,25.4c-6.2,12.3-7,21.3-7.9,31.7c-0.1,1.4-0.2,2.8-0.4,4.3c-0.8,8.3-4.8,15.1-8.3,21.1
			c-1.9,3.2-3.7,6.2-4.9,9.2c-3.3,8.6-3.8,16.1-3.8,16.1C200.2,507.3,199.9,507.6,199.6,507.6z"/>
	</g>
	<g>
		<path class="st44" d="M192.5,493.5c-0.4,0-0.7-0.3-0.7-0.6c0,0-0.7-6.8-1.4-13.3c-0.3-3.1-1.6-8-2.9-13.1
			c-1.4-5.3-2.7-10.8-3.2-14.8c-0.3-2.8-0.5-5.4-0.6-8.5c-0.3-5.5-0.6-11.8-2.2-21.3c-1.6-9-3.6-12.5-6.3-17.3
			c-1.8-3.1-3.8-6.7-6.3-12.5c-6.3-15.1-1.6-37.3-1.4-38.2c0.1-0.4,0.5-0.6,0.8-0.5c0.4,0.1,0.6,0.5,0.5,0.8
			c-0.1,0.2-4.8,22.7,1.4,37.4c2.4,5.8,4.4,9.3,6.2,12.4c2.8,4.9,4.9,8.5,6.5,17.8c1.7,9.6,2,16.2,2.2,21.5c0.1,3,0.3,5.7,0.6,8.4
			c0.5,3.9,1.9,9.4,3.2,14.6c1.3,5.2,2.6,10,2.9,13.3c0.7,6.5,1.4,13.3,1.4,13.3C193.3,493.1,193,493.4,192.5,493.5
			C192.6,493.5,192.5,493.5,192.5,493.5z"/>
	</g>
	<g>
		<path class="st13" d="M178.7,503.8c-0.2,0-0.4-0.1-0.6-0.3c-0.1-0.1-10-13.5-29.7-22.5c-19.8-9-36.2-8.5-36.4-8.5
			c-0.4,0-0.7-0.3-0.7-0.7c0-0.4,0.3-0.7,0.7-0.7c0.2,0,16.9-0.5,37,8.6c20.1,9.1,30.2,22.8,30.3,22.9c0.2,0.3,0.2,0.8-0.2,1
			C179,503.8,178.9,503.8,178.7,503.8z"/>
	</g>
</g>
<path class="st13" d="M222.7,542.2v0.8c0,1.1-0.7,2-1.8,2.2c-0.4,0.1-0.8,0.2-1.1,0.2c-5.4,0.8-11.1-0.3-16.3-1.9
	c-6.6-2.1-13.6-5.3-20.7-4c0,0,0,0-0.1,0c-0.4,0.1-0.7,0.1-1.1,0.2c0,0,0,0,0,0s0,0,0,0c-5.2,1.3-9,5.6-13.8,7.6
	c-4.6,1.9-9.2,1.4-13.7-0.6c-5.3-2.3-9.8-6.3-15.9-6c-0.9,0-1.6,0.1-2.4,0.3c-1.5,0.3-2.9-0.7-2.9-2.2v-0.1c0-1,0.7-2,1.7-2.2
	c3.8-1,8-0.6,11.7,0.8c4.5,1.7,8.4,5.1,13.2,6.1c5.8,1.2,10-2.8,14.6-5.6c0,0,0,0,0,0c0.1,0,0.1-0.1,0.2-0.1
	c2.1-1.2,4.1-2.1,6.2-2.6h0c1.5-0.4,3.1-0.6,4.6-0.6c1,0,2.1,0,3.1,0.1c0.5,0,1,0.1,1.4,0.1c5.3,0.7,10.6,2.5,16.1,4.1
	c4.9,1.5,9.9,2,14.5,1.1C221.4,539.7,222.7,540.7,222.7,542.2z"/>
<g class="st45">
	<g>
		<g>
			<path class="st6" d="M511,67.4c1.7,3.2,3.4,6.4,5.1,9.6c1.2,2.2,2.2,5.1,4.3,6.6c4.7,3.4,10.4-1.4,15.5-0.8
				c7.7,1,7.3,8.3,12.5,12c2.8,2,6.8,2.2,9-0.6c1.4-1.8-1.1-4.4-2.5-2.5c-1.2,1.5-3.8,0.8-5-0.2c-1.1-1-1.8-2.6-2.5-3.9
				c-0.9-1.6-1.8-3.2-3.1-4.5c-2.2-2.2-5.2-3.5-8.3-3.8c-4.3-0.5-8.6,2.6-12.5,1.1c-4.5-1.7-7.3-10.5-9.5-14.7
				C513,63.6,509.9,65.4,511,67.4L511,67.4z"/>
		</g>
	</g>
	<g>
		<g>
			<path class="st6" d="M672.3,101.4c3.9-2.2,7.3-7.3,12.2-5.9c4.2,1.2,6.9,4.2,11.6,3.7c3.6-0.4,6.7-2.6,9.7-4.5
				c5.2-3.3,10.3-4.9,16.5-4.2c2.3,0.2,2.3-3.3,0-3.6c-4.7-0.5-9.2,0.1-13.5,2c-5.1,2.3-10.4,8.3-16.5,6.3
				c-3.9-1.3-6.8-4.3-11.2-3.6c-4.2,0.8-7,4.6-10.6,6.6C668.4,99.4,670.2,102.5,672.3,101.4L672.3,101.4z"/>
		</g>
	</g>
	<g>
		<g>
			<path class="st6" d="M674.5,57c6.3-7.2,12.4-13.4,22.4-14.3c2.8-0.2,5.1-0.6,7.5-2.3c3-2.2,5.3-6.5,9.3-6.9
				c2.3-0.2,2.3-3.8,0-3.6c-3,0.3-5.1,1.6-7.3,3.7c-1.6,1.5-3.1,3.6-5.2,4.6c-2.4,1.2-5.4,0.8-8,1.2c-9,1.4-15.5,8.5-21.2,15
				C670.4,56.2,673,58.8,674.5,57L674.5,57z"/>
		</g>
	</g>
	<g>
		<g>
			<path class="st6" d="M576.4,1.7c-0.8,7.7,3,15.4,9.8,19.3c1.7,1,3.7,1.2,5.4,2.2c2.7,1.5,3.3,3.7,3.8,6.5
				c0.5,3.3,1.1,5.9,3.9,7.8c1.9,1.3,3.7-1.8,1.8-3.1c-3-2.1-2-7.2-3.4-10.2c-1-2.1-2.4-3.3-4.5-4.2c-3.5-1.6-6.5-2.2-9.2-5.2
				c-3.2-3.6-4.5-8.2-4-12.9C580.2-0.6,576.6-0.6,576.4,1.7L576.4,1.7z"/>
		</g>
	</g>
	<g>
		<g>
			<path class="st6" d="M638.6,45.1c-0.2,0-0.3,0-0.5,0c-2.3,0-2.3,3.6,0,3.6c0.2,0,0.3,0,0.5,0C640.9,48.7,640.9,45.1,638.6,45.1
				c-0.2,0-0.3,0-0.5,0c-2.3,0-2.3,3.6,0,3.6c0.2,0,0.3,0,0.5,0C640.9,48.7,640.9,45.1,638.6,45.1L638.6,45.1z"/>
		</g>
	</g>
	<g>
		<g>
			<path class="st6" d="M648.6,35.2c-0.3-0.3-0.5-0.5-0.8-0.8c-0.7-0.7-1.9-0.7-2.5,0c-0.7,0.7-0.7,1.8,0,2.5
				c0.3,0.3,0.5,0.5,0.8,0.8c0.7,0.7,1.9,0.7,2.5,0C649.3,37.1,649.3,35.9,648.6,35.2L648.6,35.2z"/>
		</g>
	</g>
	<g>
		<g>
			<path class="st6" d="M565.7,46.5c-0.3-0.7-0.6-1.3-0.9-1.9c-0.4-0.9-1.7-1.1-2.5-0.7c-0.9,0.6-1,1.5-0.7,2.5
				c0.3,0.7,0.6,1.3,0.8,2c0.4,0.9,1.7,1.1,2.5,0.7C565.9,48.4,566,47.5,565.7,46.5c-0.4-0.6-0.6-1.3-0.9-1.9
				c-1,0.6-2.1,1.2-3.1,1.8c0.3,0.7,0.6,1.3,0.9,1.9c0.4,0.9,1.7,1.1,2.5,0.7C566,48.4,566.2,47.4,565.7,46.5L565.7,46.5z"/>
		</g>
	</g>
	<g>
		<g>
			<path class="st6" d="M575.9,54.6c0,0.5,0,1.1,0,1.6c0,0.9,0.8,1.8,1.8,1.8s1.8-0.8,1.8-1.8c0-0.5,0-1.1,0-1.6
				c0-0.9-0.8-1.8-1.8-1.8C576.8,52.8,575.9,53.6,575.9,54.6L575.9,54.6z"/>
		</g>
	</g>
	<g>
		<g>
			<path class="st6" d="M531,121.6c0-0.2,0-0.3,0-0.5c0-2.3-3.6-2.3-3.6,0c0,0.2,0,0.3,0,0.5C527.4,123.9,531,123.9,531,121.6
				c0-0.2,0-0.3,0-0.5c0-2.3-3.6-2.3-3.6,0c0,0.2,0,0.3,0,0.5C527.4,123.9,531,123.9,531,121.6L531,121.6z"/>
		</g>
	</g>
</g>
<ellipse transform="matrix(0.1451 -0.9894 0.9894 0.1451 124.8136 518.6024)" class="st31" cx="362.5" cy="187.1" rx="3.2" ry="3.9"/>
<path class="st15" d="M603.6,92.3c7.5,4.5,20.7,5.3,24.8,17.8c5.4,16.1,19.9,18,19.9,18s4.8,0.1,7.3-1.9c3.2,2.8-1.3-27.9-1.3-27.9
	l-6.5-10.4l-25.9-4.2L600.1,87"/>
<path class="st15" d="M604.7,93.6c1.6,8.8-10.9,15.4-13.5,20.4l-4.7,11.9l-4.8-10.9l6-18.5l8.6-11.1l11.8-4.3c0,0,23.3-3.2,23.3-2.7
	s6.1,7.6,6.1,7.6l-1.5,4.8h-29.1L604.7,93.6z"/>
<path id="path1797_1_" class="st15" d="M609.5,126.8c0.1,1.7-0.9,3.1-2.1,3.1c-2.5,0.1-2.1-2.9-3.1-4.1c-0.1-0.1-0.7-0.2-0.9-0.3
	c-0.2-0.2-0.2-0.4,0.1-0.6c0.7-0.3,1.8-0.6,2.5-0.6C608,124.2,609.5,124.9,609.5,126.8z"/>
<path id="path1797_2_" class="st15" d="M631,125.8c0,1.7,0.8,3.1,1.9,3.1c2.3,0.1,1.9-2.9,2.9-4.1c0.1-0.1,0.7-0.2,0.8-0.3
	c0.2-0.2,0.1-0.4-0.1-0.6c-0.6-0.3-1.6-0.6-2.3-0.6C632.4,123.2,631.1,123.9,631,125.8z"/>
<path class="st4" d="M651.3,120.4c-6.5-0.3-10.1-6.2-12.4-11.5c-2.1-4.9-4.1-9.6-7.7-13.6c-6.6-7.6-17.2-11.7-27-8.1
	c-0.6,0.2-0.3,1.2,0.3,1c11.7-4.3,23.5,2.6,29.5,12.7c4.4,7.4,6.5,20.1,17.3,20.5C651.9,121.4,651.9,120.4,651.3,120.4z"/>
<path class="st4" d="M650.4,106.8c-11.1-2.8-13.5-16.1-21.9-22.4c-7.1-5.3-17.1-5.9-24.8-1.7c-0.6,0.3-0.1,1.2,0.5,0.9
	c8.9-4.9,20.4-2.9,27.1,4.7c5.9,6.8,9.2,16.9,18.9,19.4C650.7,107.9,651,106.9,650.4,106.8z"/>
<path class="st4" d="M636.1,84.2c-7.6-11.8-23-11.5-34.3-5.6c-0.6,0.3-0.1,1.2,0.5,0.9c10.7-5.6,25.6-6.1,32.9,5.3
	C635.5,85.2,636.4,84.7,636.1,84.2z"/>
<path class="st4" d="M598.9,91.7c-0.1-0.6-1.1-0.6-1,0c0.3,3.2-5.5,5.8-7.8,7.5c-2.1,1.6-4.2,3.4-5.9,5.5c-3.1,3.8-4.8,8.4-4,13.3
	c0.1,0.6,1.1,0.4,1-0.3c-1.1-6.6,3-12.3,7.9-16.4c2.3-1.9,4.9-3.5,7.3-5.3C597.9,94.9,599.1,93.7,598.9,91.7z"/>
<path class="st4" d="M593.7,87c-2.9,5.4-9.2,6.8-13.8,10.3c-3.4,2.5-5.8,6.6-4.4,10.8c0.2,0.6,1.2,0.3,1-0.3
	c-2.1-6.3,4.2-10.2,8.9-12.6c3.6-1.9,7.2-3.9,9.2-7.7C594.8,86.9,594,86.4,593.7,87z"/>
<path class="st4" d="M590.8,83.2c-3.7,2.6-8.7,3.5-11.9,6.8c-0.4,0.5,0.3,1.2,0.7,0.7c3.1-3.2,8-4.2,11.7-6.7
	C591.8,83.7,591.3,82.8,590.8,83.2z"/>
</svg>
