<?xml version="1.0" encoding="utf-8"?>
<!-- Generator: Adobe Illustrator 23.0.3, SVG Export Plug-In . SVG Version: 6.00 Build 0)  -->
<svg version="1.1" id="Layer_1" xmlns="http://www.w3.org/2000/svg" xmlns:xlink="http://www.w3.org/1999/xlink" x="0px" y="0px"
	 viewBox="0 0 1217 1011" style="enable-background:new 0 0 1217 1011;" xml:space="preserve">
<style type="text/css">
	.st0{opacity:0.1;fill:#007CC7;enable-background:new    ;}
	.st1{opacity:0.57;}
	.st2{fill:#6382D7;}
	.st3{fill:#FFFFFF;}
	.st4{fill:#5B8262;}
	.st5{fill:#83B78D;}
	.st6{fill:#AFC7D7;}
	.st7{fill:#72A084;}
	.st8{fill:#4E725B;}
	.st9{fill:#6FB1ED;}
	.st10{fill:#331318;}
	.st11{fill:#F5BD83;}
	.st12{fill:#01172B;}
	.st13{fill:#002042;}
	.st14{fill:#C68467;}
	.st15{opacity:0.7;fill:#D19D6F;enable-background:new    ;}
	.st16{fill:#D19D6F;stroke:#D19D6F;stroke-width:0.5;stroke-miterlimit:10;}
	.st17{fill:#D19D6F;}
	.st18{fill:#D19D6F;stroke:#D19D6F;stroke-miterlimit:10;}
	.st19{fill:#D6B492;}
	.st20{fill:#703E48;}
	.st21{fill:#474F77;}
	.st22{fill:#303133;}
	.st23{fill:#E5E7EA;}
	.st24{fill:#344375;}
	.st25{fill:#A5A5A5;}
	.st26{fill:#6B6B6B;}
	.st27{fill:#2B4EAF;}
	.st28{fill:#5368A5;}
	.st29{opacity:0.2;fill:#F9F9F9;enable-background:new    ;}
	.st30{opacity:0.2;fill:#FFFFFF;enable-background:new    ;}
</style>
<g id="Layer_6">
	<path class="st0" d="M767.3,929.3c145.8-23.2,343.3-91.3,405.8-248c42.4-106.4,38.4-209.9-34.9-300.4
		c-67.8-83.7-165.4-143.9-268.3-163.8c-38.7-7.5-75.2-16.8-114.7-14.4c-41.5,2.6-148.4,19.4-215,74.7
		c-24.9,20.6-48.4,37.7-71.2,61.1c-52.4,53.4-106.4,114-175.4,143.6c-33.3,14.3-63.7,22.6-94.7,42.3c-30.5,19.4-58.4,53.2-65.2,94.7
		c-16.9,103.3,10.1,145.8,74.7,214c25.5,26.9,66.1,46.2,99.2,61.4c70.3,32.3,147.8,45.3,224,49.1c74.4,3.7,149.1-1.3,222.8-12.3
		C758.7,930.6,763,929.9,767.3,929.3z"/>
	<g class="st1">
		<g>
			<g>
				<path class="st2" d="M829.7,769.4c-0.6,0.7-1.2,1.4-1.8,2.1c-1.2,1.4-1.2,3.4,0.3,4.6c0.7,0.5,1.4,0.7,2.3,0.6
					c1-0.1,1.6-0.7,2.2-1.5c0.6-0.7,1.1-1.5,1.7-2.2c0.9-1.2,0.3-3-0.8-3.8C832.5,768.3,830.7,768.3,829.7,769.4L829.7,769.4z"/>
			</g>
		</g>
		<g>
			<g>
				<path class="st2" d="M764.6,741.7c0.2-0.4,0-0.2-0.5,0.5c-0.4,0.1-0.8,0.2-1.2,0.3h0.1c-0.4-0.1-0.8-0.2-1.2-0.3
					c0.7,0.4,1.2,0.4,2,0.3c-0.5,0-0.6,0.1-0.3,0.1c-0.4-0.1-0.5-0.1-0.4,0c0.2,0.1,0.1,0-0.3-0.1c0.1,0,0.2,0.1,0.2,0.1
					c-0.4-0.2-0.7-0.6-0.8-1.1c0-0.5-0.1-0.6-0.1-0.3c-0.1,1.3,1.3,2.6,2.6,2.6c1.5-0.1,2.4-1.1,2.6-2.6c0.2-1.8-1.4-3.3-3.1-3.5
					c-0.8-0.1-1.6,0-2.3,0.4c-0.4,0.2-0.7,0.5-0.9,0.9c-0.1,0.2-0.2,0.4-0.3,0.6c0.2-0.3,0.3-0.5,0.5-0.8c0,0-0.4,0.4-0.5,0.6
					c-0.1,0.2-0.2,0.5-0.3,0.7c-0.3,1.1,0.3,2.2,1.3,2.7C762.7,743.1,764.1,742.7,764.6,741.7L764.6,741.7z"/>
			</g>
		</g>
		<g>
			<g>
				<path class="st2" d="M764.7,790.9c1.2,2.4,2.4,4.7,4,6.8c1.1,1.6,4,0.7,3.3-1.4c-0.8-2.7-2-5.2-3.2-7.8
					C767.5,785.8,763.3,788.2,764.7,790.9L764.7,790.9z"/>
			</g>
		</g>
		<g>
			<g>
				<path class="st2" d="M660.5,744.8c2.2,1.4,4.5,2.7,6.7,4.1c2.2,1.3,4.2-2.1,2-3.4c-2.2-1.4-4.5-2.7-6.7-4
					C660.3,740.1,658.4,743.5,660.5,744.8L660.5,744.8z"/>
			</g>
		</g>
		<g>
			<g>
				<path class="st2" d="M680.2,800.5c1.4,0.3,2.8,0.6,4.2,0.8c1,0.1,2-0.9,2.1-1.8c0.1-1.1-0.5-2-1.5-2.3c-1.2-0.4-2.4-0.7-3.6-1
					c-1.2-0.3-2.5,0.4-2.8,1.6C678.3,798.9,678.9,800.2,680.2,800.5L680.2,800.5z"/>
			</g>
		</g>
		<g>
			<g>
				<path class="st2" d="M550.9,778.3c1.6-0.7,3.4,0,4.5,1.2c2,2.2,5.3-1.1,3.2-3.2c-2.7-2.8-6.6-3.3-10-1.8
					c-1.1,0.5-1.4,2.1-0.8,3.1C548.5,778.6,549.8,778.7,550.9,778.3L550.9,778.3z"/>
			</g>
		</g>
		<g>
			<g>
				<path class="st2" d="M532.1,727.4c2.8-0.3,5.6-0.5,8.3-1.1c2.2-0.5,1.7-3.8-0.5-3.9c-2.6-0.1-5.2,0.2-7.8,0.5
					c-1.2,0.1-2.3,1-2.3,2.3C529.8,726.3,530.8,727.6,532.1,727.4L532.1,727.4z"/>
			</g>
		</g>
		<g>
			<g>
				<path class="st2" d="M358.9,720.1c0.8,0.2,1.6,0.4,2.4,0.5c1.2,0.3,2.6-0.4,2.9-1.7c0.3-1.2-0.4-2.6-1.7-2.9
					c-0.8-0.2-1.6-0.4-2.4-0.5c-1.2-0.3-2.6,0.4-2.9,1.7C356.9,718.4,357.6,719.8,358.9,720.1L358.9,720.1z"/>
			</g>
		</g>
		<g>
			<g>
				<path class="st2" d="M371.2,766.6c3.2,0.7,6.5,1.4,9.7,2.1c3.5,0.8,5-4.6,1.5-5.4c-3.2-0.7-6.4-1.5-9.7-2.3
					C369.1,760.2,367.6,765.8,371.2,766.6L371.2,766.6z"/>
			</g>
		</g>
		<g>
			<g>
				<path class="st2" d="M265.8,709.8c3.2,0.7,6.5,1.5,9.7,2.2c2.2,0.5,3.2-2.9,0.9-3.4c-3.2-0.7-6.5-1.5-9.7-2.2
					C264.6,705.9,263.6,709.3,265.8,709.8L265.8,709.8z"/>
			</g>
		</g>
		<g>
			<g>
				<path class="st2" d="M280.3,772c3.4,0.4,6.6,0.7,10,0.6c2.3-0.1,2.9-3.5,0.5-4.1c-3.5-0.9-6.9-1.2-10.5-1.5
					C277.1,766.8,277.2,771.7,280.3,772L280.3,772z"/>
			</g>
		</g>
		<g>
			<g>
				<path class="st2" d="M344,854.5c2.4-1,4.9-2.1,7.2-3.3c2.6-1.3,0.8-5.8-2-4.8c-2.7,1-5.3,2.2-7.9,3.4c-1.3,0.6-1.6,2.5-1,3.6
					C341.2,854.9,342.7,855,344,854.5L344,854.5z"/>
			</g>
		</g>
		<g>
			<g>
				<path class="st2" d="M490.7,747.5c2-0.2,3.9,0.6,5.2,2.1c1.8,2.2,5.5-0.7,3.9-3c-2.2-3.4-5.9-4.8-9.8-4.1
					C487.2,743,487.8,747.8,490.7,747.5L490.7,747.5z"/>
			</g>
		</g>
		<g>
			<g>
				<path class="st2" d="M488.8,821.7c1.6,2.5,3.2,4.9,4.8,7.4c2,3.1,7,0.3,5-2.9c-1.5-2.5-3.1-5-4.6-7.5
					C492,815.4,486.7,818.5,488.8,821.7L488.8,821.7z"/>
			</g>
		</g>
		<g>
			<g>
				<path class="st2" d="M679.9,855.8c1.4,2.9,2.8,5.8,4.5,8.6c1.3,2.1,5.3,0.7,4.2-1.8c-1.3-3.2-2.9-6.2-4.5-9.2
					C682.6,850.5,678.5,853,679.9,855.8L679.9,855.8z"/>
			</g>
		</g>
		<g>
			<g>
				<path class="st2" d="M817,844.5c1,0.7,2,1.3,2.9,2c1,0.7,2.2,1,3.4,1.5c2,0.8,3.2-2,2-3.4c-0.9-0.9-1.7-1.8-2.7-2.6
					c-1-0.7-1.9-1.4-2.9-2.1c-1.2-0.8-2.9-0.2-3.6,1C815.3,842.2,815.8,843.7,817,844.5L817,844.5z"/>
			</g>
		</g>
		<g>
			<g>
				<path class="st2" d="M901,767.3c0,2.1,0.4,4,0.9,6c0.8,2.8,5,1.6,4.4-1.2c-0.4-2-1-3.9-2-5.7C903.4,764.8,901,765.6,901,767.3
					L901,767.3z"/>
			</g>
		</g>
		<g>
			<g>
				<path class="st2" d="M908.9,739.3c-0.1,0.9-0.1,1.6,0.3,2.5c0.6,1.5,2.3,2.1,3.5,0.9c0.6-0.6,1.1-1.1,1.4-2
					c0.4-1.3-0.5-3-1.9-3.3C910.9,737.2,909.1,737.8,908.9,739.3L908.9,739.3z"/>
			</g>
		</g>
		<g>
			<g>
				<path class="st2" d="M826.8,722.8c0.8,1.2,1.5,2.3,2.5,3.4c0.8,0.8,2.2,1,3.1,0.4c0.9-0.6,1.6-1.8,1.2-2.9
					c-0.3-0.7-0.5-1.5-0.9-2.1c-0.3-0.5-0.7-1.1-1-1.6c-0.8-1.3-2.6-1.9-3.9-1C826.6,719.6,826,721.4,826.8,722.8L826.8,722.8z"/>
			</g>
		</g>
		<g>
			<g>
				<path class="st3" d="M864.2,809.3c-0.6,1.9-1.1,3.9-0.7,5.9c0.3,1.7,2.5,1.6,3.3,0.4c1.1-1.5,1.4-3.4,1.6-5.2
					c0.2-1.2-0.3-2.4-1.6-2.7C865.8,807.4,864.6,808.2,864.2,809.3L864.2,809.3z"/>
			</g>
		</g>
		<g>
			<g>
				<path class="st3" d="M867.1,808c-0.3,2.1-0.4,4.2-0.5,6.3c-0.2,3.4,5.2,3.4,5.3,0c0-2.1,0-4.2-0.2-6.3
					C871.4,805.1,867.4,805.2,867.1,808L867.1,808z"/>
			</g>
		</g>
		<g>
			<g>
				<path class="st3" d="M861,755.8c0.3,2.6,0.5,5.2,0.9,7.8c0.2,1.3,1,2.3,2.3,2.3c1.2,0,2.4-1.1,2.3-2.3c-0.2-2.6-0.5-5.2-0.7-7.8
					c-0.1-1.3-1-2.4-2.4-2.4C862.2,753.4,860.8,754.5,861,755.8L861,755.8z"/>
			</g>
		</g>
		<g>
			<g>
				<path class="st3" d="M788.5,757.6c3.7,0.5,7.4,1,11.2,1.1c2.7,0.1,3.3-4.3,0.6-4.7c-3.9-0.6-7.9-0.9-11.8-1.3
					C785.3,752.5,785.4,757.3,788.5,757.6L788.5,757.6z"/>
			</g>
		</g>
		<g>
			<g>
				<path class="st3" d="M725.6,773.7c3.5,0.5,7,1.3,10.6,0.9c2.3-0.3,3-3.4,0.6-4.2c-3.4-1.1-6.9-1.1-10.5-1.3
					C723.7,769,723,773.3,725.6,773.7L725.6,773.7z"/>
			</g>
		</g>
		<g>
			<g>
				<path class="st3" d="M686,721.7c2.9,0.2,5.8,0.5,8.7,0.7c3.3,0.3,3.3-4.8,0-5.1c-2.9-0.2-5.8-0.4-8.7-0.7
					C682.8,716.4,682.8,721.4,686,721.7L686,721.7z"/>
			</g>
		</g>
		<g>
			<g>
				<path class="st3" d="M587.2,770.7c2.9,0.3,5.8,0.5,8.7,0.8c3.3,0.3,3.3-5,0-5.2c-2.9-0.2-5.8-0.4-8.7-0.6
					C583.9,765.4,584,770.4,587.2,770.7L587.2,770.7z"/>
			</g>
		</g>
		<g>
			<g>
				<path class="st3" d="M558.2,828.9c2.7-0.6,5.4-1.3,8.1-1.9c3.5-0.8,2-6.3-1.5-5.4c-2.7,0.7-5.4,1.4-8.1,2.1
					C553.3,824.5,554.7,829.7,558.2,828.9L558.2,828.9z"/>
			</g>
		</g>
		<g>
			<g>
				<path class="st3" d="M506.7,802.5c1.2,0.3,2.4,0.5,3.6,0.8c1.5,0.3,3.2-0.5,3.6-2c0.3-1.5-0.4-3.2-2-3.6
					c-1.2-0.3-2.4-0.5-3.6-0.8c-1.5-0.3-3.2,0.5-3.6,2C504.4,800.4,505.2,802.1,506.7,802.5L506.7,802.5z"/>
			</g>
		</g>
		<g>
			<g>
				<path class="st3" d="M422.8,769.1c0.8,0.2,1.6,0.4,2.4,0.5c1.3,0.3,2.9-0.4,3.2-1.8c0.3-1.3-0.4-2.9-1.8-3.2
					c-0.8-0.2-1.6-0.4-2.4-0.5c-1.3-0.3-2.9,0.4-3.2,1.8C420.6,767.3,421.3,768.8,422.8,769.1L422.8,769.1z"/>
			</g>
		</g>
		<g>
			<g>
				<path class="st3" d="M410.9,737.3c3.5,0.8,6.8,1.5,10.4,1.7c2.6,0.2,2.7-3.4,0.6-4.2c-3.1-1.3-6.2-2-9.5-2.7
					C408.9,731.3,407.4,736.5,410.9,737.3L410.9,737.3z"/>
			</g>
		</g>
		<g>
			<g>
				<path class="st3" d="M322.8,752.8c1.2,0.7,2.4,1.5,3.6,2.1c1.2,0.7,2.6,1.1,3.9,1.7c2,0.8,3.7-2.3,2.1-3.6
					c-1.1-0.9-2.1-1.9-3.3-2.7c-1.2-0.8-2.4-1.5-3.6-2.2C322.5,746.3,319.8,751,322.8,752.8L322.8,752.8z"/>
			</g>
		</g>
		<g>
			<g>
				<path class="st3" d="M358.6,807.1c1.8,0.9,3.5,1.7,5.4,2.3c1.3,0.4,2.8-0.4,3.3-1.6c0.5-1.4,0-2.6-1.1-3.5
					c-1.4-1-2.9-1.8-4.4-2.6c-1.4-0.7-3.4-0.4-4.2,1.1C356.8,804.3,357.1,806.3,358.6,807.1L358.6,807.1z"/>
			</g>
		</g>
		<g>
			<g>
				<path class="st3" d="M325.4,853.6c2.8-0.3,5.7-0.4,8.4-1.2c2.7-0.8,2-4.4-0.6-4.7s-5.2,0.1-7.8,0.3c-1.5,0.2-2.8,1.2-2.8,2.8
					C322.6,852.2,323.9,853.7,325.4,853.6L325.4,853.6z"/>
			</g>
		</g>
		<g>
			<g>
				<path class="st3" d="M471.7,884c2.7,1,5.5,2.1,8.2,3.1c1.7,0.6,3.6-0.7,4-2.3c0.5-1.9-0.6-3.4-2.3-4c-2.7-1.1-5.5-2.1-8.2-3.2
					c-1.7-0.7-3.7,0.7-4.1,2.3C468.8,881.8,470,883.4,471.7,884L471.7,884z"/>
			</g>
		</g>
	</g>
	<path class="st4" d="M104.4,717.9c0-4.5-21-162.6-21-162.6l27.2-37.2l31.6,31.8L196,701.6L104.4,717.9z"/>
	<path class="st4" d="M360.7,537.9l110-63l21,25.7l-10.8,121.5l-23.7,44.1l-159.2,27l-51.7-31.9
		C246.3,661.3,381.1,671.3,360.7,537.9z"/>
	<path class="st5" d="M110.6,516.7l24.6,208.2l181.2-18.6c72.7-23.4,146.5-32.1,221.2-27.1l-5.2-213l-61.8,8.6
		c0,0,47.4,171.7-135.1,179.5C179,662.7,166.1,510.9,166.1,510.9L110.6,516.7z"/>
	<path class="st6" d="M274.9,930.7c-3.3-0.5-5-1.3-5.8-1.7s-0.7-0.6-0.5-0.7c0.6-0.3,1.8-0.2-1.2-2.1c2.5,0.9,4.7,1.9,6,2.6
		c0.5,0,2.3,0.4,3.9,0.5s2.9,0,2.5-0.3c0.7,0.7,2.8,1.4,5.5,1.8c2.7,0.4,5.9,0.5,8.8,0.7c5.9,0.2,10.7,0.3,8,1.9
		c3.6-0.1,10.9-1.1,19-2.9c8.1-1.8,17.1-4.1,24.4-5.8l-3.9,1.6c15.7-1.2,13.3-4.7,22.2-7.1c-7.7,2.3,7.1-0.3,10.3,0
		c6.9-1.8,12.4-4,22.3-4.2c2.1,1,2.3,2.5,8.5,2.7c1.4-0.3,2.8-0.6,4.2-0.8c6.2,0.3,14.6,0.5,18.6,1.6h-0.9c7,1.4,7.4,0,2-1l6.8,0.3
		l0.2,0.4c9,0.7,17.5,0.6,31.8,3c-3.9,0.3,10.6,3.9-2.4,1.8c3.8,0.2-1.9-1.4-2.6-1.9c-4.6-1.1-8.9-0.8-11-1c1.5,0.8-0.1,1.9-2.6,2.3
		c4.7,0,13.4,1.6,21.3,2.9c7.9,1.3,15.1,2.2,16.3,1c5.8,1,12.4,1.8,19.4,2.5c6.9,0.4,14.1,0.9,20.8,1.4c-0.5-0.1-1.6-0.4-1.3-0.6
		l11.5,1.2l-2.7,0.2l7.6,0.9c0.8,0.4-2.2,0.9-5.3,1c-1.8,0.1-3.4-0.2-1.7-0.4c-8.2,0.9,6.8,0.4,1.5,1.4c-2-0.2-4.6,0.1-6.1,0
		c9.4,0.7,13.7-0.9,19.5,0.2c2.2-0.6,5.6-1.2,9.5-1.7c3.9-0.4,8.2-1,12.4-1c-3.2,0.9,9.1-1,5,0.6c3.2-0.8,10.8-1.2,12-2.1
		c-1.2,0.4-4.8,0.9-7.4,1c3.4-0.8,3.8-1.5,8-2c0.5,0,0.3,0.3,0.3,0.3c5.4-1.4,1.6-2.7,11.2-4.1c25.1-4.6-3.3,3.2,0.3,3.2
		c0.9-0.8,11.9-3,17-3.3l-1.2,0.5c2.5-0.7,6.2-1.9,9-1.8c1.4-1.3,4.3-2.7,6-3.7l11.2-2.3l-2.3,1c2.5-0.7,4.8-1.2,7-1.7
		c1.1,0.6-2.3,1-5.6,1.9c1.9,0.3,4.1-0.1,6.7-1.4l-1.4,0.2c2.8-1,13.2-4.1,4.8-2.8c6.1-1.9,8.3-0.8,12.5-2c0.5,0.5-3.4,1.5-1.2,1.5
		c4.2-0.7,6.9-1.1,10.3-2.1c-3.3,0.4,0.9-0.8-4.4-0.1c2-0.7,7.2-1.9,7-2.1c-1.7,0.5-2.8,1-5.8,1.1c5.6-1.4,11.4-2.5,17.2-3.1
		c-0.2,0.2-0.7,0.4-1.4,0.7c7.3-2.4,18.6-4.1,23.5-6.1l-2.2,0.1c-1.8,0.6-5.4,1.2-6.9,1.2c5.6-1.3-4.1-0.5,1.8-2
		c8.1-1.9,15.5-1.5,19.9-3.6c-7.8,1-18.4,1.8-21.5,3c1.7-0.3,3.3-0.6,5-0.8c-3.8,1.1-7.5,2.4-11.3,3.6c-0.5-0.5-10.1,2.1-10,1.1
		c3.9-0.9,7.5-1.5,10.6-2.1c-0.8-0.3-10.6,1.6-14.7,2.3l5.3-0.6c-9.2,2.6-21.1,4.6-30.1,7c7-2.2-9.1,1.1-3.5-0.9
		c2.2-1,6.1-0.9,5-0.9c0.6-1-5.6,0.9-7.5,0.6c-0.9,0.8-10.1,2.9-4.5,2.5c-3,0.2-9.5,2.4-13.6,2.5c1.3,0.8-7.5,2.1-9,2.8
		c-1.8,0.3-3.4,0.3-4.6,0.3c3.7-1.1,8.3-2.3,13.1-3.7c2-0.2,5.6-0.9,4.5-0.9v-0.4c7.2-2.1,14.4-4.3,19.5-5.8
		c0.8-0.2,1.6-0.3,2.5-0.5l-0.5,0.2c0.3-0.1,0.5-0.2,0.8-0.3c42-8.2,84.1-16.2,126.3-14.9c-2.8,0.1-7.3-0.1-9.1,0.4l0.3-0.2
		l-4.3,0.4c3.6,0,10.8-0.1,13.9-0.5c3,0.1,5.9,0.2,8.9,0.4l-7.4-0.9l0,0l0,0l-8.8-1c5.8-0.7,11.2-1.3,18.1-0.9
		c-2.2,0.4,0,0.6,0.5,0.8c19-2.6,37.5-2.6,56.7-1.8c8,0.3,16.2,0.7,24.1-1.4c15.4-3.9,30.2-16.6,45.7-14.3
		c5.8,0.9,12.7,3.3,16.6-4.1c4.4-8.3,0.8-22.9-5.1-28.2c-5.9-5.3-12.8-4.4-19.4-4.8c-8.6-0.5-17.1-3.4-25.7-2.3
		c-10.9,1.4-20.7,6.8-31.8,5.5c-7.8-0.9-16.1-3.7-24-3.4c4.5-0.2-2.8-1.4-6.3-2.4c-10.9-0.9-33.9-3.5-50.3-4.3
		c2.2-0.9-2.3-1.4-7.6-1.8c-5.3-0.4-11.3-0.9-11.9-1.9c-3.7-0.3-9.4-0.4-9.8,0.3c2-0.2,7,0.8,6.3,1.1c-5.3-0.3-13.5-0.8-14.3,0
		l-6.5-1.4c-0.3,0.5-1.4,0.9-3.1,1.1c-1.4-0.1-2.9-0.2-4.3-0.3c-2.6-0.7-2.7-0.5-2.8-0.2c-1.6-0.1-3.2-0.2-4.8-0.3
		c1.8-0.4,3.4-0.7,4.1-1.1c-5.6-0.6-4.8-0.1-8.8-0.2c-1.3-0.6,4-1.3,8.3-1.3l-7.2-1c-7,0.6-19.2,1.4-30.3,0.2
		c1.8-0.5,5.5-0.3,2.6-1.4c-4.8-0.1-11.3,0.7-17.6-0.4c0.9,0,0.4-0.2,1.2-0.2c-11.2,0.1-8.4-0.9-18.4-1.9c0.2-0.1,0.2-0.2,0.5-0.3
		l-6.2,0.1c-13,0.4-14.3-2.5-21.9-4h1.7c-2.4-0.8-7.5-1.4-12.5-1.9c-5-0.6-10-1.1-12.2-1.6c5.4,1.4,1.7,0.9,5.6,2.6
		c4.8,0.4,3.5-1.2,11.5,0.3c-1.1,1-11.3,0.1-13.5,0.7c-4.5-0.5-7.4-2.7-7.7-3.4c-11.2-1.5-17.4-3.1-31.1-5.2c-5-0.1-9,1.6-20.3-1.9
		l0.7-0.3c-0.5,0.6-5.5-1.1-7.9-0.9c3.8,1.8-5,0-0.3,1.8c-6.7-0.9-7.7-2.7-8.2-3.7c-4.9,0.9-13.3-2.7-23.7-2.6
		c1.9-0.6,13.2,0.5,8.6-0.8c-4.5,0.1-9,0.4-13.4,0.7l5.9,0.4c-10.2,0.4-12.9-1-18.8-1.6c-0.6-0.2,0.1-0.4,1.3-0.5
		c1.2-0.1,2.9,0,4.3,0c-3.1-0.3-8.1,0-12.2,0.4c-3.1,0.5-13.7,1.8-17.9,3.3c-0.6,0-1.1,0.1-1.7,0.1c0.2-0.1,0.4-0.2,0.8-0.3
		c-0.9,0.1-1.6,0.2-2.2,0.4c-1.8,0.2-3.6,0.4-5.4,0.7l1-0.4c-0.7,0.2-1.4,0.4-2,0.5c-1.8,0.2-3.7,0.5-5.5,0.9l-2.7,1l1.4-0.3
		c-0.2,0.7-1.8,1.6-4.4,2.6c-3.1,0.9-6.2,1.8-9.3,2.9c-3.2,1.1-6.5,2.4-9.7,3.7c-3.5,1.1-7.4,2.8-11,4.3c-4.4,1.9-8.5,3.3-10.5,3
		c11.9-5.3,17.5-7.5,30.3-12.7c3.5-0.5,1.4,0.3-1.5,1.5s-6.7,2.8-6.8,3.2c2.4-0.9,4.8-1.7,7.3-2.5c-1.2-0.6,14.2-5,10.1-5.4
		c-4.1,1.2-8.2,2.2-12.2,3.6c-4,1.4-7.9,2.9-11.7,4.4c-7.6,3-14.8,5.7-21.7,7.3c3.9-3.8,7.5-7.9,11-12.2c0-0.1,0.2-0.4,0.7-0.8
		l-0.7,0.8c0.1,0.4,2.7-1,5.6-2.4c-0.5,0.6-1.1,1.3,2.5-0.2c7.5-2.3,11.2-5.8,17-7.5l-1.7,0.7c2.7-0.7,5.9-1.6,8.8-2.6
		c2.9-0.9,5.7-1.7,7.8-2.6c2.3,0.2-1.6,1.2-5.1,2.1c-3.4,0.9-6.3,2-2,1.3c-3,0.7-6.7,1.9-10,3.3c-3.4,1.4-6.4,3-8.6,3.9
		c3.7-1.3,7.3-2.2,9.7-2.5c2.5-0.3,3.7,0,2.7,0.7c8.1-3,8-3.7,7.6-4.4s-1.1-1.2,6.2-3.3c3.4-0.8,6.8-1.1,10.2-1.6
		c1.1-0.7,2.3-1.5,3.4-2.2c6.2-0.7-3.7,1.7,5.7,0.6c2.5-1.2,8.6-0.7,10.5-1.3c-0.3,0.4-0.4,0.7,4.5,0.7c0.3-0.2-0.1-0.8,3.7-0.8
		c2.6,1.6-9.7,0.4-5.3,1.8c10.7,0,6.9-1.4,8.5-2.1c-0.4,0-1,0-2,0c0.1-0.6,4.7-0.1,4.2-0.7c-1.8-0.2-3.7,0.1-5.3,0.2
		c3.3-0.5-5.4-1.2-8.7-0.9c-7.5,0.9-23.2,2.4-33.5,5.4c0.9-0.3,2.7-0.9,1.5-0.8c-1.8,0.4-3.6,0.9-5.2,1.3c-1.6,0.5-3.1,0.9-4.6,1.4
		c-2.9,0.9-5.6,1.6-8.2,2.6c-5.3,1.9-10.6,4.2-17.9,7.3l-1.4,1.8c-6.4,2.4-7.7,3.5-7.8,4.5c-0.2,0.9,0.9,1.5-0.6,2.1
		c-2.8,0.9-5.1,2.2-7.6,2c0.4-0.2,0.8-0.4,1.3-0.7c-3.9,0.9-4.5,1.2-5,1.5c-0.5,0.2-0.9,0.6-4.4,0.5c-2.8,0.2-1.6,0.4-0.1,0.5
		c1.5,0,3.3,0.1,1.5,0.4c-1.9,0-3.1,0-4.1,0.1s-1.7,0.3-2.6,0.4c-1.7,0.2-3.9,0.4-9.8-2.4c0.3-0.1,0.1-0.5,0.6-0.7s1.9,0.2,5.3,1
		c-2.1-0.9-4.2-2-6.4-3.1c4.1,1.4,4.8,1.4,5.6,1.6c0.8,0.1,1.5,0.6,5.3,1.1c1.8-0.3,2.5-0.9,3.2-1.2c0.6-0.4,1.3-0.8,2.8-1.4
		c-1.4,0.1-2,0.5-2.7,0.7c-0.7,0.1-1.7,0.5-3.7,0c-4.9-1.2,0.9-0.4,1.4-0.7c-3.3,0.2-5.1-0.6-6.8-1.6c-1.8-0.9-3.4-1.9-7-2.7
		c0.9,1.8-0.3,1.3,4.2,4c-2.4-0.6-5.1-1.9-7.2-3.1c-2.1-1.2-3.6-2.2-3.2-2.7l-1.4,0.7c-1.2-0.7-5.8-1.9-6-2.2l-2,0.2
		c4,1.6,7.5,2.9,13.9,5.1c-2.8-0.3,3.1,3.1-5.4,0.2c-3.8-1.3-0.3-0.8-0.5-1.2c-2.5-0.7-4.8-1.2-6.7-1.7c-2-0.3-3.7-0.8-5.3-1
		c-1.6-0.2-3-0.5-4.3-0.7s-2.5-0.3-3.6-0.5c-4.6-0.4-8.8-0.8-16.6,0.9c3.9-1.3,13.7-2,21.6-2c-4.8-1.3-10.3,0.1-14.8,0.5
		c4-0.9,4.7-1.3-0.1-1.3c-0.6,0.3-1.3,0.6-1.9,0.9c-2.8,0.3-7.8,1.4-8.2,1.2c-0.1,0.3,1.2,0.2,3.7-0.1c-3.5,1.1-8.3,2.6-13.8,4.4
		c-5.4,1.8-11.3,3.9-17.1,5.9c3.2-1.1,6.9-3.5,10.2-5.2c-12.8,2.7-25.1,1.4-37.7,7.7c-6.7,3.4-13.3,7.9-20.2,9.6
		c-9.1,2.2-30.2-0.2-32.3,22.5c-0.7,7.9,2.4,15.3,5.3,21.6c3.1,6.8,6.3,13.7,10.5,18.5c5.2,6.1,11.6,8.5,16.8,14.6
		c4.2,4.9,7.5,12,11.4,17.6C261.8,931.3,267.6,930.8,274.9,930.7z M420.2,801.5l-4.9,1.8C417.1,802.5,419,801.7,420.2,801.5z
		 M331.7,918.7c-1.3,0.4-3,0.9-4.5,1.4c-1.4,0.2-1.7,0.1-1.7-0.1C327.6,919.6,329.7,919.2,331.7,918.7z M246.6,880.5
		c-0.1-0.3-0.2-0.8-0.3-1.4C246.4,879.6,246.5,880.1,246.6,880.5z M397.7,910.4c-2,0.5-1.7,1.9-9.7,2c-0.1-0.1,0.6-0.3,1.4-0.4
		c-3.6,0.4-4.2,0.2-8.2,0.4c-1.3-0.9,4.8-1.4,7.4-2.3c-2.5,0.4-5.4,1.2-8.2,1.4l0.6-0.5c-2.8,0.5-5.6,0.9-8.4,1.4
		c-3.4,1.3,6.4-0.9,6.9-0.3l-5.3,1.4c-6.1,1-22.4,4.7-28.2,4.5c-7.2,1-3.9,1.6-5.6,2.6c-4.2,1.8-8.3,1.5-12.5,2.8
		c0.3,0.8-4.8,1.7-4.9,2.8l-7,1c-3.8,2.2,8.5-1.2,10.4-1c3.9,0.6-5.1,1.5-2.6,1.8c5.4-1.2,5.7-2,8.2-2.7c3.1-0.7,4.7-0.7,4.7-0.2
		c-8.6,1.2-4.5,2.1-11.5,3.3l-0.3-0.3c0,1.1-10.2,2.3-14,3.3c-7.9,0,6.2-2.5,5.9-2.8c-3.1,0.6-6.3,1.2-9.4,1.8
		c4.1-1.2-0.2-1.3,5.3-2.8c-5.7,1.2-6.5,0.3-12,1.6c6.2-2.1-7.9-0.4-8.6-1.5c6-0.6,16.7-0.6,17.3-0.4c0.9-0.4,7.8-1.3,10.6-1.4
		l4.3-2.2c-5,0.9-11.8,2.7-10.1,1.2c-2.3,0.5-4.6,1.1-6.8,1.6c6.9-2.9,6.6-2.8,12.9-4.7c-13.2,0.9-23.3,5.2-34.4,4l1.7-0.2
		c-5.4,0.2-9.9-0.3-13.4-1.6c-3.5-1.2-6-3.1-7.7-4.9c-0.1-0.1-0.1-0.1-0.2-0.2c0.3,0.3,0.6,0.6,1,0.8c6.1,4.6,13.6,5.1,20.8,4.9
		c11.5-0.2,22.9-1.9,34.4-4.1l-1.4,0.9c0.3-0.1,0.5-0.2,0.8-0.3c13.1-3.1,1.3,1.4,14.7-2.1c-0.5,0.2-0.7,0.4-1,0.6
		c5.4-1.6,15.5-3.3,16.6-4.7c-1.3,0.3-6.3,1.1-8.8,1.2c5.7-1.3,11.4-2.5,17.2-3.6c1.2,0,2.4-0.1,3.7-0.3l0,0l0,0
		c1.3-0.2,2.7-0.5,4.6-1c0.5-0.2,0.8-0.3,1-0.4c6.9-1.2,13.7-2.1,20.6-2.5C389.9,909.3,405.6,908.8,397.7,910.4z M419.1,910.1
		c-8.1-0.6-2.5-0.5-8.2-1.4c-0.3-0.2-0.1-0.4,0.4-0.5c6.1,0.3,12.2,0.9,18.3,1.7C424.3,909.5,418.8,909,419.1,910.1z M443.8,913
		c-2.8-0.6-10.7-1.4-11.2-2.4c3.8,0.5,4.9,0.6,4.5,0.4c4,0.6,7.9,1.3,11.9,1.9c0.2,0.2,0.5,0.3,1,0.5
		C448.2,913.3,445.4,913,443.8,913z M545.9,928.3c-7.1,0.1,0.4-0.7-3.2-1.1c-5.4,1.5-6.9-1.3-12.6,0.4c-6.8,0.1-4.7-0.8-6.8-1.4
		c6.8,0.2-3.1-1.2,5.4-1.4c-3.5-0.3-4.7-0.1-5.9,0.1s-2.1,0.6-5,0.2l-0.8-1.3c-2.6-0.3-6.8-0.8-11.2-1.4c-4.4-0.6-9-1.2-12.6-1.3
		c5.9,1.6-3.6,0.3-2.7,1.2c1.2-0.9,9.3,1,9.2,1.5c-4.3-0.3-14.2-1.6-18.2-2.5l7.8,1.9c-3.3,0.2-14.8-0.7-15.1-0.5
		c-3.5-1.1-8.8-2-10.5-3l6.7,0.3l2.3,1.2l3.9-0.3c-4.2-1.1-13.1-3.5-14.9-4.7c6.7,1.2,15.9,2.8,26.9,3.7c6.3,1,12.7,1.9,19,2.5
		c15.2,1.5,30.3,1.6,45.4,0.8c-0.1,0-0.2,0.1-0.3,0.1c-1.8,0.5-3.8,0.9-6.3,1.2c1.4-0.2,3.1-0.2,5.3,0c-4.1,0.9-8.1,1.9-12.2,2.5
		c3.1,0.2,4.9-0.3,6.8-0.8c1.9-0.5,4-1,7.8-1C553.5,926.4,554,927,545.9,928.3z M756.4,888.6c5.3,0.1,10.6,0.2,15.9,0.2h-0.1
		l5.2,0.9c-2,0.3-3.9,0.5-5.9,0.7L756.4,888.6z M393.8,821.5c1.7-0.1,2.2,0.1,2.7,0.4c-1.4,0.3-2.7,0.5-4,0.6L393.8,821.5z
		 M345.4,811.7c0.3-0.6,2.6-0.7,5-0.5c2.5,0.1,5.2,0.7,6.6,0.5c1.1,0.1,4,1.1,6.3,2.1s3.9,1.9,2.8,1.9c-3.1-1.5-4.7-1.5-6.3-1.6
		c-1.5-0.1-2.9-0.3-5.9-1.9c-1.1,0.5,0.5,1.2,2.8,2c-0.8-0.1-1.3-0.1-1.5,0.1c-1.2-0.3-2.4-0.7-3.5-1c-1.1-0.2-2.3-0.5-3.3-0.7
		C346.5,812.1,344.8,812,345.4,811.7z M336.7,811.6l-2,0.2c-7.7,0.4-12.5,1.7-15.2,2.5c-2.6,0.8-3.3,1.3-2.5,1.5
		c-1.8,0.4-3.6,0.9-5.3,1.5c3.1-1.5,6.1-2.9,7.8-3.5C325.7,812,332.7,811.3,336.7,811.6z M297.2,820.4c-0.4,0.4,0.1,0.4,0.8,0.3
		c-2,0.8-3.9,1.6-5.9,2.5C292.9,822.3,291.5,822.3,297.2,820.4z M242.4,868.7c0-1.9,0.5-3.7,0.7-5.4c0.7-2.6,1.4-4.4,1.6-4.6
		c-0.2-0.9,0.9-4.8,3.1-8.7c2.4-4.3,6-8.2,7.9-10.4c5.1-4.6,7.2-5.2,8.9-6c1.8-0.6,3.4-1.4,8.2-4.3c-1.3,0.3-2.6,0.8-3.8,1.2
		c4.3-2.7,7.5-4.3,10.8-5.8s6.8-2.8,11.8-4.5c1.4,0.6-4.6,1.5-6.7,3l4.9-0.8c-2.1,0.9-6.1,3.4-6.2,2.4c0.1,0.5-3.1,2.7,3.1-0.3
		l-4.5,2.7c0.3,0,0.7,0,1.1-0.1c-1.4,0.6-2.8,1.3-4.1,2c-1.8,0.5-5,2-7.9,2.8c-0.3-0.2,2.5-1.8,4.1-2.8c-4.3,1.6-7.9,4-10.1,5.7
		c3.2-1.9,4-2.2,4.2-2s-0.2,0.8,0.7,0.8c-1.9,1.3-4.4,2.9-6.6,4.6c-2.2,1.6-4.2,3.3-5.2,4.4c-1.3,1-2.4,2-3.4,2.9
		c-1,0.8-1.8,1.7-2.5,2.2c-1.3,1.1-1.7,1-0.5-1.1c-2.5,3.7-5.3,7.8-6.1,12.9c0.6-2.2,1-3.3,1.4-3.9c0.4-0.5,0.6-0.5,0.9-0.5
		c0.3,0,0.5-0.1,1-0.9c0.2-0.4,0.5-0.9,0.9-1.7c0.4-0.7,0.9-1.7,1.6-2.9c0.5-0.3,0.7-0.2,0.6,0.1c-2.3,3.3-4.2,6.9-5.3,10.9
		c-0.4,1.1-0.8,2.1-1,3c0.6-3.1-0.5-0.7-0.6-1.5c-0.3,1.1-0.3,2.1-0.4,2.8c0,0.8,0,1.3,0,1.7c0,0.8,0.2,0.9,0.4,0.6
		c0.2-0.3,0.4-0.8,0.6-1.6c-0.1,0.7-0.2,1.4-0.3,2.1c-0.3,3.9,0,7.7,0.8,11.4c0.2,1.8,0.4,3.7,0.7,5.5c-0.9-2.7-1.6-5.4-2.1-8.3
		c-0.1,1.9,0.3,4.3,1,6.7s1.7,4.7,2.5,6.7c0.7,2.4-0.6-0.1-2.1-3.9c-1.6-3.8-3-9.3-3.7-12.2C242.4,872.3,242.3,870.5,242.4,868.7z"
		/>
	<g>
		<g>
			<path id="XMLID_4_" class="st7" d="M1079.4,612.6l16.9-2.8c-2.1-13.5-4.6-28.5-7.7-43.8l-17.5-4l15.6-5.1
				c-2.2-10.1-4.6-21.1-7.2-29.9l-9.3-0.4l7.4-6.5c-5.1-17.6-11-33.6-17.8-45.4l-6.1,2.9l2.7-8.6c-6-8.8-12.6-14.4-19.8-15.4
				c-6.9-0.9-14.3,15.8-21.5,40.1l14,9.9l-15.9-3.3c-4.1,14.6-8,31.4-11.6,48.6l13.7,7.8l-15.5-0.6c-2.9,14-5.3,28.1-8.3,41.1
				l-17.2,64.2l55.8,9.1c5.8,1,11.8,1.2,17.6,0.4l55.8-7.2c0,0-1.9-19.4-5.8-46.5L1079.4,612.6z"/>
			<path id="XMLID_3_" class="st8" d="M1050.9,631.7c1.6-13.8,2.5-27.2,2.9-39.9l37.6-11.1c-0.3-1.6-0.6-3.1-0.9-4.7l-36.6,10.8
				c0.2-10.2,0.1-20-0.2-29.4l28.7-18.8c-0.4-1.6-0.8-3.2-1.2-4.8l-27.7,18.2c-0.5-10.2-1.3-19.9-2.2-28.8l19.6-23.5
				c-0.6-1.7-1.3-3.4-1.9-5.1l-18.5,22.1c-2-16.8-4.6-31-7-42.1c3.3-6.1,5.4-10.2,6.8-12.9c-1.2-1.2-2.4-2.3-3.6-3.3
				c-1.2,2.4-2.9,5.7-4.8,9.2c-1.4-5.7-2.6-10.2-3.5-13.5c-0.7-0.2-1.3-0.3-2-0.4c-0.9-0.1-1.9,0.1-2.8,0.6c1,3.4,2.4,8.5,4,15.1
				l-11.1-6.4c-0.7,1.3-1.4,2.7-2.1,4.2l14.6,8.4c2.5,11.3,5.1,26,7.2,43.4l-35.4-10c-0.4,1.5-0.8,3-1.2,4.6l37.1,10.5
				c0.9,8.8,1.7,18.3,2.2,28.3l-43.9-19.3c-0.4,1.6-0.7,3.1-1.1,4.7l45.2,19.9c0.3,9.2,0.4,18.9,0.2,29l-51.9-18
				c-0.3,1.6-0.6,3.1-0.9,4.7l52.7,18.2c-0.4,12.5-1.6,25.7-3.2,39.3l-55.1-22.6l-0.2,5l54.7,22.4c-1.2,9.7-2.4,19.6-4.2,29.7
				l4.6,0.9c1.9-10.1,3.4-20.1,4.6-29.8l49.1-4.4c-0.2-1.5-0.4-3.1-0.6-4.7L1050.9,631.7z"/>
		</g>
		<g>
			<path class="st9" d="M939.6,642.6c12.8,20.9,13.7,50.4-7.5,66.5c-13.6,10.4-30.7,12-47.2,13.3c-25.5,2-50.2,1.3-75.7-1.2
				c-14-1.4-27.2-6.3-41.1-7.2c-14.9-1-29.8-1.2-44.7-2.7c-28.9-3-53.1-17.7-81.7-22.8c-47.5-8.5-97.6-6.3-145.8-8.8
				c-14.3-0.8-28.7,0.6-43-0.2c-2.8-0.2-11.7,0.2-13.9-1.9c-3.8-3.6-1.6-7.9,1.2-12.5c20-33,67.1-25.7,98-14
				c13.2,5,13.6-2.5,26.5-8.4c11.7-5.3,26.5-7.3,39.3-5.7c4.9,0.6,14.7,6.9,18.3,6.5c5.3-0.5,11.9-10.1,17-13.5
				c10-6.6,21.8-10.4,33.8-11.1c16.9-1,32.7,4.1,44.7,13.1c11.1-22.7,40.8-40,76.4-42.1c21.9-1.3,45.1,3.1,63.5,15.5
				c3.8,2.6,6.8,6,10.5,8.6c5.1,3.7,4.1,2.7,10,0.4c6.5-2.6,13.3-3.3,20.2-2.1C914.9,615.1,930.2,627.3,939.6,642.6z"/>
		</g>
	</g>
	<g>
		<g>
			<g>
				<g>
					<path class="st3" d="M1124.2,661.3c-66.7,4.7-128.5,31.5-192.9,47.2c-33.1,8-66.5,12-100.6,10.9c-34.4-1.1-68.6-6.4-102.3-12.9
						c-67.3-13.1-134.1-31.2-202.9-33.1c-71.4-2-142,11.6-211,28.4c-38.8,9.5-77.2,20.8-116.5,28.3c-39.5,7.5-79.5,11.2-119.7,9.8
						c-4.3-0.2-4.3,6.6,0,6.7c34.6,1.2,69.2-1.3,103.3-6.8c35.3-5.7,69.6-15,104.2-23.8c69.6-17.8,140.3-34.1,212.5-35.9
						c70.8-1.7,139.2,14.6,208,28.9c65.4,13.5,132.2,23.9,198.7,12.1c74.2-13.2,143.5-47.6,219.2-52.9
						C1128.5,667.7,1128.5,661,1124.2,661.3L1124.2,661.3z"/>
				</g>
			</g>
		</g>
	</g>
	<path class="st9" d="M397.3,685.3c-10.5-19.3-42.2-19.4-61.2-16.4c-16.2,2.7-27.5,16.6-42.8,15.4c-10.1-0.8-20.5-10.6-30.1-14.2
		c-14.7-5.5-33.9-8.4-49.6-7.1c-15.9,1.4-31.7,8.4-38.8,23.5c-23.8-8.5-57-15.6-79.8,0.8c-12.9,9.3-19.7,31.9-6.4,44.4
		c8.7,8.2,24.1,6.3,35.1,5.7c20.3-1.1,40.6-2,61-2.9c40-1.8,77.6-8.7,116-20C331.5,705.4,362.8,687.8,397.3,685.3z"/>
</g>
<g id="mum">
	<path class="st10" d="M378,816c-14,12,28,32,56,33s65-6,67-16s2-10-6-21S399.5,809.1,378,816z"/>
	<path class="st10" d="M605,871c-6.5-17.9,47-14,58-45s50-19,56-7s-9,41-40,52S609,882,605,871z"/>
	<path class="st11" d="M417,819c-4.7-9,34-13,38-19s11-38,11-38s1-15,3-15s17,0,17,0l10,25c0,0-7,19-6,28s7.9,7.2,7.9,16.1
		C498,825,427,838,417,819z"/>
	<polygon class="st12" points="523,164 469,176 480,276 564,248 560.6,183.7 	"/>
	<path class="st11" d="M473,338c0,0,43,94,32,148s18-26,18-26s-1-81,0-85s-27-47-27-47L473,338z"/>
	<path class="st11" d="M623,318l20-37l105,78l-24,19l-35-9l-31-19C658,350,636,325,623,318z"/>
	<path class="st11" d="M637.3,852.3c1.4,10.9,57.7-6.3,66.7-28.3c8-17-8-15-13-21s-13-45-17-49s-17-4-17-4l-10,17c0,0,23,34,20,49
		S636.5,846.6,637.3,852.3z"/>
	<path class="st10" d="M512,446c0,0-51,179-46,316c7,14,30,9,30,9s37-85,26-122c-6-17,43-120,43-120s38,205,82,238
		c12.8,2.1,20.8-4,27-13c0,0-1-69-29-96s8-132,0-168s-14-55-14-55S545,461,512,446z"/>
	<path class="st13" d="M595,248c0,0-21.2-8.8-34.1-121.4C552,121,556,141,556,141l8,107H595z"/>
	<path class="st14" d="M525,235c-28,4.2-52,26-57,49s3,49,5,54s23,4,23,4s4,14,15,18s1,86,1,86s35,19,119-11c-4-66-19-109-20-123
		c6,1,12,5,12,5s23-27,20-36S591,225,525,235z"/>
	<path class="st11" d="M505,235c-2,8-7,11.7-7,11.7s15,35.3,40,40.3c18-17,17-53,17-53s-9,6-13-25s-44,3-44,3S506,231,505,235z"/>
	<path class="st15" d="M499.7,216.2c0,0,18.3,46.6,42.8-3.8S499.7,216.2,499.7,216.2z"/>
	<path class="st11" d="M552,130c5.2,31.6,3,62,0,69s-18,25-27,26s-36-13-40-20s-12.6-46.2-14-53C461.2,105.7,540.4,59.5,552,130z"/>
	<path class="st11" d="M451,157c-4.7,3.5-1,20,15,21s0-16,0-16S455,154,451,157z"/>
	<path class="st11" d="M572,146c4.4,3.5,1,22-8,23s-5-17-5-17S567,142,572,146z"/>
	<path class="st13" d="M508,84c25.9-2.9,49,11,52,35s13,113,11,122s3,41-26,52c9-22,14-18,9-80s-6-85-6-85s-23-9-23-24
		c-6,17-41,37-48,36c0,12,7,163,19,172c-17-6-24-39-24-39c-1,5-5,16-1.8,27c-7.1-3.6-14.2-42-9.2-77s-5-81,0-98S481,87,508,84z"/>
	<path class="st13" d="M483,149c0,2.2,5-3,9-3s12,5,13,3s-6-8-11-7S483,147,483,149z"/>
	<path class="st13" d="M546,147c0,2.2-5-3-8.9-3c-4,0-11.9,5-12.9,3s5.9-8,10.9-7S546,145,546,147z"/>
	<path class="st13" d="M484,161c0,0,3,5,7,4s8-13,14,0c1-3-2-9-7-8s-8,6-8,6S484,162,484,161z"/>
	<path class="st13" d="M549,158c0,0-3.1,5-7.2,4c-4.1-1-8.2-13-14.4,0c-1-3,2.1-9,7.2-8s8.2,6,8.2,6S549,159,549,158z"/>
	<path class="st16" d="M522.3,167.8c-2-5-1.4-10.2-0.7-15.4c0.1-0.6-0.9-0.6-1,0c-0.8,6.6-0.9,12.3,2,18.4c1.5,3.1,3.1,6.2,2.8,9.7
		c-0.5,5.4-7.2,7.7-10.3,2.8c-0.3-0.5-1.2,0-0.9,0.5c1.6,2.6,4.6,3.9,7.6,2.9c3.2-1,4.7-4.2,4.6-7.4
		C526.3,175.1,523.8,171.6,522.3,167.8z"/>
	<path class="st17" d="M485.9,164.7c-2.5,0.1-4.8,0.7-7,1.8c-0.6,0.3-0.1,1.2,0.5,0.9c2.1-1,4.2-1.6,6.5-1.7
		C486.6,165.7,486.6,164.7,485.9,164.7z"/>
	<path class="st17" d="M486.1,166.8c-1.9,0.7-3.6,1.7-5,3.1c-0.5,0.5,0.3,1.2,0.7,0.7c1.3-1.3,2.8-2.3,4.6-2.9
		C487,167.6,486.8,166.6,486.1,166.8z"/>
	<path class="st17" d="M549.4,162.5c-0.8-0.4-1.6-0.6-2.5-0.6c-0.6,0-0.6,1,0,1c0.7,0,1.4,0.1,2,0.4
		C549.4,163.6,549.9,162.8,549.4,162.5z"/>
	<path class="st17" d="M548.8,167.2c-0.5-1.6-1.7-2.8-3.3-3.4c-0.6-0.2-0.9,0.8-0.3,1c1.2,0.4,2.2,1.4,2.6,2.7
		C548,168.1,549,167.8,548.8,167.2z"/>
	<path class="st18" d="M529.2,194c0,4-3.9,7.4-7.6,8.3c-2.1,0.5-4.2,0.1-6-1.1c-1.6-1.1-3.9-3.5-3.8-5.6c0-0.6-1-0.6-1,0
		c-0.1,2.3,1.9,4.5,3.6,5.9c1.7,1.4,3.9,2.1,6.2,1.9c4.6-0.4,9.5-4.6,9.6-9.4C530.2,193.4,529.2,193.4,529.2,194z"/>
	<path class="st19" d="M494.4,330.3c0.2-0.2,0.3-0.4,0.3-0.7c0-0.3-0.2-0.4-0.4-0.4c-0.7-4.7-1.5-9.3-2.7-13.8l0,0
		c0.6-0.1,0.6-1.1,0-1c-0.1,0-0.2,0-0.3,0c-0.9-2.9-1.9-5.7-3.3-8.4c-0.3-0.6-1.2-0.1-0.9,0.5c1.3,2.6,2.3,5.3,3.2,8
		c-3.5-0.1-6.3-2.3-9-4.5c-0.5-0.4-1.2,0.3-0.7,0.7c2.9,2.4,6.1,4.8,10,4.8c1.3,4.7,2.2,9.5,2.8,14.4c-1.5,0.1-7.5,0.2-8,0.2
		c-3-0.1-6-0.5-9-1.1c-0.6-0.1-0.9,0.8-0.3,1c1.9,0.4,13.6,2.1,17.4,0.9c0.5,3.5,0.9,7.1,1.4,10.6c0.1,0.6,1.1,0.4,1-0.3
		C495.3,337.6,494.9,334,494.4,330.3z"/>
	<path class="st19" d="M494.1,336.2c-7.2,1.7-14.7,0.9-21.3-2.4c-0.6-0.3-1.1,0.6-0.5,0.9c6.9,3.4,14.6,4.3,22.1,2.5
		C494.9,337,494.7,336,494.1,336.2z"/>
	<path class="st19" d="M551.8,272.4c-0.8,3.8-10.8,18.5-13.2,19.3c-19.2-7.1-35.2-19.7-41.7-39.1c-0.2-0.6-1.1-0.4-1,0.3
		c3.3,19.6,34.4,38.7,42.5,40.2c5.5-2.1,13.6-15.9,14.2-20.2C552.8,272.3,552,271.8,551.8,272.4z"/>
	<path class="st19" d="M573,347.7c-6.8,1.3-13.2,3.9-19.6,6.7c-6.8,3-14,7.3-21.7,6.8c-0.6,0-0.6,1,0,1c7,0.5,13.5-3,19.7-5.8
		c7.1-3.2,14.2-6.2,21.8-7.7C573.9,348.5,573.6,347.6,573,347.7z"/>
	<path class="st19" d="M619.3,427.6c-13.4,7.9-28.7,11-43.9,13.2c-16.8,2.4-34,4.8-50.9,1.9c-0.6-0.1-0.9,0.9-0.3,1
		c16.8,2.9,33.8,0.6,50.5-1.7c15.6-2.2,31.3-5.4,45-13.5C620.4,428.2,619.9,427.3,619.3,427.6z"/>
	<path class="st19" d="M618.5,421.3c-20.7,11.5-44.4,14.5-67.5,17.2c-0.6,0.1-0.6,1.1,0,1c23.3-2.8,47.2-5.8,68-17.4
		C619.6,421.9,619.1,421,618.5,421.3z"/>
	<path class="st19" d="M611.8,312.2c-10.7-2.9-23.9-7-26.9-19.2c-1.3-5.3-1-11.5,0-16.9s3.3-10.4,7.3-14.2c0.5-0.4-0.2-1.2-0.7-0.7
		c-4.1,3.9-6.5,9.1-7.5,14.6c-1.1,5.6-1.4,11.9,0,17.4c2.5,10.2,11.9,15,21.2,18c-9.2,2-17.7-3.2-22.6-10.9c-0.3-0.5-1.2,0-0.9,0.5
		c5.3,8.3,14.6,13.8,24.6,11.2c0.2-0.1,0.3-0.2,0.3-0.3c1.7,0.5,3.4,1,5,1.4C612.2,313.3,612.4,312.4,611.8,312.2z"/>
	<path class="st19" d="M604.8,314c-4,4.8-12.8,2.7-17.3,0c-0.6-0.3-1.1,0.5-0.5,0.9c4.9,3,14.2,5.1,18.5-0.1
		C605.9,314.2,605.2,313.5,604.8,314z"/>
	<path class="st19" d="M491.5,315.7c-2.5-1.9-4.8-4-6.9-6.3c-2.2-2.5-5.2-5.7-5-9.2c0-0.6-1-0.6-1,0c-0.2,3.4,2.1,6.1,4.2,8.6
		c2.4,2.9,5.2,5.5,8.2,7.8C491.5,317,492,316.1,491.5,315.7z"/>
	<path class="st19" d="M544.7,294.9c-1.2,2.3-2.7,4.3-4.5,6.1c-14.9-5.4-28-15.2-37.4-28c-0.4-0.5-1.2,0-0.9,0.5
		c9.7,13.2,23.2,23.2,38.6,28.7c0.5,0.2,0.7-0.4,0.5-0.7c1.8-1.8,3.2-3.8,4.4-6.1C545.9,294.9,545,294.4,544.7,294.9z"/>
	<path class="st19" d="M620.3,373.4c-9.2,4.7-19.2,7.5-29.5,8.5c-0.6,0.1-0.6,1.1,0,1c10.5-1,20.6-3.9,30-8.6
		C621.4,374,620.9,373.1,620.3,373.4z"/>
	<path class="st19" d="M621.6,377c-4.7,4.1-10.7,5.8-16.6,7.3c-0.6,0.2-0.4,1.1,0.3,1c6.1-1.6,12.2-3.4,17.1-7.6
		C622.8,377.3,622.1,376.6,621.6,377z"/>
	<path class="st20" d="M612,445c-7,4.2-15.1,6-23.1,7.4c-8.3,1.5-16.7,2.7-25.2,3.3c-16.5,1.2-33.2,0.2-49-5.2
		c-0.6-0.2-0.9,0.8-0.3,1c10.5,3.6,21.4,5.3,32.4,5.7c-0.1,0.1-0.1,0.2-0.1,0.3c0.2,5.8,0.3,11.8,2.5,17.3c1.7,4.4,4.6,8,8.3,10.9
		c0.1,2,0.2,4,0.5,6.1c1.4,10.7,4.4,21.2,6.9,31.7c0.2,0.6,1.1,0.4,1-0.3c-2.6-11-5.9-22.1-7.1-33.3c-0.1-1.3-0.2-2.6-0.3-3.9
		c0.2-0.2,0.2-0.5,0-0.7c-0.4-9.2,0.4-18.4-1.1-27.6c-0.1-0.6-1.1-0.4-1,0.3c1.4,8.8,0.7,17.6,1,26.5c-8.1-6.8-9.4-16.7-9.7-26.9
		c0-0.1,0-0.2-0.1-0.3c5.7,0.2,11.3,0,17-0.5c8.2-0.7,16.4-1.8,24.5-3.3c8.1-1.4,16.2-3.2,23.3-7.5C613,445.6,612.5,444.7,612,445z"
		/>
	<path class="st20" d="M548.2,511.6c-3.4-6.5-10.4-9.7-17-12.2c-8.6-3.3-17.7-5.2-26.8-5.9c-0.6,0-0.6,1,0,1
		c8.5,0.6,16.8,2.4,24.8,5.2c6.9,2.4,14.6,5.6,18.2,12.4C547.6,512.7,548.5,512.2,548.2,511.6z"/>
	<path class="st20" d="M536.9,509.9c-8.3-5.4-17.6-9-27.3-10.6c-0.6-0.1-0.9,0.9-0.3,1c9.7,1.7,18.8,5.2,27.1,10.5
		C536.9,511.1,537.4,510.2,536.9,509.9z"/>
	<path class="st20" d="M611.2,498c-10.7,4-22,6.2-33.4,6.5c-0.6,0-0.6,1,0,1c11.5-0.3,22.9-2.5,33.7-6.6
		C612.1,498.7,611.8,497.8,611.2,498z"/>
	<path class="st20" d="M608,503.1c-6.6,3.3-13.8,5.1-21.2,5.2c-0.6,0-0.6,1,0,1c7.6-0.1,14.9-1.9,21.7-5.3
		C609.1,503.6,608.6,502.8,608,503.1z"/>
	<path class="st20" d="M532,458.4c-7.3-0.3-14.4-1.7-21.2-4.3c-0.6-0.2-0.9,0.7-0.3,1c6.9,2.6,14.1,4.1,21.4,4.4
		C532.6,459.4,532.6,458.4,532,458.4z"/>
	<path class="st20" d="M615.9,450.6c-10.3,4.2-21.2,6.7-32.4,7.2c-0.6,0-0.6,1,0,1c11.2-0.5,22.2-3,32.7-7.2
		C616.7,451.3,616.5,450.3,615.9,450.6z"/>
	<path class="st20" d="M491.6,641.4c-2.3,1.8-4.4,4.1-7,5.3c-3.2,1.5-6.1,0-9.4,0.1c-0.6,0-0.6,1,0,1c3.3-0.1,5.9,1.4,9.2,0.1
		c3.1-1.2,5.4-3.8,8-5.8C492.8,641.7,492.1,641,491.6,641.4z"/>
	<path class="st20" d="M520.8,643.1c-4.3-0.9-8.7-1.5-13.2-1.7c-0.6,0-0.6,1,0,1c4.3,0.2,8.6,0.8,12.9,1.7
		C521.2,644.2,521.4,643.2,520.8,643.1z"/>
	<path class="st20" d="M518.4,645.6c-3.7-0.8-7.4-1.1-11.2-0.8c-0.6,0-0.6,1,0,1c3.7-0.3,7.3,0,10.9,0.8
		C518.7,646.7,519,645.8,518.4,645.6z"/>
	<path class="st20" d="M519.6,649c-3.7,0-7.4,0.5-11,1.6c-0.6,0.2-0.4,1.1,0.3,1c3.5-1,7.1-1.5,10.7-1.5
		C520.2,650,520.2,649,519.6,649z"/>
	<path class="st20" d="M630.2,624.3c-6.1,4.7-13.9,4.9-21.2,6c-0.6,0.1-0.4,1.1,0.3,1c7.4-1.1,15.3-1.4,21.5-6.1
		C631.3,624.8,630.8,623.9,630.2,624.3z"/>
	<path class="st20" d="M629.7,628c-3.8,2.1-7.9,3.5-12.3,4.1c-0.6,0.1-0.4,1.1,0.3,1c4.4-0.7,8.6-2.1,12.5-4.2
		C630.8,628.5,630.2,627.7,629.7,628z"/>
	<path class="st20" d="M559.1,534.1c-2.9-3.5-8.8-4.5-12.9-5.6c-5.4-1.4-10.9-2.4-16.4-2.8c-0.6-0.1-0.6,0.9,0,1
		c5.2,0.4,10.3,1.3,15.3,2.6c2.4,0.6,4.7,1.3,7.1,2.1c2.3,0.8,4.7,1.5,6.3,3.5C558.8,535.3,559.5,534.6,559.1,534.1z"/>
	<path class="st20" d="M556.6,537c-5.9-2.7-12.2-4.4-18.7-4.9c-0.6-0.1-0.6,0.9,0,1c6.3,0.5,12.4,2.1,18.2,4.8
		C556.7,538.1,557.2,537.3,556.6,537z"/>
	<path class="st20" d="M496.8,762.3c-8.9,3.7-18.1,0-26.4-3.5c-0.6-0.2-1.1,0.6-0.5,0.9c8.5,3.6,18,7.4,27.1,3.6
		C497.6,763.1,497.4,762.1,496.8,762.3z"/>
	<path class="st20" d="M498.5,758.1c-7.2,1.6-14.5,1.1-21.4-1.5c-0.6-0.2-0.9,0.7-0.3,1c7.1,2.6,14.6,3.1,21.9,1.5
		C499.3,759,499.1,758,498.5,758.1z"/>
	<path class="st20" d="M670,749.4c-4.4,8.8-14,12.1-23.2,13.3c-0.6,0.1-0.6,1.1,0,1c9.5-1.3,19.5-4.7,24.1-13.8
		C671.1,749.4,670.2,748.9,670,749.4z"/>
	<path class="st20" d="M669.8,742.8c-0.3,4-5,6.6-8,8.5c-3.2,2-6.6,3.7-10.2,5c-0.6,0.2-0.3,1.2,0.3,1c4.5-1.7,8.7-3.8,12.6-6.6
		c2.8-2,6.2-4.2,6.4-8C670.8,742.2,669.8,742.2,669.8,742.8z"/>
	<path class="st20" d="M497.1,820.7c-6.1,6-14.7,8.5-22.9,10.3c-9.2,2.1-18.7,3.1-28.1,3c-8.9-0.1-18.4-0.9-27-3.6
		c-4.3-1.3-8.6-4-9.9-8.6c-1.2-4.5,2.5-10.9,7.5-11c0.6,0,0.6-1,0-1c-5.5,0.1-9.7,6.9-8.5,11.9c1.6,6.9,8.9,9.4,15.1,10.8
		c17,3.6,34.8,3.4,51.7-0.6c8.2-1.9,16.7-4.4,22.9-10.5C498.2,821,497.5,820.3,497.1,820.7z"/>
	<path class="st20" d="M712,814.7c-0.1-0.6-1.1-0.6-1,0c0.5,4.6-0.2,9.3-2.3,13.5c-2.1,4-5.4,7-8.6,10c-6.6,6.1-13.5,11.9-21.1,16.5
		c-7.9,4.7-16.7,8.2-25.9,9c-6.4,0.6-24.5,0.4-20.2-10.5c0.2-0.6-0.7-0.9-1-0.3c-0.9,2.4-0.7,5.1,0.8,7.3c1.8,2.6,4.9,3.3,7.8,3.9
		c7.6,1.5,15.6,0.8,23-1.4c15.4-4.5,28.1-15,39.5-25.9C709.2,830.9,713,823.6,712,814.7z"/>
	<path class="st21" d="M524.4,92.9c0-0.6-1-0.6-1,0c0.5,6.8-4.8,12.4-9.2,16.9c-4.2,4.4-8.8,8.3-13.7,11.8
		c-9.8,6.8-20.8,11.7-32.4,14.3c-0.6,0.1-0.4,1.1,0.3,1c12.5-2.8,24.3-8.2,34.6-15.8c4.9-3.6,9.5-7.8,13.6-12.3
		C520.6,104.4,524.9,99.2,524.4,92.9z"/>
	<path class="st21" d="M517.4,92.5c-1,9.5-10.5,15.4-18,19.8c-8.4,4.9-17.6,8.3-27.1,10.5c-0.6,0.1-0.4,1.1,0.3,1
		c10.4-2.4,20.5-6.4,29.6-11.9c7.2-4.4,15.3-10.2,16.2-19.3C518.5,91.9,517.5,91.9,517.4,92.5z"/>
	<path class="st21" d="M554.1,117c-10.8,0.6-20.1-6.6-22.2-17.2c-0.1-0.6-1.1-0.4-1,0.3c2.2,11,12,18.6,23.2,17.9
		C554.7,118,554.7,117,554.1,117z"/>
	<path class="st21" d="M552.5,106.2c-7.3,0.8-14-3.1-17-9.8c-0.3-0.6-1.1-0.1-0.9,0.5c3.1,7.1,10.1,11.1,17.8,10.3
		C553.2,107.1,553.2,106.1,552.5,106.2z"/>
	<path class="st21" d="M510.5,95.8c-2.8,3.6-6.7,6.2-10.5,8.6c-4,2.5-8.1,4.9-13,4.6c-0.6,0-0.6,1,0,1c5,0.3,9.4-2.1,13.5-4.8
		c4-2.6,7.9-5.2,10.8-9C511.8,95.8,510.9,95.3,510.5,95.8z"/>
	<path class="st21" d="M483.3,287.5c-3.9-7.8-5.5-16.3-6.4-24.9c-0.9-9-1.3-18-1.7-27c-0.8-18.4-0.6-36.8-0.5-55.3
		c0.1-10.3-0.1-20.6-1.4-30.8c-0.1-0.6-1.1-0.6-1,0c2.4,18.6,1.1,37.4,1.1,56.1c0.1,18.7,0.6,37.5,2.4,56.1c0.9,9,2.5,18.1,6.6,26.2
		C482.7,288.6,483.6,288.1,483.3,287.5z"/>
	<path class="st21" d="M470.6,266.9c-5.6-8-6.1-17.9-5.2-27.3c0.9-10,2.3-19.9,3.1-29.9c0.8-10,1.4-20.1,1.6-30.1
		c0.1-4.7,0-9.5-0.6-14.2c-0.6-5-1.6-9.9-2-14.9c0-0.6-1-0.6-1,0c0.3,5,1.3,9.9,2,14.9c0.6,5,0.7,10.1,0.6,15.1
		c-0.2,10.4-0.9,20.8-1.7,31.1c-0.9,10.3-2.6,20.5-3.2,30.8c-0.5,8.7,0.5,17.6,5.6,24.9C470.1,267.9,470.9,267.4,470.6,266.9z"/>
	<path class="st21" d="M563.2,220.9c-3.1-19.6-5.3-39.3-6.3-59.1c-0.5-11.2-0.7-22.3-0.6-33.5c0-0.6-1-0.6-1,0
		c-0.3,19.1,0.5,38.1,2.2,57.1c0.9,9.2,2,18.4,3.3,27.5c1.4,9.5,3.4,19,3.7,28.7c0.4,10.7-1.7,21.2-6.5,30.8
		c-0.3,0.6,0.6,1.1,0.9,0.5c3.8-7.7,6.1-16,6.6-24.5C566.2,239.2,564.7,230,563.2,220.9z"/>
	<path class="st19" d="M552.3,348.9c-5.4,2.3-10.7,4.5-16.2,6.5c-5.4,2-11,4-16.8,4.1c-0.6,0-0.6,1,0,1c5.9-0.1,11.6-2.1,17.1-4.2
		c5.5-2,11-4.3,16.4-6.6C553.4,349.5,552.9,348.6,552.3,348.9z"/>
</g>
<g id="skid">
	<path class="st22" d="M807.9,780c2,13,2,25,0,46c3,16,17.5,15.9,24.5,15c7-1,26.7,3.7,29.1-34.1c2.5-37.8,5.3-91.1-9.4-94.8
		c-23.6-6-40.2,9.9-40.2,9.9s-20.1,38.5-17,44.3C795,766.3,803.5,768.7,807.9,780z"/>
	<path class="st11" d="M569,848c0,0,28-163,54-191s40,25,40,25s-25,58-38,71c5,32-21,67-28,96C591,867,569,848,569,848z"/>
	<path class="st22" d="M482,881c0,0-1-20,9-24s63.4-0.1,71.4-17.1c6.6-6.4,9.6,2.1,6.6,7.1c4,3,28,2,28,2l3.7,20c0,0,5.3,22-5.7,27
		s-42,3-42,3l-54.3-10L482,881z"/>
	<path class="st11" d="M700,682c0,0,22,74,31,79s58,18,91-8s-8-22-15-18s-26-15-47-2c2-14-6-55-6-55S704,670,700,682z"/>
	<path class="st11" d="M627.3,450.4c0,0-3.7,31.1-7.3,40.5c-3.7,9.5-40.3,67.3-40.3,67.3s-19.8-1.8-25.3,3.4s-17.6,18.2-17.6,22.5
		c0,4.3,2.9,6.4,2.9,5.6c0-0.9-12.6,29.3-9.8,33.6s17.4-24.4,17.4-24.4s-8,26.6-5.3,30c2.7,3.5,19.1,1.9,23.7-2.4s9.3-24.7,9.3-24.7
		s18.5-21.1,14-35.8c22.9-12.1,46.7-26.7,53.1-42.3s22-44.9,21-65.6C662.1,437.4,627.3,450.4,627.3,450.4z"/>
	<path class="st11" d="M786,447c0,0,26,21,27,29s9,79,3,87s-19,19-22,33s-4,29,0,31s5-23,8-25s8-1,8,5s2.6,21.8-1.8,34.1
		c-3.5,10.1,5.7,2.3,7.7-0.7s5-17.4,7-18.4s4-3,4,4s0.7,8.3-2.5,17.6c-3.2,9.3,9.6,3.1,13.6-6.9S844,624,843,607s-6-35-6-39
		s12-80,11-90s-15-59-29-63S786,447,786,447z"/>
	<path class="st23" d="M483,873c-1,4,54,28,112,23c0,0,7,3.4,1.2,9.1c-6.7,6.7-118.1-13.2-118.9-25.2C476.7,869.3,479,871,483,873z"
		/>
	<path class="st23" d="M865,722c-7-18-23-16-30-11c0,0,18-3,22,11c0.6,2.3,1.4,6.1,2.1,11.1c-2.7-3.1-7.2-5.2-10.7-6.5
		c-1.4-0.5-2.4,0-3.1,0.9c-4.9,2.3-8.2,7.3-7.2,12.9c1.1,5.9,6.6,10.4,12.6,9.9c4-0.3,7.9-2.9,9.7-6.4c3.1,28.3,4.5,73.1-6.5,87
		c-15,19-42,5-42,5s1,11,17,11s28-1,34-22S872,740,865,722z M851,744.3c-7.2,1.4-9.4-8.9-2.9-11.4c2.4,0.9,5.2,2.3,6.7,4.3
		C856.9,740.3,854.2,743.7,851,744.3z"/>
	<path class="st23" d="M664,368c-0.7,1.3,9.1,26.7,20,30c14-1,43-37,44-41s-0.9-7.3-0.9-7.3c-2.9-0.7-6-0.9-9.3-0.7L696,360l-19,5
		C677,365,664.5,367.4,664,368z"/>
	<path class="st24" d="M657.6,561.1c-3.7-0.9-80.2,183.5-88.2,266.9c-0.7,7.2-14.9,1.6-11.9,7.9c3.8,8-11.5,5.5,4,18.6
		c54.5,18.3,37,2.7,38.1-10.6s30-56.3,25.4-90.9c21.3-30.6,65.4-101.4,65.4-101.4S718.2,753.2,731,761s91.4,18.2,103.8-19.8
		c12.5-38-32.9-12.1-40.7-11.5s-31.2-8.7-33.8-7.6c-2.6,1,7.4-114.4-3.2-153.9C746.4,528.6,657.6,561.1,657.6,561.1z"/>
	<path class="st25" d="M625.9,407.9c-5.9,9.8-2.2,22.5-2.2,37c0,14.6-1.7,27.7-4.5,42.9c-2.8,15.1-34.4,41-34.4,51.4
		s-2.4,16.6,14.9,26.5c17.3,9.9,31.2-13.3,31.2-13.3l24-28.7c0,0-14,26.7-11.7,41.3s56.2,18.5,63.3,18.7s56.9-11.2,64.4-19.7
		s-9.6-54.8,1-122.8c5.1-7.1,37.7,27.6,41,34.6c4,8.4-13,69.3-4.2,75.5s32.5,5.9,36.2,2.5c3.6-3.4,11.3-48.4,6-86.1
		c-5.3-37.6-50.2-79.2-70.9-92.9s-29.2-9.6-29.2-9.6s9.5-5.1,8.6-13.1c-0.9-7.9-13.8-14.5-18.2-27.1s-12.5-55.9-11.9-60
		c0.5-4.1,0.5-13.1-1.5-22s-24-33.5-34.3-35.3s-33.2-8.3-57.8-3.4c-24.6,4.8-19,38.1-19,38.1l4,94.5l22.6,45.1l5.9,10
		C649.3,392.2,634.4,393.9,625.9,407.9z"/>
	<path class="st25" d="M675.7,389.8c0,0-44.6,6.1-53.8-3.9s-4.5-38.7-5.4-46.7s-8.8-102.7-1.1-114.6c7.7-12,9.6-21.2,25.5-23.1
		s24.8,5.2,24.8,5.2l25.7,65.5c0,0,7.4,55.5,6.5,56.6s-4.5,39.8-4.5,39.8L675.7,389.8z"/>
	<path class="st26" d="M632,363.6c-2.5,18.8,49,17.9,49,17.9s5.9-13.2,5.8-14.2c-0.1-1-13.4-46.8-13.4-46.8s-36.1-16-36.9-14.9
		c-0.9,1.1-8.1,29.7-8.1,29.7S633.1,355.5,632,363.6z"/>
	<path class="st11" d="M665,347c0-1.5,2,27.9,16,34.6c20-14,36-21.6,39-28.6c-10-17-14-33-12-51s-12-2-12-2L665,347z"/>
	<path class="st15" d="M700,323c0,0,0,34.3-31,39.7c0,0.3-4-15.7-4-15.7L700,323z"/>
	<path class="st11" d="M616.4,250.4c3.2-7.8,29.9-25.6,29.9-25.6s38.6-4.9,39.6-3c1,2,14.5,13.8,14.5,13.8l10.6,54.2v6.9l-10.6,9.9
		c0,0,6.8,33.5-26.1,43.4c-32.8,9.9-47.3-19.7-51.2-28.6s-4.8-29.6-8.7-37.5C610.6,276.1,611.6,262.3,616.4,250.4z"/>
	<path class="st13" d="M650.9,247c0,0-25.8,29.1-52.2,27.1c-8.9-25.1,6.1-51.8,16.2-55.6c10.2-3.8,21.8-4.5,28.9-3.3
		c9.5,1.5,26.6,21.7,26.2,32c-0.4,9.6-26.7,21.8-26.7,21.8S654.6,252.6,650.9,247z"/>
	<path class="st13" d="M646,269c1.1,3.4,8-4,12-4s9,4,11,2s-7-7-12-6S645,266,646,269z"/>
	<path class="st13" d="M608.7,274.6c0.2,2.7,2.3-2.6,7.3-3.6s11,3,12,0s-7-4-11-4S608.5,271.2,608.7,274.6z"/>
	<path class="st3" d="M637.4,324.6c1-1.9,4.2-0.4,10.3-1.3c7.1-1,17-6.9,19.3-4.3s-2.9,12.3-16,14S636.4,326.5,637.4,324.6z"/>
	<path class="st27" d="M569,847"/>
	<g>
		<path class="st11" d="M755.4,346.2c-2.3-0.5-3.7,2.6-4.7,6.5c-0.7-7.2-5.3-6.3-8.3-6.5c-5.1-0.2-4,14.8-4.5,18.7
			s1.8,13.1,4.8,12.7c2.1-0.3,3.8-3.4,5.3-8c0.1,4.4,1.2,9.6,3.4,9.6c3,0,6-6,9-14C766.4,346.2,759.3,347,755.4,346.2z"/>
		<path class="st11" d="M769.4,352.2c-4.7-2-8.8,13.5-10.6,17.2s-2.8,13.7,0.2,14.3c2.9,0.6,7.1-4.7,11.6-11.9
			C780.1,354.4,773,353.8,769.4,352.2z"/>
		<path class="st11" d="M779.5,366.1c-4.5-2.5-9.6,8.4-11.6,10.8s-3.6,9.8-0.8,10.9c2.9,1.1,7.3-2.1,12.2-6.6
			C790,370,783.1,368,779.5,366.1z"/>
	</g>
	<path class="st25" d="M619.8,216.5c6-0.7,19.8-3.3,31.3,9.5s20.8,40.9,22.3,44.7c1.5,3.9,17.8,49.3,21.4,54.9s10,17,11.6,21.8
		c1.6,4.9-7.6,21-16.5,23c-8.8,2-15.4,14.8-15.4,14.8s38-10.4,39-10.5s15.7-20.9,15.7-20.9l-4.3-19.6l-12.8-85.1l-10-26l-29.2-17.8
		l-44.7,4.1L619.8,216.5z"/>
	<path class="st13" d="M650.9,284.4c-2.4-4.1,5.7-14.5,16.1-2.4C661.3,282,656.4,273.5,650.9,284.4z"/>
	<path class="st13" d="M630.9,289.3c0.5-4.6-9.3-11.8-13.4,2.7C622,290.2,623,280.8,630.9,289.3z"/>
	<path class="st17" d="M646.7,309.5c-2.4,0.2-5.5,0.5-7.8-0.6c-3.2-1.5-3.5-3.6-3.5-6.9c-0.1-5.3,0.7-10.5,2-15.7
		c0.3-1.2-1.6-1.8-1.9-0.5c-1.5,6-3.8,15.5-1.6,21.6c1.6,4.6,8.9,4.4,12.9,4.1C648,311.4,648,309.4,646.7,309.5z"/>
	<path class="st17" d="M566.4,593.2c-3.6-3.4-4.4-8.2-4.9-13c1.3-0.8,2.5-1.8,3.7-2.8c1-0.9-0.5-2.3-1.4-1.4
		c-3.2,2.9-6.9,4.7-11.2,5.3c-2.2,0.3-5.6-0.8-7.6,0.2c-2,0.9-3.1,4.4-4.1,6.1c-2.3,3.8,3.4,0.8-1.3,2.1c-1.2,0.3-1.2,0.4,0,0
		c3-0.8,1,0.6,2.9-1.8c2.1-2.7,0.9-3.4,4.3-4.6c1.4-0.5,4.2,0.2,5.9,0c1.6-0.2,3.1-0.6,4.6-1.1c0.8-0.3,1.6-0.6,2.3-1
		c0.5,4.9,1.6,9.8,5.3,13.3C565.9,595.5,567.3,594.1,566.4,593.2z"/>
	<path class="st17" d="M570.4,600.2c-9.1,3.9-21.8-2.1-29-7.5c-1-0.8-2,1-1,1.7c4.4,3.3,10.5,6.6,16.8,8.1c-0.5,1.1-0.9,2.2-1.1,3.4
		v0.5c-2.2,8.1-4.7,16.1-7.4,24c0.7,0,1.4,0,2.1-0.1c2.7-8,5.2-16,7.4-24.1c0.1-0.3,0-0.5-0.1-0.7c0.2-0.9,0.6-1.8,1-2.7
		c1.9,0.3,3.8,0.5,5.6,0.4c-1.5,8.8-3.6,17.4-6.2,25.9c0.7-0.2,1.5-0.4,2.2-0.6c2.5-8.4,4.5-16.9,6.1-25.5c1.6-0.2,3.1-0.6,4.5-1.2
		C572.6,601.4,571.6,599.7,570.4,600.2z"/>
	<path class="st17" d="M830.9,646.6c0.8-0.8,1.7-1.5,2.6-2.2c0.1-0.7,0.3-1.4,0.4-2.1c1.4-7.6,2.6-15.5,1.9-23.3
		c1.3-0.7,2.6-1.7,3.4-3c1.4-2.3,0.4-3.9,0.3-6.2c-0.1-1.3-2.1-1.3-2,0c0.1,1.8,1.1,3.5,0,5.2c-1,1.6-2.8,2.4-4.5,3.2
		c-1.1,0.5-0.2,2.1,0.9,1.8c0.5,6.8-0.5,13.5-1.6,20.3C831.9,642.4,831.5,644.5,830.9,646.6z"/>
	<path class="st17" d="M825.9,611.1c0.1-1.3-1.9-1.3-2,0c-0.1,1.2,0.1,2.4,0,3.7c-0.1,1.7-1.3,2.4-2.7,3c-1.2,0.5-0.2,2.3,1,1.7
		c1.5-0.7,2.8-1.5,3.4-3.1C826.2,614.7,825.7,612.8,825.9,611.1z"/>
	<path class="st25" d="M813.2,565.6c1,1.8,14.5-2.4,19.2,0c4.6,2.4,4.6,2.4,4.6,2.4c4.3-1.6,4.1-15.9,4.1-15.9l-25.9-4.4
		C815.2,547.6,811.7,562.7,813.2,565.6z"/>
	<path class="st25" d="M575.5,558.5c0,0,14.1,1.9,13.8,9.6c-0.3,7.7,11.1-0.2,11.6-4.8s-3.5-21.5-12.7-18.2
		C579,548.5,572.6,556.1,575.5,558.5z"/>
	<path class="st23" d="M830,760.6c-10.5-1.1-21,3.3-27.5,11.7c-2.3,3,1.9,7.3,4.2,4.2c5.6-7.3,14-10.9,23.2-9.9
		C833.9,767,833.8,761,830,760.6z"/>
	<path class="st23" d="M833.5,774.8c-9.6-3.2-20-0.5-27.1,6.7c-2.7,2.8,1.5,7,4.2,4.2c5.6-5.8,13.6-7.7,21.2-5.2
		C835.6,781.8,837.2,776,833.5,774.8z"/>
	<path class="st23" d="M830.2,790.9c-5.6-5.2-16.8-2.5-22.7,1.1c-3.3,2-0.3,7.2,3,5.2c3.2-2,12.1-5,15.4-2
		C828.8,797.8,833,793.5,830.2,790.9z"/>
	<path class="st23" d="M553.7,844.5c-2.2-3.1-7.4-0.1-5.2,3c3.4,4.8,4.2,10.7,1.6,16.1c-1.7,3.5,3.5,6.5,5.2,3
		C558.8,859.4,558.4,851,553.7,844.5z"/>
	<path class="st23" d="M543.7,848.7c-1.9-3.4-7-0.4-5.2,3c2,3.6,2.6,7.5,1.8,11.5c-0.8,3.8,5,5.4,5.8,1.6
		C547.3,859.3,546.5,853.8,543.7,848.7z"/>
	<path class="st23" d="M532.7,851c-1.3-3.6-7.1-2-5.8,1.6c1,2.6,3.2,6.6,0.5,8.9c-3,2.5,1.3,6.7,4.2,4.2
		C536.3,861.8,534.5,855.8,532.7,851z"/>
	<path class="st23" d="M586.3,866.7c-0.3-0.1-0.5-0.1-0.8-0.1c-5.3-1.1-11.5-0.3-14.5,4.8c-3.3,5.5-0.4,11.3,5.2,13.7
		c5.2,2.2,12.2,2.3,15.4-3.1C594.5,877.4,591.8,868.3,586.3,866.7z M585.3,880.1c-2.1,1.3-5.3,0.5-7.3-0.6c-2.4-1.3-3.2-3.7-1.2-5.8
		s5.3-1.8,7.9-1.1c0.1,0,0.1,0,0.2,0c0.7,0.5,1.7,3.1,1.8,3.7C587.1,877.9,586.7,879.3,585.3,880.1z"/>
	<path class="st28" d="M694.8,660.2c-5.1-24.4-5.5-49.4-0.9-73.9c0.2-1.3-1.7-1.8-1.9-0.5c-2.9,15.8-3.9,31.8-2.8,47.7
		c-7.4-0.8-14.3-3.2-20.6-7.3c-1.1-0.7-2.1,1-1,1.7c6.6,4.3,13.9,6.8,21.8,7.6c0.6,8.5,1.8,16.9,3.6,25.3
		C693.1,662,695.1,661.4,694.8,660.2z"/>
	<path class="st28" d="M688.4,638.6c-6.3,0-12.6-0.2-18.9-0.7c-1.3-0.1-1.3,1.9,0,2c6.3,0.5,12.6,0.7,18.9,0.7
		C689.6,640.6,689.6,638.6,688.4,638.6z"/>
	<path class="st28" d="M687.9,609.3c-1.8-0.8-4.9-1.9-6.1-3.5c-2.1-2.7-2.1-6.2-1.4-9.3c0.9-4.1,2.3-8.1,3.9-12
		c0.5-1.2-1.4-1.7-1.9-0.5c-1.4,3.4-2.5,6.8-3.4,10.3c-0.7,2.6-1.9,5.9-1.6,8.6c0.5,4.3,6.3,6.6,9.6,8.2
		C688,611.6,689.1,609.9,687.9,609.3z"/>
	<path class="st28" d="M757.6,615.9c-4,0.2-7.8-0.1-11.7-1.1c-1.5-0.4-3.4-0.9-4.7-1.8c-2.8-2.1-2.7-5.8-3.1-8.8
		c-0.9-6.8-1.8-13.6-2.7-20.4c-0.2-1.3-2.2-1.3-2,0c0.7,5.2,1.4,10.5,2.1,15.7c0.5,3.7,0.4,8.4,1.9,11.8c2.9,6.7,14.2,6.9,20.3,6.6
		C758.9,617.8,758.9,615.8,757.6,615.9z"/>
	<path class="st28" d="M759.7,610.4c-3.3-0.1-6.6-0.6-9.8-1.4c-1.4-0.4-3.1-0.7-4.3-1.5c-2.5-1.6-3.3-4.7-3.6-7.5
		c-0.6-6.5,0-13.3,0-19.8c0-1.3-2-1.3-2,0c0,5.3,0,10.6,0,15.9c0,3.3-0.9,7.8,1.2,10.7c3.5,5,13.1,5.5,18.6,5.8
		C761,612.4,761,610.4,759.7,610.4z"/>
	<path class="st28" d="M743.5,628.5c-13.4-3.7-27.2-4.2-40.8-1.4c-1.3,0.3-0.7,2.2,0.5,1.9c13.3-2.7,26.7-2.2,39.7,1.4
		C744.2,630.8,744.7,628.9,743.5,628.5z"/>
	<path class="st28" d="M740.4,635.8c-11.2-2.8-22.7-5-34.1-1.8c-1.2,0.3-0.7,2.3,0.5,1.9c11.1-3.1,22.2-0.9,33.1,1.8
		C741.1,638,741.6,636.1,740.4,635.8z"/>
	<path class="st28" d="M664,614.3c-7.4-3.7-15.2-5.8-23.4-6.4c-1.3-0.1-1.3,1.9,0,2c7.9,0.5,15.4,2.6,22.4,6.1
		C664.2,616.6,665.2,614.8,664,614.3z"/>
	<path class="st28" d="M654.1,620.3c-5.1-3.7-10.4-7-16-9.9c-1.1-0.6-2.1,1.1-1,1.7c5.6,2.9,10.9,6.2,16,9.9
		C654.1,622.8,655.1,621,654.1,620.3z"/>
	<path class="st28" d="M649,629.1c-4.3-3.4-8.7-6.8-13-10.2c-1-0.8-2.4,0.6-1.4,1.4c4.3,3.4,8.7,6.8,13,10.2
		C648.5,631.3,650,629.9,649,629.1z"/>
	<path class="st28" d="M740.5,741.3c-1-0.8-2,1-1,1.7c3.6,2.6,1.9,7.5,0.3,10.7c-0.6,1.2,1.2,2.2,1.7,1
		C743.7,750.3,745.1,744.6,740.5,741.3z"/>
	<path class="st28" d="M760.7,722.4c-0.4-1.1-1.9-0.8-2,0.2c-0.3,0.2-0.5,0.4-0.5,0.8c-0.5,6.4-4.1,12-9.7,15.3
		c-1.1,0.6-0.1,2.4,1,1.7c5.3-3.1,8.9-8.1,10.2-13.9c0.9,5,0,10-2.7,14.6c-0.6,1.1,1.1,2.1,1.7,1C762.3,736,763,729.1,760.7,722.4z"
		/>
	<path class="st28" d="M764.1,724c-1-0.8-2.4,0.6-1.4,1.4c4,3.4,5.6,8.5,4.2,13.6c-0.3,1.2,1.6,1.8,1.9,0.5
		C770.4,733.8,768.6,727.8,764.1,724z"/>
	<path class="st28" d="M624.6,748c-4.6-0.3-9-1.6-13-3.7c-1.1-0.6-2.1,1.1-1,1.7c4.4,2.4,9.1,3.7,14,4
		C625.9,750.1,625.9,748.1,624.6,748z"/>
	<path class="st28" d="M624.4,750.6c-4.4,1.3-8.7,1.2-13-0.3c-1.2-0.4-1.7,1.5-0.5,1.9c4.6,1.7,9.4,1.8,14.1,0.3
		C626.1,752.1,625.6,750.2,624.4,750.6z"/>
	<path class="st28" d="M625.5,756.1c-4.6,2.4-9.7,1.6-14.5,0.7c-1.3-0.2-1.8,1.7-0.5,1.9c5.4,1,11,1.7,16.1-0.9
		C627.7,757.3,626.7,755.5,625.5,756.1z"/>
	<path class="st28" d="M600.4,746.7c-1.8,4.3-6.7,6.4-11,5c-1.2-0.4-1.8,1.6-0.5,1.9c5.5,1.7,11.3-1.2,13.5-6.4
		C602.8,746,600.9,745.5,600.4,746.7z"/>
	<path class="st28" d="M595,837.7c-3.6,4.5-8.9,6.8-14.7,7.1c-3.4,0.2-6.9-0.3-10.2-1c-2.5-0.5-9.6-2.3-5.3-6.3
		c3.4-3.1,17.7-4.8,13.3-12.3c-0.7-1.1-2.4-0.1-1.7,1c2.7,4.6-13,8.4-14.8,11.8c-1.7,3.2,0.6,5.5,3.5,6.6
		c10.2,3.9,24.1,3.8,31.4-5.3C597.2,838.2,595.8,836.7,595,837.7z"/>
	<path class="st28" d="M597.3,849.6c-9,4.5-19.2,4.8-28.5,0.9c-1.2-0.5-2.2,1.2-1,1.7c10,4.2,20.8,3.9,30.5-0.9
		C599.5,850.8,598.4,849.1,597.3,849.6z"/>
	<path class="st28" d="M825.5,733c-1.9-4.3-3.9-6.9-8.8-6.7c-1.7,0.1-4.1,0.3-5.6,1.3c-2.6,1.8-2.8,5.6-7.3,5c-1.3-0.2-1.3,1.8,0,2
		c1.9,0.2,3.6,0,5.1-1.2c1.2-0.9,1.4-2.1,2.3-3.1c1.7-1.9,4.8-2.4,7.2-1.9c4.9,1,7.1,8.8,6.6,13.2c-0.7,5.8-5.3,7.8-10.3,9.4
		c-1.2,0.4-0.7,2.3,0.5,1.9c4-1.3,8.4-2.8,10.5-6.8C828.1,742,827.2,737.1,825.5,733z"/>
	<path class="st28" d="M834.7,732.2c-0.3-3.5-2.4-5.9-4.1-8.9c-0.6-1.1-2.4-0.1-1.7,1c1.3,2.4,3.2,4.4,3.7,7.1
		c0.6,3.2-0.3,6.3-2.3,8.8c-0.8,1,1,2,1.7,1C834,738.7,835,735.5,834.7,732.2z"/>
	<path class="st26" d="M653.2,483.1c-2.2-16.4-0.5-32.7,1.4-49.1c0.4,0,0.7-0.5,0.3-0.8c-9.4-7.7-14.2-19.2-18.2-30.4
		c-0.2-0.6-1.2-0.3-1,0.3c4,11.2,8.8,22.7,18.1,30.5c-0.1,0.1-0.3,0.2-0.3,0.4c-1.9,16-3.6,32.1-1.6,48.2c1.9,15.3,6,31.1,1.4,46.3
		c-0.2,0.6,0.8,0.9,1,0.3C659,513.7,655.2,498.2,653.2,483.1z"/>
	<path class="st26" d="M778.9,443.1c-2.8-4.9-8.4-6.6-12.9-9.5c-5.6-3.6-10.2-8.5-13.8-14c-6.6-10.2-13.3-26.4-6-37.8
		c0.3-0.5-0.5-1-0.9-0.5c-7,10.9-1.5,26,4.4,36.2C752.9,423,757,428,762,432c2.4,1.9,5,3.4,7.7,4.9c0.4,0.2,0.8,0.4,1.3,0.7
		c-4,0.6-8.8-2.2-12.3-3.7s-6.9-3.1-10-5.2c-6.5-4.2-11.9-10.3-13.4-18c-0.1-0.6-1.1-0.4-1,0.3c1.6,8,7.2,14.3,13.9,18.6
		c3.7,2.4,7.7,4.2,11.8,5.9c3.7,1.5,8.1,4.1,12.2,2.9c0,0,0.1,0,0.1-0.1c0.6,0.3,1.1,0.7,1.6,1c-9.6,4.8-21.7,2.9-29.3-4.7
		c-0.5-0.5-1.2,0.3-0.7,0.7c8,7.9,20.6,9.9,30.6,4.8c0.1-0.1,0.2-0.2,0.2-0.2c1.3,1,2.5,2.2,3.3,3.7
		C778.3,444.2,779.2,443.7,778.9,443.1z"/>
	<path class="st26" d="M727.7,473.3c-20-2.2-40.2-2-60.2,0.6c-0.6,0.1-0.6,1.1,0,1c20-2.6,40.2-2.9,60.2-0.6
		C728.3,474.3,728.3,473.3,727.7,473.3z"/>
	<path class="st26" d="M720.9,481.2c-17.1-2.6-34.4-3.3-51.7-1.9c-0.6,0.1-0.6,1.1,0,1c17.2-1.4,34.4-0.8,51.4,1.9
		C721.3,482.2,721.6,481.3,720.9,481.2z"/>
	<path class="st26" d="M739.4,370.8c-8.4,6.6-19.7,5.9-29.7,7.3c-10.4,1.5-20.1,5.8-28.1,12.6c-0.5,0.4,0.2,1.1,0.7,0.7
		c9-7.6,19.7-11.6,31.4-12.8c9.2-0.9,18.9-1.2,26.4-7.1C740.6,371.1,739.9,370.4,739.4,370.8z"/>
	<path class="st26" d="M671.1,394c-6.5-2.4-13.3-3.5-20.3-3.2c-0.6,0-0.6,1,0,1c6.9-0.3,13.6,0.8,20,3.2
		C671.4,395.2,671.7,394.3,671.1,394z"/>
	<path class="st26" d="M727.9,327.6c-25.8-19-43.5-48.2-48.6-79.8c-0.1-0.6-1.1-0.4-1,0.3c5.1,32,23,61.3,49,80.4
		C727.9,328.9,728.4,328,727.9,327.6z"/>
	<path class="st26" d="M677.6,224.1c-3-9.1-10.2-16.2-19.3-19.2c-0.6-0.2-0.9,0.8-0.3,1c8.8,2.9,15.7,9.8,18.6,18.5
		C676.8,225,677.8,224.8,677.6,224.1z"/>
	<path class="st26" d="M686.3,221.5c-3.2-7.4-9-13.2-16.5-16.3c-0.6-0.2-0.9,0.7-0.3,1c7.2,3,12.8,8.7,15.9,15.8
		C685.7,222.6,686.6,222.1,686.3,221.5z"/>
	<path class="st26" d="M627.2,493c-0.6,0-0.6,1,0,1c9.9,0,23.3,2.1,25.5,13.9c0.1,0.6,1.1,0.4,1-0.3
		C651.3,495.4,637.5,493,627.2,493z"/>
	<path class="st26" d="M649.5,492.8c-6.8-5.4-15.7-7.3-24.1-5.2c-0.6,0.2-0.4,1.1,0.3,1c8.1-2.1,16.6-0.2,23.1,4.9
		C649.2,493.9,650,493.2,649.5,492.8z"/>
	<path class="st26" d="M607.6,549.7c-4.5-5.6-12.7-9.5-19.1-4.5c-0.5,0.4,0.2,1.1,0.7,0.7c5.9-4.6,13.6-0.5,17.7,4.5
		c1.1,1.4,2.1,3,2.5,4.7c0.7,2.8-0.1,4.5-2.8,5.9c-2.4,1.3-4.3,2.2-6.1,4.3c-0.4,0.5,0.3,1.2,0.7,0.7c1.8-2.1,3.9-3.2,6.4-4.3
		c1.3-0.6,2.2-1.1,2.7-2.5C611.6,556,609.7,552.2,607.6,549.7z"/>
	<path class="st26" d="M840.7,554.3c-1.4-2.3-0.6-5.5-2.5-7.6c-1.7-1.9-5-2.2-7.4-2.2c-5.9-0.1-11.6,2.3-15.7,6.5
		c-0.4,0.5,0.3,1.2,0.7,0.7c3.8-3.9,8.9-6.1,14.3-6.2c2.8,0,7.1,0.3,8.2,3.4c0.7,2,0.5,4,1.6,5.9
		C840.2,555.4,841.1,554.8,840.7,554.3z"/>
	<path class="st26" d="M837.1,460.4c-4.6,0.8-9.1,2.2-13.3,4.2c-3.1,1.5-6.8,3.3-7.8,7c-0.2,0.6,0.8,0.9,1,0.3
		c1-3.8,5.6-5.7,8.9-7.1c3.7-1.6,7.5-2.7,11.5-3.4C838,461.2,837.7,460.3,837.1,460.4z"/>
	<path class="st26" d="M838.6,470.8c-7.2-1.5-14.6,0.1-20.5,4.4c-0.5,0.4,0,1.2,0.5,0.9c5.7-4.2,12.8-5.8,19.8-4.3
		C839,471.9,839.3,470.9,838.6,470.8z"/>
	<path class="st26" d="M836.6,482.4c-5.7-2.7-11.8-3.5-18-2.6c-0.6,0.1-0.4,1.1,0.3,1c5.9-0.9,11.8-0.1,17.2,2.4
		C836.7,483.6,837.2,482.7,836.6,482.4z"/>
	<path class="st26" d="M759.2,533.5c-1,8.5-7.7,14.8-14.2,19.7c-6,4.5-12.7,8.2-19.8,10.8c-14.4,5.3-30.2,6.4-45.2,2.8
		c-0.6-0.2-0.9,0.8-0.3,1c15.9,3.8,32.8,2.5,47.9-3.6c7.3-3,14.2-7,20.4-12c5.8-4.8,11.2-10.8,12.1-18.6
		C760.3,532.9,759.3,532.9,759.2,533.5z"/>
	<path class="st21" d="M646.4,235.1c-1.6,3.7-4.5,6.5-7.6,9.1c-3.6,3-7.4,5.8-11.1,8.6c-6.8,5-14.2,11.2-23,11.7c-0.6,0-0.6,1,0,1
		c9-0.5,16.6-6.6,23.5-11.8c3.7-2.8,7.4-5.6,11-8.5c3.3-2.7,6.3-5.6,8-9.6C647.6,235,646.7,234.5,646.4,235.1z"/>
	<path class="st21" d="M641.4,229.3c-0.4,3.3-3.3,5.4-5.7,7.4c-2.7,2.1-5.4,4.1-8.3,5.9c-5.3,3.4-11.3,7.3-17.6,8.1
		c-0.6,0.1-0.6,1.1,0,1c7.1-0.8,13.8-5.3,19.7-9.2c3-2,5.9-4.1,8.7-6.5c2.1-1.8,3.9-3.8,4.3-6.7
		C642.4,228.7,641.4,228.7,641.4,229.3z"/>
	<path class="st21" d="M634.8,225.6c-5.2,4.1-11,7.3-17.2,9.5c-0.6,0.2-0.3,1.2,0.3,1c6.4-2.3,12.3-5.5,17.7-9.7
		C636.1,225.9,635.3,225.2,634.8,225.6z"/>
</g>
<path class="st29" d="M364.3,554.6c-1-2,108.7-55.3,108.7-55.3s2.3,32.7,0,38.6c-2.3,6-108.7,42.4-108.7,42.4
	S366.4,558.9,364.3,554.6z"/>
<path class="st30" d="M364.3,587.3l106.4-38.7c0,0-0.7,13.5-4.3,19.4c-3.6,5.8-107.2,33.7-107.2,33.7S364.3,594.2,364.3,587.3z"/>
</svg>
