<?xml version="1.0" encoding="utf-8"?>
<!-- Generator: Adobe Illustrator 23.0.2, SVG Export Plug-In . SVG Version: 6.00 Build 0)  -->
<svg version="1.1" id="Layer_1" xmlns="http://www.w3.org/2000/svg" xmlns:xlink="http://www.w3.org/1999/xlink" x="0px" y="0px"
	 viewBox="0 0 935.02 844.07" style="enable-background:new 0 0 935.02 844.07;" xml:space="preserve">
<style type="text/css">
	.st0{opacity:0.1;fill:#007CC7;}
	.st1{fill:#422645;}
	.st2{fill:#803D3D;}
	.st3{fill:#5E2C2C;}
	.st4{opacity:0.48;fill:#422645;}
	.st5{fill:none;stroke:#5E2C2C;stroke-width:5.4531;stroke-linecap:round;stroke-linejoin:round;stroke-miterlimit:10;}
	.st6{fill:#FFFFFF;}
	.st7{opacity:0.1;fill-rule:evenodd;clip-rule:evenodd;fill:#007CC7;}
	.st8{fill:#73A0BE;}
	.st9{opacity:0.2;fill-rule:evenodd;clip-rule:evenodd;fill:#73A0BE;}
	.st10{opacity:0.59;fill-rule:evenodd;clip-rule:evenodd;fill:#73A0BE;}
	.st11{opacity:0.35;fill-rule:evenodd;clip-rule:evenodd;fill:#007CC7;}
	.st12{opacity:0.09;fill-rule:evenodd;clip-rule:evenodd;fill:#007CC7;}
</style>
<path class="st9" d="M83.41,807.34c1.03-1.72,2.4-3.14,3.97-4.23c-0.59-3.82,0.09-7.85,2.25-11.46c4.15-6.95,12.42-10.2,20.15-8.53
	c0.05-0.09,0.09-0.18,0.14-0.27c3.52-5.91,11.36-7.95,17.5-4.56c0.24,0.13,0.46,0.28,0.69,0.43c7.33-5.12,17.38-5.96,25.75-1.35
	c2.76,1.52,5.08,3.5,6.92,5.78c12.39,1.42,21.99,11.55,21.99,23.85c0,8.54-4.63,16.03-11.61,20.29c-0.76,3.91-4.33,6.87-8.61,6.87
	c-1.36,0-2.64-0.31-3.79-0.84c-3.06,5.81-9.32,9.81-16.56,9.81c-4.36,0-8.35-1.45-11.52-3.87c-7.48,5.53-17.98,6.53-26.67,1.73
	c-5.63-3.1-9.45-8.07-11.13-13.62c-1.46-0.28-2.9-0.78-4.26-1.53C81.87,822.13,79.54,813.84,83.41,807.34z"/>
<path class="st10" d="M202.28,730.93c1.33-2.23,3.1-4.07,5.14-5.49c-0.76-4.96,0.13-10.2,2.93-14.89
	c5.39-9.03,16.13-13.25,26.17-11.08c0.06-0.11,0.11-0.23,0.18-0.34c4.57-7.67,14.75-10.32,22.72-5.92c0.31,0.17,0.6,0.37,0.9,0.56
	c9.51-6.65,22.58-7.74,33.44-1.75c3.59,1.98,6.6,4.55,8.99,7.51c16.09,1.84,28.56,15,28.56,30.97c0,11.08-6.02,20.81-15.07,26.35
	c-0.99,5.08-5.62,8.92-11.19,8.92c-1.76,0-3.42-0.4-4.91-1.08c-3.98,7.55-12.11,12.73-21.51,12.73c-5.66,0-10.86-1.88-14.97-5.02
	c-9.71,7.18-23.34,8.47-34.62,2.25c-7.31-4.03-12.28-10.47-14.46-17.69c-1.89-0.36-3.76-1.01-5.53-1.98
	C200.28,750.13,197.25,739.37,202.28,730.93z"/>
<path class="st11" d="M65.13,624.44c1.76-2.96,4.1-5.39,6.79-7.27c-1-6.56,0.18-13.47,3.88-19.67
	c7.12-11.93,21.32-17.51,34.58-14.65c0.08-0.15,0.16-0.3,0.25-0.45c6.05-10.14,19.49-13.65,30.04-7.83
	c0.41,0.23,0.81,0.47,1.21,0.72c12.57-8.78,29.83-10.21,44.18-2.3c4.74,2.62,8.72,6.02,11.88,9.93
	c21.26,2.44,37.75,19.83,37.75,40.94c0,14.65-7.95,27.51-19.92,34.82c-1.31,6.71-7.42,11.8-14.79,11.8c-2.33,0-4.52-0.52-6.49-1.43
	c-5.25,9.98-16.01,16.82-28.44,16.82c-7.48,0-14.35-2.48-19.79-6.63c-12.84,9.49-30.85,11.2-45.77,2.97
	c-9.66-5.33-16.22-13.84-19.11-23.36c-2.5-0.48-4.97-1.35-7.31-2.64C62.49,649.82,58.48,635.59,65.13,624.44z"/>
<path class="st7" d="M860.45,157.42c-13.16-6.3-26.85-10.2-40.57-11.89c-19.59-52.36-58.68-97.5-113.1-123.54
	C622.72-18.23,526.1-1.38,460.71,57.08c-31.12-21.12-69.32-32.27-109.73-29.26c-67.12,5.01-122.4,47.75-146.63,105.9
	c-11-4.29-23.1-6.25-35.66-5.32c-39.76,2.97-70.71,33.96-74.99,72.19C32.06,246.53-5.49,322.02,0.65,404.35
	C9.5,522.95,105.9,614.07,221.83,619.18c18.71,20.68,41.66,38.15,68.37,50.93c80.88,38.7,173.58,23.74,237.85-30.67
	c2.21,1.24,4.47,2.42,6.79,3.53c59.42,28.43,130.61,3.31,159.04-56.1c0.42-0.87,0.82-1.75,1.22-2.63
	c72.85,10.72,147.23-26.37,180.68-96.27c17.36-36.29,20.92-75.63,12.76-112.06c13.76-11.62,25.34-26.27,33.62-43.58
	C953.41,266.99,925.79,188.68,860.45,157.42z"/>
<g>
	<g>
		<path class="st8" d="M203.14,257.21c-5.44,0.04-9.22-5.38-9.26-11.25c-0.04-5.7,2.23-9.46,8.61-9.5
			c7.74-0.05,11.34,3.67,11.36,7.32C213.89,250.5,209.26,257.17,203.14,257.21z"/>
		<path class="st8" d="M240.24,234.84c-0.95-2.38-1.22-3.99-1.24-6.46c-0.03-3.74,2-5.63,10.17-5.68
			c4.68-0.03,13.69-0.18,16.76,0.14c0.94,0.93,1.55,2.71,1.56,4.33c0.04,5.53-1.98,8.86-5.98,9.23c-1.78,0.27-5.27,0.29-7.31,0.31
			l-0.2,8.25c3.83-0.28,6.72-0.3,7.91-0.31c2.55-0.02,3.24,0.66,3.25,2.7c0.04,6.12-2.41,8.69-5.13,8.97
			c-1.02,0.09-2.89,0.27-6.29,0.38l-0.13,6.46c0.03,4.51-2.43,5.72-7.36,5.75c-5.61,0.04-5.96-1.32-6.01-8.97
			c-0.03-4.25,0.01-10.46-0.02-15.74C240.28,241.13,240.26,237.99,240.24,234.84z"/>
		<path class="st8" d="M295.92,267.63c-2.38,0.53-5.61,0.72-11.48,0.76c-2.38,0.02-3.91,0.03-5.53-0.22
			c-3.75-0.4-7.93-3.01-7.95-5.98c-0.03-4.25,0.01-11.14,0.22-16.93c0.06-3.4,0.12-6.89,0.18-10.55c-0.95-2.38-1.22-3.99-1.24-6.46
			c-0.03-3.74,2-5.63,10.17-5.68c4.59-0.03,17.18,0.14,20.16,0.12c0.94,0.93,1.47,3.22,1.48,4.84c0.03,4.76-2.08,6.73-6.08,7.02
			c-1.78,0.27-6.97,0.39-10.97,0.41l-0.2,7.91c3.65-0.37,11.39-0.42,12.58-0.43c0.6,0.76,0.95,1.86,0.96,3.14
			c0.03,4.34-1.74,6.56-4.46,6.83c-1.19,0.26-4.85,0.12-9.18,0.4l-0.05,4.76l14.8-0.02c0.69,0.93,0.95,1.78,0.96,3.06
			C300.32,264.8,298.55,267.19,295.92,267.63z"/>
		<path class="st8" d="M331.13,267.39c-2.38,0.53-5.61,0.72-11.48,0.76c-2.38,0.02-3.91,0.03-5.53-0.22
			c-3.75-0.4-7.93-3.01-7.95-5.98c-0.03-4.25,0.01-11.14,0.22-16.93c0.06-3.4,0.12-6.89,0.18-10.55c-0.95-2.38-1.22-3.99-1.24-6.46
			c-0.03-3.74,2-5.63,10.17-5.68c4.59-0.03,17.18,0.14,20.16,0.12c0.94,0.93,1.47,3.22,1.48,4.84c0.03,4.76-2.08,6.73-6.08,7.02
			c-1.78,0.27-6.97,0.39-10.97,0.41l-0.2,7.91c3.66-0.37,11.39-0.42,12.58-0.43c0.6,0.76,0.95,1.86,0.96,3.14
			c0.03,4.34-1.74,6.56-4.46,6.83c-1.19,0.26-4.85,0.12-9.18,0.4l-0.05,4.76l14.8-0.02c0.69,0.93,0.95,1.78,0.96,3.06
			C335.53,264.56,333.76,266.95,331.13,267.39z"/>
		<path class="st8" d="M365.66,255c0.94,0.76,1.46,2.54,1.47,4.07c0.04,6.46-3.43,8.27-7.26,8.55c-2.38,0.27-5.44,0.38-8.59,0.4
			c-4.68,0.03-10.05-2.65-10.08-5.72c-0.11-16.16,0.13-17.69,0.05-29.85c-0.44-1.78-0.7-3.48-0.71-5.1
			c-0.02-3.4,3.7-5.81,10.25-5.85c4.76-0.03,5.37,1.32,5.38,3.54c0.04,5.87-0.31,17.44-0.64,30.2
			C358.35,255.21,364.13,255.01,365.66,255z"/>
		<path class="st8" d="M414.54,251c3.77,4.74,4.37,4.9,7.61,5.22c0.43,0.76,0.69,1.87,0.7,2.8c0.03,5.02-3.26,9.12-8.78,9.16
			c-3.83,0.03-4.94-1.24-6.75-4.63c-2.32-4.07-3.53-6.01-5.15-6.94l-0.39,5.53c-0.39,4.51-1.83,5.71-6.85,5.75
			c-5.61,0.04-5.96-1.32-6.02-8.97c-0.03-4.34,0.01-10.46,0.23-15.65c0.06-3.06,0.13-6.21,0.19-9.36c-0.44-1.78-0.62-3.48-0.63-5.1
			c-0.02-3.4,1.92-4.86,10-5.6c3.48-1.38,6.28-2.08,10.36-2.11c9.1-0.06,12.79,5.36,12.85,13.01
			C421.96,241.17,419.77,245.01,414.54,251z M402.43,246.58c1.19-0.01,4.09,0.48,5.11,0.9c1.25-3.07,1.92-5.88,1.9-8.6
			c-0.03-4.17-1.57-6.2-6.42-6.59L402.43,246.58z"/>
		<path class="st8" d="M452.41,266.57c-2.38,0.53-5.61,0.72-11.48,0.76c-2.38,0.02-3.91,0.03-5.53-0.22
			c-3.75-0.4-7.93-3.01-7.95-5.98c-0.03-4.25,0.01-11.14,0.22-16.93c0.06-3.4,0.12-6.89,0.18-10.55c-0.95-2.38-1.22-3.99-1.24-6.46
			c-0.03-3.74,2-5.63,10.17-5.68c4.59-0.03,17.18,0.14,20.16,0.12c0.94,0.93,1.47,3.22,1.48,4.84c0.03,4.76-2.08,6.73-6.07,7.02
			c-1.78,0.27-6.97,0.39-10.97,0.42l-0.2,7.91c3.66-0.37,11.4-0.42,12.59-0.43c0.6,0.76,0.95,1.86,0.96,3.14
			c0.03,4.34-1.74,6.56-4.46,6.83c-1.19,0.26-4.85,0.12-9.18,0.4l-0.05,4.76l14.8-0.02c0.69,0.93,0.95,1.78,0.96,3.06
			C456.81,263.73,455.05,266.12,452.41,266.57z"/>
		<path class="st8" d="M477.44,220.64c9.01-0.06,13.3,4.5,13.33,9.1c0.04,5.44-3.09,7.68-6.92,7.7c-1.28,0.01-2.04-0.16-2.98-0.41
			c-0.7-3.14-2.16-4.66-6.25-6c-0.33,0.77-0.5,1.96-0.49,2.98c0.01,2.21,0.44,2.72,10.01,8.78c5.38,3.28,7.27,5.82,7.3,10.75
			c0.05,7.23-5.35,13.99-16.32,14.06c-8.93,0.06-14.99-2.62-15.04-9.76c-0.03-4.34,2.59-7.16,6.25-7.19c0.6,0,1.28-0.01,1.96,0.24
			c3.44,6.1,5.41,7.53,7.88,7.52c1.7-0.01,2.37-0.95,2.37-1.97c-0.01-1.11-1.29-2.29-10.18-8.35c-4.79-3.37-6.42-6.51-6.46-11.18
			c-0.03-4.08,1.56-8.26,4.95-10.75C469.12,222.22,471.66,220.68,477.44,220.64z"/>
		<path class="st8" d="M521.3,266.1c-2.38,0.53-5.61,0.72-11.48,0.76c-2.38,0.02-3.91,0.03-5.53-0.22c-3.75-0.4-7.93-3.01-7.95-5.98
			c-0.03-4.25,0.01-11.14,0.22-16.93c0.06-3.4,0.12-6.89,0.18-10.55c-0.95-2.38-1.22-3.99-1.24-6.46c-0.03-3.74,2-5.63,10.17-5.68
			c4.59-0.03,17.18,0.14,20.16,0.12c0.94,0.93,1.47,3.22,1.48,4.84c0.03,4.76-2.08,6.73-6.08,7.02c-1.78,0.27-6.97,0.39-10.97,0.41
			l-0.2,7.91c3.66-0.37,11.4-0.42,12.59-0.43c0.6,0.76,0.95,1.86,0.96,3.14c0.03,4.34-1.74,6.56-4.46,6.83
			c-1.19,0.26-4.85,0.12-9.18,0.4l-0.05,4.76l14.8-0.02c0.69,0.93,0.95,1.78,0.96,3.06C525.71,263.26,523.94,265.65,521.3,266.1z"/>
		<path class="st8" d="M555.11,221.89c1.61-1.12,3.05-1.55,5.35-1.57c4.08-0.03,6.73,1.57,6.76,5.48c0.05,7.31,0.2,29.26-1.12,36.07
			c-0.57,3.66-2.86,5.04-7.2,5.07c-4.25,0.03-4.61-2.18-5.07-8.22c-3.36-5.68-6.54-11.27-9.98-16.69c0.04,6.12-0.07,14.72-0.72,19.4
			c-0.4,3.66-2.68,5.55-6.85,5.58c-1.96,0.01-3.49-0.57-3.93-1.93c-0.04-5.78-0.31-21.09-0.39-32.66c-0.69-2.04-1.22-4.5-1.23-6.12
			c-0.02-3.32,3.7-5.81,10.25-5.85c3.15-0.02,4.68,0.65,5.54,1.92c1.89,2.54,6.45,10.93,8.61,14.83
			C555.09,232.1,555.12,224.11,555.11,221.89z"/>
		<path class="st8" d="M600.27,220.74c0.69,0.93,1.38,2.97,1.39,4.5c0.05,7.06-2.66,8.95-8.1,9.24c0.02,2.72-0.19,9.53-0.41,15.31
			c-0.06,3.49-0.21,7.15-0.35,11.14c-0.23,4.17-3.7,5.72-8.72,5.76c-5.53,0.04-5.71-1.32-5.76-8.98c-0.03-4.34,0.1-9.87,0.07-14.46
			l0.2-8.17c-6.63,0.05-7.92-0.8-7.93-3.26c-0.04-6.55,2.39-10.56,5.11-11.01c2.38-0.27,4.68-0.37,11.05-0.42
			C593.54,220.36,597.12,220.5,600.27,220.74z"/>
		<path class="st8" d="M605.28,232.35c-0.95-2.38-1.22-3.99-1.24-6.46c-0.03-3.74,2-5.63,10.17-5.68
			c4.68-0.03,13.69-0.18,16.76,0.14c0.94,0.93,1.55,2.71,1.56,4.33c0.04,5.53-1.98,8.86-5.98,9.23c-1.78,0.27-5.27,0.29-7.31,0.31
			l-0.2,8.25c3.83-0.28,6.72-0.3,7.91-0.31c2.55-0.02,3.24,0.66,3.25,2.7c0.04,6.12-2.41,8.69-5.13,8.97
			c-1.02,0.09-2.89,0.27-6.29,0.38l-0.13,6.46c0.03,4.51-2.43,5.72-7.36,5.75c-5.61,0.04-5.96-1.32-6.02-8.97
			c-0.03-4.25,0.01-10.46-0.02-15.74C605.32,238.65,605.3,235.5,605.28,232.35z"/>
		<path class="st8" d="M635.89,230.53c-0.44-1.95-0.7-3.48-0.72-5.1c-0.02-3.4,3.7-5.89,10.25-5.94c4.34-0.03,5.03,1.92,5.05,4.39
			c0.03,4.42-0.52,11.06-0.47,18.46c0.07,10.63,1.44,12.15,6.47,13.14c-0.04-5.44,0.17-25.35,0.15-28.32
			c-0.03-4.42,0.2-7.57,6.5-7.61c3.15-0.02,6.04,0.81,7.16,2.16c0.04,5.87-0.27,22.54-0.18,35.38c0.04,5.53-3.27,6.74-11.09,7.22
			c-2.12,1.29-5.26,2.08-9.26,2.1c-11.23,0.08-14.25-7.39-14.36-22.87C635.34,237.59,635.58,235.64,635.89,230.53z"/>
		<path class="st8" d="M700.6,252.71c0.94,0.76,1.46,2.54,1.47,4.07c0.04,6.46-3.43,8.27-7.26,8.55c-2.38,0.27-5.44,0.38-8.59,0.4
			c-4.68,0.03-10.05-2.65-10.08-5.72c-0.11-16.16,0.13-17.69,0.05-29.85c-0.44-1.78-0.7-3.48-0.71-5.1
			c-0.02-3.4,3.7-5.81,10.25-5.85c4.76-0.03,5.37,1.32,5.38,3.54c0.04,5.87-0.31,17.44-0.64,30.2
			C693.28,252.93,699.07,252.72,700.6,252.71z"/>
		<path class="st8" d="M203.66,333.84c-5.44,0.04-9.22-5.38-9.26-11.25c-0.04-5.7,2.23-9.46,8.61-9.5
			c7.74-0.05,11.34,3.67,11.36,7.32C214.41,327.13,209.78,333.8,203.66,333.84z"/>
		<path class="st8" d="M259.56,325.29c1.61-1.12,3.82-1.73,6.62-1.75c4.76-0.03,5.88,1.58,5.91,5.4c0.02,3.4-0.2,7.91-0.6,11.23
			c-0.4,3.83-6.43,5.4-13.83,5.45c-11.57,0.08-18.49-4.72-18.6-20.88c-0.09-13.69,4.12-19.93,10.65-21.76
			c3.38-3,6.18-4.21,12.22-4.25c5.78-0.04,8.78,2.58,8.81,7.59c0.02,2.81-1.32,5.45-3.69,7.08c-3.58-1.34-6.48-2.17-11.92-2.13
			c-1.17,3.5-1.9,8.6-1.88,11.24c0.06,8.76,1.44,11.98,6.22,13.74L259.56,325.29z"/>
		<path class="st8" d="M302.05,344.23c-2.38,0.53-5.61,0.72-11.48,0.76c-2.38,0.02-3.91,0.03-5.53-0.22
			c-3.75-0.4-7.93-3.01-7.95-5.98c-0.03-4.25,0.01-11.14,0.22-16.93c0.06-3.4,0.12-6.89,0.18-10.55c-0.95-2.38-1.22-3.99-1.24-6.46
			c-0.03-3.74,2-5.63,10.17-5.68c4.59-0.03,17.18,0.14,20.16,0.12c0.94,0.93,1.47,3.22,1.48,4.84c0.03,4.76-2.08,6.73-6.08,7.02
			c-1.78,0.27-6.97,0.39-10.97,0.41l-0.2,7.91c3.65-0.37,11.39-0.42,12.58-0.43c0.6,0.76,0.95,1.86,0.96,3.14
			c0.03,4.34-1.74,6.56-4.46,6.83c-1.19,0.26-4.85,0.12-9.18,0.4l-0.05,4.76l14.8-0.02c0.69,0.93,0.95,1.78,0.96,3.06
			C306.45,341.39,304.69,343.78,302.05,344.23z"/>
		<path class="st8" d="M339.34,299.15c0.69,0.93,1.38,2.97,1.39,4.5c0.05,7.06-2.66,8.95-8.1,9.24c0.02,2.72-0.19,9.53-0.41,15.31
			c-0.06,3.49-0.21,7.15-0.35,11.14c-0.23,4.17-3.7,5.72-8.72,5.76c-5.53,0.04-5.71-1.32-5.76-8.98c-0.03-4.34,0.1-9.87,0.07-14.46
			l0.2-8.17c-6.63,0.04-7.92-0.8-7.93-3.26c-0.04-6.55,2.4-10.56,5.11-11.01c2.38-0.27,4.67-0.37,11.05-0.42
			C332.62,298.77,336.19,298.91,339.34,299.15z"/>
		<path class="st8" d="M370.73,300.63c2.96-1.64,7.3-2.69,11.97-2.72c5.44-0.04,7.93,2.24,8.37,5.64c1.08,8.5,3.21,21.84,5.65,30.33
			c1.88,1.43,2.65,2.36,2.67,4.15c0.03,4.68-5.91,6.67-12.03,6.72c-3.57,0.02-4.61-2.09-5.76-8.64c-2.04,0.27-5.27,0.29-8.67,0.31
			c-0.33,1.28-0.97,6.56-0.97,7.49c-0.59,0.6-1.86,1.03-3.82,1.05c-3.06,0.02-7.58-1.05-7.61-5.39
			C360.52,337.36,364.89,316.24,370.73,300.63z M377.95,311.3c-1,3.66-2.65,11.25-3.63,16.61c1.28-0.01,4.59-0.12,6.12-0.38
			C379.74,324.22,378.66,315.98,377.95,311.3z"/>
		<path class="st8" d="M426.27,299.41c1.61-1.12,3.05-1.55,5.35-1.57c4.08-0.03,6.73,1.57,6.76,5.48c0.05,7.31,0.2,29.26-1.11,36.07
			c-0.57,3.66-2.86,5.04-7.2,5.07c-4.25,0.03-4.61-2.18-5.08-8.22c-3.36-5.68-6.54-11.27-9.98-16.69c0.04,6.12-0.07,14.71-0.72,19.4
			c-0.4,3.66-2.68,5.55-6.85,5.58c-1.96,0.01-3.49-0.57-3.93-1.93c-0.04-5.78-0.31-21.09-0.39-32.66c-0.7-2.04-1.22-4.5-1.23-6.12
			c-0.02-3.32,3.7-5.81,10.25-5.85c3.15-0.02,4.68,0.65,5.54,1.92c1.89,2.54,6.45,10.93,8.61,14.83
			C426.25,309.61,426.28,301.62,426.27,299.41z"/>
		<path class="st8" d="M463.6,323.9c1.61-1.12,3.82-1.73,6.62-1.75c4.76-0.03,5.88,1.58,5.91,5.4c0.02,3.4-0.2,7.91-0.6,11.23
			c-0.4,3.83-6.43,5.4-13.83,5.45c-11.57,0.08-18.49-4.72-18.6-20.88c-0.09-13.69,4.12-19.93,10.65-21.76
			c3.38-3,6.18-4.21,12.22-4.25c5.78-0.04,8.78,2.58,8.81,7.59c0.02,2.81-1.32,5.45-3.69,7.08c-3.58-1.34-6.48-2.17-11.92-2.13
			c-1.17,3.5-1.9,8.6-1.88,11.24c0.06,8.76,1.44,11.98,6.22,13.74L463.6,323.9z"/>
		<path class="st8" d="M506.15,327.01c3.77,4.74,4.37,4.9,7.6,5.22c0.43,0.76,0.69,1.87,0.7,2.8c0.03,5.02-3.26,9.12-8.78,9.16
			c-3.83,0.03-4.94-1.24-6.75-4.63c-2.32-4.07-3.53-6.01-5.15-6.94l-0.39,5.53c-0.39,4.51-1.83,5.71-6.85,5.75
			c-5.61,0.04-5.96-1.32-6.01-8.98c-0.03-4.34,0.01-10.46,0.23-15.65c0.06-3.06,0.13-6.21,0.19-9.36c-0.44-1.78-0.62-3.48-0.63-5.1
			c-0.02-3.4,1.92-4.86,10-5.6c3.48-1.38,6.28-2.08,10.36-2.11c9.1-0.06,12.79,5.36,12.85,13.01
			C513.57,317.18,511.39,321.03,506.15,327.01z M494.05,322.59c1.19-0.01,4.09,0.48,5.11,0.9c1.25-3.07,1.92-5.88,1.9-8.6
			c-0.03-4.17-1.57-6.2-6.42-6.59L494.05,322.59z"/>
		<path class="st8" d="M545.58,296.81c4.68-0.03,7.07,2.16,7.52,5.31l-11.32,24.23l-0.01,10.63c0.02,3.32-2.33,6.74-10.58,6.79
			c-3.91,0.03-5.03-1.07-5.06-6.17c-0.01-2.13,0.05-4.85,0.04-6.81c0.08-1.28,0.07-2.47,0.14-3.74l-7.44-18.92
			c-1.8-1.35-2.66-3.38-2.67-5c-0.03-3.91,6.08-6.17,10.59-6.2c3.15-0.02,4.94,1.24,6.16,4.72l3.82,10.78l3.58-11
			C541.42,298.03,542.44,296.83,545.58,296.81z"/>
		<path class="st8" d="M204.18,410.47c-5.44,0.04-9.22-5.38-9.26-11.25c-0.04-5.7,2.23-9.46,8.61-9.5
			c7.74-0.05,11.34,3.67,11.36,7.32C214.94,403.76,210.3,410.43,204.18,410.47z"/>
		<path class="st8" d="M241.28,388.1c-0.95-2.38-1.22-3.99-1.24-6.46c-0.03-3.74,2-5.63,10.17-5.68c4.68-0.03,13.69-0.18,16.76,0.14
			c0.94,0.93,1.55,2.71,1.56,4.33c0.04,5.53-1.98,8.86-5.98,9.23c-1.78,0.27-5.27,0.29-7.31,0.31l-0.2,8.25
			c3.83-0.28,6.72-0.3,7.91-0.31c2.55-0.02,3.24,0.66,3.25,2.7c0.04,6.12-2.41,8.69-5.13,8.97c-1.02,0.09-2.89,0.27-6.29,0.38
			l-0.13,6.46c0.03,4.51-2.43,5.72-7.36,5.75c-5.61,0.04-5.96-1.32-6.01-8.98c-0.03-4.25,0.01-10.46-0.02-15.73
			C241.32,394.4,241.3,391.25,241.28,388.1z"/>
		<path class="st8" d="M296.96,420.89c-2.38,0.53-5.61,0.72-11.48,0.76c-2.38,0.02-3.91,0.03-5.53-0.22
			c-3.75-0.4-7.93-3.01-7.95-5.98c-0.03-4.25,0.01-11.14,0.22-16.93c0.06-3.4,0.12-6.89,0.18-10.55c-0.95-2.38-1.22-3.99-1.24-6.46
			c-0.03-3.74,2-5.63,10.17-5.68c4.59-0.03,17.18,0.14,20.16,0.12c0.94,0.93,1.47,3.22,1.48,4.84c0.03,4.76-2.08,6.73-6.08,7.02
			c-1.79,0.27-6.97,0.39-10.97,0.41l-0.2,7.91c3.65-0.37,11.39-0.42,12.58-0.43c0.6,0.76,0.95,1.86,0.96,3.14
			c0.03,4.34-1.74,6.56-4.46,6.83c-1.19,0.26-4.85,0.12-9.18,0.4l-0.05,4.76l14.8-0.02c0.69,0.93,0.95,1.78,0.96,3.06
			C301.36,418.06,299.59,420.45,296.96,420.89z"/>
		<path class="st8" d="M332.17,420.65c-2.38,0.53-5.61,0.72-11.48,0.76c-2.38,0.02-3.91,0.03-5.53-0.22
			c-3.75-0.4-7.93-3.01-7.95-5.98c-0.03-4.25,0.01-11.14,0.22-16.93c0.06-3.4,0.12-6.89,0.18-10.55c-0.95-2.38-1.22-3.99-1.24-6.46
			c-0.03-3.74,2-5.63,10.17-5.68c4.59-0.03,17.18,0.14,20.16,0.12c0.94,0.93,1.47,3.22,1.48,4.84c0.03,4.76-2.08,6.73-6.08,7.02
			c-1.78,0.27-6.97,0.39-10.97,0.41l-0.2,7.91c3.66-0.37,11.39-0.42,12.58-0.43c0.6,0.76,0.95,1.86,0.96,3.14
			c0.03,4.34-1.74,6.56-4.46,6.83c-1.19,0.26-4.85,0.12-9.18,0.4l-0.05,4.76l14.8-0.02c0.69,0.93,0.95,1.78,0.96,3.06
			C336.57,417.82,334.8,420.21,332.17,420.65z"/>
		<path class="st8" d="M366.71,408.26c0.94,0.76,1.46,2.54,1.47,4.07c0.04,6.46-3.43,8.27-7.26,8.55c-2.38,0.27-5.44,0.38-8.59,0.4
			c-4.68,0.03-10.05-2.65-10.08-5.72c-0.11-16.16,0.13-17.69,0.05-29.85c-0.44-1.78-0.7-3.48-0.71-5.1
			c-0.02-3.4,3.7-5.81,10.25-5.85c4.76-0.03,5.37,1.32,5.38,3.54c0.04,5.87-0.31,17.44-0.64,30.2
			C359.39,408.48,365.17,408.27,366.71,408.26z"/>
		<path class="st8" d="M424.02,406.17c0.05,8.08-4.07,15.08-17.33,15.17c-5.53,0.04-10.21-0.78-12.6-1.44
			c-3.75-1.34-4.11-3.2-4.15-9.92c-0.03-4.34,0.02-9.87,0.24-14.63c0.07-2.64,0.13-5.36,0.2-8.17c-0.61-1.78-0.62-3.48-0.63-5.1
			c-0.02-3.4,1.92-4.86,10-5.6c3.48-1.38,6.28-2.08,10.36-2.11c9.27-0.06,12.79,5.27,12.83,11.4c0.03,4.59-2.07,7.84-4.77,11.85
			C422.61,400.14,423.73,402.17,424.02,406.17z M402.87,410.99c1.54,0.67,3.84,1.16,5.45,1.15c1.7-0.01,3.4-0.19,3.38-3.77
			c-0.02-2.3-0.79-3.82-8.54-4.87L402.87,410.99z M403.44,395.25c1.02-0.01,4.85-0.12,6.21,0.13c0.66-2.39,0.74-3.58,0.73-5.19
			c-0.02-2.89-1.48-4.67-6.33-5.06L403.44,395.25z"/>
		<path class="st8" d="M428.55,385.21c-0.44-1.95-0.71-3.48-0.72-5.1c-0.02-3.4,3.7-5.89,10.25-5.94c4.34-0.03,5.03,1.92,5.05,4.39
			c0.03,4.42-0.52,11.06-0.47,18.46c0.07,10.63,1.44,12.15,6.47,13.14c-0.04-5.44,0.17-25.35,0.15-28.32
			c-0.03-4.42,0.2-7.57,6.5-7.61c3.15-0.02,6.04,0.81,7.16,2.16c0.04,5.87-0.27,22.54-0.18,35.38c0.04,5.53-3.27,6.74-11.09,7.22
			c-2.12,1.29-5.26,2.08-9.26,2.1c-11.23,0.08-14.26-7.39-14.36-22.87C428.01,392.27,428.25,390.32,428.55,385.21z"/>
		<path class="st8" d="M493.26,407.4c0.94,0.76,1.46,2.54,1.47,4.07c0.04,6.46-3.43,8.27-7.26,8.55c-2.38,0.27-5.44,0.38-8.59,0.4
			c-4.68,0.03-10.05-2.65-10.08-5.72c-0.11-16.16,0.13-17.69,0.05-29.85c-0.44-1.78-0.7-3.48-0.71-5.1
			c-0.02-3.4,3.7-5.81,10.25-5.85c4.76-0.03,5.37,1.32,5.38,3.54c0.04,5.87-0.31,17.44-0.64,30.2
			C485.95,407.61,491.73,407.41,493.26,407.4z"/>
		<path class="st8" d="M522.69,407.19c0.94,0.76,1.46,2.54,1.47,4.07c0.04,6.46-3.43,8.27-7.26,8.55c-2.38,0.27-5.44,0.38-8.59,0.4
			c-4.68,0.03-10.05-2.65-10.08-5.72c-0.11-16.16,0.13-17.69,0.05-29.85c-0.44-1.78-0.7-3.48-0.71-5.1
			c-0.02-3.4,3.7-5.81,10.25-5.85c4.76-0.03,5.37,1.32,5.38,3.54c0.04,5.87-0.31,17.44-0.64,30.2
			C515.38,407.41,521.16,407.2,522.69,407.19z"/>
		<path class="st8" d="M528.33,385.21c-0.61-2.04-0.96-4.16-0.98-5.78c-0.02-3.4,3.7-5.89,10.25-5.94c4.85-0.03,5.28,1.32,5.3,3.54
			l-0.21,30.96c1.62,0.92,2.48,1.94,2.49,3.39c0.04,5.78-4.36,8.96-10.31,9c-5.61,0.04-6.64-1.32-6.7-8.97
			c-0.03-4.25,0.1-10.89,0.06-16.25C528.29,391.93,528.26,388.61,528.33,385.21z"/>
		<path class="st8" d="M574.23,419.01c-2.38,0.53-5.61,0.72-11.48,0.76c-2.38,0.02-3.91,0.03-5.53-0.22
			c-3.75-0.4-7.93-3.01-7.95-5.98c-0.03-4.25,0.01-11.14,0.22-16.93c0.06-3.4,0.12-6.89,0.18-10.55c-0.95-2.38-1.22-3.99-1.24-6.46
			c-0.03-3.74,2-5.63,10.17-5.68c4.59-0.03,17.18,0.14,20.16,0.12c0.94,0.93,1.47,3.22,1.48,4.84c0.03,4.76-2.08,6.73-6.08,7.02
			c-1.79,0.27-6.97,0.39-10.97,0.41l-0.2,7.91c3.66-0.37,11.4-0.42,12.59-0.43c0.6,0.76,0.95,1.86,0.96,3.14
			c0.03,4.34-1.74,6.56-4.46,6.83c-1.19,0.26-4.85,0.12-9.18,0.4l-0.05,4.76l14.8-0.02c0.69,0.93,0.95,1.78,0.96,3.06
			C578.64,416.17,576.86,418.56,574.23,419.01z"/>
		<path class="st8" d="M594.17,374.64c2.63-0.95,5.6-1.57,7.47-1.58c12.93-0.09,17.99,6.68,18.08,18.76
			c0.12,17.35-7.64,27.87-19.54,27.95c-7.82,0.05-15.66-1.42-15.69-6.44c-0.03-4.25,0.18-11.23,0.14-17.18
			c0.06-3.49,0.12-7.06,0.18-10.72c-0.69-1.61-1.13-3.4-1.15-6.12C583.63,375.99,587.03,374.95,594.17,374.64z M606.14,395.82
			c-0.04-6.55-2.37-10.1-7.82-11.68c0.05,6.63-0.15,15.82-0.51,24.92c0.77,0.42,1.71,0.58,2.38,0.58
			C602.58,409.63,606.23,408.75,606.14,395.82z"/>
		<path class="st8" d="M204.7,487.1c-5.44,0.04-9.22-5.38-9.26-11.25c-0.04-5.7,2.23-9.46,8.61-9.5c7.74-0.05,11.34,3.67,11.36,7.32
			C215.46,480.39,210.82,487.06,204.7,487.1z"/>
		<path class="st8" d="M274.85,483.82c0.05,8.08-4.07,15.08-17.33,15.17c-5.53,0.04-10.21-0.78-12.6-1.44
			c-3.75-1.34-4.1-3.2-4.15-9.92c-0.03-4.34,0.02-9.87,0.24-14.63c0.07-2.64,0.13-5.36,0.2-8.17c-0.61-1.78-0.62-3.48-0.63-5.1
			c-0.02-3.4,1.92-4.86,10-5.6c3.48-1.38,6.28-2.08,10.36-2.11c9.27-0.06,12.79,5.27,12.84,11.4c0.03,4.59-2.07,7.84-4.77,11.85
			C273.45,477.79,274.57,479.82,274.85,483.82z M253.7,488.64c1.54,0.67,3.84,1.17,5.45,1.15c1.7-0.01,3.4-0.19,3.38-3.77
			c-0.02-2.3-0.79-3.82-8.54-4.88L253.7,488.64z M254.28,472.9c1.02-0.01,4.85-0.12,6.21,0.13c0.67-2.39,0.74-3.58,0.73-5.19
			c-0.02-2.89-1.48-4.67-6.33-5.06L254.28,472.9z"/>
		<path class="st8" d="M304.46,497.48c-2.38,0.53-5.61,0.72-11.48,0.76c-2.38,0.02-3.91,0.03-5.53-0.22
			c-3.75-0.4-7.93-3.01-7.95-5.98c-0.03-4.25,0.01-11.14,0.22-16.93c0.06-3.4,0.12-6.89,0.18-10.55c-0.95-2.38-1.22-3.99-1.24-6.46
			c-0.03-3.74,2-5.63,10.17-5.68c4.59-0.03,17.18,0.14,20.16,0.12c0.94,0.93,1.47,3.22,1.48,4.84c0.03,4.76-2.08,6.73-6.08,7.02
			c-1.78,0.27-6.97,0.39-10.97,0.41l-0.2,7.91c3.65-0.37,11.39-0.42,12.58-0.43c0.6,0.76,0.95,1.86,0.96,3.14
			c0.03,4.34-1.74,6.56-4.46,6.83c-1.19,0.26-4.85,0.12-9.18,0.4l-0.05,4.76l14.8-0.02c0.69,0.93,0.95,1.78,0.96,3.06
			C308.86,494.64,307.09,497.03,304.46,497.48z"/>
		<path class="st8" d="M333.31,462.49c-0.44-1.95-0.7-3.48-0.71-5.1c-0.02-3.4,3.7-5.89,10.25-5.94c4.34-0.03,5.03,1.92,5.05,4.39
			c0.03,4.42-0.52,11.06-0.47,18.46c0.07,10.63,1.44,12.15,6.47,13.14c-0.04-5.44,0.17-25.35,0.15-28.32
			c-0.03-4.42,0.2-7.57,6.5-7.61c3.15-0.02,6.04,0.81,7.16,2.16c0.04,5.87-0.27,22.54-0.18,35.38c0.04,5.53-3.27,6.74-11.09,7.22
			c-2.12,1.29-5.26,2.08-9.26,2.1c-11.23,0.08-14.25-7.39-14.36-22.87C332.76,469.56,333,467.6,333.31,462.49z"/>
		<path class="st8" d="M397.29,452.87c1.61-1.12,3.05-1.55,5.35-1.57c4.08-0.03,6.73,1.57,6.76,5.48c0.05,7.31,0.2,29.26-1.12,36.07
			c-0.57,3.66-2.86,5.04-7.2,5.07c-4.25,0.03-4.61-2.18-5.07-8.22c-3.36-5.68-6.54-11.27-9.98-16.69c0.04,6.12-0.07,14.72-0.72,19.4
			c-0.4,3.66-2.68,5.55-6.85,5.57c-1.96,0.01-3.49-0.57-3.93-1.93c-0.04-5.78-0.31-21.09-0.39-32.66c-0.69-2.04-1.22-4.5-1.23-6.12
			c-0.02-3.32,3.7-5.81,10.25-5.85c3.15-0.02,4.68,0.65,5.54,1.92c1.89,2.54,6.45,10.93,8.61,14.83
			C397.27,463.08,397.31,455.08,397.29,452.87z"/>
		<path class="st8" d="M438.48,469.52c-2.3,0.02-3.66-0.4-4.6-0.82c-0.97-5.01-1.66-6.11-4.13-6.78
			c-1.08,3.58-1.45,11.83-1.43,14.47c0.05,7.82,1.6,9.86,11.97,9.79c0.6,0,2.81-0.1,3.74-0.11c0.43,0.68,0.7,2.12,0.7,2.8
			c0.04,5.36-4.11,8.79-12.02,8.84c-11.65,0.08-18.48-4.13-18.58-18.93c-0.09-12.93,2.32-21.36,10.13-23.63
			c3.47-2.83,7.2-4.3,11.54-4.33c6.55-0.04,9.55,3.42,9.58,8.61C445.44,465.9,442.99,469.49,438.48,469.52z"/>
		<path class="st8" d="M468.47,450.6c8.76-0.06,15.27,6.28,15.36,19.63c0.11,15.39-5.17,27.42-18.78,27.52
			c-10.55,0.07-16.78-4.39-16.89-20.47c-0.08-10.97,2.52-16.69,7.43-19.87C458.27,452.37,463.45,450.63,468.47,450.6z
			 M462.85,461.87c-0.66,3.41-0.7,9.96-0.68,12.42c0.07,10.63,1.62,12.32,6.98,13.31c1.07-5.2,1.29-10.81,1.27-13.36
			C470.36,466.15,467.96,463.45,462.85,461.87z"/>
		<path class="st8" d="M507.85,450.33c8.76-0.06,15.27,6.28,15.36,19.63c0.11,15.39-5.17,27.42-18.78,27.52
			c-10.55,0.07-16.78-4.39-16.89-20.47c-0.08-10.97,2.52-16.69,7.43-19.87C497.65,452.1,502.83,450.37,507.85,450.33z M502.23,461.6
			c-0.66,3.41-0.7,9.96-0.68,12.42c0.07,10.63,1.62,12.32,6.98,13.31c1.07-5.2,1.29-10.81,1.27-13.36
			C509.74,465.88,507.34,463.18,502.23,461.6z"/>
		<path class="st8" d="M540.45,491.11c-0.39,4.51-1.83,5.71-6.85,5.75c-5.61,0.04-5.96-1.32-6.02-8.97
			c-0.03-4.34,0.01-10.46,0.23-15.65c0.07-2.98,0.13-6.12,0.19-9.27c-0.44-1.78-0.62-3.48-0.63-5.1c-0.02-3.4,1.92-4.95,10-5.68
			c3.48-1.38,6.28-2.08,10.36-2.11c9.87-0.07,12.8,5.87,12.85,13.61c0.1,14.97-6.73,23.27-16.68,23.33
			c-1.02,0.01-2.04,0.01-3.15-0.23L540.45,491.11z M541.11,475.79c0.94,0.5,3.24,0.91,4.51,0.9c2.3-0.02,2.52-4.35,2.49-9.46
			c-0.02-3.4-1.06-5.52-6.42-5.91L541.11,475.79z"/>
		<path class="st8" d="M590.23,495.53c-2.38,0.53-5.61,0.72-11.48,0.76c-2.38,0.02-3.91,0.03-5.53-0.22
			c-3.75-0.4-7.93-3.01-7.95-5.98c-0.03-4.25,0.01-11.14,0.22-16.93c0.06-3.4,0.12-6.89,0.18-10.55c-0.95-2.38-1.22-3.99-1.24-6.46
			c-0.03-3.74,2-5.63,10.17-5.68c4.59-0.03,17.18,0.14,20.16,0.12c0.94,0.93,1.47,3.22,1.48,4.84c0.03,4.76-2.08,6.73-6.08,7.02
			c-1.78,0.27-6.97,0.39-10.97,0.41l-0.2,7.91c3.65-0.37,11.39-0.42,12.58-0.43c0.6,0.76,0.95,1.86,0.96,3.14
			c0.03,4.34-1.74,6.56-4.46,6.83c-1.19,0.26-4.85,0.12-9.18,0.4l-0.05,4.76l14.8-0.02c0.69,0.93,0.95,1.78,0.96,3.06
			C594.64,492.69,592.87,495.09,590.23,495.53z"/>
		<path class="st8" d="M625.51,479.47c3.77,4.74,4.37,4.9,7.6,5.22c0.43,0.76,0.69,1.87,0.7,2.8c0.03,5.02-3.26,9.12-8.78,9.16
			c-3.83,0.03-4.94-1.24-6.75-4.63c-2.32-4.07-3.53-6.01-5.15-6.94l-0.39,5.53c-0.39,4.51-1.83,5.71-6.85,5.75
			c-5.61,0.04-5.96-1.32-6.02-8.97c-0.03-4.34,0.01-10.46,0.23-15.65c0.06-3.06,0.13-6.21,0.19-9.36c-0.44-1.78-0.62-3.48-0.63-5.1
			c-0.02-3.4,1.92-4.86,10-5.6c3.48-1.38,6.28-2.08,10.36-2.11c9.1-0.06,12.79,5.36,12.85,13.01
			C632.93,469.64,630.74,473.48,625.51,479.47z M613.4,475.05c1.19-0.01,4.09,0.48,5.11,0.9c1.25-3.07,1.92-5.88,1.9-8.6
			c-0.03-4.17-1.57-6.2-6.42-6.59L613.4,475.05z"/>
		<path class="st8" d="M646.5,452.02c2.97-1.64,7.3-2.69,11.97-2.72c5.44-0.04,7.93,2.24,8.37,5.64c1.08,8.5,3.21,21.84,5.65,30.33
			c1.88,1.43,2.65,2.36,2.66,4.15c0.03,4.68-5.91,6.67-12.03,6.72c-3.57,0.02-4.61-2.1-5.76-8.64c-2.04,0.27-5.27,0.29-8.67,0.31
			c-0.33,1.28-0.98,6.56-0.97,7.49c-0.59,0.6-1.86,1.03-3.82,1.05c-3.06,0.02-7.58-1.05-7.61-5.39
			C636.29,488.75,640.65,467.63,646.5,452.02z M653.72,462.69c-1,3.66-2.65,11.25-3.63,16.61c1.28-0.01,4.59-0.12,6.12-0.38
			C655.51,475.61,654.43,467.37,653.72,462.69z"/>
		<path class="st8" d="M702.96,449.94c0.69,0.93,1.38,2.97,1.39,4.5c0.05,7.06-2.66,8.95-8.1,9.24c0.02,2.72-0.19,9.53-0.41,15.31
			c-0.06,3.49-0.21,7.15-0.35,11.14c-0.23,4.17-3.7,5.72-8.72,5.76c-5.53,0.04-5.71-1.32-5.76-8.98c-0.03-4.34,0.1-9.87,0.07-14.46
			l0.2-8.17c-6.63,0.04-7.92-0.8-7.93-3.26c-0.04-6.55,2.4-10.56,5.11-11.01c2.38-0.27,4.67-0.37,11.05-0.42
			C696.24,449.56,699.82,449.71,702.96,449.94z"/>
		<path class="st8" d="M708.06,460.62c-0.61-2.04-0.96-4.16-0.97-5.78c-0.02-3.4,3.7-5.89,10.25-5.94c4.85-0.03,5.28,1.33,5.3,3.54
			l-0.22,30.96c1.62,0.92,2.48,1.94,2.49,3.38c0.04,5.78-4.36,8.96-10.32,9c-5.61,0.04-6.64-1.32-6.69-8.97
			c-0.03-4.25,0.1-10.89,0.06-16.25C708.02,467.34,708,464.02,708.06,460.62z"/>
		<path class="st8" d="M752.64,450.37c0.76-0.77,2.71-1.55,4.5-1.56c4.68-0.03,8.18,1.48,8.22,7.94c0.03,3.74-2.62,15.41-7.96,30.16
			c-1.08,3.32-3.03,5.12-9.31,6.53c-1.35,1.2-4.07,2.15-8.24,2.18c-4.08,0.03-4.95-2.6-5.93-8.29c-1.42-8.5-3.09-17.25-5.11-26.08
			c-1.97-1.77-2.83-3.38-2.84-5.42c-0.03-5.02,6.08-7.02,12.12-7.06c3.57-0.02,4.44,2.52,5.59,8.98c0.45,3.48,3.02,19.46,3.57,24.22
			C750.47,468.16,752.67,455.3,752.64,450.37z"/>
		<path class="st8" d="M793.77,494.14c-2.38,0.53-5.61,0.72-11.48,0.76c-2.38,0.02-3.91,0.03-5.53-0.22
			c-3.75-0.4-7.93-3.01-7.95-5.98c-0.03-4.25,0.01-11.14,0.22-16.93c0.06-3.4,0.12-6.89,0.18-10.55c-0.95-2.38-1.22-3.99-1.24-6.46
			c-0.03-3.74,2-5.63,10.17-5.68c4.59-0.03,17.18,0.14,20.16,0.12c0.94,0.93,1.47,3.22,1.48,4.84c0.03,4.76-2.08,6.73-6.07,7.02
			c-1.78,0.27-6.97,0.39-10.97,0.41l-0.2,7.91c3.65-0.37,11.39-0.42,12.58-0.43c0.6,0.76,0.95,1.86,0.96,3.14
			c0.03,4.34-1.74,6.56-4.46,6.83c-1.19,0.26-4.85,0.12-9.18,0.4l-0.05,4.76l14.8-0.02c0.69,0.93,0.95,1.78,0.96,3.06
			C798.17,491.31,796.4,493.7,793.77,494.14z"/>
	</g>
</g>
</svg>
