<?xml version="1.0" encoding="utf-8"?>
<!-- Generator: Adobe Illustrator 23.0.3, SVG Export Plug-In . SVG Version: 6.00 Build 0)  -->
<svg version="1.1" id="Layer_1" xmlns="http://www.w3.org/2000/svg" xmlns:xlink="http://www.w3.org/1999/xlink" x="0px" y="0px"
	 viewBox="0 0 985.3 713.2" style="enable-background:new 0 0 985.3 713.2;" xml:space="preserve">
<style type="text/css">
	.st0{opacity:0.1;fill:#007CC7;enable-background:new    ;}
	.st1{fill:#AFC7D7;}
	.st2{opacity:0.29;fill:#99ADE5;enable-background:new    ;}
	.st3{fill:#FFF88E;}
	.st4{opacity:0.57;}
	.st5{fill:#6382D7;}
	.st6{fill:#FFFFFF;}
	.st7{fill:#72A084;}
	.st8{fill:#4E725B;}
	.st9{fill:#99ADE5;}
	.st10{fill:#002042;}
	.st11{fill:#F5BD83;}
	.st12{fill:#C64A27;}
	.st13{fill:#3E1D1D;}
	.st14{fill:#FFE6D6;}
	.st15{fill:#331318;}
	.st16{opacity:0.7;fill:#D19D6F;enable-background:new    ;}
	.st17{fill:#EFEAEA;}
	.st18{fill:#1B354C;}
	.st19{fill:#FFF1E4;}
	.st20{fill:#F0E6E1;}
	.st21{fill:#007CC7;}
	.st22{fill:#E2C6A9;}
	.st23{fill:none;}
	.st24{fill:#C99667;}
	.st25{fill:#56222C;}
	.st26{fill:#853535;}
	.st27{fill:#072439;}
	.st28{opacity:0.16;fill:#B94A00;enable-background:new    ;}
	.st29{fill:#FFCFC2;}
	.st30{fill:#4F322F;}
	.st31{fill:#FAFAFA;}
	.st32{fill:#035693;}
	.st33{fill:#005D8B;}
	.st34{fill:#CCCCCC;}
	.st35{fill:#D19D6F;}
	.st36{fill:#5B2516;}
	.st37{fill:#00456B;}
	.st38{fill:#A1543F;}
	.st39{opacity:0.14;}
	.st40{fill-rule:evenodd;clip-rule:evenodd;fill:#73A0BE;}
	.st41{opacity:0.3;}
	.st42{fill-rule:evenodd;clip-rule:evenodd;fill:#007CC7;}
	.st43{opacity:0.2;}
</style>
<path class="st0" d="M984.5,358.9c-5.3,47.1-23.3,73.3-45.1,91c-37,30.2-85,35.9-99.6,78.3c-23.3,67.4,33.6,79,40,106.8
	c0.7,2.9,1.1,5.7,1.3,8.5c0,0.1,0,0.1,0,0.2c0,0.4,0,0.9,0.1,1.3v0.4c0,0.3,0,0.6,0,0.8s0,0.4,0,0.6c0,0.1,0,0.2,0,0.3
	c0,0.3,0,0.6,0,0.9c0,0.1,0,0.2,0,0.4s0,0.3,0,0.5c0,0.3,0,0.5,0,0.8c-9.5,124.9-574.3,32.8-767.8-2.5
	C18.6,630-29.9,523.4,19.8,440.9c0.7-1.2,1.5-2.5,2.3-3.7c19.4-31,39.7-52,59.9-68.2c33-26.5,65.6-40.2,93.4-63.7
	c23.8-20,44.1-47.2,58.2-95.5C274.1,70.3,469.9,28.4,664.6,28c110.7-0.2,144.6,38.7,152.5,83.7c-3.4-0.6-7.1-0.8-11.4-0.8
	c-43.9,0.6-55.3,40.6-102.3,38.3s-55.4,13.9-52.2,24.5c3.6,11.9,15.1,30.9,82.5,24.2c35.4-3.5,60.5-3.6,80.1-2.6
	c-0.6,5.1-1.2,10-1.5,14.5C808,271.1,998.7,231.8,984.5,358.9z"/>
<path class="st1" d="M117.4,641.2c1.2,0.9,3,2.1,6,3.4c-1.5-0.5-3.8-1.5-5.4-2.4s-2.8-1.6-2.5-1c-3.3-2.5-5.7-5.1-7.8-7.6l-1,0.2
	c4,4.7,9.2,8.7,15,10.8c5.8,2.2,10.8,2.5,14.7,2.5c-3.8-0.3-5.9-0.8-6.9-1.1s-0.9-0.4-0.6-0.5c0.7-0.2,2.2-0.2-1.5-1.5
	c3,0.6,5.5,1.3,7.1,1.8c0.6,0,2.7,0.2,4.6,0.3c1.9,0.1,3.4,0,3-0.2c0.8,0.5,3.3,0.9,6.5,1.2s6.9,0.3,10.4,0.5
	c6.9,0.1,12.7,0.2,9.4,1.2c4.2,0,12.8-0.8,22.4-2.1c9.6-1.2,20.2-2.9,28.9-4.1l-4.6,1.1c18.6-0.9,15.7-3.2,26.2-4.9
	c-9.1,1.6,8.4-0.2,12.2-0.1c8.1-1.3,14.7-2.8,26.3-3c2.4,0.7,2.7,1.7,10.1,1.8c1.7-0.2,3.3-0.4,5-0.5c7.4,0.2,17.3,0.2,22,1h-1
	c8.2,1,8.8,0,2.3-0.7l8,0.2l0.2,0.2c10.6,0.4,20.6,0.3,37.5,1.9c-4.6,0.2,12.5,2.6-2.8,1.2c4.5,0.1-2.3-0.9-3.1-1.3
	c-5.4-0.7-10.6-0.5-13-0.6c1.7,0.6-0.1,1.3-3.1,1.6c5.5,0,15.8,1,25.2,1.9c9.4,0.8,17.8,1.4,19.3,0.6c6.8,0.7,14.7,1.2,22.9,1.6
	c8.2,0.2,16.6,0.6,24.5,0.9c-0.6-0.1-1.9-0.2-1.5-0.4l13.6,0.8l-3.1,0.2l9,0.5c0.9,0.3-2.6,0.6-6.3,0.7c-2.1,0.1-4-0.1-2-0.2
	c-9.7,0.6,8,0.3,1.7,0.9c-2.4-0.1-5.5,0.1-7.2,0c11.1,0.5,16.2-0.7,23,0c2.6-0.4,6.6-0.8,11.2-1.2c4.6-0.3,9.7-0.8,14.7-0.8
	c-3.8,0.7,10.8-0.8,5.9,0.4c3.8-0.6,12.7-0.8,14.2-1.5c-1.4,0.3-5.7,0.7-8.7,0.7c4.1-0.5,4.5-1.1,9.5-1.4c0.7,0,0.3,0.2,0.3,0.2
	c6.4-1,2-1.8,13.3-2.9c29.6-3.3-3.9,2.2,0.4,2.2c1-0.5,14.1-2.1,20-2.3l-1.4,0.3c3-0.5,7.4-1.3,10.6-1.3c1.7-0.9,5.1-1.9,7.1-2.6
	l13.2-1.6l-2.7,0.7c3-0.5,5.6-0.8,8.3-1.2c1.3,0.4-2.7,0.7-6.7,1.4c2.3,0.2,4.9-0.1,7.9-1l-1.7,0.2c3.3-0.7,15.6-2.9,5.7-1.9
	c7.3-1.4,9.8-0.6,14.8-1.5c0.6,0.4-4,1-1.4,1.1c4.9-0.5,8.2-0.8,12.1-1.5c-3.9,0.3,1-0.5-5.2-0.1c2.3-0.5,8.5-1.3,8.2-1.5
	c-2,0.3-3.3,0.7-6.9,0.8c6.6-1,13.5-1.8,20.3-2.2c-0.2,0.1-0.9,0.3-1.6,0.5c8.7-1.7,21.9-2.9,27.7-4.2l-2.7,0.1
	c-2.1,0.4-6.4,0.9-8.2,0.8c6.6-0.9-4.8-0.3,2.1-1.4c9.6-1.3,18.3-1.1,23.5-2.6c-9.2,0.8-21.7,1.3-25.4,2.2c2-0.2,4-0.4,5.9-0.5
	c-4.5,0.8-8.9,1.7-13.3,2.5c-0.6-0.4-11.9,1.5-11.8,0.8c4.6-0.7,8.9-1.1,12.5-1.5c-0.9-0.2-12.5,1.1-17.4,1.6l6.2-0.5
	c-10.9,1.8-25,3.2-35.6,4.9c8.3-1.5-10.8,0.8-4.2-0.6c2.7-0.7,7.2-0.6,5.9-0.7c0.7-0.7-6.5,0.6-8.8,0.4c-1,0.5-11.9,2-5.4,1.7
	c-3.6,0.1-11.2,1.7-16.1,1.8c1.6,0.6-8.9,1.5-10.6,2c-2.1,0.2-4,0.2-5.4,0.2c4.4-0.7,9.8-1.6,15.5-2.6c2.3-0.1,6.6-0.6,5.3-0.6v-0.3
	c8.5-1.5,17-3,23.1-4.1c1-0.1,1.9-0.2,2.9-0.3l-0.6,0.1c0.3-0.1,0.6-0.1,0.9-0.2c49.7-5.8,99.4-11.5,149.2-10.8
	c-3.3,0.1-8.6-0.1-10.8,0.3l0.3-0.1l-5.1,0.3c4.3,0,12.7-0.1,16.4-0.4c3.5,0,7,0.1,10.5,0.3l-8.8-0.6l0,0l0,0l-10.4-0.7
	c6.8-0.5,13.2-1,21.4-0.7c-2.6,0.3,0,0.4,0.6,0.5c26.7-2.2,54.7-3.9,81.5-2.6c7.9,0.4,16.2,1,23.2-2.7s11.3-13.5,6.4-19.6
	c-2.8-3.4-7.3-4.6-11.6-5.6c-40.6-9.5-80.7-10.3-122.2-11.4c2.7-0.6-2.7-0.9-9-1.2c-6.2-0.3-13.3-0.5-14-1.2
	c-4.3-0.2-11-0.2-11.6,0.2c2.4-0.1,8.2,0.5,7.4,0.7c-6.3-0.2-15.9-0.5-16.9,0.1l-7.7-0.9c-0.3,0.3-1.6,0.6-3.7,0.8
	c-1.7-0.1-3.4-0.1-5.1-0.2c-3-0.5-3.2-0.3-3.3-0.1c-1.9-0.1-3.8-0.1-5.6-0.2c2.2-0.3,4-0.5,4.8-0.8c-6.6-0.4-5.7,0-10.4-0.1
	c-1.5-0.4,4.7-0.9,9.8-1l-8.5-0.7c-8.3,0.5-22.6,1-35.8,0.3c2.2-0.4,6.5-0.2,3.1-1c-5.7,0-13.3,0.5-20.8-0.2c1,0,0.4-0.1,1.4-0.1
	c-13.2,0.1-9.9-0.6-21.8-1.2c0.2-0.1,0.2-0.1,0.6-0.2l-7.3,0.1c-15.4,0.3-16.9-1.6-25.9-2.6h2c-2.8-0.6-8.8-0.9-14.8-1.3
	s-11.8-0.7-14.4-1c6.4,0.9,2.1,0.6,6.7,1.7c5.7,0.2,4.1-0.8,13.6,0.1c-1.3,0.7-13.3,0.1-15.9,0.5c-5.3-0.3-8.7-1.8-9.1-2.3
	c-13.2-1-20.5-2-36.7-3.4c-5.9,0-10.7,1.1-24-1.2l0.8-0.2c-0.6,0.4-6.5-0.7-9.4-0.6c4.5,1.2-5.9,0-0.3,1.2c-7.9-0.6-9.1-1.8-9.7-2.5
	c-5.8,0.7-15.6-1.8-28-1.7c2.2-0.4,15.6,0.3,10.2-0.6c-5.3,0.1-10.6,0.3-15.9,0.5l7,0.2c-12,0.3-15.3-0.6-22.2-1
	c-0.7-0.2,0.1-0.3,1.5-0.3s3.4,0,5.1,0c-3.7-0.2-9.6,0-14.4,0.3c-3.6,0.3-16.2,1.3-21.2,2.3c-0.7,0-1.4,0-2,0.1
	c0.2-0.1,0.5-0.2,0.9-0.2c-1,0.1-1.8,0.2-2.6,0.3c-2.1,0.2-4.2,0.3-6.3,0.5l1.2-0.3c-0.8,0.1-1.6,0.2-2.4,0.4
	c-2.2,0.1-4.4,0.4-6.5,0.7l-3.2,0.7l1.6-0.2c-0.2,0.5-2.2,1.1-5.2,1.8c-3.7,0.6-7.4,1.3-11,2c-3.8,0.8-7.7,1.7-11.5,2.6
	c-4.1,0.8-8.7,2-13,3c-5.3,1.3-10,2.3-12.5,2.1c14-3.7,20.7-5.2,35.8-8.8c4.1-0.3,1.6,0.2-1.8,1s-7.9,1.9-8,2.2
	c2.9-0.6,5.7-1.2,8.6-1.7c-1.4-0.4,16.8-3.5,11.9-3.8c-4.8,0.8-9.7,1.5-14.4,2.5c-4.7,1-9.3,2-13.8,3.1c-9,2.1-17.5,4-25.6,5.1
	c4.7-2.6,8.9-5.5,13-8.4c0-0.1,0.2-0.2,0.8-0.6l-0.8,0.6c0.1,0.2,3.2-0.7,6.7-1.7c-0.6,0.4-1.3,0.9,3-0.1c8.8-1.6,13.3-4,20.2-5.2
	l-2.1,0.5c3.2-0.5,6.9-1.1,10.4-1.8s6.8-1.2,9.2-1.8c2.8,0.1-1.9,0.8-6,1.5s-7.5,1.4-2.3,0.9c-3.6,0.5-7.9,1.3-11.9,2.3
	s-7.6,2-10.1,2.7c4.3-0.9,8.6-1.5,11.5-1.8c2.9-0.2,4.3,0,3.2,0.5c9.5-2.1,9.4-2.6,8.9-3c-0.5-0.5-1.2-0.8,7.4-2.3
	c4-0.6,8.1-0.8,12.1-1.2c1.3-0.5,2.7-1,4-1.5c7.3-0.5-4.3,1.2,6.8,0.4c3-0.8,10.2-0.5,12.4-0.9c-0.3,0.3-0.4,0.5,5.3,0.4
	c0.4-0.1-0.1-0.6,4.3-0.6c3.1,1.1-11.5,0.3-6.2,1.3c12.7-0.1,8.1-1,10.1-1.5c-0.4,0-1.1,0-2.4,0c0.1-0.4,5.5-0.1,5-0.5
	c-2.1-0.1-4.3,0.1-6.2,0.2c3.9-0.3-6.3-0.8-10.2-0.6c-8.9,0.6-27.4,1.7-39.6,3.8c1.1-0.2,3.1-0.6,1.8-0.6c-2.2,0.3-4.2,0.6-6.1,0.9
	c-1.9,0.3-3.7,0.7-5.4,1c-3.4,0.6-6.6,1.2-9.7,1.8c-6.2,1.3-12.5,2.9-21.2,5.1l-1.7,1.2c-7.5,1.7-9.1,2.4-9.3,3.1
	c-0.2,0.6,1,1-0.8,1.5c-3.3,0.6-6.1,1.5-9,1.4c0.5-0.2,1-0.3,1.5-0.5c-4.6,0.6-5.3,0.8-5.9,1s-1.1,0.4-5.2,0.4
	c-3.3,0.2-1.9,0.3-0.1,0.3s3.8,0,1.7,0.3c-2.2,0-3.7,0-4.8,0.1c-1.2,0.1-2,0.2-3,0.3c-2,0.1-4.7,0.3-11.6-1.6c0.4,0,0.1-0.4,0.8-0.5
	c0.6-0.1,2.3,0.1,6.2,0.7c-2.5-0.6-5-1.3-7.6-2.1c4.8,0.9,5.6,1,6.6,1.1c0.9,0.1,1.8,0.4,6.3,0.7c2.1-0.2,3-0.6,3.8-0.9
	c0.8-0.3,1.5-0.6,3.4-0.9c-1.7,0.1-2.4,0.4-3.2,0.5c-0.9,0.1-2,0.3-4.4,0c-5.8-0.8,1-0.3,1.6-0.5c-3.9,0.2-6-0.4-8.1-1
	s-4-1.3-8.3-1.8c1.1,1.2-0.3,0.9,5,2.7c-2.8-0.4-6-1.3-8.5-2.1s-4.3-1.5-3.8-1.8l-1.6,0.5c-1.4-0.5-6.8-1.2-7.1-1.5l-2.4,0.1
	c4.7,1.1,8.8,2,16.4,3.4c-3.3-0.2,3.7,2.1-6.4,0.2c-4.5-0.8-0.4-0.5-0.6-0.8c-3-0.5-5.6-0.8-7.9-1.1c-2.4-0.2-4.4-0.5-6.3-0.6
	c-1.9-0.2-3.5-0.3-5-0.4c-1.5-0.1-2.9-0.2-4.3-0.3c-5.4-0.3-10.4-0.5-19.7,0.7c4.6-0.9,16.2-1.4,25.6-1.5
	c-5.6-0.9-12.1,0.1-17.4,0.4c4.7-0.6,5.5-0.9-0.2-0.9c-0.8,0.2-1.5,0.4-2.2,0.6c-3.4,0.2-9.2,1-9.7,0.9c-0.1,0.2,1.4,0.1,4.4-0.1
	c-4.1,0.7-9.9,1.8-16.3,3.1c-6.3,1.3-13.4,2.7-20.2,4.1c3.8-0.8,8.2-2.5,12-3.6c-8.1,2.4-18.3,1.3-26.8,2.2
	c-8.4,0.9-16.8,2.8-25.1,4.4c-17.2,3.4-34.4,8-49.8,16.6c-2.5,1.4-4.9,2.9-6.6,5.2c-2.6,3.7-2.5,8.9-0.8,13.1
	c1.8,4.2,4.9,7.7,8.1,10.9c3.8,3.8,8,7.5,13.1,8.9c4,1.1,8.3,0.8,12.1,2.2c1.9,0.7,3.6,1.8,5.4,2.5c2.6,0.9,5.4,0.8,8,1.4
	C112.7,633.6,113.4,638.1,117.4,641.2z M308.4,558.1l-5.8,1.3C304.8,558.8,307,558.2,308.4,558.1z M203.5,638.6
	c-1.5,0.3-3.5,0.6-5.4,1c-1.6,0.1-2,0-2,0C198.6,639.2,201.1,638.9,203.5,638.6z M103.2,612.9c-0.1-0.2-0.2-0.5-0.3-0.9
	C102.9,612.3,103.1,612.6,103.2,612.9z M281.4,632.6c-2.4,0.3-2,1.3-11.4,1.5c-0.1-0.1,0.7-0.2,1.6-0.3c-4.3,0.3-5,0.2-9.7,0.3
	c-1.5-0.6,5.7-1,8.7-1.6c-3,0.3-6.3,0.8-9.6,1l0.7-0.3c-3.3,0.3-6.6,0.7-9.9,1c-4,0.9,7.5-0.6,8.1-0.2l-6.3,1
	c-7.2,0.7-26.5,3.3-33.3,3.2c-8.5,0.7-4.6,1.1-6.6,1.8c-4.9,1.3-9.9,1.1-14.8,2c0.3,0.5-5.7,1.2-5.7,1.9l-8.3,0.8
	c-4.5,1.5,10-0.9,12.3-0.7c4.6,0.4-6,1-3.1,1.2c6.3-0.8,6.7-1.4,9.7-1.9c3.6-0.5,5.6-0.5,5.6-0.2c-10.2,0.9-5.3,1.5-13.6,2.3
	l-0.3-0.2c-0.1,0.7-12,1.6-16.5,2.3c-9.3,0,7.3-1.7,6.9-2c-3.7,0.5-7.4,0.9-11.2,1.2c4.8-0.9-0.2-0.9,6.3-1.9
	c-6.8,0.9-7.7,0.2-14.2,1.1c7.3-1.5-9.3-0.2-10.1-1c7.1-0.4,19.8-0.5,20.5-0.3c1-0.2,9.2-0.9,12.6-1l5.1-1.5
	c-5.9,0.7-14,1.9-11.9,0.8c-2.7,0.4-5.4,0.8-8.1,1.2c8.2-2,7.8-1.9,15.2-3.3c-15.6,0.7-27.6,3.7-40.6,2.9l2-0.1
	c-6.4,0.2-11.7-0.2-15.8-1s-7.1-2.1-9.1-3.3c-0.1,0-0.1-0.1-0.2-0.1c0.4,0.2,0.8,0.4,1.2,0.6c7.2,3.1,16.1,3.4,24.6,3.3
	c13.6-0.2,27.1-1.4,40.6-3l-1.6,0.6c0.3-0.1,0.6-0.1,0.9-0.2c15.5-2.2,1.6,0.9,17.4-1.5c-0.6,0.2-0.9,0.3-1.2,0.4
	c6.4-1.1,18.4-2.4,19.6-3.3c-1.5,0.2-7.5,0.8-10.4,0.9c6.8-0.9,13.5-1.8,20.3-2.6c1.4,0,2.8-0.1,4.4-0.2l0,0l0,0
	c1.5-0.1,3.2-0.4,5.5-0.7c0.5-0.1,0.9-0.2,1.2-0.3c8.1-0.8,16.2-1.5,24.3-1.8C272.2,631.9,290.8,631.4,281.4,632.6z M306.8,632.3
	c-9.6-0.4-2.9-0.3-9.7-0.9c-0.4-0.1-0.1-0.2,0.4-0.3c7.2,0.2,14.4,0.5,21.5,1C312.8,631.8,306.4,631.5,306.8,632.3z M335.9,634.1
	c-3.3-0.4-12.6-0.9-13.2-1.6c4.5,0.3,5.8,0.4,5.3,0.2c4.7,0.4,9.4,0.8,14,1.3c0.2,0.1,0.6,0.2,1.2,0.4
	C341.1,634.3,337.8,634.1,335.9,634.1z M456.4,644.1c-8.4,0.1,0.5-0.5-3.8-0.7c-6.4,1-8.1-0.8-14.9,0.3c-8.1,0.1-5.5-0.5-8.1-0.9
	c8,0.1-3.7-0.8,6.4-1c-4.1-0.2-5.6-0.1-6.9,0.1s-2.5,0.4-6,0.1l-1-0.9c-3.1-0.2-8-0.5-13.2-0.9s-10.6-0.8-14.9-0.8
	c7,1.1-4.2,0.2-3.2,0.8c1.4-0.6,11,0.6,10.9,1c-5-0.2-16.8-1-21.4-1.6l9.2,1.2c-3.9,0.2-17.5-0.4-17.9-0.3c-4.1-0.8-10.4-1.3-12.4-2
	l7.9,0.2l2.7,0.8l4.6-0.2c-5-0.7-15.5-2.3-17.6-3.1c7.9,0.8,18.8,1.8,31.8,2.4c7.5,0.7,14.9,1.2,22.4,1.6c17.9,1,35.8,1,53.6,0.3
	c-0.1,0-0.3,0-0.4,0.1c-2.1,0.4-4.5,0.7-7.5,0.8c1.6-0.1,3.6-0.2,6.3,0c-4.8,0.6-9.6,1.4-14.5,1.8c3.7,0.1,5.8-0.2,8-0.6
	c2.3-0.3,4.8-0.7,9.2-0.8C465.4,642.7,466,643.2,456.4,644.1z M705,615.9c6.2,0.1,12.5,0.1,18.7,0h-0.1l6.1,0.6
	c-2.3,0.2-4.7,0.3-7,0.5L705,615.9z M277.1,571.9c2-0.1,2.6,0.1,3.2,0.3c-1.6,0.2-3.1,0.4-4.7,0.5L277.1,571.9z M220,565.4
	c0.4-0.4,3-0.5,6-0.3c3,0.1,6.2,0.5,7.8,0.3c1.3,0.1,4.7,0.7,7.4,1.4s4.6,1.2,3.3,1.3c-3.6-1-5.6-1-7.4-1c-1.8,0-3.4-0.2-6.9-1.3
	c-1.3,0.3,0.5,0.8,3.3,1.4c-1-0.1-1.6,0-1.7,0.1c-1.4-0.2-2.8-0.4-4.1-0.7c-1.4-0.2-2.7-0.3-3.9-0.4
	C221.4,565.7,219.3,565.6,220,565.4z M209.8,565.4l-2.4,0.2c-9.1,0.3-14.8,1.2-18,1.8c-3.1,0.6-3.9,0.9-3,1c-2.1,0.3-4.2,0.7-6.3,1
	c3.7-1.1,7.2-2,9.2-2.5C196.8,565.7,205.1,565.2,209.8,565.4z M163.1,571.6c-0.4,0.3,0.1,0.3,1,0.2c-2.3,0.6-4.7,1.1-7,1.7
	C158,572.9,156.3,572.9,163.1,571.6z M98.2,604.9c0-1.3,0.6-2.6,0.9-3.7c0.8-1.8,1.7-3,2-3.2c-0.3-0.6,1-3.3,3.7-6
	c2.8-3,7.1-5.6,9.4-7.2c6-3.2,8.5-3.6,10.6-4.1c2.2-0.5,4-1,9.7-3c-1.5,0.2-3,0.5-4.5,0.8c5.1-1.8,8.8-3,12.8-4c3.9-1,8-2,13.9-3.2
	c1.7,0.4-5.4,1.1-7.9,2l5.8-0.6c-2.5,0.6-7.2,2.4-7.3,1.7c0.1,0.4-3.6,1.8,3.6-0.2l-5.3,1.8c0.3,0,0.8,0,1.3-0.1
	c-1.6,0.5-3.3,0.9-4.9,1.4c-2.2,0.3-5.9,1.4-9.3,1.9c-0.4-0.1,3-1.3,4.9-1.9c-5.1,1.2-9.4,2.8-12,4c3.8-1.3,4.8-1.5,5-1.4
	s-0.2,0.5,0.8,0.5c-2.2,0.9-5.2,2-7.8,3.2c-2.7,1.1-5,2.3-6.1,3c-1.5,0.7-2.8,1.4-4,2s-2.2,1.2-2.9,1.5c-1.5,0.7-2.1,0.7-0.6-0.7
	c-2.9,2.5-6.3,5.4-7.2,8.9c0.7-1.5,1.2-2.3,1.6-2.7c0.4-0.3,0.7-0.3,1-0.3s0.7-0.1,1.2-0.6c0.3-0.2,0.6-0.6,1.1-1.2
	c0.5-0.5,1.1-1.2,1.8-2c0.6-0.2,0.8-0.2,0.7,0.1c-2.8,2.2-4.9,4.7-6.3,7.5c-0.5,0.8-0.9,1.5-1.2,2.1c0.7-2.1-0.5-0.5-0.7-1
	c-0.3,0.8-0.4,1.4-0.4,1.9s-0.1,0.9,0,1.2c0,0.5,0.2,0.6,0.4,0.4c0.2-0.2,0.4-0.6,0.7-1.1c-0.1,0.5-0.3,0.9-0.3,1.4
	c-0.4,2.7,0,5.3,0.9,7.8c0.2,1.2,0.5,2.5,0.9,3.7c-1.1-1.8-1.9-3.7-2.5-5.6c-0.1,1.3,0.3,2.9,1.2,4.5s2,3.2,2.9,4.6
	c0.8,1.6-0.7,0-2.5-2.6s-3.5-6.3-4.3-8.3C98.2,607.3,98.1,606.1,98.2,604.9z"/>
<path class="st2" d="M194.9,361c0.1,0.8,0.2,1.7,0.5,2.5c0.9,2.6,2.9,3.3,5.3,4.1c2.7,0.9,5,2.5,7.8,3.3c9,2.6,17.4,6.1,26.7,7.8
	c4.4,0.8,8.8,1.4,13.2,1.8c16.1,1.4,32.3,0.4,48.4-0.8c8-0.6,16-1.2,23.9-2.9c13.5-2.9,26.9-8.6,40.8-8.9
	c13.4-0.3,25.9-3.1,39.5-0.5c11.4,2.1,26.3,4.9,37.7,7.4c20.5,4.4,38,5.5,58.5,1.1c8.8-1.9,17.3-4.5,26.1-6.5
	c12.4-2.9,25.1-4.4,37.8-4.7c3.7-0.1,7.3,0.1,11,0.4c3.3,0.2,6.9,0.3,10.1,1.2c6.3,1.6,11.9,5.2,18.3,6.3c1.1,0.2,2.5,0,2.7-1.1
	c0-0.4,0-0.9,0-1.3c0-6.2,0-12.4,0-18.6c0-9.3,0-18.5,0-27.8c0-0.5,0-1,0-1.4c0-8.4,0-16.7,0-25.1c0-6.6,0.1-13.3,0.1-19.9H578v9.6
	h-23.7v43.5h-8v-31.7h-33.6V327h-15v-29.1l-7.7-12.2l-8.3,13.1v16.3h-2.9v10.2h-16.6v-10.2h-11.8v9.9h-10.6v20.2h-8.3v-27.9H412
	v-18.9h-36.5v47.1h-6.1v-49.6h-7.7v-6.7h-15.4v9h-22.7v7.7h-8v-6.7h-16.3v18.6H274V312h-9.6c0-2.9,0-5.8,0.1-8.7h-18.9v18.5
	l-11.8,0.3v-39.8h-39c0,5.8,0,11.6,0,17.4c0,11,0,21.9-0.1,32.9c0,5.8,0.3,11.7-0.3,17.5v8.9c0.1,0.6,0.2,1.2,0.3,1.9
	C194.8,360.8,194.8,360.9,194.9,361z"/>
<circle class="st3" cx="390.8" cy="87.6" r="59.8"/>
<g class="st4">
	<g>
		<g>
			<path class="st5" d="M507.1,398.6c-0.3,0.5-0.7,1-1,1.5c-0.6,0.9-0.2,2.3,0.7,2.8c1,0.5,2.2,0.3,2.8-0.7c0.3-0.5,0.6-1.1,0.9-1.6
				c0.5-0.9,0.2-2.2-0.7-2.7C508.8,397.4,507.7,397.7,507.1,398.6L507.1,398.6z"/>
		</g>
	</g>
	<g>
		<g>
			<path class="st5" d="M461.8,385.8c-0.3,0.4-0.4,0.6-0.2,0.4c-0.4,0.1-0.7,0.3-1.1,0.5c-0.8,0,0.4,0,0.6,0s0.1,0-0.2,0
				c0.1,0,0.1,0,0,0c-0.4,0,0.2,0.2-0.1,0c-0.4-0.2-0.7-0.5-0.7-1c0,0.9,0.8,1.8,1.7,1.7c0.9,0,1.8-0.8,1.7-1.7
				c-0.1-1.3-1.1-2.3-2.4-2.3c-0.6,0-1.2,0.2-1.6,0.6c-0.2,0.2-0.3,0.5-0.4,0.7s0.1-0.2,0.1-0.2c0,0.1-0.2,0.4-0.2,0.5
				c0,0.2-0.1,0.4-0.1,0.5c-0.1,0.7,0.6,1.4,1.3,1.5C460.9,387,461.6,386.5,461.8,385.8L461.8,385.8z"/>
		</g>
	</g>
	<g>
		<g>
			<path class="st5" d="M466.1,418.3c1.1,1.6,2.2,3.1,3.5,4.4c1,1.1,2.5-0.3,1.9-1.5c-0.8-1.6-1.7-3.1-2.6-4.6
				C467.7,415,465,416.6,466.1,418.3L466.1,418.3z"/>
		</g>
	</g>
	<g>
		<g>
			<path class="st5" d="M393.1,397.2c1.6,0.7,3.2,1.4,4.8,2.1c1.5,0.7,2.9-1.6,1.3-2.3c-1.6-0.7-3.2-1.4-4.8-2.1
				c-0.6-0.3-1.4-0.2-1.8,0.5C392.3,395.9,392.5,396.9,393.1,397.2L393.1,397.2z"/>
		</g>
	</g>
	<g>
		<g>
			<path class="st5" d="M411.5,432.3c0.8,0.1,1.6,0.2,2.5,0.1c0.7,0,1.3-0.5,1.4-1.2s-0.3-1.4-1-1.6c-0.9-0.2-1.9-0.3-2.9-0.4
				c-0.8-0.1-1.5,0.8-1.5,1.5C410,431.7,410.6,432.2,411.5,432.3L411.5,432.3z"/>
		</g>
	</g>
	<g>
		<g>
			<path class="st5" d="M323.7,429.3c0.9-0.6,2.2-0.6,3.1,0.1c0.6,0.5,1.5,0.6,2.2,0c0.5-0.5,0.6-1.6,0-2.2c-2-1.5-4.6-1.9-6.8-0.5
				C320.6,427.7,322,430.2,323.7,429.3L323.7,429.3z"/>
		</g>
	</g>
	<g>
		<g>
			<path class="st5" d="M307.1,397.2c1.7-0.4,3.4-0.8,5-1.4c1.3-0.5,1.3-2.8-0.4-2.6c-1.9,0.2-3.7,0.6-5.5,1.1
				C304.4,394.7,305.2,397.7,307.1,397.2L307.1,397.2z"/>
		</g>
	</g>
	<g>
		<g>
			<path class="st5" d="M192,407.9c0.6,0,1.1,0.1,1.6,0.1c0.8,0.1,1.6-0.8,1.6-1.6c0-0.9-0.7-1.5-1.6-1.6c-0.6,0-1.1-0.1-1.6-0.1
				c-0.8-0.1-1.6,0.8-1.6,1.6C190.5,407.2,191.1,407.8,192,407.9L192,407.9z"/>
		</g>
	</g>
	<g>
		<g>
			<path class="st5" d="M204.4,437.5c2.2,0.2,4.4,0.4,6.6,0.5c2.4,0.2,2.4-3.5,0-3.8c-2.2-0.2-4.4-0.4-6.6-0.6
				C201.9,433.5,201.9,437.3,204.4,437.5L204.4,437.5z"/>
		</g>
	</g>
	<g>
		<g>
			<path class="st5" d="M129.6,409.4c2.2,0.2,4.4,0.4,6.6,0.6c1.5,0.1,1.5-2.2,0-2.4c-2.2-0.2-4.4-0.4-6.6-0.6
				C128.1,406.9,128.1,409.2,129.6,409.4L129.6,409.4z"/>
		</g>
	</g>
	<g>
		<g>
			<path class="st5" d="M144.4,449.2c2.4,0,4.7-0.1,7-0.6c1.7-0.3,1.1-2.5-0.4-2.7c-2.2-0.3-4.4-0.2-6.7,0
				C142.2,446,142.2,449.2,144.4,449.2L144.4,449.2z"/>
		</g>
	</g>
	<g>
		<g>
			<path class="st5" d="M193.8,498.1c1.5-0.9,3-1.8,4.5-2.8c1.8-1.3,0.2-4.1-1.8-3c-1.6,0.9-3,1.8-4.5,2.8
				C190.1,496.3,191.9,499.3,193.8,498.1L193.8,498.1z"/>
		</g>
	</g>
	<g>
		<g>
			<path class="st5" d="M281.6,414.2c1.1-0.3,2.4,0.1,3.2,0.8c1.6,1.5,3.8-0.8,2.4-2.4c-1.6-1.9-4.1-2.5-6.5-1.7
				C278.6,411.6,279.4,414.7,281.6,414.2L281.6,414.2z"/>
		</g>
	</g>
	<g>
		<g>
			<path class="st5" d="M286.9,463.6c1.3,1.5,2.5,3,3.8,4.4c0.7,0.8,2,0.7,2.7,0c0.8-0.8,0.7-1.9,0-2.7c-1.2-1.5-2.5-3-3.7-4.5
				c-0.7-0.8-2.1-0.7-2.8,0C286.1,461.6,286.2,462.8,286.9,463.6L286.9,463.6z"/>
		</g>
	</g>
	<g>
		<g>
			<path class="st5" d="M415.9,468.7c1.3,1.9,2.5,3.8,4,5.6c1.1,1.4,3.3-0.4,2.4-1.9c-1.1-1.9-2.4-3.6-3.6-5.3
				C417.5,465.4,414.7,466.9,415.9,468.7L415.9,468.7z"/>
		</g>
	</g>
	<g>
		<g>
			<path class="st5" d="M505.3,449.1c0.7,0.4,1.4,0.7,2.1,1c0.8,0.4,1.5,0.5,2.4,0.8c1.2,0.3,2.4-1.4,1.3-2.3
				c-0.6-0.5-1.2-1.1-1.9-1.5c-0.7-0.4-1.4-0.7-2.1-1.1C505.1,445,503.3,448.1,505.3,449.1L505.3,449.1z"/>
		</g>
	</g>
	<g>
		<g>
			<path class="st5" d="M554.1,390.5c0.2,1.5,0.7,2.8,1.2,4.2c0.7,1.6,3.3,0.5,2.8-1.2c-0.5-1.3-1-2.5-1.8-3.6
				c-0.3-0.4-0.8-0.7-1.3-0.5C554.5,389.5,554,390,554.1,390.5L554.1,390.5z"/>
		</g>
	</g>
	<g>
		<g>
			<path class="st5" d="M556.9,371.7c0,0.6,0.2,1,0.5,1.5c0.4,0.7,1.6,1,2.2,0.3c0.3-0.4,0.7-0.8,0.8-1.3c0.2-1-0.3-2.1-1.5-2.2
				C557.8,369.8,556.9,370.6,556.9,371.7L556.9,371.7z"/>
		</g>
	</g>
	<g>
		<g>
			<path class="st5" d="M501.3,368c0.2,0.3,0.5,0.6,0.8,0.9s0.6,0.5,0.9,0.8c0.7,0.5,1.5,0.7,2.3,0.1c0.7-0.5,0.9-1.5,0.5-2.2
				c-0.5-0.8-1-1.5-1.6-2.3s-2-0.7-2.7,0C500.6,366.2,500.6,367.2,501.3,368L501.3,368z"/>
		</g>
	</g>
	<g>
		<g>
			<path class="st6" d="M533.7,421.5c-0.2,1.3-0.5,2.7,0,4c0.3,1,1.7,1.3,2.2,0.3c0.6-1.2,0.7-2.6,0.7-3.9c0-0.7-0.6-1.4-1.3-1.5
				C534.6,420.4,533.8,420.8,533.7,421.5L533.7,421.5z"/>
		</g>
	</g>
	<g>
		<g>
			<path class="st6" d="M535.3,420.4c0,1.4,0.1,2.8,0.2,4.2c0.1,0.9,0.8,1.8,1.8,1.8c0.8,0,1.9-0.8,1.8-1.8
				c-0.2-1.5-0.4-3.1-0.8-4.6C538,418.3,535.3,418.7,535.3,420.4L535.3,420.4z"/>
		</g>
	</g>
	<g>
		<g>
			<path class="st6" d="M526.7,386.9c0.4,1.7,0.8,3.4,1.3,5.1c0.5,1.9,3.4,1.1,3-0.8c-0.4-1.7-0.8-3.4-1.2-5.1
				C529.4,384,526.2,384.9,526.7,386.9L526.7,386.9z"/>
		</g>
	</g>
	<g>
		<g>
			<path class="st6" d="M478.7,394.4c2.5,0,5,0,7.5-0.2c2-0.2,2.1-3.1,0-3.2c-2.5-0.1-5,0.1-7.5,0.2
				C476.7,391.2,476.6,394.4,478.7,394.4L478.7,394.4z"/>
		</g>
	</g>
	<g>
		<g>
			<path class="st6" d="M439.1,410.6c2.4,0,4.7,0.2,7-0.4c1.3-0.3,1.4-2.5,0-2.7c-2.4-0.4-4.6-0.2-7,0
				C437.1,407.6,437.1,410.5,439.1,410.6L439.1,410.6z"/>
		</g>
	</g>
	<g>
		<g>
			<path class="st6" d="M407.8,379.8c2-0.1,3.9-0.2,5.8-0.3c2.2-0.1,2.2-3.5,0-3.4c-2,0.1-3.9,0.2-5.8,0.3
				C405.7,376.5,405.7,379.9,407.8,379.8L407.8,379.8z"/>
		</g>
	</g>
	<g>
		<g>
			<path class="st6" d="M346.9,420.9c2-0.1,3.9-0.2,5.8-0.2c2.2-0.1,2.2-3.6,0-3.5c-2,0.1-3.9,0.2-5.8,0.4
				C344.8,417.7,344.7,421,346.9,420.9L346.9,420.9z"/>
		</g>
	</g>
	<g>
		<g>
			<path class="st6" d="M333,462.1c1.7-0.7,3.5-1.3,5.2-2c1-0.4,1.6-1.3,1.3-2.3c-0.2-0.9-1.4-1.7-2.3-1.3c-1.7,0.7-3.4,1.4-5.1,2.1
				c-0.9,0.4-1.6,1.2-1.3,2.2C331,461.7,332,462.4,333,462.1L333,462.1z"/>
		</g>
	</g>
	<g>
		<g>
			<path class="st6" d="M363.5,452.8c1.4,1.2,2.8,2.5,4.1,3.7c0.8,0.7,1.9,0.8,2.7,0c0.7-0.7,0.8-2,0-2.7c-1.4-1.2-2.8-2.4-4.2-3.6
				c-0.8-0.6-1.9-0.7-2.6,0S362.7,452.2,363.5,452.8L363.5,452.8z"/>
		</g>
	</g>
	<g>
		<g>
			<path class="st6" d="M297.1,449.1c0.8,0.1,1.6,0.1,2.5,0.2c1,0.1,2-1,1.9-1.9c0-1.1-0.9-1.8-1.9-1.9c-0.8-0.1-1.6-0.1-2.5-0.2
				c-1-0.1-2,1-1.9,1.9C295.2,448.3,296,449,297.1,449.1L297.1,449.1z"/>
		</g>
	</g>
	<g>
		<g>
			<path class="st6" d="M238.6,434.6c0.6,0,1.1,0.1,1.6,0.1c0.9,0.1,1.8-0.9,1.7-1.7c-0.1-1-0.8-1.6-1.7-1.7c-0.6,0-1.1-0.1-1.6-0.1
				c-0.9-0.1-1.8,0.9-1.7,1.7C236.9,433.9,237.7,434.5,238.6,434.6L238.6,434.6z"/>
		</g>
	</g>
	<g>
		<g>
			<path class="st6" d="M228,414.6c2.2,0.2,4.3,0.4,6.6,0.2c1.6-0.1,2-2.4,0.4-2.8c-2.3-0.6-4.6-0.8-7-1
				C225.6,410.8,225.6,414.4,228,414.6L228,414.6z"/>
		</g>
	</g>
	<g>
		<g>
			<path class="st6" d="M170.7,432.6c1.8,0.8,3.4,1.4,5.3,1.9c1.6,0.4,2.5-1.8,1.1-2.6c-1.5-1-3-1.7-4.6-2.4
				c-0.9-0.4-1.9-0.3-2.4,0.6C169.6,430.9,169.8,432.2,170.7,432.6L170.7,432.6z"/>
		</g>
	</g>
	<g>
		<g>
			<path class="st6" d="M199.7,465.4c1.1,0.4,2.1,0.7,3.3,0.9c0.9,0.2,1.8-0.2,2.2-1.1c0.3-0.8,0.1-1.9-0.8-2.3
				c-1.2-0.6-2.4-1.1-3.6-1.5c-1-0.4-2.3,0.4-2.5,1.4C198,464,198.6,465,199.7,465.4L199.7,465.4z"/>
		</g>
	</g>
	<g>
		<g>
			<path class="st6" d="M181.9,499c1.9-0.4,3.6-0.8,5.4-1.6c1.5-0.6,0.7-3-0.8-3c-1.9,0.1-3.7,0.5-5.6,1
				C178.5,496,179.5,499.5,181.9,499L181.9,499z"/>
		</g>
	</g>
	<g>
		<g>
			<path class="st6" d="M280.7,506c1.9,0.4,3.8,0.9,5.7,1.3c2.7,0.6,3.9-3.6,1.2-4.2c-1.9-0.5-3.8-0.9-5.7-1.4
				C279.1,501,277.9,505.4,280.7,506L280.7,506z"/>
		</g>
	</g>
</g>
<g class="st4">
	<g>
		<g>
			<path class="st5" d="M865.2,426.5c-0.3,0.5-0.7,1-1,1.5c-0.6,0.9-0.2,2.3,0.7,2.8c1,0.5,2.2,0.3,2.8-0.7c0.3-0.5,0.6-1.1,0.9-1.6
				c0.5-0.9,0.2-2.2-0.7-2.7C866.9,425.2,865.8,425.5,865.2,426.5L865.2,426.5z"/>
		</g>
	</g>
	<g>
		<g>
			<path class="st5" d="M819.9,413.6c-0.3,0.4-0.4,0.6-0.2,0.4c-0.4,0.1-0.7,0.3-1.1,0.5c-0.8,0,0.4,0,0.6,0c0.2,0,0.1,0-0.2,0
				c0.1,0,0.1,0,0,0c-0.4,0,0.2,0.2-0.1,0c-0.4-0.2-0.7-0.5-0.7-1c0,0.9,0.8,1.8,1.7,1.7c0.9,0,1.8-0.8,1.7-1.7
				c-0.1-1.3-1.1-2.3-2.4-2.3c-0.6,0-1.2,0.2-1.7,0.6c-0.2,0.2-0.3,0.5-0.4,0.7c-0.1,0.2,0.1-0.2,0.1-0.2c0,0.1-0.2,0.4-0.2,0.5
				c0,0.2-0.1,0.4-0.1,0.5c-0.1,0.7,0.7,1.4,1.3,1.5C819,414.8,819.6,414.3,819.9,413.6L819.9,413.6z"/>
		</g>
	</g>
	<g>
		<g>
			<path class="st5" d="M824.2,446.1c1.1,1.6,2.2,3.1,3.5,4.4c1,1.1,2.5-0.3,1.9-1.5c-0.8-1.6-1.7-3.1-2.7-4.6
				C825.8,442.8,823,444.4,824.2,446.1L824.2,446.1z"/>
		</g>
	</g>
	<g>
		<g>
			<path class="st5" d="M751.2,425c1.6,0.7,3.2,1.4,4.8,2.1c1.5,0.7,2.9-1.6,1.3-2.3c-1.6-0.7-3.2-1.4-4.8-2.1
				c-0.7-0.3-1.4-0.2-1.8,0.5C750.4,423.7,750.6,424.7,751.2,425L751.2,425z"/>
		</g>
	</g>
	<g>
		<g>
			<path class="st5" d="M769.5,460.1c0.8,0.1,1.6,0.2,2.5,0.1c0.7,0,1.3-0.5,1.4-1.2c0.1-0.7-0.3-1.4-1-1.6
				c-0.9-0.2-1.9-0.3-2.8-0.4c-0.8-0.1-1.5,0.8-1.5,1.5C768,459.5,768.7,460.1,769.5,460.1L769.5,460.1z"/>
		</g>
	</g>
	<g>
		<g>
			<path class="st5" d="M681.8,457.1c0.9-0.6,2.2-0.6,3.1,0.1c0.7,0.5,1.5,0.6,2.2,0c0.5-0.5,0.7-1.6,0-2.2c-2-1.5-4.6-1.9-6.8-0.5
				C678.6,455.5,680.1,458.1,681.8,457.1L681.8,457.1z"/>
		</g>
	</g>
	<g>
		<g>
			<path class="st5" d="M665.2,425c1.7-0.4,3.4-0.8,5-1.4c1.3-0.5,1.3-2.8-0.3-2.6c-1.9,0.2-3.7,0.6-5.5,1.1
				C662.4,422.5,663.2,425.5,665.2,425L665.2,425z"/>
		</g>
	</g>
	<g>
		<g>
			<path class="st5" d="M550.1,435.7c0.5,0,1.1,0.1,1.7,0.1c0.8,0.1,1.6-0.8,1.6-1.6c0-0.9-0.7-1.5-1.6-1.6c-0.5,0-1.1-0.1-1.7-0.1
				c-0.8-0.1-1.6,0.8-1.6,1.6C548.6,435,549.2,435.6,550.1,435.7L550.1,435.7z"/>
		</g>
	</g>
	<g>
		<g>
			<path class="st5" d="M562.4,465.3c2.2,0.2,4.4,0.4,6.6,0.5c2.4,0.2,2.4-3.5,0-3.8c-2.2-0.2-4.4-0.4-6.6-0.6
				C560,461.3,560,465.1,562.4,465.3L562.4,465.3z"/>
		</g>
	</g>
	<g>
		<g>
			<path class="st5" d="M487.7,437.2c2.2,0.2,4.4,0.4,6.6,0.6c1.5,0.1,1.5-2.2,0-2.4c-2.2-0.2-4.4-0.4-6.6-0.6
				C486.2,434.7,486.2,437,487.7,437.2L487.7,437.2z"/>
		</g>
	</g>
	<g>
		<g>
			<path class="st5" d="M502.4,477c2.4,0,4.7-0.1,7-0.6c1.7-0.3,1-2.5-0.4-2.7c-2.2-0.3-4.4-0.2-6.7,0
				C500.3,473.8,500.3,477,502.4,477L502.4,477z"/>
		</g>
	</g>
	<g>
		<g>
			<path class="st5" d="M551.9,525.9c1.5-0.9,3-1.8,4.5-2.8c1.8-1.3,0.2-4.1-1.8-3c-1.5,0.8-3,1.8-4.5,2.8
				C548.2,524.1,549.9,527.1,551.9,525.9L551.9,525.9z"/>
		</g>
	</g>
	<g>
		<g>
			<path class="st5" d="M639.6,442c1.1-0.3,2.4,0.1,3.2,0.8c1.6,1.5,3.8-0.8,2.4-2.4c-1.6-1.9-4.2-2.5-6.5-1.7
				C636.7,439.4,637.5,442.5,639.6,442L639.6,442z"/>
		</g>
	</g>
	<g>
		<g>
			<path class="st5" d="M645,491.4c1.3,1.5,2.5,3,3.8,4.4c0.7,0.8,2,0.7,2.7,0c0.8-0.8,0.7-1.9,0-2.7c-1.2-1.5-2.5-3-3.7-4.5
				c-0.7-0.8-2.1-0.7-2.8,0C644.2,489.4,644.3,490.6,645,491.4L645,491.4z"/>
		</g>
	</g>
	<g>
		<g>
			<path class="st5" d="M774,496.5c1.3,1.9,2.5,3.8,4,5.6c1.1,1.4,3.3-0.4,2.4-1.9c-1.1-1.9-2.4-3.6-3.6-5.3
				C775.6,493.2,772.8,494.7,774,496.5L774,496.5z"/>
		</g>
	</g>
	<g>
		<g>
			<path class="st5" d="M863.4,476.9c0.7,0.4,1.4,0.7,2.1,1c0.8,0.4,1.5,0.5,2.4,0.8c1.2,0.3,2.4-1.4,1.3-2.3
				c-0.6-0.5-1.2-1.1-1.9-1.5s-1.4-0.7-2.1-1.1C863.2,472.8,861.4,475.9,863.4,476.9L863.4,476.9z"/>
		</g>
	</g>
	<g>
		<g>
			<path class="st5" d="M912.2,418.3c0.2,1.5,0.7,2.8,1.2,4.2c0.7,1.6,3.3,0.5,2.8-1.2c-0.5-1.3-1-2.5-1.8-3.6
				c-0.3-0.4-0.8-0.7-1.3-0.5C912.6,417.3,912.1,417.8,912.2,418.3L912.2,418.3z"/>
		</g>
	</g>
	<g>
		<g>
			<path class="st5" d="M914.9,399.5c0,0.6,0.2,1,0.5,1.5c0.4,0.7,1.6,1,2.2,0.3c0.3-0.4,0.7-0.8,0.8-1.3c0.2-1-0.3-2.1-1.5-2.2
				C915.9,397.6,914.9,398.5,914.9,399.5L914.9,399.5z"/>
		</g>
	</g>
	<g>
		<g>
			<path class="st5" d="M859.4,395.9c0.2,0.3,0.5,0.6,0.8,0.9s0.6,0.5,0.9,0.8c0.7,0.5,1.5,0.7,2.3,0.1c0.7-0.5,0.9-1.5,0.5-2.2
				c-0.5-0.8-1-1.5-1.6-2.3c-0.7-0.8-2-0.7-2.7,0C858.7,394,858.7,395,859.4,395.9L859.4,395.9z"/>
		</g>
	</g>
	<g>
		<g>
			<path class="st6" d="M891.7,449.3c-0.2,1.3-0.5,2.7,0,4c0.3,1,1.7,1.3,2.2,0.3c0.6-1.2,0.7-2.6,0.7-3.9c0-0.7-0.6-1.4-1.3-1.5
				C892.7,448.2,891.8,448.6,891.7,449.3L891.7,449.3z"/>
		</g>
	</g>
	<g>
		<g>
			<path class="st6" d="M893.4,448.2c0,1.4,0.1,2.8,0.2,4.2c0.1,0.9,0.8,1.8,1.8,1.8c0.8,0,1.9-0.8,1.8-1.8
				c-0.2-1.5-0.4-3.1-0.8-4.6C896,446.1,893.4,446.5,893.4,448.2L893.4,448.2z"/>
		</g>
	</g>
	<g>
		<g>
			<path class="st6" d="M884.8,414.7c0.4,1.7,0.8,3.4,1.3,5.1c0.5,1.9,3.4,1.1,3-0.8c-0.4-1.7-0.8-3.4-1.2-5.1
				C887.4,411.8,884.3,412.7,884.8,414.7L884.8,414.7z"/>
		</g>
	</g>
	<g>
		<g>
			<path class="st6" d="M836.8,422.2c2.5,0,5,0,7.5-0.2c2-0.2,2.1-3.1,0-3.2c-2.5-0.1-5,0.1-7.5,0.2
				C834.7,419,834.7,422.2,836.8,422.2L836.8,422.2z"/>
		</g>
	</g>
	<g>
		<g>
			<path class="st6" d="M797.2,438.4c2.4,0,4.7,0.2,7-0.4c1.3-0.3,1.4-2.5,0-2.7c-2.4-0.4-4.7-0.2-7,0
				C795.2,435.4,795.2,438.3,797.2,438.4L797.2,438.4z"/>
		</g>
	</g>
	<g>
		<g>
			<path class="st6" d="M765.9,407.6c2-0.1,3.9-0.2,5.8-0.3c2.2-0.1,2.2-3.5,0-3.4c-2,0.1-3.9,0.2-5.8,0.3
				C763.8,404.3,763.7,407.7,765.9,407.6L765.9,407.6z"/>
		</g>
	</g>
	<g>
		<g>
			<path class="st6" d="M705,448.7c2-0.1,3.9-0.2,5.8-0.2c2.2-0.1,2.2-3.6,0-3.5c-2,0.1-3.9,0.2-5.8,0.4
				C702.8,445.5,702.8,448.8,705,448.7L705,448.7z"/>
		</g>
	</g>
	<g>
		<g>
			<path class="st6" d="M691,489.9c1.7-0.7,3.5-1.3,5.2-2c1-0.4,1.6-1.3,1.3-2.3c-0.2-0.9-1.4-1.7-2.3-1.3c-1.7,0.7-3.4,1.4-5.2,2.1
				c-0.9,0.4-1.6,1.2-1.3,2.2C689,489.5,690.1,490.2,691,489.9L691,489.9z"/>
		</g>
	</g>
	<g>
		<g>
			<path class="st6" d="M721.5,480.6c1.4,1.2,2.8,2.5,4.1,3.7c0.8,0.7,1.9,0.8,2.7,0c0.7-0.7,0.8-2,0-2.7c-1.4-1.2-2.8-2.4-4.2-3.6
				c-0.8-0.6-1.8-0.7-2.6,0C720.9,478.7,720.8,480,721.5,480.6L721.5,480.6z"/>
		</g>
	</g>
	<g>
		<g>
			<path class="st6" d="M655.2,476.9c0.8,0.1,1.7,0.1,2.5,0.2c1,0.1,2-1,1.9-1.9c0-1.1-0.8-1.8-1.9-1.9c-0.8-0.1-1.7-0.1-2.5-0.2
				c-1-0.1-2,1-1.9,1.9C653.3,476.1,654.1,476.8,655.2,476.9L655.2,476.9z"/>
		</g>
	</g>
	<g>
		<g>
			<path class="st6" d="M596.7,462.4c0.5,0,1.1,0.1,1.7,0.1c0.9,0.1,1.8-0.9,1.7-1.7c0-1-0.8-1.6-1.7-1.7c-0.5,0-1.1-0.1-1.7-0.1
				c-0.9-0.1-1.8,0.9-1.7,1.7C595,461.7,595.7,462.3,596.7,462.4L596.7,462.4z"/>
		</g>
	</g>
	<g>
		<g>
			<path class="st6" d="M586,442.4c2.2,0.2,4.3,0.4,6.6,0.2c1.5-0.1,2-2.4,0.4-2.8c-2.3-0.6-4.6-0.8-7-1
				C583.7,438.6,583.7,442.2,586,442.4L586,442.4z"/>
		</g>
	</g>
	<g>
		<g>
			<path class="st6" d="M528.7,460.4c1.8,0.8,3.5,1.4,5.3,1.9c1.6,0.4,2.5-1.8,1.1-2.6c-1.5-1-3-1.7-4.6-2.4
				c-0.9-0.4-1.9-0.3-2.5,0.6C527.7,458.7,527.8,460,528.7,460.4L528.7,460.4z"/>
		</g>
	</g>
	<g>
		<g>
			<path class="st6" d="M557.8,493.2c1.1,0.4,2.1,0.7,3.3,0.9c0.9,0.2,1.8-0.2,2.2-1.1c0.3-0.8,0.1-1.9-0.8-2.3
				c-1.2-0.6-2.3-1.1-3.6-1.5c-1-0.4-2.3,0.4-2.5,1.4C556.1,491.9,556.7,492.9,557.8,493.2L557.8,493.2z"/>
		</g>
	</g>
	<g>
		<g>
			<path class="st6" d="M539.9,526.8c1.8-0.4,3.7-0.8,5.4-1.6c1.5-0.7,0.7-3-0.8-3c-1.9,0.1-3.7,0.5-5.6,1
				C536.6,523.8,537.6,527.3,539.9,526.8L539.9,526.8z"/>
		</g>
	</g>
	<g>
		<g>
			<path class="st6" d="M638.8,533.8c1.9,0.4,3.8,0.9,5.7,1.3c2.7,0.6,3.9-3.6,1.2-4.2c-1.9-0.5-3.8-0.9-5.7-1.4
				C637.2,528.8,636,533.2,638.8,533.8L638.8,533.8z"/>
		</g>
	</g>
</g>
<g>
	<path id="XMLID_4_" class="st7" d="M419.7,344.8l6.4-1.1c-0.8-5.1-1.8-10.8-2.9-16.5l-6.6-1.5l5.9-2c-0.8-3.8-1.7-8-2.7-11.3
		l-3.5-0.1l2.8-2.5c-1.9-6.7-4.2-12.7-6.7-17.2l-2.3,1.1l1-3.2c-2.3-3.3-4.8-5.5-7.5-5.8c-2.6-0.3-5.4,6-8.1,15.2l5.3,3.8l-6-1.2
		c-1.5,5.5-3,11.9-4.4,18.4l5.2,3l-5.9-0.2c-1.1,5.3-2,10.6-3.1,15.5l-1,25l15.5,2.7c2.2,0.4,4.4,0.4,6.7,0.1l21.1-2.7
		c0,0-0.7-7.4-2.2-17.6L419.7,344.8z"/>
	<path id="XMLID_3_" class="st8" d="M409,352c0.6-5.2,0.9-10.3,1.1-15.1l14.2-4.2c-0.1-0.6-0.2-1.2-0.3-1.8l-13.8,4.1
		c0.1-3.9,0-7.6-0.1-11.1l10.9-7.1c-0.1-0.6-0.3-1.2-0.5-1.8l-10.5,6.9c-0.2-3.9-0.5-7.5-0.8-10.9l7.4-8.9c-0.2-0.6-0.5-1.3-0.7-1.9
		l-7,8.4c-0.8-6.4-1.7-11.7-2.7-15.9c1.2-2.3,2-3.8,2.6-4.9c-0.5-0.5-0.9-0.9-1.4-1.2c-0.5,0.9-1.1,2.2-1.8,3.5
		c-0.5-2.1-1-3.9-1.3-5.1c-0.2-0.1-0.5-0.1-0.8-0.1c-0.4,0-0.7,0-1.1,0.2c0.4,1.3,0.9,3.2,1.5,5.7l-4.2-2.4c-0.3,0.5-0.5,1-0.8,1.6
		l5.5,3.2c0.9,4.3,1.9,9.8,2.7,16.4l-13.4-3.8c-0.1,0.6-0.3,1.1-0.4,1.7l14,4c0.4,3.3,0.6,6.9,0.8,10.7l-16.6-7.3
		c-0.1,0.6-0.3,1.2-0.4,1.8l17.1,7.5c0.1,3.5,0.2,7.2,0.1,11l-19.6-6.8c-0.1,0.6-0.2,1.2-0.4,1.8l19.9,6.9
		c-0.1,4.7-0.6,9.7-1.2,14.9l-20.8-8.5l-0.1,1.9l20.7,8.5c-0.5,3.6-0.9,7.4-1.6,11.2l1.8,0.3c0.7-3.8,1.3-7.6,1.7-11.3l18.6-1.6
		c-0.1-0.6-0.2-1.2-0.2-1.8L409,352z"/>
</g>
<g>
	<path class="st9" d="M327,375.9c-2.5,0.7-4.9,1.3-7.3,2c-14.4,3.8-28.5,6-43.4,5.5c-5.5-0.2-11-0.7-16.4-1.3
		c-0.4-0.4-0.7-0.7-1.1-1.1c-0.2,0.3-0.4,0.6-0.6,0.9c-9.2-1.1-18.3-2.6-27.4-4.2c-8.4-1.5-16.9-3-24.8-6.2c-3-1.2-5.8-2.6-8.6-4.2
		c1.6-7.4,11.2-11.8,21.9-10c4.7,0.8,8.8,2.7,11.9,5.2c3.7-3.7,9.4-5.5,15.3-4.5c4.5,0.8,8.2,3,10.8,6.1c4.3-5.2,13-7.9,22.4-6.3
		c8.7,1.5,15.7,6.3,18.5,12c2.4-1.5,5.3-2.7,8.6-3.4c10-2.3,19.2,0.4,20.5,6.1C327.5,373.6,327.4,374.7,327,375.9z"/>
	<path class="st9" d="M543.7,355c0.7,2.1,0.2,4.3-1,6.3c-6.1,1.3-12.2,1.9-18.3,3.2c-6.1,1.3-12,3.4-17.9,5.3
		c-15.9,5-32.5,7.7-49.1,8.1c-2.7,0.1-5.4,0.1-8-0.7c-1.9-0.5-4.7-1.8-5.5-3.6c-0.6-1.4-0.1-3.8,0.3-5.2c1-4.1,4.3-7.5,7.9-9.4
		c5.5-2.9,11.5-2.7,15.2,0.2c1.2-7,8.9-12.4,18.3-12.5c7.3-0.1,13.7,3,16.8,7.6c1.6-1.4,3.6-2.5,5.9-3.2c6-1.9,12-0.3,14.8,3.4
		c1.5-2,3.9-3.6,6.8-4.5C536.1,348,542.2,350.3,543.7,355z"/>
	<path class="st9" d="M928,362.8c0.7,2.1,0.2,4.3-1,6.3c-6.2,1.4-12.7,2.2-19.2,2.9c-0.3,0-0.1-2.1-0.3-2.3c-0.6-0.7-2.4-0.1-3.4,0
		c-3,0.4-6.1,0.9-9.1,1.5c-6.1,1.1-12.1,2.5-18,4.2c-2.2,0.6-4.4,1.3-6.5,2.1c-2,0.9-4,1.9-6,2.9c-10,4.5-21.4,4.7-32.3,4.8
		c-3.9,0-4.5-6.1-3.7-9c1-4.1,4.3-7.5,7.9-9.4c5.5-2.9,11.5-2.7,15.2,0.2c1.2-7,8.9-12.4,18.3-12.5c7.3-0.1,13.7,3,16.8,7.6
		c1.6-1.4,3.6-2.5,5.9-3.2c6-1.9,12-0.3,14.8,3.4c1.5-2,3.9-3.6,6.8-4.5C920.4,355.8,926.6,358.1,928,362.8z"/>
	<g>
		<g>
			<path class="st6" d="M189.9,363.6c10.8,8.7,23.5,12.3,36.9,14.8c14.5,2.6,29.1,5.1,43.8,6.1c14.3,1,28.4-0.3,42.4-3.5
				c14.5-3.2,28.6-8,43.1-11.2c14.2-3.2,28.6-4.8,43.1-3c14.6,1.8,28.8,6.2,43.2,9.4c12.9,2.8,26.1,4.5,39.3,2.6
				c14.1-2,27.4-7.4,41.2-10.9c19.8-5,39.3-2.5,59.1,1.2c21.1,4,42,9.3,63,13.9c18.2,4,37,7.9,55.7,8.1c7.6,0.1,14.7-0.9,22.1-2.9
				c15.2-4.1,31-2.7,46.4-0.9c17.3,2,34.5,3.8,52,2.5c16-1.2,31-5.1,46.3-10c16.8-5.3,33.5-7.2,50.9-8.2c17.7-1,35.5-1.1,53.1,1.4
				c1.9,0.3,2.7-2.6,0.8-2.9c-14.7-2.1-29.5-2.5-44.3-1.9c-14.5,0.5-29.3,1.1-43.6,3.9c-13.8,2.7-26.9,8.5-40.7,11.5
				c-15.6,3.4-31.8,4.2-47.8,3.3c-14.6-0.8-29.1-3.5-43.7-4.2c-7-0.4-14-0.3-21,0.7c-5.4,0.8-10.5,2.6-15.9,3.6
				c-17.2,3.2-35.8-0.3-52.7-3.5c-20.8-3.9-41.3-9.1-62-13.7c-17.9-3.9-36.3-8-54.7-8.1c-26.6-0.1-50.4,15.1-77,14.8
				c-28-0.3-54.2-13.6-82.3-13.6c-33-0.1-63.1,15.8-95.7,18.4c-16.9,1.4-33.8-1-50.4-3.7c-17-2.8-34.8-5.1-48.6-16.3
				C190.5,360.3,188.4,362.4,189.9,363.6L189.9,363.6z"/>
		</g>
	</g>
</g>
<path class="st6" d="M268,166.1c-7.8-0.1-31.9-1.3-22.6-21.4c6-13,22-1.8,51.5-12.6s40.7-28.2,80.3-13.7s31.9,1.2,54.3,1.4
	c30.3,0.3,37.6,47.1-10.2,48.1C373.3,169.1,310.2,166.4,268,166.1z"/>
<g>
	<g>
		<g>
			<path class="st6" d="M214.7,350.9h346h14h184c0,0,9.7-0.6,9.7-9.2s-10.1-9.2-10.1-9.2H570.2h-9.5H215.1c0,0-10.1,0.6-10.1,9.2
				S214.7,350.9,214.7,350.9z"/>
		</g>
		<g>
			<path class="st6" d="M214.7,323.4h346h14h184c0,0,9.7-0.6,9.7-9.2s-10.1-9.2-10.1-9.2H570.2h-9.5H215.1c0,0-10.1,0.6-10.1,9.2
				S214.7,323.4,214.7,323.4z"/>
		</g>
		<g>
			<path class="st6" d="M214.7,378.4h346h14h184c0,0,9.7-0.6,9.7-9.2s-10.1-9.2-10.1-9.2H570.2h-9.5H215.1c0,0-10.1,0.6-10.1,9.2
				S214.7,378.4,214.7,378.4z"/>
		</g>
		<g>
			<path class="st6" d="M214.7,404.4h346h14h184c0,0,9.7-1.4,9.7-9.9s-10.1-9.9-10.1-9.9H570.2h-9.5H215.1c0,0-10.1,1.4-10.1,9.9
				S214.7,404.4,214.7,404.4z"/>
		</g>
		<g>
			<path class="st6" d="M214.7,428.9h346h14h184c0,0,9.7,0.1,9.7-8.4s-10.1-8.4-10.1-8.4H570.2h-9.5H215.1c0,0-10.1-0.1-10.1,8.4
				S214.7,428.9,214.7,428.9z"/>
		</g>
		<g>
			<path class="st6" d="M166.1,513H215v93.5c0,0,0.6,9.7,9.2,9.7s9.2-10.1,9.2-10.1V513h39.8v57.2c0,0-0.1,9.7,8.4,9.7
				s8.4-10.1,8.4-10.1V513h396.3v57.2c0,0,1.4,9.7,9.9,9.7s9.9-10.1,9.9-10.1V513H746v93.5c0,0-0.9,9.7,7.7,9.7s7.7-10.1,7.7-10.1
				V513H801v-16.8H166.1V513z"/>
		</g>
		<g>
			<polygon class="st6" points="669.3,485.5 804.2,485.5 789.4,468.7 669.3,468.7 300.3,468.7 179.9,468.7 165.2,485.5 300.3,485.5 
							"/>
		</g>
		<g>
			<polygon class="st6" points="669.3,458 786,458 771.7,441.1 669.3,441.1 300.3,441.1 197.7,441.1 183.3,458 300.3,458 			"/>
		</g>
	</g>
</g>
<path class="st10" d="M549.4,160.1c0,0,13.9-18.2,39.8-4.1c17.9,9.8,20.7,21.3,22.8,39.7s-10.8,35.8-7.6,41.5s6.9,8,6.9,8
	s-5.4,2.7-11.4,0.7c0.2,2.5,0.6,3.2,6,5c-3.4,1.7-14.9,9.3-24.3-0.6s-23.2-3.9-23.2-3.9s-7.6,9.2-17.3,8.5c2.8-3.1,0.7-5.7,1.5-4.6
	c0.8,1.1-14.4,1.9-16.8-2.4c1.1-0.6,6.4,1.2,6.4-11.7s-12.7-15.8-7.7-52C526.4,169.8,537.4,159.4,549.4,160.1z"/>
<g>
	<g>
		<path class="st11" d="M432.5,470.6c-0.5,0.6-5.6,121.5-5,123.9s11,6.1,12.5,0.4c0.6-2.3,25.4-79.8,23.8-119.4
			C463.5,468.5,449.7,447.1,432.5,470.6z"/>
		<path class="st11" d="M439.9,595.8c0,0-3,20.3,0.2,27.7s6.1,17.8,3.5,22.1c-2.6,4.2-12.8,3.9-18.4-1.7c-5.6-5.6-8.2-9.1-7.4-13.2
			c0.8-4.1,3.3-13.1,4.4-16.2c4.2-11.7,4.7-19,5.1-20.4C429.2,586.8,439.2,587.8,439.9,595.8z"/>
		<path class="st12" d="M460,658.7c-0.2-0.9-0.4-1.7-0.5-2.6c-0.2-2-0.9-3.7-2-5.3c-0.6-0.8-1.1-1.8-1.5-2.7c-0.5-1-0.8-2.1-1.2-3.2
			c-1-2.8-1.9-5.6-2.4-8.5c-0.1-0.9-0.4-1.8-0.7-2.6c-0.5-1.4-1-2.7-1.6-4.1c-0.7-1.8-1.5-3.7-2.2-5.5c-0.7-1.7-1.5-3.5-1.8-5.3
			c-0.3-2.4-1.1-4.7-1.7-7.1c-0.2-0.8-0.6-1.5-0.9-2.3c-0.4-0.8-1-1.1-1.9-1c-2.1,0.3-4.1,1-6,2.2c-1,0.6-1.9,1.4-3,1.9
			c-1.8,0.8-3.7,1.5-5.8,1.2c-1.4-0.2-2.5-0.8-3.3-2c-0.2-0.4-0.4-0.7-0.7-1.1c-0.5-0.7-1-0.8-1.7-0.3c-0.4,0.3-0.9,0.6-1.2,1
			c-2.3,2.2-4.5,4.4-6.8,6.6c-1.1,1.1-2,2.4-2.7,3.8c-0.4,0.9-0.9,1.7-1.3,2.6c-0.2,0.4-0.5,0.8-0.7,1.2c0.3,1,0.8,1.7,1.4,2.3
			c1.7,1.9,3.4,3.8,5.1,5.7c0.1,0.1,0.2,0.3,0.3,0.4c2.5,3.5,5.1,6.8,7.9,10.1c0.5,0.6,1.1,1.2,1.6,1.8c1.6,1.6,3.2,3.2,4.8,4.7
			c2.2,2,4.3,4.1,6.6,6c1.6,1.4,3.4,2.5,5.4,3.1c0.2,0.1,0.4,0.2,0.6,0.4c1.2,0.3,2.4,0.6,3.5,1c0.2,0,0.4-0.1,0.6,0
			c1.1,0.3,2.2,0.3,3.3,0.3c2.8,0,5.6-0.2,8.4-0.9c0.3-0.1,0.7-0.2,1-0.3C459.8,659.8,460.1,659.3,460,658.7z"/>
		<path class="st13" d="M447.7,666.4c-0.5-0.2-1-0.4-1.5-0.7c-1.1-0.5-2.1-1-3.2-1.5c-1.3-0.6-2.6-1.2-3.9-1.8
			c-0.8-0.4-1.5-0.8-2.2-1.3c-1.5-1.2-3.2-2-4.9-2.8c-2.2-1-4.1-2.5-5.6-4.4c-0.8-1-1.4-2.2-1.7-3.5c-0.3-1.4-0.5-2.8-0.4-4.2
			c0-1.3,0.7-2.1,1.6-2.8c1.4-1,3-1.5,4.6-1.3c1.2,0.1,2.5,0.3,3.4,1.3c0.1,0.1,0.2,0.2,0.3,0.3c1,1.9,2.6,3.4,2.8,5.7
			c0.1,0.8,0.5,1.4,1,2c0.7,0.9,1.3,1.8,2,2.7c0.9,1.1,2.1,1.8,3.4,2.2c1.6,0.5,3.2,1,4.9,1c0.8,0,1.6,0,2.5-0.1
			c2.1-0.3,4.2-0.3,6.2,0c0.8,0.1,1.5,0.1,2.3,0.2c2.3,0.2,3,1.7,2.9,3.3c-0.2,2.1-1.1,3.9-2.9,5.2c-1.5,1.1-3.2,1.5-5.1,1.5
			c-1.3,0-2.6,0-3.9-0.3c-0.1,0-0.2,0-0.3,0.1C449.3,666.8,448.5,666.6,447.7,666.4z"/>
		<path class="st13" d="M406.7,623.9c0.4-1.1,1.1-2.1,2.2-2.8c1-0.5,1.8-0.5,2.8,0.3c1.2,1,2.2,2.2,2.5,3.9c0.1,0.7,0.5,1.3,1.1,1.7
			c1,0.6,2,1.3,3.1,2c1.2,0.8,2.1,1.7,2.9,2.9c0.3,0.5,0.5,1,0.6,1.6c0.2,0.7,0.2,1.4,0.4,2.2c0.2,0.9,0.4,1.8,0.7,2.6
			c0.3,1,0.7,1.9,1.1,2.9c0.1,0.3,0.2,0.6,0.2,1c0.1,0.5-0.2,1-0.7,1.1c-0.3,0.1-0.7,0.2-1,0.1c-1-0.1-1.9-0.1-2.8-0.5
			c-1-0.5-2.2-0.7-3.3-0.9c-2.2-0.5-4-1.7-5.3-3.6c-0.7-1-1.5-1.9-2.3-2.8c-1.1-1.2-1.6-2.7-1.6-4.2c0-1.2-0.3-2.3-0.6-3.4
			C406.4,626.6,406.4,625.3,406.7,623.9z"/>
		<path class="st13" d="M452.5,610.7c1.3,0.6,2.6,1.1,3.8,1.7c1.2,0.6,2.1,1.5,2.9,2.6c0.9,1.3,0.3,2.8-1.2,3.2
			c-0.5,0.1-1,0.1-1.4,0.1c-1.4,0-2.8-0.2-4.1-0.7c-1.2-0.5-2.4-1.1-3.6-1.8c-1-0.6-1.9-1.2-2.8-1.9c-0.7-0.5-1.5-1.1-2.2-1.6
			c-0.9-0.7-1.7-1.5-1.9-2.9c0.2-0.2,0.4-0.5,0.7-0.7c2.6-1.6,5.5-2.6,8.5-3.1c1.8-0.3,3.6-0.4,5.4-0.2c1.1,0.2,2.2,0.4,3.1,1.2
			c1,0.9,0.9,2.3-0.3,3c-0.8,0.5-1.7,0.6-2.6,0.7C455.5,610.6,454,610.6,452.5,610.7z M458.1,616.2c-0.6-1.3-1.6-2.2-2.8-2.7
			c-1.3-0.6-2.6-1.2-4.1-1.5c-0.8-0.2-1.6-0.3-2.4-0.5c-1-0.2-2-0.4-2.9-0.6c-0.4-0.1-0.8-0.1-1.4-0.1c0.7,0.5,1.3,0.8,1.8,1.3
			c1.9,1.6,3.9,2.9,6.2,3.9c1.4,0.6,2.9,0.8,4.4,0.8C457.4,616.8,457.8,616.7,458.1,616.2z M459,608.1c-0.2-0.6-0.7-0.8-1.2-1
			c-1.1-0.4-2.3-0.4-3.4-0.4c-2.8,0-5.5,0.7-8,1.7c-0.2,0.1-0.4,0.2-0.7,0.4c3.7,0.4,7.3,0.4,10.9,0
			C457.4,608.9,458.3,608.8,459,608.1z"/>
		<path class="st13" d="M446.3,616c-0.6-0.1-1-0.2-1.4-0.3c-1.7-0.1-3.3,0.2-4.9,0.8c-1.5,0.6-2.9,1.2-4.4,1.9
			c-0.1,0-0.2,0.1-0.3,0.1c-0.5-0.2-0.7-0.5-0.6-1c0.5-0.5,1.1-0.8,1.8-1.1c2.3-1.1,4.8-1.8,7.4-2c0.9-0.1,1.8,0,2.7,0.6
			C446.4,615.3,446.4,615.6,446.3,616z"/>
		<path class="st13" d="M449.6,624.8c0.2,0.8-0.1,1.2-0.8,1c-1.2-0.2-2.4,0-3.5,0.2c-1.9,0.4-3.6,1-5.3,1.9c-0.5,0.2-0.8,0.3-1.2,0
			c-0.1-0.8,0-1.2,0.7-1.5c2.1-0.8,4.2-1.7,6.5-2C448.1,624.3,448.3,624.3,449.6,624.8z"/>
		<path class="st13" d="M440.6,631.5c0.3-0.7,0.9-1,1.5-1.2c2.8-1.1,5.8-1.5,8.8-1.5c0.3,0.2,0.5,0.5,0.4,0.9s-0.5,0.4-0.8,0.5
			c-1.3,0.1-2.6,0.2-3.9,0.4c-1.7,0.3-3.3,0.7-4.8,1.5C441.1,632.5,440.9,632.3,440.6,631.5z"/>
		<path class="st13" d="M438.2,623.4c-0.5-0.8-0.6-1.2-0.1-1.7c0.2-0.3,0.6-0.5,0.9-0.6c2.4-1.1,5-1.7,7.6-1.8c0.4,0,0.7,0,1,0.4
			c-0.1,0.2-0.1,0.5-0.2,0.8c-1.1,0.1-2.1,0.2-3.2,0.4c-1.6,0.3-3.1,0.7-4.5,1.5c-0.3,0.2-0.5,0.4-0.8,0.6
			C438.7,623.2,438.5,623.3,438.2,623.4z"/>
		<path class="st13" d="M452.3,634.8c-1.7-0.2-3.3-0.1-4.8,0.3c-1.5,0.3-3,0.8-4.5,1.2c-0.7-0.6-0.6-1.2,0.2-1.6
			c0.5-0.2,1.1-0.4,1.6-0.5c2-0.5,4-0.9,6.1-0.8c0.5,0,1,0.1,1.5,0.5C452.5,634.1,452.4,634.4,452.3,634.8z"/>
		<path class="st13" d="M444.7,640.5c-0.2-0.8,0-1.1,0.6-1.3c2-0.6,4.1-0.9,6.2-0.9c0.6,0,1.1,0,1.7,0c0.5,0,0.9,0.2,1,0.7
			c-0.2,0.6-0.6,0.7-1.1,0.7c-1.8,0-3.5,0-5.2,0.4c-0.6,0.2-1.3,0.3-1.9,0.5C445.4,640.8,445.4,640.8,444.7,640.5z"/>
		<path class="st14" d="M417.1,617.7c1.7,0.8,3.1,1.8,3.9,3.5c0.9,1.9,1.7,3.9,2.6,5.8c0.4,1,0.8,2,1.4,3c0.8,1.4,2.2,2.2,3.5,3.1
			c1.1,0.7,2.3,1.3,3.4,2.1c1.1,0.7,1.9,1.6,2.5,2.8c0.9,2.2,2.5,3.8,4.6,4.8c1.2,0.6,2.3,1.5,3.4,2.2c0.4,0.1,0.8,0.2,1.2,0.3
			c1.1-0.3,1.6-1,1.7-2.1c0.1-2.1-0.2-4.1-1.3-6c-0.9-1.4-1.8-2.8-2.7-4.2c-1-1.4-1.6-2.8-1.8-4.5c-0.3-2.3-1.1-4.5-2.4-6.4
			c-1.1-1.6-2-3.3-2-5.3c0-1.3-0.2-2.7-0.2-4c0-0.5,0-1.1,0-1.6c-0.5,0.3-1,0.7-1.5,1c0,0.2,0,0.3,0,0.5c0.1,1.6,0.2,3.1,0.3,4.7
			c0.1,1.8,0.7,3.5,1.8,4.9c1.5,2,2.4,4.1,2.6,6.6c0.1,1,0.4,2,0.9,3c0.6,1.3,1.5,2.4,2.3,3.6c0.6,0.9,1.2,1.7,1.6,2.6
			c0.8,1.6,1.1,3.4,1,5.2c0,0.1-0.1,0.3-0.1,0.4c-0.5,0-0.9-0.2-1.3-0.4c-1.3-0.8-2.6-1.6-4-2.4c-0.8-0.5-1.5-1.1-2-2
			c-0.4-0.7-0.9-1.4-1.2-2.1c-0.5-1.1-1.3-1.9-2.2-2.6c-0.8-0.5-1.6-1-2.4-1.5c-1.2-0.8-2.4-1.5-3.5-2.3c-0.5-0.4-1-0.9-1.3-1.5
			c-0.5-0.9-0.8-1.8-1.2-2.7c-0.9-2.1-1.6-4.2-2.9-6.2c-1.2-1.9-2.9-3.2-5.1-3.7c-0.5-0.1-1-0.2-1.5-0.3c-0.4,0.4-0.8,0.8-1.2,1.2
			c0.7,0.1,1.5,0.2,2.2,0.4C416.5,617.6,416.8,617.6,417.1,617.7z"/>
	</g>
	<g>
		<path class="st11" d="M356.9,491.5c-0.3,0.8-0.9,127.2,0.2,129.6s12.8,3.9,13-2.3c0.1-2.6,8.7-88.5-1.7-129.2
			C366.5,482.2,369.5,463.3,356.9,491.5z"/>
		<path class="st11" d="M370.2,619.7c0,0,1.4,21.7,6.3,28.7s10.3,17.2,8.5,22.1c-1.7,5-12.5,6.9-19.5,2.3
			c-7.1-4.6-10.5-7.6-10.6-12.1s0.5-14.3,1-17.8c1.8-13,0.7-20.7,0.8-22.3C357.1,612.6,367.8,611.5,370.2,619.7z"/>
		<path class="st12" d="M405,680.5c-0.4-0.9-0.8-1.7-1-2.6c-0.6-2-1.7-3.6-3.2-5.1c-0.8-0.8-1.5-1.6-2.1-2.5c-0.7-1-1.3-2-1.9-3
			c-1.6-2.7-3.2-5.3-4.4-8.3c-0.4-0.9-0.8-1.8-1.3-2.6c-0.8-1.3-1.7-2.6-2.5-3.9c-1.2-1.7-2.4-3.5-3.5-5.2s-2.3-3.3-3-5.2
			c-0.9-2.4-2.1-4.7-3.3-7c-0.4-0.8-1-1.5-1.5-2.1c-0.5-0.7-1.3-0.9-2.2-0.6c-2.1,0.8-4.1,2-5.7,3.5c-0.9,0.9-1.7,1.9-2.7,2.6
			c-1.7,1.3-3.5,2.4-5.8,2.5c-1.5,0.1-2.8-0.2-3.8-1.4c-0.3-0.3-0.6-0.7-0.9-1c-0.7-0.6-1.2-0.6-1.9,0c-0.4,0.4-0.8,0.8-1.1,1.2
			c-1.9,2.8-3.7,5.6-5.5,8.4c-0.9,1.4-1.5,2.9-1.9,4.5c-0.3,1-0.5,2-0.8,3c-0.1,0.5-0.3,1-0.5,1.4c0.5,0.9,1.2,1.5,2,2.1
			c2.2,1.5,4.4,3.2,6.6,4.8c0.2,0.1,0.3,0.2,0.4,0.4c3.3,3.1,6.9,6,10.5,8.7c0.7,0.5,1.4,1.1,2.1,1.5c2,1.3,4,2.6,6.1,3.8
			c2.7,1.6,5.4,3.3,8.2,4.8c2,1.1,4,1.8,6.3,2c0.2,0,0.5,0.2,0.7,0.2c1.3,0.1,2.6,0.2,3.9,0.2c0.2,0,0.4-0.2,0.6-0.1
			c1.2,0.1,2.4-0.2,3.5-0.4c3-0.6,5.8-1.5,8.5-2.8c0.3-0.2,0.6-0.3,0.9-0.5C405.1,681.6,405.2,681.1,405,680.5z"/>
		<path class="st13" d="M393.9,691.2c-0.6-0.1-1.1-0.2-1.7-0.4c-1.2-0.3-2.4-0.6-3.6-0.9c-1.5-0.3-3-0.6-4.4-1
			c-0.9-0.2-1.7-0.5-2.5-0.9c-1.8-0.9-3.7-1.4-5.7-1.8c-2.5-0.6-4.8-1.7-6.8-3.3c-1.1-0.9-2-2-2.5-3.3c-0.6-1.4-1.1-2.8-1.4-4.3
			c-0.2-1.3,0.3-2.3,1.1-3.2c1.2-1.3,2.8-2.2,4.5-2.4c1.3-0.2,2.7-0.2,3.8,0.6c0.1,0.1,0.2,0.1,0.3,0.2c1.4,1.7,3.4,3,4.2,5.2
			c0.2,0.8,0.8,1.4,1.4,1.9c0.9,0.7,1.8,1.6,2.7,2.3c1.1,1,2.5,1.4,4,1.6c1.8,0.2,3.5,0.3,5.3,0c0.9-0.2,1.7-0.3,2.5-0.6
			c2.1-0.8,4.3-1.2,6.5-1.4c0.8-0.1,1.6-0.2,2.4-0.3c2.4-0.3,3.5,1,3.7,2.8c0.2,2.2-0.3,4.3-1.9,6c-1.3,1.5-3,2.3-4.9,2.7
			c-1.4,0.3-2.7,0.6-4.1,0.6c-0.1,0-0.2,0.1-0.2,0.1C395.7,691.3,394.8,691.2,393.9,691.2z"/>
		<path class="st13" d="M342,656.2c0.1-1.2,0.6-2.4,1.7-3.4c0.9-0.8,1.8-0.9,2.9-0.3c1.5,0.8,2.8,1.8,3.4,3.5
			c0.3,0.7,0.8,1.2,1.6,1.5c1.2,0.4,2.4,0.9,3.6,1.4c1.4,0.5,2.6,1.3,3.6,2.3c0.4,0.4,0.8,1,1,1.5c0.3,0.7,0.5,1.4,0.9,2.1
			c0.4,0.9,0.8,1.7,1.3,2.6c0.5,1,1.2,1.8,1.8,2.8c0.2,0.3,0.4,0.6,0.5,1c0.2,0.5,0,1-0.5,1.3c-0.3,0.2-0.6,0.3-1,0.3
			c-1,0.2-2,0.3-3,0.1c-1.2-0.2-2.4-0.2-3.7-0.2c-2.4,0-4.5-0.9-6.3-2.5c-1-0.8-2-1.6-3-2.4c-1.4-1-2.2-2.4-2.6-4.1
			c-0.3-1.2-0.8-2.3-1.4-3.4C342.2,659,341.9,657.7,342,656.2z"/>
		<path class="st13" d="M386.6,632.3c1.5,0.3,2.9,0.6,4.4,0.9c1.4,0.3,2.6,1,3.6,2c1.2,1.2,0.9,2.8-0.6,3.6c-0.5,0.2-1,0.3-1.5,0.4
			c-1.5,0.3-2.9,0.4-4.4,0.2c-1.4-0.3-2.8-0.6-4.1-1.1c-1.1-0.4-2.2-0.9-3.3-1.4c-0.9-0.4-1.8-0.8-2.6-1.2c-1.1-0.5-2.1-1.2-2.6-2.6
			c0.2-0.2,0.3-0.6,0.6-0.8c2.4-2.2,5.1-3.9,8.1-5.1c1.8-0.7,3.6-1.2,5.6-1.4c1.2-0.1,2.4,0,3.5,0.6c1.3,0.8,1.5,2.2,0.4,3.2
			c-0.7,0.7-1.7,1-2.6,1.3C389.6,631.5,388.1,631.9,386.6,632.3z M393.7,636.8c-0.9-1.2-2.1-1.9-3.5-2.2c-1.5-0.3-3-0.7-4.6-0.7
			c-0.9,0-1.7,0-2.6,0c-1.1,0-2.1,0-3.2,0c-0.4,0-0.8,0.1-1.5,0.2c0.9,0.4,1.5,0.6,2.1,0.9c2.3,1.2,4.7,2.2,7.3,2.7
			c1.6,0.3,3.2,0.2,4.8-0.1C393,637.6,393.4,637.4,393.7,636.8z M392.8,628.2c-0.3-0.6-0.9-0.7-1.5-0.8c-1.2-0.2-2.4,0.1-3.6,0.3
			c-2.9,0.6-5.5,1.9-8,3.6c-0.2,0.1-0.3,0.3-0.6,0.6c4-0.5,7.7-1.2,11.3-2.3C391.2,629.3,392.2,629.1,392.8,628.2z"/>
		<path class="st13" d="M381.3,639.2c-0.6,0-1.1,0-1.5,0c-1.8,0.3-3.4,0.9-4.9,1.9c-1.4,0.9-2.8,2-4.2,2.9c-0.1,0.1-0.2,0.1-0.3,0.2
			c-0.6-0.1-0.8-0.4-0.9-0.9c0.4-0.7,1-1.1,1.6-1.6c2.2-1.7,4.6-2.9,7.2-3.7c0.9-0.3,1.9-0.4,3,0
			C381.3,638.4,381.3,638.8,381.3,639.2z"/>
		<path class="st13" d="M386.7,647.6c0.4,0.8,0.2,1.2-0.6,1.3c-1.3,0-2.5,0.5-3.6,1c-1.8,0.8-3.5,1.9-5,3.2
			c-0.4,0.3-0.8,0.5-1.3,0.2c-0.3-0.8-0.2-1.2,0.4-1.7c2-1.3,4-2.7,6.3-3.5C385,647.4,385.3,647.4,386.7,647.6z"/>
		<path class="st13" d="M378.8,656.6c0.2-0.8,0.7-1.2,1.3-1.5c2.7-1.7,5.7-2.8,8.8-3.5c0.4,0.2,0.6,0.4,0.6,0.8
			c0,0.4-0.4,0.5-0.8,0.7c-1.3,0.4-2.6,0.8-3.9,1.3c-1.7,0.6-3.3,1.5-4.7,2.7C379.6,657.4,379.4,657.3,378.8,656.6z"/>
		<path class="st13" d="M374.5,648.7c-0.7-0.7-0.8-1.1-0.5-1.7c0.2-0.3,0.5-0.6,0.8-0.8c2.3-1.7,4.8-2.8,7.5-3.5
			c0.4-0.1,0.8-0.2,1.2,0.2c0,0.3,0,0.6,0,0.9c-1.1,0.4-2.2,0.7-3.2,1.2c-1.6,0.6-3.1,1.4-4.4,2.5c-0.3,0.2-0.5,0.5-0.7,0.8
			C375,648.3,374.8,648.5,374.5,648.7z"/>
		<path class="st13" d="M391.8,657.4c-1.8,0.2-3.5,0.6-5,1.3s-2.9,1.5-4.4,2.2c-0.8-0.5-0.9-1.1-0.1-1.7c0.5-0.4,1-0.6,1.6-0.9
			c2-1,4-1.8,6.1-2.2c0.5-0.1,1.1-0.1,1.7,0.2C391.7,656.6,391.7,657,391.8,657.4z"/>
		<path class="st13" d="M385.1,665c-0.4-0.8-0.3-1.1,0.3-1.5c2-1.1,4-1.9,6.2-2.3c0.6-0.1,1.2-0.2,1.8-0.4c0.6-0.2,1,0,1.2,0.5
			c0,0.6-0.5,0.8-1,0.9c-1.8,0.4-3.7,0.8-5.4,1.6c-0.6,0.3-1.3,0.6-1.9,1C385.8,665.1,385.8,665.1,385.1,665z"/>
		<path class="st14" d="M351.4,647.4c1.9,0.4,3.6,1.2,4.8,2.8c1.4,1.8,2.6,3.6,4,5.5c0.7,0.9,1.3,1.9,2.1,2.8
			c1.2,1.2,2.8,1.8,4.4,2.4c1.3,0.5,2.7,0.9,4,1.4s2.3,1.2,3.2,2.4c1.5,2,3.4,3.3,5.9,4c1.4,0.4,2.7,1,4,1.5c0.5,0,0.9,0,1.4,0.1
			c1-0.5,1.5-1.4,1.3-2.6c-0.4-2.2-1.1-4.2-2.7-5.9c-1.2-1.3-2.5-2.6-3.8-3.7c-1.3-1.2-2.3-2.6-2.8-4.3c-0.8-2.4-2.1-4.4-4-6.1
			c-1.5-1.4-2.8-2.9-3.2-5.1c-0.3-1.4-0.8-2.7-1.1-4.1c-0.1-0.6-0.3-1.1-0.3-1.7c-0.4,0.5-0.9,0.9-1.3,1.3c0,0.2,0.1,0.3,0.1,0.5
			c0.5,1.6,0.9,3.2,1.4,4.8c0.5,1.9,1.5,3.4,2.9,4.7c1.9,1.7,3.4,3.8,4.2,6.3c0.3,1,0.9,2,1.6,2.9c1,1.2,2.1,2.2,3.2,3.2
			c0.8,0.8,1.6,1.5,2.3,2.3c1.2,1.5,1.9,3.3,2.2,5.2c0,0.1,0,0.3-0.1,0.5c-0.5,0.2-1,0-1.5-0.1c-1.5-0.6-3.1-1.1-4.6-1.6
			c-1-0.3-1.8-0.9-2.5-1.6c-0.6-0.6-1.2-1.3-1.7-2c-0.8-1-1.8-1.7-2.9-2.2c-0.9-0.4-1.9-0.7-2.8-1c-1.4-0.5-2.8-1-4.1-1.6
			c-0.6-0.3-1.2-0.8-1.7-1.3c-0.7-0.8-1.3-1.7-1.9-2.6c-1.4-2-2.6-4-4.3-5.8c-1.7-1.7-3.7-2.7-6.1-2.8c-0.5,0-1.1,0-1.6,0
			c-0.3,0.5-0.6,1-1,1.5c0.8,0,1.6-0.1,2.4-0.1C350.8,647.4,351.1,647.4,351.4,647.4z"/>
	</g>
	<path class="st15" d="M344.5,468.5c-1.5-0.5-2.3-2.1-2.8-3.6c-2.5-7.6-2.7-15.8-2.5-23.8c0.1-5.1,0.5-10.2,1.9-15
		c2.7-9.1,9.5-17,18.1-21c8.5-3.9,18.6-0.2,27.1,1.9c7.9,1.9,16.2,2.8,24.2,4.1c5.7,1,15.7,0.7,20.1,4.7c5.4,5,32.5,50.1,35.5,56.9
		c6.9,15.5-1.2,41.8-5.1,60.4c-1.5,7-3,14.1-4.4,21.1c-2.6,12.4-5.5,24-7.2,36.5c-0.5,3.7-1,7.5-2.8,10.9
		c-3.6,6.9-11.6,10.1-19.2,11.8c-8.2,1.8-14.8,3.4-22,7.6c-6.6,3.9-14,6-21.8,6.4c-15.8,0.8-33.6-2-34.9-20.4
		c-1.7-24.9-0.1-88.7-1.2-120.2c-0.1-3.3,0.5-6.7-0.6-9.8c-0.7-2-2.1-3.8-3.1-5.7c-3.8-6.9-4.8-15.6-4.7-23.3c0.1-9-1-17.3,4.6-25.1
		c3.8-5.3,9-9.4,14.3-13.2c2.8-2,5.8-4.1,9.1-5.1c0.9-0.3,1.9-0.5,2.8-0.6"/>
	<path class="st10" d="M356.1,198.2c-2.1,8-3.1,16.6-2.6,24.9c0.5,9,1.5,15.2,1.4,24.3c0,4.4-3.1,15,0.4,23.2
		c1.5,3.6,15.5,10.1,18.4,12.6c2,1.7,3.6,3.7,5.6,5.3c6.3,4.8,8.6-8.6,16.1-8c9.6,0.9,19.1,1.8,28.7,2.7l-0.2-47.1
		c-7.7-4.4-14.7-8.9-21.6-14.4c-2.2-1.8-4.5-3.6-6-5.9c-3.1-4.6-3.1-10.6-2.2-16.1s2.6-10.9,2.6-16.5s-2.1-11.6-7-14.3
		c-3.2-1.7-7.1-1.8-10.6-0.7s-6.5,3.3-9.1,5.8C363,180.4,358.5,189.1,356.1,198.2z"/>
	<path class="st11" d="M394,280.2L394,280.2c-8.2,0-14.8-6.6-14.8-14.8v-33.9h29.6v33.9C408.8,273.6,402.1,280.2,394,280.2z"/>
	<path class="st16" d="M400.3,242.7c-5.1-1.2-2.9-0.7-5.9-0.5c-5.1,0.3-10.3,1.1-14.9,3.4c-0.1,0-0.2,0.1-0.2,0.1v12.6
		c2.8,3.8,7.4,5.4,11.8,5.8c5.5,0.5,10-4.1,9.8-9.5L400.3,242.7z"/>
	<path class="st11" d="M398.4,178.1c-32.6-1.2-30.8,27.5-30.8,28.7c0.5,13.4,0.2,24.3,5.4,33.6c3.2,5.8,14.2,19.5,22.5,19.9
		c5.5,0.3,15.3-8.1,19-13.8c8.2-12.7,11.5-24.7,11.7-37.4C426.4,193.3,425.2,179.2,398.4,178.1z"/>
	<path class="st11" d="M364.3,225.7c1.5,2.3,7,7.2,9.1,3.6c1.1-1.9-0.6-4-1.4-5.6c-0.2-0.5-0.5-0.9-0.8-1.4c0.8,1.5,3.1,0.1,2.3-1.4
		c-1.2-2.5-4.6-10.4-8.5-7.4C361.8,216,361,220.5,364.3,225.7z"/>
	<path class="st10" d="M417.6,211.6c-3.1-1.4-6.2-3-9.6-2.6c-1.3,0.1-5.2,1.4-3.1,3.4c1,0.9,8.3,0.9,12.1,1.7
		C418.6,214.4,419.4,212.4,417.6,211.6z"/>
	<path class="st10" d="M379.9,213.4c0.2-0.7,0.6-1.3,0.9-1.5c2.7-2.2,5.9-3.5,9.4-3.4c1.3,0,5.3,0.9,3.4,3.1
		c-0.9,1-8.4,1.2-11.7,3.2C380.2,215.9,379.5,214.9,379.9,213.4z"/>
	<path class="st11" d="M428.2,215.1c-3.8-3.3-7.7,4.4-9,6.8c-0.9,1.5,1.3,3,2.2,1.6c-0.3,0.4-0.6,0.9-0.9,1.3
		c-1,1.5-2.8,3.6-1.8,5.5c1.9,3.7,7.8-0.8,9.4-3C431.8,222.4,431.2,217.8,428.2,215.1z"/>
	<path class="st17" d="M424.1,226.1c-0.8-1.3-2.9-0.2-2.1,1.1c0.7,1.3,1,2.6,1,4c-0.1,1.5,2.3,1.6,2.4,0.1
		C425.5,229.5,425,227.7,424.1,226.1z"/>
	<path class="st10" d="M403.3,201.9c6.6-1,11.2,1.2,14.3-5c-0.4,0.8,2.4,9.3,0.3,30.5c-1.1,10.8-1.1,21.7-4.5,32.2
		c-2.1,6.4-5.1,12.4-8.8,17.9c-1.1,1.6-2.2,3.1-3.3,4.8c-0.5,0.8-0.9,1.6-0.8,2.5s0.9,1.6,1.8,1.9s1.8,0.3,2.7,0.2
		c8.2-0.7,16-5.8,20-13c0.7-1.3,1.4-2.7,2-4.1c5.6-12.5,12.3-25.4,14.3-39.1c1.5-10.1,0.2-20.3-1.8-30.3c-0.6-3.2-1.3-6.4-2.7-9.4
		c-1.7-3.7-4.4-6.9-7.7-9.2c-1.3-0.9-3.3-1.2-4.4-2.2c-1.3-1.1-1.7-3-2.7-4.4c-2.2-2.9-5.1-5.3-8.3-7.1c-5.3-2.9-11.4-4-17.4-4.1
		c-7.5-0.2-15.1,1.2-21.4,5.3c-3.8,2.5-6.9,5.9-9.6,9.5c-2.9,3.9-5.5,8.1-6.6,12.8s-0.6,10,2.1,14c2,2.8,4.9,4.9,6.3,8.1
		c1.1,2.6,1.2,5.3,2.6,7.7c2-1.9,0.8-6,2.3-9c2.1-4,6.5-6.8,10.6-8.1c0.6-0.2,1.2-0.3,1.8-0.5C390.5,202.4,397,202.9,403.3,201.9z"
		/>
	<g>
		<g>
			<path class="st10" d="M371.5,183.6c8.1-8.1,19.6-11.4,30.8-8.8c1.5,0.4,2.1-1.9,0.6-2.3c-12-2.8-24.3,0.6-33,9.4
				C368.8,183,370.4,184.6,371.5,183.6L371.5,183.6z"/>
		</g>
	</g>
	<g>
		<g>
			<path class="st18" d="M434.6,214.7c0.2,10.3-3.1,19.9-6.6,29.4c-0.2,0.6,0.7,0.8,0.9,0.2c3.5-9.6,6.8-19.3,6.6-29.7
				C435.5,214.1,434.6,214.1,434.6,214.7L434.6,214.7z"/>
		</g>
	</g>
	<g>
		<g>
			<path class="st18" d="M431,210.5c0,4.5-0.4,8.9-1.1,13.3c-0.1,0.6,0.8,0.8,0.9,0.2c0.7-4.5,1.1-9,1.2-13.6
				C432,209.9,431,209.9,431,210.5L431,210.5z"/>
		</g>
	</g>
	<g>
		<g>
			<path class="st18" d="M414.2,180.7c-8.4-9.6-22.1-6.9-32.2-1.8c-10.6,5.4-18.6,15.1-19.5,27.2c0,0.4,0.6,0.4,0.6,0
				c0.8-11.4,8-20.5,17.8-25.9c10-5.6,24.2-8.8,32.8,0.9C414,181.5,414.5,181,414.2,180.7L414.2,180.7z"/>
		</g>
	</g>
	<g>
		<g>
			<path class="st18" d="M380.2,175.5c4.9-2.2,10.1-3.3,15.5-3.3c0.4,0,0.4-0.6,0-0.6c-5.5,0-10.8,1.1-15.8,3.4
				C379.5,175.1,379.9,175.7,380.2,175.5L380.2,175.5z"/>
		</g>
	</g>
	<g>
		<g>
			<path class="st18" d="M364,242.6c0.9,6.1,3.3,11.6,7.2,16.3c0.3,0.3,0.7-0.1,0.5-0.5c-3.8-4.7-6.2-10.1-7-16.1
				C364.5,242,363.9,242.2,364,242.6L364,242.6z"/>
		</g>
	</g>
	<g>
		<g>
			<path class="st18" d="M368.5,244.8c1.2,4.4,2.9,8.7,5.1,12.7c0.2,0.4,0.8,0,0.6-0.3c-2.2-4-3.9-8.2-5-12.6
				C369,244.3,368.3,244.4,368.5,244.8L368.5,244.8z"/>
		</g>
	</g>
	<path class="st11" d="M345.1,284c0,0-22.8,75.1-23.5,78.8c-0.7,3.7,9.4,13.8,19.4,8.1c2.8-1.6,16.9-56.4,17.6-62.7
		C359.4,301.9,359,276.5,345.1,284z"/>
	<path class="st11" d="M442.1,280.8c0,0,7.2,85.7,7.2,89.2s-10.7,11.4-18.9,4.5c-2.3-1.9-6.5-55.1-6.1-61.1
		C424.6,307.4,430.7,271.6,442.1,280.8z"/>
	<path class="st11" d="M408.6,264.5l32.7,16.2c0,0-22.2,85-23,90s-33.3,23.2-57.9-1.1l-15.9-88.5c0,0,33.9-16,35.2-17.5
		C379.6,263.6,389.6,274.9,408.6,264.5z"/>
	<path class="st19" d="M361.4,308.8c-0.5-1.1-6.3-32.8-6.3-32.8l3-1.4c0,0,4.5,27,5.8,32.6c0.3-0.3,0.7-0.5,1.3-0.5
		c1.6,0,2.1,1.6,1.6,2.7c0,0,0,0,0.1,0c0.1-0.8,0.7-1.6,1.8-1.6c1.7,0,2.2,1.9,1.4,3c0,0,0,0,0.1,0c0.2-0.7,0.8-1.3,1.7-1.3
		c1.5,0,2.1,1.5,1.7,2.5c0.3-0.4,0.8-0.7,1.5-0.7c1.5,0,2.1,1.5,1.7,2.6c0.3-0.2,0.6-0.3,1-0.3c1.5,0,2.1,1.4,1.7,2.5
		c0.2-0.2,0.6-0.2,0.9-0.2c1.7,0,2.2,1.8,1.5,2.9c0.2-0.1,0.5-0.2,0.9-0.2c2,0,2.3,2.6,0.9,3.5c0,0,0,0,0.1,0.1
		c0.3-0.4,0.8-0.7,1.4-0.7c2,0,2.3,2.6,1,3.4l0.1,0.1c0.3-0.4,0.8-0.7,1.4-0.7c2,0,2.4,2.7,0.9,3.5c0,0,0,0,0.1,0.1
		c0.3-0.4,0.8-0.7,1.4-0.7c1.8,0,2.2,2,1.4,3c0.2-0.1,0.5-0.2,0.8-0.2c1.8,0,2.2,2,1.4,3.1c1.1-0.6,2.8-0.1,2.8,1.5v0.1
		c0,0.9-0.5,1.4-1.1,1.6c0.2,0.2,0.4,0.5,0.5,0.7c0-0.1,0-0.1,0-0.2v0.2c0-1.3,1.1-1.9,2.1-1.8c-0.9-1.1-0.4-3.1,1.4-3.1
		c0.5,0,0.8,0.2,1.1,0.4c0-0.1,0.1-0.1,0.1-0.2c-1.7-0.7-1.4-3.6,0.7-3.6c0.5,0,0.9,0.2,1.1,0.4c0,0,0.1-0.1,0.1-0.2
		c-1.7-0.6-1.5-3.6,0.7-3.6c0.5,0,1,0.2,1.2,0.5l0,0c-1.7-0.6-1.5-3.6,0.7-3.6c0.6,0,1,0.2,1.4,0.6c0,0,0,0,0-0.1
		c-1.5-0.8-1.2-3.5,0.9-3.5c0.5,0,0.9,0.2,1.2,0.5c-1.4-0.8-1.1-3.5,0.9-3.5c0.6,0,1.1,0.2,1.4,0.6c0,0,0-0.1,0.1-0.1
		c-1.3-0.9-1-3.4,1-3.4c0.8,0,1.3,0.4,1.6,1c-0.6-1.1-0.1-2.9,1.5-2.9c1,0,1.6,0.6,1.7,1.4c0,0,0.1,0,0.1-0.1
		c-0.5-1.1,0.1-2.7,1.6-2.7h0.1c1,0,1.6,0.7,1.8,1.5h0.1c-0.5-0.8-0.4-1.9,0.7-2.4c0,0,0.1,0,0.1-0.1c1.3-0.7,2.6,0.3,2.8,1.4h0.1
		c0.7-1.2,8.2-34,8.2-34l2.2,1.1c0,0-8.2,32.7-7.6,34.7c0.3,1.1,4.1,11.8,4.1,12.8s-4.7,15.1-5.1,16c-0.3,0.9-25.7-1-28.8-2
		c-1.7,0.9-41.8,2.8-42.2,2s-3-15.7-3-16.7C352.2,323.3,361.9,309.9,361.4,308.8z"/>
	<path class="st20" d="M321.8,326.9c-0.4,3-0.8,5.9-1.1,8.9c-0.1,1.3-0.2,2.7,0.4,3.8c1.1,1.9,24.5,9.2,24.9,7.8
		c-2.7,9.7-5.3,18.5-5.3,28.8c-0.1,10.8,1.5,21.5,3.2,32.2c1.2,7.6,9.2,4,14.7,4.6c6.8,0.8,10.5-4.4,16.8-4.5c0.9,0,1.9,0,2.7,0.5
		c2.7,1.4,2.2,5.4,3.8,8c1.8,3,5.8,3.6,9.2,3.4c4.8-0.4,9.8-2.2,12.4-6.1c0.8-1.2,1.4-2.6,2.6-3.5c2.2-1.7,9.2,1.7,11.9,2.2
		c6.4,1.2,15.5,1.5,14.5-7.1c-1.2-11.3-1.3-22.2-1.3-33.8c0-5.2,0-10.4,0-15.6c0-6.1,1.4-3.9,6.2-3.2c1.7,0.2,3.4-0.1,5.1-0.3
		c3.8-0.5,11.1-0.8,13.4-4.3c0.9-1.3,1-2.9,1.1-4.4c0.8-9.4,0.9-18.9-0.1-28.4c-0.9-8.5-1.4-17-4.4-25.1
		c-2.1-5.6-5.4-10.9-10.3-14.3c-5.5-4-14-7.9-20.9-7.5c-1.5,0.1-2.4,1.5-3.3,2.6c-3.2,4.2-7,5.3-11.9,5.9c-1.4,0.2-2.7,0.2-4.1,0.3
		c-1.4,0-2.8-0.1-4.2,0c-1.5,0-3-0.4-4.4-0.8c-2-0.4-4.1-0.9-6.1-1.4c-2.6-0.7-5.1-1.4-7.5-2.8c-2.3-1.4-4.2-3.6-5.9-5.6
		c-3.6-4.1-13.5-0.5-17.8,0.9c-6.5,2.2-12.8,5.7-17.3,11c-3.3,3.9-5.6,8.5-7.5,13.3C326.6,303.3,323.6,315,321.8,326.9z"/>
	<path class="st21" d="M414.6,264c-0.3,1.4-0.6,2.9-1.1,4.2c-0.9,2.5-1.8,4.9-2.8,7.4c-0.7,1.7-1.6,3.4-2.5,5
		c-0.7,1.3-1.5,2.5-2.2,3.7c-0.6,1-1.2,2-1.9,2.9c-0.6,0.8-1.2,1.4-1.9,2.1c-1,1.1-2,2.1-3.1,3.1c-0.7,0.6-1.5,1.1-2.4,1.7
		c0,0.2,0,0.5,0,0.8c0,1.1-0.2,2.1-1,2.9c-1.2,1.4-4.2,1.8-5.8,1c-1.8-1-2.6-2.4-2.6-4.5c0-0.2-0.1-0.5-0.3-0.8
		c-0.2-0.3-0.5-0.5-0.8-0.6c-2-1.1-3.6-2.8-5-4.5c-2.3-2.8-4-5.9-5.7-9.1c-1.1-2.1-2-4.4-3-6.6s-1.5-4.5-2.1-6.9
		c-0.1-0.6,0.2-1.1,0.6-1.2s0.8,0.2,1,0.8c0,0.1,0,0.2,0,0.3c0.1,0.7,0.2,1.4,0.5,2.1c1,3.2,2.3,6.2,3.8,9.2c0.9,1.9,2,3.6,3,5.4
		c0.5,0.9,1.1,1.8,1.6,2.7c0.9,1.6,2.2,2.9,3.5,4.2c1,1,2.1,1.9,3.5,2.6c0.6-1.1,1.4-1.9,2.6-2.2c0.6-0.1,1.2-0.2,1.8-0.2
		c0.8-0.1,1.5,0.1,2.1,0.6c0.5,0.5,1,1,1.4,1.5c0.1,0.2,0.3,0.3,0.5,0.5c0.4-0.2,0.7-0.4,1-0.6c0.8-0.7,1.6-1.4,2.3-2.1
		c1-1,2-2,2.8-3c0.9-1.1,1.6-2.4,2.4-3.5c1.2-1.8,2.3-3.6,3.2-5.6c0.6-1.2,1.1-2.3,1.6-3.5s0.9-2.4,1.5-3.6c1-2.2,1.7-4.4,2.2-6.8
		c0.2-0.8,0.3-0.9,1.4-0.8C414.6,263.3,414.7,263.7,414.6,264z M393.5,292.1c-0.2-0.1-0.3-0.2-0.4-0.4c-0.4-0.4-0.8-0.6-1.3-0.3
		c-0.1,0-0.2,0.1-0.4,0.1c-1.3,0.1-2,1-2.3,2.2c-0.5,1.9,0.7,3.8,2.6,4c0.9,0.1,1.8-0.1,2.5-0.8c0.7-0.6,0.9-1.4,0.8-2.3
		C394.9,293.6,394.7,292.6,393.5,292.1z"/>
	<path class="st12" d="M412.4,261.4c-0.2-0.6-0.5-0.9-1-0.9c-0.7,0.5-0.9,1.3-1.3,2c-0.8,1.6-1.4,3.3-2.2,4.8
		c-1.2,2.3-2.2,4.7-3.9,6.7c-0.5,0.6-0.8,1.4-1.3,2c-1.7,2.2-3.8,4.1-6.2,5.6c-2.2,1.4-4.4,1.3-6.5,0c-1.5-0.9-2.9-2.1-4.2-3.3
		c-1.9-1.7-3.5-3.6-5-5.6c-0.7-0.9-1.3-1.9-1.9-2.9c-0.8-1.3-1.6-2.5-2.3-3.8c-0.5-1-0.9-2-1.3-3.1c-0.1,0-0.2-0.1-0.3-0.2
		c-0.7-0.2-1.2,0.3-1,1c0.4,1.5,1,2.8,1.8,4.1c0.8,1.4,1.6,2.9,2.5,4.2c1.6,2.4,3.3,4.6,5.3,6.6c1.2,1.2,2.5,2.4,3.9,3.4
		s2.9,1.9,4.6,2.2c1.9,0.3,3.6-0.1,5.2-1c1.7-1,3.2-2.3,4.7-3.7c1.4-1.3,2.4-2.9,3.5-4.4c1-1.5,1.9-3,2.7-4.5c1.2-2.5,2.3-5,3.5-7.5
		C411.8,262.6,412.1,262,412.4,261.4z"/>
	<g>
		<g>
			<path class="st22" d="M456.8,343.1c-5.9,4.7-14.9,5.4-22.1,5.2c-0.5,0-0.5,0.8,0,0.9c7.5,0.1,16.6-0.6,22.7-5.5
				C457.8,343.3,457.2,342.7,456.8,343.1L456.8,343.1z"/>
		</g>
	</g>
	<g>
		<g>
			<path class="st22" d="M439.2,345.8c-1.2,0.4-2.5,0.4-3.7-0.2c-0.5-0.2-0.9,0.5-0.4,0.7c1.4,0.7,2.9,0.8,4.3,0.3
				C439.9,346.5,439.7,345.6,439.2,345.8L439.2,345.8z"/>
		</g>
	</g>
	<g>
		<g>
			<path class="st22" d="M439.6,342.8c-1.1,0.3-2.2,0.6-3.3,0.9c-0.5,0.1-0.3,1,0.2,0.8c1.1-0.3,2.2-0.6,3.3-0.9
				C440.4,343.4,440.2,342.6,439.6,342.8L439.6,342.8z"/>
		</g>
	</g>
	<g>
		<g>
			<path class="st22" d="M443.4,279.2c-1.8-0.4-2.9,2.8-3.5,4c-1.4,2.9-2.2,6-3,9c-0.1,0.5,0.7,0.8,0.8,0.2c0.6-2.1,1.1-4.1,1.9-6.1
				c0.3-0.7,2.4-6.6,3.7-6.3C443.7,280.1,443.9,279.3,443.4,279.2L443.4,279.2z"/>
		</g>
	</g>
	<g>
		<g>
			<path class="st22" d="M347.6,338.9c-2.8,3.3-7.6-0.9-10.4-1.8c-3.4-1.1-6.7-1.9-10-3.4c-0.5-0.2-0.9,0.5-0.4,0.7
				c4.9,2.1,10,3.2,14.7,5.7c2.7,1.4,4.6,1.9,6.7-0.6C348.6,339.1,348,338.5,347.6,338.9L347.6,338.9z"/>
		</g>
	</g>
	<g>
		<g>
			<path class="st22" d="M360.1,286.3c-0.2-5.7-4-10.7-6.9-15.4c-0.3-0.5-1,0-0.7,0.4c2.8,4.6,6.5,9.5,6.7,15
				C359.3,286.8,360.1,286.8,360.1,286.3L360.1,286.3z"/>
		</g>
	</g>
	<g>
		<g>
			<path class="st22" d="M360.9,268c2.2,5.1,5.6,9.3,10.2,12.4c0.5,0.3,0.9-0.4,0.4-0.7c-4.4-3-7.8-7.1-9.9-12.1
				C361.4,267.1,360.7,267.5,360.9,268L360.9,268z"/>
		</g>
	</g>
	<g>
		<g>
			<path class="st22" d="M422.7,279c-3.1,2.7-6.5,4.8-10.4,6.2c-0.5,0.2-0.3,1,0.2,0.8c4-1.5,7.6-3.6,10.8-6.5
				C423.7,279.3,423.1,278.7,422.7,279L422.7,279z"/>
		</g>
	</g>
	<path class="st11" d="M450,357.3c0.2,1.1,0.3,2.2,0.5,3.2c0.3,3.4,0,6.8-1.1,10c-0.7,2.3-1.9,4.3-2.5,6.7c-0.9,3.5-2,6.9-3.1,10.3
		c-4.5,13.5-10.1,26.6-16.1,39.5c-1.2,2.6-11.1,5-9.1-6.1c0.9-5.1,1.9-10.1,2.8-15.2c1.1-6.3,2.2-12.6,3.3-19
		c1.2-7.4,2.5-15.1,5.8-22c1.7-3.6,4-7.3,3.6-11.3c4.8-1,9.8-1.5,14.8-1.5c0.2,0,0.4,0,0.6,0.1c0.3,0.2,0.3,0.6,0.3,0.9
		C449.6,354.4,449.8,355.9,450,357.3z"/>
	<path class="st11" d="M416.3,423.1c-2.1,1.4-14.5,21.9-16.3,25.2c-1.1,2.1,1.6,3.6,2.5,3c2.6-1.9,9.7-10,10.5-10.9
		C413.8,439.5,420.1,420.7,416.3,423.1z"/>
	<path class="st11" d="M322.9,365.9c0,0,4.1,15,50.8,74.5c2,2.5,13.2,2.4,8.1-8.9c-30.4-68.2-35-65.7-39.1-73.9
		C338.6,349.5,320.9,347.6,322.9,365.9z"/>
	<path class="st11" d="M380.1,430.4c-1.4-1.6-4-1.5-6.1-1c-1.7,0.4-3.5,1.2-3.9,2.9c-0.3,1.2,0.2,2.5,0.8,3.7
		c1.6,3.4,3.2,6.7,5.2,9.9c1,1.6,2.1,3.2,3.2,4.7c2.7,3.8,5.5,7.6,8.2,11.5c1.1,1.5,2,3.2,3.7,4c1.6,0.8,3.3,1,5,1.3
		c3.1,0.6,6.1,1.6,9,2.8c1.4,0.6,2.7,1.2,4.2,1.4s3.1-0.1,4.1-1.1c0.2-0.2,0.4-0.5,0.5-0.9c0.1-0.6-0.5-1.2-1.1-1.5
		c-1.6-1.1-3.5-1.8-5.1-2.9c0.5,0.6,1.6,0,1.7-0.8s-0.4-1.5-1-2c-1.8-1.6-4.4-2-6.5-3c-1.8-0.8-3.3-2-4.8-3.3c-1.2-1-2.5-2-3.4-3.2
		c-2.5-3.2-2.9-7.6-4.2-11.3c-1.1-3.1-2.1-7.1-4.4-9.8c-0.8-0.9-1.7-1.7-2.8-2.2c-1.4-0.7-3-0.8-4.4-0.2c-1.4,0.6-2.3,1.9-3.1,3.2
		c-1,1.4-1.9,3-1.7,4.6c0.1,0.8,0.4,1.5,0.7,2.1c2.6,5.6,5.3,11.3,9.2,16.1c1.4,1.8,3,3.4,4.1,5.3c0.8,1.4,1.4,2.9,2.5,4.1
		c0.2,0.2,0.3,0.4,0.5,0.5"/>
	<g>
		<g>
			<path class="st22" d="M418.7,334.3c-0.4,3.5-1.9,5.5-3.1,8.6c-1.2,3-1.5,6.5-2.2,9.6c-1.3,6.7-2.7,13.4-4.8,20
				c-0.2,0.5,0.6,0.7,0.8,0.2c2.3-7.1,3.7-14.5,5.2-21.8c0.4-1.8,0.6-3.7,1.1-5.5c0.6-1.9,1.7-3.5,2.5-5.4s1.1-3.7,1.3-5.7
				C419.6,333.8,418.8,333.8,418.7,334.3L418.7,334.3z"/>
		</g>
	</g>
	<path class="st23" d="M348.6,366.1c3,5.5,7,10.4,9.8,16c0.8,1.6,1.5,3.3,1.3,5c-0.3,3.8-4.7,6.3-8.5,5.9s-7.1-2.9-10-5.5
		c-5.7-5-10.8-10.6-15.2-16.8c-1.4-1.9-2.7-3.9-3.3-6.2c-1.1-4.3,0.7-8.8,2.6-12.8c1.6-3.4,3.4-6.8,6.2-9.3s7-3.8,10.5-2.3
		c4.8,2,4,6.3,2.9,10.1C343.5,355.4,346.2,361.7,348.6,366.1z"/>
	<path class="st24" d="M409,463.6c-0.9,0.6-2.3,1.1-3,0.3c-0.5-0.6-0.2-1.6,0.2-2.3c1.2-2.2,2.8-4,4.5-5.9c1.2-1.3,2.3-2.6,3.5-3.9
		c0.7-0.8,2.3-3.3,3.2-3.5c1.7-0.5,1.8,1.8,1.6,3.1C418.5,456.3,412.6,461,409,463.6z"/>
	<path class="st24" d="M416.9,445.8c0-0.3,0-0.6,0-0.9c0-0.5-0.1-1-0.3-1.4s-0.7-0.8-1.2-0.8c-0.7-0.1-1.3,0.5-1.6,1.1
		c-0.3,0.6-0.4,1.3-0.5,2c-0.6,3.2-2.5,5.5-5.1,7.3c-2.8,2-5.4,4.3-7.5,7c-0.2,0.2-0.3,0.5-0.3,0.7c0.1,0.5,0.8,0.7,1.4,0.6
		c1.5-0.3,2.9-1,4.2-1.9C410.6,456.4,416.5,451.6,416.9,445.8z"/>
	<path class="st11" d="M383.8,429.8c2.6,0.8,21.7,18.8,24.6,21.8c1.8,1.9-0.6,4.3-1.7,3.9c-3.4-1.3-13.2-7.6-14.3-8.4
		C391.4,446.4,379.1,428.4,383.8,429.8z"/>
	<path class="st24" d="M400.1,464.6c-0.5-1,0-2.6,0.9-3.9c0.8-1.1,1.9-2,3.2-2.4c0.1,0,0.3-0.1,0.4,0s0.2,0.3,0.1,0.4
		s-0.2,0.3-0.3,0.4c-1.1,1-1.8,2.3-2.4,3.6c-0.2,0.5-0.5,1.1-0.3,1.6s0.7,0.2,0.9,0.6c0.2,0.4-0.3,1-0.6,1.1
		C401,466.5,400.4,465.4,400.1,464.6z"/>
	<path class="st11" d="M415.3,425c2.4-5.9,13.4-5,12.1,8.4c-0.5,5.4-3.6,11.1-5.6,16c-0.9,2.2-1.6,5.1-3.4,6.8
		c-3.1,2.9-7.2,4.4-10.5,7c-2,1.6-3.6,3.7-5.9,4.7c-0.4,0.2-0.9,0.3-1.3,0.2c-0.9-0.2-1.4-1.3-1.2-2.2c0.2-0.9,0.8-1.6,1.5-2.3
		c2.9-3.2,5.8-6.4,8.7-9.6c0.8-0.9,1.7-1.9,2.2-3c1.9-4,1.5-9.6,1.7-14C414,433.1,413.9,428.6,415.3,425z"/>
	<g>
		<g>
			<path class="st22" d="M358.5,342.2c0.7,6.1,0.7,13.5,3.7,19.1c1.6,3,3.9,5.6,5.4,8.7c2,3.9,3.1,8.2,4.3,12.4
				c0.1,0.5,1,0.3,0.8-0.2c-1.8-6.2-3.7-12-7.3-17.4c-4.8-6.9-5.1-14.4-6.1-22.6C359.3,341.6,358.4,341.6,358.5,342.2L358.5,342.2z"
				/>
		</g>
	</g>
	<g>
		<g>
			<path class="st22" d="M355.8,302.6c-2.1,14.4-5.5,28.5-10.1,42.3c-0.2,0.5,0.6,0.7,0.8,0.2c4.6-13.8,8-27.9,10.1-42.3
				C356.7,302.3,355.9,302.1,355.8,302.6L355.8,302.6z"/>
		</g>
	</g>
	<g>
		<g>
			<path class="st22" d="M416.8,364.4c-0.7,3.2-2,6.1-3.9,8.9c-0.3,0.5,0.4,0.9,0.7,0.4c1.9-2.8,3.2-5.8,3.9-9.1
				C417.7,364.1,416.9,363.9,416.8,364.4L416.8,364.4z"/>
		</g>
	</g>
	<g>
		<g>
			<path class="st25" d="M367.5,555.2c9.8,3.3,19.9,4.3,30.1,3.1c0.7-0.1,0.7-1.2,0-1.1c-10.1,1.2-20.1,0.2-29.8-3.1
				C367.1,553.9,366.8,555,367.5,555.2L367.5,555.2z"/>
		</g>
	</g>
	<g>
		<g>
			<path class="st25" d="M404.9,476c9,19.2-3.5,39.6-3.1,59.3c0,0.7,1.1,0.7,1.1,0c-0.4-20,12.1-40.4,3-59.9
				C405.6,474.8,404.6,475.4,404.9,476L404.9,476z"/>
		</g>
	</g>
	<g>
		<g>
			<path class="st25" d="M408.8,507.9c-0.6,5.7-1,11.3-1.1,17c0,0.7,1.1,0.7,1.1,0c0.2-5.7,0.5-11.4,1.1-17
				C410,507.2,408.9,507.2,408.8,507.9L408.8,507.9z"/>
		</g>
	</g>
	<g>
		<g>
			<path class="st25" d="M438.1,579.8c1.7,5.8,0.6,12-3.2,16.8c-4.2,5.3-10.5,6.3-16.7,8c-11.5,3.2-22.4,7.9-32.8,13.8
				c-0.6,0.4-0.1,1.3,0.6,1c7.2-4,14.6-7.5,22.4-10.4c6.5-2.4,13.4-3.5,19.8-6c9.2-3.7,13.9-14.1,11.1-23.5
				C439,578.8,437.9,579.1,438.1,579.8L438.1,579.8z"/>
		</g>
	</g>
	<g>
		<g>
			<path class="st25" d="M385.9,610.1c-1.3,0.6-2.7,1.2-4,1.8c-0.7,0.3-0.1,1.3,0.6,1c1.3-0.6,2.7-1.2,4-1.8
				C387.1,610.7,386.5,609.8,385.9,610.1L385.9,610.1z"/>
		</g>
	</g>
	<g>
		<g>
			<path class="st25" d="M365.7,488.9c-5.3-2.6-10-6.1-14-10.6c-0.5-0.5-1.3,0.3-0.8,0.8c4,4.5,8.8,8.1,14.2,10.7
				C365.8,490.2,366.4,489.2,365.7,488.9L365.7,488.9z"/>
		</g>
	</g>
	<g>
		<g>
			<path class="st25" d="M360.6,491.5c-0.8-1-1.8-1.7-3-2.1c-0.7-0.2-1,0.9-0.3,1.1c0.9,0.3,1.8,0.8,2.3,1.5
				S361.1,492.1,360.6,491.5L360.6,491.5z"/>
		</g>
	</g>
	<g>
		<g>
			<path class="st25" d="M459.4,476.1c-3,1.9-6.1,3.5-9.3,4.7c-0.7,0.3-0.4,1.4,0.3,1.1c3.4-1.3,6.6-2.9,9.6-4.8
				C460.6,476.7,460,475.7,459.4,476.1L459.4,476.1z"/>
		</g>
	</g>
	<g>
		<g>
			<path class="st25" d="M458.9,484.9c-2.4-0.4-4.7-0.4-7,0.2c-0.7,0.2-0.4,1.3,0.3,1.1c2.1-0.5,4.3-0.6,6.4-0.2
				C459.3,486.1,459.6,485,458.9,484.9L458.9,484.9z"/>
		</g>
	</g>
	<g>
		<g>
			<path class="st11" d="M528.1,637.2c0,0-9.2,39.4-15.5,41.9s-19.4,11.5-12.5,13.5c6.9,2.1,22.3-1.4,28.9-5.4
				c6.6-4,8.2-17.1,13.7-21.1c5.1-3.8,10.8-4.4,10.2-9.5s-8.1-18.5-8.1-18.5S535.3,626,528.1,637.2z"/>
		</g>
		<g>
			<g>
				<path class="st26" d="M502.1,684.9c0.1,1,0.6,2,1.4,2.7c2.4,2.2,4.1,2,5.5,5.2c0,0,11.6-0.8,17-4c5.4-3.3,9.7-11.4,11.5-15.9
					c1.6-3.8-10.5-6.7-12.5-7.4c-2.7-0.9-5.9-1.7-8.3-0.2c-2.3,1.5-2.9,4.5-4,7c-1.6,3.7-4.6,6.7-8,8.9c-1,0.7-2,1.3-2.5,2.4
					C502.1,684,502,684.5,502.1,684.9z"/>
			</g>
		</g>
		<g>
			<g>
				<path class="st26" d="M497.2,693c-0.2,0.2-0.4,0.4-0.6,0.6c-1.5,1.8-1.2,4.5-0.3,6.7c0.6,1.5,1.4,3,2.9,3.5
					c1.1,0.4,2.4,0.2,3.6,0c1.2-0.3,2.3-0.6,3.4-1c0.9-0.4,1.9-0.8,2.8-1c6.1-1.5,12.6,0.1,18.6-2.3c4.6-1.8,7.9-5.7,9.9-10.2
					c1.2-2.7,1.3-9,3.8-10.6c1.3,1.9,0.8,4.9,0.8,7.1c0,2.1,0.3,4.5,1.8,6c1.9,1.9,4.9,1.9,7.6,1.8c3.2-0.1,6.8-0.5,8.5-3.1
					c1.6-2.4,0.9-5.7,0-8.5c-1.3-4.6-2.7-9.2-4-13.9c-0.8-3-0.9-6.1-1.6-9.2c0,0-9.8,2.8-15,8.9c-4.7,5.5-5.8,13.9-11.4,18.7
					c-1.5,1.3-2.5,1.2-4.3,1.5c-3.1,0.5-6.1,1.5-9.1,2.2c-4.9,1.1-9.5,1.1-14.3,1.7C499.1,692,498.1,692.3,497.2,693z"/>
			</g>
		</g>
		<g>
			<path class="st11" d="M601.1,632.2c0,0,8.7,24.3,16.4,30.3s16.7,15.3,15.9,21c-0.8,5.8-13,10.8-22.6,8s-14.5-5.1-15.8-9.8
				s-3.2-15.3-3.5-19.2c-1.3-14.3-4.9-25.2-5.2-26.9C584.8,627.1,596,624.2,601.1,632.2z"/>
		</g>
		<g>
			<g>
				<path class="st26" d="M592,673.8c2.7,5.1,3.3,11.8,5.8,17.1c3.5,7.4,14.3,10.2,20.5,10.3c4.6,0.1,15.8-2.9,17-13.5
					c0.6-5.5-3.3-14.9-3.3-14.9s-0.6,10.1-8.7,12.5c-12.5,3.8-24.7-0.7-31.5-11.8c1,4.8,1.6,9.4,3.6,13.9c0.7,1.7,1.6,3.3,2.8,4.6
					c2.6,2.9,6.4,4.2,10.1,5.3c4.6,1.3,9.4,2.5,14.2,2c4.8-0.6,9.6-3.2,11.5-7.6c1.7-3.9,1-8.3,0.2-12.4c-0.5-2.6-1.1-5.5-3.2-7.2
					c1.2,5.1-2.5,10.5-7.4,12.5s-10.5,1-15.3-1.2"/>
			</g>
		</g>
		<g>
			<g>
				<path class="st26" d="M627.6,665.5c-7.1-9.5-14.8-16-14.8-16s-3.5-0.9-8.4,0l6.9,17.5c0,0-11.8-16-11.9-16.1
					c-0.7-0.9-9.3,5.8-9.9,6.9c-1.8,3.5,0.4,10.5,0.9,14.3c0.2,1.4,0.3,2.8,0.9,4c1.2,2.5,3.8,4,6.3,5.3c2.3,1.2,4.7,2.5,7.1,3.7
					c1.1,0.6,2.2,1.2,3.5,1c1.5-0.2,2.5-1.6,3.1-3s0.8-2.9,1.5-4.2c2.3-4.4,8.6-4.8,13.2-2.9c2.3,0.9,4.8,2.3,7.1,1.5
					c-2-10.2-7.8-19.7-16-26.1c-1.1-0.8-2.2-1.6-3.5-2c-2.2-0.6-4.6,0.2-6.8,0.7c-3.3,0.7-6.7,1-9.9,2c-6.8,2.2-7.3,5.8-6.5,11.9
					c0.6,5,1,11,3.5,15.4c2.9,5.2,14.4,6.5,14.4,6.5s3.9-6.8,8.7-9.6s16.2,1.5,16.2,1.5S634.7,675.1,627.6,665.5z"/>
			</g>
		</g>
		<path class="st27" d="M618.5,449.1c-14-1-28.4-1.6-42.5,0.2c-11.2,1.5-22.7,4.5-31.4,11.8c-10.9,9.2-15.8,24.1-15.8,38.4
			s4.1,28.2,8.6,41.8c5.3,16,10.6,32.1,16.5,47.9c5.8,15.6,11.5,32.4,20,46.8c1.8,3,2.8,5.9,4.1,9.3c0.5,1.3,1.1,2.6,2.2,3.4
			c2.5,1.8,5.8,0.2,8.8,0c3.4-0.2,6.9,1.5,10,0.3c1.4-0.5,2.6-1.6,3.7-2.7c2.4-2.3,4.9-4.7,6-7.8c1.3-3.8,0.2-7.9-0.8-11.8
			c-4.6-16.7-10.5-32.8-15-49.6c-4.7-17.2-8.7-34.5-12.1-52c-0.6-3.3-1.2-6.7-1.8-10c-0.3-1.6-0.6-3.3-0.2-4.9
			c0.7-3.1,3.7-5.2,6.5-6.8c8-4.4,16.8-7.2,25.8-8.2c6.7-0.8,18.5,2.7,17.2-6.9C627.8,485.3,620.1,449.2,618.5,449.1z"/>
		<g>
			<path class="st11" d="M425.9,432.7c-1.1,0.6-2.3,1.3-3.3,2c-1.2,0.8-2,1.1-1.7,2.5c0.4,2.4,2.3,5,3.6,6.9c0.2,0.4,0.5,0.7,0.9,1
				c0.5,0.4,1.1,0.5,1.7,0.6c3,0.5,6,0.9,8.9,1.6c1.5,0.4,3,0.9,4.5,0.9c1,0,2-0.1,3-0.2c2.1-0.3,4.2-0.6,6.3-1
				c1.7-0.3,3.4-0.3,4.7-1.4c2.3-2,2.4-5.6,2.7-8.4c0.6-5.5-1.4-10.9-7.7-11.1c-3.3-0.1-7.3,1.4-10.5,2
				C434.3,429.1,429.9,430.5,425.9,432.7z"/>
			<g>
				<g>
					<path class="st11" d="M422.5,455.4c3-4.9,7.2-9.2,13.5-8.5c4.1,0.5,4.1-6,0-6.5c-8.4-1-14.9,5-19.1,11.7
						C414.7,455.7,420.3,459,422.5,455.4L422.5,455.4z"/>
				</g>
			</g>
			<g>
				<g>
					<path class="st11" d="M430.8,441.5c0.7-0.4,1-0.7,1.4-1.4c0.8-1.1-0.5-2.7-1.8-2.3c-5.2,1.8-9.8,4.9-13.1,9.3
						c-1.1,1.5-3.4,3.9-2.6,6c0.5,1.6,2.3,2.2,3.8,1.7c2.5-0.8,3.7-4.4,5.3-6.2c2.2-2.7,5.3-3.9,8.1-5.8c3.8-2.7,0.6-6.8-2.9-3.7
						c-1.5,1.3,0.7,3.5,2.2,2.2c-0.4-0.3-0.9-0.7-1.3-1c-0.3,0.2-0.6,0.4-0.8,0.5c-0.7,0.2-1.5,0.9-2.1,1.3
						c-1.1,0.7-2.2,1.4-3.2,2.2c-2,1.6-4.8,4.7-5.7,7.2c-0.3,0.9,0.4-0.2,0.5-0.4c0.4-0.5,0.7-1.1,1-1.6c0.9-1.3,2-2.5,3.2-3.5
						c2.5-2.3,5.4-3.9,8.6-5c-0.6-0.8-1.2-1.5-1.8-2.3c-0.1,0.1-0.2,0.2-0.3,0.3C427.4,439.8,429,442.5,430.8,441.5z"/>
				</g>
			</g>
			<g>
				<g>
					<path class="st11" d="M417.2,446.2c1.4-1.8,3-3.4,4.9-4.7c0.8-0.5,1.5-1,2.3-1.4c0.7-0.4,1.4-0.7,2.1-0.9
						c1.1-0.2,1.1-0.4,0.1-0.4c-0.2-0.6-0.5-1.2-0.7-1.8c0,0.1,0,0.1,0,0.2c0.5-0.4,1-0.8,1.5-1.1c-0.1,0-0.1,0-0.2,0
						c0.5,0.5,1,1,1.6,1.6c-0.5-5.3-8.8,0.2-10.7,1.6c-2.2,1.7-8.7,8.1-4.9,11c1.7,1.3,3.5,0.1,4.7-1.1c2.3-2.4,4.5-4,7.3-5.7
						c1.8-1.1,4.2-2.8,4.6-5c0.4-2.3-1.5-3.2-3.4-3.3c-2-0.2-2,3,0,3.1c0.2,0-1.7,1.7-2.2,2c-0.9,0.6-1.8,1.1-2.8,1.7
						c-2.1,1.3-3.9,2.7-5.5,4.6c-0.2,0.2-1,1.7-0.3,0.3c0.3-0.6,0.5-1.1,0.9-1.7c0.7-1.1,1.6-2,2.5-2.8c1-0.9,2.2-1.6,3.5-2.2
						c0.6-0.3,1.3-0.6,2-0.9c0.4-0.2,0.7-0.3,1.1-0.4c0.7-0.1,0.7-0.5,0-1.2c0.1,0.9,0.7,1.5,1.6,1.6c0.1,0,0.1,0,0.2,0
						c0.7,0.1,1.4-0.5,1.5-1.1c0-0.1,0-0.1,0-0.2c0.1-0.6-0.1-1.5-0.7-1.8c-2-0.8-4.5,0.8-6.2,1.7c-2.8,1.5-5.1,3.7-7.1,6.1
						C413.7,445.6,415.9,447.8,417.2,446.2L417.2,446.2z"/>
				</g>
			</g>
			<g>
				<path class="st11" d="M429,434.8c-0.6-0.8-1.8-0.8-2.7-0.7c-4.4,0.6-8.6,2.5-12,5.3c-0.5,0.4-0.8,1.3-0.2,1.4
					c-0.3,0.4-0.1,1.2,0.4,1.3c0.5,0.2,1,0,1.5-0.2c1.5-0.7,2.7-1.9,4.1-2.6c1-0.5,2-0.8,3-1.2c1.4-0.5,2.8-0.9,4.2-1.3
					c0.4-0.1,0.9-0.3,1.2-0.5c0.3-0.3,0.6-0.7,0.5-1.1S429.4,434.6,429,434.8z"/>
			</g>
			<g>
				<g>
					<path class="st11" d="M451.2,443.2c-3.1,2.2-6.3,4.2-9.6,6c-1.4,0.8-3,1.7-4.5,2.2c-1.1,0.3-7.1-0.3-3,1.1
						c2.2,0.7,5.1-1.3,6.8-2.4c3.3-2.1,7-4.4,9.9-6.6c-1.6,1.2,0.6,3.4,2.2,2.2c3-2.3-1.2-4.9-3.7-4.4c-3.3,0.7-6.1,3.5-8.8,5.3
						c-2.3,1.5-3.6,2.3-6.4,2.7c-1,0.2-1.8-0.1-2.8,0.5c-1.2,0.7-1.8,2.2-1.1,3.5c0.9,1.5,3.3,1.7,4.9,1.7
						c6.1-0.2,12.9-5.7,17.7-9.1C454.4,444.8,452.8,442,451.2,443.2z"/>
				</g>
			</g>
		</g>
		<path class="st27" d="M567.8,489.8c2.8-2.3,4.9-5.7,6-10.9c1.7-7.9,0.5-16.1,2.3-24c1.5-6.9,5.2-13.2,7.1-20
			c0.7-2.6,1-5.7-0.8-7.7c-1.5-1.7-4-2-6.2-2.1c-6.2-0.3-12.4-0.2-18.5,0.4c-28.4,2.9-58.6,16-77.7,37.8s-12.5,53-4.3,77.9
			c5.4,16.5,10.9,33,17,49.2c3.1,8.2,6.3,16.3,9.8,24.4c2.8,6.5,5.9,13.3,9.4,19.5c1.8,3.1,3.7,6.2,4.9,9.5c0.8,2.3,1.7,5,4,5.9
			c2.1,0.7,4.3-0.5,6.5-0.7c3.5-0.2,7,2.3,10.3,1.2c3.4-1.1,4.7-5.2,7.3-7.6c1.2-1.1,2.9-2,3.3-3.7c0.2-0.8,0.1-1.7,0-2.5
			c-2.5-17-9.4-32.9-14.2-49.4c-4.9-17.1-9.2-34.4-12.8-51.8c-1.4-6.8-2.7-13.6-4-20.4c-0.3-1.6-0.6-3.3-0.2-4.9
			c0.7-3.1,3.7-5.2,6.5-6.8c8-4.4,16.8-7.2,25.8-8.2C556.6,494.3,563.2,493.6,567.8,489.8z"/>
		<path class="st11" d="M566.3,272.4L566.3,272.4c-8.7,0-15.8-7.1-15.8-15.8v-36.2h31.6v36.2C582.1,265.3,575,272.4,566.3,272.4z"/>
		<path class="st28" d="M582.2,232.6c-5.4-1.3-12.2-0.9-15.4-0.7c-5.4,0.3-11,1.2-15.9,3.7c-0.1,0-0.2,0.1-0.3,0.1V249
			c6.1,5.5,12.8,9.1,21.4,7c2.5-0.6,6.5-2.2,10.2-4.5V232.6z"/>
		<path class="st11" d="M597.6,212.6c1-7.8,1.6-16.2,0.4-24c-1.1-7.4-8.5-12.4-14.8-14.9c-7.9-3.1-13.2-11.8-21.5-9.3
			c-5.8,1.8-12.7,0.8-17.7,5.7c-2.1-0.7-7.9,15.4-8.1,18.3c-0.7,15-3.2,32.5,5.2,45.9c3.7,6,9.3,10.9,14.8,13.9
			c6.2,3.4,10.4,3.5,17.1,1.2c7.3-2.5,12.3-8.1,17.1-13.9C595.2,229.4,596.5,220.2,597.6,212.6z"/>
		<path class="st10" d="M552.8,193.1c-4.6-3.6-13.5-0.2-17.1,4.1c-0.1,0.1-0.3,0.2-0.4,0.4c-0.3,0.4-0.5,0.8-0.7,1.3
			c-0.2,0.4,0,0.8,0.2,1c0.2,0.4,0.6,0.6,1.3,0.4c2.3-0.7,4.2-1.9,6.5-2.7c3.1-1.1,5.7-0.9,8.8-1.2
			C554,196.1,554.6,194.5,552.8,193.1z"/>
		<path class="st10" d="M570.3,196.1c3.1,0.2,5.7-0.1,8.8,0.9c2.2,0.8,4.2,1.9,6.5,2.5c0.7,0.2,1.1-0.1,1.2-0.4
			c0.3-0.2,0.4-0.6,0.2-1s-0.4-0.8-0.7-1.2c-0.1-0.1-0.2-0.3-0.4-0.4c-3.7-4.2-12.7-7.4-17.2-3.6
			C567.1,194.4,567.8,195.9,570.3,196.1z"/>
		<path class="st11" d="M599.1,206.7c-4.2-3.2-7.9,5.2-9.2,7.8c-0.8,1.7,1.6,3.1,2.5,1.6c-0.3,0.5-0.5,1-0.8,1.5
			c-0.9,1.7-2.7,4-1.6,6c2.3,3.9,8.2-1.4,9.8-3.8C603.4,214.2,602.5,209.4,599.1,206.7z"/>
		<g>
			<path class="st29" d="M533.2,383c0,0-18.9,50.8-20.8,62c-8.6,50.7,8.1,52.8,58.3,48.5c40.2-3.4,68.7,9.1,53.5-51.9
				c-3-11.9-19.5-61.9-19.5-61.9S561.1,354.8,533.2,383z"/>
		</g>
		<g>
			<path class="st29" d="M512,275.3c0,0-12.6,97.6-13,101.8s11.7,14.7,22.2,7.3c3-2.1,13.2-65.2,13.4-72.5
				C534.8,304.7,526.6,265.4,512,275.3z"/>
		</g>
		<g>
			<path class="st11" d="M551.3,253.1L522,269.4c-8.7,4.8-13,14.8-10.6,24.4c7.1,28.5,21,84.8,21.7,89.2c0.9,5.9,41.9,26.1,71.4-3.2
				l19.1-102.4c0,0-41.3-22.5-42.9-24.3C580.8,253.1,574.4,264.6,551.3,253.1z"/>
		</g>
		<g>
			<g>
				<path class="st30" d="M519.3,270.3l-3.1,1.9c0,0,9.1,34.1,9.7,35.4c0.7,1.3-7.3,15.4-7.5,16.6c-1.2,7.2,5.4,20.5,5.8,21.5
					c0.4,1.1,30.5-0.4,32.5-1.5c0.1,0,1.2-1.6,1.2-1.7c0-1.8-5.8-13.1-12.6-21.1c-7.3-8.6-15.5-14-16-14.7
					C528.5,305.2,519.3,270.3,519.3,270.3z"/>
			</g>
		</g>
		<g>
			<g>
				<path class="st30" d="M604.7,305.6c0.7-1.3,9.5-34,9.5-34l-3-1.8c0,0-8.3,32.9-9.2,34.4c-0.5,0.8-15.8,10-27.7,19.8
					c-9.7,8-16.4,16.8-16.4,18.4c0,0.1-1.2,1.7-1.2,1.7c2,1.1,53.7,2.5,54.1,1.5c0.4-1.1,3.7-18.5,3.7-19.7
					C614.6,324.8,604,306.9,604.7,305.6z"/>
			</g>
		</g>
		<g>
			<path class="st27" d="M523,398.2l89.3-0.5c0,0,16.3,35.6,20.3,73.3c3.2,30.4-61.4,35.1-61.4,35.1s-63.3-3.5-64.2-26.3
				C505.2,433.5,523,398.2,523,398.2z"/>
		</g>
		<g>
			<g>
				<path class="st31" d="M518.8,408.8c-0.8,2.2-1.3,3.6-1.3,3.6c-0.5,1.2,36.9,13.1,39.6,15.1c2.6,2,5.4,4.4,8.7,4.2
					c1.8-0.1,3.5-0.9,5.2-1.5c2.3-0.8,4.8-1.1,7.2-1.4c10.5-1.4,20.8-3.9,30.7-7.5c2.7-1,5.5-2.1,7.2-4.5
					c8-11.2-11.7-29.3-10.1-41.1c0,0,3.7-26.5,8.2-35.6c0.2-0.5,0.5-1,0.7-1.5c4.8-11.2,3.9-24.7,2.7-36.5c-0.7-6.3-1.7-12.5-3-18.7
					c-0.5-2.6-1.1-5.1-1.8-7.7c-0.3-1.2-0.7-2.3-1.1-3.5c-0.4-1.2-0.2-3.2-1.6-3.8c-0.4-0.2-0.8-0.2-1.2-0.2c-0.2,0-0.5,0-0.7,0.1
					c-8.2,1.1-16.4,2.6-24.5,4.6c-4.4,1.1-8.7,2.2-13.2,2.8c-13.9,1.7-27.7-3.1-40.8-8.1c-0.9-0.4-1.8-0.7-2.8-0.7
					c-2.5,0.1-2.2,2.6-2.5,4.5c-0.3,1.7-0.6,3.3-0.9,5c-1.7,10.7-2.9,21.5-4.1,32.3c-0.7,6.2-1.3,12.4-1.9,18.6
					c5.2,14.1,13,50.1,13,50.1c-2.1,5.7-4.2,11.4-6.4,17.1c-1.5,3.9-2.9,7.9-4.4,11.8c-1.8,4.8-4.9,8.6-2.4,13.9
					c1.7,3.7,5.6,6.2,9.7,6.5c5.7,0.4,11.2-3.3,16.8-2.4c5.7,0.9,9.9,6.3,15.6,7.5c7.3,1.5,14.3-4.2,21.7-4.3c2.5,0,4.9,0.6,7.4,0.9
					c7.8,1,15.6-1.4,23.1-3.8c1.6-0.5,3.2-1,4.6-1.9c3.9-2.6,5.1-8,3.8-12.5s-4.6-8.1-8.1-11.2"/>
			</g>
		</g>
		<g>
			<g>
				<path class="st31" d="M607.5,330l12.8,39l27.2-7.3c0,0-19-83.7-23.6-88.2c-1.4-1.4-19.1-10.7-20.5-8.3
					C594.8,279.8,607.5,330,607.5,330z"/>
			</g>
		</g>
		<g>
			<g>
				<path class="st31" d="M535.9,326.5l-7.3,40.3l-29-4.6c0,0,8.5-83,12.6-88c1.2-1.5,19.4-14.9,21.1-12.6
					C543.3,275.2,535.9,326.5,535.9,326.5z"/>
			</g>
		</g>
		<path class="st32" d="M619.4,265.8c0.2,0.1,0.4,0.2,0.6,0.3c9,4.5,12.7,15.3,15.3,25.1c8.6,32.2,15.5,65,18.7,98.2
			c0.5,5.5,1,11.1-0.3,16.4c-1.2,5-4.6,12-10.3,12.1c-6,0-11.4-5.4-17.3-5.9c1.3-24.2,4.2-32.2,0.6-56.1
			c-3.1-20.3-13.2-41.2-23.2-58.7c-2.2-3.8,0.2-15.2,1.7-19.8c1.2-3.6,2.9-10.7,6.7-12.1C614.2,264.3,617,264.8,619.4,265.8z"/>
		<path class="st32" d="M510.6,272.5c-1,0.2-2.8,9.1-3,10c-2.3,8.2-3.6,16.3-4.7,24.7c-1.7,13-1.3,25.7-4,38.5
			c-3,14.2-6.8,28.3-11.2,42.2c-3.9,11.9-10.2,19.6-20.8,26.4c-5.2,3.3-10.6,6.5-16,9.5c-1.4,0.8-3,1.6-3.8,3
			c-1.1,1.9-0.7,4.2-0.2,6.3c0.9,4.3,2.3,9.2,6.2,11.1c1.7,0.8,3.7,1,5.6,0.9c9.1-0.1,17.8-3.4,26.3-6.6c2.5-1,5.1-1.9,7.5-3.2
			c12.3-6.5,20.3-21,25.7-33.3c5.8-13.4,9.2-27.8,11.7-42.2c2.4-14,4-28.2,6-42.3C537.3,308.4,537.4,267.1,510.6,272.5z"/>
		<path class="st21" d="M510.4,270.7c-0.5,0.4-0.9,0.9-1.1,1.5c-0.6,1.1-0.7,2.2-0.5,3.2c0.6,4.5,1.1,12,1,16.6l-0.2,20.8
			c-0.2,14.4-0.3,28.9-0.5,43.3c-0.3,25.3,5.2,55.7-7,78.9c-0.3,0.5-0.5,1-0.8,1.6c-2,3.8,2.2,7.8,5.9,5.6c9.1-5.5,19-9.5,29.4-11.9
			c2.7-0.6,5.5-1.2,8.1-2.4c8.1-4,6-20.9,6.6-29c2.3-30.2-3-54.1-6.8-84c-1-7.6-1.7-22-1.7-29.6c0-8.4,0.8-16.8,2.6-25
			c0.7-3.1-2.1-5.9-5.2-5.1c-9.4,2.5-18.8,9.3-26.6,13.5C512.5,269.2,511.3,269.9,510.4,270.7z"/>
		<path class="st21" d="M627.1,273.4c3.4,6.1,1,15.1,1.3,21.8c0.5,9.2,0.9,18.5,1.4,27.7c0.9,18.1,1.7,36.2,2.7,54.3
			c0.5,9.1,1,18.3,1.5,27.4c0.2,3.7-0.3,7.4,0.4,11c0.8,4.2,2.2,8.2,3.5,12.3c1,3.1,2,6.2,2.7,9.3c3,13.3,1,27.9,0.6,41.5
			c-0.1,2.3-0.2,4.7-0.9,7c-0.7,2.2-2,4.1-3.2,6.1c-2.9,4.8-5,10-6.3,15.5c-0.5,2-0.9,4.1-0.8,6.2c0.1,2.5,1,5,1.5,7.5
			c0.7,3.8,0.5,7.7,0.3,11.6c-0.1,1.8-0.2,3.7-1.2,5.3c-1.1,1.6-2.9,2.4-4.2,3.8c-1.2,1.3-1.3,3.1-2.4,4.3c-1.7,1.8-6.2,2.2-8.4,3.1
			c-4.5,1.8-8.5,5-12.7,7.5c-2.9,1.7-9,0.9-14.2-0.2c-3.6-0.8-6.4-3.7-6.9-7.4c-3.7-27.9-12.8-40.1-9.2-59.3
			c2-10.6,16.4-15.8,13.1-26.2c-1.5-4.8,0.7-6.4-0.1-10.2c-0.9-4.2-1-11.1-0.4-15.3c1.8-12.5,4.1-25.1,5.7-37.5
			c1.6-12.1-0.3-25.4-0.4-37.6c-0.1-7.3-0.2-14.7-0.7-22c-0.6-7.8-1.7-15.6-1.7-23.4c0-10.8,2.2-21.5,3.4-32.2
			c0.6-5.3,1-10.6,0.8-15.9c-0.1-2.1-0.7-4.5-1.2-6.9c-0.7-3.2,2.2-6.1,5.5-5.3c0.1,0,0.2,0.1,0.4,0.1c3.2,0.7,6.4,1.3,9.5,2.5
			c6.2,2.2,12,5.5,17.1,9.7c1.2,1,2.5,2.2,3.4,3.5C626.8,272.9,627,273.2,627.1,273.4z"/>
		<g>
			<g>
				<path class="st33" d="M628.4,392.6c-3.4,9-14.4,13.5-22.6,17.1c-0.5,0.2-0.1,0.9,0.4,0.7c8.5-3.7,19.5-8.2,23-17.5
					C629.3,392.4,628.6,392.1,628.4,392.6L628.4,392.6z"/>
			</g>
		</g>
		<g>
			<g>
				<path class="st33" d="M533.6,278.2c6.7,22.2-11.6,45.4-0.4,66.9c0.2,0.4,0.9,0,0.6-0.4c-11.2-21.4,7.2-44.6,0.5-66.8
					C534.2,277.6,533.5,277.8,533.6,278.2L533.6,278.2z"/>
			</g>
		</g>
		<g>
			<g>
				<path class="st33" d="M524.8,310.7c-0.2,3-0.5,6.1-0.7,9.1c0,0.5,0.7,0.5,0.8,0c0.2-3,0.5-6.1,0.7-9.1
					C525.6,310.2,524.9,310.2,524.8,310.7L524.8,310.7z"/>
			</g>
		</g>
		<g>
			<g>
				<path class="st33" d="M604.6,287.4c2.4,11.9,4.8,24.1,4.2,36.3c-0.3,6.1-1.5,12.1-3.6,17.9c-2,5.2-4.4,10.1-5.3,15.6
					c-0.1,0.5,0.7,0.7,0.7,0.2c1-6.1,3.9-11.4,5.9-17.2c1.8-5.3,2.8-10.9,3.1-16.5c0.6-12.3-1.8-24.5-4.3-36.5
					C605.2,286.7,604.5,286.9,604.6,287.4L604.6,287.4z"/>
			</g>
		</g>
		<g>
			<g>
				<path class="st33" d="M615.6,327.9c-0.9,7.1-5.7,12.9-6.4,20c0,0.5,0.7,0.5,0.8,0c0.7-7.1,5.5-12.9,6.4-20
					C616.4,327.4,615.7,327.4,615.6,327.9L615.6,327.9z"/>
			</g>
		</g>
		<g>
			<g>
				<path class="st33" d="M515.1,330.1c-0.3,10,2.9,19.2,9.2,27c0.3,0.4,0.8-0.2,0.5-0.5c-6.1-7.6-9.2-16.7-8.9-26.4
					C515.9,329.6,515.1,329.6,515.1,330.1L515.1,330.1z"/>
			</g>
		</g>
		<g>
			<g>
				<path class="st34" d="M585.3,283.9c-1,4.6-0.5,9.4-1.2,14.1c-0.7,4-1.9,7.8-3.2,11.6c-2.5,7.4-5.2,14.7-5,22.6
					c0,0.5,0.8,0.5,0.8,0c-0.2-8.5,2.8-16.1,5.5-24c1.2-3.6,2.3-7.2,2.8-10.9c0.7-4.4,0.1-8.9,1.1-13.3
					C586.1,283.6,585.4,283.4,585.3,283.9L585.3,283.9z"/>
			</g>
		</g>
		<g>
			<g>
				<path class="st34" d="M581.6,297.2c-1,4.2-2,8.4-3,12.7c-0.1,0.5,0.6,0.7,0.7,0.2c1-4.2,2-8.4,3-12.7
					C582.5,297,581.7,296.8,581.6,297.2L581.6,297.2z"/>
			</g>
		</g>
		<g>
			<g>
				<path class="st34" d="M551,294.9c1.9,10.8,4.2,21.5,7.1,32c0.1,0.5,0.9,0.3,0.7-0.2c-2.9-10.6-5.3-21.2-7.1-32
					C551.6,294.2,550.9,294.4,551,294.9L551,294.9z"/>
			</g>
		</g>
		<g>
			<g>
				<path class="st34" d="M552.7,318.2c0.6,3.5,1.4,6.8,2.5,10.1c0.2,0.5,0.9,0.3,0.7-0.2c-1.1-3.3-2-6.7-2.5-10.1
					C553.4,317.5,552.6,317.7,552.7,318.2L552.7,318.2z"/>
			</g>
		</g>
		<g>
			<g>
				<path class="st34" d="M558.1,392.3c5.8,2.3,11.7,3.5,17.8,3.9c0.5,0,0.5-0.7,0-0.8c-6.1-0.4-11.9-1.7-17.6-3.9
					C557.8,391.4,557.6,392.2,558.1,392.3L558.1,392.3z"/>
			</g>
		</g>
		<g>
			<g>
				<path class="st34" d="M565.2,398.8c2.2,0.6,4.3,1.2,6.5,1.7c0.5,0.1,0.7-0.6,0.2-0.7c-2.2-0.6-4.3-1.2-6.5-1.7
					C564.9,398,564.7,398.7,565.2,398.8L565.2,398.8z"/>
			</g>
		</g>
		<g>
			<g>
				<path class="st35" d="M555.1,212.3c-1.5,1.5-3.3,3.8-2.1,6.1c1.2,2.2,4.8,1.8,6.8,1.8c1.8,0,5.5,0.4,6.6-1.6
					c1.1-1.9-0.4-4.4-1.7-5.8c-0.5-0.5-1.2,0.2-0.7,0.7c1.4,1.5,2.6,3.9,0.3,5.3c-0.9,0.6-3.5,0.3-4.5,0.3c-1.2,0-2.7,0.1-3.9-0.2
					c-3.6-0.9-1.9-4.1-0.2-6C556.3,212.5,555.6,211.8,555.1,212.3L555.1,212.3z"/>
			</g>
		</g>
		<g>
			<g>
				<path class="st17" d="M596.1,220.8c3.8,2.8,2.2,12.3-3.3,11.9c-0.8-0.1-0.8,1.2,0,1.3c3.3,0.3,5.5-2.5,6.3-5.5
					c0.8-3.3,0.6-6.6-2.3-8.8C596,219.2,595.4,220.3,596.1,220.8L596.1,220.8z"/>
			</g>
		</g>
		<g>
			<g>
				<path class="st17" d="M535.6,222.7c-2.6,2.2-3.9,5.9-2.5,9.2c1.2,3.1,4.4,4.7,7.6,3.6c0.8-0.3,0.4-1.5-0.3-1.2
					c-3,1.1-5.8-0.9-6.4-3.9c-0.5-2.6,0.6-5.1,2.6-6.7C537.1,223.1,536.2,222.2,535.6,222.7L535.6,222.7z"/>
			</g>
		</g>
		<g>
			<g>
				<path class="st36" d="M593.5,178.4c0.9,3.3,1.8,6.5,2.7,9.8c0.2,0.8,1.4,0.4,1.2-0.3c-0.9-3.3-1.8-6.5-2.7-9.8
					C594.5,177.3,593.3,177.6,593.5,178.4L593.5,178.4z"/>
			</g>
		</g>
		<g>
			<g>
				<path class="st36" d="M560.8,176.4c2.2,1.5,4.7,2.2,7.4,2.2c0.8,0,0.8-1.3,0-1.3c-2.5,0.1-4.7-0.6-6.8-2
					C560.7,174.9,560.1,175.9,560.8,176.4L560.8,176.4z"/>
			</g>
		</g>
		<g>
			<g>
				<path class="st36" d="M536.1,185.9c-0.7,2-1.7,3.9-3,5.6c-0.5,0.7,0.6,1.3,1.1,0.6c1.3-1.8,2.4-3.8,3.1-5.9
					C537.6,185.4,536.4,185.1,536.1,185.9L536.1,185.9z"/>
			</g>
		</g>
		<g>
			<path class="st35" d="M560.3,235.8c0.1-1.6,1-3.1,2.2-4.2c1.2-1,2.8-1.6,4.4-1.9c1.5-0.3,3.2-0.2,4.6,0.3
				c1.5,0.5,2.8,1.6,3.3,3.1c0.3,0.9,0.2,1.3-0.1,2.3c-1,3.3-4.4,1.5-6.4,0.7c-1.1-0.4-2.1-0.6-3.3-0.2c-0.9,0.4-1.6,1.2-2.6,1.5
				C560.8,238,560.2,237.6,560.3,235.8z"/>
		</g>
		<path class="st11" d="M572.2,437.3c-1.2-2-3.2-3.7-5.6-3.7c-1.8,0-3.7,0.6-5.5,0.9s-3.3,0.6-5.2,0.9c-4.6,0.9-8.8,2-12.8,4.3
			c-5.3,3.1-9.8,9.1-12.4,14.4c-0.5,1-0.9,1.9-1.3,2.9c-0.5,1.3-0.4,2.4,0.2,3.6c0.2,0.3,0.4,0.6,0.7,0.8c0.6,0.4,1.3,0.2,2,0.1
			c0.1,0,0.2,0,0.3,0s0.2,0.1,0.2,0.2c0.9,1,3.8,1.3,5,0.7c0.5,1.4,1.4,1.9,2.8,2.2c1.5,0.3,2.3-1,3.3-1.8c0.4,0.6,1.7,0.4,2.3,0.2
			c0.6-0.2,1.2-0.5,1.7-0.9c3.2-2.3,4.8-6.4,8.1-8.5c2.1-1.3,4.6-1.7,7.1-1.9s5-0.1,7.4-0.5c0.5-0.1,1-0.2,1.5-0.5
			c1-0.8,1.1-2.7,1.2-3.8c0.2-2.8,0.4-5.8-0.6-8.4C572.7,438.2,572.5,437.8,572.2,437.3z"/>
		<path class="st32" d="M598.6,446.2c-4.2,2.1-8.4,4.1-12.6,6.2c-2.7,1.3-6,3.5-9,2.1c-2-0.9-3.3-2.8-4.3-4.7
			c-2.5-4.5-3.9-9.5-4.2-14.7c-0.4-8.9,6-10.7,12.7-14.7c7.3-4.4,14.6-8.9,21.9-13.3c14.8-9,29.6-18,44.3-27
			c0.6-0.4,1.5-0.8,2.1-0.4c0.4,0.2,0.6,0.8,0.8,1.3c4.2,13.5,6.7,24.8-3,35.1c-7.8,8.3-24.6,17.6-34.4,22.9
			C608.1,441.5,603.3,443.9,598.6,446.2z"/>
		<g>
			<g>
				<path class="st37" d="M542.6,505.7c8.7,4.4,17.7,1.6,26.4-1.5c0.4-0.1,0.2-0.8-0.2-0.6c-8.4,3-17.3,5.9-25.9,1.6
					C542.5,505,542.2,505.5,542.6,505.7L542.6,505.7z"/>
			</g>
		</g>
		<g>
			<g>
				<path class="st37" d="M553.7,512.3c0.9,1.5,3.6,0.5,5,0.2c3.4-0.7,6.6-2,9.5-3.8c0.4-0.2,0-0.8-0.3-0.6c-2.1,1.2-4.2,2.3-6.5,3
					c-1.3,0.4-6.2,2.1-7,0.8C554,511.6,553.5,511.9,553.7,512.3L553.7,512.3z"/>
			</g>
		</g>
		<g>
			<g>
				<path class="st37" d="M497.6,496.6c-0.1,0-0.1,0-0.2,0s-0.3,0.1-0.3,0.2c-0.5,2,3.4,4.2,4.8,5.1c3.1,2,6.5,3,10.1,3.3
					c0.4,0,0.4-0.6,0-0.6c-2.9-0.2-5.7-1-8.3-2.3c-1.3-0.7-2.5-1.5-3.6-2.4c-0.4-0.3-2.2-2.6-2.6-2.6
					C498,497.2,498,496.6,497.6,496.6L497.6,496.6z"/>
			</g>
		</g>
		<g>
			<g>
				<path class="st37" d="M496.1,505.4c3.4,1.2,6.8,1.9,10.4,1.9c0.4,0,0.4-0.6,0-0.6c-3.5,0-6.9-0.7-10.2-1.9
					C495.8,504.6,495.7,505.3,496.1,505.4L496.1,505.4z"/>
			</g>
		</g>
		<g>
			<g>
				<path class="st37" d="M497.9,511.6c2.5,0,5-0.2,7.4-0.6c0.4-0.1,0.2-0.7-0.2-0.6c-2.4,0.4-4.8,0.6-7.2,0.6
					C497.5,511,497.5,511.6,497.9,511.6L497.9,511.6z"/>
			</g>
		</g>
		<g>
			<g>
				<path class="st37" d="M507.4,563.7c-0.3-0.4-0.6-0.8-0.9-1.1c-0.2-0.2-0.6,0-0.5,0.2c0.6,8.6,2.6,16.9,5.5,25.1
					c3.1,8.9,8.1,17.7,8.5,27.2c0,0.4,0.7,0.4,0.7,0c-0.4-8.4-4.5-16.1-7.3-23.9c-1.5-4-2.9-8.1-4-12.2c-0.6-2.4-1.2-4.7-1.6-7.1
					c-0.3-1.8-0.6-3.5-0.8-5.3c-0.4-0.8-0.4-1.6,0.1-2.3C507.2,564.5,507.7,564,507.4,563.7L507.4,563.7z"/>
			</g>
		</g>
		<g>
			<g>
				<path class="st37" d="M520.1,595.4c0.9,4.1,2.2,8.1,4,12c0.2,0.4,0.7,0,0.6-0.3c-1.7-3.8-3-7.7-3.9-11.8
					C520.6,594.8,520,595,520.1,595.4L520.1,595.4z"/>
			</g>
		</g>
		<g>
			<g>
				<path class="st37" d="M579.9,616.4c4.2,0.5,8.5,0.9,12.8,1.1c0.4,0,0.4-0.6,0-0.7c-4.3-0.2-8.5-0.6-12.8-1.1
					C579.4,615.7,579.5,616.3,579.9,616.4L579.9,616.4z"/>
			</g>
		</g>
		<g>
			<g>
				<path class="st37" d="M581.2,620.7c2.1,0.2,4.2,0,6.3-0.4c0.4-0.1,0.2-0.7-0.2-0.6c-2,0.4-4,0.6-6.1,0.4
					C580.8,620,580.8,620.7,581.2,620.7L581.2,620.7z"/>
			</g>
		</g>
		<g>
			<g>
				<path class="st37" d="M583.3,642c4.9,1.3,9.8,1.5,14.8,0.6c0.4-0.1,0.2-0.7-0.2-0.6c-4.9,0.8-9.7,0.6-14.5-0.6
					C583,641.2,582.9,641.9,583.3,642L583.3,642z"/>
			</g>
		</g>
		<g>
			<g>
				<path class="st33" d="M605.3,447.8c2.5,5,6.9,7.7,11.3,10.8c6.7,4.6,10.8,10.7,14.1,18.1c0.2,0.5,0.9,0.1,0.7-0.4
					c-2.7-5.9-5.9-11.6-11-15.8c-5.1-4.2-11.4-6.9-14.5-13.1C605.7,447,605.1,447.3,605.3,447.8L605.3,447.8z"/>
			</g>
		</g>
		<g>
			<g>
				<path class="st33" d="M605.4,454.8c2.1,1.6,4.2,3.2,6.3,4.8c0.4,0.3,0.8-0.4,0.4-0.7c-2.1-1.6-4.2-3.2-6.3-4.8
					C605.4,453.9,605,454.5,605.4,454.8L605.4,454.8z"/>
			</g>
		</g>
		<g>
			<g>
				<path class="st33" d="M595.4,549.6c3.7-1.7,7.8-1.7,11.3-3.7c3.1-1.7,5.8-4.2,8.3-6.6c0.4-0.3-0.2-0.9-0.5-0.5
					c-3,2.8-6,5.6-9.8,7.3c-3.1,1.4-6.6,1.5-9.7,2.9C594.5,549.2,594.9,549.8,595.4,549.6L595.4,549.6z"/>
			</g>
		</g>
		<g>
			<g>
				<path class="st33" d="M609.6,540.6c0.7-0.3,1.5-0.6,2.2-1c0.5-0.2,0.1-0.8-0.4-0.7c-0.7,0.3-1.5,0.6-2.2,1
					C608.8,540.2,609.2,540.8,609.6,540.6L609.6,540.6z"/>
			</g>
		</g>
		<g>
			<g>
				<path class="st33" d="M543.5,413.1c-2.2,2.6-4.5,5.5-7.5,7.3c-3.2,1.9-6.7,2.5-10.3,3c-5.7,0.9-10.3,2.3-14.8,5.9
					c-0.4,0.3,0.2,0.9,0.5,0.5c6.4-5.3,13.2-4.7,20.7-6.9c5.2-1.5,8.6-5.3,11.9-9.3C544.3,413.3,543.8,412.8,543.5,413.1
					L543.5,413.1z"/>
			</g>
		</g>
		<g>
			<g>
				<path class="st33" d="M522.8,419.1c-1.8,0.8-3.5,1.8-4.9,3.1c-0.4,0.3,0.2,0.9,0.5,0.5c1.4-1.3,3-2.3,4.8-3
					C523.7,419.6,523.3,418.9,522.8,419.1L522.8,419.1z"/>
			</g>
		</g>
	</g>
	<path class="st32" d="M632.3,393.3c0.6,1.8,1.3,3.7,3,4.6c2.2,1.2,5,0,6.4-2.1c1.4-2-0.3-12.7-0.1-15.2c1.1-15.6-1.6-31.1-2.6-46.8
		c-0.7-10.9-0.5-21.9-2-32.7c-0.5-3.7-4.4-27.3-14.2-32.7C616.9,278.9,615.1,340.8,632.3,393.3z"/>
	<g>
		<g>
			<path class="st22" d="M380.3,407.7c3-5.1,7-9,13.3-9.1c5.6-0.1,11.8,2.6,11.5,9c0,0.5,0.8,0.5,0.9,0c0.3-5.9-4.4-8.9-9.9-9.7
				c-7.6-1-12.8,3.1-16.5,9.3C379.2,407.8,380,408.2,380.3,407.7L380.3,407.7z"/>
		</g>
	</g>
	<g>
		<g>
			<path class="st35" d="M401.3,215.3c-0.3,3,0,7.4,1.2,10.2c0.6,1.4,1.5,2.1,2.5,3.2c0.6,0.7,1.5,0.9,1.1,2.1
				c-0.6,2-4.1,2.7-5.7,2.6c-0.7-0.1-0.7,1.1,0,1.1c2.2,0.1,8-1.6,7.3-4.9c-0.2-1.3-2.1-1.8-2.8-2.5c-2.6-2.6-2.9-8.3-2.5-11.9
				C402.5,214.6,401.4,214.6,401.3,215.3L401.3,215.3z"/>
		</g>
	</g>
	<path class="st10" d="M390.9,218.9c0.8,1.9,0.5,3.8-0.8,4.4c-2.5,1.1-3.5-2.5-5-3.3c-0.2-0.1-0.8,0.1-1,0c-0.3-0.1-0.4-0.4-0.1-0.7
		c0.5-0.6,1.6-1.4,2.2-1.7C388.1,216.5,389.9,216.7,390.9,218.9z"/>
	<path class="st10" d="M409.1,219.9c-0.4,1.8,0.3,3.5,1.4,3.7c2.4,0.5,2.6-2.8,3.8-3.8c0.2-0.1,0.7-0.1,0.9-0.2
		c0.3-0.1,0.2-0.5,0-0.6c-0.6-0.4-1.6-0.9-2.3-1.1C411,217.4,409.5,217.9,409.1,219.9z"/>
	<g>
		<g>
			<path class="st35" d="M399.1,246.9c-1.2-3.9-4.9-6.4-8.9-5.3c-0.7,0.2-0.4,1.3,0.3,1.1c3.4-0.9,6.5,1.2,7.5,4.5
				C398.3,247.8,399.4,247.5,399.1,246.9L399.1,246.9z"/>
		</g>
	</g>
</g>
<g>
	<g>
		<g>
			<path class="st24" d="M544.7,462.9c1-4.8,3.8-8.8,7.9-11.5c0.5-0.3,0-1-0.4-0.7c-4.3,2.7-7.2,7-8.3,12
				C543.8,463.2,544.6,463.5,544.7,462.9L544.7,462.9z"/>
		</g>
	</g>
	<g>
		<g>
			<path class="st24" d="M538.7,462c1.8-5.5,5.1-10.2,9.5-14c0.4-0.4-0.2-1-0.6-0.6c-4.5,3.9-7.8,8.7-9.7,14.3
				C537.7,462.3,538.5,462.5,538.7,462L538.7,462z"/>
		</g>
	</g>
	<g>
		<g>
			<path class="st24" d="M532.7,461.5c1.9-5.8,4.7-11.2,9.8-14.8c0.4-0.3,0-1.1-0.4-0.7c-5.3,3.8-8.2,9.3-10.2,15.3
				C531.7,461.7,532.6,462,532.7,461.5L532.7,461.5z"/>
		</g>
	</g>
</g>
<g>
	<g>
		<path class="st38" d="M408.8,486.5c1.6-3,3.8-5.5,6.5-7.5c0.3-0.2,0-0.8-0.3-0.5c-2.8,2.1-5.1,4.7-6.8,7.7
			C408,486.5,408.6,486.9,408.8,486.5L408.8,486.5z"/>
	</g>
</g>
<g>
	<g>
		<path class="st38" d="M408.1,482.8c0.4-0.4,0.8-0.7,1.1-1c0.3-0.3-0.1-0.7-0.5-0.5c-0.4,0.4-0.8,0.7-1.1,1
			C407.4,482.6,407.8,483.1,408.1,482.8L408.1,482.8z"/>
	</g>
</g>
<g>
	<g>
		<path class="st38" d="M407.8,477.4c1.4-1.7,3-3.1,4.8-4.3c0.3-0.2,0-0.8-0.3-0.5c-1.9,1.2-3.5,2.7-5,4.4
			C407.1,477.2,407.5,477.7,407.8,477.4L407.8,477.4z"/>
	</g>
</g>
<g class="st39">
	<path class="st40" d="M662.8,151.3c0,4.9-4.2,8.9-9.3,8.9s-9.3-4-9.3-8.9s4.2-8.9,9.3-8.9C658.6,142.3,662.8,146.3,662.8,151.3z"/>
	<path class="st40" d="M647.7,151.5c0,2.3-2,4.2-4.4,4.2s-4.4-1.9-4.4-4.2s2-4.2,4.4-4.2S647.7,149.2,647.7,151.5z"/>
	<ellipse class="st40" cx="645.7" cy="142.1" rx="12.5" ry="12"/>
	<path class="st40" d="M656.2,154.9c-3.3-5.6-1.3-12.6,4.5-15.8s13.2-1.3,16.5,4.3s1.3,12.6-4.5,15.8
		C666.8,162.3,659.5,160.4,656.2,154.9z"/>
	<path class="st40" d="M643.2,142.9c-3.3-5.5-1.3-12.5,4.4-15.6s13-1.2,16.2,4.2c3.3,5.5,1.3,12.5-4.4,15.6
		C653.8,150.2,646.5,148.3,643.2,142.9z"/>
	<path class="st40" d="M663.7,143.3c-2.5-4.3-1-9.7,3.4-12.2c4.5-2.5,10.1-1,12.7,3.3c2.5,4.3,1,9.7-3.4,12.2
		C671.9,149.1,666.3,147.6,663.7,143.3z"/>
	<path class="st40" d="M670.7,149.1c-1.9-3.3-0.8-7.4,2.6-9.3c3.4-1.9,7.7-0.7,9.6,2.5c1.9,3.3,0.8,7.4-2.6,9.3
		C677,153.4,672.6,152.3,670.7,149.1z"/>
	<path class="st40" d="M658.5,136.2c-1.8-3-0.7-6.7,2.4-8.4c3.1-1.7,7-0.7,8.8,2.3c1.8,3,0.7,6.7-2.4,8.4
		C664.2,140.1,660.3,139.1,658.5,136.2z"/>
</g>
<g class="st41">
	<path class="st42" d="M739.7,46.4c0,8.2-7,14.8-15.7,14.8s-15.7-6.6-15.7-14.8s7-14.8,15.7-14.8C732.7,31.6,739.7,38.2,739.7,46.4z
		"/>
	<path class="st42" d="M714.6,47.8c0,3.9-3.3,7-7.4,7s-7.4-3.1-7.4-7s3.3-7,7.4-7S714.6,43.9,714.6,47.8z"/>
	<ellipse class="st42" cx="703" cy="28.7" rx="21.1" ry="19.9"/>
	<path class="st42" d="M731.5,54.5c-5.6-9.2-2.2-20.9,7.5-26.2s22.2-2.1,27.7,7.1c5.6,9.2,2.2,20.9-7.5,26.2S737.1,63.7,731.5,54.5z
		"/>
	<path class="st42" d="M704.1,28.3c-5.5-9-2.2-20.6,7.4-25.8c9.6-5.2,21.8-2.1,27.3,7c5.5,9,2.2,20.6-7.4,25.8
		S709.6,37.3,704.1,28.3z"/>
	<path class="st42" d="M741.3,33.3c-4.3-7.1-1.7-16.1,5.8-20.2s17.1-1.6,21.4,5.5s1.7,16.1-5.8,20.2
		C755.2,42.8,745.6,40.3,741.3,33.3z"/>
	<path class="st42" d="M757,43c-3.3-5.4-1.3-12.2,4.4-15.3s13-1.2,16.2,4.2c3.3,5.4,1.3,12.2-4.4,15.3C767.6,50.2,760.3,48.3,757,43
		z"/>
	<path class="st42" d="M732.5,19.2c-3-4.9-1.2-11.1,4-13.9s11.8-1.1,14.8,3.8s1.2,11.1-4,13.9C742,25.8,735.4,24.1,732.5,19.2z"/>
</g>
<g class="st43">
	<path class="st42" d="M625.4,80.9c-0.8,7.9-8.4,13.7-16.8,12.8s-14.5-8.1-13.7-16s8.4-13.7,16.8-12.8
		C620.1,65.8,626.2,73,625.4,80.9z"/>
	<path class="st42" d="M600.6,78.6c-0.4,3.8-4,6.4-7.9,6c-4-0.4-6.9-3.8-6.5-7.6c0.4-3.8,4-6.4,7.9-6
		C598.1,71.5,601,74.9,600.6,78.6z"/>
	
		<ellipse transform="matrix(0.1066 -0.9943 0.9943 0.1066 472.3287 651.9636)" class="st42" cx="599" cy="63.1" rx="19.5" ry="20.6"/>
	<path class="st42" d="M613.9,85.5c-4.5-9.5,0-20.6,10-24.7s21.8,0.3,26.2,9.8c4.5,9.5,0,20.6-10,24.7
		C630.1,99.4,618.4,95,613.9,85.5z"/>
	<path class="st42" d="M594.8,64c-4.4-9.4,0-20.3,9.9-24.3s21.4,0.3,25.8,9.7s0,20.3-9.9,24.3S599.2,73.3,594.8,64z"/>
	<path class="st42" d="M628.3,68.3c-3.5-7.3,0-15.8,7.7-19s16.8,0.2,20.2,7.5c3.5,7.3,0,15.8-7.7,19S631.7,75.6,628.3,68.3z"/>
	<path class="st42" d="M638.7,78.7c-2.6-5.6,0-12.1,5.9-14.5s12.8,0.2,15.4,5.7c2.6,5.6,0,12.1-5.9,14.5
		C648.2,86.9,641.4,84.3,638.7,78.7z"/>
	<path class="st42" d="M621,55.9c-2.4-5.1,0-11,5.3-13.2s11.6,0.2,14,5.2c2.4,5.1,0,11-5.3,13.2C629.7,63.3,623.4,60.9,621,55.9z"/>
</g>
<path id="path1797_1_" class="st10" d="M550.1,206.5c0.1,1.7-0.9,3.1-2.1,3.1c-2.5,0.1-2.1-2.9-3.1-4.1c-0.1-0.1-0.7-0.2-0.9-0.3
	c-0.2-0.2-0.2-0.4,0.1-0.6c0.7-0.3,1.8-0.6,2.5-0.6C548.6,203.9,550,204.5,550.1,206.5z"/>
<path id="path1797_2_" class="st10" d="M571.5,205.5c0,1.7,0.8,3.1,1.9,3.1c2.3,0.1,1.9-2.9,2.9-4.1c0.1-0.1,0.7-0.2,0.8-0.3
	c0.2-0.2,0.1-0.4-0.1-0.6c-0.6-0.3-1.6-0.6-2.3-0.6C572.9,202.9,571.6,203.5,571.5,205.5z"/>
<path class="st10" d="M547.4,175c7.5,4.5,20.7,5.3,24.8,17.8c5.4,16.1,19.9,18,19.9,18s-1-6.9,12.4-4.1c3.2,2.8-1.4-25.1-1.4-25.1
	l-11.5-11.1l-25.9-4.2l-21.9,3.4"/>
<path class="st10" d="M548.4,176.4c1.6,8.8-10.9,15.4-13.5,20.4l-4.7,11.9l-1-12.3l2.2-17.1l8.6-11.1l11.8-4.3
	c0,0,23.3-3.2,23.3-2.7s6.1,7.6,6.1,7.6l-1.5,4.8h-29.1L548.4,176.4z"/>
<path class="st18" d="M598.8,202.9c-5.5-1-10.7-3.5-14.7-7.4s-6.6-9-9.4-13.7c-2.4-3.9-5-8-9-10.6c-4.4-2.8-9.9-3-15-3.1
	c-0.6,0-0.6,1,0,1c6.1,0.1,12.2,0.5,16.9,4.8c4,3.7,6.4,8.7,9.1,13.3c5,8.4,11.8,14.8,21.8,16.6C599.1,204,599.4,203,598.8,202.9z"
	/>
<path class="st18" d="M602.1,193.3c-5.1,0.5-10.2-0.6-14.4-3.5c-4.4-3-7.1-7.5-9.7-12c-4.1-7-9.8-15.2-19.1-13.8
	c-0.6,0.1-0.4,1.1,0.3,1c11.8-1.7,16.4,12,21.9,19.6c4.9,6.8,12.6,10.6,21,9.8C602.7,194.3,602.7,193.3,602.1,193.3z"/>
<path class="st18" d="M603.3,182.1c-3.9,0-8-0.1-11.8-1.2c-3.9-1.1-6.9-3.5-9.4-6.6c-4.1-5.1-7.4-11.5-14.2-13.2
	c-0.6-0.2-0.9,0.8-0.3,1c8.1,2,10.9,10.8,16.6,15.9c5.3,4.8,12.4,5,19.2,5.1C604,183.1,604,182.1,603.3,182.1z"/>
<path class="st18" d="M544.2,173.6c-6.2,2.5-10.3,8.1-10.9,14.8c-0.1,0.6,0.9,0.6,1,0c0.5-6.1,4.4-11.5,10.1-13.8
	C545,174.4,544.8,173.4,544.2,173.6z"/>
<path class="st18" d="M537.6,171.7c-3.3,1.6-6,4.3-7.4,7.7c-1.8,4.4-1.4,9.5-1.5,14.1c0,0.6,1,0.6,1,0c0.1-4-0.2-8.5,1-12.4
	c1.2-3.8,3.9-6.8,7.5-8.6C538.7,172.2,538.2,171.4,537.6,171.7z"/>
</svg>
