<?xml version="1.0" encoding="utf-8"?>
<!-- Generator: Adobe Illustrator 25.3.1, SVG Export Plug-In . SVG Version: 6.00 Build 0)  -->
<svg version="1.1" id="Layer_1" xmlns="http://www.w3.org/2000/svg" xmlns:xlink="http://www.w3.org/1999/xlink" x="0px" y="0px"
	 viewBox="0 0 1366 768" style="enable-background:new 0 0 1366 768;" xml:space="preserve">
<style type="text/css">
	.st0{fill:#F4EBE1;}
	.st1{fill:none;stroke:#DDC9BA;stroke-width:10;stroke-miterlimit:10;}
	.st2{fill:#679367;}
	.st3{fill:#80AD80;}
	.st4{fill:#CEC2B6;}
	.st5{fill:#C0C5F2;}
	.st6{fill:#796E65;}
	.st7{fill:#9A4545;}
	.st8{fill:#73A0BE;}
	.st9{fill:#96C7F6;}
	.st10{fill:#F0E6E1;}
	.st11{fill:#007CC7;}
	.st12{fill:#E5D0CF;}
	.st13{fill:#EA8FC3;}
	.st14{fill:#6B4C33;}
	.st15{fill:#C09B7E;}
	.st16{fill:#FFFFFF;}
	.st17{fill:#A8D35E;}
	.st18{fill:#422645;}
	.st19{fill:none;stroke:#853535;stroke-linecap:round;stroke-miterlimit:10;}
	.st20{fill:none;stroke:#C9C1BD;stroke-linecap:round;stroke-miterlimit:10;}
	.st21{fill:none;stroke:#BC8873;stroke-miterlimit:10;}
	.st22{fill:none;stroke:#5E8296;stroke-miterlimit:10;}
	.st23{fill:none;stroke:#514A3F;stroke-linecap:round;stroke-miterlimit:10;}
	.st24{fill:none;stroke:#514A3F;stroke-miterlimit:10;}
</style>
<g id="Layer_5">
	<path class="st0" d="M913.4,120.2c-97.2-28.3-198.3-33.8-299-23.1c-54.7,5.8-109.7,12.1-162,29.2c-28.2,9.2-56.1,22-76.9,43.2
		c-23.9,24.4-35.9,57.3-45.7,89.4c-7.9,26-24.5,38.9-45.9,55.2c-45.2,34.4-85,68.1-111.3,119.9c-0.7,1.3-1.3,2.7-2,4
		c-42.9,87.8,15.7,191.3,113,200.3c198.7,18.4,777.9,61,776.3-66.1c0-0.3,0-0.6,0-0.8s0-0.3,0-0.5c0-0.1,0-0.2,0-0.4
		c0-0.3,0-0.6-0.1-0.9c0-0.1,0-0.2,0-0.3c0-0.2,0-0.4,0-0.6c0-0.3-0.1-0.6-0.1-0.9v-0.4c-0.1-0.4-0.1-0.9-0.2-1.3c0-0.1,0-0.1,0-0.2
		c-0.4-2.7-1.1-5.6-2-8.4c-9-27.5-67.5-34.2-50-104.4c11-44.2,58.9-54.3,93.7-88.1c24-23.3,40.4-44.4,42.5-77.4
		c1.1-16.4-2-41.7-10.7-56c-9.4-15.5-29.6-34.8-45.1-44.2C1063.4,172.5,947.4,130.1,913.4,120.2z"/>
	<path class="st1" d="M402,97.8c-35.5,41.7-54.3,95-67.2,148.2c-17.3,71.1-25.5,144.9-19,217.8s28,145,66.9,207
		c1.6,2.5,3.6,5.3,6.6,5.6"/>
	<path class="st1" d="M638.5,87.4c-35.5,41.7-54.3,95-67.2,148.2c-17.3,71.1-25.5,144.9-19,217.8s28,145,66.9,207
		c1.6,2.5,3.6,5.3,6.6,5.6"/>
	<path class="st2" d="M570.9,237.1c4.9-12.6,18.6-15.2,36.2-19.4c17.6-4.2,93.2,0,93.2,0s36.8-1.6,45.3,3.4s6.4,9.6,6.4,9.6
		s2-4.6,33.2-2.6s121.8,2.9,127.2,7.1c5.5,4.2,8.1,7,8.1,7s7.3-1.8,16,0s118.1,13.1,129.4,13.1c11.3,0,21.2,8,20.6,20.6
		s2,204.1-21.9,233.1c-23.9,29-16.6,66.8-18.6,78.8c-2,11.9-43.1,31.2-64,51.1c-20.9,19.9-20.6,27.9-35.7,28.5
		c-15.1,0.7-145.1-47.5-154.4-35.3c-21.9-11.2-154.8-17.7-162.7-30.4c-7.9-12.6-4.5-19.9-4.5-19.9s-10.7,13.3-40.5-11.9
		s-51.3-95.6-51.3-95.6l37.4-176.1C570.2,298.1,566,249.7,570.9,237.1z"/>
	<path class="st3" d="M570.2,298.1"/>
	<path class="st3" d="M736.6,225.9c0,0-16.5,3.3-15.4,24.6c1.1,21.2,1.4,131.8-5.6,137.4s-9.8,63.4-14.5,62.9s-41,3.4-41,3.4
		l-43.9-31.9l-37.9-119.6c0,0-1.3-32.3-0.7-50.9c0.7-18.6,10.6-21.7,21.2-24.3s58.4-3,58.4-3L736.6,225.9z"/>
	<path class="st3" d="M752,234.3c0,0-13.5,6.6-12.8,23.9s6,83.8-2.7,92.9s22.8,132.5,22.8,132.5l65.7,10.6l48.8-13.6
		c0,0,17.1-194.8,15-214s11-26.9,11-26.9L752,234.3z"/>
	<path class="st3" d="M915.1,247.3c0,0-15.3,1.8-12,27.9c2.5,19.9,4.9,151.7-0.4,173.4c-5.3,21.7,30.2,61.5,33.2,60.4
		s47.5,43.2,55.3,44.8c7.8,1.5,34.3,1.8,36.3,0s2.7-21,4-23s43.1-106.3,27.2-244.3c-1.5-17,1.5-22.9,1.5-22.9L915.1,247.3z"/>
	<path class="st3" d="M589,568.8c0,0,22.2,15,35.6,6.6c0,0,1.5,12.4,11.3,19.9c9.7,7.5,139.8,16.5,154,25.5s103.9,22.6,103.9,22.6
		s41.8,16.4,50.1,14.7c8.4-1.8-8.4-30.2-1.8-37.4c6.6-7.3-127.4-27.6-129.6-27.6c-2.2,0-67.7-14.3-67.7-14.3l-111-17.9l-18.1-14.7
		L589,568.8z"/>
	<path class="st4" d="M444.2,369.5c21.9-2,36.5-7.3,37.8-35.2c1.3-27.9,10-61.5,16.6-74.6s-6.6-44.2-22.6-46.9
		c-15.9-2.7-49.8,7.1-59.1,35.8c-9.3,28.6-21.2,71.1-10,96.3C418.3,370.1,444.2,369.5,444.2,369.5z"/>
	<path class="st5" d="M461.4,252c2.7-10.6,3.3-24.6-10-33.4c-1-0.6-2-1.2-2.9-1.6c-13.2,5.3-26.3,15.5-31.5,31.6
		c-9.3,28.6-21.2,71.1-10,96.3c3,6.7,7,11.6,11.4,15.1c3.3,0.5,6.9,0.6,10.5-0.1c23.9-4.2,18.6-45.6,19.9-61.8
		C450.1,281.9,458.8,262.6,461.4,252z"/>
</g>
<g id="Layer_4">
	<path class="st6" d="M465.2,670.1c-1.3-1.8-64.6-69.5-65.9-112.4c20.4-44.2,132.2-98.7,132.2-98.7l56.3-2.7l35.4,6.6l43.3,24.3
		c0,0,1.4,24-44.2,66.9s-59.7,45.1-59.7,45.1s4.9,9.7,0,10.6c6.6,5.8,6.6,54.4,8.4,81.8c1.4,21.3-24.8,0-24.8,0s-43.8-54-44.7-90.2
		c5-27.9,26.1-58,26.1-58s-36.3,14.2-42.9,15.5s-14.6,0.4-14.6,4.4s5.8,7.1,0.4,7.5c0,0,2.2,8-2.2,11.5c-4.4,3.5,19,57.1,18.1,69
		C485.5,663.4,465.2,670.1,465.2,670.1z"/>
	<path class="st7" d="M693.1,684.7c0,0-33.4-35.9-36-66.4s62.1,15.6,62.1,15.6s10,40.8,5.1,50.8
		C719.6,694.6,693.1,684.7,693.1,684.7z"/>
	<path class="st8" d="M782.4,625.8c0.3-7.1,10.2-27.4,22.1-34.5c11.9-7.1,62.5-50.6,62.5-50.6l87.4,20.2l15,30.4l-2.8,18.7
		c0,0-53.4,40.1-78.6,42.8c0,0,11.5,23.4,11.7,39.4c0.2,15.9-39.6,5.3-39.6,5.3s-45.1,7.1-54-12.8S781.9,637.8,782.4,625.8z"/>
	<path class="st8" d="M651.2,602.7c0,0,3.6-45.8,54.4-78.6s60.3-1.8,60.3-1.8s25.6-6.8,31.3,21.1s-60.3,66.2-80.6,73l2.7,17.6
		l-27.2,5l-12.9-10l-20.9-1.7C658.2,627.3,652.2,612,651.2,602.7z"/>
	<path class="st9" d="M651.2,620.8c-1.2-1.5-1.7,9.8,1.7,11.7c3.3,2,23.2,3.6,27.5,2.3c1.2,2.2,0.4,7.1,5.2,8c6.9,1.3,33.8,1,38.8-6
		c1.7-2.3-3.5-10-3.5-10s-11,5.4-33.2,3.4c-1.8-1.9-2.1-5.7-2.1-5.7S657.5,628.3,651.2,620.8z"/>
</g>
<g id="Layer_3">
	<path class="st10" d="M605.1,271.9c0,0-7.3-2-11.9,8.6c-4.6,4.5-49.8,23.6-49.8,60.7c0,22.2,4.6,25.9,4.6,25.9s-2.3,61.4-16.6,91.9
		c37.2,0.3,88.9,18.6,88.9,18.6s33.5-19.6,51.4-18.9c18.6-32.2,15.3-87.9,15.3-87.9s11.3,19.5,21.6,24.8c10.3,5.4,24.6,8.8,24.6,8.8
		L752,389l-28.2-36.8l-8.8-4.8c0,0-11.8-14.1-12.8-22c-1-8-14-17.3-19.3-19.9c-5.3-2.7-39.8-29.2-39.8-29.2L605.1,271.9z"/>
	<path class="st11" d="M629.2,316.7c0,0,5.1-11.3,10.4-11.3c5.3,0,11.6,10.1,11.6,10.1l-6,12.5c0,0,1.7,114.1-13.1,133.4
		s-14.4,11.9-14.4,11.9L607.1,460c0,0,35.5-85.3,30.7-131.4C633.6,325.1,629.2,316.7,629.2,316.7z"/>
	<path class="st10" d="M716.7,449.3l17.9-20.6h32.1l22.2-4.9c0,0,0.8,4.2,8.5,7.1s17.7,11.3,18.4,14.4s1.8,24.6,1.8,24.6
		s-8.8,8.6-9.1,10c-0.2,1.3-4.4,15.5-4.4,15.5l-9.3,12.2l-2.4,31.6c0,0-16.7,3.5-19.6,0c-2.9-3.5-22.8-19.2-37.9-20.4
		c-15-1.1-20.8-15-20.5-17.3C714.7,499.3,716.7,449.3,716.7,449.3z"/>
	<path class="st12" d="M809.1,445.8c-4.6,2-9.5,4-10.4,10.4s-1.5,26.4-1.5,26.4l27.9,11.6c0,0,11.3-36.3-9.3-48.9L809.1,445.8z"/>
	<path class="st12" d="M560.1,325.4c7-1.9,23.2,4.6,31,17.5c7.7,12.8,25.7,55.5,25.7,55.5s6.2,1.9,4.9,6.1c0,0,4.9-0.5,4.9,3
		s54,12.8,63.9,10.1c10-2.8,10.8-0.8,10.8-0.8l4.4,15.7c0,0-4.5,9.8-6.4,8.4s-8.4,2.9-8.9,2.9s-9.3-0.7-9.3-0.7l-6-0.9
		c0,0,1.1,2.4-5.8,3.5s-58.4,6.6-71.2-1.5c-12.8-8.2-52.9-75.4-54.2-91.3C542.6,336.9,549.5,328.3,560.1,325.4z"/>
	<path class="st13" d="M749.3,497.5c0,0-24.8-24.4-15.2-34.6s20.9,4.5,20.9,4.5s17.1-11.5,22.9-1.3
		C783.7,476.3,749.3,497.5,749.3,497.5z"/>
	<path class="st14" d="M838.2,463.7c0,0,21.8,21.8,37.2,18.6c15.4-3.2,18.7-21.6,18.9-22.9s1.7-52.9,1.7-52.9l-3.7-11
		c0,0-16.9,1.2-29.9,17.1S838.2,463.7,838.2,463.7z"/>
	<path class="st15" d="M882.3,452.7c0,0,1.4-50,7.1-55.6c5.7-5.6,42.1-7.5,53.1-5.8s50.8,20.2,61.2,31.5c0,0-12.1,3.4-16.4,32.1
		c-3.1,20.4-4.3,57.2-4.3,57.2l6.3,26.2l0.5,24.1c0,0-9,37-23.1,47.6c-1.3-11.6-7-29.7-31.4-42.8c0,0-41.1-21.4-75.2-22.1
		c0,0,6.6-5.5,9.5-22.9c2.8-17.4,12.8-52.5,12.8-52.5L882.3,452.7z"/>
	<path class="st14" d="M1031.4,489.9c0,0-14.4,18.4-52.6,14.3c-2.8,2,4.8-63.4,7.6-70c5.3-12.4,17.3-11.3,17.3-11.3
		S1027.1,449.8,1031.4,489.9z"/>
	<path class="st16" d="M877,541.5c-7.9-6.9-12.8-25.2-11.7-30.4c1.2-5.1,6.1-22.1,6.1-22.1s12.1-11.6,12.4-12.4
		c0.3-0.8,0.8-15.1,0.8-15.1s4.6-5,5.6-5s4.8,1.3,5.5,1.5s6.3,8.5,6.3,8.5s17.4,4.4,18.4,10.7s1.7,13.8,1.7,13.8l-1.2,7.6
		c0,0-2.5,5.9-3.3,7c-0.8,1.2-3.8,21.9-3.8,21.9s-0.5,17.6-3,19.9s-16.4,4.3-23.9,0C879.6,543.2,881,545,877,541.5z"/>
	<path class="st17" d="M703.1,406.1c0,0,17.3-8.5,18.1-8.6c0.7-0.1,7.7-1.8,7.7-1.8l12.8,0.5l2.9,4.7l3,9.9c0,0-3.8,7.7-5.8,7.9
		s-26.9,3.1-27.4,2.7s-12.6-8-12.6-8.3S703.1,406.1,703.1,406.1z"/>
	<path class="st17" d="M904.5,421.3c9.3,4.4,16.1,17.6,16.1,19.6s-18.4,25.7-18.4,25.7s-6.7-5.6-19.8-3.6s-12.9-14.3-12.9-14.3
		l14.2-30.4C883.7,418.2,893,415.8,904.5,421.3z"/>
	<path class="st16" d="M906.9,439c0,0,1.2-2.4,2.8-1.4c1.7,1,10.1,12.9,12.6,14.9s16.8,18.2,18.2,20.1s6.1,11.9,1,17.3
		c-5.1,5.3-8.1,7.8-12,6.1c-3.9-1.7-4.2-7.3-4.2-7.3s5.7,2.8,8.5,0.7c2.8-2.2,5.6-4,4.8-8s-4.1-9.1-9.2-13.6
		c-5.1-4.5-9.6-11.1-11.4-13.1c-1.8-2-6.6-6.4-8.6-9.4C907.5,442.3,906.5,441.6,906.9,439z"/>
	<path class="st16" d="M707.1,435.2c0,0-14.9,17.6-15.3,18.2s0,22.1,0,22.1s-5,25.4-3.3,32.4s5.3,13.6,13.9,16.4s15.5,7.5,29.1-0.7
		s6.6-27.7,6.6-27.7l-3.1-42.3l-4.4-18.4L707.1,435.2L707.1,435.2z"/>
</g>
<g id="Layer_2_1_">
	<path class="st18" d="M725.7,378.1c0,0-11.1,1-7.8-12.4c2.6-8,5.3-10.3,5.3-10.3s-8,0.3-8.8-4.6c-0.8-5,5.6-6.3,5.6-6.3
		s-8-11.4-4-13.3c4-1.8,8.8,1.8,8.8,1.8s-4.1-11.6,2.8-16.4c7-4.8,10,8.6,10,8.6s6-7.1,10.8-2.7c4.8,4.5-0.8,10.1-0.8,10.1
		s3.3-2.3,6.5,3s-1.8,8.5-1.8,8.5s5.3-1.8,14.6-0.2c9.3,1.7,15.9,6.6,15.9,6.6s-3.3-13.8,6.5-15.8s7.5,8.8,7.5,8.8
		s13.1-15.4,21.7-11.3s-1.5,13.1-1.5,13.1s13.9-1.2,14.1,6.6c0.2,7.8-7.8,10.8-7.8,10.8s7,7,4,11.1s-17.4,0.8-17.4,0.8
		s1.7,7.5-1.5,9.2s-10-4.4-10-4.4s-0.7,4.4-2,4.4c-1.3,0.1-3.8-1.9-3.8-1.9s0.7,8.1-1.3,9.4s-7,10.8-7,10.8l-13.1,2.2l-16.1-14.1
		L725.7,378.1z"/>
	<path class="st18" d="M880.9,307.1l0.2-3c0,0,9.5-14.8,23.7-16.7c14.2-1.9,38.5-3.1,49.4,18.2s3.5,36.4,3.5,36.4s-13,9.4-13.7,9.1
		c-0.6-0.3-9.2-1.4-11.7-2.7s-26-30.4-26.7-31.5C905,315.8,880.9,307.1,880.9,307.1z"/>
	<path class="st7" d="M652.5,187c-5.4-6.7-20-7.8-26.9-8c-6.9-0.1-25.9,4.6-33.2,15.3s-8,17.6-7.6,22.6s4,19.2,4,19.2
		s-6.7,2.7-4,12.6c2.7,10,12.6,8.3,12.6,8.3s6,10,3.6,15.3s26.9,32.2,38.5,33.2c10.9-3.6,11.3-13.3,11.3-13.3l15.9-42.1
		c0,0,0-7.6-2.3-12.6s-1.7-15.9-0.7-21.2C664.8,210.9,658,193.7,652.5,187z"/>
	<path class="st3" d="M677.4,456.4c0,0-45.1,7.9-63.7,25.9c-4,3.9-3.3,10.6-1.3,13.9s25.2,9,32.2,8.3s26.5-15.6,32.8-19.6
		C683.7,480.9,677.4,456.4,677.4,456.4z"/>
	<path class="st7" d="M724.6,396.8c0,0-0.4-3.4-1.4-5.4s-3-10.9-1.7-16.9s3-13.9,6.3-14.3c3.3-0.3,25.2-6.6,33.5-2.7
		c8.3,4,15.6,13.9,14.9,18.9s-4.3,15.6-2,20.6s5.6,1.3,5.6,1.3s-0.3-9.3,6-9.3s9,8,9,12.3s-3,11.3-9.6,9.3c0,0,0.7,12.3,3.6,13.3
		s-6.3,25.5-33.2,14.9c-1.7,21.6,28.2,48.4,34.8,56.7c4.9-5.1,6.6-12.9,6.6-12.9l22.6,8.6c0,0-9.6,30.5-21.9,33.8
		c-12.3,3.3-47.1-10.9-54.1-72.3l-12.9-9.3c0,0-30.2,1-33.5-4s3.6-14.9-4-21.9h-3c0,0,0-18.2,3.6-19.9c3.6-1.7,7.4-7.1,14.3-9.8
		c6.9-2.7,11.6-3.1,7.3,2.2c-2.7,3.3-2.7,5-2.7,5s1.9-3.3,7-1s5.3,3.6,3.6,5.3c-1.7,1.7-4.6,1.7-4.6,1.7s3.3,0.3,2,2.7
		c-1.3,2.3-11.3,3-11.3,3s8,8.6,24.6,5.6c-3.2-7.2,0.4-7.3,4.5-4.6c-3.1-5.8,0.1-6.3,2.6-5.8C737,395.4,724.6,396.8,724.6,396.8z"/>
	<path class="st3" d="M805.5,546c6.3-2.1,36.2-22.9,45.8-23.7s34.5-30.2,34.5-30.2l-25.5-12.6c0,0-81,35.3-85.3,42.7
		c-4.3,7.5-3.1,12.6,3.6,15.4C785.3,540.5,800.5,547.6,805.5,546z"/>
	<path class="st7" d="M681.1,443.1c0,0-22.9,30.5-12.9,48.4c19.9,3.3,22.2-10.3,22.2-10.3l15.3-40.4l-4.6-7l-3.6,5.6L681.1,443.1z"
		/>
	<path class="st7" d="M881.1,304.1c8.6-6.2,11.9-5.7,27.9-5.9c15.9-0.2,33.5,10.3,24.9,21.5c3.1,4.4,14.9,6,5.6,23.9
		c1,0.7,2.7,2.5,3.1,1.4c6.2-18.7,16.5-6.5,15.5-5.1c0,0,7.3,16.3-11.3,18.6c0,0-2.7,24.9,7.6,31.2c10.3,6.3,27.5,18.6,27.5,18.6
		s-11.3,22.9-59.7,14.3c-33.8-11.3-23.9-29.2-23.9-29.2s-17.9-8.6-20.2-21.9s-0.3-23.9,1.3-27.2c1.7-3.3-2.1-15.6-2.4-21.9
		C876.8,316,877.5,312.7,881.1,304.1z"/>
	<path class="st7" d="M848.6,472c0,0-5,17.3-11.9,22.9c-7,5.6-13.9,18.6-4,25.9c10,7.3,16.9,12.3,33.8,0c0-9.3,2-23.5,7-28.7
		s16.9-17.8,18.2-21.8s-2.7-7.4-2.7-7.4s11.9-17.7,10.6-22.1c-1.3-4.4-12.3,13.2-18.6,15.2s9.6-20.9,9.6-26.5s-17.9,9.3-16.9,18.9
		c0,0-2.3-3.9,4.1-16c6.4-12.2-0.3-12.2-0.9-12.2s-2.3,5.4-2.3,5.4s-9.6,3.4-11,9.5s0.5,12.4,2.4,13.6c0,0-4.9,7.3,10.8,28.2
		l-3.2,3.6C873.8,480.6,859.9,479.6,848.6,472z"/>
	<path class="st7" d="M921.6,483.6c0,0,11.3,4,9.3,17.9c9.6,11.3,48.8,24,48.8,24s3.6-12.3,2.3-21c6,0,32.5-1.7,34.8-5.7
		s-6.3,42.8-13.3,46.5c-7,3.6-21.6,15.6-21.6,15.6s-27.9-3.6-49.8-38.7c-15.3,10.1-47.1,5.1-48.4-8.5c-4-3-4-8.3-4-8.3s-10-5,0-7.6
		c0,0,1.7-6.3,11.3-5.8s26.2,4.5,26.2,4.5L921.6,483.6z"/>
	<path class="st18" d="M892.3,327.2c1.1-2.2-4.7-4.4-7.2-4.1s-7.6,2.6-7.2,4.9s2,1.4,3.1,1.2s6.4-1.6,8.3-1.2
		C891.1,328.2,891.5,328.7,892.3,327.2z"/>
	<path class="st18" d="M910.8,328.3c-1.2-2.6,2.2-4.9,5.5-4.6s12.3,1,13.7,3.2s2.6,4.3-0.4,4.1s-9.9-1.2-12.7-0.8
		C914,330.6,911.8,330.7,910.8,328.3z"/>
	<ellipse class="st18" cx="915.1" cy="343.9" rx="2.7" ry="4.1"/>
	<ellipse class="st18" cx="886.2" cy="339.8" rx="2.7" ry="4.1"/>
	<path class="st18" d="M735.5,376.6c2.1,1.7,0.9,3.4-1.6,4s-8.9,1.5-9.9,2.7s-3.3,0.1-2.8-1.6s2.4-4.2,4.6-4.7
		C728.1,376.7,734,375.3,735.5,376.6z"/>
	<path class="st18" d="M745.6,379.2c0,2.6,0.7,2.7,2.2,2.8s10,0.9,11.3,1.9s3.9,0.6,3.5-0.7c-0.4-1.2-1.4-3.8-5.1-5.3
		c-3.7-1.5-7.7-1.3-9.2-1.2C746.8,377,745.6,378.2,745.6,379.2z"/>
	<ellipse class="st18" cx="752" cy="393.7" rx="2.7" ry="4.7"/>
	<ellipse class="st18" cx="728.9" cy="390.9" rx="2.7" ry="4.7"/>
	<path class="st18" d="M616.3,226.7c-1.4-4.2,6-7.1,7.1-7.5c1.2-0.4,6.6-1.1,9.3,0s5.1,3.3,5,4.7s-1.8,1.4-2.8,0.9
		c-1-0.6-8.4-0.6-10.4,0s-3.9,2.7-5.4,2.7C617.8,227.4,616.3,226.7,616.3,226.7z"/>
	<path class="st18" d="M650.2,222c0.1-1.8,0.8-3.9,3.9-4.3c3.1-0.3,7.8,0.2,9,1.2c1.2,1.1,1.7,3.9,0.3,4.1c-1.4,0.2-4.7-0.5-6.1-0.4
		s-3.4,2-4.9,1.8C650.8,224.2,650.1,223,650.2,222z"/>
	<ellipse class="st18" cx="629.2" cy="235.2" rx="2.9" ry="4.5"/>
	<ellipse class="st18" cx="657.1" cy="232.6" rx="2.9" ry="4.5"/>
	<path class="st7" d="M800.7,440c0,0-1.9,3.9-4.6,2.7c-2.8-1.2-1.2-12.3,1.1-14.8s6.3-10.6,11.8-9.5s5.9,4.1,5.9,4.1s4.4-0.9,6.3,3
		c1.9,3.9,1,5.2,1,5.2s4.1,0.7,4.8,3.8c0.7,3.1-2.4,9.1-2.4,9.1s4.1-2.7,5.2,0.4c1.1,3.1,0.6,7.1-2,9.7c-2.6,2.7-11.1,8.8-15.1,5.7
		c-4-3.1,1.9-8.8,1.9-8.8s-5.1,3.4-7.2,1.1s-0.8-6.3-0.8-6.3s-2.3,3-3.5,0.9C801.8,444.1,800.7,440,800.7,440z"/>
</g>
<g id="Layer_6">
	<path class="st16" d="M597,237.5c0,0,5.2,3.5,5.7,6.1s27.4,16.1,27.4,16.1l2-3.7C625.5,255.8,597,237.5,597,237.5z"/>
	<path class="st17" d="M657,295.8c0,0-22.1-11.7-24.8-14.7s-7-16.8,0-26.3c7-9.5,16.4-12.1,21.5-11.4c5.1,0.7,13.2,5.8,14.7,8.5
		c1.5,2.8,12.8,23.8,12.8,23.8l-2.7,12.2L657,295.8z"/>
	<path class="st16" d="M759.1,407.7c-0.6,0.1,16.7-9.2,21.4-13.2c-0.7,0.9-0.6,3.4-0.6,3.4l-18.5,12.2
		C761.4,410.1,762,407.2,759.1,407.7z"/>
	<path class="st16" d="M657.1,275.6c2.9-4.6,11-9.6,17.5-4.8c6.5,4.9,4.9,2.2,6.5,7.7c1.7,5.5-0.2,13.9,1.8,24.3s9.3,18.1,9.3,27.6
		s3.3,30.7-4,45.5s-24.2,16.9-33.6,7.8c-9.4-9.1-8.4-26.8-6-42c2.4-15.3,9.1-39.8,8.2-46s-3.5-5.3-3.3-11.5S657.1,275.6,657.1,275.6
		z"/>
	<path class="st3" d="M1053.7,516.8c5.9-0.5,28.2-1,30.5,3s5,7.6,2.4,10.3s-83,62.4-88.3,64.4s-27-2.3-28.8-6.6s-0.9-17.3,0-18.9
		C970.4,567.2,1050,517.1,1053.7,516.8z"/>
</g>
<g id="Layer_7">
	<path class="st19" d="M624.3,211c1.4-2,3.9-2.9,6.3-3.1c2.4-0.2,4.8,0.3,7.3,0.6c5.1,0.7,10.3,0.7,15.4,0.9c0.5,0,1.1,0.1,1.2,0.6"
		/>
	<path class="st19" d="M634.5,203.6c4.6,0,9.2,0.3,13.8,0.6"/>
	<path class="st19" d="M649.9,224.8c4.5,5,6.2,12.3,4.4,18.7"/>
	<path class="st19" d="M624.4,247.7c2.7,0,5.5-1.1,7.4-3.1c1.9-1.9,3.1-4.6,3.1-7.4"/>
	<path class="st19" d="M632.4,248.6c0.9-0.5,1.7-1.2,2.4-2c1.2-1.4,2.1-3.4,1.5-5.2"/>
	<path class="st19" d="M660.4,243.3c-1.9-0.6-3.5-1.9-4.7-3.5c-0.3-0.4-0.5-0.9-0.4-1.3"/>
	<path class="st19" d="M597.7,257.3c1.8-0.1,3.5-1.2,4.4-2.8c0.8,4.9,1.4,9.9,4.4,13.7c1.4,1.7,3.2,2.9,5.1,4.1
		c3.3,1.9,6.7,3.6,10.1,5.3c2.5,1.2,5.1,2.5,7.9,3c0.5,0.1,1.1,0.2,1.4,0.6"/>
	<path class="st19" d="M589.4,242.8c0.2-0.7,1-1.1,1.8-1.3c1.6-0.5,3.5-0.8,5,0c1.1,0.5,1.9,1.5,2.5,2.6s0.9,2.3,1.2,3.5
		c-0.3-0.8-1.3-1.4-2.1-1.1c-0.9,0.2-1.4,1.2-1.2,2.1c0.2,0.7,0.7,1.2,1.2,1.6c0.3,0.2,0.6,0.4,1,0.3"/>
	<path class="st19" d="M733.9,412.5c7.7-0.8,15.4-2.1,22.9-4.1c1-0.3,2.1-0.5,2.9,0.1c0.9,0.6,1,2,0.6,2.9s-0.9,1.2-1.1,2.1
		c-0.2,1.2-0.2,2.1-0.8,3.3c-0.7,1.3-1.5,2.5-2.5,3.6s-2.6,1.9-3.5,3c-0.8,1.1-1.1,2.7-2,3.8c-0.9,1.2-2.1,2.3-3.3,3.3
		c-5.3,4.2-12.1,6.3-18.9,6"/>
	<path class="st19" d="M730,442.9c4,0.2,8.1-0.7,11.5-2.9c3.4-2.2,5.9-5.6,6.8-9.5"/>
	<path class="st19" d="M729,428.4c5.3,0.2,10.6-0.3,15.8-1.6c2.2-0.5,4.5-1.3,6.2-2.8"/>
	<path class="st19" d="M729.9,419.3c2.1,0.5,4.2,0.8,6.4,0.9c7.7,0.4,16-1.2,21.8-6.2"/>
	<path class="st19" d="M752.3,425c2.2,1.5,2.5,4.6,2.7,7.2c0.4,5.3,0.7,10.5,1.1,15.8"/>
	<path class="st19" d="M775.3,422c-2.2,3.7-5.7,6.5-9.5,8.5c-3.2,1.6-6.8,2.7-10.4,3.2"/>
	<path class="st19" d="M790.2,394.6c-0.4-0.5-1.1-0.6-1.7-0.5s-1.2,0.4-1.7,0.7c-0.6,0.4-1.1,0.8-1.6,1.2c-1,1-1.5,2.3-1.8,3.6
		s-0.4,2.7-0.4,4.1c0.2-1.1,1-2,1.7-2.8c0.4-0.4,0.8-0.9,1.4-1c0.6-0.1,1.2,0.2,1.7,0.6c0.4,0.5,0.7,1.1,0.8,1.6
		c0.2,0.7,0.3,1.4,0.4,2.1c0,0.3,0,0.8-0.4,0.9"/>
	<path class="st19" d="M735.8,388.6c-0.2,2.8-0.4,5.5-0.7,8.3"/>
	<path class="st19" d="M738.7,407.4c1.5,1.1,2.8,2.5,3.8,4.1"/>
	<path class="st19" d="M740.7,401.7c1.7,0.5,3.3,1.5,4.6,2.8c0.3,0.3,0.6,0.6,0.8,0.9c1,1.3,2,2.6,2.8,4c0.1,0.1,0.1,0.4-0.1,0.3"/>
	<path class="st19" d="M712.7,393.7c-1.3,1.5-2.2,3.3-3,5.2c-0.4,1.1-0.8,2.2-1,3.4c-0.3,2.6,1,5.4,3.2,6.9c1.7,1.2,3.7,1.6,5.7,2
		c2.1,0.4,4.3,0.9,6.4,1.3c3.1,0.6,6.5,1.2,9.5,0.1c0.4-0.1,0.9-0.3,1.1,0"/>
	<path class="st19" d="M719.7,401.3c-2.1-1.4-4.8-1.8-7.4-1.8c-0.6,0-1.3,0-1.7,0.5"/>
	<path class="st19" d="M696.9,439.5c0.6,0.6,1.2,1.1,1.9,1.6c1,0.7,2.3,1.2,3.5,1.3c0.8,0.1,1.9,0.2,2.2,0.9"/>
	<path class="st19" d="M800.5,440.4c1-4.3,2.2-8.9,5.3-12.1c2.4-2.4,5.6-3.7,8.8-4.7"/>
	<path class="st19" d="M807.1,445.4c0.4-3.7,1.9-7.4,4.5-10.2c2.5-2.8,6.1-4.6,9.9-4.9"/>
	<path class="st19" d="M814.3,450.8c0-0.3,0.2-0.5,0.5-0.7c2.4-2.3,5-4.5,7.6-6.6c0.6-0.5,1.3-1,2.1-0.9"/>
	<path class="st19" d="M895.6,334.3c1.3,6.1-0.2,12.7-4,17.6c-1.2,1.5-1.7,3.3-1.8,5.1s0.6,4.9,1.7,5.5s2,1.1,4,0.8
		c2-0.3,4.6-0.3,5.4-3.5c0.8-3.2,3.2-2.3,3.2-1s3.2,2,3.7,0c0.5-2.1-0.4-3-1.4-4.1"/>
	<path class="st19" d="M893.4,374.8c4.2-0.8,8.7-1.7,12.8-0.4"/>
	<path class="st19" d="M895.5,391.6c8.4,4,18.5,4.5,27.2,1.1c2.8-1.1,5.6-2.6,7.5-4.9"/>
	<path class="st19" d="M913.3,407.8c-1.7-2.1-3.2-4.4-4.4-6.8c-1-1.9-1.9-4-1.8-6.1c0-0.2,0.1-0.5,0.3-0.4"/>
	<path class="st19" d="M955.2,348.5c0.6-1.3,1.2-2.7,1-4.1c-0.1-1.3-0.9-2.6-1.9-3.5c-1.3-1.2-3.4-2-4.9-1c-0.8,0.5-1.2,1.4-1.7,2.2
		c-0.6,1.1-1.2,2.3-1.5,3.5s-0.3,2.6,0.3,3.7c0.7-0.8,1.5-1.6,2.5-2s2.4-0.1,2.9,0.8c0.3,0.5,0.3,1.1,0.3,1.6c0,0.8,0,1.7-0.5,2.4
		c-0.3,0.4-0.7,0.6-1.1,0.8c-0.8,0.3-1.6,0.5-2.4,0.5c0.1,0.2,0.2,0.3,0.3,0.5"/>
	<path class="st19" d="M865.8,451.1c1.6-9.3,5.6-18,9.4-26.5"/>
	<path class="st19" d="M828.1,509.9c0.8-4.8,4.2-8.8,8.2-11.5s8.6-4.4,13-6.4c5.1-2.3,10-5,15.1-7.1c4.9-2.1,10.1-3.8,13.8-7.6"/>
	<path class="st19" d="M879.7,498.1c4.3-0.8,8.8,0,13.1,0.8c5.8,1,11.6,2.1,17,4.4"/>
	<path class="st19" d="M878.9,505.1c3,0.8,6,1.7,9,2.5c1.8,0.5,3.5,1,5.3,1.4c6.3,1.5,12.7,2.3,19.1,3.1"/>
	<path class="st19" d="M883.7,514.2c1.8,1.1,3.8,1.7,5.8,2.2c6.3,1.7,13,3.5,19.4,1.9"/>
	<path class="st20" d="M593.5,282.2c-0.4,4.3,0.8,8.7,2.7,12.6s4.5,7.4,7.1,10.9c3.4,4.6,6.8,9.2,10.1,13.8c2.5,3.4,5.4,7.1,9.5,8.2
		c3.2-5.8,6.7-11.5,10.3-17.1c0.4-0.6,0.8-1.2,1.4-1.7c0.8-0.6,1.8-0.9,2.2-1.8"/>
	<path class="st20" d="M643.6,306.4c3.1,3.7,6.3,7.5,7.6,12.2c0.2,0.7,0.5,1.5,1.2,1.7"/>
	<path class="st20" d="M592.2,426.7c2.5-9,8.9-16.8,17.1-21"/>
	<path class="st20" d="M601.6,425.1c2.8-3.9,5.2-8.2,8.2-12s6.7-7.2,11.2-8.9"/>
	<path class="st20" d="M625.4,408.9c-1-0.2-1.9,0.5-2.7,1.2c-7.6,7-12.9,16.4-15,26.5"/>
	<path class="st20" d="M642.3,432.1c1.7-4,4-7.8,6.8-11.2c0.3-0.4,0.8-0.8,1.3-0.7c0.5,0.1,0.7,0.6,0.9,1c1.4,3.2,2.5,6.5,4.4,9.4
		s5,5.3,8.4,5.4c0.2,0,0.3,0,0.5-0.1c0.1-0.1,0.1-0.3,0.2-0.4c0.5-3.7,1-7.5,1.6-11.2"/>
	<path class="st20" d="M676.5,418.1c0.5,8.7,0,17.5-1.6,26.1c0,0.1-0.1,0.3-0.2,0.3s-0.1-0.3,0-0.2"/>
	<path class="st20" d="M685.2,435.2c-0.5-0.3-1.2,0-1.6,0.4c-0.4,0.5-0.6,1.1-0.7,1.6c-0.2,0.8-0.3,1.8,0.4,2.1
		c0.5,0.3,1.2,0,1.5-0.4c0.4-0.4,0.5-1,0.6-1.6s0.2-1.2,0-1.8s-0.8-1-1.3-0.9"/>
	<path class="st20" d="M650.7,377.6c-0.2,7.1-0.2,14.2-0.1,21.3c0,0.7,0.1,1.4,0.5,1.8s1,0.5,1.6,0.6c6.6,1,13.6,0.1,19.7-2.5
		c1.9-0.8,3.8-1.9,4.9-3.6c1.1-1.7,1.3-3.9,1.5-5.9c0.2-1.8,0.3-3.6,0.5-5.4"/>
	<path class="st20" d="M701.7,357.5c0.6,2-0.4,4.2-1.5,6c-2.3,3.9-5.4,7.3-9,10c1.2,0.3,3.4,1.1,4.4,0.5c3.5-2.3,6.5-5.4,8.5-9.1"/>
	<path class="st20" d="M547.2,450.8c18.6,1.2,37,6.1,53.6,14.4"/>
	<path class="st20" d="M570.9,443.5c11.1,3.2,21.8,8,31.5,14.2"/>
	<path class="st20" d="M757,443c1.5,1.6,3.8,2.4,6,2.7c6,1,12.3,0,17.7-2.9s9.7-7.6,12.1-13.2"/>
	<path class="st20" d="M739.5,514.2c3.2,0.1,6.3,0.3,9.5,0.7c3.6,0.5,7.2,1.3,10.5,2.8s6.3,3.8,8.3,6.8"/>
	<path class="st20" d="M740.4,510.4c4.3-0.4,8.6-0.1,13,0.2"/>
	<path class="st20" d="M893.5,463.7c3.8,5.7,6.4,12.1,7.8,18.8"/>
	<path class="st20" d="M896.2,465.4c3.6,3.3,8,5.9,10.4,10.1"/>
	<path class="st20" d="M714.2,444.3c-1.7,5-3,10-4.1,15.1c-1,4.8-1.7,9.8,0,14.4"/>
	<path class="st20" d="M719.1,444.8c0.7,5.4,1.9,10.8,3.4,16.1"/>
	<path class="st21" d="M903.5,416.6c6.8,6.5,16,10.2,25.3,11.8c9.3,1.6,18.8,1.2,28.2,0.5c1.2-0.1,2.7-0.5,2.8-1.6"/>
	<path class="st21" d="M909.6,549c4.2,0.7,8.1,2.4,11.9,4.2c12.5,5.7,25.4,11.7,34.7,21.8"/>
	<path class="st21" d="M913.5,544c9.2-0.4,18,3.4,26.5,7"/>
	<path class="st22" d="M859,695.5c-1.9-4.5-5.1-8.3-7.9-12.4c-8.5-12.5-12.7-27.4-16.7-42c-0.4-1.5-0.8-3-0.7-4.6
		c0.2-2,1.3-3.8,2.3-5.4c17.3-27.1,40.2-50.6,66.7-68.8"/>
	<path class="st22" d="M866.4,561.3c4,7.7,4.8,17.1,10.1,23.9"/>
	<path class="st22" d="M866.3,579.1c1.7,2.1,3.5,4,5.6,5.7"/>
	<path class="st22" d="M685.4,629.6c-2.4-10.6-3.3-21.6-2.6-32.5c1.4-21.2,22.1-37.3,40.7-47.5c11.6-6.3,25.6-10.1,38-5.6"/>
	<path class="st22" d="M742.1,548c4.8-0.8,9.9-0.9,14.5,0.9s8.3,6.1,8.4,11"/>
	<path class="st22" d="M711.9,537.3c5.8,2.7,11.1,6.5,15.6,11"/>
	<path class="st22" d="M723.5,532.6c2,0,3.6,1.5,4.9,3c2.1,2.3,4,4.8,5.8,7.3"/>
	<path class="st22" d="M732.8,527.2c6.3,1,12.6,2,18.6,3.9c6,2,11.8,5,16.3,9.5"/>
	<path class="st23" d="M543.2,521.4c3.3-22.9,18.3-43.9,38.9-54.5"/>
	<path class="st23" d="M573.5,484.2c3.6-4.6,8.6-7.7,13.6-10.8c2.2-1.3,4.5-2.7,7-2.8"/>
	<path class="st23" d="M528.2,542.7c3-5.2,7-9.7,10.9-14.2c2.1-2.4,4.1-4.7,6.2-7.1c2-2.3,4.1-4.6,6.6-6.4c2.4-1.7,5.1-2.7,7.9-3.6
		c5-1.5,10.3-2.3,15.5-2c9.1,0.6,17.6,4.5,25.9,8.4c4.9,2.3,10.3,5,12.5,10"/>
	<path class="st23" d="M564.6,503.3c3.6-1.6,7.3-3.1,11.2-3.7c6.6-0.9,13.4,1.1,19.2,4.5s10.8,8,15.7,12.6"/>
	<path class="st23" d="M511.8,498.2c1.7-0.6,3.6-0.3,5.2,0.5c1.6,0.8,3,2.1,4.3,3.3c2.1,1.9,4.1,3.8,6.2,5.7c2,1.8,4,3.7,5.7,5.8
		c2.5,3.1,4.3,6.7,5.3,10.6"/>
	<path class="st23" d="M511.5,483.6c2.9-0.2,5.8,0.4,8.3,1.7c3.9,2,6.8,5.6,9.6,9c2.3,2.9,4.7,5.8,6.7,9c2.4,3.8,4.4,7.8,5.8,12"/>
	<path class="st23" d="M507.2,471.5c7.6,0.9,14.9,4.2,20.7,9.3c4.5,3.9,8,8.7,11.1,13.8c1.2,1.9,2.3,3.8,3.8,5.6"/>
	<path class="st23" d="M452.4,539.7c5.6,3.6,9.8,9,13.8,14.3c1.6,2.2,3.3,4.3,4.9,6.5"/>
	<path class="st23" d="M466.2,566.3c-1.8-3-5.3-4.6-8.6-5.8c-3.3-1.2-6.9-2.2-9.5-4.6"/>
	<path class="st23" d="M468.7,573.2c-2.3-0.6-4.6-1.2-6.9-1.8c-2-0.5-4-1-5.9-2c-2.8-1.4-5.1-3.7-7.4-5.9"/>
	<path class="st23" d="M560.9,601.4c-2.3-3.2-5.7-5.4-9.3-7.1s-7.3-2.9-10.9-4.6"/>
	<path class="st23" d="M561,610c-4.3-4.3-11.6-4.2-16-8.3"/>
	<path class="st24" d="M686.7,643.8c1.9,6.4,3.8,12.8,6.6,18.8c1.8,3.9,4,7.6,5.4,11.7c1.3,3.9,1.8,8.1,3.3,12
		c0.1,0.3,0.3,0.6,0.6,0.6s0.3-0.6,0-0.5"/>
</g>
</svg>
