<?xml version="1.0" encoding="utf-8"?>
<!-- Generator: Adobe Illustrator 25.3.1, SVG Export Plug-In . SVG Version: 6.00 Build 0)  -->
<svg version="1.1" id="Layer_1" xmlns="http://www.w3.org/2000/svg" xmlns:xlink="http://www.w3.org/1999/xlink" x="0px" y="0px"
	 viewBox="0 0 929.9 768" style="enable-background:new 0 0 929.9 768;" xml:space="preserve">
<style type="text/css">
	.st0{fill:#CCE2EF;}
	.st1{fill:#FAFAFA;}
	.st2{fill:#035693;}
	.st3{fill:#007CC7;}
	.st4{fill:#F0E6E1;}
	.st5{fill:none;stroke:#C09B7E;stroke-width:4;stroke-linecap:round;stroke-miterlimit:10;}
	.st6{fill:none;stroke:#D83030;stroke-width:2;stroke-linecap:round;stroke-miterlimit:10;}
	.st7{fill:none;stroke:#325ACC;stroke-width:2;stroke-linecap:round;stroke-miterlimit:10;}
	.st8{fill:#F0E6E1;stroke:#325ACC;stroke-width:4;stroke-miterlimit:10;}
	.st9{fill:none;stroke:#C09B7E;stroke-linecap:round;stroke-miterlimit:10;}
	.st10{fill:#F5BD83;}
	.st11{fill:#D1BE95;}
	.st12{fill:#1B354C;}
	.st13{fill:#C4C4C4;}
	.st14{fill:#545454;}
	.st15{fill:#CCCCCC;}
	.st16{fill:#FFFFFF;}
	.st17{fill:#002042;}
	.st18{fill:#E0585E;}
	.st19{fill:none;stroke:#21425B;stroke-width:1.5;stroke-miterlimit:10;}
	.st20{fill:#FCFCFC;}
	.st21{fill:#F24452;}
	.st22{fill:#FFF16E;}
	.st23{fill:none;stroke:#333333;stroke-width:4;stroke-linecap:round;stroke-miterlimit:10;}
	.st24{fill:none;stroke:#B2B2B2;stroke-width:4;stroke-linecap:round;stroke-miterlimit:10;}
	.st25{fill:#EADB73;}
	.st26{fill:none;stroke:#C1B665;stroke-linecap:round;stroke-miterlimit:10;}
	.st27{fill:none;stroke:#FFFFFF;stroke-linecap:round;stroke-miterlimit:10;}
	.st28{fill:none;stroke:#5F5FAF;stroke-miterlimit:10;}
	.st29{fill:none;stroke:#D19D6F;stroke-width:2;stroke-miterlimit:10;}
	.st30{fill:none;stroke:#D19D6F;stroke-width:2;stroke-linecap:round;stroke-miterlimit:10;}
	.st31{fill:#D19D6F;}
</style>
<g id="Layer_7">
	<path id="path29_1_" class="st0" d="M703.9,137.2c-8-6.5-16-13-24.3-18.7c-63.6-43.7-137-35.2-206.5-24.1
		c-37.8,6-75.8,12.6-111.9,30.4c-19.5,9.6-38.8,22.9-53.1,45.1c-16.5,25.5-24.8,59.7-31.5,93.2c-5.4,27.1-16.9,40.6-31.7,57.5
		c-31.2,35.9-58.7,71-76.8,125c-0.5,1.4-0.9,2.8-1.4,4.1c-29.6,91.5,10.9,199.4,78,208.8c137.2,19.1,537.2,63.6,536.1-68.9
		c0-0.3,0-0.6,0-0.9c0-0.2,0-0.3,0-0.5c0-0.1,0-0.3,0-0.4c0-0.3,0-0.6,0-0.9c0-0.1,0-0.2,0-0.3c0-0.2,0-0.4,0-0.6
		c0-0.3,0-0.6-0.1-0.9v-0.4c0-0.5-0.1-0.9-0.1-1.4c0-0.1,0-0.1,0-0.2c-0.3-2.8-0.8-5.8-1.4-8.8c-6.2-28.7-46.6-35.7-34.5-108.9
		c7.6-46.1,40.7-56.6,64.7-91.8c16.6-24.3,24.1-56.8,25.6-91.1c0.7-17,2.4-33-3.6-47.9c-6.5-16.2-16.4-31.8-27.1-41.6
		c-16.8-15.4-37.5-17-56.4-25.5C732.3,160.4,718.1,148.8,703.9,137.2z"/>
</g>
<g id="Layer_4">
	<path class="st1" d="M549.8,358.8c2.9-0.3,91.1,16.9,91.1,16.9s3,246.5-1.3,246.2s-87.9-7.6-87.9-7.6l-12.6-17.9
		c0,0,3.6-158.9,3.6-160.6C542.7,434.2,549.8,358.8,549.8,358.8z"/>
	<path class="st2" d="M509.5,374.4c3.6-9,20.3-20.4,20.3-20.4l9.2,45.6c0,0-8.2,42.4-9.2,42.8c-1.1,0.3-29.3-4.6-29.3-4.6l1.7-19.9
		C502.2,417.9,506.2,382.7,509.5,374.4z"/>
	<path class="st3" d="M707.9,393.6c-3.3-13.9-2-12.5-15.6-21.5s-32.1-11.8-47.6-26.3c-14.3,6.1-19.9,31-19.9,31
		S604.5,484.3,607,539.3c2.5,55.1,8.4,66.4,8.4,66.4s3.3,4.6,4.3,5.3s71.3,14.9,71.3,14.9l13.3-10.3c0,0-19.4-92.6-15.7-140.7
		L707.9,393.6z"/>
	<path class="st3" d="M587.8,337.9c0,0-38.8-5-63,20.9c-4.6,7-2.4,28.4-1.9,34.8s-11.1,64.1-11.1,64.1l1.7,100.9
		c0,0,7.9,36.2,9.4,36.8c1.5,0.7,26.9,11.6,26.9,11.6s-1.5-9.3-1.8-10.3s2.7-129.4,6.3-155.6s14.5-68.8,17-75
		C573.9,359.9,587.8,337.9,587.8,337.9"/>
	<path class="st4" d="M338.4,396.2c10.2-8.3,24.1-8.6,31.2-6.6s53,6.6,53,6.6l36.3-4.9c0,0,16.4,4.2,16.8,4.9
		c0.4,0.7,19.1,12.5,19.1,12.5s19.4,8.1,29.3,34.4c10,26.3,15,54.9,14.8,60.2c-0.2,5.3-41.8,19-41.8,19c6.2,2.2,9.7,76.2,9.7,76.2
		l-156.4-23.8l-2.7-10c0,0-21.7-38.5-20.4-82.9S303,465.5,303,465.5v-5.1c0,0,15.5-20.5,19.7-35.5S330.2,402.9,338.4,396.2z"/>
	<path class="st5" d="M468.9,419.4c-5.8,5-25.5,29.9-61.3,26.7c-35.8-3.2-39.3-18-42-22.8"/>
	<path class="st6" d="M381.3,395.5c-1.4,8.3-0.6,17.2,3.9,24.3c5.2,8.2,14.8,12.8,24.4,13.9c7.1,0.8,14.5,0,20.8-3.3
		c3.4-1.8,6.5-4.2,9.3-6.8c7.2-6.6,13.1-14.5,17.6-23.2c1.2-2.4,2.4-5,3-7.6"/>
	<path class="st7" d="M378.9,398.9c-1.7,6.7-3,13.6-2.8,20.5s2,13.9,6,19.5c2.8,4,6.7,7.2,10.8,9.9c6.2,4,13.4,6.9,20.7,6.3
		c9.1-0.8,16.9-6.8,23.4-13.2c8.5-8.4,16.1-18.4,18.7-30.1c1-4.5,1.2-9.2,0.7-13.8"/>
	<ellipse class="st8" cx="403.3" cy="464.7" rx="9.8" ry="10.6"/>
	<path class="st9" d="M505.8,424.8c-4.2,2.4-7.3,6.4-9.8,10.5c-8.1,13.3-11.8,29.2-10.2,44.7c0.5,5.4,1.7,10.6,2.8,15.9
		c1.1,5.3,2.3,10.6,3.4,15.9"/>
	<path class="st9" d="M356.4,516.6c-1.4,17,4.2,34.4,15.2,47.5"/>
	<path class="st9" d="M371.7,548.2c0.6,6.2,2.4,12.7,7.1,16.8"/>
	<path class="st9" d="M573.9,377.9c14.2,7.9,31.5,9.8,47,5.3"/>
</g>
<g id="Layer_3">
	<path class="st10" d="M491.3,519.7c0,0,10.6,65,4.9,72.6c-5.8,7.5,38,6.2,38,6.2s4.7-71-2.4-89.6C527,512,491.3,519.7,491.3,519.7z
		"/>
	<g id="Layer_5">
		<path class="st11" d="M152.8,531.2l621.8,94.7c0,0-123.2,99.2-224.8,91.9c-101.7-7.3-153.4-46.5-243.7-55.7
			c-90.2-9.3-164.6,19-228.9-34.6C12.8,573.8,152.8,531.2,152.8,531.2z"/>
	</g>
	<path class="st12" d="M574.4,173.7c0,0,14.6-26.1,46.9-20.8c32.3,5.3,49.1,27,53.5,45.6s9.7,54.9,0,76.5c-9.7,21.7-6.6,30.5-4,34.5
		c2.7,4,5.8,11.1,17.7,11.1c0,0-23,18.1-34.1,0c0,0-0.4,17.7,11.1,18.1s-19.5,9.7-27,4.9c-7.5-4.9-64.1-6.2-64.1-6.2
		s6.2-5.6,5.8-13.2c-4,5.7-24.1,17.6-30.4,12.3c7.8-9.3,6.1-13.3,4.7-23c-7.5,10.7-15,9.9-20.8,10.7c-5.8,0.8,15.9-0.9,4.4-41.6
		c0,0-16.9-53.1-2.6-80.1C549.8,175.5,552.8,172.4,574.4,173.7z"/>
	<path class="st12" d="M443.9,248.6c0,0-4.5-37.7-52.3-22.2s-53,45.1-57.9,65c-4.9,19.9-1.8,83.1,30.5,92.6s60.5,27.8,61.8,27.8
		s18.4-28.3,18.4-28.3s32.5-38.6,29-99.6C471.8,243.6,443.9,248.6,443.9,248.6z"/>
	<path class="st10" d="M576.2,192.7c0,0,4,12.4-11.5,22.6c-15.5,10.2-15.5,28.3-14.6,34.9s2.8,44.2,13.1,53.5s18.3,19.5,26.2,20.4
		s35.8-7.5,41.1-15s13.3-37.2,13.3-37.2s15.9,3.1,19.5-10.6c3.5-13.7-4.9-32.3-15.9-11.1c-4,8.2-32.7-13.3-40.4-30.5
		C596.2,195.6,576.2,192.7,576.2,192.7z"/>
	<path class="st10" d="M644.8,345.8c0,0-11.9-12.4-6.6-36.7c5.3-24.3,8.4-42.9,8.4-42.9l-34.1,4.9L586.8,318c0,0-6,26.1-15.5,48.2
		c4.4,10.2,40.3,21.7,53.5,10.6C631.4,362.1,630,362.9,644.8,345.8z"/>
	<path class="st10" d="M470.9,519.2c-8.8-7.5-32.3-8.8-38-7.5c-5.8,1.3-38.5,7.5-50,14.2s-16.4,11.1-15.5,14.2
		c0.9,3.1,9.3,1.3,15.9-3.1s24.8-5.3,24.8-5.3s-5.3,11.1-2.7,17.7c2.7,6.6,8.4,7.5,8.4,7.5s1.8,7.5,9.7,7.1c0,0,1.3,8.4,16.8,5.8
		c15.5-2.7,11.1-11.1,11.1-11.1s26.1,5.3,26.5-23C477.2,521.5,470.9,519.2,470.9,519.2z"/>
	<path class="st10" d="M357.2,312.2c0,0,13.3-19.5,28.3-24.8s35.7-15,37.1-31.4c8,5.8,27,76.5,3.6,148.2
		c8.9-5.4,18.3-20.7,18.3-20.7l10.4,3.5c0,0,8-6.6,10.6,0.4c0,0,14.6-4.9,15,2.7c0,0,9.7,0,10.6,6.2c10.9-1.8,15.6,8.4,13.8,19.5
		c-5.7-5.3-10.1-7-10.1-7c-7.6,1.7-9.5,6.6-10.7,15.6c-7.1,2.5-11.1,0.2-10.1-4.9c-2.1,4.4-4.8,3.3-5.8,3.2c-3.9-0.3-4-5.6-3.6-10.7
		c-1.3,1.1-4.1,1.3-5.3,1.2c-4.6-0.3-3-10.7-1.9-14.6c-1.7,2.4-2.9,2.2-3.5,2.3c-6.2,12.6-20.7,25.9-42.8,24.1
		c-22.1-1.8-26.1-23.4-26.1-23.4s-5.3,0.9-7.5,6.2S339,482.1,335,487.9s-24.3,42.5-39.4,43.4c-15,0.9-15.9-7.5-16.4-15.9
		c-0.4-8.4-6.2-25.7,9.3-40.7s32.3-32.3,39.4-40.3s34.9-33.7,36.3-50.3c1.3-16.5-10.6-24.9-10.6-32.9s-8.8-27.9-3.5-31.4
		s4.4,1.3,4.4,1.3L357.2,312.2z"/>
	<path class="st10" d="M506.2,416.9c0,0,7.6-12.6,8.8-15.2c1.2-2.5,3.8-2.3,5.8-1.5s3.1,7.1,1,11.4s-6.5,12.8-7.7,13.3
		C511.1,421.1,512.5,421.1,506.2,416.9z"/>
	<path class="st12" d="M553.5,237.7c-1.8-2,3.8-6.5,7.3-7s12.8,0,13.1,3.5s-1.8,4.8-4,4.5s-4.5-3.2-7.8-3.2
		C558.8,235.6,555.1,239.6,553.5,237.7z"/>
	<path class="st12" d="M600.6,235.6c0.2-2.8,4.5-5.5,11.3-5s9.6,1.7,10,4.1c0.3,2.4-0.8,3.4-2.5,3.4s-5.3-1.3-9.3-1s-6,1.3-8,1
		C600.1,237.7,600.6,235.6,600.6,235.6z"/>
	<path class="st12" d="M387.3,294.8c0.4-4.5-3.3-3.8-5.6-3.5c-2.3,0.3-11.3,1-13.3,3.5s-5.5,6.5-2.2,8s4.1-2.5,8.5-3.6
		S386.8,299.9,387.3,294.8z"/>
	<path class="st12" d="M405.7,295.1c0-3.8,6-3,8-2.7s9.6,2.3,11.3,5.6c1.7,3.3,0.5,3.8-0.8,3.5s-4.7-3.5-8.4-3.6s-7.7,1.1-8.9-0.9
		C405.7,295.1,405.7,295.1,405.7,295.1z"/>
	<path class="st2" d="M709.9,386.7c5.9,8,12.3,20.2,10.3,29.2s-13.9,36.2-20.2,43.8c-6.3,7.6-54.1,57.4-65,66S612.4,545,603.8,547
		s-46.8,8.3-79.3,0S478,535.6,478,535.6s1.1-10-7.1-16.4s-16-6.4-16-6.4s0.5-5,5.1-4s55.7,5.6,71.7,4c15.9-1.7,42.1-7.6,48.1-11.9
		s50.1-42.8,60.4-60.7c10.3-17.9,23.6-40,31.5-46.5C679.7,387,697.7,370.1,709.9,386.7z"/>
	<path class="st13" d="M256.4,562.8c0,0,117,25.9,117.7,27.4c0.7,1.5,1.1,13.7-1.5,15.3c-2.7,1.5-88.9,25.2-94.5,25
		c-5.7-0.2-117.2-28.3-118.5-29.6s-2.7-13.9-2.7-13.9L256.4,562.8z"/>
	<path class="st14" d="M172.3,587.3c1.3,0.4,103.8,22.3,105.7,22.1c1.8-0.2,64-17.9,64-17.9l-84.8-21.4L172.3,587.3z"/>
	<path class="st15" d="M96,476.5c2.4-4,5.8-4.2,9.3-3.5s117.9,17.5,117.9,17.5s13.5,2.2,15.9,10.4c2.4,8.2,38.9,108.6,38.9,108.6
		s4.5,9.1-8.1,7.7c-12.6-1.3-125-27.4-125-27.4s-5.8,0-10.2-8.7S96,476.5,96,476.5z"/>
	<path class="st15" d="M280,615.4l91.8-23.2c0,0,2,8,0,9.7c-2,1.8-88.7,27.2-90.9,25.4S280,615.4,280,615.4z"/>
	<ellipse transform="matrix(0.966 -0.2587 0.2587 0.966 -134.4745 64.274)" class="st16" cx="177" cy="543.1" rx="9.1" ry="13.3"/>
	<path id="path1799_2_" class="st17" d="M603.2,251.8c-0.5,3.8,1,7.2,3.3,7.5c4.9,0.6,4.7-6.2,7-8.6c0.3-0.3,1.4-0.3,1.7-0.5
		c0.5-0.3,0.4-1-0.1-1.3c-1.2-0.8-1.5-0.8-2.9-1.1C608.4,247,603.8,247.4,603.2,251.8z"/>
	<path id="path1799_3_" class="st17" d="M568.9,249.9c0.9,3.7-0.2,7.2-2.4,7.8c-4.7,1.2-5.3-5.7-7.9-7.8c-0.3-0.2-1.4-0.1-1.8-0.3
		c-0.5-0.2-0.5-0.9-0.1-1.3c1.1-0.9,1.4-0.9,2.7-1.4C563.1,245.7,567.8,245.6,568.9,249.9z"/>
	<path id="path1799_4_" class="st17" d="M408.7,314.1c-0.5,3.8,0.7,7.2,2.7,7.4c4.1,0.5,4-6.3,6-8.7c0.2-0.3,1.2-0.3,1.5-0.6
		c0.4-0.3,0.3-1,0-1.3c-1-0.8-1.3-0.8-2.4-1C413.2,309.2,409.3,309.7,408.7,314.1z"/>
	<path id="path1799_5_" class="st17" d="M378.7,313.5c1.1,3.7,0.7,7.1-1,7.6c-3.5,1.1-4.7-5.6-6.9-7.7c-0.3-0.2-1.1-0.1-1.4-0.3
		c-0.4-0.2-0.5-0.9-0.2-1.3c0.7-0.9,1-0.9,1.9-1.3C373.8,309.4,377.4,309.3,378.7,313.5z"/>
	<path class="st16" d="M576.2,294.2c-0.9-2,1.2-3.8,3.6-3.8s4.8,0.7,7.6,0s7.7-3,10.1-2.2c2.4,0.8,2.7,6.1,0.9,7.6
		s-7.1,3.6-10.5,3.6C584.5,299.5,578.2,298.5,576.2,294.2z"/>
	<path class="st18" d="M387.3,360.7c-2.2-3.1-0.7-6.1,1.1-7.1s4-1.8,7.1-1.8s7.6,0.5,8.5,3c0.8,2.5,0.9,5.3-1.1,6s-5-0.3-7.4,0
		C393.1,361,389.2,363.3,387.3,360.7z"/>
	<path class="st19" d="M584,182.6c3.9-1.7,8.5-1.1,12.4,0.6c10,4.4,15.5,15,21.1,24.4c3.9,6.5,8.2,12.8,12.9,18.8
		c2.9,3.7,6.1,7.4,10.2,9.7c4.1,2.3,9.4,3.1,13.5,0.9"/>
	<path class="st19" d="M587.8,175.1c5.9-3.7,13.7-3.2,19.9-0.2c6.3,3,11.2,8.1,15.5,13.6c4.3,5.4,8.2,11.3,13,16.2
		c2.8,2.9,6,5.5,9.8,7s8.2,1.7,11.7-0.2"/>
	<path class="st19" d="M565.6,191.1c-3.4,0.6-6.1,3.2-8.4,5.8c-9.3,10.9-14,25.6-12.6,39.8"/>
	<path class="st19" d="M564.3,184.3c-3.1-0.3-6,1.4-8.5,3.3c-3.7,2.9-6.9,6.4-9.5,10.3"/>
	<path class="st19" d="M590.5,169.5c6.7-2.2,14.1-2.5,20.9-0.7"/>
	<path class="st19" d="M436.4,255.4c15.5,31,20.9,66.9,15.3,101.1"/>
	<path class="st19" d="M443.1,253c13.2,12.2,20.1,30.9,18,48.7"/>
	<path class="st19" d="M346.4,305.8c2.9-10.7,9.6-20.3,18.6-26.7c10.8-7.7,24.3-10.7,35.4-17.8c7.8-5,14.3-11.9,18.7-20"/>
	<path class="st19" d="M349.5,281.6c4.4-10.2,12.8-18.6,23-23c5.5-2.4,11.5-3.6,17.1-5.7s11.1-5.5,13.9-10.8"/>
	<path class="st19" d="M369.3,251.5c6.3-5.3,14-8.9,22.1-10.3"/>
</g>
<g id="Layer_6">
	
		<ellipse transform="matrix(0.9729 -0.2313 0.2313 0.9729 -33.3013 71.7843)" class="st20" cx="289.5" cy="177.9" rx="46.8" ry="55.1"/>
	<ellipse class="st20" cx="368.7" cy="154" rx="43.3" ry="53.8"/>
	
		<ellipse transform="matrix(0.1577 -0.9875 0.9875 0.1577 220.0492 570.9164)" class="st20" cx="444.7" cy="156.5" rx="51.5" ry="41.6"/>
	<polygon class="st20" points="344,252 294.4,202 321.4,194.9 	"/>
	<polygon class="st20" points="376.1,226.3 354.1,187 376.1,182.1 	"/>
	<polygon class="st20" points="431.6,223.5 431.6,177.9 449.3,186.5 	"/>
	<ellipse class="st20" cx="760.7" cy="196.5" rx="33.2" ry="37.8"/>
	<circle class="st20" cx="739.7" cy="163.6" r="19.1"/>
	<circle class="st20" cx="770.2" cy="161.4" r="16.5"/>
	<ellipse class="st20" cx="719.1" cy="183.8" rx="15" ry="12.7"/>
	<ellipse class="st20" cx="717.6" cy="204.4" rx="16.6" ry="13.5"/>
	<ellipse class="st20" cx="725.9" cy="222.9" rx="13.8" ry="15.2"/>
	<ellipse class="st20" cx="745.1" cy="229.3" rx="14.4" ry="17.2"/>
	<ellipse class="st20" cx="774.3" cy="230.3" rx="15.6" ry="12.4"/>
	<circle class="st20" cx="796.3" cy="217.7" r="17"/>
	<ellipse class="st20" cx="791.7" cy="182.2" rx="21.5" ry="18.6"/>
	<circle class="st20" cx="725.9" cy="256.9" r="8.3"/>
	<circle class="st20" cx="706" cy="270.7" r="8.1"/>
	<ellipse class="st20" cx="688" cy="277.1" rx="5" ry="6.4"/>
	<path class="st21" d="M271,165.3h5.5c0,0-4.2-12.6,5.3-13.9c9.5-1.3,9,5.3,9.6,7.9c1.5,9.5-8.1,18.8-8.1,18.8l8.3,15.3l7.2-3.4
		l-6.6-11.6c0,0,9.5-17.4,6.3-23.9c-4.1-8.4-6.3-10.3-17.1-9.6C263.3,149.1,271,165.3,271,165.3z"/>
	<circle class="st21" cx="299.1" cy="201.4" r="4.7"/>
	<path class="st21" d="M356.2,134.7l5.1,2c0,0,0.7-13.3,10-11s6.5,8.2,6.1,10.9c-2,9.4-14.4,14.6-14.4,14.6l2.1,17.2l7.9-0.5
		l-2-13.2c0,0,15.2-12.8,14.6-19.9c-0.7-9.3-2.1-11.9-12.4-15.2C355,116.7,356.2,134.7,356.2,134.7z"/>
	<circle class="st21" cx="369.2" cy="178.5" r="4.7"/>
	<path class="st21" d="M436.3,134.8l4.4,3.3c0,0,4.1-12.6,12.5-8.1c8.4,4.5,4.2,9.6,3.1,12c-4.4,8.6-17.7,10.4-17.7,10.4l-2.4,17.2
		l7.8,1.5l1.5-13.2c0,0,17.9-8.4,19.2-15.5c1.7-9.2,1-12.1-8.1-17.9C439.8,117.2,436.3,134.8,436.3,134.8z"/>
	<circle class="st21" cx="437.7" cy="180.6" r="4.7"/>
	<path class="st22" d="M744.3,211.7c0,0,1.8-4,0-7.3s-4.8-12.9-2.9-19.1c1.8-6.2,9.6-12.9,20.8-9.5s12.2,12.3,10.1,21
		c-4,10.5-10.8,8.5-13.5,13.6s1.1,2.7-1.8,4C754,215.7,745.9,215.9,744.3,211.7z"/>
	<path class="st23" d="M743.2,226.8c0,0,2.3,3.9,8.2,1.9"/>
	<path class="st24" d="M741.4,222.2c0,0,3.7,6.5,13.7,3.1"/>
	<path class="st24" d="M742.1,218.4c0,0,3.7,6.5,13.7,3.1"/>
	<path class="st24" d="M743.2,215.2c0,0,3.7,6.5,13.7,3.1"/>
	<path class="st24" d="M743.9,211.6c0,0,3.7,6.5,13.7,3.1"/>
	<g>
		<path class="st25" d="M744.5,158.6c0.8,0.3,1.3,0.6,1.8,1s0.9,0.8,1.3,1.3c0.7,0.9,0.7,2.2,1.1,3.3c0.3,1.1,0.6,2.2,0.9,3.3
			c0.3,1.1,0.5,2.3,0.7,3.4l-0.4,0.2c-0.8-0.9-1.5-1.8-2.2-2.8c-0.7-0.9-1.3-1.9-2-2.8c-0.6-1-1.6-1.8-1.8-2.9
			c-0.1-0.6-0.2-1.2-0.2-1.8s0.1-1.3,0.4-2.1L744.5,158.6z"/>
	</g>
	<g>
		<path class="st25" d="M727.6,172.4c0.8-0.2,1.5-0.2,2.1-0.1c0.6,0.1,1.2,0.2,1.8,0.4c1.1,0.3,1.8,1.4,2.7,2.2
			c0.9,0.7,1.7,1.5,2.6,2.3c0.8,0.8,1.7,1.6,2.5,2.5L739,180c-1.1-0.3-2.2-0.7-3.3-1.1c-1.1-0.4-2.2-0.8-3.2-1.3
			c-1.1-0.5-2.3-0.6-3.1-1.5c-0.4-0.4-0.8-0.9-1.1-1.4s-0.6-1.1-0.8-1.9L727.6,172.4z"/>
	</g>
	<g>
		<path class="st25" d="M720.8,191.3c0.5-0.7,1-1.1,1.5-1.5s1-0.7,1.6-0.9c1.1-0.5,2.3-0.1,3.4-0.2c1.1,0,2.3,0,3.5,0
			c1.2,0.1,2.3,0.1,3.5,0.2l0.1,0.4c-1.1,0.5-2.2,0.9-3.2,1.3c-1.1,0.4-2.2,0.8-3.3,1.1c-1.1,0.4-2.1,1.1-3.3,1
			c-0.6,0-1.2-0.1-1.8-0.3s-1.2-0.4-1.9-0.9L720.8,191.3z"/>
	</g>
	<g>
		<path class="st25" d="M723.1,206.8c0.3-0.7,0.7-1.3,1.1-1.8c0.4-0.5,0.9-0.9,1.4-1.2c0.9-0.7,2.2-0.6,3.3-0.9
			c1.1-0.3,2.2-0.5,3.4-0.7c1.1-0.2,2.3-0.4,3.5-0.5l0.1,0.4c-0.9,0.7-1.9,1.4-2.9,2s-1.9,1.2-2.9,1.8s-1.8,1.5-3,1.6
			c-0.6,0.1-1.2,0.1-1.8,0.1s-1.3-0.2-2-0.5L723.1,206.8z"/>
	</g>
	<g>
		<path class="st25" d="M764.4,154.6c0.5,0.7,0.7,1.3,0.9,1.9c0.2,0.6,0.3,1.2,0.3,1.8c0.1,1.2-0.7,2.2-1,3.3
			c-0.4,1.1-0.8,2.2-1.2,3.2c-0.5,1.1-0.9,2.1-1.4,3.2l-0.4-0.1c-0.1-1.2-0.1-2.3-0.2-3.5c0-1.2,0-2.3,0-3.5c0-1.1-0.3-2.4,0.2-3.4
			c0.2-0.5,0.5-1.1,0.9-1.6s0.8-1,1.5-1.5L764.4,154.6z"/>
	</g>
	<g>
		<path class="st25" d="M784.5,163.7c0.1,0.8,0,1.5-0.2,2.1c-0.1,0.6-0.4,1.2-0.6,1.7c-0.5,1.1-1.6,1.6-2.5,2.3
			c-0.9,0.8-1.7,1.5-2.7,2.2c-0.9,0.7-1.8,1.4-2.8,2.1l-0.3-0.3c0.5-1.1,1-2.1,1.6-3.1s1.1-2,1.7-3c0.6-1,0.9-2.2,1.9-2.9
			c0.5-0.4,1-0.7,1.6-0.9c0.6-0.3,1.2-0.5,2-0.5L784.5,163.7z"/>
	</g>
	<g>
		<path class="st25" d="M793.3,179.8c-0.4,0.7-0.8,1.2-1.3,1.7s-0.9,0.8-1.4,1.1c-1,0.6-2.2,0.5-3.4,0.7c-1.1,0.2-2.3,0.3-3.4,0.5
			c-1.2,0.1-2.3,0.2-3.5,0.3l-0.1-0.4c1-0.6,2-1.2,3-1.8s2-1.1,3.1-1.6c1-0.5,2-1.4,3.1-1.4c0.6-0.1,1.2-0.1,1.8,0s1.3,0.3,2,0.6
			L793.3,179.8z"/>
	</g>
	<g>
		<path class="st25" d="M793.5,199.3c-0.6,0.5-1.2,0.8-1.8,1s-1.2,0.3-1.8,0.4c-1.2,0.2-2.2-0.5-3.3-0.8s-2.2-0.6-3.3-1
			s-2.2-0.7-3.3-1.2v-0.4c1.2-0.2,2.3-0.3,3.5-0.4c1.2-0.1,2.3-0.2,3.5-0.2c1.1,0,2.3-0.4,3.4,0c0.6,0.2,1.1,0.4,1.6,0.8
			c0.5,0.3,1.1,0.8,1.6,1.4L793.5,199.3z"/>
	</g>
	<g>
		<path class="st25" d="M785.5,216.5c-0.8,0.1-1.5,0-2.1-0.1s-1.2-0.3-1.7-0.6c-1.1-0.5-1.6-1.6-2.4-2.4c-0.8-0.8-1.5-1.7-2.3-2.6
			c-0.7-0.9-1.5-1.8-2.2-2.8l0.2-0.3c1.1,0.5,2.1,1,3.2,1.5c1,0.5,2,1.1,3,1.7c1,0.6,2.2,0.9,2.9,1.8c0.4,0.4,0.7,0.9,1,1.5
			s0.5,1.2,0.6,2L785.5,216.5z"/>
	</g>
	<g>
		<path class="st25" d="M773.5,226c-0.8-0.2-1.4-0.5-1.9-0.9c-0.5-0.3-1-0.7-1.4-1.2c-0.8-0.8-0.9-2.1-1.4-3.2
			c-0.4-1.1-0.8-2.2-1.2-3.3s-0.7-2.2-1-3.4l0.3-0.2c0.8,0.8,1.6,1.7,2.4,2.5c0.8,0.9,1.5,1.7,2.2,2.6c0.7,0.9,1.7,1.6,2.1,2.7
			c0.2,0.6,0.3,1.1,0.3,1.8c0,0.6,0,1.3-0.2,2.1L773.5,226z"/>
	</g>
	<path class="st26" d="M747.8,188.1c0.1,7.1,0.4,14.2,0.7,21.2"/>
	<path class="st26" d="M753.1,211.7c1.7-4.5,3.5-9.1,5.8-13.4c1-1.9,2.2-3.8,3.4-5.6"/>
	<path class="st26" d="M750,187.6c-0.2,1.8-0.1,3.7,0.3,5.5c0.6-1.4,1.2-2.9,1.8-4.3c0.1-0.2,0.2-0.5,0.4-0.7s0.5-0.2,0.7-0.1
		c0,2.1,0.2,4.1,0.5,6.1c0.5-1.5,1.2-2.9,1.9-4.3c0.1-0.3,0.4-0.6,0.7-0.5c0.2,1.8,0.3,3.7,0.2,5.5c0.5-1.3,1.1-2.6,1.9-3.8
		c0.2-0.2,1-1.1,1-0.9c0.1,0.4,0.1,2.8,0,4.4"/>
	<path class="st27" d="M743.7,211c1.9,3,5.5,4.9,9,4.9"/>
	<path class="st27" d="M742.8,215.1c1.1,1.1,2.3,2.1,3.7,2.7c1.4,0.6,3,1,4.5,0.8"/>
	<path class="st27" d="M741.7,218.2c2.1,2.3,5.2,3.5,8.3,3.3"/>
	<path class="st27" d="M740.8,221.6c0.2,0.5,0.6,0.9,1,1.2c2.3,2,5.3,3.1,8.4,3.2"/>
	<path class="st28" d="M478.3,532.4c7.5,0.5,15.1,0.6,22.6,0.3"/>
	<path class="st28" d="M476.9,527.4c5.7,0.3,11.4,0.3,17.1-0.1"/>
	<path class="st28" d="M473.9,522.4c5.5,0.1,11.1,0.2,16.6,0.3c0.5,0,1.1,0,1.4-0.5"/>
	<path class="st28" d="M468.9,517.9c1.8-0.3,3.7-0.3,5.5-0.3c4.7,0,9.4,0.1,14.1,0.1"/>
	<path class="st28" d="M461.4,513.5c5.9-1.3,12-1.7,18-1"/>
	<path class="st28" d="M656.9,414.4c1.7-5.4,3.5-10.7,5.8-15.8c2-4.3,4.5-8.4,8.1-11.5"/>
	<path class="st28" d="M654.3,417.3c-1.2-6.9-0.5-14.1,1.8-20.7"/>
	<path class="st29" d="M575.8,265.3c-1,1.5-1.7,3.1-2.1,4.8c-0.3,1.1-0.4,2.3,0,3.4s1.4,2,2.5,2.5c2.6,1.4,5.6,1.4,8.5,1.2
		c1.6-0.1,3.3-0.2,4.8-0.9c1.8-0.8,3.2-2.5,3.8-4.4s0.2-4.1-0.9-5.7"/>
	<path class="st29" d="M585.2,323c2.9,1.3,6.3,1.3,9.4,0.5c3.1-0.7,6-2.1,9-3.4c8.7-3.7,18.2-6.5,24.7-13.4
		c3.2-3.4,5.5-7.6,7.6-11.8c3.8-7.8,7.3-15.9,8.7-24.4"/>
	<path class="st29" d="M659.7,250.7c-0.8-0.9-1.7-1.9-2.9-2.1c-0.9-0.2-1.9,0.2-2.7,0.7c-1.6,1-2.7,2.6-3.5,4.3
		c-1.4,3-2,6.4-1.5,9.6"/>
	<path class="st29" d="M657.7,259.5c-2.4-1.9-5.6-2.6-8.6-2"/>
	<path class="st30" d="M473.9,419.4c-0.7-7.7,2.7-15.7,8.8-20.6c0.8-0.6,1.7-1.2,2.6-1.7c2-0.9,4.3-1.1,6.5-1.2"/>
	<path class="st30" d="M464.7,412c-0.6-4.7,0.5-9.5,3.1-13.5c0.9-1.4,1.9-2.7,3.2-3.7c3.1-2.5,7.2-3.3,11.1-4"/>
	<path class="st30" d="M455.2,387.1c-1.1,0.3-1.8,1.4-2.3,2.4c-1,2.2-1.6,4.6-1.6,7c0,1,0.1,2,0.6,2.8c0.5,0.9,1.6,1.5,2.6,1.5
		s2.7-1.2,3.3-2.1c-0.3-1-0.1-2.1,0.3-3s1-1.8,1.7-2.6c0.9-1.2,1.8-2.3,3-3.2c1.1-0.9,2.5-1.6,4-1.7"/>
	<path class="st30" d="M359.7,309.7c-1.6,8.3-0.2,16.8,1.9,25c1.8,6.9,4.1,13.7,6.9,20.3c2.6,6.2,5.7,12.2,10.2,17.2
		s10.5,8.8,17.1,9.7c7.2,0.9,14.4-1.7,20.4-5.8s10.8-9.5,15.6-15c1.5-1.7,3.1-3.6,3.7-5.8"/>
	<path class="st30" d="M385.1,305.5c0.9,3.4,1.2,7,1.5,10.5c0.2,2.9,0.4,5.9-0.4,8.7c-1.2,3.7-4.1,6.6-7.1,8.9
		c-0.3,0.2-0.5,0.4-0.7,0.7c-0.2,0.3-0.1,0.7-0.1,1c0.2,2.4,1.7,4.7,3.8,6s4.8,1.5,7.1,0.5"/>
	<path class="st30" d="M354.5,319.8c-0.8,11.4,2.3,23.1,8.7,32.6"/>
	<g>
		<path class="st31" d="M413.8,524.1c-1.4,1.9-2.3,4-3.3,6.1c-1,2.2-2.3,4.1-3.3,6.2c-1,2.1-1.8,4.3-2.1,6.6
			c-0.4,2.3-0.2,4.7,0.5,6.9c0,0.1,0,0.1-0.1,0.1h-0.1c-1.1-2.1-1.5-4.6-1.4-7.1c0.1-2.4,0.8-4.8,1.6-7.1c0.9-2.3,1.7-4.5,3-6.6
			c1.2-2,2.7-4.2,5-5.3c0.1,0,0.1,0,0.1,0C413.9,524,413.9,524,413.8,524.1z"/>
	</g>
	<g>
		<path class="st31" d="M423.9,531.7c-0.6,1.3-1.5,2.3-2.3,3.3c-0.9,1-1.5,2-2.1,3.1s-1.1,2.3-1.6,3.5c-0.6,1.2-1.1,2.4-1.6,3.6
			c-1,2.4-1.9,4.9-2.1,7.5c-0.1,1.3-0.1,2.6,0.2,3.8c0.3,1.3,0.8,2.5,1.3,3.7c0,0.1,0,0.1,0,0.1h-0.1c-1.4-2.2-2.5-4.9-2.4-7.7
			s0.8-5.4,1.6-8c0.9-2.5,1.6-5.1,3.1-7.5c0.7-1.2,1.7-2.3,2.8-3.1c1.1-0.8,2.2-1.5,3.1-2.4h0.1
			C423.9,531.6,423.9,531.6,423.9,531.7z"/>
	</g>
	<g>
		<path class="st31" d="M423.7,565.1c-0.4-1.2-0.7-2.5-0.8-3.8c0-1.3,0.1-2.6,0.4-3.9c0.2-1.3,0.4-2.5,0.7-3.8
			c0.3-1.3,0.7-2.5,1.1-3.7c0.9-2.5,1.9-4.9,3.3-7.1c0.7-1.1,1.5-2.2,2.5-3.1c1-0.9,2.1-1.7,3.4-2.1c0.1,0,0.1,0,0.1,0.1v0.1
			c-1.9,1.7-3.1,3.8-4.3,6c-0.6,1.1-1.1,2.2-1.7,3.3s-1.2,2.2-1.7,3.4c-0.5,1.1-1,2.3-1.3,3.5c-0.4,1.2-0.7,2.4-1,3.7
			c-0.3,1.2-0.6,2.4-0.7,3.7c-0.1,1.2,0,2.5,0.3,3.7c0,0.1,0,0.1-0.1,0.1S423.8,565.1,423.7,565.1z"/>
	</g>
	<path class="st30" d="M439.6,545.5c1,1.3,1.3,3,1.6,4.6c0.4,2.6,0.6,5.2,0.1,7.8s-1.9,5-4.1,6.4"/>
	<g>
		<path class="st31" d="M459.3,558.6c-1.5,0.3-3.1,0.4-4.6,0.5c-1.6,0-3.1-0.1-4.7-0.4c-1.6-0.3-3.2-0.5-4.6-1.3
			c-0.7-0.4-1.5-0.8-2.1-1.5c-0.6-0.6-1-1.6-0.8-2.5h0.2c0.3,0.7,0.9,1.1,1.5,1.4c0.6,0.3,1.2,0.5,1.9,0.7c1.4,0.4,2.7,1.1,4.2,1.5
			c1.4,0.4,2.9,0.8,4.4,1s3,0.3,4.6,0.3V558.6z"/>
	</g>
	<path class="st30" d="M382.3,402.2c2.2-0.7,4.4-1.5,6.2-2.8c1.1-0.8,2.1-1.9,3-2.9c3-3.7,5.4-8.5,4.4-13.2c-0.2-0.9-0.9-2-1.8-1.6"
		/>
	<path class="st30" d="M359.4,356c1.5-3,4.4-5,7.2-6.8"/>
</g>
</svg>
