<?xml version="1.0" encoding="utf-8"?>
<!-- Generator: Adobe Illustrator 23.0.2, SVG Export Plug-In . SVG Version: 6.00 Build 0)  -->
<svg version="1.1" id="Layer_1" xmlns="http://www.w3.org/2000/svg" xmlns:xlink="http://www.w3.org/1999/xlink" x="0px" y="0px"
	 viewBox="0 0 730.4 567.3" style="enable-background:new 0 0 730.4 567.3;" xml:space="preserve">
<style type="text/css">
	.st0{opacity:0.1;fill:#007CC7;}
	.st1{fill:#AFC7D7;}
	.st2{fill:#FFCC4D;}
	.st3{fill:#007CC7;}
	.st4{fill:#FFF88E;}
	.st5{fill:#002042;}
	.st6{fill:#999999;}
	.st7{fill:#B3B3B3;}
	.st8{fill:#666666;}
	.st9{fill:#E6E6E6;}
	.st10{fill:#4D4D4D;}
	.st11{fill:#F5BD83;}
	.st12{opacity:0.7;fill:#D19D6F;}
	.st13{fill:#EFEAEA;}
	.st14{fill:#FFCBB3;}
	.st15{fill:#FFF1E4;}
	.st16{fill:#331318;}
	.st17{fill:#F7F0ED;}
	.st18{fill:#C64A27;}
	.st19{fill:#3E1D1D;}
	.st20{fill:#FFE6D6;}
	.st21{fill:#E2C6A9;}
	.st22{fill:#D19D6F;}
	.st23{fill:#56222C;}
	.st24{fill:#1B354C;}
	.st25{fill:#D93C64;}
	.st26{fill:#FFFFFF;}
	.st27{fill:#0076C2;}
</style>
<g>
	<path class="st0" d="M169.8,520.1c76.9,46,158.1,49.1,243.1,46.5c77.7-2.3,153.6-39,214.7-91.6c51.2-44.1,98.9-138.5,51.9-205.3
		c-33.8-48-88.2-50-138.8-55.8c-56.2-6.5-107.2,0.7-157.8-34c-45.1-30.9-78.3-76.3-118.1-114.5C223,25.4,147.7-25.5,94.3,17.1
		C77,31,58.1,46.6,47.1,67.5C19.2,120.5,8.8,187.2,17.6,247.9c7.8,54.3,21.5,108.1,45,156.5c11.8,24.3,26,47.1,42.8,67.3
		C123.1,493.1,147,506.5,169.8,520.1z"/>
	<path class="st1" d="M80.5,560.1c-2.8-0.3-4.3-0.6-5-0.8c-0.7-0.2-0.6-0.3-0.4-0.4c0.5-0.1,1.6-0.1-1.1-1.1
		c2.2,0.4,4.1,0.9,5.2,1.3c0.4,0,2,0.2,3.3,0.2c1.4,0.1,2.5,0,2.2-0.1c0.6,0.3,2.4,0.7,4.8,0.9c2.3,0.2,5.1,0.2,7.6,0.3
		c5.1,0.1,9.3,0.1,6.9,0.9c3.1,0,9.4-0.6,16.4-1.5c7-0.9,14.8-2.1,21.1-3l-3.4,0.8c13.6-0.7,11.5-2.4,19.2-3.6
		c-6.7,1.2,6.1-0.2,8.9-0.1c5.9-0.9,10.8-2,19.3-2.2c1.8,0.5,2,1.2,7.4,1.3c1.2-0.1,2.4-0.3,3.7-0.4c5.4,0.1,12.7,0.2,16.1,0.7
		l-0.7,0c6,0.7,6.4,0,1.7-0.5l5.9,0.1l0.2,0.2c7.8,0.3,15.1,0.3,27.5,1.4c-3.4,0.2,9.1,1.9-2,0.9c3.3,0.1-1.7-0.7-2.2-1
		c-4-0.5-7.7-0.3-9.5-0.5c1.2,0.4-0.1,1-2.3,1.2c4,0,11.6,0.7,18.4,1.4c6.9,0.6,13,1,14.1,0.4c5,0.5,10.8,0.9,16.7,1.2
		c6,0.2,12.2,0.4,17.9,0.6c-0.5-0.1-1.4-0.2-1.1-0.3l9.9,0.6l-2.3,0.1l6.6,0.4c0.7,0.2-1.9,0.4-4.6,0.5c-1.6,0.1-3-0.1-1.4-0.2
		c-7.1,0.5,5.9,0.2,1.3,0.7c-1.7-0.1-4,0-5.3,0c8.1,0.3,11.9-0.5,16.9,0c1.9-0.3,4.8-0.6,8.2-0.9c3.4-0.2,7.1-0.6,10.8-0.6
		c-2.8,0.5,7.9-0.5,4.3,0.3c2.8-0.4,9.3-0.6,10.4-1.1c-1,0.2-4.2,0.5-6.4,0.5c3-0.4,3.3-0.8,6.9-1c0.5,0,0.2,0.1,0.2,0.1
		c4.7-0.7,1.4-1.3,9.7-2.1c21.7-2.4-2.8,1.6,0.3,1.6c0.8-0.4,10.3-1.5,14.7-1.7l-1,0.2c2.2-0.4,5.4-1,7.8-0.9
		c1.2-0.6,3.7-1.4,5.2-1.9l9.7-1.2l-1.9,0.5c2.2-0.4,4.1-0.6,6.1-0.9c0.9,0.3-2,0.5-4.9,1c1.7,0.2,3.6-0.1,5.8-0.7l-1.2,0.1
		c2.4-0.5,11.4-2.1,4.2-1.4c5.3-1,7.2-0.4,10.8-1.1c0.4,0.3-2.9,0.8-1,0.8c3.6-0.4,6-0.6,8.9-1.1c-2.9,0.2,0.8-0.4-3.8-0.1
		c1.7-0.4,6.3-1,6-1.1c-1.5,0.2-2.4,0.5-5,0.6c4.8-0.7,9.9-1.3,14.9-1.6c-0.2,0.1-0.6,0.2-1.2,0.3c6.3-1.2,16.1-2.1,20.3-3.1l-1.9,0
		c-1.5,0.3-4.7,0.6-6,0.6c4.8-0.7-3.6-0.2,1.5-1c7-1,13.4-0.8,17.2-1.9c-6.7,0.6-15.9,0.9-18.6,1.6c1.4-0.1,2.9-0.3,4.3-0.4
		c-3.3,0.6-6.5,1.2-9.8,1.9c-0.4-0.3-8.7,1.1-8.6,0.6c3.4-0.5,6.5-0.8,9.2-1.1c-0.7-0.2-9.2,0.8-12.7,1.2l4.6-0.3
		c-8,1.3-18.3,2.4-26.1,3.6c6.1-1.1-7.9,0.6-3.1-0.4c1.9-0.5,5.3-0.5,4.3-0.5c0.5-0.5-4.8,0.5-6.5,0.3c-0.8,0.4-8.7,1.5-3.9,1.3
		c-2.6,0.1-8.2,1.2-11.8,1.3c1.2,0.4-6.5,1.1-7.8,1.4c-1.5,0.1-2.9,0.2-4,0.2c3.2-0.5,7.2-1.2,11.3-1.9c1.7-0.1,4.8-0.5,3.9-0.5
		l0-0.2c6.2-1.1,12.4-2.2,16.9-3c0.7-0.1,1.4-0.2,2.1-0.3l-0.4,0.1c0.2-0.1,0.5-0.1,0.7-0.1c36.4-4.3,72.8-8.4,109.3-7.9
		c-2.4,0.1-6.3,0-7.9,0.2l0.3-0.1l-3.7,0.2c3.1,0,9.3-0.1,12-0.3c2.6,0,5.1,0.1,7.7,0.2l-6.4-0.4c0,0,0,0,0,0c0,0,0,0,0,0l-7.6-0.5
		c5-0.4,9.7-0.7,15.7-0.5c-1.9,0.2,0,0.3,0.5,0.4c16.5-1.4,32.4-1.4,49-1.1c7,0.1,14,0.3,20.9-0.8c13.3-2,26.1-8.4,39.5-7.3
		c5,0.4,11,1.6,14.4-2.1c3.9-4.2,0.7-11.5-4.3-14.1s-11.1-2.1-16.7-2.3c-7.4-0.2-14.8-1.7-22.2-1.1c-9.5,0.8-18,3.5-27.5,2.9
		c-6.8-0.4-13.9-1.8-20.7-1.6c3.8-0.1-2.4-0.7-5.4-1.2c-9.4-0.4-29.3-1.6-43.5-2c1.9-0.5-2-0.7-6.6-0.9c-4.6-0.2-9.7-0.4-10.3-0.9
		c-3.2-0.2-8.1-0.2-8.5,0.2c1.8-0.1,6,0.4,5.4,0.5c-4.6-0.1-11.7-0.4-12.4,0.1l-5.7-0.7c-0.3,0.2-1.2,0.5-2.7,0.6
		c-1.2,0-2.5-0.1-3.7-0.1c-2.2-0.4-2.3-0.3-2.5-0.1c-1.4,0-2.7-0.1-4.1-0.1c1.6-0.2,2.9-0.4,3.5-0.5c-4.8-0.3-4.2,0-7.6-0.1
		c-1.1-0.3,3.5-0.6,7.2-0.7l-6.2-0.5c-6.1,0.3-16.6,0.8-26.2,0.2c1.6-0.3,4.7-0.1,2.3-0.7c-4.2,0-9.8,0.4-15.2-0.2
		c0.8,0,0.3-0.1,1-0.1c-9.7,0.1-7.2-0.4-15.9-0.9c0.1,0,0.2-0.1,0.4-0.1l-5.4,0.1c-11.3,0.2-12.4-1.2-19-1.9l1.5,0
		c-2-0.4-6.5-0.7-10.8-0.9c-4.4-0.3-8.7-0.5-10.5-0.8c4.7,0.7,1.5,0.5,4.9,1.3c4.2,0.2,3-0.6,9.9,0.1c-1,0.5-9.8,0.1-11.7,0.4
		c-3.9-0.2-6.4-1.3-6.7-1.7c-9.7-0.7-15-1.5-26.9-2.5c-4.3,0-7.8,0.8-17.5-0.9l0.6-0.1c-0.4,0.3-4.8-0.5-6.9-0.4
		c3.3,0.9-4.3,0-0.2,0.9c-5.8-0.4-6.6-1.3-7.1-1.8c-4.3,0.5-11.5-1.3-20.5-1.2c1.6-0.3,11.4,0.2,7.5-0.4c-3.9,0.1-7.8,0.2-11.6,0.4
		l5.1,0.2c-8.8,0.3-11.2-0.4-16.3-0.7c-0.5-0.1,0.1-0.2,1.1-0.3c1,0,2.5,0,3.7,0c-2.7-0.1-7,0-10.6,0.3c-2.7,0.3-11.9,1-15.5,1.7
		c-0.5,0-1,0-1.5,0.1c0.1-0.1,0.4-0.1,0.7-0.1c-0.7,0.1-1.3,0.1-1.9,0.2c-1.5,0.1-3.1,0.2-4.6,0.3l0.9-0.2c-0.6,0.1-1.2,0.2-1.8,0.3
		c-1.6,0.1-3.2,0.3-4.8,0.5l-2.4,0.5l1.2-0.1c-0.1,0.3-1.6,0.8-3.8,1.3c-2.7,0.4-5.4,0.9-8.1,1.5c-2.8,0.6-5.6,1.2-8.4,1.9
		c-3,0.6-6.4,1.4-9.5,2.2c-3.9,0.9-7.3,1.7-9.1,1.6c10.3-2.7,15.2-3.8,26.2-6.5c3-0.2,1.2,0.1-1.3,0.8c-2.5,0.6-5.8,1.4-5.9,1.6
		c2.1-0.4,4.2-0.9,6.3-1.3c-1-0.3,12.3-2.5,8.7-2.8c-3.5,0.6-7.1,1.1-10.5,1.9c-3.4,0.7-6.8,1.5-10.1,2.2
		c-6.6,1.5-12.8,2.9-18.8,3.7c3.4-1.9,6.5-4,9.5-6.1c0-0.1,0.1-0.2,0.6-0.4l-0.6,0.4c0.1,0.2,2.3-0.5,4.9-1.2
		c-0.5,0.3-0.9,0.7,2.2-0.1c6.5-1.2,9.7-2.9,14.8-3.8l-1.5,0.4c2.4-0.4,5.1-0.8,7.6-1.3c2.5-0.5,5-0.9,6.7-1.3
		c2,0.1-1.4,0.6-4.4,1.1c-3,0.5-5.5,1-1.7,0.6c-2.6,0.4-5.8,1-8.7,1.7c-2.9,0.7-5.6,1.5-7.4,2c3.2-0.7,6.3-1.1,8.4-1.3
		c2.1-0.1,3.2,0,2.3,0.3c7-1.5,6.9-1.9,6.5-2.2c-0.3-0.3-0.9-0.6,5.4-1.7c2.9-0.4,5.9-0.6,8.8-0.8c1-0.4,2-0.8,2.9-1.1
		c5.3-0.4-3.2,0.9,5,0.3c2.2-0.6,7.5-0.4,9.1-0.7c-0.2,0.2-0.3,0.3,3.9,0.3c0.3-0.1-0.1-0.4,3.2-0.4c2.2,0.8-8.4,0.2-4.6,0.9
		c9.3-0.1,6-0.7,7.4-1.1c-0.3,0-0.8,0-1.8,0c0.1-0.3,4.1,0,3.6-0.3c-1.6-0.1-3.2,0-4.5,0.1c2.8-0.3-4.6-0.6-7.5-0.4
		c-6.5,0.5-20.1,1.3-29,2.8c0.8-0.1,2.3-0.4,1.3-0.4c-1.6,0.2-3.1,0.4-4.5,0.6c-1.4,0.2-2.7,0.5-3.9,0.7c-2.5,0.4-4.8,0.8-7.1,1.4
		c-4.6,1-9.2,2.1-15.5,3.7l-1.3,0.9c-5.5,1.2-6.6,1.8-6.8,2.3c-0.1,0.5,0.8,0.8-0.6,1.1c-2.4,0.4-4.4,1.1-6.6,1
		c0.4-0.1,0.7-0.2,1.1-0.3c-3.4,0.5-3.9,0.6-4.3,0.7c-0.4,0.1-0.8,0.3-3.8,0.3c-2.4,0.1-1.4,0.2-0.1,0.2c1.3,0,2.8,0,1.2,0.2
		c-1.6,0-2.7,0-3.5,0.1c-0.8,0.1-1.5,0.2-2.2,0.2c-1.5,0.1-3.4,0.2-8.5-1.2c0.3,0,0.1-0.3,0.6-0.3c0.5-0.1,1.7,0.1,4.5,0.5
		c-1.8-0.4-3.6-1-5.6-1.5c3.5,0.7,4.1,0.7,4.8,0.8c0.7,0.1,1.3,0.3,4.6,0.5c1.6-0.2,2.2-0.4,2.7-0.6c0.6-0.2,1.1-0.4,2.5-0.7
		c-1.2,0.1-1.7,0.3-2.4,0.4c-0.6,0.1-1.5,0.2-3.2,0c-4.2-0.6,0.8-0.2,1.2-0.4c-2.9,0.1-4.4-0.3-5.9-0.8c-1.5-0.5-2.9-0.9-6.1-1.3
		c0.8,0.9-0.2,0.7,3.6,2c-2-0.3-4.4-0.9-6.2-1.5c-1.8-0.6-3.1-1.1-2.8-1.4l-1.2,0.3c-1.1-0.4-5-0.9-5.2-1.1l-1.7,0.1
		c3.4,0.8,6.4,1.4,12,2.5c-2.4-0.1,2.7,1.5-4.7,0.1c-3.3-0.6-0.3-0.4-0.4-0.6c-2.2-0.4-4.1-0.6-5.8-0.8c-1.7-0.2-3.2-0.4-4.6-0.5
		c-1.4-0.1-2.6-0.2-3.7-0.3c-1.1-0.1-2.1-0.1-3.1-0.2c-4-0.2-7.6-0.4-14.4,0.5c3.3-0.7,11.8-1,18.7-1.1c-4.1-0.6-8.9,0.1-12.8,0.3
		c3.5-0.5,4.1-0.7-0.1-0.7c-0.6,0.1-1.1,0.3-1.6,0.5c-2.5,0.2-6.8,0.8-7.1,0.6c-0.1,0.1,1,0.1,3.2-0.1c-3,0.5-7.2,1.3-11.9,2.2
		c-4.6,0.9-9.8,2-14.8,3c2.8-0.6,6-1.8,8.8-2.6c-11.1,1.4-21.7,0.8-32.6,4c-5.8,1.7-11.5,4-17.5,4.9c-7.9,1.1-26.1,0-27.9,11.4
		c-0.6,4,2,7.6,4.5,10.8c2.7,3.4,5.4,6.8,9,9.2c4.5,3,10,4.2,14.5,7.2c3.6,2.4,6.4,6,9.8,8.8C69.1,560.4,74.1,560.2,80.5,560.1z
		 M206.5,494.9l-4.3,0.9C203.8,495.4,205.4,495,206.5,494.9z M129.6,553.9c-1.1,0.2-2.6,0.5-3.9,0.7c-1.2,0.1-1.5,0-1.5,0
		C126,554.3,127.8,554.1,129.6,553.9z M56.1,535.1c-0.1-0.1-0.2-0.4-0.3-0.7C56,534.6,56,534.9,56.1,535.1z M186.7,549.5
		c-1.7,0.2-1.5,1-8.4,1.1c-0.1-0.1,0.5-0.1,1.2-0.2c-3.1,0.2-3.7,0.1-7.1,0.2c-1.1-0.4,4.1-0.7,6.4-1.2c-2.2,0.2-4.6,0.6-7.1,0.7
		l0.5-0.2c-2.4,0.2-4.8,0.5-7.3,0.8c-2.9,0.7,5.5-0.5,6-0.2l-4.6,0.7c-5.3,0.5-19.4,2.4-24.4,2.3c-6.2,0.5-3.4,0.8-4.8,1.3
		c-3.6,0.9-7.2,0.8-10.9,1.4c0.2,0.4-4.2,0.9-4.2,1.4l-6.1,0.5c-3.3,1.1,7.3-0.6,9-0.5c3.4,0.3-4.4,0.7-2.2,0.9
		c4.6-0.6,4.9-1,7.1-1.4c2.6-0.4,4.1-0.4,4.1-0.1c-7.5,0.6-3.9,1.1-10,1.7l-0.2-0.1c0,0.5-8.8,1.2-12.1,1.7c-6.8,0,5.3-1.3,5.1-1.4
		c-2.7,0.3-5.4,0.6-8.2,0.9c3.5-0.6-0.1-0.7,4.6-1.4c-5,0.6-5.6,0.2-10.4,0.8c5.4-1.1-6.8-0.2-7.4-0.7c5.2-0.3,14.5-0.4,15-0.2
		c0.8-0.2,6.7-0.7,9.2-0.8l3.7-1.1c-4.3,0.5-10.2,1.4-8.7,0.6c-2,0.3-3.9,0.6-5.9,0.8c6-1.5,5.7-1.4,11.1-2.4
		c-11.4,0.5-20.2,2.7-29.7,2.1l1.5-0.1c-4.7,0.1-8.6-0.1-11.6-0.7c-3-0.6-5.2-1.5-6.6-2.4c-0.1,0-0.1-0.1-0.1-0.1
		c0.3,0.1,0.6,0.3,0.9,0.4c5.2,2.3,11.8,2.5,18,2.4c10-0.2,19.9-1,29.7-2.2l-1.2,0.5c0.2,0,0.4-0.1,0.7-0.1
		c11.3-1.6,1.2,0.7,12.7-1.1c-0.4,0.1-0.6,0.2-0.9,0.3c4.7-0.8,13.4-1.7,14.3-2.4c-1.1,0.1-5.5,0.6-7.6,0.6
		c4.9-0.6,9.9-1.3,14.8-1.9c1,0,2-0.1,3.2-0.2l0,0l0,0c1.1-0.1,2.4-0.3,4-0.5c0.4-0.1,0.7-0.1,0.9-0.2c5.9-0.6,11.9-1.1,17.8-1.3
		C179.9,549,193.6,548.7,186.7,549.5z M205.2,549.3c-7-0.3-2.1-0.2-7.1-0.6c-0.3-0.1-0.1-0.2,0.3-0.2c5.3,0.1,10.5,0.4,15.8,0.8
		C209.7,548.9,204.9,548.7,205.2,549.3z M226.6,550.6c-2.4-0.3-9.2-0.7-9.7-1.1c3.3,0.2,4.2,0.3,3.9,0.2c3.4,0.3,6.8,0.6,10.3,0.9
		c0.1,0.1,0.4,0.2,0.9,0.3C230.4,550.8,228,550.6,226.6,550.6z M314.9,557.9c-6.1,0.1,0.3-0.3-2.8-0.5c-4.7,0.8-5.9-0.6-10.9,0.3
		c-5.9,0.1-4-0.4-5.9-0.7c5.9,0.1-2.7-0.6,4.7-0.7c-3-0.2-4.1-0.1-5.1,0.1c-1,0.1-1.8,0.3-4.4,0.1l-0.7-0.7
		c-2.3-0.2-5.9-0.4-9.7-0.6c-3.8-0.3-7.8-0.6-10.9-0.6c5.1,0.8-3.1,0.2-2.3,0.6c1-0.4,8.1,0.5,8,0.7c-3.7-0.1-12.3-0.8-15.7-1.2
		l6.7,0.9c-2.8,0.1-12.8-0.3-13.1-0.2c-3-0.6-7.6-1-9.1-1.5l5.8,0.1l1.9,0.6l3.4-0.2c-3.7-0.5-11.3-1.7-12.9-2.3
		c5.8,0.6,13.7,1.4,23.3,1.7c5.5,0.5,10.9,0.9,16.4,1.2c13.1,0.7,26.2,0.7,39.3,0.2c-0.1,0-0.2,0-0.3,0c-1.5,0.3-3.3,0.5-5.5,0.6
		c1.2-0.1,2.7-0.1,4.6,0c-3.5,0.5-7,1-10.6,1.3c2.7,0.1,4.2-0.2,5.9-0.4c1.7-0.3,3.5-0.5,6.8-0.5
		C321.4,556.9,321.9,557.2,314.9,557.9z M497,537.3c4.6,0,9.2,0,13.7,0l-0.1,0l4.5,0.4c-1.7,0.1-3.4,0.3-5.1,0.4L497,537.3z
		 M183.6,505c1.4-0.1,1.9,0.1,2.3,0.2c-1.2,0.1-2.3,0.3-3.4,0.3L183.6,505z M141.7,500.3c0.3-0.3,2.2-0.4,4.4-0.3
		c2.2,0.1,4.5,0.3,5.7,0.2c0.9,0.1,3.5,0.5,5.4,1c2,0.5,3.4,0.9,2.4,0.9c-2.7-0.7-4.1-0.7-5.4-0.8c-1.3,0-2.5-0.2-5.1-0.9
		c-1,0.3,0.4,0.6,2.4,1c-0.7-0.1-1.2,0-1.3,0.1c-1-0.2-2-0.3-3-0.5c-1-0.1-2-0.2-2.9-0.3C142.7,500.5,141.2,500.4,141.7,500.3z
		 M134.2,500.2l-1.7,0.1c-6.6,0.2-10.8,0.9-13.2,1.3c-2.3,0.4-2.8,0.6-2.2,0.7c-1.5,0.2-3.1,0.5-4.6,0.8c2.7-0.8,5.2-1.5,6.7-1.8
		C124.7,500.5,130.7,500.1,134.2,500.2z M100,504.8c-0.3,0.2,0,0.2,0.7,0.1c-1.7,0.4-3.4,0.8-5.1,1.2
		C96.3,505.8,95.1,505.8,100,504.8z M52.5,529.2c0-0.9,0.4-1.9,0.7-2.7c0.6-1.3,1.2-2.2,1.4-2.3c-0.2-0.5,0.8-2.4,2.7-4.4
		c2.1-2.2,5.2-4.1,6.9-5.2c4.4-2.3,6.2-2.6,7.7-3c1.6-0.3,2.9-0.7,7.1-2.2c-1.1,0.2-2.2,0.4-3.3,0.6c3.7-1.3,6.5-2.2,9.3-2.9
		c2.9-0.8,5.9-1.4,10.2-2.3c1.2,0.3-4,0.8-5.8,1.5l4.3-0.4c-1.8,0.4-5.3,1.7-5.4,1.2c0,0.3-2.7,1.3,2.6-0.2l-3.9,1.3
		c0.2,0,0.6,0,1-0.1c-1.2,0.3-2.4,0.7-3.6,1c-1.6,0.3-4.3,1-6.8,1.4c-0.3-0.1,2.2-0.9,3.6-1.4c-3.8,0.8-6.9,2-8.8,2.9
		c2.8-1,3.5-1.1,3.7-1c0.2,0.1-0.1,0.4,0.6,0.4c-1.6,0.6-3.8,1.5-5.7,2.3c-1.9,0.8-3.7,1.7-4.5,2.2c-1.1,0.5-2.1,1-3,1.5
		c-0.9,0.4-1.6,0.9-2.2,1.1c-1.1,0.5-1.5,0.5-0.5-0.5c-2.2,1.9-4.6,3.9-5.3,6.5c0.5-1.1,0.9-1.7,1.2-1.9c0.3-0.2,0.5-0.2,0.8-0.3
		c0.2,0,0.5-0.1,0.9-0.5c0.2-0.2,0.4-0.5,0.8-0.8c0.4-0.4,0.8-0.8,1.4-1.5c0.4-0.2,0.6-0.1,0.5,0.1c-2,1.6-3.6,3.5-4.6,5.5
		c-0.3,0.5-0.7,1.1-0.9,1.5c0.5-1.5-0.4-0.3-0.5-0.7c-0.2,0.6-0.3,1-0.3,1.4c0,0.4,0,0.7,0,0.9c0,0.4,0.2,0.5,0.3,0.3
		c0.2-0.1,0.3-0.4,0.5-0.8c-0.1,0.3-0.2,0.7-0.3,1c-0.3,2,0,3.9,0.7,5.7c0.1,0.9,0.4,1.8,0.6,2.7c-0.8-1.3-1.4-2.7-1.8-4.1
		c-0.1,0.9,0.3,2.1,0.9,3.3c0.6,1.2,1.5,2.4,2.1,3.4c0.6,1.2-0.5,0-1.8-1.9c-1.3-1.9-2.5-4.6-3.1-6.1
		C52.5,531,52.4,530.1,52.5,529.2z"/>
	<path class="st2" d="M140.3,156.7c-2-2.2-4.4-4-6.7-5.8c-2.9-2.2-6-4.2-9.4-5.6c-2.9-1.2-6-1.5-9.2-2c-2.2-0.3-5.7-0.8-6.5-3.2
		c-0.2-0.5-0.7-1.1-1.3-1.1c-0.1,0-0.3,0-0.4,0c-1.1,0-1.5,1.5-1.4,2.3c0,0.6,0.1,1.2,0.2,1.9c-0.6-0.4-0.9,0.9-0.6,1.4
		c0.7,1.1,1.4,2.3,2,3.5c0.4,1,0.9,1.9,1.4,2.7c3.2,6.3,5.6,13,7.8,19.7c1.6,4.7,3,9.4,4.6,14.1c0.8,2.3,1.6,4.5,2.4,6.7
		c0.1,0.1,0.1,0.3,0.2,0.4c-6.7-0.5-13.1,2.3-16.8,8.3c-4,6.5-3,15.6,2.7,20.7c6,5.4,15,2.9,19.3-3.2c0.2-0.3,0.4-0.6,0.6-0.9
		c2.1-2.3,3.3-5.2,3.9-8.3c0.8-3.6,1.2-8.1-0.1-11.7c0.2-0.4,0.2-0.9,0.1-1.2c-2.8-6.8-5.8-13.6-8.6-20.5c-1.9-4.6-3.9-9.5-6.6-13.9
		c-0.1-0.2-0.2-0.4-0.3-0.7c0.1-0.4,0.1-0.8,0-1.3c-0.2-0.8-0.4-1.5-0.6-2.3c0.9,0.4,1.8,0.8,2.8,1.1c0.1,0.2,0.3,0.3,0.5,0.5
		c0.3,0.3,0.8,0.3,1.1,0.1c4.4,1.6,8.9,3.3,11.8,7.1c4.8,6.1,7.9,12.9,8,20.8c0,1,0.9,2.8,2.1,1.7
		C153.1,179.3,147.9,165.2,140.3,156.7z M112.2,217.1c0-0.1,0.1-0.3,0.1-0.4c0.1,0.2,0.1,0.3,0.2,0.5
		C112.5,217.1,112.3,217.1,112.2,217.1z M127.1,197.1C127.1,197.1,127.1,197.1,127.1,197.1c0.1,0.3,0.2,0.5,0.3,0.7c0,0,0,0.1,0,0.1
		c0,0,0,0,0,0c0,0-0.1,0-0.1,0c0-0.2-0.1-0.4-0.2-0.6C127,197.3,127.1,197.2,127.1,197.1z M119.1,173.3c1.7,4.3,3.4,8.6,4.8,13
		c0.5,1.6,1,3.2,1.5,4.9c-0.9-2.5-2-5-2.9-7.4c-1.4-3.9-2.6-7.8-3.9-11.7C118.7,172.4,118.9,172.9,119.1,173.3z M133.2,161.4
		c0.1,0,0.2,0,0.3-0.1c0.1,0.2,0.2,0.4,0.3,0.6C133.5,161.8,133.3,161.6,133.2,161.4z"/>
	<path class="st3" d="M159.3,98.4c0.8-2.8,1.2-5.7,1.3-8.6c0.4-3.1,0.7-6.2,1-9.3c0.4-4.2,0.6-8.4,0.9-12.6c0.2-1.9,0.4-3.7,0.3-5.6
		c0-0.7,0.1-1.3,0.1-2c0.1-0.6,0.2-1.1,0.3-1.7c0.1-0.4,0-0.9-0.3-1.1c-0.2-0.2-0.5-0.3-0.7-0.4c0,0,0-0.1,0-0.1
		c0.1-0.4-0.1-1.6-0.8-1.1c-0.3,0.2-0.6,0.4-0.8,0.6c0-0.4-0.2-0.8-0.5-0.9c-1.6-0.7-3.2-1.3-4.8-1.9c-1.9-0.8-3.8-1.7-5.7-2.6
		c-1.5-0.8-2.9-1.5-4.4-2.2c-1.9-0.8-3.7-1.6-5.6-2.4c-0.8-0.4-1.7-0.7-2.5-1.1c-0.1,0-0.3-0.1-0.4-0.1c0-0.1,0-0.3,0-0.4
		c0-1-0.9-0.8-1.1,0l0,0c0-0.2-0.1-0.3-0.2-0.1c-1.2,3.7-2.1,7.6-2.7,11.6c-0.2,0-0.4,0-0.6,0c-0.9,0-1.4,1.8-0.4,2
		c0.2,0.1,0.5,0.1,0.7,0.2c-0.5,2.8-0.9,5.7-1.3,8.4c-0.8,5.3-1.8,10.7-2.6,16.1c-0.2-0.1-0.3-0.1-0.5-0.2c-0.2-0.1-0.7-0.4-0.8-0.3
		c-0.1-0.1-0.2-0.1-0.3-0.2c-0.1,0-0.2-0.1-0.3-0.1c-1-0.4-2.1-0.7-3.2-1c0,0,0,0,0,0c-0.1,0-0.1,0-0.2-0.1c-0.1,0-0.2-0.1-0.3-0.1
		c-1.7-0.5-3.3-0.8-4.9-0.5c-0.1-0.2-0.3-0.2-0.5,0.1c0,0,0,0,0,0.1c-0.2,0-0.3,0.1-0.5,0.1c0-0.1,0.1-0.2,0.1-0.3
		c0.2-0.3-0.2-0.9-0.5-0.5c-0.2,0.4-0.5,0.8-0.7,1.1c-4.2,2-7,6.8-6.6,11.4c0.5,5.3,6.2,6.4,10.5,5.3c3.7-0.9,8.7-3.4,10.7-7.1
		c-0.2,1.2-0.3,2.4-0.5,3.6c-0.1,0.6,0.5,1,0.7,0.3c0.4-1.1,0.7-2.1,0.9-3.2c0.2,0.1,0.5-0.1,0.6-0.4c0.5-2.2,0.6-4.5,0.8-6.8
		c0.1-0.2,0.3-0.4,0.3-0.6c2-7.1,4.5-14.8,5.1-22.4c2.9,1.1,5.8,2,8.7,2.9c2.5,0.9,4.9,1.8,7.2,2.9c1,0.5,2,1.1,2.9,1.8
		c0.2,0.1,0.3,0.3,0.5,0.4c-0.8,3.8-1.2,7.7-1.7,11.5c-0.5,3.4-0.9,6.8-1.2,10.3c-0.1,1-0.2,1.9-0.3,3c-0.3-0.2-0.7-0.4-1-0.5
		c-0.5-0.4-1.1-0.8-1.7-1c-1.1-0.5-2.3-0.7-3.5-0.8c-0.1-0.1-0.2-0.1-0.3,0c-1.1,0-2.3,0.1-3.4,0.4c-5.7,1.3-8.9,6.2-8.3,11.8
		c0.5,4.1,3.1,7.2,7.3,7.4c4,0.2,8.2-1.6,11.4-3.9c2.2-1.6,4.4-3.7,5-6.5C159.8,100,159.6,99.1,159.3,98.4z M112.2,90.8
		c0-0.1-0.1-0.3-0.1-0.4c0.1,0.1,0.2,0.2,0.3,0.2C112.4,90.6,112.3,90.7,112.2,90.8z M112.9,90.4c-0.1,0-0.1,0-0.2,0
		c0,0,0.1-0.1,0.2-0.2c0.1-0.1,0.2-0.3,0.3-0.4c0,0,0,0.1,0,0.1C113.1,90.1,113,90.2,112.9,90.4z M125.1,84.5c0-0.1,0-0.1-0.1-0.2
		c0,0,0,0,0,0c0.2,0,0.4,0.1,0.5,0.1C125.4,84.5,125.3,84.5,125.1,84.5z M145.1,53.2c0,0,0.1,0,0.1,0c0.5,0.3,1.1,0.7,1.6,1
		c-0.9-0.4-1.8-0.8-2.7-1.2C144.5,53,144.8,53.1,145.1,53.2z M137.5,47.1c0,0,0.1,0,0.1,0.1c0,0-0.1,0.1-0.1,0.1c0,0,0,0,0,0
		c-0.2-0.1-0.4-0.1-0.5,0.1c0-0.2,0-0.4-0.1-0.6C137.1,46.9,137.3,47,137.5,47.1z M134.3,51.4L134.3,51.4
		C134.3,51.3,134.3,51.3,134.3,51.4L134.3,51.4c-0.2,0.7-0.3,1.3-0.5,2c0.3-1.8,0.6-3.6,0.9-5.5c0.1,0.1,0.1,0.1,0.2,0.2
		c-0.1,0.7-0.2,1.3-0.3,2C134.6,50.5,134.5,50.9,134.3,51.4z M133.5,55.6c0,0.1,0.1,0.2,0.2,0.3c0,0.2-0.1,0.4-0.1,0.6
		c-0.1,0-0.1,0-0.2,0C133.4,56.2,133.4,55.9,133.5,55.6z M131.5,67.9c0.4-3,0.9-6,1.4-9c0,0,0.1,0,0.1,0c-0.6,3.4-1.1,6.8-1.6,10.2
		c0,0.1,0,0.1,0,0.2c-0.2,0.7-0.3,1.5-0.5,2.2C131.2,70.3,131.3,69.1,131.5,67.9z M128.9,88.3c-0.1,0.1-0.2,0.1-0.4,0.2
		c0,0,0-0.1,0-0.1c0-0.1,0.1-0.1,0.1-0.2c0-0.1,0.1-0.2,0.1-0.4c0.1,0,0.2-0.1,0.2-0.1C129,88,128.9,88.2,128.9,88.3L128.9,88.3z
		 M135.3,68.1c0.4-2.3,0.9-4.6,1.4-6.9c-0.2,2.5-0.7,4.9-1.2,7.3c-0.2,0.8-0.3,1.6-0.5,2.3C135.1,69.9,135.2,69,135.3,68.1z
		 M158.1,64.3c-2.8-2.5-6.2-4.1-9.5-5.6c-3.4-1.5-7-2.7-10.6-3.6c0-0.5-0.1-1-0.2-1.4c0-0.1,0-0.2,0.1-0.3c0.1-0.4,0.2-0.7,0.3-1.1
		c3.1,1.6,6.2,3.1,9.4,4.6c3.2,1.4,6.5,2.8,9.8,3.7c0.4,0.2,0.8,0.5,1.2,0.6c-0.1,1-0.2,2.1-0.2,3.1c0,0.2-0.1,0.4-0.1,0.6
		C158.3,64.6,158.2,64.5,158.1,64.3z M140,96.9c-0.1-0.1-0.2-0.2-0.3-0.3c0.6-0.5,1.2-0.9,1.9-1.3C141.1,95.7,140.5,96.3,140,96.9z
		 M147.8,95.6c0.1-0.2,0.2-0.4,0.2-0.6c0,0,0.1,0,0.1,0c0.1,0,0.1,0,0.2,0.1C148.1,95.3,148,95.5,147.8,95.6z M153.8,98.6
		c0-0.1,0-0.2-0.1-0.2c0.1-0.1,0.2-0.2,0.3-0.2c0,0,0,0,0,0c0,0.2,0,0.3,0,0.5C154,98.6,153.9,98.6,153.8,98.6z M156.1,103.5
		c-0.6,0.6-1.2,1.1-1.9,1.6c0-0.1,0-0.1-0.1-0.2c0.5-0.4,1-0.8,1.5-1.2C155.9,103.7,156,103.6,156.1,103.5
		C156.2,103.5,156.2,103.5,156.1,103.5z"/>
	<path class="st2" d="M235.1,54c-0.9-1.2-2.1-2.2-3.4-2.8c-0.1-0.1-0.1-0.2-0.2-0.2c-0.2-0.3-0.4-0.3-0.6-0.1
		c-1.2-0.5-2.6-0.7-3.9-0.4c-1,0.2-2,0.6-2.9,1.1c-0.6-0.9-1.3-1.9-1.9-2.8c0-0.1-0.1-0.1-0.1-0.2c1.5-3.4,2.5-7.1,1.5-10.8
		c-0.5-1.9-1.2-3.8-2.2-5.5c-0.7-1.2-2.4-3.1-3.9-2.6c-0.6,0.2-1,0.9-1.3,1.4c-0.5,0.9-0.9,2-1.3,3c-0.7,1.8-0.8,3.7-0.6,5.6
		c0.4,3.1,1.8,6,3.5,8.6c-0.8,1.7-1.6,3.4-2.4,5.1c-0.7,1.7-1.2,3.5-1.3,5.3c0,0,0,0.1,0,0.1c0,0.3,0,0.6,0,0.9
		c0,1.4,0.3,2.9,0.9,4.3c1.4,3.1,3.7,6,6.8,7.6c3.2,1.7,6.8,1.4,9.8-0.5c0.1,0,0.1-0.1,0.2-0.1c0.5,1.1,1,2.2,1.4,3.4
		c0.4,1.2,0.8,2.5,0.7,3.8c-0.1,0.6-0.5,1.1-1.1,1c-0.6,0-0.7-1.4-0.8-1.8c-0.4-1.5-0.9-2.8-2.4-3.4c-1.5-0.5-3.1,0.1-4,1.3
		c-2.6,3.3,1.5,7.3,4.6,8.2c3,0.9,6-1.2,7.2-3.8c1.8-3.9-1-7.9-3-11C237.5,64.7,238.5,58.4,235.1,54z M235,55.2
		c-0.1,0-0.1,0.1-0.1,0.2c0,0,0,0-0.1,0c0-0.1-0.1-0.2-0.1-0.2c0-0.1,0-0.2-0.1-0.4c-0.1-0.1-0.1-0.2-0.2-0.4
		c-0.1-0.1-0.1-0.2-0.2-0.3C234.5,54.5,234.8,54.9,235,55.2z M236.2,62.2c0.1-0.4,0.1-0.8,0.2-1.2C236.3,61.4,236.3,61.8,236.2,62.2
		C236.2,62.2,236.2,62.2,236.2,62.2z M232.7,53.5c0,0-0.1-0.1-0.2-0.1c-0.1-0.1-0.1-0.2-0.2-0.2C232.5,53.2,232.6,53.4,232.7,53.5z
		 M218.8,31.1c0,0,0,0.1,0,0.1c-0.2-0.1-0.3-0.2-0.5-0.3C218.4,30.9,218.6,31,218.8,31.1z M216.9,36c0.2-0.8,0.6-1.5,1.2-2
		c0.8-0.6,1.8,0.1,2.3,0.7c0.9,1.2,0.7,3.1,0.5,4.5c-0.3,1.7-0.8,3.4-1.4,5c0,0.1,0,0.1-0.1,0.2c-0.3-0.7-0.7-1.3-0.9-2
		C217.7,40.3,216.4,38.2,216.9,36z M215.6,55.7C215.6,55.7,215.6,55.7,215.6,55.7c0,0.1,0,0.1,0,0.2c0,0,0,0.1,0,0.1
		c0,0.1,0,0.3-0.1,0.4c0,0,0,0,0,0c0,0,0,0.1,0,0.1c0,0-0.1-0.1-0.1-0.1C215.5,56.1,215.6,55.9,215.6,55.7z M216.9,63.8
		C216.9,63.8,216.9,63.8,216.9,63.8c-0.1-0.2-0.1-0.4-0.2-0.6c0,0,0,0,0,0C216.8,63.4,216.9,63.6,216.9,63.8z M219.9,67.7
		c-0.2-0.2-0.4-0.4-0.6-0.6c0,0,0,0,0,0c0.3,0.2,0.6,0.5,1,0.7C220.2,67.8,220.1,67.8,219.9,67.7z M224,69c-0.1,0-0.1,0-0.2-0.1
		c0.1,0,0.2,0,0.3,0c0,0,0,0,0,0C224.1,69.1,224,69.1,224,69z M227.9,68.5c0,0-0.1,0.1-0.1,0.1c0,0,0,0,0,0c-0.1,0-0.2,0-0.3,0
		C227.7,68.5,227.8,68.5,227.9,68.5C228,68.4,227.9,68.5,227.9,68.5z M224.3,67.8c-1.9,0-3.8-0.7-5.2-2c-1.5-1.4-1.8-3.6-1.6-5.6
		c0.3-2.7,1.6-5.3,2.8-7.8c0.4,0.5,0.7,1.1,1.1,1.6c-0.3,0.3-0.6,0.7-0.8,1.1c-0.9,1.5-1.4,3.3-1.1,5c0.4,1.9,1.8,3.3,3.6,4.1
		c0,0,0,0,0,0c0.4,0.5,0.9,0.9,1.5,1.1c0.7,0.2,0.5-1.1,0-1.3c-1.7-0.5-1.6-2.9-1.1-4.2c0.2-0.5,0.5-1,0.8-1.4
		c0.7,1.1,1.4,2.2,2.1,3.3c1,1.5,1.9,3.1,2.8,4.7C227.9,67.4,226.1,67.8,224.3,67.8z M222.5,59.4c-0.2,0.6-0.3,1.2-0.2,1.8l-0.2-0.4
		c0-0.2,0.1-0.4,0.1-0.6C222.3,59.9,222.4,59.6,222.5,59.4z M222.7,63.4c-0.2-0.1-0.4-0.3-0.6-0.4c0,0,0-0.1,0-0.1
		c0.1,0.1,0.2,0.2,0.3,0.3c0.1,0.1,0.1,0.1,0.2,0.1C222.7,63.3,222.7,63.4,222.7,63.4z M220.1,59.7c0.1,0.2,0.3,0.4,0.4,0.7
		c0.1,0.5,0.3,1.1,0.5,1.6c-0.4-0.4-0.6-0.9-0.8-1.5c-0.2-0.5-0.2-1.1-0.2-1.6c0,0.1,0.1,0.3,0.1,0.4C220,59.3,220,59.5,220.1,59.7z
		 M226.3,54.7c0.1,0,0.1,0,0.2,0c0.1,0,0.1,0,0.2,0c0,0,0.1,0,0.1,0c-0.1,0-0.2,0.1-0.3,0.2C226.3,54.8,226.3,54.7,226.3,54.7z
		 M228,80.1c0.1,0.1,0.2,0.3,0.3,0.4c-0.1,0-0.2-0.1-0.3-0.1c0,0,0,0-0.1-0.1C228,80.3,228,80.2,228,80.1z M234.4,75.6
		C234.4,75.6,234.4,75.6,234.4,75.6c-0.3-1-0.7-2.1-1.1-3.1c-0.2-0.6-0.5-1.2-0.8-1.8c0.3,0.6,0.6,1.3,0.9,1.9
		c0,0.1,0.1,0.1,0.1,0.2C233.8,73.7,234.1,74.6,234.4,75.6z M225.9,76.6c0,0.1,0,0.1,0,0.2c-0.1,0.1-0.1,0.3,0,0.5
		c0,0.1,0.1,0.2,0.1,0.3c0,0,0,0,0,0.1c-0.1-0.2-0.1-0.3-0.2-0.5c0-0.1-0.1-0.1-0.1-0.2C225.7,76.8,225.8,76.7,225.9,76.6z
		 M233.5,67.8C233.5,67.8,233.5,67.8,233.5,67.8c0.1-0.3,0.3-0.5,0.4-0.8c0.1,0,0.1,0,0.2,0C233.9,67.3,233.7,67.6,233.5,67.8z
		 M232.1,60.6c0,1.2-0.4,2.3-1,3.4c-1.5-2.6-2.8-5.2-4.3-7.8c0.9-0.4,1.9-0.5,2.8-0.1C231.4,56.7,232.1,58.9,232.1,60.6z
		 M229.7,53.6c0-0.1,0-0.3-0.1-0.5c0,0,0,0,0,0c0.2,0.2,0.4,0.4,0.6,0.6C230.1,53.7,229.9,53.7,229.7,53.6z M229.4,51.7
		c-0.1,0-0.2,0-0.3,0c0,0,0,0,0,0c-0.1-0.1-0.2-0.1-0.3-0.2c-0.2-0.1-0.3-0.1-0.3,0.1c0-0.1,0-0.1-0.1-0.2c0.4,0,0.9,0,1.3,0.1
		C229.6,51.5,229.5,51.6,229.4,51.7z M231.2,52c0,0.1,0.1,0.2,0.1,0.3c-0.1-0.1-0.2-0.1-0.3-0.2c-0.1-0.1-0.1-0.2-0.2-0.3
		C230.9,51.8,231.1,51.9,231.2,52z"/>
	<polygon class="st2" points="621.3,310.4 590.1,272.1 658.1,254 552.9,257.9 575.7,290.1 530.2,298.2 	"/>
	<polygon class="st2" points="567.1,182.7 536.7,183 554.1,143.4 515.6,195.5 539.8,196.9 526.3,221.9 	"/>
	<polygon class="st4" points="490.9,171.5 479.7,178.6 477.1,159.8 474.7,188 484,183 484.7,195.4 	"/>
	<polygon class="st4" points="708,226.9 691.3,215.6 715.8,200.5 675,214.5 687.8,224.3 670.9,232.9 	"/>
	<polygon class="st2" points="453.4,191.6 419.2,204.2 423,152.4 400.4,226.7 428.3,218.6 423,252.2 	"/>
	<g>
		<path class="st5" d="M541.1,526.6H325.2V348.4c0-1.9,1.5-3.4,3.4-3.4h209c1.9,0,3.4,1.5,3.4,3.4V526.6z"/>
		<path class="st5" d="M509.7,268v66.1c0,1.9-1.5,3.4-3.4,3.4H360c-1.9,0-3.4-1.5-3.4-3.4V268c0-1.9,1.5-3.4,3.4-3.4h146.3
			C508.2,264.6,509.7,266.1,509.7,268z"/>
		<rect x="369.8" y="270.9" class="st3" width="126.7" height="66.7"/>
		<path class="st5" d="M360,337.6h146.3c1.9,0,3.4-1.5,3.4-3.4v-2.9H356.6v2.9C356.6,336,358.1,337.6,360,337.6z"/>
		<path class="st6" d="M541.1,359.3v-4.1c0-5.7-4.6-10.3-10.3-10.3h-4.1V355H339.6V345h-4.1c-5.7,0-10.3,4.6-10.3,10.3v4.1h13.2
			v152.9h-13.2v4.1c0,5.7,4.6,10.3,10.3,10.3h4.1v-12.1h187.1v12.1h4.1c5.7,0,10.3-4.6,10.3-10.3v-4.1h-13.2V359.3H541.1z"/>
		<rect x="339.6" y="521.3" class="st5" width="187.1" height="5.2"/>
		
			<rect x="462" y="433.1" transform="matrix(-1.836970e-16 1 -1 -1.836970e-16 974.1991 -102.6838)" class="st5" width="152.9" height="5.2"/>
		
			<rect x="251.4" y="433.1" transform="matrix(-1.836970e-16 1 -1 -1.836970e-16 763.6057 107.9097)" class="st5" width="152.9" height="5.2"/>
		<rect x="339.6" y="345" class="st5" width="187.1" height="5.2"/>
		<g>
			<g>
				<ellipse class="st7" cx="348.4" cy="363.8" rx="5.7" ry="5.4"/>
				<ellipse class="st7" cx="360.5" cy="363.8" rx="5.7" ry="5.4"/>
				<ellipse class="st7" cx="372.6" cy="363.8" rx="5.7" ry="5.4"/>
				<ellipse class="st7" cx="384.7" cy="363.8" rx="5.7" ry="5.4"/>
				<ellipse class="st7" cx="396.8" cy="363.8" rx="5.7" ry="5.4"/>
				<ellipse class="st7" cx="408.9" cy="363.8" rx="5.7" ry="5.4"/>
				<ellipse class="st7" cx="421" cy="363.8" rx="5.7" ry="5.4"/>
				<ellipse class="st7" cx="433.1" cy="363.8" rx="5.7" ry="5.4"/>
				<ellipse class="st7" cx="445.2" cy="363.8" rx="5.7" ry="5.4"/>
				<ellipse class="st7" cx="457.4" cy="363.8" rx="5.7" ry="5.4"/>
				<ellipse class="st7" cx="469.5" cy="363.8" rx="5.7" ry="5.4"/>
				<ellipse class="st7" cx="481.6" cy="363.8" rx="5.7" ry="5.4"/>
				<ellipse class="st7" cx="493.7" cy="363.8" rx="5.7" ry="5.4"/>
				<ellipse class="st7" cx="505.8" cy="363.8" rx="5.7" ry="5.4"/>
				<ellipse class="st7" cx="517.9" cy="363.8" rx="5.7" ry="5.4"/>
			</g>
			<g>
				<ellipse class="st7" cx="348.4" cy="375.6" rx="5.7" ry="5.4"/>
				<ellipse class="st7" cx="360.5" cy="375.6" rx="5.7" ry="5.4"/>
				<ellipse class="st7" cx="372.6" cy="375.6" rx="5.7" ry="5.4"/>
				<ellipse class="st7" cx="384.7" cy="375.6" rx="5.7" ry="5.4"/>
				<ellipse class="st7" cx="396.8" cy="375.6" rx="5.7" ry="5.4"/>
				<ellipse class="st7" cx="408.9" cy="375.6" rx="5.7" ry="5.4"/>
				<ellipse class="st7" cx="421" cy="375.6" rx="5.7" ry="5.4"/>
				<ellipse class="st7" cx="433.1" cy="375.6" rx="5.7" ry="5.4"/>
				<ellipse class="st7" cx="445.2" cy="375.6" rx="5.7" ry="5.4"/>
				<ellipse class="st7" cx="457.4" cy="375.6" rx="5.7" ry="5.4"/>
				<ellipse class="st7" cx="469.5" cy="375.6" rx="5.7" ry="5.4"/>
				<ellipse class="st7" cx="481.6" cy="375.6" rx="5.7" ry="5.4"/>
				<ellipse class="st7" cx="493.7" cy="375.6" rx="5.7" ry="5.4"/>
				<ellipse class="st7" cx="505.8" cy="375.6" rx="5.7" ry="5.4"/>
				<ellipse class="st7" cx="517.9" cy="375.6" rx="5.7" ry="5.4"/>
			</g>
			<g>
				<ellipse class="st7" cx="348.4" cy="387.5" rx="5.7" ry="5.4"/>
				<ellipse class="st7" cx="360.5" cy="387.5" rx="5.7" ry="5.4"/>
				<ellipse class="st7" cx="372.6" cy="387.5" rx="5.7" ry="5.4"/>
				<ellipse class="st7" cx="384.7" cy="387.5" rx="5.7" ry="5.4"/>
				<ellipse class="st7" cx="396.8" cy="387.5" rx="5.7" ry="5.4"/>
				<ellipse class="st7" cx="408.9" cy="387.5" rx="5.7" ry="5.4"/>
				<ellipse class="st7" cx="421" cy="387.5" rx="5.7" ry="5.4"/>
				<ellipse class="st7" cx="433.1" cy="387.5" rx="5.7" ry="5.4"/>
				<ellipse class="st7" cx="445.2" cy="387.5" rx="5.7" ry="5.4"/>
				<ellipse class="st7" cx="457.4" cy="387.5" rx="5.7" ry="5.4"/>
				<ellipse class="st7" cx="469.5" cy="387.5" rx="5.7" ry="5.4"/>
				<ellipse class="st7" cx="481.6" cy="387.5" rx="5.7" ry="5.4"/>
				<ellipse class="st7" cx="493.7" cy="387.5" rx="5.7" ry="5.4"/>
				<ellipse class="st7" cx="505.8" cy="387.5" rx="5.7" ry="5.4"/>
				<ellipse class="st7" cx="517.9" cy="387.5" rx="5.7" ry="5.4"/>
			</g>
			<g>
				<ellipse class="st7" cx="348.4" cy="399.3" rx="5.7" ry="5.4"/>
				<ellipse class="st7" cx="360.5" cy="399.3" rx="5.7" ry="5.4"/>
				<ellipse class="st7" cx="372.6" cy="399.3" rx="5.7" ry="5.4"/>
				<ellipse class="st7" cx="384.7" cy="399.3" rx="5.7" ry="5.4"/>
				<ellipse class="st7" cx="396.8" cy="399.3" rx="5.7" ry="5.4"/>
				<ellipse class="st7" cx="408.9" cy="399.3" rx="5.7" ry="5.4"/>
				<ellipse class="st7" cx="421" cy="399.3" rx="5.7" ry="5.4"/>
				<ellipse class="st7" cx="433.1" cy="399.3" rx="5.7" ry="5.4"/>
				<ellipse class="st7" cx="445.2" cy="399.3" rx="5.7" ry="5.4"/>
				<ellipse class="st7" cx="457.4" cy="399.3" rx="5.7" ry="5.4"/>
				<ellipse class="st7" cx="469.5" cy="399.3" rx="5.7" ry="5.4"/>
				<ellipse class="st7" cx="481.6" cy="399.3" rx="5.7" ry="5.4"/>
				<ellipse class="st7" cx="493.7" cy="399.3" rx="5.7" ry="5.4"/>
				<ellipse class="st7" cx="505.8" cy="399.3" rx="5.7" ry="5.4"/>
				<ellipse class="st7" cx="517.9" cy="399.3" rx="5.7" ry="5.4"/>
			</g>
			<g>
				<ellipse class="st7" cx="348.4" cy="411.1" rx="5.7" ry="5.4"/>
				<ellipse class="st7" cx="360.5" cy="411.1" rx="5.7" ry="5.4"/>
				<ellipse class="st7" cx="372.6" cy="411.1" rx="5.7" ry="5.4"/>
				<ellipse class="st7" cx="384.7" cy="411.1" rx="5.7" ry="5.4"/>
				<ellipse class="st7" cx="396.8" cy="411.1" rx="5.7" ry="5.4"/>
				<ellipse class="st7" cx="408.9" cy="411.1" rx="5.7" ry="5.4"/>
				<ellipse class="st7" cx="421" cy="411.1" rx="5.7" ry="5.4"/>
				<ellipse class="st7" cx="433.1" cy="411.1" rx="5.7" ry="5.4"/>
				<ellipse class="st7" cx="445.2" cy="411.1" rx="5.7" ry="5.4"/>
				<ellipse class="st7" cx="457.4" cy="411.1" rx="5.7" ry="5.4"/>
				<ellipse class="st7" cx="469.5" cy="411.1" rx="5.7" ry="5.4"/>
				<ellipse class="st7" cx="481.6" cy="411.1" rx="5.7" ry="5.4"/>
				<ellipse class="st7" cx="493.7" cy="411.1" rx="5.7" ry="5.4"/>
				<ellipse class="st7" cx="505.8" cy="411.1" rx="5.7" ry="5.4"/>
				<ellipse class="st7" cx="517.9" cy="411.1" rx="5.7" ry="5.4"/>
			</g>
			<g>
				<ellipse class="st7" cx="348.4" cy="422.9" rx="5.7" ry="5.4"/>
				<ellipse class="st7" cx="360.5" cy="422.9" rx="5.7" ry="5.4"/>
				<ellipse class="st7" cx="372.6" cy="422.9" rx="5.7" ry="5.4"/>
				<ellipse class="st7" cx="384.7" cy="422.9" rx="5.7" ry="5.4"/>
				<ellipse class="st7" cx="396.8" cy="422.9" rx="5.7" ry="5.4"/>
				<ellipse class="st7" cx="408.9" cy="422.9" rx="5.7" ry="5.4"/>
				<ellipse class="st7" cx="421" cy="422.9" rx="5.7" ry="5.4"/>
				<ellipse class="st7" cx="433.1" cy="422.9" rx="5.7" ry="5.4"/>
				<ellipse class="st7" cx="445.2" cy="422.9" rx="5.7" ry="5.4"/>
				<ellipse class="st7" cx="457.4" cy="422.9" rx="5.7" ry="5.4"/>
				<ellipse class="st7" cx="469.5" cy="422.9" rx="5.7" ry="5.4"/>
				<ellipse class="st7" cx="481.6" cy="422.9" rx="5.7" ry="5.4"/>
				<ellipse class="st7" cx="493.7" cy="422.9" rx="5.7" ry="5.4"/>
				<ellipse class="st7" cx="505.8" cy="422.9" rx="5.7" ry="5.4"/>
				<ellipse class="st7" cx="517.9" cy="422.9" rx="5.7" ry="5.4"/>
			</g>
			<g>
				<ellipse class="st7" cx="348.4" cy="434.7" rx="5.7" ry="5.4"/>
				<ellipse class="st7" cx="360.5" cy="434.7" rx="5.7" ry="5.4"/>
				<ellipse class="st7" cx="372.6" cy="434.7" rx="5.7" ry="5.4"/>
				<ellipse class="st7" cx="384.7" cy="434.7" rx="5.7" ry="5.4"/>
				<ellipse class="st7" cx="396.8" cy="434.7" rx="5.7" ry="5.4"/>
				<ellipse class="st7" cx="408.9" cy="434.7" rx="5.7" ry="5.4"/>
				<ellipse class="st7" cx="421" cy="434.7" rx="5.7" ry="5.4"/>
				<ellipse class="st7" cx="433.1" cy="434.7" rx="5.7" ry="5.4"/>
				<ellipse class="st7" cx="445.2" cy="434.7" rx="5.7" ry="5.4"/>
				<ellipse class="st7" cx="457.4" cy="434.7" rx="5.7" ry="5.4"/>
				<ellipse class="st7" cx="469.5" cy="434.7" rx="5.7" ry="5.4"/>
				<ellipse class="st7" cx="481.6" cy="434.7" rx="5.7" ry="5.4"/>
				<ellipse class="st7" cx="493.7" cy="434.7" rx="5.7" ry="5.4"/>
				<ellipse class="st7" cx="505.8" cy="434.7" rx="5.7" ry="5.4"/>
				<ellipse class="st7" cx="517.9" cy="434.7" rx="5.7" ry="5.4"/>
			</g>
			<g>
				<ellipse class="st7" cx="348.4" cy="446.5" rx="5.7" ry="5.4"/>
				<ellipse class="st7" cx="360.5" cy="446.5" rx="5.7" ry="5.4"/>
				<ellipse class="st7" cx="372.6" cy="446.5" rx="5.7" ry="5.4"/>
				<ellipse class="st7" cx="384.7" cy="446.5" rx="5.7" ry="5.4"/>
				<ellipse class="st7" cx="396.8" cy="446.5" rx="5.7" ry="5.4"/>
				<ellipse class="st7" cx="408.9" cy="446.5" rx="5.7" ry="5.4"/>
				<ellipse class="st7" cx="421" cy="446.5" rx="5.7" ry="5.4"/>
				<ellipse class="st7" cx="433.1" cy="446.5" rx="5.7" ry="5.4"/>
				<ellipse class="st7" cx="445.2" cy="446.5" rx="5.7" ry="5.4"/>
				<ellipse class="st7" cx="457.4" cy="446.5" rx="5.7" ry="5.4"/>
				<ellipse class="st7" cx="469.5" cy="446.5" rx="5.7" ry="5.4"/>
				<ellipse class="st7" cx="481.6" cy="446.5" rx="5.7" ry="5.4"/>
				<ellipse class="st7" cx="493.7" cy="446.5" rx="5.7" ry="5.4"/>
				<ellipse class="st7" cx="505.8" cy="446.5" rx="5.7" ry="5.4"/>
				<ellipse class="st7" cx="517.9" cy="446.5" rx="5.7" ry="5.4"/>
			</g>
			<g>
				<ellipse class="st7" cx="348.4" cy="458.4" rx="5.7" ry="5.4"/>
				<ellipse class="st7" cx="360.5" cy="458.4" rx="5.7" ry="5.4"/>
				<ellipse class="st7" cx="372.6" cy="458.4" rx="5.7" ry="5.4"/>
				<ellipse class="st7" cx="384.7" cy="458.4" rx="5.7" ry="5.4"/>
				<ellipse class="st7" cx="396.8" cy="458.4" rx="5.7" ry="5.4"/>
				<ellipse class="st7" cx="408.9" cy="458.4" rx="5.7" ry="5.4"/>
				<ellipse class="st7" cx="421" cy="458.4" rx="5.7" ry="5.4"/>
				<ellipse class="st7" cx="433.1" cy="458.4" rx="5.7" ry="5.4"/>
				<ellipse class="st7" cx="445.2" cy="458.4" rx="5.7" ry="5.4"/>
				<ellipse class="st7" cx="457.4" cy="458.4" rx="5.7" ry="5.4"/>
				<ellipse class="st7" cx="469.5" cy="458.4" rx="5.7" ry="5.4"/>
				<ellipse class="st7" cx="481.6" cy="458.4" rx="5.7" ry="5.4"/>
				<ellipse class="st7" cx="493.7" cy="458.4" rx="5.7" ry="5.4"/>
				<ellipse class="st7" cx="505.8" cy="458.4" rx="5.7" ry="5.4"/>
				<ellipse class="st7" cx="517.9" cy="458.4" rx="5.7" ry="5.4"/>
			</g>
			<g>
				<ellipse class="st7" cx="348.4" cy="470.2" rx="5.7" ry="5.4"/>
				<ellipse class="st7" cx="360.5" cy="470.2" rx="5.7" ry="5.4"/>
				<ellipse class="st7" cx="372.6" cy="470.2" rx="5.7" ry="5.4"/>
				<ellipse class="st7" cx="384.7" cy="470.2" rx="5.7" ry="5.4"/>
				<ellipse class="st7" cx="396.8" cy="470.2" rx="5.7" ry="5.4"/>
				<ellipse class="st7" cx="408.9" cy="470.2" rx="5.7" ry="5.4"/>
				<ellipse class="st7" cx="421" cy="470.2" rx="5.7" ry="5.4"/>
				<ellipse class="st7" cx="433.1" cy="470.2" rx="5.7" ry="5.4"/>
				<ellipse class="st7" cx="445.2" cy="470.2" rx="5.7" ry="5.4"/>
				<ellipse class="st7" cx="457.4" cy="470.2" rx="5.7" ry="5.4"/>
				<ellipse class="st7" cx="469.5" cy="470.2" rx="5.7" ry="5.4"/>
				<ellipse class="st7" cx="481.6" cy="470.2" rx="5.7" ry="5.4"/>
				<ellipse class="st7" cx="493.7" cy="470.2" rx="5.7" ry="5.4"/>
				<ellipse class="st7" cx="505.8" cy="470.2" rx="5.7" ry="5.4"/>
				<ellipse class="st7" cx="517.9" cy="470.2" rx="5.7" ry="5.4"/>
			</g>
			<g>
				<ellipse class="st7" cx="348.4" cy="482" rx="5.7" ry="5.4"/>
				<ellipse class="st7" cx="360.5" cy="482" rx="5.7" ry="5.4"/>
				<ellipse class="st7" cx="372.6" cy="482" rx="5.7" ry="5.4"/>
				<ellipse class="st7" cx="384.7" cy="482" rx="5.7" ry="5.4"/>
				<ellipse class="st7" cx="396.8" cy="482" rx="5.7" ry="5.4"/>
				<ellipse class="st7" cx="408.9" cy="482" rx="5.7" ry="5.4"/>
				<ellipse class="st7" cx="421" cy="482" rx="5.7" ry="5.4"/>
				<ellipse class="st7" cx="433.1" cy="482" rx="5.7" ry="5.4"/>
				<ellipse class="st7" cx="445.2" cy="482" rx="5.7" ry="5.4"/>
				<ellipse class="st7" cx="457.4" cy="482" rx="5.7" ry="5.4"/>
				<ellipse class="st7" cx="469.5" cy="482" rx="5.7" ry="5.4"/>
				<ellipse class="st7" cx="481.6" cy="482" rx="5.7" ry="5.4"/>
				<ellipse class="st7" cx="493.7" cy="482" rx="5.7" ry="5.4"/>
				<ellipse class="st7" cx="505.8" cy="482" rx="5.7" ry="5.4"/>
				<ellipse class="st7" cx="517.9" cy="482" rx="5.7" ry="5.4"/>
			</g>
			<g>
				<ellipse class="st7" cx="348.4" cy="493.8" rx="5.7" ry="5.4"/>
				<ellipse class="st7" cx="360.5" cy="493.8" rx="5.7" ry="5.4"/>
				<ellipse class="st7" cx="372.6" cy="493.8" rx="5.7" ry="5.4"/>
				<ellipse class="st7" cx="384.7" cy="493.8" rx="5.7" ry="5.4"/>
				<ellipse class="st7" cx="396.8" cy="493.8" rx="5.7" ry="5.4"/>
				<ellipse class="st7" cx="408.9" cy="493.8" rx="5.7" ry="5.4"/>
				<ellipse class="st7" cx="421" cy="493.8" rx="5.7" ry="5.4"/>
				<ellipse class="st7" cx="433.1" cy="493.8" rx="5.7" ry="5.4"/>
				<ellipse class="st7" cx="445.2" cy="493.8" rx="5.7" ry="5.4"/>
				<ellipse class="st7" cx="457.4" cy="493.8" rx="5.7" ry="5.4"/>
				<ellipse class="st7" cx="469.5" cy="493.8" rx="5.7" ry="5.4"/>
				<ellipse class="st7" cx="481.6" cy="493.8" rx="5.7" ry="5.4"/>
				<ellipse class="st7" cx="493.7" cy="493.8" rx="5.7" ry="5.4"/>
				<ellipse class="st7" cx="505.8" cy="493.8" rx="5.7" ry="5.4"/>
				<ellipse class="st7" cx="517.9" cy="493.8" rx="5.7" ry="5.4"/>
			</g>
			<g>
				<ellipse class="st7" cx="348.4" cy="505.6" rx="5.7" ry="5.4"/>
				<ellipse class="st7" cx="360.5" cy="505.6" rx="5.7" ry="5.4"/>
				<ellipse class="st7" cx="372.6" cy="505.6" rx="5.7" ry="5.4"/>
				<ellipse class="st7" cx="384.7" cy="505.6" rx="5.7" ry="5.4"/>
				<ellipse class="st7" cx="396.8" cy="505.6" rx="5.7" ry="5.4"/>
				<ellipse class="st7" cx="408.9" cy="505.6" rx="5.7" ry="5.4"/>
				<ellipse class="st7" cx="421" cy="505.6" rx="5.7" ry="5.4"/>
				<ellipse class="st7" cx="433.1" cy="505.6" rx="5.7" ry="5.4"/>
				<ellipse class="st7" cx="445.2" cy="505.6" rx="5.7" ry="5.4"/>
				<ellipse class="st7" cx="457.4" cy="505.6" rx="5.7" ry="5.4"/>
				<ellipse class="st7" cx="469.5" cy="505.6" rx="5.7" ry="5.4"/>
				<ellipse class="st7" cx="481.6" cy="505.6" rx="5.7" ry="5.4"/>
				<ellipse class="st7" cx="493.7" cy="505.6" rx="5.7" ry="5.4"/>
				<ellipse class="st7" cx="505.8" cy="505.6" rx="5.7" ry="5.4"/>
				<ellipse class="st7" cx="517.9" cy="505.6" rx="5.7" ry="5.4"/>
			</g>
		</g>
		<rect x="369.8" y="337.6" class="st5" width="11.3" height="7.4"/>
		
			<rect x="485.2" y="337.6" transform="matrix(-1 -1.224647e-16 1.224647e-16 -1 981.7065 682.5112)" class="st5" width="11.3" height="7.4"/>
		<rect x="369.8" y="294.5" class="st5" width="126.7" height="7.9"/>
		<rect x="369.8" y="302.4" class="st5" width="15.8" height="6.4"/>
		<rect x="385.6" y="302.4" class="st5" width="15.8" height="6.4"/>
		<rect x="401.5" y="302.4" class="st7" width="15.8" height="6.4"/>
		<rect x="417.3" y="302.4" class="st8" width="15.8" height="6.4"/>
		<rect x="433.1" y="302.4" class="st9" width="15.8" height="6.4"/>
		<rect x="449" y="302.4" class="st10" width="15.8" height="6.4"/>
		<rect x="464.8" y="302.4" class="st5" width="15.8" height="6.4"/>
		<rect x="480.7" y="302.4" class="st5" width="15.8" height="6.4"/>
		<g>
			<g>
				<circle class="st5" cx="385.2" cy="312.4" r="0.7"/>
				<path class="st5" d="M378.2,316c0.3,0.2,0.4,0.6,0.3,0.9c-0.2,0.3-0.6,0.4-0.9,0.3c-0.3-0.2-0.4-0.6-0.3-0.9
					C377.5,315.9,377.9,315.8,378.2,316z"/>
				<path class="st5" d="M377.5,324.4c0.3-0.2,0.7-0.1,0.9,0.3c0.2,0.3,0.1,0.7-0.3,0.9c-0.3,0.2-0.7,0.1-0.9-0.3
					C377.1,325,377.2,324.6,377.5,324.4z"/>
				<circle class="st5" cx="385.2" cy="329.2" r="0.7"/>
				<path class="st5" d="M392.1,325.6c-0.3-0.2-0.4-0.6-0.3-0.9c0.2-0.3,0.6-0.4,0.9-0.3c0.3,0.2,0.4,0.6,0.3,0.9
					C392.9,325.7,392.5,325.8,392.1,325.6z"/>
				<path class="st5" d="M392.8,317.2c-0.3,0.2-0.7,0.1-0.9-0.3c-0.2-0.3-0.1-0.7,0.3-0.9c0.3-0.2,0.7-0.1,0.9,0.3
					C393.3,316.6,393.1,317,392.8,317.2z"/>
				<path class="st5" d="M386.6,316.6l-1.4-4.5l-1.4,4.5c-1.8,0.6-3,2.3-3,4.2c0,2.5,2,4.5,4.5,4.5c2.5,0,4.5-2,4.5-4.5
					C389.6,318.9,388.4,317.2,386.6,316.6z"/>
			</g>
			<g>
				<circle class="st5" cx="409.2" cy="312.4" r="0.7"/>
				<path class="st5" d="M402.2,316c0.3,0.2,0.4,0.6,0.3,0.9c-0.2,0.3-0.6,0.4-0.9,0.3c-0.3-0.2-0.4-0.6-0.3-0.9
					C401.5,315.9,401.9,315.8,402.2,316z"/>
				<path class="st5" d="M401.5,324.4c0.3-0.2,0.7-0.1,0.9,0.3c0.2,0.3,0.1,0.7-0.3,0.9c-0.3,0.2-0.7,0.1-0.9-0.3
					C401.1,325,401.2,324.6,401.5,324.4z"/>
				<circle class="st5" cx="409.2" cy="329.2" r="0.7"/>
				<path class="st5" d="M416.1,325.6c-0.3-0.2-0.4-0.6-0.3-0.9c0.2-0.3,0.6-0.4,0.9-0.3c0.3,0.2,0.4,0.6,0.3,0.9
					S416.4,325.8,416.1,325.6z"/>
				<path class="st5" d="M416.8,317.2c-0.3,0.2-0.7,0.1-0.9-0.3c-0.2-0.3-0.1-0.7,0.3-0.9c0.3-0.2,0.7-0.1,0.9,0.3
					S417.1,317,416.8,317.2z"/>
				<path class="st5" d="M411.4,317.5l0.9-4.7l-3.4,3.3c-1.8-0.3-3.7,0.6-4.7,2.3c-1.2,2.2-0.4,4.9,1.8,6c2.2,1.2,4.9,0.4,6-1.8
					C413,320.9,412.7,318.9,411.4,317.5z"/>
			</g>
			<g>
				<circle class="st5" cx="433.1" cy="312.4" r="0.7"/>
				<path class="st5" d="M426.2,316c0.3,0.2,0.4,0.6,0.3,0.9s-0.6,0.4-0.9,0.3c-0.3-0.2-0.4-0.6-0.3-0.9
					C425.4,315.9,425.9,315.8,426.2,316z"/>
				<path class="st5" d="M425.5,324.4c0.3-0.2,0.7-0.1,0.9,0.3s0.1,0.7-0.3,0.9c-0.3,0.2-0.7,0.1-0.9-0.3
					C425.1,325,425.2,324.6,425.5,324.4z"/>
				<circle class="st5" cx="433.1" cy="329.2" r="0.7"/>
				<path class="st5" d="M440.1,325.6c-0.3-0.2-0.4-0.6-0.3-0.9s0.6-0.4,0.9-0.3c0.3,0.2,0.4,0.6,0.3,0.9
					C440.8,325.7,440.4,325.8,440.1,325.6z"/>
				<path class="st5" d="M440.8,317.2c-0.3,0.2-0.7,0.1-0.9-0.3s-0.1-0.7,0.3-0.9c0.3-0.2,0.7-0.1,0.9,0.3
					C441.2,316.6,441.1,317,440.8,317.2z"/>
				<path class="st5" d="M437.9,317.5c-1.3-1.5-3.3-2-5-1.3l-4-2.5l1.8,4.4c-1,1.6-0.9,3.7,0.4,5.2c1.6,1.9,4.4,2.1,6.3,0.5
					C439.3,322.1,439.5,319.3,437.9,317.5z"/>
			</g>
			<g>
				<circle class="st5" cx="457.1" cy="312.4" r="0.7"/>
				<path class="st5" d="M450.2,316c0.3,0.2,0.4,0.6,0.3,0.9c-0.2,0.3-0.6,0.4-0.9,0.3c-0.3-0.2-0.4-0.6-0.3-0.9
					S449.8,315.8,450.2,316z"/>
				<path class="st5" d="M449.5,324.4c0.3-0.2,0.7-0.1,0.9,0.3c0.2,0.3,0.1,0.7-0.3,0.9c-0.3,0.2-0.7,0.1-0.9-0.3
					S449.2,324.6,449.5,324.4z"/>
				<circle class="st5" cx="457.1" cy="329.2" r="0.7"/>
				<path class="st5" d="M464.1,325.6c-0.3-0.2-0.4-0.6-0.3-0.9c0.2-0.3,0.6-0.4,0.9-0.3c0.3,0.2,0.4,0.6,0.3,0.9
					C464.8,325.7,464.4,325.8,464.1,325.6z"/>
				<path class="st5" d="M464.8,317.2c-0.3,0.2-0.7,0.1-0.9-0.3c-0.2-0.3-0.1-0.7,0.3-0.9c0.3-0.2,0.7-0.1,0.9,0.3
					C465.2,316.6,465.1,317,464.8,317.2z"/>
				<path class="st5" d="M458.9,316.9l-0.5-4.7l-2.3,4.1c-1.8,0.2-3.4,1.6-3.8,3.5c-0.5,2.4,1,4.8,3.4,5.3c2.4,0.5,4.8-1,5.3-3.4
					C461.4,319.8,460.5,317.9,458.9,316.9z"/>
			</g>
			<g>
				<circle class="st5" cx="481.1" cy="312.4" r="0.7"/>
				<path class="st5" d="M474.2,316c0.3,0.2,0.4,0.6,0.3,0.9c-0.2,0.3-0.6,0.4-0.9,0.3c-0.3-0.2-0.4-0.6-0.3-0.9
					C473.4,315.9,473.8,315.8,474.2,316z"/>
				<path class="st5" d="M473.5,324.4c0.3-0.2,0.7-0.1,0.9,0.3c0.2,0.3,0.1,0.7-0.3,0.9c-0.3,0.2-0.7,0.1-0.9-0.3
					C473,325,473.1,324.6,473.5,324.4z"/>
				<circle class="st5" cx="481.1" cy="329.2" r="0.7"/>
				<path class="st5" d="M488.1,325.6c-0.3-0.2-0.4-0.6-0.3-0.9c0.2-0.3,0.6-0.4,0.9-0.3c0.3,0.2,0.4,0.6,0.3,0.9
					C488.8,325.7,488.4,325.8,488.1,325.6z"/>
				<path class="st5" d="M488.7,317.2c-0.3,0.2-0.7,0.1-0.9-0.3c-0.2-0.3-0.1-0.7,0.3-0.9c0.3-0.2,0.7-0.1,0.9,0.3
					C489.2,316.6,489.1,317,488.7,317.2z"/>
				<path class="st5" d="M485.2,313.5l-3.9,2.6c-1.7-0.6-3.8-0.1-5,1.4c-1.5,1.9-1.2,4.7,0.7,6.3c1.9,1.5,4.7,1.2,6.3-0.7
					c1.2-1.5,1.3-3.6,0.3-5.2L485.2,313.5z"/>
			</g>
		</g>
		<circle class="st5" cx="377.7" cy="301.1" r="4.2"/>
		<circle class="st9" cx="377.7" cy="301.1" r="2.9"/>
		<path class="st5" d="M509.7,268v66.1c0,1.9-1.5,3.4-3.4,3.4H503v-73h3.2C508.2,264.6,509.7,266.1,509.7,268z"/>
		<path class="st9" d="M490.9,304.2c0,1.3-1,2.3-2.3,2.3c-1.3,0-2.3-1-2.3-2.3c0-1.3,1-2.3,2.3-2.3
			C489.8,301.9,490.9,303,490.9,304.2z"/>
		<path class="st5" d="M490.3,304.2c0,0.9-0.8,1.7-1.7,1.7s-1.7-0.8-1.7-1.7s0.8-1.7,1.7-1.7S490.3,303.3,490.3,304.2z"/>
		<path class="st9" d="M489.3,304.2h-1.5l-0.9-11.8c-0.1-1,0.7-1.8,1.6-1.8l0,0c1,0,1.7,0.8,1.6,1.8L489.3,304.2z"/>
		<path class="st9" d="M480.3,318.2c0,0.7-0.6,1.3-1.3,1.3c-0.7,0-1.3-0.6-1.3-1.3c0-0.7,0.6-1.3,1.3-1.3
			C479.7,316.9,480.3,317.5,480.3,318.2z"/>
		<circle class="st9" cx="457.8" cy="320" r="1.3"/>
		<path class="st9" d="M435,319.4c0,0.7-0.6,1.3-1.3,1.3c-0.7,0-1.3-0.6-1.3-1.3s0.6-1.3,1.3-1.3C434.4,318.2,435,318.7,435,319.4z"
			/>
		<path class="st9" d="M410.6,320.7c0,0.7-0.6,1.3-1.3,1.3c-0.7,0-1.3-0.6-1.3-1.3s0.6-1.3,1.3-1.3
			C410.1,319.4,410.6,320,410.6,320.7z"/>
		<path class="st9" d="M385.8,320.2c0,0.7-0.6,1.3-1.3,1.3c-0.7,0-1.3-0.6-1.3-1.3c0-0.7,0.6-1.3,1.3-1.3
			C385.2,318.9,385.8,319.5,385.8,320.2z"/>
		<path class="st7" d="M376.8,304h-18v-5.8h18c1.6,0,2.9,1.3,2.9,2.9l0,0C379.7,302.7,378.4,304,376.8,304z"/>
		<path class="st5" d="M358.8,298.1v5.8h-6.5c-0.6,0-1-0.5-1-1v-1.1c-15.8,3.2-29,16.8-31.7,32.7c-0.6,3.7-1.2,7.8-1.4,11.6
			c-0.2,3.8-0.3,7.6-0.5,11.4c0,1-0.8,21.9-1.7,22.7c-1.3,1-1-0.8-1.2-1.8c-0.5-3.3,0.2-15.3,0.7-23.6c0.3-4,0.8-11.4,1.1-15.4
			c0.4-5.3,1.3-11.1,3.7-16.1c3.1-6.6,7.3-10.6,9.5-12.7c8-7.4,16.7-10.2,21.4-11.2v-0.2c0-0.6,0.5-1,1-1H358.8z"/>
	</g>
	<g>
		<g>
			<path class="st5" d="M315.7,355.7c-0.1,11.4-1.3,22.9-1.9,34.3c-0.6,10.3-1.6,20.5-3.1,30.7c-2.4,15.4-6.1,30.8-12.3,45.2
				c-8,18.4-20.6,35.1-38.9,44c-12.8,6.2-27.2,8-41.3,7.3c-17.3-0.9-34.6-3.7-51.8-5.5c-14.6-1.5-29.3-3.1-44-3.8
				c-4.9-0.2-9.8-0.2-14.7,0c-4.1,0.2-10.9,0.1-13.7,3.8c-6.7,8.8,14,13,18.3,13.7c9.3,1.6,18.8,2,28.1,3.1c6.3,0.7,12.5,1.6,18.7,3
				c5.6,1.3,12.6,2.8,16.9,6.9c4.9,4.6,1.3,10.8-4.3,12.4c-6.1,1.8-13.2,0.6-19.3-1c-4.6-1.2-10.3-2.7-13.2-6.8
				c-2.5-3.5-2.9-8.1-2.7-12.3c0.7-12.3,5.7-24.5,10-35.9c11.1-29.2,25.2-59,27-90.7c1-18.1-4.6-35.2-9.7-52.3
				c-5.7-19-11.7-43.1,0-61.1c5.4-8.3,13.3-15.2,22.2-19.5c1.1-0.5,0.1-2.2-1-1.7c-8.1,3.9-15.2,9.9-20.7,17
				c-5.9,7.8-8.3,16.2-8.8,25.8c-1.2,20.8,7.1,40,12.3,59.8c4.6,17.7,4.7,34.6,0.8,52.5c-3.6,16.5-9.5,32.5-15.7,48.3
				c-5.5,14.3-11.7,28.4-15.7,43.2c-2.2,8.1-4.9,19-0.3,26.8c4.6,7.9,17.7,10,26,10.4c7.2,0.4,21.9-3.2,16.6-13.7
				c-2-4-6.8-6-10.7-7.5c-6.4-2.4-13.2-3.6-19.9-4.5c-9.3-1.4-18.7-2-28.1-3c-6.7-0.7-14-1.6-20.2-4.3c-2.1-0.9-5.8-2.8-5.7-5.6
				c0.2-4.1,7.3-4.5,10.2-4.7c12.2-1,24.5,0.2,36.6,1.3c23.1,2,46.2,5.1,69.3,7.4c13.3,1.3,26.9,0.9,39.7-3.2
				c51-16.2,62.3-79.3,64.9-125.4c0.6-11.4,1.8-22.9,1.9-34.3C317.6,354.4,315.7,354.4,315.7,355.7L315.7,355.7z"/>
		</g>
	</g>
	<g>
		<g>
			<path class="st5" d="M203.1,31.9c-0.4,1.8-0.7,3.6-1,5.3c-1.4,10.2-0.3,20.6,1.4,30.7c1,5.8,2.2,11.7,4.7,17.1
				c0.5,1.1,1,2.1,1.6,3.1c3.4,5.9,10.2,14,17.2,15.7c4.3,1,9.5,0.6,14,0.8c8.6,0.5,17.2,1,25.8,1.5l-1.7-42.3
				c-7.1-3.7-13.4-7.5-19.9-12.3c-2-1.5-4.1-3.1-5.6-5.1c-2.9-4.1-3.1-9.5-2.5-14.4c0.6-5,2-9.9,1.8-14.9s-2.3-10.3-6.7-12.6
				c-2.9-1.5-6.4-1.4-9.5-0.3c-3.1,1.1-5.7,3.2-8,5.5C208.8,15.7,205,23.6,203.1,31.9z"/>
			<path class="st11" d="M240.3,104.3L240.3,104.3c-7.3,0-13.3-6-13.3-13.3V60.6h26.6V91C253.6,98.4,247.6,104.3,240.3,104.3z"/>
			<path class="st12" d="M245.9,70.6c-4.6-1.1-2.6-0.6-5.3-0.4c-4.6,0.3-9.2,1-13.4,3.1c-0.1,0-0.1,0.1-0.2,0.1v11.3
				c2.5,3.4,6.7,4.9,10.6,5.2c4.9,0.4,9-3.7,8.8-8.6L245.9,70.6z"/>
			<path class="st11" d="M240.4,12.6c-29.3-0.1-26.9,25.6-26.8,26.7c0.9,12,0.9,21.8,5.9,30c3.1,5.1,13.3,17.1,20.8,17.2
				c5,0.1,13.5-7.7,16.7-13c7-11.7,9.6-22.6,9.4-33.9C266.1,25.4,264.6,12.7,240.4,12.6z"/>
			<path class="st11" d="M211.2,56.4c1.4,2,6.5,6.3,8.3,3c0.9-1.7-0.6-3.6-1.5-5c-0.2-0.4-0.5-0.8-0.7-1.2c0.8,1.3,2.8,0,2.1-1.4
				c-1.2-2.2-4.4-9.2-7.9-6.4C208.7,47.7,208.1,51.8,211.2,56.4z"/>
			<path class="st5" d="M258.1,42.1c-2.9-1.2-5.6-2.5-8.7-2c-1.2,0.2-4.6,1.4-2.7,3.2c0.9,0.8,7.5,0.6,10.9,1.2
				C259.1,44.6,259.7,42.8,258.1,42.1z"/>
			<path class="st5" d="M222.6,45.1c0.1-0.6,0.5-1.2,0.7-1.4c2.3-2,5.2-3.3,8.3-3.3c1.2,0,4.8,0.7,3.1,2.7
				c-0.7,0.9-7.5,1.4-10.4,3.3C222.9,47.3,222.3,46.4,222.6,45.1z"/>
			<path class="st11" d="M268.3,44.9c-3.5-2.8-6.7,4.2-7.9,6.4c-0.7,1.4,1.3,2.7,2.1,1.4c-0.2,0.4-0.5,0.8-0.7,1.2
				c-0.8,1.4-2.4,3.3-1.5,5c1.8,3.3,6.9-0.9,8.3-3C271.8,51.3,271.1,47.2,268.3,44.9z"/>
			<path class="st13" d="M265,54.9c-0.7-1.2-2.6-0.1-1.9,1.1c0.7,1.1,1,2.3,1,3.6c0,1.4,2.1,1.4,2.2,0
				C266.3,57.9,265.9,56.3,265,54.9z"/>
			<path class="st11" d="M216.6,396.6c0,0,1.7,36,16.1,106.1c2.2,10.8,11.9,6.9,11.9-1.1c0-1.9,3.8-57-3.5-110.7
				C240.9,389,224.2,372.4,216.6,396.6z"/>
			<path class="st11" d="M270.4,398c-0.2,0.6,20.9,97.4,21.8,99.1c1,1.8,10,2.6,10-2.3c0-2,3.5-68.5-6-99.5
				C294.5,389.8,279.2,375.8,270.4,398z"/>
			<path class="st11" d="M285.1,106.6c0,0,19.5,75.5,20.1,78.6c0.6,3.1-7.8,11.8-16.2,6.9c-2.4-1.4-14.2-48.3-14.8-53.7
				C273.5,133.1,273.5,100.1,285.1,106.6z"/>
			<path class="st11" d="M226.9,91.6l-29.6,14.7c0,0,20.2,77.1,20.9,81.6c0.7,4.5,30.2,21.1,52.5-1l14.4-80.3
				c0,0-30.8-14.5-31.9-15.8C253.2,90.7,244,101,226.9,91.6z"/>
			<path class="st11" d="M218.6,186.6c0,0-15.8,41.2-17.6,49.6c-1.9,8.4-0.8,22.6,0,28.8c0.5,3.3,35.5,34,87.8,1.9
				c3.9-2.4-2.1-24-3.3-33.1c-1.2-9.2-14.8-46.8-14.8-46.8S239.7,165.3,218.6,186.6z"/>
			<path class="st14" d="M200.2,260c0,0,15.4,130.1,16.1,135.4c0.8,5.3,17.4,13.2,24.8-2.8c1.1-2.3,2.5-61.6,2.3-67.1
				c-0.2-5.4,2.6-51.5,1.2-55.3C243.3,266.4,204.2,239.5,200.2,260z"/>
			<path class="st14" d="M289.5,259.6c0,0,6.5,130.4,6.7,135.8c0.2,5.4-15,19.8-25.2,5.9c-1.4-2-13.2-62.7-14-68
				c-0.8-5.4-13.1-59-12.4-63C245.3,266.1,281.9,240.4,289.5,259.6z"/>
			<path class="st11" d="M302.3,495.6c0,0,1.8,16.7,5.9,21.9c4,5.2,8.5,12.8,7.4,16.7c-1.2,3.9-9.3,5.8-14.9,2.5
				c-5.6-3.3-8.4-5.5-8.6-8.9c-0.2-3.4-0.1-11.1,0.1-13.8c0.9-10.1-0.2-16-0.2-17.2C292,490.6,300.2,489.3,302.3,495.6z"/>
			<path class="st15" d="M269.7,131.8c0.5-1,5.7-29.7,5.7-29.7l-2.7-1.3c0,0-4.1,24.5-5.2,29.6c-0.3-0.3-0.7-0.5-1.2-0.5
				c-1.4,0-1.9,1.5-1.5,2.5c0,0,0,0-0.1,0c-0.1-0.7-0.6-1.4-1.6-1.4c-1.6,0-2,1.8-1.3,2.7c0,0,0,0-0.1,0c-0.2-0.6-0.7-1.2-1.6-1.2
				c-1.4,0-1.9,1.3-1.5,2.3c-0.3-0.4-0.7-0.7-1.3-0.7c-1.4,0-1.9,1.4-1.5,2.4c-0.2-0.2-0.5-0.3-0.9-0.3c-1.4,0-1.9,1.3-1.5,2.3
				c-0.2-0.1-0.5-0.2-0.8-0.2c-1.5,0-2,1.7-1.4,2.7c-0.2-0.1-0.5-0.2-0.8-0.2c-1.8,0-2.1,2.4-0.9,3.2c0,0,0,0-0.1,0.1
				c-0.3-0.4-0.7-0.6-1.3-0.6c-1.8,0-2.1,2.3-0.9,3.1c0,0-0.1,0.1-0.1,0.1c-0.3-0.4-0.7-0.7-1.3-0.7c-1.9,0-2.1,2.4-0.8,3.2
				c0,0,0,0-0.1,0.1c-0.3-0.4-0.7-0.6-1.3-0.6c-1.6,0-2,1.8-1.3,2.8c-0.2-0.1-0.4-0.2-0.7-0.2c-1.6,0-2,1.8-1.3,2.8
				c-1-0.5-2.6-0.1-2.6,1.4v0.1c0,0.8,0.4,1.3,1,1.5c-0.2,0.2-0.3,0.4-0.5,0.6c0-0.1,0-0.1,0-0.2v-0.1c0-1.2-1-1.7-2-1.6
				c0.8-1,0.4-2.8-1.2-2.8c-0.4,0-0.7,0.1-1,0.3c0-0.1-0.1-0.1-0.1-0.1c1.5-0.6,1.3-3.3-0.6-3.3c-0.4,0-0.8,0.2-1,0.4
				c0,0-0.1-0.1-0.1-0.1c1.5-0.6,1.3-3.3-0.6-3.3c-0.5,0-0.9,0.2-1.1,0.5c0,0,0,0,0,0c1.6-0.6,1.4-3.3-0.6-3.3
				c-0.5,0-0.9,0.2-1.2,0.5c0,0,0,0,0-0.1c1.3-0.7,1.1-3.2-0.8-3.2c-0.5,0-0.9,0.2-1.1,0.4c1.3-0.8,1-3.2-0.8-3.2
				c-0.6,0-1,0.2-1.2,0.5c0,0,0-0.1-0.1-0.1c1.2-0.8,0.9-3.1-0.9-3.1c-0.7,0-1.2,0.4-1.4,0.9c0.6-1,0.1-2.6-1.4-2.6
				c-0.9,0-1.4,0.6-1.6,1.3c0,0-0.1,0-0.1-0.1c0.4-1-0.1-2.4-1.5-2.4h-0.1c-1,0-1.5,0.6-1.6,1.4c0,0-0.1,0-0.1,0
				c0.4-0.7,0.3-1.7-0.6-2.2c0,0-0.1,0-0.1-0.1c-1.2-0.6-2.3,0.3-2.5,1.3c0,0-0.1,0-0.1,0c-0.6-1.1-7.4-30.9-7.4-30.9l-2,1
				c0,0,7.5,29.6,6.9,31.5c-0.3,1-3.7,10.7-3.7,11.6c0,0.9,4.3,13.7,4.6,14.5c0.3,0.8,23.3-0.9,26.1-1.8c1.5,0.8,37.9,2.6,38.2,1.8
				c0.3-0.8,2.7-14.3,2.7-15.2C278,144.9,269.2,132.7,269.7,131.8z"/>
			<path class="st15" d="M273.6,195.2c-0.2-1-0.6-1.9-1.3-2.7c-0.4-0.5-1-0.3-1.3,0.2c-0.2-0.5-0.7-0.9-1.4-0.9
				c-1.4,0-1.9,1.3-1.6,2.3c-0.1,0-0.2,0-0.2,0c0.4-1-0.1-2.4-1.5-2.4c-0.9,0-1.4,0.5-1.6,1.2c-0.2-0.6-0.7-1.1-1.5-1.1
				c-1,0-1.5,0.7-1.6,1.4c-0.1-0.7-0.6-1.4-1.6-1.4c-0.8,0-1.3,0.5-1.5,1.1c-0.2-0.6-0.7-1.2-1.6-1.2c-1.3,0-1.8,1.2-1.6,2.1
				c0,0-0.1,0-0.1,0c0.2-1-0.3-2.1-1.6-2.1h-0.1c-1,0-1.5,0.7-1.6,1.4c-0.1-0.7-0.6-1.4-1.6-1.4c-0.9,0-1.4,0.6-1.6,1.2
				c-0.1-0.8-0.6-1.5-1.6-1.5c-1,0-1.5,0.7-1.6,1.4c-0.1-0.7-0.7-1.3-1.6-1.3c-0.8,0-1.3,0.4-1.5,1c-0.2-0.6-0.7-1-1.5-1
				c-1,0-1.5,0.7-1.6,1.4c-0.1-0.7-0.6-1.4-1.6-1.4h-0.1c-1.3,0-1.8,1.2-1.6,2.2c-0.1,0-0.2,0-0.3,0c0.2-1-0.3-2.2-1.6-2.2
				c-1,0-1.5,0.7-1.6,1.4c-0.1-0.7-0.6-1.4-1.6-1.4c-1.3,0-1.8,1.2-1.6,2.1c0,0-0.1,0-0.1,0c0.2-1-0.3-2.1-1.6-2.1
				c-1.3,0-1.8,1.1-1.6,2.1c-0.1,0-0.2,0-0.3,0c0.3-1-0.2-2.2-1.6-2.2c-1,0-1.5,0.7-1.6,1.4c-0.1-0.7-0.6-1.4-1.6-1.4
				c-1.3,0-1.8,1.2-1.6,2.2c0,0-0.1,0-0.2,0c0.2-1-0.3-2.1-1.6-2.1c-1.3,0-1.8,1.1-1.6,2.1c-0.2,0-0.3,0-0.3,0
				c-5.4,9.6-14.9,36.1-15.7,48.9c25.5-0.3,43.9,25.6,43.9,25.6c-2.9-21.8,41.8-31.4,41.8-31.4S285.1,222.4,273.6,195.2z"/>
			<path class="st16" d="M216.6,187.1C216.6,187.1,216.6,187.1,216.6,187.1c6.2,0.1,53.7-3.5,55.1,0c11.3,27.6,18.4,57.3,21.7,87
				c2.9,25.4,3,50.9,4.3,76.4c1.3,25.3,5.3,50.3,5.4,75.7c0,1.4-0.1,2.9-1.1,3.9c-0.7,0.6-1.6,0.9-2.5,1c-6.4,1.4-13,2.4-19.5,2.8
				c-6.3,0.4-13.1-0.7-19.3,0.2c-12.6,1.8-25.5,1.2-38.2,0.6c-1.4-0.1-2.8-0.1-4-0.9c-2-1.2-2.6-3.9-3-6.2
				c-2.4-14.6-4.7-29.2-7.1-43.9c-4.4-27.5-8.9-55.1-11.8-82.8c-1.9-18.1-3.1-36.4-0.8-54.5c1.6-12.3,4.9-24.6,10.5-35.7
				C210.4,202.9,212.8,194.9,216.6,187.1z"/>
			<circle class="st17" cx="241.2" cy="198.1" r="2.4"/>
			<path class="st11" d="M234.2,501c0,0-11.8,26.8-16.6,27.7c-4.9,1-15.5,5.6-10.8,8c4.7,2.4,16.3,1.9,21.5,0
				c5.3-2,9.3-13.4,14.3-13.3c5,0.1,6.7-1.6,6.9-5.3c0.2-3.7-3.4-14.2-3.4-14.2S240.9,494,234.2,501z"/>
			<path class="st18" d="M255.6,516.8c-0.1-0.6-0.4-1.1-0.9-1.4c-1-0.7-1.5-1.7-1.9-2.9c-0.4-1.3-0.9-2.4-1.5-3.6
				c-0.4-0.6-0.6-1.3-0.9-2c-0.4-1-0.8-2-1.6-2.8c-0.6-0.6-1.2-0.8-2-0.4c-0.5,0.2-1.1,0.5-1.6,0.9c-0.5,0.3-1,0.7-1.5,1
				c-1.1,0.7-2.3,1-3.6,0.7c-0.7-0.2-1.4-0.3-2.1-0.3c-1.2,0-2.4,0-3.6,0.4c-0.6,0.2-1.2,0.6-1.9,1c0.5-1.3,0.3-2.4,0-3.6
				c-0.3-1.4-0.8-2.8-1.6-4.1c-0.5-0.7-1.1-1.2-1.9-1.5c-2.1-0.7-4.2-0.8-6.3,0.1c-1.3,0.5-2.1,1.3-2.5,2.7
				c-0.3,1.4-0.9,2.6-1.6,3.8c-0.5,1-1,2.1-1.5,3.1c-0.5,1-1.1,2.1-1.7,3.1c-0.5,0.9-1.2,1.7-1.7,2.6c-1.8,3.2-4.2,5.8-6.8,8.3
				c-1.1,1.1-2.5,1.8-3.8,2.5c-0.9,0.5-1.7,1.2-2.3,2c-0.9,1-1.9,2.1-2.8,3.1c-1,1.1-2,2.1-2.6,3.4c-0.7,1.4-0.9,2.9-0.8,4.3
				c0.3,0.2,0.5,0.4,0.6,0.6c0.9,1.2,2.1,1.9,3.5,2.3c1.3,0.4,2.6,0.7,3.9,1.1c2.8,0.8,5.7,0.7,8.5,0.2c1.5-0.3,3-0.7,4.6-1
				c2.5-0.5,4.9-1.4,7.2-2.4c3.3-1.5,6.5-3.1,9.8-4.6c1.6-0.7,3.2-1.1,4.8-1.8c3.1-1.2,6.1-2.3,9.3-3.1c3.2-0.8,5.7-2.6,7.8-5.1
				c1.1-1.3,1.6-2.8,1.2-4.5C255.9,518.1,255.7,517.4,255.6,516.8z"/>
			<path class="st19" d="M192.3,537.2c0.2-0.3,0.4-0.7,0.5-1.1c0.2-0.6,0.7-1,1.3-1.2c1.2-0.4,2.4-0.4,3.6,0.1
				c0.8,0.4,1.6,0.9,2.2,1.6c0.9,1,1.9,1.5,3.2,1.1c0.8-0.2,1.6-0.4,2.4-0.5c0.7-0.1,1.4,0,2.1,0c0.8,0,1.7,0.1,2.5,0.1
				c1.2,0,2.5,0.2,3.7,0.1c1.7-0.2,3.3-0.7,4.6-1.8c2.9-2.4,6.3-3.7,9.9-4.6c0.7-0.2,1.4,0.1,1.9,0.5c0.7,0.6,1.2,1.4,1.3,2.4
				c0.1,1.6,0.1,3.1-0.6,4.6c-0.6,1.3-1.5,2.4-2.7,3.2c-1.5,1-3.2,1.5-4.9,1.9c-2.7,0.6-5.4,0.9-8.1,0.9c-3.2,0-6.4,0.5-9.6,0.6
				c-1.2,0-2.4-0.2-3.6-0.3c-1.8-0.2-3.3-0.8-4.8-1.8c-1.1-0.8-2.3-1.5-3.4-2.3c-0.5-0.4-0.9-0.9-1.3-1.3
				C192.4,538.5,192.4,537.8,192.3,537.2z"/>
			<path class="st19" d="M259.2,521.1c0.2,1.5-0.5,2.8-1.4,4.1c-0.8,1.2-1.9,2.2-3.1,3c-1.6,1.2-3.2,2.4-4.9,3.6
				c-1.6,1.2-3.4,1.9-5.4,2.4c-1.9,0.5-3.7,0.3-5.5-0.4c-0.7-0.3-1.3-0.6-1.9-1c-1-0.6-1.5-1.5-1.3-2.6c0.1-0.5,0.2-1.1,0.5-1.5
				c0.7-1.6,1.9-2.8,3.1-3.9c0.9-0.8,1.8-1.6,2.8-2.4c0.5-0.4,1-0.8,1.5-0.9c1.6-0.5,3.3-0.9,5-0.7c1.1,0.1,2.2-0.2,3.2-0.6
				c0.8-0.3,1.1-1,1.6-1.7c0.3-0.4,0.6-0.8,0.9-1.1c0.9-0.9,1.8-1,2.8-0.2C258.5,518.2,259.1,519.5,259.2,521.1z"/>
			<path class="st19" d="M219.9,505.3c1.6,0.4,3,0.7,4.5,1.2c1,0.3,1.9,0.8,2.8,1.3c0.3,0.1,0.4,0.5,0.6,0.7c-0.4,0.9-0.8,1-1.5,0.5
				c-1.1-0.8-2.3-1.3-3.6-1.6c-0.6-0.1-1.1-0.3-1.7-0.4c-0.6-0.1-1.1-0.2-1.8-0.3c-1,1.5-2.1,3-3.1,4.6c0.6,0.1,1.2,0.3,1.7,0.4
				c1.8,0.3,3.2,1.2,4.6,2.2c0.6,0.4,1,1,1.4,1.6c0.2,0.3,0.2,0.7,0.3,1c-0.6,0.5-0.8,0.5-1.2,0.1c-0.2-0.2-0.4-0.4-0.6-0.7
				c-1.6-1.9-3.7-2.8-6.1-3.1c-0.2,0-0.4,0-0.5-0.1c-0.6-0.1-1,0.1-1.5,0.5c-1.4,1.4-2.9,2.7-4.7,3.6c-0.6,0.3-1.1,0.4-1.7,0.2
				c-0.5-0.6-0.6-1.3-0.3-2c0.3-1.2,1-2.2,1.7-3.2c0.9-1.3,2-2.5,3-3.9c-0.7,0.3-1.2,0.5-1.7,0.7c-0.8,0.3-1.6,0.6-2.5,0.9
				c-0.2,0.1-0.4,0.1-0.5,0.1c-1.2-0.1-1.8-0.9-1.4-2.1c0.3-0.9,0.7-1.7,1.2-2.5c1.3-2.2,3.3-3.6,5.5-4.8c1.8-0.9,3.6-1.5,5.5-1.9
				c0.7-0.2,1.6-0.2,2.3-0.2c1,0.1,2.1,0.3,2.4,1.4c1.2,0.3,2.3,0.5,3.3,0.9c1.7,0.5,3.2,1.5,4.6,2.5c0.8,0.6,0.7,1.1-0.1,1.7
				c-0.3-0.2-0.6-0.3-0.9-0.5c-1.5-1.3-3.2-2.1-5-2.7c-0.6-0.2-1.3-0.2-1.9-0.3c-0.6-0.1-1,0.2-1.3,0.7c-0.4,0.7-0.7,1.4-1,2.1
				C220.5,504.2,220.2,504.8,219.9,505.3z M218.8,503.9c-1,0.9-2,1.9-3,2.8c-1.5,1.3-2.9,2.8-4.3,4.4c-0.9,1.1-1.7,2.3-2.4,3.6
				c-0.1,0.1-0.1,0.3-0.2,0.6c0.3-0.2,0.5-0.2,0.7-0.3c1.6-1,2.9-2.3,4.2-3.6c1.4-1.5,2.5-3.2,3.6-4.9
				C218,505.7,218.4,504.8,218.8,503.9C218.9,503.9,218.9,503.9,218.8,503.9C218.9,503.9,218.9,503.9,218.8,503.9z M221.2,499.6
				c-1.2-0.5-2.2-0.1-3.2,0.2c-2.2,0.5-4.2,1.4-6,2.6c-1.9,1.3-3.4,3-4.2,5.1c-0.1,0.2-0.1,0.4-0.1,0.7
				C211.6,507.2,219.5,501.9,221.2,499.6z"/>
			<path class="st19" d="M211.5,516.3c1.9,0.2,3.8,0.7,5.6,1.6c0.8,0.4,1.6,1.1,2.3,1.7c0.2,0.2,0.4,0.5,0.5,0.9
				c0.1,0.2,0,0.5-0.1,0.6c-0.2,0.1-0.5,0.2-0.7,0.1c-0.2-0.1-0.5-0.3-0.6-0.5c-0.8-1.1-1.9-1.7-3.2-2.1c-1.1-0.4-2.3-0.6-3.4-0.9
				c-0.4-0.1-0.7-0.2-0.8-0.5C210.9,516.8,211.1,516.5,211.5,516.3z"/>
			<path class="st19" d="M214.9,524.2c0.4,0.9,0.4,0.9,0.2,1.5c-0.3,0.2-0.6,0.2-0.9,0c-1.1-0.9-2.4-1.1-3.7-1.6
				c-0.7-0.3-1.4-0.4-2.2-0.6c-0.5-0.1-1,0-1.7-0.1c0-0.1-0.2-0.2-0.3-0.4c-0.1-0.5,0.2-0.9,0.6-0.9c0.4-0.1,0.8-0.1,1.2,0
				c1.5,0.1,2.8,0.6,4.1,1.1C213.2,523.5,214.2,523.9,214.9,524.2z"/>
			<path class="st20" d="M229.1,515c-0.6,1-1.2,2-2,2.9c-1.3,1.5-2.9,2.7-4.4,4c-1.3,1.1-2.7,2.2-4,3.2c0,0.3,0,0.6,0.1,0.9
				c0.4,0.4,0.9,0.7,1.4,0.9c1.8,0.5,3.7,0.6,5.5,0.6c1.5,0,3-0.4,4.4-0.8c1.5-0.4,2.8-1,4-2c0.9-0.7,1.8-1.4,2.6-2.2
				c0.7-0.6,1.4-1.4,2.1-2c0.9-0.8,1.9-1.5,3-1.9c0.7-0.3,1.5-0.4,2.3-0.5c1.2-0.2,2.3-0.5,3.4-1.3c1-0.7,1.9-1.4,2.9-2
				c0.9-0.6,1.8-1.1,2.7-1.5c-0.1-0.3-0.2-0.5-0.3-0.8c0-0.2-0.1-0.3-0.2-0.5c-0.7,0.3-1.3,0.6-1.9,1c-1.1,0.7-2.2,1.5-3.3,2.3
				c-0.8,0.6-1.7,1.1-2.7,1.3c-0.5,0.1-1.1,0.2-1.6,0.3c-1.9,0.3-3.5,1.2-5,2.5c-1.2,1-2.3,2.1-3.4,3.2c-1.1,1-2.4,2-3.9,2.5
				c-1.2,0.4-2.5,0.7-3.8,0.9c-1.9,0.3-3.8,0.2-5.8-0.1c-0.3,0-0.6-0.2-1-0.3c0.3-0.2,0.4-0.4,0.6-0.5c2-1.6,4-3.2,5.9-4.9
				c0.5-0.4,1-0.9,1.5-1.5c0.7-1,1.4-2.1,2.1-3.2c1.2-1.9,2.4-3.9,3.2-6.1c0.4-1.1,0.9-2.2,1.4-3.2c-0.1,0-0.3,0.1-0.4,0.1
				c-0.5,0.2-0.9,0.4-1.4,0.7c-0.3,0.8-0.7,1.5-1,2.3C231.4,511.4,230.2,513.2,229.1,515z"/>
			<path class="st18" d="M337.5,546.3c-0.4-0.7-0.7-1.4-1-2.2c-0.6-1.7-1.7-3.1-3-4.3c-0.7-0.6-1.4-1.3-2-2.1
				c-0.6-0.8-1.2-1.7-1.8-2.5c-1.5-2.2-3-4.5-4.1-7c-0.3-0.8-0.8-1.5-1.2-2.2c-0.7-1.1-1.6-2.2-2.4-3.3c-1.1-1.5-2.2-2.9-3.3-4.4
				c-1-1.4-2.1-2.7-2.8-4.4c-0.8-2.1-2-4-3.2-5.9c-0.4-0.6-0.9-1.2-1.4-1.8c-0.5-0.6-1.2-0.8-1.9-0.4c-1.8,0.8-3.4,1.9-4.8,3.3
				c-0.7,0.8-1.4,1.7-2.2,2.4c-1.4,1.2-3,2.2-4.9,2.4c-1.3,0.1-2.4-0.1-3.4-1.1c-0.3-0.3-0.5-0.6-0.8-0.8c-0.6-0.5-1.1-0.5-1.6,0.1
				c-0.3,0.3-0.6,0.7-0.9,1.1c-1.5,2.5-3,5-4.5,7.5c-0.7,1.2-1.2,2.6-1.5,4c-0.2,0.9-0.4,1.7-0.6,2.6c-0.1,0.4-0.2,0.8-0.3,1.2
				c0.5,0.8,1.1,1.3,1.8,1.7c2,1.3,3.9,2.6,5.9,3.9c0.1,0.1,0.3,0.2,0.4,0.3c3,2.6,6.2,4.9,9.4,7.1c0.6,0.4,1.2,0.9,1.9,1.2
				c1.8,1,3.6,2.1,5.4,3c2.4,1.3,4.8,2.6,7.3,3.8c1.7,0.9,3.6,1.4,5.5,1.5c0.2,0,0.4,0.1,0.6,0.2c1.1,0,2.2,0,3.4,0
				c0.2-0.1,0.4-0.2,0.5-0.1c1,0,2-0.3,3-0.5c2.5-0.6,5-1.5,7.2-2.8c0.3-0.2,0.5-0.3,0.8-0.5C337.6,547.3,337.7,546.8,337.5,546.3z"
				/>
			<path class="st19" d="M328.3,556.1c-0.5-0.1-1-0.2-1.5-0.2c-1.1-0.2-2.1-0.4-3.2-0.6c-1.3-0.2-2.6-0.4-3.9-0.7
				c-0.8-0.2-1.5-0.4-2.2-0.7c-1.6-0.7-3.3-1-5-1.4c-2.2-0.4-4.2-1.3-6-2.6c-1-0.7-1.8-1.6-2.3-2.7c-0.6-1.2-1.1-2.4-1.4-3.7
				c-0.3-1.1,0.1-2,0.8-2.8c1-1.2,2.3-2,3.8-2.3c1.1-0.2,2.3-0.3,3.3,0.4c0.1,0.1,0.2,0.1,0.3,0.2c1.3,1.4,3.1,2.4,3.8,4.4
				c0.3,0.6,0.7,1.2,1.3,1.6c0.8,0.6,1.6,1.3,2.4,1.9c1,0.8,2.3,1.1,3.5,1.2c1.5,0.1,3.1,0.1,4.6-0.3c0.7-0.2,1.5-0.3,2.2-0.6
				c1.8-0.8,3.6-1.2,5.6-1.5c0.7-0.1,1.4-0.3,2.1-0.4c2.1-0.3,3.1,0.8,3.3,2.3c0.3,1.9-0.1,3.7-1.4,5.3c-1.1,1.3-2.5,2.1-4.2,2.5
				c-1.2,0.3-2.3,0.7-3.5,0.7c-0.1,0-0.1,0.1-0.2,0.1C329.9,556.1,329.1,556.1,328.3,556.1z"/>
			<path class="st19" d="M281.9,527.8c0-1.1,0.4-2.1,1.4-3c0.8-0.7,1.5-0.9,2.5-0.4c1.3,0.6,2.5,1.5,3.1,2.9c0.3,0.6,0.8,1,1.4,1.2
				c1.1,0.3,2.1,0.7,3.2,1c1.2,0.4,2.3,1.1,3.2,1.9c0.4,0.3,0.7,0.8,0.9,1.3c0.3,0.6,0.5,1.2,0.8,1.8c0.4,0.7,0.8,1.5,1.2,2.2
				c0.5,0.8,1.1,1.6,1.6,2.3c0.2,0.3,0.3,0.5,0.4,0.8c0.2,0.5,0,0.9-0.4,1.2c-0.3,0.2-0.6,0.3-0.8,0.3c-0.9,0.2-1.7,0.3-2.6,0.2
				c-1-0.2-2.1-0.1-3.2-0.1c-2.1,0.1-3.9-0.6-5.5-1.9c-0.9-0.7-1.8-1.3-2.7-1.9c-1.3-0.8-2-2-2.4-3.4c-0.3-1-0.8-2-1.3-2.9
				C282.2,530.3,281.9,529.1,281.9,527.8z"/>
			<path class="st19" d="M319.6,505.4c1.3,0.2,2.6,0.4,3.8,0.6c1.2,0.2,2.3,0.8,3.2,1.6c1.1,1,0.9,2.4-0.3,3.1
				c-0.4,0.2-0.8,0.3-1.3,0.4c-1.3,0.3-2.5,0.5-3.8,0.3c-1.2-0.2-2.4-0.4-3.6-0.8c-1-0.3-1.9-0.7-2.9-1.1c-0.8-0.3-1.5-0.6-2.3-1
				c-1-0.4-1.9-0.9-2.3-2.2c0.1-0.2,0.3-0.5,0.5-0.7c2-2,4.2-3.6,6.8-4.8c1.5-0.7,3.1-1.2,4.8-1.4c1-0.1,2.1-0.1,3,0.4
				c1.2,0.6,1.4,1.9,0.5,2.8c-0.6,0.6-1.4,0.9-2.2,1.2C322.2,504.5,320.9,504.9,319.6,505.4z M325.9,509c-0.8-1-1.9-1.6-3.2-1.8
				c-1.3-0.2-2.6-0.5-4-0.4c-0.8,0-1.5,0.1-2.2,0.1c-0.9,0.1-1.8,0.1-2.8,0.2c-0.4,0-0.7,0.1-1.2,0.2c0.7,0.3,1.3,0.4,1.9,0.7
				c2,1,4.2,1.7,6.4,2c1.4,0.2,2.8,0,4.1-0.3C325.4,509.6,325.7,509.4,325.9,509z M324.8,501.5c-0.3-0.5-0.8-0.5-1.3-0.6
				c-1.1-0.1-2.1,0.2-3.1,0.5c-2.5,0.7-4.7,1.9-6.8,3.4c-0.2,0.1-0.3,0.3-0.5,0.5c3.4-0.5,6.6-1.4,9.7-2.5
				C323.5,502.6,324.3,502.3,324.8,501.5z"/>
			<path class="st19" d="M315.3,511.5c-0.5,0-0.9,0-1.3,0.1c-1.5,0.3-2.9,1-4.2,1.8c-1.2,0.8-2.3,1.8-3.5,2.7
				c-0.1,0.1-0.2,0.1-0.3,0.2c-0.5,0-0.7-0.3-0.8-0.8c0.3-0.6,0.8-1,1.3-1.4c1.8-1.5,3.9-2.7,6.1-3.5c0.8-0.3,1.6-0.4,2.6-0.1
				C315.3,510.8,315.3,511.1,315.3,511.5z"/>
			<path class="st19" d="M320.3,518.6c0.4,0.7,0.2,1.1-0.5,1.1c-1.1,0.1-2.1,0.5-3.1,1c-1.6,0.8-3,1.8-4.2,2.9
				c-0.3,0.3-0.7,0.5-1.1,0.3c-0.3-0.6-0.2-1.1,0.3-1.5c1.7-1.2,3.3-2.5,5.3-3.3C318.9,518.5,319,518.5,320.3,518.6z"/>
			<path class="st19" d="M313.8,526.7c0.1-0.7,0.6-1.1,1.1-1.4c2.3-1.6,4.8-2.7,7.5-3.3c0.4,0.1,0.6,0.3,0.5,0.7
				c0,0.4-0.3,0.5-0.6,0.6c-1.1,0.4-2.3,0.8-3.4,1.3c-1.4,0.6-2.8,1.4-3.9,2.5C314.6,527.4,314.3,527.3,313.8,526.7z"/>
			<path class="st19" d="M309.8,520c-0.7-0.5-0.8-0.9-0.5-1.5c0.2-0.3,0.4-0.6,0.6-0.8c1.9-1.5,4.1-2.6,6.4-3.4
				c0.3-0.1,0.6-0.2,1,0.1c0,0.2,0,0.5,0,0.8c-0.9,0.4-1.9,0.7-2.7,1.1c-1.3,0.6-2.6,1.3-3.7,2.4c-0.2,0.2-0.4,0.5-0.6,0.7
				C310.2,519.7,310,519.8,309.8,520z"/>
			<path class="st19" d="M325.1,526.9c-1.6,0.3-3,0.7-4.2,1.4c-1.2,0.7-2.5,1.4-3.7,2.1c-0.7-0.4-0.8-0.9-0.2-1.4
				c0.4-0.3,0.9-0.6,1.3-0.8c1.7-0.9,3.4-1.7,5.2-2.2c0.5-0.1,0.9-0.2,1.5,0.1C325,526.2,325,526.5,325.1,526.9z"/>
			<path class="st19" d="M319.6,533.8c-0.3-0.7-0.3-1,0.2-1.3c1.7-1,3.4-1.8,5.3-2.3c0.5-0.1,1-0.2,1.5-0.4c0.5-0.2,0.8-0.1,1,0.4
				c0,0.5-0.4,0.7-0.9,0.8c-1.6,0.4-3.1,0.8-4.6,1.6c-0.5,0.3-1.1,0.6-1.6,0.9C320.3,533.8,320.3,533.8,319.6,533.8z"/>
			<path class="st20" d="M289.7,519.9c1.7,0.3,3.2,0.9,4.3,2.2c1.3,1.5,2.4,3.1,3.7,4.6c0.6,0.8,1.2,1.6,1.9,2.3
				c1.1,1,2.5,1.5,3.9,1.9c1.2,0.4,2.4,0.6,3.5,1c1.1,0.4,2.1,1,2.8,2c1.3,1.7,3.1,2.8,5.2,3.2c1.2,0.3,2.4,0.8,3.6,1.2
				c0.4,0,0.8,0,1.2,0c0.9-0.5,1.2-1.3,1-2.3c-0.4-1.9-1.1-3.6-2.6-5c-1.1-1.1-2.2-2.1-3.4-3.1c-1.2-1-2.1-2.2-2.6-3.6
				c-0.8-2-2-3.7-3.7-5.1c-1.3-1.2-2.5-2.4-3-4.2c-0.3-1.2-0.8-2.3-1.2-3.5c-0.2-0.5-0.3-1-0.3-1.5c-0.4,0.4-0.7,0.8-1.1,1.2
				c0,0.1,0.1,0.3,0.1,0.4c0.5,1.4,0.9,2.7,1.4,4.1c0.5,1.6,1.5,2.9,2.7,3.9c1.8,1.4,3.1,3.1,3.9,5.3c0.3,0.9,0.9,1.7,1.5,2.4
				c0.9,1,1.9,1.8,2.9,2.7c0.7,0.6,1.4,1.2,2.1,1.9c1.1,1.3,1.7,2.8,2.1,4.4c0,0.1,0,0.3,0,0.4c-0.5,0.2-0.9,0.1-1.3-0.1
				c-1.4-0.4-2.7-0.8-4.1-1.2c-0.9-0.2-1.6-0.7-2.2-1.3c-0.5-0.5-1.1-1.1-1.6-1.6c-0.7-0.8-1.6-1.4-2.6-1.8
				c-0.8-0.3-1.6-0.5-2.5-0.8c-1.2-0.4-2.5-0.7-3.6-1.2c-0.6-0.2-1.1-0.6-1.5-1.1c-0.6-0.7-1.2-1.4-1.7-2.2c-1.3-1.7-2.5-3.4-4-4.8
				c-1.5-1.4-3.3-2.1-5.4-2.1c-0.5,0-1,0-1.4,0.1c-0.3,0.4-0.5,0.9-0.8,1.3c0.7-0.1,1.4-0.1,2.1-0.2
				C289.2,519.9,289.4,519.8,289.7,519.9z"/>
			<path class="st20" d="M179.5,162.5c0-0.7,0.1-1.5,0.1-2.2c0.5-4.2,1.7-8.4,1.7-12.6c0-3.3-0.7-6.5-0.6-9.7c0.1-2.3,0.5-4.5,1-6.8
				c1.7-8.4,3.5-16.8,7.3-24.5c0.6-1.2,1.3-2.5,2.4-3.4c2.4-2.1,6.9-2.5,9.9-3.5c4.2-1.4,8.4-2.7,12.6-4.1c0.5-0.2,1-0.3,1.4-0.3
				c1.3,0.1,2.2,1.3,3,2.4c2.9,3.8,6.3,4.8,10.8,5.4c1.2,0.2,2.5,0.2,3.7,0.3c1.3,0,2.5,0,3.8,0c1.4,0,2.7-0.4,4-0.7
				c1.9-0.4,3.7-0.8,5.5-1.3c2.3-0.6,4.7-1.3,6.8-2.5c1.6-1,3.2-2,4.6-3.4c0.6-0.7,1.4-1.3,2-2c0.5-0.5,0.9-1.1,1.4-1.7
				c0.4-0.5,0.8-0.7,1.4-0.7c1.5,0,3-0.2,4.5-0.6c7.4-1.9,15.9,0.4,22,4.8c5.4,3.9,9.4,9.7,11.2,16.1c2,7.4,1.3,15.2,4.3,22.3
				c2.8,6.7,3.3,15.5,2.5,22.8c0,0.4-0.1,0.9-0.4,1.3c-0.3,0.4-0.8,0.7-1.3,0.9c-2.9,1.4-5.8,2.8-8.7,4.2c-1.5,0.7-3,1.5-4.7,1.7
				c-0.8,0.1-1.7,0.1-2.5,0.1c-2.7-0.1-7.3-1.1-9.7,0.4c-2.7,1.7-2.9,8.9-3.6,12c-0.3,1.3-0.6,2.6-0.6,4c-0.1,2.5,0.8,5.3-0.8,7.3
				c-0.9,1.2-2.5,1.7-4,1.8c-1.5,0-3-0.4-4.4-0.8c-4.8-1.4-9.6-3-14.4-4c-0.1,0-0.3,0-0.5,0c-0.1,0.3-0.2,0.5-0.3,0.7
				c-0.5,1.5-1.1,2.9-2.2,4.1c-0.6,0.6-1.1,1.3-1.7,1.9c-1,0.9-2.3,1.2-3.5,1.6c-1.4,0.4-2.9,0.4-4.3,0.2c-1.5-0.2-3-0.7-4.2-1.7
				c-1.4-1.1-2.7-2.4-3.3-4.2c-0.9-2.5,0.2-2.7-2-3.5c-2.3-0.8-6,0.2-8.4,0.6c-3,0.5-6,0.9-8.9,0.2c-2.9-0.7-5.6-2.8-6.2-5.8
				c-0.2-1.1-0.1-2.3-0.1-3.5c0.1-1.8,0-3.7-0.3-5.5c-1.7,0.7-2.9,1.4-4.9,1.7c-1.6,0.2-3.1-0.1-4.6-0.3c-4-0.5-13.7-1.2-15.9-5.3
				C179.7,165.2,179.5,163.8,179.5,162.5z"/>
			<path class="st21" d="M249.3,178.9c-0.7-1.3-1.8-2.2-3.1-2.8c-1.7-0.8-3.5-1.3-5.4-0.8c-2,0.5-3.8,1.2-5.3,2.5
				c-1.5,1.3-3,2.6-4.1,4.2c-0.6,0.9-1.2,1.7-1.7,2.8c0.3,0,0.7-0.1,1-0.1c0.1,0,0.2,0,0.3,0c0.1-0.2,0.2-0.4,0.3-0.6
				c0.9-1.3,1.9-2.6,3.1-3.8c1.3-1.3,2.7-2.5,4.4-3.1c1.3-0.5,2.5-1.1,3.9-0.8c1.5,0.2,3,0.6,4.2,1.7c0.8,0.7,1.4,1.5,1.8,2.5
				c0.1,0.2,0.2,0.4,0.3,0.5c0.7,1.4,1.3,2.9,2,4.3c0,0,0,0.1,0.1,0.1c0.1-0.2,0.1-0.3,0.2-0.5c0.2,0,0.3,0,0.5,0
				c0.2,0,0.4,0.1,0.6,0.1c0-0.1-0.1-0.3-0.1-0.4C251.4,182.8,250.4,180.8,249.3,178.9z M268,90.3c-0.1,0.2-0.2,0.4-0.3,0.6
				c-0.5,1.3-0.9,2.6-1.4,3.9c-0.4,0.9-0.8,1.8-1.4,2.6c-1.1,1.5-2.3,2.9-3.4,4.3c-0.8,0.9-1.7,1.7-2.7,2.4c-1,0.7-2,1.5-3,2.1
				c-1.4,0.8-2.9,1.5-4.5,2.1c-3.1,1.2-6.3,1.9-9.6,2.2c-0.3,0-0.5,0.1-0.8,0.1c-1,0.1-2,0.2-3,0.3c-1.3,0-2.5,0-3.8-0.1
				c-1.2,0-2.4-0.1-3.6-0.2c-2.3-0.3-4.5-0.7-6.6-1.7c-1-0.5-2.1-1-3-1.5c-1-0.6-1.9-1.3-2.8-2c-1.2-0.8-2.3-1.7-3.2-2.8
				c-0.3-0.4-0.7-0.8-1-1.2c-1-1.1-2-2.2-2.8-3.5c-0.4,0-0.8,0.1-1.1,0.2c0.4,0.7,0.8,1.4,1.3,2.1c0.9,1.1,1.8,2.2,2.8,3.2
				c0.7,0.8,1.4,1.5,2.2,2.2c0.5,0.5,1.1,0.8,1.7,1.2c0.8,0.6,1.6,1.2,2.5,1.8c1.4,0.9,3,1.5,4.5,2c2.4,0.9,4.8,1.2,7.3,1.3
				c0.8,0,1.5,0,2.3,0c1.6,0,3.3,0.1,4.9,0c1.5-0.1,3.1-0.5,4.6-0.6c1.9-0.2,3.8-0.6,5.6-1.2c3.2-1.1,6.4-2.4,9.2-4.5
				c1.4-1,2.8-2.1,3.9-3.5c0.9-1.1,1.8-2.2,2.7-3.3c0.4-0.5,0.8-1.1,1.1-1.7c0.8-1.4,1.5-3,2-4.6c0.3-0.8,0.5-1.6,0.8-2.4
				c-0.3,0-0.6,0-0.9,0C268.3,90.3,268.2,90.3,268,90.3z"/>
			<path class="st3" d="M221.5,93.2c0.9-0.3,1.1-0.2,1.4,0.5c0.8,2,1.8,3.9,3,5.7c0.7,1,1.2,2,1.8,3c0.6,1,1.3,2,2,2.9
				c1.1,1.6,2.3,3.1,3.7,4.5c0.9,0.9,1.7,1.9,2.6,2.8c0.9,0.8,1.9,1.6,3,2.3c0.8,0.6,1.6,1.1,2.4,1.5c0.3,0.2,0.6,0.3,1,0.4
				c0.1-0.2,0.2-0.4,0.3-0.5c0.3-0.5,0.7-1.1,1-1.6c0.4-0.6,1-0.9,1.8-0.9c0.5,0,1.1-0.1,1.6,0c1.1,0.1,2,0.7,2.6,1.6
				c1.1-0.8,1.9-1.8,2.7-2.8c1-1.3,1.9-2.7,2.5-4.3c0.3-0.9,0.7-1.7,1.1-2.6c0.7-1.7,1.4-3.5,1.9-5.3c0.9-2.9,1.6-5.8,2-8.8
				c0.1-0.7,0.1-1.3,0.1-2c0-0.1,0-0.2,0-0.3c0-0.5,0.4-0.9,0.8-0.9c0.4,0,0.8,0.4,0.8,1c-0.2,2.2-0.3,4.4-0.9,6.5
				c-0.6,2.1-1,4.3-1.7,6.3c-1,3.1-2.2,6.1-3.8,9c-1,1.8-2.2,3.5-3.8,4.8c-0.2,0.2-0.5,0.4-0.6,0.7c-0.1,0.2-0.2,0.5-0.2,0.7
				c0.3,1.8-0.3,3.3-1.7,4.4c-1.3,1-4,1-5.3,0c-0.8-0.6-1.1-1.5-1.3-2.5c-0.1-0.3-0.1-0.6-0.1-0.7c-0.9-0.4-1.7-0.7-2.4-1.2
				c-1.1-0.7-2.2-1.5-3.3-2.3c-0.7-0.5-1.4-1-2-1.6c-0.8-0.7-1.5-1.5-2.2-2.3c-0.9-1-1.7-2-2.5-3c-1-1.3-2-2.7-2.9-4.1
				c-1.3-2-2.5-4.1-3.6-6.2c-0.6-1.2-1.1-2.4-1.6-3.6C221.5,93.9,221.5,93.5,221.5,93.2z M243.5,118.7c0.1,0.8,0.4,1.5,1.1,2
				c0.7,0.5,1.6,0.5,2.4,0.3c1.7-0.4,2.5-2.4,1.8-4c-0.5-1.1-1.2-1.7-2.4-1.6c-0.1,0-0.2,0-0.3,0c-0.5-0.2-0.9,0-1.1,0.5
				c-0.1,0.1-0.2,0.3-0.3,0.4C243.6,116.8,243.6,117.8,243.5,118.7z"/>
			<path class="st18" d="M223.2,91.5c0.1-0.6,0.3-0.8,0.8-0.9c0.7,0.3,1,1,1.4,1.6c0.9,1.3,1.7,2.7,2.7,4c1.4,1.9,2.7,3.8,4.5,5.4
				c0.5,0.5,1,1.1,1.5,1.6c1.9,1.7,4,3.1,6.3,4.1c2.1,1,4.1,0.5,5.9-0.9c1.3-1,2.3-2.3,3.3-3.6c1.5-1.8,2.6-3.8,3.7-5.8
				c0.5-0.9,0.9-1.9,1.3-2.9c0.5-1.2,1-2.5,1.5-3.8c0.3-0.9,0.5-1.9,0.7-3c0,0,0.1-0.2,0.3-0.2c0.6-0.3,1.1,0.1,1.1,0.8
				c-0.1,1.4-0.5,2.7-1,3.9c-0.5,1.4-1.1,2.8-1.7,4.2c-1.1,2.4-2.3,4.6-3.8,6.7c-0.9,1.3-1.9,2.5-3,3.6c-1.1,1.1-2.3,2.1-3.8,2.6
				c-1.6,0.6-3.2,0.4-4.8-0.2c-1.7-0.7-3.3-1.6-4.8-2.6c-1.4-0.9-2.6-2.2-3.8-3.5c-1.1-1.2-2.2-2.4-3.1-3.7c-1.4-2-2.8-4.1-4.2-6.2
				C223.9,92.5,223.6,92,223.2,91.5z"/>
			<g>
				<g>
					<path class="st21" d="M204.6,133c0.1,12.5-0.3,25.1-1.2,37.6c0,0.5,0.7,0.5,0.8,0c0.9-12.5,1.3-25,1.2-37.6
						C205.4,132.5,204.6,132.5,204.6,133L204.6,133z"/>
				</g>
			</g>
			<g>
				<g>
					<path class="st21" d="M182.6,163.4c5.5,4.4,13.8,5.1,20.6,5c0.5,0,0.5-0.8,0-0.8c-6.5,0.1-14.8-0.5-20.1-4.8
						C182.7,162.5,182.2,163,182.6,163.4L182.6,163.4z"/>
				</g>
			</g>
			<g>
				<g>
					<path class="st21" d="M198.9,166.1c1.3,0.5,2.7,0.4,3.9-0.2c0.4-0.2,0.1-0.9-0.4-0.7c-1.1,0.5-2.2,0.6-3.3,0.2
						C198.6,165.2,198.4,165.9,198.9,166.1L198.9,166.1z"/>
				</g>
			</g>
			<g>
				<g>
					<path class="st21" d="M198.5,163.3c1,0.3,2,0.6,3,0.9c0.5,0.1,0.7-0.6,0.2-0.7c-1-0.3-2-0.6-3-0.9
						C198.2,162.4,198,163.1,198.5,163.3L198.5,163.3z"/>
				</g>
			</g>
			<g>
				<g>
					<path class="st21" d="M195.5,105.6c1.2-0.3,3.1,5.1,3.3,5.7c0.7,1.8,1.2,3.7,1.7,5.6c0.1,0.5,0.9,0.3,0.7-0.2
						c-0.7-2.8-1.5-5.6-2.8-8.2c-0.5-1.1-1.6-4.1-3.2-3.7C194.8,105,195,105.7,195.5,105.6L195.5,105.6z"/>
				</g>
			</g>
			<g>
				<g>
					<path class="st21" d="M276.5,127.2c1.6,6.6,3,13.1,2.9,19.9c-0.2,6-0.3,11.9,0.5,17.9c0.1,0.5,0.8,0.5,0.8,0
						c-0.8-6.6-0.5-13-0.4-19.6c0-6.3-1.4-12.4-2.9-18.4C277.2,126.5,276.4,126.8,276.5,127.2L276.5,127.2z"/>
				</g>
			</g>
			<g>
				<g>
					<path class="st21" d="M280.1,159.9c1.8,1.8,4.2,1.8,6.5,0.8c2.6-1.1,4.9-2.3,7.7-3.1c2.3-0.7,4.5-1.6,6.8-2.5
						c0.5-0.2,0.1-0.9-0.4-0.7c-3.2,1.4-6.4,2-9.6,3.2c-3.2,1.2-7,5.1-10.4,1.8C280.3,159,279.8,159.5,280.1,159.9L280.1,159.9z"/>
				</g>
			</g>
			<g>
				<g>
					<path class="st21" d="M282,158.4c1.4,0.3,2.9,0.2,4.3-0.3c0.5-0.2,0.3-0.9-0.2-0.7c-1.3,0.4-2.5,0.5-3.9,0.3
						C281.7,157.6,281.5,158.3,282,158.4L282,158.4z"/>
				</g>
			</g>
			<g>
				<g>
					<path class="st21" d="M274.6,106.3c0.2-5,3.6-9.5,6.1-13.6c0.3-0.4-0.4-0.8-0.7-0.4c-2.6,4.3-6,8.8-6.2,14
						C273.8,106.8,274.6,106.8,274.6,106.3L274.6,106.3z"/>
				</g>
			</g>
			<g>
				<g>
					<path class="st21" d="M262.3,178.2c3.1-8,6-16,6.9-24.7c0.1-0.5-0.7-0.5-0.8,0c-0.9,8.5-3.8,16.5-6.9,24.5
						C261.4,178.5,262.2,178.7,262.3,178.2L262.3,178.2z"/>
				</g>
			</g>
			<g>
				<g>
					<path class="st21" d="M265.5,179c0.8-1.6,1.4-3.1,2-4.8c0.2-0.5-0.6-0.7-0.7-0.2c-0.5,1.6-1.2,3.1-1.9,4.6
						C264.6,179,265.3,179.4,265.5,179L265.5,179z"/>
				</g>
			</g>
			<g>
				<g>
					<path class="st21" d="M213.2,148.9c-0.5,10.5,6.7,18.5,10.1,27.9c0.2,0.5,0.9,0.3,0.7-0.2c-3.3-9.3-10.5-17.4-10-27.7
						C214,148.4,213.2,148.4,213.2,148.9L213.2,148.9z"/>
				</g>
			</g>
			<g>
				<g>
					<path class="st21" d="M223.9,170.1c0.9,1.8,1.5,3.7,1.8,5.7c0.1,0.5,0.8,0.3,0.7-0.2c-0.3-2-0.9-4-1.8-5.8
						C224.4,169.3,223.7,169.7,223.9,170.1L223.9,170.1z"/>
				</g>
			</g>
			<g>
				<g>
					<path class="st21" d="M207.9,177.2c-0.6,1.2,1.3,2.5,2.2,2.8c2.8,1.1,5.8,0,8.6,0.7c0.5,0.1,0.7-0.6,0.2-0.7
						c-1.6-0.4-3.1-0.3-4.7-0.3c-0.9,0-1.8,0.1-2.7-0.1c-0.5-0.1-3.4-1.1-2.9-2C208.8,177.2,208.1,176.8,207.9,177.2L207.9,177.2z"
						/>
				</g>
			</g>
			<g>
				<g>
					<path class="st21" d="M269.5,94.3c-1.9,4.5-5,8.2-9,11c-0.4,0.3,0,0.9,0.4,0.7c4.1-2.8,7.3-6.6,9.3-11.2
						C270.3,94.3,269.7,93.9,269.5,94.3L269.5,94.3z"/>
				</g>
			</g>
			<g>
				<g>
					<path class="st21" d="M213.5,105.3c2.9,2.6,6.2,4.5,9.8,5.9c0.5,0.2,0.7-0.6,0.2-0.7c-3.5-1.3-6.6-3.2-9.4-5.7
						C213.7,104.4,213.1,104.9,213.5,105.3L213.5,105.3z"/>
				</g>
			</g>
			<g>
				<g>
					<path class="st5" d="M245.6,33.8c5.9-1.1,11.4-4.1,14-9.8c1.8,27.3-2.7,54.6-2.4,82c0,1.1,0.2,2.4,1.2,2.9c3-4,6.3-7.5,8.7-12
						c2.3-4.4,4.2-9,6.1-13.6c3.2-8,6.5-16.2,7.5-24.8c1.1-9.1-0.5-18.3-2.5-27.2c-0.7-2.8-1.4-5.7-2.7-8.3c-1.6-3.2-4.1-6.1-7.2-8
						c-1.2-0.8-3-1-4-1.9c-1.2-1-1.6-2.6-2.6-3.8c-2.1-2.6-4.7-4.6-7.7-6.1C249,0.8,243.5-0.1,238.1,0c-6.7,0.1-13.6,1.6-19,5.4
						c-3.3,2.3-6,5.5-8.4,8.8c-2.5,3.6-4.7,7.5-5.5,11.7c-0.9,4.3-0.3,9,2.3,12.5c1.8,2.5,4.6,4.3,5.9,7c0,0,0,0,0,0
						c1.1,2.3,1.2,4.7,2.5,6.9c1.8-1.8,0.5-5.4,1.8-8.2c1.7-3.6,5.6-6.3,9.3-7.6c0.5-0.2,1.1-0.3,1.6-0.5
						C234.1,34.6,240,34.8,245.6,33.8z"/>
				</g>
			</g>
			<g>
				<g>
					<path class="st22" d="M241.9,47.4c-0.5,2.9-0.8,6.2,0.4,9c0.6,1.3,1.4,2,2.3,3c0.6,0.6,1.4,0.8,1,2c-0.5,1.8-3.8,2.4-5.2,2.4
						c-0.7,0-0.7,1,0,1c2.1,0.1,7-1.3,6.7-4.3c-0.1-0.8-0.5-0.9-1.1-1.3c-3.6-3.1-4-6.8-3.2-11.4C243.1,47,242.1,46.7,241.9,47.4
						L241.9,47.4z"/>
				</g>
			</g>
			<g>
				<g>
					<path class="st23" d="M222.9,427.1c9.5,3.6,19.4-1.6,29.1,1c0.6,0.2,0.9-0.8,0.3-1c-9.7-2.6-19.6,2.6-29.1-1
						C222.5,425.9,222.2,426.9,222.9,427.1L222.9,427.1z"/>
				</g>
			</g>
			<g>
				<g>
					<path class="st23" d="M269.6,428.2c6.9-1,14.3-3,21.3-2.1c0.6,0.1,0.9-0.9,0.3-1c-7.2-1-14.8,1-21.8,2.1
						C268.7,427.3,269,428.3,269.6,428.2L269.6,428.2z"/>
				</g>
			</g>
			<g>
				<g>
					<path class="st23" d="M240.2,208c-2.4,22.2,3.9,44.2,1.3,66.3c-0.1,0.7,1,0.6,1,0c2.6-22.1-3.7-44.2-1.3-66.3
						C241.3,207.3,240.3,207.4,240.2,208L240.2,208z"/>
				</g>
			</g>
			<g>
				<g>
					<path class="st23" d="M245.8,200.1c0.3,4,4,23.4-1.7,24.5c-0.6,0.1-0.4,1.1,0.3,1c3.1-0.6,3.9-3.1,4-6c0.2-6.4-1-13.1-1.5-19.5
						C246.8,199.5,245.8,199.5,245.8,200.1L245.8,200.1z"/>
				</g>
			</g>
			<g>
				<g>
					<path class="st23" d="M200.4,309.4c10.5,4,21.4,2,32-0.6c0.6-0.2,0.4-1.2-0.3-1c-10.5,2.6-21.1,4.6-31.5,0.6
						C200,308.2,199.7,309.2,200.4,309.4L200.4,309.4z"/>
				</g>
			</g>
			<g>
				<g>
					<path class="st23" d="M206.2,316.8c-0.1,0.1-0.1,0.2-0.2,0.3c-0.2,0.3,0.1,0.8,0.4,0.8c5.3-0.4,10.5-1.4,15.7-2.9
						c0.6-0.2,0.4-1.2-0.3-1c-5,1.5-10.1,2.5-15.4,2.9c0.1,0.3,0.3,0.5,0.4,0.8c0.1-0.1,0.1-0.2,0.2-0.3
						C207.5,316.7,206.6,316.2,206.2,316.8L206.2,316.8z"/>
				</g>
			</g>
			<g>
				<g>
					<path class="st23" d="M290.9,331.2c-7.5,2.5-15.2,3.3-23.1,2.4c-0.7-0.1-0.7,1,0,1c8,0.9,15.7,0.1,23.4-2.4
						C291.8,332,291.5,331,290.9,331.2L290.9,331.2z"/>
				</g>
			</g>
			<g>
				<g>
					<path class="st23" d="M262.2,196.9c1.6,7.4,10.9,12.1,18,11.6c0.7,0,0.7-1.1,0-1c-6.6,0.5-15.5-3.9-17-10.8
						C263.1,196,262.1,196.3,262.2,196.9L262.2,196.9z"/>
				</g>
			</g>
			<g>
				<g>
					<path class="st23" d="M226.6,195.3c-3.6,7.9-8.8,15.6-17.9,17.5c-0.6,0.1-0.4,1.1,0.3,1c9.3-1.9,14.8-9.8,18.5-18
						C227.8,195.2,226.9,194.7,226.6,195.3L226.6,195.3z"/>
				</g>
			</g>
			<g>
				<g>
					<path class="st23" d="M218.2,190.5c2.5,0.2,5,0.3,7.5,0.1c2.6-0.2,5.2-0.7,7.7,0.3c0.6,0.2,0.9-0.8,0.3-1
						c-2.3-0.9-4.5-0.7-6.9-0.5c-2.9,0.2-5.7,0.2-8.6,0C217.5,189.4,217.5,190.4,218.2,190.5L218.2,190.5z"/>
				</g>
			</g>
			<g>
				<g>
					<path class="st23" d="M252.4,190.2c4.7,0.4,9.4,1,14.1,0.4c0.7-0.1,0.4-1.1-0.3-1c-4.6,0.6-9.2,0-13.8-0.4
						C251.8,189.1,251.8,190.1,252.4,190.2L252.4,190.2z"/>
				</g>
			</g>
			<g>
				<g>
					<path class="st5" d="M216.5,18.3c7.1-7.5,17.2-10.8,27.4-8.8c1.3,0.3,1.9-1.8,0.6-2c-10.9-2.2-21.8,1.3-29.4,9.4
						C214,17.8,215.5,19.3,216.5,18.3L216.5,18.3z"/>
				</g>
			</g>
			<g>
				<g>
					<path class="st24" d="M274.1,44.4c0.5,9.3-2.2,17.9-5,26.6c-0.2,0.5,0.6,0.7,0.8,0.2c2.9-8.8,5.5-17.5,5-26.9
						C274.8,43.8,274,43.8,274.1,44.4L274.1,44.4z"/>
				</g>
			</g>
			<g>
				<g>
					<path class="st24" d="M270.8,40.7c0.1,4.1-0.1,8.1-0.6,12.1c-0.1,0.5,0.8,0.5,0.8,0c0.5-4,0.7-8.1,0.6-12.1
						C271.6,40.2,270.7,40.1,270.8,40.7L270.8,40.7z"/>
				</g>
			</g>
			<g>
				<g>
					<path class="st24" d="M254.8,14.5c-7.7-8.1-19.4-5.7-28.3-1c-9.7,5.2-16.9,14.2-17.3,25.4c0,0.4,0.6,0.4,0.6,0
						c0.4-10.5,6.7-18.9,15.6-24.1c8.8-5.1,21.1-8.2,29,0.1C254.6,15.1,255,14.7,254.8,14.5L254.8,14.5z"/>
				</g>
			</g>
			<g>
				<g>
					<path class="st24" d="M224.1,10.8c4.4-2.1,9-3.3,13.8-3.4c0.4,0,0.4-0.6,0-0.6c-4.9,0.2-9.7,1.4-14.1,3.5
						C223.4,10.5,223.7,11,224.1,10.8L224.1,10.8z"/>
				</g>
			</g>
			<g>
				<g>
					<path class="st24" d="M212.7,71.5c0.9,5.4,3.3,10.3,6.9,14.5c0.2,0.3,0.7-0.1,0.4-0.4c-3.6-4.1-5.8-8.9-6.8-14.2
						C213.2,71,212.6,71.2,212.7,71.5L212.7,71.5z"/>
				</g>
			</g>
			<g>
				<g>
					<path class="st24" d="M216.8,73.4c1.2,4,2.9,7.7,5,11.3c0.2,0.3,0.7,0,0.5-0.3c-2.1-3.5-3.7-7.2-4.9-11.1
						C217.2,72.9,216.7,73,216.8,73.4L216.8,73.4z"/>
				</g>
			</g>
			<path class="st5" d="M229.3,48.3c1.3-0.7,3-0.7,4.3,0c0.4,0.2,0.7,0.5,1,0.9c0.4,0.6,0.4,1.3,0.4,2c0,0.2,0,0.3-0.1,0.5
				c-0.1,0.1-0.2,0.3-0.4,0.2c-0.2,0-0.3-0.2-0.4-0.4c-0.3-0.7-0.4-1.5-1-1.9c-0.2-0.2-0.5-0.2-0.8-0.3c-0.7-0.1-1.4,0-2,0.2
				c-0.5,0.2-1,0.5-1.2,1c-0.2,0.4-0.3,0.8-0.4,1.2c-0.2,0.5-0.4,0.9-0.8,1.3c-0.1,0.1-0.2,0.2-0.4,0.2c-0.9,0-0.2-2.2-0.1-2.6
				C227.7,49.7,228.4,48.8,229.3,48.3z"/>
			<path class="st5" d="M253.2,48.4c-1.2-0.6-2.7-0.6-3.8,0c-0.3,0.2-0.6,0.5-0.9,0.8c-0.3,0.5-0.4,1.2-0.4,1.8c0,0.2,0,0.3,0.1,0.4
				c0.1,0.1,0.2,0.2,0.4,0.2c0.2,0,0.3-0.2,0.4-0.4c0.3-0.6,0.4-1.4,0.9-1.8c0.2-0.1,0.5-0.2,0.7-0.3c0.6-0.1,1.2,0,1.8,0.2
				c0.4,0.2,0.9,0.4,1.1,0.9c0.2,0.3,0.2,0.7,0.4,1.1c0.1,0.4,0.4,0.8,0.7,1.1c0.1,0.1,0.2,0.2,0.3,0.2c0.8,0,0.2-2,0-2.3
				C254.7,49.6,254.1,48.8,253.2,48.4z"/>
			<path class="st25" d="M235.2,72.1c-0.5-0.4-1-1-1.3-1.5c-0.3-0.6-0.7-1.2-0.1-1.7c0.4-0.4,0.9-0.5,1.5-0.6c0.5,0,1.1,0,1.6,0.1
				c2.1,0.3,4.3,0.4,6.4,0.5c1,0,2,0,2.9,0.2c0.3,0.1,0.6,0.2,0.7,0.4c0.2,0.3,0,0.7,0,1.1c-0.1,0.4,0,0.9-0.1,1.3
				c-0.2,0.4-0.5,0.7-0.9,1c-1.2,0.7-2.5,0.8-3.9,0.9c-1.4,0.1-2.7,0-4-0.4C237,73.1,236,72.7,235.2,72.1z"/>
			<path class="st26" d="M247,70.1c-1.6,0.1-3.2-0.1-4.8-0.1c-2.1-0.1-4.2-0.1-6.3-0.2c-0.8-0.1-1.7-0.2-2.5-0.3
				c0-0.2,0.1-0.4,0.3-0.5c0.4-0.4,1-0.5,1.5-0.6c0.5,0,1.1,0,1.6,0.1c2.1,0.3,4.3,0.4,6.5,0.5c1,0,2,0,2.9,0.2
				c0.3,0.1,0.6,0.2,0.7,0.4C247.1,69.6,247.1,69.9,247,70.1z"/>
		</g>
		<g>
			<path class="st3" d="M260.2,201.2c-2.3-1.5-14.6-16.9-0.8-27.5c14.8-11.4-8.2-16.4-22.5-1.3c-11.6,12.3-7.5,27.8-34.8,29.3
				c-19.4,1.1-41.2,15.6-45.1,43.5c-3.5,24.7,23.6,55.9,55.5,57.2c25.6,1.1,41-18.5,45.7-33.7c4.7-15.2,2.4-27.8,18.8-29.3
				c16.4-1.5,33.4-19.1,29.2-28.1c-2.5-5.3-7.7,3.4-24.8,2.2C264.4,212.3,260.2,201.2,260.2,201.2z"/>
			
				<ellipse transform="matrix(0.1955 -0.9807 0.9807 0.1955 -71.3714 408.8781)" class="st5" cx="213.5" cy="247.9" rx="12.6" ry="12.6"/>
			<polygon class="st5" points="220.3,233.1 354.6,111 351.4,99.2 384.8,79.9 403.3,92.9 374.1,124.5 362.9,121.5 230.4,244.4 			
				"/>
			<g>
				
					<rect x="173.3" y="182.7" transform="matrix(0.7383 -0.6744 0.6744 0.7383 -50.74 236.157)" class="st26" width="211.4" height="1.5"/>
				
					<rect x="175.9" y="185.6" transform="matrix(0.7383 -0.6744 0.6744 0.7383 -51.9901 238.6776)" class="st26" width="211.4" height="1.5"/>
				
					<rect x="178.4" y="188.3" transform="matrix(0.7383 -0.6744 0.6744 0.7383 -53.1703 241.057)" class="st26" width="211.4" height="1.5"/>
			</g>
			<g>
				<path class="st4" d="M355.4,90.4c0.5-0.9,0.5-2-0.1-3c-0.9-1.5-2.8-2-4.2-1.1c-1.5,0.9-2,2.8-1.1,4.2c0.7,1.2,2.1,1.7,3.4,1.5
					l9.5,12.4l2.1-1.6L355.4,90.4z"/>
				<path class="st4" d="M362.9,85.8l9.5,12.4l2.1-1.6L365,84.2c0.5-0.9,0.5-2-0.1-3c-0.9-1.5-2.8-2-4.2-1.1c-1.5,0.9-2,2.8-1.1,4.2
					C360.2,85.5,361.6,86.1,362.9,85.8z"/>
				<path class="st4" d="M373.1,79.1l9.5,12.4l2.1-1.6l-9.5-12.4c0.5-0.9,0.5-2-0.1-3c-0.9-1.5-2.8-2-4.2-1.1
					c-1.5,0.9-2,2.8-1.1,4.2C370.5,78.8,371.8,79.4,373.1,79.1z"/>
				<path class="st4" d="M402.4,100c-1-0.9-2.5-1-3.6-0.3l-13-8.7l-1.5,2.2l13,8.7c-0.2,1,0.2,2.1,1,2.8c1.3,1.1,3.2,1,4.4-0.3
					C403.8,103,403.6,101.1,402.4,100z"/>
				<path class="st4" d="M391.6,108.6l-13-8.7l-1.5,2.2l13,8.6c-0.2,1,0.2,2.1,1,2.8c1.3,1.1,3.2,1,4.4-0.3c1.1-1.3,1-3.2-0.3-4.4
					C394.2,108,392.8,108,391.6,108.6z"/>
				<path class="st4" d="M384.1,118.3l-13-8.7l-1.5,2.2l13,8.6c-0.2,1,0.2,2.1,1,2.8c1.3,1.1,3.2,1,4.4-0.3c1.1-1.3,1-3.2-0.3-4.4
					C386.7,117.7,385.2,117.6,384.1,118.3z"/>
			</g>
			<path class="st26" d="M240.3,188.2c-1.8-0.8-3.2,2-1.3,2.9C240.8,191.9,242.2,189.1,240.3,188.2z"/>
			<path class="st26" d="M247.7,190.4c-1.8-0.8-3.2,2-1.3,2.9C248.2,194.2,249.5,191.3,247.7,190.4z"/>
			<path class="st26" d="M238.3,195.7l-0.1-0.1c-1.8-0.8-3.2,2-1.3,2.9l0.1,0.1C238.9,199.4,240.2,196.6,238.3,195.7z"/>
			<path class="st26" d="M244,198.3l-0.1,0.1c-0.8,1.8,2,3.2,2.9,1.3l0.1-0.1C247.7,197.7,244.8,196.4,244,198.3z"/>
			<path class="st26" d="M280.2,228.8c-0.3-0.8-1.3-1.3-2-0.9l-1.1,0.5c-0.8,0.4-1.2,1.2-0.9,2c0.3,0.8,1.3,1.3,2,0.9
				c0.4-0.2,0.7-0.3,1.1-0.5C280.1,230.4,280.5,229.6,280.2,228.8z"/>
			<g>
				<path class="st26" d="M190.3,257.4c-1.8-0.8-3.2,2-1.3,2.9C190.8,261.1,192.1,258.2,190.3,257.4z"/>
				<path class="st26" d="M194,261.4c-1.8-0.8-3.2,2-1.3,2.9C194.5,265.1,195.8,262.2,194,261.4z"/>
				<path class="st26" d="M198.2,265.3l-0.1-0.1c-1.8-0.8-3.2,2-1.3,2.9l0.1,0.1C198.8,269,200.1,266.2,198.2,265.3z"/>
				<path class="st26" d="M202.7,269.5l-0.1-0.1c-1.8-0.8-3.2,2-1.3,2.9l0.1,0.1C203.2,273.2,204.5,270.4,202.7,269.5z"/>
			</g>
		</g>
		<g>
			<path class="st11" d="M187.7,170c-1.5-0.1-3.1,0-3,1.5c0.1,5.4,0.5,13.6,1,21.2c0.5,7.6,10.1,65.3,10.6,71.3
				c0.5,6.1,5.8,15.4,9.2,17.3c3.4,1.9,13.1-2.1,17.6-4c4.4-2-2-13.8-4.3-16.6c-2.3-2.8-9.4-3-9.2-9.1c0.1-6.1-1.6-46.6-2.8-56.1
				c-1.2-9.5-3.2-24.3-3.2-24.3L187.7,170z"/>
			<path class="st27" d="M209.5,251.2c-5.2,2.5-9,2.4-14.6,3.5l1,6.3c6.1-1.2,10.3-1.5,15.9-4.2L209.5,251.2z"/>
		</g>
		<path class="st11" d="M288.3,192.6l12.5-13.7c11.5-11.4,27.2-25.8,27.9-27.1c1-2.2,0.4-10.7-0.8-12c-1.2-1.3-3.9-0.8-3.9-0.8
			s-2.1-3.7,4.2-8.5s11-3.1,12.4-0.4c1.4,2.6,3.6,12.9,1.5,19.5c-2,6.6-37,56-43.5,56.8C292.1,207.2,288.3,192.6,288.3,192.6z"/>
	</g>
</g>
</svg>
