<?xml version="1.0" encoding="utf-8"?>
<!-- Generator: Adobe Illustrator 23.0.2, SVG Export Plug-In . SVG Version: 6.00 Build 0)  -->
<svg version="1.1" id="Layer_1" xmlns="http://www.w3.org/2000/svg" xmlns:xlink="http://www.w3.org/1999/xlink" x="0px" y="0px"
	 viewBox="0 0 946.64 685.68" style="enable-background:new 0 0 946.64 685.68;" xml:space="preserve">
<style type="text/css">
	.st0{fill:#422645;}
	.st1{fill:#3D2015;}
	.st2{fill:#FDA689;}
	.st3{fill:#FE8E78;}
	.st4{fill:#A5C0D2;}
	.st5{fill:#CCE2EF;}
	.st6{fill:#007CC7;}
	.st7{fill:#AAA8A5;}
	.st8{fill:#E5E5E5;}
	.st9{fill:#FFBE97;}
	.st10{fill:#663A28;}
	.st11{fill:#FFFFFF;}
	.st12{fill:#12151E;}
	.st13{fill:#6E439D;}
	.st14{fill:#035693;}
	.st15{fill:#0076C2;}
	.st16{fill:#2F5959;}
	.st17{fill:#CAFFE4;}
	.st18{fill:#00B1AA;}
	.st19{fill:#694132;}
</style>
<path class="st0" d="M548.31,287.12c4.58-14.17,19.23-28.19,30.7-37.69c8.03-6.65,14.88-14.61,24.83-17.74
	c4.78-1.5,7.65-1.49,12.65-1.72c5-0.23,10.21,0.8,14.26,3.75c0.55,0.4,1.11,0.89,1.25,1.55c0.12,0.55-0.08,1.11-0.29,1.62
	c-2.19,5.23-6.88,8.97-11.64,12.05c-18.22,11.8-40,17.43-57.68,30.03C558.78,281.56,552.55,285.82,548.31,287.12z"/>
<g>
	<path class="st1" d="M177.17,577.3c-11.18,0.19-22.46-1.74-32.98-5.61c-10.53-3.85-20.31-9.52-28.96-16.43
		c-8.66-6.91-16.27-14.97-22.83-23.77c-6.54-8.81-12.07-18.34-16.42-28.45c-4.33-10.11-7.55-20.78-9.17-31.94
		c-0.8-5.57-1.19-11.32-1.01-17.06c0.16-5.73,0.84-11.4,1.93-16.97c4.43-22.28,15.84-42.88,31.74-58.86
		c7.92-8.02,16.89-14.95,26.5-20.67c9.62-5.71,19.83-10.27,30.31-13.76c10.48-3.5,21.22-5.94,32-7.55c5.39-0.81,10.8-1.41,16.2-1.83
		c5.42-0.41,10.78-0.59,16.22-0.64c10.95-0.09,22.05,0.72,33,2.69c10.94,1.96,21.75,4.94,32,8.94c10.27,3.96,20.05,8.66,29.36,13.65
		c9.32,5,18.22,10.23,26.99,15.28c8.78,5.04,17.44,9.91,26.24,14.31c8.8,4.41,17.71,8.39,26.84,11.8c9.11,3.46,18.42,6.37,27.9,8.76
		c9.48,2.4,19.13,4.22,28.89,5.67c9.76,1.42,19.63,2.39,29.56,2.98c9.91,0.57,19.96,0.73,30,0.64c20.07-0.22,40.13-1.52,60.1-4.04
		c9.98-1.28,19.94-2.83,29.87-4.68c9.93-1.83,19.83-3.96,29.74-6.18c19.81-4.47,39.55-9.82,59.57-14.62
		c20.03-4.69,40.42-8.91,61.14-10.19c10.34-0.66,20.72-0.6,31.01,0.27c10.28,0.89,20.45,2.62,30.4,5.1
		c-20.29-2.97-40.81-2.89-60.83,0.1c-10.01,1.5-19.93,3.53-29.75,6.04c-9.82,2.5-19.56,5.39-29.28,8.45
		c-19.44,6.07-38.88,12.65-58.69,18.49c-19.79,5.88-40.01,10.79-60.49,14.54c-10.25,1.86-20.56,3.41-30.92,4.65
		c-10.36,1.23-20.78,2.05-31.2,2.61c-10.42,0.54-20.85,0.83-31.4,0.72c-10.53-0.14-21.09-0.69-31.65-1.74
		c-21.11-2.12-42.23-6.51-62.58-13.38c-20.35-6.85-39.7-16.32-57.88-26.19c-18.24-9.81-35.37-19.86-53.07-26.6
		c-4.43-1.68-8.88-3.19-13.36-4.54c-4.49-1.33-9.03-2.44-13.62-3.33c-9.18-1.74-18.54-2.8-28.06-2.99
		c-19.31-0.39-38.64,1.38-56.76,6.67c-18.08,5.25-34.95,14.11-48.31,26.82c-6.66,6.35-12.44,13.59-17.03,21.53
		c-4.61,7.92-8.03,16.54-10.05,25.43c-1,4.45-1.66,8.96-1.9,13.46c-0.27,4.49-0.08,8.99,0.45,13.57c1.08,9.14,3.55,18.32,7.05,27.11
		c7.02,17.58,18.09,33.86,32.41,46.06c7.17,6.07,15.14,11.12,23.72,14.61c8.57,3.5,17.74,5.43,27.04,5.62V577.3z"/>
</g>
<circle class="st1" cx="177.45" cy="538.13" r="39.08"/>
<g>
	<path class="st0" d="M764.97,284.91c1.2-1.26,2.34-2.65,3.43-4.17c10.08-14.19,9.71-34.07,2.03-49.69
		c-6.49-13.22-17.27-23.48-26.25-34.94c-9.37-11.95-14.96-25.91-23.1-38.7c-29.34-46.04-59.4-92.76-69.08-106.46
		c-1.91-2.72-6.46-9.06-6.46-9.06l-8.85-13.68c-2.17-3.02-4.54-5.98-7.12-8.96c-0.63-0.74-1.28-1.48-1.95-2.21
		c-5.68-6.32-11.64-12.84-19.49-16.11c-2.34-0.97-5.32-1.53-7.21,0.16c-2.28,2.05-1.35,5.79-0.16,8.63
		c6.26,15.1,14.44,28.42,24.35,41.31c-5.99-6.57-12.7-12.3-20.96-15.3c-1.18-0.43-2.58-0.76-3.61-0.05
		c-1.48,1.03-1.04,3.31-0.36,4.99c3.29,8.18,8.07,15.66,12.83,23.08c3.32,5.2,6.38,10.37,9.48,15.72c-3.02-2.8-6.72-4.88-10.67-6.02
		c-1.98-0.56-4.1-0.89-6.07-0.32c-1.97,0.56-3.74,2.22-3.91,4.27c-0.1,1.18,0.34,2.35,0.82,3.44c2.43,5.41,6.35,9.98,10.3,14.4
		c2.49,2.79,5.02,5.54,7.57,8.27l-1.09,4.42c-2.94-1.01-5.93-1.6-8.97-1.05c-0.76,0.14-1.9,1.51-2.18,2.22
		c-0.28,0.7,0.15,1.48,0.57,2.1c2.29,3.46,4.74,6.65,7.4,9.65L616.2,121c1.05,1.23,2.13,2.45,3.23,3.62
		c-2.06-0.32-4.2-0.63-6.2-0.03c-1.99,0.61-3.79,2.42-3.64,4.51c0.07,0.87,0.46,1.69,0.91,2.44c2.29,3.77,6.05,6.05,10.14,7.9
		c1.24,1.04,2.76,1.78,4.24,2.47c1.9,0.89,3.79,1.81,5.66,2.75c-3.4-0.15-6.92,0.06-10.55,0.66c-0.77,0.13-1.51,0.44-2.07,0.99
		c-2.09,2.04-0.2,4.74,1.61,6.46c6.88,6.54,14.81,11.98,23.38,16.05c-5.7-0.27-11.44,0.52-16.86,2.31
		c-1.28,0.42-2.69,1.02-2.74,2.73c-0.03,0.94,0.37,1.84,1.01,2.53c6.85,7.43,16.88,10.6,26.48,13.52
		c-7.19-0.68-14.49-0.08-21.47,1.76c-1.15,0.3-2.49,0.84-2.71,2.02c-0.2,1.09,0.71,2.05,1.55,2.77
		c7.83,6.72,16.79,12.12,26.39,15.92c-5.06-0.65-10.22-0.54-15.25,0.31c-0.76,0.13-1.49,0.44-2.05,0.97
		c-2.52,2.38,0.37,5.79,2.99,7.51c9.15,6,18.96,10.96,29.19,14.83c-3.41-0.33-6.83-0.56-10.26-0.67c-0.78-0.03-1.57,0.13-2.23,0.53
		c-1.89,1.14-1.38,2.86-0.72,4.19c1.43,2.87,3.77,5.18,6.57,6.76c7.18,4.05,14.65,7.55,22.33,10.55c-0.09,0.4-0.06,0.28-0.15,0.68
		c-5.39-0.56-10.91,0.1-16.01,1.94c10.37,6.96,21.9,12.2,33.98,15.46c-4.39-1.08-9.11-0.8-13.34,0.82
		C709.61,291,744.95,305.9,764.97,284.91z"/>
	<path class="st2" d="M689.62,396.61c-0.04-0.11-0.08-0.22-0.12-0.33c-0.37-1.01-0.78-1.99-1.24-2.96
		c-0.21-0.44-0.43-0.89-0.75-1.25c-0.64-0.72-1.59-1.06-2.53-1.3c-2.28-0.58-4.64-0.74-6.98-0.89c-3.34-0.22-6.71-0.43-10,0.2
		c-1.75,0.34-2.06-0.26-2.75-1.7c-0.76-1.6-1.53-3.2-2.28-4.81c-1.51-3.21-3.01-6.43-4.49-9.65c-2.93-6.38-5.79-12.79-8.59-19.24
		c-1.37-3.16-6.28-1-4.9,2.17c2.95,6.79,5.98,13.55,9.08,20.27c2.01,4.35,4.26,8.64,6.12,13.06c-1.56-0.04-2.86-0.17-4.24,0.79
		c-1.17,0.82-1.98,2.15-2.16,3.57c-0.07,0.52-0.05,1.05,0.13,1.54s0.56,0.91,1.06,1.08c0.41,0.13,0.85,0.08,1.27,0.03
		c1.21-0.15,2.43-0.31,3.61-0.64c1.69-0.48,3.26-1.33,4.97-1.78c1.73-0.46,3.82-0.49,5.6-0.28c1.92,0.23,3.8,0.78,5.49,1.73
		c2.93,1.65,5.22,4.62,5.57,7.97c-2.36,0.22-4.68,0.83-6.85,1.8c3.09,1.09,6.56,1.18,9.61-0.01c1.09-0.43,2.11-1.01,3.11-1.63
		c0.82-0.51,1.65-1.06,2.19-1.85C690.7,400.82,690.29,398.56,689.62,396.61z"/>
	<path class="st3" d="M717.83,392.83c0.02-0.33-0.02-0.66-0.13-0.98c-0.17-0.48-0.5-0.88-0.84-1.26c-2.56-2.85-5.95-4.91-9.63-5.96
		c-1.87-0.54-3.82-0.82-5.77-0.81c-0.66,0-1.96,0.37-2.54,0.1c-0.69-0.31-1.48-1.75-1.81-2.4c-0.6-1.18-1.14-2.4-1.7-3.59
		c-1.26-2.68-2.52-5.37-3.76-8.07c-3.09-6.7-6.1-13.44-9.04-20.2c-1.37-3.16-6.28-1-4.9,2.17c0.94,2.17,1.89,4.34,2.85,6.5
		c2,4.5,4.03,8.99,6.09,13.47c2.05,4.44,4.45,8.82,6.25,13.36c-0.49,0.03-1-0.29-1.51-0.32c-0.75-0.04-1.52,0-2.25,0.15
		c-1.01,0.22-1.99,0.72-2.61,1.55s-0.8,2.02-0.29,2.91c0.16,0.27,0.4,0.53,0.71,0.58c0.22,0.04,0.45-0.03,0.66-0.12
		c0.74-0.28,1.43-0.69,2.18-0.94c1.3-0.43,2.7-0.36,4.06-0.29c2.3,0.12,4.72,0,6.98,0.32c2.13,0.31,4.13,1.21,6,2.26
		c0.62,0.35,4.1,2.44,3.46,3.37c-0.15,0.21-1.21,0.31-1.48,0.39c-0.5,0.14-1.01,0.29-1.5,0.45c-1.03,0.33-1.96,0.78-2.96,1.18
		c2.12,0.74,4.4,0.92,6.63,0.74c2.77,0,5.65-0.6,6.63-3.5C717.73,393.55,717.81,393.19,717.83,392.83z"/>
	<path class="st4" d="M680.8,304.26c-1.73,15.31-54.34,21.95-83.6,18.66c-29.26-3.3-59.15-19.24-57.43-34.55
		c24.69-9.6,34.41-24.2,63.67-20.9C632.71,270.76,682.53,288.94,680.8,304.26z"/>
	<path class="st4" d="M690.35,336.97c-1.17,10.35-6.98,18.19-12.98,17.52c-6-0.68-24.12-18.98-22.95-29.33
		c1.17-10.35,21.18-8.83,27.18-8.15C687.59,317.68,691.51,326.62,690.35,336.97z"/>
	<path class="st5" d="M823.13,162.61c-0.89-17.26-19.48-30.33-41.52-29.19c-22.03,1.14-33.23,15.59-40.69,34.02
		c-3.7,9.12-47.51,29.54-74.88,40.87c-52.13,21.56-83.99,64.19-71.16,95.21s67.96,44.06,120.09,22.5
		c43.88-18.15,73.65-63.58,76.74-99.39c1.02-11.82,9.86-34.26,13.6-36.29C816.54,184.26,823.71,173.94,823.13,162.61z"/>
	<path class="st4" d="M685.55,229.37L456.93,366.36c-1.36,0.81-2.89,1.28-4.47,1.37l-16.88,0.95c-2.05,0.06-1.02-3.14,0.68-4.28
		l227.19-153.87L685.55,229.37z"/>
	<path class="st0" d="M666.46,231.52L437.22,367.91c-2.6,1.55-5.58,1.93-7.38,0.95l-4.93-2.69c-2.89-1.58-1.48-5.79,2.74-8.2
		l234.17-133.7c3.7-2.11,7.73-1.76,8.57,0.73l0,0C671.07,227.01,669.41,229.77,666.46,231.52z"/>
	<path class="st0" d="M661.44,238.89L418.99,350.1c-2.75,1.26-5.75,1.33-7.43,0.16l-4.61-3.2c-2.71-1.88-0.86-5.92,3.6-7.86
		l247.07-108.02c3.9-1.7,7.88-0.93,8.44,1.64v0C666.5,234.9,664.55,237.46,661.44,238.89z"/>
	<path class="st0" d="M669.52,221.94L442.54,351.28c-2.6,1.55-5.58,1.93-7.38,0.95l-4.93-2.69c-2.89-1.58-1.48-5.79,2.74-8.2
		L666.8,216.62c3.7-2.11,8.08-10.75,8.92-8.25v0C676.39,210.38,672.46,220.19,669.52,221.94z"/>
	<path class="st6" d="M791.8,226.36c0.83-9.65,6.9-27.26,12-34.56c-6.58-26.16-24.82-43.16-43.13-41.28
		c-5.48,0.56-10.51,2.89-14.9,6.58c-1.76,3.17-2.83,6.74-4.35,10.23c-0.82,1.89-3.64,4.37-6.74,6.71c-0.07,0.05-0.26-0.1-0.33-0.05
		c-0.2,0.15-0.47,0.35-0.66,0.5c-2.28,1.73-4.84,3.22-6.84,4.59c-4.65,10.97,0.01,20.16,1.52,34.87
		c3.37,32.85,23.31,57.72,44.52,55.54c1.72-0.18,3.39-0.54,5.02-1.05C785.8,254.34,790.65,239.69,791.8,226.36z"/>
	<path class="st7" d="M762.95,167.11c0.67-5.93-4.23-11.51-11.45-13.74c-2.02,1.03-3.95,2.31-5.76,3.83
		c-1.76,3.17-3.33,6.55-4.76,10.08c-0.74,1.83-3.13,4.13-6.66,6.71c2.7,2.01,6.22,3.44,10.17,3.88
		C753.9,178.94,762.16,174.12,762.95,167.11z"/>
	<path class="st0" d="M803.98,155.15c-5.7-11.83-16.02-19.45-26.71-21.28c-1,0.14-1.95,0.27-2.9,0.47c-0.1,0.02-0.17-0.05-0.27-0.03
		c-13.35,2.92-22.09,11.57-28.36,22.91c-1.36,7.65-0.31,16.2,3.57,24.26c8.63,17.92,27.87,26.56,42.97,19.29
		c1.27-0.61,2.47-1.31,3.59-2.1c2.45-1.71,3.65-4.41,5.39-6.81c0.84-1.15,2.5-1.77,3.16-3.05
		C809.34,179.36,809.55,166.74,803.98,155.15z"/>
	<path class="st5" d="M663.7,334.21c-1.33,11.76-10.19,26.6-17.01,25.83c-6.82-0.77-25.47-26.1-37.9-40.1
		c-7.86-8.85,38.13-9.19,44.96-8.42C660.57,312.29,665.02,322.45,663.7,334.21z"/>
	<path class="st8" d="M799.93,172.51c6.06,12.59,2.38,26.94-8.22,32.05c-10.61,5.11-24.12-0.96-30.18-13.55
		c-6.06-12.59-2.38-26.94,8.22-32.05C780.35,153.86,793.86,159.92,799.93,172.51z"/>
	<path class="st6" d="M823.13,162.56c-0.04-0.82-0.16-1.62-0.28-2.42c-3.95-5.1-10.36-8.8-17.91-9.65
		c-13.45-1.52-25.4,6.56-26.69,18.03c-1.29,11.47,8.56,22,22.01,23.52c1.1,0.12,2.18,0.16,3.25,0.16c0.67-0.97,1.29-1.65,1.8-1.93
		C816.54,184.2,823.72,173.88,823.13,162.56z"/>
	<path class="st8" d="M786.4,142.96c0.78,3.88-4.34,8.18-11.44,9.61c-7.1,1.43-13.49-0.55-14.27-4.43
		c-0.78-3.88,4.34-8.18,11.44-9.61C779.23,137.11,785.62,139.09,786.4,142.96z"/>
	<path class="st6" d="M590.79,152.76c-0.54,0.71-1.1,1.43-1.62,2.14c-2.98,4.17-4.66,9.27-4.73,14.41
		c-5.82-1.15-11.88,2.65-14.53,7.95c-2.65,5.31-2.34,11.71-0.48,17.34c1.54,4.68,4.08,8.95,6.75,13.1c0.25,0.15,0.5,0.3,0.76,0.45
		c-0.21-0.12-0.44-0.23-0.69-0.34c0.52,0.81,1.05,1.62,1.57,2.42c-3.07-1.53-6.27-2.75-9.57-3.69c-3.34-0.11-6.75,0.02-9.03-0.13
		c-6.25-0.4-12.51-0.6-18.78-0.58c-4.07,0.02-8.05,0.14-11.96,0.49c-0.36,0.03-0.72,0.06-1.08,0.1c-7.66,1.7-15.17,4.11-22.55,6.78
		c-1.64,0.59-3.36,1.19-5.08,1.34c-4.49,1.7-9.06,2.82-13.65,1.71c-0.91-0.22-1.82-0.54-2.53-1.15c-1.69-1.46-1.71-4.19-0.67-6.16
		c1.05-1.97,2.91-3.35,4.71-4.67c-1.72-0.05-3.46-0.16-5.19-0.29l-0.08-0.14c-4.28-0.25-8.56-0.81-12.91-1.69
		c-0.79-0.16-1.7-0.42-2.03-1.16c-0.32-0.75-0.5-2.66-0.03-3.33c1.89-2.73,4.6-4.54,7.58-6.01l-2.52-4.17c-4-0.13-8-0.29-12-0.52
		c-6.34-0.34-12.77-0.83-18.7-3.08c-1.19-0.45-2.41-1.01-3.23-1.98c-1.42-1.68-1.34-4.28-0.28-6.19c1.06-1.93,2.91-3.28,4.83-4.36
		c3.85-2.14,8.22-3.37,12.63-3.54c-6.4-1.69-12.62-3.29-19.08-4.7c-9.22-2.01-18.51-4.03-27.19-7.73c-1.78-0.75-3.85-2.15-3.51-4.05
		c0.24-1.32,1.56-2.13,2.77-2.7c8.52-4,17.93-4.75,27.45-4.32c-17.27-2.24-33.54-6.11-49.71-12.79c-3.05-1.25-6.59-3.37-6.42-6.65
		c0.14-2.72,2.82-4.55,5.33-5.59c8.41-3.47,17.86-3.06,26.95-2.59c1.06,0.05,2.11,0.11,3.15,0.2c4.21,0.29,8.24,0.74,12.17,1.37
		l17.06,3.63c0,0,8.25,1.35,11.75,1.95c17.7,3.03,75.84,15.58,132.91,28.16c0.05,0.01,0.27,0.48,0.31,0.49
		C590.04,152.6,590.41,152.68,590.79,152.76z"/>
	<path class="st6" d="M819.31,150.5c-6.64-10.9-21.22-18.04-37.75-17.18c-2.64,0.14-5.12,0.49-7.46,0.99
		c-0.63,11.68,9.38,22.14,22.94,23.67C805.88,158.98,814.1,155.93,819.31,150.5z"/>
	<path class="st0" d="M815.13,151.18c0.26,3.39-6.11,6.64-14.22,7.25c-8.11,0.61-14.9-1.64-15.15-5.03
		c-0.26-3.39,6.11-6.64,14.23-7.25C808.09,145.54,814.88,147.79,815.13,151.18z"/>
	<path class="st9" d="M860.27,140.93l-49.13,15.06c0,0-0.82-9.89,2.55-11.4C830.83,136.95,860.27,140.93,860.27,140.93z"/>
	<path class="st3" d="M823.14,162.51c-3.25,1.06-12-6.52-12-6.52l49.13-15.06C860.27,140.93,833.01,159.31,823.14,162.51z"/>
	<path class="st10" d="M793.81,154.04c-0.38,3.38-3.43,5.81-6.81,5.43c-3.38-0.38-5.81-3.43-5.43-6.81
		c0.38-3.38,3.43-5.81,6.81-5.43C791.76,147.61,794.19,150.66,793.81,154.04z"/>
	<path class="st0" d="M786.89,160.47c-3.93-0.44-6.76-4-6.32-7.92c0.44-3.93,4-6.76,7.92-6.32c3.93,0.44,6.76,4,6.32,7.92
		C794.37,158.08,790.82,160.91,786.89,160.47z"/>
	<path class="st11" d="M788.27,148.23c-2.82-0.32-5.37,1.72-5.69,4.54c-0.32,2.82,1.72,5.37,4.54,5.69
		c2.82,0.32,5.37-1.72,5.69-4.54C793.12,151.1,791.09,148.55,788.27,148.23z"/>
	<path class="st0" d="M790.45,153.66c-0.16,1.41-1.43,2.42-2.84,2.26c-1.41-0.16-2.42-1.43-2.26-2.84c0.16-1.41,1.43-2.42,2.84-2.26
		C789.6,150.98,790.61,152.25,790.45,153.66z"/>
	<path class="st12" d="M729.9,182.15l-1.52,32.88c-2.2,6.73-6.4,13.73-13.05,20.34c-22.29,22.13-75.37,28.04-124.56,8.02
		c-15.9-6.47-39.95-21.73-62.27-37.06c3.91-0.35,7.88-0.47,11.96-0.49c6.27-0.02,12.53,0.18,18.78,0.58
		c2.28,0.15,5.7,0.02,9.03,0.13c3.29,0.94,6.49,2.16,9.57,3.69c-0.52-0.81-1.05-1.62-1.57-2.42c0.25,0.11,0.48,0.22,0.69,0.34
		c-0.26-0.15-0.51-0.3-0.76-0.45c-2.68-4.15-5.21-8.42-6.75-13.1c-1.86-5.63-2.16-12.03,0.48-17.34c2.65-5.3,8.7-9.1,14.53-7.95
		c0.07-5.14,1.75-10.23,4.73-14.41c0.52-0.72,1.08-1.43,1.62-2.14c22.18,4.89,43.73,9.28,63.15,13.64L729.9,182.15z"/>
	<path class="st11" d="M606.46,183.09c-3.33,6.95-15.2,8.2-26.49,2.78c-11.3-5.42-17.76-15.45-14.42-22.4
		c3.33-6.95,15.19-8.2,26.49-2.78C603.34,166.11,609.8,176.14,606.46,183.09z"/>
	<path class="st11" d="M586.81,208.21c-3.89,8.11-17.73,9.57-30.92,3.25c-13.18-6.32-20.72-18.02-16.83-26.14
		c3.89-8.11,17.73-9.57,30.92-3.25C583.16,188.39,590.7,200.09,586.81,208.21z"/>
	<path class="st13" d="M675.76,210.51c-3.38,16.01-31.38,23.67-62.55,17.09c-31.16-6.58-53.69-24.9-50.31-40.91
		c3.38-16.01,31.38-23.67,62.55-17.09C656.62,176.18,679.14,194.49,675.76,210.51z"/>
	<path class="st13" d="M579.05,242.33c-4,3.1-7.57,6.74-10.58,10.8c-0.85,1.15-1.7,2.48-1.51,3.89c0.41,3.14,4.83,3.45,7.93,2.8
		c16.07-3.36,31.62-9.21,45.93-17.28c5.84-3.3,10.6-9,3.98-13.35c-6.76-4.43-15.22-7.29-22.53-10.74
		c-18.3-8.64-37.88-16.51-57.98-19.7c-16.78-2.66-31.08,4.21-41.42,18.01c-0.95,1.26-1.88,2.81-1.47,4.33
		c0.62,2.29,3.62,2.76,5.99,2.7c10.16-0.27,20.27-2.17,29.84-5.59c-4.51,4.11-8.26,9.06-11,14.52c-0.47,0.94-0.92,1.99-0.66,3
		c0.47,1.81,2.79,2.32,4.66,2.31c10.3-0.02,19.86-5,28.95-9.86c-5.95,4.93-11.02,10.92-14.9,17.6c-0.64,1.1-1.25,2.53-0.52,3.58
		c0.68,0.98,2.09,1.01,3.27,0.92C558.04,249.43,568.91,246.73,579.05,242.33z"/>
	<path class="st13" d="M683.07,206.07c-12.17-1.95-24.78-2.27-36.94-0.07c-10.15,1.84-16.55,5.58-24.67,11.26
		c-8.97,6.27-18.68,10.41-27.06,17.8c-7.85,6.93-14.73,14.96-20.31,23.81c-1.6,2.54-3.01,6.13-0.9,8.27
		c1.36,1.38,3.56,1.38,5.49,1.21c11.6-0.98,22.98-4.53,33.1-10.3c-5.19,4.32-10.16,8.9-14.89,13.73c-1.49,1.52-3.06,3.71-2.03,5.56
		c0.53,0.95,1.6,1.46,2.64,1.78c5.33,1.64,11.06-0.06,16.3-1.95c8.98-3.24,17.73-7.09,26.19-11.52
		c-6.22,4.69-11.14,11.07-14.09,18.27c14.68-3.67,28.75-9.78,41.44-18.01c-4.59,3.06-8.2,7.56-10.2,12.7
		c24.86-5.05,47.87-18.58,64.57-37.65c1.97-2.25,10.71-10.49,10.44-13.47c-0.28-3.01-10.47-8.03-12.85-9.36
		C708.16,211.88,695.65,208.08,683.07,206.07z"/>
	<path class="st5" d="M731.49,230.55c4.81-6.59,7.9-14.43,8.61-22.56c0.57-6.57-0.3-13.18-1.35-19.69c-0.3-1.89-0.68-3.91-2.03-5.28
		c-1.4-1.43-3.53-1.82-5.51-2.13c-25.86-4.12-51.45-9.48-77.13-14.65c-19.7-4.42-42.22-9.23-64.75-14.2
		c-2.91,3.37-4.76,6.98-5.64,11.14c-0.84,3.98-0.59,8.08,0.49,11.99c4.59,16.67,21.38,28.39,35.83,35.97
		c9.91,5.2,21.02,9.96,32.05,12.1c4.63,0.9,8.66,3.02,13.25,4.03c5.47,1.2,11.15,1.07,16.71,1.16c1.18,0.02,2.54,0.15,3.2,1.12
		c1.12,1.65-0.84,3.94-0.19,5.83c4.65-0.61,9.19-2.01,13.38-4.1c-0.44,3.3-0.34,6.67,0.29,9.94c5.8-2.48,11.59-4.95,17.39-7.43
		c-1.47,3.29-1.78,7.07-0.87,10.56C721.69,241.17,727.26,236.35,731.49,230.55z"/>
	<g>
		<g>
			<path class="st11" d="M787.04,216.04c-1.61,3.15-1.94,6.95-2.86,10.35c-1.09,4.06-2.99,7.71-4.59,11.58
				c-0.34,0.82,0.97,1.31,1.4,0.59c3.7-6.19,6.72-15.18,6.31-22.45C787.29,215.98,787.11,215.91,787.04,216.04L787.04,216.04z"/>
		</g>
	</g>
	<g>
		<g>
			<path class="st11" d="M779.33,227.5c-1.98,3.34-3.87,6.77-5.65,10.22c-0.2,0.39,0.35,0.89,0.65,0.5
				c2.45-3.14,4.26-6.76,5.25-10.62C779.61,227.46,779.41,227.37,779.33,227.5L779.33,227.5z"/>
		</g>
	</g>
	<g>
		<g>
			<path class="st11" d="M768.3,218.38c-0.59,5.83-3.34,10.61-6.48,15.42c-0.35,0.54,0.51,1.04,0.86,0.5
				c3.27-5,6.01-9.88,6.62-15.92C769.37,217.74,768.36,217.75,768.3,218.38L768.3,218.38z"/>
		</g>
	</g>
	<g>
		<g>
			<path class="st11" d="M755.87,199.88c-1.07,8.99-8.1,15.22-13.71,21.69c-0.42,0.48,0.29,1.19,0.71,0.71
				c5.81-6.72,12.89-13.09,14-22.4C756.94,199.24,755.94,199.24,755.87,199.88L755.87,199.88z"/>
		</g>
	</g>
	<g>
		<g>
			<path class="st11" d="M750.53,218.66c-1.27,1.78-2.67,3.45-4.21,5c-0.45,0.46,0.25,1.17,0.71,0.71c1.6-1.62,3.05-3.35,4.36-5.21
				C751.77,218.64,750.9,218.14,750.53,218.66L750.53,218.66z"/>
		</g>
	</g>
	<g>
		<g>
			<path class="st11" d="M761.25,261.96c3.51-5.66,6.48-11.6,8.9-17.8c0.23-0.6-0.73-0.86-0.96-0.27
				c-2.39,6.12-5.33,11.98-8.8,17.56C760.05,262,760.91,262.51,761.25,261.96L761.25,261.96z"/>
		</g>
	</g>
	<g>
		<g>
			<path class="st11" d="M764.87,260.82c0.77-1.27,1.53-2.53,2.3-3.8c0.33-0.55-0.53-1.06-0.86-0.5c-0.77,1.27-1.53,2.53-2.3,3.8
				C763.67,260.87,764.54,261.37,764.87,260.82L764.87,260.82z"/>
		</g>
	</g>
	<g>
		<g>
			<path class="st11" d="M811.68,166.99c-3.38,5.67-7.7,10.59-12.87,14.69c-0.5,0.4,0.21,1.1,0.71,0.71
				c5.23-4.15,9.6-9.16,13.03-14.89C812.88,166.94,812.01,166.44,811.68,166.99L811.68,166.99z"/>
		</g>
	</g>
	<g>
		<g>
			<path class="st11" d="M810.8,174.13c-1.42,1.55-2.93,3-4.54,4.35c-0.49,0.42,0.22,1.12,0.71,0.71c1.61-1.35,3.12-2.8,4.54-4.35
				C811.94,174.36,811.24,173.65,810.8,174.13L810.8,174.13z"/>
		</g>
	</g>
	<g>
		<g>
			<path class="st14" d="M473.87,138.09c20.47,7.32,42.79,6.15,63.39,12.99c0.46,0.15,0.66-0.57,0.2-0.72
				c-20.6-6.84-42.91-5.66-63.39-12.99C473.62,137.2,473.42,137.93,473.87,138.09L473.87,138.09z"/>
		</g>
	</g>
	<g>
		<g>
			<path class="st14" d="M514.63,150.59c3.54,0.62,7.08,1.24,10.63,1.86c0.47,0.08,0.67-0.64,0.2-0.72
				c-3.54-0.62-7.08-1.24-10.63-1.86C514.36,149.79,514.16,150.51,514.63,150.59L514.63,150.59z"/>
		</g>
	</g>
	<g>
		<g>
			<path class="st14" d="M482.14,148.46c3.4,1.73,7.03,2.63,10.85,2.7c0.48,0.01,0.48-0.74,0-0.75c-3.7-0.06-7.17-0.92-10.47-2.59
				C482.09,147.59,481.71,148.24,482.14,148.46L482.14,148.46z"/>
		</g>
	</g>
	<g>
		<g>
			<path class="st14" d="M482.12,176.42c9.89,5.77,21.44,7.83,32.72,5.88c0.47-0.08,0.27-0.81-0.2-0.72
				c-11.07,1.92-22.44-0.14-32.14-5.8C482.08,175.53,481.71,176.18,482.12,176.42L482.12,176.42z"/>
		</g>
	</g>
	<g>
		<g>
			<path class="st14" d="M492.44,184.84c3.51,1.1,7.07,1.67,10.75,1.74c0.48,0.01,0.48-0.74,0-0.75c-3.61-0.06-7.11-0.64-10.55-1.71
				C492.18,183.97,491.98,184.7,492.44,184.84L492.44,184.84z"/>
		</g>
	</g>
	<g>
		<g>
			<path class="st15" d="M412.74,129.65c4.06,0.1,7.93,0.97,11.63,2.65c0.58,0.26,1.09-0.6,0.5-0.86c-3.86-1.75-7.9-2.69-12.14-2.79
				C412.1,128.64,412.1,129.64,412.74,129.65L412.74,129.65z"/>
		</g>
	</g>
	<g>
		<g>
			<path class="st15" d="M416.59,133.09c1.47,0.31,2.95,0.62,4.42,0.93c0.63,0.13,0.9-0.83,0.27-0.96
				c-1.47-0.31-2.95-0.62-4.42-0.93C416.23,131.99,415.96,132.95,416.59,133.09L416.59,133.09z"/>
		</g>
	</g>
	<g>
		<g>
			<path class="st15" d="M752.1,238.51c-2.72,1.32-4.71,3.66-5.61,6.54c-0.19,0.62,0.77,0.88,0.96,0.27
				c0.83-2.64,2.66-4.73,5.15-5.94C753.18,239.09,752.67,238.23,752.1,238.51L752.1,238.51z"/>
		</g>
	</g>
	<g>
		<g>
			<path class="st15" d="M752.03,242.19c-1.33,1.12-2.28,2.55-2.83,4.19c-0.21,0.61,0.76,0.87,0.96,0.27
				c0.5-1.48,1.38-2.74,2.58-3.75C753.23,242.49,752.52,241.78,752.03,242.19L752.03,242.19z"/>
		</g>
	</g>
	<g>
		<g>
			<path class="st11" d="M567.9,215.82c11.03,0.96,22.03-1.86,31.23-7.99c0.53-0.36,0.03-1.22-0.5-0.86
				c-9.08,6.05-19.86,8.81-30.73,7.86C567.26,214.77,567.26,215.77,567.9,215.82L567.9,215.82z"/>
		</g>
	</g>
	<g>
		<g>
			<path class="st11" d="M585.47,217.7c1.46-1.02,3.03-1.74,4.76-2.17c0.62-0.15,0.36-1.12-0.27-0.96c-1.8,0.44-3.48,1.2-5,2.27
				C584.44,217.2,584.94,218.07,585.47,217.7L585.47,217.7z"/>
		</g>
	</g>
	<g>
		<g>
			<path class="st11" d="M670.32,246.41c-3.31-2.42-8.16-0.63-11.65,0.51c-4.67,1.53-9.04,3.77-13.06,6.57
				c-0.52,0.37-0.02,1.23,0.5,0.86c3.48-2.43,7.22-4.45,11.21-5.91c3.5-1.28,9.16-3.61,12.5-1.17
				C670.34,247.65,670.84,246.78,670.32,246.41L670.32,246.41z"/>
		</g>
	</g>
	<g>
		<g>
			<path class="st11" d="M654.98,242.92c-1.92,1.03-3.85,2.06-5.77,3.09c-0.57,0.3-0.06,1.17,0.5,0.86
				c1.92-1.03,3.85-2.06,5.77-3.09C656.05,243.48,655.55,242.62,654.98,242.92L654.98,242.92z"/>
		</g>
	</g>
	<g>
		<g>
			<path class="st11" d="M691.87,249.99c-2.67,3.62-5.98,6.61-9.83,8.93c-0.55,0.33-0.05,1.2,0.5,0.86c4-2.41,7.41-5.53,10.18-9.29
				C693.12,249.98,692.25,249.48,691.87,249.99L691.87,249.99z"/>
		</g>
	</g>
	<g>
		<g>
			<path class="st11" d="M691.22,254.72c-0.44,0.92-1.14,1.6-2.07,2.01c-0.59,0.26-0.08,1.13,0.5,0.86
				c1.06-0.48,1.92-1.32,2.43-2.37C692.36,254.64,691.5,254.13,691.22,254.72L691.22,254.72z"/>
		</g>
	</g>
	<g>
		<g>
			<path class="st11" d="M616.02,231.23c-7.59,6.69-16.45,11.64-26.12,14.6c-0.61,0.19-0.35,1.15,0.27,0.96
				c9.83-3.02,18.84-8.06,26.56-14.86C617.21,231.52,616.5,230.81,616.02,231.23L616.02,231.23z"/>
		</g>
	</g>
	<g>
		<g>
			<path class="st11" d="M607.7,241.65c-3.52,0.78-6.71,2.3-9.56,4.5c-0.51,0.39,0.2,1.1,0.71,0.71c2.71-2.1,5.77-3.51,9.12-4.25
				C608.6,242.47,608.33,241.51,607.7,241.65L607.7,241.65z"/>
		</g>
	</g>
	<g>
		<g>
			<path class="st11" d="M634.29,229.03c-1.9,0.42-4.41,1.72-3.82,4.11c0.4,1.62,2.92,2.25,3.67,0.54c0.26-0.58-0.61-1.09-0.86-0.5
				c-0.21,0.48-0.73,0.63-1.21,0.45c-0.64-0.24-0.75-0.97-0.59-1.56c0.37-1.35,1.88-1.8,3.08-2.07
				C635.18,229.86,634.92,228.89,634.29,229.03L634.29,229.03z"/>
		</g>
	</g>
	<g>
		<g>
			<path class="st11" d="M637.31,236.98c-1.09,1.24,0.41,3.07,1.88,2.51c0.76-0.29,1.26-1.06,1.37-1.85
				c0.12-0.91-0.85-1.47-1.68-1.36c-0.63,0.08-0.64,1.08,0,1c0.18-0.02,0.39-0.04,0.55,0.07c0.18,0.13,0.17,0.13,0.1,0.36
				c-0.09,0.34-0.32,0.7-0.66,0.84c-0.45,0.19-1.25-0.4-0.84-0.87C638.44,237.21,637.73,236.5,637.31,236.98L637.31,236.98z"/>
		</g>
	</g>
	<g>
		<g>
			<path class="st11" d="M631.14,240.06c-1.12-0.9-2.62,0.45-2.29,1.72c0.44,1.69,2.79,1.22,3.61,0.16c0.39-0.5-0.31-1.22-0.71-0.71
				c-0.35,0.46-1.37,1.06-1.86,0.43c-0.22-0.28,0.21-1.17,0.53-0.9C630.93,241.16,631.65,240.46,631.14,240.06L631.14,240.06z"/>
		</g>
	</g>
	<g>
		<g>
			<path class="st4" d="M745.08,286.22c-5.72,6.2-12.29,11.45-19.61,15.66c-0.56,0.32-0.05,1.19,0.5,0.86
				c7.38-4.25,14.03-9.56,19.81-15.82C746.22,286.45,745.51,285.74,745.08,286.22L745.08,286.22z"/>
		</g>
	</g>
	<g>
		<g>
			<path class="st4" d="M740.09,286.57c-3.2,2.71-6.59,5.17-10.16,7.38c-0.55,0.34-0.04,1.2,0.5,0.86
				c3.64-2.25,7.09-4.76,10.36-7.53C741.29,286.86,740.58,286.16,740.09,286.57L740.09,286.57z"/>
		</g>
	</g>
	<g>
		<g>
			<path class="st4" d="M739.16,295.84c-3.49,3.34-7.31,6.27-11.43,8.79c-0.55,0.34-0.05,1.2,0.5,0.86
				c4.2-2.57,8.07-5.55,11.63-8.95C740.34,296.1,739.63,295.39,739.16,295.84L739.16,295.84z"/>
		</g>
	</g>
	<g>
		<g>
			<path class="st4" d="M649.06,290.96c12.54,0.16,24.88-2.61,36.16-8.1c0.58-0.28,0.07-1.14-0.5-0.86
				c-11.12,5.41-23.29,8.12-35.65,7.97C648.42,289.95,648.42,290.95,649.06,290.96L649.06,290.96z"/>
		</g>
	</g>
	<g>
		<g>
			<path class="st4" d="M670.93,291.38c3.26-1.16,6.52-2.32,9.78-3.48c0.6-0.21,0.34-1.18-0.27-0.96c-3.26,1.16-6.52,2.32-9.78,3.48
				C670.07,290.63,670.32,291.59,670.93,291.38L670.93,291.38z"/>
		</g>
	</g>
	<g>
		<g>
			<path class="st4" d="M675.37,297.17c2.87-1.01,5.56-2.38,8.07-4.11c0.53-0.36,0.03-1.23-0.5-0.86c-2.44,1.69-5.03,3.03-7.83,4.01
				C674.51,296.41,674.77,297.38,675.37,297.17L675.37,297.17z"/>
		</g>
	</g>
	<g>
		<g>
			<path class="st4" d="M624.61,313.47c0.09,10.92,2.61,23.52,13.51,28.64c0.58,0.27,1.09-0.59,0.5-0.86
				c-10.58-4.97-12.93-17.19-13.02-27.78C625.61,312.83,624.61,312.83,624.61,313.47L624.61,313.47z"/>
		</g>
	</g>
	<g>
		<g>
			<path class="st4" d="M634.81,330.47c0.64,2.65,1.58,5.18,2.82,7.61c0.29,0.57,1.16,0.07,0.86-0.5c-1.2-2.35-2.1-4.8-2.72-7.37
				C635.62,329.58,634.66,329.85,634.81,330.47L634.81,330.47z"/>
		</g>
	</g>
	<g>
		<g>
			<path class="st4" d="M640.73,328.66c0.65,2.89,0.88,5.8,0.72,8.76c-0.04,0.64,0.96,0.64,1,0c0.17-3.05-0.09-6.05-0.76-9.03
				C641.56,327.77,640.59,328.03,640.73,328.66L640.73,328.66z"/>
		</g>
	</g>
	<g>
		<g>
			<path class="st4" d="M653.55,336.98c-0.15,4.85-1.52,9.34-4.09,13.45c-0.34,0.55,0.52,1.05,0.86,0.5
				c2.65-4.24,4.07-8.96,4.22-13.96C654.57,336.34,653.57,336.34,653.55,336.98L653.55,336.98z"/>
		</g>
	</g>
	<g>
		<g>
			<path class="st4" d="M647.67,344.08c0.02,1.5-0.25,2.93-0.81,4.32c-0.24,0.6,0.73,0.86,0.96,0.27c0.59-1.47,0.87-3,0.84-4.59
				C648.66,343.43,647.66,343.43,647.67,344.08L647.67,344.08z"/>
		</g>
	</g>
	<g>
		<g>
			<path class="st4" d="M725.45,248.86c-5.41,6.25-11.21,12.14-17.37,17.66c-0.48,0.43,0.23,1.14,0.71,0.71
				c6.16-5.52,11.96-11.41,17.37-17.66C726.57,249.08,725.87,248.37,725.45,248.86L725.45,248.86z"/>
		</g>
	</g>
	<g>
		<g>
			<path class="st4" d="M724.09,255.05c-2.36,2.36-4.73,4.73-7.09,7.09c-0.46,0.46,0.25,1.16,0.71,0.71
				c2.36-2.36,4.73-4.73,7.09-7.09C725.25,255.3,724.54,254.59,724.09,255.05L724.09,255.05z"/>
		</g>
	</g>
	<g>
		<g>
			<path class="st4" d="M769.71,173.55c-2.65,7.64-1.58,16.07,2.9,22.81c0.35,0.53,1.22,0.03,0.86-0.5
				c-4.34-6.54-5.37-14.62-2.8-22.04C770.88,173.21,769.92,172.94,769.71,173.55L769.71,173.55z"/>
		</g>
	</g>
	<g>
		<g>
			<path class="st4" d="M770.94,178.69c-0.01,3.33,0.29,6.62,0.9,9.89c0.12,0.63,1.08,0.36,0.96-0.27c-0.6-3.19-0.88-6.38-0.87-9.62
				C771.94,178.05,770.94,178.05,770.94,178.69L770.94,178.69z"/>
		</g>
	</g>
	<g>
		<g>
			<path class="st4" d="M649.96,176.87c12.11,10.21,28.36,11.25,43.45,9.42c0.63-0.08,0.64-1.08,0-1c-14.8,1.8-30.85,0.9-42.75-9.13
				C650.18,175.75,649.47,176.46,649.96,176.87L649.96,176.87z"/>
		</g>
	</g>
	<g>
		<g>
			<path class="st4" d="M663.12,188.5c3.76,1.52,7.63,2.11,11.67,1.77c0.64-0.05,0.64-1.05,0-1c-3.94,0.33-7.73-0.25-11.4-1.74
				C662.79,187.29,662.53,188.26,663.12,188.5L663.12,188.5z"/>
		</g>
	</g>
	<g>
		<g>
			<path class="st4" d="M663.7,195.61c2.78-0.15,5.54-0.02,8.29,0.4c0.63,0.1,0.9-0.87,0.27-0.96c-2.84-0.43-5.69-0.58-8.56-0.43
				C663.06,194.64,663.05,195.64,663.7,195.61L663.7,195.61z"/>
		</g>
	</g>
	<g>
		<g>
			<path class="st4" d="M723.6,205.5c-2.76,6.28-6.19,12.19-10.26,17.7c-0.38,0.52,0.48,1.02,0.86,0.5
				c4.07-5.52,7.5-11.43,10.26-17.7C724.73,205.43,723.86,204.92,723.6,205.5L723.6,205.5z"/>
		</g>
	</g>
	<g>
		<g>
			<path class="st4" d="M722.74,213.51c-1.5,2.35-2.99,4.71-4.49,7.06c-0.35,0.54,0.52,1.05,0.86,0.5c1.5-2.35,2.99-4.71,4.49-7.06
				C723.95,213.47,723.09,212.97,722.74,213.51L722.74,213.51z"/>
		</g>
	</g>
	<g>
		<g>
			<path class="st4" d="M592.71,169.38c-0.22,8.47,2.97,16.58,8.88,22.64c0.45,0.46,1.16-0.25,0.71-0.71
				c-5.74-5.88-8.81-13.72-8.59-21.93C593.73,168.74,592.73,168.74,592.71,169.38L592.71,169.38z"/>
		</g>
	</g>
	<g>
		<g>
			<path class="st4" d="M599.43,173.94c1.25,6.72,3.76,13.05,7.44,18.81c0.35,0.54,1.21,0.04,0.86-0.5
				c-3.64-5.69-6.1-11.93-7.34-18.57C600.27,173.04,599.31,173.31,599.43,173.94L599.43,173.94z"/>
		</g>
	</g>
	<g>
		<g>
			<path class="st4" d="M630.66,208.69c-3-0.82-6.93,1.64-9.6,2.82c-4.05,1.79-7.96,3.86-11.74,6.17c-0.55,0.33-0.05,1.2,0.5,0.86
				c3-1.83,6.07-3.52,9.24-5.02c1.75-0.83,3.53-1.61,5.33-2.34c1.69-0.68,4.13-2.04,5.99-1.53
				C631.01,209.82,631.28,208.86,630.66,208.69L630.66,208.69z"/>
		</g>
	</g>
</g>
<g>
	<path class="st1" d="M330.36,372.04l1.37,0.84l1.22,0.78l2.37,1.56c1.55,1.05,3.08,2.1,4.58,3.18c3.01,2.14,5.95,4.34,8.84,6.6
		c5.78,4.5,11.35,9.22,16.74,14.13c10.76,9.84,20.77,20.47,29.86,31.85c9.1,11.37,17.23,23.54,24.12,36.37
		c3.46,6.41,6.57,13.01,9.37,19.72c1.38,3.37,2.7,6.76,3.91,10.19c0.62,1.7,1.18,3.46,1.75,5.15l1.63,4.82
		c4.52,12.78,10.21,25.18,17.8,36.4c7.52,11.23,16.85,21.28,27.78,29.43c10.9,8.18,23.42,14.33,36.67,18.39
		c13.25,4.12,27.19,6.24,41.22,6.85c-14.03,0.59-28.23-0.29-42.15-3.34c-13.89-3.06-27.46-8.36-39.71-16.09
		c-12.28-7.68-23.11-17.74-32.12-29.18c-9.05-11.44-16.22-24.25-22.02-37.55l-4.07-9.72c-1.33-3.11-2.77-6.18-4.25-9.22
		c-3.01-6.06-6.3-11.97-9.9-17.7c-7.17-11.46-15.45-22.21-24.52-32.24c-9.07-10.03-18.98-19.3-29.47-27.8
		c-5.24-4.25-10.63-8.32-16.16-12.14c-2.76-1.91-5.55-3.76-8.37-5.53c-1.41-0.89-2.82-1.75-4.23-2.59l-2.1-1.22l-1.03-0.58
		l-0.9-0.48L330.36,372.04z"/>
</g>
<g>
	<path class="st1" d="M547.62,518.72c-9.61-3.79-19.42-7.02-29.3-9.88c-9.88-2.85-19.87-5.27-29.91-7.07
		c-10.04-1.78-20.15-2.98-30.12-3.06c-4.98-0.07-9.93,0.19-14.72,0.84c-4.8,0.65-9.46,1.67-13.79,3.23l-3.74-12.45
		c5.59-1.36,11.16-1.96,16.65-2.12c5.49-0.16,10.9,0.14,16.21,0.77c10.64,1.21,20.93,3.57,30.99,6.47
		c10.06,2.92,19.87,6.42,29.49,10.32C528.99,509.69,538.45,513.95,547.62,518.72z"/>
</g>
<path class="st16" d="M621.99,580.22c-17.72,44.43-54.89,25.12-61.29,21.38c25.76-2.98,47.91-17.08,47.91-17.08
	c-18.06,8.18-38.58,13.01-48.48,15.05C568.54,567.37,595.37,571.45,621.99,580.22z"/>
<path class="st17" d="M576.39,518.66c-53.79,12.89-38.56,59.27-35.46,67.31c8.03-29.31,28.15-52.57,28.15-52.57
	c-12.59,19.53-21.85,42.47-25.98,53.6C581.28,582.81,581.5,551,576.39,518.66z"/>
<path class="st17" d="M481.52,453.25c-40.31-9.44-45.69,26.69-46.32,33.11c15.21-16.91,36.48-25.71,36.48-25.71
	c-14.98,8.83-28.87,21.07-35.37,27.12C463.26,497.8,474.09,476.6,481.52,453.25z"/>
<path class="st18" d="M568.23,685.68c-59.74-28.53-32.61-74.11-27.41-81.89c3.36,33.64,21.93,64.09,21.93,64.09
	c-10.6-24.39-16.65-51.51-19.15-64.59C587,618.21,580.76,652.38,568.23,685.68z"/>
<path class="st18" d="M321.95,594.46c6.69-72.69,65.57-65.72,75.85-63.93c-34.27,18.32-59.18,50.52-59.18,50.52
	c21.62-21.5,47.97-39.64,60.79-47.98C400.68,583.33,362.09,592.26,321.95,594.46z"/>
<path class="st16" d="M325.18,505.03c40.63-39.82,69.56-3.88,74.31,2.72c-28.2-7.53-58.3-1.73-58.3-1.73
	c22.84-1.19,46.6,2.17,57.89,4.12C374.25,540.83,348.41,525.36,325.18,505.03z"/>
<path class="st16" d="M417.93,609.62c38.63-40.16,5.4-71.38-0.72-76.53c6.43,29.3,0.19,60.02,0.19,60.02
	c1.69-23.46-0.91-48.01-2.47-59.72C385.31,557.69,399.27,584.88,417.93,609.62z"/>
<g>
	<path class="st17" d="M946.64,403.15c-64.55,53.75-107.02,0.19-113.96-9.6c42.91,12.93,89.42,6.95,89.42,6.95
		c-35.14-0.07-71.42-6.69-88.68-10.35C873.19,348.21,912.02,372.3,946.64,403.15z"/>
</g>
<path class="st17" d="M826.32,427.49c15.52-27.38-9.06-36.68-13.49-38.11c8.71,13.42,10.36,29.97,10.36,29.97
	c-3.05-12.03-8.73-23.82-11.64-29.38C798.55,407.73,811.3,418.67,826.32,427.49z"/>
<path class="st18" d="M847.74,357.69c-1.21,27.08-25,25.28-29.18,24.74c13.4-7.26,22.77-19.56,22.77-19.56
	c-8.26,8.28-18.46,15.36-23.46,18.63C816.36,362.88,831.69,359.03,847.74,357.69z"/>
<path class="st18" d="M502.78,463.22c-1.21,27.08-25,25.28-29.18,24.74c13.4-7.26,22.77-19.56,22.77-19.56
	c-8.26,8.28-18.46,15.36-23.46,18.63C471.4,468.4,486.73,464.55,502.78,463.22z"/>
<path class="st17" d="M420.1,357.02c-14.83,43.86-49.08,28.28-54.98,25.21c23.27-4.83,42.99-20.05,42.99-20.05
	c-16.16,9.21-34.65,15.44-43.59,18.15C371.21,348.9,395.7,350.73,420.1,357.02z"/>
<path class="st18" d="M374.89,311.95c-46.86,13.76-32.05,53.35-29.09,60.17c6.16-25.84,23.14-47.01,23.14-47.01
	c-10.46,17.56-17.91,37.94-21.17,47.81C381.21,367.46,380.42,339.82,374.89,311.95z"/>
<path class="st16" d="M442.98,298.43c-57.45-10.64-62.41,40.35-62.84,49.38c20.23-24.67,49.52-38.37,49.52-38.37
	c-20.46,13.34-39.12,31.4-47.85,40.29C420.5,362.04,434.22,331.63,442.98,298.43z"/>
<path class="st17" d="M59.18,342.62c41.97,19.55,22.74,51.89,19.04,57.41c-2.25-23.66-15.22-44.93-15.22-44.93
	c7.38,17.07,11.55,36.13,13.27,45.32C45.76,390.33,50.25,366.19,59.18,342.62z"/>
<path class="st18" d="M9.42,382.63c8.55,48.08,49.52,37.69,56.63,35.51c-25.01-8.96-44.19-28.15-44.19-28.15
	c16.31,12.32,35.75,21.95,45.21,26.28C65.3,382.43,37.74,380.18,9.42,382.63z"/>
<path class="st16" d="M3.44,313.47c-16.87,55.94,33.27,66.45,42.2,67.87c-22.31-22.81-32.72-53.43-32.72-53.43
	c11.02,21.8,26.93,42.33,34.8,51.97C64.21,342.77,35.49,325.81,3.44,313.47z"/>
<path class="st1" d="M138.37,318.37c2.42-1.35,5.95-2.35,7.56-0.09c1.84,2.59-1.13,5.79-3.59,7.79
	c-9.55,7.79-15.71,19.6-16.64,31.89c-0.25,3.36-0.18,6.93-1.88,9.84c-0.88,1.51-2.18,2.72-3.47,3.91c-2.27,2.11-4.54,4.21-6.81,6.32
	c-2.12,1.97-4.51,4.05-7.41,4.16c-12.7,0.46,1.2-30.25,3.76-34.88C116.52,335.32,126.39,325.07,138.37,318.37z"/>
<g>
	<g>
		<path class="st1" d="M261.99,355c1.93,0,1.93-3,0-3C260.06,352,260.05,355,261.99,355L261.99,355z"/>
	</g>
</g>
<g>
	<g>
		<path class="st4" d="M267.7,207.4c21.34-16.79,50.18-18.35,76-13.91c26.81,4.61,54.2,17.36,81.49,8.37
			c2.13-0.7,1.22-4.08-0.93-3.37c-29.16,9.61-59-6.08-87.9-9.58c-24.79-3-51.01,0.18-71.14,16.02
			C263.45,206.32,265.94,208.78,267.7,207.4L267.7,207.4z"/>
	</g>
</g>
<g>
	<g>
		<path class="st4" d="M382.25,227.29c18.41,7.09,37.95,1,55.73-5.11c2.12-0.73,1.21-4.11-0.93-3.37
			c-17.22,5.92-36.01,11.98-53.86,5.11C381.08,223.1,380.17,226.49,382.25,227.29L382.25,227.29z"/>
	</g>
</g>
<g>
	<g>
		<path class="st4" d="M520.32,384.31c16.37-12.71,37.11-17.03,57.41-18c18.01-0.86,38.77,3.83,55.24-5.38
			c1.97-1.1,0.2-4.12-1.77-3.02c-9.67,5.41-20.75,5.22-31.51,4.89c-10.04-0.31-20.09-0.36-30.11,0.58
			c-18.62,1.75-36.79,6.84-51.74,18.45C516.07,383.22,518.56,385.68,520.32,384.31L520.32,384.31z"/>
	</g>
</g>
<g>
	<g>
		<path class="st4" d="M582.22,383.31c10.38,0.02,20.32-2.17,29.76-6.47c2.05-0.93,0.27-3.95-1.77-3.02
			c-8.88,4.04-18.24,6.01-27.99,5.99C579.97,379.8,579.97,383.3,582.22,383.31L582.22,383.31z"/>
	</g>
</g>
<g>
	<g>
		<path class="st19" d="M135.79,363.66c28.26-18.01,62.81-20.52,95.34-16.88c10.25,1.15,20.42,2.88,30.54,4.84
			c1.26,0.24,1.8-1.68,0.53-1.93c-33.83-6.56-69.6-10.47-102.94,0.66c-8.6,2.87-16.84,6.71-24.48,11.59
			C133.7,362.62,134.7,364.35,135.79,363.66L135.79,363.66z"/>
	</g>
</g>
<g>
	<g>
		<path class="st19" d="M207.45,352.84c5.53-0.67,11.07-0.89,16.63-0.67c1.29,0.05,1.28-1.95,0-2c-5.56-0.22-11.1,0-16.63,0.67
			C206.19,350.99,206.17,352.99,207.45,352.84L207.45,352.84z"/>
	</g>
</g>
<g>
	<g>
		<path class="st19" d="M79.61,424.53c-7.95,20.28-8.74,42.95-2.26,63.74c0.38,1.22,2.31,0.7,1.93-0.53
			c-6.39-20.49-5.58-42.7,2.26-62.67C82.01,423.86,80.08,423.34,79.61,424.53L79.61,424.53z"/>
	</g>
</g>
<g>
	<g>
		<path class="st19" d="M78.11,458.91c0.47,5.1,0.93,10.19,1.4,15.29c0.12,1.27,2.12,1.28,2,0c-0.47-5.1-0.93-10.19-1.4-15.29
			C79.99,457.64,77.99,457.63,78.11,458.91L78.11,458.91z"/>
	</g>
</g>
<g>
	<g>
		<path class="st19" d="M380.65,405.17c26.88,18.17,60.3,19.11,91.61,19.67c1.29,0.02,1.29-1.98,0-2c-30.97-0.55-64-1.43-90.6-19.4
			C380.59,402.73,379.59,404.46,380.65,405.17L380.65,405.17z"/>
	</g>
</g>
<g>
	<g>
		<path class="st19" d="M441.56,431.25c5.76-0.23,11.53-0.45,17.29-0.68c1.28-0.05,1.29-2.05,0-2c-5.76,0.23-11.53,0.45-17.29,0.68
			C440.27,429.3,440.27,431.3,441.56,431.25L441.56,431.25z"/>
	</g>
</g>
<g>
	<g>
		<path class="st19" d="M600.51,418.01c0.44,0,0.89,0,1.33,0c1.29,0,1.29-2,0-2c-0.44,0-0.89,0-1.33,0
			C599.23,416.01,599.23,418.01,600.51,418.01L600.51,418.01z"/>
	</g>
</g>
<g>
	<g>
		<path class="st19" d="M611.56,415.81c-0.22,0.44-0.45,0.89-0.67,1.33c-0.58,1.15,1.15,2.16,1.73,1.01
			c0.22-0.44,0.45-0.89,0.67-1.33C613.86,415.68,612.14,414.66,611.56,415.81L611.56,415.81z"/>
	</g>
</g>
<g>
	<g>
		<path class="st19" d="M607.17,421.34c1.29,0,1.29-2,0-2C605.88,419.34,605.88,421.34,607.17,421.34L607.17,421.34z"/>
	</g>
</g>
<g>
	<g>
		<path class="st19" d="M391.05,440.27c4.41,5.01,8.09,10.53,11.05,16.5c0.57,1.15,2.3,0.14,1.73-1.01
			c-3.03-6.13-6.84-11.78-11.36-16.91C391.61,437.89,390.2,439.3,391.05,440.27L391.05,440.27z"/>
	</g>
</g>
<g>
	<g>
		<path class="st19" d="M385.54,442.09c2.88,3.77,5.75,7.55,8.63,11.32c0.77,1.01,2.51,0.01,1.73-1.01
			c-2.88-3.77-5.75-7.55-8.63-11.32C386.49,440.07,384.76,441.07,385.54,442.09L385.54,442.09z"/>
	</g>
</g>
<g>
	<g>
		<path class="st4" d="M513.94,91.56c8.6-1.72,17.26-3.42,26.07-3.23c7.99,0.17,15.98,1.36,23.91,2.21c2.24,0.24,2.22-3.26,0-3.5
			c-8.51-0.91-17.12-2.26-25.7-2.23c-8.51,0.04-16.91,1.71-25.22,3.37C510.8,88.63,511.73,92,513.94,91.56L513.94,91.56z"/>
	</g>
</g>
<g>
	<g>
		<path class="st4" d="M546.66,73.14c7.31,0.51,14.62,1.02,21.93,1.53c2.25,0.16,2.24-3.34,0-3.5c-7.31-0.51-14.62-1.02-21.93-1.53
			C544.41,69.48,544.42,72.99,546.66,73.14L546.66,73.14z"/>
	</g>
</g>
</svg>
