<?xml version="1.0" encoding="utf-8"?>
<!-- Generator: Adobe Illustrator 23.0.2, SVG Export Plug-In . SVG Version: 6.00 Build 0)  -->
<svg version="1.1" id="Layer_1" xmlns="http://www.w3.org/2000/svg" xmlns:xlink="http://www.w3.org/1999/xlink" x="0px" y="0px"
	 viewBox="0 0 829.34 694.05" style="enable-background:new 0 0 829.34 694.05;" xml:space="preserve">
<style type="text/css">
	.st0{opacity:0.1;fill:#007CC7;}
	.st1{fill:#FFFFFF;}
	.st2{fill:#AFC7D7;}
	.st3{fill:#007CC7;}
	.st4{fill:#F6F6FB;}
	.st5{fill:#422645;}
	.st6{fill:#472516;}
	.st7{fill:#917E2C;}
	.st8{fill:#E0D6D3;}
	.st9{fill:#FFAE80;}
	.st10{fill:#BCAFB1;}
	.st11{fill:#E8D8CF;}
	.st12{fill:#E68767;}
	.st13{fill:#2D294C;}
	.st14{fill:#FBB03B;}
	.st15{fill:#EFD000;}
	.st16{fill:#AA7322;}
	.st17{fill:#FDA589;}
	.st18{opacity:0.16;fill:#B94A00;}
	.st19{fill:#F56C72;}
	.st20{fill:#E0585E;}
	.st21{fill:#F28561;}
	.st22{fill:#9A4545;}
	.st23{fill:#773232;}
	.st24{fill:#796E65;}
	.st25{fill:#C7725A;}
	.st26{fill:#FFF4D6;}
	.st27{fill:#592A4B;}
	.st28{fill:#BDA746;}
	.st29{fill:#A39F9F;}
	.st30{fill:#002042;}
	.st31{fill:#F5BD83;}
	.st32{opacity:0.7;fill:#D19D6F;}
	.st33{fill:#EFEAEA;}
	.st34{fill:#FFCBB3;}
	.st35{fill:#FFF1E4;}
	.st36{fill:#331318;}
	.st37{fill:#F7F0ED;}
	.st38{fill:#C64A27;}
	.st39{fill:#3E1D1D;}
	.st40{fill:#FFE6D6;}
	.st41{fill:#E2C6A9;}
	.st42{fill:#D19D6F;}
	.st43{fill:#56222C;}
	.st44{fill:#1B354C;}
	.st45{fill:#D93C64;}
	.st46{fill:#FFF88E;}
	.st47{fill:#0076C2;}
	.st48{fill:#FFEBD4;}
	.st49{fill:#481F58;}
	.st50{fill:#181B2D;}
	.st51{fill:#D6B6B0;}
	.st52{fill:#F5B98F;}
	.st53{fill:#FE7064;}
	.st54{fill:#32373C;}
	.st55{fill:#33383D;}
	.st56{opacity:0.59;fill:#8B4C3F;}
	.st57{fill:#8B4C3F;}
	.st58{fill:#00B1AA;}
	.st59{fill:#FFCC4D;}
	.st60{fill:#753C2E;}
	.st61{fill:#6E439D;}
	.st62{fill:#F7E6DF;}
	.st63{fill:#473227;}
	.st64{fill:#963626;}
	.st65{fill:#DB5D48;}
	.st66{fill:#CF633E;}
	.st67{fill:#EBC9BC;}
	.st68{clip-path:url(#XMLID_3_);}
	.st69{fill:#CCCCCC;}
	.st70{fill:#E89376;}
	.st71{fill:#8C6239;}
	.st72{fill:#566C99;}
	.st73{fill:none;}
	.st74{opacity:0.38;fill:#472516;}
	.st75{fill:#542D2C;}
	.st76{fill:#A50E0E;}
	.st77{fill:#63998E;}
	.st78{fill:#4A8075;}
	.st79{fill:#108C85;}
</style>
<path class="st0" d="M514.83,666.4c108.06-16.47,254.51-64.76,300.8-175.92c31.45-75.51,6.03-156.08-48.33-220.29
	c-50.28-59.38-122.62-102.08-198.9-116.2c-28.71-5.31-55.75-11.93-85.02-10.2c-30.79,1.82-110,13.77-159.42,53
	c-18.44,14.64-35.87,26.77-52.76,43.31c-38.77,37.97-78.78,80.94-129.94,101.89c-24.7,10.12-47.23,16.04-70.19,29.99
	c-22.64,13.76-43.29,37.76-48.31,67.18c-12.5,73.27,7.52,103.42,55.36,151.8c18.89,19.1,48.99,32.76,73.54,43.55
	c52.1,22.89,109.55,32.1,166.07,34.83c55.13,2.66,110.55-0.92,165.15-8.71C486.05,660.19,511.66,666.88,514.83,666.4z"/>
<g>
	<g>
		<path class="st1" d="M30.98,361.96c103.83,0,207.66,0,311.49,0c100.89,0,201.78,0,302.67,0c59.1,0,118.19,0,177.29,0
			c1.93,0,1.93-3,0-3c-103.83,0-207.66,0-311.49,0c-100.89,0-201.78,0-302.67,0c-59.1,0-118.19,0-177.29,0
			C29.05,358.96,29.05,361.96,30.98,361.96L30.98,361.96z"/>
	</g>
</g>
<g>
	<g>
		<path class="st1" d="M5.23,558.68c42.01-24.13,86.46-43.78,132.91-57.65c47.2-14.1,96.24-21.64,145.38-24.21
			c46.95-2.45,95.68-1.88,141.81,8.03c42.1,9.04,79.9,28.42,114.66,53.47c38.04,27.41,72.66,62.18,91.2,105.9
			c1.75,4.13,7.78,0.57,6.04-3.53c-16.78-39.59-46.8-72.1-80.32-98.35c-33.63-26.33-71.07-48.4-112.41-59.97
			c-45.37-12.7-93.87-14.43-140.71-13.32c-49.94,1.18-100,7.36-148.39,19.9C101.53,502.9,49.9,524.94,1.7,552.63
			C-2.2,554.88,1.32,560.93,5.23,558.68L5.23,558.68z"/>
	</g>
</g>
<path class="st2" d="M133.01,626.27c-4.19,1.09-7.79,2.54-15.38,3.83c3.36-1.24-4.06,0.42-4.11,0.17
	c-3.77,1.22-7.51,2.58-11.17,4.05c-5.64,1.64-12.16,4.03-16.61,6.9c1.49-0.93,3.6-2.03,6.35-3.13c-3.42,2-6.81,3.67-10.26,5.85
	c-3.37,2.16-7,5.02-8.72,9.22c0.36-1.32,1.13-2.54,1.84-3.8c-2.49,2.87-3.46,5.87-3.76,8.6c-0.19,2.78,0.51,5.3,1.62,7.56l-0.9,0.01
	c0.69,0.23,2.09,2.82,4.03,5.22c1.88,2.44,4.06,4.78,4.94,5.58c-5.05-5.41-6.38-8.49-7.24-11.42c-0.38-1.5-0.67-3.03-0.69-5.11
	c-0.02-1.04,0.09-2.23,0.44-3.58c0.24-1.36,0.85-2.92,1.78-4.67c-1.95,5.4-1.68,9.61,1.58,14.48c0.81,1.93,1.12,2.67,0.94,2.89
	c1.41,1.43,2.36,1.69,4.69,4.19l0.2,0.93c2.8,3.7,4.63,5.11,6.57,6.51c0.98,0.69,1.95,1.37,3.18,2.24c1.25,0.87,2.69,1.99,5.01,3.38
	c0.65,0.79-1.92-0.08-4.75-2c-2.87-1.9-5.71-4.75-7.79-6.7c0.95,1.77-0.64,0.13-2.21-1.46c-1.56-1.59-3.08-3.19-2.13-0.97l2.37,1.87
	c1.83,2.13,1.1,2.1-0.07,0.78c2.65,2.74,1.88,2.16,3.34,3.03c2.61,2.77,4.23,4.09,4.84,4.71c0.62,0.62,0.3,0.56-0.1,0.49
	c-0.37-0.07-0.8-0.13-0.22,0.5c0.29,0.32,0.83,0.81,1.87,1.55c1.04,0.72,2.6,1.72,5.19,2.78c-1.27-0.37-3.25-1.24-4.66-1.97
	c-1.41-0.73-2.38-1.28-2.18-0.84c-2.86-2-4.96-4.12-6.75-6.14l-0.86,0.19c3.46,3.83,7.95,7.05,12.95,8.78c5,1.76,9.34,2,12.75,1.97
	c-3.32-0.28-5.12-0.68-5.96-0.92c-0.84-0.23-0.76-0.34-0.48-0.39c0.59-0.16,1.89-0.12-1.26-1.17c2.58,0.49,4.79,1.04,6.14,1.42
	c0.5-0.01,2.35,0.19,3.96,0.23c1.61,0.06,2.96,0.01,2.58-0.16c0.67,0.38,2.88,0.74,5.64,0.96c2.77,0.23,6.01,0.27,9.03,0.36
	c6.02,0.1,10.98,0.11,8.16,1c3.65-0.05,11.11-0.65,19.39-1.7c8.3-1.02,17.47-2.38,24.99-3.35l-4,0.89
	c16.07-0.77,13.62-2.66,22.68-4.04c-7.9,1.34,7.25-0.21,10.52-0.07c7.03-1.04,12.74-2.28,22.79-2.48c2.1,0.53,2.36,1.35,8.71,1.45
	c1.44-0.16,2.89-0.33,4.34-0.45c6.36,0.12,14.97,0.18,19.01,0.78l-0.88-0.01c7.14,0.76,7.6-0.04,2.01-0.54l6.93,0.14l0.19,0.2
	c9.17,0.33,17.86,0.26,32.45,1.5c-4.02,0.19,10.77,2.09-2.41,1.01c3.85,0.08-1.96-0.74-2.65-1.06c-4.71-0.58-9.14-0.37-11.23-0.5
	c1.47,0.46-0.09,1.08-2.69,1.28c4.78-0.04,13.69,0.79,21.79,1.48c8.11,0.67,15.39,1.13,16.67,0.46c5.87,0.52,12.7,0.95,19.79,1.27
	c7.09,0.19,14.4,0.43,21.21,0.68c-0.56-0.06-1.66-0.19-1.33-0.3l11.74,0.6l-2.71,0.14l7.77,0.44c0.81,0.24-2.22,0.49-5.44,0.56
	c-1.84,0.09-3.51-0.1-1.71-0.19c-8.4,0.53,6.97,0.2,1.51,0.76c-2.06-0.08-4.74,0.06-6.21,0.04c9.59,0.35,14.03-0.59,19.93-0.01
	c2.27-0.32,5.71-0.7,9.67-0.97c3.96-0.26,8.39-0.63,12.73-0.64c-3.31,0.54,9.34-0.62,5.1,0.3c3.3-0.48,11.02-0.7,12.26-1.21
	c-1.18,0.24-4.93,0.53-7.54,0.58c3.52-0.45,3.89-0.87,8.21-1.14c0.57,0.02,0.27,0.15,0.27,0.15c5.55-0.82,1.7-1.49,11.48-2.36
	c25.63-2.71-3.36,1.81,0.32,1.76c0.9-0.42,12.2-1.72,17.34-1.93l-1.19,0.28c2.59-0.4,6.37-1.08,9.2-1.03
	c1.48-0.7,4.4-1.54,6.14-2.09l11.42-1.34l-2.3,0.56c2.58-0.41,4.87-0.68,7.17-0.95c1.09,0.3-2.31,0.56-5.76,1.11
	c1.95,0.16,4.24-0.1,6.85-0.81l-1.43,0.13c2.89-0.55,13.47-2.36,4.94-1.56c6.29-1.11,8.48-0.51,12.79-1.2
	c0.53,0.29-3.46,0.84-1.21,0.86c4.25-0.4,7.08-0.66,10.51-1.2c-3.4,0.25,0.89-0.43-4.48-0.06c2-0.41,7.39-1.07,7.14-1.22
	c-1.71,0.27-2.88,0.55-5.96,0.65c5.69-0.8,11.66-1.46,17.59-1.81c-0.19,0.1-0.76,0.24-1.41,0.39c7.5-1.35,18.99-2.4,23.99-3.49
	l-2.29,0.06c-1.81,0.34-5.55,0.72-7.08,0.7c5.71-0.76-4.2-0.23,1.82-1.13c8.31-1.08,15.88-0.94,20.32-2.11
	c-7.97,0.62-18.8,1.08-21.96,1.79c1.71-0.16,3.42-0.33,5.14-0.46c-3.85,0.66-7.69,1.39-11.53,2.07c-0.52-0.3-10.28,1.24-10.2,0.68
	c4-0.53,7.69-0.87,10.83-1.25c-0.8-0.17-10.81,0.93-15.06,1.34l5.38-0.37c-9.43,1.48-21.63,2.65-30.79,4.04
	c7.16-1.25-9.33,0.65-3.61-0.47c2.3-0.56,6.24-0.53,5.11-0.54c0.61-0.58-5.67,0.53-7.63,0.37c-0.9,0.43-10.32,1.65-4.66,1.41
	c-3.11,0.11-9.7,1.37-13.96,1.46c1.37,0.46-7.72,1.19-9.21,1.61c-1.83,0.16-3.44,0.21-4.71,0.21c3.83-0.61,8.52-1.35,13.39-2.11
	c2-0.11,5.68-0.52,4.56-0.53l0.03-0.23c7.34-1.23,14.68-2.45,19.96-3.33c0.84-0.09,1.68-0.19,2.52-0.28l-0.49,0.12
	c0.27-0.06,0.54-0.1,0.81-0.15c43-4.81,86.02-9.48,129.16-8.97c-2.83,0.08-7.44-0.04-9.34,0.26l0.3-0.11l-4.39,0.24
	c3.7-0.03,11.03-0.09,14.21-0.38c3.03,0.04,6.06,0.1,9.09,0.2l-7.59-0.44c0.01-0.01,0.04-0.01,0.05-0.02
	c-0.01,0.01-0.04,0.01-0.05,0.02l-8.96-0.52c5.91-0.41,11.47-0.81,18.54-0.62c-2.28,0.22-0.04,0.31,0.53,0.42
	c19.44-1.56,38.31-1.63,57.9-1.3c8.23,0.14,16.51,0.27,24.65-0.9c15.73-2.27,30.87-9.4,46.72-8.17c5.93,0.46,12.96,1.75,17-2.37
	c4.56-4.65,0.88-12.73-5.09-15.62c-5.96-2.89-13.06-2.36-19.77-2.54c-8.76-0.24-17.49-1.82-26.22-1.14
	c-11.17,0.86-21.22,3.88-32.52,3.23c-8-0.46-16.45-1.97-24.48-1.74c4.55-0.13-2.86-0.75-6.43-1.28c-11.1-0.46-34.62-1.73-51.42-2.13
	c2.29-0.51-2.37-0.75-7.76-0.97c-5.39-0.2-11.5-0.41-12.12-0.96c-3.73-0.17-9.56-0.17-10.02,0.2c2.09-0.12,7.11,0.38,6.42,0.57
	c-5.47-0.12-13.79-0.39-14.6,0.08l-6.69-0.74c-0.3,0.25-1.4,0.51-3.18,0.62c-1.46-0.05-2.92-0.1-4.39-0.15
	c-2.64-0.38-2.74-0.27-2.9-0.1c-1.62-0.05-3.24-0.1-4.87-0.16c1.88-0.21,3.42-0.39,4.18-0.61c-5.72-0.28-4.96-0.02-9.02-0.04
	c-1.3-0.35,4.1-0.72,8.49-0.79l-7.33-0.54c-7.16,0.39-19.59,0.88-30.99,0.28c1.9-0.31,5.6-0.17,2.66-0.78
	c-4.92-0.02-11.55,0.44-17.99-0.15c0.9-0.01,0.35-0.1,1.24-0.11c-11.45,0.12-8.55-0.47-18.84-0.97c0.17-0.05,0.21-0.12,0.52-0.17
	l-6.34,0.11c-13.31,0.27-14.6-1.29-22.42-2.11l1.76,0.01c-2.42-0.45-7.62-0.72-12.77-1.01c-5.14-0.3-10.24-0.55-12.46-0.82
	c5.5,0.75,1.79,0.5,5.75,1.4c4.94,0.17,3.58-0.66,11.74,0.09c-1.17,0.58-11.55,0.1-13.78,0.44c-4.6-0.25-7.51-1.46-7.89-1.85
	c-11.42-0.77-17.74-1.62-31.76-2.68c-5.1-0.02-9.23,0.91-20.73-0.93l0.69-0.16c-0.49,0.36-5.66-0.57-8.09-0.47
	c3.91,0.97-5.09,0.02-0.28,1.02c-6.87-0.48-7.84-1.43-8.41-2.01c-5.03,0.53-13.53-1.42-24.2-1.33c1.94-0.36,13.5,0.2,8.81-0.48
	c-4.59,0.08-9.18,0.26-13.75,0.46l6.05,0.2c-10.38,0.3-13.22-0.46-19.23-0.79c-0.59-0.13,0.1-0.22,1.32-0.29
	c1.21-0.04,2.94-0.04,4.42-0.01c-3.19-0.12-8.32,0.05-12.49,0.3c-3.16,0.29-14.05,1.08-18.32,1.92c-0.58,0.02-1.17,0.04-1.76,0.06
	c0.16-0.06,0.43-0.13,0.78-0.17c-0.88,0.08-1.59,0.14-2.24,0.24c-1.82,0.13-3.64,0.26-5.48,0.4l1.07-0.23
	c-0.72,0.1-1.41,0.2-2.09,0.3c-1.89,0.11-3.77,0.32-5.65,0.54l-2.82,0.59l1.42-0.17c-0.17,0.37-1.88,0.9-4.51,1.46
	c-3.19,0.49-6.37,1.04-9.53,1.66c-3.32,0.65-6.64,1.38-9.97,2.13c-3.59,0.64-7.55,1.61-11.22,2.46c-4.55,1.06-8.66,1.88-10.78,1.75
	c12.14-3,17.95-4.28,31.01-7.23c3.55-0.28,1.42,0.16-1.54,0.86c-2.98,0.67-6.81,1.57-6.92,1.8c2.48-0.49,4.96-0.97,7.46-1.41
	c-1.24-0.32,14.5-2.84,10.3-3.08c-4.17,0.67-8.39,1.25-12.46,2.07c-4.07,0.8-8.04,1.66-11.93,2.5c-7.76,1.68-15.19,3.24-22.17,4.15
	c4.05-2.13,7.7-4.45,11.28-6.84c-0.03-0.06,0.16-0.2,0.7-0.47l-0.7,0.47c0.09,0.2,2.74-0.54,5.77-1.36
	c-0.55,0.35-1.12,0.75,2.56-0.11c7.65-1.34,11.51-3.26,17.45-4.25l-1.79,0.41c2.82-0.4,6.01-0.91,9.01-1.47
	c3.01-0.54,5.87-0.97,7.98-1.47c2.38,0.1-1.67,0.69-5.18,1.2c-3.51,0.53-6.45,1.15-2.02,0.72c-3.09,0.41-6.82,1.11-10.26,1.89
	c-3.44,0.81-6.57,1.68-8.78,2.19c3.75-0.75,7.46-1.26,9.93-1.46c2.5-0.16,3.75-0.04,2.75,0.38c8.25-1.73,8.14-2.12,7.74-2.49
	c-0.4-0.37-1.08-0.69,6.4-1.86c3.47-0.47,6.98-0.64,10.46-0.95c1.15-0.42,2.31-0.85,3.48-1.22c6.31-0.42-3.76,0.99,5.86,0.29
	c2.59-0.66,8.83-0.41,10.72-0.78c-0.26,0.24-0.37,0.39,4.55,0.35c0.33-0.11-0.12-0.46,3.75-0.49c2.64,0.88-9.91,0.27-5.41,1.05
	c10.98-0.08,7.05-0.84,8.73-1.19c-0.38,0.03-0.98-0.01-2.08-0.02c0.12-0.31,4.8-0.06,4.31-0.39c-1.86-0.08-3.74,0.06-5.38,0.15
	c3.34-0.29-5.47-0.61-8.87-0.46c-7.69,0.53-23.7,1.44-34.27,3.16c0.91-0.17,2.72-0.5,1.53-0.47c-1.89,0.26-3.64,0.5-5.29,0.73
	c-1.64,0.28-3.18,0.54-4.66,0.79c-2.97,0.5-5.7,0.95-8.41,1.51c-5.41,1.08-10.85,2.38-18.37,4.14l-1.48,1
	c-6.53,1.38-7.84,1.99-8.03,2.52c-0.17,0.52,0.91,0.83-0.66,1.19c-2.86,0.5-5.24,1.25-7.79,1.14c0.43-0.13,0.86-0.24,1.29-0.39
	c-3.99,0.52-4.59,0.68-5.09,0.84c-0.49,0.13-0.93,0.34-4.46,0.3c-2.85,0.15-1.62,0.22-0.09,0.25c1.52,0.01,3.32,0.02,1.48,0.22
	c-1.93,0-3.17,0.02-4.16,0.07c-1,0.08-1.75,0.19-2.62,0.23c-1.78,0.11-4.03,0.22-10-1.3c0.35-0.04,0.1-0.3,0.67-0.37
	c0.55-0.09,1.96,0.07,5.37,0.55c-2.14-0.48-4.31-1.07-6.57-1.71c4.17,0.73,4.87,0.76,5.67,0.88c0.8,0.07,1.56,0.32,5.45,0.59
	c1.86-0.18,2.58-0.49,3.25-0.7c0.66-0.22,1.29-0.47,2.91-0.77c-1.43,0.09-2.03,0.29-2.79,0.39c-0.75,0.09-1.74,0.28-3.82,0.04
	c-5.01-0.64,0.89-0.24,1.4-0.42c-3.39,0.13-5.19-0.33-6.98-0.83c-1.79-0.5-3.47-1.04-7.18-1.44c0.95,1.01-0.28,0.75,4.29,2.2
	c-2.41-0.34-5.18-1.03-7.35-1.66c-2.15-0.64-3.69-1.22-3.27-1.5l-1.41,0.38c-1.25-0.4-5.87-1-6.11-1.2l-2.05,0.11
	c4.06,0.88,7.6,1.58,14.22,2.74c-2.87-0.15,3.16,1.71-5.51,0.13c-3.86-0.68-0.31-0.43-0.48-0.64c-2.56-0.4-4.87-0.64-6.88-0.9
	c-2.04-0.17-3.81-0.4-5.42-0.51c-1.6-0.13-3.03-0.24-4.35-0.35c-1.32-0.08-2.53-0.16-3.71-0.24c-4.7-0.21-8.98-0.41-17.02,0.61
	c3.95-0.74,13.99-1.17,22.11-1.22c-4.85-0.71-10.5,0.11-15.08,0.36c4.09-0.51,4.79-0.76-0.14-0.74c-0.66,0.16-1.3,0.35-1.94,0.53
	c-2.92,0.19-7.99,0.84-8.42,0.72c-0.1,0.15,1.18,0.09,3.79-0.07c-3.54,0.61-8.53,1.48-14.09,2.51c-5.48,1.05-11.59,2.23-17.53,3.37
	c3.32-0.64,7.09-2.01,10.43-2.94c-13.08,1.57-25.66,0.91-38.59,4.5c-6.87,1.91-13.59,4.48-20.68,5.45
	c-8.84,1.21-18.41,0.01-26.22,4.1c-3.37,1.77-6.4,5.65-4.48,8.79c1.12,1.83,3.48,2.58,5.2,3.94c4.14,3.26,4.01,9.42,7.39,13.39
	c2.16,2.53,5.49,3.87,8.62,5.26c8.91,3.94,17.25,9.03,24.71,15.07 M257.88,620.22l-5.04,1.04
	C254.73,620.78,256.62,620.35,257.88,620.22z M167,685.76c-1.28,0.23-3.05,0.52-4.63,0.78c-1.42,0.09-1.74,0.05-1.73-0.04
	C162.75,686.26,164.88,686.02,167,685.76z M80.18,665.05c-0.11-0.16-0.21-0.41-0.29-0.75C79.98,664.54,80.08,664.8,80.18,665.05z
	 M234.42,680.77c-2.05,0.26-1.74,1.07-9.87,1.19c-0.11-0.08,0.58-0.17,1.38-0.24c-3.69,0.26-4.32,0.14-8.36,0.27
	c-1.31-0.5,4.9-0.78,7.55-1.29c-2.6,0.22-5.49,0.7-8.34,0.82l0.63-0.26c-2.86,0.27-5.72,0.54-8.58,0.85
	c-3.45,0.76,6.53-0.52,7.05-0.19l-5.44,0.81c-6.25,0.61-22.92,2.74-28.84,2.64c-7.36,0.61-3.99,0.89-5.73,1.47
	c-4.28,1.03-8.54,0.89-12.83,1.61c0.26,0.44-4.92,0.98-4.97,1.56l-7.2,0.62c-3.87,1.25,8.66-0.72,10.61-0.59
	c3.99,0.32-5.22,0.84-2.65,1c5.48-0.69,5.79-1.13,8.41-1.57c3.12-0.43,4.83-0.44,4.8-0.15c-8.83,0.72-4.59,1.19-11.8,1.87
	l-0.28-0.15c-0.04,0.6-10.42,1.35-14.31,1.92c-8.08,0.04,6.31-1.4,5.99-1.59c-3.2,0.37-6.43,0.72-9.66,1.03
	c4.18-0.71-0.15-0.72,5.44-1.57c-5.85,0.71-6.64,0.21-12.26,0.94c6.33-1.23-8.04-0.18-8.77-0.79c6.18-0.34,17.11-0.43,17.71-0.3
	c0.9-0.2,7.97-0.74,10.86-0.86l4.37-1.26c-5.13,0.55-12.1,1.54-10.27,0.71c-2.33,0.31-4.65,0.65-7,0.94
	c7.09-1.64,6.73-1.57,13.15-2.68c-13.51,0.55-23.87,3.03-35.13,2.38l1.75-0.1c-5.54,0.14-10.11-0.12-13.69-0.8
	c-3.59-0.66-6.12-1.68-7.84-2.68c-0.06-0.04-0.11-0.07-0.17-0.11c0.34,0.15,0.66,0.32,1.01,0.46c6.19,2.49,13.92,2.74,21.27,2.62
	c11.78-0.2,23.46-1.18,35.12-2.45l-1.39,0.52c0.29-0.05,0.49-0.09,0.8-0.15c13.4-1.79,1.36,0.76,15.04-1.26
	c-0.52,0.13-0.75,0.23-1.03,0.33c5.55-0.93,15.89-1.94,16.96-2.7c-1.31,0.17-6.48,0.63-9.01,0.71c5.85-0.73,11.69-1.45,17.55-2.11
	c1.23-0.03,2.42-0.07,3.8-0.18l0,0l0.01,0c1.33-0.11,2.8-0.3,4.74-0.6c0.46-0.09,0.78-0.16,1.01-0.22c7-0.68,14.02-1.22,21.06-1.52
	C226.46,680.2,242.58,679.84,234.42,680.77z M256.35,680.48c-8.3-0.31-2.5-0.27-8.4-0.71c-0.32-0.11-0.11-0.2,0.37-0.28
	c6.23,0.14,12.45,0.43,18.65,0.82C261.59,680.12,256,679.86,256.35,680.48z M281.53,681.95c-2.83-0.29-10.88-0.71-11.47-1.26
	c3.9,0.26,5.02,0.32,4.58,0.17c4.05,0.31,8.09,0.65,12.14,1.01c0.15,0.08,0.5,0.18,1.06,0.29
	C286.03,682.13,283.21,681.96,281.53,681.95z M385.88,689.9c-7.22,0.08,0.39-0.38-3.28-0.59c-5.5,0.85-7.02-0.66-12.85,0.3
	c-6.99,0.09-4.78-0.42-6.98-0.73c6.94,0.06-3.21-0.64,5.51-0.78c-3.53-0.16-4.82-0.05-5.98,0.11c-1.16,0.16-2.19,0.34-5.16,0.12
	l-0.85-0.73c-2.7-0.16-6.95-0.42-11.44-0.7c-4.49-0.29-9.2-0.6-12.89-0.63c6.06,0.88-3.67,0.19-2.75,0.66
	c1.18-0.5,9.55,0.5,9.41,0.78c-4.37-0.13-14.53-0.82-18.54-1.26l7.96,1.01c-3.35,0.12-15.14-0.29-15.48-0.22
	c-3.56-0.62-8.98-1.06-10.76-1.61l6.83,0.13l2.3,0.66l4.01-0.2c-4.32-0.6-13.38-1.85-15.23-2.53c6.85,0.65,16.23,1.48,27.5,1.88
	c6.46,0.52,12.92,0.97,19.41,1.29c15.48,0.75,30.95,0.73,46.42,0.18c-0.12,0.02-0.22,0.03-0.34,0.05c-1.81,0.3-3.94,0.54-6.45,0.7
	c1.43-0.1,3.13-0.14,5.45-0.05c-4.16,0.51-8.32,1.12-12.52,1.47c3.17,0.09,4.98-0.17,6.97-0.48c1.99-0.29,4.14-0.58,8-0.62
	C393.64,688.79,394.15,689.13,385.88,689.9z M601.08,666.7c5.41,0.04,10.81,0.04,16.22,0.01l-0.08,0.01l5.3,0.45
	c-2.02,0.15-4.04,0.29-6.06,0.43L601.08,666.7z M230.8,631.48c1.7-0.06,2.22,0.07,2.74,0.23c-1.38,0.15-2.73,0.3-4.06,0.38
	L230.8,631.48z M181.33,626.28c0.31-0.34,2.61-0.4,5.16-0.29c2.56,0.06,5.36,0.36,6.75,0.25c1.1,0.07,4.08,0.58,6.38,1.11
	c2.31,0.52,4.02,1.01,2.88,1.03c-3.16-0.79-4.84-0.79-6.38-0.84c-1.57-0.03-2.98-0.17-6-1.03c-1.15,0.28,0.46,0.64,2.84,1.1
	c-0.85-0.06-1.38-0.02-1.5,0.06c-1.23-0.18-2.42-0.35-3.57-0.52c-1.17-0.12-2.3-0.24-3.4-0.35
	C182.54,626.53,180.76,626.45,181.33,626.28z M172.51,626.26l-2.05,0.14c-7.84,0.26-12.79,1.04-15.57,1.47
	c-2.69,0.47-3.35,0.72-2.57,0.82c-1.82,0.26-3.65,0.54-5.47,0.84c3.18-0.87,6.2-1.63,7.95-2
	C161.3,626.57,168.41,626.13,172.51,626.26z M132.12,631.38c-0.37,0.24,0.05,0.25,0.86,0.15c-2,0.46-4.03,0.93-6.06,1.39
	C127.69,632.49,126.22,632.46,132.12,631.38z M75.86,658.49c0.02-1.03,0.5-2.08,0.78-3c0.71-1.43,1.46-2.47,1.7-2.57
	c-0.24-0.5,0.89-2.67,3.2-4.86c2.44-2.42,6.19-4.57,8.13-5.82c5.2-2.6,7.35-2.9,9.15-3.36c1.86-0.37,3.47-0.79,8.43-2.42
	c-1.32,0.2-2.62,0.44-3.93,0.68c4.42-1.5,7.65-2.41,11.04-3.26c3.41-0.86,6.94-1.6,12.04-2.58c1.47,0.3-4.7,0.87-6.85,1.68
	l5.04-0.49c-2.18,0.49-6.23,1.93-6.34,1.36c0.05,0.29-3.16,1.49,3.12-0.17l-4.59,1.5c0.29,0,0.69-0.03,1.13-0.09
	c-1.39,0.36-2.82,0.74-4.24,1.11c-1.89,0.28-5.09,1.15-8.07,1.58c-0.32-0.11,2.58-1.02,4.23-1.57c-4.44,0.94-8.12,2.28-10.4,3.24
	c3.29-1.09,4.13-1.23,4.35-1.13c0.22,0.09-0.17,0.42,0.7,0.42c-1.94,0.72-4.5,1.63-6.79,2.56c-2.29,0.93-4.33,1.86-5.31,2.46
	c-1.29,0.55-2.46,1.13-3.5,1.64c-1.07,0.48-1.9,0.95-2.56,1.24c-1.3,0.59-1.78,0.57-0.55-0.6c-2.55,2.07-5.43,4.36-6.26,7.21
	c0.62-1.25,1.07-1.86,1.4-2.16c0.39-0.28,0.63-0.26,0.9-0.28c0.27-0.02,0.56-0.08,1.04-0.5c0.25-0.21,0.51-0.52,0.92-0.93
	c0.43-0.4,0.95-0.93,1.6-1.64c0.52-0.17,0.68-0.13,0.58,0.06c-2.4,1.82-4.27,3.85-5.48,6.09c-0.41,0.61-0.78,1.19-1.06,1.69
	c0.6-1.7-0.46-0.36-0.59-0.82c-0.28,0.62-0.33,1.15-0.37,1.57c-0.04,0.42-0.05,0.73-0.03,0.95c0.04,0.44,0.18,0.51,0.39,0.31
	c0.18-0.15,0.36-0.46,0.58-0.88c-0.1,0.39-0.24,0.76-0.3,1.16c-0.33,2.16,0.01,4.28,0.79,6.35c0.15,1.01,0.42,2.03,0.75,3.03
	c-0.91-1.47-1.67-2.99-2.15-4.57c-0.12,1.03,0.3,2.37,1.03,3.68c0.73,1.31,1.73,2.61,2.5,3.72c0.66,1.31-0.61-0.03-2.16-2.14
	c-1.59-2.1-3-5.13-3.71-6.75C75.88,660.49,75.75,659.51,75.86,658.49z"/>
<g>
	<g>
		<path class="st30" d="M176.85,175.67c-1.42-6.37-8.72-6.68-13.31-9.55c-6.48-4.06-12.89-9.82-18.58-15.02
			c-2.15-1.96-4.33-3.96-5.78-6.47c-2.86-4.95-2.5-11.13-1.22-16.7s3.39-11,3.77-16.71c0.38-5.71-1.42-12.03-6.25-15.1
			c-3.15-2-7.18-2.31-10.8-1.4c-7.82,1.97-12,6.34-16.8,12.7c-10.12,13.4-15.48,28.45-16.59,45.11c-0.53,8-2.71,14.45-8.35,20.29
			c-2.55,2.63-4.47,4.61-6.07,7.9c-0.96,1.99-1.32,3.96-3.08,5.46c-3.11,2.63-8.78,1.49-10.75,5.74c-1.97,4.25,2.96,7.51,6.21,9.34
			c8.2,4.62,17.34,3.96,26.37,4.35c6.85,0.29,13.63,3.02,20.71,2.46c4.11-0.33,7.84-2.29,11.9-2.75c5.31-0.61,10.58,0.36,15.88-0.61
			c9.36-1.72,15.43-6.4,22.25-12.79C170.37,188.14,178.28,182.07,176.85,175.67z"/>
		<path class="st31" d="M116.79,219.05c-2.14-4.17-4.1-8.47-6.02-12.6c-1.37-2.94-4.25-6.35-0.76-7.96c2.17-1,5.07,0.22,7.19-1.17
			c4.92-3.2,3.81-16.84,4.34-22.2c0.52-5.28,1.05-10.55,1.57-15.83l30.26,3c-0.6,6.09-1.21,12.19-1.81,18.28
			c-0.52,5.23-4.31,19.49-0.02,23.39c1.36,1.24,3.61,1.51,4.73,3.19c1.64,2.46,1.5,6.85,1.84,9.75c0.92,8.07,0.81,16.85-5.62,23
			c-9.93,9.49-25.26-3.79-30.7-12.15C119.98,225,118.34,222.06,116.79,219.05z"/>
		<path class="st32" d="M143.55,172.86c-5.09-1.79-2.87-0.98-5.96-1.09c-5.24-0.19-10.61,0.08-15.62,2
			c-0.08,0.03-0.18,0.07-0.26,0.1l-0.72,13.37c2.47,4.2,6.48,5.83,10.9,6.65c5.53,1.03,14.72-5.2,15.02-10.82L143.55,172.86z"/>
		<path class="st31" d="M143.82,106.25c-33.35-3.45-33.46,26.12-33.49,27.39c-0.38,13.77-1.43,24.94,3.31,34.82
			c2.94,6.13,13.27,20.93,21.76,21.94c5.67,0.68,16.21-7.24,20.42-12.91c9.28-12.48,13.49-24.6,14.49-37.54
			C171.57,123.7,171.32,109.1,143.82,106.25z"/>
		<path class="st31" d="M105.67,152.76c1.34,2.45,6.69,7.86,9.14,4.31c1.26-1.82-0.31-4.17-1.1-5.84c-0.23-0.49-0.46-0.97-0.69-1.46
			c0.73,1.56,3.16,0.34,2.5-1.32c-1.06-2.66-4.01-10.98-8.27-8.15C103.8,142.59,102.64,147.21,105.67,152.76z"/>
		<path class="st30" d="M160.57,140.74c-3.35-1.13-6.61-2.42-10.1-1.67c-1.32,0.28-5.2,1.91-2.84,3.8c1.06,0.85,8.59,0.1,12.58,0.52
			C161.98,143.57,162.56,141.41,160.57,140.74z"/>
		<path class="st30" d="M120.58,139.4c0.4-0.6,0.97-1.04,1.37-1.19c3.31-1.24,6.89-1.42,10.24-0.16c1.26,0.47,4.86,2.65,2.25,4.17
			c-1.18,0.68-8.54-1.59-12.45-0.73C119.98,141.93,119.7,140.74,120.58,139.4z"/>
		<path class="st31" d="M171.96,146.15c-3.63-3.61-8.15,3.97-9.71,6.37c-0.97,1.49,1.17,3.16,2.19,1.78
			c-0.32,0.43-0.64,0.86-0.96,1.29c-1.1,1.48-3.1,3.47-2.22,5.51c1.71,3.96,8.01-0.29,9.81-2.43
			C175.13,153.84,174.9,149.08,171.96,146.15z"/>
		<path class="st33" d="M167.03,157.14c-0.69-1.42-2.94-0.4-2.24,1.03c0.66,1.35,0.89,2.71,0.72,4.21
			c-0.19,1.57,2.26,1.82,2.45,0.24C168.19,160.71,167.87,158.86,167.03,157.14z"/>
		<g>
			<g>
				<path class="st30" d="M147.31,130.93c7.01-0.61,12.98-3.56,17.02-9.36c0,2.76-1.53,5.76-1.72,8.67
					c-0.22,3.25,0.01,6.51,0.35,9.74c0.69,6.66,1.98,13.37,1.26,20.09c-0.9,8.36-5.64,14.77-7.81,22.42c-1,3.52-1.9,7.14-2.76,10.73
					c-0.79,3.3-1.67,5.98,2.45,4.82c9.97-2.82,19.84-11.17,24.07-20.63c6.42-14.4,6.33-30.29,4.33-45.66
					c-0.43-3.32-0.94-6.66-2.14-9.79c-1.48-3.86-4.03-7.36-7.27-9.93c-1.28-1.01-3.28-1.5-4.36-2.57c-1.28-1.26-1.54-3.18-2.49-4.66
					c-5.56-8.6-15.85-12.33-25.66-13.18c-7.64-0.67-15.62,0.26-22.29,4.04c-4.05,2.3-7.48,5.56-10.53,9.08
					c-3.26,3.77-6.18,7.96-7.64,12.72c-1.46,4.76-1.32,10.18,1.24,14.46c1.81,3.01,4.73,5.37,5.92,8.69
					c0.96,2.69,0.87,5.51,2.12,8.1c2.22-1.82,1.18-6.07,3-9.08c2.38-3.94,7.1-6.57,11.47-7.59c0.62-0.15,1.25-0.27,1.88-0.37
					C134.15,130.6,140.8,131.5,147.31,130.93z"/>
			</g>
		</g>
		<g>
			<g>
				<path class="st42" d="M141.62,146.03c-0.94,3.38-1.68,7.3-0.36,10.69c0.54,1.39,1.48,2.19,2.27,3.34
					c0.76,1.1,2.36,0.02,0.31,2.78c-1.19,1.6-3.86,1.86-5.62,1.56c-0.74-0.13-1.06,1-0.31,1.13c2.63,0.46,7.68-0.53,8.16-3.93
					c0.15-1.09-0.41-1.19-1.06-1.91c-2.15-2.37-3.16-3.48-3.26-6.91c-0.06-2.19,0.43-4.34,1.01-6.43
					C142.96,145.61,141.82,145.3,141.62,146.03L141.62,146.03z"/>
			</g>
		</g>
		<g>
			<g>
				<path class="st30" d="M115.98,109.94c8.86-7.78,20.91-10.3,32.16-6.85c1.48,0.46,2.12-1.87,0.64-2.32
					c-12.1-3.71-25-0.87-34.5,7.47C113.12,109.26,114.82,110.96,115.98,109.94L115.98,109.94z"/>
			</g>
		</g>
		<g>
			<g>
				<path class="st44" d="M178.53,146.23c-0.47,10.56-4.47,20.1-8.68,29.64c-0.24,0.55,0.57,1.02,0.81,0.47
					c4.26-9.67,8.33-19.42,8.81-30.12C179.49,145.63,178.55,145.63,178.53,146.23L178.53,146.23z"/>
			</g>
		</g>
		<g>
			<g>
				<path class="st44" d="M175.18,141.66c-0.34,4.59-1.03,9.12-2.06,13.61c-0.13,0.59,0.77,0.84,0.9,0.25
					c1.05-4.57,1.75-9.18,2.09-13.86C176.17,141.06,175.23,141.06,175.18,141.66L175.18,141.66z"/>
			</g>
		</g>
		<g>
			<g>
				<path class="st44" d="M159.96,110.01c-7.8-10.15-21.56-8.74-32.2-4.32c-11.57,4.8-20.8,14.23-22.5,26.96
					c-0.06,0.43,0.61,0.42,0.67,0c1.51-11.3,9.24-20.14,19.27-25.07c10.67-5.25,25.94-7.97,34.19,2.77
					C159.64,110.68,160.22,110.35,159.96,110.01L159.96,110.01z"/>
			</g>
		</g>
		<g>
			<g>
				<path class="st44" d="M125.36,102.34c5.24-1.92,10.64-2.71,16.21-2.37c0.43,0.03,0.43-0.64,0-0.67
					c-5.66-0.35-11.07,0.44-16.39,2.39C124.78,101.85,124.96,102.49,125.36,102.34L125.36,102.34z"/>
			</g>
		</g>
		<g>
			<g>
				<path class="st44" d="M105.59,170.14c0.47,6.31,2.55,12.11,6.23,17.26c0.25,0.35,0.83,0.01,0.58-0.34
					c-3.6-5.05-5.67-10.73-6.14-16.92C106.23,169.71,105.56,169.71,105.59,170.14L105.59,170.14z"/>
			</g>
		</g>
		<g>
			<g>
				<path class="st44" d="M110.06,172.8c0.94,4.65,2.41,9.1,4.4,13.4c0.18,0.39,0.76,0.05,0.58-0.34
					c-1.97-4.25-3.41-8.65-4.33-13.24C110.62,172.2,109.98,172.38,110.06,172.8L110.06,172.8z"/>
			</g>
		</g>
		<path class="st45" d="M131.18,173.35c-0.57-0.52-1.02-1.2-1.34-1.89c-0.32-0.68-0.63-1.39,0.09-1.93c0.49-0.38,1.14-0.51,1.76-0.5
			c0.62,0.01,1.23,0.16,1.84,0.3c2.4,0.55,4.84,0.97,7.29,1.25c1.11,0.13,2.23,0.23,3.29,0.57c0.31,0.1,0.63,0.24,0.77,0.53
			c0.18,0.38-0.04,0.82-0.18,1.22c-0.17,0.48-0.05,1.06-0.27,1.5c-0.23,0.46-0.67,0.77-1.13,1c-1.41,0.71-2.98,0.62-4.51,0.56
			c-1.55-0.06-3.1-0.36-4.57-0.88C133.12,174.67,132.05,174.14,131.18,173.35z"/>
		<path class="st1" d="M144.87,172.44c-1.83-0.05-3.62-0.42-5.44-0.7c-2.36-0.35-4.76-0.54-7.1-0.98c-0.94-0.19-1.89-0.41-2.82-0.65
			c0.04-0.21,0.17-0.39,0.4-0.58c0.51-0.39,1.15-0.52,1.77-0.51c0.61,0.01,1.23,0.15,1.83,0.3c2.41,0.55,4.85,0.97,7.29,1.26
			c1.11,0.13,2.23,0.22,3.28,0.57c0.31,0.1,0.64,0.24,0.77,0.53C144.99,171.91,144.95,172.17,144.87,172.44z"/>
		<path class="st30" d="M130.81,148.64c-0.07,1.83-1.1,3.28-2.3,3.23c-2.48-0.1-1.84-3.32-2.78-4.62c-0.12-0.16-0.68-0.26-0.83-0.39
			c-0.22-0.19-0.12-0.5,0.14-0.61c0.67-0.27,1.78-0.48,2.48-0.5C129.52,145.71,130.89,146.53,130.81,148.64z"/>
		<path class="st30" d="M149.53,149.91c-0.17,1.83,0.65,3.4,1.85,3.51c2.47,0.24,2.27-3.05,3.37-4.2c0.14-0.15,0.71-0.16,0.87-0.27
			c0.24-0.16,0.19-0.48-0.06-0.62c-0.63-0.36-1.7-0.72-2.39-0.83C151.2,147.18,149.73,147.8,149.53,149.91z"/>
	</g>
	<g>
		<path class="st42" d="M53.75,574.82l13.42,10.01c0,0,53.49-31,83.06-48.53c9.27-5.48,19.04-13.52,21.25-15
			c9.24-6.19,13.18-17.75,13.18-17.75l-34.06-12.75c0,0-11.71,5.13-19.97,10.9c-0.87,0.6-1.77,1.27-2.71,2
			c-8.02,6.21-18.57,16.65-29.46,27.42C81.27,548.13,53.75,574.82,53.75,574.82z"/>
		<path class="st61" d="M150.23,536.3c-0.95,0.56-1.91,1.13-2.9,1.72c-0.26,0.14-0.51,0.29-0.77,0.45c-0.6,0.35-1.21,0.71-1.82,1.07
			c-0.28,0.17-0.56,0.34-0.84,0.5c-0.1,0.06-0.19,0.12-0.3,0.18c-0.25,0.16-0.5,0.3-0.76,0.45c-0.98,0.57-1.96,1.16-2.97,1.75
			c-0.28,0.16-0.55,0.32-0.83,0.48c-30.12,17.73-71.87,41.92-71.87,41.92l-13.2-12.99c0,0,27.31-23.7,44.49-40.7
			c6.84-6.77,13.53-13.4,19.56-18.93c0.25-0.23,0.5-0.45,0.75-0.67c0.56-0.52,1.12-1.01,1.67-1.51c0.21-0.21,0.44-0.41,0.66-0.6
			c0.39-0.35,0.8-0.7,1.19-1.04c0.24-0.22,0.49-0.44,0.75-0.65c0.41-0.37,0.83-0.73,1.25-1.07c0.22-0.2,0.45-0.39,0.67-0.59
			c1.03-0.84,2-1.64,2.96-2.37c0.62,4.27,5.21,13.22,6.57,15.52c3.07,5.2,11.81,15.35,15.59,16.83
			C150.11,536.14,150.17,536.21,150.23,536.3z"/>
		<path class="st62" d="M74.33,639.26c3.05-3.2,4.52-11.44,2.35-23.4c-0.43-2.38-0.94-4.79-1.5-7.22c0-0.03,0-0.04-0.01-0.06
			c-0.2-0.88-0.39-1.75-0.59-2.63c-0.01-0.05-0.03-0.11-0.04-0.16c-0.39-1.74-0.79-3.48-1.17-5.23c0-0.01,0-0.03-0.01-0.04
			c-0.2-0.92-0.4-1.84-0.59-2.75c-0.01-0.02,0-0.03-0.01-0.05c-0.53-2.62-1.01-5.22-1.34-7.82c0.12,0,0.23-0.05,0.31-0.18
			c1.21-1.86,2.98-3.49,2.18-5.77c-0.64-1.86-1.89-4-3.99-4.38c-0.75-0.14-1.39,0.06-2.09,0.27c-2.37,0.67-3.96-0.22-5.53-1.97
			c-2.44-2.72-2.41-11.51-2.41-11.51s-6.48-1.1-11.7,1.94c-0.19,0.1-0.37,0.21-0.55,0.34c-0.02,0.01-0.04,0.01-0.06,0.02
			c-2.05,1.29-4.1,2.67-5.93,4.24c-0.45,0.37-0.88,0.76-1.3,1.15c-0.56,0.42-1.13,0.84-1.68,1.28c-0.87,0.7-1.73,1.4-2.49,2.16
			c-1.39,1.41-2.41,3.04-2.32,5.26c0.2,5.51,3.74,10.63,8.39,13.38c0.65,0.39,1.34,0.78,1.95,1.2c0.84,0.99,1.55,2.07,2.15,3.21
			c0.03,0.23,0.03,0.46,0.02,0.71c-0.09,1.29-0.54,2.52-0.43,3.83c0.4,4.98,3.2,10.01,5.25,14.48c2.31,5,4.95,9.9,8.48,14.14
			c2.19,2.62,7.75,7.14,11.6,7.04C72.4,640.73,73.44,640.21,74.33,639.26z"/>
		<path class="st63" d="M33.85,582.77c0.21,5.5,3.75,10.63,8.39,13.38c0.66,0.39,1.34,0.78,1.95,1.2c0.85,1,1.55,2.08,2.15,3.21
			c0.02,0.22,0.03,0.46,0.02,0.71c-0.1,1.29-0.54,2.52-0.43,3.84c0.4,4.98,3.2,10.01,5.26,14.48c2.3,5,4.95,9.9,8.48,14.14
			c2.19,2.62,7.75,7.14,11.6,7.03c1.13-0.03,2.17-0.54,3.06-1.49c-2.92-0.5-7.21-2.71-11.56-6.79
			c-6.95-6.52-13.63-24.56-13.68-27.72c-0.05-3.18-0.74-6.4-2.18-8.39c-1.45-1.98-4.42-2.2-7.39-6.64
			c-1.73-2.59-2.77-8.09-3.34-12.22C34.79,578.92,33.77,580.55,33.85,582.77z"/>
		<path class="st64" d="M41.65,572.9c-0.21,1.7-0.28,3.5-0.06,5.22c0.83,6.31,5.68,11.83,7.51,11.37c1.83-0.47-1.31-4.08-2.58-9.35
			c-0.79-3.26,0.55-8.4,1.67-11.84c-0.19,0.1-0.37,0.21-0.56,0.33c-0.02,0.01-0.04,0.01-0.06,0.03
			C45.53,569.95,43.48,571.33,41.65,572.9z"/>
		<path class="st65" d="M75.19,608.64c-1.54-0.12-3.06-0.09-4.51,0.16c-1.69,0.29-2.12-2.34-0.44-2.62c1.4-0.24,2.86-0.31,4.34-0.22
			c0.2,0.88,0.4,1.74,0.59,2.63C75.19,608.6,75.19,608.62,75.19,608.64z"/>
		<path class="st65" d="M73.37,600.52c-1.78-0.34-3.57-0.49-5.28-0.3c-1.7,0.19-2.14-2.43-0.44-2.62c1.69-0.19,3.41-0.09,5.13,0.17
			C72.98,598.69,73.18,599.6,73.37,600.52z"/>
		<g>
			<path class="st66" d="M160.22,521.75c-0.08,0-0.16-0.02-0.24-0.07c-0.21-0.13-0.27-0.41-0.13-0.61
				c0.25-0.39,6.15-9.62,6.56-10.19c0.14-0.2,0.42-0.25,0.62-0.1c0.2,0.14,0.25,0.42,0.1,0.62c-0.31,0.44-4.41,6.83-6.53,10.15
				C160.51,521.68,160.36,521.75,160.22,521.75z"/>
		</g>
		<g>
			<path class="st67" d="M74.92,636.52c-0.05,0-0.1-0.01-0.15-0.03c-0.29-0.11-7.21-2.65-11.29-8.09
				c-4.18-5.56-9.46-15.14-11.29-20.51c-1.1-3.22-1.7-8.67-1.72-8.9c-0.03-0.24,0.15-0.46,0.39-0.49c0.24-0.03,0.46,0.15,0.49,0.39
				c0.01,0.06,0.61,5.58,1.68,8.71c1.81,5.29,7.03,14.76,11.16,20.26c3.93,5.22,10.82,7.76,10.89,7.79
				c0.23,0.08,0.35,0.34,0.27,0.57C75.27,636.41,75.1,636.52,74.92,636.52z"/>
		</g>
		<g>
			<path class="st67" d="M70.5,590.1c-0.05,0-0.09-0.01-0.14-0.02c-0.27-0.09-6.66-2.29-9.76-7.37c-3.09-5.05-3.01-15.01-3.01-15.43
				c0-0.25,0.21-0.45,0.45-0.44c0.24,0,0.44,0.2,0.44,0.45c0,0.1-0.07,10.12,2.88,14.96c2.93,4.8,9.22,6.97,9.29,6.99
				c0.23,0.08,0.36,0.33,0.28,0.56C70.85,589.99,70.68,590.1,70.5,590.1z"/>
		</g>
	</g>
	<path class="st42" d="M186.42,496.27c-1.7,12.17-8.48,20.54-17.06,20.58c-8.58,0.04-16.5-6.22-16.5-6.22l-18.63-64.82l40.22-11.26
		C174.45,434.56,188.12,484.11,186.42,496.27z"/>
	<path class="st62" d="M143.1,442.28c1.58,0.05,3.18-0.02,4.79-0.16c4.35-0.39,8.47-1.87,12.91-2.03c3.24-0.12,6.44-0.02,9.35-1.75
		c1.94-1.16,3.56-2.96,5.49-4.22c0.89-0.58,3.31-1.27,3.93-2.12c2.22-3.07-1.21-9.3-1.83-12.68c-0.63-3.39-1.54-6.76-2.3-10.12
		c-1.6-7.14-2.74-14.99-5.74-21.72c-2.2-4.93-6.04-20.98-6.04-20.98s-18.67-5.26-28.59-11.28c-9.92-6.02-20.57-10.76-31.64-14.22
		c-0.06,0.04-0.13,0.07-0.2,0.11c-0.09,0.06-0.14,0.09-0.16,0.1c0.02-0.01,0.03-0.01-0.07,0.06c-0.17,0.12-0.34,0.25-0.51,0.37
		c-0.74,0.53-1.49,1.04-2.27,1.51c-1.55,12.19-2.62,23.52,1.66,35.09c2.52,6.8,6.37,12.77,9.72,19.15c1.7,3.24,3.17,6.63,3.84,10.25
		c0.68,3.67,0.47,7.42,0.88,11.11c0.82,7.44,7.49,13.75,12.78,18.47C133.13,440.79,137.98,442.13,143.1,442.28z"/>
	<g>
		<path class="st31" d="M149.79,443.11c2.62,3.46,3.35,8.85,4.76,12.64c2.34,6.25,4.67,12.51,7.01,18.76
			c1.98,5.31,4.27,10.23,6.59,15.38c1.46,3.25,2.77,6.65,3.45,10.14c0.48,2.46,0.71,4.98,0.59,7.5c-0.16,3.37-1.71,4.28-4.86,2.46
			c-1.3-0.75-3.04-1.95-4.7-1.67c-1.44,0.25-2.03,1.75-2.72,2.85c-0.96,1.51-2.04,2.97-3.81,3.6c-8.08,2.89-17.63-0.4-17.63-0.4
			L84.3,434.2c6.04,0.15,12.08,0.31,18.12,0.46c6.89,0.17,13.77,0.35,20.66,0.52c2.48,0.06,4.96,0.09,7.44,0.19
			c1.99,0.08,3.93-0.42,5.88-0.3c2.3,0.15,4.55,1.34,6.37,2.68c1.71,1.26,3.71,2.39,5.32,3.62
			C148.73,441.88,149.29,442.46,149.79,443.11z"/>
	</g>
	<path class="st62" d="M149.95,436.67c0.65,1.34,1.17,2.75,1,4.19c-0.26,2.21-1.87,1.66-3.68,1.44c-2.65-0.33-5.38-0.18-8.05-0.18
		c-2.01,0-4.03-0.37-6.01-0.22c-5.21,0.39-9.99,3.21-15.19,3.43c-4.91,0.21-9.53-0.31-14.34,1.4c-3.33,1.18-7.48,4.49-11.19,3.65
		c-2.74-0.62-3.59-2.79-4.88-4.82c-1.62-2.55-4.24-5.17-6.29-7.41c-2.72-2.99-4.24-7.49-5.8-11.17c-1.63-3.87-3.17-7.79-5.15-11.5
		c-2.85-5.32-4.75-9.15-8.36-13.96c-3.33-4.43-7.25-15.06-8.26-20.56c-1.97-10.72-3.01-25.93,1.61-35.48
		c4.87-10.08,14.33-11.45,23.44-18.39h-0.14c-0.57,0.03-0.59-0.86-0.01-0.89c0.48-0.02,0.96-0.04,1.44-0.05
		c0.07-0.04,0.13-0.1,0.2-0.15c0.22-0.15,0.44-0.05,0.56,0.12c3.08-0.12,6.14-0.25,9.21-0.36c2.94-0.1,5.94-0.22,8.82,0.49
		c5.61,1.38,9.69,5.75,12.87,10.32c6.8,9.74,11.19,20.65,14.66,31.93c1.34,4.37,3.49,8.51,5.6,12.55c2.6,4.97,5.18,10.05,8.07,14.85
		c1.46,2.42,2.12,4.48,1.72,7.32c-0.24,1.7-1.11,3.65-1.04,5.37c0.1,2.54,2.15,5.26,3.19,7.51c1.05,2.29,1.37,4.64,1.76,7.09
		c0.58,3.58,1.46,7.8,3.03,11.1C149.1,435.05,149.55,435.85,149.95,436.67z"/>
	<path class="st42" d="M189.48,263.68c0.82,0.6,1.64,1.18,2.47,1.74c4.36,2.96,15.03,10.63,20.58,8.75
		c4.51-1.52,7.72-17.26,9.62-22.24c0.37-0.96-10.18-4.46-10.98-4.8c-4.5-1.92-7.47-5.72-11.33-8.55
		c-6.75-4.94-13.29-10.11-20.01-15.07c-3.08-2.27-16.53-15.15-20.91-12.19c-2.23,1.51-1.69,9.49-1.59,11.71
		c0.31,6.78,1.48,10.97,6.07,16.1C171.08,247.69,179.97,256.77,189.48,263.68z"/>
	<path class="st42" d="M212.02,274.86c3.88-1.1,11.85-8.56,18.23-17.43c5.71-7.95,28.98-48.04,28.98-48.04l-10.55-7.37
		c0,0-32.46,32.25-37.21,38.1c-4.74,5.86-8.23,11.58-8.23,11.58l-2.29,14.83C200.94,266.53,208.14,275.95,212.02,274.86z"/>
	<path class="st66" d="M271.09,191.78c-0.29-1.14-0.64-2.33-1.25-3.34c-0.44-0.74-1.06-1.35-1.61-2c-0.53-1.75-1.7-3.04-3.88-2.91
		c0.04-1.12-0.19-2.21-0.94-3.12c-1.7-2.08-3.65-0.93-5.56,0.02c-0.12-0.26-0.31-0.49-0.57-0.65c-1.58-0.95-3.75,1.82-4.79,2.56
		c-2.28,1.61-3.81,3.44-5.7,5.56c-1.7,1.91-1.81,4.5-1.75,6.93c-0.24,5.31,1.33,10.36,1.33,10.36l12.36,4.83
		c0,0,7.29-8.09,10.21-11.61C270.49,196.53,271.74,194.28,271.09,191.78z"/>
	<g>
		<g>
			<defs>
				<circle id="XMLID_2_" cx="238.33" cy="168.88" r="46.77"/>
			</defs>
			<use xlink:href="#XMLID_2_"  style="overflow:visible;fill:#FFFFFF;"/>
			<clipPath id="XMLID_3_">
				<use xlink:href="#XMLID_2_"  style="overflow:visible;"/>
			</clipPath>
			<g class="st68">
				<path class="st69" d="M207.64,210.69c2.07-0.31,8.14-10.85,6.88-14.22c-1.05-2.82-4.68-5.92-6.39-8.59
					c-2.42-3.79-4.34-7.76-5.3-12.23c-2.41-11.26-0.09-21.77,4.71-31.93c-2-3.38-5.25-7.59-6.21-10.76
					c-1.21-3.99-5.69,5.57-6.48,7.26c-5.71,12.13-7.82,25.61-3.66,38.5c2.78,8.62,5.23,16.6,10.49,24.08
					c1.67,2.38,4.63,7.24,7.37,8.44C209.36,211.12,207.8,211.11,207.64,210.69z"/>
			</g>
			<g class="st68">
				<path class="st69" d="M268.89,212.62c-1.16-0.91-1.32-2.53-1.9-3.88c-1.17-2.71-2.95-5-4.38-7.55
					c-1.75-3.13-2.66-4.05,0.58-5.87c9.69-5.46,10.58-20.95,9.53-30.75c-0.36-3.38-1.15-6.85-2.07-10.16
					c-0.72-2.58-2.67-5.73-2.84-8.37c-0.2-3.21,4.45-7.39,6.84-9.77c1.43-1.43,9,14.13,9.62,15.66c3.61,8.89,6.26,18.36,5.01,28
					c-1.15,8.88-4.72,17.82-10.78,24.34C276.03,206.91,270.83,209.8,268.89,212.62z"/>
			</g>
			<g class="st68">
				<g>
					<path class="st69" d="M206.27,143.44c3.68,0.28,7.25-1.19,10.82-1.86c5.63-1.06,11.7-1.36,17.42-1.52
						c5.99-0.17,11.96,0.59,17.89,1.36c6.38,0.83,12.9,1.34,18.53,4.73c0.34,0.21,0.65-0.33,0.31-0.53
						c-4.6-2.76-9.65-3.55-14.89-4.28c-6.04-0.84-12.15-1.75-18.26-1.91c-6.25-0.16-12.66,0.44-18.85,1.2
						c-4.3,0.53-8.61,2.53-12.97,2.2C205.87,142.79,205.87,143.41,206.27,143.44L206.27,143.44z"/>
				</g>
			</g>
			<g class="st68">
				<g>
					<path class="st69" d="M212.15,195.03c7.45,4.26,17.89,4.14,26.2,4.41c5.71,0.19,11.46-0.17,17.16-0.51
						c2.65-0.16,6.11-1.86,8.62-1.4c0.39,0.07,0.56-0.52,0.16-0.6c-1.6-0.3-3.58,0.59-5.13,0.91c-4.83,0.99-10.2,0.86-15.14,1.02
						c-5.17,0.16-10.47-0.04-15.61-0.52c-5.05-0.47-11.47-1.29-15.95-3.85C212.12,194.3,211.81,194.83,212.15,195.03L212.15,195.03z
						"/>
				</g>
			</g>
			<g class="st68">
				<path class="st69" d="M221.1,125.01c3.37,4.13,3.36,10.81,6.32,15.1c4.09,0.3,9.29-0.5,13.82-0.06c2.04,0.2,5.51,1.18,6.8-0.46
					c0.33-0.42,0.3-1.74,0.5-2.28c0.44-1.19,1.24-2.47,1.81-3.61c1.02-2.04,1.82-4.27,2.93-6.23c0.47-0.82,2.65-2.6,2.6-3.5
					c-0.16-2.64-10.05-3.53-11.77-3.71c-4.49-0.47-9.2-0.5-13.71-0.39c-2.33,0.06-5.93,0.29-7.45,2.25
					C222.44,122.78,220.76,124.6,221.1,125.01z"/>
			</g>
			<g class="st68">
				<path class="st69" d="M231.26,218.38c-0.13,0.08-0.32,0.66-0.28,0.31c0.19-1.51-0.02-3.17,0.01-4.7
					c0.03-1.73,0.11-3.45,0.27-5.17c0.16-1.71,0.39-3.41,0.78-5.08c0.19-0.81,0.47-1.59,0.68-2.39c0.17-0.64,0.16-1.52,0.64-2.03
					c0.39-0.42,0.85-0.31,1.4-0.31c0.92,0,1.83,0.03,2.73,0.07c2.68,0.13,6.16-1.01,8.64,0.48c1.58,0.95,1.41,6.33,2.25,8.53
					c1.1,2.89,3.66,4.97,4.67,7.74c-0.56,1.15-1.54,0.62-2.61,0.67c-3.64,0.15-7.38,0.85-11.01,1.22
					C237.83,217.9,231.78,219.52,231.26,218.38z"/>
			</g>
			<g class="st68">
				<g>
					<path class="st69" d="M194.1,164.25c6.08-3.22,13.42-4.26,20.15-5.4c8.28-1.39,16.73-1.31,25.08-0.76
						c7.46,0.49,15.02,0.92,22.37,2.34c3.93,0.76,7.81,1.78,11.44,3.48c3.08,1.45,7.94,3.25,10.37,5.68
						c0.38,0.38,0.96-0.21,0.58-0.58c-2.32-2.33-6.07-3.54-8.97-5.01c-3.18-1.62-6.35-2.78-9.83-3.63
						c-7.88-1.93-16.06-2.4-24.12-2.97c-8.73-0.62-17.55-0.86-26.23,0.5c-7.11,1.11-14.85,2.24-21.26,5.63
						C193.22,163.79,193.63,164.5,194.1,164.25L194.1,164.25z"/>
				</g>
			</g>
			<g class="st68">
				<g>
					<path class="st69" d="M189.28,172.09c8,1.51,15.09,5.33,23.27,6.5c8.2,1.17,16.53,1.64,24.78,2.21
						c8.14,0.56,16.29,0.01,24.32-1.37c8.26-1.42,15.55-5.79,23.76-7.05c0.52-0.08,0.3-0.88-0.22-0.8
						c-7.32,1.13-13.75,5.09-21.01,6.55c-8.82,1.78-17.88,2.46-26.86,1.85c-8.2-0.56-16.47-1.04-24.62-2.2
						c-4.11-0.59-8.09-1.33-11.99-2.76c-3.75-1.37-7.28-2.97-11.23-3.72C188.98,171.19,188.75,171.99,189.28,172.09L189.28,172.09z"
						/>
				</g>
			</g>
		</g>
		<g>
			<g>
				<path class="st58" d="M209.09,172.79c0.16-2.33,1.92-4.42,3.41-6.09c1.06-1.18,4.01-4.58,5.71-4.37
					c0.76-0.55,0.97-0.37,0.65,0.52c-0.01,0.97-0.29,1.87-0.85,2.7c-0.43,0.91-0.95,1.77-1.44,2.65c-0.77,1.38-1.57,2.7-2.15,4.17
					c-0.12,0.29,0.13,0.71,0.43,0.76c4.56,0.82,6.96-4.32,10.66-5.79c4.29-1.71,3.08,0.5,4.5,2.56c0.77,1.12,1.77,1.4,3.09,1.54
					c6.81,0.71,12.78-6.16,19.7-4.03c3.13,0.96,4.38,4.2,7.48,4.97c2.58,0.65,5.59-0.61,7.96-1.47c0.74-0.27,0.42-1.47-0.33-1.19
					c-1.86,0.68-4.26,1.74-6.27,1.56c-2.98-0.28-4.26-2.84-6.52-4.16c-2.28-1.34-4.85-1.51-7.41-1.02
					c-3.83,0.72-7.25,2.76-11.03,3.68c-2.82,0.68-4.75,0.3-5.99-2.16c-0.3-0.59-0.07-1.3-0.57-1.86c-2.31-2.59-6.7,1.56-8.48,2.95
					c-0.53,0.41-4.45,4.07-5.39,2.58c-0.21-0.34,2.03-3.57,2.27-4.03c1-1.9,2.06-3.88,1.56-6.07c-0.08-0.35-0.44-0.48-0.76-0.43
					c-4.89,0.75-11.13,7.02-11.47,12.04C207.79,173.59,209.03,173.59,209.09,172.79L209.09,172.79z"/>
			</g>
		</g>
	</g>
	<path class="st1" d="M97.25,442.59c-1.5-0.22-3.44-0.17-4.93-0.55c-2.2-0.57-2.23-4.17-2.69-5.94c-0.72-2.7-2.06-5.05-3.44-7.46
		c-1.49-2.6-2.71-5.4-3.6-8.26c-1.95-6.16-0.95-13.36-3.74-19.18c-2.38-4.95-7.21-8.27-10.34-12.7c-3.01-4.28-4.13-9.35-4.2-14.51
		c-0.06-4.42-0.46-11.81,2.98-15.11c2.06-1.98,5.2,1.15,3.13,3.13c-1.7,1.65-1.49,6.63-1.61,9c-0.17,3.19-0.14,6.52,0.77,9.61
		c1.71,5.76,6.28,9.3,9.96,13.76c7.31,8.84,4.55,20.76,9.73,30.67c1.24,2.36,3.1,4.43,4.11,6.9c1.19,2.91,1.02,5.82,2.79,8.59
		C96.63,441.26,97.26,441.65,97.25,442.59z"/>
	<path class="st61" d="M67.52,226.06c1.53-8.97,6.25-19.74,14.68-23.92c7.89-3.92,17.79-5.87,26.58-5.66
		c17.98,0.42,13.64,50.43,35.52,40.04c3.73-1.77,5.07-6.68,5.01-10.51c-0.08-5.79,0.45-11.16,1.24-16.94
		c0.41-2.99-0.27-6.09,3.54-5.16c2.16,0.53,5.34,1.69,6.45,3.61c1.93,3.35,3,7.61,4.4,11.19c1.59,4.1,2.33,8.55,4.26,12.52
		c1.61,3.31,4.09,6.5,5.1,10.06c0.6,2.11,0.71,4.3,0.78,6.48c0.07,1.95,0.67,3.64,0.83,5.56c0.41,4.76,0.48,9.56,0.51,14.34
		c0.06,6.98,1.07,13.88,0.38,20.84c-2.71,27.42-8.35,53.79-5.1,81.7c0.72,6.23,6.83,20.8,3.99,26.34c-3.05,5.95-10.68,5-16.24,5.46
		c-12.84,1.06-25.8,2.63-38.7,2.64c-9.34,0.01-18.11-1.68-27.31,0.89c-6.86,1.92-13.25,6.4-20.34,7.29
		c-17.47,2.2-15.32-21.12-16.91-31.89c-1.67-11.32-6.1-21.16-6.2-32.89c-0.1-12.07,3.22-20.73,8.65-31.36
		c4.92-9.64,9.41-19.95,12.59-30.31c1.23-3.99,2.08-7.78,1.96-11.98c-0.21-7.2-3.04-14.2-4.37-21.25
		C67.13,244.23,65.98,235.09,67.52,226.06z"/>
	<path class="st1" d="M72.46,211.37c2.95-4.66,7.29-8.38,13.11-8.49c3.87-0.07,8.28,2.98,11.3,5.07c3.79,2.62,7.35,6.67,10.28,10.27
		c5.25,6.44,5.05,13.54,4.37,21.51c-0.33,3.8,0.02,7.13-1.86,10.59c-1.9,3.51-4.39,5.59-6.95,8.56c-0.17-0.04-0.31-0.12-0.43-0.23
		c-0.81,1.48-4.61,1.1-6.08,0.68c-2.87-0.83-5.58-2.09-8.42-2.94c-2.36-0.71-4.71-1.56-7.1-2.22c-5.38-1.48-10.25-4.79-11.93-10.32
		c-2.54-8.36-2.27-17.7,0.6-25.94C70.12,215.69,71.16,213.43,72.46,211.37z"/>
	<g>
		<path class="st31" d="M190.6,643.02l-18.32,2.58c0,0-11.68-39.46-15.58-47.58c-3.9-8.12-15.67-37.2-16.38-53.74
			c-0.08-1.89-0.17-3.77-0.27-5.65c-0.73-14.63-1.79-28.31-1.79-28.31s9.71-11.64,12.7-10.88c2.99,0.76,21.21,8.95,21.21,8.95
			l3.66,26.76L190.6,643.02z"/>
		<path class="st61" d="M190.6,643.02l-18.32,2.58c0,0-11.68-39.46-15.58-47.58c-3.52-7.33-13.45-31.74-15.88-48.59
			c-0.04-0.31-0.09-0.61-0.12-0.9c-0.19-1.49-0.32-2.91-0.38-4.25l-0.01-0.15c-0.02-0.29-0.02-0.59-0.04-0.89
			c-0.07-1.54-0.14-3.08-0.23-4.62c4.2-0.07,10.27-0.37,17.55-1.36c6.25-0.85,12.79-1.55,18.24-2.12l0.62,4.59l0.13,0.88l0.62,4.52
			l0.12,0.87L190.6,643.02z"/>
		<path class="st62" d="M233.35,670.47c-0.03-0.22-0.07-0.44-0.12-0.66c-1.19-5.85-7.06-9.66-11.6-12.86
			c-2.65-1.87-5.39-3.59-8.19-5.19c-0.96-0.55-1.94-1.1-2.93-1.61c-1.3-0.7-2.6-1.36-3.93-1.99c-0.6-0.3-1.21-0.58-1.82-0.87
			c-0.38-0.18-0.74-0.48-1.09-0.78c-0.19-0.16-0.36-0.32-0.53-0.46c-0.99-0.83-1.97-1.66-2.96-2.5c-1.99-1.71-3.93-3.52-6.04-5.1
			c-0.25-0.18-0.5-0.36-0.77-0.5c-0.25-1.86-1.09-4.94-3.07-5.66c-1.86-0.67-7.29,0.17-8.91,1.56c-0.58,0.48-0.81,1.12-1.1,1.79
			c-0.96,2.26-2.86,4.33-5.21,4.46c-3.65,0.19-5.83-4.63-5.83-4.63s-2.3,8.11-2.39,8.65c-0.16,0.97-0.29,1.88-0.39,2.75
			c-0.33,3-0.28,5.5-0.06,7.85c0.18,2.05,0.49,3.99,0.75,6.04c0.06,0.49,0.12,1.01,0.19,1.52c0.23,1.98,0.86,3.79,2.63,5.12
			c4.41,3.3,12.8,2.66,12.8,2.66c0.98-1.46,1.76-1.88,3.53-1.76c2.79,0.19,3.3,2.13,5.35,3.52c4.12,2.82,7.09,3.06,11.86,4.28
			c5.33,1.34,10.8,2.38,16.32,2.29c3.42-0.05,10.43-1.54,12.76-4.59C233.27,672.89,233.53,671.76,233.35,670.47z"/>
		<path class="st63" d="M232.58,673.79c-2.33,3.05-9.34,4.54-12.76,4.59c-5.52,0.09-10.99-0.95-16.32-2.29
			c-4.77-1.21-7.74-1.46-11.86-4.28c-2.05-1.39-2.57-3.33-5.35-3.52c-1.77-0.12-2.73,1.22-3.53,1.76c-0.8,0.54-8.39,0.65-12.8-2.66
			c-1.78-1.33-2.4-3.14-2.63-5.12c-0.06-0.51-0.13-1.02-0.19-1.52c1.38,1.2,2.77,2.84,3.98,3.41c3.19,1.5,7.95,2.3,8.83,2.25
			c0.89-0.05,4.65-2.13,8.05-0.98c3.38,1.15,7.06,4.4,10.02,5.8c2.97,1.4,13.16,3.08,20.06,3.5c6.9,0.41,10.25-1.32,13.05-3.14
			c0.68-0.44,1.39-1.08,2.09-1.79c0.06,0.22,0.09,0.44,0.12,0.66C233.53,671.76,233.27,672.89,232.58,673.79z"/>
		<path class="st64" d="M182.91,657.48c-0.79,1.79-8.42,2.26-14.14-1.08c-0.82-0.49-1.61-1.07-2.37-1.69
			c-0.22-2.35-0.27-4.85,0.06-7.85c2.03,2.72,4.64,5.66,7.13,6.78C178.72,655.95,183.68,655.68,182.91,657.48z"/>
		<path class="st65" d="M206.57,648.15c-3.72,1.39-7.01,3.69-9.05,7.29c-0.84,1.49-3.21,0.28-2.36-1.22
			c1.99-3.52,4.99-6.05,8.5-7.72c0.34,0.3,0.71,0.59,1.09,0.78C205.36,647.57,205.97,647.85,206.57,648.15z"/>
		<path class="st65" d="M213.43,651.76c-4.04,1.58-7.76,3.78-10.27,7.52c-0.95,1.41-3.33,0.2-2.36-1.22
			c2.49-3.7,5.88-6.14,9.71-7.92C211.49,650.66,212.47,651.2,213.43,651.76z"/>
		<g>
			<path class="st67" d="M178.73,643.38c-0.89,0-1.73-0.05-2.52-0.14c-3.31-0.39-7.47-3.22-7.64-3.35c-0.2-0.14-0.25-0.41-0.11-0.62
				c0.14-0.2,0.41-0.25,0.62-0.11c0.04,0.03,4.15,2.83,7.25,3.2c3.16,0.37,7.33-0.05,11.15-1.14c3.64-1.04,5.39-2.92,5.4-2.94
				c0.16-0.18,0.45-0.2,0.63-0.03c0.18,0.16,0.2,0.44,0.03,0.63c-0.08,0.08-1.91,2.09-5.82,3.2
				C184.72,642.93,181.52,643.38,178.73,643.38z"/>
		</g>
		<g>
			<path class="st67" d="M215.68,672.36c-5.09,0-10.32-1.02-15.04-3.07c-1.83-0.79-3.6-1.79-5.31-2.75
				c-1.63-0.92-3.31-1.87-5.04-2.63c-0.22-0.1-0.33-0.36-0.23-0.58c0.1-0.22,0.36-0.33,0.58-0.23c1.77,0.78,3.47,1.74,5.12,2.67
				c1.69,0.95,3.43,1.94,5.22,2.71c9.29,4.02,20.57,3.99,28.72-0.07c0.22-0.11,0.49-0.02,0.6,0.2c0.11,0.22,0.02,0.49-0.2,0.6
				C225.88,671.3,220.85,672.36,215.68,672.36z"/>
		</g>
	</g>
	<g>
		<path class="st31" d="M180.55,280.52c0,0,9.57-12.97,13.28-24.42c3.33-10.26,15.51-59.53,15.51-59.53l-13.25-3.62
			c0,0-24.76,43.55-27.78,51.29c-3.01,7.74-4.75,14.93-4.75,14.93l2.57,16.33L180.55,280.52z"/>
		<g>
			<path class="st31" d="M196.38,194.24c2.45,3.98,6.68,12.08,6.68,12.08s32.29-21.09,33.81-22.2c0.75-0.55,1.49-1.14,2.14-1.81
				c0.7-0.72,1.77-1.57,1.25-2.7c-0.81-1.78-4.74,0.13-4.74,0.13s6.68-6.28,7.28-7.25c0.57-0.92,1.66-2.21,1.27-3.37
				c-0.16-0.47-0.6-0.96-1.1-1.08c-0.1-0.03-1.08-0.02-1.07,0.09c0.63-0.9,0.35-1.91-0.43-2.47c-1.33-0.96-4.31,0.41-6.01,1.4
				c-4.53,2.63-9.76,5.54-14.06,8.53c0.53-0.37,0.99-1.23,1.39-1.74c0.49-0.61,0.97-1.23,1.46-1.84c0.97-1.23,1.93-2.46,2.89-3.7
				c0.88-1.13,1.76-2.26,2.65-3.37c0.48-0.6,2.34-2.57,2.3-3.53c-0.08-1.86-2.3-1.57-3.05-1.37c-1.41,0.38-2.59,1.41-3.64,2.38
				c-3.61,3.38-7.09,6.9-10.64,10.34c-1.64,1.59-3.25,3.24-5.11,4.57c-0.82,0.59-2.39,1.83-3.38,1.86c-3,0.09-1.16-3.92-0.25-5.58
				c1.01-1.86,3.34-8.91,1.69-9.34c-1.96-0.5-3.8,2.51-4.7,3.8c-1.65,2.36-2.75,4.94-4.12,7.45
				C195.94,180.99,192.75,188.35,196.38,194.24z"/>
			<g>
				<path class="st66" d="M240.86,168.82c0.19-0.04,0.39,0.02,0.52,0.19c0.16,0.22,0.11,0.53-0.11,0.69l-16.21,11.83
					c-0.22,0.16-0.53,0.11-0.69-0.11c-0.16-0.22-0.11-0.53,0.11-0.69l16.21-11.83C240.73,168.86,240.8,168.83,240.86,168.82z"/>
			</g>
			<g>
				<path class="st66" d="M234.64,179.68c0.2-0.05,0.42,0.04,0.54,0.22c0.14,0.23,0.07,0.54-0.16,0.68l-7.6,4.67
					c-0.23,0.14-0.54,0.07-0.68-0.16c-0.14-0.23-0.07-0.54,0.16-0.68l7.6-4.67C234.54,179.71,234.59,179.69,234.64,179.68z"/>
			</g>
		</g>
	</g>
	<path class="st70" d="M146.99,238.02c-0.01,0-0.02,0-0.03,0c0,0.01,0,0.03,0,0.04C146.97,238.05,146.98,238.03,146.99,238.02z"/>
	<path class="st31" d="M149.42,242.68c-5.73-2.93-11.54-5.7-17.42-8.34c-9.63-4.33-18.01-8.69-25.96-15.71
		c-6.19-5.46-14.51-14.79-23.81-11.99c-7.73,2.33-9.3,11.46-10.74,18.17c-7.12,33.32,26.33,31.24,48.59,40.99
		c11.01,4.82,22.45,8.74,34.13,11.8c8.5,2.23,31.73,10.01,30.84-7.08c-0.61-11.85-17.97-18.33-26.41-22.95
		C155.6,245.89,152.52,244.26,149.42,242.68z"/>
	<g>
		<g>
			<path class="st71" d="M153.93,454.85c4.53,10.19,7.82,20.86,12.54,30.97c2.4,5.15,4.87,10.45,5.53,16.16
				c0.59,5.08,0.08,10.2,1.18,15.24c0.12,0.56,0.98,0.32,0.86-0.24c-1.13-5.16-0.51-10.42-1.22-15.61
				c-0.73-5.34-2.95-10.34-5.21-15.19c-4.83-10.4-8.27-21.32-12.92-31.78C154.47,453.88,153.7,454.33,153.93,454.85L153.93,454.85z"
				/>
		</g>
	</g>
	<g>
		<g>
			<path class="st67" d="M140.39,408.71c1.39,6.84,4.58,13.06,6.69,19.67c1.21,3.8,1.96,9.01,4.83,11.98
				c0.4,0.41,1.02-0.22,0.63-0.63c-2.95-3.05-3.61-8.66-4.92-12.57c-2.11-6.25-5.05-12.19-6.37-18.7
				C141.14,407.92,140.28,408.16,140.39,408.71L140.39,408.71z"/>
		</g>
	</g>
	<g>
		<g>
			<path class="st49" d="M76.44,302.57c10.55,6.38,22.65,6.14,34.38,8.46c0.56,0.11,0.8-0.74,0.24-0.86
				c-11.65-2.31-23.7-2.04-34.17-8.37C76.4,301.51,75.95,302.28,76.44,302.57L76.44,302.57z"/>
		</g>
	</g>
	<g>
		<g>
			<path class="st49" d="M70.65,310.75c6.95,0.05,13.84,0.82,20.75,1.5c0.57,0.06,0.56-0.83,0-0.89c-6.9-0.68-13.8-1.46-20.75-1.5
				C70.08,309.86,70.08,310.75,70.65,310.75L70.65,310.75z"/>
		</g>
	</g>
	<g>
		<g>
			<path class="st49" d="M164.93,361.35c-2.79,5.48-8,7.29-13.84,7.54c-5.82,0.25-11.68-0.33-17.5-0.31
				c-7.07,0.02-14.14,0.41-21.11,1.63c-4.99,0.87-10.88,1.07-14.79,4.69c-0.42,0.39,0.21,1.01,0.63,0.63
				c2.4-2.22,5.61-2.96,8.74-3.52c3.43-0.6,6.88-1.22,10.33-1.65c7.51-0.94,15.13-1.02,22.69-0.83c9.14,0.23,20.67,1.99,25.62-7.73
				C165.95,361.29,165.19,360.84,164.93,361.35L164.93,361.35z"/>
		</g>
	</g>
	<g>
		<g>
			<path class="st49" d="M144.52,372.14c-6.63,1.18-13.22,2.53-19.8,3.96c-0.56,0.12-0.32,0.98,0.24,0.86
				c6.58-1.43,13.17-2.78,19.8-3.96C145.31,372.9,145.07,372.04,144.52,372.14L144.52,372.14z"/>
		</g>
	</g>
	<path class="st1" d="M103.34,196.18c4.54,4.91,8.36,10.29,11.02,16.53c1.89,4.44,4.24,9.56,7.02,13.52
		c2.53,3.61,5.95,5.19,9.43,7.58c-5.08-9.64-7.13-20.36-12.27-30.04c-1.61-3.04-2.74-6.39-6.11-7.58
		C109.94,195.31,106.78,195.57,103.34,196.18z"/>
	<path class="st1" d="M140.84,237.84c-0.44-0.05-0.72,0.1-0.96-0.19c10.65-0.75,10.14-11.17,9.78-19.57
		c-0.17-3.98-0.5-15.21,5.61-13.54c0.39,5.24-0.47,11.33-0.69,16.67c-0.21,5.34-1.21,11.17-3.21,16.12
		c-0.8,1.98-1.56,3.97-3.54,3.94C146.43,241.25,141.61,238.64,140.84,237.84z"/>
	<g>
		<g>
			<path class="st49" d="M118.68,285.54c4.07,0.73,8.13,1,12.25,0.58c1.77-0.18,3.52-0.46,5.26-0.78c2.4-0.44,4.94-1.3,7.38-0.78
				c2.24,0.47,4.02,2.08,5.84,3.36c1.49,1.04,3.02,2.04,4.62,2.92c3.23,1.78,6.66,2.99,10.27,3.76c0.56,0.12,0.79-0.74,0.24-0.86
				c-4.04-0.86-7.82-2.29-11.37-4.43c-3.02-1.81-5.84-4.83-9.35-5.6c-3.41-0.75-7.11,0.73-10.48,1.22
				c-4.85,0.72-9.59,0.62-14.42-0.24C118.36,284.59,118.12,285.44,118.68,285.54L118.68,285.54z"/>
		</g>
	</g>
	<g>
		<g>
			<path class="st49" d="M145.93,291.06c0.57,0,0.57-0.89,0-0.89C145.36,290.18,145.36,291.06,145.93,291.06L145.93,291.06z"/>
		</g>
	</g>
</g>
<g>
	<path class="st25" d="M714.08,303.49c0,0-8.29,11.88-16.88,18.46c-7.7,5.9-48.22,34.14-48.22,34.14l-8.56-10.58
		c0,0,34.27-36.06,39.95-40.93c5.68-4.87,11.23-8.52,11.23-8.52l14.39-2.92L714.08,303.49z"/>
	<path class="st6" d="M646.22,150c-3.86-4.55-13.01,2.74-15.51,6.48c-3.16,4.74-4.29,12.13-3.24,17.64
		c1.22,6.4,3.32,12.43,4.13,18.99c0.8,6.45,1.36,12.87,2.31,19.3c1.6,10.77,10.56,22.6,20.96,26.46
		c13.99,5.19,27.21-8.66,19.32-21.94c-3.22-5.42-7.5-10.19-10.59-15.69c-3.42-6.1-4.58-12.69-5.91-19.45
		c-1.34-6.79-2.95-13.74-4.79-20.39C650.98,154.45,648.21,153.4,646.22,150z"/>
	<path class="st25" d="M665.47,203.85c0.03,0.09,0.08,0.17,0.11,0.26c0.69-3.57,6.22-5.28,7.73-1.41c1.62-0.7,4.38-5.17,3.55-8.09
		c-1.53-5.38,2.68-5.89,4.2-0.55c1.7,5.97,3.39,11.93,5.09,17.9c1.22,4.28,1.28,11.07,5.72,13.62c3,1.72,6.87-0.19,9.93-0.52
		c5.45-0.6,5.5,2.85,4.85,8.01c-0.98,7.82-2.89,17.1-5.92,24.36c-5.84,13.99-19.62,16.94-30.79,6.71
		c-4.41-4.03-11.45-11.76-8.66-18.22c1.37-3.17,5.95-5.09,6.5-8.86c0.83-5.68-1.2-9.41-3.25-14.34c-2.36-5.7-5.23-9.99-6.84-15.94
		C656.43,202.07,663.71,199.25,665.47,203.85z"/>
	<path class="st25" d="M699.02,452.53c-1.94,7.96-2.41,17.38-4.17,25.38c-0.75,3.43-0.73,7.74-0.91,11.16
		c-0.3,5.63,3.5,10.53,4.8,15.66c1.2,4.77,6.07,13.6,11.27,13.66c7.81,0.09,15.51-6.2,15.51-6.2c4.64-10.7,9.29-21.4,13.93-32.1
		c2.88-6.63,9.89-23.28,13.09-29.7c3.18-6.38,7.69-12.99,1.48-18.66c-3.27-2.99-12.44,3.95-16.04,1.49
		c-6.07-4.15-17.62-16.12-24.97-11.13c-6.22,4.23-10.94,18.57-12.74,25.51C699.83,449.24,699.42,450.88,699.02,452.53z"/>
	<path class="st25" d="M645.25,441.27c0,0-20.01,42.53-20.01,42.53c7.44,1.43,14.87,2.86,22.31,4.28c3.06,0.59,3.89,6.45,7.03,6.39
		c2.94-0.06,3.67-1.76,5.17-4.19c3.54-5.7,11.89-15.62,15.74-21.07c4.04-5.72,10.37-11.09,14.62-16.63c2.63-3.43,5.67-6.84,7.8-10.7
		c2.09-3.8-6.72-3.62-8.91-3.67c-4.35-0.1-8.63,0.66-12.92,1.32c-4.98,0.76-8.68,1.63-13.84,1.13c-2.95-0.28-7.46-1.7-10.38-0.99
		C651.86,439.67,645.25,441.27,645.25,441.27z"/>
	<path class="st62" d="M769.81,366.98c-0.5-2.63-1.28-7.53-4.02-8.87c-3.44-1.67-8.48-0.96-12.13-0.78
		c-9.66,0.49-19.33,1.13-28.97,1.97c-8.18,0.71-16.69,1.7-23.83,6.07c-6.48,3.97-10.24,10.08-11.39,17.54
		c-0.63,4.07-0.23,8.21-0.77,12.25c-0.38,2.8-1.06,4.69,0.04,7.54c1.96,5.08,6.46,8.65,9.6,12.95c5.01,6.87,2.02,16.03-2.08,22.73
		c-2.3,3.77-8.01,12.09-3.17,15.77c1.92,1.46,4.96,1.32,7.29,1.41c4.7,0.18,9.33,0.73,13.9,2.24c4.75,1.57,9.48,1.19,14.33,2.97
		c4.65,1.71,10.57,5.14,15.66,4.9c3.47-0.17,4.47-3.13,5.62-6.04c2.23-5.61,4.58-10.89,5.13-16.88c0.62-6.74,3.35-13.82,5.23-20.31
		c1.46-5.04,4.17-9.6,5.69-14.62c1.58-5.21,2.03-11.06,2.86-16.44C770.04,383.37,771.37,375.07,769.81,366.98z"/>
	<path class="st62" d="M712.38,377.16c-1.88-1.76-4.4-3.15-7.37-4.43c-6.12-2.63-14.98-12.21-21.9-6.79
		c-3.07,2.41-5.01,8.56-7.04,11.81c-7.58,12.15-15.34,25.26-21.11,38.36c-2.62,5.96-10.9,19.28-9.47,25.35
		c1.32,5.56,10.01,5.05,15.27,6.37c8.15,2.04,16.11,1.16,24.3,2.04c5.6,0.6,9.81,2.31,14.69-2.09c4.19-3.78,9.97-8.58,13.25-13.11
		c1.24-1.72-3.82-6.09-2.82-8.02c0.54-6.33,0.71-12.61,1.7-18.91c0.95-6.07,2.75-11.93,3.84-17.96
		C716.8,383.84,715.43,380.01,712.38,377.16z"/>
	<path class="st61" d="M676.17,374.05c-3.21,4.47-6.47,8.81-10.03,13c-3.14,3.68-6.69,7.39-7.79,12.3
		c-0.68,3.03-0.88,4.78,0.61,7.27c1.09,1.82,1.87,2.35,3.69,3.11c1.82,0.76,3.79,0.8,5.58,1.69c2.23,1.11,3.71,2.45,6.2,3.14
		c4.34,1.2,7.96,3.3,12.15,4.77c5.19,1.82,10.12,3.22,14.94,6.13c4.1,2.48,8.9,5.66,13.4,7.19c2.35,0.8,4.92,0.83,7.39,1.69
		c3.3,1.15,6.21,2.55,9,4.61c1.42,1.05,2.38,2.26,4.23,2.17c4.35-0.19,5.87-5.75,9.89-6.6c5.61-1.2,2.15,9.81,1.81,13.49
		c-0.41,4.53,2.32,7.69,6.88,7.67c2.87-2,3.79-7.67,4.83-10.87c5.22-16.17,9.34-33.25,12.23-50.04c2.45-14.23,1.86-28.26-2.75-41.94
		c-4.85-14.38-7.42-31.36-9.65-46.47c-1.2-8.11-2.55-16.15-4.21-24.02c-10.25,6.8-14.47-4.97-16.81-13.03
		c-1.81-6.2-4.24-12.18-6.81-18.1c-1.26-2.91-2.55-5.8-3.77-8.73c-1.11-2.65-1.9-5.56-3.47-7.98c-0.59-0.92-1.18-1.68-1.97-2.44
		c-0.24-0.22-1.23-0.88-1.29-1.24c-0.24-1.65,2.43-2.43,3.63-2.95c0.42-0.18,3.9,3.6,3.61,1.17c-0.27-2.25-5.89-4.05-6.4-4.15
		c-3.69-0.72-3.96-0.65-7.76-0.81c-2.29-0.1-4.26-0.3-5.92,0.04c2.54,17.97,1.24,42.57-17.07,49.6c-6.91,2.66-13.5-1.04-18.37-5.86
		c-2.46-2.43-4.6-5.17-6.58-8c-1.82-2.6-2.4-5.87-3.75-8.81c-0.8-1.74-0.98-4.66-2.13-6.07c-2,0.9-1.59,5.59-1.42,7.26
		c0.16,1.61,0.41,3.25,0.71,4.83c1.33,7.11,1.73,14.45,2.11,21.71c0.2,3.91,0.19,8.26,1.08,12.05c1.28,5.35,4.91,9.65,7.72,14.17
		c8.5,13.69,9.99,28.24,7.8,44.13c-0.54,3.93-0.6,8.04-0.24,12c0.24,2.64,1.63,5.5,1.19,8.14c-0.22,1.33-0.74,2.31-1.4,3.3
		C676.92,373.02,676.55,373.51,676.17,374.05z"/>
	<path class="st25" d="M647.3,614.05l-14.31-5.32c0,0-4.19-54.96-6.61-90.27c-0.96-14.06-1.65-25.01-1.68-28.12
		c-0.1-10.92,5.88-15.11,5.88-15.11l29.89,13.74c0,0,2.16,12.34,2.07,22.23c-0.02,2.1-0.15,4.47-0.38,7.06
		c-0.83,9.63-2.95,22.3-5.12,35.33C653.14,576.95,647.3,614.05,647.3,614.05z"/>
	<path class="st25" d="M747.98,626.93l-15.04-1.32c0,0-18.15-60.93-27.97-94.91c-3.08-10.65-5.34-18.64-5.97-21.31
		c-2.64-11.18,2.18-33.37,2.18-33.37l30.36,18.71c0,0,4.95,12.04,7.18,22.22c0.24,1.06,0.46,2.21,0.66,3.42
		c1.8,10.37,2.83,25.77,3.9,41.68C744.97,587.15,747.98,626.93,747.98,626.93z"/>
	<path class="st61" d="M650.3,607.17l-8.54,9.7l-8.77-8.14c0,0-3.53-46.31-5.99-81.21c-0.02-0.29-0.03-0.58-0.06-0.88
		c-0.08-1.12-0.16-2.24-0.23-3.33c-0.02-0.29-0.04-0.59-0.06-0.88c-0.09-1.35-0.19-2.67-0.27-3.97c0.77-0.01,1.48,0.02,2.06-0.02
		c4.47-0.28,8.92-0.44,13.36-0.46c4.69-0.03,9.36,0.09,14.01,0.35c1.54,0.08,3.99-0.11,6.35-0.07c-0.13,1.5-0.29,3.07-0.48,4.7
		c-0.03,0.29-0.06,0.59-0.1,0.87c-0.11,0.98-0.24,1.97-0.37,2.98c-0.04,0.3-0.07,0.59-0.12,0.88c-1.04,7.85-2.53,16.78-4.05,25.89
		C653.14,576.95,650.3,607.17,650.3,607.17z"/>
	<path class="st62" d="M652.88,632.88c0.25-1.06,0.39-2.19,0.53-3.32c0.09-0.69,0.14-1.38,0.18-2.06c0.58-2.85,0.72-5.87,0.75-8.82
		c0-0.03-0.01-0.05-0.01-0.08c0.14-6.2-4.04-11.43-4.04-11.43s-6.75,4.54-10.01,3.89c-2.08-0.42-3.52-1.3-4.12-3.63
		c-0.18-0.69-0.33-1.33-0.78-1.88c-1.28-1.55-3.52-1.52-5.26-1.1c-2.13,0.51-2.55,2.82-3.42,4.78c-0.06,0.14-0.04,0.26,0.01,0.37
		c-1.91,0.92-3.88,1.76-5.88,2.56c-0.74,0.3-1.49,0.59-2.25,0.88c-1.37,0.53-2.76,1.05-4.15,1.55c-0.76,0.28-1.54,0.57-2.3,0.85
		c-2.68,0.98-5.34,1.97-7.9,3.05c-8.6,3.64-13.98,8.08-16.09,11.88c-0.39,0.72-0.67,1.42-0.84,2.08c-0.32,1.24-0.22,2.38,0.29,3.34
		c1.74,3.28,7.84,5.62,10.89,6.11c4.94,0.78,9.96,0.49,14.9-0.16c4.41-0.56,9.62-0.8,13.64-3.02c1.05-0.58,1.8-1.58,2.75-2.32
		c0.18-0.15,0.37-0.26,0.55-0.35c1.16-0.07,2.32-0.04,3.49,0.15c0.62,0.3,1.23,0.67,1.84,1.03c4.31,2.49,9.93,2.82,14.27,0.16
		C651.67,636.34,652.45,634.71,652.88,632.88z"/>
	<path class="st61" d="M749.06,622.81l-16.66,1.17c0,0-15.41-51.7-25.5-86.42c-0.09-0.3-0.18-0.59-0.26-0.88
		c-0.34-1.15-0.67-2.29-0.99-3.39c-0.09-0.3-0.17-0.59-0.26-0.88c-0.33-1.14-0.65-2.25-0.96-3.33c0.09-0.03,0.17-0.05,0.25-0.07
		c2.21-0.72,20.24-6.76,22.47-7.37c2.35-0.64,4.72-1.21,7.1-1.73c1.1-0.23,3.02-0.95,4.6-1.15c0.21,1.23,0.42,2.52,0.61,3.89
		c0.04,0.3,0.08,0.61,0.12,0.92c0.19,1.38,0.37,2.84,0.54,4.35c0.04,0.3,0.07,0.61,0.1,0.92c1.02,9.18,1.76,20.27,2.52,31.6
		C744.43,585.52,749.06,622.81,749.06,622.81z"/>
	<path class="st62" d="M757.8,638.24c-0.07-1.17-0.25-2.36-0.44-3.55c-0.12-0.75-0.26-1.5-0.41-2.24c-0.05-0.62-0.12-1.25-0.21-1.88
		c-0.34-2.59-0.95-5.18-1.61-7.7c-0.01-0.03-0.02-0.05-0.03-0.07c-0.06-0.23-0.11-0.45-0.19-0.67c-1.85-6.21-7.12-9.94-7.12-9.94
		s-5.38,7.23-8.79,7.71c-2.18,0.31-3.87-0.1-5.14-2.34c-0.38-0.67-0.71-1.3-1.32-1.71c-1.73-1.18-3.93-0.32-5.53,0.74
		c-1.96,1.29-1.71,3.89-2,6.27c-0.02,0.17,0.03,0.29,0.11,0.38c-1.83,1.88-3.77,3.67-5.76,5.44c-0.72,0.64-1.45,1.27-2.18,1.9
		c-1.34,1.16-2.7,2.3-4.05,3.45c-0.72,0.61-1.44,1.21-2.16,1.83c-1.9,1.61-3.76,3.23-5.54,4.89c-8.89,8.24-12.91,16.04-12.72,20.84
		c0.05,1.42,0.47,2.58,1.26,3.41c2.67,2.83,9.39,3.1,12.56,2.51c5.12-0.95,10.01-3.08,14.71-5.53c4.21-2.19,9.29-4.32,12.64-8.11
		c0.88-1,1.32-2.32,2.05-3.45c0.14-0.22,0.29-0.4,0.45-0.57c1.13-0.49,2.29-0.88,3.5-1.09c0.7,0.09,1.42,0.26,2.13,0.41
		c4.99,1.07,10.65-0.61,14.18-4.97C757.64,642.45,757.92,640.39,757.8,638.24z"/>
	<path class="st63" d="M755.31,644.61c-3.58,4.31-9.27,5.92-14.24,4.79c-0.71-0.16-1.43-0.34-2.12-0.44
		c-1.22,0.2-2.38,0.57-3.52,1.05c-0.16,0.16-0.31,0.35-0.45,0.56c-0.74,1.12-1.2,2.44-2.09,3.42c-3.39,3.75-8.5,5.81-12.74,7.95
		c-4.74,2.39-9.66,4.45-14.78,5.34c-3.18,0.55-9.9,0.19-12.53-2.68c-0.78-0.84-1.19-2.01-1.22-3.43c2.36,1.7,6.75,3.01,12.35,2.85
		c8.95-0.26,24.91-10.07,26.92-12.6c2.02-2.54,4.52-4.65,6.77-5.23c2.26-0.56,4.48,1.41,9.33-0.05c2.84-0.85,7-4.56,9.98-7.49
		C757.06,640.82,756.75,642.87,755.31,644.61z"/>
	<path class="st63" d="M649.95,637.38c-4.34,2.66-9.95,2.33-14.27-0.16c-0.61-0.36-1.22-0.73-1.84-1.03
		c-1.17-0.19-2.33-0.22-3.49-0.15c-0.18,0.1-0.37,0.21-0.55,0.35c-0.95,0.74-1.7,1.74-2.75,2.32c-4.02,2.22-9.23,2.46-13.64,3.02
		c-4.93,0.64-9.96,0.93-14.9,0.16c-3.06-0.49-9.16-2.83-10.89-6.11c-0.51-0.96-0.61-2.1-0.29-3.34c1.8,1.5,4.43,3.87,8.31,5.28
		c10.92,3.97,26.81-1.06,29.28-2.21c2.48-1.15,4.73-3.58,9.05-2.38c4.32,1.19,5.84,2.88,12.83,2.05c2.36-0.28,4.41-1.22,6.08-2.32
		C652.45,634.71,651.67,636.34,649.95,637.38z"/>
	<path class="st72" d="M756.75,630.57c-0.89,1.55-1.95,3.06-3.17,4.31c-4.47,4.57-11.31,5.64-12.33,3.96
		c-1.01-1.69,3.44-2.41,7.58-5.82c2.56-2.11,4.78-7.27,6.09-10.89c0.07,0.22,0.13,0.44,0.19,0.67c0.01,0.02,0.02,0.04,0.03,0.07
		C755.8,625.39,756.42,627.98,756.75,630.57z"/>
	<path class="st72" d="M654.34,619.2c-2.32,2.42-5.32,5.08-7.88,5.78c-5.01,1.38-9.45,0.25-9.03,2.15c0.43,1.9,7.25,3.68,12.94,1.39
		c1.17-0.48,2.32-1.14,3.39-1.87L654.34,619.2z"/>
	<path class="st72" d="M715.46,640.81c-1.39-2.01-3.24-3.69-5.27-5.12c0.73-0.61,1.45-1.21,2.18-1.8c1.93,1.46,3.68,3.14,5.04,5.11
		C718.41,640.44,716.47,642.26,715.46,640.81z"/>
	<path class="st72" d="M722.86,635.18c-1.52-1.91-3.53-3.37-5.66-4.6c0.73-0.63,1.46-1.26,2.18-1.9c2.02,1.28,3.9,2.77,5.4,4.66
		C725.88,634.72,723.95,636.55,722.86,635.18z"/>
	<path class="st72" d="M621.36,619.98c-0.58-2.46-1.6-4.74-2.76-6.95c0.76-0.29,1.5-0.58,2.25-0.88c1.21,2.37,2.26,4.82,2.89,7.5
		C624.14,621.28,621.74,621.59,621.36,619.98z"/>
	<path class="st72" d="M614.88,622.03c-0.8-2.27-1.71-4.46-2.73-6.6c0.76-0.28,1.54-0.57,2.3-0.85c0.99,2.09,1.88,4.25,2.66,6.47
		C617.66,622.62,615.43,623.6,614.88,622.03z"/>
	<path class="st67" d="M699.8,660.47c-3.72-0.46-6.59-1.76-6.76-1.84c-0.21-0.1-0.32-0.38-0.23-0.63c0.09-0.25,0.33-0.37,0.54-0.27
		c0.06,0.03,6.49,2.95,12.5,1.55c6.34-1.47,15.91-5.38,20.49-8.37c2.7-1.76,6.58-5.81,6.62-5.85c0.17-0.18,0.43-0.16,0.59,0.03
		c0.15,0.2,0.14,0.5-0.03,0.68c-0.16,0.17-3.98,4.16-6.77,5.98c-4.64,3.02-14.33,6.98-20.73,8.47
		C703.87,660.72,701.72,660.71,699.8,660.47z"/>
	<path class="st67" d="M731.39,625.69c-3.06-0.34-5.44-1.45-5.59-1.53c-0.21-0.1-0.31-0.38-0.23-0.63c0.09-0.25,0.33-0.36,0.54-0.26
		c0.06,0.03,5.86,2.74,10.9,0.9c5.07-1.85,11.18-10.11,11.24-10.2c0.15-0.2,0.41-0.23,0.59-0.05c0.18,0.17,0.2,0.48,0.05,0.68
		c-0.26,0.35-6.32,8.55-11.62,10.49C735.27,625.82,733.21,625.89,731.39,625.69z"/>
	<path class="st67" d="M631.69,614.05c-3.07-1.41-4.63-3.44-4.72-3.57c-0.14-0.19-0.11-0.46,0.06-0.61
		c0.17-0.15,0.42-0.13,0.56,0.06c0.03,0.04,3.42,4.43,10.03,4.59c6.67,0.17,12.12-4.69,12.17-4.74c0.17-0.15,0.42-0.13,0.56,0.06
		c0.14,0.18,0.12,0.46-0.05,0.61c-0.23,0.21-5.74,5.12-12.7,4.94C635.23,615.34,633.26,614.77,631.69,614.05z"/>
	<path class="st67" d="M594.15,634.44c-3.64-1.67-4.69-3.78-4.75-3.91c-0.1-0.21-0.03-0.48,0.17-0.59c0.2-0.11,0.44-0.03,0.54,0.18
		c0.03,0.07,2.07,3.98,10.28,5.16c8.42,1.21,20.22-1.88,20.33-1.91c0.21-0.06,0.43,0.08,0.48,0.32c0.05,0.23-0.08,0.47-0.29,0.53
		c-0.12,0.03-12.06,3.16-20.63,1.93C597.69,635.78,595.69,635.15,594.15,634.44z"/>
	<path class="st73" d="M620.95,374.76c0-0.24,0-0.48,0-0.72"/>
	<path class="st25" d="M770.23,278.92c4.79,7.9,10.88,17.77,10.34,28.16c-0.22,4.23-1.52,12.71-4.81,15.22
		c-3.12,2.38-4.82-0.35-6.6-3.1c-2.31-3.57-5.78-4.46-7.93-8c-9.41-15.52-18.92-27.78-37.92-47.98c-7.11-7.56-7.76-18.64-5.13-29.59
		c1.98-8.24,5.35-9.29,11.4-5.5c6.4,4.01,12.15,9.62,17.2,15.84c7.23,8.9,13.68,18.64,19.72,28.82
		C767.73,274.84,768.99,276.87,770.23,278.92z"/>
	<path class="st25" d="M780.52,302.11c0.8,4.41-1.77,16.23-6.19,27.21c-3.96,9.85-25.23,54.45-25.23,54.45l-10.08-6.7
		c0,0,10.39-49.3,13.07-57.08c2.68-7.78,5.81-14.26,5.81-14.26l11.03-10.13C768.93,295.61,779.72,297.71,780.52,302.11z"/>
	<path class="st25" d="M746.66,393.34c1.65-4.93,5.16-16.85,5.16-16.85l-9.67-10c0,0-4.97,1.17-9.34,4.34
		c-2.07,1.28-4.21,2.81-5.04,5.61c-0.93,3.1-1.78,5.68-2.1,8.9c-0.15,1.48-1.5,5.22,0.02,6.32c0.25,0.18,0.52,0.25,0.8,0.23
		c0.06,2.48-0.02,5.11,2.5,5.7c1.11,0.26,2.13-0.1,3.05-0.76c0.88,2.31,2.49,2.8,4.21,2.37c0.8,0.21,1.59,0.5,2.42,0.55
		c1.13,0.06,2.29-0.24,3.38-0.56C744.46,398.48,745.79,395.97,746.66,393.34z"/>
	<path class="st6" d="M727.01,390.89c-0.17-0.12-0.26-0.37-0.19-0.61l2.24-8.38c0.07-0.27,0.31-0.42,0.53-0.33
		c0.22,0.08,0.35,0.38,0.27,0.65l-2.24,8.38c-0.07,0.27-0.31,0.42-0.53,0.33C727.06,390.92,727.03,390.9,727.01,390.89z"/>
	<path class="st6" d="M732.04,396.11c-0.18-0.13-0.27-0.4-0.18-0.65l1.67-4.85c0.09-0.26,0.34-0.39,0.56-0.28
		c0.21,0.11,0.32,0.41,0.23,0.68l-1.67,4.85c-0.09,0.26-0.34,0.39-0.56,0.28C732.07,396.13,732.06,396.12,732.04,396.11z"/>
	<path class="st6" d="M736.66,398.45c-0.2-0.14-0.28-0.45-0.16-0.7l2.08-4.49c0.12-0.25,0.37-0.34,0.58-0.2
		c0.2,0.14,0.28,0.45,0.16,0.7l-2.08,4.49C737.12,398.5,736.86,398.59,736.66,398.45z"/>
	<path class="st6" d="M742.05,397.71c-0.2-0.14-0.28-0.45-0.16-0.7l0.94-2.02c0.12-0.25,0.37-0.34,0.58-0.2
		c0.2,0.14,0.28,0.45,0.16,0.7l-0.94,2.02C742.52,397.76,742.26,397.85,742.05,397.71z"/>
	<path class="st74" d="M680.23,210.26c-0.02,6.2-3.61,18.28-10.49,20.36c-1.82,0.55-1.6,0.91-2.7-0.92
		c-0.53-0.88-1.26-3.53-1.29-4.56c-0.07-2.94,4.41-5.44,6.78-7.69C674.44,215.63,677.42,211.3,680.23,210.26z"/>
	<path class="st1" d="M659.52,246.35c0.44,1.98,1.28,3.93,1.92,5.78c2.16,6.2,6.92,12.25,11.72,16.67
		c4.73,4.36,10.96,7.37,17.37,4.91c18.3-7.03,19.61-31.63,17.07-49.6c-1.91,0.38-3.42,1.48-4.54,4.25
		c-1.78,4.41-1.5,9.38-2.16,14.01c-0.85,6.05-1.99,13.81-5.44,18.99c-9.06,13.58-26.9,0.59-31.02-10.5
		c-0.56-1.51-0.93-3.09-1.13-4.69c-0.17-1.4,0.48-4.74-0.22-5.83c-1.99-3.09-3.94,2.95-3.84,4.26
		C659.29,245.17,659.39,245.76,659.52,246.35z"/>
	<path class="st73" d="M656.01,258.56C656.14,258.7,656.14,258.7,656.01,258.56"/>
	<g>
		<path class="st25" d="M638.05,159.09c0.43-1.09,0.9-2.16,1.42-3.18c7.49-14.9,29.55-21.55,42.78-10.22
			c8.19,7.02,9.45,18.29,8.13,28.4c-0.73,5.59-2.21,11.08-4.07,16.39c-0.46,1.3-0.8,2.19-0.73,3.5c0.07,1.45,0.4,2.84,0.35,4.31
			c-0.09,2.94-0.76,5.86-1.76,8.63c-1.13,3.13-3.25,6.21-5.29,8.84c-2.89,3.74-6.73,8.55-10.97,10.77
			c-2.83,1.48-5.08,1.74-8.23,1.14c-7.9-1.51-12.84-7.19-17.3-13.51c-2.76-3.92-3.31-8.5-4-13.1c-1.11-7.44-0.65-15.18-2.67-22.4
			c-0.75-2.69-1.87-7.74-1.49-10.5C634.74,164.35,636.62,162.71,638.05,159.09z"/>
		<path class="st6" d="M659.01,174.1c3.1,0.01,8.08-0.26,10.44,2.18c0.35,0.36,0.29,1,0.02,1.39c-1.1,1.58-4.6,0.51-6.14,0.32
			c-1.85-0.23-4.47-0.11-5.45-1.99c-0.11-0.21-0.12-0.44-0.07-0.66C657.82,174.74,658.24,174.1,659.01,174.1z"/>
		<path class="st6" d="M646.84,175.74c-3.06,0.47-8.02,0.96-10,3.72c-0.29,0.41-0.13,1.04,0.19,1.37c1.33,1.39,4.62-0.18,6.12-0.6
			c1.8-0.5,4.4-0.78,5.1-2.78c0.08-0.22,0.05-0.45-0.03-0.66C648.11,176.19,647.6,175.62,646.84,175.74z"/>
		<path class="st57" d="M655.95,198.29c-2.19,0.11-3.17-0.76-3.21-2.95c-0.02-1.62,0.16-3.24,0.43-4.83
			c0.24-1.44-1.27-2.65-1.51-1.2c-0.4,2.43-1.06,5.65-0.11,8.02c0.85,2.1,3.08,2.69,5.15,2.58
			C658.16,199.84,657.42,198.21,655.95,198.29z"/>
		<path class="st6" d="M646.02,145.48c-4.74,2.39-10.09,7.36-11.45,12.72c-0.95,3.74-1.23,9.28-0.28,12.98
			c1.75-4.12,4.28-7.39,8.28-8.91c2.92-1.11,5.93-2.62,7.96-5.08c2.16-2.62,2.08-3.24,2.94-6.25c0.18-0.19,0.37-0.37,0.55-0.56
			c0.07-0.07,0.11-0.15,0.16-0.23c0.14-0.14,0.29-0.27,0.42-0.41c0.46-0.47,0.36-1.16,0.01-1.6c0.53-0.23,1.07-0.46,1.63-0.67
			c1.07-0.4,0.6-1.86-0.33-2.1c-0.02-0.07-0.07-0.15-0.11-0.22c0.81-0.1,1.62-0.18,2.44-0.24c1.45-0.1,1.56-2.37,0.1-2.27
			C654.13,142.93,649.83,143.56,646.02,145.48z"/>
		<path class="st6" d="M683.43,216.64c0.38,4.37,1.65,8.53,4.74,12.12c1.65,1.91,3.9,4,6.42,4.6c2.72,0.65,5.53-0.46,8.01-1.67
			c6.55-3.19,13.53-9.31,21.21-6.49c2.74,1.01,6.21,4.09,8.2,0.47c2.74-4.98-2.61-13.55-4.8-17.8c-1.36-2.65-2.24-5.29-2.92-8.15
			c-1.08-4.54-2.79-7.35-5.97-10.75c-4.68-5.01-8.5-11.01-12.04-16.87c-2.98-4.94-3.33-10.86-6.48-15.95
			c-4.57-7.39-12.02-12.81-20.05-15.93c-8.2-3.18-16.58-2.03-25.05-0.7c-5.63,0.89-11.48,2.4-14.25,7.84
			c-2.3,4.51-1.96,10.7,0.66,14.83c6.86,10.8,22.42-0.01,29.96,9.97c1.79,2.36,3.12,5.03,5.25,7.16c2.11,2.11,4.76,3.29,6.06,6.17
			c1.91,4.24,2.22,10.42,1.85,15.02C683.79,205.76,682.96,211.35,683.43,216.64z"/>
		<path class="st25" d="M677.51,196.48c1.42-1.59,3.73-2.48,4.97-4.16c0.78-1.06,0.94-2.48,0.88-3.76c-0.02-0.35-0.9-4.32-1.79-2.88
			c-1.61,2.61-5.9,0.43-4.27-2.21c3.1-5.01,9.42-2.48,10.58,2.63c0.57,2.5,0.38,5.61-0.81,7.92c-1.34,2.6-4.12,3.59-5.99,5.67
			C679.01,201.99,675.44,198.78,677.51,196.48z"/>
		<path class="st75" d="M702.47,190.03c1.47,5.14,2.48,10.35,2.98,15.67c0.14,1.45,2.41,1.48,2.28,0.02
			c-0.52-5.53-1.53-10.94-3.06-16.28C704.27,188.04,702.07,188.62,702.47,190.03z"/>
		<path class="st76" d="M666.41,210.36c0.44-0.61,0.74-1.34,0.92-2.07c0.17-0.71,0.33-1.45-0.46-1.83
			c-0.54-0.27-1.19-0.27-1.78-0.14s-1.14,0.39-1.7,0.64c-2.19,0.99-4.43,1.86-6.71,2.59c-1.03,0.33-2.08,0.65-3.03,1.18
			c-0.27,0.15-0.56,0.35-0.64,0.66c-0.1,0.4,0.19,0.77,0.4,1.13c0.25,0.43,0.25,1,0.54,1.38c0.3,0.39,0.79,0.61,1.27,0.74
			c1.49,0.41,2.96,0.02,4.41-0.33c1.47-0.36,2.89-0.94,4.19-1.72C664.81,212.01,665.73,211.29,666.41,210.36z"/>
		<path class="st1" d="M653.49,212.03c1.73-0.4,3.37-1.1,5.06-1.72c2.19-0.79,4.44-1.43,6.58-2.3c0.86-0.36,1.72-0.76,2.56-1.17
			c-0.07-0.19-0.24-0.34-0.49-0.47c-0.56-0.27-1.2-0.27-1.78-0.14c-0.58,0.13-1.15,0.38-1.69,0.63c-2.19,0.99-4.44,1.86-6.72,2.61
			c-1.03,0.33-2.09,0.64-3.02,1.17c-0.28,0.15-0.56,0.35-0.64,0.66C653.27,211.55,653.36,211.79,653.49,212.03z"/>
		<path class="st30" d="M642.08,186.24c1.25-1,3.04-1.29,4.54-0.72c0.43,0.17,0.85,0.4,1.16,0.75c0.5,0.55,0.69,1.32,0.77,2.06
			c0.02,0.18,0.03,0.37-0.03,0.54c-0.06,0.17-0.21,0.33-0.4,0.33c-0.21,0.01-0.38-0.17-0.49-0.35c-0.45-0.67-0.69-1.56-1.41-1.9
			c-0.28-0.13-0.6-0.16-0.91-0.15c-0.74,0.02-1.47,0.23-2.11,0.6c-0.49,0.29-0.94,0.69-1.13,1.23c-0.16,0.44-0.14,0.92-0.21,1.38
			c-0.08,0.53-0.29,1.05-0.61,1.48c-0.09,0.13-0.21,0.26-0.36,0.28c-0.64,0.11-0.44-0.82-0.7-1.12c-0.16-0.19-0.46-0.22-0.69-0.31
			c-0.88-0.34-1.44-1.01-2.15-1.62c0.74,0.01,2.49,0.55,3.08-0.01c0.29-0.27,0.42-1.02,0.65-1.38
			C641.36,186.93,641.7,186.55,642.08,186.24z"/>
		<path class="st30" d="M666.13,182.46c-1.6-0.56-3.44-0.41-4.81,0.72c-0.38,0.32-0.72,0.7-0.92,1.15
			c-0.32,0.73-0.26,1.57-0.08,2.35c0.04,0.19,0.09,0.39,0.21,0.54c0.12,0.15,0.33,0.26,0.51,0.2c0.22-0.07,0.32-0.3,0.38-0.52
			c0.23-0.83,0.17-1.81,0.79-2.4c0.24-0.23,0.55-0.36,0.87-0.46c0.75-0.23,1.57-0.27,2.34-0.11c0.59,0.13,1.19,0.39,1.57,0.86
			c0.31,0.39,0.45,0.88,0.68,1.33c0.23,0.46,1.35,2.04,1.9,1.1c0.24-0.41-0.21-0.7-0.26-1.08c-0.09-0.65,0.37-0.82,0.71-1.27
			c0.48-0.64,0.79-1.42,0.91-2.18c-0.44,0.49-1.76,1.52-2.48,1.31c-0.31-0.09-0.74-0.71-1.04-0.91
			C667.01,182.83,666.58,182.61,666.13,182.46z"/>
	</g>
	<g>
		<g>
			<path class="st67" d="M698.93,427.36c-1.17,4.2-2.24,8.43-3.3,12.65c-1.04,4.13-1.67,8.8-3.65,12.59
				c-0.48,0.93,0.92,1.75,1.41,0.82c1.79-3.43,2.42-7.44,3.36-11.17c1.22-4.83,2.42-9.67,3.76-14.47
				C700.78,426.78,699.21,426.35,698.93,427.36L698.93,427.36z"/>
		</g>
	</g>
	<g>
		<g>
			<path class="st49" d="M720.45,294.19c-6.65,3.24-13.48,6.1-20.51,8.4c-3.26,1.07-6.56,2.05-9.91,2.79
				c-3.04,0.67-5.89,1.14-8.46,3c-0.42,0.3-0.01,1.01,0.41,0.7c2.97-2.15,6.48-2.46,9.94-3.32c3.37-0.84,6.69-1.85,9.98-2.97
				c6.49-2.22,12.81-4.9,18.97-7.9C721.34,294.66,720.92,293.96,720.45,294.19L720.45,294.19z"/>
		</g>
	</g>
	<g>
		<g>
			<path class="st49" d="M682.72,365.35c4.17,0.75,8.3,2,12.2,3.64c3.91,1.64,9.27,4.11,10.46,8.6c0.13-0.17,0.26-0.34,0.39-0.52
				c-3.77-0.07-7.35-2.35-10.76-3.73c-2.5-1.01-5.6-2.22-8.19-0.86c-0.46,0.24-0.05,0.94,0.41,0.7c3.12-1.63,7.53,0.9,10.38,2.15
				c2.58,1.13,5.29,2.49,8.16,2.55c0.27,0.01,0.46-0.26,0.39-0.52c-1.13-4.27-5.76-6.78-9.47-8.49c-4.35-2.01-9.04-3.47-13.76-4.32
				C682.42,364.47,682.2,365.26,682.72,365.35L682.72,365.35z"/>
		</g>
	</g>
	<g>
		<g>
			<path class="st49" d="M700.9,382.47c-2.26-1.18-4.54-2.29-6.93-3.19c-0.49-0.19-0.7,0.6-0.22,0.78c2.32,0.88,4.54,1.96,6.73,3.11
				C700.95,383.42,701.36,382.71,700.9,382.47L700.9,382.47z"/>
		</g>
	</g>
	<g>
		<g>
			<path class="st49" d="M732.43,429.77c-18.2-10.97-40.53-12.41-58.33-24.17c-0.44-0.29-0.85,0.41-0.41,0.7
				c17.81,11.77,40.13,13.21,58.33,24.17C732.46,430.74,732.87,430.04,732.43,429.77L732.43,429.77z"/>
		</g>
	</g>
	<g>
		<g>
			<path class="st49" d="M720.66,414.76c0.52,0,0.52-0.81,0-0.81C720.14,413.95,720.13,414.76,720.66,414.76L720.66,414.76z"/>
		</g>
	</g>
	<path class="st73" d="M727.05,226.13c-8.4-5.9-12.27,6-12.45,12.67c-0.1,3.84,1.31,7.38,2.13,11.06c0.41,1.83,1.86,4.49,1.84,6.22"
		/>
	<path class="st1" d="M727.05,227.22c-3.84-6.63-9.31-2.16-10.84,3.34c-1.95,7-1.38,14.18,0.33,21.12
		c1.05,4.25,2.17,8.72,4.55,12.38c1.4,2.15,4.44,7.64,7.55,6.97c1.08-1.98-2.55-5.59-3.63-7.01c-2.01-2.65-4.54-5.76-5.73-8.86
		c-1.48-3.85-1.2-8.24-1.4-12.25c-0.24-4.83,0.71-9.3,2.71-13.67c0.51-1.11,1.09-3.03,2.38-3.45
		C724.04,225.44,727.3,226.38,727.05,227.22z"/>
	<path class="st25" d="M643.23,343.62c-0.01-0.01,2.1-1.01,2.09-1.02c-0.44-0.27-0.8-0.56-1.28-0.51c-0.77,0.07-2.58,1.95-4.34,1.47
		c-1.72-0.47-3.65-0.77-5.38-1.22c-1.5-0.39-2.99-0.84-4.49-1.26c-0.87-0.24-5.8-2.06-6.37-0.7c-0.6,1.45,4.93,3.1,5.53,5.23
		c0.61,2.14-19.99,10.26-20.11,12.42c-0.12,2.16,13.68-3.89,15.18-2.58c1.5,1.31-16.23,7.73-14.98,9.85
		c1.25,2.12,16.53-6.48,17.32-4.62c0.78,1.86-12.05,7.64-10.53,9.66c1.52,2.02,12.96-8.08,13.32-5.12c0.36,2.95-6.9,4.78-4.42,6.23
		c1.67,0.97,12.69-6.38,15.49-7.53c0.19-0.08,0.37-0.17,0.54-0.27c2.59-1.45,4.84-3.73,7.02-5.73c1.05-0.96,2.09-1.93,3.11-2.93
		c0.58-0.56,0.89-0.89,0.68-1.72c-0.26-1.02-0.92-1.87-1.52-2.71c-0.8-1.11-1.53-2.31-2.47-3.31
		C646.39,345.95,644.78,344.57,643.23,343.62z"/>
</g>
<g>
	<path class="st63" d="M505.08,589.09c-1.91,7.63,2.9,21.01,9.35,25.65c5.23,3.76,16.95,3.3,21.48-1.48
		c4.77-5.03,6.78-12.5,5.73-19.27c-0.41-2.67-4.55-19.18-9.94-15.16c-2.17,1.62-1.02,7.89-1.99,10.24c-1.31,3.2-3.89,4.69-7.33,4.19
		c-3.31-0.48-5.95-3.21-8.92-4.68C510.51,587.11,504.31,586.49,505.08,589.09z"/>
	<path class="st25" d="M495.99,148.91c2.01,3.73,3.62,7.85,4.99,11.53c5.53,14.9,11.36,29.58,17.92,43.92
		c3.14,6.86,8.74,15.64,5.32,23.91c-2.26,5.46-12.21,8.43-17.23,6.85c-9.09-2.86-13.57-18.48-16.51-27.53
		c-3.78-11.65-7.37-23.86-12.6-34.86c-3.21-6.75-5.69-12.55-6.1-20.44c-0.4-7.66,0.47-14.22,7.74-15.07
		C487.11,136.33,492.25,141.96,495.99,148.91z"/>
	<path class="st5" d="M474.3,148.05c1.02-0.25,2.09-0.62,3.27-0.95c7.06-2,11.67,2.13,18.5,3.15c4.63,0.69,7.59-1.33,9.17-5.99
		c2.14-6.28-2.67-13.06,1.53-18.64c4.61-6.12,7.15-11.27,5.75-19.37c-1.64-9.46-8.89-11.79-15.65-17.08
		c-5.6-4.38-6.66-11.27-10.27-16.88c-4.6-7.14-12.31-12.23-17.99-18.33c-8.16-8.75-23.36-10.74-34.46-7.92
		c-16.57,4.2-29.9,22.32-24.61,39.53c1.4,4.56,2.73,6.84,4.15,11.39c0.12,0.39,0.58,0.37,0.79,0.13c1.18,2.03,3.43,3.27,5.47,4.48
		c3.96,2.33,7.83,4.83,11.42,7.71c6.74,5.4,12.05,12.18,17.09,19.15c5.95,8.23,11.39,13.32,19.88,18.82
		C470.48,148.62,472.3,148.55,474.3,148.05z"/>
	<path class="st25" d="M371.11,133.44c-1.65-1.81-3.3-3.61-4.93-5.42c-3.24-3.58-7.24-6.3-8.58-11.47
		c-1.33-5.12,1.52-8.73,4.29-12.56c1.95-2.69,3.34-6.04,5.73-8.31c3.62-3.44,2.61-2.88,5.26,0.56
		c15.86,20.54,39.06,37.31,42.7,40.56c5.48,4.9,10.78,12.34,9.62,20.36c-1.03,7.12-7.06,11.45-13.16,12.19
		c-3.13,0.38-6.2-1.62-9.05-1.33c-3.62,0.37-6.22,4.82-10.42,2.83c3.1-9.62-5.25-19.15-10.96-25.73
		C378.18,141.19,374.64,137.3,371.11,133.44z"/>
	<path class="st25" d="M362.41,124.23c0,0-10.86-12.27-16.31-24.49c-4.18-9.38-22.92-53.99-22.92-53.99l10.71-5.69
		c0,0,28.21,37.23,32.04,44.08c3.83,6.85,8.89,14.18,8.89,14.18l-1.95,15.18L362.41,124.23z"/>
	<g>
		<path class="st25" d="M338.87,27.42c-0.38-2.98-0.52-5.93-1.2-8.87c-0.37-1.61-1.02-5.26-2.92-5.51c-1.6-0.21-1.86,7.6-1.58,9.81
			c0.25,1.98,0.57,6.61-2.06,5.39c-0.87-0.4-1.85-2.23-2.38-3.11c-1.21-2.01-2.1-4.24-3.03-6.42c-2.01-4.72-3.94-9.5-6.03-14.18
			c-0.6-1.36-1.31-2.81-2.44-3.72c-0.6-0.48-2.47-1.61-3.16,0.19c-0.35,0.93,0.65,3.57,0.87,4.34c0.43,1.43,0.84,2.87,1.24,4.31
			c0.44,1.58,0.89,3.15,1.35,4.73c0.23,0.79,0.46,1.57,0.69,2.36c0.19,0.65,0.31,1.68,0.66,2.24c-2.82-4.57-6.5-9.4-9.65-13.7
			c-1.18-1.61-3.38-4.09-4.87-3.65c-0.88,0.26-1.46,1.15-1.19,2.27c0.05-0.11-0.82-0.48-0.91-0.5c-0.48-0.07-1.03,0.24-1.33,0.64
			c-0.73,0.99-0.19,2.67,0.01,3.79c0.21,1.18,4.07,9.87,4.07,9.87s-2.85-3.37-4.16-1.93c-0.83,0.92-0.16,2.16,0.22,3.13
			c0.35,0.91,0.81,1.76,1.3,2.59c3.1,5.25,6.53,11.49,10.45,15.96c4.98,5.69,11.11,10.2,14.15,17.75c2,4.97,3.4,2.99,6.36-1.26
			c1.67-2.39,2.95-4.11,3.67-7.02C338.67,40.21,339.77,34.46,338.87,27.42z"/>
		<g>
			<path class="st66" d="M303.76,4.87c-0.13-0.04-0.27-0.03-0.39,0.06c-0.22,0.16-0.28,0.48-0.13,0.72l10.47,17.75
				c0.14,0.24,0.44,0.31,0.65,0.16c0.22-0.16,0.28-0.48,0.13-0.72L304.02,5.08C303.95,4.97,303.86,4.9,303.76,4.87z"/>
		</g>
		<g>
			<path class="st66" d="M305.69,17.88c-0.14-0.05-0.3-0.02-0.42,0.08c-0.2,0.18-0.24,0.5-0.08,0.73l5.2,7.46
				c0.16,0.23,0.45,0.27,0.66,0.1c0.2-0.18,0.24-0.5,0.08-0.73l-5.2-7.46C305.86,17.97,305.78,17.91,305.69,17.88z"/>
		</g>
	</g>
	<path class="st62" d="M499.08,547.38c0,0-1.91-6.45,2.4-9.63c4.31-3.18,9.46-5.4,13.04-5.25c3.59,0.15,7.06,2.66,8.11,4.23
		c1.88,2.82,2.79,5.4,2.79,5.4s1.29,9.88-2.56,11.2c-3.85,1.31-14.87,2.32-16.23,1.95C505.27,554.89,499.08,547.38,499.08,547.38z"
		/>
	<path class="st25" d="M366.37,387.7c-0.19,1.95-0.35,3.86-0.49,5.71c-0.59,7.74-1.13,15.44-1.93,23.15
		c-0.77,7.42-0.91,14.28,1.25,21.52c2.86,9.62,34.53-4.01,34.53-4.01c3.58-11.59,7.17-23.17,10.75-34.76
		c4.93-15.94,10.15-32.03,15.62-47.82c1.51-4.36,3.05-10.93-0.34-14.8c-2.14-2.44-7.02-2.78-10.07-3.54
		c-8.09-2.01-13.09,2.22-20.59,2.9c-7.98,0.72-15.54,3.51-19.24,11.24C370.23,359.05,367.67,374.28,366.37,387.7z"/>
	<path class="st25" d="M441.38,379.19c3.78,7.38,6.3,15.86,9.06,23.56c2.26,6.3,9.77,30.41,13.04,38.14c0,0,31.18-22.09,31.29-22.1
		c-0.01,0-0.55-6.01-0.58-6.33c-2.25-24.5-5.91-48.91-7.94-73.43c-3.15,2.99-7.9,4.63-11.91,6.24c-6.73,2.69-11.32,7.13-18.56,8.87
		c-6.06,1.45-21.03,4.72-20.42,12.73c0.27,3.57,3.57,7.78,5.24,10.83C440.86,378.19,441.12,378.69,441.38,379.19z"/>
	<path class="st62" d="M492.78,356.88c0.74,4.62,0.83,9.38-2.93,11.54c-8.35,4.79-20.39-1.72-28.44,1.17
		c-5.95,2.14-9.83,1.09-16.01,0.44c-3.17-0.34-6.18,0.94-9.15,0.48c-2.04-0.31-3.64-1.33-4.62-3.11c-5.5-10.1-4.15-23.49-7.86-34.27
		c-1.4-4.07-13.48-36.96-6.73-38.49c-2.22,0.5-4.41,1.04-6.6,1.63c-0.59,0.16-0.88-0.73-0.29-0.89c2.32-0.63,4.67-1.21,7.02-1.74
		c0.46-2.93,1.28-5.88,2.52-8.85c0.24-0.55,1.08-0.12,0.84,0.44c-1.13,2.67-1.85,5.41-2.28,8.18c12.23-2.66,24.75-3.89,37.29-3.57
		c11.8,0.3,24.23-1.42,28.91,12c2.37,6.79,1.88,15.1,3.21,22.3c1.51,8.21,3.09,16.43,3.74,24.76
		C491.56,351.01,492.31,353.91,492.78,356.88z"/>
	<path class="st62" d="M429.6,328.2c1.55-7.49,3.12-14.99,2.01-22.66c-0.97-6.74-3.86-13.23-8.9-17.9
		c-5.52-5.12-12.82-7.16-20.23-5.9c-3.95,0.67-7.72,2.18-11.17,4.18c-4.07,2.36-8.81,5.8-13.59,3.33c0.18-0.67,0.36-1.35,0.55-2.02
		c-0.45,1.63-5.84,7.55-7.09,11.34c-1.96,5.94-1.83,12.46-2.07,18.64c-0.14,3.64-0.55,6.8-1.58,10.34
		c-1.4,4.77-0.73,5.85-0.97,10.15c-0.44,7.79-1.46,16.24-1.85,24.25c-0.17,3.39-2.89,9.88-0.54,12.6
		c2.32,2.68,10.91,2.14,14.02,1.51c7.26-1.47,12.75-4.09,20.51-3.92c8.03,0.18,16.58,0.85,24.05-2.29c4.38-1.84,4.52-1.94,5.08-7.77
		C428.96,350.72,427.31,339.25,429.6,328.2z"/>
	<path class="st25" d="M508.1,234.8c0,0,14.22,2.74,24.97,1.48c9.64-1.14,54.48-9.53,54.48-9.53l-2.08-11.64
		c0,0-44.96-3.48-52.42-3.01c-7.46,0.46-13.99,1.72-13.99,1.72l-12.35,7.93L508.1,234.8z"/>
	<path class="st25" d="M430.69,129.84c-0.08,5.73-0.42,12.89-0.95,18.58c-0.36,3.77-1.88,10.23,1.23,13.22
		c4.35,4.19,12.04-0.22,16.92-0.58c3.69-0.28,7.7,1.4,10.91-1.29c1.75-1.47,4.66-5.25,5.15-7.57c0.48-2.31,0.27-4.55-0.18-6.76
		c-0.72-3.52-2.05-6.97-2.21-10.55c-0.23-5.17,0.79-10.87,1.21-16.12c0.59-7.46,1.34-14.92,2.25-22.35
		c-0.13,1.04-12.24,4.11-13.38,4.49c-5.05,1.69-15.69,3.21-18.85,8.04c-2.76,4.23-2.15,12.05-2.15,16.8
		c0,4.63,1.84,12.99-1.22,16.92c-3.14,4.03-4.31-0.93-7.71-1.55c-6.39-1.16-1.47,6.75,0.44,9.33c3.38,4.55,7.23,5.09,11.05,8.28
		L430.69,129.84z"/>
	<path class="st52" d="M439.06,97.04c0.21,0.01,0.41,0.03,0.62,0.04c2.38,0.13,2.44,0.02,2.68-2.45c0.27-2.76-0.63-5.38-0.91-8.07
		c-0.09-0.87-0.25-1.77-0.57-2.58c-0.16-0.41-0.7-0.83-1.14-0.91c-0.3-0.06-0.87,0.39-1.03,0.74c-0.49,1.11-0.96,2.26-1.23,3.44
		c-0.36,1.59-0.52,3.23-0.8,4.84c-0.15,0.86-0.46,1.71-0.54,2.57c-0.2,1.98-0.02,2.15,1.88,2.32
		C438.37,97.01,438.71,97.02,439.06,97.04z"/>
	<path class="st53" d="M429.91,107.02c-0.22,1.31,0.63,2.2,1.38,2.75c1.74,1.27,3.68,2.35,5.97,1.35c0.69-0.3,1.46-0.71,1.86-1.3
		c0.38-0.56,0.65-1.55,0.4-2.1c-0.39-0.86-1.18-1.6-1.95-2.2c-0.97-0.77-1.82,0.29-2.73,0.39c-0.97,0.1-1.16-1.62-2.45-1.28
		C430.92,105.01,429.97,105.88,429.91,107.02z"/>
	<path class="st54" d="M455.13,82.33c-0.5-0.03-0.99-0.14-1.46-0.08c-0.79,0.11-1.36,0.52-1.52,1.38c-0.16,0.91,0.35,1.59,1.03,1.78
		c1.86,0.54,3.77,0.9,5.67,1.27c0.66,0.13,1.45,0.27,1.79-0.55c0.31-0.76,0.09-1.49-0.57-2.01
		C458.62,83.01,456.98,82.33,455.13,82.33z"/>
	<path class="st54" d="M428.16,78.93c-1,0.07-2.08,0.09-3.14,0.24c-0.76,0.11-1.38,1.13-1.26,1.86c0.12,0.77,0.91,1.46,1.7,1.45
		c1.55-0.03,3.1-0.11,4.65-0.09c0.78,0.01,1.36-0.12,1.49-1c0.13-0.84-0.32-1.65-1.04-1.89c-0.5-0.17-1-0.36-1.51-0.5
		C428.79,78.93,428.51,78.96,428.16,78.93z"/>
	<path class="st55" d="M452.75,89.84c-0.22,1.75,0.26,2.3,1.04,2.74c0.23,0.13,1.05,0.1,1.29,0.03c0.86-0.24,1.44-2.04,1.06-3.19
		c-0.37-1.12-1.36-1.77-2.3-1.27C453.33,88.42,452.84,89.16,452.75,89.84z"/>
	<path class="st55" d="M426.06,86.61c-0.22,1.75,0.26,2.3,1.04,2.74c0.23,0.13,1.05,0.1,1.29,0.03c0.86-0.24,1.44-2.04,1.06-3.19
		c-0.37-1.12-1.36-1.77-2.3-1.27C426.63,85.2,426.14,85.94,426.06,86.61z"/>
	<path class="st56" d="M438.93,130.45c4.97,1.63,16.36,0.01,19.95-2.94c0.99-0.81,2.48-2.99,3.58-5.34
		c0.43-4.42,0.38-6.36,0.58-9.08c-0.58-0.36-1.56,1.28-2.79,1.54c-3.22,0.68-5.2,4.41-7.57,6.35c-1.37,1.13-2.88,2.02-4.49,2.68
		c-2.3-0.3-5.19-0.53-7.17,0.55c0.04,0.12,0.08,0.25,0.11,0.38C441.6,126.33,438.53,127.97,438.93,130.45z"/>
	<g>
		<path class="st25" d="M432.35,131.59c7.8,0.8,16.99-3.41,22.19-7.93c6.77-5.88,11.81-12.96,13.45-22.03
			c1.91-10.55,1.67-14.99,2.02-25.69c0.12-3.73-3.03-10.88-7.17-12.92c-14.25-7.04-38.14-4.59-43.93,1.27
			c-3.83,3.88-5.4,9.5-6.08,14.77c-0.79,6.08,1.06,12.28,1.06,18.4c0,2.37,0.01,4.77,0.12,7.15c0.38,8.44,4.67,14.49,7.1,18.25
			C423.59,126.7,427.49,131.09,432.35,131.59z"/>
		<path class="st5" d="M427.16,83.85c1.34,0.35,1.43,2.5-0.04,2.73c-1.98,0.31-4.05-0.22-6.02-0.32c-2.28-0.12-4.57,0.3-6.83,0.1
			c-0.48-0.04-0.71-0.51-0.62-1.04C414.46,80.48,424.61,83.19,427.16,83.85z"/>
		<path class="st5" d="M437.14,83.81c-1.42,0.44-1.41,2.76,0.19,2.93c2.14,0.23,4.34-0.45,6.45-0.66c2.44-0.25,4.93,0.09,7.35-0.25
			c0.51-0.07,0.73-0.59,0.61-1.14C450.61,79.52,439.85,82.97,437.14,83.81z"/>
		<path class="st57" d="M427.37,104.48c-0.91-3.74,1.1-8.11,2.02-11.66c0.21-0.83,1.54-0.62,1.33,0.22
			c-0.58,2.32-1.38,4.6-1.82,6.95c-0.2,1.04-0.5,2.5-0.31,3.53c0.6,3.16,2.71,2.9,4.79,3.3c0.86,0.16,0.64,1.5-0.23,1.34
			C430.55,107.67,428.1,107.47,427.37,104.48z"/>
		<path class="st45" d="M439.3,117.18c0.64-0.5,0.8-0.86,1.14-1.36c0.34-0.5,0.4-0.96-0.07-1.24c-0.46-0.28-0.97-0.22-1.46-0.19
			s-1.11,0.23-1.53,0.35c-1.67,0.47-4.53,1.15-5.88,1.41c-1.35,0.26-2.07,0.42-2.77,0.66c-0.71,0.24-0.47,0.16-0.72,0.45
			c-0.25,0.3,0.02,0.49,0.14,0.78c0.12,0.29-0.04,0.64,0.25,0.95c0.29,0.3,0.23,0.37,1.02,0.57c0.79,0.2,2.51,0.15,3.64-0.05
			s2.72-0.57,3.72-0.96C437.79,118.16,438.66,117.68,439.3,117.18z"/>
	</g>
	<path class="st59" d="M485.18,211.69c-0.01-9.46-2.98-19.54-6.25-27.95c-1.87-4.78-4.94-9.39-5.56-14.5
		c-0.71-5.84-0.03-11.86-0.46-17.69c-5.4,9.62-18.42,13.38-28.87,11.82c-10.45-1.55-16.24-9.46-22.15-17.14
		c-4.14,6.01-7.86,11.82-13.29,17.3c-7.2,7.27-13.44,12.16-21.73,16.53c0.63-3.91,1.9-6.94,4.23-8.28c0.3,0.12,0.44,0.04,0.41-0.22
		c-0.14,0.06-0.28,0.14-0.41,0.22c-0.01,0-0.01-0.01-0.02-0.01c2.85-1.47,5.4-3.51,7.74-5.69c2.38-2.21,4.3-5.09,6.86-7.03
		c5.01-3.81,9.11-9.87,11.89-15.5c0.95-1.92,2.23-6.72,4.62-7.21c2.77-0.56,3.43,3.21,4.04,5.09c1.72,5.36,6.66,8.45,11.03,11.46
		c9.38,6.43,21.58,1.3,27.84-6.84c1.8-2.33,3.04-4.55,6.05-5.01c9.11-1.41,10.24,14.94,9.87,20.67c-0.55,8.63,0,13.78,2.86,21.9
		c0.12,0.32,0.22,0.64,0.33,0.97C487.3,194.07,486.77,202.49,485.18,211.69z"/>
	<path class="st58" d="M391.08,171.77c0.13-0.08,0.27-0.16,0.41-0.22C391.52,171.81,391.38,171.89,391.08,171.77z"/>
	<path class="st58" d="M484.99,286.99c-0.92,5.37,1.34,12.38-3.07,16.65c-2.14,2.06-6.29,1.82-9.31,1.81
		c-4.88-0.03-10.23,0.47-15.17-0.08c-6.22-0.7-14.43-0.53-20.34-2.29c-7.42-2.22-14.47-7.54-22.51-6.89
		c-7.42,0.6-13.11,7.92-20.55,4.5c-2.68-1.23-4.71-3.53-7.11-5.17c-3.27-2.24-2.35-1-5.86-1.21c-15.34-0.89-7.93-15.8-4.13-24.09
		c7.29-15.89,9.46-36.95,11.11-54.25c0.57-6.05-3-24.61-1.17-35.91c8.29-4.37,14.53-9.26,21.73-16.53
		c5.42-5.48,9.15-11.3,13.29-17.3c5.92,7.69,11.71,15.59,22.15,17.14c10.46,1.55,23.48-2.2,28.87-11.82
		c0.44,5.84-0.24,11.86,0.46,17.69c0.62,5.11,3.69,9.72,5.56,14.5c3.27,8.4,6.24,18.49,6.25,27.95c-0.44,2.54-0.97,5.14-1.51,7.83
		c-3.21,15.72-0.97,31.79,0.8,47.53C485.24,273.85,486.14,280.28,484.99,286.99z"/>
	<path class="st25" d="M579.54,217.03l4.23,9.68c0,0,10.71,1.36,15.23,1.76c3.19,0.28,6.31,0.62,9.47,1.1
		c2.59,0.4,3.89,0.57,6.51,0.68c0.87,0.04,4.97,0.41,4.98-1.1c0.01-1.83-3.07-2.13-4.4-2.41c-3.74-0.79-7.33-1.73-10.86-3.15
		c6.25,0.85,12.61,0.8,18.82-0.29c1.4-0.24,4.84-0.51,4.62-2.56c-0.08-0.74-1.28-1.52-1.28-1.52s2.53-0.71,2.34-2.18
		c-0.28-2.06-3.97-1.12-5.36-1.05c-1.73,0.1-3.45,0.3-5.19,0.28c-3.18-0.04-7.2,0.02-10.37-1.17c3.11,0.02,6.21-0.12,9.3-0.48
		c2.44-0.28,4.13-0.22,6.23-1.62c0.49-0.33,1.11-0.97,0.96-1.66c-0.04-0.2-0.18-0.36-0.35-0.48c-0.74-0.53-1.87-0.37-2.73-0.31
		c-1.11,0.07-7.45,0.55-10.32,0.28c-5.04-0.48-10.01-1.62-14.72-3.34c2.75-1.3,5.32-2.96,7.49-5.01c1.4-1.32,1.8-3.89-1.01-3.16
		c-2.26,0.58-4.57,2.08-6.67,3.06c-2.49,1.16-5.04,2.25-7.48,3.53C584.23,208.38,579.54,217.03,579.54,217.03z"/>
	<path class="st25" d="M507.42,448.17c3.98,13.74,4.18,24.65,5.76,38.83c2.65,23.84,9.95,59.25,9.95,59.25l-18.36,5.11
		c0,0-22.01-53.67-34.76-87.11c-1.65-4.32-2.97-8.73-4.13-13.18c-3.01-11.49-4.88-25.19-10.58-39.65l38.4,4.34
		c4.86,10.9,8.18,15.94,11.64,25.84C506.04,443.64,506.73,445.8,507.42,448.17z"/>
	<path class="st62" d="M540.79,593.64c0.2,7.63-2.52,14.63-9.81,18.33c-0.94,0.48-1.93,0.84-2.97,1.08
		c-5.7,1.35-10.8-0.37-15.08-4.56c-3.42-3.35-5.77-9.02-7.42-15.66c0,0,0,0,0-0.01c-1.61-7.97-2.35-15.67-3.05-28.92
		c-0.11-2.02-1.18-8.1-1.29-10.12c-0.11-2.22-3.06-6.88-1.84-7.45c1.23-0.57,4.73,5.49,4.84,4.76c0.1-0.73,0.39-4.37,2.38-5.15
		c1.97-0.79,9.9-3.38,11.33-2.39c1.44,0.99,2.89,3.15,4.13,3.41c1.25,0.25,1.65-6.13,2.69-5.74c1.04,0.41,1.44,3.63,2.13,6.11
		c2.2,7.9,3.44,12.98,6.26,20.67c2.05,5.6,6.12,13.69,7.09,19.47c0.17,0.98,0.3,1.97,0.4,2.98
		C540.69,591.51,540.76,592.56,540.79,593.64z"/>
	<path class="st77" d="M527.1,571.24c-1.05-0.1-2-0.59-3.07-0.64c-1.57-0.08-3.28,0.21-4.82,0.56c-3.33,0.75-6.35,2.28-9.05,4.35
		c-1.35,1.04,0.01,3.35,1.38,2.3c2.35-1.8,4.93-3.22,7.83-3.94c2.78-0.69,4.99-0.2,7.74,0.05
		C528.83,574.08,528.8,571.39,527.1,571.24z"/>
	<path class="st77" d="M524.79,562.51c-5.65-1.5-13.33,0.65-17.65,4.55c-1.28,1.15,0.65,3.02,1.92,1.87
		c3.55-3.2,10.46-5.04,15.05-3.82C525.78,565.55,526.46,562.95,524.79,562.51z"/>
	<g>
		<path class="st66" d="M476.25,454.87c-0.13,0-0.26-0.05-0.34-0.16l-6.98-8.41c-0.16-0.19-0.13-0.47,0.06-0.63
			c0.19-0.16,0.47-0.13,0.63,0.06l6.98,8.41c0.16,0.19,0.13,0.47-0.06,0.63C476.45,454.83,476.35,454.87,476.25,454.87z"/>
	</g>
	<g>
		<path class="st66" d="M489.62,450.85c-0.02,0-0.04,0-0.06,0c-0.24-0.04-0.41-0.26-0.38-0.51l1.22-8.49
			c0.04-0.24,0.26-0.41,0.51-0.38c0.24,0.04,0.41,0.26,0.38,0.51l-1.22,8.49C490.03,450.69,489.84,450.85,489.62,450.85z"/>
	</g>
	<g>
		<path class="st67" d="M511.2,558.22c-8.31,0-9.92-5.43-9.94-5.49c-0.07-0.24,0.07-0.48,0.31-0.55c0.24-0.07,0.48,0.07,0.55,0.31
			c0.07,0.25,1.84,6,11.95,4.64c10.2-1.38,11.18-9.4,11.19-9.48c0.03-0.25,0.25-0.43,0.49-0.4c0.25,0.03,0.42,0.25,0.4,0.49
			c-0.01,0.09-1.08,8.8-11.96,10.27C513.11,558.16,512.11,558.22,511.2,558.22z"/>
	</g>
	<g>
		<path class="st25" d="M414.16,565.95l17.44-6.6c0,0-8.81-40.52-9.3-49.58c-0.49-9.06-4.18-40.45-11.57-55.41
			c-0.84-1.71-1.68-3.42-2.5-5.12c-6.44-13.27-12.14-25.88-12.14-25.88s-14.22-5.58-16.5-3.46c-2.27,2.12-14.4,18.19-14.4,18.19
			l9.74,25.42L414.16,565.95z"/>
		<path class="st62" d="M391.98,613.48c3.54,1.57,10.46-0.51,13.5-2.13c4.92-2.6,9.25-6.16,13.31-9.93
			c3.63-3.38,6.13-5.04,8.41-9.53c1.14-2.23,0.65-4.18,3.03-5.7c1.51-0.97,2.4-0.97,3.97-0.16c0,0,7.72-3.49,10.02-8.55
			c0.93-2.03,0.6-3.94-0.15-5.8c-0.19-0.48-0.39-0.97-0.57-1.43c-0.77-1.94-1.44-3.8-2.27-5.7c-0.94-2.18-2.11-4.42-3.86-6.91
			c-0.51-0.72-1.06-1.46-1.67-2.24c-0.35-0.44-6.31-6.48-6.31-6.48s0.41,5.32-2.91,6.92c-2.13,1.03-4.81,0.12-6.76-1.41
			c-0.58-0.45-1.1-0.9-1.84-1.05c-2.11-0.44-7.32,1.45-8.63,2.94c-1.4,1.6-0.65,4.73,0.03,6.49c-0.17,0.26-0.31,0.54-0.44,0.82
			c-1.1,2.41-1.94,4.96-2.87,7.43c-0.47,1.22-0.92,2.43-1.4,3.64c-0.08,0.21-0.16,0.43-0.25,0.66c-0.16,0.43-0.34,0.87-0.59,1.21
			c-0.4,0.55-0.8,1.1-1.19,1.65c-0.87,1.2-1.7,2.43-2.51,3.67c-0.62,0.93-1.22,1.89-1.8,2.84c-1.7,2.77-3.28,5.62-4.72,8.55
			c-2.47,5.03-5.8,11.24-4.02,16.98c0.06,0.22,0.13,0.43,0.21,0.64C390.16,612.15,390.94,613.02,391.98,613.48z"/>
		<path class="st63" d="M391.98,613.48c3.54,1.57,10.46-0.51,13.5-2.13c4.92-2.6,9.25-6.16,13.31-9.93
			c3.63-3.38,6.13-5.04,8.41-9.53c1.14-2.23,0.65-4.18,3.03-5.7c1.51-0.97,3-0.25,3.97-0.16s7.72-3.49,10.02-8.55
			c0.93-2.03,0.6-3.94-0.15-5.8c-0.19-0.48-0.39-0.97-0.57-1.43c-0.64,1.73-1.07,3.86-1.86,4.94c-2.09,2.87-5.91,5.88-6.71,6.27
			c-0.81,0.39-5.14,0.37-7.59,3.04c-2.43,2.66-4.11,7.31-6.04,9.98c-1.95,2.67-10.13,9.1-16.03,12.81c-5.9,3.71-9.7,3.8-13.05,3.55
			c-0.81-0.06-1.75-0.28-2.71-0.57c0.06,0.22,0.13,0.43,0.21,0.64C390.16,612.15,390.94,613.02,391.98,613.48z"/>
		<path class="st77" d="M427.97,575c1.57,1.2,8.54-2.09,11.97-7.81c0.48-0.83,0.9-1.73,1.28-2.64c-0.94-2.18-2.11-4.42-3.86-6.91
			c-0.47,3.38-1.36,7.25-3.02,9.45C430.92,571.62,426.41,573.79,427.97,575z"/>
		<path class="st77" d="M402.54,578.23c3.96-0.58,7.98-0.13,11.53,2.06c1.46,0.91,2.97-1.31,1.5-2.22
			c-3.47-2.15-7.34-2.93-11.25-2.7c-0.16,0.43-0.34,0.87-0.59,1.21C403.33,577.12,402.93,577.67,402.54,578.23z"/>
		<path class="st77" d="M398.23,584.74c4.33-0.56,8.69-0.42,12.72,1.67c1.52,0.79,3.04-1.43,1.5-2.22
			c-3.99-2.06-8.16-2.57-12.41-2.29C399.41,582.83,398.81,583.79,398.23,584.74z"/>
		<g>
			<path class="st67" d="M412.74,564.13c-1.93,0-3.09-0.39-3.16-0.42c-0.23-0.08-0.35-0.34-0.27-0.57c0.08-0.23,0.33-0.36,0.57-0.28
				c0.02,0.01,2.48,0.83,6.2-0.02c3.9-0.89,7.79-2.53,10.4-4.4c2.55-1.82,4.83-6.29,4.85-6.33c0.11-0.22,0.38-0.31,0.6-0.2
				c0.22,0.11,0.31,0.38,0.2,0.6c-0.1,0.19-2.4,4.71-5.13,6.66c-2.7,1.93-6.71,3.62-10.72,4.54
				C414.91,564.03,413.72,564.13,412.74,564.13z"/>
		</g>
		<g>
			<path class="st67" d="M391.93,608.22c-0.24,0-0.44-0.19-0.45-0.43c-0.01-0.25,0.18-0.45,0.43-0.46
				c9.17-0.36,19.14-5.79,25.4-13.85c1.21-1.55,2.27-3.27,3.3-4.93c1-1.62,2.04-3.29,3.23-4.84c0.15-0.2,0.43-0.23,0.63-0.08
				c0.2,0.15,0.23,0.43,0.08,0.63c-1.16,1.51-2.18,3.17-3.18,4.77c-1.04,1.68-2.12,3.42-3.35,5c-6.42,8.26-16.65,13.83-26.08,14.19
				C391.94,608.22,391.93,608.22,391.93,608.22z"/>
		</g>
		<g>
			<path class="st66" d="M378.87,446.08c-0.03,0-0.05,0-0.08-0.01c-0.24-0.04-0.41-0.28-0.36-0.52l1.83-10.25
				c0.04-0.24,0.27-0.41,0.52-0.36c0.24,0.04,0.4,0.28,0.36,0.52l-1.83,10.25C379.28,445.92,379.09,446.08,378.87,446.08z"/>
		</g>
	</g>
	<path class="st5" d="M466.71,100.09c-0.19,1.4-0.25,7.81,1.11,8.01c2.15,0.32,1.7,2.4,1.88,2.13c2.78-4.05,1.48-9.04,1.98-13.85
		c0.53-5.07,1.3-9.67,2.49-14.64c0.95-3.92,1.05-8.4-0.71-12.12c-0.08-0.17-0.16-0.34-0.25-0.5c-7.38-14-28.55-13.82-41.78-11.87
		c-6.1,0.9-13.62,3.21-15.63,9.91c-2.18,7.29,7.85,8.16,12.65,9.08c9.39,1.8,19.26-0.71,28.64,1.88c3.38,0.93,7.37,1.8,8.52,5.36
		c0.89,2.77,0.68,6.21,0.74,9.09C466.42,95.08,467.04,97.62,466.71,100.09z"/>
	<path class="st5" d="M465.31,35.72c-2.02-1.78-4.39-3.75-7.12-4.23c-1.6-0.28-3.24,0.01-4.84-0.08c-1.36-0.07-2.72-0.55-4.09-0.28
		c-2.31,0.47-4.49,2.4-5.76,4.32c-2.19,3.3-1.89,7.75,0.76,10.33c0.54,1.1,1.42,2,2.61,2.53c1.05,0.47,2.1,0.47,3.23,0.33
		c1.03-0.13,1.98-0.41,3.04-0.34c1.13,0.08,2.07,0.62,3.16,0.85c4.59,0.96,11.74-2.46,12.11-7.59
		C468.57,39.12,467.03,37.24,465.31,35.72z"/>
	<g>
		<path class="st78" d="M490.43,281.5C490.43,281.5,490.43,281.51,490.43,281.5C490.43,281.51,490.43,281.5,490.43,281.5z"/>
	</g>
	<g>
		<path class="st60" d="M460.53,48.47c-0.07,0-0.13-0.01-0.19-0.04c-0.04-0.02-4.31-2.07-7.94-2.79c-3.62-0.72-7.23-0.47-7.27-0.47
			c-0.25,0.02-0.46-0.17-0.48-0.41c-0.02-0.25,0.17-0.46,0.41-0.48c0.15-0.01,3.76-0.26,7.51,0.48c3.74,0.75,7.97,2.78,8.15,2.87
			c0.22,0.11,0.32,0.37,0.21,0.6C460.86,48.38,460.7,48.47,460.53,48.47z"/>
	</g>
	<path class="st25" d="M463.87,92.44c2.77-2.54,6.34-3.22,8.6,0.36c2.06,3.28,1.2,7.98-0.41,11.39c-0.68,1.43-1.85,2.62-3.05,3
		c-0.02,0.02-0.04,0.04-0.06,0.06c-1.21,0.91-2.53-0.05-2.79-1.23c-0.14-0.22-0.27-0.45-0.39-0.73c-1.05-2.46-0.94-7.42,0.65-10.2
		c-0.15,0.11-0.3,0.22-0.46,0.36C464.2,97,462.13,94.04,463.87,92.44z"/>
	<g>
		<g>
			<path class="st67" d="M427.96,304.68c-0.65,8.4-1.59,16.78-2.09,25.2c-0.5,8.36-0.02,16.66,0.01,25.03c0,0.57,0.9,0.58,0.89,0
				c-0.03-8.36-0.51-16.67-0.01-25.03c0.5-8.41,1.44-16.79,2.09-25.2C428.9,304.11,428.01,304.11,427.96,304.68L427.96,304.68z"/>
		</g>
	</g>
	<g>
		<g>
			<path class="st67" d="M374.86,366.76c10.28-2.34,20.83-0.59,31.2-2.08c1.13-0.16,0.65-1.89-0.48-1.72
				c-10.38,1.49-20.91-0.26-31.2,2.08C373.26,365.29,373.73,367.02,374.86,366.76L374.86,366.76z"/>
		</g>
	</g>
	<g>
		<g>
			<path class="st67" d="M446.95,365.14c4.35-1.14,8.94,0.21,13.31,0.54c4.14,0.32,8.77,1.04,12.84,0.05c0.56-0.14,0.32-1-0.24-0.86
				c-2.46,0.59-4.93,0.4-7.42,0.19c-2.2-0.18-4.41-0.17-6.6-0.42c-3.99-0.44-8.15-1.41-12.13-0.37
				C446.16,364.43,446.39,365.29,446.95,365.14L446.95,365.14z"/>
		</g>
	</g>
	<path class="st73" d="M485.18,211.69c0,2.56-0.21,5.08-0.7,7.51"/>
	<path class="st73" d="M386.85,180.06c-1.47,0.77-2.99,1.53-4.61,2.28"/>
	<g>
		<g>
			<path class="st79" d="M400.02,211.25c9.43,4.11,20.31,0.71,30.31,1.68c12.64,1.22,24.06,6.91,36.48,9.11
				c1.12,0.2,1.61-1.52,0.48-1.72c-11.28-2-21.75-7.07-33.11-8.71c-4.85-0.7-9.78-0.95-14.68-0.75c-6.42,0.25-12.41,1.54-18.56-1.14
				C399.88,209.25,398.97,210.79,400.02,211.25L400.02,211.25z"/>
		</g>
	</g>
	<g>
		<g>
			<path class="st79" d="M391.56,283.29c8.11,0.89,16.25-0.23,24.37,0.59c1.14,0.12,1.14-1.67,0-1.79
				c-8.12-0.82-16.26,0.29-24.37-0.59C390.42,281.37,390.42,283.16,391.56,283.29L391.56,283.29z"/>
		</g>
	</g>
	<g>
		<g>
			<path class="st79" d="M419.26,279.69c2.38,0.4,4.75,0.79,7.13,1.19c1.13,0.19,1.61-1.53,0.48-1.72c-2.38-0.4-4.75-0.79-7.13-1.19
				C418.61,277.78,418.12,279.5,419.26,279.69L419.26,279.69z"/>
		</g>
	</g>
	<g>
		<g>
			<path class="st79" d="M477.74,257.72c-6.84-0.08-13.73-1.15-20.45,0.63c-1.11,0.29-0.64,2.02,0.48,1.72
				c6.55-1.73,13.3-0.64,19.97-0.56C478.89,259.53,478.89,257.74,477.74,257.72L477.74,257.72z"/>
		</g>
	</g>
	<g>
		<g>
			<path class="st79" d="M468.23,266.64c1.15,0,1.15-1.79,0-1.79C467.08,264.86,467.08,266.64,468.23,266.64L468.23,266.64z"/>
		</g>
	</g>
	<path class="st5" d="M422.86,95.18c0.02,1.52-0.71,2.76-1.63,2.77c-0.57,0.01-1.01-0.45-1.28-0.91c-0.18-0.32-0.24-0.65-0.36-0.99
		c-0.14-0.4-0.27-0.34-0.63-0.56c-0.31-0.18-0.87-0.55-0.98-0.91c0.35,0.08,0.74,0.17,1.1,0.1c0.49-0.09,0.48-0.29,0.58-0.7
		c0.17-0.67,0.7-1.51,1.47-1.52C422.07,92.45,422.84,93.67,422.86,95.18z"/>
	<path class="st5" d="M444.29,95.82c-0.17,0.16-0.31,0.32-0.41,0.51c-0.46,0.89-0.62,2.36-1.97,2.34c-1.09-0.02-1.95-1.49-1.91-3.28
		c0.04-1.79,0.95-3.22,2.05-3.2c1.55,0.03,1.27,2.51,2.63,2.22c0.34-0.07,0.69-0.28,0.98-0.43
		C445.69,94.81,444.86,95.28,444.29,95.82z"/>
</g>
</svg>
