<?xml version="1.0" encoding="utf-8"?>
<!-- Generator: Adobe Illustrator 25.3.1, SVG Export Plug-In . SVG Version: 6.00 Build 0)  -->
<svg version="1.1" id="Layer_1" xmlns="http://www.w3.org/2000/svg" xmlns:xlink="http://www.w3.org/1999/xlink" x="0px" y="0px"
	 viewBox="0 0 1068.7 768" style="enable-background:new 0 0 1068.7 768;" xml:space="preserve">
<style type="text/css">
	.st0{fill:#E09D9D;}
	.st1{fill:#B3D1A6;}
	.st2{fill:#7EAF87;}
	.st3{fill:#7F9EB2;}
	.st4{fill:#AF927E;}
	.st5{fill:#99AD7F;}
	.st6{fill:#AF7E9A;}
	.st7{fill:#AF7E7E;}
	.st8{fill:#7E83AF;}
	.st9{fill:#6D4A2B;}
	.st10{fill:#F5BD83;}
	.st11{fill:#D32A3F;}
	.st12{fill:#3A3A3A;}
	.st13{fill:#FFFFFF;}
	.st14{fill:#9B6D45;}
	.st15{fill:#495F89;}
	.st16{fill:#002042;}
	.st17{fill:#CC946A;}
	.st18{fill:#2A2AD1;}
	.st19{fill:#332A23;}
	.st20{fill:#D1D12A;}
	.st21{fill:#A56F3F;}
	.st22{fill:#AF7A4A;}
	.st23{fill:#C52AD1;}
	.st24{fill:#A57551;}
	.st25{fill:#2AD194;}
	.st26{fill:#AFA95F;}
	.st27{fill:#7D92BC;}
	.st28{fill:#1C1007;}
	.st29{fill:#458950;}
	.st30{fill:#593C21;}
	.st31{fill:#705034;}
	.st32{fill:none;stroke:#FFFFFF;stroke-width:7;stroke-miterlimit:10;}
	.st33{fill:#C6C6C6;}
	.st34{fill:#DDDDDD;}
	.st35{fill:#B2B2B2;}
	.st36{fill:#333333;}
	.st37{fill:#4A4AA0;}
	.st38{fill:#E5E7EA;}
	.st39{fill:#515151;}
	.st40{fill:#353535;}
	.st41{fill:#AAAAAA;}
	.st42{fill:none;stroke:#D19D6F;stroke-width:2;stroke-linecap:round;stroke-miterlimit:10;}
	.st43{fill:none;}
	.st44{fill:#D19D6F;stroke:#D19D6F;stroke-width:2;stroke-linecap:round;stroke-miterlimit:10;}
	.st45{fill:#D19D6F;}
	.st46{fill:none;stroke:#D19D6F;stroke-linecap:round;stroke-miterlimit:10;}
	.st47{fill:none;stroke:#87182B;stroke-width:2;stroke-linecap:round;stroke-miterlimit:10;}
</style>
<g id="Layer_6">
	<path class="st0" d="M59.9,320.4c12.2,74.9,63.7,150.3,150.3,181.2s91.6,29.9,142.3,57.7s77.6,70.7,172.2,94.6
		c94.6,23.9,213,8,259.8-18.9s148.3-63.7,188.1-168.2s31.9-243.9-32.8-299.6S811.5,82.5,759.7,88.4c-51.8,6-186.1,71.7-251.8,77.6
		S322.7,133.2,268,127.2C213.2,121.3,25.1,106.3,59.9,320.4z"/>
</g>
<g id="Layer_5">
	<polygon class="st1" points="445.6,340.8 293.5,364.2 291.2,235 443.3,211.6 	"/>
	<polygon class="st2" points="293.2,364.3 217.3,376 216.2,311.6 292.1,299.9 	"/>
	<polygon class="st3" points="292.3,299.6 216.3,311.3 215.2,247 291.1,235.3 	"/>
	<polygon class="st4" points="291.3,234.8 215.3,246.5 214.2,182.1 290.1,170.4 	"/>
	<polygon class="st5" points="367.5,223 291.5,234.7 290.4,170.4 366.3,158.7 	"/>
	<polygon class="st6" points="443.7,211.3 367.7,223 366.6,158.6 442.5,147 	"/>
	<polygon class="st3" points="519.9,199.6 443.9,211.3 442.8,146.9 518.7,135.2 	"/>
	<polygon class="st7" points="520.7,264.5 444.8,276.2 443.7,211.8 519.6,200.1 	"/>
	<polygon class="st8" points="521.9,329.3 445.9,341 444.8,276.7 520.7,265 	"/>
	<path class="st9" d="M251.2,318.3c-0.1-5.2,13.4-12.8,16.1,4.4c1.4,10.3,1.4,10.3,1.4,10.3l-5.7,4.1l-13.9,1.8l-5.4-6
		C243.7,332.8,242.3,317.5,251.2,318.3z"/>
	<path class="st10" d="M248.3,333.4c0,0-0.1,14,8.8,14.6c8.9,0.6,7.8-20.3,7.8-20.3s-10.6,0.2-13.2-3.9
		C251.7,324.8,251.8,332,248.3,333.4z"/>
	<path class="st11" d="M237,372.6c0,0-0.3-18.3,16.3-22c0.4,0,8.1-1.2,8.1-1.2s14,2.2,13.8,17C275.2,366.7,237,372.6,237,372.6z"/>
	<path class="st10" d="M252.7,342.6c0,0,0.7,5.9,0.5,7.9c0.5,1.9,2.1,3.8,4.1,4.8c1.8-1.7,3.1-2.5,4-6.1c-0.6-4.4-0.2-6.7-0.2-6.7
		L252.7,342.6z"/>
	<path class="st12" d="M359.7,355l-26.4,3.8c0,0,7.6-29.6,23.3-34.9c15.6-5.3,28.3-3.6,28.3-3.6s22.5,5,24.5,26
		C409.3,346.6,359.7,355,359.7,355z"/>
	<path class="st13" d="M360.6,319.4c-1.4,0.6-3.9,4.5-3.9,4.5s0.4,20.4,3.4,30.6c-0.3,0.4,23.7-3.3,23.7-3.3s2.1-26.2,1.2-31
		c-3-4.6-4.7-5.3-4.7-5.3L360.6,319.4z"/>
	<path class="st14" d="M355,299.2c0,0-8.1-10.8-8-21.2s-5.4-18.4-0.2-26.6c5.2-8.3,7.9-16.5,15.4-17.7c7.6-1.2,13.6,6.4,13.6,6.4
		s6.4-3.5,9.8,1c3.4,4.4,7.3,13.1,6.5,16.8c-0.8,3.7-2.2,20.9-4.4,23.4s-0.6,12.2-5.4,14.3C377.7,297.9,355,299.2,355,299.2z"/>
	<path class="st10" d="M351.2,273.5c0,0-3.5-5.9-7.2-3.2c-3.7,2.7-4.2,8.8-2.9,11.8s2,6.1,6.6,4.7s4.3-3.1,4.3-3.1
		s-0.4,16.2,6.8,19.9c3.4,0.9,1.5,15.8,1.5,15.8s3.8,7.9,10.4,11.2c9.7-8.3,9.3-15.6,9.3-15.6s-3-14.5-1.2-15.1
		c5.5-1.6,5.6-15.4,5.2-21.1c0.3,0.3,1.9,4.3,5.6,0.9s4.1-11.3,2.2-14.2s-3.5-5.5-5.9-4.1s-3.3,4.1-3.3,4.1s-6.2-2.2-7.4-14.9
		C366.1,255.2,362,271.1,351.2,273.5z"/>
	<path class="st15" d="M370.8,330.6c-1.8,1-3.1,3.2-3.9,6.3l3.4,4.1l-1.4,11.3l7.2-1.2l-2.8-10.9l2.4-5.7
		C374.5,332.5,372.9,331.2,370.8,330.6z"/>
	
		<ellipse transform="matrix(4.098931e-02 -0.9992 0.9992 4.098931e-02 72.1079 622.8785)" class="st16" cx="360.5" cy="273.9" rx="3.1" ry="1.7"/>
	
		<ellipse transform="matrix(4.098931e-02 -0.9992 0.9992 4.098931e-02 88.9642 635.5743)" class="st16" cx="375.6" cy="271.4" rx="3.1" ry="1.7"/>
	<g>
		<path class="st14" d="M371.1,265.2c1-1.6,8.3-2.1,8.4-0.8"/>
		<path class="st14" d="M370.9,265.1c-0.2-0.7,0.2-1.4,0.5-1.8c0.3-0.5,0.7-0.8,1.1-1s0.8-0.3,1.3-0.3c0.4,0.1,0.9,0.2,1.3,0.2
			s0.8,0.1,1.2,0.2c0.4,0.1,0.8,0.2,1.2,0.3c0.4,0.1,0.8,0.3,1.2,0.5c0.2,0.1,0.4,0.2,0.6,0.4c0.2,0.2,0.4,0.4,0.4,0.8
			c0,0.1-0.1,0.2-0.2,0.1c0,0,0,0-0.1,0l-0.2-0.1c-0.2-0.1-0.5,0-0.8,0c-0.3,0.1-0.7,0.1-1,0.3c-0.7,0.2-1.4,0.4-2,0.7
			c-0.7,0.2-1.2,0.9-1.9,0.7c-0.3,0-0.6-0.1-1-0.3c-0.4-0.1-0.7-0.4-1.3-0.5h-0.1C371,265.2,371,265.2,370.9,265.1z"/>
	</g>
	<g>
		<path class="st14" d="M364.5,267c-1-1.3-8,0.4-8,1.7"/>
		<path class="st14" d="M364.3,267.2c-0.3,0.1-0.5,0.3-0.6,0.4c-0.2,0.1-0.3,0.3-0.4,0.4c-0.3,0.3-0.5,0.4-0.8,0.6
			c-0.3,0.1-0.6,0.2-0.9,0.1s-0.7-0.2-1-0.2s-0.7,0-1,0s-0.7,0-1,0c-0.7,0-1.5,0.1-1.9,0.3l-0.2,0.1c-0.1,0-0.2,0-0.2,0s0,0,0-0.1
			c0-0.6,0.3-1,0.6-1.3c0.3-0.3,0.6-0.6,0.9-0.9c0.7-0.5,1.4-0.9,2.1-1.2c0.7-0.3,1.5-1,2.4-0.7c0.4,0.1,0.9,0.3,1.4,0.6
			c0.2,0.2,0.5,0.4,0.7,0.7c0.2,0.3,0.4,0.6,0.3,1c0,0.1-0.1,0.2-0.2,0.2H364.3z"/>
	</g>
	<path class="st17" d="M251.3,253.8c-0.1-5.2,13.4-12.8,16.1,4.4c1.4,10.3,1.4,10.3,1.4,10.3l-5.7,4.1l-13.9,1.8l-5.4-6
		C243.8,268.3,242.4,253,251.3,253.8z"/>
	<path class="st10" d="M248.4,268.8c0,0-0.1,14,8.8,14.6s7.8-20.3,7.8-20.3s-10.6,0.2-13.2-3.9C251.8,260.3,251.9,267.5,248.4,268.8
		z"/>
	<path class="st18" d="M237.1,308c0,0-0.3-18.3,16.3-22c0.4,0,8.1-1.2,8.1-1.2s14,2.2,13.8,17C275.3,302.1,237.1,308,237.1,308z"/>
	<path class="st10" d="M252.8,278.1c0,0,0.7,5.9,0.5,7.9c0.5,1.9,2.1,3.8,4.1,4.8c1.8-1.7,3.1-2.5,4-6.1c-0.6-4.4-0.2-6.7-0.2-6.7
		L252.8,278.1z"/>
	<path class="st19" d="M250.2,188.9c-0.1-5.2,13.4-12.8,16.1,4.4c1.4,10.3,1.4,10.3,1.4,10.3l-5.7,4.1l-13.9,1.8l-5.4-6
		C242.6,203.4,241.2,188.1,250.2,188.9z"/>
	<path class="st20" d="M236,243.1c0,0-0.3-18.3,16.3-22c0.4,0,8.1-1.2,8.1-1.2s14,2.2,13.8,17C274.2,237.3,236,243.1,236,243.1z"/>
	<path class="st21" d="M251.7,213.2c0,0,0.7,5.9,0.5,7.9c0.5,1.9,2.1,3.8,4.1,4.8c1.8-1.7,3.1-2.5,4-6.1c-0.6-4.4-0.2-6.7-0.2-6.7
		L251.7,213.2z"/>
	<path class="st22" d="M247.3,204c0,0-0.1,14,8.8,14.6c8.9,0.6,7.8-20.3,7.8-20.3s-10.6,0.2-13.2-3.9
		C250.7,195.4,250.8,202.6,247.3,204z"/>
	<path class="st9" d="M326.9,177.1c-0.1-5.2,13.4-12.8,16.1,4.4c1.4,10.3,1.4,10.3,1.4,10.3l-5.7,4.1l-13.9,1.8l-5.4-6
		C319.4,191.6,318,176.3,326.9,177.1z"/>
	<path class="st10" d="M324,192.1c0,0-0.1,14,8.8,14.6s7.8-20.3,7.8-20.3s-10.6,0.2-13.2-3.9C327.4,183.6,327.5,190.8,324,192.1z"/>
	<path class="st23" d="M312.7,231.3c0,0-0.3-18.3,16.3-22c0.4,0,8.1-1.2,8.1-1.2s14,2.2,13.8,17
		C350.9,225.4,312.7,231.3,312.7,231.3z"/>
	<path class="st10" d="M328.4,201.4c0,0,0.7,5.9,0.5,7.9c0.5,1.9,2.1,3.8,4.1,4.8c1.8-1.7,3.1-2.5,4-6.1c-0.6-4.4-0.2-6.7-0.2-6.7
		L328.4,201.4z"/>
	<path class="st24" d="M401.7,165.6c-0.1-5.2,13.4-12.8,16.1,4.4c1.4,10.3,1.4,10.3,1.4,10.3l-5.7,4.1l-13.9,1.8l-5.4-6
		C394.2,180.1,392.8,164.8,401.7,165.6z"/>
	<path class="st10" d="M398.8,180.6c0,0-0.1,14,8.8,14.6s7.8-20.3,7.8-20.3s-10.6,0.2-13.2-3.9C402.2,172.1,402.3,179.3,398.8,180.6
		z"/>
	<path class="st11" d="M387.5,219.8c0,0-0.3-18.3,16.3-22c0.4,0,8.1-1.2,8.1-1.2s14,2.2,13.8,17
		C425.7,213.9,387.5,219.8,387.5,219.8z"/>
	<path class="st10" d="M403.2,189.9c0,0,0.7,5.9,0.5,7.9c0.5,1.9,2.1,3.8,4.1,4.8c1.8-1.7,3.1-2.5,4-6.1c-0.6-4.4-0.2-6.7-0.2-6.7
		L403.2,189.9z"/>
	<path class="st9" d="M476,154.5c-0.1-5.2,13.4-12.8,16.1,4.4c1.4,10.3,1.4,10.3,1.4,10.3l-5.7,4.1l-13.9,1.8l-5.4-6
		C468.4,169,467,153.7,476,154.5z"/>
	<path class="st10" d="M473.1,169.6c0,0-0.1,14,8.8,14.6s7.8-20.3,7.8-20.3s-10.6,0.2-13.2-3.9C476.5,161,476.5,168.2,473.1,169.6z"
		/>
	<path class="st25" d="M461.8,208.7c0,0-0.3-18.3,16.3-22c0.4,0,8.1-1.2,8.1-1.2s14,2.2,13.8,17C500,202.9,461.8,208.7,461.8,208.7z
		"/>
	<path class="st10" d="M477.5,178.8c0,0,0.7,5.9,0.5,7.9c0.5,1.9,2.1,3.8,4.1,4.8c1.8-1.7,3.1-2.5,4-6.1c-0.6-4.4-0.2-6.7-0.2-6.7
		L477.5,178.8z"/>
	<path class="st26" d="M478.2,218.8c-0.1-5.2,13.4-12.8,16.1,4.4c1.4,10.3,1.4,10.3,1.4,10.3l-5.7,4.1l-13.9,1.8l-5.4-6
		C470.7,233.4,469.3,218.1,478.2,218.8z"/>
	<path class="st10" d="M475.3,233.9c0,0-0.1,14,8.8,14.6s7.8-20.3,7.8-20.3s-10.6,0.2-13.2-3.9C478.7,225.3,478.8,232.5,475.3,233.9
		z"/>
	<path class="st27" d="M464,273.1c0,0-0.3-18.3,16.3-22c0.4,0,8.1-1.2,8.1-1.2s14,2.2,13.8,17C502.2,267.2,464,273.1,464,273.1z"/>
	<path class="st10" d="M479.7,243.2c0,0,0.7,5.9,0.5,7.9c0.5,1.9,2.1,3.8,4.1,4.8c1.8-1.7,3.1-2.5,4-6.1c-0.6-4.4-0.2-6.7-0.2-6.7
		L479.7,243.2z"/>
	<path class="st28" d="M480.5,283.5c-0.1-5.2,13.4-12.8,16.1,4.4c1.4,10.3,1.4,10.3,1.4,10.3l-5.7,4.1l-13.9,1.8l-5.4-6
		C472.9,298,471.5,282.7,480.5,283.5z"/>
	<path class="st29" d="M466.3,337.8c0,0-0.3-18.3,16.3-22c0.4,0,8.1-1.2,8.1-1.2s14,2.2,13.8,17
		C504.5,331.9,466.3,337.8,466.3,337.8z"/>
	<path class="st30" d="M482,307.9c0,0,0.7,5.9,0.5,7.9c0.5,1.9,2.1,3.8,4.1,4.8c1.8-1.7,3.1-2.5,4-6.1c-0.6-4.4-0.2-6.7-0.2-6.7
		L482,307.9z"/>
	<path class="st31" d="M477.6,298.6c0,0-0.1,14,8.8,14.6s7.8-20.3,7.8-20.3s-10.6,0.2-13.2-3.9C481,290,481.1,297.2,477.6,298.6z"/>
	<polygon class="st13" points="294.8,366.9 292,367.3 288.5,168.1 291.3,167.7 	"/>
	<polygon class="st13" points="447.5,343 444.7,343.4 441.2,144.2 444,143.8 	"/>
	<polygon class="st13" points="369.3,223.8 366.2,224.2 365,158.1 368.2,157.6 	"/>
	<polygon class="st13" points="215.3,314.1 215.2,309.9 292.8,298 292.9,302.1 	"/>
	<polygon class="st13" points="443.4,278.9 443.4,274.7 521,262.8 521,267 	"/>
	<polygon class="st13" points="214.3,249.1 214.2,245 520.1,197.9 520.2,202.1 	"/>
	<polygon class="st32" points="523.6,331.5 216.4,378.8 212.9,179.9 520.1,132.6 	"/>
</g>
<g id="Layer_4">
	<path class="st33" d="M27.1,517l-0.3-20.1l563.7-96.3l264.8,87.6L326.7,669.3c0,0-18.9-69.7-112.5-94.6
		C120.7,549.8,61.9,554.8,27.1,517z"/>
	<path class="st34" d="M26.1,496.5L589.5,380l264.8,87.6L325.7,648.8c0,0-18.9-69.7-112.5-94.6S60.9,534.4,26.1,496.5z"/>
	<path class="st35" d="M312.6,399.8L302,451.6c0,0-4,9.7,5.3,17.3s41.1,19.9,41.1,19.9l104-31.4l-60.6-22.1c0,0-7.5-4-4-14.2
		s13.7-34.9,13.7-34.9L312.6,399.8z"/>
	<path class="st36" d="M198.9,183.4c0,0-4.9-19.5,25.2-21.2s291.1-42,291.1-42s20.8-3.5,21.2,20.4s4.9,193.3,4.9,193.3l-16.4,3.1
		l-5.3-196.9c0,0,0.4-5.8-4.9-5.8c-7.5,0-295.5,44.7-295.5,44.7s-5.3,0.9-5.3,7.5s3.5,194.7,3.5,194.7l-11.9,0.9L198.9,183.4z"/>
	<path class="st33" d="M205.5,382.1l336.2-53.5l0.9,30.5c0,0,2.2,14.2-11.1,16.4s-304.4,52.2-304.4,52.2s-20.4,3.1-20.8-17.3
		S205.5,382.1,205.5,382.1z"/>
	<polygon class="st13" points="312.1,520.1 411.6,491.3 546.1,548.4 446.6,591.3 	"/>
	<path class="st37" d="M458.1,562.1c0-0.7,2.2-18.4,2.2-18.4l61.7-84.3l12.6,8.8l-61.7,83.6L458.1,562.1z"/>
	<g>
		<path class="st37" d="M419.8,563.9c0.6,1,1.4,1.9,2.3,2.6c0.9,0.7,1.9,1,2.9,0.9s1.7-0.7,2.1-1.6c0.4-0.9,0.5-2,0.8-3.2
			c0.1-0.6,0.3-1.2,0.6-1.8c0.3-0.6,0.7-1.2,1.3-1.7c1.2-0.9,2.6-1.2,3.9-1.2s2.5,0.3,3.7,0.6c1.1,0.2,2.2,0.5,3.2,0.4l-0.8,0.8
			c0.2-1.2,0.5-2.6,1.5-3.8c0.5-0.6,1.3-1,2-1.1c0.8-0.1,1.4,0.1,2,0.2c2.1,0.5,4.6-0.5,6-2.5c-0.4,1.1-1.3,2.1-2.4,2.8
			s-2.4,1-3.8,0.9c-0.6-0.1-1.2-0.1-1.6,0s-0.8,0.3-1,0.7c-0.5,0.7-0.8,1.9-0.9,3l-0.1,0.7l-0.8,0.1c-1.3,0.1-2.6-0.1-3.7-0.4
			c-1.2-0.2-2.2-0.5-3.3-0.5c-1,0-2,0.2-2.7,0.7s-1.1,1.4-1.4,2.5s-0.5,2.3-1.1,3.5c-0.3,0.6-0.8,1.2-1.4,1.6
			c-0.6,0.4-1.3,0.6-2,0.6c-1.4,0-2.6-0.6-3.5-1.5C420.7,566.1,420.2,565,419.8,563.9z"/>
	</g>
	<g>
		<path class="st37" d="M403.1,556.3c0.3,1.4,1.8,2.3,3.1,2.2c1.3-0.1,2.4-1.4,2.5-2.6c0.1-0.6-0.1-1.3-0.1-2.1
			c0-0.4,0.1-0.9,0.4-1.4c0.3-0.4,0.8-0.7,1.2-0.8c0.9-0.3,1.6-0.2,2.4-0.2c0.7,0,1.4,0,2.1,0c0.6-0.1,1.1-0.3,1.4-0.7
			c0.3-0.3,0.6-1,0.9-1.7c0.4-0.8,1.1-1.5,1.8-1.9c0.8-0.4,1.6-0.6,2.3-0.8c1.5-0.3,2.9-0.3,4.1-0.8c1.1-0.4,2-1.3,3-2.4
			c0.5-0.5,1-1.1,1.7-1.6s1.5-0.9,2.3-1.1c1.6-0.3,3.1-0.2,4.2-0.6c0.6-0.2,1-0.4,1.4-0.9s0.9-1.1,1.6-1.7c1.3-1.1,2.8-1.6,4.2-2
			c1.4-0.4,2.7-0.8,3.8-1.6c0.5-0.3,1-0.9,1.6-1.4c0.3-0.3,0.7-0.5,1.1-0.6s0.8-0.2,1.1-0.3c2.8-0.3,5.2-2.4,6-5.2
			c-0.3,2.9-2.8,5.5-5.8,6.2c-0.7,0.2-1.3,0.4-1.7,0.8c-0.5,0.4-0.9,1.1-1.6,1.6c-1.3,1-2.8,1.5-4.1,2c-1.4,0.5-2.6,1-3.6,1.8
			c-0.5,0.4-0.8,0.9-1.4,1.6c-0.5,0.6-1.3,1.2-2.2,1.5c-1.6,0.5-3.2,0.4-4.4,0.7c-1.2,0.2-2.1,1-3,2.1c-0.5,0.5-1,1.1-1.6,1.6
			s-1.4,1-2.2,1.3c-1.6,0.5-3.1,0.6-4.4,0.8c-0.7,0.1-1.3,0.3-1.8,0.5c-0.5,0.3-0.9,0.6-1.2,1.1c-0.3,0.5-0.6,1.3-1.3,2
			c-0.7,0.7-1.7,1-2.5,1c-0.8,0.1-1.6,0-2.3-0.1c-0.7,0-1.4-0.1-2,0c-0.5,0.1-0.8,0.4-0.8,1c-0.1,0.6,0.1,1.4-0.1,2.2
			c-0.4,1.6-1.8,2.9-3.4,2.9C404.7,559,403.2,557.8,403.1,556.3z"/>
	</g>
	<g>
		<path class="st37" d="M385.4,545.5c0.6,1.5,2.1,2.3,3.6,2.3s2.8-0.8,3.7-2c0.5-0.6,0.8-1.2,1.1-1.9c0.3-0.7,0.8-1.5,1.6-2.1
			c0.8-0.5,1.7-0.7,2.5-0.8s1.5-0.3,2.3-0.4c1.6-0.2,3.1-0.4,4.7-0.4c1.6-0.1,3.1-0.1,4.1-0.7c1-0.6,1.4-1.9,2.1-3.5
			c0.4-0.8,0.9-1.6,1.6-2.2c0.7-0.6,1.5-1,2.3-1.3c1.6-0.6,3.3-0.7,4.9-0.7s3.1,0,4.5-0.2c0.4-0.1,0.7-0.1,0.9-0.2
			c0.3-0.1,0.4-0.2,0.5-0.4c0.2-0.2,0.4-0.6,0.7-1c0.3-0.4,0.7-0.7,1.2-1c0.9-0.5,1.8-0.5,2.6-0.6c0.8,0,1.6,0,2.4,0.1
			c0.7,0,1.5,0,2.1-0.2s1-0.5,1.3-1.2c0.2-0.3,0.3-0.7,0.5-1.1c0.2-0.4,0.6-0.8,1.1-1c1-0.4,1.8-0.3,2.5-0.3c1.4,0,2.9-0.5,4.2-1.4
			c1.3-0.8,2.4-1.9,3.6-2.9c-1,1.2-2,2.4-3.3,3.3c-1.2,1-2.7,1.8-4.4,1.9c-0.8,0.1-1.6,0-2,0.3c-0.4,0.2-0.6,0.9-0.9,1.7
			s-1.1,1.7-2,2s-1.7,0.4-2.5,0.4c-1.6,0.1-3.2-0.1-4.2,0.5c-0.2,0.1-0.4,0.3-0.6,0.5s-0.3,0.6-0.6,1c-0.3,0.4-0.8,0.8-1.3,1
			s-0.9,0.3-1.3,0.4c-3.3,0.6-6.4-0.1-9,0.9c-1.3,0.5-2.3,1.2-2.9,2.5c-0.3,0.6-0.6,1.4-1,2.1c-0.4,0.8-1,1.6-1.9,2.1
			c-1.7,1-3.5,0.8-5,0.8s-3.1,0.1-4.6,0.2c-0.8,0.1-1.5,0.1-2.3,0.2c-0.8,0.1-1.5,0.2-2,0.5c-1.1,0.5-1.5,2.3-2.7,3.5
			s-2.8,2-4.5,1.8c-0.8-0.1-1.6-0.4-2.2-0.9C386,547,385.6,546.3,385.4,545.5z"/>
	</g>
	<g>
		<path class="st37" d="M369.1,538c1.1,1.4,3,1.8,4.5,1.4c0.8-0.2,1.5-0.6,2-1.2c0.5-0.6,0.8-1.3,1-2.1s0.5-1.7,1-2.5
			s1.4-1.4,2.3-1.8c1.8-0.7,3.7-0.5,5.4-0.2c0.9,0.1,1.7,0.3,2.5,0.4c0.8,0.1,1.6,0.1,2.4,0c1.6-0.2,2.8-0.9,3.2-2.3
			c0.1-0.4,0.2-0.8,0.4-1.2c0.2-0.5,0.4-1,0.7-1.4c0.6-0.9,1.5-1.5,2.4-1.9c1.8-0.8,3.7-0.9,5.5-0.9c1.7,0,3.4,0,4.8-0.4
			c0.7-0.2,1.3-0.6,1.8-1s0.8-1.1,1.3-2c0.3-0.4,0.7-0.8,1-1.2c0.4-0.3,0.9-0.6,1.3-0.8c0.9-0.4,1.9-0.5,2.8-0.6
			c1.8-0.1,3.5,0.1,5.2,0c0.8-0.1,1.6-0.2,2.3-0.5c0.7-0.3,1.2-0.7,1.7-1.4c0.2-0.3,0.5-0.7,0.8-1.1c0.3-0.4,0.8-0.7,1.3-0.9
			c0.9-0.4,1.9-0.4,2.8-0.3c0.9,0,1.7,0.1,2.5-0.1c0.8-0.1,1.6-0.4,2.4-0.7c1.5-0.7,2.9-1.8,3.9-3.2c-1.6,3.1-5.2,5-8.8,4.9
			c-0.8,0-1.7,0.1-2.3,0.4c-0.7,0.3-1,0.9-1.5,1.6c-0.5,0.8-1.3,1.5-2.2,1.9c-0.9,0.4-1.8,0.6-2.7,0.7c-1.8,0.2-3.5,0.1-5.1,0.2
			c-1.6,0.1-3,0.6-3.7,1.8c-0.2,0.3-0.4,0.7-0.6,1.1c-0.2,0.4-0.6,0.9-0.9,1.2c-0.7,0.7-1.7,1.2-2.6,1.5c-1.9,0.6-3.7,0.5-5.4,0.5
			c-1.6,0-3.3,0.1-4.7,0.7c-0.7,0.3-1.2,0.7-1.6,1.2s-0.5,1.2-0.9,2.1c-0.3,0.9-1,1.9-1.9,2.5s-1.9,0.8-2.8,0.9
			c-0.9,0.1-1.9,0.1-2.8-0.1c-0.9-0.1-1.8-0.3-2.6-0.5c-1.6-0.3-3.3-0.5-4.8-0.1c-0.7,0.2-1.3,0.6-1.8,1.2c-0.5,0.6-0.7,1.4-1,2.2
			s-0.7,1.7-1.4,2.4c-0.7,0.7-1.6,1-2.5,1.2c-0.9,0.1-1.8,0.1-2.6-0.3C370.2,539.3,369.5,538.8,369.1,538z"/>
	</g>
	<g>
		<path class="st37" d="M352.5,531.4c-1.5-1.8-2.3-4.3-1.9-6.7c0.1-0.6,0.2-1.2,0.6-1.8s1.2-0.9,1.9-0.8c1.4,0.2,2.3,1,3.3,1.4
			c2,0.9,4.4,0.6,6.1-0.6c1.7-1.2,2.7-3.4,2.6-5.4l-0.1-1.4l1.3,0.7c1.9,1,4.1,1.6,6.3,1.7l-0.9,0.9l-0.2-3.6l-0.1-1.6l1.5,0.8
			c1.2,0.6,2.4,1.1,3.6,1.5c1.3,0.4,2.6,0.7,3.7,0.6c0.6-0.1,1-0.2,1.5-0.5c0.4-0.3,0.7-0.7,0.8-1.1c0.1-0.2,0.1-0.4,0-0.5
			c0-0.2-0.1-0.3-0.3-0.5c-0.3-0.3-0.6-0.4-0.8-0.3l0.7-1.1c0,0.2,0.2,0.4,0.5,0.6c0.3,0.1,0.6,0.2,0.8,0.1c0.2-0.1,0.4-0.3,0.4-0.6
			c0.1-0.3,0-0.6-0.2-0.7l1.6-0.9c0.1,0.4,0.6,0.8,1.2,1c0.6,0.2,1.3,0,2.1-0.3c0.8-0.3,1.6-0.7,2.5-1s1.8-0.6,2.7-0.8
			c1.8-0.4,3.7-0.7,5.6-0.7s3.8,0.2,5.6,0.6L404,511l0.6-4.5l0.1-0.8l0.7,0.3c2.9,1,5.9,1.7,8.9,1.6c3-0.2,6.1-1.4,7.9-3.9l0,0l0,0
			c0.6-0.3,1.5,0.2,1.4,0.9c0-0.7-0.9-1-1.3-0.7l0,0c-0.8,1.3-2.1,2.4-3.5,3.2c-1.4,0.8-3,1.2-4.5,1.4c-3.2,0.4-6.4-0.3-9.4-1.2
			l0.8-0.6l-0.4,4.5l-0.1,0.8l-0.8-0.1c-3.5-0.6-7-0.5-10.4,0.4c-0.8,0.2-1.7,0.5-2.5,0.8s-1.6,0.7-2.5,1.1c-0.9,0.3-2,0.6-3.2,0.4
			c-0.6-0.1-1.1-0.4-1.6-0.7c-0.5-0.4-0.9-1-1.1-1.6l-1-3.7l2.6,2.7c0.7,0.7,0.8,1.6,0.7,2.4c-0.1,0.8-0.6,1.6-1.5,2.1
			c-0.9,0.4-1.8,0.3-2.5-0.1c-0.7-0.4-1.4-1.1-1.5-2l-0.1-0.8l0.8-0.3c0.6-0.2,1.2-0.1,1.7,0.1c0.5,0.2,0.9,0.5,1.2,0.9
			c0.3,0.4,0.6,0.8,0.7,1.3s0.1,1.1,0,1.5c-0.6,1.9-2.4,2.9-4,3c-1.7,0.1-3.1-0.3-4.4-0.7c-1.4-0.4-2.7-1-3.9-1.8l1.4-0.8l0.1,3.6v1
			l-1-0.1c-2.5-0.1-4.9-0.8-7-2.1l1.2-0.7c0.1,2.6-1.3,5.2-3.4,6.6c-2.2,1.4-5,1.5-7.3,0.4c-1.1-0.6-2-1.4-3-1.6
			c-0.5-0.1-0.9,0.1-1.2,0.5c-0.3,0.4-0.5,0.9-0.6,1.5C350.7,527.1,351.2,529.5,352.5,531.4z"/>
	</g>
</g>
<g id="Layer_3">
	<path class="st16" d="M648.6,202.9c3.8,30.5,24.3,51.6,65.7,49.7c0,0-8,42.9-7.3,44.6c0.7,1.7,26.2,39.5,30.2,41.5
		s10.3,6.3,16.9,10.6s26.9,2.3,27.5,1.3c0.7-1-4-3.6,4.6-9.6s31.5-30.9,32.5-50.8s3.3-45.8-19.2-59.4c-10.6-7.6,22.2-30.2,22.2-30.2
		c-13-2.5-24.9-0.4-33.5,16.3c0,0-3-36.2-17.9-37.8c2,13.9,1.7,31.5,1.7,31.5s-6-17.3-27.2-19.9s-21.6,3.3-34.5,3
		s-30.9-12.3-30.9-12.3s-1,20.9,11.9,26.9C681.4,208.9,663.5,211.2,648.6,202.9z"/>
	<path class="st10" d="M677.1,239.7c0,0,23.2,10.3,38.5,6.6c11.9,10.9,1.3,50.1,1.3,50.1l10.6,6.3c0,0,3.6-20.2,15.9-20.6
		s12.3,9.6,12.6,17.3s-3.6,14.6-9,14.9c0,10.3,11.6,34.8,34.5,36.2c1,2.3,3,5.3,3,5.3s-43.5,12.3-56.7,34.5
		c-10-9.3-10.3-18.9-10.3-18.9s-6,6.6-22.9,1.7s-30.2-35.5-30.5-44.1c-8.3-3-11.3-6.6-11.9-12.6s11.6-14.9,11.6-21.6s-3-5.6-3-14.6
		C661.5,261.6,677.1,239.7,677.1,239.7z"/>
	<path class="st10" d="M649.5,503.5c0,0-25.2,60.4-28.2,62c-13.6,7.3-87.9-20.2-87.9-20.2s2.3-16.6-8.6-28.2
		c-10.9-11.6,4-27.5,4-27.5s3-12.3-6-8s-13.6,25.9-13.6,25.9l-28.9-13.9c0,0-11.9-3-12.3,5.6c-0.3,8.6,4.6,10.6,4.6,10.6
		s-4.3,0-4.3,5s8.3,17.3,8.3,17.3s-4.3,11.3,0.3,18.6c1.7,7-2,5.3,2.7,12.3c4.6,7,11.6,12.6,25.2,13.6s16.6-2.3,16.6-2.3
		s59.1,49.8,111.2,44.5c30.9-8,61.7-91.2,61.7-91.2L649.5,503.5z"/>
	<path class="st38" d="M721.2,407.6c0,0,4-42.8,75-54.4c7,4.3,7.6,21.9,7.6,21.9L721.2,407.6z"/>
	<path class="st11" d="M649.5,503.5c0,0,35.8-85.3,63.7-96.2c0,0.3,25.9-19.2,46.1-26.2c20.2-7,41.5-11.3,47.1-9.3
		s74.3,106.5,77.3,152.3s8.6,76.3-26.2,101.5s-165.9,35.8-165.9,35.8s21.6-90.2,10.9-127.7L649.5,503.5z"/>
	<path class="st38" d="M649.5,503.6c0,0,70.5,39.9,70.9,39.9s8-15.7,8-15.7s-72.7-37.3-73-37.4C655.1,490.3,649,503.4,649.5,503.6z"
		/>
	<path class="st16" d="M715.6,246.4"/>
	<path class="st16" d="M670.4,270.4c-0.4,3.5-1.3,5.3,2.7,5.1s7.3-2.4,10.8-1.3s7.3,4,9.5,4.4s2-2.7,0.4-4.4
		c-1.5-1.8-5.3-6.2-10.2-6.9S670.7,268.4,670.4,270.4z"/>
	<path class="st39" d="M752.3,534.3c13-11.1,60.2,3.1,109.7-12.4s61.9-36.3,73-34.1s16.8,80.1,10.2,91.1
		c-6.6,11.1-32.3,41.6-79.6,52.2s-106.2,20.4-117.2,1.3C737.3,613.4,746.1,539.6,752.3,534.3z"/>
	<path class="st40" d="M771,547.6c11.3-9.3,52.7,2.6,96-10.4c43.4-13,54.2-30.4,63.9-28.5s14.7,67,8.9,76.3s-28.3,34.8-69.7,43.7
		s-92.9,17-102.6,1.1C757.8,613.9,765.6,552,771,547.6z"/>
	<path class="st41" d="M837.7,686c0,0,11.5-87.6,7.1-111.9c23-2.2,44.7-10.6,44.7-10.6s4,58-2.2,97.8c-11.1,0.7-17.4,11.7-25.7,16.4
		C849.4,684.6,837.7,686,837.7,686z"/>
	<path id="path328_1_" class="st16" d="M673.2,290.5c5.5-15.4,17.8-1.3,17.8-1.3c0.2,2.2-2.9,2.6-6.6,2.4c-0.1,2.6-1.3,5.2-3,5.2
		c-1.9,0-3.1-3-3-5.9C676.3,290.7,674.4,290.5,673.2,290.5L673.2,290.5z"/>
	<path class="st42" d="M745.7,302.9c-1.2-1.9-3.5-3-5.7-2.7s-4.2,2-4.8,4.1c0.3-2.5,0.6-5,1.8-7.2c1.3-2.4,3.7-4,6-5.5
		c0.9-0.5,1.9-1.1,2.9-1.1c1.1,0,2.2,0.6,2.4,1.6"/>
	<path class="st43" d="M702,373c13.3,1.5,27.1-3.6,36.3-13.2c2.9-3.1,5.5-6.9,5.6-11.2"/>
	<path class="st44" d="M471.9,508.3c3.7,4.2,8.4,7.6,13.4,10c1.2,0.5,2.5,1,3.7,0.7"/>
	<g>
		<path class="st45" d="M678.8,344.8c2,0.2,4.1,0,6-0.4c2-0.4,3.9-1.1,5.7-2s3.5-2,5-3.3s2.8-2.9,3.9-4.6l0.3,0.2
			c0.1,2.5-0.8,4.8-2.1,6.8c-1.4,1.9-3.3,3.5-5.4,4.5c-2.1,1.1-4.5,1.6-6.9,1.6c-2.4-0.1-4.8-0.7-6.7-2.4L678.8,344.8z"/>
	</g>
	<g>
		<path class="st45" d="M749.9,343.3c-0.3,2.8-1.2,5.5-2.5,8s-3,4.8-5,6.8c-1.9,2.1-4,3.9-6.2,5.6c-1.1,0.9-2.2,1.7-3.3,2.5
			s-2.4,1.6-3.6,2.3c-5,2.8-10.3,4.8-15.9,5.7c-1.4,0.3-2.8,0.5-4.2,0.6s-2.8,0.2-4.2,0.2c-2.8,0-5.7-0.3-8.4-1.2l0.1-0.4
			c2.8-0.1,5.4-0.5,8-1s5.2-1.2,7.8-1.9c2.6-0.7,5.1-1.5,7.7-2.3c2.5-0.8,5.1-1.7,7.5-2.8c1.2-0.6,2.3-1.1,3.5-1.8
			c1.2-0.7,2.3-1.4,3.4-2.2c2.2-1.5,4.4-3.1,6.4-4.9s3.8-3.7,5.3-6c1.5-2.2,2.6-4.7,3.2-7.4L749.9,343.3z"/>
	</g>
</g>
<g id="Layer_2_1_">
	<path class="st46" d="M366.6,272.1c-0.8,4.6-1.1,9.3-0.9,13.9c1.3,0.3,2.7,0,4-0.8"/>
	<path class="st46" d="M363.8,292.7c1.5,1.5,3.6,1.8,5.5,1.2c2-0.5,3.8-1.8,5.5-3.3"/>
	<g>
		<path class="st45" d="M358.9,303.6c1.5,1.4,3.3,2.2,5.1,2.6c1.8,0.4,3.7,0.3,5.5-0.1s3.5-1.2,5.1-2.2c1.5-1.1,3-2.4,4.3-4
			c-0.6,2-1.8,3.8-3.3,5.2c-1.6,1.4-3.5,2.6-5.7,3c-2.1,0.4-4.3,0.4-6.4-0.4C361.5,306.9,359.7,305.5,358.9,303.6z"/>
	</g>
	<path class="st46" d="M343.8,276.9c0.1-0.8,0.8-1.4,1.4-1.5s1.2,0.2,1.7,0.7c0.4,0.5,0.8,1.1,1.1,1.8c0.4,0.8,0.8,1.7,0.9,2.8
		c-0.3-0.6-1-0.7-1.5-0.5c-0.6,0.3-1,0.9-1.3,1.6"/>
	<path class="st46" d="M390.6,266.9c-0.2-0.7-0.9-1.1-1.6-0.9c-0.6,0.2-1.2,0.8-1.6,1.5s-0.6,1.5-0.8,2.3c-0.4,1.8-0.8,3.7-0.2,5.3
		c0.2-1,0.9-1.8,1.7-2c0.3-0.1,0.6,0,0.9,0.2"/>
	<path class="st47" d="M728.4,528.2c7.3-13.2,12.5-27.5,17.8-41.6c2.5-6.7,5-13.5,6.4-20.5c0.8-3.7,1.2-7.6,0.6-11.4
		c-0.5-3.1-1.9-6.1-3.4-8.9c-5.4-10-13.7-18.5-23.5-24.3"/>
</g>
</svg>
