<?xml version="1.0" encoding="utf-8"?>
<!-- Generator: Adobe Illustrator 23.0.2, SVG Export Plug-In . SVG Version: 6.00 Build 0)  -->
<svg version="1.1" id="Layer_1" xmlns="http://www.w3.org/2000/svg" xmlns:xlink="http://www.w3.org/1999/xlink" x="0px" y="0px"
	 viewBox="0 0 984.54 714.63" style="enable-background:new 0 0 984.54 714.63;" xml:space="preserve">
<style type="text/css">
	.st0{opacity:0.41;fill:#007CC7;}
	.st1{opacity:0.29;fill:#99ADE5;}
	.st2{opacity:0.61;fill:#99ADE5;}
	.st3{opacity:0.7;fill:#99ADE5;}
	.st4{fill:#FFFFFF;}
	.st5{fill:#CCCCCC;}
	.st6{opacity:0.65;fill:url(#SVGID_1_);}
	.st7{opacity:0.65;fill:url(#SVGID_2_);}
	.st8{fill:#8C8E9B;}
	.st9{fill:#666666;}
	.st10{fill:#B3B3B3;}
	.st11{fill:#E6E6E6;}
	.st12{fill:#72A084;}
	.st13{fill:#4E725B;}
	.st14{fill:none;stroke:#FFFFFF;stroke-width:3;stroke-linecap:round;stroke-miterlimit:10;}
	.st15{fill:none;stroke:#FFFFFF;stroke-width:3;stroke-linecap:round;stroke-miterlimit:10;stroke-dasharray:16.728,22.304;}
	.st16{fill:none;stroke:#FFFFFF;stroke-width:3;stroke-linecap:round;stroke-miterlimit:10;stroke-dasharray:13.4343,17.9124;}
	.st17{fill:none;stroke:#FFFFFF;stroke-width:3;stroke-linecap:round;stroke-miterlimit:10;stroke-dasharray:11.8752,15.8336;}
	.st18{opacity:0.28;}
	.st19{opacity:0.74;}
	.st20{fill:#212045;}
	.st21{fill:none;stroke:#FFFFFF;stroke-width:3;stroke-linecap:round;stroke-miterlimit:10;stroke-dasharray:15.6131,20.8175;}
	.st22{fill:none;stroke:#FFFFFF;stroke-width:3;stroke-linecap:round;stroke-miterlimit:10;stroke-dasharray:16.511,22.0147;}
	.st23{opacity:0.55;}
	.st24{fill:#007CC7;}
	.st25{fill:#995A4D;}
	.st26{fill:#C7725A;}
	.st27{fill:#A5361C;}
	.st28{opacity:0.64;fill:#A5361C;}
	.st29{fill:#422645;}
	.st30{opacity:0.57;}
	.st31{fill:#6382D7;}
	.st32{fill:#A1543F;}
	.st33{fill:#00B1AA;}
	.st34{fill:none;stroke:#FFFFFF;stroke-width:3;stroke-linecap:round;stroke-miterlimit:10;stroke-dasharray:15.2893,20.3858;}
	.st35{fill:#002042;}
	.st36{fill:#EEEEF0;}
	.st37{fill:#262840;}
	.st38{fill:#CACACA;}
	.st39{fill:#808080;}
	.st40{fill:#C64A27;}
	.st41{fill:#035693;}
	.st42{opacity:0.25;}
	.st43{opacity:0.4;fill:none;stroke:#212045;stroke-miterlimit:10;}
	.st44{opacity:0.33;}
	.st45{opacity:0.42;}
</style>
<g>
	<path class="st0" d="M939.1,267.26c-14.31-7.66-31.15-14.35-47.1-17.6c-9.03-1.84-34.33-6.28-43.04-10.63
		c-16.61-8.29-73.82-25.49-68.74-130.69c0.53-10.96-3.22-22.12-11.31-32.59c-2.73,1.72-5.86,2.3-8.75,1.5
		c-0.46,3.28-2.25,6.27-5.05,8.06c-5.02,3.23-12.16,1.86-15.86-3.41c-3.95,6.9-11.51,10.2-17.99,8.36c-6.4-1.82-9.12-7.93-9.51-8.87
		c-6.51,8.51-16.71,12.64-26.04,10.5c-7.98-1.83-12.58-7.6-14.01-9.58c-2.75,7.07-10.21,10.95-17.06,9.28
		c-5.96-1.46-10.46-6.87-10.93-13.37c-8.69-0.44-14.88-7.47-14.62-14.12c0.29-7.46,8.69-14.57,18.41-12.52
		c1.59-10.1,7.74-18.65,16.24-23.51c-44.99-6.56-103.34-5.74-175.58,6.92c-96.44,16.91-214.18,56.06-250.65,156.4
		c6.22,1.19,11.96,4.3,16.37,8.91c3.51-7.27,9.97-12.51,17.62-13.78c10.13-1.68,20.26,3.94,25.13,13.98
		c0.81-0.8,7.97-7.71,17.89-5.62c8.5,1.79,12.85,8.88,13.6,10.15c6.74-2.62,13.36,2.06,14.25,7.72c0.76,4.82-2.62,10.58-8.36,12.12
		c1.54,4.3,0.13,9.12-3.16,11.44c-3.7,2.6-8.97,1.48-11.71-2.81c-2.84,5.47-8.25,8.12-12.96,6.81c-0.42,3.04-2.09,5.8-4.67,7.46
		c-4.65,2.99-11.24,1.72-14.67-3.16c-3.65,6.38-10.65,9.43-16.63,7.73c-5.92-1.69-8.43-7.34-8.8-8.2
		c-6.02,7.87-15.45,11.69-24.09,9.71c-7.38-1.69-11.63-7.03-12.96-8.86c-2.01,5.15-6.71,8.46-11.71,8.88
		c-10.79,18.71-23.23,32.48-36.83,43.92c-27.78,23.4-60.34,37.09-93.23,63.57c-20.12,16.18-40.37,37.14-59.74,68.01
		c-0.78,1.25-1.54,2.49-2.28,3.72c-5.67,9.4-10.06,19.12-13.25,28.99c-2.91,9.01-4.81,18.15-5.77,27.28
		c-0.27,2.59-0.47,5.19-0.59,7.78c-0.38,7.97-0.04,15.89,0.96,23.7c7.28,56.52,70.16,110.55,131.4,126.99
		c216.82,58.19,325.89,90.45,675.87,46.06c39.93-5.06,64.83-23.86,69.89-46.89c0.24-1.06,0.43-2.14,0.58-3.24
		c0.09-0.74,0.17-1.5,0.23-2.26c0.02-0.27,0.04-0.55,0.05-0.82c0.01-0.15,0.02-0.31,0.02-0.46c0.01-0.12,0.02-0.24,0.02-0.36
		c0.01-0.3,0.02-0.59,0.02-0.9c0.01-0.09,0.01-0.19,0-0.29c0.01-0.19,0.01-0.39,0.01-0.59c0-0.28-0.01-0.56-0.02-0.85v-0.41
		c-0.02-0.43-0.04-0.87-0.06-1.31c-0.01-0.07-0.01-0.13-0.02-0.2c-0.18-2.72-0.6-5.54-1.27-8.44
		c-2.47-10.72-12.47-19.04-22.47-29.09c-0.3-0.3-0.6-0.6-0.9-0.91c-11.56-11.76-22.8-26.02-22.06-49.19c-0.01-0.01-0.01-0.02,0-0.03
		c0.25-7.98,1.93-17.02,5.51-27.39c1.32-3.82,2.91-7.33,4.74-10.6c2.02-3.62,4.34-6.93,6.91-9.99c0.6-0.72,1.22-1.43,1.85-2.12
		c21.05-23.18,56.82-31.79,85.88-55.45c6.49-5.29,12.65-11.33,18.23-18.45c13.11-16.72,23.06-39.42,26.73-72.37
		C987.18,314.45,971.64,284.68,939.1,267.26z"/>
	<path class="st1" d="M956.34,400.89v22.77c-5.58,7.12-11.74,13.16-18.23,18.45c-29.06,23.66-64.83,32.27-85.88,55.45
		c-0.63,0.69-1.25,1.4-1.85,2.12c-0.31,0.37-0.62,0.75-0.93,1.13c-0.05,0.06-0.09,0.12-0.14,0.18c-2.15,2.69-4.1,5.57-5.84,8.68
		c-6.51-0.58-13.02-1.03-19.54-1.14c-3.49-0.06-6.99-0.03-10.49,0.15c-10.84,0.53-21.37,2.84-31.83,5.56
		c-3.01,0.54-6.01,1.16-9,1.85c-9.48,2.19-18.79,5.05-28.3,7.07c-1.45,0.3-2.89,0.59-4.3,0.84c-20.43,3.7-38.41,2.45-59.18-2.06
		c-12.32-2.65-28.53-5.69-40.9-8.01c-13.6-2.56-26.1-0.21-39.31,0.42c-1.21,0.06-2.41,0.11-3.63,0.13
		c-15.12,0.3-29.65,6.56-44.26,9.7c-8.51,1.83-17.23,2.53-25.91,3.17c-10.23,0.77-20.47,1.45-30.72,1.58
		c-7.3,0.1-14.59-0.1-21.86-0.73c-4.8-0.43-9.58-1.06-14.33-1.93c-10.07-1.84-19.24-5.66-28.97-8.49c-3.43-0.99-6.66-2.58-9.6-4.62
		c-4.33-2.95-8.05-6.87-10.88-11.24c-0.42-0.66-0.85-1.4-0.73-2.16c0.22-1.45,7.48-4.92,8.99-5.92c3.68-2.41,7.39-4.77,11.12-7.11
		c7.08-4.43,14.21-8.75,21.31-13.15c13.95-8.65,27.76-17.62,40.33-28.21h0.3v8.34h10.41v6.25h27.45V439.8h17.73v7.3h8.68v-8.34
		h24.68v-9.72h16.66v7.29h8.35v53.86h6.61v-51.08h39.6v20.5h20.85v30.23h9.04v-21.89h11.47v-10.76h12.84v11.11h18.08v-11.11h3.12
		v-17.74l9.05-14.23l8.33,13.2v31.62h16.33v-30.59h36.49v34.41h8.68v-47.29h9.33l0.09-24.65l0.21-55.71h0.05l0.04-11.89l5.85,9.76
		l14.65-132.61L844,344.59l6.18-10.14l-0.05,13.65h-0.07l-0.16,40.35l-0.11,27.72h9.6v18.43h33.01v20.15h10.78v-22.59h13.9v-31.27
		H956.34z"/>
	<g>
		<g>
			<path class="st2" d="M43.73,512.31v0.01c-0.5,0.13-1.01,0.27-1.51,0.4c-2.67,0.71-5.33,1.42-8,2.1
				c-2.08,0.53-4.16,1.04-6.23,1.52c-2.06,0.49-4.13,0.94-6.19,1.37c-4.47,0.92-8.93,1.72-13.41,2.34c-2.15,0.32-4.3,0.58-6.46,0.8
				c-1-7.81-1.34-15.73-0.96-23.7c2.29,2.11,4.08,4.47,5.28,6.96c3.16-1.9,6.94-3.44,11.15-4.41c12.96-2.99,24.85,0.62,26.56,8.06
				C44.3,509.26,44.21,510.78,43.73,512.31z"/>
			<path class="st3" d="M441.88,509.98c-0.04,2.86-1.44,5.45-3.72,7.44c-8.24-0.81-16.51-2.33-24.82-4.2
				c-0.32-0.08-0.65-0.14-0.98-0.22c-8.05-1.83-16.13-3.97-24.23-6.09c-2.02-0.52-4.05-1.05-6.07-1.55
				c-12.05-3.08-24.13-5.9-36.24-7.36c-0.07-0.17-0.14-0.36-0.21-0.53c-0.11,0.15-0.22,0.3-0.33,0.45c-8.44-1-16.88-1.32-25.31-0.6
				c-2.33,0.2-4.64,0.48-6.95,0.82c-0.52-0.99-0.89-2.04-1.09-3.16c-1.36-7.57,5.56-15.15,15.44-16.92
				c7.9-1.41,15.3,1.31,18.66,6.32c4.31-8.09,15.99-11.7,27.65-8.12c9.05,2.77,15.67,9.16,17.73,16.13
				c2.54-1.02,5.45-1.59,8.53-1.54c8.12,0.13,14.91,4.42,16.9,10.17c2.7-1.81,6.25-2.89,10.13-2.82
				C435.31,498.33,441.98,503.6,441.88,509.98z"/>
			<g>
				<g>
					<path class="st4" d="M1.93,522.8c42.99-4.59,83.37-25.71,127.3-22.67c41.08,2.85,78.9,23.44,120.82,15.88
						c23.62-4.26,45.87-14.56,69.92-16.74c2.48-0.22,2.51-4.13,0-3.9c-20.76,1.88-40.22,9.55-60.3,14.56
						c-22.36,5.57-43.83,4.42-66.18-0.61c-18.56-4.17-37.02-9.9-56.07-12.28c-21.83-2.73-43.44,0.46-64.68,5.59
						c-23.55,5.69-46.61,13.69-70.81,16.27C-0.54,519.16-0.57,523.07,1.93,522.8L1.93,522.8z"/>
				</g>
			</g>
		</g>
		<g>
			<g>
				<path class="st5" d="M301.82,500.99c0,0,6.68-83.52,8.48-97.52c1.8-14,8.67-35.21,13.92-34.54c0,0-22.7,3.5-33.09,15.56
					s-5.85,19.43-2.04,54.75c3.48,32.26,7.36,61.4,7.36,61.4L301.82,500.99z"/>
				
					<linearGradient id="SVGID_1_" gradientUnits="userSpaceOnUse" x1="305.1277" y1="400.9458" x2="302.5007" y2="372.0487" gradientTransform="matrix(1 3.729743e-03 -3.729743e-03 1 1.1427 -1.181)">
					<stop  offset="0" style="stop-color:#FFFFFF;stop-opacity:0"/>
					<stop  offset="1" style="stop-color:#1D1D1B"/>
				</linearGradient>
				<path class="st6" d="M322.29,369.58c-4.39,3.27-9.3,18.11-11.39,30.03c-4.55,1.09-9.13,2.11-13.31,4.18
					c-2.99,1.48-5.7,3.5-8.01,5.92c-1.11,1.16-2.21,3.18-3.7,4.24c-1.96-14.92-1.98-21.05,5.26-29.45
					c8.31-9.65,24.5-13.82,30.64-15.1c0.1,0.03,0.2,0.07,0.3,0.1C322.14,369.52,322.22,369.55,322.29,369.58z"/>
				<path class="st4" d="M612.98,512.44c-7.49,0.85-14.94,2.31-22.36,4.02c-70.39-37.83-245.67-131.47-265.02-136.52
					c-23.64-6.16-37.24,8.58-37.94,9.35c0.66-1.18,20.69-36.09,61.02-31.1C393.95,366.29,575.55,487.27,612.98,512.44z"/>
			</g>
			<path class="st5" d="M255.49,512.46c0,0-6.62-95.21-8.32-109.23c-1.7-14.02-8.41-35.28-13.66-34.64c0,0,22.67,3.67,32.97,15.8
				c10.3,12.13,5.7,19.48,1.63,54.76c-3.72,32.23-7.26,73-7.26,73L255.49,512.46z"/>
			
				<linearGradient id="SVGID_2_" gradientUnits="userSpaceOnUse" x1="9413.2031" y1="400.9458" x2="9410.5762" y2="372.0487" gradientTransform="matrix(-1 -3.729743e-03 -3.729743e-03 1 9667.3535 34.8717)">
				<stop  offset="0" style="stop-color:#FFFFFF;stop-opacity:0"/>
				<stop  offset="1" style="stop-color:#1D1D1B"/>
			</linearGradient>
			<path class="st7" d="M235.44,369.25c4.36,3.3,9.16,18.18,11.17,30.12c4.54,1.13,9.12,2.18,13.28,4.28
				c2.98,1.5,5.67,3.55,7.96,5.98c1.1,1.17,2.19,3.2,3.67,4.26c2.07-14.9,2.14-21.03-5.04-29.49c-8.24-9.71-24.4-14-30.53-15.33
				c-0.1,0.03-0.2,0.07-0.3,0.1C235.58,369.2,235.51,369.22,235.44,369.25z"/>
			<path class="st4" d="M269.93,389.26c0,0-10.32-12.03-29.09-11.03c-2.75,0.15-5.69,0.57-8.8,1.36c-6.91,1.75-13.6,5.21-20.08,8.09
				c-12.75,5.66-25.37,11.59-37.98,17.55c-16.57,7.84-33.1,15.8-49.6,23.79c-18.34,8.9-36.65,17.85-54.95,26.83
				c-18.02,8.86-36.03,17.75-54.03,26.66c-4.62,2.28-9.23,4.57-13.84,6.86c0.96-9.13,2.86-18.27,5.77-27.28
				c12.79-7.6,25.62-15.14,38.49-22.61c15.72-9.12,31.5-18.14,47.38-26.99c14.98-8.34,30.05-16.54,45.27-24.45
				c12.77-6.63,25.66-13.1,38.8-18.98c9.07-4.05,18.36-8.12,28.02-10.56c1.25-0.32,2.55-0.68,3.84-0.83
				c36.71-4.27,56.38,24.35,60.13,30.46c0.05,0.08,0.1,0.15,0.14,0.22c0.08,0.13,0.15,0.25,0.21,0.35c0.09,0.15,0.15,0.27,0.21,0.36
				C269.89,389.19,269.93,389.26,269.93,389.26z"/>
		</g>
		<g>
			<polygon class="st8" points="220.42,434.75 220.38,445.03 194.92,443.84 195,422.13 195.04,422.11 			"/>
			<polygon class="st9" points="195,422.13 194.92,443.84 170.08,442.68 170.11,434.56 			"/>
			<path class="st10" d="M246.32,451.41l-0.23,61.45c0,0,0,0-15.3,3.28c-0.51,0.11-1.04,0.22-1.59,0.34
				c-16.89,3.62-33.46-5.19-33.46-5.19l-0.94,1.87l0.26-69.3l0.05-14.07l25.29,10.68L246.32,451.41z"/>
			<path class="st11" d="M195.03,429.79l-0.05,14.06l-0.27,69.28c-6.36-1.77-12.42-4.54-18.52-7.1c-4.65-1.96-9.36-3.79-14.15-5.4
				c-1.64-0.56-3.28-1.08-4.94-1.58c-0.24-0.07-0.47-0.14-0.71-0.21c-1.63-0.47-3.27-0.92-4.92-1.33c-0.33-0.09-0.67-0.17-1-0.25
				c-1.64-0.4-3.28-0.76-4.94-1.07c-0.47-0.1-0.95-0.19-1.42-0.27c-0.21-0.04-0.41-0.07-0.62-0.11l0.17-44.78l26.42-10.92
				l24.88-10.29L195.03,429.79z"/>
			<g>
				<polygon class="st8" points="237.95,451.41 237.79,494.66 232.31,494.64 232.48,449.18 				"/>
				<polygon class="st8" points="225.14,446.17 224.98,489.48 219.49,489.46 219.66,443.93 				"/>
				<polygon class="st8" points="211.38,440.55 211.22,483.52 205.74,483.5 205.91,438.3 				"/>
			</g>
			<g>
				<path class="st8" d="M150.63,454.04l-0.16,43.22c-1.64-0.4-3.28-0.76-4.94-1.07l0.15-40.18L150.63,454.04z"/>
				<path class="st8" d="M162.24,449.4l-0.2,51.23c-1.64-0.56-3.28-1.08-4.94-1.58l0.17-47.68L162.24,449.4z"/>
				<polygon class="st8" points="169.73,446.39 169.54,498.17 174.48,498.19 174.68,444.4 				"/>
				<polygon class="st8" points="181.36,441.56 181.17,493.33 186.11,493.35 186.31,439.57 				"/>
			</g>
			<g>
				<polygon class="st5" points="156.56,455.79 156.54,460.1 151.6,461.94 151.62,457.76 				"/>
				<polygon class="st5" points="168.17,451.15 168.15,455.77 163.19,457.62 163.2,453.12 				"/>
				<polygon class="st5" points="180.6,446.16 180.59,451.13 175.63,452.99 175.65,448.14 				"/>
				<polygon class="st5" points="192.23,441.32 192.21,446.8 187.27,448.64 187.29,443.31 				"/>
				<g>
					<polygon class="st5" points="156.51,468.8 156.49,473.11 151.55,474.96 151.57,470.78 					"/>
					<polygon class="st5" points="168.12,464.16 168.1,468.78 163.14,470.64 163.16,466.14 					"/>
					<polygon class="st5" points="180.56,459.17 180.54,464.14 175.58,466 175.6,461.16 					"/>
					<polygon class="st5" points="192.18,454.34 192.16,459.81 187.22,461.66 187.24,456.32 					"/>
				</g>
				<g>
					<polygon class="st5" points="156.46,481.82 156.44,486.13 151.5,487.97 151.52,483.79 					"/>
					<polygon class="st5" points="168.07,477.18 168.06,481.8 163.09,483.65 163.11,479.15 					"/>
					<polygon class="st5" points="180.51,472.19 180.49,477.16 175.54,479.01 175.55,474.17 					"/>
					<polygon class="st5" points="192.13,467.35 192.11,472.83 187.17,474.67 187.19,469.34 					"/>
				</g>
				<g>
					<path class="st5" d="M156.41,494.84l-0.02,4c-1.63-0.47-3.27-0.92-4.92-1.33v-0.7L156.41,494.84z"/>
					<polygon class="st5" points="168.02,490.19 168.01,494.81 163.04,496.67 163.06,492.16 					"/>
					<polygon class="st5" points="180.46,485.2 180.44,490.17 175.49,492.03 175.51,487.19 					"/>
					<polygon class="st5" points="192.09,480.36 192.07,485.84 187.13,487.69 187.15,482.35 					"/>
				</g>
			</g>
		</g>
		<g>
			<path id="XMLID_4_" class="st12" d="M308.15,482.51l5.73-0.94c-0.69-4.59-1.54-9.69-2.56-14.86l-5.93-1.36l5.29-1.73
				c-0.73-3.44-1.52-7.15-2.41-10.15l-3.17-0.14l2.53-2.19c-1.71-5.99-3.7-11.4-5.99-15.44l-2.09,0.98l0.91-2.91
				c-2.02-2.99-4.25-4.91-6.7-5.24c-2.33-0.32-4.88,5.34-7.34,13.59l4.73,3.39l-5.38-1.14c-1.39,4.95-2.75,10.65-4,16.46l4.65,2.66
				l-5.28-0.23c-1,4.75-1.83,9.52-2.86,13.95l-0.96,22.38l13.93,2.51c1.97,0.35,3.99,0.41,5.97,0.16l18.94-2.36
				c0,0-0.61-6.6-1.92-15.78L308.15,482.51z"/>
			<path id="XMLID_3_" class="st13" d="M298.47,488.95c0.55-4.69,0.87-9.21,1.03-13.53l12.76-3.73c-0.09-0.52-0.19-1.05-0.29-1.58
				l-12.42,3.63c0.09-3.47,0.07-6.8-0.04-9.98l9.77-6.35c-0.13-0.55-0.27-1.1-0.4-1.64l-9.44,6.14c-0.15-3.47-0.4-6.74-0.71-9.78
				l6.69-7.95c-0.21-0.58-0.42-1.16-0.64-1.72l-6.29,7.47c-0.66-5.7-1.53-10.53-2.33-14.29c1.12-2.05,1.85-3.44,2.33-4.37
				c-0.4-0.42-0.81-0.79-1.22-1.12c-0.41,0.81-1,1.93-1.64,3.12c-0.45-1.93-0.86-3.47-1.18-4.59c-0.23-0.06-0.45-0.11-0.68-0.14
				c-0.32-0.04-0.64,0.03-0.96,0.2c0.33,1.15,0.8,2.88,1.32,5.13l-3.75-2.18c-0.24,0.44-0.48,0.92-0.71,1.43l4.94,2.87
				c0.82,3.85,1.71,8.83,2.38,14.74l-11.99-3.45c-0.13,0.51-0.27,1.02-0.4,1.55l12.58,3.62c0.3,3,0.55,6.21,0.69,9.62l-14.88-6.62
				c-0.12,0.53-0.24,1.05-0.36,1.59l15.31,6.81c0.1,3.14,0.12,6.43,0.03,9.85l-17.58-6.16c-0.11,0.53-0.21,1.06-0.32,1.58
				l17.85,6.25c-0.15,4.26-0.58,8.7-1.12,13.32l-18.66-7.73l-0.07,1.7l18.53,7.68c-0.41,3.28-0.82,6.64-1.47,10.06l1.57,0.3
				c0.65-3.44,1.18-6.82,1.6-10.12l16.66-1.42c-0.07-0.52-0.14-1.04-0.21-1.59L298.47,488.95z"/>
		</g>
	</g>
	<path class="st1" d="M849.45,500.81V501c-0.05,0-0.09-0.01-0.14-0.01C849.36,500.93,849.4,500.87,849.45,500.81z"/>
	<g>
		<g>
			<line class="st14" x1="434.6" y1="116.7" x2="438.82" y2="122.9"/>
			<line class="st15" x1="451.35" y1="141.35" x2="510.91" y2="228.97"/>
			<line class="st14" x1="517.18" y1="238.19" x2="521.39" y2="244.39"/>
		</g>
	</g>
	<g>
		<g>
			<line class="st14" x1="376.4" y1="138.31" x2="380.73" y2="144.44"/>
			<line class="st16" x1="391.05" y1="159.08" x2="440.08" y2="228.62"/>
			<line class="st14" x1="445.24" y1="235.94" x2="449.56" y2="242.07"/>
		</g>
	</g>
	<g>
		<g>
			<line class="st14" x1="402.68" y1="118.36" x2="406.96" y2="124.52"/>
			<line class="st17" x1="415.99" y1="137.52" x2="443.09" y2="176.53"/>
			<line class="st14" x1="447.61" y1="183.03" x2="451.89" y2="189.19"/>
		</g>
	</g>
	<g class="st18">
		<g>
			<path d="M166.61,504.75c-1.08-0.27-2.15-0.53-3.23-0.78c-1.07-0.26-2.15-0.51-3.23-0.76c-1.08-0.25-2.16-0.49-3.24-0.73
				c-1.07-0.24-2.12-0.47-3.19-0.69c7.96,2.31,15.88,4.2,23.78,5.67C173.88,506.55,170.25,505.63,166.61,504.75z"/>
		</g>
		<g class="st19">
			<g>
				<path class="st20" d="M626.09,511.61c-4.39,0.02-8.76,0.32-13.12,0.83c-37.43-25.18-219.03-146.15-264.29-154.25
					c-37.93-4.69-57.9,25.89-60.69,30.54c-0.05,0.08-0.1,0.16-0.15,0.25c-0.06,0.1-0.11,0.2-0.17,0.3c-0.2,0.35-0.39,0.7-0.57,1.05
					c-0.07,0.13-0.14,0.27-0.2,0.4c-0.19,0.4-0.38,0.81-0.54,1.21c-0.02,0.04-0.04,0.09-0.06,0.13c-0.18,0.44-0.33,0.89-0.47,1.34
					c-0.05,0.14-0.09,0.29-0.13,0.43c-0.1,0.34-0.19,0.69-0.28,1.04c-0.03,0.13-0.07,0.27-0.1,0.4c-0.1,0.46-0.19,0.93-0.26,1.41
					c-0.02,0.13-0.03,0.26-0.05,0.39c-0.05,0.38-0.09,0.76-0.13,1.14c-0.02,0.17-0.03,0.35-0.04,0.52
					c-0.03,0.43-0.05,0.87-0.07,1.31c0,0.1-0.01,0.19-0.01,0.29c-0.01,0.53-0.01,1.08,0,1.64c0,0.2,0.01,0.4,0.02,0.6
					c0.01,0.41,0.03,0.84,0.05,1.27c0.01,0.2,0.02,0.4,0.03,0.6c0.04,0.59,0.08,1.2,0.13,1.83c0.02,0.21,0.04,0.43,0.06,0.65
					c0.04,0.46,0.09,0.93,0.14,1.41c0.03,0.29,0.06,0.58,0.09,0.88c0.05,0.45,0.1,0.92,0.16,1.39c0.07,0.57,0.14,1.15,0.22,1.75
					c0.05,0.36,0.09,0.73,0.14,1.1c0.02,0.17,0.04,0.33,0.06,0.5c0,0,0,0,0,0c0.75,5.69,1.78,12.65,2.8,21.51
					c-0.75,1.93-1.5,4.18-2.25,6.67l3.24,2.32c0.03,0.26,0.06,0.51,0.08,0.77l-3.98-0.84c-0.26,0.94-0.53,1.92-0.79,2.91l0,0
					c0,0.01-0.01,0.03-0.01,0.04c-0.13,0.49-0.26,0.99-0.39,1.49c0,0.01,0,0.01-0.01,0.02h0c-0.55,2.13-1.08,4.35-1.61,6.62h0
					c0,0.01,0,0.02-0.01,0.03c-0.12,0.51-0.24,1.03-0.35,1.54c0,0,0,0.01,0,0.01h0c-0.28,1.26-0.56,2.52-0.84,3.79l4.65,2.66
					l-5.28-0.23c-1,4.75-1.83,9.52-2.86,13.95l-0.2,4.74l-0.03,0.71l-0.72,16.93l3.51,0.63l-19.04,1.41
					c1.3-14.23,3.76-40.35,6.31-62.46c1.23-10.69,2.51-18.8,3.41-25.27c0,0,0,0,0,0c0.02-0.17,0.04-0.33,0.07-0.51
					c0.05-0.36,0.1-0.7,0.14-1.05c0.08-0.62,0.16-1.22,0.24-1.81c0.06-0.46,0.12-0.92,0.17-1.36c0.04-0.3,0.07-0.6,0.1-0.89
					c0.05-0.48,0.1-0.94,0.15-1.4c0.02-0.22,0.05-0.44,0.07-0.65c0.06-0.63,0.11-1.23,0.15-1.82c0.01-0.2,0.02-0.4,0.04-0.6
					c0.03-0.43,0.05-0.85,0.06-1.27c0.01-0.2,0.02-0.4,0.02-0.6c0.01-0.56,0.02-1.11,0.01-1.64c0-0.1-0.01-0.2-0.01-0.3
					c-0.01-0.44-0.03-0.88-0.06-1.31c-0.01-0.18-0.03-0.35-0.04-0.52c-0.03-0.39-0.07-0.77-0.12-1.14
					c-0.02-0.13-0.03-0.26-0.05-0.39c-0.07-0.48-0.15-0.95-0.25-1.41c-0.03-0.14-0.06-0.27-0.09-0.4c-0.08-0.35-0.17-0.7-0.27-1.04
					c-0.04-0.14-0.08-0.29-0.13-0.43c-0.14-0.45-0.29-0.9-0.46-1.34c-0.02-0.04-0.04-0.09-0.06-0.13c-0.16-0.41-0.34-0.81-0.53-1.22
					c-0.06-0.13-0.13-0.27-0.2-0.4c-0.18-0.35-0.36-0.7-0.57-1.06c-0.06-0.1-0.11-0.2-0.17-0.3c-0.06-0.1-0.12-0.2-0.18-0.29
					c-0.05-0.08-0.1-0.17-0.16-0.26c-0.04-0.07-0.09-0.14-0.14-0.22c-3.75-6.11-23.42-34.73-60.13-30.46
					c-1.29,0.15-2.59,0.51-3.84,0.83c-9.66,2.44-18.95,6.51-28.02,10.56c-13.14,5.88-26.03,12.35-38.8,18.98
					c-15.22,7.91-30.29,16.11-45.27,24.45c-15.88,8.85-31.66,17.87-47.38,26.99c-12.87,7.47-25.7,15.01-38.49,22.61
					c-2.91,9.01-4.81,18.15-5.77,27.28c4.61-2.29,9.22-4.58,13.84-6.86c18-8.91,36.01-17.8,54.03-26.66
					c18.3-8.98,36.61-17.93,54.95-26.83c16.5-7.99,33.03-15.95,49.6-23.79c12.61-5.96,25.23-11.89,37.98-17.55
					c6.48-2.88,13.17-6.34,20.08-8.09c3.11-0.79,6.04-1.21,8.79-1.36c0.23,0.56,0.45,1.14,0.67,1.74c0.01,0.03,0.02,0.06,0.04,0.09
					c0.11,0.3,0.22,0.61,0.33,0.91c0.03,0.07,0.05,0.14,0.08,0.22c0.11,0.31,0.22,0.62,0.32,0.93c0.01,0.04,0.03,0.08,0.04,0.12
					c0.33,0.97,0.65,1.97,0.96,2.98c0.04,0.12,0.07,0.24,0.11,0.36c0.08,0.27,0.16,0.55,0.24,0.82c0.05,0.17,0.1,0.33,0.14,0.5
					c0.07,0.25,0.14,0.51,0.22,0.76c0.06,0.21,0.12,0.43,0.18,0.65c0.08,0.3,0.16,0.59,0.24,0.89c0.09,0.33,0.18,0.67,0.26,1
					c0.04,0.17,0.08,0.34,0.13,0.5c0.07,0.3,0.15,0.6,0.22,0.89c0.04,0.15,0.07,0.31,0.11,0.46c0.08,0.34,0.16,0.69,0.24,1.03
					c0.02,0.1,0.05,0.2,0.07,0.31c0.21,0.95,0.42,1.9,0.6,2.83c0,0.02,0.01,0.04,0.01,0.06c0.09,0.46,0.18,0.92,0.27,1.38
					c0,0.02,0.01,0.04,0.01,0.06c0.35,1.91,0.64,3.77,0.85,5.51c1.35,11.17,5.83,73.87,7.59,98.91l-8.63,0.64l0.19-51.37
					l-25.92-10.94l0,0l0.02-5.72l-25.38-12.64l-0.04,0.03l-24.89,12.43l-0.02,5.54l0,0l-26.42,10.92l-0.17,44.78
					c0.21,0.04,0.41,0.07,0.62,0.11c0.47,0.08,0.95,0.17,1.42,0.27c1.66,0.31,3.3,0.67,4.94,1.07c0.33,0.08,0.67,0.16,1,0.25
					c1.65,0.41,3.29,0.86,4.92,1.33c0.24,0.07,0.47,0.14,0.71,0.21c1.66,0.5,3.3,1.02,4.94,1.58c4.79,1.61,9.5,3.44,14.15,5.4
					c1.29,0.54,2.58,1.09,3.87,1.64l-0.96,0.07c44.61,8.03,88.53,3.32,135.22-8.35c4.53-1.16,9.05-1.9,13.56-2.32
					c-2.48,0.01-4.96,0.08-7.43,0.23c-0.08,0-0.15,0.01-0.23,0.01c3.04-0.25,6.07-0.37,9.11-0.37
					c33.8-2.62,67.14,13.23,101.99,18.46c3,0,5.99-0.01,8.99-0.44c0.97-1.5,1.55-3.17,1.57-4.97c0.09-6.38-6.57-11.65-14.91-11.79
					c-3.88-0.06-7.43,1.01-10.13,2.82c-1.99-5.75-8.78-10.04-16.9-10.17c-3.09-0.05-5.99,0.51-8.53,1.54
					c-2.06-6.97-8.68-13.36-17.73-16.13c-11.66-3.59-23.34,0.03-27.65,8.12c-3.35-5.02-10.75-7.73-18.66-6.32
					c-5.57,1-10.19,3.84-12.92,7.48c-0.07-0.47-0.13-0.94-0.2-1.42l-6.1-1.6l5.73-0.94c-0.46-3.1-1.01-6.44-1.62-9.88l0,0
					c-0.02-0.1-0.04-0.2-0.05-0.3c-0.28-1.55-0.57-3.11-0.88-4.68l-5.93-1.36l5.29-1.73c-0.73-3.44-1.52-7.15-2.41-10.15l-2.54-0.11
					c0.02-0.2,0.03-0.41,0.05-0.61l1.85-1.6c-0.43-1.51-0.88-2.98-1.34-4.4c1.63-19.14,3.25-37.38,4.01-43.28
					c0.22-1.74,0.53-3.59,0.89-5.5c0-0.02,0.01-0.05,0.01-0.07c0.09-0.46,0.18-0.91,0.28-1.38c0-0.02,0.01-0.03,0.01-0.05
					c0.19-0.94,0.4-1.88,0.62-2.83c0.02-0.1,0.05-0.21,0.07-0.31c0.08-0.34,0.16-0.68,0.25-1.02c0.04-0.16,0.08-0.31,0.12-0.47
					c0.07-0.29,0.15-0.58,0.22-0.87c0.04-0.17,0.09-0.34,0.13-0.51c0.09-0.34,0.18-0.67,0.27-1.01c0.08-0.3,0.16-0.59,0.25-0.89
					c0.06-0.21,0.12-0.42,0.18-0.63c0.07-0.26,0.15-0.51,0.22-0.77c0.05-0.16,0.1-0.33,0.15-0.49c0.08-0.28,0.17-0.55,0.25-0.83
					c0.03-0.11,0.07-0.23,0.11-0.34c0.32-1.01,0.64-2.01,0.98-2.98c0.02-0.04,0.03-0.09,0.05-0.13c0.11-0.31,0.22-0.62,0.33-0.93
					c0.02-0.07,0.05-0.14,0.08-0.21c0.11-0.31,0.23-0.62,0.34-0.93c0.01-0.02,0.02-0.04,0.02-0.06c0.23-0.6,0.46-1.18,0.69-1.75
					c2.75,0.17,5.67,0.61,8.78,1.42c18.88,4.93,186.28,94.24,259.76,133.7l-2.56,0.03c2.58,0.85,5.37,1.67,7.92,2.77
					c0.09-0.02,0.17-0.04,0.26-0.06c1.49-0.34,2.98-0.67,4.45-0.99c0.1-0.02,0.19-0.04,0.29-0.06c1.64-0.35,3.27-0.67,4.9-0.98
					c0.01,0,0.03-0.01,0.04,0c1.84-0.36,3.7-0.68,5.56-0.97l-0.04,0c0.1-0.02,0.21-0.03,0.31-0.04c0.27-0.04,0.54-0.09,0.81-0.13
					c1.44-0.22,2.89-0.41,4.36-0.6c-1.73,0.21-3.45,0.46-5.17,0.73c-0.09,0.01-0.18,0.03-0.27,0.04l38.98-0.49
					C638.7,512.06,632.3,511.56,626.09,511.61z M195.06,443.86l-0.24,62.72l-0.09,0.01l0.24-62.73v0L195.06,443.86L195.06,443.86z"
					/>
			</g>
		</g>
		<g>
			<path d="M607.3,513.2c-0.27,0.04-0.54,0.09-0.81,0.13c1.72-0.27,3.45-0.52,5.17-0.73C610.2,512.78,608.74,512.98,607.3,513.2z"/>
		</g>
	</g>
	<g>
		<g>
			<line class="st14" x1="294.6" y1="136.32" x2="298.92" y2="142.45"/>
			<line class="st21" x1="310.91" y1="159.47" x2="493.78" y2="418.97"/>
			<line class="st14" x1="499.78" y1="427.48" x2="504.1" y2="433.61"/>
		</g>
	</g>
	<g>
		<g>
			<line class="st14" x1="256.03" y1="153.61" x2="260.27" y2="159.8"/>
			<line class="st22" x1="272.72" y1="177.95" x2="353.64" y2="295.97"/>
			<line class="st14" x1="359.86" y1="305.05" x2="364.1" y2="311.23"/>
		</g>
	</g>
	<g class="st23">
		<path class="st24" d="M270.35,48.58c3.47-24.77,21.2-44.22,43.59-47.94c21.9-3.63,43.8,8.52,54.33,30.22
			c1.74-1.74,17.23-16.67,38.68-12.15c18.38,3.87,27.78,19.19,29.4,21.93c14.57-5.66,28.88,4.46,30.8,16.68
			c1.64,10.42-5.66,22.87-18.07,26.21c3.32,9.3,0.29,19.72-6.84,24.74c-8,5.63-19.39,3.2-25.32-6.07
			c-6.26,12.06-18.32,17.82-28.65,14.55c-10.22-3.23-14.59-13.95-15.23-15.59c-10.34,14.88-26.59,22.06-41.5,18.27
			c-12.74-3.24-20.11-13.38-22.41-16.86c-4.36,12.38-16.23,19.14-27.17,16.17c-9.52-2.58-16.73-12.1-17.51-23.49
			c-13.87-0.81-23.78-13.17-23.41-24.83C241.47,57.34,254.84,44.93,270.35,48.58z"/>
		<path class="st24" d="M163.66,65.58c4.44-28.27,26.73-50.53,54.8-54.85c27.45-4.23,54.85,9.56,67.96,34.27
			c2.19-1.99,21.65-19.08,48.52-14c23.01,4.35,34.73,21.79,36.75,24.91c18.28-6.51,36.17,4.98,38.53,18.91
			c2.01,11.88-7.17,26.11-22.74,29.96c4.13,10.6,0.28,22.5-8.66,28.25c-10.05,6.45-24.3,3.72-31.7-6.83
			c-7.89,13.79-23.02,20.4-35.96,16.71c-12.79-3.64-18.22-15.86-19.02-17.73c-13.01,17.01-33.4,25.27-52.07,21
			c-15.95-3.65-25.14-15.19-28.02-19.15c-5.51,14.14-20.41,21.9-34.11,18.55c-11.92-2.91-20.92-13.74-21.85-26.74
			c-17.38-0.87-29.75-14.93-29.23-28.24C127.44,75.69,144.24,61.49,163.66,65.58z"/>
	</g>
	<g>
		<path class="st25" d="M346.57,471.55c-3.41-2.87,3.61-16.34,7.68-22.81c2.52-4.01,3.83-6.04,5.98-7.1
			c8.79-4.32,21.59,7.52,22.48,8.36c-5.98,1.37-13.09,4.09-15.62,10.04c-1.42,3.33,0.12,6.33-2.23,8.56
			c-1.58,1.5-3.04,1.02-10.24,2.06C348.07,471.61,347.42,472.27,346.57,471.55z"/>
		<path class="st26" d="M356.16,444c-4.27-1.31-13.62,5.4-16.84,12.32c-2,4.3-3.21,12.86-2.44,15.85
			c2.46,9.48,19.63,13.58,20.82,13.87c-2.1-5.77-2.71-11.4,0.91-16.75c2.02-3,9.27-6.45,9.87-9.64c0.4-2.14-6.27-1.15-9.31-7.76
			C356.4,445.89,357.22,444.33,356.16,444z"/>
	</g>
	<g>
		<path class="st20" d="M483.36,465.39c-0.94,0.08-1.83-0.51-2.09-1.45c-4.69-16.66-5.86-33.65-3.49-50.49
			c1.51-10.76,4.49-21.32,8.84-31.37c0.44-1.01,1.61-1.48,2.63-1.04c1.01,0.44,1.48,1.62,1.04,2.63
			c-4.21,9.73-7.08,19.93-8.55,30.34c-2.29,16.29-1.16,32.72,3.38,48.84c0.3,1.07-0.32,2.17-1.38,2.47
			C483.61,465.35,483.49,465.37,483.36,465.39z"/>
		<path class="st27" d="M372.19,444.43c1.37-0.89,2.93-1.42,4.56-1.56c12.34-1.07,30.37-2.61,52.35-4.41
			c21.38-1.76,21.03-1.67,21.93-1.85c31.67-6.3,38.9-26.29,72.17-37.22c5.78-1.9,14.1-4.1,24.67-5.09
			c-3.21,17.51-6.42,35.02-9.63,52.53c-27.61,8.54-61.91,16.53-101.73,20.13c-25.59,2.31-49.02,2.41-69.67,1.36
			c-0.52-0.83-4.39-7.24-1.76-14.91C366.68,448.73,369.88,445.93,372.19,444.43z"/>
	</g>
	<g>
		<g>
			<g>
				<path class="st26" d="M470.02,345.13c-0.51,0.7,3.91,4.96,4.38,5.49c1.93,2.16,2.88,4.79,3.58,7.56
					c0.7,2.76,2.82,4.68,4.71,6.67c1.98,2.08,7.67,2.14,9.23,4.58c0.56,0.87,0.9,12.61,1.84,12.53c0,0,30.12-2.63,40.23-30.64
					l-36.37-43C497.62,308.32,470.21,344.87,470.02,345.13z"/>
			</g>
		</g>
	</g>
	<path class="st26" d="M425,271.81c-0.6,1.6-1.12,3.22-1.55,4.87c-2.6,9.87-7.09,19.44-2.23,29.73c1.25,2.66,4.27,2.97,6.04,5.05
		c1.79,2.09-0.24,7.5-0.89,10.02c-0.68,2.65-1.83,5.07-1.86,7.82c-0.04,3.42,0.85,8.41,4.78,9.68c2.93,0.95,5.94-2.2,8.59-0.17
		c2.59,1.98,3.57,6.41,4.79,9.26c1.54,3.57,2.64,7.38,4.37,10.85c1.63,3.26,3.83,5.47,7.35,6.46c10.53,2.95,18.76-3.74,25.93-10.49
		c3.54-3.33,4.94-9.17,6.53-13.79c1.51-4.38,2.19-11,4.69-14.85c2.6-4.01,8.16-6.06,11.67-9.13c3.73-3.26,5.9-5.9,7.45-10.71
		c6.61-20.42,2.66-36.6-10.28-53.74c-14.03-18.58-42.15-10.66-59-1.03C433.5,256.16,428.12,263.52,425,271.81z"/>
	<path class="st28" d="M497.56,249.46c-19.04,20.99-41.45,45.99-42.28,46.83c-4,4.05-7.74,8.77-10.4,13.81
		c0.45,4.68-3.76,10.24-8.15,11.41c-5.83,1.56-10.1,2.88-11.81,4.93c0.4-1.66,1.03-3.26,1.45-4.96c0.65-2.53,2.69-7.92,0.9-10.02
		c-1.78-2.08-4.8-2.39-6.05-5.05c-4.84-10.3-0.37-19.85,2.23-29.73c0.44-1.64,0.95-3.27,1.56-4.87c3.12-8.3,8.5-15.66,16.39-20.16
		C457.18,242.63,482.83,235.12,497.56,249.46z"/>
	<path class="st29" d="M515.37,284.62c0.34,7.54-1.15,14.89-2.37,22.25c-0.78,4.7-0.64,11.86-6.84,12.91
		c-4.32,0.73-8.59-1.56-11.5-4.62c-1.52-1.6-2.56-3.39-3.45-5.39c-0.94-2.13-0.51-3.17-0.23-5.44c0.72-5.82-4.18-11.77-9.27-14.11
		c-4.51-2.07-9.85-1.59-12.06,3.33c-1.91,4.24,0.99,6.6,2.06,10.47c0.81,2.94-1.6,6.98-4.93,4.69c-2.34-1.61-3.09-4.63-4.76-6.8
		c-1.62-2.1-3.84-3.99-6.13-5.31c-3.96-2.29-8.46-2.12-9.55-7.11c-0.68-3.13-0.42-6.27-0.03-9.43c0.31-2.47,1.17-5.47-0.48-7.63
		c-3.15-4.09-10.86-1.46-15.07-0.58c-2.93,0.61-7.83,2.61-7.17-2.43c0.62-4.73,3.81-9.47,7.29-12.52
		c7.82-6.86,16.64-11.54,26.83-13.75c8.53-1.84,19.83-1.39,28.07,2.11c8.15,3.46,15.59,10.26,20.97,17.16
		C511.64,268.68,515.01,276.66,515.37,284.62z"/>
	<g>
		<g>
			<path class="st29" d="M460.79,341.57c-5.69-4.55-14.18-3.11-19.39,1.51c-0.97,0.86,0.45,2.27,1.42,1.42
				c4.31-3.83,11.78-5.34,16.56-1.51C460.37,343.79,461.8,342.38,460.79,341.57L460.79,341.57z"/>
		</g>
	</g>
	<g class="st30">
		<g>
			<g>
				<path class="st31" d="M584.2,567.6c-0.34,0.51-0.68,1.03-1.02,1.54c-0.59,0.89-0.21,2.3,0.73,2.79
					c0.97,0.51,2.22,0.26,2.79-0.73c0.31-0.53,0.61-1.07,0.92-1.6c0.52-0.9,0.24-2.21-0.71-2.72
					C585.92,566.36,584.81,566.67,584.2,567.6L584.2,567.6z"/>
			</g>
		</g>
		<g>
			<g>
				<path class="st31" d="M539,554.76c-0.32,0.44-0.39,0.57-0.21,0.39c-0.36,0.15-0.73,0.3-1.09,0.45c-0.83-0.04,0.39,0,0.58-0.04
					c0.17-0.05,0.1-0.05-0.19,0.01c0.13,0,0.12,0-0.05-0.02c-0.36-0.05,0.22,0.17-0.09-0.02c-0.39-0.23-0.66-0.55-0.69-1.04
					c0.04,0.89,0.75,1.75,1.71,1.71c0.89-0.04,1.76-0.75,1.71-1.71c-0.06-1.29-1.06-2.3-2.37-2.3c-0.58,0-1.23,0.19-1.64,0.61
					c-0.21,0.21-0.32,0.46-0.43,0.73c-0.07,0.18,0.08-0.17,0.08-0.18c0.02,0.11-0.17,0.36-0.2,0.48c-0.05,0.17-0.06,0.36-0.08,0.53
					c-0.1,0.74,0.65,1.39,1.31,1.48C538.12,555.95,538.75,555.48,539,554.76L539,554.76z"/>
			</g>
		</g>
		<g>
			<g>
				<path class="st31" d="M543.3,587.19c1.09,1.56,2.15,3.05,3.47,4.43c1.01,1.06,2.45-0.28,1.91-1.47
					c-0.75-1.63-1.67-3.06-2.64-4.56C544.91,583.89,542.13,585.53,543.3,587.19L543.3,587.19z"/>
			</g>
		</g>
		<g>
			<g>
				<path class="st31" d="M470.47,566.13c1.59,0.7,3.18,1.4,4.77,2.1c1.55,0.68,2.89-1.61,1.34-2.29c-1.6-0.69-3.19-1.38-4.79-2.07
					c-0.65-0.28-1.39-0.19-1.79,0.47C469.67,564.9,469.83,565.85,470.47,566.13L470.47,566.13z"/>
			</g>
		</g>
		<g>
			<g>
				<path class="st31" d="M488.74,601.2c0.83,0.07,1.64,0.16,2.46,0.13c0.7-0.03,1.31-0.51,1.39-1.23c0.08-0.67-0.32-1.4-1.01-1.55
					c-0.94-0.21-1.88-0.28-2.84-0.36c-0.79-0.07-1.54,0.74-1.51,1.51C487.28,600.57,487.9,601.13,488.74,601.2L488.74,601.2z"/>
			</g>
		</g>
		<g>
			<g>
				<path class="st31" d="M401.2,598.15c0.94-0.56,2.2-0.6,3.09,0.12c0.65,0.52,1.53,0.62,2.16,0c0.54-0.52,0.65-1.65,0-2.16
					c-1.96-1.55-4.57-1.87-6.75-0.53C398.06,596.58,399.54,599.14,401.2,598.15L401.2,598.15z"/>
			</g>
		</g>
		<g>
			<g>
				<path class="st31" d="M384.62,566.19c1.71-0.4,3.39-0.76,5.02-1.4c1.27-0.49,1.26-2.75-0.35-2.6c-1.88,0.18-3.65,0.62-5.48,1.06
					C381.9,563.7,382.71,566.64,384.62,566.19L384.62,566.19z"/>
			</g>
		</g>
		<g>
			<g>
				<path class="st31" d="M359.15,583.1c1.09-0.27,2.38,0.08,3.22,0.84c1.6,1.46,3.79-0.75,2.37-2.37
					c-1.63-1.85-4.14-2.47-6.48-1.74C356.18,580.49,357.03,583.63,359.15,583.1L359.15,583.1z"/>
			</g>
		</g>
		<g>
			<g>
				<path class="st31" d="M364.48,632.39c1.26,1.48,2.52,2.96,3.78,4.43c0.68,0.79,2.03,0.7,2.73,0c0.8-0.8,0.66-1.92,0-2.73
					c-1.23-1.5-2.47-3.01-3.7-4.51c-0.68-0.83-2.1-0.71-2.81,0C363.68,630.39,363.79,631.57,364.48,632.39L364.48,632.39z"/>
			</g>
		</g>
		<g>
			<g>
				<path class="st31" d="M493.16,637.47c1.28,1.9,2.52,3.8,3.97,5.57c1.13,1.38,3.29-0.39,2.43-1.87
					c-1.08-1.86-2.36-3.58-3.61-5.33C494.77,634.16,491.99,635.72,493.16,637.47L493.16,637.47z"/>
			</g>
		</g>
		<g>
			<g>
				<path class="st31" d="M582.42,617.92c0.71,0.35,1.41,0.71,2.13,1.04c0.77,0.36,1.54,0.55,2.36,0.75
					c1.23,0.31,2.42-1.36,1.32-2.27c-0.62-0.52-1.23-1.07-1.94-1.47c-0.69-0.39-1.4-0.73-2.1-1.1
					C582.18,613.82,580.39,616.93,582.42,617.92L582.42,617.92z"/>
			</g>
		</g>
		<g>
			<g>
				<path class="st31" d="M631.07,559.48c0.19,1.51,0.65,2.8,1.24,4.19c0.67,1.56,3.33,0.44,2.76-1.16
					c-0.47-1.3-0.96-2.52-1.77-3.63c-0.31-0.44-0.8-0.7-1.35-0.55C631.49,558.46,631.01,558.97,631.07,559.48L631.07,559.48z"/>
			</g>
		</g>
		<g>
			<g>
				<path class="st31" d="M633.83,540.74c0,0.58,0.2,1.03,0.49,1.53c0.42,0.73,1.61,0.98,2.19,0.28c0.34-0.41,0.69-0.79,0.79-1.34
					c0.18-1.04-0.34-2.05-1.47-2.2C634.79,538.86,633.83,539.66,633.83,540.74L633.83,540.74z"/>
			</g>
		</g>
		<g>
			<g>
				<path class="st31" d="M578.42,537.07c0.25,0.3,0.49,0.6,0.75,0.9c0.26,0.29,0.57,0.52,0.88,0.77c0.68,0.55,1.54,0.7,2.27,0.14
					c0.69-0.53,0.86-1.46,0.45-2.23c-0.46-0.84-1.03-1.54-1.64-2.27c-0.64-0.77-2.05-0.71-2.7,0
					C577.67,535.19,577.73,536.25,578.42,537.07L578.42,537.07z"/>
			</g>
		</g>
		<g>
			<g>
				<path class="st4" d="M610.67,590.42c-0.22,1.33-0.46,2.68-0.04,4c0.3,0.95,1.71,1.25,2.22,0.29c0.64-1.22,0.7-2.55,0.72-3.9
					c0.01-0.73-0.57-1.36-1.28-1.44C611.62,589.29,610.79,589.69,610.67,590.42L610.67,590.42z"/>
			</g>
		</g>
		<g>
			<g>
				<path class="st4" d="M612.37,589.31c0.01,1.4,0.1,2.78,0.22,4.18c0.08,0.94,0.74,1.75,1.75,1.75c0.85,0,1.87-0.8,1.75-1.75
					c-0.2-1.54-0.42-3.06-0.75-4.58C614.97,587.23,612.36,587.63,612.37,589.31L612.37,589.31z"/>
			</g>
		</g>
		<g>
			<g>
				<path class="st4" d="M603.76,555.85c0.41,1.69,0.81,3.38,1.26,5.06c0.51,1.93,3.39,1.11,2.98-0.82
					c-0.36-1.7-0.76-3.39-1.15-5.09C606.39,553,603.27,553.85,603.76,555.85L603.76,555.85z"/>
			</g>
		</g>
		<g>
			<g>
				<path class="st4" d="M555.88,563.32c2.49-0.03,4.98-0.01,7.47-0.24c2.02-0.18,2.09-3.13,0-3.2c-2.49-0.08-4.98,0.09-7.47,0.2
					C553.81,560.18,553.78,563.35,555.88,563.32L555.88,563.32z"/>
			</g>
		</g>
		<g>
			<g>
				<path class="st4" d="M516.33,579.49c2.38,0.03,4.7,0.21,7.02-0.38c1.3-0.32,1.4-2.47,0-2.73c-2.37-0.44-4.64-0.16-7.02,0.02
					C514.37,576.55,514.32,579.47,516.33,579.49L516.33,579.49z"/>
			</g>
		</g>
		<g>
			<g>
				<path class="st4" d="M485.13,548.76c1.94-0.1,3.88-0.2,5.82-0.3c2.17-0.11,2.18-3.51,0-3.38c-1.94,0.11-3.88,0.23-5.82,0.34
					C482.99,545.54,482.97,548.87,485.13,548.76L485.13,548.76z"/>
			</g>
		</g>
		<g>
			<g>
				<path class="st4" d="M424.35,589.84c1.94-0.08,3.88-0.17,5.82-0.25c2.22-0.1,2.22-3.6,0-3.46c-1.94,0.12-3.88,0.24-5.82,0.36
					C422.22,586.62,422.19,589.93,424.35,589.84L424.35,589.84z"/>
			</g>
		</g>
		<g>
			<g>
				<path class="st4" d="M410.43,630.87c1.72-0.66,3.44-1.31,5.16-1.97c0.95-0.36,1.6-1.26,1.31-2.31
					c-0.24-0.89-1.36-1.69-2.31-1.31c-1.71,0.69-3.42,1.39-5.13,2.08c-0.91,0.37-1.55,1.21-1.27,2.24
					C408.43,630.47,409.5,631.22,410.43,630.87L410.43,630.87z"/>
			</g>
		</g>
		<g>
			<g>
				<path class="st4" d="M374.67,617.96c0.82,0.07,1.64,0.15,2.46,0.22c1.01,0.09,1.97-0.95,1.93-1.93
					c-0.05-1.12-0.85-1.83-1.93-1.93c-0.82-0.07-1.64-0.15-2.46-0.22c-1.01-0.09-1.97,0.95-1.93,1.93
					C372.79,617.16,373.59,617.87,374.67,617.96L374.67,617.96z"/>
			</g>
		</g>
		<g>
			<g>
				<path class="st4" d="M358.28,674.73c1.9,0.43,3.79,0.87,5.69,1.3c2.74,0.63,3.91-3.56,1.16-4.22c-1.89-0.46-3.78-0.91-5.67-1.37
					C356.68,669.77,355.49,674.1,358.28,674.73L358.28,674.73z"/>
			</g>
		</g>
	</g>
	<g>
		<g>
			<path class="st29" d="M426.74,312.16c0.29,8.22-9.31,21.02,0.84,26.89c3.9,2.25,8.29-0.07,11.43-2.57
				c1.37-1.09,2.33-2.2,2.5-3.98c0.13-1.37,0.1-3.26-1.5-3.69c-1.25-0.33-1.78,1.6-0.53,1.93c0.15,0.04,0.07,1.55,0.03,1.76
				c-0.18,0.95-0.7,1.54-1.41,2.15c-1.11,0.96-2.46,1.81-3.77,2.46c-4.18,2.07-7.79-0.24-9.13-4.42c-1.13-3.52,0.68-6.79,1.61-10.14
				c0.91-3.26,2.05-7.01,1.93-10.4C428.7,310.88,426.7,310.87,426.74,312.16L426.74,312.16z"/>
		</g>
	</g>
	<path class="st29" d="M470.3,293.12c9.91,1.38,19.7,3.42,29.68,4.37c3.38,0.32,6.74,0.79,10.09,1.29c2.78,0.41,5.69,1.42,6.1-2.35
		c0.37-3.37,0.12-6.96-0.04-10.37c-0.23-4.93-0.48-9.68-1.37-14.54c-0.55-3.01-0.77-6.12-1.82-9.01c-1.02-2.81-3.24-5.39-5.17-7.64
		c-5.27-6.13-12.31-10.84-19.73-13.97c-4.32-1.82-8.79-3.38-13.41-4.23c-8.19-1.49-18.91-1.16-27,0.62
		c-5.12,1.13-13.66,2.87-17.28,6.94c-2.98,3.35-6.35,12.91-7.54,17.06c-1.44,5.01-3.17,22.54-2.67,25.41
		c1.58,0.68,33.1,4.35,46.39,5.93C467.8,292.79,469.05,292.95,470.3,293.12z"/>
	<g>
		<path class="st26" d="M470.63,301.84c-2.6-2.95-2.19-9.33,1.02-11.62c3.74-2.67,8.32-1.62,12.04,0.44
			c5.99,3.3,8.5,12.81,5.57,18.84c-1.9,3.91-5.45,3.69-8.81,2.05"/>
	</g>
	<g>
		<g>
			<path class="st32" d="M471.23,301.24c-2.96-3.72-1.46-10.06,3.21-11.44c4.76-1.41,10.34,1.54,12.86,5.57
				c2.11,3.37,2.92,7.78,1.97,11.65c-1.19,4.82-6.2,6.33-10.5,4.41c-0.99-0.44-1.85,1.02-0.86,1.46c4.42,1.97,10.39,1.17,12.42-3.71
				c2.12-5.09,0.87-11.57-2.41-15.89c-3.56-4.68-11.53-7.6-16.69-3.81c-3.91,2.87-4.07,9.34-1.2,12.95
				C470.71,303.29,471.9,302.09,471.23,301.24L471.23,301.24z"/>
		</g>
	</g>
	<g>
		<g>
			<g>
				<path class="st4" d="M850.34,508.36c-15.06-1.47-30.29-2.77-45.37-0.88c-13.65,1.71-26.85,5.71-40.1,9.23
					c-16.41,4.35-32.58,7.21-49.6,5.86c-17.05-1.36-33.76-5.34-50.52-8.49c-16.15-3.03-32.52-5.46-48.97-3.89
					c-16.69,1.59-32.86,6.14-49.06,10.26c-16.59,4.21-33.71,8.41-50.93,8.27c-17.76-0.14-35.63-4.29-52.92-8
					c-19.34-4.15-38.38-8.9-57.58-13.29c-19.67-4.5-39.35-9.32-59.46-11.39c0.65,0.65,1.3,1.3,1.95,1.95c0,0,0-0.01,0-0.01
					c0-1.13-0.9-1.85-1.95-1.95c-11.09-1.07-22.32-1.42-33.39,0.1c-12.02,1.65-23.64,5.16-35.23,8.66
					c-12.54,3.79-25.23,7.69-38.34,8.85c-13,1.15-26.05-0.36-38.8-2.92c-19.17-3.84-37.83-9.83-57.24-12.92
					c-22.38-3.56-44.52-1.12-66.47,3.97c-25.09,5.82-49.57,14.63-75.32,17.23c-2.48,0.25-2.5,4.16,0,3.9
					c45.55-4.61,88.1-27.58,134.74-22.16c20.18,2.34,39.53,8.65,59.21,12.9c11.4,2.46,23.02,4.3,34.71,4.3
					c12.08,0,23.87-2.36,35.47-5.55c13.04-3.59,25.82-8.13,39.08-10.9c13.76-2.88,27.63-2.9,41.58-1.55
					c-0.65-0.65-1.3-1.3-1.95-1.95c0,0,0,0.01,0,0.01c0,1.13,0.9,1.84,1.95,1.95c18.54,1.9,36.7,6.3,54.84,10.43
					c16.93,3.86,33.63,7.95,50.62,11.79c17.04,3.84,34.28,7.68,51.65,9.65c15.97,1.82,31.46-0.15,47.09-3.45
					c17.42-3.68,34.46-9.05,51.97-12.29c17.62-3.26,34.74-2.79,52.36,0.12c31.48,5.19,62.33,14.53,94.39,8.34
					c16.9-3.26,33.18-9.18,50.14-12.19c17.06-3.03,34.31-1.73,51.45-0.06C852.84,512.51,852.83,508.61,850.34,508.36L850.34,508.36z
					"/>
			</g>
		</g>
	</g>
	<path class="st33" d="M447.86,287.06c-1.03-0.18-2.06-0.41-3.11-0.72c-2.07-0.61-3.76-1.89-5.65-2.87
		c-2.59-1.34-4.85-1.88-7.76-2.16c-1.98-0.19-3.92-0.67-5.89-0.91c-1.76-0.22-3.47,0.03-5.22-0.19c-14.09-1.77-27.9-3.35-42.06-3.9
		c-3.6-0.14-11.76-0.61-14.23,2.79c-3.6,4.96,6.17,5.75,9.08,6.1c16.63,1.97,33.38,2.4,50.1,3.09c4.47,0.19,8.95,0.39,13.42,0.66
		c4.33,0.25,8.52,1.31,12.8,1.99c2.4,0.38,4.7,0.42,7.12,0.52c1.64,0.07,3.54,0.7,5.16,0.41c1.45-0.26,0.69-1.15-0.28-1.8
		c-2.15-1.44-4.91-1.65-7.38-2.07C451.87,287.61,449.87,287.42,447.86,287.06z"/>
	<g>
		<g>
			<line class="st14" x1="200.49" y1="149.62" x2="204.76" y2="155.78"/>
			<line class="st34" x1="216.38" y1="172.53" x2="413.88" y2="457.31"/>
			<line class="st14" x1="419.68" y1="465.69" x2="423.96" y2="471.85"/>
		</g>
	</g>
	<g>
		<g>
			<path class="st32" d="M477.83,294.48c-1.55,3.89-1.69,6.86-0.39,10.83c0.45-0.12,0.9-0.25,1.35-0.37
				c-1.02-2.57,3.08-3.54,3.24-1.51c0.07,0.89,1.47,0.9,1.4,0c-0.35-4.36-7.71-2.41-6,1.88c0.33,0.82,1.64,0.5,1.35-0.37
				c-0.56-1.7-1.12-3.36-1-5.18c0.11-1.71,0.76-3.32,1.39-4.9C479.51,294.02,478.16,293.66,477.83,294.48L477.83,294.48z"/>
		</g>
	</g>
	<path class="st33" d="M503.09,286.99c-2.19,0.65-1.26,6.33-1.8,8.68c2.55,0.12,5.08,1.7,7.53,2.41c1.22,0.36,4.08,1.9,5.31,1.75
		c1.96-0.25,3.85-5.2,2.87-6.81c-1.28-2.11-4.66-2.76-6.77-3.71C508.29,288.45,505.3,286.34,503.09,286.99z"/>
	<g>
		<g>
			<path class="st33" d="M457.43,281.5c-0.42-8.76,0.23-17.55-0.51-26.3c-0.24-2.83-0.6-5.67-1.17-8.45
				c-0.45-2.2-0.99-4.92-2.73-6.5c-0.89-0.81-2.21,0.51-1.32,1.32c1.73,1.58,2.1,4.73,2.48,6.92c0.56,3.19,0.89,6.41,1.06,9.64
				c0.41,7.79-0.06,15.59,0.31,23.38C455.62,282.7,457.49,282.71,457.43,281.5L457.43,281.5z"/>
		</g>
	</g>
	<g>
		<g>
			<g>
				<g>
					<path class="st35" d="M339.28,604.22c0,0-0.03,11.2-6.89,13.74c-15.33,5.69-36.3,11.73-51.52,13.64
						c-17.41,2.18-27.46,3.09-30.65,6.89c-3.18,3.81,6.55,11.61,27.63,16.3c24.64,5.48,60.45,9.96,72.6,12.57
						c12.15,2.61,19.74,4.72,22.01,4.02c2.28-0.69,3.96-58.18,3.96-58.18C349.76,613.28,339.28,604.22,339.28,604.22z"/>
				</g>
				<g>
					<path class="st4" d="M250.22,638.49c0,0,25.61,7.4,43.52,10.26c17.91,2.86,78.32,11.12,81.71,12.05c0,0-2,10.02-2.75,12.81
						c-0.76,2.8-54.47-6.78-73.62-10.31c-19.14-3.53-49.24-9.86-49.51-12.22C248.25,639.41,250.22,638.49,250.22,638.49z"/>
				</g>
				<g>
					<g>
						<path class="st36" d="M294.2,631.9c-3.88-0.83-5.18,5.19-1.3,6.03C296.78,638.76,298.08,632.74,294.2,631.9z"/>
					</g>
					<g>
						<path class="st36" d="M309,629.96c-3.88-0.83-5.18,5.19-1.3,6.03C311.59,636.82,312.89,630.8,309,629.96z"/>
					</g>
					<g>
						<path class="st36" d="M323.55,627.37c-3.88-0.83-5.18,5.19-1.3,6.03C326.13,634.24,327.43,628.21,323.55,627.37z"/>
					</g>
					<g>
						<path class="st36" d="M338.11,623.8c-3.88-0.83-5.18,5.19-1.3,6.03C340.7,630.67,342,624.64,338.11,623.8z"/>
					</g>
				</g>
				<g>
					
						<rect x="331.67" y="619.71" transform="matrix(0.157 -0.9876 0.9876 0.157 -372.4509 886.2786)" class="st37" width="2.51" height="83.2"/>
				</g>
				<g>
					
						<rect x="290.54" y="648.48" transform="matrix(0.9777 0.2102 -0.2102 0.9777 144.1926 -46.6106)" class="st38" width="1.7" height="13.22"/>
				</g>
				<path class="st4" d="M268.07,633.21c0,0-10.99,0.1-16.94,4.43c0,0,19.83,5.07,21.36,5.4
					C272.48,643.03,272.5,637.3,268.07,633.21z"/>
			</g>
		</g>
		<path class="st39" d="M611.67,578.49c2.75,3.39,4.73,7.41,5.07,11.78c0.45,5.92-4.19,8.07-4.97,13.29
			c-0.57,3.8,0.78,8.31,0.38,12.29c-0.68,6.82-2.92,13.44-6.81,19.11c-9,13.12-23.18,16.46-30.02,18.07c0,0-11.45,2.1-23.44,0.83
			c-26.28-2.77-47.45-31.58-72.35-62.09c-8.68-10.63-17.53-21.13-26.54-31.48c-5.62-6.45-11.7-12.61-17.08-19.25
			c-1.98-2.44-4.19-4.61-6.26-7.01c-2.31-2.7-3.56-5.49-5.03-8.66c0.83,1.79-0.11,6.57-2.55,6.67c-2.91,0.11-3.2-5.06-3.34-6.97
			c-0.62,3.24-1.18,7.09-2.35,10.12c-1.48,3.8-3.7,7.27-5.23,11.06c-2.38,5.88-5.13,11.66-7.35,17.6c-1.15,3.07-2.02,6.29-3.57,9.2
			c-1.44,2.7-2.66,5.67-4.44,8.18c-1.64,2.32-3.13,3.93-4.26,6.66c-2.85,6.87-4.76,14.11-7.94,20.85c3.97,2.35-3.19,7.74-5.16,8.86
			c-5.98,3.39-15.61,2.83-22,1.26c-5.76-1.41-10.12-4.71-14.74-8.19c-2.73-2.05-7.67-4.44-8.67-7.87
			c-1.08-3.71,2.39-7.85,3.69-11.09c2.41-6.02,3.87-12.61,6.13-18.73c1.38-3.75,3.31-7.65,4.35-11.5c1.21-4.48,0.86-8.87,2.59-13.34
			c3.56-9.19,7.61-18.12,11.41-27.18c4.33-10.32,5.93-21.23,9.59-31.78c3.46-9.98,6.16-20.1,10.08-29.91
			c2.2-5.5,4.44-13.92,8.8-18.23c7.12-7.04,15.21-9.81,15.24-9.82c26.55-9.18,51,12.51,69.48,28.17c9.9,8.39,19.1,17.19,28.19,26.51
			c20.25,20.78,43.71,38.97,66.34,57.19c12.83,10.33,26.03,20.68,38.51,31.12C608.94,575.46,610.39,576.9,611.67,578.49z"/>
	</g>
	<g>
		<path class="st40" d="M617.49,615.12c3.44-4.47,7.67-7.49,10.19-13.57c6.53-15.71,11.76-33.28,13.87-50.28
			c1.15-9.22,1.94-18.48,2.77-27.75c1.18-13.28-3.79-25.14-6.73-37.97c-4.45-19.43-12.81-35.25-19.59-53.7
			c-14.94-40.68-39.26-82.88-79.64-102.97c-3.94-1.96-6.16-2.56-7.23-7.11c-1.58-6.7,5.85-12.09,7.42-18.37
			c1.27-5.06,1.79-11.55,5.68-15.45c3.1-3.11,7.31-4.02,10.91-6.16c7.68-4.56,9.14-18.06-0.59-21.42
			c-6.27-2.16-12.01-1.27-17.82-5.38c-4.89-3.45-7.92-8.89-11.7-13.46c-7.79-9.42-19.62-14.79-31.5-16.57
			c-6.42-0.96-11.99-1.12-18.41-0.37c-6.11,0.71-15.01-0.36-19.3,5.38c-2.6,3.47-1.25,8.56-0.91,12.51
			c0.61,7.14,0.81,14.29,1.48,21.44c0.86,9.27,1.89,18.56,4.17,27.6c2.05,8.15,5.51,15.57,7.03,23.88
			c1.03,5.66,0.79,11.46,1.61,17.12c0.82,5.69,1.43,11.38,0.9,17.14c-1.11,12.09-2.84,23.33-5.53,35.17
			c-1.81,8.01-5.73,19.87,1.56,26.23c2.83,2.46,7.25,3.75,10.56,5.54c8.76,4.74,11.6,10.37,13.97,19.88
			c6.31,25.32,12.62,55.22,32.89,73.17c4.87,4.31,9.35,6.51,12.4,12.47c4.03,7.86,5.87,16.75,11.28,24.11
			c7.32,9.95,17.8,15.64,27.92,22.15c5.86,3.76,13.59,7.4,17.89,12.86c4.79,6.08,6.75,14.71,10.97,21.49
			c2.53,4.07,4.1,6.58,5.73,11.19c0.93,2.62,0.74,5.07,3.15,6.62c0.72-0.8,2.86-2.96,2.92-3.06
			C616.36,616.65,616.91,615.86,617.49,615.12z"/>
		<path class="st40" d="M517.54,348.84c15.75-9.05,39.99-1.65,50,12.83c12.6,18.22,4.48,44.31-7.62,60.6
			c-14.14,19.04-30.75,35.09-49.36,49.95c-7.67,6.13-16.47,10.37-26.15,11.54c-5.73,0.7-10.46,2.92-16.18,4.48
			c-4.88,1.33-10.22,1.15-15.2,2.03c-5.79,1.02-11.42,2.62-17.18,3.81c-13.96,2.91-28.46,4.33-42.66,5.37
			c-10.62,0.78-32.13-0.77-36.28-13.5c-3.53-10.84,0.59-19.87,10.09-25.98c4.45-2.87,10.12-6.05,14.97-8.05
			c6.57-2.71,15.04-2.26,22.03-2.8c12.92-1,24.55-2.74,36.72-7.13c1.65-0.6,3.38-0.91,5.12-1.14c1.46-0.19,2.36,0.02,3.72,0.21
			c2.4,0.32,5.31-1.12,7.35-2.23c1.44-0.78,2.53-2.02,3.88-2.93c-0.07-0.1-0.13-0.31-0.21-0.42c0.9-0.75,2.43-0.54,3.52-0.58
			c-0.45-0.18-0.96-0.23-1.41-0.44c0.45-0.9,2.33-0.62,3.18-0.89c-0.54-0.44-1.51-0.47-1.74-1.2c1.16-0.86,2.89-0.35,4.03-1.21
			c1.01-0.77,1.82-2.4,2.72-3.4c2.43-2.7,4.97-5.29,7.33-8.05c7.7-9.01,14.1-18.78,19.46-29.35
			C511.32,363.49,506.92,354.94,517.54,348.84z"/>
	</g>
	<g>
		<g>
			<path class="st4" d="M354.83,610.45c-0.15,0.15-0.3,0.3-0.44,0.46c0.48,0.28,0.97,0.56,1.45,0.85
				c1.69-9.33,6.18-18.37,10.25-26.86c2.1-4.39,4.38-8.71,6.28-13.2c2.01-4.76,3.47-9.73,5.44-14.51
				c4.02-9.79,8.98-19.15,14.07-28.41c2.58-4.69,5.2-9.36,7.77-14.05c2.06-3.77,3.73-7.75,5.84-11.5c1.22-2.16,2.61-4.23,4.38-5.99
				c0.35-0.35,0.72-0.69,1.1-1.01c0.81-0.69,0.92-0.97,1.81-0.68c0.88,0.29,1.73,1.72,2.18,2.46c2.07,3.38,2.53,7.48,4.66,10.84
				c0.42,0.66,1.34,0.5,1.59-0.21c1.32-3.77,2.02-7.82,4.15-11.25c-0.54-0.15-1.08-0.29-1.62-0.44c0.01,1.87,0.78,3.45,1.22,5.23
				c0.19,0.74,1.21,0.83,1.59,0.21c0.72-1.19,1.81-2.02,2.44-3.28c-0.33,0.13-0.65,0.27-0.98,0.4c7.85,2.69,14.9,7.8,21.46,12.76
				c7.68,5.8,14.94,12.16,22.05,18.63c7.04,6.41,14.22,12.78,20.86,19.59c6.4,6.55,11.99,13.8,17.86,20.81
				c5.08,6.08,10.66,11.65,15.49,17.94c3.61,4.69,7.41,9.77,12.83,12.47c3.99,1.99,9.42,2.9,13.39,0.39
				c3.77-2.38,6.49-6.43,8.8-10.14c3.08-4.96,5.64-10.24,7.98-15.58c0.87-1.99,1.71-3.99,2.53-6c0.26-0.63,0.53-1.26,0.76-1.91
				c0.09-0.24,0.44-0.9,0.19-0.6c-0.46-0.06-0.91-0.12-1.37-0.18c0,0,0,0,0,0.01c0.49,1.01,1.99,0.12,1.5-0.88c0,0,0,0,0-0.01
				c-0.23-0.47-1.02-0.59-1.37-0.18c-1.24,1.51-1.77,4.2-2.51,5.97c-1.91,4.55-3.97,9.05-6.3,13.4c-2.37,4.41-4.99,8.95-8.57,12.51
				c-3.9,3.87-8.93,4.17-13.9,1.82c-5.76-2.72-9.65-8.33-13.42-13.23c-4.51-5.86-9.77-11.04-14.52-16.7
				c-5.68-6.77-11.07-13.77-17.18-20.16c-6.46-6.75-13.53-12.99-20.42-19.3c-7.5-6.87-15.14-13.59-23.23-19.75
				c-6.86-5.23-14.22-10.56-22.45-13.37c-0.34-0.12-0.82,0.07-0.98,0.4c-0.62,1.25-1.73,2.1-2.44,3.28
				c0.53,0.07,1.06,0.14,1.59,0.21c-0.41-1.62-1.16-3.05-1.16-4.77c0-0.88-1.17-1.16-1.62-0.44c-2.21,3.56-2.95,7.76-4.32,11.67
				c0.53-0.07,1.06-0.14,1.59-0.21c-3-4.73-2.97-11.68-8.5-14.51c-0.26-0.13-0.62-0.18-0.88,0c-6.15,4.32-8.77,11.05-12.06,17.52
				c-4.15,8.18-8.92,16.06-13.23,24.16c-4.18,7.85-8.11,15.85-11.34,24.14c-1.79,4.59-3.2,9.31-5.23,13.81
				c-1.85,4.1-3.96,8.08-5.86,12.15c-3.88,8.28-8.2,17.01-9.84,26.06c-0.15,0.85,0.78,1.45,1.45,0.85c0.31-0.28,0.46-0.47,0.72-0.81
				C357,610.43,355.49,609.56,354.83,610.45L354.83,610.45z"/>
		</g>
	</g>
	<g>
		<g>
			<path class="st9" d="M420.82,523.55c-0.08-4.93-0.99-10.29-3.96-14.35c-0.65-0.89-2.16-0.03-1.5,0.88
				c2.8,3.83,3.65,8.83,3.72,13.48C419.1,524.67,420.84,524.67,420.82,523.55L420.82,523.55z"/>
		</g>
	</g>
	<g>
		<g>
			<path class="st9" d="M425.28,523.83c-0.76-5.43,0.69-10.85,1.71-16.15c0.21-1.09-1.46-1.56-1.68-0.46
				c-1.09,5.64-2.52,11.29-1.71,17.07C423.76,525.39,425.43,524.93,425.28,523.83L425.28,523.83z"/>
		</g>
	</g>
	<g>
		<g>
			<path class="st9" d="M355.64,574.18c6.76,2.96,13.79,14.57,22.25,10.66c1.01-0.47,0.13-1.97-0.88-1.5
				c-4.1,1.9-8.45-1.68-11.48-4.1c-2.86-2.29-5.61-5.07-9.01-6.56C355.5,572.24,354.62,573.74,355.64,574.18L355.64,574.18z"/>
		</g>
	</g>
	<g>
		<g>
			<path class="st9" d="M360.95,584.57c0.55,0,1.52,0.9,1.96,1.18c0.95,0.62,1.89,1.25,2.86,1.83c1.78,1.08,3.74,2.2,5.87,2.31
				c1.12,0.06,1.12-1.68,0-1.74c-2.4-0.13-4.75-1.89-6.7-3.15c-1.07-0.69-2.63-2.17-3.99-2.18
				C359.83,582.83,359.83,584.57,360.95,584.57L360.95,584.57z"/>
		</g>
	</g>
	<g>
		<g>
			<path class="st27" d="M504.97,478.08c10.77-8.11,20.86-17.07,29.83-27.16c9.23-10.38,17.38-21.66,26.27-32.32
				c-0.39-0.3-0.79-0.61-1.18-0.91c-0.15,0.44-0.38,0.83-0.7,1.18c-0.57,0.78,0.73,1.53,1.3,0.76c0.31-0.34,0.55-0.74,0.7-1.18
				c0.33-0.71-0.59-1.62-1.18-0.91c-8.5,10.2-16.34,20.94-25.07,30.95c-9.19,10.53-19.57,19.9-30.72,28.29
				C503.45,477.36,504.2,478.66,504.97,478.08L504.97,478.08z"/>
		</g>
	</g>
	<g>
		<g>
			<path class="st27" d="M479.96,418.85c4.7-7.02,10.31-13.46,14.3-20.95c0.45-0.85-0.84-1.61-1.3-0.76
				c-3.99,7.49-9.59,13.93-14.3,20.95C478.13,418.9,479.43,419.65,479.96,418.85L479.96,418.85z"/>
		</g>
	</g>
	<g>
		<g>
			<path class="st27" d="M520.4,497.87c4.27,3.07,8.73,6.45,14.07,7.26c6.04,0.92,12.02-1.25,18-1.58
				c12.98-0.71,23.41,6.43,33.45,13.68c0.78,0.57,1.53-0.73,0.76-1.3c-8.43-6.09-17.13-12.31-27.72-13.64
				c-6.06-0.77-11.66,0.61-17.64,1.27c-8.12,0.9-13.8-2.43-20.16-6.99C520.37,496.01,519.62,497.31,520.4,497.87L520.4,497.87z"/>
		</g>
	</g>
	<g>
		<g>
			<path class="st27" d="M557.29,512.18c4.77,2.82,9.55,5.59,13.52,9.52c0.69,0.68,1.75-0.38,1.06-1.06
				c-4.06-4.01-8.94-6.87-13.83-9.75C557.21,510.4,556.46,511.69,557.29,512.18L557.29,512.18z"/>
		</g>
	</g>
	<g>
		<g>
			<path class="st27" d="M523.42,325.4c-2.56,7.12-8.04,12.63-13.47,17.71c-1.9,1.78-3.84,3.54-5.83,5.22
				c-1,0.85-4.12,4.27-5.67,4.04c-0.94-0.14-1.35,1.31-0.4,1.45c3.68,0.54,9.57-6.52,11.91-8.67c6-5.54,12.09-11.51,14.9-19.34
				C525.19,324.88,523.74,324.49,523.42,325.4L523.42,325.4z"/>
		</g>
	</g>
	<g>
		<g>
			<path class="st27" d="M521.5,339.35c-2.7,3.47-4.92,7.3-7.82,10.62c-0.63,0.72,0.42,1.79,1.06,1.06
				c2.9-3.32,5.12-7.14,7.82-10.62C523.14,339.66,522.09,338.59,521.5,339.35L521.5,339.35z"/>
		</g>
	</g>
	<g>
		<g>
			<path class="st27" d="M611.56,458.78c12.84,33.15,31.33,75.34,12.16,109.6c-0.47,0.84,0.82,1.6,1.3,0.76
				c19.41-34.69,0.98-77.2-12.01-110.76C612.66,457.49,611.21,457.87,611.56,458.78L611.56,458.78z"/>
		</g>
	</g>
	<g>
		<g>
			<path class="st27" d="M621.35,522.01c1.05,10.12,3.2,20.64-0.17,30.55c-0.31,0.92,1.14,1.31,1.45,0.4
				c3.42-10.04,1.29-20.68,0.23-30.95C622.75,521.06,621.25,521.05,621.35,522.01L621.35,522.01z"/>
		</g>
	</g>
	<g>
		<g>
			<path class="st27" d="M539.44,264.92c-13.68-4.08-20.32-21.22-35.25-21.97c-2.39-0.12-6.69-0.04-6.58,3.27
				c0.22,6.21,11.98,7.25,14.98,11.03c0.6,0.76,1.65-0.31,1.06-1.06c-1.54-1.94-3.22-2.98-5.49-3.9c-2.27-0.92-8.23-2.2-8.73-5.35
				c-0.76-4.83,9.99-1.73,12.19-0.54c10.19,5.51,15.89,16.53,27.42,19.97C539.97,266.64,540.37,265.19,539.44,264.92L539.44,264.92z
				"/>
		</g>
	</g>
	<path class="st41" d="M881.02,638.76c0,0.2,0,0.4-0.01,0.59c0.01,0.1,0.01,0.2,0,0.29c0,0.31-0.01,0.6-0.02,0.9
		c0,0.12-0.01,0.24-0.02,0.36c0,0.15-0.01,0.31-0.02,0.46c-0.01,0.27-0.03,0.55-0.05,0.82c-0.06,0.76-0.14,1.52-0.23,2.26
		c-0.15,1.1-0.34,2.18-0.58,3.24H632.62v-50.13h223.66c0.3,0.31,0.6,0.61,0.9,0.91c10,10.05,20,18.37,22.47,29.09
		c0.67,2.9,1.09,5.72,1.27,8.44c0.01,0.07,0.01,0.13,0.02,0.2c0.02,0.44,0.04,0.88,0.06,1.31v0.41
		C881.01,638.2,881.02,638.48,881.02,638.76z"/>
	<path class="st41" d="M857.18,598.46H695.8v-50.13h138.42c-0.01,0.01-0.01,0.02,0,0.03c-0.74,23.17,10.5,37.43,22.06,49.19
		C856.58,597.86,856.88,598.16,857.18,598.46z"/>
	<path class="st41" d="M853.23,498.23c-5.74,6.3-10.38,13.67-13.5,22.71c-3.58,10.37-5.26,19.41-5.51,27.39
		c-0.01,0.01-0.01,0.02,0,0.03h-82.33v-50.13H853.23z"/>
	<g>
		<g>
			<path class="st9" d="M548.87,575.92c-1.34,8.88-1.27,18.24,1.63,26.82c1.36,4.03,3.41,7.77,5.8,11.27
				c2.08,3.04,4.1,6.63,7.15,8.78c0.92,0.65,1.79-0.86,0.88-1.5c-2.95-2.07-5.04-5.91-7.02-8.88c-2.27-3.41-4.19-7.05-5.41-10.97
				c-2.52-8.06-2.61-16.76-1.36-25.06C550.71,575.29,549.03,574.81,548.87,575.92L548.87,575.92z"/>
		</g>
	</g>
	<g>
		<g>
			<path class="st9" d="M543.51,583.02c-1.16,9.51-1.32,20.37,4.77,28.37c0.67,0.88,2.18,0.01,1.5-0.88
				c-5.92-7.77-5.66-18.26-4.54-27.49C545.39,581.91,543.65,581.92,543.51,583.02L543.51,583.02z"/>
		</g>
	</g>
	<path class="st20" d="M470.08,474.54c-0.94,0.08-1.83-0.51-2.09-1.45c-4.69-16.66-5.86-33.65-3.49-50.49
		c1.51-10.76,4.49-21.32,8.84-31.37c0.44-1.01,1.61-1.48,2.63-1.04c1.01,0.44,1.48,1.62,1.04,2.63c-4.21,9.73-7.08,19.93-8.55,30.34
		c-2.29,16.29-1.16,32.72,3.38,48.84c0.3,1.07-0.32,2.17-1.38,2.47C470.33,474.51,470.2,474.53,470.08,474.54z"/>
	<g class="st30">
		<g>
			<g>
				<path class="st31" d="M306.06,544.66c-0.35,0.51-0.71,1.01-1.06,1.52c-0.61,0.88-0.19,2.31,0.73,2.79c1,0.53,2.2,0.24,2.79-0.73
					c0.32-0.52,0.64-1.05,0.96-1.57c0.54-0.89,0.22-2.22-0.71-2.72C307.77,543.41,306.7,543.75,306.06,544.66L306.06,544.66z"/>
			</g>
		</g>
		<g>
			<g>
				<path class="st31" d="M261.27,530.53c-0.32,0.44-0.39,0.57-0.2,0.4c-0.36,0.15-0.73,0.3-1.09,0.45
					c-0.45-0.06-0.4-0.05,0.14,0.02c0.15-0.02,0.29-0.04,0.44-0.06c0.17-0.05,0.11-0.04-0.19,0.01c0.13,0.01,0.12,0-0.05-0.01
					c-0.1,0-0.18-0.03-0.25-0.08c-0.18-0.11-0.53-0.56-0.54-0.96c0.02,0.89,0.77,1.75,1.71,1.71c0.91-0.04,1.73-0.75,1.71-1.71
					c-0.02-1.06-0.73-1.98-1.77-2.25c-1.06-0.27-2.45,0.18-2.69,1.37c0.13-0.23,0.26-0.45,0.4-0.68c-0.23,0.3-0.46,0.6-0.53,0.98
					c-0.13,0.78,0.2,1.66,1.05,1.85C260.28,531.77,260.97,531.32,261.27,530.53L261.27,530.53z"/>
			</g>
		</g>
		<g>
			<g>
				<path class="st31" d="M264.7,563.13c1.05,1.59,2.07,3.1,3.35,4.51c0.4,0.45,1.14,0.45,1.59,0.09c0.52-0.4,0.55-1,0.31-1.57
					c-0.71-1.65-1.58-3.11-2.52-4.64C266.36,559.8,263.58,561.44,264.7,563.13L264.7,563.13z"/>
			</g>
		</g>
		<g>
			<g>
				<path class="st31" d="M192.48,540.1c1.57,0.74,3.14,1.48,4.72,2.23c1.54,0.72,2.88-1.57,1.34-2.29
					c-1.58-0.73-3.16-1.46-4.73-2.19C192.29,537.14,190.96,539.38,192.48,540.1L192.48,540.1z"/>
			</g>
		</g>
		<g>
			<g>
				<path class="st31" d="M209.81,575.63c0.82,0.1,1.63,0.21,2.46,0.19c1.57-0.03,1.96-2.38,0.38-2.78
					c-0.93-0.24-1.88-0.32-2.83-0.43c-0.79-0.09-1.54,0.76-1.51,1.51C208.34,575.02,208.97,575.53,209.81,575.63L209.81,575.63z"/>
			</g>
		</g>
		<g>
			<g>
				<path class="st31" d="M122.37,570.2c0.97-0.54,2.21-0.49,3.08,0.25c1.49,1.28,3.66-0.9,2.16-2.16c-1.93-1.6-4.53-1.93-6.74-0.66
					C119.21,568.59,120.7,571.14,122.37,570.2L122.37,570.2z"/>
			</g>
		</g>
		<g>
			<g>
				<path class="st31" d="M106.66,537.81c1.71-0.36,3.4-0.67,5.05-1.26c1.31-0.47,1.23-2.71-0.35-2.6
					c-1.88,0.13-3.67,0.53-5.51,0.92C103.93,535.27,104.74,538.21,106.66,537.81L106.66,537.81z"/>
			</g>
		</g>
		<g>
			<g>
				<path class="st31" d="M80.75,554.03c1.11-0.25,2.37,0.2,3.18,0.97c1.58,1.52,3.72-0.73,2.37-2.37c-1.58-1.9-4.09-2.53-6.44-1.87
					C77.75,551.37,78.63,554.5,80.75,554.03L80.75,554.03z"/>
			</g>
		</g>
		<g>
			<g>
				<path class="st31" d="M84.75,603.49c1.22,1.51,2.44,3.02,3.66,4.53c0.66,0.81,2.05,0.68,2.73,0c0.81-0.81,0.64-1.9,0-2.73
					c-1.19-1.54-2.39-3.07-3.58-4.61c-0.66-0.85-2.12-0.69-2.81,0C83.93,601.51,84.08,602.66,84.75,603.49L84.75,603.49z"/>
			</g>
		</g>
		<g>
			<g>
				<path class="st31" d="M213.23,612.04c1.23,1.93,2.43,3.86,3.83,5.67c1.1,1.43,3.23-0.39,2.43-1.87
					c-1.03-1.89-2.26-3.64-3.46-5.43C214.87,608.69,212.1,610.27,213.23,612.04L213.23,612.04z"/>
			</g>
		</g>
		<g>
			<g>
				<path class="st31" d="M303,594.9c0.7,0.37,1.39,0.75,2.1,1.1c0.75,0.37,1.53,0.58,2.34,0.8c1.26,0.35,2.37-1.35,1.32-2.27
					c-0.61-0.54-1.2-1.1-1.91-1.52c-0.68-0.4-1.38-0.77-2.07-1.15C302.79,590.74,300.99,593.84,303,594.9L303,594.9z"/>
			</g>
		</g>
		<g>
			<g>
				<path class="st31" d="M353.17,537.8c0.13,1.38,0.49,2.59,1,3.87c0.3,0.76,1.01,1.29,1.85,1.05c0.76-0.21,1.31-1.08,1.05-1.85
					c-0.43-1.3-0.9-2.54-1.68-3.67C354.79,536.31,353.04,536.52,353.17,537.8L353.17,537.8z"/>
			</g>
		</g>
		<g>
			<g>
				<path class="st31" d="M356.43,519.14c-0.02,0.58,0.2,1.03,0.46,1.52c0.41,0.76,1.61,0.95,2.19,0.28
					c0.36-0.41,0.7-0.79,0.81-1.34c0.21-1.04-0.37-2.05-1.47-2.2C357.36,517.27,356.46,518.08,356.43,519.14L356.43,519.14z"/>
			</g>
		</g>
		<g>
			<g>
				<path class="st31" d="M301.18,513.98c0.24,0.3,0.47,0.62,0.72,0.91c0.25,0.3,0.56,0.53,0.85,0.78c0.66,0.56,1.55,0.69,2.27,0.14
					c0.7-0.54,0.84-1.45,0.45-2.23c-0.24-0.48-0.47-0.89-0.8-1.32c-0.26-0.33-0.52-0.66-0.78-0.99c-0.62-0.79-2.06-0.7-2.7,0
					C300.41,512.11,300.51,513.14,301.18,513.98L301.18,513.98z"/>
			</g>
		</g>
		<g>
			<g>
				<path class="st4" d="M331.93,568.18c-0.26,1.32-0.52,2.66-0.13,3.99c0.28,0.99,1.7,1.21,2.22,0.29c0.67-1.2,0.75-2.55,0.8-3.89
					C334.88,566.94,332.25,566.53,331.93,568.18L331.93,568.18z"/>
			</g>
		</g>
		<g>
			<g>
				<path class="st4" d="M333.67,567.12c-0.03,1.41,0.02,2.79,0.1,4.19c0.06,0.94,0.76,1.75,1.75,1.75c0.87,0,1.85-0.8,1.75-1.75
					c-0.16-1.55-0.35-3.06-0.64-4.59C336.31,565,333.71,565.47,333.67,567.12L333.67,567.12z"/>
			</g>
		</g>
		<g>
			<g>
				<path class="st4" d="M325.98,533.44c0.37,1.7,0.72,3.4,1.12,5.09c0.46,1.96,3.33,1.11,2.98-0.82c-0.31-1.71-0.67-3.41-1.01-5.12
					C328.66,530.58,325.54,531.42,325.98,533.44L325.98,533.44z"/>
			</g>
		</g>
		<g>
			<g>
				<path class="st4" d="M277.94,539.57c2.49,0.03,4.98,0.12,7.47-0.04c2.05-0.13,2.06-3.08,0-3.2c-2.49-0.15-4.98-0.04-7.47,0
					C275.86,536.38,275.86,539.55,277.94,539.57L277.94,539.57z"/>
			</g>
		</g>
		<g>
			<g>
				<path class="st4" d="M237.97,554.67c2.38,0.1,4.68,0.32,7.03-0.2c1.35-0.3,1.35-2.44,0-2.73c-2.35-0.51-4.64-0.27-7.03-0.16
					C235.98,551.68,235.98,554.59,237.97,554.67L237.97,554.67z"/>
			</g>
		</g>
		<g>
			<g>
				<path class="st4" d="M207.62,523.11c1.94-0.05,3.89-0.1,5.83-0.15c2.17-0.05,2.18-3.45,0-3.38c-1.94,0.06-3.89,0.12-5.83,0.18
					C205.47,519.83,205.46,523.16,207.62,523.11L207.62,523.11z"/>
			</g>
		</g>
		<g>
			<g>
				<path class="st4" d="M145.75,562.53c1.94-0.03,3.89-0.06,5.83-0.1c2.22-0.04,2.22-3.54,0-3.46c-1.94,0.07-3.89,0.14-5.83,0.21
					C143.61,559.26,143.59,562.57,145.75,562.53L145.75,562.53z"/>
			</g>
		</g>
		<g>
			<g>
				<path class="st4" d="M130.73,603.16c1.74-0.61,3.48-1.22,5.22-1.83c2.27-0.8,1.26-4.46-1-3.62c-1.73,0.65-3.46,1.29-5.19,1.94
					c-0.92,0.34-1.55,1.23-1.27,2.24C128.73,602.79,129.8,603.49,130.73,603.16L130.73,603.16z"/>
			</g>
		</g>
		<g>
			<g>
				<path class="st4" d="M95.34,589.31c0.82,0.1,1.64,0.19,2.46,0.29c1.01,0.12,1.97-0.97,1.93-1.93c-0.05-1.15-0.85-1.81-1.93-1.93
					c-0.82-0.1-1.64-0.19-2.46-0.29c-1.01-0.12-1.97,0.97-1.93,1.93C93.46,588.53,94.26,589.19,95.34,589.31L95.34,589.31z"/>
			</g>
		</g>
		<g>
			<g>
				<path class="st4" d="M77.43,645.64c1.88,0.48,3.77,0.97,5.65,1.45c2.73,0.7,3.89-3.48,1.16-4.22c-1.88-0.51-3.75-1.01-5.63-1.52
					C75.84,640.6,74.65,644.92,77.43,645.64L77.43,645.64z"/>
			</g>
		</g>
	</g>
	<g class="st42">
		<path class="st43" d="M637.6,485.55c-4.45-19.43-12.81-35.25-19.59-53.7c-14.94-40.68-39.26-82.88-79.64-102.97
			c-3.94-1.96-6.16-2.56-7.23-7.11c-1.58-6.7,5.85-12.09,7.42-18.37c1.27-5.06,1.79-11.55,5.68-15.45c3.1-3.11,7.31-4.02,10.91-6.16
			c7.68-4.56,9.14-18.06-0.59-21.42c-6.27-2.16-12.01-1.27-17.82-5.38c-4.89-3.45-7.92-8.89-11.7-13.46
			c-7.79-9.42-19.62-14.79-31.5-16.57c-6.42-0.96-11.99-1.12-18.41-0.37c-6.11,0.71-15.01-0.36-19.3,5.38
			c-1.33,1.78-1.62,3.98-1.55,6.24c-2.33,0.26-4.57,0.62-6.64,1.08c-5.12,1.13-13.66,2.87-17.28,6.94
			c-2.98,3.35-6.35,12.91-7.54,17.06c-0.98,3.39-2.08,12.48-2.54,18.92c-0.02,0-0.04,0-0.05,0c-14.09-1.77-27.9-3.35-42.06-3.9
			c-3.6-0.14-11.76-0.61-14.23,2.79c-3.6,4.96,6.17,5.75,9.08,6.1c15.66,1.86,31.44,2.34,47.19,2.98c-1.44,5.97-1.96,11.98,1,18.25
			c0.02,0.05,0.05,0.08,0.07,0.12c1.06,2.11,3.25,2.72,4.97,4.02c0.36,0.27,0.7,0.56,1,0.91c0.22,0.26,0.38,0.57,0.5,0.91
			c0.14,2.51-1.15,5.75-1.52,8.27c-0.4,2.79-2.84,7.61-2.42,10.44c0.32,2.15,1.21,4.19,2.54,5.66c0.71,1.02,1.66,1.83,2.94,2.24
			c1.09,0.35,2.2,0.14,3.29-0.17c0.26-0.06,0.53-0.14,0.79-0.23c1.56-0.46,3.08-0.86,4.51,0.23c2.59,1.98,3.57,6.41,4.79,9.26
			c1.54,3.57,2.64,7.38,4.37,10.85c1.63,3.26,3.83,5.47,7.35,6.46c5.2,1.46,9.83,0.56,14.06-1.53c-1,6.99-2.26,13.88-3.87,20.99
			c-1.81,8.01-5.73,19.87,1.56,26.23c0.15,0.13,0.31,0.24,0.47,0.36c-0.88,3.69-1.59,7.41-2.12,11.16
			c-0.49,3.47-0.82,6.95-1.01,10.43c-3.74,1.43-7.83,2.65-12.46,3.57c-0.58,0.11-0.65,0.12-6.18,0.57
			c-12.34-7.02-25.86-10.86-39.96-5.98c-0.03,0.01-8.12,2.78-15.24,9.82c-0.26,0.25-0.51,0.53-0.75,0.81
			c-4.5,0.38-8.57,0.73-12.15,1.04c-1,0.09-1.97,0.34-2.89,0.71c-4.3-2.36-9.42-4-13.64-1.93c-1.3,0.64-2.3,1.64-3.43,3.22
			c-0.14-0.5-0.28-0.75-0.63-0.85c-4.27-1.3-13.62,5.4-16.84,12.32c-2,4.3-3.21,12.86-2.44,15.85c2.21,8.53,16.33,12.7,20.01,13.67
			c0.01,0.04,0.02,0.08,0.03,0.12c1.67,5.12,6.15,8.43,11.6,10.51c-2.28,8.21-4,16.51-7.34,24.46c-3.8,9.06-7.85,17.99-11.41,27.18
			c-1.73,4.47-1.38,8.86-2.59,13.34c-1.04,3.85-2.97,7.75-4.35,11.5c-2.26,6.12-3.72,12.72-6.13,18.73
			c-1.3,3.24-4.77,7.38-3.69,11.09c0.69,2.39,3.3,4.27,5.74,5.88c-0.71,3.43-2.39,7.82-6.37,9.29
			c-15.33,5.69-36.3,11.73-51.52,13.64c-4.84,0.61-9.09,1.11-12.8,1.61c0,0,0,0,0,0c0,0-9.79,0.09-15.9,3.74
			c-0.31,0.18-0.6,0.37-0.87,0.56c-0.06,0.04-0.12,0.08-0.18,0.12c0,0,0.01,0,0.01,0c-0.34,0.27-0.66,0.55-0.91,0.85
			c0,0-1.97,0.93-0.65,12.59c0.23,2.04,22.71,7.04,41.16,10.64l0.1,0.02l0,0c2.88,0.56,5.66,1.09,8.24,1.56
			c19.15,3.52,72.85,13.1,73.62,10.31c0.25-0.93,0.64-2.65,1.04-4.54l0.08,0.01l0.22-1.41c0.72-3.41,1.41-6.86,1.41-6.86
			c-0.21-0.06-0.65-0.14-1.28-0.26c1.01-12.48,1.77-32.45,2.09-41.96c0.76-0.29,1.49-0.61,2.17-1c1.97-1.11,9.12-6.5,5.16-8.86
			c0.6-1.26,1.14-2.54,1.66-3.83l33.5-78.51c0.27,2.75,1.14,5.41,3.49,5.64c1.94,0.19,2.63-2.1,2.76-4.98l50.37,59.65
			c1.39,1.69,2.79,3.37,4.17,5.07c24.89,30.51,46.07,59.33,72.35,62.09c12,1.26,23.44-0.83,23.44-0.83
			c6.85-1.61,21.03-4.95,30.02-18.07c3.22-4.69,5.29-10.04,6.3-15.61c0.33,0.45,0.74,0.85,1.3,1.21c0.72-0.8,2.86-2.96,2.92-3.06
			c0.52-0.85,1.07-1.64,1.65-2.39c3.44-4.47,7.67-7.49,10.19-13.57c6.53-15.71,11.76-33.28,13.87-50.28
			c1.15-9.22,1.94-18.48,2.77-27.75C645.5,510.24,640.54,498.38,637.6,485.55z M476.95,421.16c-1.99,2.24-4.07,4.4-6.07,6.62
			c-0.81,0.9-1.54,2.31-2.42,3.14c-0.28,0.13-0.57,0.26-0.86,0.39c0.19-2.72,0.47-5.44,0.85-8.15c0.45-3.2,1.05-6.38,1.77-9.54
			c2.18,1.06,4.53,1.95,6.49,3.01c0.22,0.12,0.41,0.24,0.62,0.36C477.18,418.37,477.06,419.76,476.95,421.16z M502.56,485.88
			c-1.82-1.86-3.64-3.7-5.47-5.53c1.88-0.79,3.71-1.7,5.5-2.71c2.22,5.61,4.79,11.02,7.86,16.06
			C507.78,491.13,505.14,488.52,502.56,485.88z"/>
	</g>
	<path class="st41" d="M880.67,644.44c-0.15,1.1-0.34,2.18-0.58,3.24c-5.06,23.03-30.64,37.99-69.89,46.89H516.89v-50.13H880.67z"/>
	<g class="st44">
		<path class="st24" d="M524.13,148.26c2.15-15.37,13.16-27.44,27.05-29.75c13.59-2.25,27.18,5.29,33.71,18.75
			c1.08-1.08,10.69-10.34,24.01-7.54c11.4,2.4,17.24,11.91,18.24,13.61c9.04-3.51,17.92,2.77,19.11,10.35
			c1.02,6.47-3.51,14.19-11.21,16.26c2.06,5.77,0.18,12.24-4.24,15.35c-4.97,3.49-12.03,1.99-15.71-3.76
			c-3.89,7.49-11.37,11.06-17.78,9.03c-6.34-2-9.05-8.66-9.45-9.68c-6.42,9.23-16.5,13.69-25.76,11.34
			c-7.91-2.01-12.48-8.31-13.91-10.46c-2.7,7.68-10.07,11.88-16.86,10.04c-5.91-1.6-10.38-7.51-10.86-14.58
			c-8.61-0.5-14.76-8.17-14.52-15.41C506.21,153.7,514.51,146,524.13,148.26z"/>
		<path class="st24" d="M457.92,158.82c2.76-17.55,16.59-31.36,34.01-34.04c17.04-2.62,34.04,5.93,42.17,21.27
			c1.36-1.23,13.43-11.84,30.11-8.69c14.28,2.7,21.55,13.52,22.81,15.46c11.34-4.04,22.45,3.09,23.91,11.74
			c1.25,7.37-4.45,16.2-14.11,18.59c2.56,6.58,0.18,13.96-5.38,17.53c-6.23,4-15.08,2.31-19.67-4.24
			c-4.9,8.56-14.29,12.66-22.31,10.37c-7.94-2.26-11.31-9.84-11.8-11c-8.07,10.56-20.73,15.68-32.31,13.03
			c-9.9-2.26-15.6-9.43-17.39-11.89c-3.42,8.77-12.66,13.59-21.17,11.51c-7.4-1.81-12.98-8.53-13.56-16.59
			c-10.79-0.54-18.46-9.27-18.14-17.53C435.45,165.09,445.87,156.27,457.92,158.82z"/>
	</g>
	<g class="st45">
		<g>
			<path class="st29" d="M435.4,316.45c-0.02-1.57,0.21-4.19,1.83-5.04c1.73-0.91,2.86,2.06,3.26,3.2c0.51,1.45,2.82,0.82,2.31-0.64
				c-0.88-2.51-2.85-6.04-6.09-4.95c-2.92,0.98-3.74,4.74-3.7,7.43C433.02,317.99,435.42,318,435.4,316.45L435.4,316.45z"/>
		</g>
	</g>
	<g class="st45">
		<path class="st29" d="M424.3,304.15c0.04-0.1,0.08-0.19,0.13-0.29c0.92-1.77,2.74-2.89,4.47-3.76c2.43-1.22,5-2.2,7.68-2.6
			c1.56-0.23,3.19-0.26,4.66,0.3c1.18,0.46,2.28,1.44,2.36,2.7c0.06,0.91-0.44,1.79-1.15,2.38c-0.7,0.58-1.58,0.9-2.47,1.12
			c-2.17,0.54-4.45,0.54-6.62,1.07c-1.73,0.42-3.36,1.17-4.97,1.95c-0.65,0.31-1.32,0.64-2.03,0.63
			C424.5,307.66,423.73,305.67,424.3,304.15z"/>
	</g>
</g>
</svg>
