<?xml version="1.0" encoding="utf-8"?>
<!-- Generator: Adobe Illustrator 25.3.1, SVG Export Plug-In . SVG Version: 6.00 Build 0)  -->
<svg version="1.1" id="Layer_1" xmlns="http://www.w3.org/2000/svg" xmlns:xlink="http://www.w3.org/1999/xlink" x="0px" y="0px"
	 viewBox="0 0 1019.6 768" style="enable-background:new 0 0 1019.6 768;" xml:space="preserve">
<style type="text/css">
	.st0{fill:#8FAD8C;}
	.st1{fill:#266DA2;}
	.st2{fill:#FFE3E0;}
	.st3{fill:#D4D5D6;}
	.st4{fill:#472516;}
	.st5{fill:#002042;}
	.st6{fill:#FDA689;}
	.st7{fill:#30170D;}
	.st8{fill:#844C62;}
	.st9{fill:#6D4152;}
	.st10{fill:#FCFCFC;}
	.st11{fill:none;stroke:#FFFFFF;stroke-width:3;stroke-miterlimit:10;}
	.st12{fill:none;stroke:#F28561;stroke-width:2;stroke-linecap:round;stroke-miterlimit:10;}
	.st13{fill:#F28561;}
	.st14{fill:none;stroke:#063C70;stroke-width:2;stroke-linecap:round;stroke-miterlimit:10;}
	.st15{fill:#063C70;}
	.st16{fill:none;stroke:#063C70;stroke-linecap:round;stroke-miterlimit:10;}
	.st17{fill:#FFFFFF;}
	.st18{fill:none;stroke:#9B9B9B;stroke-miterlimit:10;}
	.st19{fill:url(#SVGID_1_);}
	.st20{fill:#C4AE87;}
	.st21{fill:#9B9B9B;}
	.st22{fill:#EAD2BB;}
	.st23{fill:#D3B59C;}
	.st24{fill:#F4E3D7;}
	.st25{fill:#C6473E;}
	.st26{fill:#459349;}
	.st27{fill:#CCB750;}
	.st28{fill:#489B69;}
	.st29{fill:#DBC258;}
	.st30{fill:#FFFFFD;}
</style>
<g id="Layer_4">
	<path class="st0" d="M62.3,451.5c-7.7-35.5-5.8-73.1,5.3-107.6c10.4-32.5,31.5-64,63-74c24.7-7.8,51.3-1.2,77.2-1.5
		c76.3-0.9,138.1-60.5,198-109.7c44-36.3,92.2-69.1,146.5-84.7S667.9,61.8,715,93.9c45.2,30.8,72.5,84.7,82.7,139.9
		c6.4,34.5,7.4,71.7,26.2,100.8c20.2,31.2,29.3,40.7,87.6,64.4s71.6,138.9,40.3,157.7c-33.5,20.1-110.6,47.6-147.7,58.6
		c-54.8,16.1-111.8,21.7-168.5,27.2c-154.5,15.1-313.1,29.8-462.5-14c-28.7-8.4-70.7-24.6-79.7-58.2c-4.6-17.1-5.1-35.2-10.7-52.7
		C75.8,495.6,67.2,474.2,62.3,451.5z"/>
	<path class="st1" d="M268.3,248c0.4-4.9,7.1-13.3,12.4-17.3s32.7-5.8,32.7-5.8l42,20.4c0,0,11.1,9.3,11.9,17.3
		c0-0.4,22.6,12.4,39.4,27s37.2,37.2,41.6,50s15,64.1,17.3,69c2.2,4.9,10.2,44.7,10.2,44.7s16.8,7.5,21.2,17.3
		c4.4,9.7,7.5,30.5,6.6,32.7s-14.6,15-19.5,15.9s-26.1,4.4-26.1,4.4l-28.8-20.4c0,0-8.8-14.6-7.5-21.7s4.9-12.4,4.9-12.4
		s-4.4-21.2-10.2-33.6C410.6,423.1,404,416,404,416s-0.9,50.9,0,60.2c0.9,9.3,10.6,67.2,10.6,67.2L392,566l-82.3,0.9l-93.8-15
		c0,0,2.7-53.5,1.3-75.2c-1.3-21.7-8.4-54.9-8.4-54.9s-7.1,15.5-7.5,22.6s2.2,27,1.3,34.9c-0.9,8-8,23.4-8,23.4l-44,33.3
		c0,0-14.2,3.1-20.8-2.2c-6.6-5.3-12.8-5.3-15.5-8.4c-2.7-3.1-6.6-8-3.1-20.4s7.1-30.1,7.1-30.1l14.6,0.4c0,0,4.4-54,11.1-72.1
		c6.6-18.1,20.8-74.3,26.5-85.4c5.8-11.1,34.5-35.8,47.3-44.7C230.7,264.4,254.6,249.3,268.3,248z"/>
	<path class="st2" d="M575.2,398.7c0,0,26.2-21.3,40.8-24.1c14.6-2.8,49.8,10.5,49.8,10.5l42.2-2.5c0,0,20.1,8.2,26.4,13.5
		s6.6,86.6,6.6,86.6l5.6,10.6l7,54.4c0,0-2,11.9-4.3,11.9s-121.8,9.3-125.1,8.3s-47.4-15.3-47.4-15.3l4-14.3c0,0,4.3-49.8,3.3-56.7
		c-1-7-13.9-52.4-13.6-54.4C570.9,425.2,575.2,398.7,575.2,398.7z"/>
	<path class="st1" d="M575.2,398.7c0,0-41.1,42.1-41.8,70.3c11.3,12.9,50.8,12.6,50.8,12.6s3.3-7-0.7-21.6S575.2,402.6,575.2,398.7z
		"/>
	<path class="st1" d="M734.5,396c0,0,6.3,69.3,5.6,76.3s4,20.9,4,20.9s40.8-12.3,41.5-20.2c-1.7-4-2.7-27.5-11.9-42.1
		C764.3,416.2,734.5,396,734.5,396z"/>
	<path class="st3" d="M91.7,555.9c-1-2,862,0,862,0s23.9,76.6-10.9,109.5s-73.7,59.7-135.4,65.7c-154.3,9-148.3-51.8-298.6-55.7
		c-150.3-4-153.3,34.8-247.9,27.9C166.3,696.3,78.7,677.4,91.7,555.9z"/>
</g>
<g id="Layer_3">
	<path class="st4" d="M291.5,206.9c0,0-14.3-7-14.6-14.9c-0.3-8-1.7-21.6-1.7-21.6s-3.3-17.6-8.6-26.5c-5.3-9-3-19.2,0.3-22.9
		c3.3-3.6,8.3-7.3,8.3-7.3s-1.3-5.6,2.7-8.3c4-2.7,1.3-9.3,4.6-13.9c3.3-4.6,11.3-6.3,19.2-8.3c8-2,11.9-16.6,21.6-18.6
		c9.6-2,20.6,2,25.9,3s10.6-7.6,22.6-3.6c11.9,4,12.6,17.3,16.9,20.6c4.3,3.3,10.9,1,16.3,7c5.3,6,9.6,16.9,9,25.2
		c-0.7,8.3-3,10.6-2,16.3c1,5.6,9.3,21.6,9.3,26.9s0,9-3.6,10.6c-3.6,1.7-19.9,5.6-19.9,5.6L291.5,206.9z"/>
	<path class="st5" d="M608.4,216.5c15.1-12.9,45.1-17.6,55.1-17.3s38.2-0.7,47.8,10.9c9.6,11.6,35.8,41.5,41.1,78.3
		s-3,37.2-8.3,39.5S696,342.2,696,342.2l-74.3,0.7c0,0-30.2-0.7-40.8-6.3s-19.6-4.3-19.2-18.6c0.3-14.3,4-31.9,12.6-51.1
		S592.1,230.4,608.4,216.5z"/>
	<path class="st6" d="M287.8,163.1c0,0-2.7-8.8-11.1-7.1c-8.4,1.8-11.5,9.3-7.5,18.1s11.1,11.5,14.2,10.6
		c-0.4-0.4,8.4,33.6,1.8,47.8c-7.1,22.1,38.9,56.6,38,56.2s24.8-5.8,28.3-40.3c6.6-1.3,7.1,3.5,16.4-3.5
		c9.3-7.1,18.6-31.9,22.1-43.4c3.5-11.5,3.5-11.5,3.5-11.5l7.4-1.6l5-12.7l-1.8-14v-5.3c0,0-13.3-11.1-15-17.7
		c-1.8-6.6-2.2-5.8-6.6-6.2s-7.5,4.9-11.5,0c-4-4.9-11.9-13.7-16.4-14.2c-4.4-0.4-19.9,6.2-24.8,4.4c-4.9-1.8-9.3-8.8-12.8-5.8
		c-3.5,3.1,0.4,9.7-4,14.6c-4.4,4.9-11.9,2.2-14.2,6.6c-2.2,4.4,5.3,9.7,1.3,15.5C296.2,159.5,287.8,163.1,287.8,163.1z"/>
	<path id="path861_1_" class="st7" d="M388.4,157.8c0,0,0.1,0,0.2,0C388.5,157.8,388.4,157.8,388.4,157.8
		c-7.2,0.4-11.6,1.6-14.5,4.2c-1.9-1-5.7-2.7-9.5-2.6c-5.6,0-10.5,1.1-10.5,1.1v0.1c-2.7-2.4-6.9-3.8-13.3-4.7c-0.1,0-0.2,0-0.3-0.1
		c0.1,0,0.2,0,0.2,0s-4.8-0.9-21.9,1.3c-0.3,0-0.6,0.1-0.9,0.1l-0.3,6.4c0,0,2.5,0.9,3.1,2.1c0.3,0.6,0.6,3.6,1,6.5
		c0.1,4.9,1.5,9.6,3.9,13c2.8,3.9,6.9,6,11.9,6.2c8,0.3,17.4-4.3,19.9-18c0.4-2.4,0.5-4.5,0.2-6.3c4.3-2.2,10.8-0.4,13.1,0.4
		c-0.5,1.9-0.6,4-0.4,6.5c1.4,14,10.4,19.3,18.4,19.6c5,0.2,9.3-1.6,12.4-5.2c2.7-3.2,4.5-7.8,5-12.7c0.7-2.9,1.2-5.8,1.5-6.4
		c0.7-1.2,3.3-1.9,3.3-1.9l0.3-6.4C393.4,157.3,388.4,157.8,388.4,157.8L388.4,157.8z M354.7,173c-2.7,15-13.9,15.8-17.3,15.6
		c-4.3-0.2-7.7-1.9-10.1-5.2c-2.5-3.5-3.7-8.7-3.2-13.8c0.3-3.2,1.5-5.8,3.4-7.6c3.1-2.9,7.5-3.3,10.6-3.2c0.8,0,1.6,0.1,2.1,0.2
		c7.6,1,11.8,2.8,13.6,5.9C355.1,166.9,355.3,169.5,354.7,173L354.7,173z M399.1,186.3c-2.6,3.1-6.1,4.5-10.5,4.4
		c-3.4-0.1-14.4-1.8-15.9-17c-0.3-3.5,0.2-6,1.5-7.9c2.1-2.9,6.5-4.4,14.1-4.8c0.5,0,1.3,0,2.2,0c3,0.1,7.4,0.9,10.3,4
		c1.8,1.9,2.7,4.6,2.8,7.9C403.6,177.9,402,183,399.1,186.3z"/>
	<path class="st6" d="M146.7,487.4c14.2-7.5,27.9,2.7,27.9,2.7s29.2,19,35.8,19.9s15.5,2.2,19.9,2.7c4.4,0.4,13.7,6.6,16.8,6.6
		s17.3-0.9,21.2,0.4s13.7,3.5,15.5,8.8s0.4,23.4,0.4,23.4s-10.6,15.5-13.3,16.4c-2.7,0.9-5.3,3.5-8.4,0.4c-1.3,3.5-3.5,7.5-10.6,4.9
		c0,0-0.9,4-6.2,2.7c-0.4-0.4-3.5,6.6-18.1,4c-14.6-2.7-29.2-31.9-29.2-31.9s-33.6,0.4-41.1-4.4c-7.5-4.9-23-17.7-22.1-31.9
		C136,498,139.6,492.2,146.7,487.4z"/>
	<path class="st8" d="M313.9,584.2c0,0,0.4-42.5,24.8-42c24.3,0.4,32.7,6.6,39.4,18.1s5.8,28.3,5.8,28.3s-4.9,10.2-17.7,11.1
		C353.3,600.6,313.9,584.2,313.9,584.2z"/>
	<path class="st9" d="M338.8,542.2c-1.1,0-2.2,0.1-3.2,0.2l0.1,0.1c0,0,39.3,2.3,30.4,57.2l0,0c0.1,0,0.1,0,0.2,0
		c12.8-0.9,17.7-11.1,17.7-11.1s0.9-16.8-5.8-28.3S363.2,542.7,338.8,542.2z"/>
	<path class="st6" d="M461.6,468.3c13.3,2.4,18.1,22.6,17.7,28.3c-0.4,5.8-3.1,30.1-13.3,42.5c-10.2,12.4-23.7,24.8-44.7,28.3
		c-8.6,1.4-16.4,0.6-18.7-3.7c0-0.2-3.4,0.2-10.5-2.9c-7.1-3.1-7.1-5.3-7.1-5.3s-1.3,5.3-7.1,4.9c-5.8-0.4-4.4-7.5-4.4-7.5
		s-3.5,1.3-6.2-0.9s-3.1-5.8-3.1-5.8s-0.9,3.1-5.3,0s-4.4-3.1-4.4-3.1s-7.1,5.8-9.7-5.3c-2.7-11.1,0.4-18.1,6.6-21.7
		c6.2-3.5,18.6-4.4,18.6-4.4s8-4.9,19-0.4c11.1,4.4,8.8,8,8.8,8s5.8,2.2,11.1,7.5c5.3,5.3,6.6,11.9,6.6,11.9s9.7-8.8,12.4-25.7
		c2.7-16.8,0.4-27,7.1-33.6S454.1,467,461.6,468.3z"/>
	<path class="st6" d="M612.1,271.9c0,0,3.1,23.9,2.2,29.6c-0.9,5.8-5.8,23,4.4,38.5s16.8,18.6,16.8,18.6l-0.4,11.9
		c0,0-12.8,0.9-19,4c0,0.4,8.8,28.3,46,28.3s46-20.4,46-20.4s-15.5-5.3-19.5-5.3v-13.7c0,0,20.8-2.7,24.8-32.3
		c4-29.6,4.9-44.7-0.4-64.1c-2.2,1.8-15.9,4.4-22.1,4c-6.2-0.4-13.7-42.9-13.3-42.9s-7.1,30.5-1.8,40.7c0,0.4-24.8,2.2-24.8,2.2
		s-6.6-22.1-7.5-25.2c-0.9-3.1-5.6,17.3-4.9,20.8C639.4,270.4,612.1,274,612.1,271.9z"/>
	<path class="st6" d="M539.4,473.1c0,0-5.6,29.3-4.8,48.7c0.9,19.5-2.7,20.4,1.3,28.3s43.4,21.7,43.4,21.7L666,570l4.4-27
		c0,0,2.7-20.8-2.7-22.6c-5.3-1.8-9.7,11.9-9.7,10.2s8.4-39.8,4-42.5s-10.2,13.7-10.2,13.7s5.8-19.9,0.9-21.2
		c-4.9-1.3-14.2,27.9-14.2,27.9s5.3-29.6,0.4-29.6s-11.5,27.9-11.5,27.9s6.2-19.9,0.4-21.7c-5.8-1.8-12.8,16.4-13.3,24.8
		c-0.4,8.4-2.7,31.4-2.7,31.4l-3.5,8.4l-12.8-1.8c0,0-14.6-14.2-22.6-16.4c0-0.4,3.8-50.5,3.8-50.5S549.8,479.9,539.4,473.1z"/>
	<path class="st6" d="M742.6,549.7c0,0-13.3-18.6-11.1-26.1s6.2-4.9,6.2-4.9l8.8,9.3c0,0-4-19.9-3.1-29.2c0.9-9.3,2.7-19.5,5.8-18.6
		s4.9,12.8,4.9,12.8s1.8-22.1,7.5-21.7c5.8,0.4,4.4,18.1,4.4,18.1s4-17.7,9.3-15.5s1.8,19,3.5,26.5c-0.4-0.4,6.2-19,10.2-17.7
		s2.7,19.5,3.1,23.4c0.4,4,5.8,40.7,5.8,40.7L742.6,549.7z"/>
	<path class="st4" d="M338,140.5c6.3-1,12.9,1,13.9,3s1.7,5.3-0.3,5.3s-7.6-0.3-10.9,0s-9.3,3-10.6,1c-1.3-2-0.3-5,2-6
		C334.3,142.8,338,140.5,338,140.5z"/>
	<path class="st4" d="M386.4,144.5c3,0,8.6,1,10.3,3c1.7,2,2.7,4.6,0.3,4.6s-4.6-0.7-8.6-0.7s-9,3.3-10.6,1.3
		c-1.7-2-0.3-5.6,1.7-6.3C381.5,145.8,386.4,144.5,386.4,144.5z"/>
	<path class="st5" d="M634,277.9c5.2-1.6,11.6-2.3,13.3-0.3s2,4.6,0.7,5c-1.3,0.3-7,0.3-10,1s-7.3,5.6-9.6,4.3
		C626,286.5,630.6,278.9,634,277.9z"/>
	<path class="st5" d="M690.7,273.6c7.6,0.3,12.3,4.3,12.3,7.3s-8,0.3-10.9,0.3c-3,0-9,2-10.6,0.7c-1.7-1.3-0.7-5.6,1.3-6.3
		C684.7,274.9,690.7,273.6,690.7,273.6z"/>
	<path class="st10" d="M650.2,333.8c0.6-4,11.8,1.2,17.1,1.2s12.9-3.6,15.4-2.3c2.5,1.3,2.7,7.5-1.2,9.1c-3.8,1.7-7.1,3.5-13.1,3.2
		s-12.4-1.3-14.9-3.5S649.7,337.1,650.2,333.8z"/>
	<path class="st7" d="M286.2,159.9l31.4-2.6l-0.3,6.4l-29.6-0.6C287.8,163.1,286.4,160.2,286.2,159.9z"/>
	<ellipse class="st5" cx="341.4" cy="169.7" rx="3.9" ry="5.8"/>
	<ellipse class="st5" cx="385.1" cy="173.9" rx="3.9" ry="5.8"/>
	<path id="path1801_1_" class="st5" d="M650.4,298.2c0.1,4.1-2,7.4-4.6,7.5c-5.5,0.1-4.6-7.1-6.8-9.8c-0.3-0.4-1.5-0.5-1.9-0.7
		c-0.5-0.4-0.4-1.1,0.2-1.4c1.5-0.7,3.9-1.3,5.4-1.5C647.1,292,650.2,293.6,650.4,298.2z"/>
	<path id="path1801_2_" class="st5" d="M683.3,296.2c-0.1,4.1,1.9,7.4,4.4,7.5c5.3,0.1,4.4-7.1,6.6-9.8c0.3-0.4,1.5-0.5,1.8-0.7
		c0.5-0.4,0.3-1.1-0.2-1.4c-1.4-0.7-3.7-1.3-5.2-1.5C686.4,290,683.4,291.6,683.3,296.2z"/>
	<path class="st11" d="M318.4,583.9c1.3-9.2,3.1-18.6,8.3-26.3c1-1.5,2.2-3,3.7-4.1c3.6-2.7,8.6-2.8,12.8-1.1s7.4,5.1,9.9,8.8
		c2.6,3.9,4.5,8.2,5.5,12.8c1.8,8.1,0.9,16.6-0.2,24.8"/>
	<path class="st11" d="M322.6,590.3c0.4-6.1,1.6-12.2,3.4-18c1.3-4.1,3.1-8.3,6.6-10.8c2.6-1.9,6.1-2.5,9.2-1.7s5.9,3,7.4,5.8
		c1.1,2.2,1.5,4.8,1.8,7.3c0.9,8.2,0.6,16.5-0.7,24.6"/>
	<path class="st11" d="M328.1,593.2c-0.5-7.1,1.3-14.4,5-20.5c1.1-1.8,2.5-3.6,4.6-4.2c1.9-0.5,4,0.4,5.5,1.7c2,1.8,3.1,4.4,3.6,7.1
		c0.5,2.7,0.3,5.4,0.1,8.1c-0.3,3.9-0.9,7.9-3.2,11"/>
	<path class="st11" d="M331.7,592.4c-0.1-2.7,0-5.5,0.7-8.2s2.1-5.2,4.2-6.9c0.5-0.4,1.1-0.7,1.7-0.8c1.5-0.1,2.6,1.5,3,3
		c1.2,3.8,0.8,8-1.1,11.5c-1,1.8-2.6,3.6-4.7,3.6"/>
	<path class="st12" d="M358.3,200.2c0.7,3.3,3.6,6.3,7,6.5c3.4,0.3,6.9-2.7,6.6-6.1c-0.1-1.2-0.6-2.4-1-3.5
		c-3.2-7.9-3.8-27.2-2.8-27.3"/>
	<g>
		<path class="st13" d="M333.1,182c1.3,0,2.5-0.1,3.6-0.2c1.1-0.2,2.3-0.2,3.4-0.5c2.3-0.6,4.5-1.7,6.6-3l-0.1,0.1l0.2-0.9
			c0-0.1,0.1-0.1,0.1-0.1s0.1,0,0.1,0.1v0.9v0.1l-0.1,0.1c-1.9,1.7-3.9,3.2-6.3,4.2c-1.2,0.5-2.5,1-3.9,0.8
			C335.4,183.5,334,183,333.1,182C333,182.2,333,182.1,333.1,182C333.1,182.1,333.1,182,333.1,182z"/>
	</g>
	<g>
		<path class="st13" d="M378.1,178c0.4,0.9,1,1.8,1.7,2.5s1.4,1.3,2.3,1.8c0.8,0.5,1.8,0.6,2.6,1c0.9,0.4,1.7,0.7,2.8,1.2
			c0.1,0,0.1,0.1,0.1,0.1s0,0,0,0.1c-1,0.6-2.2,0.7-3.4,0.5c-1.2-0.2-2.1-0.9-3-1.7c-0.9-0.7-1.6-1.6-2.2-2.5c-0.5-1-0.9-2-1.1-3
			c0-0.1,0-0.1,0.1-0.1C378,178,378.1,178,378.1,178z"/>
	</g>
	<g>
		<path class="st13" d="M344.3,212.9c1.9,1.6,3.9,2.4,6,2.9c2,0.5,4.1,0.7,6.4,0.8l3.4,0.1l3.4,0.2c1.1,0,2,0,3-0.3s1.9-0.9,2.5-2
			c0.3,1.3-0.4,2.7-1.4,3.6c-1,1-2.4,1.5-3.7,1.8c-1.3,0.3-2.5,0.4-3.7,0.5s-2.4,0.1-3.6,0.1c-2.5-0.1-5.1-0.6-7.4-1.9
			C346.8,217.4,344.8,215.3,344.3,212.9z"/>
	</g>
	<path class="st12" d="M272.9,170.1c-0.8-2.3,1.3-4.9,3.7-5.2s4.8,1.2,6.2,3.1s2.1,4.4,2.8,6.7c-0.2-1.5-1.9-2.4-3.5-2.3
		c-1.5,0.1-2.9,0.9-4.2,1.7"/>
	<g>
		<path class="st13" d="M359.7,248.7c-8.9,0.7-18-0.7-26.5-3.7s-16.5-7.6-23.5-13.4c-3.5-2.9-6.7-6-9.8-9.4
			c-1.5-1.7-2.9-3.6-4.1-5.6s-2.1-4.2-2.8-6.4c-1.4-4.4-1.9-8.9-2.3-13.4c-0.3-4.5-0.2-9,0.3-13.5l0.8,0.6c-2.1,0.8-4.2,1.1-6.3,1.2
			c-2.1,0.1-4.3-0.1-6.3-0.7c2.1,0.4,4.2,0.3,6.3,0.1c2.1-0.3,4.1-0.8,5.9-1.6l0.8-0.4v0.9c-0.1,4.4,0.1,8.8,0.7,13.2
			c0.5,4.4,1.3,8.7,2.7,12.8c0.7,2,1.6,4,2.7,5.8s2.4,3.5,3.9,5.1c2.9,3.2,6.1,6.3,9.4,9.1s6.9,5.3,10.7,7.7
			c1.9,1.1,3.8,2.2,5.7,3.2c1.9,1,3.9,1.9,6,2.7C342,246.3,350.8,248.2,359.7,248.7z"/>
	</g>
	<path class="st12" d="M403.6,530.5c-3-2.2-6.3-4.5-10-4.2c-3.4,0.3-6.3,2.7-8.6,5.3c-5.8,6.6-9.7,14.9-11,23.6
		c-0.1,0.8-0.2,1.6,0,2.3c0.4,1.8,2.4,2.9,4.2,2.9c1.8,0,3.6-0.9,5.1-1.9c3.6-2.4,6.5-5.9,8.4-9.8c0.6-1.4,1.2-2.8,2.1-4
		s2.6-1.9,4-1.5c2.2,0.7,2.6,3.7,2.6,6c0,2.8-0.1,5.6-0.1,8.4c0,2,0.5,4.5,2.4,4.8"/>
	<path class="st12" d="M396.2,519.2c-4.2-3.7-10.6-4.1-15.7-1.9c-5.1,2.2-8.9,6.7-11.3,11.8c-2.4,5-3.5,10.6-4.3,16.1
		c-0.2,1.1-0.3,2.3-0.1,3.4c0.3,1.1,1.1,2.2,2.3,2.3c0.8,0.1,2.2,0.2,2,1"/>
	<path class="st12" d="M357.1,546.1c-3.6-3.3-4.2-8.9-2.7-13.5s4.6-8.5,7.7-12.3c1-1.2,2-2.4,3-3.6c1.7-2,3.4-4.1,5.6-5.3
		c4.1-2.3,9.1-1.6,13.8-0.9"/>
	<path class="st12" d="M243.6,541.1c2,5.4,5.4,10.1,8.7,14.8c3.8,5.4,7.9,11,14,13.7"/>
	<path class="st12" d="M228.2,550.3c3,7.6,8.7,13.9,15.2,18.9c3.3,2.6,7.1,5,11.4,5.3"/>
	<path class="st12" d="M218.4,560c3.9,6.5,8.2,13.3,15,16.7c3.6,1.8,7.9,2.5,11.8,1.3"/>
	<g>
		<path class="st13" d="M629.8,496.5l-0.5,8.6c-0.2,2.9-0.4,5.7-0.6,8.5c-0.1,2.8,0,5.7-0.2,8.5c-0.1,2.8-0.2,5.6-0.3,8.5
			c0,0.1-0.1,0.1-0.1,0.1s-0.1,0-0.1-0.1c-0.9-2.8-1.3-5.7-1.5-8.6c-0.2-2.9,0.3-5.8,0.6-8.6c0.3-2.9,0.7-5.7,1.2-8.5l1.3-8.5
			c0-0.1,0.1-0.1,0.1-0.1C629.7,496.4,629.8,496.5,629.8,496.5z"/>
	</g>
	<g>
		<path class="st13" d="M639.6,504.6C639.7,504.6,639.6,504.6,639.6,504.6v0.3l-0.1,0.4l-0.2,0.8c-0.1,0.5-0.2,1-0.3,1.5
			c-0.2,1-0.3,2-0.4,3.1c-0.3,2-0.5,4.1-0.6,6.2s0,4.1-0.2,6.1l-0.5,6.2c0,0.1-0.1,0.1-0.1,0.1s-0.1,0-0.1-0.1
			c-0.9-2-1.2-4.1-1.3-6.2c-0.1-2.1,0.3-4.2,0.6-6.3s0.7-4.1,1.2-6.2c0.3-1,0.5-2,0.8-3c0.1-0.5,0.3-1,0.5-1.5l0.3-0.7l0.2-0.4
			L639.6,504.6C639.5,504.7,639.5,504.6,639.6,504.6c0,0,0-0.1,0.2-0.1c0.1,0,0.1,0.1,0.1,0.1C639.7,504.6,639.6,504.6,639.6,504.6z
			"/>
	</g>
	<g>
		<path class="st13" d="M652.9,500.2c-0.7,2.4-1.2,4.9-1.7,7.3c-0.5,2.5-0.9,4.9-1.2,7.4c-0.4,2.5-0.5,5-1,7.4
			c-0.2,1.2-0.5,2.5-0.7,3.7l-0.4,1.8l-0.2,0.9l-0.1,0.5v0.2v0.1c0,0,0,0.1-0.1,0c0.1,0,0.1,0,0.1,0.1s0,0.1-0.1,0.1
			c-0.2,0-0.2-0.1-0.2-0.2v-0.1l-0.1-0.2l-0.1-0.5c-0.1-0.3-0.1-0.6-0.1-1c0-0.6-0.1-1.3-0.1-1.9c0-1.3,0.1-2.5,0.2-3.8
			c0.2-2.5,0.8-5,1.4-7.5c0.5-2.5,1.1-4.9,1.8-7.4c0.7-2.4,1.5-4.8,2.4-7.2c0-0.1,0.1-0.1,0.1-0.1
			C652.9,500.1,652.9,500.2,652.9,500.2z"/>
	</g>
	<path class="st12" d="M658.3,533.2c-1.3,4.8-1.8,6.5-2.2,11.4"/>
	<path class="st12" d="M746.7,527.1c1.7,5.1,4.5,9.8,8.2,13.7"/>
	<g>
		<path class="st13" d="M754.2,492.8c-0.1,2.6-0.1,5.1,0.1,7.6c0.2,2.5,0.6,5,1.2,7.5c0.6,2.5,1.5,4.8,2,7.3c0.6,2.5,1.1,5,1.3,7.6
			c0,0.1,0,0.1-0.1,0.1c0,0-0.1,0-0.1-0.1c-1.2-2.3-2.2-4.7-3-7.1c-0.8-2.4-1.3-5-1.7-7.6s-0.7-5.2-0.7-7.8c0-2.6,0.2-5.2,0.7-7.7
			c0-0.1,0.1-0.1,0.1-0.1C754.1,492.7,754.2,492.8,754.2,492.8z"/>
	</g>
	<g>
		<path class="st13" d="M766.2,488.9c-0.5,5.7-0.5,11.4,0.3,17c0.4,2.8,1.1,5.6,1.5,8.3c0.5,2.8,1,5.6,1.3,8.5c0,0.1,0,0.1-0.1,0.1
			c0,0-0.1,0-0.1-0.1c-1.4-2.6-2.3-5.3-3.1-8.1s-1-5.7-1.2-8.6s-0.2-5.8,0-8.7c0.2-2.9,0.6-5.7,1.1-8.6c0-0.1,0.1-0.1,0.1-0.1
			C766.2,488.8,766.2,488.8,766.2,488.9z"/>
	</g>
	<g>
		<path class="st13" d="M778.9,500.3c0,2,0.1,4,0.2,6c0.2,2,0.4,4,0.7,6s0.8,3.9,0.9,6c0.1,1,0.1,2,0.2,3c0,0.5,0,1,0,1.5v0.8v0.4
			v0.2v0.1l0,0c0,0,0.1,0-0.1,0c0.1,0,0.1,0,0.1,0.1s0,0.1-0.1,0.1c-0.2,0-0.1-0.1-0.2-0.1l0,0l-0.1-0.1l-0.1-0.2l-0.2-0.4
			c-0.1-0.2-0.2-0.5-0.3-0.7c-0.2-0.5-0.4-1-0.5-1.5c-0.3-1-0.5-2-0.7-3c-0.4-2-0.4-4-0.5-6.1c-0.1-2-0.1-4.1-0.1-6.1
			c0.1-2,0.2-4.1,0.6-6.1c0-0.1,0.1-0.1,0.1-0.1C778.9,500.2,778.9,500.2,778.9,500.3z"/>
	</g>
	<path class="st12" d="M620.3,532.9c10-3.8,21.2-5.2,31.2-1.7c2.3,0.8,4.6,1.9,7,2"/>
	<path class="st12" d="M751,525.8c9.5-4.5,20.9-4.9,30.7-1c2.5,1,4.9,2.3,7.5,2.7"/>
	<path class="st12" d="M672,288.1c-2,2-3,5-3,7.8c0.1,2.9,1.1,5.7,2.8,8c1.5,2.2,3.6,4.2,4.7,6.7c0.9,2.2,0.9,4.9-0.4,6.9
		c-1.4,2.1-4.1,3-6.6,3.1c-1.2,0-2.6-0.2-3.5-0.9c-1-0.7-1.5-1.9-2.1-3.6"/>
	<path class="st14" d="M267.6,249.1c-0.7,4.7,0.2,7.4,1.1,12c4.7,24.1,16.8,46.8,34.1,64.2c3.7-13.3,10.2-26.9,20-36.6"/>
	<path class="st14" d="M367.2,263.3c2.4,9.8,1.7,20.2-0.6,30.1c-2.3,9.9-6.1,19.3-9.9,28.7c-6.8-12.5-22.1-25-33.6-33.4"/>
	<path class="st14" d="M334,297.6c-3.1,29.5,2.3,68.3,3.8,97.9c0.6,12.7,2.1,25.4,3.1,38c2.3,29.9-2.4,106.6-1.9,106.8"/>
	<path class="st14" d="M173.2,321.3c7.2,7.2,13.6,15.2,20.1,23.1c2.7,3.3,5.4,6.7,7.6,10.4c1.4,2.4,2.5,4.9,3.7,7.5
		c2,4.6,4,9.3,5.5,14.1c4.9,15.8,4.6,33.9-4.4,47.8"/>
	<g>
		<path class="st15" d="M132.7,475.8c7.1-0.9,13.7-3.6,20.4-6.1c3.4-1.2,6.8-2.3,10.3-3.1c0.9-0.2,1.8-0.3,2.7-0.5
			c1.1-0.2,2,0,2.9,0.1c1.8,0.3,3.6,0.7,5.3,1.2c0.9,0.3,1.7,0.5,2.7,1c0.3,0.2,0.4,0.3,0.6,0.4l0.5,0.4l1.1,0.8
			c1.5,1,2.9,2.1,4.4,3.2c2.9,2.2,5.6,4.7,7.7,7.8c2,3.1,3.4,6.7,3.8,10.3c0.1,0.5,0.1,0.9,0.2,1.4l0.1,1.4l0.1,1.4v1.4
			c0,1.8-0.3,3.6-0.6,5.4c0,0.1-0.1,0.1-0.1,0.1s-0.1,0-0.1-0.1l0,0c0-1.8,0-3.6-0.2-5.3l-0.1-1.3l-0.2-1.3l-0.2-1.3
			c-0.1-0.4-0.2-0.9-0.3-1.3c-0.8-3.4-2.1-6.6-4.1-9.4c-0.5-0.7-1-1.4-1.6-2s-1.1-1.3-1.8-1.9c-1.2-1.2-2.5-2.4-3.9-3.5
			s-2.8-2.2-4.2-3.3l-1.1-0.8l-0.5-0.4c-0.2-0.1-0.4-0.3-0.5-0.4c-0.6-0.4-1.5-0.7-2.3-0.9c-1.7-0.5-3.4-1-5.1-1.3
			c-0.8-0.1-1.7-0.3-2.4-0.2c-0.9,0.1-1.7,0.2-2.6,0.4c-3.5,0.7-6.9,1.7-10.2,2.8c-6.8,2.2-13.6,4.7-20.7,5.3c-0.1,0-0.1,0-0.1-0.1
			C132.6,475.9,132.7,475.8,132.7,475.8z"/>
	</g>
	<g>
		<path class="st15" d="M121.1,497.9c1.7-3.2,4.1-6,6.9-8.3s6.1-4.1,9.6-5.3c3.5-1.2,7.1-2,10.8-1.9s7.3,0.7,10.7,2
			c0.1,0,0.1,0.1,0.1,0.1l-0.1,0.1c-3.6-0.2-7.1-0.4-10.6-0.2c-3.5,0.2-7,0.5-10.4,1.4c-3.4,1-6.6,2.5-9.5,4.5
			c-2.9,2-5.4,4.6-7.4,7.6C121.2,497.9,121.1,498,121.1,497.9C121.1,498,121.1,498,121.1,497.9z"/>
	</g>
	<g>
		<path class="st15" d="M426.9,469c2.6-4.3,5.6-8.5,9.3-12c1.8-1.8,3.9-3.4,6.1-4.8s4.6-2.5,7.1-3.3s5.2-1.3,7.8-1.3
			c2.7,0,5.3,0.3,7.8,0.9s4.9,1.5,7.3,2.5l1.7,0.8c0.3,0.1,0.6,0.3,0.9,0.5l0.8,0.5c1.1,0.7,2.1,1.4,3.2,2l0,0c0,0,0.1,0.1,0,0.1
			c0,0-0.1,0.1-0.1,0c-1.2-0.5-2.3-1.1-3.4-1.6c-1.1-0.6-2.3-1-3.5-1.4c-2.4-0.8-4.8-1.5-7.2-2c-4.9-1-10-0.8-14.7,0.8
			c-4.7,1.5-9.1,4.2-12.8,7.4C433.4,461.3,430.1,465.1,426.9,469C427,469,426.9,469.1,426.9,469C426.9,469.1,426.8,469.1,426.9,469
			L426.9,469z"/>
	</g>
	<g>
		<path class="st15" d="M462.2,468.3c3.3,0.8,6.5,2.1,9.4,3.9s5.6,3.9,8,6.4s4.6,5.2,6,8.4c1.5,3.1,2.4,6.5,2.5,10
			c0,0.1,0,0.1-0.1,0.1c0,0-0.1,0-0.1-0.1c-1.2-3.2-2.5-6.2-4.1-9.1s-3.3-5.7-5.4-8.2s-4.6-4.8-7.4-6.6c-2.7-1.9-5.7-3.4-8.9-4.5
			c-0.1,0-0.1-0.1-0.1-0.1C462.1,468.4,462.2,468.3,462.2,468.3z"/>
	</g>
	<path class="st16" d="M541.1,466.3c7.4,2.8,15,5.6,22.9,6.5c6,0.6,12,0.1,18-0.4"/>
	<path class="st16" d="M556.3,462.1c7.6,3.5,16,5.4,24.4,5.6"/>
	<path class="st16" d="M744.3,471.2c3.9-7.4,8.5-14.4,13.7-20.9"/>
	<path class="st16" d="M746.1,474.6c4.4-3.9,9.3-7.3,14.5-10.1"/>
	<path class="st16" d="M507.3,468.1"/>
	<path class="st14" d="M437.5,323.9c-18.5,19.3-31.2,44.1-36,70.4c-1.3,7.2-1.9,15.2,2.4,21.1"/>
	<path class="st14" d="M210,422.5c4.1-2,6.9-6,9.1-10.1c4.8-9.3,7.2-19.8,6.9-30.3"/>
	<path class="st14" d="M417.4,371.9c-3.5,2.9-5.4,7.2-7.2,11.4c-4.2,10.1-8.5,20.5-8.7,31.4"/>
	<path class="st14" d="M261.2,472.8c17.6,0.9,35.5,1.7,52.4-3.2"/>
	<path class="st14" d="M290,483.4c9.3-0.9,18.5-2.7,27.4-5.3"/>
	<path class="st14" d="M350.6,476.7c9.9,2,20.2,2,30.1,0"/>
	<ellipse class="st17" cx="324.5" cy="305.8" rx="4.4" ry="4.6"/>
	<ellipse class="st17" cx="326" cy="355.7" rx="4.4" ry="4.6"/>
	<ellipse class="st17" cx="330.7" cy="404.2" rx="4.4" ry="4.6"/>
	<ellipse class="st17" cx="333.3" cy="453.5" rx="4.4" ry="4.6"/>
	<ellipse class="st17" cx="332" cy="506.6" rx="4.4" ry="4.6"/>
	<path class="st18" d="M612.1,389.6c4.2,7.5,11.8,12.6,19.7,16c24.7,10.5,54.1,5.9,77.3-7.6c0.2-0.1,0.3-0.2,0.5-0.3"/>
	<path class="st18" d="M643.9,474.4c22.7-2,45.6-0.5,67.8,4.4"/>
	<path class="st18" d="M667.1,481.9c9,1.3,17.9,2.6,26.9,4"/>
	<g>
		<path class="st13" d="M627.6,351.7c2.2,2.3,4.7,4.3,7.3,6.1c2.6,1.8,5.3,3.5,8.1,5c1.4,0.7,2.9,1.4,4.4,1.9s3.1,0.8,4.6,1.1
			c3.1,0.6,6.3,0.8,9.5,0.9c6.3,0.1,12.7-0.5,18.9-1.6c6.2-1.2,12.4-3,18.1-5.8h0.1v0.1l0,0c-0.7,0.4-1.4,0.9-2,1.3
			c-0.7,0.4-1.4,0.8-2.1,1.1c-1.4,0.7-2.9,1.4-4.4,2s-3,1.1-4.6,1.6c-1.5,0.5-3.1,0.9-4.7,1.2c-6.3,1.4-12.8,2.2-19.3,2
			c-3.3-0.1-6.5-0.4-9.7-1.1c-1.6-0.4-3.2-0.7-4.8-1.3c-1.6-0.6-3.1-1.3-4.5-2.1c-2.8-1.6-5.5-3.4-8-5.5s-4.9-4.2-6.9-6.8l0,0
			L627.6,351.7C627.5,351.7,627.6,351.7,627.6,351.7z"/>
	</g>
</g>
<g id="Layer_5">
	
		<linearGradient id="SVGID_1_" gradientUnits="userSpaceOnUse" x1="328.676" y1="162.9203" x2="274.7038" y2="222.4225" gradientTransform="matrix(1 0 0 -1 0 768)">
		<stop  offset="0" style="stop-color:#FFFFFF"/>
		<stop  offset="0.8503" style="stop-color:#9B9B9B"/>
	</linearGradient>
	<path class="st19" d="M256.7,530l125.1,88.3c0,0-67,12.6-111.2-31.9c-4.3-9.3,5-14.6,1.3-26.5c-3.6-11.9-6-10.6-9.3-17.3
		C259.4,536,256.7,530,256.7,530z"/>
	<path class="st20" d="M605.9,590.4c0,0,11.5,4.9,14.2,11.5s-2.2,15.5,6.6,23s39.4,8,50.4,15.5c32.7,13.7,9.7,31.9,27,36.7
		c17.3,4.9,39.8-0.4,62.4,4.4c22.6,4.9,19,21.7,47.3,26.5c28.3,4.9,59.7,1.3,64.1-11.1s-4.9-14.2-3.1-27.4s11.5-1.8,10.6-16.4
		c-0.9-14.6-15.9-8.4-26.5-19.5s-0.4-16.4-20.8-26.5c-20.4-10.2-22.6-3.1-33.2-10.2c-10.6-7.1-12.8-17.7-12.8-17.7L605.9,590.4z"/>
	<path class="st21" d="M270.8,579.4c34.5,34.7,82.9,34.6,102.4,32.9L262,533.8c0.3,0.6,0.6,1.2,0.9,1.8c3.3,6.6,5.6,5.3,9.3,17.3
		c1.2,3.8,1,6.9,0.4,9.8c1,6.1-1.3,10.4-2.5,14.7C270.2,577.9,270.5,578.6,270.8,579.4z"/>
	<path class="st22" d="M580.1,571.7c-1.2-22.2,14.4-28.1,14.4-28.1l208.4-5c0,0,15.6,5,16.6,23.9S808.9,588,808.9,588l-215.3,10.6
		C593.5,598.7,581.5,598,580.1,571.7z"/>
	<ellipse class="st23" cx="592.8" cy="571.5" rx="13.2" ry="25.5"/>
	<path class="st24" d="M602.9,549.3c0,0,4.8,6.1,5,12.4l207.2-7c0,0-4.8-10.6-9.5-11.8C801,541.8,602.9,549.3,602.9,549.3z"/>
	<ellipse class="st25" cx="483.1" cy="596.5" rx="38.5" ry="33.1"/>
	<path class="st26" d="M478.8,562.2c0,0,6-13.1,15.6-12.8c-5.1,6.8-4.8,9.8-4.6,11.6c2.8-0.5,20.4-4.1,24.4,3
		c-9.8,0-18.7,2.7-21.1,4.3c3.2,3,8.6,7.1,7.8,14.9c-7.6-6.1-12.6-10.5-16.6-11.6c-4-1.2-17.1,14.4-17.8,18.9s0.8-18.7,5.1-20.1
		c-2.3-4.6-10.8-9.6-14.9-10.1C461.1,558.4,472.5,555.9,478.8,562.2z"/>
	<path class="st8" d="M315.6,613.4c0,0,4.4-25.7-15.9-38.5s-19.9,3.1-19.9,3.1s-21.7-7.1-22.6,12.4c-9.7,5.8-6.2,14.2,2.2,23.9
		c-0.4-0.4,54.9,6.2,54.9,6.2s-0.9-4.4-3.5-6.6C308.1,611.7,315.6,613.4,315.6,613.4z"/>
	<path class="st27" d="M159.5,578c0,0-16.4-11.1-31,1.3c-14.6,12.4-11.1,31.9-7.5,40.3s12.4,31.4,19.9,34.9s10.6-3.5,10.6-3.5
		s0.9,4,8,4s8.8-6.6,8.8-6.6s0.4,4.9,7.1,4.4s11.5-9.3,13.7-19.9s11.1-32.3,1.3-47.8C180.7,569.6,159.5,578,159.5,578z"/>
	<path class="st28" d="M155.9,584.7c-2.2,1.5-6.2-13.7-0.9-21.2s11.9-13.7,18.6-11.9c6.6,1.8,8.8,10.2,8.8,10.2s-15.5-3.1-16.8,4.4
		s2.7,15,2.7,15s-6.2,0.9-6.2,6.2C162.1,587.3,158.6,583.8,155.9,584.7z"/>
	<path class="st11" d="M283.6,579.3c1.1-2.9,4.7-4.2,7.7-3.5c3,0.6,5.5,2.7,7.8,4.8c4.3,4,8.1,8.6,10.7,13.9s3.7,11.4,2.7,17.1"/>
	<path class="st11" d="M289.2,582.8c0.3-0.6,1.1-0.9,1.8-0.8c0.7,0.1,1.3,0.4,1.9,0.8c6,3.5,10.9,9.6,11.3,16.6c0,0.3,0,0.8-0.4,0.8
		"/>
	<path class="st11" d="M260.2,590.1c0.8-2.1,1.8-4,3-5.9c0.9-1.3,1.9-2.6,3.3-3.5c1.2-0.7,2.5-1,3.9-1.1c3.9-0.3,7.8,1.1,11.3,2.8
		c4.8,2.3,9.3,5.3,12.9,9.2s6.3,8.8,7.1,14"/>
	<path class="st11" d="M265,590.1c1.1-3.3,4.9-5.2,8.4-5.2c3.5,0.1,6.8,1.7,9.8,3.5c4.8,3,9.6,7.2,10.2,12.8
		c0.2-0.2,0.4-0.5,0.3-0.8"/>
	<path class="st11" d="M273.1,589.8c2.5-0.6,5,0.4,7.2,1.7c1.3,0.8,2.6,1.9,3.7,3"/>
	<path class="st8" d="M257.3,590.4c0.3,0,13.7-5,26.4,0.7c12.7,5.6,14,7,21.9,16.6C313.4,617.3,257.3,590.4,257.3,590.4z"/>
	<path class="st11" d="M261.5,614.1c-2-2.9-4.1-6-4.6-9.5s0.9-7.6,4.2-8.9c0.6-0.2,1.3-0.4,1.9-0.5c9.1-1.7,18.9-0.1,26.9,4.5
		c8.1,4.6,14.4,12.2,17.5,20.9"/>
	<path class="st11" d="M266.7,614.9c-1.8-3.4-2.8-7.1-3.1-11c0-0.7-0.1-1.4,0.2-2c0.6-1.2,2.1-1.7,3.4-1.8c6.3-0.8,12.7,1.1,18,4.5
		s9.6,8.3,13,13.6"/>
	<path class="st11" d="M272.1,615.7c-0.9-1.6-1.9-3.3-2.1-5.1c-0.3-1.8,0.2-3.9,1.7-5c1.8-1.3,4.3-0.9,6.4,0
		c5.1,2.1,9.2,6.4,11.1,11.6"/>
	<path class="st11" d="M276.5,616.4c-1-0.5-1.3-1.7-1.5-2.8c-0.1-1.1-0.1-2.2,0.6-3c0.9-1,2.5-1,3.6-0.3s1.8,1.9,2.4,3
		c0.5,0.9,1,1.9,1.9,2.3"/>
	<path class="st29" d="M153.3,586.6c4.7,0.3,7.6,2.8,9.3,8.6s3.8,33.5,3.2,36.3s0.5,19.6-5.1,19.4c-5.6-0.2-9.5-3.6-10.8-10.6
		s-10-36.3-8.1-41.3C143.6,594.1,145.5,586.1,153.3,586.6z"/>
	<path class="st29" d="M151.2,583.3c-0.3-0.5-1-6.5-1-6.5s-10-2.5-15.3,1.7c-5.3,4.1-13.3,11.9-14.1,22.9s15.6,45.6,17.6,47.3
		s4.1,4.3,7,3.5c2.8-0.8,4.3-2.5,4.1-5s-9.8-31.4-10-34.8c-0.2-3.5-2.7-15.4,0.7-20.1C143.6,587.6,151.2,583.3,151.2,583.3z"/>
	<path class="st29" d="M164.8,591.6c0-0.7-2.8-8.8,10.6-11.3s16.3,14.4,16.4,17.3c0.2,2.8-4.5,35-8,42.1s-7.1,11.6-9.8,10.3
		s-6.1-2.1-4.6-5.6C170.9,641,167.6,592.4,164.8,591.6z"/>
	
		<ellipse transform="matrix(0.1602 -0.9871 0.9871 0.1602 -161.5928 1002.0704)" class="st30" cx="508.1" cy="596" rx="8.7" ry="8.7"/>
</g>
</svg>
