<?xml version="1.0" encoding="utf-8"?>
<!-- Generator: Adobe Illustrator 25.3.1, SVG Export Plug-In . SVG Version: 6.00 Build 0)  -->
<svg version="1.1" id="Layer_1" xmlns="http://www.w3.org/2000/svg" xmlns:xlink="http://www.w3.org/1999/xlink" x="0px" y="0px"
	 viewBox="0 0 609.5 768" style="enable-background:new 0 0 609.5 768;" xml:space="preserve">
<style type="text/css">
	.st0{fill:#AFC7D7;}
	.st1{fill:#481F58;}
	.st2{fill:#2A1435;}
	.st3{fill:#515CA0;}
	.st4{fill:#6E439D;}
	.st5{fill:#6FB1ED;}
	.st6{fill:#E5D0CF;}
	.st7{fill:#FFE3E0;}
	.st8{fill:#EA8FC3;}
	.st9{fill:#96C7F6;}
	.st10{fill:#422645;}
	.st11{fill:#673636;}
	.st12{fill:#803D3D;}
	.st13{fill:#F29542;}
	.st14{fill:#6B4C33;}
	.st15{fill:#FFFFFF;}
	.st16{fill:none;stroke:#522727;stroke-linecap:round;stroke-miterlimit:10;}
	.st17{fill:#522727;}
	.st18{fill:none;stroke:#351A1A;stroke-linecap:round;stroke-miterlimit:10;}
	.st19{fill:none;stroke:#6E439D;stroke-linecap:round;stroke-miterlimit:10;}
	.st20{fill:none;stroke:#481F58;stroke-linecap:round;stroke-miterlimit:10;}
	.st21{fill:none;stroke:#515CA0;stroke-linecap:round;stroke-miterlimit:10;}
	.st22{fill:none;stroke:#CC7C3A;stroke-linecap:round;stroke-miterlimit:10;}
</style>
<g id="Layer_4">
	<path class="st0" d="M60.3,661.2h-0.7c0.5,0.4,1.1,4.2,2.2,7.8c1,3.6,2.3,7.1,2.9,8.3c-3-8.1-3.5-12.6-3.7-16.9
		c-0.1-2.2-0.1-4.4,0.2-7.4c0.1-1.5,0.4-3.2,0.9-5.1c0.4-1.9,1.1-4.1,2-6.6c-2.3,7.6-2.7,13.6-1,20.9c0.3,2.8,0.4,3.9,0.3,4.2
		c0.8,2.1,1.5,2.6,2.9,6.3v1.3c1.5,5.5,2.7,7.6,4,9.8c0.6,1.1,1.3,2.1,2.1,3.4c0.8,1.3,1.7,3,3.3,5.2c0.4,1.2-1.4-0.2-3.3-3.2
		c-1.9-2.9-3.6-7.2-4.9-10.1c0.4,2.6-0.5,0.1-1.4-2.2c-0.9-2.4-1.8-4.8-1.5-1.5l1.5,2.8c1.1,3.2,0.5,3.1-0.2,1.1
		c1.6,4.1,1.1,3.2,2.1,4.6c1.5,4.1,2.6,6.2,2.9,7.1c0.4,0.9,0.1,0.8-0.1,0.7c-0.3-0.1-0.6-0.2-0.2,0.7c0.2,0.5,0.5,1.2,1.2,2.3
		s1.7,2.6,3.5,4.3c-0.9-0.6-2.3-2-3.2-3.2c-1-1.2-1.6-2-1.5-1.3c-1.8-3.1-3.1-6.2-4.2-9.3l-0.7,0.2c2,5.7,4.9,10.7,8.4,13.5
		c3.5,2.9,6.7,3.5,9.3,3.7c-2.5-0.6-3.7-1.3-4.3-1.7c-0.6-0.4-0.5-0.5-0.3-0.6c0.5-0.2,1.4,0-0.8-1.8c1.9,0.9,3.4,1.8,4.4,2.5
		c0.4,0,1.7,0.4,2.9,0.6c1.2,0.2,2.2,0.2,2-0.1c0.4,0.6,2,1.3,4.1,1.8c2,0.5,4.5,0.8,6.7,1.2c4.5,0.6,8.2,0.9,6,2
		c2.8,0.2,8.4-0.1,14.8-1.1c6.4-0.9,13.5-2.2,19.3-3l-3.1,1c12.2,0,10.6-2.8,17.6-4.2c-6.1,1.4,5.5,0.2,7.9,0.6
		c5.4-1,9.9-2.4,17.5-1.9c1.5,0.9,1.6,2.1,6.3,2.7c1.1-0.1,2.2-0.3,3.3-0.3c4.8,0.6,11.2,1.3,14.2,2.5l-0.7-0.1
		c5.2,1.6,5.7,0.5,1.6-0.6l5.2,0.7l0.1,0.3c6.8,1.1,13.4,1.6,24.1,4.4c-3,0,7.8,3.7-2,1.3c2.9,0.4-1.4-1.2-1.8-1.7
		c-3.5-1.2-6.8-1.2-8.4-1.5c1,0.8-0.2,1.5-2.2,1.6c3.6,0.3,10.2,2.1,16.1,3.6c6,1.5,11.4,2.7,12.5,1.8c4.3,1.2,9.4,2.3,14.7,3.2
		c5.3,0.8,10.8,1.6,15.8,2.5c-0.4-0.1-1.2-0.4-1-0.5l8.7,1.7h-2.1l5.8,1.2c0.6,0.4-1.7,0.5-4.2,0.4c-1.4,0-2.6-0.4-1.3-0.4
		c-6.4,0.2,5.2,0.8,1,1.2c-1.5-0.3-3.6-0.3-4.7-0.4c7.2,1.2,10.6,0.1,15,1.4c1.8-0.3,4.4-0.6,7.4-0.7c3-0.1,6.4-0.3,9.7,0
		c-2.6,0.5,7.1-0.2,3.8,0.8c2.6-0.5,8.4-0.2,9.4-0.9c-0.9,0.3-3.8,0.4-5.7,0.3c2.7-0.4,3.1-1,6.3-1c0.4,0.1,0.2,0.2,0.2,0.2
		c4.3-0.8,1.5-2,9-2.6c19.7-2.1-2.8,2.4,0,2.5c0.7-0.5,9.4-1.6,13.3-1.5l-0.9,0.3c2-0.4,4.9-1.1,7.1-0.8c1.2-0.9,3.5-1.9,4.9-2.6
		l8.8-1.1l-1.8,0.6c2-0.4,3.8-0.6,5.5-0.9c0.8,0.5-1.8,0.6-4.5,1.2c1.4,0.4,3.2,0.1,5.3-0.7l-1.1,0.1c2.3-0.6,10.5-2.4,3.9-1.9
		c4.9-1.1,6.4-0.1,9.8-0.8c0.4,0.5-2.7,1-1,1.1c3.3-0.3,5.4-0.5,8.1-1c-2.6,0.1,0.7-0.5-3.4-0.4c1.6-0.4,5.7-1,5.5-1.2
		c-1.3,0.3-2.2,0.6-4.6,0.5c4.4-0.7,9-1.3,13.5-1.4c-0.2,0.1-0.6,0.3-1.1,0.5c5.8-1.4,14.6-2.1,18.5-3.3l-1.7-0.1
		c-1.4,0.4-4.3,0.6-5.4,0.5c4.4-0.7-3.1-0.6,1.5-1.5c6.4-1,12.1-0.2,15.6-1.6c-6.1,0.3-14.3,0.2-16.8,1c1.3-0.1,2.6-0.2,3.9-0.3
		c-3,0.7-6,1.4-9,2.2c-0.3-0.5-7.9,1-7.8,0.3c3.1-0.5,5.9-0.7,8.3-1c-0.6-0.3-8.3,0.6-11.5,0.9l4.1-0.2c-7.3,1.5-16.6,2.3-23.7,3.6
		c5.6-1.3-7.1,0.3-2.6-0.9c1.8-0.6,4.8-0.3,3.9-0.4c0.5-0.8-4.3,0.4-5.8,0c-0.7,0.6-8,1.6-3.7,1.7c-2.4-0.1-7.5,1.3-10.7,1.1
		c1,0.7-6,1.2-7.2,1.7c-1.4,0.1-2.6,0.1-3.6,0c3-0.6,6.6-1.3,10.4-2.1l0,0c1.5,0,4.3-0.3,3.5-0.4l0.1-0.3c5.7-1.2,11.4-2.5,15.5-3.4
		c0.6-0.1,1.3-0.1,1.9-0.2l-0.4,0.1c0.2-0.1,0.4-0.1,0.6-0.2c33-3.9,66-7.5,98.4-3.8c-2.1-0.1-5.6-0.6-7.1-0.3l0.2-0.1h-3.3
		c2.8,0.2,8.3,0.7,10.7,0.5c2.3,0.3,4.5,0.6,6.8,0.9l-5.6-1.2l0,0l0,0l-6.7-1.4c4.5-0.2,8.7-0.4,14,0.4c-1.7,0.2-0.1,0.4,0.3,0.6
		c3.5-0.2,7.7-0.1,9.8-0.5l5.5,0.1c-0.1,0.4-2.3,1.4-8,1.2c9.9,0.3,18.7-0.2,27.5-0.8c4.4-0.4,8.8-0.6,13.4-1
		c2.3-0.3,4.7-0.7,7.1-1.7c2.4-0.9,4.9-2.7,6.9-5.2c0.4-0.4-0.1,0.4-0.5,1c-0.5,0.6-0.9,1.1-0.2,0.4c1.1-1.4,2.3-3.4,2.9-5.3
		c0.4-1.3,0.6-2.4,0.6-2.9c0.1,0.4,0.1,1-0.3,2.2c1-3,1-6,0.3-8.3c-0.7-2.6-2-4.5-3.3-6.2c-2.5-3.1-5-5.3-8-6.9
		c-0.1-0.3,1.1,0.3,2.2,1c1.1,0.7,2,1.5,1.7,1.2c-4.2-3.6-8.1-5.1-11.8-6.3c-3.8-1.1-7.6-1.9-12.6-3.1c3.4,0.1-2-1.3-4.6-2.3
		c-8.3-1.4-25.7-4.9-38.3-6.7c1.8-0.6-1.7-1.2-5.7-1.9s-8.6-1.4-9-2.2c-2.8-0.5-7.2-0.9-7.6-0.4c1.6,0,5.3,1,4.7,1.3
		c-4.1-0.6-10.3-1.5-11-0.9l-4.9-1.5c-0.3,0.3-1.1,0.6-2.5,0.7c-1.1-0.2-2.2-0.3-3.3-0.5c-1.9-0.7-2-0.6-2.2-0.3
		c-1.2-0.2-2.4-0.4-3.6-0.6c1.4-0.2,2.6-0.3,3.2-0.6c-4.3-0.8-3.7-0.4-6.8-0.7c-0.9-0.6,3.2-0.7,6.5-0.5l-5.4-1.3
		c-5.4,0.1-14.8-0.1-23.3-1.8c1.5-0.3,4.2,0.1,2.1-0.9c-3.7-0.4-8.7-0.2-13.5-1.5c0.7,0.1,0.3-0.1,0.9-0.1c-8.6-0.6-6.4-1.3-14-2.7
		c0.1-0.1,0.2-0.2,0.4-0.2l-4.8-0.3c-10-0.5-10.8-2.9-16.5-4.6l1.3,0.1c-1.7-0.8-5.6-1.6-9.4-2.3c-3.8-0.8-7.6-1.5-9.2-2.1
		c4,1.5,1.3,0.8,4.1,2.4c3.7,0.6,2.8-0.7,8.8,0.9c-1,0.7-8.7-0.7-10.4-0.3c-3.4-0.7-5.4-2.6-5.6-3.2c-8.5-1.9-13.1-3.6-23.5-6.1
		c-3.8-0.4-7.1,0.7-15.4-2.8l0.5-0.2c-0.4,0.5-4.2-1.2-6-1.2c2.8,1.7-3.8-0.3-0.4,1.4c-5.1-1.2-5.7-2.6-6-3.5c-3.9,0.4-9.9-3-18-3.6
		c1.5-0.4,10.1,1.2,6.7-0.1c-3.5-0.2-6.9-0.3-10.4-0.3l4.5,0.7c-7.8-0.3-9.9-1.6-14.3-2.5c-0.4-0.2,0.1-0.3,1-0.3s2.2,0.2,3.3,0.3
		c-2.4-0.4-6.3-0.5-9.4-0.5c-2.4,0.2-10.7,0.6-14.1,1.5c-0.4,0-0.9,0-1.3,0c0.1-0.1,0.3-0.2,0.6-0.2c-0.7,0-1.2,0.1-1.7,0.2
		c-1.4,0.1-2.8,0.1-4.2,0.2l0.8-0.3c-0.6,0.1-1.1,0.2-1.6,0.3c-1.4,0-2.9,0.2-4.3,0.4l-2.2,0.7l1.1-0.1c-0.2,0.5-1.5,1.2-3.6,1.8
		c-2.5,0.5-4.9,1-7.4,1.7c-2.6,0.7-5.2,1.5-7.8,2.3c-2.8,0.7-5.9,1.8-8.8,2.7c-3.6,1.2-6.8,2.1-8.4,1.7c9.6-3.4,14.1-4.9,24.4-8.2
		c2.7-0.1,1,0.3-1.3,1.1s-5.4,1.8-5.5,2.1c1.9-0.5,3.9-1,5.8-1.5c-0.9-0.5,11.3-3,8.2-3.7c-3.2,0.7-6.5,1.2-9.7,2.1
		c-3.2,0.9-6.3,1.8-9.3,2.7c-6.1,1.9-11.9,3.6-17.3,4.4c3.4-2.8,6.4-5.8,9.5-9c0-0.1,0.2-0.3,0.6-0.6l-0.6,0.6
		c0,0.3,2.1-0.6,4.5-1.5c-0.5,0.5-1,1,1.9,0c5.9-1.4,9.1-3.9,13.7-4.9l-1.4,0.5c2.2-0.4,4.6-0.9,7-1.5c2.3-0.6,4.6-1,6.2-1.5
		c1.8,0.3-1.4,0.9-4.1,1.4c-2.7,0.5-5,1.2-1.6,0.9c-2.4,0.4-5.3,1.1-8,2s-5.2,1.9-6.9,2.5c2.9-0.8,5.8-1.3,7.7-1.4
		c1.9-0.1,2.8,0.2,2,0.7c6.5-1.9,6.4-2.5,6.2-3c-0.2-0.6-0.7-1.1,5.1-2.2c2.7-0.4,5.3-0.4,8-0.6c0.9-0.5,1.9-1.1,2.8-1.5
		c4.8-0.2-3,1.1,4.4,0.8c2-0.8,6.7,0,8.2-0.4c-0.2,0.3-0.3,0.5,3.4,0.8c0.3-0.1,0-0.7,2.9-0.4c1.9,1.4-7.5-0.3-4.2,1.1
		c8.3,0.7,5.4-0.7,6.7-1.1c-0.3,0-0.7-0.1-1.6-0.2c0.1-0.4,3.6,0.3,3.3-0.3c-1.4-0.2-2.8-0.2-4.1-0.2c2.6-0.2-4-1.3-6.6-1.3
		c-5.9,0.2-18,0.4-26.2,2.1c0.7-0.2,2.1-0.5,1.2-0.6c-1.5,0.2-2.8,0.5-4.1,0.7c-1.3,0.3-2.5,0.6-3.6,0.8c-2.3,0.5-4.4,1-6.5,1.6
		c-4.2,1.2-8.5,2.6-14.4,4.6l-1.3,1.3c-5.1,1.5-6.2,2.3-6.4,3.1c-0.2,0.7,0.6,1.3-0.7,1.7c-2.2,0.5-4.1,1.4-6,1.1
		c0.3-0.2,0.7-0.3,1-0.5c-3.1,0.5-3.5,0.7-3.9,0.8c-0.4,0.2-0.7,0.4-3.4,0.1c-2.2,0-1.2,0.2-0.1,0.4c1.1,0.1,2.5,0.3,1.1,0.4
		c-1.4-0.1-2.4-0.2-3.1-0.2c-0.8,0-1.3,0.1-2,0.1c-1.4,0-3.1,0-7.3-2.6c0.3,0,0.1-0.4,0.6-0.5c0.4-0.1,1.5,0.2,3.9,1.2
		c-1.5-0.8-3.1-1.8-4.7-2.9c3,1.3,3.5,1.4,4.1,1.7c0.6,0.2,1.1,0.6,4,1.2c1.4-0.1,2-0.5,2.5-0.8s1-0.6,2.3-0.9
		c-1.1,0-1.6,0.3-2.2,0.4c-0.6,0.1-1.3,0.3-2.9-0.2c-3.7-1.3,0.7-0.3,1.1-0.5c-2.6-0.1-3.9-0.8-5.1-1.7c-1.3-0.8-2.5-1.7-5.2-2.6
		c0.6,1.5-0.3,1,2.9,3.5c-1.8-0.7-3.7-1.8-5.3-2.9c-1.5-1.1-2.6-2-2.2-2.4l-1.1,0.5c-0.9-0.7-4.3-1.8-4.4-2.2h-1.6
		c2.9,1.5,5.5,2.8,10.3,4.9c-2.1-0.4,2.1,2.7-4.2-0.2c-2.8-1.2-0.2-0.6-0.3-0.9c-1.9-0.8-3.6-1.3-5-1.8c-1.5-0.4-2.8-0.8-4-1.1
		s-2.2-0.6-3.2-0.8s-1.9-0.4-2.8-0.6c-3.5-0.6-6.7-1.2-12.9-0.3c3.1-0.8,10.7-0.7,16.8-0.2c-3.5-1.4-7.9-0.6-11.4-0.5
		c3.1-0.4,3.7-0.8,0-1.1c-0.5,0.2-1,0.4-1.5,0.6c-2.2,0.1-6.1,0.6-6.4,0.4c-0.1,0.2,0.9,0.2,2.9,0.2c-2.8,0.6-6.6,1.5-11,2.6
		c-4.3,1.1-9,2.4-13.7,3.6c0.4-1.4,13.1-4.3,6.3-3.3c-3.8,1.2-6.7,3.3-13.2,4.8c2.7-1.5-3.1,0.3-3.1-0.1c-3,1.5-6,3.2-9,5
		c-4.5,2-9.7,4.9-13.5,8.7c1.3-1.2,3-2.7,5.2-4c-2.9,2.6-5.7,4.8-8.6,7.6c-2.9,2.9-6,6.7-7.9,12.6c0.5-1.9,1.2-3.6,1.9-5.3
		c-2.3,3.9-3.5,8.2-4.1,12.1C59.6,654.2,59.8,657.9,60.3,661.2z M206.1,609.4l-3.9,1.1C203.6,610,205.1,609.5,206.1,609.4z
		 M128,696.8c-1,0.2-2.4,0.5-3.6,0.8c-1.1,0-1.3-0.1-1.3-0.2C124.7,697.2,126.4,697,128,696.8z M65.9,661c-0.1-0.2-0.1-0.6-0.1-1.1
		C65.8,660.3,65.9,660.7,65.9,661z M179.4,694.4c-1.6,0.2-1.5,1.4-7.6,1c-0.1-0.1,0.5-0.2,1.1-0.3c-2.8,0.1-3.3-0.1-6.3-0.2
		c-0.9-0.8,3.8-0.8,5.9-1.3c-2,0.1-4.2,0.6-6.4,0.6l0.5-0.3c-2.2,0.2-4.4,0.4-6.6,0.6c-2.7,0.8,5-0.3,5.3,0.2l-4.2,0.8
		c-4.8,0.4-17.6,2.3-22.1,1.8c-5.6,0.4-3.1,1-4.5,1.7c-3.4,1.2-6.5,0.7-9.9,1.4c0.1,0.6-3.8,1.1-4,1.9l-5.5,0.4
		c-3.1,1.5,6.6-0.4,8.1-0.1c2.9,0.7-4,0.8-2.1,1.2c4.2-0.6,4.5-1.2,6.6-1.7c2.4-0.4,3.7-0.3,3.6,0.1c-6.7,0.4-3.6,1.4-9.1,1.8
		l-0.2-0.2c-0.1,0.9-8,1.2-11,1.7c-6.1-0.5,4.9-1.6,4.7-1.9c-2.5,0.3-4.9,0.6-7.4,0.8c3.2-0.7,0-1,4.3-1.9c-4.5,0.6-5-0.2-9.3,0.5
		c4.9-1.3-6-0.8-6.5-1.8c4.7-0.1,12.9,0.6,13.4,0.8c0.7-0.2,6.1-0.5,8.3-0.5l3.5-1.5c-3.9,0.4-9.3,1.4-7.8,0.3
		c-1.8,0.3-3.6,0.6-5.4,0.9c5.6-1.8,5.3-1.8,10.3-2.9c-10.2-0.2-18.4,2.7-26.7,0.9h1.3c-4.2-0.2-7.6-0.9-10.2-2.1
		c-2.6-1.2-4.3-2.8-5.5-4.4c0-0.1-0.1-0.1-0.1-0.2c0.2,0.2,0.4,0.5,0.7,0.7c4.3,4,10,4.9,15.6,5.2c8.9,0.5,17.8,0,26.7-1l-1.1,0.7
		c0.2-0.1,0.4-0.1,0.6-0.2c10.3-1.6,0.9,1.2,11.5-0.7c-0.4,0.2-0.6,0.3-0.8,0.4c4.3-0.9,12.2-1.7,13.1-2.7c-1,0.1-5,0.4-6.9,0.4
		c4.5-0.6,9-1.3,13.5-1.8c0.9,0,1.8,0.1,2.9,0l0,0l0,0c1-0.1,2.2-0.2,3.7-0.5c0.4-0.1,0.6-0.2,0.8-0.2c5.4-0.5,10.7-0.8,16.1-0.7
		C173.5,693,185.7,693.7,179.4,694.4z M195.9,695.5c-6.2-1-1.8-0.6-6.2-1.6c-0.2-0.2-0.1-0.3,0.3-0.4c4.7,0.6,9.3,1.5,13.9,2.5
		C199.9,695.4,195.8,694.6,195.9,695.5z M214.6,699.4c-2.1-0.6-8.1-1.8-8.4-2.6c2.9,0.7,3.7,0.8,3.4,0.6c3,0.7,6,1.5,9,2.3
		c0.1,0.1,0.3,0.3,0.8,0.5C218,700,215.9,699.6,214.6,699.4z M291.8,718.1c-5.4-0.4,0.4-0.5-2.4-1.1c-4.3,0.8-5.2-1.4-9.7-0.5
		c-5.3-0.4-3.5-0.9-5.1-1.5c5.2,0.6-2.3-1.2,4.3-0.7c-2.6-0.5-3.6-0.4-4.5-0.3c-0.9,0.1-1.7,0.3-3.9-0.2l-0.5-1.1
		c-2-0.4-5.2-1.1-8.5-1.8s-6.8-1.5-9.6-1.8c4.4,1.7-2.8,0-2.2,0.8c1-0.6,7.1,1.4,6.9,1.8c-3.3-0.5-10.8-2.2-13.7-3.1l5.8,2
		c-2.5-0.1-11.3-1.5-11.6-1.4c-2.6-1.1-6.6-2.2-7.8-3.1l5.1,0.7l1.6,1.1h3c-3.2-1.2-9.8-3.6-11.1-4.7c5,1.4,12,3.3,20.4,4.6
		c4.8,1.2,9.6,2.3,14.4,3.2c11.5,2.2,23.1,3.2,34.8,3.5c-0.1,0-0.2,0-0.3,0.1c-1.4,0.3-3,0.5-4.9,0.5c1.1,0,2.4,0,4.1,0.3
		c-3.2,0.4-6.4,1-9.6,1.2c2.4,0.3,3.8,0.1,5.3-0.2s3.2-0.5,6.1-0.3C297.8,717.1,298.1,717.6,291.8,718.1z M456.9,700.1
		c4.1,0.4,8.1,0.8,12.2,1.2H469l3.9,1c-1.5,0.1-3.1,0.1-4.6,0.2L456.9,700.1z M184.1,623.6c1.3,0,1.7,0.3,2,0.5
		c-1.1,0.1-2.1,0.2-3.1,0.3L184.1,623.6z M147.7,612.6c0.3-0.5,2-0.4,3.9-0.1c1.9,0.3,4,0.9,5,0.8c0.8,0.2,3,1.1,4.6,2
		c1.7,0.9,2.9,1.7,2,1.7c-2.3-1.4-3.5-1.5-4.7-1.6c-1.2-0.2-2.2-0.5-4.4-1.9c-0.9,0.3,0.2,1,2,1.8c-0.6-0.1-1-0.1-1.1,0
		c-0.9-0.3-1.8-0.7-2.6-1c-0.9-0.3-1.7-0.5-2.5-0.7C148.6,613.1,147.2,612.9,147.7,612.6z M141.1,612l-1.6,0.1
		c-5.9-0.2-9.8,0.6-11.9,1c-2.1,0.5-2.6,0.8-2.1,1c-1.4,0.2-2.8,0.5-4.2,0.8c2.5-1,4.9-1.9,6.3-2.3C132.6,611.7,138,611.5,141.1,612
		z M109.9,616.5c-0.3,0.3,0,0.4,0.6,0.3c-1.6,0.5-3.2,1-4.8,1.6C106.5,617.8,105.4,617.6,109.9,616.5z M63.6,651.3
		c0.2-1.5,0.7-2.9,1-4.2c0.7-2,1.5-3.4,1.7-3.6c-0.1-0.7,1.1-3.8,3.1-6.7c2.2-3.3,5.3-6.1,7-7.8c4.3-3.4,6-3.6,7.4-4.2
		c1.5-0.4,2.7-0.9,6.7-2.9c-1,0.2-2,0.4-3.1,0.7c3.5-1.8,6.1-2.9,8.8-3.9c2.7-1,5.4-1.8,9.4-2.8c1.1,0.5-3.7,0.9-5.4,1.9l3.9-0.3
		c-1.7,0.6-5,2.3-5,1.5c0,0.4-2.6,1.9,2.4,0l-3.7,1.8c0.2,0,0.5,0,0.9,0c-1.1,0.4-2.2,0.9-3.4,1.3c-1.5,0.3-4,1.3-6.3,1.7
		c-0.2-0.2,2.1-1.3,3.4-2c-3.5,1-6.4,2.7-8.3,3.9c2.6-1.3,3.3-1.5,3.4-1.3c0.1,0.1-0.2,0.6,0.5,0.6c-1.6,0.9-3.6,2-5.5,3.2
		s-3.5,2.4-4.4,3.1c-1.1,0.7-2,1.4-2.9,2.1c-0.9,0.6-1.6,1.2-2.1,1.6c-1.1,0.8-1.4,0.7-0.3-0.9c-2.2,2.8-4.7,5.9-5.8,9.9
		c0.7-1.7,1.1-2.6,1.4-3s0.5-0.3,0.7-0.3s0.4-0.1,0.9-0.6c0.2-0.3,0.5-0.7,0.8-1.3c0.4-0.5,0.9-1.3,1.4-2.2c0.4-0.2,0.5-0.1,0.4,0.1
		c-2.1,2.4-3.8,5.2-5,8.3c-0.4,0.8-0.8,1.7-1.1,2.3c0.7-2.4-0.3-0.5-0.3-1.2c-0.3,0.9-0.4,1.6-0.5,2.2c-0.1,0.6-0.1,1-0.2,1.4
		c0,0.6,0.1,0.7,0.2,0.5c0.2-0.2,0.3-0.6,0.6-1.2c-0.1,0.5-0.3,1.1-0.4,1.6c-0.6,3.1-0.6,6.1-0.4,9.2c0,1.5,0,2.9,0.1,4.4
		c-0.5-2.2-0.8-4.4-0.9-6.7c-0.2,1.5-0.1,3.4,0.2,5.3c0.4,1.9,0.9,3.9,1.3,5.5c0.3,1.9-0.5-0.1-1.3-3.2c-0.9-3.1-1.5-7.6-1.8-9.9
		C63.3,654.2,63.4,652.8,63.6,651.3z"/>
	<path class="st1" d="M191.5,194.2c8.3-0.2,20.7,0.3,20.7,0.3s4.8,7.1,18.4,10.3c13.6,3.2,20.1,3.8,25.1,7.6
		c5,3.8,22.2,31.4,30.5,37.7c8.3,6.3,27.2,28.9,26.7,33.8c-0.5,5-0.8,10.1-10.5,9.8c-9.6-0.3-33.3-13.8-33.3-13.8
		s-5.1-10.1-11.1-15.1s-11.6-9.3-11.6-9.3s6.1,68.2,11.1,81.5c5,13.3,20.2,102.2,25.5,115s18.9,50.8,0.7,70.2S251.1,547,251.1,547
		s0.8-15.1,0.2-17.6c-0.7-2.5-34.5-2.3-51.9,2.8s-27.2,9.6-42.3,13.1s-46.1,1.3-46.1,0.8s-23.9-75-6-134
		c9.2-30.3,25.4-61.6,27.8-75.3c4.5-25.9,13.1-46.5,5.6-73c-21.9,19.4-15.9,31.5-15.9,31.5s-24.2,25.7-36,15.6s-10-18.2,0.8-32.7
		c10.8-14.4,32.7-42.8,35.8-48.3c3.2-5.5,11.1-18.4,24.7-20.6c13.6-2.2,30.5-14.8,30.5-14.8L191.5,194.2z"/>
	<path class="st2" d="M224.8,434.2c0,0-81.3-39.5-81.3-38.2s-24.9,30.5-24.9,30.5l-20.4,23c-2.9,49.2,12.3,96.7,12.3,97.1
		c0,0.5,31,2.7,46.1-0.8s24.9-8,42.3-13.1s51.3-5.3,51.9-2.8c0,0-0.6-13.7-4-27C243.4,489.6,224.8,434.2,224.8,434.2z"/>
	<path class="st3" d="M67.2,457.5c-3.2-5.6,17-41.8,32.3-54.4s39.6,17.5,39.6,17.5l-2.4,4.6l-13.9,16.4c0,0,11.3,3.5,16.4,9.5
		s12.7,13.6,16.9,15.4s6.8,14.2,6.8,14.2l-12.6,5.7C150.2,486.4,77.4,475,67.2,457.5z"/>
	<path class="st3" d="M202.6,449.3c0.2,0.7,4,54.6,4,54.6s-4.3,28.4-2.2,47.3s8.3,28.6,10.7,45c2.4,16.3,19.1,0.5,19.1,0.5
		s1.4-16.9,1.4-23.3s-1.1-25.4,2-34.7s6.9-28.5,9.3-35.8c-1.8-8.4-8-48-8-48L202.6,449.3z"/>
	<path class="st4" d="M155.1,357.3c8.6-10.4,11.3-29.9,11.5-46s-2.4-42.7,0-54.9c2.4-12.2,5.8-49.8,9.5-60.2
		c3.8-10.4,36.8-1.3,36.8-1.3s10.1,46.2,11.8,61.9c1.8,15.7,6.2,66.6,6.2,81.6s2.7,93.1,8,116.3c-69,5.5-85.6-12.2-91.4-18.4
		s-34.7-32.1-48-33.4C109.5,390,155.1,357.3,155.1,357.3z"/>
	<path class="st1" d="M186,476.6c0,0,6.8,0,10.8-5s11.1-2.3,12.4-0.3c1.3,2,5.6,7.3,3.6,15.1c-2,7.8-3.3,10.3-3.2,14.6
		c0.2,4.3,6.3,22.2,6.3,29.4s-1.2,19.9-5.5,22.1s-9.8,2-11.9-0.5s-3.8-1.2-3.2-7.1c0.7-6-0.2-12.4-3.3-19.9c-3.2-7.5-9-19.9-9-19.9
		L186,476.6"/>
	<path class="st1" d="M214.2,624.3c0,0-5.6,5.8-6,14.1c-0.3,8.3-0.3,8.8,1.3,10.3s7,4.6,14.8,3.8s15.4,8.3,22.2,10.5
		s23.1,6.6,31.4,4c8.3-2.7,1.7-12.4-2.3-13.8c-4-1.3-20.4-8.1-22.2-11.6s-12.1-14.4-12.1-14.4L214.2,624.3"/>
	<path class="st5" d="M388.4,453.1c0,0-1.5,6.4,0,12.6c0.2,0-17,4.2-42,28.8s-23.9,41.1-23.9,41.1s13.5,16.4,23.9,15.9
		c10.4-0.4,19.5-23.9,19.5-23.9s27.6-29.6,51.8-33.2c6,2,11.5,4.4,11.5,4.4s8.8,54.6,4.2,69.2c-4.6,14.6,30.1-0.2,30.3-0.9
		s10.8-65-2-111.9S388.4,453.1,388.4,453.1z"/>
	<path class="st6" d="M344.6,390.7c-0.1-0.6,17-23.7,36.3-31c19.2-7.3-1.8,40-1.8,40l-8.2,8.8C370.9,408.6,345.5,394.9,344.6,390.7z
		"/>
	<path class="st6" d="M451.7,355.7c0,0,28.3,3.3,45.1,21c-2.2,18.8-22.3,27.4-22.3,27.4s-9.1-7.5-18.6-10.2
		C446.4,391.4,451.7,355.7,451.7,355.7z"/>
	<path class="st7" d="M396.5,352.2c0,0-10.5,4-15.6,7.5s-3.8,37.2-1.8,45.6s4.2,23.4,3.3,27.2c-0.9,3.8-3.5,13.7,0,20.1
		s11.7,9.3,38.9,5.3c27.2-4,31.6,4.2,40.3-2.7c8.6-6.9-0.2-18.4-1.3-24.6s-4.2-31.9-2.7-37.4s-2.7-34.5-6-37.6s-15.5-0.9-15.5-0.9
		L396.5,352.2"/>
	<path class="st8" d="M423.4,393.8c0,0-12.4-15.3-19.7-1.8c-7.3,13.5,20.1,22.3,25.2,30.3c0-0.2,22.6-19.7,18.1-33.4
		C435.3,371.4,423.4,393.8,423.4,393.8z"/>
	<path class="st9" d="M430.9,578.9c0,0,21.9,7.1,30.7,3.1c5.8-7.1,6.4-11.7,6.4-11.7s-3.3-2.9-7.1-4.4c-3.3,0.4-19.2,7.1-25.9,4.2
		C428.5,567.2,430.9,578.9,430.9,578.9z"/>
	<path class="st9" d="M362.5,526.3c0.2-2.9,3.5,1.8,6.9,3.1c3.3,1.3,4.2,0.2,5,2.3s-7.9,27.8-10.7,29.1s-14.6,0.9-19.2-5.1
		c3.1-3.8,6.6-7.7,10.8-13.1C355.2,542.7,362.1,532.5,362.5,526.3z"/>
</g>
<g id="Layer_3">
	<path class="st10" d="M384.3,306.3c0,0-8.5-13.6-0.8-24.4c-0.3-0.3-1.6-0.3-2.5-2.8c-0.2-0.5-2.7,4.6-7,3c-4.3-1.7-3.2-7.5-3.2-7.5
		s-6.8,5.6-8.8,0.7c-2-5,2-9,2-9s-7.8,1.7-6.5-5.3s4.6-6.3,4.6-6.3s-6.3-5.8-2.5-9.6s7.8,0.5,7.8,0.5s-0.5-4.5,3.2-5.6
		c3.6-1.2,5.8,1.5,5.8,1.5s1.8-6.5,6.1-5.5c4.3,1,6.8,11.8,6.8,11.8s3.2-6.3,7.3-3s-0.2,14.6-0.2,14.6s10-5.6,16.6-5.3
		s17.3,2.3,17.3,2.3s-7.3-5-4-7s6,1,6.5,0.8s-2.7-6.8,1.7-9c4.3-2.2,9.1,0.7,9.1,0.7s-2.5-9.8,4.8-10.1s9.6,6.8,9.6,6.8
		s4.8-5.5,7.1-0.2s-0.7,10.5-0.7,10.5s4.8,3.6,3,7.8c-1.8,4.1-7.1,6.5-7.1,6.5s6.1,3.2,4.6,6.8c-1.5,3.6-10.8,6-10.8,6
		s1.3,3.8-3.2,4.3s-6-2.5-6-2.5s5.1,5.8,4.6,12.6c-0.5,6.8-1.7,15.9-2.2,16.1s-7.1,5-7.1,5l-52.8,2.3L384.3,306.3z"/>
	<path class="st11" d="M121.2,291.2c0,0,43,27.4,63.2,26.2c5.6-0.8,4.8-5.8,4.8-5.8s0.2-19.7,1.8-26s3.5-13.3,5.3-12.9
		c1.8,0.3,2.2,2.3,2.2,2.3s0.7-2.3,2-2s6.6,14.4,7,21.9s0.8,17.6,3.2,20.7c2.3,3.2,6.6,1.2,11.3-1s42.5-22.1,47.9-34.2
		c4.1-3.8,27.5,9.3,27.5,9.3s-22.6,22.9-44.3,30.5s-39.8,12.8-43.3,12.3s-11.1-2.7-11.3-7c-0.2-0.2-3.5,8.5-11.9,7.6
		c-8.5-0.8-30.9-1.8-49.4-8.8c-18.6-7-37.8-15.9-37.8-15.9s12.9-10.5,15.9-14.1C118.2,290.7,121.2,291.2,121.2,291.2z"/>
	<path class="st11" d="M156,466.5c-0.2-0.5,18.6,11.9,30,10.1c-0.2,0.2,8.8,9.6,6.3,17.8c-2.5,8.1-9.1,10.6-9.1,10.6
		s-0.8-4.1-12.3-10.8c-11.4-6.6-20.7-7.8-20.7-7.8S161.8,479,156,466.5z"/>
	<path class="st11" d="M215.1,596.2c0,0,7.8,5.8,19.1,0.5c0.3,18.2,0.8,25.5,7.1,30.4c2.2,3.3-18.9,13.1-27-2.8
		C216.1,615.3,217.5,611.3,215.1,596.2z"/>
	<path class="st12" d="M347.4,392.4c0,0,13.5,7.5,16.7,12.3c-2.5,4.4-8,10.8-8,10.8s14.4,12.1,27.9,17.5c24,10,29.9,4.4,29.9,4.4
		s1.1-31.5,5.1-32c2-0.7,3.1,4,3.1,4s-0.3-4.4,1.5-4.8c1.9-0.3,12.8,19.4,13.2,28.3c0,0,29.6-1.7,48.4-21.3
		c0.9-1.9-5.4-10.9-5.4-10.9s11.4-8,14.7-17c8.6,6.1,18.4,23.3,18.1,26.9c-0.4,5.8-11.7,17.1-33.1,26.1c-21.3,9-37.2,14.5-45.8,12.7
		c-4-0.1-6.3-3-6.3-3s-0.8,5.4-7.4,6s-34.8-0.2-53.2-7.5s-34.6-16.7-35.9-20.2C329.6,421,336.1,402,347.4,392.4z"/>
	<path class="st8" d="M435.5,635.8c-0.7,0-4.6-0.4-6.6,4.6c-2,5.1-5.5,18.8-1.5,26.5s39.6,13.7,50.7,12.6
		c11.1-1.1,10.6-2.9,10.6-2.9s3.3-5.5-6.6-13.7c-10-8.2-24.6-24.3-32-26.2C442.6,634.9,435.5,635.8,435.5,635.8z"/>
	<path class="st12" d="M432.9,580.5c0-0.7,19.6,2.8,24.9,2c1.2,6.1-5.9,52.9-7.7,54.3c-1.9,1.4-7.7,4.6-17,1.4
		C436.6,608.9,433,583.6,432.9,580.5z"/>
	<path class="st8" d="M415.2,554.6c0,0,5.1-13.1,14.6-15.5s13.5,17,13.5,17s8,34.7-0.7,42.7s-19.7-8-19.2-15.3
		c0.4-7.3-10-21.9-10-21.9L415.2,554.6z"/>
	<path class="st12" d="M374.4,531.7c0,0,11.9,5.5,15.5,7.7c3.5,2.2,17.9,10.9,27,12.2c0.2,0.2,5.1,5.3-0.2,11.8
		c-7,1-49.7-7.5-50.1-8.2C366.1,554.6,373.8,538.5,374.4,531.7z"/>
	<path class="st10" d="M163,102.7c0,0-4-10.5-11.1-12.3s-15.6,3.8-18.7,1.2s-3.2-5.6-0.5-7.5s9.8-5.3,14.4-4.6
		c4.6,0.7,9.3,3.8,9.3,3.8S154,71.8,147,70.8s-16.1-1-16.6-6.3s12.1-3.2,16.4-1.8c4.3,1.4,17.9,12.8,19.2,14.6s2.7,0.3,1-3.6
		c-1.7-4-4.5-7.6-3.8-15.3c0.7-7.6,3.8-14.1,7.1-13.8c3.3,0.3,1.5,9.8,1.5,13.9c0.3,10.6,4.5,14.9,4.5,14.9s2.7-15.1,7.3-21.1
		s8.1-11.4,11.1-8.5c3,3-4.1,9.8-5.8,14.3s-3.3,11.9-0.7,14.3c0,0,3.3-5.3,9.6-8s11.6-12.4,11.6-16.1c0-3.6-0.5-6.8,2.8-4.6
		s1.8,11.4,0.3,14.8c-1.5,3.3-8.1,11.3-8.3,12.9c-0.2,1.7,3.3,2,6.6-1.5s10.1-11.8,13.4-11.9c3.3-0.2,7.1,1,3.6,5s-9.8,10-9,12.3
		s12.1-1.3,14.6-4.8s8.3-8.5,8.8-3.5s-2.7,9.1-6.5,10.8c-3.8,1.7-8.5,2.8-5.6,8.1s7.5,4.1,12.3,2.3c4.8-1.8,4.6-6,6.5-3.3
		s4,7.3,0,9.6s-10.3,0.8-12.3,5.1s3.2,6.6,5.3,6.3s5.6,5.1,2.2,6c-3.5,0.8-12.8-4.5-16.1,1C225,118.5,163,102.7,163,102.7z"/>
	<path class="st13" d="M155.2,112.8c0,0-1.5-12.4,7.8-18.2c9.3-5.8,26.4-6.6,26.4-6.6s15.1-11.3,28,1s10.9,24.1,10.9,24.1
		s4.3,6,5.1,16.3s-4.1,19.6-4.1,19.6l-72.7,2.7c0,0-12.3-9.1-8.8-23.6C151.4,113.5,155.2,112.8,155.2,112.8z"/>
	<path class="st11" d="M189.7,117c8.3-0.8,20.2,4.8,23.2,8.1s10.1,9.5,9.6,16.3c0.2,0,2.3-1.8,5-0.8s5,6.8,4,10.6s-3.5,9.3-5.8,9.8
		s-4.3,0.2-4.3,0.2s-0.3,10.5-4.1,14.9c-3.8,4.5-5,6.6-5,6.6s0.2,9.3,0.7,12.3s-1.3,17.8-16.8,15.6s-20.4-9.6-20.1-14.3
		c0.3-4.6,1-11.6,0.7-12.9c-0.3-1.3-8-4.1-9.3-12.9c-1.3-8.8-1.7-8-1.7-8s-4.5,2.8-9.1-2.7s-5-14.6-1-16.3s8.8,4.1,8.8,4.1
		s-3.2-12.9,4.1-19.9C175.9,120.8,183,117.6,189.7,117z"/>
	<path class="st12" d="M388.5,310.3c0,0-3.8-9.5-9.5-7.2c-5.8,2.3-4.8,10.3-1.2,13.2s11.6,2.7,11.6,2.7s6.2,16.8,14,19.1
		c1.5,4.5,0,12.4,0,12.4s-6.2,1.5-7,1.8c-0.8,0.2,5.2,14,22.9,12.3c17.7-1.8,22.6-10.3,22.6-10.3s-7.5-3.9-8.7-3.9
		s-0.7-12.8-0.7-12.8s9.7-3.2,11.3-19.7c4.6-0.2,11.4-0.1,11.3-9.8c0,0-0.2-9.2-6-7.4c-2.5,0.7-4.5,5.8-4.5,5.8s1.2-20.2-7.5-30
		c-8.7-9.7-38.7-2.3-45.3,6C387,288.3,388.5,310.3,388.5,310.3z"/>
	<path class="st10" d="M176.5,139.6c4.6-1.4,9.1-0.1,9.7,0.9c0.6,0.9,1.2,3.3-0.4,3.3s-5.8-0.8-7.2-0.2s-5.1,3.8-6.5,2.9
		C170.8,145.6,171.9,141.1,176.5,139.6z"/>
	<path class="st10" d="M209.1,137.1c3.3,0.3,7.1,3.3,6.8,4.9c-0.3,1.6-4.6-0.6-6.3-0.6s-6.6,2.3-7.6,0.3S205.1,136.7,209.1,137.1z"
		/>
	<path class="st10" d="M403.2,291.8c2.4-0.2,8.2,0.9,8.7,2.4s0,3.5-1.5,3.5c-1.5,0.1-5.3-1.3-6.4-1.1c-1.2,0.2-6.3,2-6.8,1.2
		C396.8,297,398.4,292.3,403.2,291.8z"/>
	<path class="st10" d="M430,291c2.8,0.1,7.7,2.9,7.9,4.2s-5,0-6.8,0.1s-6.1,1.9-7.1,0C422.9,293.4,426.3,290.9,430,291z"/>
	<path class="st12" d="M330.7,543.9c0,0,6.7-15.8,13.3-17.6c6.6-1.8,1.8,3.5,1.8,3.5s-10.5,11.9-11.6,16.7
		C332.4,545.4,330.7,543.9,330.7,543.9z"/>
	<path class="st12" d="M338.1,549.1c0-0.7,2.2-10.2,6.2-14.2s4.2-0.7,4.2-0.7s-5.1,14.6-5.6,16.8
		C339.3,550.1,338.1,549.1,338.1,549.1z"/>
	<path class="st14" d="M443.2,556.1c0,0-4-19.5-13.5-17c-0.7,0.2-1.4,0.4-2.1,0.7c3.1,1,8,3.4,9.1,8.7c1.7,7.8,6.3,24.6,6,30
		c-0.3,5.5,1.2,15.8-1.5,19.4c-0.9,1.2-1.7,2.2-2.4,2.9c1.3-0.3,2.5-0.9,3.7-2C451.1,590.8,443.2,556.1,443.2,556.1z"/>
	<path class="st14" d="M488.7,676.7c0,0,1.1-1.9,0.1-5c-2.1,1-6.5,2.8-10.5,3c-5.5,0.3-19.6-1.7-33.2-4.6c-9.3-2-15.9-5.7-19.2-7.9
		c0.3,1.7,0.8,3.4,1.5,4.8c4,7.7,39.6,13.7,50.7,12.6C489.2,678.5,488.7,676.7,488.7,676.7z"/>
	<circle class="st15" cx="424.9" cy="565.7" r="2.3"/>
	<circle class="st15" cx="428.4" cy="573.2" r="2.3"/>
	<circle class="st15" cx="429.9" cy="581.1" r="2.3"/>
	<circle class="st15" cx="449.3" cy="646.8" r="2.3"/>
	<circle class="st15" cx="456.4" cy="653.3" r="2.3"/>
	<circle class="st15" cx="463.9" cy="659" r="2.3"/>
</g>
<g id="Layer_5">
	<path class="st16" d="M187.7,142.3c2.2,2.1,3.3,5.2,3.4,8.2s-0.7,6-2,8.8c-0.6,1.2-1.2,2.5-1.4,3.8s0.4,2.9,1.6,3.5
		c0.9,0.4,1.9,0.2,2.7-0.2c0.8-0.5,1.5-1.2,2.1-1.9c0.1-0.1,0.2-0.3,0.4-0.3s0.4,0.1,0.6,0.2c0.7,0.5,1.6,0.8,2.4,0.6
		c0.8-0.2,1.6-1,1.5-1.8c0-0.6-0.4-1.2-0.9-1.6"/>
	<g>
		<path class="st17" d="M188.1,172.4c0.9,0.7,1.7,0.8,2.6,0.9c0.9,0,2,0,2.8,0c0.8-0.1,1.7-0.3,2.7-0.5s1.9-0.3,2.7-1
			c0,0.6-0.4,1.1-0.8,1.5c-0.4,0.4-0.9,0.7-1.4,1c-0.9,0.5-1.9,1-3.2,1.1c-0.6,0-1.2,0-1.7-0.1s-1.1-0.2-1.6-0.4s-1.1-0.5-1.5-0.9
			C188.5,173.5,188.2,172.9,188.1,172.4z"/>
	</g>
	<path class="st16" d="M187.6,162.8c-2.1,0.7-3.3,2.3-4.5,4.2s-1.9,3.9-2.7,6"/>
	<path class="st16" d="M198.6,162.1c0.6,0.3,3.3,3.7,4.2,4.8c0.6,0.8,1.2,1.6,1.6,2.5c0.3,0.9,0.3,2-0.2,2.8"/>
	<path class="st16" d="M178.5,158.6c1.2,0.1,2.3-0.2,3.4-0.7c0.9-0.4,1.7-0.9,2.3-1.6c0.7-0.7,1.1-1.6,1.3-2.5"/>
	<path class="st16" d="M199.5,153.4c-0.2,0.4,0.5,2,0.9,2.4c0.5,0.6,1.1,1.1,1.7,1.6c0.5,0.4,1.1,0.8,1.7,1c0.6,0.2,1.9,0.9,2.4,0.5
		"/>
	<path class="st18" d="M176,150.1c0.1,0.5,0.5,1,0.8,1.4s0.7,0.8,1.2,1.1c0.6,0.3,1.3,0.4,2,0.3c1-0.1,2-0.3,2.8-0.9
		c0.8-0.5,1.5-1.4,1.7-2.3"/>
	<path class="st18" d="M201.6,148.4c-0.1,1.2,0.7,2.4,1.8,3.1c1.2,0.8,2.8,1.1,4.2,0.7s2.6-1.4,3.2-2.8"/>
	<g>
		<path class="st17" d="M212.4,182.7c-0.8,1.6-2.1,2.8-3.4,3.9c-1.3,1.1-2.7,2.1-4.2,3c-3,1.7-6.1,3.2-10.2,3.4c-0.5,0-1,0-1.4-0.1
			c-0.5,0-0.9-0.1-1.4-0.2c-0.9-0.1-1.8-0.3-2.6-0.5c-1.7-0.5-3.4-1.1-4.9-1.9c-1.6-0.8-3-1.8-4.4-2.9c-1.3-1.2-2.5-2.5-3.2-4.1l0,0
			c0-0.1,0-0.2,0.1-0.2s0.1,0,0.2,0c1.1,1.2,2.4,2.1,3.8,3c1.4,0.8,2.9,1.5,4.4,2.1c3,1.1,6.3,1.9,9.5,1.9c1.6,0,3.2-0.4,4.7-0.9
			c1.6-0.5,3.1-1.1,4.6-1.7c1.5-0.7,2.9-1.4,4.4-2.2C209.8,184.5,211.2,183.7,212.4,182.7c0.1-0.2,0.2-0.2,0.2-0.1
			C212.5,182.5,212.5,182.6,212.4,182.7L212.4,182.7z"/>
	</g>
	<path class="st16" d="M155,151.6c-0.3-1.6,0.7-3.4,2.3-3.9c0.4-0.1,0.7-0.2,1.1-0.1c0.5,0.1,0.9,0.4,1.2,0.7
		c1.7,1.7,2.2,4.2,2.6,6.6c0.1-0.3-0.1-0.6-0.3-0.9c-1.1-1-2.7-0.9-4.2-0.8"/>
	<path class="st16" d="M229,149.4c0.2-1,0-2.1-0.7-2.8c-0.3-0.4-0.8-0.7-1.3-0.7s-0.9,0.2-1.2,0.5c-2.4,1.8-3.6,5.1-2.8,8
		c0.8-1.4,2.7-2.1,4.3-1.5"/>
	<path class="st16" d="M198.4,274.9c-0.6,4.5-0.3,9.1-0.1,13.6c0.3,8.5,0.3,35.1,0.2,36.8"/>
	<path class="st16" d="M377.6,311.4c0.1-1.3,0.2-2.7,1.1-3.6c0.9-0.8,2.4-0.8,3.5-0.2c1.1,0.6,1.9,1.6,2.5,2.7
		c0.6,1,1.1,2.1,1.4,3.1c-0.6-0.6-1.5-1-2.4-0.9s-1.7,0.5-2.2,1.2"/>
	<path class="st16" d="M452.6,308.6c0.2-0.7-0.1-1.4-0.4-2c-0.4-0.7-1.1-1.4-1.9-1.3c-0.6,0.1-1,0.6-1.4,1.2c-1.3,2-1.9,4.4-1.9,6.7
		c0.1-0.8,0.6-1.5,1.3-1.8c0.7-0.3,1.6-0.2,2.2,0.4"/>
	<g>
		<path class="st17" d="M432.7,337.6c-0.7,1.2-1.9,2.1-3,2.9s-2.3,1.4-3.5,2s-2.5,1-3.7,1.4c-0.6,0.2-1.3,0.3-2,0.5
			c-0.7,0.1-1.4,0.3-2.3,0.3s-1.5-0.1-2.2-0.2s-1.4-0.2-2-0.4c-1.3-0.4-2.6-0.7-3.9-1.2c-2.5-1-4.9-2.4-6.7-4.7l0,0
			c0-0.1,0-0.2,0-0.2s0.1,0,0.2,0c1.1,0.6,2.3,1.1,3.5,1.5s2.4,0.8,3.6,1.1c2.5,0.6,5,1.1,7.5,1.1c1.2,0,2.5-0.3,3.7-0.6
			c1.2-0.3,2.5-0.6,3.7-0.9s2.4-0.7,3.6-1.2c1.2-0.4,2.4-0.9,3.4-1.6c0.1,0,0.2,0,0.2,0C432.8,337.4,432.8,337.5,432.7,337.6
			L432.7,337.6z"/>
	</g>
	<g>
		<path class="st17" d="M410.2,328.8c1.3,1,2.7,1.5,4.1,1.9c1.4,0.3,2.8,0.3,4.2,0.1c1.4-0.3,2.7-0.8,4-1.5c1.3-0.8,2.4-1.7,3.6-2.8
			c-0.9,3.1-3.8,5.7-7.2,6.3c-1.7,0.3-3.5,0.1-5.1-0.6C412.2,331.5,410.9,330.3,410.2,328.8z"/>
	</g>
	<path class="st16" d="M416,304.2c0.5,1.9,0.9,4,0.2,5.9c-0.3,0.7-0.7,1.4-1,2c-0.4,0.7-0.7,1.4-1,2.1c-0.2,0.6-0.5,1.3-0.5,2
		c0,2.1,2,3.9,4.2,4.2c0.4,0.1,0.8,0.1,1.2,0c0.4-0.1,0.7-0.3,1-0.5c1.5-1,2.5-2.6,2.6-4.4"/>
	<path class="st18" d="M401.4,305.2c0.1,0.8,0.7,1.5,1.2,2.1c0.4,0.5,0.9,1,1.4,1.3c1.4,0.8,3.1,0.4,4.5-0.4
		c1.1-0.6,2.1-1.6,2.3-2.9"/>
	<path class="st18" d="M426,304.8c0.2,0.7,0.8,1.3,1.4,1.7c0.7,0.6,1.4,1.2,2.2,1.4c1,0.2,2.1-0.1,3-0.6c1.1-0.6,2.1-1.4,2.4-2.6"/>
	<path class="st16" d="M192.3,303.5c0.3-2.1,0.2-4.3,0.3-6.5c0.1-4.2,1-8.4,1.9-12.6c0.1-0.6,0.3-1.3,0.7-1.8s1.1-0.8,1.7-0.6
		c0.6,0.2,0.9,1,1.1,1.6c0.1-0.8,0.3-1.6,1.1-1.8c0.6-0.1,1.1,0.3,1.5,0.8c1.4,1.7,1.6,4.1,1.8,6.3c0.4,4.4,0.8,8.9,1.2,13.3"/>
	<path class="st16" d="M422,409.2c0.1,0.1,0.2-0.2,0-0.2s-0.2,0.2-0.2,0.4c0,5.6,1.3,11.2,2.4,16.7c1.2,6.1,2.3,12.2,3.1,18.3
		c0.1,0.8,0.2,1.5,0.1,2.3"/>
	<path class="st16" d="M430.2,425c-0.1-3.7-2-7.1-4-10.2c-0.5-0.7-1-1.5-1.8-1.9c-0.3-0.1-0.6-0.2-0.9-0.1c-0.9,0.2-1.2,1.3-1.3,2.3
		c-0.2-0.7-0.6-1.3-1.1-1.8c-0.3-0.3-0.6-0.5-1-0.4s-0.5,0.6-0.6,0.9c-1,4.5-1.5,9.1-1.5,13.7"/>
	<path class="st19" d="M88,302c4.8-0.6,8.8-3.9,12.4-7.3c1.7-1.5,3.3-3.1,5.4-4c1.5-0.7,3.2-1,4.8-1.2c2.3-0.3,4.7-0.5,7-0.6"/>
	<path class="st19" d="M93.3,288.6c2.3,0,4.5-0.7,6.4-2c1.2-0.8,2.3-1.9,3.7-2.4c1-0.3,2-0.4,3-0.4c3.1,0,6.3,0,9.4,0.1"/>
	<path class="st19" d="M140.9,231.9c0.3,6.1,0.3,12.1,0.2,18.2c-0.1,2.4-0.2,4.9-1.2,7"/>
	<path class="st19" d="M239.9,231c-0.6,7.6,0.5,15.3,3.4,22.4"/>
	<path class="st19" d="M146.4,248.2c-0.8,4.7-3.1,9.1-6.5,12.4"/>
	<path class="st19" d="M237.6,245.8c-0.5,3.8,1.4,7.7,4.7,9.6"/>
	<path class="st19" d="M272.7,277.2c3.9-3.5,10.2-2.8,14.6-0.1c2.9,1.8,5.4,4.4,8.4,6s7.2,2,9.6-0.5"/>
	<path class="st19" d="M277,270.6c2.3-1.5,5.1-2.3,7.9-2s5.4,1.6,7.3,3.5"/>
	<path class="st19" d="M157.1,334.3c-2.9,6.2-5.9,12.4-10.1,17.8c-4.2,5.4-9.7,10.1-16.3,12"/>
	<path class="st19" d="M150.1,334.8c-3.1,4.4-7.2,8.1-11.8,10.9"/>
	<path class="st19" d="M241.8,370.3c1.4,14.7,3.2,29.3,5.4,43.9c1.3,8.7,2.9,17.3,4.7,25.9c1,4.7,2.3,9.6,5.4,13.3"/>
	<path class="st19" d="M247.4,362.2c0.8,13.4,4,26.7,9.4,39"/>
	<path class="st20" d="M131,400.2c9.8,4.4,18.8,10.5,26.3,18.1c4.2,4.2,8,8.8,12.8,12.3c4.9,3.5,10.6,5.8,16.4,7.4
		c10.2,2.9,20.8,4.4,31.4,4.2c0.8,0,1.8-0.1,2-0.9"/>
	<path class="st20" d="M166.2,409.5c6.6,2.9,8.9,11.1,14.3,15.9c2.3,2,5,3.4,7.9,4.6c7.1,2.9,14.8,4.3,22.4,4.2"/>
	<path class="st20" d="M179.7,212.2c4.4,3.3,9.6,5.8,15.1,6.4c5.5,0.6,11.4-1.1,15.2-5"/>
	<path class="st20" d="M192.1,222.7c2.5,1.3,5.5,1.6,8.4,1.3c2.9-0.4,5.6-1.3,8.3-2.3"/>
	<path class="st20" d="M173.3,351c4.9,4.5,11.9,6,18.5,6.3c9.4,0.4,18.9-1.1,27.8-4.4"/>
	<path class="st20" d="M185.2,361.7c6.5,2.6,13.7,3.3,20.6,2.1"/>
	<path class="st21" d="M192.4,476.6c3.6,4.9,5.3,11.1,4.6,17.1s-3.6,11.7-8.1,15.7"/>
	<path class="st21" d="M214.7,631.8c1.9,4.1,6.3,6.5,10.7,7.4c6,1.2,12.4-0.2,17.4-3.7"/>
	<path class="st22" d="M156.4,112c7.7-6.4,17.1-10.5,27-12.2c9.9-1.6,20.1-0.7,29.6,2.4c2.4,0.8,4.8,1.7,6.7,3.3
		c2.2,1.7,3.8,4.2,5.3,6.5"/>
	<path class="st22" d="M189.8,88.1c6.5,2.3,12.6,6,17.5,10.8"/>
	<path class="st22" d="M163.9,101.8c3.7-3.3,8.6-5.2,13.5-6.1s9.9-0.9,14.9-1"/>
	<path class="st22" d="M156.4,136.5c1.2-5.7,3.6-11.2,7.1-15.9c3.8-5.2,9-9.6,15.2-11.3c3.6-1,7.5-1,11.3-1c5.8,0,11.6,0,17.3,1
		c5.7,0.9,11.4,2.8,16.1,6.2"/>
	<path class="st22" d="M204.3,113.9c5.2,0,9.9,3.4,13.6,7.2c5,5.1,9.1,11,12.1,17.5c-0.3,0-0.5-0.1-0.8-0.1"/>
	<path class="st22" d="M202.1,88.4c4,0.1,8,1.7,11,4.5s4.9,6.6,5.3,10.6"/>
</g>
</svg>
