<svg id="Layer_1" data-name="Layer 1" xmlns="http://www.w3.org/2000/svg" viewBox="0 0 1264.02 270.62"><defs><style>.cls-1{fill:#602a17;}.cls-2{fill:#f1ab53;}</style></defs><path class="cls-1" d="M1118.88,273.11a7.24,7.24,0,0,0,4.32-3.66c1.63-3.4,3.52-7.1,3.61-10.72.19-7.63,3.7-13.79,6.6-20.45,4.06-9.34,9.84-16.95,18.68-21.86a159.8,159.8,0,0,1,18.73-8.56,5.72,5.72,0,0,1,5.24,1.32c.88,1.14.42,3.69-.09,5.44-1.11,3.79-3,7.38-3.92,11.21-3.28,13-5.26,26.49-14.84,37.16,4.71-1.25,9.11-2.86,13.54-4.37,8.23-2.81,16.44-5.65,24.73-8.28,3.11-1,4.15-2.82,4.38-5.94a146.36,146.36,0,0,1,2.13-18.24c1.37-6.74,3.32-13.82,8.23-18.64,8.53-8.38,18.23-15.49,29.54-19.92a12.79,12.79,0,0,1,5.29-.88c3.59.22,5,2.87,3.5,6.15-.6,1.29-1.53,2.45-2,3.78-1.87,5.07-3.56,10.21-5.42,15.28-2.29,6.24-4.68,12.44-7.29,19.34a20.47,20.47,0,0,0,3.71-.82c9.44-4.55,18.42-10.09,28.59-13.09,2-.59,3.8-2.13,5.43-3.54,4.37-3.8,8.6-7.77,12.89-11.67,5.78-5.26,11.55-10.72,19-13.35,15.73-5.55,32.14-7.16,48.72-7.33,2.33,0,4.5.34,5.27,2.86s-.8,4.22-2.64,5.49c-4.63,3.18-9.21,6.47-14.1,9.2-2.83,1.58-5.61,2.93-8,5.24a46.48,46.48,0,0,1-10.36,7.8c-8.06,4.13-16.32,7.91-24.71,11.33s-16.81,5.33-26,4.65c-12.63-.93-12.64-.64-24.16,5.42-1.44.76-3,1.33-4.42,2.09-3.71,2-7.4,4-11.09,6,0,.68,0,1.36,0,2a8.79,8.79,0,0,1,2.69-.53c8.26,1.07,16.55,2,24.74,3.43,8.89,1.59,17.69,3.73,26.52,5.66a8.23,8.23,0,0,1,2.53.91c2.18,1.34,2.49,3.88.48,5.42a10.23,10.23,0,0,1-4,1.37c-9.36,2.05-18.83,3.66-28.06,6.17-13.45,3.66-26.57,8.23-41,5.65-9.22-1.65-18.13-4-26.18-8.62a8.29,8.29,0,0,0-7.55-.9c-8.76,3-17.51,5.93-26.24,9a13.48,13.48,0,0,0-2.74,1.73c6.16,1.82,12.11,3.85,18.2,5.31,13.58,3.26,25.37,10.47,37.62,16.67a4.31,4.31,0,0,1,2,3.34c-.09,1.13-1.4,2.46-2.52,3.11s-2.45.44-3.7.4c-14.27-.43-28.48.62-42.7,1.43-9.34.54-18.61,0-26.58-5.69-5.88-4.21-11.67-8.61-17.14-13.34-2.48-2.15-4.76-2.89-7.86-2.3-7.83,1.5-15.69,2.83-23.53,4.28-.37.07-.64.68-1.2,1.31a28.72,28.72,0,0,1,3.46,1.92c3.86,3,8,5.66,11.41,9.09A111.93,111.93,0,0,1,1111,311a16.73,16.73,0,0,1,2.9,6.33A57,57,0,0,0,1121,336c.75,1.22.82,3.87,0,4.78s-3.25,1-4.81.71c-2.8-.59-5.44-1.86-8.19-2.7-5.87-1.77-11.81-3.31-17.64-5.2-4.14-1.34-8-3.49-12.21-4.57-7.66-2-14-5.41-18.51-12.26-6-9-13.18-17.34-15.59-28.69-5.12-.78-10.35-1.31-15.46-2.41-11.86-2.55-23.68-5.31-35.49-8.12a72,72,0,0,1-8.78-2.87c-1.15-.44-2.6-1.08-3.09-2.05-.72-1.41-.7-3.21-1-4.84,1.5-.1,3.08-.56,4.47-.22,2.08.5,4,1.82,6,2.33,11.45,2.78,22.91,5.54,34.41,8.06,5.84,1.28,11.78,2.05,17.68,3.05a4.44,4.44,0,0,0,5.47-3.3c1.39-4.31,3.2-8.59,3.75-13,1.39-11.22,6.68-20.13,14.92-27.46,2.83-2.51,5.81-5.13,9.19-6.67,10.94-5,22.8-6.92,34.44-9.5,4.54-1,7.15,2,5.47,6.36-2,5.21-4.38,10.31-6.81,15.35-6,12.42-16.44,20.57-27.45,28-5.36,3.63-11.19,6.56-17.51,10.21C1083.49,280.76,1101.14,276.55,1118.88,273.11Zm-16.65,39.38a17.12,17.12,0,0,1-3.31-4.28c-5.5-8.79-13.62-13.79-23.5-16.13-5.19-1.24-10.34-3.17-16.39-2.17,4.44,7.36,9.35,13.54,16.84,16.94,8.84,4,16.44,9.75,23.86,15.86,2.45,2,5.39,3.4,8.77,5.49C1107.36,322,1107.08,316.42,1102.23,312.49Zm3-80.76c-4.6,3.63-8.4,6.47-12,9.53-5.51,4.65-10.8,9.56-16.35,14.15-4.73,3.91-7.58,9-11,15.17C1081.85,265.85,1101.33,246.79,1105.23,231.73Zm109.8,5a136.18,136.18,0,0,0,6.74-14.17c2.86-6.6,5.52-13.29,8.27-19.94-16.9,6.63-23.17,22-22,42.25C1210.73,241.84,1213.39,239.6,1215,236.76Zm-53.45-16.14c-14.43,4.6-27.52,24.09-26,37.87C1146.88,247.75,1152.9,233.81,1161.58,220.62Zm166.33-29.54c-14.47,2.21-29,4.28-39,18A147.65,147.65,0,0,0,1327.91,191.08Zm-263.69,60.46c-3,3.85-4.28,8.94-4.2,14.28,6.18-13.59,19.12-20.73,29.79-31.2C1077.36,235.89,1070.5,243.56,1064.22,251.54Zm70.58,35.35c4.76,5.84,10.08,8.73,16.37,9.08,7.55.42,15.13.08,22.7.07,0-.2,0-.4,0-.61Zm28-52.78c-1.63,1.48-2.71,2-3.11,2.9-3.93,8.58-8.51,16.69-15.75,23-1.22,1.06-1.2,1.64-1,4.1C1154.89,258.22,1159.9,247.73,1162.78,234.11ZM1242.39,262l-37-.79c0,.38,0,.76,0,1.14C1217.46,264.94,1229.45,267.91,1242.39,262Zm-23.62-8.58c10.17,2.51,19.28.4,28.45-1.22C1238,250.57,1228.69,247.93,1218.77,253.44Zm-155.6,54.19c3.85,12,14.42,13.55,24.28,16.16C1080.73,316.44,1070.6,314.33,1063.17,307.63Zm80.61-26.92c9,1.44,17.27,6.05,26.66,5.32C1162.14,281.18,1152.9,281.26,1143.78,280.71Z" transform="translate(-93.62 -70.99)"/><path class="cls-1" d="M387,281c-6.32-3.65-12.15-6.58-17.51-10.21-11-7.46-21.48-15.61-27.45-28-2.43-5-4.79-10.14-6.81-15.35-1.69-4.38.93-7.37,5.47-6.36,11.64,2.58,23.5,4.53,34.44,9.5,3.38,1.54,6.36,4.16,9.18,6.67,8.25,7.33,13.53,16.24,14.93,27.46.55,4.43,2.36,8.71,3.74,13a4.45,4.45,0,0,0,5.48,3.3c5.9-1,11.84-1.77,17.67-3.05,11.51-2.52,23-5.28,34.42-8.06,2.08-.51,4-1.83,6.05-2.33,1.39-.34,3,.12,4.47.22-.3,1.63-.28,3.43-1,4.84-.49,1-1.94,1.61-3.09,2.05a72,72,0,0,1-8.78,2.87c-11.81,2.81-23.63,5.57-35.5,8.12-5.1,1.1-10.33,1.63-15.45,2.41-2.41,11.35-9.59,19.66-15.59,28.69-4.54,6.85-10.85,10.28-18.51,12.26-4.18,1.08-8.08,3.23-12.21,4.57-5.83,1.89-11.77,3.43-17.64,5.2-2.75.84-5.4,2.11-8.19,2.7-1.56.33-4,.24-4.82-.71s-.74-3.56,0-4.78a57.23,57.23,0,0,0,7.1-18.67,16.73,16.73,0,0,1,2.9-6.33,110.84,110.84,0,0,1,10.25-12.57c3.41-3.43,7.54-6.13,11.41-9.09a29.33,29.33,0,0,1,3.45-1.92c-.55-.63-.82-1.24-1.19-1.31-7.84-1.45-15.7-2.78-23.53-4.28-3.1-.59-5.38.15-7.86,2.3-5.48,4.73-11.26,9.13-17.15,13.34-8,5.71-17.23,6.23-26.57,5.69-14.23-.81-28.44-1.86-42.7-1.43-1.25,0-2.71.17-3.7-.4s-2.43-2-2.52-3.11a4.3,4.3,0,0,1,2-3.34c12.25-6.2,24.05-13.41,37.63-16.67,6.09-1.46,12-3.49,18.2-5.31a13.76,13.76,0,0,0-2.74-1.73c-8.73-3.05-17.48-6-26.24-9a8.29,8.29,0,0,0-7.55.9c-8.06,4.63-17,7-26.18,8.62-14.42,2.58-27.54-2-41-5.65-9.23-2.51-18.71-4.12-28.06-6.17a10.23,10.23,0,0,1-4-1.37c-2-1.54-1.7-4.08.47-5.42a8.39,8.39,0,0,1,2.54-.91c8.83-1.93,17.62-4.07,26.51-5.66,8.19-1.47,16.49-2.36,24.75-3.43a8.79,8.79,0,0,1,2.69.53c0-.68,0-1.36,0-2-3.7-2-7.38-4-11.09-6-1.44-.76-3-1.33-4.43-2.09-11.51-6.06-11.53-6.35-24.16-5.42-9.16.68-17.71-1.28-26-4.65S137,216.19,129,212.06a46,46,0,0,1-10.36-7.8c-2.43-2.31-5.2-3.66-8-5.24-4.89-2.73-9.47-6-14.1-9.2-1.84-1.27-3.4-3-2.64-5.49s2.94-2.88,5.27-2.86c16.58.17,33,1.78,48.72,7.33,7.47,2.63,13.24,8.09,19,13.35,4.29,3.9,8.51,7.87,12.89,11.67a15.82,15.82,0,0,0,5.43,3.54c10.17,3,19.14,8.54,28.59,13.09a20.47,20.47,0,0,0,3.71.82c-2.61-6.9-5-13.1-7.29-19.34-1.86-5.07-3.55-10.21-5.42-15.28-.49-1.33-1.42-2.49-2-3.78-1.51-3.28-.09-5.93,3.5-6.15a12.74,12.74,0,0,1,5.28.88c11.32,4.43,21,11.54,29.55,19.92,4.91,4.82,6.86,11.9,8.23,18.64a144.48,144.48,0,0,1,2.12,18.24c.24,3.12,1.28,5,4.39,5.94,8.28,2.63,16.5,5.47,24.73,8.28,4.43,1.51,8.82,3.12,13.54,4.37-9.58-10.67-11.56-24.16-14.84-37.16-1-3.83-2.81-7.42-3.92-11.21-.52-1.75-1-4.3-.09-5.44a5.72,5.72,0,0,1,5.24-1.32,159.65,159.65,0,0,1,18.72,8.56c8.85,4.91,14.63,12.52,18.69,21.86,2.9,6.66,6.4,12.82,6.59,20.45.09,3.62,2,7.32,3.61,10.72a7.26,7.26,0,0,0,4.33,3.66C350.13,276.55,367.78,280.76,387,281Zm-44.2,47.25c3.38-2.09,6.33-3.49,8.77-5.49,7.43-6.11,15-11.84,23.86-15.86,7.49-3.4,12.41-9.58,16.85-16.94-6.06-1-11.2.93-16.39,2.17-9.88,2.34-18,7.34-23.51,16.13a16.86,16.86,0,0,1-3.3,4.28C344.19,316.42,343.91,322,342.76,328.2Zm42.7-57.62c-3.46-6.13-6.31-11.26-11-15.17-5.55-4.59-10.84-9.5-16.35-14.15-3.63-3.06-7.43-5.9-12-9.53C349.94,246.79,369.41,265.85,385.46,270.58ZM243.23,244.9c1.16-20.2-5.1-35.62-22-42.25,2.75,6.65,5.41,13.34,8.27,19.94a134.17,134.17,0,0,0,6.74,14.17C237.88,239.6,240.54,241.84,243.23,244.9Zm72.44,13.59c1.54-13.78-11.55-33.27-26-37.87C298.37,233.81,304.39,247.75,315.67,258.49ZM162.33,209.12c-10-13.76-24.5-15.83-39-18A147.71,147.71,0,0,0,162.33,209.12Zm199.12,25.5c10.67,10.47,23.62,17.61,29.8,31.2.08-5.34-1.19-10.43-4.21-14.28C380.77,243.56,373.91,235.89,361.45,234.62Zm-84.09,60.81c0,.21,0,.41,0,.61,7.56,0,15.15.35,22.7-.07,6.29-.35,11.61-3.24,16.37-9.08Zm31-31.31c.18-2.46.19-3-1-4.1-7.25-6.32-11.82-14.43-15.75-23-.4-.87-1.48-1.42-3.11-2.9C291.37,247.73,296.38,258.22,308.37,264.12Zm-62.56-1.75,0-1.14-37,.79C221.82,267.91,233.81,264.94,245.81,262.37Zm-41.76-10.15c9.17,1.62,18.28,3.73,28.45,1.22C222.58,247.93,213.26,250.57,204.05,252.22Zm159.76,71.57c9.87-2.61,20.43-4.17,24.29-16.16C380.67,314.33,370.54,316.44,363.81,323.79Zm-83-37.76c9.4.73,17.69-3.88,26.67-5.32C298.36,281.26,289.13,281.18,280.82,286Z" transform="translate(-93.62 -70.99)"/><path class="cls-2" d="M638.72,251.38c-6.91,5.1-14.29,4.95-21.44,2.73-9.54-3-19.16-5.45-28.9-7.66-11.29-2.57-17.19-11-21.51-21-7.22-16.73-7-34.48-4.64-51.67,1.83-13.39,11.25-23.92,21.61-32.82a23,23,0,0,0,2.18-1.69c14.17-15.65,33.7-15.95,52.5-18.26,2.77-.35,5.46.57,8,1.67,4.82,2,9.73,3.74,15.07,3.86a18.4,18.4,0,0,1,8.65,2.92c2.5,1.43,4.25,1,4.54-1.94.73-7.74,5.29-14,8.14-20.87,3.41-8.22,10.56-13.48,17.65-18.35,6.44-4.44,13.28-8.29,20-12.25,10.1-5.93,20.94-5.95,32-3.67,4.64,1,9.4,1.45,13.77,3.53,8.37,4,15.42,9,18.79,18.42,2,5.7,6.19,10.55,7.29,16.8.51,2.89,2.69,1.93,4.27.85,11.92-8.11,25.69-8.2,39.29-9.57,22.13-2.21,39.14,8.32,55.81,20.7,11.7,8.69,16.09,20.42,16.43,34.31.1,3.84,0,7.69.18,11.52,1,23.42-10.29,39.32-30.24,50-10.06,5.41-20.73,8.49-32.22,8-4.29-.17-5.5,1.76-4.86,5.57,2.28,13.44,2,27.28,6.25,40.42a9.06,9.06,0,0,1-.56,6.58c-1.59,3.85-.62,8.22.22,12.16,1.34,6.31-.84,10.37-5.77,14.2-13.34,10.36-28.53,16.2-44.57,20.93-9.88,2.92-19.92,4.51-29.79,7-18.41,4.59-36.8,6.44-55.59,4.42-12.06-1.31-24.25-.65-36.25-2.63-3.78-.63-7.53-1.48-11.29-2.23-10.4-2.06-14.33-7.72-15.76-18.24-2.21-16.21-1.33-32.85-6.93-48.63C639.47,261.88,639.5,256.62,638.72,251.38Zm133.8,37.93c7.8-3,16-3.83,24.13-5.15,3.77-.62,8-1.51,9.81-5.9.5-1.2,1.75-1.21,2.79-.63,1.87,1,3.61.36,5.31-.32,6-2.4,12-4.48,17.55-8,2.31-1.46,3.27-2.76,2.87-5.45-1.51-10.18-1.94-20.46-2.42-30.73-.28-6-.46-12-1.68-17.83a48,48,0,0,1,.28-20.5c.39-1.74,1.13-3.34,3.17-3.44,2.22-.11,2.8,1.75,3,3.4.68,4.39,1.21,8.81,1.67,13.23.81,7.7,2.53,9.15,10.31,9.79,14.39,1.18,26.52-3.95,37.19-13a42.75,42.75,0,0,0,14.55-25.54c1.43-8.45.06-17.43-.59-26.14-.59-7.76-2.7-14.93-8.86-20.6-8.81-8.11-19.41-13.4-29.39-19.68-1.85-1.17-4.35-1.5-6.61-1.8a119.66,119.66,0,0,0-35.8.27c-11.52,1.94-22.48,5.19-28,17.32-1.29,2.87-4.4,2.69-6.25-.12a20.41,20.41,0,0,1-3.74-10.73,47.68,47.68,0,0,0-3.76-16.07c-4.95-12.47-11.59-16.72-25-16.75a73.45,73.45,0,0,0-26.08,4.54c-14.43,5.33-27.74,11.5-37,24.71-4.74,6.74-7,13.5-6.22,21.42.67,7-1.08,8.38-7.71,5.86-4.69-1.78-8.51-5.12-13.65-6.39a84.69,84.69,0,0,0-24.11-2.59c-6,.27-12,0-17.87,1.17-16.06,3.12-29.59,11-40.8,22.55-5.22,5.38-9.35,12.21-9.52,19.95-.32,14.59.47,29.15,5.64,43.11,2.06,5.55,5.16,10.46,10.3,13.12a287.79,287.79,0,0,0,30,13.91c11.22,4.27,21.38-4.78,19.88-16.9a35.9,35.9,0,0,1-.52-4.1c0-3.66,2.76-5.23,5.56-5.77,2.64-.5,3.28,2.25,3.85,4.32a22.56,22.56,0,0,1,.67,4.08,204.29,204.29,0,0,0,6.75,38.49c.78,2.85,1.36,5.4,4.65,6.74,2.29.93,3.32,3.51.09,4.62-2.79,1-3.52,2.32-3.29,5,.27,3.22,2.42,3.76,5,4.33,18.65,4.12,37.58,5.54,56.61,6.12,4.92.16,9.88,1.16,11.37-5.59.23-1,1.61-1.8,2.46-2.68,5-5.15,11.38-7.21,18.19-8,7.92-.9,16-1.75,23.53,1.8C776.59,281.48,776.94,285,772.52,289.31ZM742.6,304.85c.95,5.9.9,11.89,1.35,17.85.14,1.83-.15,4.79,2.31,4.95a28.94,28.94,0,0,0,13.93-2.28c1.68-.75,1.6-2.5,1.41-4-.68-5.48-1.25-11-2.18-16.4-1.23-7.18-1.36-7.14-8.57-5.69a21,21,0,0,1-4.1.5C743.26,299.77,742.18,301.66,742.6,304.85Zm51.26-13.09c-3.18.51-6.36,1-9.53,1.53-1.65.29-3.17,1.18-2.87,3,1.08,6.65,1.31,13.75,4,19.74,2,4.49,7-.4,10.76-.24,1.82.08,4.91-.12,4.73-3.17a76.62,76.62,0,0,0-3.77-18.85C796.65,292.22,795.43,291.72,793.86,291.76ZM718,315.7h-.16c0-2.44,0-4.88,0-7.32.09-7.93.09-7.87-7.92-8.32-2.65-.15-4.13.65-4.14,3.46,0,7.64-.07,15.27-.07,22.91,0,1.85.63,3.13,2.77,3.52,7.62,1.35,9.21.19,9.51-7.39C718.12,320.28,718,318,718,315.7Zm6.33-4.56h0c0,2.29-.06,4.58,0,6.86s.35,4.57.44,6.86c.11,2.64-.22,5.36,3.86,5.24,7.22-.22,9.25-1.39,9-6.07-.43-7-1.13-14-1.66-21a3,3,0,0,0-3.1-3.19c-6-.6-8.39,1.37-8.47,7.2C724.36,308.4,724.37,309.77,724.37,311.14Zm113-22.67c0-3.37.1-6.75-1.38-10-.7-1.53-1.51-2.42-3.09-1.26-2.66,2-5.83,2.72-8.84,3.82-4.08,1.49-4.75,4.39-3.75,8.11s2.28,7.34,3.07,11.08c.63,3,2.14,3.2,4.64,2.4C834.49,300.62,837.47,296.19,837.36,288.47ZM684.25,312.32H684c0-3.81.19-7.64-.05-11.44-.27-4-3.89-3.16-6.34-3.7-2-.44-3.82.32-3.93,2.7-.35,7.31-1.09,14.69,0,21.94.67,4.39,5.19,3.61,8.31,3.74s2.18-2.72,2.25-4.53C684.33,318.13,684.25,315.23,684.25,312.32Zm5.8-3.28c.23,4.23.49,9.72.83,15.2.27,4.38,4,4.4,6.8,4.52,3,.13,2-2.86,2-4.64,0-6.39-.8-12.8.08-19.15.53-3.88-.47-5.64-4.54-6.05-4.23-.42-5.59,1.28-5.18,5.19C690.16,305.32,690.05,306.55,690.05,309Zm-32.42-.77c0,4.56-.19,7.64,0,10.69.3,3.81,3.65,3.09,6,3.48,2.65.42,2.88-1.51,3-3.53.26-6.74-.38-13.51.64-20.24.31-2-.8-3.16-2.73-3.56-1.66-.35-3.34-.6-5-1.05-2.71-.75-3.92-.05-3.07,2.89A37.88,37.88,0,0,1,657.63,308.27Zm107.59-7.58a180.4,180.4,0,0,1,2.48,19.1c.26,3.07,2.92,3.29,5.3,2.75s6.09-.3,5.62-3.94a176.19,176.19,0,0,0-3.88-19.8c-.92-3.69-4.09-1.37-6.24-1.4C766.6,297.38,764.74,298,765.22,300.69Zm52.47,2.45a61.86,61.86,0,0,0-3.34-13.1c-.64-1.73.23-5.4-3.29-3.79-2.93,1.34-8.36,1.21-7.27,6.52,1,5.11,2.17,10.2,3.06,15.33.16.9.2,2.26,1.11,2.36,2.86.32,5.18-1.49,7.72-2.43C817.57,307.33,817.92,305.67,817.69,303.14Z" transform="translate(-93.62 -70.99)"/><path class="cls-2" d="M693.6,181.46c0,1.86-.5,3.29-2.17,3.88a3.19,3.19,0,0,1-4.24-1.72,48,48,0,0,1-5.08-22.15c0-1.75.69-3.45,2.72-3.77,1.74-.27,2.89.89,3.59,2.34a8.46,8.46,0,0,1,1.13,3.45c0,5.76.9,11.26,3.69,16.38A5.44,5.44,0,0,1,693.6,181.46Z" transform="translate(-93.62 -70.99)"/><path class="cls-2" d="M774.66,166.74c2.27-5.56,3-12.55,6.46-18.58,1.1-1.88,2.61-3.76,5.16-2.57s1.37,3.21.87,5.15a146.41,146.41,0,0,1-5.77,18.36c-.73,1.8-2,3.27-4.18,2.86S774.73,169.55,774.66,166.74Z" transform="translate(-93.62 -70.99)"/><path class="cls-2" d="M640.61,188.44a2.27,2.27,0,0,1-1.78,2.37,2.84,2.84,0,0,1-3.16-1.36c-2.08-2.84-4.07-5.75-6.2-8.56-1.74-2.3-3.31-4.78-6.26-5.9-2.5-.94-2.64-2.92-1.3-4.85,1.56-2.25,3.66-1.47,5.15,0a77.34,77.34,0,0,1,10.92,13C639.05,184.8,640.47,186.31,640.61,188.44Z" transform="translate(-93.62 -70.99)"/><path class="cls-2" d="M874.68,145.75a2.7,2.7,0,0,1-1.54,2.15q-4.33,2.06-8.74,4a2.54,2.54,0,0,1-3-.51,2.72,2.72,0,0,1-.59-3c1.08-3.48,8.87-6.77,12.2-5.14A2.48,2.48,0,0,1,874.68,145.75Z" transform="translate(-93.62 -70.99)"/><path class="cls-2" d="M878.89,172.66c-1.52-.09-2.86-.09-3.38-1.48a2.84,2.84,0,0,1,1.47-3.51,23.94,23.94,0,0,1,9-3.17,3,3,0,0,1,3.43,2.4c.38,1.41-.51,2.32-1.69,2.9A28.49,28.49,0,0,1,878.89,172.66Z" transform="translate(-93.62 -70.99)"/><path class="cls-2" d="M594.58,201.92a13.2,13.2,0,0,1-6.33-3.32c-1.13-1.18-1.9-2.44-.8-4a2.91,2.91,0,0,1,4-1.1c1.79.84,3.56,1.7,5.3,2.62,1.54.81,3,1.8,2.1,3.87C598,201.72,596.42,202.12,594.58,201.92Z" transform="translate(-93.62 -70.99)"/><path class="cls-2" d="M715,116.72c0-2-.09-4.31,2.6-4.52,2.51-.19,2.5,2.08,3,3.83s1.07,3.15,1.45,4.77c.32,1.36.36,2.82-1.27,3.47a2.91,2.91,0,0,1-3.59-1.21A10.53,10.53,0,0,1,715,116.72Z" transform="translate(-93.62 -70.99)"/><path class="cls-2" d="M872.86,159c-1.32,0-3.18-.76-3-2.71.39-4.28,4.3-4.17,7.28-4.88,2.11-.51,3.6.58,3.85,2.84C881.19,156.12,876.71,158.87,872.86,159Z" transform="translate(-93.62 -70.99)"/><path class="cls-2" d="M839.72,136.41c-.74,1.48-1.62,3.43-2.68,5.27-.69,1.2-1.69,2.44-3.31,1.58a3.11,3.11,0,0,1-1.62-3.9c.57-1.74,1.42-3.38,2.07-5.09s1.38-3.34,3.55-2.59C839.61,132.32,839.84,134.1,839.72,136.41Z" transform="translate(-93.62 -70.99)"/><path class="cls-2" d="M602.88,189.61c-.09,1.72-1.36,2.54-3.07,2.23-3.23-.58-6.45-1.57-7.32-5.28-.43-1.81.94-2.78,2.74-2.92C597.93,183.43,602.79,187.07,602.88,189.61Z" transform="translate(-93.62 -70.99)"/><path class="cls-2" d="M670.05,275.13c3,.12,7.6,8.13,6.44,10.18a2.24,2.24,0,0,1-2.28,1.19c-1.46-.13-2.9-.75-3.22-2.16a13.35,13.35,0,0,0-2.63-5.5C666.87,276.9,668.55,275.62,670.05,275.13Z" transform="translate(-93.62 -70.99)"/><path class="cls-2" d="M735.05,116.48c.09,2.38-.61,4.21-3,3.9-3.29-.44-3.78-3.34-3.85-5.95-.05-2.05,0-5,3.06-4.64C735.35,110.22,734.08,114.24,735.05,116.48Z" transform="translate(-93.62 -70.99)"/><path class="cls-2" d="M751.66,111.2c-.39,2.11.34,5.15-2.86,5.32-2.55.13-3.56-2.16-3.42-4.48.16-2.51,1-5.16,4-5.13C751.94,106.94,751.41,109.46,751.66,111.2Z" transform="translate(-93.62 -70.99)"/><path class="cls-2" d="M811.59,238.4a13.5,13.5,0,0,1,4.83,6.6c.53,1.45-.77,2.7-2.4,2.52-3.12-.34-4.87-2.36-5.3-5.37C808.45,240.29,809.31,238.91,811.59,238.4Z" transform="translate(-93.62 -70.99)"/><path class="cls-2" d="M683.62,281.3c.84-1.86-.24-5.17,3.32-5.39,2-.13,3.75,1.18,3.43,3.3-.37,2.5-1.36,5.22-4.43,5.49C684.14,284.86,683.55,283.18,683.62,281.3Z" transform="translate(-93.62 -70.99)"/><path class="cls-2" d="M610.27,176.7c-.42,1.92-1.47,3-3.23,2.55A6.22,6.22,0,0,1,602.1,174c-.19-1.61.84-3.11,2.79-2.63A7.39,7.39,0,0,1,610.27,176.7Z" transform="translate(-93.62 -70.99)"/><path class="cls-2" d="M811.06,257.91c-.13,1.54-.56,3-2.36,2.64a4.28,4.28,0,0,1-3.61-4.1c-.1-1.54.66-2.8,2.38-2.6C809.79,254.11,810.61,255.92,811.06,257.91Z" transform="translate(-93.62 -70.99)"/><path class="cls-2" d="M799.9,273.69a2.46,2.46,0,0,1-2.6,2.66c-2,0-3-1.31-3.25-3.18-.15-1.34.36-2.55,1.91-2.57A3.94,3.94,0,0,1,799.9,273.69Z" transform="translate(-93.62 -70.99)"/><path class="cls-2" d="M820.7,261.42a3.39,3.39,0,0,1,3.17,3.39c.1,1.49-.58,2.88-2.25,2.91-2.09,0-2.79-1.69-3.1-3.38S819.22,261.82,820.7,261.42Z" transform="translate(-93.62 -70.99)"/><path class="cls-2" d="M661.11,268.77c-.49,2-2,2.52-3.8,2.45-1.44-.05-2.94-.43-2.73-2.26.23-2,1.8-2.66,3.67-2.55C659.73,266.5,660.92,267,661.11,268.77Z" transform="translate(-93.62 -70.99)"/><path class="cls-2" d="M796.39,134.88a2.05,2.05,0,0,1-2.18,2.36c-1.67,0-2.41-1.14-2.52-2.65a1.79,1.79,0,0,1,1.85-2.12A2.78,2.78,0,0,1,796.39,134.88Z" transform="translate(-93.62 -70.99)"/><path class="cls-2" d="M821.17,234.08c-.23,1.61-1,2.54-2.41,2.55-1.78,0-2.37-1.31-2.24-2.82a2.22,2.22,0,0,1,2.55-2.1C820.59,231.81,821,233,821.17,234.08Z" transform="translate(-93.62 -70.99)"/><path class="cls-2" d="M709.07,220.76c1.43.1,2.28.64,2.41,1.86a1.77,1.77,0,0,1-1.77,2.12A1.79,1.79,0,0,1,707.6,223,1.86,1.86,0,0,1,709.07,220.76Z" transform="translate(-93.62 -70.99)"/></svg>