<svg id="Layer_1" data-name="Layer 1" xmlns="http://www.w3.org/2000/svg" viewBox="0 0 727.17 330.04"><defs><style>.cls-1{fill:#d69346;}.cls-2{fill:#f0ac55;}.cls-3{isolation:isolate;font-size:88.06px;fill:#fff;font-family:Kalam-Regular, Kalam;}.cls-4{fill:#f1ab53;}</style></defs><polygon class="cls-1" points="118.15 330.04 0 330.04 32.33 262.68 0 195.33 118.15 195.33 118.15 330.04"/><polygon class="cls-1" points="609.02 195.33 727.17 195.33 694.84 262.68 727.17 330.04 609.02 330.04 609.02 195.33"/><rect class="cls-2" x="59.07" y="159.97" width="609.02" height="134.71"/><text class="cls-3" transform="translate(163.3 252.84)">Ingredients</text><path class="cls-1" d="M802.75,84.09a3.79,3.79,0,0,0-.24-1.87c-1.55-4.68-3.2-9.33-4.71-14a61.32,61.32,0,0,1-1.49-6c-.92-4.37-1.64-8.78-2.7-13.11-1.16-4.76-1.55-9.37.33-14.09,2.2-5.49,4.31-6.15,8.62-2.16A8.8,8.8,0,0,1,804.62,36c2.62,6.69,5.26,13.37,7.65,20.14,2.45,7,2.85,14-2.75,19.73-3.36,3.42-3.37,7.15-3.33,11.31,3.23-2.8,6.08-5.62,9.3-7.93a18.71,18.71,0,0,1,6.5-2.66c2.06-.49,4.33-.16,5.22,2.25.83,2.23-.76,3.61-2.36,4.74-4.56,3.22-9.28,6.21-13.72,9.59-2.72,2.08-6,4.27-7.29,7.18-2.49,5.8-3.72,12.13-5.43,18.12a10.59,10.59,0,0,0,9.51-6.15,12.9,12.9,0,0,1,4.73-4.6c2.69-1.65,4.71-.35,4.63,2.83-.06,2.5-.53,5-.83,7.54,4.77,1,9.34,1.71,13.77,2.91,1.45.39,3.62,2.06,3.58,3a7,7,0,0,1-2.76,4.61,13.42,13.42,0,0,1-14,1.55c-2-.86-4.11-1.36-6.31-2.07-1.56,3.72-2.87,7-4.28,10.17-3.15,7.16-8.18,11.68-16.46,11.75a5.49,5.49,0,0,0-3.49,1.12c-2.51,2.4-5.56,2.84-8.76,3.34a9.63,9.63,0,0,0-5.15,2.14c-5.75,5.73-11.22,11.72-16.84,17.58a31.44,31.44,0,0,1-2.94,2.44l-.89-.7a9.25,9.25,0,0,1,.84-2.93c2.19-2.95,4.12-6.31,6.92-8.53,8-6.38,13.5-14.87,19.82-22.67a9.76,9.76,0,0,0,2.17-8,33.43,33.43,0,0,0-6.71-15.64c-2-2.69-4.33-5.14-6.22-7.89-2.08-3-2.87-6.4-1.37-10,2.15-5.13,5.55-5.9,9.51-2a9.68,9.68,0,0,1,2.46,3.46q3.44,9.92,6.53,20c.86,2.82,1.3,5.76,2.09,9.37,1.31-2.29,2.23-3.94,3.19-5.56,2.57-4.36,3.23-8.56-.71-12.58a12.9,12.9,0,0,1-2.8-3.87c-1.27-3.05-3.1-6.25-3.05-9.37a12,12,0,0,0-3.15-8.47,11.74,11.74,0,0,1-2.95-9.78c.34-2,1.29-3.64,3.42-4.21s3.65.65,4.8,2.33c.86,1.23,1.65,2.52,2.73,4.17a36,36,0,0,1,2.44-3.61c1.31-1.49,3.14-2.94,5-1.75a5.4,5.4,0,0,1,1.93,4.37,54.21,54.21,0,0,1-2.67,10.11c-1.43,4-1.18,5,3.38,7.75C800.58,95,801.7,89.53,802.75,84.09Zm4.94-29.62c-2.63-5.27-4.83-10.76-7.26-16.13-.44-1-1.1-1.84-2-3.38a12.2,12.2,0,0,0-1.76,8.2c1.27,7.86,2.89,15.67,4.39,23.49a26.66,26.66,0,0,0,1.08,2.9c1.69-5-.59-9.19.15-13.11,2.83-1.19,3.8.22,4,2.46.39,4.26.66,8.55,1,13.89C810,66.09,810.66,60.4,807.69,54.47ZM793.47,138.7l5-1.44c1,5.16-5.24,4.3-5.75,7.81,5.82-.09,10.67-6.46,14-18.4C801.65,125.25,796,130.24,793.47,138.7Zm-20.35-38.32c-2.7,3.37-2.93,6-.53,9.16,2.63,3.5,5.59,6.75,8.4,10.1C778.22,113.29,779.39,105.27,773.12,100.38Zm14.23,42.45c1.88-6.08,4.52-11.89,9.44-16.29a5.39,5.39,0,0,0-.79-.62c-.14,0-.37-.07-.45,0a7,7,0,0,0-1.32,1.29c-5.06,7.5-10.08,15-15.37,22.92C783.25,149,786,147.08,787.35,142.83Zm22.73-20.73c-.09.29-.19.58-.29.87,2.09.81,4.14,1.74,6.27,2.41,1.81.56,3.8.57,5.53,1.27,2.42,1,4.28.43,6.77-1.77Zm-22.14-31-4.17-9.31C782.28,86.75,783,88.35,787.94,91.13Z" transform="translate(-356.42 -30.27)"/><path class="cls-1" d="M692.27,85.71c.35-2,1.88-3.69,3.49-5.3a1.66,1.66,0,0,1,2.12-.18,1.63,1.63,0,0,1,.72,2,18.42,18.42,0,0,1-3.81,6.36,1.29,1.29,0,0,1-1.87.11C692,88,692,87.09,692.27,85.71Z" transform="translate(-356.42 -30.27)"/><path class="cls-1" d="M665.75,71.34c.06,1.42-1,2.39-1.81,3.31s-1.8.14-2-.73a12,12,0,0,1,.41-6.88,1.59,1.59,0,0,1,1.71-1.23c.87.13,1.2.85,1.43,1.59A8.7,8.7,0,0,1,665.75,71.34Z" transform="translate(-356.42 -30.27)"/><path class="cls-1" d="M715.55,81.4c-.31,1.28-1,2.41-2.66,2.08a2.37,2.37,0,0,1-2-2.94c.2-1.56,1.54-2.75,2.77-2.52S715.85,79.69,715.55,81.4Z" transform="translate(-356.42 -30.27)"/><path class="cls-1" d="M664.29,94.86c.11-.37.22-.77.36-1.16.34-.9.84-1.68,2-1.44s1,1.22,1.11,2a5.52,5.52,0,0,1-1,3.12,1.35,1.35,0,0,1-1.67.86c-.73-.22-.85-.83-.83-1.5S664.27,95.51,664.29,94.86Z" transform="translate(-356.42 -30.27)"/><path class="cls-1" d="M701.31,62.94c-.42,1.17-.87,2.56-2.54,2.41-1.36-.12-1.79-1.2-1.58-2.46.24-1.47,1.08-2.47,2.66-2.34C701.16,60.65,701.48,61.65,701.31,62.94Z" transform="translate(-356.42 -30.27)"/><path class="cls-1" d="M679,70.18c.49-1.24.91-2.59,2.28-3.25a.92.92,0,0,1,1.26.43c.63,1.47-.25,2.65-1,3.81-.41.68-.92,1.55-1.94,1.09C678.76,71.87,678.93,71,679,70.18Z" transform="translate(-356.42 -30.27)"/><path class="cls-1" d="M639.78,110a262.27,262.27,0,0,0,26.93.43c7.2-.21,14.41.06,21.61,0,14.6-.15,29.18.57,43.77.63,6.17,0,12.35-.14,18.53.06,4.73.15,5.38.8,5.32,5.54s-2.05,8.79-2.82,13.25c-1.16,6.73-3.52,12.93-8.7,17.76-2.37,2.21-3.23,5.56-5.7,7.79a34.74,34.74,0,0,1-11.19,7.05c-4.94,1.81-9.78,3.91-14.95,5a3.38,3.38,0,0,0-2.8,2.93c-1.11,4.59-2.42,5.55-7.14,5.69-5.54.16-11.08.29-16.61.5-2.49.09-4.59-.62-5.23-3.14-1.39-5.45-5.67-6.27-10.21-6.75A73.15,73.15,0,0,1,646,159.61c-5.93-2.9-9.51-8.14-12-13.74-4.2-9.57-5.33-19.93-5.43-30.33,0-5,.85-5.72,5.77-6.06A20.12,20.12,0,0,1,639.78,110ZM749.37,132c.67-4,.59-4.21-2.79-4.06-5.08.21-10.14.78-15.22.79-12,0-24-.36-36-.2s-24.19.48-36.3.2c-7.76-.18-15.52,0-23.28-.08-2.49,0-2.87,1.07-2.63,3.23a40.55,40.55,0,0,0,2.57,9.62c2.64,7.15,6.7,13,14.07,16.25,8,3.48,16.36,5.17,24.9,6.3,4.26.57,7.22,2.71,8.53,6.86.62,1.95,1.89,2.43,3.81,2.34,4.89-.23,9.8-.47,14.68-.34,2.91.08,4.54-.69,5-3.71s2-4.55,5.25-5.1c6.13-1,11.85-3.57,17.45-6.19,4.21-2,7.88-4.76,10.15-9.1a17.92,17.92,0,0,1,4.18-5.49C747.47,140.1,747.64,135.29,749.37,132Zm-6.27-12.68c2.76,1.14,5.11-.22,7.56-.43,1.36-.12,1.93-.7,1.91-2.11s-.55-2.3-2-2.42a38.48,38.48,0,0,0-4.41-.25c-8.13.28-16.28.22-24.36-.1-14.22-.58-28.43-.17-42.64-.73-10.33-.4-20.67.92-31,.15-4.42-.32-8.83-.7-13.24-1-2.69-.19-3.5,1.14-3.32,3.73.25,3.76.42,4.24,3.51,4.14,3.6-.13,7.19-.72,10.77-.64,11.92.28,23.82-.34,35.73-.46,14.58-.14,29.17-.17,43.76-.17C731.33,119,737.32,119.16,743.1,119.27Zm-8.43,6c5.51.2,10.42-.78,15.37-1.08a1,1,0,0,0,1-1.07c-.13-1-1-1-1.72-.92-4.69.62-9.39,0-14.07.28-.7,0-1.89-.52-1.76,1C733.59,124.44,734,125.3,734.67,125.31Zm-27.56-3c-3.22-.1-6.44-.2-9.66-.27-1.14,0-1.65.67-1.71,1.73s.63,1.38,1.59,1.4c3.22,0,6.44.15,9.66.17.82,0,1.77-.12,1.76-1.29S708.31,122.24,707.11,122.28Zm10.54,3.22c1.64,0,3.85,0,6.06,0,.95,0,2.21.33,2.25-1.25s-.91-2.06-2.33-2c-2.11.05-4.23.08-6.34.08-1,0-1.93-.13-2,1.23S715.87,125.41,717.65,125.5Zm-38.18.09,6.14-.14c.85,0,1.74-.06,1.78-1.22s-.39-1.85-1.51-2a23.17,23.17,0,0,0-7.1.33c-1,.2-1.23,1.05-1.18,1.94S678.36,125.46,679.47,125.59Zm-17,0v.14c1.92,0,3.83,0,5.75-.06.88,0,1.59-.32,1.56-1.46s-.58-1.66-1.7-1.63l-6.85.12a1.39,1.39,0,0,0-1.54,1.52c0,1,.59,1.24,1.41,1.28C661.55,125.49,662,125.53,662.46,125.56Zm-25.53-2.47c-.85,0-2,.06-3.23.15-.72.06-1.26.41-1.17,1.24a1.17,1.17,0,0,0,1.35,1.09c1.11,0,2.22,0,3.32-.12.83-.09,2.16.34,2.2-1S638.1,123.47,636.93,123.09Zm12.58-.21c-1.08,0-2.41-.42-2.74,1.3-.17.92.32,1.41,1.22,1.34,1.2-.09,2.8.52,3.33-1.07C651.72,123.21,650.46,123.11,649.51,122.88Zm43.08,1.17c0-.65,0-1.49-.86-1.75s-1.2.28-1.15,1.07-.21,1.62.73,1.88S692.44,124.86,692.59,124.05Z" transform="translate(-356.42 -30.27)"/><path class="cls-1" d="M657.54,141.63c-1-.28-1.6-.88-1.42-2s.84-1.91,2-1.75,1.48,1.2,1.32,2.27A1.58,1.58,0,0,1,657.54,141.63Z" transform="translate(-356.42 -30.27)"/><path class="cls-1" d="M715.39,154a1.74,1.74,0,0,1-1.55-1.95,1.67,1.67,0,0,1,3.33.28A1.6,1.6,0,0,1,715.39,154Z" transform="translate(-356.42 -30.27)"/><path class="cls-1" d="M660,156a1.51,1.51,0,0,1-1.39-1.73,1.73,1.73,0,0,1,2.07-1.65,1.23,1.23,0,0,1,1.22,1.49A1.87,1.87,0,0,1,660,156Z" transform="translate(-356.42 -30.27)"/><path class="cls-1" d="M645.32,141a1.51,1.51,0,0,1-1.19-1.89,1.58,1.58,0,0,1,2-1.41,1.42,1.42,0,0,1,1.18,1.85A1.66,1.66,0,0,1,645.32,141Z" transform="translate(-356.42 -30.27)"/><path class="cls-1" d="M728.5,146.22c1,.25,1.64.75,1.55,1.74s-.69,1.76-1.81,1.62a1.69,1.69,0,0,1,.26-3.36Z" transform="translate(-356.42 -30.27)"/><path class="cls-1" d="M699.5,163.78a1.64,1.64,0,0,1-1.41-1.82c0-1,.56-1.59,1.57-1.49a1.67,1.67,0,0,1-.16,3.31Z" transform="translate(-356.42 -30.27)"/><path class="cls-1" d="M689.74,137.41a1.41,1.41,0,0,1-1-1.95c.28-.83.89-1.47,1.87-1.19a1.39,1.39,0,0,1,1,1.94A1.6,1.6,0,0,1,689.74,137.41Z" transform="translate(-356.42 -30.27)"/><path class="cls-1" d="M705.87,140.85a1.52,1.52,0,0,1,1.22,1.93c-.15.77-.57,1.49-1.48,1.31s-1.23-1-1.16-1.94A1.34,1.34,0,0,1,705.87,140.85Z" transform="translate(-356.42 -30.27)"/><path class="cls-1" d="M680.79,146.59c-.15.89-.66,1.4-1.52,1.32a1.42,1.42,0,0,1-1.37-1.73,1.31,1.31,0,0,1,1.49-1.3A1.5,1.5,0,0,1,680.79,146.59Z" transform="translate(-356.42 -30.27)"/><path class="cls-1" d="M690.07,155.8a1.56,1.56,0,0,1-1.91,1.14,1.19,1.19,0,0,1-1-1.64,1.41,1.41,0,0,1,1.7-1.05A1.29,1.29,0,0,1,690.07,155.8Z" transform="translate(-356.42 -30.27)"/><path class="cls-1" d="M674.15,136.28c-.87-.25-1.53-.73-1.34-1.75a1.31,1.31,0,0,1,1.63-1.11,1.33,1.33,0,0,1,1.2,1.57A1.3,1.3,0,0,1,674.15,136.28Z" transform="translate(-356.42 -30.27)"/><path class="cls-1" d="M726.79,138.56c-.11.92-.54,1.35-1.28,1.27-1-.12-1.33-.84-1.27-1.75,0-.72.44-1.21,1.22-1.11C726.47,137.1,726.68,137.89,726.79,138.56Z" transform="translate(-356.42 -30.27)"/><path class="cls-1" d="M742.27,133.51a1.16,1.16,0,0,1,.91,1.44,1.13,1.13,0,0,1-1.35,1.06,1.22,1.22,0,0,1-1.08-1.6C740.92,133.68,741.53,133.45,742.27,133.51Z" transform="translate(-356.42 -30.27)"/><path class="cls-4" d="M849.27,194.52a18.63,18.63,0,0,1-.73,6.31c-.23.89-.53,1.94-1.72,1.92a2.17,2.17,0,0,1-2.08-1.85c-.45-2.88-.73-5.82.51-8.6.44-1,1-2.19,2.35-2s1.51,1.59,1.66,2.74A10.54,10.54,0,0,1,849.27,194.52Z" transform="translate(-356.42 -30.27)"/><path class="cls-4" d="M803.17,195.83c-.79-2.3,1.23-3.35,2.43-4.68.82-.91,2.84.09,3.08,1.43.51,2.8-.35,5.44-1.29,8-.39,1.07-1.73,1.07-2.61.09A5.21,5.21,0,0,1,803.17,195.83Z" transform="translate(-356.42 -30.27)"/><path class="cls-4" d="M820.27,194.11c.17,1.32-.4,2.88,0,4.56.26,1.12-1.12,2-2.18,2.38a1.6,1.6,0,0,1-2-1.45c-.23-2.73-1.16-5.51.36-8.18.45-.79.83-1.63,1.92-1.45a2.11,2.11,0,0,1,1.74,1.95C820.19,192.54,820.19,193.19,820.27,194.11Z" transform="translate(-356.42 -30.27)"/><path class="cls-4" d="M785.09,193.43c-.05-.94-.15-1.81.78-2.53,1.9-1.45,3.15-1,3.52,1.34.31,2,.77,4,.12,6.07-.29.92-.66,1.86-1.8,1.87s-1.78-.86-2-1.89C785.45,196.68,785.3,195.05,785.09,193.43Z" transform="translate(-356.42 -30.27)"/><path class="cls-4" d="M794.07,201.13c.56-1.77-.05-4.09,1.41-5.93,1.08-1.37,2.41-1.26,2.77.4.48,2.18,1.08,4.43.06,6.67-.5,1.09-.89,2.24-2.46,1.91S794,202.75,794.07,201.13Z" transform="translate(-356.42 -30.27)"/><path class="cls-4" d="M792.64,215.79a14.19,14.19,0,0,1,0-2.61c.22-1.07.85-2,2.09-2a1.79,1.79,0,0,1,1.79,2.15c-.22,2.13-.11,4.33-.94,6.38-.26.65-.59,1.38-1.42,1.36s-1-.79-1.26-1.46A8.62,8.62,0,0,1,792.64,215.79Z" transform="translate(-356.42 -30.27)"/><path class="cls-4" d="M839.93,194.44c-.13,1.25,0,2.77-1.29,3.84s-2.88.73-3-1.08a18.61,18.61,0,0,1,.69-6.24,1.47,1.47,0,0,1,1.39-1.15,1.61,1.61,0,0,1,1.41.89C839.86,191.78,839.8,193,839.93,194.44Z" transform="translate(-356.42 -30.27)"/><path class="cls-4" d="M845.7,181.62c-2-.14-2.33-.45-2.07-2.42.19-1.38.44-2.76.72-4.13.2-1,.84-1.19,1.72-.81a3.43,3.43,0,0,1,2,3.05c.17,1.48.16,2.94-1,4.11A1.35,1.35,0,0,1,845.7,181.62Z" transform="translate(-356.42 -30.27)"/><path class="cls-4" d="M803.36,213.2a8.07,8.07,0,0,1,.14-3.18,1.87,1.87,0,0,1,1.65-1.8c1.05-.11,1.62.7,1.77,1.62a9.11,9.11,0,0,1-.42,5.67c-.37.78-.92,1.42-1.91,1.18s-1.07-1-1.13-1.78C803.42,214.33,803.39,213.74,803.36,213.2Z" transform="translate(-356.42 -30.27)"/><path class="cls-4" d="M787.48,212.71a9,9,0,0,1-.09,3.54c0,.55-.2,1.06-.82,1.2a1.4,1.4,0,0,1-1.41-.52,4.17,4.17,0,0,1-1-2.93c0-1.52.18-3,.29-4.55,0-.69.28-1.32,1-1.43s1.3.43,1.6,1.11A8,8,0,0,1,787.48,212.71Z" transform="translate(-356.42 -30.27)"/><path class="cls-4" d="M796.52,181.23c.13,1.06.41,2.63-1.75,2.89a1.9,1.9,0,0,1-2.27-1.46,7.15,7.15,0,0,1,.93-5.54c.51-.94,1.73-.81,2.49.15S796.55,179.59,796.52,181.23Z" transform="translate(-356.42 -30.27)"/><path class="cls-4" d="M814.43,165.24a9,9,0,0,1-.63,3,1.77,1.77,0,0,1-1.61,1.15,1.7,1.7,0,0,1-1.69-1,5.86,5.86,0,0,1,0-4.9c.38-.76.94-1.56,2-1.38a2.09,2.09,0,0,1,1.77,1.9C814.34,164.43,814.38,164.9,814.43,165.24Z" transform="translate(-356.42 -30.27)"/><path class="cls-4" d="M795,163.42a2.25,2.25,0,0,1,2.12,1.32,3.53,3.53,0,0,1,.27,3.35,12.44,12.44,0,0,1-1.54,2.1c-.69.8-1.5.76-2-.14a6.35,6.35,0,0,1-.49-5.57A1.64,1.64,0,0,1,795,163.42Z" transform="translate(-356.42 -30.27)"/><path class="cls-4" d="M828,195.29a26,26,0,0,1,0-2.79,1.53,1.53,0,0,1,1.32-1.46c.89-.1,1,.67,1.44,1.24,1.43,2,1.2,3.9.17,5.9-.42.8-1,1.37-1.93,1.15s-1.13-.94-1.15-1.76,0-1.52,0-2.28Z" transform="translate(-356.42 -30.27)"/><path class="cls-4" d="M816.55,178a3.6,3.6,0,0,0,0,1.38c.72,1.72-.24,2.3-1.64,2.75a1.8,1.8,0,0,1-2.55-1.11c-.48-1.31-.85-2.74.63-3.76.39-.27.79-.48,1-.94.29-.76.73-1.42,1.66-1.19s1,1.18,1,2c0,.29,0,.58,0,.87Z" transform="translate(-356.42 -30.27)"/><path class="cls-4" d="M823.39,164.92a5.36,5.36,0,0,1-.44,3,1.6,1.6,0,0,1-2.61.59c-1.14-.91-1.62-3.67-.74-4.85.61-.82,1.32-1.84,2.56-1.41S823.57,163.77,823.39,164.92Z" transform="translate(-356.42 -30.27)"/><path class="cls-4" d="M829.64,212.91a5.4,5.4,0,0,1-.56,2.72c-.51.85-1,1.82-2.27,1.47-.86-.24-1.67-2.23-1.27-3.15a15.91,15.91,0,0,0,1-2.78c.16-.77.54-1.5,1.47-1.48s1.35.82,1.51,1.65A10.18,10.18,0,0,1,829.64,212.91Z" transform="translate(-356.42 -30.27)"/><path class="cls-4" d="M788.56,166.45c0,1.9-.88,3.29-2.14,3.33-1.44,0-2.33-1.22-2.34-3.29,0-1.91.75-2.93,2.19-3S788.55,164.62,788.56,166.45Z" transform="translate(-356.42 -30.27)"/><path class="cls-4" d="M833.4,163.83a5.45,5.45,0,0,1-.67,3.13,1.38,1.38,0,0,1-2.38.51c-1.4-1.21-1.13-5,.42-6s2.45-.64,2.63,1.26C833.43,163.06,833.4,163.41,833.4,163.83Z" transform="translate(-356.42 -30.27)"/><path class="cls-4" d="M807.38,179.55a6.35,6.35,0,0,1,0,.87c-.07,1.28-.62,2.43-1.91,2.55s-1.49-1.21-1.65-2.24c-.13-.81-.13-1.63-.25-2.43-.22-1.47.39-2.17,1.85-2.3s1.71.91,1.86,2a11.75,11.75,0,0,1,0,1.57Z" transform="translate(-356.42 -30.27)"/><path class="cls-4" d="M815.1,213.41c-.27-1.63-.17-2.81.78-3.8.42-.44.76-.94,1.44-.79a1.42,1.42,0,0,1,1.17,1.37,20.46,20.46,0,0,1-.38,5.06,1.57,1.57,0,0,1-1.75,1.18c-.84,0-1.17-.71-1.24-1.46A14.22,14.22,0,0,1,815.1,213.41Z" transform="translate(-356.42 -30.27)"/><path class="cls-4" d="M845.07,164.24a7.34,7.34,0,0,0,.19,1.38c.2.74.06,1.29-.66,1.58a1.29,1.29,0,0,1-1.68-.57,9.84,9.84,0,0,1-1-6.12,1,1,0,0,1,1.14-.86,2,2,0,0,1,1.74,1.29A8.55,8.55,0,0,1,845.07,164.24Z" transform="translate(-356.42 -30.27)"/><path class="cls-4" d="M844.14,216.35a7.17,7.17,0,0,1,.08-1c.17-.81,0-1.91,1.17-2.08s1.62.8,2,1.66a8.41,8.41,0,0,1,.44,4.3c-.2,1.31-1.07,1.55-2.12.69A3.87,3.87,0,0,1,844.14,216.35Z" transform="translate(-356.42 -30.27)"/><path class="cls-4" d="M785.16,179.54a8.3,8.3,0,0,1,.4-2.75,1.29,1.29,0,0,1,2.4-.3c1,1.65.65,3.49.63,5.25,0,.61-.73,1-1.44,1a1.72,1.72,0,0,1-1.69-1A5.12,5.12,0,0,1,785.16,179.54Z" transform="translate(-356.42 -30.27)"/><path class="cls-4" d="M801.7,165.64a2.48,2.48,0,0,1,.71-2c1.15-1.2,2.39-1,3,.53a3.75,3.75,0,0,1,.21,1.72c-.2,1.24-.25,2.71-2,2.86C802.39,168.83,801.68,167.62,801.7,165.64Z" transform="translate(-356.42 -30.27)"/><path class="cls-4" d="M836.57,178.63c-.19.63.62,2.05-.86,2.2-1.32.14-1.8-1.11-2.08-2.19a22.85,22.85,0,0,1-.49-3.09,1.31,1.31,0,0,1,.59-1.36c.55-.32,1,0,1.42.34C836.53,175.5,836.69,176.9,836.57,178.63Z" transform="translate(-356.42 -30.27)"/><path class="cls-4" d="M827,179.47a1.11,1.11,0,0,1-1,1.26c-.73.15-1.47.1-1.83-.64a5.88,5.88,0,0,1-.28-4.58,1.08,1.08,0,0,1,1.05-.78,1.4,1.4,0,0,1,1.25.83C826.93,176.77,826.66,178.18,827,179.47Z" transform="translate(-356.42 -30.27)"/><path class="cls-4" d="M835.91,214c.13-.88.22-1.81.42-2.72.16-.74.41-1.66,1.42-1.36a1.77,1.77,0,0,1,1.43,2.24,23.47,23.47,0,0,0-.68,2.31c-.18.78-.42,1.77-1.48,1.63S835.92,214.9,835.91,214Z" transform="translate(-356.42 -30.27)"/></svg>