<?xml version="1.0" encoding="utf-8"?>
<!-- Generator: Adobe Illustrator 25.3.1, SVG Export Plug-In . SVG Version: 6.00 Build 0)  -->
<svg version="1.1" id="Layer_1" xmlns="http://www.w3.org/2000/svg" xmlns:xlink="http://www.w3.org/1999/xlink" x="0px" y="0px"
	 viewBox="0 0 694.5 553.8" style="enable-background:new 0 0 694.5 553.8;" xml:space="preserve">
<style type="text/css">
	.st0{fill:#DDE3F2;}
	.st1{fill:#5BB572;}
	.st2{fill:#DDC194;}
	.st3{fill:#C4AE8A;}
	.st4{fill:#53537C;}
	.st5{fill:none;stroke:#3D3D59;stroke-width:2;stroke-miterlimit:10;}
	.st6{fill:#A3854A;}
	.st7{fill:#CEAD63;}
	.st8{fill:#EAD5AC;}
	.st9{fill:#6B6B87;}
	.st10{fill:#E0C7A4;}
	.st11{fill:#D8D8D8;}
	.st12{fill:#BFBFBF;}
	.st13{fill:#FFFFFF;}
	.st14{fill:#606060;}
	.st15{fill:#8C8C8C;}
	.st16{fill:none;stroke:#A38F72;stroke-width:2;stroke-miterlimit:10;}
	.st17{fill:#B73B3B;}
	.st18{fill:#8C3030;}
	.st19{fill:none;stroke:#443722;stroke-width:7;stroke-linecap:round;stroke-miterlimit:10;}
	.st20{fill:#338941;}
	.st21{fill:#AAAAAA;}
	.st22{fill:#3A3A3A;}
	.st23{fill:#1C1C1C;}
	.st24{fill:#A03F3F;}
	.st25{fill:#BFAA97;}
	.st26{fill:#938172;}
	.st27{fill:#BCBCBC;}
	.st28{fill:#A5A5A5;}
	.st29{fill:#9E9E9E;}
	.st30{fill:#333333;}
	.st31{fill:#F4CD98;}
	.st32{fill:#5A86B7;}
	.st33{fill:#AA7B44;}
	.st34{fill:#D3CFCB;}
	.st35{fill:#E2AE7A;}
	.st36{fill:#303030;}
	.st37{fill:#111111;}
	.st38{fill:#5B5B5B;}
	.st39{fill:#5C699B;}
	.st40{fill:#2F395B;}
	.st41{fill:#705A38;}
	.st42{fill:#878787;}
	.st43{fill:#353535;}
	.st44{fill:none;stroke:#D19D6F;stroke-linecap:round;stroke-miterlimit:10;}
	.st45{fill:none;stroke:#000000;stroke-width:0.5;stroke-linecap:round;stroke-miterlimit:10;}
	.st46{fill:#5E5E5E;}
	.st47{fill:none;stroke:#6B6B6B;stroke-width:0.75;stroke-miterlimit:10;}
	.st48{fill:#002042;}
	.st49{fill:#F5BD83;}
	.st50{fill:none;stroke:#2B2B2B;stroke-linecap:round;stroke-miterlimit:10;}
	.st51{fill:#2B2B2B;}
	.st52{fill:none;stroke:#6B6B6B;stroke-width:0.75;stroke-linecap:round;stroke-miterlimit:10;}
	.st53{fill:#D19D6F;}
	.st54{fill:none;stroke:#D19D6F;stroke-width:0.5;stroke-linecap:round;stroke-miterlimit:10;}
	.st55{fill:none;stroke:#3D4877;stroke-width:0.75;stroke-linecap:round;stroke-miterlimit:10;}
	.st56{fill:none;stroke:#BABABA;stroke-width:0.5;stroke-linecap:round;stroke-miterlimit:10;}
	.st57{fill:#B7B7B7;}
</style>
<g id="Layer_7">
	<path class="st0" d="M404.1,260.8l-1.7,121.4l263.4-6l12.8-16.1c0,0-2.2-75.4-32.7-88s-81-36.5-82.3-48.4
		C562.4,211.7,404.1,260.8,404.1,260.8"/>
	<path class="st1" d="M389,360.1h289.8c0,0,13.7,187.1-169.9,169.4s-362.8,8.8-362.8,8.8l135.8-163.2L389,360.1z"/>
	<path class="st2" d="M210,510.6l293,35.8c0,0,27.6-13.7,56.4-13.3c28.8,0.4,63.6,1.1,82.6-8.6c19-9.7,22.2-17.9,22.2-17.9
		l-374.6-29.5L210,510.6z"/>
	<path class="st3" d="M146.1,538.4l273.4-117.2V254.4L43.8,362.3c0,0-57.7,78.6,44.4,115.5C149,499.8,146.1,538.4,146.1,538.4z"/>
	<polygon class="st4" points="289.7,477.1 211.1,510.1 211.1,312.3 296.6,286 289.7,287.6 	"/>
	<polyline class="st5" points="223.1,313.9 223.7,489.1 278.6,466.3 278.4,297.3 223.1,313.9 	"/>
	<ellipse class="st6" cx="218.9" cy="407.1" rx="2.7" ry="4"/>
	<ellipse class="st7" cx="225.7" cy="407" rx="6.6" ry="7.5"/>
	<ellipse class="st8" cx="227.9" cy="404.8" rx="2.6" ry="2.9"/>
	<polygon class="st9" points="253.1,362.3 264.5,336.4 253.1,313.1 241.7,339 	"/>
	<polygon class="st10" points="260.2,336.9 251,357.7 241.7,338.6 250.9,317.8 	"/>
	<polygon class="st6" points="234.6,458.3 269,446.5 268.6,459.2 234.6,471.9 	"/>
	<path class="st7" d="M236.6,460.1l30.2-10.4l-0.1,8l-30,10.9C236.7,468.6,236.6,459.2,236.6,460.1z"/>
	<path class="st7" d="M254.4,375.3c0,0-3.2,1.8-3.7-2c-0.5-3.6,1.6-4.2,2.9-4.4c2.3-0.4,3.3,3.1,2.8,5c-1,3.1-2.4,7.7-2.4,7.7
		l-1.8,0.5L254.4,375.3z"/>
	<path class="st4" d="M254.8,373.7c0.5-0.7,0.8-1.9,0.2-2.6s-1.3-0.8-1.9-0.6c-0.6,0.2-1.6,1-1.4,2.3c0.2,1.3,0.6,1.6,1.2,1.6
		S254.5,374.1,254.8,373.7z"/>
	<polygon class="st11" points="293.1,344.3 293.1,359.2 295.6,360 299.8,358.5 299.9,344.1 297.5,343.4 	"/>
	<polygon class="st12" points="295.6,345 295.6,360 293.1,359.2 293.1,344.3 	"/>
	<polygon class="st13" points="299.9,344.1 295.6,345 293.1,344.3 297.5,343.4 	"/>
	<path class="st14" d="M299.1,351.2c0,0.9-0.7,2.5-0.7,2.5s-0.4,0-0.7,0c-0.8,0-1.4-1.1-1.4-2.6s0.6-2.6,1.4-2.6c0.3,0,0.7,0,0.7,0
		S299.1,350.3,299.1,351.2z"/>
	<ellipse class="st15" cx="298.4" cy="351.2" rx="1.4" ry="2.6"/>
</g>
<g id="Layer_9">
	<line class="st16" x1="294.4" y1="423.8" x2="416.2" y2="371.2"/>
	<line class="st16" x1="294.2" y1="435.3" x2="416" y2="382.7"/>
	<line class="st16" x1="294.6" y1="412.5" x2="416.4" y2="359.8"/>
	<line class="st16" x1="294" y1="446.8" x2="415.8" y2="394.2"/>
	<line class="st16" x1="294.6" y1="401.6" x2="416.4" y2="349"/>
	<line class="st16" x1="356.9" y1="373.7" x2="356.9" y2="385.3"/>
	<line class="st16" x1="330.2" y1="386" x2="330.2" y2="397.7"/>
	<line class="st16" x1="306.4" y1="396.3" x2="306.4" y2="408"/>
	<line class="st16" x1="380.9" y1="364.1" x2="380.9" y2="375.8"/>
	<line class="st16" x1="404.4" y1="354.4" x2="404.4" y2="366"/>
	<line class="st16" x1="357.4" y1="395.9" x2="357.4" y2="407.6"/>
	<line class="st16" x1="330.7" y1="408.3" x2="330.7" y2="419.9"/>
	<line class="st16" x1="306.9" y1="418.6" x2="306.9" y2="430.2"/>
	<line class="st16" x1="381.4" y1="386.4" x2="381.4" y2="398"/>
	<line class="st16" x1="404.9" y1="376.6" x2="404.9" y2="388.3"/>
	<line class="st16" x1="357.2" y1="418.9" x2="357.2" y2="430.5"/>
	<line class="st16" x1="330.5" y1="431.2" x2="330.5" y2="442.8"/>
	<line class="st16" x1="306.7" y1="441.5" x2="306.7" y2="453.1"/>
	<line class="st16" x1="381.2" y1="409.3" x2="381.2" y2="420.9"/>
	<line class="st16" x1="404.7" y1="399.6" x2="404.7" y2="411.2"/>
	<line class="st16" x1="367.2" y1="402.5" x2="367.2" y2="414.2"/>
	<line class="st16" x1="340.6" y1="414.8" x2="340.6" y2="426.5"/>
	<line class="st16" x1="316.7" y1="425.1" x2="316.7" y2="436.8"/>
	<line class="st16" x1="391.3" y1="392.9" x2="391.3" y2="404.6"/>
	<line class="st16" x1="370.5" y1="378.7" x2="370.5" y2="390.3"/>
	<line class="st16" x1="343.9" y1="391" x2="343.9" y2="402.6"/>
	<line class="st16" x1="320" y1="401.3" x2="320" y2="412.9"/>
	<line class="st16" x1="394.6" y1="369.1" x2="394.6" y2="380.7"/>
	<line class="st16" x1="370.5" y1="356.6" x2="370.5" y2="368.2"/>
	<line class="st16" x1="343.9" y1="368.9" x2="343.9" y2="380.5"/>
	<line class="st16" x1="320" y1="379.2" x2="320" y2="390.8"/>
	<line class="st16" x1="394.6" y1="347" x2="394.6" y2="358.7"/>
	<line class="st16" x1="51.2" y1="433" x2="197.2" y2="382.7"/>
	<line class="st16" x1="51" y1="446.7" x2="196.9" y2="396.5"/>
	<line class="st16" x1="51.5" y1="419.4" x2="197.4" y2="369.2"/>
	<line class="st16" x1="50.8" y1="460.5" x2="196.7" y2="410.2"/>
	<line class="st16" x1="51.5" y1="406.5" x2="197.4" y2="356.2"/>
	<line class="st16" x1="126.1" y1="379.6" x2="126.1" y2="393.5"/>
	<line class="st16" x1="94.2" y1="391.5" x2="94.2" y2="405.5"/>
	<line class="st16" x1="65.6" y1="401.4" x2="65.6" y2="415.3"/>
	<line class="st16" x1="154.9" y1="370.6" x2="154.9" y2="384.5"/>
	<line class="st16" x1="183" y1="361.4" x2="183" y2="375.4"/>
	<line class="st16" x1="126.7" y1="406.3" x2="126.7" y2="420.2"/>
	<line class="st16" x1="94.8" y1="418.2" x2="94.8" y2="432.1"/>
	<line class="st16" x1="66.2" y1="428" x2="66.2" y2="442"/>
	<line class="st16" x1="155.5" y1="397.3" x2="155.5" y2="411.2"/>
	<line class="st16" x1="183.6" y1="388.1" x2="183.6" y2="402"/>
	<line class="st16" x1="126.5" y1="433.7" x2="126.5" y2="447.6"/>
	<line class="st16" x1="94.6" y1="445.7" x2="94.6" y2="459.6"/>
	<line class="st16" x1="66" y1="455.5" x2="66" y2="469.4"/>
	<line class="st16" x1="155.3" y1="424.7" x2="155.3" y2="438.7"/>
	<line class="st16" x1="183.4" y1="415.6" x2="183.4" y2="429.5"/>
	<line class="st16" x1="138.5" y1="415.2" x2="138.5" y2="429.1"/>
	<line class="st16" x1="106.6" y1="427.1" x2="106.6" y2="441"/>
	<line class="st16" x1="78" y1="437" x2="78" y2="450.9"/>
	<line class="st16" x1="167.3" y1="406.2" x2="167.3" y2="420.1"/>
	<line class="st16" x1="142.5" y1="386.9" x2="142.5" y2="400.8"/>
	<line class="st16" x1="110.5" y1="398.9" x2="110.5" y2="412.8"/>
	<line class="st16" x1="82" y1="408.7" x2="82" y2="422.6"/>
	<line class="st16" x1="171.3" y1="378" x2="171.3" y2="391.9"/>
	<line class="st16" x1="142.5" y1="360.5" x2="142.5" y2="374.4"/>
	<line class="st16" x1="110.5" y1="372.5" x2="110.5" y2="386.4"/>
	<line class="st16" x1="82" y1="382.3" x2="82" y2="396.2"/>
	<line class="st16" x1="171.3" y1="351.6" x2="171.3" y2="365.5"/>
	<path class="st17" d="M159.3,489.4c0,9,6.3,39.5,7.6,46.1s27.2,7.6,28.5,0.3s8-36.2,7.6-46.5C202.7,479.1,159.3,480.5,159.3,489.4z
		"/>
	<ellipse class="st18" cx="181.2" cy="489.8" rx="20.7" ry="7"/>
	<line class="st19" x1="180.5" y1="489.6" x2="180.5" y2="445.5"/>
	<circle class="st20" cx="180.8" cy="420.1" r="32.5"/>
	<path class="st17" d="M311.9,431.7c0,7.7,5.4,33.9,6.6,39.6c1.1,5.7,23.4,6.6,24.5,0.3c1.1-6.3,6.8-31.1,6.6-39.9
		S311.9,424,311.9,431.7z"/>
	<ellipse class="st18" cx="330.8" cy="432" rx="17.8" ry="6"/>
	<line class="st19" x1="330.1" y1="431.9" x2="330.1" y2="394"/>
	<circle class="st20" cx="330.4" cy="372.1" r="27.9"/>
</g>
<g id="Layer_5">
	<path class="st0" d="M13.3,273.7c0,0-11.8-49.4,45.7-90.1s89.4-26.5,104.4-48.2s26.5-56.8,57.5-75.2s158.4-54,208.8,4
		s57.1,88,59.3,114.6s-13.7,66.4-13.7,66.4l-407,102.6L13.3,273.7z"/>
	<path class="st21" d="M492.5,108.8l9.5,0.9c0,0,4.9-0.9,4.9,4.9s0,79,0,79h-8.6v-69.2h-6.4L492.5,108.8z"/>
	<path class="st22" d="M480.1,70.4c0,0,9.3,1.1,12.8,8.4s1.3,53.3,1.3,53.3l-14.8,2.7L480.1,70.4z"/>
	<polygon class="st23" points="476.1,43.6 476.1,160.4 482.3,160.4 482.3,43.4 	"/>
	<polygon class="st23" points="478.8,203.7 478.8,195.3 525,190.2 525,204.6 	"/>
	<polygon class="st23" points="420.8,201.7 421.1,195.6 472.8,188.7 472.8,203.1 	"/>
	<path class="st24" d="M440.8,359.5c-0.3,0-6.7-1.1-9.2-1.9s-5.8-0.8-9.7,3c-3.9,3.8-9.3,7.8-10.8,12.1c-1.5,4.3-3.4,7,1,8
		c-1.4,7.4-2.1,16.8-1.9,24.1s-0.5,9.5,3.2,11.4s6.3,3.4,11.6,3.4s10.4-2.6,10.4-2.6s5.4-10.9,5.5-11.3
		C440.9,405.2,440.8,359.5,440.8,359.5z"/>
	<path class="st25" d="M220.4,312.3L13.3,273.7c-11.2,38.8-1.1,67.8,58.7,73.7L220.4,312.3z"/>
	<polygon class="st25" points="577.4,215.9 577,203.5 397.8,199.5 398.3,210.6 	"/>
	<polygon class="st25" points="407.6,262.4 409.8,204.8 572.6,208.4 572.6,218.1 	"/>
	<polygon class="st26" points="409.5,210.9 566.4,214.2 545,221 409.3,218.3 	"/>
	<path class="st27" d="M44.5,292.8l2.8,11.8c0,0,70.7,18.6,73.5,18.2c2.8-0.3,43.1-15.4,43.1-15.4l-13.1-7.3l-92.4-10.9L44.5,292.8z
		"/>
	<polygon class="st28" points="120.8,322.8 122.9,312.4 152.6,302.3 155.4,310.7 	"/>
	<path class="st29" d="M229.9,166.8c0,0-17,10.4-18.6,22.1s-8.6,71.2-8.6,71.2s1.1,25.7,4.6,31s64.8,1.1,66.8,1.1s19,3.3,15.5-4.6
		c-3.5-8-69.5-1.1-71.7-8.8c-2.2-7.7-2.2-37.8,0.2-53.1s2.4-31.4,6.2-35.2s8.2-6.4,8.2-6.4L229.9,166.8z"/>
	<path class="st30" d="M230.8,128.5c2.1-3.5,14.8,2.4,17,6.9s5.8,17.5,4.2,25.2c-1.5,7.7-1.3,4.9-0.9,9.5c0.4,4.6,2.9,4.4,2.2,13.3
		c-0.7,8.8-4.2,19.7-18.4,21.5c-5.3,1.1-8.8,2.9-10-0.2S229.3,131.2,230.8,128.5z"/>
	<path class="st30" d="M222.4,275.8c-0.6-7.8,4.1-8.7,13.7-10.6c21.2-4.2,32.5,5.9,40.3,5.1c9.2-1,49.7,4.9,47.6,8L281.3,290
		c0,0-18.1-5.3-28.8-5.8S223.7,291.8,222.4,275.8z"/>
</g>
<g id="Layer_4">
	<path class="st31" d="M324,234.3c0.7-0.2,64,7.1,80.1,26.5c-10.8,7.8-71.8,21.4-71.8,21.4s-18.1-6.8-29.9-8s-37.5,2.2-41.1-18.1
		c0,0,18.6-29,19.2-29.2s18.2-0.2,19.9,0.2C302.1,227.5,324,234.3,324,234.3z"/>
	<path class="st32" d="M310.4,111.2c0,0-1.5-1.5-1.5-2.5s4.8-5.1,5.8-5.5c1-0.3,7.1,2.3,7.1,2.3l19.2,10.9l1.2,4.3
		c0,0,5.3,6.1,5.3,7.1s-6,7.5-6,7.5s1.8,3.5-0.5,13.3s-4,11.1-4,11.1s5.1,21.9,12.8,32c1.2,1.4,2.2,1.2,2.2,1.2s-0.3-0.9,1.7-0.7
		c2.7,0.2,3.8,1.3,7.3,1.3s7.5-1,9,0s0.5,2.5,0.5,2.5l2.2,13.8l-2.5,2.7c0,0-0.2,9.1,1.3,12.3s-5,1-8.8,0.5s-11.8,1.5-12.9,0.8
		c-1.2-0.7-2.2-7.8-2-9.5c-3.6,0.3-7.6,1-11.6-0.5c-5.1-2-14.8-15.3-14.8-15.3l-2.5,5.3c0,0,1.5,3.5,0.2,4.6s5,23.4,5,23.4
		s-22.9,1.5-32,6.6c-3.2-1.3-7.8-6.8-7.8-6.8s-2.3,13.9-1.2,16.1c-5.6,1.5-31.2,10.6-31.2,10.6s-5.3-38,4-63.4s10.8-35.5,27.4-59.2
		C299.8,114.5,310.4,111.2,310.4,111.2z"/>
	<path class="st13" d="M502.3,387.2c0,0-9.8-7.3,0.7-29.2c10.5-21.9,10.1-18.2,13.6-24.4c3.5-6.1,7.1-11.1,10.8-12.3
		c3.6-1.2,13.9-10,13.9-10s1.7-7.3,4.6-8c3-0.7,18.7,4.8,18.7,4.8s3.6,3.1,3.9,6.2c4,2.3,6.5,4.6,8.5,9.1s11.9,28.5,12.6,30.9
		c0.7,2.3,10.5,11.9,16.9,13.1c1.5,1.2,8.7,4.5,8.7,4.5l6.4,8.5l-9.5,0.5l-9.9-2.2c0,0-1.2,3-9.5,0.7s-13.9-15.1-13.9-15.1
		s1.8,5.5,2.7,7.8c0.8,2.3,4.8,6.6-3.8,15.3s-36.8,6.6-36.8,6.6l-4.6-5.6c0,0-6.3-2.7-6-6.6c0.3-4,3.5-13.4,3.5-13.4
		s-7-14.3-7.6-18.4c-1.8,3.2-9.3,14.3-9.3,14.3s3.8,20.2-1.5,22.1c-1,4.5-0.3,8.3-0.3,8.3l-9.7,2.6
		C505.2,397.1,501.8,388.9,502.3,387.2z"/>
	<path class="st33" d="M501.1,470.3c0,0-7.5-3.3-10.2-3.5s-9.1,5.1-8.8,11.9c0.2,6.9,1.1,8.2,1.1,8.2h3.5c0,0,2.7,15.5,6.4,20.6
		c3.8,5.1,11.3,8.8,11.3,8.8s7.1-2.7,5.1-10s-8-13.3-7.7-23.2C502,473.2,501.1,470.3,501.1,470.3z"/>
	<path class="st34" d="M606.9,510.1l1.8,4.4c0,0,2.4,4,3.5,4.2s6.9-0.7,6.9-0.7l-0.2-2.2l-4.2-11.3L606.9,510.1z"/>
	<path class="st34" d="M507.5,475.8c0,0-6.6,2-7.7,3.5s-7.5-0.4-5.3-5.1c2.2-4.6,4.4-4,6.6-4s6.4-1.5,6.4-1.5
		S507.8,474.9,507.5,475.8z"/>
	<path class="st35" d="M630.3,532.2l-0.9-4.2c0,0,0.2-1.3,5.1-1.1c4.9,0.2,8.4,2.2,13.9-1.3s9.5-8.6,9.3-12.4c-0.2-3.8-4.4-4-4.4-4
		s-39.6,15.3-40.3,16.1c-0.7,0.9-4.6,5.5-4.6,5.5l3.8,5.3C612.2,536.2,616.1,539.5,630.3,532.2z"/>
	<path class="st33" d="M605.5,517.8c0,0,2.9-4.4,8.6-3.8c5.8,0.7,10.8,0.2,17.5-1.5c6.6-1.8,9.5-6.9,17.7-6s8.4,6.6,8.4,6.6
		s-0.7-2.9-3.8-1.8c-3.1,1.1-14.6,9.1-17.9,10.4c-3.3,1.3-15.3,4.4-17.9,6.2c-2.7,1.8-7.3,4-7.3,5.8s1.3,2.4,1.3,2.4
		s-2.7-0.7-3.8-5.3C607.3,526.2,606.6,520,605.5,517.8z"/>
	<path class="st31" d="M535.4,391.2c0,0,12.9-2.5,13.6-2.5c0.7,0,15.9-0.5,15.9-0.5l12.3,3c0,0,0.2,13.9-2,17.8
		c8.1,9,15.1,18.7,17.1,22.1s8,9,10.5,20.2c2.5,11.3,21.4,51.9,21.4,51.9l-23.6,13.1c0,0-13.4-52.4-20.1-64S567.7,437,567.7,437
		s-1.2,12.6-11.3,25.4s-36.8,26.5-41.8,25.7s-9.6-6-9.8-12.3c-0.2-6.3-0.2-8.6-0.2-8.6s20.2-4.8,33.2-21.9s10-22.1,10-22.1
		s-7.1-3.8-10-9.1C535,408.8,535.4,391.2,535.4,391.2z"/>
	<polygon class="st36" points="479.4,415.6 492.7,411.4 541.8,426.5 548.7,472 534.7,476.9 484.5,456.3 	"/>
	<polygon class="st37" points="528.8,433.3 534.7,476.9 484.5,456.3 479.4,415.6 	"/>
	<polygon class="st38" points="485.2,414.1 534.1,430.7 540.9,474.3 542.7,473.6 535.9,429.1 487,413.2 	"/>
	<path class="st37" d="M498.3,417.6c0,0,1.5,1.8,4.4,0.9c0-3.5-2.7-6.2,3.3-6.2s12.6,2.8,12.6,2.8s1.8,0.6,1.8,4.3
		c0,3.8,0.2,6,0.2,6s0.7,1.8,4.6,1.1c0.9-4,0.2-9.5-0.4-11.3c-0.7-1.8-3-2.6-3-2.6l-3.9-4.7l-7.7-0.9l-8.3,1.4c0,0-3.9-0.8-4.6,1.4
		C496.7,412.1,498.3,417.6,498.3,417.6z"/>
	<path class="st13" d="M442.5,361.6c0.2-0.6,3-6.2,6.5-6.6s12.9,4.4,12.9,4.4s2.2,0.3,3.3,3.2s2.2,6.7,2.2,6.7s-1.5,11.3-1.9,11.3
		s-6.3,0.8-6.3,0.8s-9-5.8-9.1-6.1S442.5,361.6,442.5,361.6z"/>
	<polygon class="st39" points="457,360.7 454.5,364.9 457.4,368.3 456,377.8 461.4,381.7 465.4,378.4 463.9,374.5 460.4,368.1 
		461.2,365.8 	"/>
	<path class="st40" d="M560.2,314.1c0,0-3.2,3.4-3.1,5.3s3.3,3.2,3.3,3.2s2.1,43.5,0.7,52.3c6.2,6.7,7.5,8.4,7.5,8.4
		s3.7-3.3,4.5-6.2c0.7-2.9-7.5-49.6-10.2-55.4c1.3-1.7,1-2.7,1.5-3.7C564.9,316.9,560.2,314.1,560.2,314.1z"/>
	<path class="st41" d="M535.5,388.2c0,0-0.3,5.8-0.1,5.7s13.2-3.2,21.3-3.2s20.2,3.2,20.2,3.2l0.7-6.6c0,0-11.4-3.1-23.1-2.2
		S535.5,388.2,535.5,388.2z"/>
	<path class="st42" d="M189.9,202.4c0,0,3.5,1.3,8.8,7.5c9.3,11.1,13.9,36.7,13.9,40s-2.4,34.7-4.4,37.6c1.3,6.2,1.3,19.2-2.9,23
		c-0.2-0.2-16.1-2.9-16.1-2.9s-14.4,6.4-29.9,2.4c-6.4,0.7-9.8,2.4-14.2-1.5c-4.4-4-14.3-24.1-14.3-24.1s2.7-12.4,2.4-17.9
		c-1.5-2-3.1-5.1-3.1-5.1s-3.1,16.6-7.5,20.8c-4.4,4.2-9.3,7.3-9.3,7.3s-10.8-11.1-10.8-11.7s5.3-23.7,5.3-23.7s2.4-1.3,4.2-19.7
		s15.7-30.5,15.7-30.5s-6.9,1.8-13.5-10.8s-0.9-25.7,1.5-46.7s10.6-33.8,26.8-34.9c16.1-1.1,24.6,2,33.2,11.9
		c8.6,10,9,22.9,12.4,34.5c4.7,16.5,8.6,14.8,8.6,30.1C196.5,198,189.9,202.4,189.9,202.4z"/>
	<path d="M411.5,474.2c0,0,0.7-4.6-5.4-5.8c-6.1-1.2-9.6,2.8-9.8,8.7c-0.2,5.9,1.5,8.8,2,11.3s-0.8,7.3,1.1,11.9s5.4,8.5,8,9
		s8-2.2,7-9.6s-2.7-12.5-3-17C411.1,478.2,411.5,474.2,411.5,474.2z"/>
	<path d="M473.1,522c-0.3-0.2-2.9-2.1-4.8,0.2c-1.9,2.2,0.8,4.4,0.8,4.4l-0.2,8.3c0,0,1.6,2.2,6.6,2.3s7.1,1.2,8.1,2
		c1.1,0.8,5.6,3.7,11.6,2.7c6.1-1,7.1-2.2,7.5-3.6c0.4-1.4,0.2-6.6-3.2-8.2c-3.5-1.7-7.1-0.8-10-4s-4.6-7.8-4.6-7.8s0-1.7-1.5-1.2
		c-1.5,0.4-3.4,1.2-3.4,1.2l-2.2,0.1l-2,2.9L473.1,522z"/>
	<path class="st42" d="M414.5,474.1c-0.2-0.1-2.5-0.2-3.4-0.7s-3.7,0.1-4.2,2.2s-0.9,6.5,1.7,7.1c2.6,0.7,5.9,0.6,5.9,0.6V474.1z"/>
	<path class="st42" d="M470.2,514.5c0,0,1.6,5.1,1.4,6.7c-0.2,1.7,0.9,3.3,2.9,3.4s3.5-0.4,4.1-1.7c0.7-1.3-1.5-3.8,1.4-4.5
		c0-1.7-1.5-8.5-1.5-8.5L470.2,514.5z"/>
	<path class="st43" d="M431.7,427.7c0,0-3.2,8.7,0,15.5s10.9,15.6,10.9,15.6s-4.2,5.9-13.4,8.8c-9.1,2.9-15.6,2.5-15.6,2.5
		s-2.1,7.3-0.8,11.2c1.2,3.9,3.4,6.6,3.4,6.6s5.5,1.7,17.8-1.3c12.3-3.1,19.3-10.9,19.3-10.9s6.1,10.1,7.8,20.2
		c1.7,10,3.2,19.8,3.2,19.8s6.1,1.7,12.8-0.6c6.6-2.2,6.9-3.6,6.9-3.6s-9-33.1-11.8-40.1c-2.8-7.1-8.9-23.1-8.9-23.1
		s7.2-11.8,7.4-20.6S431.7,427.7,431.7,427.7z"/>
	<path class="st42" d="M442.5,361.6c0,0,14.2,14.9,18.1,15.9c5.1-2.8,4.6-14.9,4.6-14.9s6.1,1.2,8.7,7.5
		c2.7,6.3,13.6,21.8,13.6,21.8s6,5.6,8.2,9.1s4.1,10.7,1.1,12.5s-8.6,3-14.9-3.8s-8-8.2-8-8.2s-0.1,21.1-3.3,26.1
		c-3.2,5-18.1,5.8-24.4,4.9s-14.6-4.8-14.6-4.8s2.3-10.9,1.1-15.6c-4.8,2.2-7.4,2.1-12.5,1s-5.1-14.2-3.8-19.4s4.5-16.1,10.9-22.9
		S442.5,361.6,442.5,361.6z"/>
	<path d="M445.9,380.6c0,0-2.6-5.4-7-11.1c-4.3-5.7-6.7-2.7-6.7-2.7s-1.5-3.2,1.7-5.4c3.2-2.2,5.4-3.6,8-2.3
		c2.6,1.4,7.8,8.1,8.1,10.6c0.3,2.5,1,7.6,1,7.6L445.9,380.6z"/>
	<path d="M474.5,377.6c0,0-5.2-11.1-9.2-15.1c0.4-1.8,5.9,1.2,8,2.9c3.2,2.6,4.8,6.8,4.7,9.7C477.8,378,474.5,377.6,474.5,377.6z"/>
	<path class="st24" d="M431.4,391.3c0,0,0.2,4.2,1.3,5.2c-0.8,1.3-3.6,2.9-3.6,2.9S428.4,395.3,431.4,391.3z"/>
	<path class="st33" d="M629.4,528"/>
	<path class="st44" d="M550.7,399.9c1.6-0.6,7.4-2.3,13.7-0.7c6.4,1.6,9,6.3,10.4,9.3"/>
	<path class="st44" d="M550,396.6c2.2-1.5,5-1.6,7.7-1.4c1.9,0.1,3.9,0.3,5.5,1.4"/>
	<path class="st44" d="M547.9,423.3c1.3,1.1,2.6,2.2,4,3.4c0.6,0.5,1.1,1,1.7,1.4c3,2.2,12.7,8.1,14.5,8.9"/>
	<path class="st44" d="M602.3,457.3c3,13,9.5,24.9,14.6,37.3c0.3,0.8,0.6,1.6,0.7,2.4c0.1,1.9-1.1,3.6-2.4,4.9
		c-2.9,2.8-6.9,4.4-9.7,7.3"/>
	<path class="st44" d="M603.7,505.3c3.2-2.3,6.4-4.6,9.6-6.9"/>
	<path class="st44" d="M509.4,469.2c-1.3,2.6-1.4,5.8-0.3,8.5s3.5,4.9,6.2,5.8"/>
	<path class="st45" d="M620.8,515.6c-0.8,0-1.5-0.6-2-1.2c-1.1-1.1-2.3-2.3-2.3-3.8c0-0.8,0.3-1.7,1-2c0.9-0.4,1.9,0.2,2.6,0.9
		c1.4,1.3,2.3,3,2.7,4.9c-0.3-2.5-0.6-5.1,0.7-7.2c0.3-0.5,0.8-1,1.4-1c0.8,0.1,1.2,1,1.4,1.8c0.4,2.6-1.9,7.3-1.8,7.2"/>
	<path class="st45" d="M627.6,512.5c-0.9,0.9-1.3,2.3-1.1,3.6"/>
	<path class="st45" d="M629.5,512.4c-0.1-0.1-0.2-0.1-0.2,0c-0.1,0-0.1,0.1-0.2,0.2c-0.5,0.9-0.7,1.9-0.5,2.9"/>
	<path class="st45" d="M630.6,511.9c-0.2,0-0.3,0.2-0.4,0.4c-0.2,0.5-0.4,1-0.5,1.5c0,0.5,0.1,1.1,0.6,1.4"/>
	<path class="st45" d="M632.3,511.4c-0.3,0.3-0.5,0.5-0.7,0.9c-0.3,0.8,0,1.7,0.3,2.5"/>
	<path class="st45" d="M498.9,485.3c-1.6-0.7-2.7-2.2-3.1-3.9c-0.4-1.7,0-3.5,0.9-5c0.3-0.5,0.7-1,1.2-1c0.7-0.1,1.3,0.7,1.6,1.4
		c1,2.3,0.5,7.1,0.5,7.1s1.4-3.1,2-4c0.4-0.7,0.8-1.4,1.5-1.9s1.6-0.7,2.3-0.3c0.7,0.4,0.9,1.2,1,2c0.1,1.8-0.9,3.5-2.3,4.6
		s-4.6,2-4.5,1.8"/>
	<path class="st45" d="M497.2,488.1c0.6-0.6,1.4-0.9,2.2-1c0.8-0.1,1.7-0.1,2.5,0c0.2,0,0.4,0,0.7,0.1s0.4,0.3,0.4,0.5"/>
	<path class="st45" d="M498.3,489.8c0.7-0.8,1.9-1,3-1.1c0.4,0,0.8,0,1.2,0.1c0.4,0.1,0.8,0.4,0.9,0.7"/>
	<path class="st45" d="M499.3,492.3c0.7-0.7,1.8-1.1,2.8-1.3c0.3,0,0.5,0,0.8,0s0.5,0.3,0.5,0.5"/>
	<path class="st45" d="M500.6,494.3c-0.1-0.2,0.1-0.4,0.2-0.5c0.5-0.4,1.1-0.7,1.8-0.8s1.4,0,1.8,0.5"/>
	<path class="st46" d="M147.4,196.7c0,0-13.9,7.5-23-5.3s-2.4-19.9-2.7-30.3c-0.2-10.4,1.1-17.3,1.1-17.3l35.8,24.8l2.9,21.7l9.8,3
		C171.4,193.3,161.4,205.9,147.4,196.7z"/>
	<path class="st47" d="M148.8,201.5c4.2,2.5,9,3.8,13.9,4.4c4.8,0.6,9.8,0.5,14.6,0.2c2.8-0.1,5.6-0.4,8.2-1.3
		c1.7-0.6,3.2-1.5,4.7-2.4"/>
</g>
<g id="Layer_1_1_">
	<path class="st48" d="M303.9,77c0.8-8.2,7.3-16.4,10.5-17.1c-1.7-2.7-0.7-8.4,7.7-15.5s16.5-3.4,16.5-3.4s2.8-9,18.4-8.4
		s17,12.7,16.8,16.8s-7.7,12.2-7.7,12.2S352.8,89,352.4,89.2c-0.4,0.2-10.9,6.6-11.9,7.6s-14.9,3.3-14.9,3.3l-3.8-2.5
		c0,0-2.9-4.8-8.7-7.6C307.2,87.1,303.3,83.6,303.9,77z"/>
	<path class="st48" d="M115.4,149.8c0,0-0.6,0.8,5.3-0.3s12.7,5,12.7,5l9.8,1.9l14.4-1.1c0,0,6.9,8.1,7.3,8s3.4,9.1,10,8.3
		c-4.2-7.4,2-19.2,2-19.2c3.7,0.5-11.2-36.4-13.3-34.3c-3.5-1.9-20.7-4.7-26.9-5.8C121.9,116.4,109.4,136.6,115.4,149.8z"/>
	<path class="st48" d="M447.3,319.6c0-0.3-1.5-8.6,4.6-10c-1.1,4-0.2,6.7-0.2,6.7s9.1-8.7,20-1.1s10,17.6,10,17.6s-7.2-0.1-9.3-1.2
		s-1.9,10.2-2.7,10.7c-0.8,0.6-20,7.7-20,7.7l-0.7-0.6c0,0-2.4,3.5-6.3,2.9c2.9-4.3,2.9-6.1,2-6.1L443,346c0,0-5.2-4.2-4.4-12.8
		c0.7-6.5,4.3-8.6,4.3-8.6s-2.5-3.9-1.2-6.6C444.2,320.1,447.3,319.6,447.3,319.6z"/>
	<path class="st48" d="M533.5,284.7c-1.2-6.2,3.4-7.4,3.4-7.4s-2.4-7.1,2-10.8c4.4-3.8,9.7-5,9.7-5s1.5-7.5,13.7-6.1
		s10.6,13.3,10.6,13.3s1.4,3.6,3.1,5.2c1.7,1.5,0.6,7.5-4.1,6.4s-21.7,14.6-21.7,14.6l-10.9-2.7
		C539.4,292.2,534.5,289.7,533.5,284.7z"/>
	<path class="st49" d="M332.1,67.2c0,0,11.3,1.3,14.9-11.4c4.1,4.3,10,4.1,18.4,3.8c6.8,5.8,5.5,7.3,7,10.3c0,0,0.8,4.5,0.5,6.5
		s-1.5,4-0.2,7.5s4,4,3.8,6.6s-4,3.8-4,3.8s0.5,3.8,0.2,9.1c-0.3,5.3-5.1,10.9-8.6,12.4s-15.9-2.7-15.9-2.7s-2.3,6.6-6,7.6
		c-3-2.3-22.4-16.3-24.7-16.4c2.7-3.2,3.6-5,4.1-6.8c0-0.3,2.5-1.8,2.5-1.8s-3.6-3.2-1.5-10.5c2.2-7.3,9.6-3.8,10.3-2.7
		c0.7,1.2,2,3.8,2,3.8l6.6-6C341.6,80.5,332.5,70.7,332.1,67.2z"/>
	<path class="st49" d="M370.5,196.1c0,0,23.9-0.2,26.9-2.7s9.3-16.3,12.6-17.1c3.3-0.8,19.9-0.3,19.9-0.3s9.8,5.1,10.9,10.5
		c2.3,2.7,1.7,4,1.7,4s-4.1,2.2-10.3-3.2c-0.2,0.2-8.3,1.3-10-0.5c-2,2.5-4.6,9.3-11.8,12.8c-7.1,3.5-22.9,15.9-40.3,12.9
		C368.3,202.2,370.5,196.1,370.5,196.1z"/>
	<path class="st49" d="M148.6,301.4c0.5-4,1-5.8-4.1-10.3s-7.3-8.6-12.6-8.8c-5.3-0.2-17.1,8.6-17.1,8.6l5,17.3
		c0,0,9.8-0.7,13.3-0.3c3.5,0.3,9.6,2,12.1,0.7C147.7,307.3,148.3,303.9,148.6,301.4z"/>
	<path class="st49" d="M120.6,149.5c0,0,1.7,3.2,2.2,7.3s-1.2,22.1,6.5,27.9s17.4,5.5,17.4,5.5l-0.2,4c0,0,12.6,8.5,24.9-0.8
		c-0.8-17.3-1.2-27.5-1.3-27.4c4.3-1.7,10.5-0.7,9.5-9.8c-0.4-1.3-2.8-5.8-7-5.8c-4.1,0-4.5,10.1-4.8,9c-2-0.3-5.2-0.8-5.3-0.9
		c-0.2-0.1-3.8-13.2-3.8-13.2s-1.8,3-3.8,3.8c0.2-4.5-2-11.8-3.3-12.8c-1.5,2-8,11.6-17.1,13.1c2.8-5.3,3.6-14.3,3.6-14.3
		S126.3,149.5,120.6,149.5z"/>
	<path class="st49" d="M448.3,342.7c0,0-1.2-0.7-2.2-1.6s-4.6-0.1-3.8,4.1c0.7,4.1,6,3.2,6,3.2s1.1,5.5,0.7,6.6
		c-0.4,1.2,6.6,7.6,8.3,7.7c1.7,0.1,4.6-3.3,4.6-3.3l0.3-1.2c0,0,4,1.2,6.4,0.7c2.4-0.6,3.8-1.6,4.8-4s3.1-10.4,2.8-14.2
		c-0.2-3.8-0.7-4.5,0-5.6s-0.2-2.7-0.2-2.7s-6.4-0.9-10.3-5.1c-0.2,2.2,2.7,7.2,2.7,7.2s-9.3-2.2-13.4-6.8c-0.9,1.8-0.7,8.5-0.7,8.5
		s-2.7-1-3.3-3.2c-0.7-2.2-0.7,9.6,0.3,11.2C449.8,344.4,448.3,342.7,448.3,342.7z"/>
	<path class="st49" d="M441.2,392.4c-0.3-0.9,0.2-12.4,3.9-14.1c3.6-1.7,7.6-1.3,8.3-0.6c0.7,0.7,0.7,0.7,0.7,0.7s1.1-1.1,1.9-0.7
		c0.8,0.3,1.5,0.2,1.7,1.6s0.7,4.7,0.1,5.3c-0.6,0.6-1.9,0.4-1.9,0.4l-0.2,0.9c0,0,1.4,1.4,0,3.1c1.2,1.4,0.8,1.8,0,3.6
		c-0.8,1.8-2.7,3.4-4.1,4s-4.4,1.4-4.4,1.4S443.2,398.3,441.2,392.4z"/>
	<path class="st49" d="M473.1,376.4c0,0-2.2-1.6-2.8,1.1c-0.7,2.7,0.1,5,1.3,5.5c1.2,0.5,1.6-0.7,1.6-0.7s0.2,0.6,0.6,0.7
		c-0.5,1-1,3.1,0,3.6c-0.2,0.9-0.6,2.6,0.7,3.3c1.3,0.7,5.6,1.5,8,1.1c2.5-0.4,4.1-6,4.1-8.4c-0.1-2.4-1.6-7.1-3.8-7.6
		C480.6,374.3,475,373.9,473.1,376.4z"/>
	<path class="st49" d="M505.2,397.1c0.2-0.1,8.4-2.1,8.4-2.1s5,4.8,5.8,5.6c0.8,0.7,2,1.4,2.1,3s1.2,5.5,1.1,6.7
		c-0.2,1.2-0.7,2.3-0.7,2.3l-3.8-2.2c0,0-3.2,1.4-1.4,3.5c0.1,0.2,2,1.2,2,1.2s-1.3,2.3-2.5,2.7c-1.2,0.3-4.4-0.1-5.3-1.8
		s-3.6,0-5.2-1.4s-3.7-3.4-3.6-6.1C502,405.8,505.2,397.1,505.2,397.1z"/>
	<path class="st49" d="M612.1,380.9c0.3-0.3,2.8-8.9,3.2-9c0.3-0.1,3.9-1.2,9.6-0.2s10.8,6.9,10.9,7.8s-1.7,0.7-1.7,0.7
		s4.3,2.9,5.2,4.1s3.7,4.5,3.2,6s-2,0.6-2,0.6s2.8,4.4-0.8,3c-0.9,2.7-1,1.9-3.1,0.9s-4.4-4.9-7.8-5.8c-1.2-0.2,3.2,4.3,4.4,5.5
		c0,0,2.7,3.7,1.2,3.8c-1.6,0.1-3.6-3-5.1-4.6s-3.2-2.9-3.2-2.9s-3.5-1.4-4.5-3.1c-2.3-0.7-4.1-0.1-6-1.8
		C613.7,384.2,612.1,380.9,612.1,380.9z"/>
	<path class="st49" d="M545.5,290c0,0-4.3-4.1-6.4,0.1s-0.2,6.3,2.5,6.6c2.7,0.2,3.3,0,3.3,0s1.4,5.3,1.1,6.7
		c-0.3,1.4,0.7,3.1,0.7,3.1s4.8,6.5,12.9,6.9c2.2,0.2,5.1-5.1,5.1-5.1s4.1,0.6,5.8-3.2c1.7-3.8,1.7-15,1.9-16.8s1.2-5,0.7-9
		c-0.6-4.1-4.6-8.7-4.6-8.7s-0.7,2.6-6.3,2.5s-8.1-3.5-8.1-3.5s-2.5,6.6-8.2,7.5c0.3,3.1,4.6,10,4.6,10L545.5,290z"/>
	<path class="st48" d="M353,73.1c0,0-0.8-4.2,5.2-5.5s8.7,2.1,8.7,2.1s1,3.1-1,3.4s-3.4-1.4-7.3-1.2C354.8,72.1,354.5,73.7,353,73.1
		z"/>
	<path class="st48" d="M125.5,149c3-0.6,3.5,0.7,5.3,0s0.1-3-0.9-3.2s-2.9-1-4.9-0.3s-4.3,2.1-3.8,3.9S124,149.3,125.5,149z"/>
	<path class="st48" d="M146.1,146.2c2.7,0,5,1.3,6.5,0.8c1.5-0.6,1.1-3.4-3-4s-7.9-0.2-8.3,1.1c-0.4,1.3-0.7,3,0.9,3
		S143.7,146.2,146.1,146.2z"/>
	<path class="st48" d="M457.9,333.6c0.1,1.7,1.4,1.3,3.9,0.7c2.4-0.7,4-0.3,4-0.3l0.9-1.4c0,0-1.9-1.1-2.3-1.1s-0.4-0.1-2.7,0.3
		C459.4,332.1,457.8,332.3,457.9,333.6z"/>
	<path class="st48" d="M470.6,332.3c-0.3,1.3,0.6,1.9,2.4,1.8c1.9-0.1,2.4,0.2,3.1,0.3c0.7,0.1,2.1-1.4,0.7-2.4
		C475.4,330.9,470.9,330.8,470.6,332.3z"/>
	<path class="st48" d="M555.5,278.2c2.9-0.5,5-0.7,5.3,0.3s0.7,2.4-0.9,2.3c-1.5-0.1-3.9-0.7-4.9-0.3c-1,0.3-2.4,1.4-2.4,1.4
		S551,278.9,555.5,278.2z"/>
	<path class="st48" d="M566.9,278.8c-0.1,1.1,0.9,2.3,2.7,1.9s3,0.4,3,0.4s-0.1-3.3-2.5-3.1S567,277.8,566.9,278.8z"/>
	<path class="st13" d="M446.6,341.3l11.1,1.6c0,0,8.9-3.2,12.7-2.9c3.8,0.2,6.1,1.9,6.1,1.9c1.2,3.2-1,11.4-2.6,12.1
		c-1,0.5-3.6,1.7-6.3,1.4c-2.7-0.2-7.9-0.7-10-2.3c-2.1-1.7-9.2-4.7-9.2-4.7l8.6,2.9c0,0-0.4-6.3,0.3-7.4l-9.7-1.6L446.6,341.3z"/>
	<path class="st13" d="M544.9,296.6l11.4,6.8c0,0,9.9,3.5,14.3,0.9c3.9-4.3,1.7-14.9,1.7-14.9s-2.9-2.5-6-2.4s-6.3,1.9-8.4,2.5
		c-2.2,0.6-3.8,1.5-3.8,1.5l-9.7-2.2l1.2,1l8.6,2.1l1.6,9.6L544.9,296.6z"/>
	<path id="path326_1_" class="st48" d="M465.7,338c-1.7-3.2-5.4-0.3-5.4-0.3c-0.1,0.5,0.9,0.5,2,0.5c0,0.5,0.4,1.1,0.9,1.1
		c0.6,0,0.9-0.6,0.9-1.2C464.8,338,465.3,338,465.7,338L465.7,338z"/>
	<path id="path326_2_" class="st48" d="M471.2,337.8c1.5-3.2,4.9-0.3,4.9-0.3c0.1,0.5-0.8,0.5-1.8,0.5c0,0.5-0.3,1.1-0.8,1.1
		s-0.8-0.6-0.8-1.2C472.1,337.9,471.6,337.8,471.2,337.8L471.2,337.8z"/>
	<path id="path326_3_" class="st48" d="M561.4,285.2c-2.1-4.4-6.7-0.4-6.7-0.4c-0.1,0.6,1.1,0.7,2.5,0.7c0,0.7,0.5,1.5,1.1,1.5
		c0.7,0,1.1-0.9,1.1-1.7C560.2,285.3,560.9,285.2,561.4,285.2L561.4,285.2z"/>
	<path id="path326_4_" class="st48" d="M566.5,285.1c1.8-4.4,5.7-0.4,5.7-0.4c0.1,0.6-0.9,0.7-2.1,0.7c0,0.7-0.4,1.5-1,1.5
		s-1-0.9-1-1.7C567.6,285.2,567,285.1,566.5,285.1L566.5,285.1z"/>
	<path id="path326_5_" class="st48" d="M366.6,80.3c-2.8-7.3-9.1-0.6-9.1-0.6c-0.1,1,1.5,1.2,3.4,1.1c0.1,1.2,0.6,2.5,1.6,2.5
		s1.6-1.4,1.6-2.8C365,80.4,365.9,80.3,366.6,80.3L366.6,80.3z"/>
	<path id="path326_6_" class="st48" d="M132.1,155.4c-2.5-5.9-8.1-0.5-8.1-0.5c-0.1,0.8,1.3,1,3,0.9c0.1,1,0.6,2,1.4,2
		c0.9,0,1.4-1.2,1.4-2.2C130.6,155.5,131.4,155.4,132.1,155.4L132.1,155.4z"/>
	<path id="path326_7_" class="st48" d="M143.1,154.5c3.2-7.1,10.2-0.6,10.2-0.6c0.1,1-1.7,1.2-3.8,1.1c-0.1,1.2-0.7,2.4-1.7,2.4
		c-1.1,0-1.7-1.4-1.7-2.7C144.9,154.6,143.9,154.5,143.1,154.5L143.1,154.5z"/>
	<path class="st11" d="M23.2,237.6c0,0-1.2-6.1,3-5.6s77.6,15.3,77.6,15.3s5,0.7,5.8,7.1s13.3,58.1,13.3,58.1l-85.6-19.1L23.2,237.6
		z"/>
	<ellipse transform="matrix(0.9732 -0.2298 0.2298 0.9732 -60.594 23.0817)" class="st13" cx="68.8" cy="271.7" rx="5.4" ry="8.2"/>
	<path class="st50" d="M442.5,458.8c2.2,1.8,3.8,4.2,5.4,6.6c0.6,0.9,1.2,1.8,1.8,2.8c1.5,2.3,3,4.7,3.8,7.3"/>
	<g>
		<path class="st51" d="M448,436.9c0.8-0.5,1.7-0.8,2.6-1s1.9-0.4,2.9-0.3s2,0.6,2.7,1.3c0.7,0.7,1.2,1.5,1.7,2.3
			c1.1,1.5,2.2,3,3.2,4.6s1.8,3.3,2.3,5.1c-0.9-1.6-1.9-3.2-3-4.7l-3.3-4.5c-0.6-0.8-1-1.6-1.6-2.2c-0.6-0.7-1.3-1.1-2.1-1.2
			c-0.8-0.2-1.8-0.1-2.7,0C449.8,436.5,448.9,436.7,448,436.9z"/>
	</g>
	<path class="st50" d="M466,468.2c4.3,13.9,10.5,27.4,12.2,41.9"/>
	<path class="st50" d="M416.4,472c-1.1,2-1.5,4.3-1.2,6.5s1.2,4.4,2.7,6"/>
	<path class="st42" d="M162,115l15.9,13.3l7.3,25.7l-4.6,28.5l-9.2,10.8c0,0,4.1-1.1-4.9-23.8s-5.1-22.1-8.8-29.6
		s-10.5-17.4-15.9-19.3s-14-2.7-19.9,2c0.6-2.5,4.4-8.8,14.8-10.3c10.4-1.4,21.2,0.1,21.2,0.1L162,115z"/>
	<path class="st52" d="M128.1,204.1c2.9,0.1,5.7,0.2,8.6-0.1c2.8-0.3,5.7-1.1,8.1-2.5"/>
</g>
<g id="Layer_8_1_">
	<path class="st44" d="M324.1,95.8c0.7,1.2,1.9,2.1,3.2,2.6c2.7,1.1,5.8,0.2,8.3-1.3c-0.3,1.4,0.4,2.9,1,4.1c0.5,1,1,1.9,1.5,2.8
		c0.3,0.6,0.7,1.2,1.1,1.8c0.5,0.6,1,1.2,1.5,1.7c2.2,2.2,4.5,4.5,7.5,5.6"/>
	<path class="st44" d="M357.9,100.6c2.1,1.5,4.8,2.2,7.4,2"/>
	<path class="st44" d="M366.6,90c-0.4,0.3-0.8,0.7-1,1.1c-0.1,0.3-0.2,0.6-0.2,0.8c-0.1,0.6,0.1,1.2,0.5,1.7s1,0.8,1.6,0.8
		c0.1-0.5,0.6-0.7,1.1-0.9c0.8-0.2,1.8-0.3,2.4,0.3"/>
	<path class="st44" d="M353.9,79.9c-1.5-0.5-3.2-0.4-4.8,0.1"/>
	<path class="st44" d="M354.6,81.4c-0.5-0.1-1.1-0.1-1.6,0c-0.9,0.2-1.7,0.8-2.6,1.1"/>
	<path class="st44" d="M360.1,86.8c0.9,0,1.7-0.5,2.5-0.9c1-0.6,2.2-1.3,2.6-2.5"/>
	<path class="st44" d="M357,63.5c2.3-0.3,4.7-0.4,7.1-0.3c1.2,0.1,2.4,0.2,3.5,0.8"/>
	<path class="st44" d="M417.6,180.8c2.9-0.9,6-0.6,9-0.2c1,0.1,1.9,0.2,2.9,0.4c1.1,0.2,2.1,0.6,3.2,1c2.6,0.9,5.3,1.9,7.6,3.5
		c0-0.1,0-0.2,0-0.3"/>
	<g>
		<path class="st53" d="M141.9,189.7c2.8,0.3,5.7,0.4,8.4-0.2c2.8-0.5,5.4-1.6,7.8-3.1c2.4-1.6,4.5-3.5,6.1-5.8
			c0.8-1.1,1.6-2.3,2.2-3.6c0.3-0.6,0.6-1.3,0.8-2s0.4-1.4,0.3-2l0,0c0-0.1,0-0.1,0.1-0.1h0.1c0.5,0.8,0.5,1.6,0.6,2.4
			c0,0.8-0.1,1.6-0.3,2.4c-0.2,0.7-0.5,1.5-0.9,2.2s-0.8,1.3-1.3,1.9c-0.2,0.3-0.5,0.6-0.8,0.8c-0.3,0.3-0.5,0.5-0.9,0.7
			c-0.7,0.4-1.2,1-1.7,1.5c-1.1,1-2.3,1.8-3.6,2.6c-2.5,1.5-5.4,2.5-8.3,2.9c-2.9,0.4-5.8,0.1-8.6-0.4l0,0
			C141.8,189.9,141.8,189.8,141.9,189.7C141.8,189.7,141.8,189.7,141.9,189.7z"/>
	</g>
	<path class="st44" d="M135.2,155.5c-2.1,1.5-3.1,4.1-3.6,6.7c-0.2,1-0.3,2.1,0.1,3c0.5,1.5,2,2.5,3.6,2.8c0.9,0.2,1.9,0.1,2.7-0.5
		c0.2-0.1,0.4-0.3,0.6-0.3"/>
	<path class="st44" d="M139.5,175.5c3.5,0.8,7.3,0.2,10.3-1.7"/>
	<path class="st44" d="M325.9,89c0.1-0.9,0.5-1.8,1.1-2.5s1.5-1.1,2.5-1c0.9,0.1,1.7,0.6,2.4,1.1c1.4,1.2,2.5,2.7,2.8,4.5
		c-0.7-0.5-1.6-1-2.4-1c-0.9-0.1-1.9,0.4-2.2,1.2"/>
	<path class="st44" d="M122.2,304.8c4.8,0.1,9.5-1,13.8-3.1"/>
	<path class="st44" d="M121.5,299.7c3.9-1.9,8.1-3.1,12.4-3.6"/>
	<path class="st44" d="M119.4,293c3.9-2.3,8.4-3.5,12.9-3.6"/>
	<path class="st44" d="M449.2,389.9c1.1-0.1,2.1-0.4,3.1-0.6s2.1-0.4,3.2-0.1"/>
	<path class="st44" d="M448.9,386.5c0.9-0.5,2-0.7,3.1-0.7s2.1,0,3.2-0.1"/>
	<path class="st44" d="M448.3,382.9c0.1-1.1,5.1-1.8,6.4-1.1"/>
	<path class="st44" d="M473.5,378.6c2.1-0.4,3.7-0.6,5.8-0.9c0.8-0.1,1.6-0.2,2.3,0.1"/>
	<path class="st44" d="M473.9,382.4c2.6-0.4,5.5-0.8,8-0.5"/>
	<path class="st44" d="M473.9,386.5c2.1-0.6,4.7-0.8,6.9-0.7"/>
	<path class="st44" d="M453.6,378.3c0.7,0.9,1,2.2,0.9,3.4c0.8,0.1,1.4,0.8,1.6,1.5s0.1,1.6-0.3,2.2"/>
	<path class="st44" d="M472.7,376.6c-0.3,0.8,0.2,1.8,1,2.1c-0.4,0.1-0.6,0.5-0.7,0.9c-0.1,0.5-0.1,1.1,0,1.6c0.2,0.5,0.5,1,1,1.2"
		/>
	<path class="st44" d="M443.6,345c-0.2-0.5,0-1.1,0.3-1.5s0.9-0.6,1.5-0.6c0.5,0.1,0.9,0.3,1.3,0.6c0.7,0.5,1.3,1.2,1.7,1.9
		c-0.3-0.4-0.8-0.5-1.3-0.6c-0.3-0.1-0.7-0.1-1,0s-0.6,0.5-0.4,0.8"/>
	<g>
		<path class="st53" d="M449.8,349.7c0.5,1.2,1.3,2.2,2.2,3c0.9,0.9,1.9,1.6,3,2.2s2.3,1,3.4,1.5s2.3,1,3.4,1.7c0,0,0,0,0,0.1l0,0
			c-1.3-0.1-2.5-0.4-3.8-0.9c-1.2-0.4-2.4-1.1-3.5-1.8c-1.1-0.7-2.1-1.6-3-2.5C450.8,352.1,450.1,351,449.8,349.7
			C449.7,349.7,449.7,349.7,449.8,349.7L449.8,349.7z"/>
	</g>
	<g>
		<path class="st53" d="M547,299c0.7,2,1.8,3.7,3.3,5.1c0.4,0.4,0.8,0.7,1.2,0.9c0.4,0.3,0.8,0.6,1.3,0.9c0.9,0.5,1.8,1,2.7,1.3
			s1.9,0.6,2.9,0.7s2,0.1,3,0.1c2,0,4.1,0,6.1-0.3h0.1c0,0,0,0,0,0.1c-0.9,0.5-2,0.7-3,0.9c-1,0.2-2.1,0.3-3.1,0.4
			c-1,0-2.1,0-3.2-0.1c-1.1-0.2-2.1-0.5-3.1-0.9s-1.9-0.9-2.8-1.5c-0.4-0.3-0.8-0.6-1.3-1c-0.4-0.3-0.8-0.6-1.2-1
			C548.5,302.9,547.4,301.1,547,299C546.9,299,546.9,299,547,299L547,299z"/>
	</g>
	<path class="st54" d="M554,286.4c-0.7,0-1.3,0.1-1.9,0.5"/>
	<path class="st54" d="M554.7,287.5c-0.6,0.2-1.1,0.5-1.5,0.8"/>
	<path class="st54" d="M559.8,275.9c2.2-0.4,4.4-0.1,6.5,0.3c0.6,0.1,1.1,0.2,1.7,0.5"/>
	<path class="st44" d="M540.2,292.5c-0.1-0.2-0.1-0.4-0.1-0.6c0.1-0.2,0.2-0.3,0.4-0.5c0.4-0.3,1-0.6,1.5-0.6c0.3,0,0.6,0,0.8,0.1
		s0.3,0.3,0.4,0.5c0.3,0.5,0.5,1,0.8,1.5c-0.5-0.2-1.1-0.3-1.6,0c-0.5,0.2-0.9,0.7-1,1.2"/>
	<path class="st44" d="M619.8,382.6c1.1-0.1,2.2-0.3,3.2-0.7c0.8-0.2,1.5-0.5,2.2-1.1c0.6-0.5,1.1-1.3,1.5-2c0.3-0.6,0.7-1.3,0.8-2
		c2.2,1.5,4.6,2.7,7.1,3.6"/>
	<path class="st44" d="M630.1,386.3c1.1,0.9,2.4,1.6,3.6,2.4c2.4,1.6,4.5,3.5,6.3,5.6"/>
	<path class="st44" d="M631.9,383.6c3.6,2.1,6.8,4.8,9.5,8"/>
	<path class="st55" d="M346,49.7c4.5,2.1,9.6,2.8,14.4,1.9c1.7-0.3,3.4-0.9,4.4-2.3"/>
	<path class="st55" d="M346.4,43.8c2.5,0.8,5.2,0.7,7.7,0.1c2.5-0.6,4.9-1.8,7.1-3.1"/>
	<path class="st55" d="M325.8,66c-1,1.9-1.6,4-1.7,6.1c-0.1,0.9,0,1.8,0.3,2.6c0.3,0.8,0.8,1.6,1.6,1.9"/>
	<path class="st55" d="M323.5,64.4c-1.6,1-2.7,2.6-3.3,4.4c-0.6,1.7-0.9,3.6-1,5.5"/>
	<path class="st55" d="M319.6,62.6c-2.1,1-3.8,3-4.6,5.2"/>
	<path class="st55" d="M148.6,126.8c-0.7,6.4-2.7,10.2-7.7,14.1"/>
	<path class="st55" d="M121.8,141.8c2.8-7.2,8.3-13.3,15.1-16.8"/>
	<path class="st55" d="M136.2,121c-2.4,0.7-4.7,1.5-6.8,2.8c-2.1,1.2-4,2.9-5.3,5"/>
	<path class="st55" d="M457.1,318.4c0.7,4,2.7,7.8,5.5,10.8"/>
	<path class="st55" d="M461.8,315.2c4.6,1.3,8.8,4,11.9,7.7"/>
	<path class="st55" d="M446.1,326.8c-0.9,1.6-1.1,3.5-1.2,5.3c-0.1,1-0.1,1.9,0.1,2.9s0.6,1.9,1.4,2.5"/>
	<path class="st55" d="M443.9,326.5c-1,1.8-1.7,3.8-2.2,5.8"/>
	<path class="st55" d="M553.5,263.3c1.4,1.8,3.1,3.3,5.2,4.1s4.5,0.9,6.6-0.1"/>
	<path class="st55" d="M554.9,260.3c2.2,1.7,5.3,2,7.8,0.7"/>
	<path class="st55" d="M547,269.8c-1.2-0.3-2.3,0.5-3.1,1.4c-1,1.2-1.7,2.7-1.9,4.3"/>
	<path class="st55" d="M543.6,267.9c-0.9,0.1-1.7,0.6-2.3,1.3c-0.6,0.7-1.1,1.5-1.5,2.3"/>
	<path class="st56" d="M559.8,314.1c-2.5,3.3-4.4,7.1-5.7,11c-1.4-0.9-2.8-1.8-4.2-2.6c-1.9-1.2-3.9-2.4-5.4-4.1
		c-1.6-1.7-2.7-3.8-2.6-6.1"/>
	<path class="st56" d="M561.8,314.9c1.7,1.7,3.3,3.6,4.7,5.6c0.6-1.9,1.1-3.8,1.5-5.8c0-0.1,0-0.1,0-0.2c0,0-0.1,0-0.1,0.1"/>
	<path class="st56" d="M526.9,349.7c3.1-2.7,4.2-7,5-11.1c0.2-1,0.4-1.9,0.3-2.9c-0.1-1-0.4-2-1.1-2.6"/>
	<path class="st56" d="M529.8,348.8c1.4-0.6,2.4-1.9,3-3.3s0.8-3,1-4.5"/>
	<path class="st56" d="M574.9,323.1c0.8,2.9-0.2,6-1.3,8.8c-0.2,0.4-0.3,0.8-0.3,1.2c0,0.3,0.2,0.6,0.4,0.8c2.6,4.6,3.1,10,3.3,15.3
		s0.2,10.6,1.7,15.6c0-0.2,0-0.3,0-0.5"/>
	<path class="st56" d="M606.3,367.7c-2.6,2.7-3.9,6.7-3.5,10.5"/>
	<path class="st56" d="M503,387.4c1.4,0.8,3,1,4.6,1c1.8,0,3.8-0.3,5.1-1.7"/>
	<path class="st56" d="M507.4,362.1c2,0,3.9,0.6,5.5,1.8"/>
	<path class="st56" d="M509.1,358.9c1.8,0.5,3.3,1.8,4.1,3.4"/>
	<path class="st56" d="M588.7,355.9c-0.6,0-1.1,0.3-1.5,0.6c-2.1,1.3-4.1,2.9-5.2,5.1"/>
	<path class="st56" d="M589.9,357.5c-1.3,0.6-2.3,1.6-3,2.8c-0.7,1.2-1.3,2.5-1.8,3.7"/>
	<path class="st56" d="M536.8,364.6c5.5-3.1,11.5-5.3,17.7-6.5"/>
	<path class="st56" d="M537.5,366c5.7-1.5,11.5-2.7,17.4-3.6"/>
	<path class="st56" d="M542.5,384.3c1.9-1.1,4.1-1.4,6.3-1.6c5-0.5,10.1-0.9,15.1-0.3"/>
	<path class="st55" d="M310,111.1c4.4,2.2,7,6.7,10,10.6c5.2,6.7,12.2,11.9,17.7,18.4c1.5-1.6,3-3.3,4.5-4.9"/>
	<path class="st55" d="M308.9,130.9c2.4-0.6,4.8-0.8,7.3-0.5c0.8,0.1,1.6,0.3,2.3,0.5c0.9,0.4,1.7,0.9,2.5,1.4c2,1.3,4,2.6,5.5,4.5
		c1,1.2,1.7,2.5,2.4,3.8c3.3,6.1,5.9,12.5,8,19.2"/>
	<path class="st55" d="M303,154.8c0.3,4.6,1,9.2,2.3,13.6c3.1,11,9,21,15.1,30.6c0.5,0.7,0.9,1.4,1.2,2.2"/>
	<path class="st55" d="M352.2,192.3c-0.8,0.6-1.3,1.6-1.6,2.5c-2.8,6.9-4,14.5-3.4,22"/>
	<path class="st55" d="M293.5,154.5c0.9,1.5,2.2,2.8,3.5,3.9c0.8,0.7,1.6,1.4,2.6,1.8c1.2,0.6,2.5,0.9,3.9,1.1"/>
	<path class="st55" d="M296.5,163.7c1.7,1.6,4.2,2.4,6.5,2c0.5-0.1,1.1-0.2,1.6-0.5"/>
	<path class="st55" d="M349.4,194.1c-0.9,0-1.6,0.6-2.3,1.1c-2.7,2.2-5.1,4.8-7.1,7.7"/>
	<path class="st55" d="M346.8,193.2c-2.8,0.8-5.3,2.3-7.3,4.4"/>
	<path class="st55" d="M354.7,205.7c1.3,0.2,2.6,0,3.8-0.6s2.2-1.4,3.1-2.3c1.1-1.1,2.2-2.5,2.7-4"/>
	<path class="st55" d="M317.8,206.4c-5.1-1.8-10.6-2.7-16-2.6"/>
	<path class="st55" d="M317.4,211c-5-0.5-10.1-0.2-15.1,0.9"/>
	<g>
		<path class="st57" d="M451.7,370.3c0.2-1.5,0.8-2.9,1.5-4.2c0.7-1.3,1.6-2.5,2.7-3.6c-0.6,1.4-1.3,2.6-2,3.9L451.7,370.3z"/>
	</g>
	<g>
		<path class="st57" d="M458.7,362.5c1.2,1,2.3,2.2,3.3,3.4c1,1.2,1.9,2.5,2.6,3.9c-1.1-1.1-2.2-2.3-3.2-3.5
			C460.4,365.2,459.4,363.9,458.7,362.5z"/>
	</g>
	<path class="st52" d="M140.2,266.6c8.6-1.6,17.7-0.7,25.8,2.5"/>
	<path class="st52" d="M146.1,268.8c5,0.6,9.9,1.2,14.9,1.9"/>
	<path class="st52" d="M119,223.5c1.9,5.7,4.9,11,8.9,15.5c0.2,0.2,0.4,0.4,0.5,0.7c0.2,0.4,0.1,0.8,0.1,1.2c-0.7,6.9,0,14,1.9,20.7
		c-0.2,0-0.4,0.1-0.6,0.1"/>
	<path class="st52" d="M191.5,223.6c-4.9,4.7-7.8,11.4-7.8,18.1c0,5.2,1.6,10.3,2.5,15.5c0.9,5.2,1,10.6,0.3,15.8
		c-0.4,2.8-1,5.7-3.1,7.6c-1.5,1.4-3.6,2-5.6,2.3c-5.6,0.9-12,0-16.5,3.4c-2.4,1.8-3.9,4.7-4,7.7c0.1-0.4,0.3-0.8,0.4-1.2"/>
	<path class="st52" d="M120.7,234.1c0,0.8,0.5,1.5,1,2.1c1.6,1.9,3.7,3.5,6,4.4"/>
	<path class="st52" d="M196.3,220.9c1.5-0.2,3,0.2,4.5,0.7c1,0.3,2,0.7,2.8,1.2c1.1,0.7,1.9,1.8,2.3,3"/>
	<path class="st52" d="M146.2,293.5c1.4-0.7,3-0.6,4.6-0.3c1.5,0.3,3,0.7,4.6,0.8c0.8,0,1.5-0.1,2.1-0.6"/>
	<path class="st52" d="M156.6,293.6c0.9,0.5,1.5,1.3,2.1,2.2c0.7,0.9,1.3,1.9,1.8,2.9c1.6,3.3,1.6,7.3-0.1,10.6
		c0-0.1-0.1-0.3-0.1-0.4"/>
	<path class="st52" d="M114.6,261.6c1.6,0.7,3.1,1.4,4.6,2.3c0.6,0.4,1.2,0.7,1.6,1.2c0.6,0.8,0.9,1.7,1.2,2.7"/>
	<path class="st52" d="M114.6,264.8c1.8,1.3,3.2,3,4.1,5.1"/>
	<path class="st52" d="M186.3,282.1c0.6,0.5,1.2,0.7,1.9,1.1c4.1,2.1,6.9,6.7,6.9,11.3"/>
	<path class="st52" d="M187.1,279.8c1.3-0.3,2.6-0.5,3.9-0.3c2.5,0.4,4.5,2.1,6.7,3.2"/>
	<path class="st52" d="M428.8,399.1c-0.3-5.2,3.1-9.2,3.9-10.3c1.3-1.8,3-3.4,3.2-5.6c0.1-1.3-0.1-0.8-0.2-2"/>
	<path class="st52" d="M432.3,397.4c2.7-1.7,5.4-3.5,7.9-5.5"/>
	<path class="st52" d="M432.4,412.1c3-2.6,6.1-5.3,9.1-7.9c2.1-1.8,4.2-3.6,5.7-5.9"/>
	<path class="st52" d="M450.6,373.1c0.2,0.3,5,4.3,5,4.2"/>
	<path class="st52" d="M458.1,379.5c1.3,1.4,2.9,2.5,4.6,3.3c2.8-4.9,5.5-15.9,5.6-15.9c0.1-0.1,0.1,0.1,0,0"/>
	<path class="st52" d="M435.6,395.3c-0.6,3.5,5.3,8.7,6.9,8"/>
	<path class="st52" d="M437.8,383c-0.3,2.9-2.5,5.6-5.4,6.3"/>
	<path class="st52" d="M419.2,402.2c1,0.4,2.1,0.1,3.2-0.2c2.3-0.7,10.2-4.5,10.1-4.7"/>
	<path class="st52" d="M434.2,426.4c6.6,2.5,13.9,3.3,20.9,2.2"/>
	<path class="st52" d="M452.4,401.6c2,0.7,4.2,0.3,6.2-0.3c3.3-0.9,6.6-2.1,9.7-3.5"/>
	<path class="st52" d="M456.7,403.5c2.6,0.7,5.4,0.3,7.7-1.1"/>
	<path class="st52" d="M474.3,390.3c-0.1,3.4-0.2,9.7-0.2,11.6"/>
	<path class="st52" d="M479,391.5c0.6,6.5,3,12.8,6.9,18.1c0.6,0.8,1.2,1.6,1.9,2.2c0.6,0.6,1.3,1.1,2.1,1.5c1.1,0.6,2.6,1,3.5,0.2"
		/>
	<path class="st52" d="M480.6,398.7c2.2,1.9,8.8-1.8,7.7-5.7"/>
</g>
<g id="Layer_6">
	<polygon class="st13" points="2.3,358.4 692,173.4 692.9,188 0.1,374.7 	"/>
	<path class="st52" d="M164.1,142.6c1.1,5.1,2.9,10.1,5.3,14.7c2.6,4.9,6.3,9.7,11.4,11.9"/>
</g>
</svg>
