<svg id="Layer_1" data-name="Layer 1" xmlns="http://www.w3.org/2000/svg" viewBox="0 0 601.19 272.57"><defs><style>.cls-1{opacity:0.25;}.cls-2{fill:#da3447;}.cls-3{fill:#d69348;}.cls-4{fill:#f0ab54;}.cls-5{font-size:78.35px;fill:#fff;font-family:Kalam-Regular, Kalam;}</style></defs><g class="cls-1"><path class="cls-2" d="M678.65,150a23.78,23.78,0,0,1-.93,8c-.29,1.12-.68,2.46-2.19,2.43a2.74,2.74,0,0,1-2.64-2.35c-.58-3.67-.93-7.39.64-10.94.57-1.27,1.32-2.78,3-2.56,1.87.26,1.93,2,2.11,3.49A12.21,12.21,0,0,1,678.65,150Z" transform="translate(-434.28 -55.5)"/><path class="cls-2" d="M620,151.66c-1-2.92,1.57-4.26,3.1-5.95,1-1.15,3.61.11,3.91,1.82.65,3.57-.45,6.92-1.64,10.19-.5,1.36-2.2,1.35-3.32.11C620.52,156.12,619.46,154.2,620,151.66Z" transform="translate(-434.28 -55.5)"/><path class="cls-2" d="M641.77,149.47c.21,1.69-.51,3.67,0,5.81.33,1.42-1.42,2.57-2.77,3a2,2,0,0,1-2.58-1.84c-.3-3.47-1.48-7,.46-10.41.57-1,1.06-2.07,2.44-1.84a2.71,2.71,0,0,1,2.22,2.48C641.66,147.48,641.67,148.31,641.77,149.47Z" transform="translate(-434.28 -55.5)"/><path class="cls-2" d="M597,148.61c-.06-1.2-.19-2.3,1-3.21,2.41-1.85,4-1.33,4.46,1.69.4,2.56,1,5.14.16,7.73-.37,1.16-.83,2.36-2.29,2.38s-2.26-1.1-2.5-2.41C597.47,152.75,597.28,150.67,597,148.61Z" transform="translate(-434.28 -55.5)"/><path class="cls-2" d="M608.44,158.4c.72-2.25-.06-5.19,1.79-7.53,1.38-1.75,3.07-1.61,3.53.5.61,2.77,1.37,5.64.07,8.48-.63,1.38-1.13,2.86-3.12,2.44S608.37,160.46,608.44,158.4Z" transform="translate(-434.28 -55.5)"/><path class="cls-2" d="M606.62,177.05a16.7,16.7,0,0,1,0-3.32c.27-1.36,1.07-2.58,2.65-2.56a2.28,2.28,0,0,1,2.28,2.74c-.28,2.71-.14,5.51-1.2,8.11-.33.83-.75,1.76-1.8,1.73s-1.32-1-1.61-1.86A11,11,0,0,1,606.62,177.05Z" transform="translate(-434.28 -55.5)"/><path class="cls-2" d="M666.77,149.89c-.17,1.59,0,3.53-1.64,4.89-1.8,1.52-3.67.93-3.83-1.38a23.38,23.38,0,0,1,.88-7.92,1.85,1.85,0,0,1,1.76-1.47,2,2,0,0,1,1.8,1.13C666.68,146.51,666.61,148.1,666.77,149.89Z" transform="translate(-434.28 -55.5)"/><path class="cls-2" d="M674.11,133.59c-2.6-.18-3-.57-2.63-3.07.24-1.76.56-3.52.92-5.25.25-1.23,1.06-1.52,2.18-1a4.38,4.38,0,0,1,2.58,3.87c.22,1.89.2,3.74-1.21,5.24A1.7,1.7,0,0,1,674.11,133.59Z" transform="translate(-434.28 -55.5)"/><path class="cls-2" d="M620.26,173.75a10.33,10.33,0,0,1,.17-4,2.39,2.39,0,0,1,2.11-2.29c1.34-.14,2.06.9,2.24,2.06.39,2.43.62,4.89-.52,7.22-.49,1-1.18,1.8-2.44,1.49s-1.36-1.25-1.43-2.26C620.33,175.19,620.3,174.44,620.26,173.75Z" transform="translate(-434.28 -55.5)"/><path class="cls-2" d="M600.06,173.13c.45,1.41,0,3-.12,4.5-.06.7-.24,1.35-1,1.54a1.75,1.75,0,0,1-1.78-.67,5.34,5.34,0,0,1-1.27-3.73c0-1.93.23-3.86.37-5.78.06-.88.36-1.68,1.33-1.82s1.65.55,2,1.41A10.23,10.23,0,0,1,600.06,173.13Z" transform="translate(-434.28 -55.5)"/><path class="cls-2" d="M611.55,133.09c.17,1.35.53,3.35-2.22,3.68a2.43,2.43,0,0,1-2.89-1.86c-.74-2.52,0-4.85,1.19-7,.65-1.2,2.2-1,3.16.18S611.59,131,611.55,133.09Z" transform="translate(-434.28 -55.5)"/><path class="cls-2" d="M634.34,112.76a11.74,11.74,0,0,1-.8,3.82,2.27,2.27,0,0,1-2,1.47,2.14,2.14,0,0,1-2.15-1.32,7.45,7.45,0,0,1,0-6.23c.48-1,1.19-2,2.55-1.76a2.63,2.63,0,0,1,2.25,2.41C634.22,111.73,634.28,112.32,634.34,112.76Z" transform="translate(-434.28 -55.5)"/><path class="cls-2" d="M609.64,110.44a2.83,2.83,0,0,1,2.69,1.68c.64,1.34,1.15,2.82.35,4.26a15.46,15.46,0,0,1-2,2.67c-.88,1-1.9,1-2.56-.17a8.12,8.12,0,0,1-.63-7.09A2.1,2.1,0,0,1,609.64,110.44Z" transform="translate(-434.28 -55.5)"/><path class="cls-2" d="M651.53,151a32.3,32.3,0,0,1,0-3.55,1.94,1.94,0,0,1,1.67-1.86c1.14-.13,1.31.86,1.84,1.58,1.81,2.51,1.52,4.95.21,7.5-.53,1-1.22,1.74-2.45,1.46s-1.44-1.2-1.47-2.23,0-1.93,0-2.9Z" transform="translate(-434.28 -55.5)"/><path class="cls-2" d="M637,129a4.55,4.55,0,0,0-.06,1.75c.92,2.19-.31,2.93-2.08,3.5-1.56.51-2.72.05-3.25-1.41-.61-1.67-1.07-3.49.8-4.78.5-.35,1-.61,1.23-1.2.38-1,.94-1.8,2.12-1.51s1.24,1.5,1.29,2.54c0,.37,0,.74,0,1.11Z" transform="translate(-434.28 -55.5)"/><path class="cls-2" d="M645.74,112.35a6.8,6.8,0,0,1-.57,3.75,2,2,0,0,1-3.32.76c-1.44-1.16-2.05-4.67-.93-6.18.77-1,1.67-2.33,3.25-1.79S646,110.89,645.74,112.35Z" transform="translate(-434.28 -55.5)"/><path class="cls-2" d="M653.68,173.38a6.75,6.75,0,0,1-.72,3.46c-.63,1.09-1.29,2.32-2.88,1.87-1.09-.3-2.12-2.83-1.62-4a19.21,19.21,0,0,0,1.29-3.54c.21-1,.69-1.9,1.87-1.88s1.71,1,1.93,2.1A14.67,14.67,0,0,1,653.68,173.38Z" transform="translate(-434.28 -55.5)"/><path class="cls-2" d="M601.44,114.3c0,2.41-1.12,4.18-2.73,4.23-1.83,0-3-1.55-3-4.18,0-2.44,1-3.73,2.79-3.76S601.42,112,601.44,114.3Z" transform="translate(-434.28 -55.5)"/><path class="cls-2" d="M658.47,111c.3,1.39-.35,2.69-.86,4a1.76,1.76,0,0,1-3,.65c-1.78-1.53-1.44-6.41.54-7.64s3.11-.81,3.34,1.6C658.5,110,658.47,110.43,658.47,111Z" transform="translate(-434.28 -55.5)"/><path class="cls-2" d="M625.37,131a10.28,10.28,0,0,1,.06,1.1c-.08,1.63-.79,3.1-2.42,3.24s-1.9-1.54-2.1-2.85c-.17-1-.17-2.06-.32-3.08-.29-1.87.49-2.77,2.36-2.93s2.16,1.16,2.35,2.52a14.82,14.82,0,0,1,0,2Z" transform="translate(-434.28 -55.5)"/><path class="cls-2" d="M635.19,174c-.34-2.07-.22-3.57,1-4.83.53-.55,1-1.2,1.84-1a1.81,1.81,0,0,1,1.48,1.75,26.17,26.17,0,0,1-.48,6.43,2,2,0,0,1-2.23,1.5c-1.07-.05-1.49-.9-1.58-1.85A17,17,0,0,1,635.19,174Z" transform="translate(-434.28 -55.5)"/><path class="cls-2" d="M673.3,111.48a9.59,9.59,0,0,0,.25,1.76c.25,1,.07,1.64-.84,2a1.61,1.61,0,0,1-2.13-.73,12.41,12.41,0,0,1-1.28-7.78,1.24,1.24,0,0,1,1.45-1.1,2.55,2.55,0,0,1,2.21,1.65A10.52,10.52,0,0,1,673.3,111.48Z" transform="translate(-434.28 -55.5)"/><path class="cls-2" d="M672.12,177.76a11.55,11.55,0,0,1,.11-1.32c.22-1,0-2.43,1.48-2.64s2.07,1,2.49,2.1a10.88,10.88,0,0,1,.55,5.48c-.25,1.66-1.36,2-2.69.88A5,5,0,0,1,672.12,177.76Z" transform="translate(-434.28 -55.5)"/><path class="cls-2" d="M597.11,131a10.39,10.39,0,0,1,.51-3.5,1.59,1.59,0,0,1,1.39-1.26,1.62,1.62,0,0,1,1.66.88c1.27,2.1.82,4.43.8,6.67,0,.78-.92,1.32-1.83,1.34a2.2,2.2,0,0,1-2.15-1.3A6.34,6.34,0,0,1,597.11,131Z" transform="translate(-434.28 -55.5)"/><path class="cls-2" d="M618.15,113.27a3.16,3.16,0,0,1,.9-2.57c1.46-1.53,3-1.29,3.77.68a4.48,4.48,0,0,1,.27,2.17c-.25,1.59-.32,3.46-2.52,3.64C619,117.32,618.13,115.79,618.15,113.27Z" transform="translate(-434.28 -55.5)"/><path class="cls-2" d="M662.5,129.78c-.24.81.78,2.61-1.1,2.81-1.68.18-2.29-1.42-2.64-2.79a27.26,27.26,0,0,1-.63-3.93,1.68,1.68,0,0,1,.76-1.73c.7-.41,1.23,0,1.79.44C662.44,125.8,662.65,127.59,662.5,129.78Z" transform="translate(-434.28 -55.5)"/><path class="cls-2" d="M650.29,130.86a1.39,1.39,0,0,1-1.2,1.59c-.93.2-1.87.14-2.33-.81a7.43,7.43,0,0,1-.35-5.83,1.36,1.36,0,0,1,1.34-1,1.79,1.79,0,0,1,1.58,1C650.23,127.42,649.89,129.21,650.29,130.86Z" transform="translate(-434.28 -55.5)"/><path class="cls-2" d="M661.65,174.72c.17-1.11.29-2.3.54-3.45.2-1,.52-2.12,1.8-1.74s2.28,1.43,1.82,2.86c-.31,1-.64,1.92-.86,2.93s-.53,2.25-1.88,2.08S661.66,175.92,661.65,174.72Z" transform="translate(-434.28 -55.5)"/></g><path class="cls-3" d="M532,328.07c-32.56-2.44-65.12-9.25-97.68-22.54Q447.65,284,461,261q-13.36-31.06-26.73-63.5c32.56,13.29,65.12,20.11,97.68,22.55Z" transform="translate(-434.28 -55.5)"/><path class="cls-3" d="M937.79,175c32.56,2.44,65.12,9.26,97.68,22.55q-13.37,21.54-26.73,44.5,13.37,31.08,26.73,63.51c-32.56-13.3-65.12-20.11-97.68-22.55Z" transform="translate(-434.28 -55.5)"/><path class="cls-4" d="M986.63,261.83C818.79,224,651,330.35,483.12,292.52v-108C651,222.35,818.79,116,986.63,153.83Z" transform="translate(-434.28 -55.5)"/><text class="cls-5" transform="matrix(1, -0.13, 0.13, 0.99, 104.98, 219.59)">Instructions</text><path class="cls-3" d="M594.08,77c-4.56.25-9.12.47-13.68.75-3.88.23-7.74.51-11.61.79-4.91.34-9.84.5-14.72,1.1-6.42.8-12.8,2-19.21,2.95a15.24,15.24,0,0,1-2.93.29,2.74,2.74,0,0,1-1.64-.73,4.68,4.68,0,0,1-1-1.8c-1.44-4.28-2.84-8.57-4.26-12.86a2.33,2.33,0,0,1,2.23-3.24,27,27,0,0,1,3.48-.06c4.67.21,9.22-.76,13.81-1.39a21.4,21.4,0,0,1,3.27-.37c3.91.08,7.71-.82,11.56-1.23a8.31,8.31,0,0,1,1.21-.14c4.39.17,8.62-.84,12.91-1.54,6.46-1.05,13-1.76,19.43-2.76,5.4-.84,10.85-.76,16.27-1.24a6,6,0,0,1,1,0c1.37.14,2.11,1.22,1.33,2.31-1.58,2.18-2.05,4.76-3,7.18-1,2.7-1.91,5.46-3,8.15a11.07,11.07,0,0,1-1.91,3.06,3,3,0,0,1-2,.85c-2.55.1-5.1,0-7.65,0Zm14.44-19.07-9.74.47c-.25,1.26-.75,2.33-.25,3.56.5,0,1,.12,1.4.12,2.07,0,4.14,0,6.21-.12a1.64,1.64,0,0,0,1.11-.83C607.72,60.22,608,59.22,608.52,57.94Zm-44.3,15.13,5.78-.58c.58-.06,1.08-.35,1-1a11.43,11.43,0,0,0-.78-2.79,1.75,1.75,0,0,0-1.35-.82,31.81,31.81,0,0,0-4.46.57c-.32.06-.82.59-.8.87C563.69,70.53,564,71.7,564.22,73.07Zm24.35-9.63a26.86,26.86,0,0,0,6.71-.91c.3-.08.73-.4.74-.62,0-1,.62-2.14-.17-3.15l-7.26.67a2.28,2.28,0,0,0-.58.3C588.18,60.88,588.36,62.05,588.57,63.44Zm-43.26,11c-.13-.85-.21-1.57-.36-2.28-.33-1.61-.61-1.77-2.26-1.51-1.43.22-2.87.38-4.3.6a8.67,8.67,0,0,0-1.18.4c.23,1,.43,1.91.65,2.8a1,1,0,0,0,1.28.87Zm52.56-6.07c2.32-.24,4.27-.42,6.21-.65.37,0,.91-.19,1-.45.48-.94.81-2,1.27-3.11a21.92,21.92,0,0,0-2.52-.18c-1.56.07-3.12.19-4.66.4a1.3,1.3,0,0,0-.91.81A29.36,29.36,0,0,0,597.87,68.34ZM604.25,70c-1.83.14-3.49.21-5.14.41a1.54,1.54,0,0,0-1.15.78,31.73,31.73,0,0,0-.59,3.51C601.93,75.36,603,75.28,604.25,70Zm-24.48-5.24c1.89-.23,3.5-.37,5.08-.64.5-.09,1.34-.55,1.33-.81,0-1.15.16-2.43-.81-3.46l-6.19,1.26C579.38,62.33,579.56,63.44,579.77,64.73Zm9.11,1.11c.07.94.1,1.8.2,2.64a1,1,0,0,0,1.21.92c1.49-.21,3-.4,4.46-.7a1.33,1.33,0,0,0,.91-.84,5,5,0,0,0-.12-3.09ZM537.15,69.3c1.93-.26,3.82-.5,5.7-.77.84-.12,1.25-.63,1-1.47-.23-.69-.13-1.79-1.33-1.67-1.94.19-3.89.45-5.82.74-.62.09-1.3.25-1.2,1.16C535.59,68.36,536.39,69.31,537.15,69.3Zm18.73,4.15c2-.34,4.14.13,6.18-.69-.35-1.39-.64-2.58-.95-3.85l-6,.6C555.38,70.88,555.61,72.05,555.88,73.45Zm25.28-2.69c.91-.11,1.84-.16,2.73-.34,3.61-.74,3.34-.12,2.68-3.89,0-.1-.14-.18-.32-.39-1.11.14-2.3.36-3.5.41-2.91.1-3,.54-2,3.54A4.48,4.48,0,0,0,581.16,70.76Zm-27.51,2.88c-.22-1.2-.37-2-.55-2.89a1.08,1.08,0,0,0-1.22-1l-5.09.48a24.51,24.51,0,0,0,.75,3.06,1.48,1.48,0,0,0,1.08.87C550.21,74.11,551.8,73.86,553.65,73.64Zm-23.53,2.72,5.6-.6a22.18,22.18,0,0,0-.38-2.42c-.36-1.27-.67-1.49-2-1.42s-2.73.26-4.32.42C529.43,73.83,529.79,75.14,530.12,76.36Zm47.78-8.82a8.73,8.73,0,0,0-5.31.67c.14.85.26,1.71.44,2.55.12.59.38,1.14,1.13,1.06,1.41-.15,2.83-.33,4.44-.53C578.34,69.89,578.11,68.68,577.9,67.54Zm-6.27-1.94c1.6-.13,3-.24,4.45-.37s1.64-.35,1.35-1.87c0-.23-.1-.46-.13-.68a1.3,1.3,0,0,0-1.7-1.24c-1.47.25-2.92.55-4.52.85C571.26,63.41,571.42,64.35,571.63,65.6ZM527,66.36c.56,1.64,1,2.88,1.39,4.11l5.4-.91c-.16-.86-.3-1.53-.39-2.2a1.05,1.05,0,0,0-1.18-1Zm62.48,8.46h5.41c.15-1.37.9-2.49.48-3.87l-6,.82c.07.66.13,1.1.15,1.55S589.5,74.24,589.5,74.82Zm-28.86-8c-.11-.69-.15-1.19-.28-1.67-.41-1.53-.58-1.68-2.16-1.56-1,.07-1.94.26-2.91.41-.66.1-1.26.24-1.21,1.14.08,1.34.54,2.21,1.46,2.17C557.19,67.19,558.83,67,560.64,66.77Zm-8.31.71a17,17,0,0,0-.48-2.22c-.12-.32-.56-.79-.8-.76-1.75.19-3.58-.18-5.31.69a8.43,8.43,0,0,0,.08,1c.39,1.78.5,1.89,2.3,1.75C549.43,67.87,550.73,67.67,552.33,67.48Zm16.79-1.75c.28-2.54-.25-3.08-2.47-2.75a20.24,20.24,0,0,1-2.06.21c-2.33.1-2.55.39-1.76,2.54a5.14,5.14,0,0,0,.37.65Zm18.23,9.18c-.06-.68-.12-1.13-.12-1.59,0-.8-.39-1.2-1.17-1.09-1.52.22-3,.51-4.7.79.11.83.21,1.47.32,2.3C583.61,75.2,585.42,75.48,587.35,74.91ZM537,80c-.27-2.2-.31-2.21-2.12-2-.69.09-1.38.06-2.07.12s-1.09.13-1.86.23c.35.92.6,1.58.92,2.39Zm2.21-2.56c.22,2.1.38,2.25,2,1.9s3.11-.73,4.63-1.09c.35-1.24-.36-1.63-1.26-1.55C542.77,76.85,541,77.17,539.18,77.43ZM573.67,76l5.64-.45c-.19-.81-.34-1.44-.51-2.13l-5.13.79Zm-19.9-.13c-1.55.13-3,.23-4.51.39-.57.07-1.17.23-1,1.06s.66.89,1.28.83c1.14-.13,2.29-.26,3.42-.45C553.82,77.5,554.19,77,553.77,75.83ZM565,75.14c-.21.89-.13,1.49.78,1.45,1.5-.06,3-.16,4.48-.33,1-.11,1.13-.48.66-1.78ZM556.34,77c1.91.35,3.81-.34,5.72-.4.17,0,.51-.48.46-.58-.14-.25-.44-.59-.68-.59-1.5,0-3,0-4.49.13C556.69,75.57,556.12,75.9,556.34,77Z" transform="translate(-434.28 -55.5)"/><path class="cls-3" d="M590.24,186.44c-3.74-.62-7.55.36-11.4.63-3.4.25-6.84.07-10.25.12-2.2,0-4.4.22-6.6.18-2.48,0-5-.16-7.44-.44-1.88-.21-2.38-1.5-1.09-2.9,3-3.31,4.09-7.46,5.25-11.58a4.29,4.29,0,0,0-.21-3.22,1.8,1.8,0,0,1,.06-2.12c.55-.67,1.25-.38,1.94-.29,2.69.36,5.38.88,8.09,1,2.88.1,5.78-.18,8.67-.32,1.22-.05,2.43-.12,3.64-.26a18.29,18.29,0,0,0,2.18-.44c1.14-.27,1.89.17,1.91,1.32a9.7,9.7,0,0,0,2.09,5.44c1.88,2.69,3.71,5.48,6.51,7.4,1,.7,1.93,1.61,1.52,3a3.16,3.16,0,0,1-3,2.28C591.57,186.34,591,186.37,590.24,186.44Z" transform="translate(-434.28 -55.5)"/><path class="cls-3" d="M573.54,163.8a66.08,66.08,0,0,1-14.43-1.48,35.79,35.79,0,0,1-8.18-2.29c-4.91-2.2-9.41-5-12.92-9.14a56.93,56.93,0,0,1-4.65-5.59c-1.64-2.57-2.91-5.39-4.29-8.12-1.61-3.22-2-6.76-2.56-10.23a22.7,22.7,0,0,1,.56-8.28c.26-1.24.48-2.5.82-3.73s.74-2.3,1.13-3.44c0-.11.11-.21.14-.32.86-4.18,3.58-7.29,6-10.58a89.63,89.63,0,0,1,8.33-9.29,10.78,10.78,0,0,1,2.82-2c2.54-1.25,5.24-2.19,7.67-3.61a29.67,29.67,0,0,1,5.89-2.35c3.89-1.3,7.88-1.07,11.86-.7,2.53.24,5,.64,7.58.94A26.3,26.3,0,0,1,590.91,88c1.35.89,2.71,1.78,4.11,2.6a22.56,22.56,0,0,1,6.21,5.75,73.36,73.36,0,0,1,6.2,8.38,30,30,0,0,1,4,12.83c.08,1,.14,2.08.28,3.11a23.18,23.18,0,0,1-.52,7.43,63.67,63.67,0,0,1-4.53,14c-.4.89-.67,1.85-1.06,2.75a21,21,0,0,1-4,5.63,46.27,46.27,0,0,1-13,10.06,17.68,17.68,0,0,1-2.27.86C582.1,162.94,577.81,164.12,573.54,163.8Zm-1.8-2.18c6.53,0,12.48-1.38,16.46-3.49a41.13,41.13,0,0,0,12.16-9.69,18.14,18.14,0,0,0,3.6-5.3c.84-2.28,1.74-4.54,2.58-6.82,2.14-5.82,3.59-11.72,2.76-18-.64-4.89-1.86-9.58-4.63-13.69-1.8-2.68-3.94-5.13-5.92-7.69a19.38,19.38,0,0,0-5.49-4.75A27.91,27.91,0,0,1,589.88,90a20.36,20.36,0,0,0-8.83-3.87c-3.39-.71-6.89-.86-10.32-1.39a25,25,0,0,0-13.12,1.66,85.69,85.69,0,0,0-8.74,4.23A23.13,23.13,0,0,0,544,93.94a61.21,61.21,0,0,0-11.44,14.33,10.21,10.21,0,0,0-1,2c-.71,2.32-1.35,4.66-2,7a20.6,20.6,0,0,0-.88,8.4c.6,4.28,1.06,8.65,3.21,12.56a49.73,49.73,0,0,0,2.79,5.2,52.36,52.36,0,0,0,7.86,8.78,32.4,32.4,0,0,0,13.36,7.15A74.5,74.5,0,0,0,571.74,161.62Z" transform="translate(-434.28 -55.5)"/><path class="cls-3" d="M567.27,91a33.32,33.32,0,0,1,13.07,2.11,32.37,32.37,0,0,1,11.75,7.81A37.5,37.5,0,0,1,599.81,112c.82,1.89,1.24,4,1.93,5.92.87,2.47.54,5,.56,7.53a30.2,30.2,0,0,1-.43,5.86,24.47,24.47,0,0,1-4,9,50.15,50.15,0,0,1-7.78,8.87c-2.92,2.7-6.48,4.19-10.17,5.49-3.9,1.37-7.8,1.24-11.83.83a70.9,70.9,0,0,1-11.84-2.64,30.19,30.19,0,0,1-4-1.73,5.06,5.06,0,0,0-.77-.39c-2.94-.6-4.76-2.71-6.63-4.79-.73-.82-1.63-1.47-2.42-2.23A29.45,29.45,0,0,1,534.94,132a20.84,20.84,0,0,1-.85-9.73,37.34,37.34,0,0,1,2.45-9.74,35.59,35.59,0,0,1,6-9.08c1.44-1.71,2.69-3.67,4.78-4.75,2.83-1.46,5.61-3,8.47-4.38,1.87-.91,3.86-1.57,5.76-2.43A11.29,11.29,0,0,1,567.27,91Zm33.08,32.91a32.94,32.94,0,0,0-.46-5,35.18,35.18,0,0,0-2-5.91,41,41,0,0,0-9.19-12.54,4.1,4.1,0,0,0-.71-.5c-2.19-1.4-4.36-2.86-6.59-4.19A11.24,11.24,0,0,0,578,94.32c-2.54-.49-5.13-.74-7.7-1a17.08,17.08,0,0,0-9.53,1.17c-3.24,1.54-6.42,3.21-9.68,4.69a15.41,15.41,0,0,0-5,3.89c-.47.52-1,1-1.47,1.48a28.61,28.61,0,0,0-6.68,10.25,40.8,40.8,0,0,0-1.25,4.52c-1,4.25-1.15,8.49.45,12.64.43,1.13,1.11,2.17,1.55,3.29,1,2.54,2.86,4.47,4.66,6.41a51.34,51.34,0,0,0,4.29,4,18.58,18.58,0,0,0,4,3,51.61,51.61,0,0,0,15.26,4.5c4,.52,8,1,12-.51,2.78-1,5.59-1.91,8-3.74a42.18,42.18,0,0,0,8.58-9,37.57,37.57,0,0,0,3.11-5.41C600.16,131.16,600.27,127.55,600.35,123.93Z" transform="translate(-434.28 -55.5)"/><path class="cls-3" d="M567.7,118.61c-.18-3.27-1.8-5.92-3-8.71-.38-.84-.86-1.64-1.24-2.49-.48-1.07-.28-1.51.69-2.17s1.7-1.35,2.61-1.91c.44-.28,1.21-.55,1.55-.35,1.15.68,2.35.49,3.55.53,1.88,0,2.22.48,1.81,2.37a57.51,57.51,0,0,0-1.43,11.17,2.34,2.34,0,0,0,1.32,2.36,4.82,4.82,0,0,1,1.86,6.44,6.88,6.88,0,0,1-10,2.7,3.14,3.14,0,0,1-1.72-3.16,5.06,5.06,0,0,0,0-.87C563.61,121.07,564.46,119.79,567.7,118.61Z" transform="translate(-434.28 -55.5)"/><path class="cls-3" d="M565.69,145.92c.18-1,.28-2,.54-2.93a1.26,1.26,0,0,1,1.45-1,1.3,1.3,0,0,1,1.24,1.24c.15,1.65.3,3.32.31,5a1.68,1.68,0,0,1-1.4,1.75c-1,.19-1.33-.53-1.54-1.27C566,147.81,565.88,146.85,565.69,145.92Z" transform="translate(-434.28 -55.5)"/><path class="cls-3" d="M570,98.75a8.23,8.23,0,0,1,0,2,1.5,1.5,0,0,1-1,1,1.39,1.39,0,0,1-1.19-.69A39.48,39.48,0,0,1,567,96a1.29,1.29,0,0,1,1.23-1.43,1.35,1.35,0,0,1,1.55,1.28c.14,1,.26,1.94.38,2.91Z" transform="translate(-434.28 -55.5)"/><path class="cls-3" d="M584.2,146.41c-.33.52-.54,1.15-1,1.38a1.64,1.64,0,0,1-1.38-.29,7.39,7.39,0,0,1-2.62-3.34c-.26-.74-.43-1.51.37-2s1.29,0,1.79.56c.67.7,1.38,1.37,2,2.12A8.5,8.5,0,0,1,584.2,146.41Z" transform="translate(-434.28 -55.5)"/><path class="cls-3" d="M540.57,120.52c.85.13,1.7.24,2.55.38.62.1,1.18.42,1.08,1.1a2,2,0,0,1-.79,1.19,4.48,4.48,0,0,1-3.9.54c-1.15-.31-1.68-1-1.57-1.92s.58-1.2,1.93-1.23h.69Z" transform="translate(-434.28 -55.5)"/><path class="cls-3" d="M595.49,125.13a4.93,4.93,0,0,1,1.7,0,2.79,2.79,0,0,1,1.3,1.16,1.11,1.11,0,0,1-.84,1.47,14.55,14.55,0,0,1-3.18.68c-.88.07-1.47-.8-1.61-1.92s.6-1.12,1.26-1.26A12.62,12.62,0,0,1,595.49,125.13Z" transform="translate(-434.28 -55.5)"/><path class="cls-3" d="M588.6,135.34a3.2,3.2,0,0,1,.81.38,14.56,14.56,0,0,1,2.1,2.05,1.64,1.64,0,0,1,.18,1.52,1.59,1.59,0,0,1-1.47.47,5.27,5.27,0,0,1-3-2.51A1.3,1.3,0,0,1,588.6,135.34Z" transform="translate(-434.28 -55.5)"/><path class="cls-3" d="M549.78,133.18a5.08,5.08,0,0,1-.55,1c-.67.73-1.36,1.43-2.08,2.09a1.15,1.15,0,0,1-1.72.06c-.51-.51-.25-1.09.13-1.56a15.15,15.15,0,0,1,2-2.18,2.21,2.21,0,0,1,1.56-.27C549.35,132.37,549.55,132.89,549.78,133.18Z" transform="translate(-434.28 -55.5)"/><path class="cls-3" d="M547.71,104.05c.1,0,.31,0,.42.13,1,.91,2.11,1.81,3.09,2.79a1.18,1.18,0,0,1,0,1.07,1,1,0,0,1-.89.31,6.57,6.57,0,0,1-3.48-2.71A1,1,0,0,1,547.71,104.05Z" transform="translate(-434.28 -55.5)"/><path class="cls-3" d="M593.76,109.47a6,6,0,0,1-.52,1c-.59.7-1.2,1.39-1.83,2a1.3,1.3,0,0,1-1.84.19c-.51-.57-.15-1.1.23-1.53a25.07,25.07,0,0,1,2.3-2.31,1.32,1.32,0,0,1,1.09-.14C593.43,108.76,593.57,109.18,593.76,109.47Z" transform="translate(-434.28 -55.5)"/><path class="cls-3" d="M555.86,141c.88-.06,1.55.65,1.14,1.31a13.93,13.93,0,0,1-2.34,2.64c-.2.18-1,0-1.22-.2a1.34,1.34,0,0,1-.09-1.21A4.39,4.39,0,0,1,555.86,141Z" transform="translate(-434.28 -55.5)"/><path class="cls-3" d="M582.33,103.54c-.8,0-1.3-.47-1.07-1.1a15.34,15.34,0,0,1,1.59-3c.12-.2.81-.25,1.07-.09a1.14,1.14,0,0,1,.45,1,24.88,24.88,0,0,1-1.52,2.89C582.76,103.42,582.47,103.47,582.33,103.54Z" transform="translate(-434.28 -55.5)"/><path class="cls-3" d="M558.6,102.26c-.53.21-1,.57-1.45.53a2.68,2.68,0,0,1-2.07-2.48c0-.49.51-.94.78-1.41a5.29,5.29,0,0,1,1.22.74,10.08,10.08,0,0,1,1,1.58A9,9,0,0,1,558.6,102.26Z" transform="translate(-434.28 -55.5)"/><path class="cls-3" d="M543.07,112.76c.94-.92,1.43-1,2-.36.36.38.52.82,0,1.17C544.16,114.15,543.57,113.7,543.07,112.76Z" transform="translate(-434.28 -55.5)"/><path class="cls-4" d="M658.57,107c-2.08,3.68-3.88,7-5.76,10.17a22.52,22.52,0,0,1-2.36,3.3c-.93,1.06-2.15,1.77-3.6,1.07s-1.66-2.07-1.51-3.47c.51-4.57,2.66-8.43,5.29-12.08.59-.83,1.83-1.7,1.31-2.7s-1.93-.36-3-.44c-4.55-.31-9.09-.51-12.6-4.1-2-2.07-1.81-3.75.94-4.68,3.39-1.15,6.87-.81,10.32-.23,1.22.2,2.4.77,3.9.4-.49-2.15-2.24-3.79-2.36-6-.06-1.18-.42-2.36.71-3.18s2.2-.17,3.26.32A13.55,13.55,0,0,1,657.59,89c1.2,1.39,2,2,2.76-.45a15.27,15.27,0,0,1,3.69-6.5c1.35-1.35,2.89-2.08,4.7-1.24s1.72,2.58,1.39,4.27c-.25,1.31-.48,2.62-.8,4.33,2.71-1.37,4.61-3.25,6.79-4.71,1.65-1.11,3.59-2.91,5.37-.88s.56,4.22-.94,6c-2.66,3.23-6.25,5.39-10.06,8.23,3.7.94,7.06,1.41,10,3.17a18,18,0,0,1,2,1.12c.93.77,2.26,1.53,1.6,3s-2,1.1-3.25,1.15a24,24,0,0,1-10.46-1.47c-1.1-.47-1.78-.08-1.36,1.21.63,1.92.92,4,2.12,5.68a14.56,14.56,0,0,1,2.36,6.77c.16,1.22.8,2.58-.81,3.27a3.92,3.92,0,0,1-4.09-.6C666.35,119.72,659.87,110.55,658.57,107Z" transform="translate(-434.28 -55.5)"/></svg>