<?xml version="1.0" encoding="utf-8"?>
<!-- Generator: Adobe Illustrator 25.2.3, SVG Export Plug-In . SVG Version: 6.00 Build 0)  -->
<svg version="1.1" id="Layer_1" xmlns="http://www.w3.org/2000/svg" xmlns:xlink="http://www.w3.org/1999/xlink" x="0px" y="0px"
	 viewBox="0 0 1126.7 716.1" style="enable-background:new 0 0 1126.7 716.1;" xml:space="preserve">
<style type="text/css">
	.st0{opacity:0.36;fill:#EFC929;}
	.st1{opacity:0.41;fill:#FFF39C;enable-background:new    ;}
	.st2{opacity:0.4;fill:none;stroke:#B7A100;stroke-width:3;stroke-miterlimit:10;}
	.st3{opacity:0.29;fill:#99ADE5;enable-background:new    ;}
	.st4{opacity:0.7;fill:#99ADE5;enable-background:new    ;}
	.st5{fill:#FFFFFF;}
	.st6{fill:#CCCCCC;}
	.st7{opacity:0.65;fill:url(#SVGID_1_);enable-background:new    ;}
	.st8{opacity:0.65;fill:url(#SVGID_2_);enable-background:new    ;}
	.st9{fill:#8C8E9B;}
	.st10{fill:#666666;}
	.st11{fill:#B3B3B3;}
	.st12{fill:#E6E6E6;}
	.st13{fill:#72A084;}
	.st14{fill:#4E725B;}
	.st15{fill:none;stroke:#FFE600;stroke-width:3;stroke-linecap:round;stroke-miterlimit:10;stroke-dasharray:16.73,22.3;}
	.st16{fill:none;stroke:#FFFFFF;stroke-width:3;stroke-linecap:round;stroke-miterlimit:10;}
	.st17{fill:none;stroke:#FFE600;stroke-width:3;stroke-linecap:round;stroke-miterlimit:10;stroke-dasharray:13.43,17.91;}
	.st18{fill:none;stroke:#FFE600;stroke-width:3;stroke-linecap:round;stroke-miterlimit:10;}
	.st19{fill:none;stroke:#FFE600;stroke-width:3;stroke-linecap:round;stroke-miterlimit:10;stroke-dasharray:11.88,15.83;}
	.st20{opacity:0.28;}
	.st21{opacity:0.74;}
	.st22{fill:#212045;}
	.st23{fill:none;stroke:#FFE600;stroke-width:3;stroke-linecap:round;stroke-miterlimit:10;stroke-dasharray:15.61,20.82;}
	.st24{fill:none;stroke:#FFE600;stroke-width:3;stroke-linecap:round;stroke-miterlimit:10;stroke-dasharray:16.51,22.01;}
	.st25{fill:#995A4D;}
	.st26{fill:#C7725A;}
	.st27{fill:#A5361C;}
	.st28{opacity:0.64;fill:#A5361C;enable-background:new    ;}
	.st29{fill:#422645;}
	.st30{opacity:0.57;}
	.st31{fill:#6382D7;}
	.st32{fill:#A1543F;}
	.st33{fill:#00B1AA;}
	.st34{fill:none;stroke:#FFFFFF;stroke-width:3;stroke-linecap:round;stroke-miterlimit:10;stroke-dasharray:15.29,20.39;}
	.st35{fill:#002042;}
	.st36{fill:#EEEEF0;}
	.st37{fill:#262840;}
	.st38{fill:#CACACA;}
	.st39{fill:#808080;}
	.st40{fill:#C64A27;}
	.st41{fill:#B7A100;}
	.st42{opacity:0.25;}
	.st43{opacity:0.4;fill:none;stroke:#212045;stroke-miterlimit:10;enable-background:new    ;}
	.st44{opacity:0.33;}
	.st45{fill:#D1B90F;}
	.st46{opacity:0.6;fill:#05A0A0;}
	.st47{opacity:0.42;}
	.st48{opacity:0.61;fill:#99ADE5;enable-background:new    ;}
	.st49{enable-background:new    ;}
	.st50{fill:#FFEF9F;stroke:#DBB600;stroke-miterlimit:10;}
	.st51{fill:none;stroke:#B7A100;stroke-width:3;stroke-miterlimit:10;}
</style>
<circle class="st0" cx="380.1" cy="70.7" r="49.4"/>
<path class="st1" d="M1002.6,295c-12.9-6.9-28.1-12.9-42.5-15.9c-8.1-1.7-31-5.7-38.8-9.6c-15-7.5-66.6-23-62-117.9
	c0.5-9.9-2.9-20-10.2-29.4c-2.3,1.5-5.2,2-7.9,1.4c-0.4,3-2,5.6-4.5,7.3c-4.8,2.9-11.1,1.6-14.3-3.1c-3.6,6.2-10.4,9.2-16.2,7.5
	c-5.9-1.7-8.2-7.2-8.6-8c-5.9,7.7-15.1,11.4-23.5,9.5c-5.1-1.3-9.6-4.4-12.6-8.6c-2.3,6.8-9.7,10.4-16.5,8.1
	c-5.1-1.7-8.6-6.4-8.8-11.8c-7.8-0.4-13.4-6.7-13.2-12.7c0.3-6.7,7.8-13.1,16.6-11.3c1.4-8.9,6.8-16.7,14.7-21.2
	c-40.6-5.9-93.2-5.2-158.4,6.2c-87.1,15.3-193.3,50.6-226.2,141.1c5.6,1.1,10.8,3.9,14.8,8c3.2-6.6,9-11.3,15.9-12.4
	c9.1-1.5,18.3,3.6,22.7,12.6c0.7-0.7,7.2-7,16.1-5.1c7.7,1.6,11.6,8,12.3,9.2c4.9-1.9,10.4,0.5,12.4,5.4c0.2,0.5,0.4,1.1,0.5,1.6
	c0.7,4.3-2.4,9.5-7.5,10.9c1.4,3.9,0.1,8.2-2.9,10.3c-3.3,2.3-8.1,1.3-10.6-2.5c-2.6,4.9-7.4,7.3-11.7,6.1c-0.4,2.8-1.9,5.2-4.2,6.7
	c-4.5,2.7-10.3,1.5-13.2-2.9c-3.3,5.8-9.6,8.5-15,7c-5.4-1.5-7.6-6.6-7.9-7.4c-5.4,7.1-13.9,10.5-21.7,8.8c-4.7-1.2-8.9-4-11.7-8
	c-1.7,4.5-5.8,7.6-10.6,8c-8.6,15.1-19.9,28.5-33.2,39.6c-25.1,21.1-54.4,33.5-84.1,57.4c-18.2,14.6-36.4,33.5-53.9,61.3
	c-0.7,1.1-1.4,2.2-2.1,3.4c-5,8.2-9,17-12,26.2c-2.6,8-4.3,16.2-5.2,24.6c-0.2,2.3-0.4,4.7-0.5,7c-0.3,7.1,0,14.3,0.9,21.4
	c6.6,51,63.3,99.7,118.5,114.6c195.6,52.5,294,81.6,609.8,41.5c36-4.6,58.5-21.6,63.1-42.3c0.2-1,0.4-1.9,0.5-2.9
	c0.1-0.7,0.2-1.4,0.2-2c0-0.2,0-0.5,0-0.7s0-0.3,0-0.4c0-0.1,0-0.2,0-0.3c0-0.3,0-0.5,0-0.8c0-0.1,0-0.2,0-0.3c0-0.2,0-0.4,0-0.5
	s0-0.5,0-0.8v-0.4l-0.1-1.2c0-0.1,0-0.1,0-0.2c-0.2-2.6-0.6-5.1-1.1-7.6c-2.2-9.7-11.2-17.1-20.3-26.2l-0.8-0.8
	c-10.4-10.6-20.6-23.5-19.9-44.4l0,0c0.4-8.4,2.1-16.8,5-24.7c1.1-3.3,2.6-6.5,4.3-9.6c1.8-3.2,3.9-6.2,6.2-9
	c0.5-0.6,1.1-1.3,1.7-1.9c18.9-20.9,51.3-28.7,77.5-50c6.1-4.9,11.6-10.5,16.4-16.6c11.8-15.1,20.8-35.6,24.1-65.3
	C1045.9,337.6,1031.9,310.7,1002.6,295z"/>
<line class="st2" x1="420.2" y1="282.7" x2="453.2" y2="370.8"/>
<line class="st2" x1="421.1" y1="176.9" x2="566.8" y2="434.7"/>
<line class="st2" x1="494.9" y1="178.7" x2="565.2" y2="267"/>
<line class="st2" x1="518.6" y1="160.7" x2="587.9" y2="233.6"/>
<line class="st2" x1="553.4" y1="156.1" x2="644.5" y2="234.2"/>
<line class="st2" x1="386.3" y1="192.5" x2="397.3" y2="221.6"/>
<path class="st3" d="M1018.1,415.6v20.5c-4.8,6.1-10.4,11.7-16.4,16.6c-26.2,21.3-58.5,29.1-77.5,50c-0.6,0.6-1.1,1.3-1.7,1.9
	l-0.8,1l-0.1,0.2c-2,2.5-3.7,5.1-5.3,7.8c-5.9-0.5-11.7-0.9-17.6-1c-3.1-0.1-6.3,0-9.5,0.1c-9.8,0.5-19.3,2.6-28.7,5
	c-2.7,0.5-5.4,1-8.1,1.7c-8.6,2-17,4.5-25.5,6.4c-1.3,0.3-2.6,0.5-3.9,0.8c-18.4,3.3-34.7,2.2-53.4-1.9c-11.1-2.4-25.7-5.1-36.9-7.2
	c-12.3-2.3-23.5-0.2-35.5,0.4c-1.1,0.1-2.2,0.1-3.3,0.1c-13.6,0.3-26.7,5.9-39.9,8.8c-7.7,1.7-15.5,2.3-23.4,2.9
	c-9.2,0.7-18.5,1.3-27.7,1.4c-6.6,0.1-13.2-0.1-19.7-0.7c-4.3-0.4-8.6-1-12.9-1.7c-9.1-1.7-17.4-5.1-26.2-7.7
	c-3.1-0.9-6-2.3-8.7-4.2c-3.9-2.7-7.2-6.1-9.8-10.1c-0.4-0.6-0.7-1.2-0.7-1.9c0.2-1.3,6.7-4.4,8.1-5.3c3.3-2.2,6.7-4.3,10-6.4
	c6.4-4,12.8-7.9,19.2-11.9c12.6-7.8,25-15.9,36.4-25.4h0.3v7.5h9.4v5.7h24.8v-18.2h16v6.6h7.8v-7.5h22.3v-8.8h15v6.6h7.5v48.6h6v-46
	h35.8v18.5h18.8v27.3h8.1v-19.7h10.3v-9.8h11.6v10h16.3v-10h2.8v-16l8.1-12.8l7.5,11.9v28.5h14.7v-27.6h32.9v31h7.8v-42.7h8.4
	l0.1-22.2l0.2-50.3l0,0v-10.7l5.3,8.8l13.2-119.6l7,120.1l5.6-9.1v12.3h-0.1l-0.1,36.4l-0.1,25h8.7V446h29.8v18.2h9.7v-20.4h12.5
	v-28.2H1018.1z"/>
<path class="st4" d="M554,514c-0.1,2.6-1.3,5.1-3.4,6.7c-7.5-0.8-15-2.1-22.4-3.8l-0.9-0.2c-7.3-1.7-14.6-3.6-21.9-5.5
	c-1.8-0.5-3.7-0.9-5.5-1.4c-10.9-2.8-21.8-5.3-32.7-6.6l-0.2-0.5l-0.3,0.4c-7.6-1-15.2-1.1-22.8-0.5c-2.1,0.2-4.2,0.4-6.3,0.7
	c-0.5-0.9-0.8-1.9-1-2.9c-1.2-6.8,5-13.7,13.9-15.3c7.1-1.3,13.8,1.2,16.8,5.7c3.9-7.3,14.4-10.6,24.9-7.3c8.2,2.5,14.1,8.3,16,14.6
	c2.4-1,5.1-1.4,7.7-1.4c7.3,0.1,13.5,4,15.2,9.2c2.7-1.8,6-2.7,9.2-2.6C548.1,503.5,554.1,508.2,554,514z"/>
<path class="st5" d="M157.1,525.5c38.8-4.1,75.2-23.2,114.8-20.5c37.1,2.6,71.2,21.1,109,14.3c21.3-3.8,41.4-13.1,63.1-15.1
	c2.2-0.2,2.3-3.7,0-3.5c-18.7,1.7-36.3,8.6-54.4,13.1c-20.2,5-39.5,4-59.7-0.6c-16.7-3.8-33.4-8.9-50.6-11.1
	c-19.7-2.5-39.2,0.4-58.4,5c-21.2,5.1-42,12.4-63.9,14.7C154.9,522.3,154.8,525.8,157.1,525.5L157.1,525.5z"/>
<path class="st6" d="M427.6,505.9c0,0,6-75.3,7.7-88c1.6-12.6,7.8-31.8,12.6-31.2c0,0-20.5,3.2-29.9,14c-9.4,10.9-5.3,17.5-1.8,49.4
	c3.1,29.1,6.6,55.4,6.6,55.4L427.6,505.9z"/>
<linearGradient id="SVGID_1_" gradientUnits="userSpaceOnUse" x1="288.1445" y1="99.2924" x2="285.7809" y2="73.2201" gradientTransform="matrix(1 0 0 1 142.1 315.17)">
	<stop  offset="0" style="stop-color:#FFFFFF;stop-opacity:0"/>
	<stop  offset="1" style="stop-color:#1D1D1B"/>
</linearGradient>
<path class="st7" d="M446.1,387.3c-4,3-8.4,16.3-10.3,27.1c-4.1,1-8.2,1.9-12,3.8c-2.7,1.3-5.1,3.2-7.2,5.3c-1,1-2,2.9-3.3,3.8
	c-1.8-13.5-1.8-19,4.7-26.6c7.5-8.7,22.1-12.5,27.6-13.6l0.3,0.1L446.1,387.3z"/>
<path class="st5" d="M708.4,516.2c-6.8,0.8-13.5,2-20.2,3.6c-63.5-34.1-221.6-118.6-239.1-123.1c-21.3-5.6-33.6,7.7-34.2,8.4
	c0.6-1.1,18.7-32.6,55-28.1C510.8,384.3,674.6,493.5,708.4,516.2z"/>
<path class="st6" d="M385.8,516.2c0,0-6-85.9-7.5-98.5c-1.5-12.6-7.6-31.8-12.3-31.3c0,0,20.5,3.3,29.8,14.3s5.1,17.6,1.5,49.4
	c-3.4,29.1-6.5,65.9-6.5,65.9L385.8,516.2z"/>
<linearGradient id="SVGID_2_" gradientUnits="userSpaceOnUse" x1="8660.7451" y1="98.7107" x2="8658.3721" y2="72.6384" gradientTransform="matrix(-1 -3.665300e-03 -3.665300e-03 1 9044.3564 348.962)">
	<stop  offset="0" style="stop-color:#FFFFFF;stop-opacity:0"/>
	<stop  offset="1" style="stop-color:#1D1D1B"/>
</linearGradient>
<path class="st8" d="M367.8,387c3.9,3,8.3,16.4,10.1,27.2c4.1,1,8.2,2,12,3.9c2.7,1.4,5.1,3.2,7.2,5.4c1,1.1,2,2.9,3.3,3.8
	c1.9-13.4,1.9-18.9-4.5-26.6c-7.4-8.8-22-12.6-27.5-13.8L368,387L367.8,387z"/>
<path class="st5" d="M398.9,405.1c0,0-9.3-10.8-26.2-9.9c-2.7,0.2-5.3,0.6-7.9,1.2c-6.2,1.6-12.3,4.7-18.1,7.3
	c-11.5,5.1-22.9,10.5-34.3,15.8c-14.9,7.1-29.8,14.2-44.7,21.4c-16.5,8-33.1,16.1-49.6,24.2c-16.2,8-32.5,16-48.7,24.1l-12.5,6.2
	c0.9-8.4,2.6-16.6,5.2-24.6c11.5-6.9,23.1-13.7,34.7-20.4c14.2-8.2,28.4-16.3,42.7-24.4c13.5-7.5,27.1-14.9,40.8-22.1
	c11.5-6,23.1-11.8,35-17.1c8.2-3.7,16.6-7.3,25.3-9.5c1.1-0.3,2.3-0.6,3.5-0.7c33.1-3.9,50.9,22,54.2,27.5l0.1,0.2l0.2,0.3
	c0.1,0.1,0.1,0.2,0.2,0.3L398.9,405.1z"/>
<polygon class="st9" points="354.2,446.1 354.2,455.4 331.2,454.3 331.3,434.7 331.3,434.7 "/>
<polygon class="st10" points="331.3,434.7 331.2,454.3 308.8,453.3 308.8,445.9 "/>
<path class="st11" d="M377.6,461.1l-0.2,55.4l-13.8,3l-1.4,0.3c-15.2,3.3-30.2-4.7-30.2-4.7l-0.8,1.7l0.2-62.5l0-12.7l22.8,9.6
	L377.6,461.1z"/>
<path class="st12" d="M331.3,441.6v12.7l-0.2,62.5c-5.7-1.6-11.2-4.1-16.7-6.4c-4.2-1.8-8.4-3.4-12.8-4.9c-1.5-0.5-3-1-4.5-1.4
	l-0.6-0.2c-1.5-0.4-3-0.8-4.4-1.2l-0.9-0.2c-1.5-0.4-3-0.7-4.5-1c-0.4-0.1-0.9-0.2-1.3-0.2l-0.6-0.1l0.2-40.4l23.8-9.9L331.3,441.6
	L331.3,441.6z"/>
<polygon class="st9" points="370,461.1 369.9,500.2 364.9,500.1 365.1,459.1 "/>
<polygon class="st9" points="358.5,456.4 358.3,495.5 353.4,495.5 353.5,454.4 "/>
<polygon class="st9" points="346,451.3 345.9,490.1 341,490.1 341.1,449.3 "/>
<path class="st9" d="M291.2,463.5l-0.1,39c-1.5-0.4-3-0.7-4.5-1l0.1-36.2L291.2,463.5z"/>
<path class="st9" d="M301.7,459.3l-0.2,46.2c-1.5-0.5-3-1-4.5-1.4l0.2-43L301.7,459.3z"/>
<polygon class="st9" points="308.5,456.6 308.3,503.3 312.8,503.3 312.9,454.8 "/>
<polygon class="st9" points="319,452.3 318.8,499 323.2,499 323.4,450.5 "/>
<polygon class="st6" points="296.6,465.1 296.6,469 292.1,470.6 292.1,466.9 "/>
<polygon class="st6" points="307.1,460.9 307,465.1 302.6,466.7 302.6,462.7 "/>
<polygon class="st6" points="318.3,456.4 318.3,460.9 313.8,462.6 313.8,458.2 "/>
<polygon class="st6" points="328.8,452 328.8,457 324.3,458.6 324.3,453.8 "/>
<polygon class="st6" points="296.5,476.8 296.5,480.7 292.1,482.4 292.1,478.6 "/>
<polygon class="st6" points="307,472.6 307,476.8 302.5,478.5 302.5,474.4 "/>
<polygon class="st6" points="318.2,468.1 318.2,472.6 313.7,474.3 313.8,469.9 "/>
<polygon class="st6" points="328.7,463.8 328.7,468.7 324.3,470.4 324.3,465.6 "/>
<polygon class="st6" points="296.5,488.6 296.5,492.5 292,494.1 292,490.4 "/>
<polygon class="st6" points="307,484.4 307,488.6 302.5,490.2 302.5,486.2 "/>
<polygon class="st6" points="318.2,479.9 318.2,484.4 313.7,486 313.7,481.7 "/>
<polygon class="st6" points="328.7,475.5 328.7,480.5 324.2,482.1 324.2,477.3 "/>
<path class="st6" d="M296.5,500.3v3.6c-1.5-0.4-3-0.8-4.4-1.2v-0.6L296.5,500.3z"/>
<polygon class="st6" points="306.9,496.1 306.9,500.3 302.4,502 302.5,497.9 "/>
<polygon class="st6" points="318.2,491.6 318.1,496.1 313.7,497.8 313.7,493.4 "/>
<polygon class="st6" points="328.6,487.3 328.6,492.2 324.2,493.9 324.2,489.1 "/>
<path class="st13" d="M433.3,489.2l5.2-0.8c-0.6-4.1-1.4-8.7-2.3-13.4l-5.3-1.2l4.8-1.6c-0.7-3.1-1.4-6.5-2.2-9.2l-2.9-0.1l2.3-2
	c-1.3-4.8-3.1-9.5-5.4-13.9l-1.9,0.9l0.8-2.6c-1.8-2.7-3.8-4.4-6-4.7s-4.4,4.8-6.6,12.3l4.3,3.1l-4.9-1c-1.3,4.5-2.5,9.6-3.6,14.8
	l4.2,2.4l-4.8-0.2c-0.9,4.3-1.7,8.6-2.6,12.6l-0.9,20.2l12.6,2.3c1.8,0.3,3.6,0.4,5.4,0.1l17.1-2.1c0,0-0.6-6-1.7-14.2L433.3,489.2z
	"/>
<path class="st14" d="M424.6,495.1c0.5-4.2,0.8-8.3,0.9-12.2l11.5-3.4c-0.1-0.5-0.2-0.9-0.3-1.4l-11.2,3.3c0.1-3.1,0.1-6.1,0-9
	l8.8-5.7c-0.1-0.5-0.2-1-0.4-1.5l-8.5,5.5c-0.1-3.1-0.4-6.1-0.6-8.8l6-7.2c-0.2-0.5-0.4-1-0.6-1.6l-5.7,6.7
	c-0.6-5.1-1.4-9.5-2.1-12.9c1-1.8,1.7-3.1,2.1-3.9c-0.3-0.4-0.7-0.7-1.1-1c-0.4,0.7-0.9,1.7-1.5,2.8c-0.4-1.7-0.8-3.1-1.1-4.1
	c-0.2-0.1-0.4-0.1-0.6-0.1c-0.3,0-0.6,0-0.9,0.2c0.3,1,0.7,2.6,1.2,4.6l-3.4-2c-0.2,0.4-0.4,0.8-0.6,1.3l4.5,2.6
	c0.7,3.5,1.5,8,2.1,13.3l-10.8-3.1c-0.1,0.5-0.2,0.9-0.4,1.4l11.3,3.3c0.3,2.7,0.5,5.6,0.6,8.7l-13.4-6l-0.3,1.4l13.8,6.1
	c0.1,2.8,0.1,5.8,0,8.9l-15.9-5.6c-0.1,0.5-0.2,1-0.3,1.4l16.1,5.6c-0.1,3.8-0.5,7.8-1,12l-16.8-6.9l-0.1,1.5l16.7,6.9
	c-0.4,3-0.7,6-1.3,9.1l1.4,0.3c0.6-3.1,1.1-6.2,1.4-9.1l15.1-1.3c-0.1-0.5-0.1-0.9-0.2-1.4L424.6,495.1z"/>
<path class="st3" d="M921.7,505.7v0.2h-0.1L921.7,505.7z"/>
<path class="st15" d="M616.3,260.5"/>
<line class="st16" x1="621.9" y1="268.8" x2="625.7" y2="274.4"/>
<path class="st17" d="M552.4,260.1"/>
<path class="st18" d="M560.9,272.3"/>
<path class="st19" d="M555.1,213.2"/>
<path class="st16" d="M559.2,219"/>
<g class="st20">
	<path d="M305.7,509.3c-1-0.2-1.9-0.5-2.9-0.7l-2.9-0.7l-2.9-0.7c-1-0.2-1.9-0.4-2.9-0.6c7.2,2.1,14.3,3.8,21.5,5.1
		C312.2,510.9,308.9,510.1,305.7,509.3z"/>
	<g class="st21">
		<path class="st22" d="M720.2,515.4c-4,0-7.9,0.3-11.8,0.7C674.6,493.5,510.8,384.3,469.9,377c-34.2-4.2-52.2,23.4-54.8,27.6
			l-0.1,0.2l-0.2,0.3c-0.2,0.3-0.4,0.6-0.5,0.9c-0.1,0.1-0.1,0.2-0.2,0.4c-0.2,0.4-0.3,0.7-0.5,1.1l-0.1,0.1
			c-0.2,0.4-0.3,0.8-0.4,1.2c0,0.1-0.1,0.3-0.1,0.4c-0.1,0.3-0.2,0.6-0.3,0.9l-0.1,0.4c-0.1,0.4-0.2,0.8-0.2,1.3c0,0.1,0,0.2,0,0.4
			c0,0.3-0.1,0.7-0.1,1c0,0.2,0,0.3,0,0.5c0,0.4,0,0.8-0.1,1.2c0,0.1,0,0.2,0,0.3c0,0.5,0,1,0,1.5c0,0.2,0,0.4,0,0.5
			c0,0.4,0,0.8,0,1.1v0.5c0,0.5,0.1,1.1,0.1,1.7l0.1,0.6c0,0.4,0.1,0.8,0.1,1.3l0.1,0.8c0,0.4,0.1,0.8,0.1,1.3
			c0.1,0.4,0.1,1,0.2,1.6c0,0.3,0.1,0.7,0.1,1l0.1,0.5l0,0c0.7,5.1,1.6,11.4,2.5,19.4c-0.7,1.7-1.4,3.8-2,6l2.9,2.1
			c0,0.2,0.1,0.5,0.1,0.7l-3.6-0.8c-0.2,0.8-0.5,1.7-0.7,2.6l0,0l0,0l-0.4,1.3l0,0l0,0c-0.5,1.9-1,3.9-1.5,6l0,0l0,0
			c-0.1,0.5-0.2,0.9-0.3,1.4l0,0l-0.8,3.4l4.2,2.4l-4.8-0.2c-0.9,4.3-1.7,8.6-2.6,12.6l-0.2,4.3v0.6l-0.6,15.3l3.2,0.6l-17.1,1.3
			c1.2-12.8,3.4-36.4,5.7-56.3c1.1-9.6,2.3-17,3.1-22.8l0,0c0-0.2,0-0.3,0.1-0.5c0-0.3,0.1-0.6,0.1-0.9c0.1-0.6,0.1-1.1,0.2-1.6
			c0.1-0.5,0.1-0.8,0.2-1.2c0-0.4,0.1-0.5,0.1-0.8c0-0.4,0.1-0.8,0.1-1.3c0-0.2,0-0.4,0.1-0.6c0.1-0.6,0.1-1.1,0.1-1.6
			c0-0.2,0-0.4,0-0.5c0-0.4,0-0.8,0.1-1.1c0-0.2,0-0.4,0-0.5c0-0.5,0-1,0-1.5c0-0.1,0-0.2,0-0.3c0-0.4,0-0.8-0.1-1.2
			c0-0.2,0-0.3,0-0.5c0-0.3,0-0.7-0.1-1c0-0.1,0-0.2,0-0.4c-0.1-0.4-0.1-0.9-0.2-1.3l-0.1-0.4c-0.1-0.3-0.2-0.6-0.2-0.9
			c0-0.1-0.1-0.3-0.1-0.4c-0.1-0.4-0.3-0.8-0.4-1.2l-0.1-0.1c-0.1-0.4-0.3-0.7-0.5-1.1l-0.2-0.4c-0.2-0.3-0.3-0.6-0.5-1l-0.2-0.3
			l-0.2-0.3l-0.1-0.2l-0.1-0.2c-3.4-5.5-21.1-31.3-54.2-27.5c-1.2,0.2-2.3,0.4-3.5,0.7c-8.7,2.2-17.1,5.9-25.3,9.5
			c-11.9,5.3-23.5,11.1-35,17.1c-13.7,7.1-27.3,14.5-40.8,22.1c-14.3,8-28.6,16.1-42.7,24.4c-11.7,6.7-23.3,13.5-34.8,20.4
			c-2.6,8-4.3,16.2-5.2,24.6l12.5-6.2c16.2-8,32.5-16.1,48.7-24.1c16.5-8.1,33-16.2,49.6-24.2c14.9-7.2,29.8-14.4,44.7-21.5
			c11.4-5.4,22.8-10.7,34.3-15.8c5.8-2.6,11.9-5.7,18.1-7.3c2.6-0.7,5.3-1.1,7.9-1.2c0.2,0.5,0.4,1,0.6,1.6c0,0,0,0.1,0,0.1l0.3,0.8
			c0,0.1,0,0.1,0.1,0.2c0.1,0.3,0.2,0.6,0.3,0.8v0.1c0.3,0.9,0.6,1.8,0.9,2.7c0,0.1,0.1,0.2,0.1,0.3l0.2,0.7c0,0.2,0.1,0.3,0.1,0.5
			c0,0.2,0.1,0.5,0.2,0.7l0.2,0.6l0.2,0.8c0.1,0.3,0.2,0.6,0.2,0.9c0,0.2,0.1,0.3,0.1,0.5c0,0.1,0.1,0.5,0.2,0.8
			c0.1,0.3,0.1,0.3,0.1,0.4l0.2,0.9c0,0.1,0,0.2,0.1,0.3c0.2,0.9,0.4,1.7,0.5,2.6c0,0,0,0,0,0.1l0.2,1.2c0,0,0,0,0,0.1
			c0.3,1.7,0.6,3.4,0.8,5c1.2,10.1,5.3,66.6,6.8,89.2l-7.8,0.6l0.2-46.3l-23.4-9.9l0,0v-5.2l-22.9-11.4l0,0l-22.5,11.2v5l0,0
			l-23.8,9.9l-0.2,40.4l0.6,0.1c0.4,0.1,0.9,0.2,1.3,0.2c1.5,0.3,3,0.6,4.5,1l0.9,0.2c1.5,0.4,3,0.8,4.4,1.2l0.6,0.2
			c1.5,0.5,3,0.9,4.5,1.4c4.3,1.5,8.6,3.1,12.8,4.9l3.5,1.5l-0.9,0.1c40.2,7.2,79.9,3,122-7.5c4-1,8.1-1.7,12.2-2.1
			c-2.2,0-4.5,0.1-6.7,0.2h-0.2c2.7-0.2,5.5-0.3,8.2-0.3c30.5-2.4,60.6,11.9,92,16.7c2.7,0.1,5.4-0.1,8.1-0.4
			c0.9-1.3,1.4-2.9,1.4-4.5c0.1-5.8-5.9-10.5-13.5-10.6c-3.2-0.1-6.4,0.8-9.2,2.6c-1.8-5.2-7.9-9-15.2-9.2c-2.6-0.1-5.2,0.4-7.7,1.4
			c-1.9-6.3-7.8-12.1-16-14.6c-10.5-3.2-21.1,0-24.9,7.3c-3-4.5-9.7-7-16.8-5.7c-4.6,0.7-8.7,3.1-11.7,6.7c-0.1-0.4-0.1-0.8-0.2-1.3
			l-5.5-1.4l5.2-0.8c-0.4-2.8-0.9-5.8-1.5-8.9l0,0c0-0.1,0-0.2,0-0.3c-0.3-1.4-0.5-2.8-0.8-4.2l-5.3-1.2l4.8-1.6
			c-0.7-3.1-1.4-6.5-2.2-9.2l-2.3-0.1c0-0.2,0-0.4,0-0.6l1.7-1.4c-0.4-1.4-0.8-2.7-1.2-4c1.5-17.3,2.9-33.7,3.6-39
			c0.2-1.6,0.5-3.2,0.8-5c0,0,0,0,0-0.1c0.1-0.4,0.2-0.8,0.3-1.2c0,0,0,0,0,0c0.2-0.8,0.4-1.7,0.6-2.6c0-0.1,0-0.2,0.1-0.3
			c0.1-0.3,0.1-0.6,0.2-0.9l0.1-0.4c0.1-0.3,0.1-0.5,0.2-0.8c0.1-0.3,0.1-0.3,0.1-0.5l0.2-0.9c0.1-0.3,0.1-0.5,0.2-0.8l0.2-0.6
			c0.1-0.2,0.1-0.5,0.2-0.7l0.1-0.4c0.1-0.3,0.2-0.5,0.2-0.7c0-0.1,0.1-0.2,0.1-0.3c0.3-0.9,0.6-1.8,0.9-2.7c0,0,0-0.1,0-0.1
			l0.3-0.8c0-0.1,0-0.1,0.1-0.2l0.3-0.8c0,0,0,0,0-0.1c0.2-0.5,0.4-1.1,0.6-1.6c2.7,0.2,5.3,0.6,7.9,1.3
			c17,4.4,168.1,85,234.3,120.6H681c2.3,0.8,4.8,1.5,7.1,2.5l0.2-0.1l4-0.9l0.3-0.1c1.5-0.3,3-0.6,4.4-0.9l0,0
			c1.7-0.3,3.3-0.6,5-0.9l0,0h0.3l0.7-0.1c1.3-0.2,2.6-0.4,3.9-0.5c-1.6,0.2-3.1,0.4-4.7,0.7h-0.2l35.2-0.4
			C731.7,515.8,725.9,515.4,720.2,515.4z M331.4,454.3l-0.2,56.6h-0.1L331.4,454.3L331.4,454.3L331.4,454.3z"/>
	</g>
	<path d="M703.2,516.9l-0.7,0.1c1.6-0.2,3.1-0.5,4.7-0.7C705.8,516.5,704.5,516.7,703.2,516.9z"/>
</g>
<path class="st23" d="M600.8,431.9"/>
<line class="st16" x1="606.2" y1="439.6" x2="610.1" y2="445.1"/>
<path class="st24" d="M401.4,214.5"/>
<path class="st24" d="M474.4,320.9"/>
<path class="st18" d="M480,329.1"/>
<path class="st25" d="M468,479.3c-3.1-2.6,3.3-14.7,6.9-20.6c2.3-3.6,3.5-5.4,5.4-6.4c7.9-3.9,19.5,6.8,20.3,7.5
	c-5.4,1.2-11.8,3.7-14.1,9c-1.3,3,0.1,5.7-2,7.7c-1.4,1.4-2.7,0.9-9.2,1.9C469.4,479.4,468.8,480,468,479.3z"/>
<path class="st26" d="M476.7,454.5c-3.9-1.2-12.3,4.9-15.2,11.1c-1.8,3.9-2.9,11.6-2.2,14.3c2.2,8.6,17.7,12.3,18.8,12.5
	c-1.9-5.2-2.4-10.3,0.8-15.1c1.8-2.7,8.4-5.8,8.9-8.7c0.4-1.9-5.7-1-8.4-7C476.9,456.2,477.6,454.8,476.7,454.5z"/>
<path class="st22" d="M591.4,473.8c-0.9,0.1-1.7-0.5-1.9-1.3c-7-24.4-5.3-50.5,4.8-73.9c0.4-0.9,1.4-1.4,2.4-1
	c0.9,0.4,1.4,1.4,1,2.4c0,0,0,0,0,0c-9.8,22.6-11.4,47.8-4.7,71.4c0.3,1-0.3,2-1.2,2.2c0,0,0,0,0,0L591.4,473.8z"/>
<path class="st27" d="M491.1,454.8c1.2-0.8,2.6-1.3,4.1-1.4c11.1-1,27.4-2.4,47.2-4c19.3-1.6,18.9-1.5,19.8-1.7
	c28.6-5.7,35.1-23.7,65.1-33.6c7.2-2.4,14.7-3.9,22.3-4.6l-8.7,47.4c-29.9,9.3-60.6,15.4-91.8,18.2c-20.9,1.9-41.9,2.3-62.9,1.2
	c-2.5-4-3-9-1.6-13.5C485.9,459.6,488.1,456.8,491.1,454.8z"/>
<path class="st26" d="M579.4,365.3c-0.5,0.6,3.5,4.5,4,5c1.6,2,2.7,4.3,3.2,6.8c0.6,2.5,2.5,4.2,4.2,6c1.7,1.8,6.9,1.9,8.3,4.1
	c0.5,0.8,0.8,11.4,1.7,11.3c0,0,27.2-2.4,36.3-27.6l-32.8-38.8L579.4,365.3z"/>
<path class="st26" d="M538.8,299.1c-0.5,1.4-1,2.9-1.4,4.4c-2.3,8.9-6.4,17.5-2,26.8c1.1,2.4,3.9,2.7,5.4,4.5s-0.2,6.8-0.8,9
	c-0.6,2.3-1.7,4.6-1.7,7.1c0,3.1,0.8,7.6,4.3,8.7c2.6,0.9,5.4-2,7.7-0.2c2.4,1.8,3.2,5.8,4.3,8.4c1.4,3.2,2.4,6.7,3.9,9.8
	c1.5,2.9,3.5,4.9,6.6,5.8c9.5,2.7,16.9-3.4,23.4-9.5c3.2-3,4.5-8.3,5.9-12.4c1.4-4,2-9.9,4.2-13.4c2.3-3.6,7.4-5.5,10.5-8.2
	c3.4-2.9,5.3-5.3,6.7-9.7c6-18.4,2.4-33-9.3-48.5c-12.6-16.8-38-9.6-53.2-0.9C546.4,285,541.6,291.6,538.8,299.1z"/>
<path class="st28" d="M604.2,278.9c-17.1,18.9-37.4,41.5-38.1,42.2c-3.7,3.7-6.9,7.9-9.4,12.5c0.4,4.2-3.4,9.2-7.4,10.3
	c-5.3,1.4-9.1,2.6-10.7,4.4c0.4-1.5,0.9-2.9,1.3-4.5c0.6-2.3,2.4-7.1,0.8-9c-1.6-1.9-4.3-2.2-5.4-4.5c-4.4-9.3-0.3-17.9,2-26.8
	c0.4-1.5,0.9-3,1.4-4.4c2.8-7.5,7.7-14.1,14.8-18.2C567.8,272.8,590.9,266,604.2,278.9z"/>
<path class="st29" d="M620.3,310.7c0.3,6.8-1,13.4-2.1,20.1c-0.7,4.2-0.6,10.7-6.2,11.6c-3.9,0.7-7.7-1.4-10.4-4.2
	c-1.3-1.4-2.4-3.1-3.1-4.9c-0.8-1.9-0.5-2.9-0.2-4.9c0.6-5.3-3.8-10.6-8.4-12.7c-4.1-1.9-8.9-1.4-10.9,3c-1.7,3.8,0.9,6,1.9,9.4
	c0.7,2.7-1.4,6.3-4.4,4.2c-2.1-1.5-2.8-4.2-4.3-6.1c-1.5-1.9-3.4-3.6-5.5-4.8c-3.6-2.1-7.6-1.9-8.6-6.4c-0.5-2.8-0.5-5.7,0-8.5
	c0.3-2.2,1.1-4.9-0.4-6.9c-2.8-3.7-9.8-1.3-13.6-0.5c-2.6,0.6-7.1,2.4-6.5-2.2c0.6-4.3,3.4-8.5,6.6-11.3
	c6.9-6.2,15.2-10.4,24.2-12.4c7.7-1.7,17.9-1.3,25.3,1.9s14.1,9.3,18.9,15.5C617.1,296.4,619.8,303.4,620.3,310.7z"/>
<path class="st29" d="M571.1,362c-5.1-4.1-12.8-2.8-17.5,1.4c-0.9,0.8,0.4,2,1.3,1.3c3.9-3.5,10.6-4.8,14.9-1.4
	C570.7,364,572,362.8,571.1,362L571.1,362z"/>
<g class="st30">
	<path class="st31" d="M682.4,566l-0.9,1.4c-0.5,0.8-0.3,2,0.6,2.5c0,0,0,0,0.1,0c0.9,0.5,2,0.2,2.5-0.7l0.8-1.4
		c0.6-0.8,0.5-1.9-0.3-2.5c-0.8-0.6-1.9-0.5-2.5,0.3C682.6,565.7,682.5,565.8,682.4,566L682.4,566z"/>
	<path class="st31" d="M641.6,554.4c-0.3,0.4-0.4,0.5-0.2,0.4l-1,0.4c-0.7,0,0.4,0,0.5,0c0.2,0,0.1,0-0.2,0c0.1,0,0.1,0,0,0
		c-0.3,0,0.2,0.2-0.1,0c-0.3-0.2-0.6-0.5-0.6-0.9c0,0.9,0.7,1.5,1.5,1.5c0.8,0,1.5-0.7,1.5-1.5c-0.1-1.2-1.1-2.1-2.3-2.1
		c-0.5,0-1,0.2-1.3,0.5c-0.2,0.2-0.3,0.4-0.4,0.7c-0.1,0.2,0.1-0.2,0.1-0.2s-0.2,0.3-0.2,0.4c0,0.2-0.1,0.3-0.1,0.5
		c0,0.7,0.5,1.3,1.2,1.3C640.8,555.5,641.4,555.1,641.6,554.4L641.6,554.4z"/>
	<path class="st31" d="M645.5,583.6c0.9,1.4,2,2.7,3.1,4c0.9,1,2.2-0.3,1.7-1.3c-0.7-1.4-1.5-2.8-2.4-4.1
		C646.9,580.7,644.4,582.1,645.5,583.6L645.5,583.6z"/>
	<path class="st31" d="M579.8,564.6l4.3,1.9c1.4,0.6,2.6-1.5,1.2-2.1l-4.3-1.9c-0.6-0.3-1.3-0.1-1.6,0.4
		C579,563.6,579.2,564.3,579.8,564.6L579.8,564.6z"/>
	<path class="st31" d="M596.3,596.3c0.7,0.1,1.5,0.1,2.2,0.1c0.7,0,1.3-0.6,1.3-1.3c0-0.6-0.4-1-0.9-1.2c-0.8-0.2-1.7-0.3-2.6-0.3
		c-0.8,0-1.4,0.6-1.4,1.4C594.9,595.7,595.5,596.3,596.3,596.3z"/>
	<path class="st31" d="M517.3,593.5c0.9-0.5,2-0.5,2.8,0.1c0.5,0.5,1.4,0.5,1.9,0c0.5-0.5,0.5-1.4,0-1.9c-1.7-1.4-4.2-1.6-6.1-0.5
		c-0.6,0.4-0.8,1.2-0.4,1.9C515.9,593.6,516.7,593.8,517.3,593.5z"/>
	<path class="st31" d="M502.3,564.7c1.5-0.3,3-0.7,4.5-1.3c1.1-0.4,1.1-2.5-0.3-2.3c-1.7,0.2-3.3,0.5-4.9,1
		C499.9,562.4,500.6,565.1,502.3,564.7L502.3,564.7z"/>
	<path class="st31" d="M479.4,579.9c1-0.2,2.1,0.1,2.9,0.8c0.6,0.5,1.6,0.5,2.1-0.2c0.5-0.6,0.5-1.4,0-2c-1.5-1.6-3.8-2.3-5.8-1.6
		c-0.8,0.3-1.2,1.2-0.9,2C477.9,579.7,478.6,580.1,479.4,579.9L479.4,579.9z"/>
	<path class="st31" d="M484.2,624.4l3.4,4c0.7,0.6,1.8,0.6,2.5,0c0.6-0.7,0.6-1.8,0-2.5l-3.3-4.1c-0.7-0.7-1.8-0.7-2.5,0
		C483.5,622.6,483.5,623.7,484.2,624.4z"/>
	<path class="st31" d="M600.3,629c1.2,1.7,2.3,3.4,3.6,5c1,1.2,3-0.4,2.2-1.7c-1-1.7-2.1-3.2-3.3-4.8
		C601.7,625.9,599.2,627.4,600.3,629L600.3,629z"/>
	<path class="st31" d="M680.8,611.4c0.6,0.3,1.3,0.6,1.9,0.9c0.7,0.3,1.4,0.5,2.1,0.7c1.1,0.3,2.2-1.2,1.2-2
		c-0.5-0.5-1.1-0.9-1.8-1.3c-0.6-0.4-1.3-0.7-1.9-1C680.6,607.7,679,610.4,680.8,611.4L680.8,611.4z"/>
	<path class="st31" d="M724.7,558.6c0.2,1.3,0.6,2.6,1.1,3.8c0.6,1.4,3,0.4,2.5-1c-0.4-1.2-0.9-2.3-1.6-3.3
		c-0.3-0.4-0.7-0.6-1.2-0.5C725,557.7,724.7,558.2,724.7,558.6L724.7,558.6z"/>
	<path class="st31" d="M727.2,541.7c0,0.5,0.2,1,0.4,1.4c0.4,0.6,1.1,0.8,1.7,0.4c0.1-0.1,0.2-0.1,0.2-0.2c0.3-0.3,0.6-0.8,0.7-1.2
		c0.2-0.9-0.3-1.7-1.1-1.9c-0.1,0-0.1,0-0.2,0c-0.9-0.1-1.7,0.5-1.8,1.3C727.2,541.6,727.2,541.7,727.2,541.7z"/>
	<path class="st31" d="M677.2,538.4c0.2,0.3,0.4,0.5,0.7,0.8c0.2,0.3,0.5,0.5,0.8,0.7c0.6,0.6,1.6,0.6,2.2,0
		c0.5-0.5,0.6-1.3,0.2-1.9c-0.4-0.7-0.9-1.4-1.5-2c-0.7-0.7-1.8-0.6-2.4,0.1C676.6,536.7,676.5,537.8,677.2,538.4L677.2,538.4z"/>
	<path class="st5" d="M706.3,586.5c-0.3,1.2-0.3,2.4,0,3.6c0.2,0.6,0.8,0.9,1.4,0.7c0.3-0.1,0.5-0.2,0.6-0.5
		c0.5-1.1,0.7-2.3,0.6-3.5c0-0.7-0.6-1.3-1.4-1.3C707,585.6,706.5,586,706.3,586.5L706.3,586.5z"/>
	<path class="st5" d="M707.8,585.5c0,1.3,0.1,2.5,0.2,3.8c0,0.9,0.7,1.6,1.6,1.6c0.9,0,1.6-0.7,1.6-1.6c-0.2-1.4-0.4-2.8-0.7-4.1
		C710.1,583.7,707.8,584,707.8,585.5L707.8,585.5z"/>
	<path class="st5" d="M700,555.4c0.4,1.5,0.7,3,1.1,4.6c0.5,1.7,3.1,1,2.7-0.7c-0.3-1.5-0.7-3.1-1-4.6
		C702.4,552.8,699.6,553.6,700,555.4L700,555.4z"/>
	<path class="st5" d="M656.8,562.1c2.2,0,4.5,0,6.7-0.2c0.8,0,1.4-0.6,1.4-1.4s-0.6-1.4-1.4-1.4c-2.2-0.1-4.5,0.1-6.7,0.2
		C655,559.3,654.9,562.1,656.8,562.1z"/>
	<path class="st5" d="M621.2,576.7c2.1,0.2,4.2,0,6.3-0.3c1.2-0.3,1.3-2.2,0-2.5c-2.1-0.3-4.2-0.3-6.3,0c-0.8,0.1-1.3,0.7-1.3,1.5
		C619.9,576.1,620.5,576.6,621.2,576.7L621.2,576.7z"/>
	<path class="st5" d="M593,549l5.3-0.3c2-0.1,2-3.2,0-3L593,546C591.1,546.1,591.1,549.1,593,549L593,549z"/>
	<path class="st5" d="M538.2,586l5.3-0.2c2-0.1,2-3.2,0-3.1l-5.3,0.3C536.3,583.1,536.2,586.1,538.2,586L538.2,586z"/>
	<path class="st5" d="M525.6,623l4.7-1.8c0.9-0.3,1.4-1.2,1.2-2.1c-0.3-0.9-1.2-1.4-2.1-1.2l-4.6,1.9c-0.9,0.3-1.4,1.2-1.1,2
		C523.8,622.7,524.7,623.2,525.6,623L525.6,623z"/>
	<path class="st5" d="M493.4,611.4l2.2,0.2c1,0,1.7-0.8,1.7-1.7c0-0.9-0.8-1.7-1.7-1.7l-2.2-0.2c-1,0-1.7,0.8-1.7,1.7
		C491.7,610.6,492.4,611.4,493.4,611.4z"/>
	<path class="st5" d="M478.6,662.6l5.2,1.1c2.5,0.6,3.5-3.2,1-3.8l-5.1-1.2C477.2,658.1,476.1,662,478.6,662.6L478.6,662.6z"/>
</g>
<path class="st29" d="M540.3,335.5c0.3,7.4-8.4,18.9,0.8,24.3c3.5,2,7.5-0.1,10.3-2.3c1.2-0.8,2.1-2.1,2.3-3.6
	c0.1-1.2,0.1-2.9-1.4-3.3c-0.5-0.1-1,0.2-1.1,0.6s0.2,1,0.6,1.1c0.1,0.5,0.1,1.1,0,1.6c-0.2,0.8-0.6,1.5-1.3,1.9
	c-1,0.9-2.2,1.6-3.4,2.2c-3.8,1.9-7-0.2-8.2-4c-1-3.2,0.6-6.1,1.5-9.1c0.8-3,1.8-6.3,1.7-9.4C542.1,334.3,540.3,334.3,540.3,335.5
	L540.3,335.5z"/>
<path class="st29" d="M579.6,318.3c8.9,1.2,17.8,3.1,26.8,3.9c3,0.3,6.1,0.7,9.1,1.2c2.5,0.4,5.1,1.3,5.5-2.1c0.2-3.1,0.2-6.2,0-9.4
	c-0.1-4.4-0.5-8.8-1.2-13.1c-0.5-2.7-0.7-5.5-1.6-8.1c-0.9-2.6-2.9-4.9-4.7-6.9c-4.9-5.5-11-9.8-17.8-12.6c-3.9-1.7-7.9-3-12.1-3.8
	c-8.1-1.3-16.3-1.1-24.4,0.6c-4.6,1-12.3,2.6-15.6,6.3c-2.7,3-5.7,11.6-6.8,15.4c-1.3,4.5-2.9,20.3-2.4,22.9
	c1.4,0.6,29.9,3.9,41.9,5.3L579.6,318.3z"/>
<path class="st26" d="M579.9,326.2c-2.3-2.7-2-8.4,0.9-10.5c3.4-2.4,7.5-1.5,10.8,0.4c5.4,3,7.7,11.6,5,17c-1.7,3.5-4.9,3.3-7.9,1.8
	"/>
<path class="st32" d="M580.5,325.7c-2.7-3.4-1.3-9.1,2.9-10.3c4.2-1.2,9.3,1.4,11.6,5c2,3.1,2.6,6.9,1.8,10.5
	c-1.1,4.3-5.6,5.7-9.5,4c-0.9-0.4-1.7,0.9-0.8,1.3c4,1.8,9.4,1.1,11.2-3.3c1.9-4.6,0.8-10.4-2.2-14.3c-3.2-4.2-10.4-6.9-15.1-3.4
	c-3.5,2.6-3.7,8.4-1.1,11.7C580,327.5,581.1,326.4,580.5,325.7L580.5,325.7z"/>
<path class="st5" d="M922.5,512.5c-13.6-1.3-27.3-2.5-40.9-0.8c-12.3,1.5-24.2,5.2-36.2,8.3c-14.8,3.9-29.4,6.5-44.7,5.3
	c-15.4-1.2-30.5-4.8-45.6-7.7c-14.6-2.7-29.3-4.9-44.2-3.5c-15.1,1.4-29.6,5.5-44.3,9.3c-15,3.8-30.4,7.6-45.9,7.5
	c-16-0.1-32.1-3.9-47.7-7.2c-17.4-3.7-34.6-8-51.9-12c-17.7-4.1-35.5-8.4-53.6-10.3l1.8,1.8l0,0c0-1-0.8-1.8-1.8-1.8
	c-10-1-20.1-1.3-30.1,0.1c-10.8,1.5-21.3,4.7-31.8,7.8c-11.3,3.4-22.8,6.9-34.6,8c-11.8,1-23.5-0.3-35-2.6
	c-17.3-3.5-34.1-8.9-51.6-11.7c-20.2-3.2-40.2-1-60,3.6c-22.6,5.3-44.7,13.2-68,15.6c-2.2,0.2-2.3,3.8,0,3.5
	c41.1-4.2,79.5-24.9,121.6-20c18.2,2.1,35.7,7.8,53.4,11.6c10.3,2.2,20.7,3.9,31.3,3.9c10.9,0,21.5-2.1,32-5
	c11.7-3.2,23.3-7.3,35.3-9.8c12.4-2.6,24.9-2.6,37.5-1.4l-1.7-1.8l0,0c0,1,0.8,1.7,1.8,1.8c16.7,1.7,33.1,5.7,49.5,9.4
	c15.3,3.5,30.3,7.2,45.7,10.6c15.3,3.4,30.9,6.9,46.6,8.7c14.4,1.6,28.4-0.1,42.5-3.1c15.7-3.3,31.1-8.1,46.9-11.1
	c15.8-3,31.3-2.5,47.2,0.1c28.4,4.7,56.2,13.1,85.2,7.5c15.2-2.9,29.9-8.3,45.2-11c15.3-2.7,31-1.6,46.4-0.1
	C924.8,516.3,924.8,512.7,922.5,512.5L922.5,512.5z"/>
<path class="st33" d="M559.4,312.9c-0.9-0.2-1.9-0.4-2.8-0.6c-1.9-0.6-3.4-1.7-5.1-2.6c-2.2-1.1-4.6-1.8-7-1.9
	c-1.8-0.2-3.5-0.6-5.3-0.8c-1.6-0.2-3.1,0-4.7-0.2c-12.7-1.6-25.2-3-37.9-3.5c-3.2-0.1-10.6-0.6-12.8,2.5c-3.2,4.5,5.6,5.2,8.2,5.5
	c15,1.8,30.1,2.2,45.2,2.8c4,0.2,8.1,0.4,12.1,0.6c4,0.2,7.7,1.2,11.5,1.8c2.1,0.3,4.3,0.4,6.4,0.5c1.5,0.1,3.2,0.6,4.7,0.4
	c1.3-0.2,0.6-1-0.3-1.6c-1.9-1.3-4.4-1.5-6.7-1.9C563,313.4,561.2,313.2,559.4,312.9z"/>
<path class="st34" d="M350.6,209.5"/>
<path class="st34" d="M528.7,466.5"/>
<line class="st16" x1="534" y1="474" x2="537.8" y2="479.6"/>
<path class="st32" d="M586.4,319.6c-1.4,3.1-1.5,6.6-0.4,9.8l1.2-0.3c-0.9-2.3,2.8-3.2,2.9-1.4c0.1,0.8,1.3,0.8,1.3,0
	c-0.3-3.9-7-2.2-5.4,1.7c0.3,0.7,1.5,0.5,1.2-0.3c-0.6-1.5-0.9-3.1-0.9-4.7c0.2-1.5,0.6-3,1.3-4.4
	C587.9,319.1,586.7,318.8,586.4,319.6z"/>
<path class="st33" d="M609.2,312.8c-2,0.6-1.1,5.7-1.6,7.8c2.3,0.1,4.6,1.5,6.8,2.2c1.1,0.3,3.7,1.7,4.8,1.6
	c1.8-0.2,3.5-4.7,2.6-6.1c-1.2-1.9-4.2-2.5-6.1-3.3C613.9,314.1,611.2,312.2,609.2,312.8z"/>
<path class="st33" d="M568,307.9c-0.4-7.9,0.2-15.8-0.5-23.7c-0.2-2.6-0.6-5.1-1.1-7.6c-0.4-2-0.9-4.4-2.5-5.9
	c-0.8-0.7-2,0.5-1.2,1.2c1.6,1.4,1.9,4.3,2.2,6.2c0.5,2.9,0.8,5.8,1,8.7c0.4,7-0.1,14.1,0.3,21.1C566.4,308.9,568.1,308.9,568,307.9
	L568,307.9z"/>
<path class="st35" d="M461.4,599c0,0,0,10.1-6.2,12.4c-13.8,5.1-32.7,10.6-46.5,12.3c-15.7,2-24.8,2.8-27.7,6.2
	c-2.9,3.4,5.9,10.5,24.9,14.7c22.2,4.9,54.5,9,65.5,11.3c11,2.3,17.8,4.3,19.8,3.6c2-0.6,3.6-52.5,3.6-52.5
	C470.9,607.2,461.4,599,461.4,599z"/>
<path class="st5" d="M381.1,629.9c0,0,23.1,6.7,39.3,9.3c16.2,2.6,70.7,10,73.7,10.8c0,0-1.8,9-2.5,11.6c-0.7,2.5-49.1-6.1-66.4-9.3
	s-44.4-8.9-44.7-11C379.3,630.7,381.1,629.9,381.1,629.9z"/>
<path class="st36" d="M420.8,624c-3.5-0.7-4.7,4.7-1.2,5.4C423.1,630.1,424.3,624.7,420.8,624z"/>
<path class="st36" d="M434.1,622.3c-3.5-0.7-4.7,4.7-1.2,5.4C436.4,628.4,437.6,623,434.1,622.3z"/>
<path class="st36" d="M447.2,619.9c-3.5-0.7-4.7,4.7-1.2,5.4C449.6,626,450.7,620.6,447.2,619.9z"/>
<path class="st36" d="M460.4,616.7c-3.5-0.7-4.7,4.7-1.2,5.4C462.7,622.8,463.9,617.4,460.4,616.7z"/>
<rect x="454.6" y="612.9" transform="matrix(0.157 -0.9876 0.9876 0.157 -258.239 998.4225)" class="st37" width="2.3" height="75.1"/>
<rect x="412.2" y="644.1" transform="matrix(0.2101 -0.9777 0.9777 0.2101 -300.1487 918.2437)" class="st38" width="11.9" height="1.5"/>
<path class="st5" d="M397.2,625.2c0,0-9.9,0.1-15.3,4c0,0,17.9,4.6,19.3,4.9C401,630.7,399.6,627.5,397.2,625.2z"/>
<path class="st39" d="M707.2,575.8c2.6,3,4.2,6.7,4.6,10.6c0.4,5.3-3.8,7.3-4.5,12c-0.5,3.4,0.7,7.5,0.3,11.1
	c-0.6,6.2-2.7,12.1-6.1,17.3c-8.1,11.8-20.9,14.8-27.1,16.3c-7,1.1-14.1,1.4-21.1,0.7c-23.7-2.5-42.8-28.5-65.3-56
	c-7.8-9.6-15.8-19.1-23.9-28.4c-5.1-5.8-10.6-11.4-15.4-17.4c-1.8-2.2-3.8-4.2-5.6-6.3c-1.9-2.4-3.4-5-4.5-7.8
	c0.7,1.6-0.1,5.9-2.3,6c-2.6,0.1-2.9-4.6-3-6.3c-0.6,2.9-1.1,6.4-2.1,9.1c-1.3,3.4-3.3,6.6-4.7,10c-2.1,5.3-4.6,10.5-6.6,15.9
	c-1,2.8-1.8,5.7-3.2,8.3c-1.3,2.4-2.4,5.1-4,7.4c-1.5,2.1-2.8,3.5-3.8,6c-2.6,6.2-4.3,12.7-7.2,18.8c3.6,2.1-2.9,7-4.7,8
	c-5.4,3.1-14.1,2.6-19.8,1.1c-5.2-1.3-9.1-4.2-13.3-7.4c-2.5-1.8-6.9-4-7.8-7.1c-1-3.3,2.2-7.1,3.3-10c2.2-5.4,3.5-11.4,5.5-16.9
	c1.2-3.4,3-6.9,3.9-10.4c1.1-4,0.8-8,2.3-12c3.2-8.3,6.8-16.4,10.2-24.5c3.9-9.3,5.3-19.2,8.7-28.7c3.1-9,5.6-18.1,9.1-27
	c2-5,4-12.6,7.9-16.4c3.9-3.9,8.6-6.9,13.7-8.9c24-8.3,46,11.3,62.7,25.4c8.9,7.6,17.2,15.5,25.4,23.9
	c18.3,18.7,39.4,35.2,59.8,51.6c11.6,9.3,23.5,18.7,34.7,28.1C704.7,573.1,706,574.4,707.2,575.8z"/>
<path class="st40" d="M712.4,608.8c3.1-4,6.9-6.8,9.2-12.2c5.9-14.2,10.6-30,12.5-45.4c1-8.3,1.8-16.7,2.5-25
	c1.1-12-3.4-22.7-6.1-34.3c-4-17.5-11.6-31.8-17.7-48.4c-13.5-36.7-35.4-74.8-71.8-92.9c-3.6-1.8-5.6-2.3-6.5-6.4
	c-1.4-6,5.3-10.9,6.7-16.6c1.1-4.6,1.6-10.4,5.1-13.9c2.8-2.8,6.6-3.6,9.8-5.6c6.9-4.1,8.2-16.3-0.5-19.3
	c-5.7-1.9-10.8-1.1-16.1-4.9c-4.4-3.1-7.1-8-10.6-12.1c-7-8.5-17.7-13.3-28.4-14.9c-5.5-0.9-11.1-1-16.6-0.3
	c-5.5,0.6-13.5-0.3-17.4,4.9c-2.3,3.1-1.1,7.7-0.8,11.3c0.6,6.4,0.7,12.9,1.3,19.3c0.8,8.4,1.7,16.7,3.8,24.9c1.8,7.4,5,14,6.3,21.5
	c0.9,5.1,0.7,10.3,1.5,15.4c0.9,5.1,1.2,10.3,0.8,15.5c-0.9,10.7-2.6,21.3-5,31.7c-1.6,7.2-5.2,17.9,1.4,23.7c2.6,2.2,6.5,3.4,9.5,5
	c7.9,4.3,10.5,9.4,12.6,17.9c5.7,22.8,11.4,49.8,29.7,66c4.4,3.9,8.4,5.9,11.2,11.2c3.6,7.1,5.3,15.1,10.2,21.8
	c6.6,9,16.1,14.1,25.2,20c5.3,3.4,12.3,6.7,16.1,11.6c4.3,5.5,6.1,13.3,9.9,19.4c2.1,3.1,3.9,6.5,5.2,10.1c0.8,2.4,0.7,4.6,2.8,6
	c0.6-0.7,2.6-2.7,2.6-2.8C711.4,610.2,711.9,609.5,712.4,608.8z"/>
<path class="st40" d="M622.3,368.6c14.2-8.1,36.1-1.5,45.1,11.6c11.4,16.4,4,40-6.9,54.7C647.7,452,632.7,466.5,616,480
	c-6.9,5.5-14.9,9.4-23.6,10.4c-5.2,0.6-9.4,2.6-14.6,4c-4.4,1.2-9.2,1-13.7,1.8c-5.2,0.9-10.3,2.4-15.5,3.4
	c-12.6,2.6-25.7,3.9-38.5,4.8c-9.6,0.7-29-0.7-32.7-12.2c-3.2-9.8,0.5-17.9,9.1-23.5c4.3-2.8,8.8-5.2,13.5-7.3
	c5.9-2.4,13.5-2,19.8-2.5c11.7-0.9,22.1-2.5,33.1-6.4c1.5-0.5,3-0.9,4.6-1c1.1-0.1,2.3,0,3.4,0.2c2.2,0.3,4.8-1,6.6-2
	c1.3-0.7,2.3-1.8,3.5-2.6c-0.1-0.1-0.1-0.3-0.2-0.4c0.8-0.7,2.2-0.5,3.2-0.5c-0.4-0.2-0.9-0.2-1.3-0.4c0.4-0.8,2.1-0.6,2.9-0.8
	c-0.5-0.4-1.4-0.4-1.6-1.1c1-0.8,2.6-0.3,3.6-1.1c1-0.8,1.6-2.2,2.5-3.1c2.2-2.4,4.5-4.8,6.6-7.3c6.9-8.1,12.8-17,17.6-26.5
	C616.6,381.8,612.7,374.1,622.3,368.6z"/>
<path class="st5" d="M475.5,604.6c-0.1,0.1-0.3,0.3-0.4,0.4l1.3,0.8c1.5-8.4,5.6-16.6,9.2-24.2c1.9-4,4-7.9,5.7-11.9
	c1.8-4.3,3.1-8.8,4.9-13.1c3.7-8.8,8-17.3,12.7-25.6c2.3-4.2,4.7-8.4,7-12.6c1.9-3.4,3.4-7,5.3-10.4c1.1-2,2.4-3.8,4-5.4
	c0.3-0.3,0.6-0.6,1-0.9c0.7-0.6,0.8-0.9,1.6-0.6s1.6,1.6,2,2.2c1.9,3,2.3,6.7,4.2,9.8c0.2,0.4,0.7,0.5,1.1,0.3
	c0.2-0.1,0.3-0.3,0.3-0.4c1.2-3.4,1.8-7.1,3.7-10.1l-1.5-0.4c0,1.7,0.7,3.1,1.1,4.7c0.1,0.4,0.6,0.7,1,0.5c0.2-0.1,0.3-0.2,0.4-0.3
	c0.6-1.1,1.6-1.8,2.2-3l-0.9,0.4c7.1,2.4,13.4,7,19.4,11.5c6.9,5.2,13.5,11,19.8,16.8c6.4,5.8,12.8,11.5,18.8,17.7
	c5.8,5.9,10.8,12.4,16.1,18.8c4.6,5.5,9.6,10.5,14,16.2c3.3,4.2,6.7,8.8,11.6,11.2c3.6,1.8,8.5,2.6,12.1,0.4
	c3.4-2.1,5.9-5.8,7.9-9.1c2.7-4.5,5.1-9.2,7.2-14.1c0.8-1.8,1.5-3.6,2.3-5.4c0.2-0.6,0.5-1.1,0.7-1.7c0.1-0.2,0.4-0.8,0.2-0.5
	l-1.2-0.2l0,0c0.4,0.9,1.8,0.1,1.4-0.8l0,0c-0.2-0.4-0.7-0.5-1.1-0.3c-0.1,0-0.1,0.1-0.1,0.1c-1.1,1.4-1.6,3.8-2.3,5.4
	c-1.7,4.1-3.6,8.1-5.7,12.1c-2.1,4-4.5,8.1-7.7,11.3c-3.5,3.5-8.1,3.8-12.5,1.6c-5.2-2.5-8.7-7.5-12.1-11.9
	c-4.1-5.3-8.8-9.9-13.1-15.1c-5.1-6.1-10-12.4-15.5-18.2c-5.8-6.1-12.2-11.7-18.4-17.4c-6.8-6.2-13.7-12.3-21-17.8
	c-6.2-4.7-12.8-9.5-20.3-12.1c-0.3-0.1-0.7,0-0.9,0.4c-0.6,1.1-1.6,1.9-2.2,3l1.4,0.2c-0.4-1.5-1-2.7-1-4.3c0-0.4-0.4-0.8-0.8-0.8
	c-0.3,0-0.5,0.1-0.6,0.4c-2,3.2-2.7,7-3.9,10.5l1.4-0.2c-2.7-4.3-2.7-10.5-7.7-13.1c-0.2-0.1-0.5-0.1-0.8,0
	c-5.5,3.8-7.8,9.9-10.8,15.8c-3.7,7.4-8,14.5-11.9,21.8c-3.8,7.1-7.3,14.3-10.2,21.8c-1.6,4.1-2.9,8.4-4.7,12.5
	c-1.7,3.7-3.6,7.3-5.3,11c-3.5,7.5-7.4,15.3-8.9,23.5c-0.1,0.4,0.2,0.9,0.6,1c0.3,0.1,0.5,0,0.7-0.2c0.2-0.2,0.5-0.5,0.6-0.7
	C477.4,604.6,476.1,603.8,475.5,604.6L475.5,604.6z"/>
<path class="st10" d="M535,526.2c-0.1-4.4-0.9-9.3-3.6-12.9c-0.6-0.8-1.9,0-1.4,0.8c2.5,3.5,3.3,8,3.4,12.2c0,0.4,0.4,0.8,0.8,0.8
	C534.6,527,535,526.7,535,526.2L535,526.2z"/>
<path class="st10" d="M539,526.5c-0.7-4.9,0.6-9.8,1.5-14.6c0.2-1-1.3-1.4-1.5-0.4c-1,5.1-2.3,10.2-1.5,15.4
	C537.6,527.9,539.2,527.5,539,526.5z"/>
<path class="st10" d="M476.2,571.9c6.1,2.7,12.4,13.1,20.1,9.6c0.9-0.4,0.1-1.8-0.8-1.4c-3.7,1.7-7.6-1.5-10.4-3.7
	c-2.6-2.1-5.1-4.6-8.1-5.9C476.1,570.1,475.3,571.5,476.2,571.9L476.2,571.9z"/>
<path class="st10" d="M481,581.3c0.5,0,1.4,0.8,1.8,1.1c0.9,0.6,1.7,1.1,2.6,1.7c1.6,1.1,3.4,1.8,5.3,2.1c1,0.1,1-1.5,0-1.6
	c-2.2-0.1-4.3-1.7-6-2.8c-1-0.6-2.4-2-3.6-2c-0.4,0-0.8,0.4-0.7,0.9C480.4,580.9,480.7,581.2,481,581.3L481,581.3z"/>
<path class="st27" d="M610.9,485.2c9.8-7.3,18.8-15.5,26.9-24.5c8.3-9.4,15.7-19.5,23.7-29.2l-1.1-0.8c-0.1,0.4-0.3,0.8-0.6,1.1
	c-0.5,0.7,0.7,1.4,1.2,0.7c0.3-0.3,0.5-0.7,0.6-1.1c0.3-0.6-0.5-1.5-1.1-0.8c-7.7,9.2-14.7,18.9-22.6,27.9
	c-8.3,9.4-17.6,18-27.7,25.5C609.6,484.6,610.3,485.7,610.9,485.2L610.9,485.2z"/>
<path class="st27" d="M588.4,431.8c4.2-6.3,9.3-12.1,12.9-18.9c0.4-0.8-0.8-1.5-1.2-0.7c-3.6,6.8-8.7,12.6-12.9,18.9
	C586.7,431.8,587.9,432.4,588.4,431.8L588.4,431.8z"/>
<path class="st27" d="M624.8,503.1c3.9,2.8,7.9,5.8,12.7,6.5c5.4,0.8,10.8-1.1,16.2-1.4c11.7-0.6,21.1,5.8,30.2,12.3
	c0.7,0.5,1.4-0.7,0.7-1.2c-7.6-5.5-15.5-11.1-25-12.3c-5.5-0.7-10.5,0.6-15.9,1.1c-7.3,0.8-12.4-2.2-18.2-6.3
	C624.8,501.4,624.1,502.5,624.8,503.1L624.8,503.1z"/>
<path class="st27" d="M658.1,516c4.3,2.5,8.6,5,12.2,8.6c0.6,0.6,1.6-0.3,1-1c-3.7-3.6-8.1-6.2-12.5-8.8c-0.3-0.2-0.7,0-0.9,0.3
	C657.8,515.4,657.9,515.8,658.1,516z"/>
<path class="st27" d="M627.6,347.5c-2.3,6.4-7.2,11.4-12.2,16c-1.7,1.6-3.5,3.2-5.3,4.7c-0.9,0.8-3.7,3.9-5.1,3.6
	c-0.8-0.1-1.2,1.2-0.4,1.3c3.3,0.5,8.6-5.9,10.7-7.8c5.4-5,10.9-10.4,13.4-17.4C629.2,347,627.8,346.6,627.6,347.5L627.6,347.5z"/>
<path class="st27" d="M625.8,360c-2.4,3.1-4.4,6.6-7.1,9.6c-0.6,0.6,0.4,1.6,1,1c2.6-3,4.6-6.4,7.1-9.6
	C627.3,360.3,626.4,359.4,625.8,360z"/>
<path class="st27" d="M707.1,467.8c11.6,29.9,28.3,68,11,98.9c-0.2,0.3-0.1,0.7,0.2,0.9c0.3,0.2,0.7,0.1,0.9-0.2
	c17.5-31.3,0.9-69.6-10.8-99.9C708.1,466.6,706.8,467,707.1,467.8L707.1,467.8z"/>
<path class="st27" d="M715.9,524.8c0.9,9.1,2.9,18.6-0.2,27.6c-0.3,0.8,1,1.2,1.3,0.4c3.1-9,1.2-18.7,0.2-28
	C717.2,523.9,715.8,523.9,715.9,524.8L715.9,524.8z"/>
<path class="st27" d="M642,292.9c-12.3-3.7-18.3-19.1-31.8-19.8c-2.2-0.1-6,0-5.9,3c0.2,5.6,10.8,6.5,13.5,9.9c0.5,0.7,1.5-0.3,1-1
	c-1.3-1.6-3-2.8-5-3.5c-2-0.8-7.4-2-7.9-4.8c-0.7-4.4,9-1.6,11-0.5c9.2,5,14.3,14.9,24.7,18c0.4,0.1,0.7-0.1,0.8-0.5
	C642.6,293.3,642.4,293,642,292.9L642,292.9z"/>
<path class="st41" d="M950.1,630.2c0,0.2,0,0.4,0,0.5c0,0.1,0,0.2,0,0.3c0,0.3,0,0.5,0,0.8c0,0.1,0,0.2,0,0.3c0,0.1,0,0.3,0,0.4
	c0,0.1,0,0.5,0,0.7c-0.1,0.7-0.1,1.4-0.2,2c-0.1,1-0.3,2-0.5,2.9H726.1V593h201.8l0.8,0.8c9,9,18,16.6,20.3,26.2
	c0.6,2.5,1,5,1.1,7.6c0,0.1,0,0.1,0,0.2l0.1,1.2v0.4C950.1,629.7,950.1,629.9,950.1,630.2z"/>
<path class="st41" d="M928.7,593.8H783.1v-45.2h124.9l0,0c-0.7,20.9,9.5,33.8,19.9,44.4L928.7,593.8z"/>
<path class="st41" d="M925.1,503.4c-5.4,5.9-9.6,12.9-12.2,20.5c-2.9,7.9-4.6,16.3-5,24.7l0,0h-74.3v-45.2H925.1z"/>
<path class="st10" d="M650.5,573.5c-1.2,8-1.1,16.5,1.5,24.2c1.3,3.6,3,7,5.2,10.2c1.9,2.7,3.7,6,6.5,7.9c0.8,0.6,1.6-0.8,0.8-1.4
	c-2.7-1.9-4.5-5.3-6.3-8c-2.1-3.1-3.7-6.4-4.9-9.9c-2.3-7.3-2.4-15.1-1.2-22.6C652.2,572.9,650.7,572.4,650.5,573.5L650.5,573.5z"/>
<path class="st10" d="M645.7,579.9c-1,8.6-1.2,18.4,4.3,25.6c0.6,0.8,2,0,1.4-0.8c-5.3-7-5.1-16.5-4.1-24.8
	C647.4,578.9,645.8,578.9,645.7,579.9L645.7,579.9z"/>
<path class="st22" d="M579.4,482c-0.9,0.1-1.7-0.5-1.9-1.3c-7-24.4-5.3-50.5,4.8-73.9c0.4-0.9,1.5-1.3,2.4-0.9
	c0.9,0.4,1.3,1.4,0.9,2.3c-9.8,22.6-11.4,47.8-4.7,71.4c0.3,1-0.3,2-1.2,2.2c0,0,0,0,0,0C579.7,482,579.6,482,579.4,482z"/>
<g class="st30">
	<path class="st31" d="M431.5,545.3l-1,1.4c-0.5,0.8-0.3,2,0.6,2.5c0,0,0,0,0.1,0c0.9,0.5,2,0.2,2.5-0.7l0.9-1.4
		c0.6-0.8,0.5-1.9-0.3-2.5s-1.9-0.5-2.5,0.3C431.6,545,431.6,545.1,431.5,545.3L431.5,545.3z"/>
	<path class="st31" d="M391.1,532.5c-0.3,0.4-0.4,0.5-0.2,0.4l-1,0.4h0.1l0.4-0.1c0.2,0,0.1,0-0.2,0c0.1,0,0.1,0,0,0
		c-0.1,0-0.2,0-0.2-0.1c-0.3-0.2-0.5-0.5-0.5-0.9c0,0.9,0.7,1.5,1.5,1.5c0.9,0,1.5-0.7,1.5-1.5c0-1-0.7-1.8-1.6-2
		c-1-0.3-2.1,0.2-2.4,1.2c0,0,0,0,0,0l0.4-0.6c-0.2,0.3-0.4,0.6-0.5,0.9c-0.2,0.7,0.2,1.5,0.9,1.7
		C390.1,533.6,390.9,533.2,391.1,532.5L391.1,532.5L391.1,532.5z"/>
	<path class="st31" d="M394.1,561.9c0.9,1.4,1.9,2.8,3,4.1c0.4,0.4,1,0.4,1.4,0.1c0.4-0.3,0.5-0.9,0.3-1.4c-0.7-1.4-1.4-2.8-2.3-4.2
		C395.6,558.9,393.1,560.4,394.1,561.9z"/>
	<path class="st31" d="M329,541.2l4.3,2c1.4,0.6,2.6-1.4,1.2-2.1l-4.3-2C328.8,538.5,327.6,540.5,329,541.2z"/>
	<path class="st31" d="M344.6,573.2c0.7,0.1,1.5,0.2,2.2,0.2c0.7,0,1.3-0.6,1.3-1.3c0-0.6-0.4-1-0.9-1.2c-0.8-0.2-1.7-0.3-2.6-0.4
		c-0.8,0-1.4,0.6-1.4,1.4C343.3,572.6,343.9,573.2,344.6,573.2L344.6,573.2z"/>
	<path class="st31" d="M265.7,568.3c0.9-0.5,2-0.4,2.8,0.2c1.3,1.2,3.3-0.8,1.9-1.9c-1.7-1.5-4.1-1.7-6.1-0.6
		c-0.6,0.4-0.8,1.2-0.4,1.9C264.4,568.4,265.1,568.6,265.7,568.3L265.7,568.3z"/>
	<path class="st31" d="M251.6,539.1c1.5-0.3,3-0.7,4.5-1.1c1.2-0.4,1.1-2.4-0.3-2.3c-1.7,0.2-3.3,0.4-5,0.8
		C249.1,536.8,249.8,539.4,251.6,539.1L251.6,539.1z"/>
	<path class="st31" d="M228.2,553.7c1-0.2,2.1,0.2,2.9,0.9c1.4,1.4,3.4-0.7,2.1-2.1c-1.4-1.7-3.7-2.3-5.8-1.7
		c-0.8,0.3-1.2,1.2-0.9,2C226.7,553.4,227.5,553.9,228.2,553.7L228.2,553.7z"/>
	<path class="st31" d="M231.8,598.3l3.3,4.1c0.7,0.6,1.8,0.6,2.5,0c0.6-0.7,0.6-1.8,0-2.5l-3.2-4.2c-0.7-0.7-1.8-0.7-2.5,0
		C231.1,596.5,231.1,597.6,231.8,598.3L231.8,598.3z"/>
	<path class="st31" d="M347.7,606c1.1,1.7,2.2,3.5,3.5,5.1c1,1.3,2.9-0.4,2.2-1.7c-0.9-1.7-2-3.3-3.1-4.9
		C349.2,602.9,346.7,604.4,347.7,606L347.7,606z"/>
	<path class="st31" d="M428.7,590.6c0.6,0.3,1.3,0.7,1.9,1c0.7,0.3,1.4,0.6,2.1,0.7c0.7,0.2,1.3-0.2,1.5-0.9c0.1-0.4,0-0.8-0.3-1.1
		c-0.5-0.5-1.1-1-1.7-1.4c-0.6-0.4-1.2-0.7-1.9-1C428.5,586.8,426.9,589.7,428.7,590.6L428.7,590.6z"/>
	<path class="st31" d="M474,539.1c0.1,1.2,0.4,2.4,0.9,3.5c0.2,0.7,0.9,1.1,1.7,0.9c0.7-0.2,1.1-0.9,0.9-1.7
		c-0.3-1.2-0.9-2.3-1.5-3.3C475.4,537.7,473.8,537.9,474,539.1z"/>
	<path class="st31" d="M476.9,522.2c0,0.5,0.2,1,0.4,1.4c0.4,0.6,1.1,0.8,1.7,0.4c0.1-0.1,0.2-0.1,0.2-0.2c0.3-0.3,0.6-0.7,0.7-1.2
		c0.2-0.8-0.3-1.7-1.1-1.9s-1.7,0.3-1.9,1.1C476.9,522,476.9,522.1,476.9,522.2z"/>
	<path class="st31" d="M427.1,517.6c0.2,0.3,0.4,0.6,0.6,0.8c0.2,0.3,0.5,0.5,0.8,0.7c0.6,0.6,1.6,0.6,2.2,0
		c0.5-0.5,0.6-1.3,0.2-1.9c-0.2-0.4-0.4-0.8-0.7-1.2l-0.7-0.9c-0.7-0.7-1.8-0.7-2.4,0C426.4,515.8,426.4,516.9,427.1,517.6
		L427.1,517.6z"/>
	<path class="st5" d="M454.8,566.5c-0.3,1.2-0.4,2.4-0.1,3.6c0.2,0.6,0.8,0.9,1.4,0.7c0.3-0.1,0.5-0.2,0.6-0.5
		c0.5-1.1,0.8-2.3,0.7-3.5C457.5,565.4,455.1,565,454.8,566.5L454.8,566.5z"/>
	<path class="st5" d="M456.4,565.5c0,1.3,0,2.5,0.1,3.8c0,0.9,0.7,1.6,1.6,1.6c0.9,0,1.6-0.7,1.6-1.6c-0.1-1.4-0.3-2.8-0.6-4.1
		C458.8,563.6,456.4,564,456.4,565.5L456.4,565.5z"/>
	<path class="st5" d="M449.5,535.1c0.3,1.5,0.6,3.1,1,4.6c0.4,1.8,3,1,2.7-0.7c-0.3-1.5-0.6-3.1-0.9-4.6
		C451.9,532.6,449.1,533.3,449.5,535.1L449.5,535.1z"/>
	<path class="st5" d="M406.1,540.7c2.2,0,4.5,0.1,6.7,0c0.8,0,1.4-0.6,1.4-1.4c0-0.8-0.6-1.4-1.4-1.4c-2.2-0.1-4.5,0-6.7,0
		c-0.8,0-1.5,0.7-1.5,1.5C404.6,540.1,405.3,540.7,406.1,540.7L406.1,540.7z"/>
	<path class="st5" d="M370.1,554.3c2.1,0.2,4.2,0.2,6.3-0.2c0.7-0.2,1.1-0.9,0.8-1.6c-0.1-0.4-0.4-0.7-0.8-0.8
		c-2.1-0.3-4.2-0.4-6.3-0.1c-0.8,0.1-1.3,0.7-1.3,1.5C368.8,553.7,369.4,554.2,370.1,554.3L370.1,554.3z"/>
	<path class="st5" d="M342.7,525.8l5.3-0.1c2,0,2-3.1,0-3l-5.3,0.2C340.7,522.9,340.7,525.9,342.7,525.8L342.7,525.8z"/>
	<path class="st5" d="M286.8,561.4l5.3-0.1c2,0,2-3.2,0-3.1l-5.3,0.2C284.9,558.4,284.9,561.4,286.8,561.4z"/>
	<path class="st5" d="M273.3,598l4.7-1.7c2-0.7,1.1-4-0.9-3.3l-4.7,1.8c-0.9,0.3-1.4,1.1-1.1,2C271.5,597.8,272.4,598.3,273.3,598z"
		/>
	<path class="st5" d="M241.4,585.5l2.2,0.3c1,0,1.7-0.8,1.7-1.7c0-0.9-0.8-1.7-1.7-1.7l-2.2-0.3c-1,0-1.7,0.8-1.7,1.7
		C239.7,584.8,240.4,585.5,241.4,585.5z"/>
	<path class="st5" d="M225.2,636.4l5.1,1.3c2.5,0.6,3.5-3.1,1-3.8l-5.1-1.4C223.8,631.8,222.7,635.7,225.2,636.4z"/>
</g>
<g class="st42">
	<path class="st43" d="M730.6,491.9c-4-17.5-11.6-31.8-17.7-48.4c-13.5-36.7-35.4-74.8-71.8-92.9c-3.6-1.8-5.6-2.3-6.5-6.4
		c-1.4-6,5.3-10.9,6.7-16.6c1.1-4.6,1.6-10.4,5.1-13.9c2.8-2.8,6.6-3.6,9.8-5.6c6.9-4.1,8.2-16.3-0.5-19.3
		c-5.7-1.9-10.8-1.1-16.1-4.9c-4.4-3.1-7.1-8-10.6-12.1c-7-8.5-17.7-13.3-28.4-14.9c-5.5-0.9-11.1-1-16.6-0.3
		c-5.5,0.6-13.5-0.3-17.4,4.9c-1.1,1.7-1.6,3.6-1.4,5.6c-2,0.2-4,0.5-6,1c-4.6,1-12.3,2.6-15.6,6.3c-2.7,3-5.7,11.6-6.8,15.4
		c-0.9,3.1-1.9,11.3-2.3,17.1l0,0c-12.7-1.6-25.2-3-37.9-3.5c-3.2-0.1-10.6-0.6-12.8,2.5c-3.2,4.5,5.6,5.2,8.2,5.5
		c14.1,1.7,28.4,2.1,42.6,2.7c-1.3,5.4-1.8,10.8,0.9,16.5c0,0,0,0.1,0.1,0.1c1,1.9,2.9,2.5,4.5,3.6c0.3,0.2,0.6,0.5,0.9,0.8
		c0.2,0.2,0.4,0.5,0.5,0.8c0.1,2.3-1,5.2-1.4,7.5c-0.4,2.5-2.6,6.9-2.2,9.4c0.3,1.9,1,3.7,2.3,5.1c1.2,1.9,3.5,2.7,5.6,1.9
		c0.2-0.1,0.5-0.1,0.7-0.2c1.4-0.4,2.8-0.8,4.1,0.2c2.3,1.8,3.2,5.8,4.3,8.4c1.4,3.2,2.4,6.7,3.9,9.8c1.5,2.9,3.5,4.9,6.6,5.8
		c4.2,1.2,8.8,0.7,12.7-1.4c-0.9,6.3-2,12.5-3.5,18.9c-1.6,7.2-5.2,17.9,1.4,23.7c0.1,0.1,0.3,0.2,0.4,0.3
		c-0.8,3.3-1.4,6.7-1.9,10.1c-0.4,3.1-0.7,6.3-0.9,9.4c-3.7,1.4-7.5,2.5-11.3,3.2c-0.5,0.1-0.6,0.1-5.6,0.5
		c-11.1-6.3-23.3-9.8-36.1-5.4c-5.1,2-9.8,5-13.7,8.9c-0.2,0.2-0.5,0.5-0.7,0.7l-11,0.9c-0.9,0.1-1.8,0.3-2.6,0.6
		c-3.9-2.1-8.5-3.6-12.3-1.7c-1.3,0.7-2.3,1.7-3.1,2.9c-0.1-0.5-0.3-0.7-0.6-0.8c-3.9-1.2-12.3,4.9-15.2,11.1
		c-1.8,3.9-2.9,11.6-2.2,14.3c2,7.7,14.7,11.5,18,12.3v0.1c1.5,4.6,5.5,7.6,10.5,9.5c-2.1,7.4-3.6,14.9-6.6,22.1
		c-3.4,8.2-7.1,16.2-10.3,24.5c-1.6,4-1.2,8-2.3,12c-0.9,3.5-2.7,7-3.9,10.4c-2,5.5-3.4,11.5-5.5,16.9c-1.2,2.9-4.3,6.7-3.3,10
		c0.6,2.2,3,3.9,5.2,5.3c-0.6,3.1-2.2,7.1-5.7,8.4c-13.8,5.1-32.7,10.6-46.5,12.3c-4.4,0.6-8.2,1-11.5,1.5l0,0c0,0-8.8,0.1-14.3,3.4
		c-0.3,0.2-0.5,0.3-0.8,0.5l-0.2,0.1l0,0c-0.3,0.2-0.6,0.5-0.8,0.8c0,0-1.8,0.8-0.6,11.4c0.2,1.8,20.5,6.3,37.1,9.6h0.1l0,0
		c2.6,0.5,5.1,1,7.4,1.4c17.3,3.2,65.7,11.8,66.4,9.3c0.2-0.8,0.6-2.4,0.9-4.1h0.1l0.2-1.3c0.6-3.1,1.3-6.2,1.3-6.2
		c-0.2-0.1-0.6-0.1-1.2-0.2c0.9-11.3,1.6-29.3,1.9-37.9c0.7-0.2,1.3-0.6,2-0.9c1.8-1,8.2-5.9,4.7-8c0.5-1.1,1-2.3,1.5-3.5l30.2-70.8
		c0.2,2.5,1,4.9,3.1,5.1c1.8,0.2,2.4-1.9,2.5-4.5l45.4,53.8c1.3,1.5,2.5,3,3.8,4.6c22.5,27.5,41.6,53.5,65.3,56
		c7.1,0.7,14.2,0.5,21.2-0.6c6.2-1.5,18.9-4.5,27.1-16.3c2.9-4.2,4.8-9,5.7-14.1c0.3,0.4,0.7,0.8,1.2,1.1c0.6-0.7,2.6-2.7,2.6-2.8
		c0.5-0.7,1-1.5,1.5-2.2c3.1-4,6.9-6.8,9.2-12.2c5.9-14.2,10.6-30,12.5-45.4c1-8.3,1.8-16.7,2.5-25
		C737.7,514.2,733.2,503.5,730.6,491.9z M585.7,433.8c-1.8,2-3.7,4-5.5,6c-0.7,0.8-1.4,2.1-2.2,2.8l-0.8,0.4
		c0.2-2.5,0.4-4.9,0.8-7.4c0.4-2.9,0.9-5.8,1.6-8.6c2,1,4.1,1.8,5.9,2.7l0.6,0.3C585.8,431.3,585.7,432.6,585.7,433.8z M608.8,492.2
		c-1.6-1.7-3.3-3.3-4.9-5c1.7-0.7,3.4-1.5,5-2.4c1.9,5,4.3,9.9,7.1,14.5C613.4,497,611.1,494.6,608.8,492.2L608.8,492.2z"/>
</g>
<path class="st41" d="M949.9,635.3c-0.1,1-0.3,2-0.5,2.9c-4.6,20.7-27.6,34.3-63.1,42.3H621.7v-45.2H949.9z"/>
<g class="st44">
	<path class="st45" d="M594.2,201c3.1-20,21.8-33.8,41.8-30.7c11.5,1.8,21.5,8.9,26.9,19.2c1.2-1.1,12.1-10.7,27.2-7.8
		c12.9,2.4,19.4,12.2,20.6,13.9c10.2-3.6,20.3,2.8,21.6,10.6c1.1,6.6-4,14.6-12.7,16.8c2.3,5.8,0.3,12.3-4.9,15.8
		c-5.6,3.6-13.6,2.1-17.7-3.8c-4.4,7.7-12.9,11.4-20.1,9.4c-7.2-2.1-10.2-8.9-10.6-9.9c-7.3,9.5-18.7,14.1-29.1,11.7
		c-8.9-2-14.1-8.5-15.7-10.7c-3.1,7.9-11.4,12.3-19.1,10.5c-6.9-1.8-11.8-7.9-12.2-15c-9.7-0.5-16.7-8.4-16.4-15.8
		C573.9,206.6,583.3,198.7,594.2,201z"/>
	<path class="st46" d="M666.4,194.6c1.9-13.9,11.9-24.8,24.4-26.8c12.3-2,24.5,4.8,30.4,16.9c1-1,9.6-9.3,21.7-6.8
		c10.3,2.2,15.6,10.7,16.5,12.3c8.1-3.2,16.2,2.5,17.2,9.3c0.9,5.8-3.2,12.8-10.1,14.7c1.9,5.2,0.2,11-3.8,13.8
		c-4.5,3.1-10.8,1.8-14.2-3.4c-3.5,6.8-10.3,10-16,8.1c-5.8-1.9-8.1-7.8-8.5-8.7c-5.8,8.3-14.9,12.4-23.2,10.2
		c-7.1-1.8-11.3-7.5-12.5-9.4c-2.4,6.9-9.1,10.7-15.2,9c-5.3-1.4-9.4-6.8-9.8-13.2c-7.8-0.5-13.3-7.4-13.1-13.9
		c0.5-7.4,7-13,14.4-12.5C665,194.3,665.7,194.5,666.4,194.6z"/>
</g>
<g class="st47">
	<path class="st29" d="M548.1,339.4c0-1.4,0.2-3.8,1.7-4.5c1.5-0.7,2.6,1.9,2.9,2.9c0.5,1.3,2.5,0.7,2.1-0.6
		c-0.8-2.3-2.6-5.4-5.5-4.5c-2.6,0.9-3.4,4.3-3.3,6.7c0.1,0.6,0.6,1,1.2,1C547.7,340.3,548.1,339.9,548.1,339.4L548.1,339.4z"/>
</g>
<g class="st47">
	<path class="st29" d="M538.1,328.3c0-0.1,0.1-0.2,0.1-0.3c1-1.5,2.4-2.7,4-3.4c2.2-1.1,4.5-1.9,6.9-2.3c1.4-0.3,2.8-0.2,4.2,0.3
		c1.1,0.3,1.9,1.3,2.1,2.4c0,0.8-0.4,1.6-1,2.1c-0.7,0.5-1.4,0.8-2.2,1c-2,0.5-4,0.5-6,1c-1.6,0.4-3.1,1-4.5,1.8
		c-0.6,0.3-1.2,0.5-1.8,0.6C538.3,331.5,537.6,329.7,538.1,328.3z"/>
</g>
<path class="st48" d="M194.8,516.1L194.8,516.1l-1.4,0.4c-2.4,0.6-4.8,1.3-7.2,1.9c-1.9,0.5-3.7,0.9-5.6,1.4
	c-1.9,0.4-3.7,0.8-5.6,1.2c-4,0.8-8.1,1.6-12.1,2.1c-1.9,0.3-3.9,0.5-5.8,0.7c-0.9-7.1-1.2-14.2-0.9-21.4c2,1.8,3.6,3.9,4.8,6.3
	c3.1-1.9,6.5-3.2,10.1-4c11.7-2.7,22.4,0.6,24,7.3C195.3,513.3,195.2,514.8,194.8,516.1z"/>
<path class="st18" d="M547.4,159.2"/>
<path class="st18" d="M494.9,178.7"/>
<path class="st17" d="M508.1,197.4"/>
<path class="st18" d="M522.5,166.2"/>
<path class="st19" d="M530.6,178"/>
<path class="st18" d="M421.1,176.9"/>
<path class="st23" d="M435.8,197.8"/>
<path class="st18" d="M386.3,192.5"/>
<g class="st49">
	<path class="st50" d="M402.5,97.7c3.6-25.7,22-45.9,45.2-49.7c22.7-3.8,45.4,8.8,56.4,31.3c1.8-1.8,17.9-17.3,40.2-12.6
		c19.1,4,28.8,19.9,30.5,22.7c15.1-5.9,30,4.6,31.9,17.3c1.7,10.8-5.9,23.7-18.7,27.2c3.4,9.6,0.3,20.5-7.1,25.7
		c-8.3,5.8-20.1,3.3-26.3-6.3c-6.5,12.5-19,18.5-29.7,15.1c-10.7-3.4-15.1-14.5-15.8-16.2c-10.7,15.4-27.6,22.9-43,19
		c-13.2-3.4-20.9-13.9-23.2-17.5c-4.6,12.9-16.9,19.9-28.2,16.8c-9.9-2.7-17.4-12.6-18.2-24.4c-14.4-0.8-24.7-13.7-24.3-25.8
		C372.5,106.8,386.4,93.9,402.5,97.7z"/>
	<path class="st50" d="M291.8,129.5c5.7-37.1,40.4-62.6,77.5-56.9c21.3,3.3,39.8,16.5,49.9,35.6c2.3-2.1,22.5-19.8,50.3-14.5
		c23.9,4.5,36,22.6,38.1,25.8c19-6.8,37.5,5.2,40,19.6c2.1,12.3-7.4,27.1-23.6,31.1c4.3,11,0.3,23.3-9,29.3
		c-10.4,6.7-25.2,3.9-32.9-7.1c-8.2,14.3-23.9,21.2-37.3,17.3c-13.5-3.8-18.9-16.5-19.7-18.4c-13.5,17.6-34.6,26.2-54,21.8
		c-16.5-3.8-26.1-15.8-29-19.9c-5.7,14.7-21.2,22.7-35.4,19.2c-12.4-3.1-21.7-14.3-22.7-27.8c-18-0.9-30.9-15.5-30.3-29.3
		C254.2,140,271.6,125.3,291.8,129.5z"/>
</g>
<line class="st51" x1="26.3" y1="172.2" x2="27.1" y2="172.2"/>
</svg>
