<?xml version="1.0" encoding="UTF-8" standalone="no"?>
<!-- Generator: Adobe Illustrator 23.0.2, SVG Export Plug-In . SVG Version: 6.00 Build 0)  -->

<svg
   xmlns:dc="http://purl.org/dc/elements/1.1/"
   xmlns:cc="http://creativecommons.org/ns#"
   xmlns:rdf="http://www.w3.org/1999/02/22-rdf-syntax-ns#"
   xmlns:svg="http://www.w3.org/2000/svg"
   xmlns="http://www.w3.org/2000/svg"
   xmlns:sodipodi="http://sodipodi.sourceforge.net/DTD/sodipodi-0.dtd"
   xmlns:inkscape="http://www.inkscape.org/namespaces/inkscape"
   version="1.1"
   id="Layer_1"
   x="0px"
   y="0px"
   viewBox="0 0 726.43 729.87"
   style="enable-background:new 0 0 726.43 729.87;"
   xml:space="preserve"
   sodipodi:docname="26-01-MCB.svg"
   inkscape:version="0.92.4 (5da689c313, 2019-01-14)"><metadata
   id="metadata163"><rdf:RDF><cc:Work
       rdf:about=""><dc:format>image/svg+xml</dc:format><dc:type
         rdf:resource="http://purl.org/dc/dcmitype/StillImage" /><dc:title></dc:title></cc:Work></rdf:RDF></metadata><defs
   id="defs161" /><sodipodi:namedview
   pagecolor="#ffffff"
   bordercolor="#666666"
   borderopacity="1"
   objecttolerance="10"
   gridtolerance="10"
   guidetolerance="10"
   inkscape:pageopacity="0"
   inkscape:pageshadow="2"
   inkscape:window-width="1920"
   inkscape:window-height="986"
   id="namedview159"
   showgrid="false"
   inkscape:zoom="0.64669051"
   inkscape:cx="541.28187"
   inkscape:cy="165.27881"
   inkscape:window-x="-11"
   inkscape:window-y="-11"
   inkscape:window-maximized="1"
   inkscape:current-layer="g156" />
<style
   type="text/css"
   id="style2">
	.st0{opacity:0.1;fill:#007CC7;}
	.st1{fill:#643526;}
	.st2{fill:#422645;}
	.st3{fill:#673636;}
	.st4{fill:#311C33;}
	.st5{fill:#F29542;}
	.st6{fill:#D37E37;}
	.st7{fill:#522727;}
	.st8{fill:#FFFFFF;}
	.st9{font-family:'BelloCapsPro-Regular';}
	.st10{font-size:51.8098px;}
</style>
<g
   id="g156">
	<path
   class="st0"
   d="M725.88,376.91c-3.88,34.72-17.16,54.03-33.23,67.12c-27.31,22.24-62.64,26.48-73.44,57.76   c-17.16,49.69,24.78,58.29,29.5,78.78c0.5,2.14,0.81,4.23,0.94,6.23c0.01,0.05,0.01,0.1,0.01,0.15c0.01,0.33,0.03,0.65,0.04,0.97   v0.3c0.01,0.21,0.01,0.42,0.01,0.63c0,0.15,0,0.3-0.01,0.44c0.01,0.07,0.01,0.15,0,0.21c0,0.23-0.01,0.44-0.01,0.67   c0,0.09-0.01,0.18-0.01,0.27c0,0.11-0.01,0.23-0.01,0.34c-0.01,0.2-0.02,0.41-0.04,0.61c-6.98,92.11-423.45,24.17-566.08-1.84   c-69.82-12.74-105.61-91.4-68.95-152.17c0.55-0.91,1.11-1.83,1.69-2.75c57.74-92.04,126.05-64.85,155.93-167.67   C202.1,164.12,346.47,133.2,490.01,132.92c143.53-0.29,112.07,88.84,108.9,134.03S736.33,283.18,725.88,376.91z"
   id="path4" />
	<path
   class="st1"
   d="M272.91,398.32c11.56-6.36,24.21-8,37.08-5.38c6.76,1.37,3.43,11.6-3.3,10.23   c-9.99-2.03-19.89-0.23-28.76,4.65C271.86,411.17,266.85,401.66,272.91,398.32z"
   id="path6" />
	<path
   class="st2"
   d="M570.59,192.72c12.78,1.37,24.63-0.25,29.64-10.66c7.43-15.45-23.72-21.85-31.61-24.2   c-1.08-0.32-3.06-0.95-5.51-1.67c5.87-3.6,11.62-7.31,17.14-10.6c8.14-4.85,18-10.8,16.92-21.68c-0.81-8.26-6.75-12.29-14.76-12.63   c-11.41-0.49-20.95,7.52-29.76,13.55c-1.99,1.36-4.03,2.55-6.09,3.61c0.67-2.32,0.97-4.8,0.58-7.55   c-1.63-11.45-14.34-16.01-25.67-20.17c15.1-3.08,28.31-8.58,27.49-21.04c-1.86-28.27-48.63-8.68-60.16-4.39   c-14.92,5.55-29.82,11.49-43.86,19.05c11.44-10.59,22.98-21.09,33.36-32.46c8.43-9.24,19.15-24.17,14.38-37.66   c-13.24-37.47-50.49,20.21-60.21,28.54c-15.48,13.24-37.43,20.16-56.45,29.72c7.16-10.05,15.84-19.18,27.76-27.24   c11.97-8.1,54.99-31.89,28.47-51.4c-24.74-18.2-61.05,33.68-74.83,45.85c-13.27,11.72-20.48,25.57-25.88,40.12   c1.91-13.86,3.46-27.7,8.45-40.98c4.77-12.7,18.98-43.88-6.34-47.2c-22.25-2.92-22.44,33.5-25.62,46.7   c-3.85,15.96-14.36,27.6-18.9,42.49c-1.6,5.26-2.17,11.41-2.23,17.89c-4.75-16.74-5.47-32.2-6.25-50.4   c-0.5-11.53-2.98-44.78-21.65-42.78c-19.73,2.12-8.28,33.41-6.42,44.29c2.71,15.86-1.59,32.29,3.22,47.71   c0.28,0.91,0.76,2.23,1.33,3.73c-8.12-7.15-16.43-14.12-22.71-22.77c-6.2-8.53-18.7-37.38-34.37-26.67   c-15.69,10.71,4.97,36.83,12.83,44.93c2.48,2.56,5.02,4.96,7.56,7.35c-1.56-0.29-2.99-0.73-4.63-0.93   c-12.33-1.47-56.34-7.08-50.1,19.28c1.49,6.3,5.42,8.43,11.25,10.05c5.82,1.62,13.82-0.79,19.85-0.66   c8.73,0.19,17.61,1.46,25.93,4.3c-21.83,0.67-43.64,10.53-47.54,29.51c-2.68,13.03,6.94,24.73,20.37,20.63   c11.75-3.59,21.99-11.64,34.22-14.95c8.37-2.26,20.27-0.95,28.68-4.29c8.2,8.08,16.81,13.49,25.31,8.3   c2.39-1.46,3.1-3.89,2.69-6.51c-0.26-1.66-0.84-3.21-1.39-4.78c0.31-0.46,0.52-0.98,0.68-1.51c0.05-0.01,0.1,0.02,0.15,0.01   c0.52-0.08,1.05-0.16,1.58-0.24c0.39-0.06,0.71-0.42,1.08-0.61c1.47,0.49,2.85,0.3,4-0.41c0.89,0.25,1.81,0.19,2.69-0.05   c1.22,0.15,2.51,0.01,3.79-0.78c1.12-0.69,2.26-1.18,3.38-1.83c2,1.72,4.85,2.13,7.05-0.54c1.34-1.63,2.52-3.3,3.7-4.96   c0.53-0.23,1.07-0.41,1.6-0.64c1.51,2.57,4.8,4.06,7.73,2.29c4.22-2.55,7.84-5.34,11.07-8.36c5.22-1.17,10.55-2.11,16.16-2.6   c9.66-0.85,18.52-0.79,27.61-4.05c-0.35,3.16,2.24,6.33,5.43,6.57c-0.17,1.67-0.13,3.35,0.17,5.04c0.44,2.47,2.25,4.69,4.86,5.03   c6.32,0.82,12.36-0.11,18.21-2.15c8.58,4.4,17.56,8.75,26.84,11.75c1.48,2.01,3.95,3.28,6.6,2.11c0.15-0.06,0.29-0.11,0.44-0.17   c3.1,0.73,6.23,1.3,9.39,1.61c0.25,3.71,3.62,7.31,7.63,5.19c4.88-2.59,9.93-4.77,14.9-7.11c-2.52,8.29-3.67,16.4,7.16,19.68   c2.02,0.61,3.81,0.12,5.23-0.87c-0.13,0.85-0.13,1.71-0.22,2.56c-1.16,1.54-1.15,3.37-0.42,4.99c-0.03,2.47,0.12,4.97,0.55,7.49   c1.21,7.3,12.7,6,11.47-1.36c-0.27-1.61-0.4-3.24-0.44-4.87c23.45-12.88,43.42,1.69,60.32,17.99c7.23,6.98,16.09,15.42,26.94,15.83   c13.37,0.51,22.7-9.86,15.37-22.21C592.07,207.22,579.77,199.89,570.59,192.72z"
   id="path8" />
	<path
   class="st3"
   d="M352.45,215.93c-157.1,6.83-140.16,141.41-139.57,147.3c6.41,64.29,8.18,116.87,36.09,160.03   c17.31,26.77,51.5,85.49,113.71,85.49c102.05,0,136.09-190.97,133.06-251.8C491.93,280.63,521.73,208.57,352.45,215.93z"
   id="path10" />
	<path
   class="st3"
   d="M514.87,405.51c-20.74-15.96-38.79,25.44-45.17,38.62c-3.98,8.21,7.97,15.3,12.27,7.63   c-1.35,2.4-2.69,4.79-4.04,7.19c-4.62,8.22-13.49,19.64-7.73,29.39c11.24,19.01,40.49-6.67,48.22-18.68   C535.93,442.46,531.67,418.44,514.87,405.51z"
   id="path12" />
	<path
   class="st3"
   d="M203.74,476.73c7.69,10.59,35.77,32.59,45.08,14.61c4.77-9.22-3.93-19.21-8.58-26.5   c-1.36-2.12-2.71-4.25-4.07-6.37c4.33,6.8,14.9-0.31,10.83-7.61c-6.52-11.73-25.16-48.69-43.32-33.02   C188.98,430.54,186.32,452.74,203.74,476.73z"
   id="path14" />
	<path
   class="st4"
   d="M326.01,374.9c-1.7-1.95-3.41-3.91-5.11-5.86c-4.22-4.84-8.74-8.67-14.23-12.11   c-4.93-3.08-11.15-5.53-16.83-6.61c-11.99-2.28-25.27-2.33-36.85,1.91c-0.74,0.06-1.47,0.24-2.17,0.6   c-1.98,0.87-3.79,1.93-5.42,3.17c-1.64,1.14-1.85,2.69-1.32,4.15c-0.13,1.8,0.95,3.64,3.85,4.34c10.22,2.44,20.1,2.33,30.34,4.16   c5.64,1.01,11.39,2.94,16.73,4.85c5.31,1.91,9.73,6.03,14.5,8.94c5.15,3.15,11.5,5.41,17.18,3.37c0.89-0.32,1.77-0.76,2.38-1.48   c1.03-1.23,1.05-3.05,0.48-4.55c-0.57-1.49-1.64-2.73-2.69-3.94C326.56,375.53,326.29,375.22,326.01,374.9z"
   id="path16" />
	<path
   class="st4"
   d="M375.87,384.56c5.16-1.54,10.11-4.22,14.79-6.96c7.69-4.5,15-8.62,23.86-10.2c9.6-1.71,19.46-2.61,28.84-5.36   c2.96-0.87,3.99-2.83,3.76-4.68c0.47-1.53,0.17-3.12-1.58-4.22c-1.76-1.2-3.68-2.2-5.77-3c-0.74-0.33-1.51-0.49-2.27-0.51   c-12.24-3.78-26.01-3.03-38.32-0.02c-5.97,1.46-12.98,3.45-18.16,6.87c-6.43,4.25-11.43,10.17-18.29,14   c-2.7,1.51-5.8,3.1-6.66,6.06c-0.74,2.55,0.58,5.38,2.68,7c2.1,1.62,4.84,2.21,7.49,2.32C369.53,386.02,372.74,385.5,375.87,384.56   z"
   id="path18" />
	<path
   class="st2"
   d="M242.37,326.76c-1.71-3.62-6.49-3.36-9.07-1.17c-8.08,6.86-9.44,18.87-12.14,28.6   c-3.46,12.43-6.47,24.98-9.41,37.54c-3.42-2.09-9.02-0.62-8.96,4.59c0.16,13.19,14.14,28.58,22.79,11.36   c6.67-13.27,8.48-31.17,12.19-45.55C240.62,351.07,247.55,337.74,242.37,326.76z"
   id="path20" />
	<path
   class="st2"
   d="M498.62,345.46c-0.27-3.9-3.51-5.71-6.5-5.48c-1.2-11.91-5.42-22.6-11.44-32.96   c-3.73-6.42-13.72-0.62-9.97,5.83c17.11,29.44,1.53,61.35,15.43,91.03c2.1,4.49,9.51,3.27,10.55-1.38   C500.81,384.12,498.68,364.19,498.62,345.46z"
   id="path22" />
	<path
   class="st5"
   d="M564.42,234.75c-10.93-37.62-51.32-67.67-84.31-85.24c-38.83-25.16-98.81-23.7-138.17-3.05   c-4.91,0.2-9.97,0.68-15.19,1.47c-57.15,8.69-116.18,42.06-121,104.5c-1.93,2.4-3.87,4.81-5.64,7.34   c-31.79,45.35-34.29,114.23,5.58,155.19c2.99,3.07,6.86,2.76,9.74,1.09c1.79-1.04,2.92-3.66,3.37-6.41   c5.44-33.09,12.95-69.12,37.74-93.64c23.54-23.28,57.05-36.47,89.47-40.49c33.07-4.11,68.95,0.27,96.62,19.98   c24.37,17.37,45.56,41.41,48.03,72.45c0.8,10.05-0.35,20.17,0.39,30.23c0.11,1.48,0.32,3.09,1.4,4.11   c0.69,0.65,1.64,0.95,2.57,1.17c24.7,5.98,38.1-23.49,43.23-42.4c6.44-23.76,11.84-53.42,7.86-79.31   C562.23,274.09,571.01,257.43,564.42,234.75z"
   id="path24" />
	<g
   id="g30">
		<g
   id="g28">
			<path
   class="st6"
   d="M229.5,288.11c54.23-27.18,115.42-34.68,175.36-35.93c1.88-0.04,1.89-2.97,0-2.93     c-60.48,1.26-122.14,8.91-176.84,36.33C226.33,286.43,227.81,288.96,229.5,288.11L229.5,288.11z"
   id="path26" />
		</g>
	</g>
	<g
   id="g36">
		<g
   id="g34">
			<path
   class="st6"
   d="M396.63,231.72c22.47,3.89,45.64,8.88,65.15,21.26c10.85,6.89,18.8,16,26.55,26.1     c8.12,10.58,17.17,20.28,26.4,29.88c1.31,1.36,3.38-0.71,2.07-2.07c-10.31-10.74-20.04-21.69-29.15-33.47     c-6.97-9.01-14.75-16.85-24.4-22.97c-19.72-12.52-43.14-17.63-65.85-21.56C395.57,228.57,394.78,231.4,396.63,231.72     L396.63,231.72z"
   id="path32" />
		</g>
	</g>
	<g
   id="g42">
		<g
   id="g40">
			<path
   class="st6"
   d="M506.53,276.43c6.23,9.28,12.45,18.57,18.68,27.85c1.05,1.56,3.59,0.09,2.53-1.48     c-6.23-9.28-12.45-18.57-18.68-27.85C508.02,273.39,505.48,274.86,506.53,276.43L506.53,276.43z"
   id="path38" />
		</g>
	</g>
	<g
   id="g48">
		<g
   id="g46">
			<path
   class="st6"
   d="M221.95,224.27c10-11.88,22.74-21.19,37.22-26.88c15.25-5.99,30.71-6.38,46.87-6.45     c7.93-0.04,15.87-0.33,23.64-2.01c7.27-1.57,14.27-4.16,21.22-6.79c14.68-5.56,29.97-11.92,45.93-8.47     c1.84,0.4,2.63-2.43,0.78-2.83c-15.41-3.33-30.1,1.87-44.37,7.29c-7.22,2.74-14.44,5.56-21.95,7.42     c-9.54,2.37-19.3,2.46-29.07,2.46c-16.24,0-31.64,1.29-46.73,7.75c-13.78,5.9-25.96,14.97-35.6,26.44     C218.67,223.63,220.73,225.72,221.95,224.27L221.95,224.27z"
   id="path44" />
		</g>
	</g>
	<g
   id="g54">
		<g
   id="g52">
			<path
   class="st6"
   d="M373.89,161.2c10.05-2.75,20.39-2.12,29.99,1.97c1.72,0.73,3.21-1.79,1.48-2.53     c-10.35-4.42-21.38-5.25-32.25-2.27C371.29,158.87,372.06,161.7,373.89,161.2L373.89,161.2z"
   id="path50" />
		</g>
	</g>
	<g
   id="g60">
		<g
   id="g58">
			<path
   class="st6"
   d="M492.1,206.82c20.21,15.62,38.6,33.37,54.92,53c1.21,1.45,3.27-0.63,2.07-2.07     c-16.32-19.64-34.72-37.39-54.92-53C492.7,203.6,490.61,205.66,492.1,206.82L492.1,206.82z"
   id="path56" />
		</g>
	</g>
	<g
   id="g66">
		<g
   id="g64">
			<path
   class="st7"
   d="M330.25,381.54c3,14.53,5.32,29.68,3.43,44.53c-1.45,11.39-5.93,21.25-12.11,30.8     c-3.29,5.09-5.39,10.43-3.99,16.54c1.12,4.89,4.29,9.72,8.96,11.82c6.4,2.88,13.2,0.1,19.46-1.74c6.1-1.79,12.97-0.5,18.83-3.03     c9.06-3.91,13.14-21.09,2.23-25.26c-1.61-0.61-2.3,1.96-0.71,2.57c4.93,1.89,5.23,8.73,3.75,12.96     c-1.34,3.83-4.02,6.72-7.95,7.85c-2.8,0.81-5.71,0.63-8.58,0.79c-3.98,0.22-7.66,1.38-11.44,2.54c-4.34,1.33-9.1,2.84-13.58,1.26     c-4.04-1.42-6.81-5.19-8.04-9.17c-2.7-8.72,3.3-14.96,7.28-21.99c12.47-21.98,9.98-47.34,5.05-71.18     C332.48,379.15,329.9,379.86,330.25,381.54L330.25,381.54z"
   id="path62" />
		</g>
	</g>
	<g
   id="g72">
		<g
   id="g70">
			<path
   class="st3"
   d="M283.38,405.9c-6.12,4.17-8.75,11.96-5.02,18.71c3.54,6.4,11.57,9.09,16.36,2.51     c4.18-5.74,3.86-14.68-0.72-20.09c-6.05-7.16-12.75-1.12-15.78,5.3c-0.8,1.7,1.73,3.19,2.53,1.48c0.88-1.86,1.75-3.98,3.27-5.41     c2.92-2.76,7.08-0.99,8.91,2.15c2.33,4.01,2.37,9.53,0.19,13.62c-3.62,6.8-11.34,2.78-13.13-3.21     c-1.46-4.89,0.77-9.74,4.87-12.53C286.41,407.38,284.95,404.84,283.38,405.9L283.38,405.9z"
   id="path68" />
		</g>
	</g>
	<g
   id="g78">
		<g
   id="g76">
			<path
   class="st7"
   d="M378.27,476.85c0.82,7.12,4.52,13.09,10.16,17.48c2.94,2.29,6.24,4.04,9.67,5.47     c4.54,1.89,9.91,2.89,12.88,7.17c0.97,1.4,3.29,0.07,2.3-1.35c-3.61-5.19-9.58-6.25-15.06-8.66c-8.56-3.76-16.16-10.3-17.28-20.1     C380.75,475.16,378.08,475.14,378.27,476.85L378.27,476.85z"
   id="path74" />
		</g>
	</g>
	<g
   id="g84">
		<g
   id="g82">
			<path
   class="st7"
   d="M315.74,483.21c-6.7,11.74-15.32,20.38-29.16,22.62c-1.69,0.27-0.97,2.85,0.71,2.57     c14.5-2.35,23.73-11.53,30.75-23.85C318.9,483.06,316.59,481.72,315.74,483.21L315.74,483.21z"
   id="path80" />
		</g>
	</g>
	<g
   id="g90">
		<g
   id="g88">
			<path
   class="st7"
   d="M386.85,439.39c6.95,1.11,14.05,1.98,21.05,0.79c6.24-1.06,11.94-3.82,17.52-6.69     c1.54-0.79,0.18-3.12-1.36-2.33c-5.04,2.59-10.17,5.11-15.77,6.21c-6.85,1.34-13.91,0.5-20.73-0.59     C385.87,436.51,385.14,439.11,386.85,439.39L386.85,439.39z"
   id="path86" />
		</g>
	</g>
	<g
   id="g96">
		<g
   id="g94">
			<path
   class="st7"
   d="M267.77,431.75c9.5,6.52,21.04,7.45,32.22,6.24c1.69-0.18,1.71-2.85,0-2.67     c-10.73,1.16-21.72,0.4-30.87-5.88C267.69,428.47,266.36,430.78,267.77,431.75L267.77,431.75z"
   id="path92" />
		</g>
	</g>
	<g
   id="g102">
		<g
   id="g100">
			<path
   class="st7"
   d="M212.42,446.16c7.82,6.98,14.12,15.18,18.86,24.54c0.69,1.36,2.84,0.41,2.44-1.03     c-1.48-5.26-5.69-10.13-11.72-9.23c-6.74,1.01-5.33,7.2-4.43,12.12c0.31,1.69,2.88,0.97,2.57-0.71     c-0.61-3.34-3.38-10.09,4.99-8.58c3.42,0.61,5.19,4.2,6.01,7.11c0.81-0.34,1.63-0.69,2.44-1.03     c-4.83-9.55-11.29-17.95-19.27-25.08C213.03,443.14,211.14,445.02,212.42,446.16L212.42,446.16z"
   id="path98" />
		</g>
	</g>
	<g
   id="g108">
		<g
   id="g106">
			<path
   class="st7"
   d="M511.09,431.94c-7.38,0.83-12.72,8.49-16.92,13.98c-5.53,7.24-9.79,15.25-12.93,23.79     c0.86,0.24,1.72,0.47,2.57,0.71c1.4-3.93,3.71-7.19,7.11-9.65c1.21-0.88,3.85-2.99,5.33-2.71c3.21,0.6,1.14,5.36,0.05,7.44     c-0.79,1.52,1.51,2.87,2.3,1.35c1.75-3.35,4.33-12.73-2.37-11.57c-7.13,1.23-12.72,8.04-14.99,14.44     c-0.58,1.63,1.99,2.31,2.57,0.71c2.49-6.79,5.73-13.22,9.8-19.2c3.63-5.34,10.45-15.82,17.47-16.61     C512.77,434.42,512.79,431.75,511.09,431.94L511.09,431.94z"
   id="path104" />
		</g>
	</g>
	<path
   class="st7"
   d="M390.71,525.66c-0.03-1.17-0.4-2.53-1.82-3.58c-27.97-20.84-61.15-7.2-75.4,15.13   c-1.09,1.74-1.16,3.47-0.48,4.96c0.84,2.34,3.27,4.07,5.48,4.33c1.9,1.15,65.65-12.43,67.77-14.03   C388.46,530.87,390.8,528.39,390.71,525.66z"
   id="path110" />
	<path
   class="st4"
   d="M303.17,404.96c1.86,8.12-2.45,17.02-9.4,17.02c-11.29,0-12.01-12.51-17.67-17.06   c-0.71-0.57-3.29-0.33-4.08-0.72c-1.18-0.58-1.13-2.05-0.09-2.84c2.61-1.98,10.41-4.24,13.44-5.14   C294.04,393.64,301.03,395.61,303.17,404.96z"
   id="path112" />
	<path
   class="st4"
   d="M385.96,403.02c-1.91,8.36,2.52,17.51,9.68,17.51c11.62,0,12.35-12.87,18.18-17.56   c0.73-0.59,3.39-0.34,4.2-0.74c1.21-0.6,1.17-2.1,0.09-2.92c-2.69-2.04-10.71-4.36-13.82-5.28   C395.35,391.38,388.16,393.41,385.96,403.02z"
   id="path114" />
	<path
   class="st8"
   d="M385.81,519.97l-68.55,12.07C332.4,513.69,360.81,503.7,385.81,519.97z"
   id="path116" />
	<g
   id="g122">
		<g
   id="g120">
			<path
   class="st7"
   d="M432.13,408.94c7.22,2.57,14.46,0.72,21.56-1.37c1.01-0.3,0.58-1.89-0.44-1.59     c-6.84,2.01-13.72,3.85-20.69,1.37C431.57,407,431.14,408.59,432.13,408.94L432.13,408.94z"
   id="path118" />
		</g>
	</g>
	<g
   id="g128">
		<g
   id="g126">
			<path
   class="st7"
   d="M440.03,414.41c5.68,1.63,11.9,2.33,17.35-0.39c0.95-0.47,0.12-1.89-0.83-1.42     c-5.04,2.51-10.87,1.72-16.08,0.22C439.45,412.53,439.01,414.12,440.03,414.41L440.03,414.41z"
   id="path124" />
		</g>
	</g>
	<g
   id="g134">
		<g
   id="g132">
			<path
   class="st7"
   d="M241.21,408.4c7.04,3.32,14.8,2.42,22.21,0.99c1.04-0.2,0.6-1.79-0.44-1.59     c-6.93,1.34-14.35,2.28-20.95-0.83C241.09,406.53,240.25,407.95,241.21,408.4L241.21,408.4z"
   id="path130" />
		</g>
	</g>
	<g
   id="g140">
		<g
   id="g138">
			<path
   class="st7"
   d="M248.62,415.81c4.3,0.2,9.04-0.11,12.88-2.24c0.93-0.51,0.1-1.94-0.83-1.42c-3.59,1.99-8.03,2.2-12.05,2.02     C247.56,414.11,247.56,415.76,248.62,415.81L248.62,415.81z"
   id="path136" />
		</g>
	</g>
	<g
   id="g146">
		<g
   id="g144">
			<path
   class="st7"
   d="M336.03,354.58c-2.63-13.9-19.59-19.95-31.58-23.07c-1.03-0.27-1.46,1.32-0.44,1.59     c11.44,2.97,27.92,8.64,30.43,21.92C334.64,356.06,336.22,355.62,336.03,354.58L336.03,354.58z"
   id="path142" />
		</g>
	</g>
	<g
   id="g152">
		<g
   id="g150">
			<path
   class="st7"
   d="M357.91,353.2c3.93-13.75,21.89-18.43,34.46-18.85c1.06-0.04,1.06-1.68,0-1.65     c-13.37,0.45-31.89,5.5-36.05,20.06C356.03,353.78,357.62,354.22,357.91,353.2L357.91,353.2z"
   id="path148" />
		</g>
	</g>
	<g
   aria-label="Aggressive"
   transform="matrix(1 0 0 1 253.2252 715.6697)"
   style="font-style:normal;font-variant:normal;font-weight:bold;font-stretch:normal;font-size:51.80932999px;font-family:BelloCapsPro-Regular;-inkscape-font-specification:'BelloCapsPro-Regular, Bold';font-variant-ligatures:normal;font-variant-caps:normal;font-variant-numeric:normal;font-feature-settings:normal;text-align:start;writing-mode:lr-tb;text-anchor:start"
   id="text154"><path
     d="M 39.615923,0 H 29.572806 L 26.967161,-7.6145548 H 13.002928 L 10.397283,0 H 0.60714059 L 14.520779,-37.668014 h 11.181506 z m -15.001432,-14.520779 -4.629447,-13.508878 -4.629447,13.508878 z"
     style="font-style:normal;font-variant:normal;font-weight:bold;font-stretch:normal;font-size:51.80932999px;font-family:BelloCapsPro-Regular;-inkscape-font-specification:'BelloCapsPro-Regular, Bold';font-variant-ligatures:normal;font-variant-caps:normal;font-variant-numeric:normal;font-feature-settings:normal;text-align:start;writing-mode:lr-tb;text-anchor:start"
     id="path165" /><path
     d="m 72.199135,-3.2633806 q 0,3.99700881 -1.138389,6.7291414 -1.138389,2.7321327 -3.187488,4.2752817 -2.0491,1.5684465 -4.958315,2.2514796 -2.883918,0.7083309 -6.526761,0.7083309 -2.959811,0 -5.843728,-0.354166 Q 47.685833,9.9925221 45.586139,9.4865717 V 2.3779673 h 1.113091 q 1.669637,0.6577356 4.072901,1.1889836 2.403265,0.5565456 4.30058,0.5565456 2.529752,0 4.098198,-0.480653 1.593745,-0.4553554 2.428563,-1.3154713 0.784223,-0.8095207 1.138388,-2.07439696 0.354166,-1.26487624 0.354166,-3.03570294 v -0.531248 q -1.644339,1.3407688 -3.642844,2.1249921 -1.998504,0.78422321 -4.452364,0.78422321 -5.970216,0 -9.208299,-3.59224851 -3.238083,-3.5922484 -3.238083,-10.9285301 0,-3.516356 0.986603,-6.071406 0.986604,-2.55505 2.782728,-4.452365 1.669637,-1.770826 4.098199,-2.75743 2.45386,-0.986603 5.00891,-0.986603 2.302075,0 4.174091,0.556545 1.897315,0.531248 3.440464,1.492554 l 0.328868,-1.264876 h 8.828836 z m -9.107109,-5.691943 V -21.831764 q -0.784223,-0.328867 -1.922612,-0.50595 -1.138389,-0.20238 -2.0491,-0.20238 -3.592248,0 -5.388372,2.074397 -1.796124,2.049099 -1.796124,5.742538 0,4.098199 1.517851,5.7172403 1.543149,1.6190416 4.553554,1.6190416 1.366067,0 2.681538,-0.4300579 1.315471,-0.430058 2.403265,-1.1383886 z"
     style="font-style:normal;font-variant:normal;font-weight:bold;font-stretch:normal;font-size:51.80932999px;font-family:BelloCapsPro-Regular;-inkscape-font-specification:'BelloCapsPro-Regular, Bold';font-variant-ligatures:normal;font-variant-caps:normal;font-variant-numeric:normal;font-feature-settings:normal;text-align:start;writing-mode:lr-tb;text-anchor:start"
     id="path167" /><path
     d="m 108.42519,-3.2633806 q 0,3.99700881 -1.13839,6.7291414 -1.13839,2.7321327 -3.18749,4.2752817 -2.0491,1.5684465 -4.958316,2.2514796 -2.883917,0.7083309 -6.526761,0.7083309 -2.95981,0 -5.843728,-0.354166 Q 83.911885,9.9925221 81.81219,9.4865717 V 2.3779673 h 1.113091 q 1.669637,0.6577356 4.072902,1.1889836 2.403265,0.5565456 4.300579,0.5565456 2.529752,0 4.098199,-0.480653 1.593744,-0.4553554 2.428562,-1.3154713 0.784223,-0.8095207 1.138389,-2.07439696 0.354165,-1.26487624 0.354165,-3.03570294 v -0.531248 q -1.644339,1.3407688 -3.642843,2.1249921 -1.998505,0.78422321 -4.452365,0.78422321 -5.970215,0 -9.208299,-3.59224851 -3.238083,-3.5922484 -3.238083,-10.9285301 0,-3.516356 0.986604,-6.071406 0.986603,-2.55505 2.782727,-4.452365 1.669637,-1.770826 4.098199,-2.75743 2.45386,-0.986603 5.00891,-0.986603 2.302075,0 4.174092,0.556545 1.897314,0.531248 3.440463,1.492554 l 0.328868,-1.264876 h 8.82884 z m -9.107113,-5.691943 V -21.831764 q -0.784223,-0.328867 -1.922612,-0.50595 -1.138388,-0.20238 -2.049099,-0.20238 -3.592249,0 -5.388373,2.074397 -1.796124,2.049099 -1.796124,5.742538 0,4.098199 1.517851,5.7172403 1.543149,1.6190416 4.553555,1.6190416 1.366066,0 2.681537,-0.4300579 1.315472,-0.430058 2.403265,-1.1383886 z"
     style="font-style:normal;font-variant:normal;font-weight:bold;font-stretch:normal;font-size:51.80932999px;font-family:BelloCapsPro-Regular;-inkscape-font-specification:'BelloCapsPro-Regular, Bold';font-variant-ligatures:normal;font-variant-caps:normal;font-variant-numeric:normal;font-feature-settings:normal;text-align:start;writing-mode:lr-tb;text-anchor:start"
     id="path169" /><path
     d="m 137.61853,-19.732069 h -0.80952 q -0.58184,-0.20238 -1.87201,-0.30357 -1.29018,-0.10119 -2.15029,-0.10119 -1.94791,0 -3.44047,0.252975 -1.49255,0.252975 -3.21278,0.860116 V 0 h -9.10711 v -28.40912 h 9.10711 v 4.174092 q 3.0104,-2.580348 5.23658,-3.415166 2.22619,-0.860116 4.0982,-0.860116 0.48066,0 1.0878,0.0253 0.60714,0.0253 1.06249,0.07589 z"
     style="font-style:normal;font-variant:normal;font-weight:bold;font-stretch:normal;font-size:51.80932999px;font-family:BelloCapsPro-Regular;-inkscape-font-specification:'BelloCapsPro-Regular, Bold';font-variant-ligatures:normal;font-variant-caps:normal;font-variant-numeric:normal;font-feature-settings:normal;text-align:start;writing-mode:lr-tb;text-anchor:start"
     id="path171" /><path
     d="m 170.80888,-12.522275 h -20.84516 q 0.20238,3.3392736 2.52975,5.1101003 2.35267,1.7708268 6.90622,1.7708268 2.88392,0 5.59076,-1.0371985 2.70683,-1.0371985 4.27528,-2.2261822 h 1.0119 v 7.3109846 q -3.0863,1.23957866 -5.81843,1.7961242 -2.73213,0.55654553 -6.04611,0.55654553 -8.55056,0 -13.10412,-3.84522373 -4.55355,-3.8452237 -4.55355,-10.953828 0,-7.032712 4.30058,-11.130911 4.32587,-4.123496 11.83924,-4.123496 6.93152,0 10.42258,3.516356 3.49106,3.491058 3.49106,10.068414 z m -9.05652,-5.337777 q -0.0759,-2.85862 -1.41666,-4.300579 -1.34077,-1.441959 -4.17409,-1.441959 -2.63094,0 -4.32588,1.366066 -1.69493,1.366066 -1.89731,4.376472 z"
     style="font-style:normal;font-variant:normal;font-weight:bold;font-stretch:normal;font-size:51.80932999px;font-family:BelloCapsPro-Regular;-inkscape-font-specification:'BelloCapsPro-Regular, Bold';font-variant-ligatures:normal;font-variant-caps:normal;font-variant-numeric:normal;font-feature-settings:normal;text-align:start;writing-mode:lr-tb;text-anchor:start"
     id="path173" /><path
     d="m 201.92483,-9.0059187 q 0,4.4017693 -3.94641,7.1086044 -3.94642,2.68153756 -10.80205,2.68153756 -3.79462,0 -6.88092,-0.70833069 -3.0863,-0.70833068 -4.95832,-1.56844647 v -7.4880673 h 0.83482 q 0.68303,0.480653 1.56845,1.0624961 0.91071,0.5565455 2.55505,1.2142811 1.41666,0.5818431 3.21278,1.011901 1.79613,0.4047604 3.84523,0.4047604 2.68153,0 3.97171,-0.5818431 1.29017,-0.6071405 1.29017,-1.7708267 0,-1.0371985 -0.75892,-1.4925539 -0.75893,-0.480653 -2.88392,-0.9107107 -1.0119,-0.227678 -2.75743,-0.480653 -1.72023,-0.278273 -3.13689,-0.657736 -3.87053,-1.011901 -5.74254,-3.136893 -1.87202,-2.150289 -1.87202,-5.337777 0,-4.098199 3.87052,-6.805035 3.89582,-2.732132 10.62496,-2.732132 3.18749,0 6.09671,0.657735 2.93451,0.632439 4.57885,1.366067 v 7.184497 h -0.78423 q -2.0238,-1.391364 -4.62944,-2.25148 -2.58035,-0.885413 -5.23659,-0.885413 -2.20088,0 -3.71874,0.60714 -1.49255,0.607141 -1.49255,1.720232 0,1.011901 0.68303,1.543149 0.68304,0.531248 3.21279,1.062496 1.39136,0.278273 2.98511,0.556545 1.61904,0.252976 3.23808,0.657736 3.59225,0.936009 5.31248,2.95981 1.72023,1.998505 1.72023,5.0089103 z"
     style="font-style:normal;font-variant:normal;font-weight:bold;font-stretch:normal;font-size:51.80932999px;font-family:BelloCapsPro-Regular;-inkscape-font-specification:'BelloCapsPro-Regular, Bold';font-variant-ligatures:normal;font-variant-caps:normal;font-variant-numeric:normal;font-feature-settings:normal;text-align:start;writing-mode:lr-tb;text-anchor:start"
     id="path175" /><path
     d="m 232.68663,-9.0059187 q 0,4.4017693 -3.94642,7.1086044 -3.94641,2.68153756 -10.80204,2.68153756 -3.79463,0 -6.88093,-0.70833069 -3.08629,-0.70833068 -4.95831,-1.56844647 v -7.4880673 h 0.83482 q 0.68303,0.480653 1.56844,1.0624961 0.91071,0.5565455 2.55505,1.2142811 1.41666,0.5818431 3.21279,1.011901 1.79612,0.4047604 3.84522,0.4047604 2.68154,0 3.97171,-0.5818431 1.29018,-0.6071405 1.29018,-1.7708267 0,-1.0371985 -0.75893,-1.4925539 -0.75892,-0.480653 -2.88392,-0.9107107 -1.0119,-0.227678 -2.75743,-0.480653 -1.72023,-0.278273 -3.13689,-0.657736 -3.87052,-1.011901 -5.74254,-3.136893 -1.87201,-2.150289 -1.87201,-5.337777 0,-4.098199 3.87052,-6.805035 3.89582,-2.732132 10.62496,-2.732132 3.18749,0 6.0967,0.657735 2.93451,0.632439 4.57885,1.366067 v 7.184497 h -0.78422 q -2.0238,-1.391364 -4.62945,-2.25148 -2.58035,-0.885413 -5.23659,-0.885413 -2.20088,0 -3.71873,0.60714 -1.49256,0.607141 -1.49256,1.720232 0,1.011901 0.68304,1.543149 0.68303,0.531248 3.21278,1.062496 1.39137,0.278273 2.98511,0.556545 1.61904,0.252976 3.23808,0.657736 3.59225,0.936009 5.31248,2.95981 1.72024,1.998505 1.72024,5.0089103 z"
     style="font-style:normal;font-variant:normal;font-weight:bold;font-stretch:normal;font-size:51.80932999px;font-family:BelloCapsPro-Regular;-inkscape-font-specification:'BelloCapsPro-Regular, Bold';font-variant-ligatures:normal;font-variant-caps:normal;font-variant-numeric:normal;font-feature-settings:normal;text-align:start;writing-mode:lr-tb;text-anchor:start"
     id="path177" /><path
     d="m 247.86515,0 h -9.10711 v -28.40912 h 9.10711 z m 0.25297,-32.456724 h -9.61306 v -6.906224 h 9.61306 z"
     style="font-style:normal;font-variant:normal;font-weight:bold;font-stretch:normal;font-size:51.80932999px;font-family:BelloCapsPro-Regular;-inkscape-font-specification:'BelloCapsPro-Regular, Bold';font-variant-ligatures:normal;font-variant-caps:normal;font-variant-numeric:normal;font-feature-settings:normal;text-align:start;writing-mode:lr-tb;text-anchor:start"
     id="path179" /><path
     d="M 285.0778,-28.40912 274.12398,0 h -10.32139 l -10.87794,-28.40912 h 9.63836 l 6.57735,19.5296889 6.50147,-19.5296889 z"
     style="font-style:normal;font-variant:normal;font-weight:bold;font-stretch:normal;font-size:51.80932999px;font-family:BelloCapsPro-Regular;-inkscape-font-specification:'BelloCapsPro-Regular, Bold';font-variant-ligatures:normal;font-variant-caps:normal;font-variant-numeric:normal;font-feature-settings:normal;text-align:start;writing-mode:lr-tb;text-anchor:start"
     id="path181" /><path
     d="m 318.14167,-12.522275 h -20.84516 q 0.20238,3.3392736 2.52975,5.1101003 2.35267,1.7708268 6.90623,1.7708268 2.88392,0 5.59075,-1.0371985 2.70684,-1.0371985 4.27528,-2.2261822 h 1.0119 v 7.3109846 q -3.08629,1.23957866 -5.81843,1.7961242 -2.73213,0.55654553 -6.04611,0.55654553 -8.55056,0 -13.10411,-3.84522373 -4.55356,-3.8452237 -4.55356,-10.953828 0,-7.032712 4.30058,-11.130911 4.32588,-4.123496 11.83924,-4.123496 6.93152,0 10.42258,3.516356 3.49106,3.491058 3.49106,10.068414 z m -9.05651,-5.337777 q -0.0759,-2.85862 -1.41666,-4.300579 -1.34077,-1.441959 -4.1741,-1.441959 -2.63094,0 -4.32587,1.366066 -1.69494,1.366066 -1.89732,4.376472 z"
     style="font-style:normal;font-variant:normal;font-weight:bold;font-stretch:normal;font-size:51.80932999px;font-family:BelloCapsPro-Regular;-inkscape-font-specification:'BelloCapsPro-Regular, Bold';font-variant-ligatures:normal;font-variant-caps:normal;font-variant-numeric:normal;font-feature-settings:normal;text-align:start;writing-mode:lr-tb;text-anchor:start"
     id="path183" /></g>
</g>
</svg>