<?xml version="1.0" encoding="utf-8"?>
<!-- Generator: Adobe Illustrator 23.0.2, SVG Export Plug-In . SVG Version: 6.00 Build 0)  -->
<svg version="1.1" id="Layer_1" xmlns="http://www.w3.org/2000/svg" xmlns:xlink="http://www.w3.org/1999/xlink" x="0px" y="0px"
	 viewBox="0 0 928 855.48" style="enable-background:new 0 0 928 855.48;" xml:space="preserve">
<style type="text/css">
	.st0{opacity:0.1;fill:#007CC7;}
	.st1{fill:#422645;}
	.st2{fill:#803D3D;}
	.st3{fill:#5E2C2C;}
	.st4{opacity:0.48;fill:#422645;}
	.st5{fill:none;stroke:#5E2C2C;stroke-width:5.4531;stroke-linecap:round;stroke-linejoin:round;stroke-miterlimit:10;}
	.st6{fill:#FFFFFF;}
	.st7{opacity:0.1;fill-rule:evenodd;clip-rule:evenodd;fill:#007CC7;}
	.st8{fill:#73A0BE;}
	.st9{opacity:0.2;fill-rule:evenodd;clip-rule:evenodd;fill:#73A0BE;}
	.st10{opacity:0.59;fill-rule:evenodd;clip-rule:evenodd;fill:#73A0BE;}
	.st11{opacity:0.35;fill-rule:evenodd;clip-rule:evenodd;fill:#007CC7;}
	.st12{opacity:0.09;fill-rule:evenodd;clip-rule:evenodd;fill:#007CC7;}
</style>
<path class="st9" d="M437.48,819.8c1.03-1.72,2.4-3.14,3.97-4.23c-0.59-3.82,0.09-7.85,2.25-11.46c4.15-6.95,12.42-10.2,20.15-8.53
	c0.05-0.09,0.09-0.18,0.14-0.27c3.52-5.91,11.36-7.95,17.5-4.56c0.24,0.13,0.46,0.28,0.69,0.43c7.33-5.12,17.38-5.96,25.75-1.35
	c2.76,1.52,5.08,3.5,6.92,5.78c12.39,1.42,21.99,11.55,21.99,23.85c0,8.54-4.63,16.03-11.61,20.29c-0.76,3.91-4.33,6.87-8.61,6.87
	c-1.36,0-2.64-0.31-3.79-0.84c-3.06,5.81-9.32,9.81-16.56,9.81c-4.36,0-8.35-1.45-11.52-3.87c-7.48,5.53-17.98,6.53-26.67,1.73
	c-5.63-3.1-9.45-8.07-11.13-13.62c-1.46-0.28-2.9-0.78-4.26-1.53C435.94,834.59,433.6,826.3,437.48,819.8z"/>
<path class="st10" d="M533.07,735.42c1.33-2.23,3.1-4.07,5.14-5.49c-0.76-4.96,0.13-10.2,2.93-14.89
	c5.39-9.03,16.13-13.25,26.17-11.08c0.06-0.11,0.11-0.23,0.18-0.34c4.57-7.67,14.75-10.32,22.72-5.92c0.31,0.17,0.6,0.37,0.9,0.56
	c9.51-6.65,22.58-7.74,33.44-1.75c3.59,1.98,6.6,4.55,8.99,7.51c16.09,1.84,28.56,15,28.56,30.97c0,11.08-6.02,20.81-15.07,26.35
	c-0.99,5.08-5.62,8.92-11.19,8.92c-1.76,0-3.42-0.4-4.91-1.08c-3.98,7.55-12.11,12.73-21.51,12.73c-5.66,0-10.86-1.88-14.97-5.02
	c-9.71,7.18-23.34,8.47-34.62,2.25c-7.31-4.03-12.28-10.47-14.46-17.69c-1.89-0.36-3.76-1.01-5.53-1.98
	C531.07,754.61,528.04,743.85,533.07,735.42z"/>
<path class="st11" d="M372.64,635.57c1.76-2.96,4.1-5.39,6.79-7.27c-1-6.56,0.18-13.47,3.88-19.67
	c7.12-11.93,21.32-17.51,34.58-14.65c0.08-0.15,0.16-0.3,0.25-0.45c6.05-10.14,19.49-13.65,30.04-7.83
	c0.41,0.23,0.81,0.47,1.21,0.72c12.57-8.78,29.83-10.21,44.18-2.3c4.74,2.62,8.72,6.02,11.88,9.93
	c21.26,2.44,37.75,19.83,37.75,40.94c0,14.65-7.95,27.51-19.92,34.82c-1.31,6.71-7.42,11.8-14.79,11.8c-2.33,0-4.52-0.52-6.49-1.43
	c-5.25,9.98-16.01,16.82-28.44,16.82c-7.48,0-14.35-2.48-19.79-6.63c-12.84,9.49-30.85,11.2-45.77,2.97
	c-9.66-5.33-16.22-13.84-19.11-23.36c-2.5-0.48-4.97-1.35-7.31-2.64C370,660.95,365.99,646.72,372.64,635.57z"/>
<path class="st12" d="M863.06,173.69c-12.47-7.15-25.63-12-38.99-14.67c-15.41-52.89-50.5-100.13-102.06-129.71
	c-79.65-45.71-175.84-36.24-244.39,16.4C448.59,22.67,411.87,8.91,371.93,8.9c-66.33-0.01-123.79,37.93-151.88,93.28
	c-10.49-5.02-22.24-7.84-34.66-7.84c-39.29-0.01-71.98,28.18-79,65.43C42.46,200.37,0.01,271.8,0,353.15
	c-0.02,117.19,88.01,213.82,201.56,227.37c16.86,21.7,38.13,40.55,63.44,55.07c76.64,43.97,168.83,36.09,235.98-12.66
	c2.08,1.38,4.22,2.7,6.41,3.96c56.3,32.3,128.11,12.85,160.41-43.44c0.48-0.83,0.94-1.66,1.39-2.49
	c70.8,15.89,146.62-15.09,184.63-81.32c19.73-34.39,26.11-72.78,20.77-109.18c14.38-10.41,26.83-23.96,36.24-40.35
	C946.36,288.2,924.97,209.22,863.06,173.69z"/>
<g>
	<g>
		<path class="st8" d="M175.63,264.59c-5.82,0.04-9.86-5.75-9.9-12.02c-0.04-6.09,2.39-10.11,9.2-10.15
			c8.27-0.06,12.12,3.92,12.15,7.83C187.12,257.42,182.17,264.55,175.63,264.59z"/>
		<path class="st8" d="M214.73,238.96c-0.47-2.09-0.75-3.72-0.76-5.45c-0.02-3.64,3.96-6.3,10.96-6.35
			c4.64-0.03,5.38,2.05,5.39,4.69c0.03,4.73-0.56,11.82-0.5,19.73c0.08,11.36,1.54,12.99,6.91,14.04
			c-0.04-5.82,0.18-27.09,0.16-30.27c-0.03-4.73,0.22-8.09,6.94-8.14c3.36-0.02,6.46,0.87,7.65,2.31c0.04,6.27-0.29,24.09-0.2,37.82
			c0.04,5.91-3.5,7.21-11.86,7.72c-2.26,1.38-5.62,2.22-9.89,2.25c-12,0.08-15.24-7.9-15.35-24.44
			C214.14,246.51,214.4,244.42,214.73,238.96z"/>
		<path class="st8" d="M283.12,228.68c1.72-1.19,3.26-1.66,5.72-1.68c4.36-0.03,7.19,1.68,7.22,5.86
			c0.05,7.82,0.21,31.27-1.19,38.56c-0.61,3.91-3.05,5.38-7.69,5.42c-4.55,0.03-4.93-2.33-5.42-8.78
			c-3.58-6.07-6.99-12.04-10.67-17.84c0.04,6.55-0.08,15.73-0.77,20.73c-0.43,3.91-2.87,5.93-7.32,5.96
			c-2.09,0.01-3.73-0.61-4.2-2.06c-0.04-6.18-0.34-22.54-0.42-34.91c-0.74-2.18-1.31-4.81-1.32-6.54
			c-0.02-3.55,3.96-6.21,10.96-6.26c3.36-0.02,5,0.69,5.92,2.05c2.02,2.71,6.9,11.68,9.2,15.85
			C283.1,239.59,283.13,231.04,283.12,228.68z"/>
		<path class="st8" d="M312.84,228.2c2.81-1.02,5.99-1.68,7.99-1.69c13.82-0.09,19.23,7.14,19.32,20.05
			c0.13,18.55-8.16,29.79-20.89,29.87c-8.36,0.06-16.74-1.52-16.78-6.89c-0.03-4.55,0.19-12,0.15-18.37
			c0.07-3.73,0.13-7.55,0.19-11.46c-0.74-1.72-1.21-3.63-1.23-6.54C301.58,229.64,305.21,228.53,312.84,228.2z M325.63,250.84
			c-0.05-7-2.53-10.8-8.36-12.49c0.05,7.09-0.16,16.91-0.54,26.64c0.82,0.45,1.82,0.62,2.55,0.62
			C321.83,265.6,325.73,264.66,325.63,250.84z"/>
		<path class="st8" d="M371.62,275.08c-2.54,0.56-6,0.77-12.27,0.81c-2.55,0.02-4.18,0.03-5.91-0.23c-4-0.43-8.48-3.21-8.5-6.4
			c-0.03-4.55,0.01-11.91,0.24-18.09c0.07-3.64,0.13-7.36,0.2-11.27c-1.02-2.54-1.3-4.26-1.32-6.9c-0.03-4,2.14-6.01,10.87-6.07
			c4.91-0.03,18.36,0.15,21.55,0.13c1.01,0.99,1.57,3.44,1.58,5.17c0.03,5.09-2.22,7.2-6.49,7.5c-1.91,0.29-7.45,0.41-11.72,0.44
			l-0.22,8.46c3.91-0.39,12.18-0.45,13.45-0.46c0.64,0.81,1.01,1.99,1.02,3.36c0.03,4.64-1.86,7.01-4.77,7.31
			c-1.27,0.28-5.18,0.13-9.81,0.43l-0.06,5.09l15.82-0.02c0.73,1,1.01,1.9,1.02,3.27C376.33,272.04,374.44,274.6,371.62,275.08z"/>
		<path class="st8" d="M409.33,257.91c4.03,5.06,4.67,5.24,8.13,5.58c0.46,0.82,0.74,2,0.75,3c0.04,5.36-3.48,9.75-9.39,9.79
			c-4.09,0.03-5.28-1.33-7.21-4.95c-2.49-4.35-3.77-6.43-5.51-7.42l-0.42,5.91c-0.42,4.82-1.96,6.1-7.32,6.14
			c-6,0.04-6.38-1.41-6.43-9.59c-0.03-4.64,0.01-11.18,0.25-16.73c0.07-3.27,0.14-6.64,0.2-10c-0.47-1.91-0.66-3.72-0.67-5.45
			c-0.02-3.64,2.06-5.2,10.69-5.98c3.72-1.48,6.71-2.23,11.08-2.26c9.73-0.07,13.67,5.73,13.73,13.91
			C417.25,247.4,414.92,251.51,409.33,257.91z M396.38,253.18c1.27-0.01,4.37,0.52,5.46,0.96c1.34-3.28,2.05-6.29,2.03-9.2
			c-0.03-4.45-1.68-6.63-6.87-7.04L396.38,253.18z"/>
		<path class="st8" d="M438.93,225.71c9.64-0.07,14.21,4.81,14.25,9.72c0.04,5.82-3.31,8.2-7.4,8.23c-1.36,0.01-2.18-0.17-3.18-0.43
			c-0.75-3.36-2.31-4.98-6.68-6.41c-0.36,0.82-0.53,2.09-0.52,3.19c0.02,2.36,0.47,2.91,10.7,9.38c5.75,3.51,7.77,6.22,7.8,11.49
			c0.05,7.73-5.72,14.95-17.44,15.03c-9.55,0.06-16.02-2.8-16.07-10.44c-0.03-4.64,2.77-7.66,6.68-7.68c0.64,0,1.36-0.01,2.09,0.26
			c3.68,6.52,5.78,8.05,8.42,8.03c1.82-0.01,2.54-1.02,2.53-2.11c-0.01-1.18-1.38-2.45-10.88-8.93c-5.12-3.6-6.87-6.95-6.9-11.95
			c-0.03-4.36,1.67-8.83,5.29-11.49C430.03,227.4,432.75,225.75,438.93,225.71z"/>
		<path class="st8" d="M488.03,226.37c0.73,1,1.48,3.17,1.49,4.81c0.05,7.54-2.84,9.56-8.66,9.88c0.02,2.91-0.2,10.18-0.43,16.37
			c-0.07,3.73-0.22,7.64-0.37,11.91c-0.24,4.46-3.96,6.12-9.32,6.16c-5.91,0.04-6.1-1.41-6.16-9.6c-0.03-4.64,0.11-10.55,0.08-15.46
			l0.21-8.73c-7.09,0.05-8.46-0.85-8.48-3.49c-0.05-7,2.56-11.29,5.47-11.77c2.54-0.29,5-0.4,11.82-0.44
			C480.84,225.97,484.66,226.12,488.03,226.37z"/>
		<path class="st8" d="M497.95,228.12c3.17-1.75,7.8-2.87,12.8-2.9c5.82-0.04,8.47,2.4,8.95,6.03c1.15,9.08,3.43,23.34,6.04,32.42
			c2.01,1.53,2.84,2.53,2.85,4.44c0.03,5-6.31,7.13-12.86,7.18c-3.82,0.03-4.92-2.24-6.15-9.23c-2.18,0.29-5.63,0.31-9.27,0.34
			c-0.35,1.37-1.04,7.01-1.04,8.01c-0.63,0.64-1.99,1.1-4.08,1.12c-3.27,0.02-8.1-1.13-8.13-5.76
			C487.04,267.38,491.7,244.8,497.95,228.12z M505.66,239.52c-1.06,3.92-2.83,12.02-3.88,17.75c1.36-0.01,4.91-0.12,6.54-0.41
			C507.58,253.33,506.43,244.52,505.66,239.52z"/>
		<path class="st8" d="M557.31,226.81c1.72-1.19,3.26-1.66,5.72-1.68c4.36-0.03,7.19,1.68,7.22,5.86
			c0.05,7.82,0.21,31.27-1.19,38.56c-0.61,3.91-3.05,5.38-7.69,5.42c-4.55,0.03-4.93-2.33-5.42-8.78
			c-3.59-6.07-6.99-12.04-10.67-17.84c0.04,6.55-0.08,15.73-0.77,20.73c-0.43,3.91-2.87,5.93-7.32,5.96
			c-2.09,0.01-3.73-0.61-4.2-2.06c-0.04-6.18-0.34-22.54-0.42-34.91c-0.74-2.18-1.3-4.81-1.32-6.54c-0.02-3.55,3.96-6.21,10.96-6.26
			c3.36-0.02,5,0.69,5.92,2.05c2.02,2.71,6.9,11.68,9.2,15.85C557.29,237.72,557.33,229.17,557.31,226.81z"/>
		<path class="st8" d="M587.04,226.33c2.81-1.02,5.99-1.68,7.99-1.69c13.82-0.09,19.23,7.14,19.32,20.05
			c0.13,18.55-8.16,29.78-20.89,29.87c-8.36,0.06-16.74-1.52-16.78-6.89c-0.03-4.55,0.19-12,0.15-18.37
			c0.07-3.73,0.13-7.55,0.19-11.46c-0.74-1.72-1.21-3.63-1.23-6.54C575.77,227.77,579.4,226.66,587.04,226.33z M599.83,248.98
			c-0.05-7-2.53-10.8-8.36-12.49c0.05,7.09-0.16,16.91-0.54,26.64c0.82,0.45,1.82,0.62,2.55,0.62
			C596.02,263.73,599.92,262.79,599.83,248.98z"/>
		<path class="st8" d="M667.48,224.15c5-0.03,7.56,2.31,8.04,5.67l-12.1,25.9l-0.01,11.36c0.02,3.55-2.5,7.2-11.31,7.26
			c-4.18,0.03-5.37-1.15-5.41-6.6c-0.02-2.27,0.05-5.18,0.04-7.27c0.08-1.36,0.07-2.64,0.15-4l-7.96-20.22
			c-1.92-1.44-2.84-3.62-2.86-5.34c-0.03-4.18,6.5-6.59,11.32-6.62c3.36-0.02,5.28,1.33,6.58,5.05l4.08,11.52l3.83-11.75
			C663.03,225.45,664.12,224.17,667.48,224.15z"/>
		<path class="st8" d="M697.3,223.95c9.36-0.06,16.32,6.71,16.42,20.98c0.11,16.45-5.53,29.31-20.07,29.41
			c-11.27,0.08-17.94-4.7-18.06-21.88c-0.08-11.73,2.7-17.84,7.95-21.24C686.4,225.84,691.94,223.98,697.3,223.95z M691.29,235.99
			c-0.7,3.64-0.75,10.64-0.73,13.28c0.08,11.36,1.73,13.17,7.46,14.22c1.14-5.55,1.38-11.56,1.36-14.28
			C699.32,240.57,696.76,237.68,691.29,235.99z"/>
		<path class="st8" d="M718.93,235.53c-0.47-2.09-0.75-3.72-0.76-5.45c-0.02-3.64,3.96-6.3,10.96-6.35
			c4.64-0.03,5.38,2.05,5.39,4.69c0.03,4.73-0.56,11.82-0.5,19.73c0.08,11.36,1.54,12.99,6.91,14.04
			c-0.04-5.82,0.18-27.09,0.16-30.27c-0.03-4.73,0.22-8.09,6.94-8.14c3.36-0.02,6.46,0.87,7.65,2.31c0.04,6.27-0.29,24.09-0.2,37.82
			c0.04,5.91-3.5,7.21-11.86,7.72c-2.26,1.38-5.62,2.22-9.89,2.25c-12,0.08-15.24-7.9-15.35-24.44
			C718.34,243.08,718.6,240.98,718.93,235.53z"/>
		<path class="st8" d="M788.89,255.32c4.03,5.06,4.67,5.24,8.13,5.58c0.46,0.81,0.74,2,0.75,3c0.04,5.36-3.48,9.75-9.39,9.79
			c-4.09,0.03-5.28-1.33-7.21-4.95c-2.49-4.35-3.77-6.43-5.51-7.42l-0.42,5.91c-0.42,4.82-1.96,6.1-7.32,6.14
			c-6,0.04-6.38-1.41-6.43-9.59c-0.03-4.64,0.01-11.18,0.25-16.73c0.07-3.27,0.14-6.64,0.2-10c-0.47-1.91-0.66-3.72-0.67-5.45
			c-0.02-3.64,2.06-5.2,10.69-5.98c3.72-1.48,6.71-2.23,11.08-2.26c9.73-0.07,13.67,5.73,13.73,13.91
			C796.82,244.82,794.48,248.92,788.89,255.32z M775.94,250.59c1.27-0.01,4.37,0.52,5.46,0.96c1.34-3.28,2.05-6.29,2.03-9.2
			c-0.03-4.45-1.68-6.63-6.87-7.04L775.94,250.59z"/>
		<path class="st8" d="M233.86,352.84c-0.42,4.82-1.96,6.1-7.32,6.14c-6,0.04-6.37-1.41-6.43-9.59c-0.03-4.64,0.01-11.18,0.25-16.73
			c0.07-3.18,0.14-6.55,0.21-9.91c-0.47-1.91-0.66-3.72-0.67-5.45c-0.03-3.64,2.05-5.29,10.69-6.07c3.72-1.48,6.71-2.23,11.08-2.26
			c10.55-0.07,13.68,6.27,13.74,14.54c0.11,16-7.2,24.87-17.83,24.94c-1.09,0.01-2.18,0.02-3.37-0.25L233.86,352.84z M234.57,336.47
			c1,0.54,3.46,0.98,4.82,0.97c2.46-0.02,2.7-4.65,2.66-10.11c-0.03-3.64-1.13-5.9-6.86-6.32L234.57,336.47z"/>
		<path class="st8" d="M280.75,308.7c9.36-0.06,16.32,6.71,16.42,20.98c0.11,16.45-5.53,29.31-20.07,29.41
			c-11.27,0.08-17.94-4.7-18.06-21.88c-0.08-11.73,2.7-17.84,7.95-21.24C269.85,310.59,275.39,308.73,280.75,308.7z M274.74,320.74
			c-0.7,3.64-0.75,10.64-0.73,13.28c0.08,11.36,1.73,13.17,7.46,14.22c1.14-5.55,1.38-11.56,1.36-14.28
			C282.77,325.32,280.21,322.43,274.74,320.74z"/>
		<path class="st8" d="M303.02,321c-0.65-2.18-1.03-4.45-1.04-6.17c-0.02-3.64,3.96-6.3,10.96-6.35c5.18-0.04,5.65,1.42,5.66,3.78
			l-0.23,33.09c1.73,0.99,2.65,2.07,2.66,3.62c0.04,6.18-4.66,9.58-11.03,9.62c-6,0.04-7.1-1.41-7.16-9.59
			c-0.03-4.55,0.1-11.64,0.06-17.37C302.98,328.18,302.95,324.64,303.02,321z"/>
		<path class="st8" d="M350.58,310.13c1.72-1.19,3.26-1.66,5.72-1.68c4.36-0.03,7.19,1.68,7.22,5.86
			c0.05,7.82,0.21,31.27-1.19,38.56c-0.61,3.91-3.05,5.38-7.69,5.42c-4.55,0.03-4.92-2.33-5.42-8.78
			c-3.59-6.07-6.99-12.04-10.67-17.84c0.04,6.55-0.08,15.73-0.77,20.73c-0.43,3.91-2.87,5.93-7.32,5.96
			c-2.09,0.01-3.73-0.61-4.2-2.06c-0.04-6.18-0.33-22.54-0.42-34.91c-0.74-2.18-1.31-4.81-1.32-6.54
			c-0.02-3.55,3.96-6.21,10.96-6.26c3.36-0.02,5,0.69,5.92,2.05c2.02,2.71,6.9,11.68,9.2,15.85
			C350.57,321.04,350.6,312.49,350.58,310.13z"/>
		<path class="st8" d="M398.85,308.89c0.73,1,1.48,3.17,1.49,4.81c0.05,7.54-2.84,9.56-8.66,9.88c0.02,2.91-0.2,10.18-0.43,16.37
			c-0.07,3.73-0.22,7.64-0.37,11.91c-0.24,4.46-3.96,6.12-9.32,6.15c-5.91,0.04-6.1-1.41-6.16-9.6c-0.03-4.64,0.11-10.55,0.08-15.46
			l0.21-8.73c-7.09,0.05-8.46-0.85-8.48-3.49c-0.05-7,2.56-11.29,5.47-11.77c2.54-0.29,5-0.4,11.82-0.44
			C391.67,308.49,395.49,308.64,398.85,308.89z"/>
		<path class="st8" d="M444.12,307.58c9.36-0.06,16.32,6.71,16.42,20.98c0.11,16.45-5.53,29.31-20.07,29.41
			c-11.27,0.08-17.94-4.7-18.06-21.88c-0.08-11.73,2.7-17.84,7.95-21.24C433.22,309.48,438.76,307.62,444.12,307.58z M438.11,319.63
			c-0.7,3.64-0.75,10.64-0.73,13.28c0.08,11.36,1.73,13.17,7.46,14.22c1.14-5.55,1.38-11.56,1.36-14.28
			C446.14,324.21,443.58,321.32,438.11,319.63z"/>
		<path class="st8" d="M466.3,320.89c-1.02-2.54-1.3-4.26-1.32-6.9c-0.03-4,2.14-6.01,10.87-6.07c5-0.03,14.64-0.19,17.91,0.15
			c1.01,0.99,1.66,2.9,1.67,4.63c0.04,5.91-2.12,9.47-6.39,9.86c-1.91,0.29-5.63,0.31-7.82,0.33l-0.21,8.82
			c4.09-0.3,7.18-0.32,8.45-0.33c2.73-0.02,3.46,0.7,3.47,2.89c0.04,6.55-2.57,9.29-5.48,9.58c-1.09,0.1-3.09,0.29-6.73,0.41
			l-0.13,6.91c0.03,4.82-2.59,6.11-7.87,6.15c-6,0.04-6.37-1.41-6.43-9.59c-0.03-4.55,0.01-11.18-0.02-16.82
			C466.35,327.62,466.33,324.25,466.3,320.89z"/>
		<path class="st8" d="M544.41,308.72c0.81-0.82,2.9-1.66,4.81-1.67c5-0.03,8.74,1.58,8.79,8.49c0.03,4-2.8,16.47-8.51,32.24
			c-1.16,3.55-3.24,5.48-9.95,6.98c-1.45,1.28-4.35,2.3-8.8,2.33c-4.36,0.03-5.29-2.78-6.33-8.87c-1.52-9.08-3.31-18.43-5.46-27.87
			c-2.1-1.89-3.02-3.62-3.04-5.8c-0.04-5.36,6.5-7.5,12.95-7.54c3.82-0.03,4.75,2.69,5.97,9.6c0.48,3.72,3.23,20.8,3.81,25.88
			C542.08,327.74,544.44,313.99,544.41,308.72z"/>
		<path class="st8" d="M562.21,319.24c-0.65-2.18-1.03-4.45-1.04-6.17c-0.02-3.64,3.96-6.3,10.96-6.35
			c5.18-0.04,5.65,1.42,5.66,3.78l-0.23,33.09c1.73,0.99,2.65,2.07,2.66,3.62c0.04,6.18-4.66,9.58-11.02,9.62
			c-6,0.04-7.1-1.41-7.16-9.59c-0.03-4.55,0.1-11.64,0.06-17.37C562.17,326.42,562.14,322.87,562.21,319.24z"/>
		<path class="st8" d="M611.28,355.36c-2.54,0.56-6,0.77-12.27,0.81c-2.55,0.02-4.18,0.03-5.91-0.23c-4-0.43-8.48-3.21-8.5-6.4
			c-0.03-4.55,0.01-11.91,0.24-18.09c0.07-3.64,0.13-7.36,0.2-11.27c-1.02-2.54-1.3-4.26-1.32-6.9c-0.03-4,2.14-6.01,10.87-6.07
			c4.91-0.03,18.37,0.15,21.55,0.13c1.01,0.99,1.57,3.44,1.58,5.17c0.04,5.09-2.22,7.2-6.49,7.5c-1.91,0.29-7.45,0.41-11.73,0.44
			l-0.21,8.46c3.91-0.39,12.18-0.45,13.45-0.46c0.64,0.81,1.01,1.99,1.02,3.36c0.03,4.64-1.86,7.01-4.77,7.31
			c-1.27,0.28-5.18,0.13-9.82,0.43l-0.06,5.09l15.82-0.02c0.73,1,1.01,1.9,1.02,3.27C615.98,352.33,614.09,354.88,611.28,355.36z"/>
		<path class="st8" d="M666.96,307.89c1-0.73,2.81-1.66,4.72-1.67c5.09-0.03,8.01,1.58,8.06,8.49c0.03,3.91-2.34,17.2-8.05,32.78
			c-1.43,3.65-2.78,5.29-9.04,6.79c-2.17,1.38-4.26,1.85-7.08,1.87c-2.54,0.02-4-0.61-5.04-5.24c-0.38-1.91-1.88-9.44-2.26-11.53
			c-1.68,6.28-3.56,11.66-5,13.58c-1.62,2.1-5.8,3.4-9.89,3.43c-5.64,0.04-6.75-2.77-7.79-8.86c-1.52-9.17-2.31-18.44-4.28-27.88
			c-1.56-1.81-2.3-3.62-2.31-5.8c-0.04-5.36,5.04-7.49,11.5-7.53c3.27-0.02,4.92,1.33,5.96,7.41c0.28,1.73,0.88,8.63,1.65,14.99
			c0.39,3.73,0.78,7.9,1.18,12.36l4.97-17.85c-1.22-5.35-1.5-6.9-1.52-9.44c-0.03-4.45,4.04-7.3,9.68-7.34
			c3.73-0.03,4.47,2.7,5.7,9.51c0.48,3.72,3.5,19.89,4.08,24.97C665.72,326.17,666.72,313.16,666.96,307.89z"/>
		<path class="st8" d="M176.74,428.41c-5.82,0.04-9.86-5.75-9.9-12.02c-0.04-6.09,2.39-10.11,9.21-10.15
			c8.27-0.06,12.12,3.92,12.14,7.83C188.24,421.24,183.29,428.37,176.74,428.41z"/>
		<path class="st8" d="M216.4,404.5c-1.02-2.54-1.3-4.26-1.32-6.9c-0.03-4,2.14-6.02,10.87-6.07c5-0.03,14.64-0.19,17.91,0.15
			c1.01,0.99,1.66,2.9,1.67,4.63c0.04,5.91-2.12,9.47-6.39,9.86c-1.91,0.29-5.63,0.31-7.82,0.33l-0.21,8.82
			c4.09-0.3,7.18-0.32,8.45-0.33c2.73-0.02,3.46,0.7,3.47,2.89c0.04,6.55-2.57,9.29-5.48,9.58c-1.09,0.1-3.09,0.29-6.73,0.41
			l-0.13,6.91c0.03,4.82-2.6,6.11-7.87,6.15c-6,0.04-6.37-1.41-6.43-9.59c-0.03-4.55,0.01-11.18-0.02-16.82
			C216.45,411.23,216.42,407.87,216.4,404.5z"/>
		<path class="st8" d="M275.92,439.56c-2.54,0.56-6,0.77-12.27,0.81c-2.55,0.02-4.18,0.03-5.91-0.23c-4-0.43-8.48-3.21-8.5-6.4
			c-0.03-4.55,0.01-11.91,0.24-18.09c0.07-3.64,0.13-7.37,0.2-11.27c-1.02-2.54-1.3-4.26-1.32-6.9c-0.03-4,2.14-6.02,10.87-6.07
			c4.91-0.03,18.37,0.15,21.55,0.13c1.01,0.99,1.57,3.44,1.58,5.17c0.04,5.09-2.22,7.2-6.49,7.5c-1.91,0.29-7.45,0.41-11.73,0.44
			l-0.21,8.46c3.91-0.39,12.18-0.45,13.45-0.46c0.64,0.81,1.01,1.99,1.02,3.36c0.03,4.64-1.86,7.01-4.77,7.31
			c-1.27,0.28-5.18,0.13-9.82,0.43l-0.06,5.09l15.82-0.02c0.73,1,1.01,1.9,1.02,3.27C280.62,436.52,278.73,439.08,275.92,439.56z"/>
		<path class="st8" d="M313.55,439.3c-2.54,0.56-6,0.77-12.27,0.81c-2.55,0.02-4.18,0.03-5.91-0.23c-4-0.43-8.48-3.21-8.5-6.4
			c-0.03-4.55,0.01-11.91,0.24-18.09c0.07-3.64,0.13-7.37,0.2-11.27c-1.02-2.54-1.3-4.26-1.32-6.9c-0.03-4,2.14-6.02,10.87-6.07
			c4.91-0.03,18.37,0.15,21.55,0.13c1.01,0.99,1.57,3.44,1.58,5.17c0.04,5.09-2.22,7.2-6.49,7.5c-1.91,0.29-7.45,0.41-11.73,0.44
			l-0.21,8.46c3.91-0.39,12.18-0.45,13.45-0.46c0.64,0.81,1.01,1.99,1.02,3.36c0.03,4.64-1.86,7.01-4.77,7.31
			c-1.27,0.28-5.18,0.13-9.82,0.43l-0.06,5.09l15.82-0.02c0.73,1,1.01,1.9,1.02,3.27C318.26,436.27,316.37,438.83,313.55,439.3z"/>
		<path class="st8" d="M350.47,426.05c1.01,0.81,1.56,2.72,1.58,4.35c0.05,6.91-3.67,8.84-7.76,9.14c-2.54,0.29-5.82,0.4-9.18,0.43
			c-5,0.03-10.75-2.84-10.77-6.11c-0.12-17.27,0.14-18.91,0.05-31.91c-0.47-1.91-0.75-3.72-0.76-5.45
			c-0.02-3.64,3.96-6.21,10.96-6.26c5.09-0.03,5.74,1.42,5.75,3.78c0.04,6.27-0.33,18.64-0.69,32.28
			C342.65,426.28,348.83,426.06,350.47,426.05z"/>
		<path class="st8" d="M402.71,421.78c4.04,5.06,4.67,5.24,8.13,5.58c0.46,0.82,0.74,2,0.75,3c0.04,5.36-3.48,9.75-9.39,9.79
			c-4.09,0.03-5.28-1.33-7.22-4.95c-2.48-4.35-3.77-6.43-5.5-7.42l-0.41,5.91c-0.42,4.82-1.96,6.1-7.32,6.14
			c-6,0.04-6.37-1.41-6.43-9.59c-0.03-4.64,0.01-11.18,0.25-16.73c0.07-3.27,0.14-6.64,0.2-10c-0.47-1.91-0.66-3.72-0.67-5.45
			c-0.02-3.64,2.06-5.2,10.69-5.98c3.72-1.48,6.71-2.23,11.08-2.26c9.73-0.07,13.68,5.73,13.73,13.91
			C410.64,411.27,408.3,415.38,402.71,421.78z M389.77,417.05c1.27-0.01,4.37,0.52,5.46,0.96c1.34-3.28,2.05-6.29,2.03-9.2
			c-0.03-4.45-1.68-6.62-6.87-7.04L389.77,417.05z"/>
		<path class="st8" d="M443.19,438.42c-2.54,0.56-6,0.77-12.27,0.81c-2.55,0.02-4.18,0.03-5.91-0.23c-4-0.43-8.48-3.21-8.5-6.4
			c-0.03-4.55,0.01-11.91,0.24-18.09c0.07-3.64,0.13-7.37,0.2-11.27c-1.02-2.54-1.3-4.26-1.32-6.9c-0.03-4,2.14-6.02,10.87-6.07
			c4.91-0.03,18.37,0.15,21.55,0.13c1.01,0.99,1.57,3.44,1.58,5.17c0.04,5.09-2.22,7.2-6.49,7.5c-1.91,0.29-7.45,0.41-11.73,0.44
			l-0.21,8.46c3.91-0.39,12.18-0.45,13.45-0.46c0.64,0.81,1.01,1.99,1.02,3.36c0.03,4.64-1.86,7.01-4.77,7.31
			c-1.27,0.28-5.18,0.13-9.82,0.43l-0.06,5.09l15.82-0.02c0.73,1,1.01,1.9,1.02,3.27C447.9,435.38,446.01,437.94,443.19,438.42z"/>
		<path class="st8" d="M469.95,389.32c9.64-0.07,14.22,4.81,14.25,9.72c0.04,5.82-3.31,8.2-7.4,8.23c-1.36,0.01-2.18-0.17-3.18-0.43
			c-0.75-3.36-2.31-4.98-6.68-6.41c-0.36,0.82-0.53,2.09-0.52,3.19c0.02,2.36,0.47,2.91,10.7,9.38c5.75,3.51,7.77,6.22,7.81,11.49
			c0.05,7.73-5.72,14.95-17.44,15.03c-9.55,0.06-16.02-2.8-16.07-10.44c-0.03-4.64,2.77-7.66,6.68-7.68c0.64,0,1.36-0.01,2.09,0.26
			c3.68,6.52,5.78,8.05,8.42,8.03c1.82-0.01,2.54-1.02,2.53-2.11c-0.01-1.18-1.38-2.45-10.88-8.93c-5.12-3.6-6.87-6.95-6.9-11.95
			c-0.03-4.36,1.67-8.83,5.29-11.49C461.05,391.02,463.77,389.37,469.95,389.32z"/>
		<path class="st8" d="M503.25,432.92c-0.42,4.82-1.96,6.1-7.32,6.14c-6,0.04-6.37-1.41-6.43-9.59c-0.03-4.64,0.01-11.18,0.25-16.73
			c0.07-3.18,0.14-6.55,0.21-9.91c-0.47-1.91-0.66-3.72-0.67-5.45c-0.02-3.64,2.05-5.29,10.69-6.07c3.72-1.48,6.71-2.23,11.08-2.26
			c10.55-0.07,13.68,6.27,13.74,14.54c0.11,16-7.2,24.87-17.83,24.94c-1.09,0.01-2.18,0.01-3.37-0.25L503.25,432.92z M503.96,416.55
			c1,0.54,3.46,0.98,4.83,0.97c2.46-0.02,2.7-4.65,2.66-10.11c-0.02-3.64-1.13-5.9-6.86-6.32L503.96,416.55z"/>
		<path class="st8" d="M556.47,437.65c-2.54,0.56-6,0.77-12.27,0.81c-2.55,0.02-4.18,0.03-5.91-0.23c-4-0.43-8.48-3.21-8.5-6.4
			c-0.03-4.55,0.01-11.91,0.24-18.09c0.07-3.64,0.13-7.37,0.2-11.27c-1.02-2.54-1.3-4.26-1.32-6.9c-0.03-4,2.14-6.02,10.87-6.07
			c4.91-0.03,18.37,0.15,21.55,0.13c1.01,0.99,1.57,3.44,1.58,5.17c0.04,5.09-2.22,7.2-6.49,7.5c-1.91,0.29-7.45,0.41-11.73,0.44
			l-0.21,8.46c3.91-0.39,12.18-0.45,13.45-0.46c0.64,0.81,1.01,1.99,1.02,3.36c0.03,4.64-1.86,7.01-4.77,7.31
			c-1.27,0.28-5.18,0.13-9.82,0.43l-0.06,5.09l15.82-0.02c0.73,1,1.01,1.9,1.02,3.27C561.18,434.61,559.28,437.17,556.47,437.65z"/>
		<path class="st8" d="M592.09,408.49c-2.45,0.02-3.91-0.43-4.92-0.88c-1.04-5.36-1.77-6.53-4.41-7.24
			c-1.16,3.83-1.55,12.65-1.53,15.47c0.06,8.36,1.71,10.53,12.8,10.46c0.64,0,3-0.11,4-0.12c0.46,0.72,0.74,2.27,0.75,3
			c0.04,5.73-4.39,9.39-12.85,9.45c-12.45,0.08-19.76-4.41-19.87-20.23c-0.09-13.82,2.48-22.84,10.83-25.26
			c3.71-3.03,7.7-4.6,12.33-4.63c7-0.05,10.21,3.66,10.25,9.2C599.52,404.62,596.91,408.46,592.09,408.49z"/>
		<path class="st8" d="M632.69,389.21c0.73,0.99,1.48,3.17,1.49,4.81c0.05,7.55-2.85,9.56-8.66,9.88c0.02,2.91-0.2,10.18-0.43,16.37
			c-0.07,3.73-0.22,7.64-0.37,11.91c-0.24,4.46-3.96,6.12-9.32,6.16c-5.91,0.04-6.1-1.41-6.16-9.6c-0.03-4.64,0.11-10.55,0.08-15.46
			l0.21-8.73c-7.09,0.05-8.46-0.85-8.48-3.49c-0.05-7,2.56-11.29,5.47-11.77c2.54-0.29,5-0.4,11.82-0.44
			C625.51,388.81,629.32,388.96,632.69,389.21z"/>
		<path class="st8" d="M664.29,436.91c-2.54,0.56-5.99,0.77-12.27,0.81c-2.55,0.02-4.18,0.03-5.91-0.23c-4-0.43-8.48-3.21-8.5-6.4
			c-0.03-4.55,0.01-11.91,0.24-18.09c0.07-3.64,0.13-7.37,0.2-11.27c-1.02-2.54-1.3-4.26-1.32-6.9c-0.03-4,2.14-6.02,10.87-6.07
			c4.91-0.03,18.37,0.15,21.55,0.13c1.01,0.99,1.57,3.44,1.58,5.17c0.04,5.09-2.22,7.2-6.49,7.5c-1.91,0.29-7.45,0.41-11.72,0.44
			l-0.21,8.46c3.91-0.39,12.18-0.45,13.45-0.46c0.64,0.81,1.01,1.99,1.02,3.36c0.03,4.64-1.86,7.01-4.77,7.31
			c-1.27,0.28-5.18,0.13-9.82,0.43l-0.06,5.09l15.82-0.02c0.73,1,1.01,1.9,1.02,3.27C669,433.88,667.1,436.44,664.29,436.91z"/>
		<path class="st8" d="M685.6,389.49c2.81-1.02,5.99-1.68,7.99-1.69c13.82-0.09,19.23,7.14,19.32,20.05
			c0.13,18.55-8.16,29.78-20.89,29.87c-8.36,0.06-16.74-1.52-16.78-6.89c-0.03-4.55,0.19-12,0.15-18.37
			c0.07-3.73,0.13-7.55,0.19-11.46c-0.74-1.72-1.21-3.63-1.23-6.54C674.34,390.93,677.97,389.82,685.6,389.49z M698.4,412.13
			c-0.05-7-2.53-10.8-8.36-12.49c0.05,7.09-0.16,16.91-0.54,26.64c0.82,0.45,1.82,0.62,2.55,0.62
			C694.59,426.89,698.49,425.95,698.4,412.13z"/>
	</g>
</g>
</svg>
