<svg id="Layer_1" data-name="Layer 1" xmlns="http://www.w3.org/2000/svg" viewBox="0 0 616.72 681.9"><defs><style>.cls-1{fill:#16bbbb;}.cls-2{fill:#058292;}.cls-3{fill:#fff;}</style></defs><g id="Layer_2" data-name="Layer 2"><circle class="cls-1" cx="310.6" cy="344.4" r="195.1"/><circle class="cls-1" cx="51" cy="176.5" r="51"/><circle class="cls-1" cx="186.7" cy="97.1" r="32.4"/><circle class="cls-1" cx="361.4" cy="44.8" r="44.8"/><circle class="cls-1" cx="486.8" cy="106.5" r="41.8"/><circle class="cls-1" cx="566.4" cy="202.1" r="37.8"/><circle class="cls-1" cx="584.82" cy="396.96" r="31.9"/><circle class="cls-1" cx="551.5" cy="528.6" r="45.8"/><circle class="cls-1" cx="437" cy="574.4" r="30.9" transform="translate(-278.17 477.24) rotate(-45)"/><circle class="cls-1" cx="284.7" cy="634.1" r="47.8"/><circle class="cls-1" cx="170.2" cy="553.5" r="32.8"/><circle class="cls-1" cx="65.2" cy="522.13" r="46.3" transform="translate(-460.11 552.43) rotate(-86.18)"/><circle class="cls-1" cx="57.8" cy="337.5" r="34.8"/><path class="cls-2" d="M561,418.2s-52.6-53.8-71.4,4.9,43.14,60.95,57.5,59.7c33.38-2.9,30.95,50.52-.15,60.69-1.67.55-10.85,2.27-24.48,1.12-13.2-1.12-16.79-12.41-16.77-16,0,0-14.55-81.14-62.2-41.6-46.51,38.59,6.05,58.71,8.36,60.31v.06c2.31,1.55,2.56,18-11.83,24.46-21.23,9.53-33-4.1-32.95-5.08-1.95-.69,26.41-41.6-53.86-32-80.68,9.7-56.3,53.1-41.4,60.1,13.7,6.45-4.64,16.17-16.85,20.79a29.43,29.43,0,0,1-15.66,1.42h0c-7.85-1.42-5.92-1.85-19.94-11.81h0c-4.28-3.38-9.09-5.25-5.16-8C269.51,586.57,291,545,236.82,525c-31.19-12.27-51.63-2.58-42.74,4.63s15.61,39.69-4.26,23.22c-7.7-6.38-18.27-10.7-29.72-14.62-27.1-9.29,3.32-16.83,3.32-16.83s38.3-6.4,7.7-40.3-62.81,10-59.88,38.81c3.52,34.53-55.94,29.64-59.65-12.64-1.27-14.58,2.19-32.74,24-30.3.89.1,2.65.8,3.57.87,10,.71,62.66-10.83,45.42-74.44-19-70.1-31-54.8-38.5-46.2s-16,9.13-26.88.11c-17.54-14.51-.44-59.73,24.08-43.41,0,0,22,36,40.8-26.8S93.2,221.2,55.8,227s-15.87-38.92-.12-53.82c13.53-12.8,40.9-29.55,45.5-5.85S130.3,240.8,181,198.1c31.2-28.3,47.7-48.07-8.7-72-11.9-4.4,47.8-31.73,45.1-18.83s-15.8,51.2,61.8,43.9c96-12.8,44.2-78.64,42-86.5-12.6-45,112.05-7,61.9,18.8-7.5,3.1-65.9,50.4-.9,79.4s71-19.2,65-43.4l5.8-4.68A26.43,26.43,0,0,1,483.8,113l.39.25a28.51,28.51,0,0,1,12.75,23l.37,10.78c-16.9,3.2-74,20.43-37.61,70.53,28.5,39.4,68.9-15.5,70.7-27.1h0a36.8,36.8,0,0,1,33.08,23.82c2.21,6,3.14,11.93,1.88,16.23-1.38,4.72-3.94,8.23-8.56,7.85-13.2-1.1-73.7-24.3-53.3,69.9,17,78.7,29.63,78.45,60.33,64.75,21.22-9.5,27.52,2.39,29.74,13.32,2.37,11.61.49,20.14-7.79,27.94C575.55,423.84,567.43,423.74,561,418.2Z"/><path class="cls-3" d="M254.9,323.5c1.3-.3,79.6-38.8,79.6-38.8s-18.4,118.9-20.9,136.7c-4.5,31.5,28.8,38.4,36.5-2l13.3-1.3s-8.9,54.4-46.1,55.8-45.8-15-46.1-32.2,14.9-104.5,14.9-104.5,3-10.4-3.6-7-29.5,13-29.5,13Z"/><circle class="cls-3" cx="312.9" cy="242.2" r="27.2"/></g><path class="cls-2" d="M574.71,430.23"/></svg>