<?xml version="1.0" encoding="utf-8"?>
<!-- Generator: Adobe Illustrator 23.0.2, SVG Export Plug-In . SVG Version: 6.00 Build 0)  -->
<svg version="1.1" id="Layer_1" xmlns="http://www.w3.org/2000/svg" xmlns:xlink="http://www.w3.org/1999/xlink" x="0px" y="0px"
	 viewBox="0 0 680.7 544.3" style="enable-background:new 0 0 680.7 544.3;" xml:space="preserve">
<style type="text/css">
	.st0{opacity:0.1;fill:#007CC7;enable-background:new    ;}
	.st1{fill:#AFC7D7;}
	.st2{fill:#73A0BE;}
	.st3{fill:#1F2144;}
	.st4{fill:#9B7E6A;}
	.st5{fill:#FDA589;}
	.st6{fill:#FFBB94;}
	.st7{fill:#002042;}
	.st8{fill:#1B354C;}
	.st9{fill:#EBEBEB;}
	.st10{fill:#324855;}
	.st11{opacity:0.39;fill:#C6C6C6;enable-background:new    ;}
	.st12{fill:#C6C6C6;}
	.st13{fill:#F28561;}
	.st14{fill:#FFFFFF;}
	.st15{opacity:0.16;fill:#B94A00;enable-background:new    ;}
	.st16{fill:#472516;}
	.st17{fill:#363A5E;}
	.st18{fill:#D37E37;}
	.st19{fill:#00B1AA;}
	.st20{fill:#108C85;}
	.st21{fill:#853535;}
	.st22{fill:#045604;}
	.st23{fill:#C4B1A9;}
	.st24{opacity:0.46;fill:#472516;enable-background:new    ;}
	.st25{fill:none;}
	.st26{fill:#FDA689;}
	.st27{fill:#C09B7E;}
	.st28{fill:#F56C72;}
	.st29{fill:#E0585E;}
	.st30{fill:none;stroke:#422645;stroke-width:1.1749;stroke-miterlimit:10;}
	.st31{fill:#9A4545;}
	.st32{fill:#773232;}
	.st33{fill:#AB983E;}
	.st34{fill:#FAE6CF;}
	.st35{fill:#C9C1BD;}
	.st36{fill:#F0E6E1;}
	.st37{clip-path:url(#SVGID_3_);}
	.st38{fill:#E0D6D3;}
	.st39{clip-path:url(#SVGID_5_);}
	.st40{clip-path:url(#SVGID_7_);}
	.st41{fill:#999999;}
	.st42{fill:#FBD5AF;}
	.st43{fill:#007CC7;}
	.st44{fill:#E6E6E6;}
	.st45{fill:#F29542;}
	.st46{fill:#A1543F;}
	.st47{fill:url(#SVGID_8_);}
	.st48{fill:url(#SVGID_9_);}
	.st49{fill:url(#SVGID_10_);}
	.st50{fill:#035693;}
	.st51{fill:url(#SVGID_11_);}
	.st52{fill:url(#SVGID_12_);}
	.st53{fill:url(#SVGID_13_);}
</style>
<g>
	<path class="st0" d="M676.4,311c8.7,70.6-9.3,100.3-51.8,148.4c-16.8,19-43,33.1-64.4,44.2c-45.4,23.6-95.1,34.1-143.7,38.3
		c-47.5,4.1-95,2.1-141.8-3.9c-2.7-0.4-5.4-0.7-8.2-1.1c-92.5-13-217-55.7-253.8-162c-10.8-31.4-16.8-64.8-14.3-98
		c1.2-15.8,5.6-29.7,9.4-44.8c4-15.7,65.9-130.1,178.1-173.9c51.7-23.1,238-46.7,314.1,20.5c12.7,11.2,23.9,23.4,33,37.5
		c8.3,13,16.6,27.7,22.2,42.2c4,10.5,8,21.2,12.3,31.6c6.3,15.6,17.6,28,31.7,37.1c6.4,4.1,14,6.6,21,9.6
		C649.4,249.5,672.5,279.5,676.4,311z"/>
	<path class="st1" d="M62.1,504.8c-3-0.3-4.6-0.7-5.3-0.9c-0.8-0.2-0.7-0.3-0.4-0.4c0.5-0.1,1.7-0.1-1.1-1.1c2.3,0.5,4.3,1,5.5,1.4
		c0.4,0,2.1,0.2,3.5,0.2c1.4,0.1,2.6,0,2.3-0.2c0.6,0.4,2.6,0.7,5,0.9c2.5,0.2,5.3,0.3,8,0.4c5.4,0.1,9.8,0.1,7.3,1
		c3.2,0,9.9-0.6,17.2-1.6c7.4-1,15.5-2.2,22.2-3.1l-3.6,0.8c14.3-0.7,12.1-2.5,20.2-3.8c-7,1.3,6.4-0.2,9.4-0.1
		c6.2-1,11.3-2.1,20.3-2.3c1.9,0.5,2.1,1.3,7.7,1.4c1.3-0.2,2.6-0.3,3.9-0.4c5.7,0.1,13.3,0.2,16.9,0.8h-0.8c6.4,0.7,6.8,0,1.8-0.5
		l6.2,0.1l0.2,0.2c8.2,0.3,15.9,0.3,28.9,1.5c-3.6,0.2,9.6,2-2.1,1c3.4,0.1-1.7-0.7-2.4-1c-4.2-0.6-8.1-0.4-10-0.5
		c1.3,0.4-0.1,1-2.4,1.2c4.2,0,12.2,0.8,19.4,1.4s13.7,1.1,14.8,0.5c5.2,0.5,11.3,0.9,17.6,1.2c6.3,0.2,12.8,0.4,18.9,0.7
		c-0.5-0.1-1.5-0.2-1.2-0.3l10.4,0.6L298,504l6.9,0.4c0.7,0.2-2,0.5-4.8,0.5c-1.6,0.1-3.1-0.1-1.5-0.2c-7.5,0.5,6.2,0.2,1.3,0.7
		c-1.8-0.1-4.2,0-5.5,0c8.5,0.3,12.5-0.5,17.7,0c2-0.3,5.1-0.7,8.6-0.9c3.5-0.2,7.5-0.6,11.3-0.6c-2.9,0.5,8.3-0.6,4.5,0.3
		c2.9-0.5,9.8-0.6,10.9-1.1c-1.1,0.2-4.4,0.5-6.7,0.5c3.1-0.4,3.5-0.8,7.3-1.1c0.5,0,0.2,0.1,0.2,0.1c4.9-0.8,1.5-1.4,10.2-2.2
		c22.8-2.5-3,1.7,0.3,1.7c0.8-0.4,10.8-1.6,15.4-1.8l-1.1,0.3c2.3-0.4,5.7-1,8.2-1c1.3-0.7,3.9-1.4,5.5-2l10.2-1.3l-2,0.5
		c2.3-0.4,4.3-0.6,6.4-0.9c1,0.3-2.1,0.5-5.1,1c1.7,0.2,3.8-0.1,6.1-0.8l-1.3,0.1c2.6-0.5,12-2.2,4.4-1.5c5.6-1,7.5-0.5,11.4-1.1
		c0.5,0.3-3.1,0.8-1.1,0.8c3.8-0.4,6.3-0.6,9.3-1.1c-3,0.2,0.8-0.4-4-0.1c1.8-0.4,6.6-1,6.3-1.1c-1.5,0.3-2.6,0.5-5.3,0.6
		c5.1-0.7,10.4-1.4,15.6-1.7c-0.2,0.1-0.7,0.2-1.3,0.4c6.7-1.3,16.9-2.3,21.3-3.3h-2c-1.6,0.3-4.9,0.7-6.3,0.7
		c5.1-0.7-3.7-0.2,1.6-1.1c7.4-1,14.1-0.9,18.1-2c-7.1,0.6-16.7,1-19.5,1.7c1.5-0.1,3-0.3,4.6-0.4c-3.4,0.6-6.8,1.3-10.2,2
		c-0.5-0.3-9.1,1.2-9.1,0.6c3.6-0.5,6.8-0.8,9.6-1.2c-0.7-0.2-9.6,0.9-13.4,1.3l4.8-0.3c-8.4,1.4-19.2,2.5-27.4,3.8
		c6.4-1.2-8.3,0.6-3.2-0.4c2-0.5,5.5-0.5,4.5-0.5c0.5-0.5-5,0.5-6.8,0.3c-0.8,0.4-9.2,1.5-4.1,1.3c-2.8,0.1-8.6,1.3-12.4,1.4
		c1.2,0.4-6.9,1.1-8.2,1.5c-1.6,0.1-3.1,0.2-4.2,0.2c3.4-0.6,7.6-1.3,11.9-2c1.8-0.1,5.1-0.5,4.1-0.5v-0.2
		c6.5-1.2,13.1-2.3,17.8-3.1c0.7-0.1,1.5-0.2,2.2-0.3l-0.4,0.1c0.2-0.1,0.5-0.1,0.7-0.1c38.2-4.5,76.5-8.9,114.9-8.3
		c-2.5,0.1-6.6,0-8.3,0.2l0.3-0.1l-3.9,0.2c3.3,0,9.8-0.1,12.6-0.3c2.7,0,5.4,0.1,8.1,0.2l-6.7-0.4l0,0l0,0l-8-0.5
		c5.3-0.4,10.2-0.8,16.5-0.6c-2,0.2,0,0.3,0.5,0.4c17.3-1.5,34.1-1.5,51.5-1.2c7.3,0.1,14.7,0.3,21.9-0.8c14-2.1,27.4-8.9,41.5-7.7
		c5.3,0.4,11.5,1.7,15.1-2.2c4-4.4,0.8-12.1-4.5-14.8s-11.6-2.3-17.6-2.4c-7.8-0.2-15.6-1.7-23.3-1.1c-9.9,0.8-18.9,3.6-28.9,3
		c-7.1-0.4-14.6-1.9-21.8-1.7c4-0.1-2.5-0.7-5.7-1.2c-9.9-0.5-30.8-1.7-45.7-2.1c2-0.5-2.1-0.7-6.9-0.9c-4.8-0.2-10.2-0.4-10.8-0.9
		c-3.3-0.2-8.5-0.2-8.9,0.2c1.9-0.1,6.3,0.4,5.7,0.6c-4.9-0.1-12.3-0.4-13,0.1l-5.9-0.7c-0.3,0.2-1.2,0.5-2.8,0.6
		c-1.3,0-2.6-0.1-3.9-0.1c-2.3-0.4-2.4-0.3-2.6-0.1c-1.4-0.1-2.9-0.1-4.3-0.2c1.7-0.2,3-0.4,3.7-0.6c-5.1-0.3-4.4,0-8-0.1
		c-1.2-0.3,3.6-0.7,7.5-0.7l-6.5-0.5c-6.4,0.4-17.4,0.8-27.6,0.2c1.7-0.3,5-0.2,2.4-0.7c-4.4,0-10.3,0.4-16-0.2
		c0.8,0,0.3-0.1,1.1-0.1c-10.2,0.1-7.6-0.5-16.8-0.9c0.2,0,0.2-0.1,0.5-0.2l-5.6,0.1c-11.8,0.2-13-1.2-19.9-2h1.6
		c-2.2-0.4-6.8-0.7-11.4-1s-9.1-0.5-11.1-0.8c4.9,0.7,1.6,0.5,5.1,1.3c4.4,0.2,3.2-0.6,10.4,0.1c-1,0.5-10.3,0.1-12.3,0.4
		c-4.1-0.2-6.7-1.4-7-1.8c-10.2-0.7-15.8-1.6-28.2-2.6c-4.5,0-8.2,0.9-18.4-0.9l0.6-0.2c-0.4,0.3-5-0.5-7.2-0.5c3.5,0.9-4.5,0-0.2,1
		c-6.1-0.5-7-1.4-7.5-1.9c-4.5,0.5-12-1.4-21.5-1.3c1.7-0.3,12,0.2,7.8-0.4c-4.1,0.1-8.2,0.2-12.2,0.4l5.4,0.2
		c-9.2,0.3-11.8-0.5-17.1-0.8c-0.5-0.1,0.1-0.2,1.2-0.3c1.1,0,2.6,0,3.9,0c-2.8-0.1-7.4,0-11.1,0.3c-2.8,0.3-12.5,1-16.3,1.8
		c-0.5,0-1,0-1.6,0.1c0.1-0.1,0.4-0.1,0.7-0.2c-0.8,0.1-1.4,0.1-2,0.2c-1.6,0.1-3.2,0.2-4.9,0.4l1-0.2c-0.6,0.1-1.3,0.2-1.9,0.3
		c-1.7,0.1-3.4,0.3-5,0.5l-2.5,0.6l1.3-0.2c-0.1,0.3-1.7,0.8-4,1.4c-2.8,0.5-5.7,1-8.5,1.6c-2.9,0.6-5.9,1.3-8.9,2
		c-3.2,0.6-6.7,1.5-10,2.3c-4,1-7.7,1.8-9.6,1.6c10.8-2.8,16-4,27.6-6.8c3.2-0.3,1.3,0.2-1.4,0.8c-2.6,0.6-6.1,1.5-6.2,1.7
		c2.2-0.5,4.4-0.9,6.6-1.3c-1.1-0.3,12.9-2.7,9.2-2.9c-3.7,0.6-7.5,1.2-11.1,1.9c-3.6,0.8-7.2,1.6-10.6,2.4
		c-6.9,1.6-13.5,3.1-19.7,3.9c3.6-2,6.8-4.2,10-6.5c0-0.1,0.1-0.2,0.6-0.4l-0.6,0.4c0.1,0.2,2.4-0.5,5.1-1.3c-0.5,0.3-1,0.7,2.3-0.1
		c6.8-1.3,10.2-3.1,15.5-4l-1.6,0.4c2.5-0.4,5.3-0.9,8-1.4s5.2-0.9,7.1-1.4c2.1,0.1-1.5,0.7-4.6,1.1c-3.1,0.5-5.7,1.1-1.8,0.7
		c-2.8,0.4-6.1,1-9.1,1.8c-3.1,0.8-5.8,1.6-7.8,2.1c3.3-0.7,6.6-1.2,8.8-1.4c2.2-0.1,3.3,0,2.4,0.4c7.3-1.6,7.2-2,6.9-2.3
		c-0.4-0.4-1-0.7,5.7-1.8c3.1-0.4,6.2-0.6,9.3-0.9c1-0.4,2.1-0.8,3.1-1.2c5.6-0.4-3.3,0.9,5.2,0.3c2.3-0.6,7.9-0.4,9.5-0.7
		c-0.2,0.2-0.3,0.4,4,0.3c0.3-0.1-0.1-0.4,3.3-0.5c2.4,0.8-8.8,0.2-4.8,1c9.8-0.1,6.3-0.8,7.8-1.1c-0.3,0-0.9,0-1.9,0
		c0.1-0.3,4.3,0,3.8-0.4c-1.7-0.1-3.3,0.1-4.8,0.1c3-0.3-4.9-0.6-7.9-0.4c-6.8,0.5-21.1,1.3-30.5,2.9c0.8-0.2,2.4-0.5,1.4-0.4
		c-1.7,0.2-3.2,0.5-4.7,0.7c-1.5,0.3-2.8,0.5-4.1,0.7c-2.6,0.5-5.1,0.9-7.5,1.4c-4.8,1-9.7,2.2-16.3,3.9l-1.3,0.9
		c-5.8,1.3-7,1.9-7.1,2.4s0.8,0.8-0.6,1.1c-2.5,0.5-4.7,1.2-6.9,1.1c0.4-0.1,0.8-0.2,1.2-0.4c-3.5,0.5-4.1,0.6-4.5,0.8
		c-0.4,0.1-0.8,0.3-4,0.3c-2.5,0.1-1.4,0.2-0.1,0.2c1.4,0,3,0,1.3,0.2c-1.7,0-2.8,0-3.7,0.1s-1.6,0.2-2.3,0.2
		c-1.6,0.1-3.6,0.2-8.9-1.2c0.3,0,0.1-0.3,0.6-0.3c0.5-0.1,1.7,0.1,4.8,0.5c-1.9-0.5-3.8-1-5.8-1.6c3.7,0.7,4.3,0.7,5,0.8
		c0.7,0.1,1.4,0.3,4.8,0.6c1.7-0.2,2.3-0.5,2.9-0.7c0.6-0.2,1.1-0.4,2.6-0.7c-1.3,0.1-1.8,0.3-2.5,0.4s-1.5,0.3-3.4,0
		c-4.5-0.6,0.8-0.2,1.2-0.4c-3,0.1-4.6-0.3-6.2-0.8c-1.6-0.5-3.1-1-6.4-1.4c0.9,1-0.3,0.7,3.8,2.1c-2.1-0.3-4.6-1-6.5-1.6
		s-3.3-1.2-2.9-1.4l-1.3,0.4c-1.1-0.4-5.2-1-5.4-1.1l-1.8,0.1c3.6,0.8,6.8,1.5,12.6,2.6c-2.6-0.1,2.8,1.6-4.9,0.1
		c-3.4-0.7-0.3-0.4-0.4-0.6c-2.3-0.4-4.3-0.6-6.1-0.9c-1.8-0.2-3.4-0.4-4.8-0.5s-2.7-0.2-3.9-0.3c-1.2-0.1-2.3-0.2-3.3-0.2
		c-4.2-0.2-8-0.4-15.1,0.6c3.5-0.7,12.4-1.1,19.7-1.1c-4.3-0.7-9.3,0.1-13.4,0.3c3.6-0.5,4.3-0.7-0.1-0.7c-0.6,0.2-1.2,0.3-1.7,0.5
		c-2.6,0.2-7.1,0.8-7.5,0.7c-0.1,0.1,1.1,0.1,3.4-0.1c-3.1,0.6-7.6,1.4-12.5,2.4S83.3,443,78,444.1c2.9-0.6,6.3-1.9,9.3-2.8
		c-11.6,1.5-22.8,0.8-34.3,4.2c-6.1,1.8-12.1,4.2-18.4,5.1c-8.3,1.2-27.4,0-29.4,12c-0.7,4.2,2.1,8,4.7,11.3
		c2.8,3.6,5.7,7.2,9.5,9.7c4.7,3.2,10.5,4.4,15.3,7.6c3.8,2.6,6.7,6.3,10.3,9.2C50.2,505.2,55.4,504.9,62.1,504.8z M194.5,436.3
		l-4.5,1C191.7,436.8,193.4,436.4,194.5,436.3z M113.8,498.3c-1.1,0.2-2.7,0.5-4.1,0.7c-1.3,0.1-1.6,0-1.5,0
		C110,498.8,111.9,498.5,113.8,498.3z M36.5,478.6c-0.1-0.2-0.2-0.4-0.3-0.7C36.3,478.1,36.4,478.3,36.5,478.6z M173.7,493.7
		c-1.8,0.2-1.6,1-8.8,1.1c-0.1-0.1,0.5-0.2,1.2-0.2c-3.3,0.2-3.8,0.1-7.4,0.2c-1.2-0.5,4.4-0.7,6.7-1.2c-2.3,0.2-4.9,0.7-7.4,0.8
		l0.6-0.2c-2.5,0.2-5.1,0.5-7.6,0.8c-3.1,0.7,5.8-0.5,6.3-0.2l-4.8,0.8c-5.6,0.6-20.4,2.6-25.6,2.5c-6.5,0.6-3.6,0.8-5.1,1.4
		c-3.8,1-7.6,0.8-11.4,1.5c0.2,0.4-4.4,0.9-4.4,1.5l-6.4,0.6c-3.4,1.2,7.7-0.7,9.4-0.5c3.5,0.3-4.6,0.8-2.4,0.9
		c4.9-0.6,5.1-1.1,7.5-1.5c2.8-0.4,4.3-0.4,4.3-0.1c-7.9,0.7-4.1,1.1-10.5,1.8l-0.2-0.1c0,0.6-9.3,1.3-12.7,1.8
		c-7.2,0,5.6-1.3,5.3-1.5c-2.8,0.3-5.7,0.7-8.6,1c3.7-0.7-0.1-0.7,4.8-1.5c-5.2,0.7-5.9,0.2-10.9,0.9c5.6-1.2-7.1-0.2-7.8-0.8
		c5.5-0.3,15.2-0.4,15.8-0.3c0.8-0.2,7.1-0.7,9.7-0.8l3.9-1.2c-4.6,0.5-10.8,1.4-9.1,0.7c-2.1,0.3-4.1,0.6-6.2,0.9
		c6.3-1.5,6-1.5,11.7-2.5c-12,0.5-21.2,2.8-31.2,2.2l1.6-0.1c-4.9,0.1-9-0.1-12.2-0.8c-3.2-0.6-5.4-1.6-7-2.6
		c-0.1,0-0.1-0.1-0.2-0.1c0.3,0.1,0.6,0.3,0.9,0.4c5.5,2.4,12.4,2.6,18.9,2.5c10.5-0.2,20.9-1.1,31.2-2.3l-1.2,0.5
		c0.3,0,0.4-0.1,0.7-0.1c11.9-1.7,1.2,0.7,13.4-1.2c-0.5,0.1-0.7,0.2-0.9,0.3c4.9-0.9,14.1-1.8,15.1-2.5c-1.2,0.2-5.8,0.6-8,0.7
		c5.2-0.7,10.4-1.4,15.6-2c1.1,0,2.2-0.1,3.4-0.2l0,0l0,0c1.2-0.1,2.5-0.3,4.2-0.6c0.4-0.1,0.7-0.1,0.9-0.2
		c6.2-0.6,12.5-1.1,18.7-1.4C166.6,493.1,181,492.8,173.7,493.7z M193.2,493.4c-7.4-0.3-2.2-0.3-7.5-0.7c-0.3-0.1-0.1-0.2,0.3-0.3
		c5.5,0.1,11.1,0.4,16.6,0.8C197.9,493.1,192.9,492.8,193.2,493.4z M215.6,494.9c-2.5-0.3-9.7-0.7-10.2-1.2c3.5,0.3,4.5,0.3,4.1,0.2
		c3.6,0.3,7.2,0.6,10.8,1c0.1,0.1,0.4,0.2,0.9,0.3C219.6,495,217.1,494.9,215.6,494.9z M308.4,502.5c-6.4,0.1,0.3-0.4-2.9-0.6
		c-4.9,0.8-6.2-0.6-11.4,0.3c-6.2,0.1-4.3-0.4-6.2-0.7c6.2,0.1-2.9-0.6,4.9-0.7c-3.1-0.2-4.3-0.1-5.3,0.1s-1.9,0.3-4.6,0.1l-0.8-0.7
		c-2.4-0.2-6.2-0.4-10.2-0.7c-4-0.3-8.2-0.6-11.5-0.6c5.4,0.8-3.3,0.2-2.4,0.6c1.1-0.5,8.5,0.5,8.4,0.7c-3.9-0.1-12.9-0.8-16.5-1.2
		l7.1,1c-3,0.1-13.5-0.3-13.8-0.2c-3.2-0.6-8-1-9.6-1.5l6.1,0.1l2,0.6l3.6-0.2c-3.8-0.6-11.9-1.8-13.6-2.4
		c6.1,0.6,14.4,1.4,24.5,1.8c5.7,0.5,11.5,0.9,17.3,1.2c13.8,0.7,27.5,0.7,41.3,0.2c-0.1,0-0.2,0-0.3,0c-1.6,0.3-3.5,0.5-5.7,0.7
		c1.3-0.1,2.8-0.1,4.8,0c-3.7,0.5-7.4,1-11.1,1.4c2.8,0.1,4.4-0.2,6.2-0.4c1.8-0.3,3.7-0.5,7.1-0.6
		C315.3,501.5,315.8,501.8,308.4,502.5z M499.8,480.8c4.8,0,9.6,0.1,14.4,0h-0.1l4.7,0.4c-1.8,0.1-3.6,0.3-5.4,0.4L499.8,480.8z
		 M170.4,446.9c1.5-0.1,2,0.1,2.4,0.2c-1.2,0.1-2.4,0.3-3.6,0.4L170.4,446.9z M126.4,441.9c0.3-0.3,2.3-0.4,4.6-0.3
		c2.3,0.1,4.8,0.3,6,0.2c1,0.1,3.6,0.6,5.7,1.1c2.1,0.5,3.6,1,2.6,1c-2.8-0.8-4.3-0.8-5.7-0.8s-2.6-0.2-5.3-1c-1,0.3,0.4,0.6,2.5,1
		c-0.8-0.1-1.2,0-1.3,0.1c-1.1-0.2-2.1-0.3-3.2-0.5c-1-0.1-2-0.2-3-0.3C127.5,442.2,125.9,442.1,126.4,441.9z M118.6,441.9l-1.8,0.1
		c-7,0.2-11.4,1-13.9,1.4c-2.4,0.4-3,0.7-2.3,0.8c-1.6,0.2-3.2,0.5-4.9,0.8c2.8-0.8,5.5-1.5,7.1-1.9
		C108.6,442.2,114.9,441.8,118.6,441.9z M82.7,446.7c-0.3,0.2,0,0.2,0.8,0.1c-1.8,0.4-3.6,0.9-5.4,1.3
		C78.7,447.8,77.4,447.7,82.7,446.7z M32.7,472.3c0-1,0.4-2,0.7-2.8c0.6-1.4,1.3-2.3,1.5-2.4c-0.2-0.5,0.8-2.5,2.8-4.6
		c2.2-2.3,5.5-4.3,7.2-5.5c4.6-2.5,6.5-2.7,8.1-3.2c1.7-0.3,3.1-0.7,7.5-2.3c-1.2,0.2-2.3,0.4-3.5,0.6c3.9-1.4,6.8-2.3,9.8-3.1
		c3-0.8,6.2-1.5,10.7-2.4c1.3,0.3-4.2,0.8-6.1,1.6l4.5-0.5c-1.9,0.5-5.5,1.8-5.6,1.3c0,0.3-2.8,1.4,2.8-0.2l-4.1,1.4
		c0.3,0,0.6,0,1-0.1c-1.2,0.3-2.5,0.7-3.8,1c-1.7,0.3-4.5,1.1-7.2,1.5c-0.3-0.1,2.3-1,3.8-1.5c-3.9,0.9-7.2,2.2-9.2,3.1
		c2.9-1,3.7-1.2,3.9-1.1s-0.2,0.4,0.6,0.4c-1.7,0.7-4,1.5-6,2.4s-3.8,1.8-4.7,2.3c-1.1,0.5-2.2,1.1-3.1,1.5c-1,0.4-1.7,0.9-2.3,1.2
		c-1.2,0.6-1.6,0.5-0.5-0.6c-2.3,2-4.8,4.1-5.6,6.8c0.5-1.2,1-1.8,1.2-2c0.3-0.3,0.6-0.2,0.8-0.3c0.2,0,0.5-0.1,0.9-0.5
		c0.2-0.2,0.5-0.5,0.8-0.9c0.4-0.4,0.8-0.9,1.4-1.5c0.5-0.2,0.6-0.1,0.5,0.1c-2.1,1.7-3.8,3.6-4.9,5.8c-0.4,0.6-0.7,1.1-0.9,1.6
		c0.5-1.6-0.4-0.3-0.5-0.8c-0.3,0.6-0.3,1.1-0.3,1.5s0,0.7,0,0.9c0,0.4,0.2,0.5,0.3,0.3c0.2-0.1,0.3-0.4,0.5-0.8
		c-0.1,0.4-0.2,0.7-0.3,1.1c-0.3,2.1,0,4.1,0.7,6c0.1,1,0.4,1.9,0.7,2.9c-0.8-1.4-1.5-2.8-1.9-4.3c-0.1,1,0.3,2.2,0.9,3.5
		c0.7,1.2,1.5,2.5,2.2,3.5c0.6,1.2-0.5,0-1.9-2c-1.4-2-2.7-4.9-3.3-6.4C32.7,474.2,32.6,473.3,32.7,472.3z"/>
	<g>
		<path class="st2" d="M661.5,281.9c-22,0.4-592.7-4.7-595.5-4.3c-4.5,0.6-3.4,0.1-3.7,4.4c-0.2,2.2-1.8,135.6-1.1,161.2
			c0.2,7,0.7,5.5,10.3,5.5c8.5,0,93.5,1.7,195.2,2.9c167.4,1.9,381.5,3.6,385,3.3c3.6-0.2,9.7,0.6,10.3-4c0.3-2.4,0.1-4.9,0.2-7.3
			c0-2.8-0.9-130.6-0.5-153.2c0-2.7,0.1-5.5,0.1-8.2C661.8,282,661.6,281.9,661.5,281.9z"/>
		<path class="st3" d="M654.4,296.2c-59.2,0-118.5-0.2-177.8-0.5c-46.4-0.2-132.4-0.7-258-2.2c-48.5-0.6-97-1.2-145.6-2
			c-0.4,0-0.4,0.6,0.1,0.6c86.5,1.4,172.9,2.4,259.4,3.2c86,0.8,172,1.2,257.9,1.4c21.3,0,42.6,0.1,63.9,0.1
			C654.4,296.6,654.4,296.4,654.4,296.2z"/>
		<path class="st3" d="M654.4,303.7c-59.2,0-118.5-0.2-177.8-0.5c-86-0.4-172-1.2-258-2.2c-48.5-0.6-97-1.2-145.6-2
			c-0.4,0-0.4,0.6,0.1,0.6c86.5,1.4,172.9,2.4,259.4,3.2c125.5,1.1,211.5,1.3,257.9,1.4c21.3,0,42.6,0.1,63.9,0.1
			C654.4,304.1,654.4,303.9,654.4,303.7z"/>
	</g>
	<polygon class="st4" points="148.4,367.5 158.5,455.3 155.3,454.8 139.2,368.1 	"/>
	<g>
		<g>
			<g>
				<g>
					<path class="st5" d="M174.5,356.8c0,0,0.3,18.5,1,28c0.4,5.9-1.5,62.8-1.5,62.8s3.8,11,13.9,2.3c0,0,9.8-42.8,10.7-47.8
						c1.5-8.6-0.6-36.4-0.6-39.2C198,360.1,183.1,343.5,174.5,356.8z"/>
				</g>
			</g>
		</g>
		<g>
			<g>
				<g>
					<path class="st6" d="M174,447.6c0,0-19,9.1-24,10.6s-16,2.7-16.7,4s0.5,5.1,7.8,6.7s26.5-0.5,29.3-0.6s19.1,1,19.1-0.3
						s-1.2-18.2-2-19.6C186.8,447,179,444.4,174,447.6z"/>
				</g>
			</g>
		</g>
		<g>
			<g>
				<g>
					<g>
						<path class="st7" d="M171.6,441.4c-0.5,0.2-15.6,13.3-22.7,15.7c-7.1,2.5-11.1,1-14.2,3.1c-3.1,2.1-2.5,5.2-2.5,5.2
							s16.6,4.8,28.9,4.6c12.2-0.2,15.6-5,19.5-5.5c3.9-0.6,9.5,0.6,10.3-0.7c0.7-1.3,0.3-16.6-0.8-19.4c-1.2-2.8-4.3,2.7-6.9,4.4
							C180.7,450.5,178.9,439,171.6,441.4z"/>
					</g>
				</g>
			</g>
			<g>
				<g>
					<g>
						<path class="st8" d="M191.2,453.6c0,0-8.1,4.2-9.5,5.5c-1.5,1.4-5.2,6.9-5.6,7.3c-0.4,0.4,15.8-1.8,15.8-1.8
							S192.5,458.5,191.2,453.6z"/>
					</g>
				</g>
			</g>
			<g>
				<g>
					<g>
						<path class="st9" d="M193.2,469.3c0,0,0.8-3.9-0.8-7.5s-16.2,5.7-30,7.2s-26.6-3.9-26.6-3.9s-1.1,2.9,1.3,4.6
							c2.4,1.8,11.2,2.7,16.9,3.2C159.6,473.5,193.2,469.3,193.2,469.3z"/>
					</g>
				</g>
			</g>
			<g>
				<g>
					<g>
						<path class="st8" d="M132.3,462.7c0,0,1.7-2.4,4.3,1.4s4.6,4.9,10.9,6.2c6.3,1.3,10.1,1.8,17.5,1.1c7.4-0.8,20.1-1.4,23-1.9
							s5.3-0.6,5.3-0.6l-0.1,1.9c0,0-9.8,1.3-19.2,2c-9.4,0.6-40,2.9-42.3-6.5C131.2,464.5,132.3,462.7,132.3,462.7z"/>
					</g>
				</g>
			</g>
			<g>
				<g>
					<g>
						<path class="st8" d="M183.2,448.8c0,0,2.7,2.5,3.8,3.4s4.1-0.2,4.1-0.2s1-8.8-2-8.4C187.4,443.8,183.2,448.8,183.2,448.8z"/>
					</g>
				</g>
			</g>
			<g>
				<g>
					<g>
						<path class="st7" d="M160.5,456.4c0,0,9.8-8.1,13.4-9.4c3.6-1.3,5.9-7,6-8s-3.3-4.6-10.4-4.3c-7,0.4-2.5,8-3.3,10
							c-0.7,2-3.9,4-7.2,6.4s-4.3,3.6-4,3.8C155.4,455.1,160.5,456.4,160.5,456.4z"/>
					</g>
				</g>
			</g>
			<g>
				<g>
					<g>
						<path class="st8" d="M149.3,457.1c0,0,5.4-0.3,7,1.2s7.5,6,10.9,7.5s5.3,1,5.3,1s-5-0.8-7.8-5.2c-2.9-4.4-7-8.4-8.2-8.7
							C155.2,452.6,149.3,457.1,149.3,457.1z"/>
					</g>
				</g>
			</g>
			<g>
				<g>
					<g>
						<path class="st9" d="M168.2,451.2c-1.5-0.9-3-1.6-4.7-2.1c-1.2-0.3-2.8-0.8-3.9-0.1c-0.9,0.6-0.1,2,0.7,1.4
							c0.9-0.6,2.8,0.2,3.7,0.5c1.2,0.4,2.2,0.9,3.3,1.6C168.2,453.1,169.1,451.7,168.2,451.2z"/>
					</g>
				</g>
			</g>
			<g>
				<g>
					<g>
						<path class="st9" d="M173.9,447c-1.5-1-3.2-1.7-5-2c-1.3-0.2-3-0.6-3.9,0.5c-0.7,0.8,0.7,1.7,1.3,0.9c0.4-0.5,3,0.3,3.5,0.5
							c1.1,0.3,2.1,0.8,3.1,1.5C173.9,448.9,174.8,447.6,173.9,447z"/>
					</g>
				</g>
			</g>
		</g>
	</g>
	<ellipse class="st10" cx="245.9" cy="465.7" rx="37.1" ry="10.5"/>
	<path class="st10" d="M283,458.8c0.3,1.8,0.4,1.8-0.1,7.2c-6.4,3.2-23.2,4-37,4c-20.5,0-37.1-4.7-37.1-10.5s16.6-10.5,37.1-10.5
		S282.1,453,283,458.8z"/>
	<ellipse class="st11" cx="245.9" cy="458.6" rx="37.1" ry="10.5"/>
	<path class="st12" d="M247.4,462.8L247.4,462.8c-6.9,0-12.5-3.6-12.5-10.5v-43.6H260v43.6C259.9,459.2,254.3,462.8,247.4,462.8z"/>
	<g>
		<g>
			<g>
				<g>
					<path class="st5" d="M202.1,361.2c0,0,0.3,19.9,1,30.3c0.5,6.3-1.6,67.8-1.6,67.8s4.1,11.9,15,2.5c0,0,10.6-46.2,11.5-51.7
						c1.6-9.3-0.6-39.4-0.7-42.3C227.5,364.7,211.4,346.8,202.1,361.2z"/>
				</g>
			</g>
		</g>
		<g>
			<g>
				<g>
					<path class="st6" d="M201.6,459.3c0,0-20.5,9.8-25.9,11.4c-5.3,1.6-17.3,2.9-18.1,4.3s0.6,5.5,8.5,7.3
						c7.9,1.7,28.7-0.5,31.7-0.6s20.6,1.1,20.6-0.3s-1.3-19.6-2.2-21.2C215.4,458.6,207,455.8,201.6,459.3z"/>
				</g>
			</g>
		</g>
		<g>
			<g>
				<g>
					<g>
						<path class="st7" d="M199,452.5c-0.6,0.2-16.8,14.3-24.5,17s-12,1.1-15.3,3.4s-2.7,5.6-2.7,5.6s18,5.2,31.2,4.9
							c13.2-0.2,16.9-5.4,21.1-6c4.2-0.6,10.3,0.6,11.1-0.8s0.4-18-0.9-20.9c-1.3-3-4.7,2.9-7.4,4.8
							C208.8,462.4,206.8,450,199,452.5z"/>
					</g>
				</g>
			</g>
			<g>
				<g>
					<g>
						<path class="st8" d="M220.2,465.7c0,0-8.7,4.5-10.3,6s-5.6,7.4-6,7.9c-0.5,0.4,17.1-1.9,17.1-1.9S221.6,471,220.2,465.7z"/>
					</g>
				</g>
			</g>
			<g>
				<g>
					<g>
						<path class="st9" d="M222.3,482.7c0,0,0.9-4.2-0.9-8.1c-1.7-3.9-17.5,6.1-32.4,7.8c-14.9,1.6-28.8-4.2-28.8-4.2
							s-1.2,3.1,1.4,5c2.6,1.9,12.1,2.9,18.2,3.4C186,487.2,222.3,482.7,222.3,482.7z"/>
					</g>
				</g>
			</g>
			<g>
				<g>
					<g>
						<path class="st8" d="M156.6,475.6c0,0,1.9-2.6,4.7,1.5s4.9,5.3,11.8,6.7c6.8,1.4,10.9,2,18.9,1.2s21.7-1.5,24.8-2.1
							s5.7-0.6,5.7-0.6l-0.1,2c0,0-10.5,1.4-20.7,2.1s-43.2,3.1-45.7-7C155.4,477.5,156.6,475.6,156.6,475.6z"/>
					</g>
				</g>
			</g>
			<g>
				<g>
					<g>
						<path class="st8" d="M211.6,460.6c0,0,2.9,2.8,4.1,3.7c1.1,0.9,4.4-0.2,4.4-0.2s1.1-9.5-2.2-9.1
							C216.1,455.2,211.6,460.6,211.6,460.6z"/>
					</g>
				</g>
			</g>
			<g>
				<g>
					<g>
						<path class="st7" d="M187,468.7c0,0,10.6-8.7,14.5-10.1s6.4-7.6,6.5-8.6c0.1-1.1-3.6-5-11.2-4.6c-7.6,0.4-2.7,8.6-3.5,10.8
							c-0.8,2.2-4.2,4.3-7.8,6.9s-4.6,3.9-4.3,4.1S187,468.7,187,468.7z"/>
					</g>
				</g>
			</g>
			<g>
				<g>
					<g>
						<path class="st8" d="M174.9,469.6c0,0,5.8-0.3,7.5,1.3c1.7,1.6,8.1,6.5,11.8,8.1s5.7,1.1,5.7,1.1s-5.4-0.9-8.4-5.6
							c-3.1-4.8-7.6-9.1-8.9-9.4C181.3,464.7,174.9,469.6,174.9,469.6z"/>
					</g>
				</g>
			</g>
			<g>
				<g>
					<g>
						<path class="st9" d="M195.3,463.1c-1.6-1-3.3-1.8-5.1-2.2c-1.3-0.3-3-0.9-4.2-0.1c-0.9,0.6-0.1,2.2,0.8,1.6c1-0.7,3,0.2,4,0.5
							c1.3,0.4,2.4,1,3.5,1.7C195.3,465.2,196.2,463.7,195.3,463.1z"/>
					</g>
				</g>
			</g>
			<g>
				<g>
					<g>
						<path class="st9" d="M201.5,458.6c-1.7-1.1-3.4-1.8-5.4-2.1c-1.4-0.2-3.2-0.6-4.2,0.6c-0.7,0.9,0.7,1.8,1.4,1
							c0.4-0.5,3.3,0.3,3.8,0.5c1.2,0.4,2.3,0.9,3.4,1.6C201.5,460.7,202.5,459.2,201.5,458.6z"/>
					</g>
				</g>
			</g>
		</g>
	</g>
	<g>
		<g>
			<path class="st13" d="M327.2,45.9c-0.3-0.7-0.9-1.5-1.4-2.1c0.3-0.1,0.5-0.4,0.3-0.7c-1.2-1.8-3.3-2.9-5.3-1.6
				c-2.5,1.8-2,4.8-0.8,7.2c1.4,2.8,3.7,5.1,6.4,6.5c2.1,1,3.5,0.1,3.2-2.2C329.5,50.7,328.2,48.2,327.2,45.9z"/>
		</g>
		<g>
			<path class="st5" d="M337.2,81.5c-7.3,3.7-15,4.3-22.6,7c-5.2,1.8-13.6,8.7-13.6,14.7c0,3,1.7,5.6,3.2,8.2
				c11.7,19.9,27.4,41.9,29.6,64.9c1,10.7-10.3,23.1-6,33c0.1,0.2,0.2,0.3,0.2,0.5c8.7,19.4,27.5,21.9,46.6,21.7
				c14-0.1,35.6-0.9,45.9-12.1c2-2.2,6.5-10.5,5.1-17.7c-2.2-10.8-5-28.5-9.6-40c3.8-23.7,0.7-46.6-2.9-70
				c-11.9-8.1-28.7-12.2-42-12.5C357.9,78.9,349.6,82.5,337.2,81.5z"/>
		</g>
		<path class="st14" d="M357.1,443.8c-0.1-3.1,1.4-7.3-0.5-9.9s-5.7-1.7-8.4-1.7c-4.3,0.1-9.7-1.8-13.5,0.4
			c-3.8,2.2-0.5,7.2-1.7,10.9c-0.4,1.4,0,3.5-1.5,5.4c-2.8,3.4-11.4,6.4-14.4,8.5c-3.4,2.3-0.7,2.7-3,4.8c-1.2,1.1-4.1,1.6-4.3,3.8
			c-0.3,3.7-4.3,5,1.1,8.7s19.8,0.5,27.3-0.7c4.9-0.8,12,1.5,16.4-1.3c3.6-2.3,2.8-5.6,3-9.1c0.3-5.3-0.1-10.2-0.4-15.6
			C357.1,447,357.1,444.9,357.1,443.8z"/>
		<path class="st7" d="M359.3,473.5c-0.8-0.5-2.1-0.5-2.9-0.5c-1.5-0.1-2.8-0.2-4.2-0.3c-3.4-0.2-6.7-0.3-10.1-0.3
			c-2.2,0-4.4,0-6.7,0.1c-0.2,0-2.4,0.2-2.4,0.1c-1.8-3.1-3.5-6.1-5.3-9c-1.6-2.4-5.5-7.7-7.8-7.9c-6.1-0.7-8.7,1.7-13.7,4
			c-3.6,1.7-7.5,4.1-10,7.5c-1.5,2.1-3.5,5.2-1.4,7.8c3,3.7,6.3,3.7,11.6,3.8c11.4,0.2,28.1-1.3,38.7-1.7c6.8-0.3,8,0.2,13.3-0.4
			c2.5-0.3,1-1.5,1.3-3C359.6,473.6,359.4,473.6,359.3,473.5z"/>
		<path class="st14" d="M430.7,448.7c-0.5-3.2,0.5-7.8-1.8-10.2c-2.3-2.5-6.1-1.1-8.9-0.7c-4.4,0.7-10.3-0.6-13.9,2.1
			s0.4,7.5-0.4,11.5c-0.3,1.5,0.4,3.7-0.9,5.8c-2.4,3.8-11,8.1-13.9,10.6c-3.2,2.9-0.4,2.9-2.5,5.4c-1.1,1.3-4.1,2.2-4,4.5
			c0.2,3.9-3.9,5.7,2.3,8.9c6.1,3.1,20.7-2,28.2-4.1c5-1.4,12.6,0.1,16.8-3.4c3.4-2.8,2.2-6.2,1.9-9.9c-0.3-5.6-1.4-10.6-2.4-16.2
			C431.1,451.9,430.9,449.8,430.7,448.7z"/>
		<path class="st7" d="M436.7,479.2c-0.9-0.4-2.2-0.2-3.1-0.2c-1.6,0.1-2.9,0.1-4.4,0.2c-3.6,0.3-7,0.5-10.5,1c-2.3,0.3-4.6,0.6-7,1
			c-0.2,0-2.4,0.5-2.5,0.4c-2.2-3-4.4-5.9-6.7-8.6c-1.9-2.3-6.7-7.3-9.2-7.3c-6.4,0.1-8.8,2.9-13.8,5.9c-3.6,2.2-7.3,5.2-9.4,9.1
			c-1.3,2.4-3,5.8-0.5,8.2c3.5,3.5,7,3.1,12.5,2.5c11.8-1.3,29-4.9,40-6.7c7-1.1,8.3-0.8,13.7-2.1c2.6-0.6,0.9-1.7,1-3.3
			C437.1,479.3,436.9,479.3,436.7,479.2z"/>
		<g>
			<g>
				<g>
					<g>
						<path class="st5" d="M335.7,67.5c0.7,7.1,0.8,14.2,1.3,21.3c14.1,2.5,25.9,1.4,38.9-4.8c-1.9-7.3-3.7-14.6-5.6-21.9
							C358.7,64,347.2,65.9,335.7,67.5z"/>
					</g>
				</g>
			</g>
		</g>
		<path class="st15" d="M373.5,75.4c-1.5,1.7-2.7,3.2-4.5,4.5c-1.8,1.4-3.6,2.6-5.9,3.3c-2.3,0.8-4.9,1.2-7.4,1.2
			c-3.5,0.1-7.1,0.1-10.5-0.8c-3.5-0.8-6.2-2.6-8.5-5.4c-0.1-0.1-0.2-0.3-0.3-0.4c-0.1-0.1,0,0,0,0c-1.7-2.6-0.8-5.1-0.5-8
			c0.1-0.5,0.2-0.6,0.3-1c0.1-0.4,0.3-0.9,0.5-1.4c11.2-1.6,22.4-3.4,33.6-5.3C371.4,66.5,372.5,71,373.5,75.4z"/>
		<path class="st5" d="M324.8,44L324.8,44c0.6,1.7,0.8,3.1,1.5,4.8c1.4,3.6,2.3,6.3,3.9,10.2c1.8,4.3,1.3,7.4,5.3,12.1
			c2.4,2.9,11.5,9.3,16.5,8.5c8.8-1.4,13.8-5.5,18.3-12.3c3-4.5,1.9-7.5,2.6-12.5c0.6-5-0.3-10.4-0.6-15.7c-0.3-4.3-1.1-9-1.8-13.4
			c-0.4-2.7-1.1-5.5-2.9-7.7c-0.4-0.5-1.1,0.1-0.7,0.6c0.8,1.4,1.4,2.8,1.8,4.4c-1.3-3.1-1.9-6.2-5-7.8c-2.5-1.3-2.6-4.4-5.7-4.1
			c-1.7-0.7-3.6-0.7-5.3-0.5c-4.5,0.6-8.6,1.7-12.8,3.2c-1.9,0.7-3.7,1.6-5.6,2.3c-2.5,1-5.1,1.6-7.5,2.8c-1.5,0.8-2.6,1.9-3.7,3.2
			c-0.8,1-1.5,2-1.9,3.2c-0.8,2.6-0.7,5.1-0.3,7.8c0.3,2.2,0.7,4.3,1.5,6.4C322.9,41.1,324.1,42.4,324.8,44z"/>
		<path class="st13" d="M378.6,35c-0.1-0.5-0.4-0.9-0.7-1.4c-0.9-1.3-2-2.1-3.6-2.2c-0.7,0-1.4,0.4-1.8,0.8
			c-0.5,0.4-0.9,0.6-1.3,1.1c-0.3,0.5-0.4,1.1-0.4,1.7c0,1.9,0.2,3.8,0.3,5.7c0,0.8,0.1,1.5,0.1,2.4s0.1,2.2,0.1,3.1
			c0,0.9,0.1,1.7,0.2,2.6c0,0.3,0.1,0.6,0.4,0.8c0.3,0.1,0.6,0,0.8-0.2c2.1-1.8,3.9-3.4,4.9-6.1C378.8,40.5,379.2,37.9,378.6,35z"/>
		<path class="st16" d="M341.2,34.3c-2.2-1.6-4.6-1-6.9-0.1c-2.3,1-4.9,1.7-5.6,4.3c-0.3,1.1-0.4,2,2.3,1.3c1.2-0.3,8-2.2,9.9-3.6
			C341.3,35.9,341.9,34.8,341.2,34.3z"/>
		<path class="st16" d="M352.9,32c1.7-2.1,4-2.3,6.5-2.1c2.5,0.3,5.2,0.1,6.7,2.4c0.6,0.9,1.1,1.9-1.8,1.9c-1.2,0-8.2,0-10.5-0.6
			C353.4,33.7,352.3,32.7,352.9,32z"/>
		<g>
			<path class="st5" d="M277.4,229.2c3.1-6.5-5.5-8.7-11.6-3.5c-1.7,1.4-9.3,9.8-11.3,13.7c-2,3.9-2.6,13.4-1.9,16.7
				c0.7,3.3,0.9,3.9,2.9,1.5c3.6-4.5,1.6-9.9,6.1-16.3C263.5,238.4,274.9,234.5,277.4,229.2z"/>
		</g>
		<g>
			<path class="st6" d="M412.3,221.8c-1.1,8,5.1,18.1-2.1,29.3c-6.5,10.1-29.1,16.6-44.9,13.8c-7.4-1.3-30-7.5-29.1-19.6
				c1.5-20-0.5-31,19-41c15.5-7.9,33.6-7,50.2,0.5C409.7,206.7,413.4,213.7,412.3,221.8z"/>
		</g>
		<g>
			<path class="st6" d="M332.8,242.9c-15.2,22.8-6.4,65.5-8,82.2c-2.6,27.8,2.3,16.5,13.3,25.4c10.9,8.8,14-0.6,20.6-6.4
				c10.5-9.2,11.8-69.1,13.3-77.5C377.7,235.4,336.2,237.7,332.8,242.9z"/>
		</g>
		<g>
			<path class="st6" d="M358.1,342c1.7,15.8,2.3,29.9-1.4,45.3c-3.1,12.9-4.2,28.9-6.1,41s-6.5,5.5-13,2.9
				c-6-17.4-12.7-39.8-14.3-56.8c-1-10.4-1.5-28.9,1.2-33.5C335.8,322.4,348.6,330.1,358.1,342z"/>
		</g>
		<path class="st6" d="M417.8,231.7c19.5,22.1,6.5,67,7.2,84.9c1.2,29.9-0.9,19.8-13.1,31.4c-12.1,11.6-14.9,0.4-22.7-8
			c-12.4-13.3-10.1-66.6-12-75.5C370.1,231.2,413.4,226.7,417.8,231.7z"/>
		<path class="st6" d="M389.9,338.2c-0.7,18.8,0.8,37.7,6,55.3c4.3,14.7,8.3,32.4,13.3,45.4s7.6,5,14.1,0.7
			c1-19.9,5.6-42.5,6.9-61.6c0.8-11.7-2.1-37.7-5.3-43.3C411.7,312.1,399.3,324.3,389.9,338.2z"/>
		<g>
			<path class="st17" d="M333,223.5c28.9-0.7,57.9-0.7,86.8-3.3c2.5,10.2,3.3,20.1,2.3,30.6c-16.6,1.2-30.5,6.2-44.9,14.4
				c-1.5,0-3,0-4.5,0C359,258,346,252,330.5,250C330.4,241.1,331.5,232.3,333,223.5z"/>
		</g>
		<g>
			<path class="st13" d="M319.9,96.6c-10.8,7.1-16.8,15.1-23.9,27.1c-4,6.9-45.5,71.2-48.6,75.9c-1.7,2.5-4.3,5.5-5.3,8.2
				c-1.3,3.6,1.6,11.1,6.3,10c7-1.6,55.7-57.1,61.7-63.9c5.5-6.3,11.8-13.4,14.8-21.3C329.2,121,343.7,101.5,319.9,96.6z"/>
		</g>
		<g>
			<path class="st5" d="M423.4,153.1c4.6,3.6,9.2,7.2,13.2,11.4c2.8,3,7.5,7.2,7.2,11.8c-0.3,4.8-2.1,9.2,2.6,12.8
				c6,4.5,15.5-5.6,18.4-10.3c2.5-4.1,3.7-7.9,2.6-12.6c-1.3-5.7-4.6-10.7-7.4-15.8c-1.6-2.8-3.8-5.3-5.8-7.9
				c-2.5-3.3-5.4-6.2-7.8-9.5c-4-5.3-9.1-10.1-12.2-16c-7-13.3-19-31.5-31.5-30.1c-32.4,3.6-6.9,27.4-0.4,38.8
				C407.6,134.9,415.1,146.7,423.4,153.1z"/>
		</g>
		<g>
			<path class="st18" d="M328.5,221.2c-0.6,10-5,19.4-5.2,29.4c-0.3,10-3.2,17.4,2.1,27.6s35.1,7.7,43.5,8.5
				c11.6,1.2,24.3-1.2,35.7-3.6c12.4-2.6,20.6-5.1,23.8-18.5c2.6-11,2.7-22.6,0.3-33.7c-0.7-3.5-2.2-12.8-5.4-14.2
				c-2-0.8-7.6,0.9-9.9,1.1c-3.1,0.3-6.1,0.6-9.2,0.9C397.9,219.3,328.4,222.4,328.5,221.2z"/>
		</g>
		<g>
			<path class="st18" d="M321.4,342c-0.8,6.1-0.7,8.8,0.4,15.3c4,22.7,3,47.1,7.9,70.3c0.7,3.2,2,6.5,5.3,7.6c2.9,1,6.1,1.3,9.1,1.1
				c4-0.3,7.8-0.1,11.5-2c3.2-1.7,3.9-5.2,4.2-8.6c0.5-6.3,1.6-12.4,2-18.8c0.5-8.9,2.9-17.1,1.5-26.2c-1.2-7.6,0.3-11.6-4.7-20
				c-5.7-9.8-26.6-17.6-36.3-5.6c-1.1,1.3-0.3,3.9-0.1,6c0.5,5.6-0.6,11.3,0,17.3c1.2,13.9,5.7,27.6,8.7,41.3
				c0.9,4.2,1.3,8.6,2.6,12.8c0.3,0.9,0.8,1.8,1.7,2.3c0.2,0.1,0.3,0.1,0.5,0.2"/>
		</g>
		<path class="st18" d="M369.5,273.6c-1.1-14.9-36.8-34.6-46.9-8.6c-2.1,18.1-3.1,38.6-2.8,57.3c0.1,5.5,1.2,14,1.2,17.6
			c0.1,3.6-0.3,0.7,0,1.4c-0.9,1.6-1.5,5-0.4,6.5s1.4,1.4,0.7,2.8c-0.7,1.5-1.1,1.4,0.4,2.6c1.6,1.2,1.7,1.9,2.1,4.1
			c0.1,0.7,2,1.7,3.2,2.5c4.1,2.6,4.2,8.8,11.2,7.2c9-2.1,11.6,13.9,20.8-1.7C367.2,351.7,371.1,295.2,369.5,273.6z"/>
		<g>
			<path class="st18" d="M428.3,353.5c1.4,13.4,3.1,20.2,2.7,34.9c-0.5,14.7-3,36.2-2.7,52.3c-7.2,5.8-13.8,7.6-23.1,6.4
				c-7.1-25-17.4-56.5-14.6-81.7C393.5,340.3,413.6,343.7,428.3,353.5z"/>
		</g>
		<path class="st18" d="M414.4,369c-5.3-1.7-7.1,4-11.2,5.2c-4.4,1.3-11.6-0.3-14.5-3.9c-1.5-1.9-2.1-4.2-2.8-6.5
			c-1.4-5.3-2.9-10.7-4.3-16c-4-14.6-7.9-29.3-8.6-44.4c-0.4-8,0.2-15.9,0.7-23.9c0.3-4.9,0.7-9.9,2.4-14.6
			c2.3-6.5,6.4-8.5,11.5-12.1c4.6-3.3,8.3-7,13.6-9.3c9.9-4.2,20.5-2.7,26.1,7.3c2.2,20,2.4,40.9,1.9,61.1c-0.1,6-1.6,16.1-1.2,20.2
			s0.4,1.4,0.2,1.7c1.2,2.2,2.4,6.7,1.4,9s-1.1,2.1-0.3,4c0.9,1.9,1.6,2.3,0.1,4.2c-1.5,1.8,2.3,16.7,1.5,26.5
			c-0.1,0.9-4.5-18.5-5.6-17.7C421.4,362.8,423,371.9,414.4,369z"/>
		<path class="st19" d="M332.2,82.2c-1.7,0.3-23.2,7.9-26.5,12c-2.3,2.8-6.5,4.5-8.1,7.8c-1.8,3.7,2.3,9.8,3.8,13.6
			c5.4,13.9,8.4,28.6,15.3,41.9c2.5,4.7,5.3,9.5,6,14.8c0.4,2.8,0.1,5.6,0.6,8.3c0.4,2.1,1.2,4.2,1.4,6.3c0.3,3-0.6,6-1.3,8.9
			c-1.9,8.3-1.8,17.3,1.5,25.2c3.3,7.8,9.2,7.7,17,6.5c8.4-1.4,6.3,0.3,14.5,3.8c5.3,2.3,12.2,3.1,18.2,2.3c5.3-0.7,8.3-2.6,13.1-5
			c4.5-2.2,19-3.5,24-3.8c2.8-0.1,5.6,0.6,8.3-0.4c3.5-1.3,6.4-3.5,8.1-6.9c4.6-9.8,4-18.6,1.1-28.9c-2.9-10.3-6.6-20.3-8.5-30.7
			c-0.9-4.6-1.6-9.2-1.3-13.8c0.2-2.8,1.1-5.1,1.1-7.8c0.2-15.3-1.2-30-4.2-45c-11.7-8.1-24-11-38-12c-3,2.1-6.1,3.7-9.2,5.7
			c-1.9,1.2-3.5,2.4-5.5,3.9c-0.9,0.7-2.7,2-4.1,2.2c1.9,4.6,1,9.5,0.1,14.2c-0.1-0.7-0.3-1.4-0.5-2c-0.2-0.7-0.3-1.4-0.5-2.1
			s-0.3-1.4-0.5-2.1s-0.2-1.4-0.5-2.1c-0.2-0.7-0.5-1.8-0.9-2.4c-0.3-0.7-0.5-1.2-1-1.7c-1.1-1.1-2.3-1.6-3.7-2.1
			c-0.8-0.3-1.5-0.4-2.3-0.7c-0.8-0.3-1.4-0.6-2.2-1c-0.5-0.3-0.5-0.4-1.3-0.8c-1.6-0.7-0.4-0.8-2.9-1.8
			C338.8,84.7,341.5,80.6,332.2,82.2z"/>
		<path class="st20" d="M336.9,80.7c-0.8-0.8-1.9-1.3-3.1-1c-2.9,0.7-7.4-1.1-7.7,3.2c-0.4,5.2,10.9,15.4,15.8,17.5
			s7.9-7.9,11.8-9.2C347.5,88.3,341.7,85.7,336.9,80.7z"/>
		<path class="st20" d="M373,78.6c0.9-1.4,2.4-2.4,4.1-2.5c2.5-0.2,5.3-1.6,6.6,2c1.8,4.8-5.3,18.3-10.2,20.3c-6,2.6-9-6-14.1-7.2
			C364.9,87.4,369.6,84,373,78.6z"/>
		<path class="st7" d="M353.2,97.1c1.9,0.3,3.1-0.7,2.4-2.6c-0.1-0.3-0.5-0.6-0.8-0.6c-1.9-0.3-3.1,0.7-2.3,2.6
			C352.6,96.8,352.9,97,353.2,97.1z"/>
		<path class="st7" d="M356,100.7c-1.7-0.4-2.9,0.5-2.5,2.3c0.2,0.6,0.7,1,1.3,1.1c1.8,0.1,2.6-1.1,1.9-2.7
			C356.7,101,356.4,100.8,356,100.7z"/>
		<path class="st7" d="M363.6,106.5c-2.2-0.4-3.2,0.9-2.2,2.9c0.1,0.1,0.2,0.3,0.4,0.3c2.1,0.5,3.3-0.6,2.4-2.7
			C364.1,106.7,363.8,106.5,363.6,106.5z"/>
		<path class="st16" d="M352.5,18.1c-3.7,2-7.3,3.3-11.6,3.8c-4,0.5-8,0.5-12-0.5c0.2,0.9,0.2,1.8-0.2,2.7c-0.4,0.9-1,1.6-1.4,2.4
			c-1,1.8-1.5,3.5-1.6,5.5c-0.1,0.6,0.1,1-0.2,1.7c-0.3,0.6-1,1.2-1.8,1.3c-0.8,0.2-1.6,0.1-2.4,0.1c-1.2-4.7-1.7-9.1-1.2-14
			c0.2-1.7,0.6-3.3,1.3-4.8c0.3-0.6,0.7-0.9,1-1.6c0.2-0.6-0.2-1.5,0-2.2c0.9-2.9,0.9-5.6,3.6-7.6c4.4-3.3,6.4-3,12.6-3.9
			c6.3-0.9,14.8-2.8,18.7,5c5.4-1.3,8.6,2.1,11.4,6.1c1.9,2.8,2.4,5.3,3.2,8.4c0.4,1.7,0.3,2.8,0.4,4.7c0.1,1.2,0.5,3.4-0.5,4.5
			c-0.2,0.3-0.5,0.1-0.8,0s-0.4-0.3-0.7-0.4c-0.3-0.1-0.5-0.1-0.8-0.3c-0.8-0.4-1.2-1-1.5-1.8s-0.3-1.6-0.7-2.4
			c-0.8-1.8-2.1-2.9-3.5-4.3s-3.1-2.9-4.5-4.4c-0.9-0.9-1.3-2.5-2.8-1.6C354.9,15.5,354.1,17.2,352.5,18.1z"/>
		<path class="st19" d="M287,119.9c-1,2.2-2,4.3-2.6,6.7c-0.2,0.7-0.1,1.8-0.7,2.3c-1.5,1.3-3.6,2.3-3.1,5.6
			c0.5,3.4,7.8,4.6,10.4,6.3c2.3,1.5,4.1,2.8,6.4,4.2c3.4,2.1,5.4,2.4,9.3,3.3c2.1,0.5,4.6,2.1,6.7,1.7c4.3-0.8,6.8-7.2,8.6-10.6
			c2.5-4.7,4.1-9.2,2.9-14.5c-0.5-2.1-2.1-3.7-2.7-5.7c-3.1-9.1,2.7-25.2-12.1-23.6c-6.2,0.7-11.5,2.5-15.1,7.8
			c-3.3,4.8-5,10.3-7.4,15.5C287.4,119.2,287.2,119.5,287,119.9z"/>
		<path class="st19" d="M437.4,114.1c0.2,0.3,0.5,0.6,0.7,0.9c2.4,3.2,4.8,6.4,7,9.8c1.7-0.2,2.8,1.1,3.6,2.4
			c0.8,1.3,1.4,2.4,2.1,3.6c0.5,0.9,1,1.9,0.9,2.9s-0.5,1.6-0.8,2.4c-3,6.1-5.2,12.3-6.6,19c-0.3,1.5-0.4,2.9-0.9,4.3
			c-1.3,3.5-4,6.8-5.9,10c-0.6,1-1.2,2-2.2,2.6s-2.4,0.6-3.1-0.3c-0.4-0.5-0.5-1.3-0.7-2c-0.5-2.6-2.1-4.8-3.7-6.9
			c-3.5-4.7-6.9-9.4-10.4-14.1c-2.3-3.2-4.7-6.4-6.1-10.1c-1-2.7-1.5-5.6-2-8.4c-1.3-6.8-3.4-13.5-6-20c-1.2-3-2.4-6.3-4.5-8.7
			c-2-2.4-4.6-3.7-5.1-7.1c-0.6-3.7,2-6.4,5.3-7.6s6.7-0.7,10,0.3c2.8,0.9,5.5,2.1,7.9,3.9c6.1,4.6,10.8,10.4,15.4,16.5
			C434.1,109.8,435.8,112,437.4,114.1z"/>
		<path class="st16" d="M348.5,55.7c-1.4-0.3-3.1-0.4-4.4,0.3c-1.7,0.9-2.8,2-4.6,2.3c-0.8,0.1-1.8-0.1-2.5-0.2s-1.5-0.4-2.1-0.7
			c-0.5-0.3-0.8-0.6-1.1-1c-2-2.3-3.7-4.7-5.3-7.2c-0.4-0.6-0.8-1.1-1.6-1.2c0,0.5-0.1,0.9,0,1.4c0.5,5.9,1.4,11.4,3.9,16.8
			c1,2.1,2.9,3.7,4.6,5.2c2.1,1.8,4.1,3.1,6.5,4.7c4.8,3.1,9.9,4.6,15.6,2.9c1.7-0.5,2.9-1.6,4.4-2.3c1.1-0.6,2.3-0.9,3.3-1.8
			c2.8-2.6,5.2-6.5,7.1-9.5c1.9-3.1,2.6-5.1,2.4-8.5c-0.2-4.7-1.6-9-2.9-13.4c-0.1-0.3-0.3-0.5-0.5-0.4s-0.3,0.3-0.3,0.5
			c-0.1,1.6,0.2,3.1-0.2,4.7c-0.3,1.6-1.2,3.1-1.6,4.8c-0.2,1.1-0.2,2.2-1.1,3c-0.4,0.4-1.1,0.5-1.7,0.5c-1.8,0-3.6-0.8-5.2-1.4
			c-1.6-0.6-3-1-4.6-0.5c-2,0.5-3.3,2-5.4,2.1C350.2,56.5,349.5,55.9,348.5,55.7z M362.5,64.4c-0.7,1.4-1.8,2.2-2.9,3.3
			c-0.6,0.6-1.3,1.1-2.2,1.4c-0.9,0.2-1.7-0.1-2.2-0.9c-0.2-0.4,0-0.8-0.3-1.1c-0.7-0.8-1.6-0.7-2.5-0.4c-0.2,0.1-0.4,0.1-0.6,0.3
			c-0.2,0.3,0.1,0.7,0,1.1c-0.2,0.7-0.9,1-1.6,1c-2.6-0.1-5.1-0.8-7.4-2.1c-1-0.5-2.1-0.9-2.5-2.1c-0.7-2.1,0.3-3.8,2.4-4.7
			c2.1-0.8,4.5-0.3,6.7-0.5c3-0.3,5.9-1.4,9-1.6c1.7-0.1,3.5,0.7,4.3,2.2C363.5,61.8,363.2,63.1,362.5,64.4z"/>
		<g>
			<g>
				<path class="st21" d="M422.9,233.8c-1.5,4.5-3.7,8.8-6.8,12.4c-1.4,1.6-3.1,3.1-4.8,4.4c-0.9,0.7-1.9,1.4-2.9,2
					c-0.4,0.3-0.8,0.5-1.2,0.8c0,0-1.6,1.1-0.4,0.3c0.1-0.1,0-0.2-0.1-0.1c-0.3,0.2-0.6,0.4-0.8,0.6c-0.1,0.1,0,0.2,0.1,0.1
					c8.4-4.7,14.1-11.3,17.2-20.5C423.1,233.7,423,233.7,422.9,233.8L422.9,233.8z"/>
			</g>
		</g>
		<g>
			<g>
				<path class="st21" d="M334.7,236.2c-0.2-0.2-0.4-0.5-0.6-0.7c-0.1-0.1-0.2,0-0.1,0.1c2.7,9.9,8,17.7,16.2,23.8
					c0.1,0.1,0.2-0.1,0.1-0.1c-4-3-7.7-6.4-10.5-10.6c-1.1-1.7-2.1-3.5-3-5.4c-0.6-1.3-1.1-2.6-1.6-4c-0.2-0.5-0.3-0.9-0.5-1.4
					c0,0.1-0.6-2-0.2-1.5C334.6,236.4,334.8,236.3,334.7,236.2L334.7,236.2z"/>
			</g>
		</g>
		<g>
			<g>
				<path class="st21" d="M371.5,233.2c-1,6.3-1.8,12.6-1.9,18.9c-0.1,3.2,0.2,8.2,4.8,6.9c0.1,0,0.1-0.2,0-0.2
					c-6.2,1.8-4.5-9.5-4.3-12.6c0.3-4.4,0.9-8.7,1.6-13C371.7,233.1,371.5,233,371.5,233.2L371.5,233.2z"/>
			</g>
		</g>
		<g>
			<g>
				<path class="st21" d="M378.4,247.6c-0.7,8.5-1.5,16.9-2.4,25.4c0,0.1,0.2,0.1,0.2,0c0.9-8.5,1.7-16.9,2.4-25.4
					C378.6,247.4,378.4,247.4,378.4,247.6L378.4,247.6z"/>
			</g>
		</g>
		<g>
			<g>
				<path class="st21" d="M393.8,346c5.8-2.2,11.8-3.7,18-4.5c0.1,0,0.1-0.2,0-0.2c-6.2,0.8-12.2,2.3-18.1,4.5
					C393.6,345.9,393.7,346.1,393.8,346L393.8,346z"/>
			</g>
		</g>
		<g>
			<g>
				<path class="st21" d="M397.6,348.6c-0.2,0.3-0.4,0.7-0.5,1c0,0.1,0,0.1,0.1,0.1c4.3-1.2,8.3-3,12.2-5.2c0.1-0.1,0-0.2-0.1-0.2
					c-2.1,1.2-4.4,2.4-6.6,3.3c-1,0.4-2,0.8-3.1,1.1c-0.6,0.2-2.4,1.1-1.8-0.2C397.8,348.6,397.7,348.5,397.6,348.6L397.6,348.6z"/>
			</g>
		</g>
		<g>
			<g>
				<path class="st21" d="M414.1,352.5c4.1,0.7,8.1,0.7,12.2,0.1c0.1,0,0.1-0.2,0-0.2c-4.1,0.6-8.1,0.5-12.1-0.1
					C414.1,352.3,414,352.5,414.1,352.5L414.1,352.5z"/>
			</g>
		</g>
		<g>
			<g>
				<path class="st21" d="M414,358c4.5-0.1,8.7-0.7,13-2c0.1,0,0.1-0.2,0-0.2c-4.2,1.3-8.5,1.9-13,2C413.9,357.8,413.9,358,414,358
					L414,358z"/>
			</g>
		</g>
		<g>
			<g>
				<path class="st21" d="M355.6,351.2c-7.9-0.8-15.7-1.3-23.6-1.7c-0.1,0-0.1,0.2,0,0.2c7.9,0.4,15.8,0.9,23.6,1.7
					C355.7,351.3,355.7,351.2,355.6,351.2L355.6,351.2z"/>
			</g>
		</g>
		<g>
			<g>
				<path class="st21" d="M356.5,361.9c-4.9-1.4-9.8-2.5-14.8-3.3c-0.1,0-0.1,0.1,0,0.2c5,0.8,10,1.9,14.8,3.3
					C356.6,362.1,356.6,361.9,356.5,361.9L356.5,361.9z"/>
			</g>
		</g>
		<g>
			<g>
				<path class="st21" d="M353.8,360.5c-5.7-2.2-11.4-4.4-17.2-6.5c-0.1,0-0.1,0.1,0,0.2c5.8,2.1,11.5,4.3,17.2,6.5
					C353.9,360.7,353.9,360.6,353.8,360.5L353.8,360.5z"/>
			</g>
		</g>
		<g>
			<g>
				<path class="st21" d="M358.8,298.5c-6.7,5.1-13.8,9.4-21.5,13c-0.1,0,0,0.2,0.1,0.1c7.6-3.5,14.8-7.9,21.5-13
					C359,298.5,358.9,298.4,358.8,298.5L358.8,298.5z"/>
			</g>
		</g>
		<g>
			<g>
				<path class="st21" d="M353,306.7c-1.9,1.5-3.9,3-5.8,4.4c-0.1,0.1,0,0.2,0.1,0.1c2-1.4,3.9-2.9,5.9-4.5
					C353.2,306.7,353.1,306.6,353,306.7L353,306.7z"/>
			</g>
		</g>
		<g>
			<g>
				<path class="st20" d="M410,133.1c3.8,16.6,8.8,33,14.8,49c0.1,0.3,0.6,0.2,0.5-0.1c-5.9-16-10.9-32.4-14.8-49
					C410.5,132.6,410,132.7,410,133.1L410,133.1z"/>
			</g>
		</g>
		<g>
			<g>
				<path class="st20" d="M432.9,153.3c0,0.3,0.1,0.5,0.1,0.8s0.4,0.3,0.5,0.1c1.5-3.8,2.9-7.7,4-11.6c0.5-1.8,1.1-3.6,1.5-5.4
					c0.2-0.9,0.5-1.8,0.7-2.7c0.2-0.6,0.3-1.2,0.4-1.8c0.5-0.7,0.4-1-0.1-1c0,0.3,0.5,0.3,0.5,0s0-0.6,0-0.9c0-0.3-0.4-0.3-0.5-0.1
					c-0.9,4-1.9,8-3.1,11.9c-0.5,1.8-1.1,3.6-1.7,5.4c-0.5,1.3-2.1,4.2-1.9,5.5C433.4,153,432.9,153,432.9,153.3L432.9,153.3z"/>
			</g>
		</g>
		<g>
			<g>
				<path class="st20" d="M434.3,157.9c2.3-4,3.8-8.3,4.7-12.8c0.1-0.3-0.4-0.4-0.5-0.1c-0.9,4.5-2.4,8.7-4.7,12.7
					C433.8,157.9,434.2,158.2,434.3,157.9L434.3,157.9z"/>
			</g>
		</g>
		<g>
			<g>
				<path class="st20" d="M324.8,174.1c8.5,3.4,17,4.3,25.9,2.3c0.3-0.1,0.2-0.6-0.1-0.5c-8.8,2-17.2,1-25.6-2.3
					C324.6,173.5,324.5,174,324.8,174.1L324.8,174.1z"/>
			</g>
		</g>
		<g>
			<g>
				<path class="st20" d="M329.1,181.8c5.3,0.1,10.6-0.4,15.8-1.4c0.3-0.1,0.2-0.5-0.1-0.5c-5.2,1-10.4,1.5-15.6,1.4
					C328.8,181.3,328.8,181.8,329.1,181.8L329.1,181.8z"/>
			</g>
		</g>
		<g>
			<g>
				<path class="st20" d="M393.4,186.6c3.8-1.8,7.6-3.5,11.5-5c1.7-0.7,3.5-1.3,5.2-2c0.5-0.2,5.4-2.1,5.5-1.2c0,0.3,0.5,0.3,0.5,0
					s0-0.6,0-0.9c0-0.2-0.2-0.3-0.3-0.2c-7.7,2.4-15.2,5.5-22.6,8.9C392.8,186.3,393.1,186.7,393.4,186.6L393.4,186.6z"/>
			</g>
		</g>
		<g>
			<g>
				<path class="st20" d="M403.9,187c3.9-2.3,8-3.7,12.5-4.3c0.3,0,0.2-0.5-0.1-0.5c-4.5,0.6-8.7,2.1-12.6,4.3
					C403.4,186.7,403.6,187.2,403.9,187L403.9,187z"/>
			</g>
		</g>
		<g>
			<g>
				<path class="st20" d="M327.5,221.3c10.5,1.6,21.1,0.3,31.6,1.9c0.3,0,0.4-0.4,0.1-0.5c-10.5-1.6-21.1-0.3-31.6-1.9
					C327.3,220.8,327.2,221.2,327.5,221.3L327.5,221.3z"/>
			</g>
		</g>
		<g>
			<g>
				<path class="st20" d="M395.2,222.5c6.8-3.5,13.7-4.5,21.2-3.1c0.3,0.1,0.4-0.4,0.1-0.5c-7.7-1.4-14.7-0.4-21.6,3.1
					C394.6,222.2,394.9,222.7,395.2,222.5L395.2,222.5z"/>
			</g>
		</g>
		<g>
			<g>
				<path class="st20" d="M411,92.5c-2.6,2.6-4.4,5.7-5.5,9.2c-0.1,0.3,0.4,0.4,0.5,0.1c1-3.5,2.8-6.4,5.3-9
					C411.5,92.7,411.2,92.3,411,92.5L411,92.5z"/>
			</g>
		</g>
		<g>
			<g>
				<path class="st20" d="M305.3,98.9c1.6,2.5,2.9,5.2,4,7.9c0.1,0.3,0.6,0.2,0.5-0.1c-1.1-2.8-2.5-5.5-4.1-8.1
					C305.6,98.4,305.1,98.6,305.3,98.9L305.3,98.9z"/>
			</g>
		</g>
		<g>
			<g>
				<path class="st20" d="M359.6,91.4c0.5,3.2,0.6,6.4,0.1,9.6c-0.4,2.8-1.7,5.4-2.2,8.2c-0.7,4.1,2.9,7.2,5.5,9.7
					c0.2,0.2,0.6-0.1,0.4-0.4c-1.8-1.7-3.7-3.4-4.7-5.7c-1.3-2.9,0.2-5.4,0.9-8.2c1.1-4.4,1.2-8.8,0.5-13.3
					C360,90.9,359.5,91,359.6,91.4L359.6,91.4z"/>
			</g>
		</g>
		<g>
			<g>
				<path class="st22" d="M359.2,103.7h0.1c0.1,0.1,0.1,0.2,0.2,0.3c0,0,0,0,0-0.1c0.1-0.4-0.6-0.4-0.6,0c0,0,0,0,0,0.1
					s0.1,0.2,0.2,0.3c0.1,0.1,0.2,0.1,0.3,0C359.7,104.1,359.5,103.5,359.2,103.7L359.2,103.7z"/>
			</g>
		</g>
		<g>
			<g>
				<path class="st13" d="M345.5,34.5c0.2,3.5,0.3,7,0.6,10.5c0.2,2.4,0.1,5.3,1.5,7.3c2.1,2.9,6.2,1.7,6.5-1.8
					c0.1-0.8-1.2-0.8-1.3,0c-0.7,0.8-1.4,1.5-2.2,2.3c-1.3-0.3-2.1-0.9-2.4-2c-0.3-0.7-0.4-1.4-0.6-2.2c-0.2-1.7-0.3-3.4-0.5-5
					c-0.2-3-0.3-6-0.5-9.1C346.8,33.7,345.5,33.7,345.5,34.5L345.5,34.5z"/>
			</g>
		</g>
		<g>
			<g>
				<path class="st23" d="M338.4,10.2c6.6,1.3,12.4,2.2,18.9,0c0.4-0.1,0.2-0.7-0.2-0.6c-6.4,2.2-12.1,1.3-18.6,0
					C338.1,9.5,338,10.1,338.4,10.2L338.4,10.2z"/>
			</g>
		</g>
		<g>
			<g>
				<path class="st23" d="M337.3,11.9c1.8,0.3,3.6,0.5,5.4,0.8c0.4,0.1,0.6-0.5,0.2-0.6c-1.8-0.3-3.6-0.5-5.4-0.8
					C337.1,11.2,336.9,11.8,337.3,11.9L337.3,11.9z"/>
			</g>
		</g>
		<g>
			<g>
				<path class="st23" d="M321.8,24.1c-0.1,1.6-0.2,3.2-0.3,4.9c0,0.4,0.6,0.4,0.6,0c0.1-1.6,0.2-3.2,0.3-4.9
					C322.4,23.7,321.8,23.7,321.8,24.1L321.8,24.1z"/>
			</g>
		</g>
		<g>
			<g>
				<path class="st23" d="M323.5,27c0,1.4-0.1,2.8-0.1,4.3c0,0.4,0.6,0.4,0.6,0c0-1.4,0.1-2.8,0.1-4.3
					C324.1,26.6,323.5,26.6,323.5,27L323.5,27z"/>
			</g>
		</g>
		<g>
			<g>
				<path class="st23" d="M363,68.3c-0.8,1.4-1.9,2.5-3.4,3.2c-0.4,0.2,0,0.7,0.3,0.5c1.6-0.7,2.8-1.8,3.6-3.4
					C363.7,68.3,363.2,67.9,363,68.3L363,68.3z"/>
			</g>
		</g>
		<g>
			<g>
				<path class="st23" d="M364.1,69.6c-1,0.7-1.7,1.5-2.3,2.6c-0.2,0.4,0.4,0.7,0.5,0.3c0.5-1,1.2-1.8,2-2.4
					C364.7,69.9,364.4,69.4,364.1,69.6L364.1,69.6z"/>
			</g>
		</g>
		<path class="st24" d="M321.4,35.9c0.2,1.4,0.5,2.8,1,4.2s1.4,2.4,2.6,3.4c0.4-2.2,0.2-4.4,0.1-6.5c0-1.5,0.4-3.1,0.3-4.6
			c0-0.9-0.8-0.5-1.4-0.2c-0.5,0.2-1.1,0.5-1.6,0.4c-0.4-0.1-0.7-0.5-1-0.7c-0.8-0.4-0.5,0.6-0.4,1
			C321.1,33.8,321.2,34.9,321.4,35.9z"/>
		<path class="st24" d="M372.3,25.6c-0.2,4-1.1,7.8-2,11.7c-0.9-4.4-2-8.5-3.7-12.6c-0.5-1.2-1.3-2.3-0.9-3.7
			c0.6-1.9,2.5-2.3,4.2-2.7c-0.5-0.6-0.9-2.4,0.1-2.8c0.9-0.4,1.3,1.6,1.4,2.3C371.9,20.4,372.4,22.9,372.3,25.6z"/>
		<g>
			<g>
				<path class="st13" d="M335.6,48.9c2.7,0.3,5,0.1,7-1.9c0.2-0.2-0.1-0.5-0.3-0.3c-1.9,1.9-4.1,2.1-6.6,1.7
					C335.3,48.4,335.3,48.8,335.6,48.9L335.6,48.9z"/>
			</g>
		</g>
		<g>
			<g>
				<path class="st13" d="M357.7,44.6c2.4,0.8,4.9,0.8,7.3-0.1c0.3-0.1,0.2-0.6-0.1-0.5c-2.3,0.8-4.7,0.8-7.1,0.1
					C357.6,44,357.5,44.5,357.7,44.6L357.7,44.6z"/>
			</g>
		</g>
		<g>
			<g>
				<path class="st20" d="M310.7,115.9c5.1,11.7-0.3,25.1,5.4,36.7c0.1,0.3,0.6,0,0.4-0.3c-5.6-11.5-0.3-25-5.4-36.7
					C311,115.4,310.5,115.6,310.7,115.9L310.7,115.9z"/>
			</g>
		</g>
		<g>
			<g>
				<path class="st20" d="M284.9,129c7.8,3.6,15.8,7.5,20.9,14.7c0.2,0.3,0.6,0,0.4-0.3c-5.1-7.3-13.2-11.2-21.1-14.9
					C284.9,128.4,284.6,128.8,284.9,129L284.9,129z"/>
			</g>
		</g>
		<g>
			<g>
				<path class="st20" d="M303.7,137.7c0.7,1,1.5,2.1,2.2,3.1c0.2,0.3,0.6,0,0.4-0.3c-0.7-1-1.5-2.1-2.2-3.1
					C303.9,137.2,303.5,137.4,303.7,137.7L303.7,137.7z"/>
			</g>
		</g>
		<g>
			<g>
				<path class="st13" d="M330,45c1,1.1,2.5,1.5,3.9,1.1c0.3-0.1,0.2-0.5-0.1-0.5c-1.3,0.4-2.6,0-3.5-1
					C330.1,44.4,329.8,44.8,330,45L330,45z"/>
			</g>
		</g>
		<g>
			<g>
				<path class="st13" d="M330.4,47.5c0.9,0,1.7-0.1,2.6-0.4c0.3-0.1,0.2-0.5-0.1-0.5c-0.8,0.3-1.6,0.4-2.4,0.3
					C330.1,47,330.1,47.5,330.4,47.5L330.4,47.5z"/>
			</g>
		</g>
		<g>
			<g>
				<path class="st13" d="M364.2,40.6c1.1,0.7,2.7-0.1,3.8-0.4c0.3-0.1,0.2-0.5-0.1-0.5c-1,0.3-2.5,1-3.5,0.5
					C364.2,40.1,364,40.5,364.2,40.6L364.2,40.6z"/>
			</g>
		</g>
		<g>
			<g>
				<path class="st13" d="M364.9,41.9c0.9,0.1,1.7-0.1,2.5-0.4c0.3-0.1,0.2-0.6-0.1-0.5c-0.8,0.3-1.5,0.4-2.3,0.4
					C364.6,41.4,364.6,41.9,364.9,41.9L364.9,41.9z"/>
			</g>
		</g>
		<g>
			<path class="st13" d="M345.7,62.3c0.2,0.5,0.4,0.7,0.9,1.1c1.3,0.8,2.6,1.6,4.4,1.9c1.3,0.2,2.5-0.1,3.8-0.7
				c0.8-0.4,2.2-1,2.8-1.7c0.6-0.7,1-1.2,1.5-1.8c0.5-0.7-0.3-0.9-0.7-0.7c-0.4,0.2-1.1,0.8-1.5,1.1c-1.4,1-2.8,2.1-4.3,2.3
				s-2.1,0-3.3-0.5c-0.5-0.2-2.3-1.5-2.7-1.5C346,61.6,345.5,61.8,345.7,62.3z"/>
		</g>
		<path class="st25" d="M344.6,62.4c4.8-0.2,9.6-0.5,14.3-1.2c0,0,0.1,0,0.1,0.1"/>
		<path class="st5" d="M442.3,171.5c0.1,0.5,0.1,0.6-0.1,1.1c-1.2,2.9-4,5.1-6,7.3c-3.4,3.7-7.4,6.6-11,10c-2,1.8-3.9,3.7-5.9,5.5
			c-1.4,1.2-3.5,2.3-4.3,4c-1.5,3.2,0.3,7.1,1.8,9.9c1.7,3.1,3.5,5,7.3,3.8c10.9-3.4,20.6-10.9,28.6-18.9c4.1-4.1,7.5-8.6,10.8-13.3
			c1.6-2.4,2.9-3.9,3.5-6.8c0.6-2.9,0.7-6,0.2-9c-0.3-1.7-1.7-4-2.3-5.4c-0.8-0.2-2.4,0.7-3.3,0.8c-4.2,0.7-8,1.6-12,3.1
			c-2.5,0.9-5.6-0.5-7.9,1.1c-1,0.7-2.3,2.3-1.5,3.4C441,169.2,442.1,170.3,442.3,171.5z"/>
		<g>
			<g>
				<g>
					<path class="st26" d="M414.1,196.3c-1.3-0.3-2.7-0.5-4.3-0.3c-2.8,0.3-5.6,0.5-8.4,0.8c-0.8,0.1-1.7,0.2-2.2,0.9
						c-0.4,0.6-0.3,1.5,0.1,2.1s1,1.2,1.4,1.7c1.4,1.7-0.7,1.6-1.7,1.9c-1.2,0.4-2.5,1.1-3.7,1.6c-2.7,1-6.9,2-6.6,5.8
						c0.1,1.3,0.9,2.5,2.1,3c-0.8,2,0.5,4.4,2.6,4.9c-0.7,1.7,0.5,3.9,2.3,4.3c0.2,0,0.5,0.1,0.6,0.3s0.1,0.4,0.1,0.6
						c0.1,1.3,1.2,2.4,2.4,2.6c1.4,0.3,2.2-0.4,3.4-0.8c0.9-0.3,1.8-0.5,2.7-0.8c2-0.7,4-1.6,6-2.5c3.3-1.5,6.7-2.9,9.7-4.9
						c5.4-3.6,6.3-10.5,3.2-15.8c-1.1-1.8-2.7-2.5-4.6-3.3C417.5,197.4,415.9,196.7,414.1,196.3z"/>
				</g>
			</g>
			<g>
				<g>
					<path class="st26" d="M416.3,198.1c-0.2-0.1-0.4-0.3-0.7-0.4c-3-1.3-6.4-1.8-9.7-1.5c-1.3,0.1-2.7,0.4-4,0.2
						c-3.5-0.6-2.2-4-4.5-5.5c-1.1-0.7-2.6-0.2-3.3,0.9c-0.7,1.1-0.8,2.4-0.5,3.7c0.8,4.2,4.7,7.6,8.8,8.5c2.8,0.6,5.4-1.7,8.3-2
						c1.7-0.2,3.5,0,5.1-0.4c0.7-0.2,1.5-0.5,1.7-1.2C417.9,199.4,417.1,198.6,416.3,198.1z"/>
				</g>
			</g>
		</g>
		<g>
			<g>
				<g>
					<path class="st14" d="M367.4,181.4c4.1,1.4,7.9,3.7,12.3,4.4c1.6,0.2,2.3-2.2,0.7-2.5c-4.4-0.6-8.2-2.9-12.3-4.4
						C366.6,178.4,365.9,180.9,367.4,181.4L367.4,181.4z"/>
				</g>
			</g>
			<g>
				<g>
					<path class="st14" d="M390.9,178c-1-5.9-1.7-12-3.1-17.8c-0.4-1.6-2.9-0.9-2.5,0.7c1.4,5.8,2.1,11.9,3.1,17.8
						C388.7,180.3,391.2,179.7,390.9,178L390.9,178z"/>
				</g>
			</g>
			<g>
				<g>
					<path class="st14" d="M397.3,181.3c4.4-3.4,9.5-5.9,14.3-8.8c1.4-0.8,0.1-3.1-1.3-2.2c-4.8,2.9-9.8,5.4-14.3,8.8
						C394.7,180,396,182.3,397.3,181.3L397.3,181.3z"/>
				</g>
			</g>
		</g>
	</g>
	<polygon class="st27" points="93.9,357 60.5,478.7 65.5,479.1 107.5,361.4 	"/>
	<polygon class="st4" points="308.4,407.7 321.5,506.7 316.7,506.9 297.8,408 	"/>
	<path class="st10" d="M320.8,328.1l-145.4-2.2c0,0,20.2-63.6,30.7-101.5s34-6.6,78.4-15.4c30.5-6.1,48-3,51.8,10.7
		c2.2,7.7,2.5,15.8,2.1,23.8c-0.4,7.9-2.3,15.6-2.5,23.4c-0.3,11.1-3.1,22-5.9,32.7c-1.3,5.1-2.1,10.9-4,15.7
		C325.5,316.7,321.5,328.1,320.8,328.1z"/>
	<g>
		<path class="st27" d="M50.5,369.9c-3.5-5.5-5.3-11.9-5.4-18.3c-0.1-6.9,1.6-12.2,5.9-17.5c5.5-6.6,12.7-11.5,19.9-15.9
			c9.2-5.6,19-9.7,28.9-13.8c11.6-4.7,22.9-10.1,34.5-14.6c4.9-1.9,9.8-3.4,14.4-5.9c3.7-2,7.4-3.9,11.2-5.5
			c5.5-2.4,10.9-3.4,16.8-4.1c4.7-0.6,9.6-1.6,14.3-1.9c4.4-0.3,9.3,0.3,13.7,0.7c9.6,0.7,19.2,2,28.7,4c4.3,0.9,8.5,2,12.7,3.2
			c9.3,2.7,18.3,6.2,27.1,10.2c19.7,9,36.8,22.1,52.2,36.6c21.4,20.3,32.7,36.2,29.5,62.5c-1.4,11.7-12,34.2-22.1,42.1
			c-14.8,11.7-42.7,11.8-61,6.7c-20-5.5-32.9-19.3-50.6-28.7c-20.6-11-43.6-18-66.9-19.8c-16.5-1.3-32.6-0.1-48.9,1.1
			c-7.8,0.6-15.7,2.2-23.6,1.5c-11.4-1-23.9-11.6-30-20.3C51.5,371.5,51,370.7,50.5,369.9z"/>
	</g>
	<g>
		<g>
			<path class="st5" d="M261.7,197.6c0,0-28.1,4.9-29.3,7s0.8,20.8-0.5,68.2c-0.1,4.4-5.8,36-5.4,38.6c3.2,23.3,46,25.1,61.9,15.6
				c3-1.8,6.1-23.6,7.5-27.8c1.4-4.2,3.8-27.8,6.8-37.5c3.7-12,13.4-48.7,13.4-48.7l-26.8-11.8C289.3,201.2,281.8,199.6,261.7,197.6
				z"/>
		</g>
		<path class="st5" d="M273.4,212.9L273.4,212.9c7.6,0.4,14.2-5,14.7-12l1.9-29.1l-27.6-1.3l-1.9,29.1
			C259.9,206.6,265.8,212.5,273.4,212.9z"/>
		<path class="st15" d="M292.7,202.7c-1.7,0.3-3.4,0.4-5,0.2c-2.8-0.4-5.5-1.5-8.3-3.2c-1.2-0.8-2.5-1.7-3.8-2.7
			c-1.8-1.4-4.4-4-6.5-7l0.4-16.7c4.8,1,16.2,6.7,18.7,8c0.4,0.2,0.7,0.4,1.1,0.6l-1.3,19v0.1c0.9,0.2,1.3,0.2,1.3,0.2L292.7,202.7z
			"/>
		<path class="st28" d="M310,140.9c4.1-2.1,6.1,5,6.9,7.2c0.5,1.4-1.8,2.3-2.4,1c0.2,0.4,0.3,0.8,0.5,1.3c0.6,1.4,1.8,3.5,0.5,4.9
			c-2.5,2.8-6.9-2-7.9-4.1C305.3,146.5,306.7,142.7,310,140.9z"/>
		<path class="st29" d="M312.8,145.8c-0.1,1.3,0.2,2.6,0.9,3.8c0.8,1.3-1.3,2.7-2.1,1.4c-1.1-1.7-1.5-3.5-1.3-5.5
			C310.4,143.9,312.9,144.3,312.8,145.8z"/>
		<path class="st5" d="M278.8,130.8c30.4-3,30.4,21.2,30.5,22.2c0.4,11.5,1.9,21.8-2.4,30.2c-2.7,5.2-9.3,14.2-18.3,15.4
			c-7.5,0.9-12.3-2.9-17.1-6.7c-9.1-7.4-12.3-13-15.6-33.8C253.6,144.6,246.1,134,278.8,130.8z"/>
		<path class="st5" d="M255.2,166.1c3.7-2.7,6.9,4,8,6.1c0.7,1.3-1.4,2.5-2.2,1.3c0.2,0.4,0.5,0.8,0.7,1.2c0.8,1.3,2.4,3.2,1.4,4.8
			c-2,3.1-7.2-0.9-8.6-2.9C251.5,172.3,252.2,168.3,255.2,166.1z"/>
		<path class="st30" d="M297.2,165.1c0.2,1.5,1.2,2.6,2.2,2.5c1.1-0.1,1.8-1.4,1.6-2.9"/>
		<path class="st30" d="M274.7,167.2c0.2,1.5,1.2,2.6,2.2,2.5s1.8-1.4,1.6-2.9"/>
		<path class="st13" d="M287.6,174.6c1.7,0.1,3.4,0.2,3.6-2.1c0.1-0.9-0.5-2.1-0.7-3c-0.5-1.8-0.7-2.3-1.2-4.1
			c-0.4-1.5,2-2.4,2.4-0.9c0.6,2.1,0.9,2.9,1.5,5c0.4,1.4,0.9,2.9,0.5,4.4c-0.8,2.8-3.9,3.1-6.5,3
			C285.5,176.9,286,174.6,287.6,174.6z"/>
		<path class="st13" d="M279.7,183.7L279.7,183.7c1.1,1.5,3,3.1,5.3,3.6c2.2,0.5,4.8,0,6.4-0.6l0,0c0.7,0,0.5-0.8-0.5-1
			c-3.5-0.5-6.9-1.4-10.3-2.5C279.9,182.9,279.3,183.3,279.7,183.7z"/>
		<path class="st31" d="M291.4,155.1c3.2-0.6,6.4-0.6,9.6,0.1c1.3,0.3,4.3,1.2,4,2.9c-0.2,1.8-2.9,1.4-4.2,1.3
			c-3.1-0.2-9.4-2.3-9.4-2.3C290.4,156.9,290.2,155.3,291.4,155.1z"/>
		<path class="st31" d="M277.8,155.2c-3.2,0.3-6.3,1.1-9.2,2.6c-1.2,0.7-3.8,2.2-3.1,3.9c0.7,1.7,3.1,0.6,4.4,0.1
			c3-1,8.5-4.7,8.5-4.7C279.2,156.7,279,155.1,277.8,155.2z"/>
		<path class="st31" d="M255.5,164.3c2.7,2.2,3.9,0.3,5.5-2.3c1.2-1.9,2-3.8,2-6.1c0-3.1-1.5-6-1.5-9.1c1.7,0.1,3.5-0.2,5.6-0.6
			c8.6-1.6,7.8,7.9,14.2,10.3c2.3,0.9,4.6,0.8,7,0.1c3.2-0.9,4-4.2,9.1-1.5c1.5,0.8,2.6,2.5,3.9,3.5c3.3,2.7,7.1,3.2,11.1,1
			c0.7-0.4,0.7-1.2,0.3-1.7c3.7-0.9,7.7-3.7,6.9-7.7c-0.3-1.6-1.2-1.8-2-2.9c-1.2-0.3-1.7-1.1-1.4-2.3c-0.4-1-0.4-2,0.1-3
			c0-0.6,0.2-1.3,0.2-2c0-3.4-1.6-8.5-5.1-10.3c-3-1.5-6.8-0.5-9.8-2.5c-1.9-1.3-3-3.9-4.8-5.4c-3.5-2.8-8.2-4.2-12.8-2.8
			c-2.1,0.6-3.7,1.7-5.1,3.2c-1.8,1.8-1.9,3-4.7,3.5c-2.8,0.5-2.6-0.2-5.1-1.2c-6.8-2.7-15.3,1.9-13.3,8.2c-4.2-0.3-6.3,4.1-4.9,7.4
			C243,146.7,248.7,158.7,255.5,164.3z"/>
		<g>
			<g>
				<path class="st32" d="M275.5,139.3c5.7-2.8,8.6,3.4,13.2,4.6c1.7,0.4,1.3,0,3.3,0.1c3.9,0.2,7.4,0,10,3.3
					c0.2,0.3,0.7-0.1,0.4-0.4c-1.3-1.6-2.5-3.2-4.5-3.8c-3.8-1.2-7.5,1.5-11.4-0.8c-3.8-2.2-6.6-5.7-11.3-3.4
					C274.8,139,275.1,139.5,275.5,139.3L275.5,139.3z"/>
			</g>
		</g>
		<g>
			<g>
				<path class="st32" d="M299.2,140.5c2,0.8,3.8,1.7,5.6,2.8c0.3,0.2,0.6-0.3,0.3-0.5c-1.8-1.2-3.7-2.1-5.7-2.9
					C299,139.8,298.8,140.4,299.2,140.5L299.2,140.5z"/>
			</g>
		</g>
		<g>
			<g>
				<path class="st32" d="M282.1,135.3c-2.7-0.1-5.2,0.4-7.7,1.5c-0.4,0.2,0,0.7,0.3,0.5c2.3-1,4.8-1.5,7.3-1.4
					C282.5,135.9,282.5,135.3,282.1,135.3L282.1,135.3z"/>
			</g>
		</g>
		<g>
			<g>
				<path class="st32" d="M252.7,144.2c-2.4,3-2.7,7-0.5,10.3c0.2,0.3,0.8,0,0.5-0.3c-2-3-1.8-6.7,0.4-9.5
					C253.3,144.3,252.9,143.9,252.7,144.2L252.7,144.2z"/>
			</g>
		</g>
		<g>
			<g>
				<path class="st32" d="M254.1,145.7c-0.6,1.4-0.8,2.9-0.5,4.5c0.1,0.4,0.7,0.2,0.6-0.2c-0.3-1.4-0.2-2.7,0.4-4
					C254.8,145.6,254.3,145.3,254.1,145.7L254.1,145.7z"/>
			</g>
		</g>
		<g>
			<g>
				<path class="st32" d="M289.8,152c2.2-0.2,4.4-0.3,6.6,0c2.2,0.4,3.9,1.4,5.9,2.2c2.1,0.9,4.2,1.2,6.2-0.3c0.3-0.2,0-0.8-0.3-0.5
					c-3.5,2.6-6.9-0.9-10.3-1.8c-2.6-0.7-5.4-0.4-8-0.2C289.5,151.4,289.5,152,289.8,152L289.8,152z"/>
			</g>
		</g>
		<g>
			<g>
				<path class="st5" d="M322.5,219.1c8.9,1.6,8.7,17.7,11.5,34.4c2.9,16.6,3.3,23.2,3,26.3c-0.3,3.1-4.6,18.6-15.3,11.2
					c-1.9-1.3-11.6-37.5-12.3-40.9C308.8,246.5,294.4,213.9,322.5,219.1z"/>
			</g>
		</g>
		<g>
			<g>
				<path class="st5" d="M242.6,203.7c-7.9-4.5-18.3,7.6-31.5,18.1s-17.9,15.1-19.7,17.6s-8.8,16.7,4.3,18.1
					c2.3,0.2,33.7-20.4,36.4-22.5C234.9,232.9,267.4,217.9,242.6,203.7z"/>
			</g>
		</g>
		<g>
			<g>
				<g>
					<path class="st33" d="M237.3,311.9c-1.3,0.3-14.1,0.2-14.1,0.2l-1.2,4.4c0,0,14.2,0.4,15.8,0.3c3.4,0,6.9-7.4,6.9-7.4l-4.3-1.4
						C240.4,308.1,238.6,311.6,237.3,311.9z"/>
				</g>
			</g>
		</g>
		<g>
			<g>
				<path class="st34" d="M258.4,309.4c0.2-1-0.6-2-1.7-2.2s-2.2,0.5-2.4,1.6c-0.2,1,0.6,2,1.7,2.2
					C257.1,311.1,258.2,310.5,258.4,309.4z"/>
			</g>
		</g>
		<path class="st35" d="M250.7,201.6c-1-0.7-2.3-1-3.5-1.3c-5.9-1.3-12.1,0.6-17.3,3.3c-5,2.6-9.5,6.1-13.7,10
			c-2.6,2.4-5.3,4.8-7.2,7.8c-0.8,1.2-5,3.5-5.5,4.5c-0.8,1.6,2.2,4.7,3.1,6c1.9,2.9,4.8,5.1,6.8,8c1.8,2.6,0.7,6.1,4.5,5.8
			c0.2,0,0.5-0.1,0.7-0.1c5.1-1,9.6-5.6,13.3-8.9c4.1-3.7,8.1-7.6,11.7-11.8C248.3,219.3,256.6,208.9,250.7,201.6z"/>
		<path class="st35" d="M312,211.2c2.8,0.2,5.8,1.5,7.9,2.4c0.9,0.4,1.7,0.8,2.4,1.4c0.6,0.5,1,1.1,1.5,1.7
			c4.1,5.5,6.3,10.7,7.7,17.2c1.5,6.8,2.9,13.7,4.4,20.5c0.2,1,0.4,2.2-0.1,3.1c-0.4,0.8-1.2,1.3-2,1.8c-1.3,0.8-2.6,1.6-3.8,2.4
			c-3.6,2.2-7.2,4.5-11.3,5.8c-1.8,0.6-3.9,0.9-5.6,0.2c-3.2-1.2-2.1-4.3-2.7-6.8c-0.5-2.1-1.2-4.2-1.7-6.4
			c-1.3-5.2-2.5-10.3-3.4-15.6c-1.2-6.9-4.4-19.8,1.1-26C307.8,211.5,309.8,211,312,211.2z"/>
		<g>
			<g>
				<path id="SVGID_1_" class="st36" d="M296,202.5l21.5,9.3c1.5,0.7,2.4,2.2,2,3.7l-15.4,63c-1.2,4.9-2.4,9.9-3.5,14.9
					c-0.9,3.9-2.3,8-2.8,11.9c-0.3,2.2,0.2,4.7,0.1,7c-0.1,2.2-0.3,4.3-0.6,6.5c-0.2,1.5-0.5,3-1.4,4.2c-1.1,1.6-3,2.6-5,3.2
					c-5.9,1.9-12.6,1.4-18.3,3.8c-2.5,1.1-4.7,2.6-7.2,3.6c-4,1.5-8.7,1.4-12.9,0c-4.2-1.3-7.8-3.8-11-6.6c-3-2.7-5.7-5.8-9.5-7.5
					c-3.3-1.5-7.3-1.7-10.1-3.9c-0.9-0.7-1.7-1.6-1.8-2.7c-0.1-0.7,0-1.4,0.1-2.2c0.7-3.8,1.4-7.7,2.1-11.5
					c1.7-9.4,2.4-18.9,3.2-28.4c0.6-7.1,1.3-14.2,1.3-21.3c-0.2-15.2,4.7-47.2,4.7-47.2l0,0l21.5-5.7c0.9-0.2,1.8,0,2.5,0.5
					c3.8,2.9,17.3,11.7,38.4,5.3C294.6,202.2,295.3,202.2,296,202.5z"/>
			</g>
			<g>
				<defs>
					<path id="SVGID_2_" d="M296,202.5l21.5,9.3c1.5,0.7,2.4,2.2,2,3.7l-15.4,63c-1.2,4.9-2.4,9.9-3.5,14.9c-0.9,3.9-2.3,8-2.8,11.9
						c-0.3,2.2,0.2,4.7,0.1,7c-0.1,2.2-0.3,4.3-0.6,6.5c-0.2,1.5-0.5,3-1.4,4.2c-1.1,1.6-3,2.6-5,3.2c-5.9,1.9-12.6,1.4-18.3,3.8
						c-2.5,1.1-4.7,2.6-7.2,3.6c-4,1.5-8.7,1.4-12.9,0c-4.2-1.3-7.8-3.8-11-6.6c-3-2.7-5.7-5.8-9.5-7.5c-3.3-1.5-7.3-1.7-10.1-3.9
						c-0.9-0.7-1.7-1.6-1.8-2.7c-0.1-0.7,0-1.4,0.1-2.2c0.7-3.8,1.4-7.7,2.1-11.5c1.7-9.4,2.4-18.9,3.2-28.4
						c0.6-7.1,1.3-14.2,1.3-21.3c-0.2-15.2,4.7-47.2,4.7-47.2l0,0l21.5-5.7c0.9-0.2,1.8,0,2.5,0.5c3.8,2.9,17.3,11.7,38.4,5.3
						C294.6,202.2,295.3,202.2,296,202.5z"/>
				</defs>
				<clipPath id="SVGID_3_">
					<use xlink:href="#SVGID_2_"  style="overflow:visible;"/>
				</clipPath>
				<g class="st37">
					<polygon class="st38" points="344.4,208.2 209.1,190.5 208.6,194 343.8,211.7 					"/>
				</g>
			</g>
			<g>
				<defs>
					<path id="SVGID_4_" d="M296,202.5l21.5,9.3c1.5,0.7,2.4,2.2,2,3.7l-15.4,63c-1.2,4.9-2.4,9.9-3.5,14.9c-0.9,3.9-2.3,8-2.8,11.9
						c-0.3,2.2,0.2,4.7,0.1,7c-0.1,2.2-0.3,4.3-0.6,6.5c-0.2,1.5-0.5,3-1.4,4.2c-1.1,1.6-3,2.6-5,3.2c-5.9,1.9-12.6,1.4-18.3,3.8
						c-2.5,1.1-4.7,2.6-7.2,3.6c-4,1.5-8.7,1.4-12.9,0c-4.2-1.3-7.8-3.8-11-6.6c-3-2.7-5.7-5.8-9.5-7.5c-3.3-1.5-7.3-1.7-10.1-3.9
						c-0.9-0.7-1.7-1.6-1.8-2.7c-0.1-0.7,0-1.4,0.1-2.2c0.7-3.8,1.4-7.7,2.1-11.5c1.7-9.4,2.4-18.9,3.2-28.4
						c0.6-7.1,1.3-14.2,1.3-21.3c-0.2-15.2,4.7-47.2,4.7-47.2l0,0l21.5-5.7c0.9-0.2,1.8,0,2.5,0.5c3.8,2.9,17.3,11.7,38.4,5.3
						C294.6,202.2,295.3,202.2,296,202.5z"/>
				</defs>
				<clipPath id="SVGID_5_">
					<use xlink:href="#SVGID_4_"  style="overflow:visible;"/>
				</clipPath>
				<g class="st39">
					<g>
						<path class="st38" d="M406.1,288.4c-2.5,13-5.1,26.4-11.9,37.9c-5.9,10-21,25-33.1,14.4c-4.2-3.7-10.4,2.5-6.2,6.2
							c13.6,11.9,31.7,3.5,41.6-8.8c10.9-13.5,14.7-30.7,18-47.4C415.5,285.2,407.1,282.8,406.1,288.4L406.1,288.4z"/>
					</g>
				</g>
			</g>
			<g>
				<defs>
					<path id="SVGID_6_" d="M296,202.5l21.5,9.3c1.5,0.7,2.4,2.2,2,3.7l-15.4,63c-1.2,4.9-2.4,9.9-3.5,14.9c-0.9,3.9-2.3,8-2.8,11.9
						c-0.3,2.2,0.2,4.7,0.1,7c-0.1,2.2-0.3,4.3-0.6,6.5c-0.2,1.5-0.5,3-1.4,4.2c-1.1,1.6-3,2.6-5,3.2c-5.9,1.9-12.6,1.4-18.3,3.8
						c-2.5,1.1-4.7,2.6-7.2,3.6c-4,1.5-8.7,1.4-12.9,0c-4.2-1.3-7.8-3.8-11-6.6c-3-2.7-5.7-5.8-9.5-7.5c-3.3-1.5-7.3-1.7-10.1-3.9
						c-0.9-0.7-1.7-1.6-1.8-2.7c-0.1-0.7,0-1.4,0.1-2.2c0.7-3.8,1.4-7.7,2.1-11.5c1.7-9.4,2.4-18.9,3.2-28.4
						c0.6-7.1,1.3-14.2,1.3-21.3c-0.2-15.2,4.7-47.2,4.7-47.2l0,0l21.5-5.7c0.9-0.2,1.8,0,2.5,0.5c3.8,2.9,17.3,11.7,38.4,5.3
						C294.6,202.2,295.3,202.2,296,202.5z"/>
				</defs>
				<clipPath id="SVGID_7_">
					<use xlink:href="#SVGID_6_"  style="overflow:visible;"/>
				</clipPath>
				<g class="st40">
					<g>
						<path class="st38" d="M385.8,291c-4.3,15.5-24.7,23.4-39.5,22.5c-21.3-1.3-7.1-28.5-0.2-37.6c9.5-12.3,29.2-26.8,43.9-13.4
							c15.2,13.9,3.6,35.5-4.6,49.7c-2.8,4.9,4.7,9.3,7.5,4.4c9-15.6,18.8-35,9.1-52.7c-8.8-16-28.1-18.7-43.3-10.6
							c-14.8,7.9-26.5,23.8-31.1,39.7c-1.9,6.7-2.3,14.6,1.7,20.7c4.4,6.7,12.5,8.8,20.1,8.4c18.1-0.8,39.6-9.9,44.8-28.9
							C395.7,287.9,387.3,285.6,385.8,291L385.8,291z"/>
					</g>
				</g>
			</g>
		</g>
		<g>
			<g>
				<path class="st41" d="M252.2,303.3c13.9,1.1,27.8,2.7,41.6,4.9c0.4,0.1,0.5-0.5,0.1-0.5c-13.9-2.2-27.8-3.9-41.8-4.9
					C251.9,302.7,251.9,303.3,252.2,303.3L252.2,303.3z"/>
			</g>
		</g>
		<g>
			<g>
				<path class="st41" d="M242.4,299.8c16.8,2.6,33.9,2.9,50.8,1c0.4,0,0.4-0.6,0-0.6c-16.8,2-33.9,1.7-50.6-0.9
					C242.2,299.2,242.1,299.8,242.4,299.8L242.4,299.8z"/>
			</g>
		</g>
		<g>
			<g>
				<path class="st41" d="M282.2,305.2c4.5,0.1,8.7,1.2,12.7,3.1c0.3,0.2,0.6-0.3,0.3-0.5c-4.1-2-8.4-3.1-12.9-3.2
					C281.8,304.6,281.8,305.2,282.2,305.2L282.2,305.2z"/>
			</g>
		</g>
		<g>
			<g>
				<path class="st41" d="M232.3,242.5c10.8,8.9,24.5,11.9,37.6,15.8c0.3,0.1,0.5-0.4,0.1-0.5c-13-3.9-26.6-6.9-37.3-15.7
					C232.5,241.8,232.1,242.2,232.3,242.5L232.3,242.5z"/>
			</g>
		</g>
		<g>
			<g>
				<path class="st41" d="M236.2,319.7c2.5-0.2,5,0.4,7,2.1c0.3,0.2,0.7-0.2,0.4-0.4c-2.1-1.8-4.7-2.5-7.4-2.3
					C235.8,319.2,235.8,319.7,236.2,319.7L236.2,319.7z"/>
			</g>
		</g>
		<g>
			<g>
				<path class="st13" d="M257.2,169.4L257.2,169.4c-0.2,0.1-0.4,0.1-0.6,0.1c1.7,1.4,2.9,3.2,3.5,5.4c0.1,0.4,0.8,0.3,0.7-0.1
					c-0.3-2.4-4-2.3-3.8,0.2c0,0.5,0.8,0.5,0.7,0c-0.1-1.5,2.2-1.8,2.4-0.2c0.2,0,0.5-0.1,0.7-0.1c-0.7-2.2-1.9-4.2-3.7-5.7
					c-0.2-0.2-0.4-0.1-0.6,0.1c0,0.1-0.1,0.1-0.1,0.2c-0.1,0.1-0.1,0.3,0,0.4c0,0.1,0.1,0.1,0.1,0.2
					C256.8,170.2,257.4,169.8,257.2,169.4L257.2,169.4z"/>
			</g>
		</g>
	</g>
	<g>
		<path class="st42" d="M65,375.3c-10.7-0.6-20.5-6.9-22.2-18c-2-12.6,3.7-22.9,12.2-31.6c11.7-12,25-22.5,39.2-31.2
			c7.3-4.5,36.8-16.3,44.9-17.6c33.9-5.6,69.1-8.7,103.1-1.5c4.4,0.9,8.7,2,13,3.3c9.5,2.8,18.8,6.5,27.8,10.8
			c20.2,9.6,39.3,22.2,53.1,39.7c13.8,17.5,22,40.2,18.8,62.3c-1.6,10.8-8.1,21-17.3,26.8c-4,2.5-8.4,4.3-12.9,5.7
			c-13.2,3.9-27.8,4.1-40.3-1.6c-6.7-3.1-12.6-7.8-18.4-12.4c-19.2-15.2-39.5-30.2-63.2-36.6c-9.7-2.6-19.7-3.7-29.6-4.8
			c-19.1-2.1-38.6-4.4-57.7-1.2C98.9,370,81.8,376.2,65,375.3z"/>
	</g>
	<polygon class="st14" points="248.6,283.8 204.9,314 243,332.1 282.4,299.4 	"/>
	<g>
		<path class="st43" d="M249.8,297L249.8,297c-1,0.1-1.9-1-2-1.5l-4.4-33.7l3.5-0.5l4.4,33.7C251.4,296,250.7,296.9,249.8,297z"/>
		<g>
			<path class="st5" d="M187,253.2c0,0,12.4,10.6,19.8,15.7c7.4,5.1,16.5,10.7,16.5,10.7s7.7-0.5,5.2-7.4
				c-0.4-1.1-21.6-24.6-22.5-26s-10.1-11.5-15.4-5.8C184.5,246.9,187,253.2,187,253.2z"/>
		</g>
		<g>
			<path class="st5" d="M218.8,275.4c0.8,4.4,2.9,5.6,7.1,10c4.2,4.4,5.6,6,7.8,3.6s7.8-10.7,5.5-12.7s-8.5-5.1-12.8-7.1
				C221.9,267.1,218.3,272.3,218.8,275.4z"/>
			<path class="st5" d="M229.2,288.6c0.9,0.9,1.5,1.9,2.6,2.5c1.2,0.7,2.6,1,4,1.1c0.2,0,0.4,0,0.6-0.1c0.3-0.2,0.4-0.5,0.4-0.9
				c0-0.7-0.2-1.3-0.7-1.6c-0.6-0.4-1.2-0.9-1.8-1.4c-0.7-0.6-1.6-1.5-2.6-1.4C230.2,287,228.7,288.1,229.2,288.6z"/>
			<path class="st5" d="M235.7,284.6c2.1,1.4,7.4,4.2,10.1,5.4c2.6,1.1,4.5,2.5,5,0.7c0.2-0.9-2.3-2.4-5.4-4.3
				c-3.2-1.9-5.9-4.6-8.5-5.3C235.5,280.7,235.2,284.3,235.7,284.6z"/>
			<path class="st5" d="M233.9,287.9c0.5,0.7,1.3,1.1,2.2,1.5c0.6,0.2,1.2,0.4,1.9,0.5c0.6,0.1,1.3,0.2,1.9-0.2
				c0.5-0.4,0.6-1.1,0.4-1.7c-0.4-0.9-1.9-1.8-2.7-2.3s-1.9-1.3-2.9-1.2c-1.1,0.1-1.2,1.4-1.2,2.3
				C233.5,287.2,233.7,287.6,233.9,287.9z"/>
			<path class="st5" d="M237.3,280.9c0,0,4,2.2,6.5,3.6s6.1,3.9,6.7,4.2c0.6,0.3,1.6-0.9,0.2-2.7c-1.5-1.8-4.1-3.6-6.2-5.3
				c-2-1.7-4.8-3.9-6.3-4.4C236.8,275.8,234.8,279.3,237.3,280.9z"/>
			<path class="st5" d="M223.5,269c2.1-1.3,7.4,0.1,10.1,1.1c1.4,0.5,2.8,1.1,4.2,1.7c0.7,0.3,1.4,0.6,2.1,0.9
				c0.7,0.3,1.3,0.7,2,0.6c0.4,0,0.8-0.3,1-0.6c0.1-0.3,0.1-0.8,0.4-1c0.2-0.2,0.6-0.2,0.8,0s0.4,0.4,0.5,0.7c0.4,1,0.3,2.2,0,3.2
				c-0.1,0.3-0.2,0.6-0.4,0.9c-0.4,0.5-1,0.7-1.7,0.7c-0.6,0-1.2-0.2-1.8-0.3c-1-0.3-1.9-0.6-2.9-0.8c-1.5-0.3-3-0.3-4.5,0
				C230.1,276.8,215.9,273.5,223.5,269z"/>
		</g>
		<path class="st29" d="M249.8,297c0,0-1.7,0.3-2-1.6l-0.1-0.4l3.5-0.5l0.1,0.4C251.4,295.9,250.9,296.9,249.8,297z"/>
		<g>
			<g>
				<path class="st43" d="M249.6,297c0.1,0.5,0.2,1,0.3,1.5c0.1,0.4,0.7,0.2,0.6-0.2c-0.1-0.5-0.2-1-0.3-1.5
					C250.1,296.5,249.5,296.6,249.6,297L249.6,297z"/>
			</g>
		</g>
		<g>
			<g>
				<path class="st14" d="M247.9,265.3c1.2,0.2,1.2,4.1,1.3,4.9c0.3,1.8,0.5,3.5,0.8,5.3c0.1,0.8,1.3,0.5,1.2-0.3
					c-0.4-2.7-0.8-5.4-1.2-8.1c-0.2-1.6-0.4-2.8-2.2-3C247.1,263.9,247.1,265.2,247.9,265.3L247.9,265.3z"/>
			</g>
		</g>
		<g>
			<g>
				<path class="st14" d="M245.1,261.4c0-0.4,0-0.8,0-1.3c0-0.2,0-0.4,0.1-0.6c0-0.2,0.2-0.3-0.1-0.2c-0.2,0-0.3,0-0.5-0.1l0.1,0.4
					c0.1,0.2,0.1,0.4,0.2,0.6c0.1,0.2,0.1,0.4,0.2,0.6c0,0.2,0,0.6,0.2,0.2c0.1-0.1,0.3-0.2,0.4-0.3c-0.2,0-0.4-0.1-0.6-0.1
					c-0.8-0.1-0.8,1.2,0,1.3c0.7,0.1,1.6,0.1,1.4-0.9c-0.1-0.5-0.2-0.9-0.3-1.4c-0.1-0.4-0.2-0.8-0.4-1.2c-0.5-0.7-1.2-0.5-1.5,0.2
					c-0.3,0.8-0.3,1.8-0.3,2.7C243.8,262.2,245.1,262.2,245.1,261.4L245.1,261.4z"/>
			</g>
		</g>
	</g>
	<g>
		<g>
			<path class="st5" d="M335.6,289.9c0,0-18,10.9-28.5,16.2c-10.5,5.3-23.2,11.1-23.2,11.1s-9.8-0.6-5.2-7.6
				c0.7-1.1,32.5-25.4,33.9-26.8s15.2-11.8,20.8-6C340,283.5,335.6,289.9,335.6,289.9z"/>
		</g>
	</g>
	<g>
		<path class="st5" d="M286.4,315c-1.2,4.3-3.4,5.3-8,9.2c-4.6,4-6.1,5.4-8.1,2.8c-2-2.7-6.7-11.5-4.2-13.2c2.5-1.8,9-4.2,13.5-5.8
			C284.1,306.5,287.2,312.1,286.4,315z"/>
		<path class="st5" d="M274.6,327.1c-1.3,1.1-6.5,4.6-9.2,5.1c-2.7,0.6-5.4,1.3-5.9,0c-0.3-0.9,1.7-1.6,5.1-3
			c3.3-1.4,6.1-4.5,7.7-4.2C273.9,325.4,275.2,326.7,274.6,327.1z"/>
		<path class="st5" d="M268.6,322.5c-2.3,1.2-7.8,3.4-10.6,4.3c-2.7,0.8-4.8,2-5.1,0.2c-0.1-0.9,2.6-2.2,5.8-3.7
			c3.4-1.6,6.4-4,9-4.4C269.2,318.6,269.2,322.2,268.6,322.5z"/>
		<path class="st5" d="M270,326c-2.3,1.2-7,3.3-9.7,3.9s-4.9,1.2-5.2-0.7c-0.1-0.9,2.6-1.5,6-2.9c3.3-1.4,7-4.2,8.6-3.8
			C271.2,322.8,270.7,325.7,270,326z"/>
		<path class="st5" d="M267.4,318.6c0,0-4.2,1.8-6.9,3c-2.7,1.1-6.5,3.2-7.1,3.5c-0.6,0.2-1.5-1.1,0.1-2.7s4.5-3.2,6.7-4.6
			s5.2-3.4,6.7-3.7C268.4,313.6,270,317.3,267.4,318.6z"/>
		<path class="st5" d="M282.3,308.2c-2-1.5-7.4-0.6-10.2,0.1c-2.8,0.7-6.1,1.9-8.5,2.5s-4.4,0.6-4.1,1.9s3,2.3,5,1.8
			s4.1-1.1,7.3-0.1C275,315.3,289.5,313.5,282.3,308.2z"/>
	</g>
	<polygon class="st44" points="102.8,315.4 136.6,318.1 164.4,281.2 130.6,278.5 	"/>
	<polygon class="st14" points="102.6,312.6 136.4,315.3 164.3,278.4 130.5,275.6 	"/>
	<g>
		<polygon class="st45" points="334.7,393.5 331.9,402.4 329.3,402.7 329.5,394.4 		"/>
		<path class="st46" d="M291.8,413.1l38.5-9.1c0.7-0.2,1.1-0.5,1.3-0.8c0.1-0.1,0.2-0.6,0.2-0.7c0-0.5-0.4-0.7-1.1-1.3l-38.3-31.4
			c-1.3-1.1-3.5-1.5-5-1.1l-33.9,11.2c-1.3,0.4-1.3,1.6-0.2,2.6l33.7,29.2C288.3,412.8,290.4,413.4,291.8,413.1z"/>
		<path class="st45" d="M292,412.5l38.5-9.1c1.7-0.4,1.9-1.7,0.5-2.8l-38.4-31.4c-1.3-1.1-3.6-1.5-5-1l-33.9,11.2
			c-1.3,0.4-1.3,1.6-0.2,2.6l33.7,29.2C288.4,412.2,290.6,412.8,292,412.5z"/>
		<g>
			
				<linearGradient id="SVGID_8_" gradientUnits="userSpaceOnUse" x1="1442.4067" y1="198.0216" x2="1527.7089" y2="198.0216" gradientTransform="matrix(-0.9647 -0.2632 0.2632 -0.9647 1668.5477 978.4384)">
				<stop  offset="0" style="stop-color:#FFFFFF"/>
				<stop  offset="1" style="stop-color:#FFFFFF"/>
			</linearGradient>
			<path class="st47" d="M292.5,403.5l38.2-9.7c1.1-0.3,2.1,0.5,1.8,1.5l-1.9,6c-0.1,0.4-0.5,0.8-1.1,0.9l-39.2,9.4
				c-0.2,0.1-0.5,0-0.7,0l2.1-8C292,403.5,292.3,403.5,292.5,403.5z"/>
			
				<linearGradient id="SVGID_9_" gradientUnits="userSpaceOnUse" x1="1446.3608" y1="198.0687" x2="1522.4739" y2="198.0687" gradientTransform="matrix(-0.9647 -0.2632 0.2632 -0.9647 1668.5477 978.4384)">
				<stop  offset="0" style="stop-color:#FFFFFF"/>
				<stop  offset="1" style="stop-color:#FFFFFF"/>
			</linearGradient>
			<path class="st48" d="M254.4,381c-0.3-0.3-0.4-0.7-0.4-1.1l1.1-5.5c0.2-0.9,1.2-1.2,1.9-0.7l34.1,29.3c0.2,0.1,0.3,0.2,0.5,0.3
				l-2.1,8c-0.2-0.1-0.4-0.1-0.5-0.3L254.4,381z"/>
			
				<linearGradient id="SVGID_10_" gradientUnits="userSpaceOnUse" x1="1479.495" y1="198.0687" x2="1522.4736" y2="198.0687" gradientTransform="matrix(-0.9647 -0.2632 0.2632 -0.9647 1668.5477 978.4384)">
				<stop  offset="0" style="stop-color:#D1C6E2"/>
				<stop  offset="1" style="stop-color:#D1C6E2"/>
			</linearGradient>
			<path class="st49" d="M254.4,381c-0.3-0.3-0.4-0.7-0.4-1.1l1.1-5.5c0.2-0.9,1.2-1.2,1.9-0.7l34.1,29.3c0.2,0.1,0.3,0.2,0.5,0.3
				l-2.1,8c-0.2-0.1-0.4-0.1-0.5-0.3L254.4,381z"/>
		</g>
		<path class="st46" d="M255.2,372l34.4-11.9c1.5-0.5,3.8-0.1,5.1,1l38.9,31.4c0.6,0.5,0.9,1,0.9,1.5c-0.1,0.1-0.2,0.2-0.4,0.4
			l-0.1,0.1c-0.2,0.2-0.9,0.8-1.7,1.2l-38.3,9.6c-1.4,0.4-3.6-0.2-4.9-1.3L255,374.6C253.8,373.6,253.9,372.4,255.2,372z"/>
		<path class="st45" d="M294.2,404.4l38.6-9.7c0,0,0.3-0.1,0,0.5c-0.2,0.3,1.4-0.7,1.9-1.6c0.3-0.5,0.2-1.1-0.9-2l-38.9-31.4
			c-1.3-1.1-3.6-1.5-5.1-1l-34.5,12c-1.3,0.4-1.4,1.6-0.2,2.6l34.2,29.3C290.5,404.2,292.7,404.8,294.2,404.4z"/>
	</g>
	<g>
		<polygon class="st43" points="339.7,381.8 336.8,390.7 334.2,391 334.5,382.7 		"/>
		<path class="st50" d="M296.8,401.3l38.5-9.1c0.7-0.2,1.1-0.5,1.3-0.8c0.1-0.1,0.2-0.6,0.2-0.7c0-0.5-0.4-0.7-1.1-1.3L297.4,358
			c-1.3-1.1-3.5-1.5-5-1.1l-33.9,11.2c-1.3,0.4-1.3,1.6-0.2,2.6L292,400C293.2,401.1,295.3,401.7,296.8,401.3z"/>
		<path class="st43" d="M296.9,400.7l38.5-9.1c1.7-0.4,1.9-1.7,0.5-2.8l-38.4-31.4c-1.3-1.1-3.6-1.5-5-1l-33.9,11.2
			c-1.3,0.4-1.3,1.6-0.2,2.6l33.7,29.2C293.3,400.5,295.5,401.1,296.9,400.7z"/>
		<g>
			
				<linearGradient id="SVGID_11_" gradientUnits="userSpaceOnUse" x1="1440.7399" y1="210.6958" x2="1526.042" y2="210.6958" gradientTransform="matrix(-0.9647 -0.2632 0.2632 -0.9647 1668.5477 978.4384)">
				<stop  offset="0" style="stop-color:#FFFFFF"/>
				<stop  offset="1" style="stop-color:#FFFFFF"/>
			</linearGradient>
			<path class="st51" d="M297.4,391.7l38.2-9.7c1.1-0.3,2.1,0.5,1.8,1.5l-1.9,6c-0.1,0.4-0.5,0.8-1.1,0.9l-39.2,9.4
				c-0.2,0.1-0.5,0-0.7,0l2.1-8C296.9,391.8,297.2,391.8,297.4,391.7z"/>
			
				<linearGradient id="SVGID_12_" gradientUnits="userSpaceOnUse" x1="1444.694" y1="210.6727" x2="1520.8069" y2="210.6727" gradientTransform="matrix(-0.9647 -0.2632 0.2632 -0.9647 1668.5477 978.4384)">
				<stop  offset="0" style="stop-color:#FFFFFF"/>
				<stop  offset="1" style="stop-color:#FFFFFF"/>
			</linearGradient>
			<path class="st52" d="M259.4,369.3c-0.3-0.3-0.4-0.7-0.4-1.1l1.1-5.5c0.2-0.9,1.2-1.2,1.9-0.7l34.1,29.3c0.2,0.1,0.3,0.2,0.5,0.3
				l-2.1,8c-0.2-0.1-0.4-0.1-0.5-0.3L259.4,369.3z"/>
			
				<linearGradient id="SVGID_13_" gradientUnits="userSpaceOnUse" x1="1477.8281" y1="210.6727" x2="1520.8068" y2="210.6727" gradientTransform="matrix(-0.9647 -0.2632 0.2632 -0.9647 1668.5477 978.4384)">
				<stop  offset="0" style="stop-color:#D1C6E2"/>
				<stop  offset="1" style="stop-color:#D1C6E2"/>
			</linearGradient>
			<path class="st53" d="M259.4,369.3c-0.3-0.3-0.4-0.7-0.4-1.1l1.1-5.5c0.2-0.9,1.2-1.2,1.9-0.7l34.1,29.3c0.2,0.1,0.3,0.2,0.5,0.3
				l-2.1,8c-0.2-0.1-0.4-0.1-0.5-0.3L259.4,369.3z"/>
		</g>
		<path class="st50" d="M260.1,360.2l34.4-11.9c1.5-0.5,3.8-0.1,5.1,1l38.9,31.4c0.6,0.5,0.9,1,0.9,1.5c-0.1,0.1-0.2,0.2-0.4,0.4
			l-0.1,0.1c-0.2,0.2-0.9,0.8-1.7,1.2l-38.3,9.6c-1.4,0.4-3.6-0.2-4.9-1.3l-34.1-29.3C258.8,361.8,258.8,360.7,260.1,360.2z"/>
		<path class="st43" d="M299.1,392.7l38.6-9.7c0,0,0.3-0.1,0,0.5c-0.2,0.3,1.4-0.7,1.9-1.6c0.3-0.5,0.2-1.1-0.9-2l-38.9-31.4
			c-1.3-1.1-3.6-1.5-5.1-1l-34.5,12c-1.3,0.4-1.4,1.6-0.2,2.6l34.2,29.3C295.5,392.5,297.7,393.1,299.1,392.7z"/>
	</g>
	<g>
		<g>
			<path class="st43" d="M216.1,311.4c0,1.8,1.2,2.9,2.8,3.4c1.7,0.5,4,0.1,5.3,1.6c0.7,0.7,0.8,1.6,1.6,2.1c1,0.6,2.4,0.4,3.5,0.8
				c1.6,0.5,3,1.7,4.4,2.5c2.6,1.6,5.3,2.8,8.3,3.7c0.4,0.1,0.6-0.6,0.2-0.7c-2.7-0.8-5.3-1.9-7.7-3.4c-1.8-1.1-3.5-2.5-5.6-3
				c-1.3-0.3-2.3-0.2-3.3-1.3c-0.5-0.6-0.6-1.2-1.4-1.7c-2-1.4-7.3-0.3-7.3-4C216.8,311,216.1,311,216.1,311.4L216.1,311.4z"/>
		</g>
	</g>
	<g>
		<g>
			<path class="st43" d="M223.4,307.5c1.3,1.3,2.8,1.4,4.5,1.4c1.2,0,3.1-0.4,4.2,0.1c1.5,0.6,1.9,2.2,3,3.1
				c0.7,0.6,1.7,0.9,2.5,1.5c1.1,0.8,2,1.9,3,2.7c1.9,1.6,3.9,2.8,6.1,3.9c0.4,0.2,0.8-0.4,0.4-0.6c-2.3-1.1-4.4-2.4-6.3-4.1
				c-0.9-0.8-1.8-1.8-2.7-2.5c-1-0.8-1.9-1-2.7-2.1c-0.8-1-1.1-2.3-2.5-2.6c-2.8-0.6-6.8,1-9-1.3
				C223.6,306.7,223.1,307.2,223.4,307.5L223.4,307.5z"/>
		</g>
	</g>
	<g>
		<g>
			<path class="st43" d="M233.7,299.9c0.7,1.1,1.7,1.7,2.9,2c0.8,0.2,1.6,0.2,2.5,0.4c2.2,0.5,2.7,1.6,3.8,3.3c0.9,1.3,2,1.6,3.5,2
				c2.7,0.9,5.1,2.2,7.3,3.9c0.4,0.3,0.7-0.3,0.4-0.6c-1.8-1.4-3.7-2.5-5.8-3.4c-2.2-0.9-4.1-1.4-5.4-3.6c-0.6-0.9-1.2-1.6-2.2-2
				c-2.1-0.9-5,0-6.4-2.4C234,299.1,233.4,299.5,233.7,299.9L233.7,299.9z"/>
		</g>
	</g>
	<g>
		<g>
			<path class="st43" d="M271,298.2c-5.2,3.1-10.8,5.5-16.5,7.3c0.1,0.1,0.3,0.3,0.4,0.4c1.1-3.4,3.1-6.2,5.4-8.9
				c1.6-1.8,3-1.2,5-0.3c1.7,0.7,3.3,1.5,5,2.2c0.4,0.2,0.8-0.4,0.4-0.6c-2.4-1.1-4.9-2.2-7.3-3.3c-1.2-0.5-1.5-0.8-2.4,0.1
				c-2.9,2.9-5.4,6.6-6.7,10.5c-0.1,0.3,0.2,0.5,0.4,0.4c5.8-1.8,11.4-4.3,16.7-7.4C271.8,298.6,271.4,298,271,298.2L271,298.2z"/>
		</g>
	</g>
	<g>
		<g>
			<path class="st43" d="M266.4,295.7c-0.3,0.4-0.6,0.8-1,1.2c-0.3,0.3,0.2,0.8,0.5,0.5c0.4-0.4,0.8-0.8,1.1-1.3
				C267.3,295.6,266.6,295.3,266.4,295.7L266.4,295.7z"/>
		</g>
	</g>
	<g>
		<g>
			<path class="st43" d="M263.9,298.1c-0.1,0.2-0.2,0.2-0.4,0.3c-0.4,0.2,0,0.8,0.4,0.6c0.3-0.1,0.5-0.3,0.6-0.6
				C264.8,298,264.2,297.7,263.9,298.1L263.9,298.1z"/>
		</g>
	</g>
	<g>
		<g>
			<path class="st43" d="M262,299.7c-0.2,0.2-0.4,0.4-0.5,0.5c-0.3,0.3,0.2,0.8,0.5,0.5c0.2-0.2,0.4-0.4,0.5-0.5
				C262.8,299.9,262.3,299.4,262,299.7L262,299.7z"/>
		</g>
	</g>
	<g>
		<g>
			<path class="st43" d="M260.1,301.4c-0.1,0.2-0.3,0.3-0.5,0.4c-0.4,0.2,0,0.9,0.4,0.6c0.2-0.1,0.4-0.3,0.6-0.5
				C260.9,301.5,260.4,301,260.1,301.4L260.1,301.4z"/>
		</g>
	</g>
	<g>
		<g>
			<path class="st43" d="M257.8,303.2c-0.2,0.2-0.4,0.4-0.6,0.6c-0.3,0.3,0.2,0.8,0.5,0.5c0.2-0.2,0.4-0.4,0.6-0.6
				C258.6,303.4,258.1,302.9,257.8,303.2L257.8,303.2z"/>
		</g>
	</g>
	<g>
		<g>
			<path class="st43" d="M256.1,304.7c-0.7,0.5-1.3,1-2,1.4c-0.4,0.2,0,0.8,0.4,0.6c0.8-0.5,1.5-1,2.2-1.5
				C257,305,256.5,304.5,256.1,304.7L256.1,304.7z"/>
		</g>
	</g>
	<g>
		<g>
			<path class="st43" d="M253.4,307.4c0.5,0,0.5-0.7,0-0.7C252.9,306.7,252.9,307.4,253.4,307.4L253.4,307.4z"/>
		</g>
	</g>
	<g>
		<g>
			<path class="st43" d="M251.2,288c-0.1,0.1-0.1,0.1-0.2,0.2c-0.3,0.3,0.2,0.8,0.5,0.5c0.1-0.1,0.1-0.1,0.2-0.2
				C252.1,288.2,251.6,287.7,251.2,288L251.2,288z"/>
		</g>
	</g>
	<g>
		<g>
			<path class="st43" d="M248.6,290.6c-0.1,0.2-0.3,0.5-0.4,0.7c-0.2,0.4,0.4,0.8,0.6,0.4c0.1-0.2,0.3-0.5,0.4-0.7
				C249.4,290.6,248.8,290.2,248.6,290.6L248.6,290.6z"/>
		</g>
	</g>
	<g>
		<g>
			<path class="st43" d="M247.6,293.2c-0.1,0.6-0.2,1.2-0.2,1.8c0,0.5,0.7,0.5,0.7,0s0-1.1,0.2-1.6
				C248.4,293,247.7,292.8,247.6,293.2L247.6,293.2z"/>
		</g>
	</g>
	<g>
		<g>
			<path class="st43" d="M247.5,296c0,0.5,0.1,1,0.1,1.6c0.1,0.4,0.7,0.3,0.7-0.2c-0.1-0.5-0.1-0.9-0.1-1.4S247.5,295.5,247.5,296
				L247.5,296z"/>
		</g>
	</g>
	<g>
		<g>
			<path class="st43" d="M248.5,300.7c0.1,0.3,0.2,0.5,0.4,0.8c0.2,0.4,0.8,0.1,0.6-0.4c-0.1-0.3-0.2-0.5-0.4-0.8
				C249,299.9,248.4,300.2,248.5,300.7L248.5,300.7z"/>
		</g>
	</g>
	<g>
		<g>
			<path class="st43" d="M249.4,303c0.2,0.2,0.3,0.4,0.4,0.6c0.2,0.4,0.9,0.2,0.7-0.2c-0.1-0.3-0.3-0.6-0.6-0.9
				C249.6,302.2,249.1,302.7,249.4,303L249.4,303z"/>
		</g>
	</g>
	<g>
		<g>
			<path class="st43" d="M251.1,305.1c0.2,0.1,0.4,0.2,0.6,0.4c0.4,0.2,0.7-0.4,0.4-0.6c-0.2-0.1-0.4-0.2-0.6-0.4
				C251,304.2,250.7,304.8,251.1,305.1L251.1,305.1z"/>
		</g>
	</g>
	<g>
		<g>
			<path class="st43" d="M252.4,305.9c0.2,0.1,0.3,0.2,0.5,0.2c0.4,0.2,0.8-0.4,0.4-0.6c-0.2-0.1-0.3-0.2-0.5-0.2
				C252.4,305.1,252,305.7,252.4,305.9L252.4,305.9z"/>
		</g>
	</g>
	<g>
		<g>
			<path class="st43" d="M252.6,289.3c0.1,0.1,0.2,0.2,0.4,0.3c0.3,0.3,0.8-0.2,0.5-0.5c-0.1-0.1-0.2-0.2-0.4-0.3
				C252.7,288.5,252.2,289,252.6,289.3L252.6,289.3z"/>
		</g>
	</g>
	<g>
		<g>
			<path class="st43" d="M258.6,293c0.4,0.3,0.8,0.7,1.2,1c0.4,0.3,0.7-0.3,0.4-0.6c-0.4-0.3-0.7-0.6-1-0.9
				C258.8,292.2,258.3,292.7,258.6,293L258.6,293z"/>
		</g>
	</g>
	<g>
		<g>
			<path class="st43" d="M261.3,294.8c0.1,0.1,0.2,0.1,0.2,0.2c0.4,0.3,0.7-0.3,0.4-0.6c-0.1-0.1-0.2-0.1-0.2-0.2
				C261.3,294,260.9,294.6,261.3,294.8L261.3,294.8z"/>
		</g>
	</g>
	<path class="st14" d="M299.2,383.1l22.2-5.6c0,0,0.2-0.1,0,0.3c-0.1,0.2,0.8-0.4,1.1-0.9c0.2-0.3,0.1-0.6-0.5-1.1l-22.4-18.1
		c-0.8-0.6-2.1-0.9-2.9-0.6l-19.8,6.9c-0.7,0.3-0.8,0.9-0.1,1.5l19.6,16.8C297.1,383,298.3,383.3,299.2,383.1z"/>
	<path class="st43" d="M312.8,373.6c0,3.6-4.7,6.6-10.5,6.6s-10.5-2.9-10.5-6.6c0-0.1,0-0.3,0-0.4c1.1,0.2,2.2,0.3,3.4,0.3
		c5.6,0,10.1-2.7,10.5-6.1C309.8,368.3,312.8,370.7,312.8,373.6z"/>
	<path class="st14" d="M305.6,367.4c-0.3,3.4-4.9,6.1-10.5,6.1c-1.2,0-2.3-0.1-3.4-0.3c0.3-3.4,4.9-6.1,10.5-6.1
		C303.4,367.1,304.6,367.2,305.6,367.4z"/>
	<path class="st5" d="M305.7,367c0,0.1,0,0.3,0,0.4c-1.1-0.2-2.2-0.3-3.4-0.3c-5.6,0-10.1,2.7-10.5,6.1c-4.1-0.9-7.1-3.3-7.1-6.2
		c0-3.6,4.7-6.6,10.5-6.6S305.7,363.4,305.7,367z"/>
	<path class="st13" d="M259.7,191.1c0,0-4.7-4.6-11.5-2.3c-6.7,2.3-11.7,5.9-14,16.6c-2.3,10.7,5.2,17.6,8.1,15.4
		c2.9-2.2,9-18.4,11.3-20s0.1,2.4,1.7,6.6c1.6,4.2,5.2,5.2,4.3,1.5C257.7,200.5,264.4,197.2,259.7,191.1z"/>
	<g>
		<g>
			<path class="st16" d="M356.5,40.7c-0.4-1.1,1.3-2.3,2.2-2.4c1.7-0.2,2.9,1.4,2.5,2.9c-0.2,0.8,1,1.1,1.2,0.3
				c0.6-2.3-1.2-4.6-3.7-4.5c-1.8,0.1-4.1,2.1-3.5,4C355.6,41.8,356.8,41.4,356.5,40.7L356.5,40.7z"/>
		</g>
	</g>
	<g>
		<g>
			<path class="st16" d="M335.1,44.2c-0.6-2.7,4.5-3.8,4.7-1.1c0.1,0.8,1.3,0.8,1.3,0c-0.4-4.6-8.2-3-7.2,1.4
				C334.1,45.3,335.3,45,335.1,44.2L335.1,44.2z"/>
		</g>
	</g>
	<polygon class="st27" points="264.4,421.3 265.9,544.3 260.4,544.1 251.7,414.9 	"/>
</g>
</svg>
