<?xml version="1.0" encoding="utf-8"?>
<!-- Generator: Adobe Illustrator 23.0.3, SVG Export Plug-In . SVG Version: 6.00 Build 0)  -->
<svg version="1.1" id="Layer_1" xmlns="http://www.w3.org/2000/svg" xmlns:xlink="http://www.w3.org/1999/xlink" x="0px" y="0px"
	 viewBox="0 0 952.7 663.4" style="enable-background:new 0 0 952.7 663.4;" xml:space="preserve">
<style type="text/css">
	.st0{opacity:0.1;fill:#007CC7;enable-background:new    ;}
	.st1{fill:#FFFFFF;}
	.st2{opacity:0.48;fill:#99AFBC;enable-background:new    ;}
	.st3{fill:#AFC7D7;}
	.st4{fill:#F4E9DC;}
	.st5{fill:#FBD5AF;}
	.st6{fill:#E2C6A9;}
	.st7{fill:#005D8B;}
	.st8{fill:#F5BD83;}
	.st9{fill:#C64A27;}
	.st10{fill:#3E1D1D;}
	.st11{fill:#FFE6D6;}
	.st12{fill:#331318;}
	.st13{fill:#002042;}
	.st14{opacity:0.7;fill:#D19D6F;enable-background:new    ;}
	.st15{fill:#EFEAEA;}
	.st16{fill:#D19D6F;}
	.st17{fill:#1B354C;}
	.st18{fill:#FFF1E4;}
	.st19{fill:#007CC7;}
	.st20{fill:#C99667;}
	.st21{fill:none;}
	.st22{fill:#56222C;}
	.st23{fill:none;stroke:#002042;stroke-width:1.5952;stroke-linecap:round;stroke-miterlimit:10;}
	.st24{fill:none;stroke:#002042;stroke-width:1.8406;stroke-linecap:round;stroke-miterlimit:10;}
	.st25{clip-path:url(#SVGID_2_);fill:#F5EDEB;}
	.st26{clip-path:url(#SVGID_4_);}
	.st27{fill:#BE997E;}
	.st28{clip-path:url(#SVGID_6_);}
	.st29{clip-path:url(#SVGID_8_);}
	.st30{clip-path:url(#SVGID_10_);}
	.st31{clip-path:url(#SVGID_12_);}
	.st32{clip-path:url(#SVGID_14_);fill:#F5EDEB;}
	.st33{clip-path:url(#SVGID_16_);}
	.st34{clip-path:url(#SVGID_18_);}
	.st35{clip-path:url(#SVGID_20_);}
	.st36{clip-path:url(#SVGID_22_);}
	.st37{clip-path:url(#SVGID_24_);}
	.st38{fill:#072439;}
	.st39{opacity:0.16;fill:#B94A00;enable-background:new    ;}
	.st40{fill:#FFCFC2;}
	.st41{fill:#4F322F;}
	.st42{fill:#FAFAFA;}
	.st43{fill:#035693;}
	.st44{fill:#CCCCCC;}
	.st45{fill:#00456B;}
	.st46{fill:#6FB1ED;}
	.st47{opacity:0.81;fill:#6FB1ED;enable-background:new    ;}
	.st48{opacity:0.82;fill:#6FB1ED;enable-background:new    ;}
	.st49{opacity:0.74;fill:#6FB1ED;enable-background:new    ;}
</style>
<path class="st0" d="M952,320.8c-5.1,45.5-22.5,70.9-43.6,88c-35.8,29.2-82.1,34.7-96.3,75.8c-22.5,65.2,32.5,76.4,38.7,103.3
	c0.7,2.8,1.1,5.5,1.2,8.2c0,0.1,0,0.1,0,0.2c0,0.4,0,0.8,0.1,1.3v0.4c0,0.3,0,0.5,0,0.8c0,0.2,0,0.4,0,0.6c0,0.1,0,0.2,0,0.3
	c0,0.3,0,0.6,0,0.9c0,0.1,0,0.2,0,0.3c0,0.2,0,0.3,0,0.5c0,0.3,0,0.5,0,0.8c-9.2,120.8-555.3,31.7-742.4-2.4
	C18,582.9-28.9,479.8,19.1,400.1c0.7-1.2,1.5-2.4,2.2-3.6c75.7-120.7,165.3-85,204.5-219.9C265,41.7,454.4,1.1,642.6,0.8
	c188.2-0.4,147,116.5,142.8,175.8C781.3,235.8,965.7,197.8,952,320.8z"/>
<g>
	<g>
		<rect x="398.5" y="2.5" class="st1" width="280.3" height="173.4"/>
		<polygon class="st2" points="339.1,165.7 339.4,165.7 339.4,124.7 359,124.7 359,96.1 385.3,96.1 385.3,113.9 401.2,113.9 
			401.2,120.5 410.7,120.5 410.7,114.3 421.8,114.3 421.8,101.3 430.5,90.2 445.8,90.2 453,101.9 453,142.9 474.5,142.9 
			474.5,114.3 512.2,114.3 512.2,122.1 522.6,122.1 522.6,114.9 550.3,114.9 550.3,121.1 563,121.1 563,113.9 566.2,113.9 
			566.2,83.4 572.1,83.4 572.1,79.1 577.3,74.6 589.7,74.6 593.9,79.1 593.9,83 598.8,83 598.8,114.3 601.7,114.3 601.7,129.2 
			609.2,129.2 609.2,99.6 633.2,99.6 633.2,117.5 637.5,117.5 637.5,103.2 641.7,103.2 641.7,93.1 652.1,93.1 652.1,102.9 
			658.3,102.9 658.3,110.7 668.1,110.7 668.1,116.6 693.8,116.6 693.8,97.7 701,97.7 701,171.3 339,171.3 		"/>
		<path class="st0" d="M589.2,42.2c-1.1-3.5,1.8-9,17.5-8.2s19.6-12.6,34.3-12.8c14.7-0.2,12,11.9,27.1,9.6
			c15.1-2.4,24,13.2,6.7,18.4c-17.2,5.1-20.8-2.5-58,1.3C594.3,52.5,590.4,46.2,589.2,42.2z"/>
		<path class="st0" d="M492.9,94.3c-1.3-4.2,2.1-10.8,21-9.8c18.9,0.9,23.5-15.1,41.1-15.4s14.4,14.3,32.4,11.4
			c18-2.8,28.7,15.9,8,22c-20.7,6.1-24.8-2.9-69.4,1.5C499,106.7,494.4,99.1,492.9,94.3z"/>
		<path class="st0" d="M406.7,56.2c-3,0-12.1-0.5-8.6-8.1c2.3-4.9,8.3-0.7,19.5-4.8c11.2-4.1,15.4-10.7,30.4-5.2
			c15,5.5,12.1,0.5,20.5,0.5c11.5,0.1,14.2,17.8-3.9,18.2C446.5,57.3,422.6,56.3,406.7,56.2z"/>
		<rect x="494.4" class="st3" width="5.4" height="175.8"/>
		<g>
			<path class="st3" d="M682,175.8H396.5V0H682V175.8z M401.5,171.3h275.4V4.5H401.5V171.3z"/>
		</g>
	</g>
	<path class="st3" d="M738.3,176.4H321.4c-1.7,0-3.1-1.4-3.1-3.1l0,0c0-1.7,1.4-3.1,3.1-3.1h416.9c1.7,0,3.1,1.4,3.1,3.1l0,0
		C741.3,175.1,740,176.4,738.3,176.4z"/>
</g>
<path class="st3" d="M160.6,546.1c-4.6,1.3-8.5,3-16.9,4.5c3.7-1.4-4.4,0.5-4.5,0.2c-4.1,1.4-8.2,3-12.3,4.7
	c-6.2,1.9-13.3,4.7-18.2,8c1.6-1.1,3.9-2.4,7-3.7c-3.8,2.3-7.5,4.3-11.3,6.8c-3.7,2.5-7.7,5.9-9.6,10.8c0.4-1.5,1.2-3,2-4.4
	c-2.7,3.3-3.8,6.9-4.1,10.1c-0.2,3.2,0.6,6.2,1.8,8.8l-1,0c0.8,0.3,2.3,3.3,4.4,6.1c2.1,2.9,4.5,5.6,5.4,6.5c-5.6-6.3-7-10-8-13.4
	c-0.4-1.8-0.7-3.5-0.8-6c0-1.2,0.1-2.6,0.5-4.2c0.3-1.6,0.9-3.4,1.9-5.5c-2.1,6.3-1.8,11.2,1.8,16.9c0.9,2.2,1.2,3.1,1,3.4
	c1.6,1.7,2.6,2,5.2,4.9l0.2,1.1c3.1,4.3,5.1,6,7.2,7.6c1.1,0.8,2.1,1.6,3.5,2.6c1.4,1,2.9,2.3,5.5,4c0.7,0.9-2.1-0.1-5.2-2.3
	c-3.2-2.2-6.3-5.6-8.6-7.8c1,2.1-0.7,0.2-2.4-1.7c-1.7-1.9-3.4-3.7-2.3-1.1l2.6,2.2c2,2.5,1.2,2.5-0.1,0.9c2.9,3.2,2.1,2.5,3.7,3.5
	c2.9,3.2,4.7,4.8,5.3,5.5c0.7,0.7,0.3,0.7-0.1,0.6c-0.4-0.1-0.9-0.2-0.2,0.6c0.3,0.4,0.9,1,2.1,1.8c1.1,0.8,2.8,2,5.7,3.3
	c-1.4-0.4-3.6-1.5-5.1-2.3c-1.6-0.9-2.6-1.5-2.4-1c-3.1-2.3-5.4-4.8-7.4-7.2l-0.9,0.2c3.8,4.5,8.7,8.3,14.2,10.3
	c5.5,2.1,10.2,2.4,14,2.3c-3.6-0.3-5.6-0.8-6.5-1.1c-0.9-0.3-0.8-0.4-0.5-0.5c0.7-0.2,2.1-0.1-1.4-1.4c2.8,0.6,5.3,1.2,6.7,1.7
	c0.6,0,2.6,0.2,4.3,0.3c1.8,0.1,3.2,0,2.8-0.2c0.7,0.5,3.2,0.9,6.2,1.1c3,0.3,6.6,0.3,9.9,0.4c6.6,0.1,12.1,0.2,8.9,1.2
	c4,0,12.2-0.7,21.3-2c9.1-1.2,19.2-2.8,27.4-3.9l-4.4,1c17.6-0.9,14.9-3.1,24.9-4.7c-8.7,1.6,7.9-0.2,11.6-0.1
	c7.7-1.2,14-2.7,25-2.9c2.3,0.6,2.6,1.6,9.6,1.7c1.6-0.2,3.2-0.4,4.8-0.5c7,0.2,16.4,0.2,20.9,0.9l-1,0c7.8,0.9,8.3,0,2.2-0.6
	l7.6,0.2l0.2,0.2c10.1,0.4,19.6,0.3,35.6,1.8c-4.4,0.2,11.8,2.5-2.6,1.2c4.2,0.1-2.1-0.9-2.9-1.2c-5.2-0.7-10-0.5-12.3-0.6
	c1.6,0.5-0.1,1.3-3,1.5c5.2,0,15,1,23.9,1.8c8.9,0.8,16.9,1.3,18.3,0.6c6.5,0.6,14,1.1,21.7,1.5c7.8,0.2,15.8,0.5,23.3,0.8
	c-0.6-0.1-1.8-0.2-1.5-0.4l12.9,0.7l-3,0.2l8.5,0.5c0.9,0.3-2.4,0.6-6,0.7c-2,0.1-3.9-0.1-1.9-0.2c-9.2,0.6,7.6,0.2,1.7,0.9
	c-2.3-0.1-5.2,0.1-6.8,0c10.5,0.4,15.4-0.7,21.9,0c2.5-0.4,6.3-0.8,10.6-1.1c4.4-0.3,9.2-0.7,14-0.7c-3.6,0.6,10.2-0.7,5.6,0.4
	c3.6-0.6,12.1-0.8,13.5-1.4c-1.3,0.3-5.4,0.6-8.3,0.7c3.9-0.5,4.3-1,9-1.3c0.6,0,0.3,0.2,0.3,0.2c6.1-1,1.9-1.7,12.6-2.7
	c28.1-3.1-3.7,2.1,0.4,2.1c1-0.5,13.4-2,19-2.2l-1.3,0.3c2.8-0.5,7-1.2,10.1-1.2c1.6-0.8,4.8-1.8,6.7-2.4l12.5-1.5l-2.5,0.7
	c2.8-0.5,5.3-0.8,7.9-1.1c1.2,0.4-2.5,0.7-6.3,1.3c2.1,0.2,4.7-0.1,7.5-0.9l-1.6,0.2c3.2-0.6,14.8-2.7,5.4-1.8
	c6.9-1.3,9.3-0.6,14-1.4c0.6,0.3-3.8,1-1.3,1c4.7-0.5,7.8-0.8,11.5-1.4c-3.7,0.3,1-0.5-4.9-0.1c2.2-0.5,8.1-1.2,7.8-1.4
	c-1.9,0.3-3.2,0.6-6.5,0.8c6.2-0.9,12.8-1.7,19.3-2.1c-0.2,0.1-0.8,0.3-1.5,0.5c8.2-1.6,20.8-2.8,26.3-4l-2.5,0.1
	c-2,0.4-6.1,0.8-7.8,0.8c6.3-0.9-4.6-0.3,2-1.3c9.1-1.2,17.4-1.1,22.3-2.4c-8.7,0.7-20.6,1.2-24.1,2c1.9-0.2,3.8-0.4,5.6-0.5
	c-4.2,0.8-8.4,1.6-12.7,2.4c-0.6-0.3-11.3,1.4-11.2,0.8c4.4-0.6,8.4-1,11.9-1.4c-0.9-0.2-11.9,1.1-16.5,1.5l5.9-0.4
	c-10.3,1.7-23.7,3.1-33.8,4.7c7.9-1.5-10.2,0.7-4-0.5c2.5-0.7,6.8-0.6,5.6-0.6c0.7-0.7-6.2,0.6-8.4,0.4c-1,0.5-11.3,1.9-5.1,1.6
	c-3.4,0.1-10.7,1.6-15.3,1.7c1.5,0.5-8.5,1.4-10.1,1.9c-2,0.2-3.8,0.2-5.2,0.2c4.2-0.7,9.3-1.6,14.7-2.5c2.2-0.1,6.2-0.6,5-0.6
	l0-0.3c8.1-1.4,16.1-2.8,21.9-3.9c0.9-0.1,1.8-0.2,2.8-0.3l-0.5,0.1c0.3-0.1,0.6-0.1,0.9-0.2c47.2-5.5,94.4-10.9,141.8-10.3
	c-3.1,0.1-8.2-0.1-10.3,0.3l0.3-0.1L691,597c4.1,0,12.1-0.1,15.6-0.4c3.3,0,6.7,0.1,10,0.2l-8.3-0.5c0,0,0,0,0,0c0,0,0,0,0,0
	l-9.8-0.6c6.5-0.5,12.6-0.9,20.3-0.7c-2.5,0.2,0,0.4,0.6,0.5c21.3-1.8,42-1.8,63.5-1.4c9,0.2,18.1,0.3,27-1
	c17.3-2.6,33.9-10.9,51.3-9.5c6.5,0.5,14.2,2.1,18.7-2.7c5-5.4,0.9-14.9-5.6-18.3s-14.3-2.8-21.7-3c-9.6-0.3-19.2-2.2-28.8-1.4
	c-12.3,1-23.3,4.5-35.7,3.7c-8.8-0.5-18.1-2.3-26.9-2.1c5-0.2-3.1-0.9-7.1-1.5c-12.2-0.6-38-2.1-56.5-2.6c2.5-0.6-2.6-0.9-8.5-1.2
	c-5.9-0.2-12.6-0.5-13.3-1.2c-4.1-0.2-10.5-0.2-11,0.2c2.3-0.1,7.8,0.5,7,0.7c-6-0.2-15.1-0.5-16,0.1l-7.3-0.9
	c-0.3,0.3-1.5,0.6-3.5,0.7c-1.6-0.1-3.2-0.1-4.8-0.2c-2.9-0.5-3-0.3-3.2-0.1c-1.8-0.1-3.6-0.1-5.3-0.2c2.1-0.2,3.8-0.5,4.6-0.7
	c-6.3-0.3-5.4,0-9.9-0.1c-1.4-0.4,4.5-0.8,9.3-0.9l-8-0.6c-7.9,0.4-21.5,1-34,0.3c2.1-0.3,6.2-0.2,2.9-0.9c-5.4,0-12.7,0.5-19.8-0.2
	c1,0,0.4-0.1,1.4-0.1c-12.6,0.1-9.4-0.6-20.7-1.2c0.2-0.1,0.2-0.1,0.6-0.2l-7,0.1c-14.6,0.3-16-1.5-24.6-2.5l1.9,0
	c-2.7-0.5-8.4-0.8-14-1.2c-5.6-0.4-11.2-0.7-13.7-1c6,0.9,2,0.6,6.3,1.7c5.4,0.2,3.9-0.8,12.9,0.1c-1.3,0.7-12.7,0.1-15.1,0.5
	c-5-0.3-8.2-1.7-8.7-2.2c-12.5-0.9-19.5-1.9-34.9-3.2c-5.6,0-10.1,1-22.8-1.1l0.8-0.2c-0.5,0.4-6.2-0.7-8.9-0.6
	c4.3,1.1-5.6,0-0.3,1.2c-7.5-0.6-8.6-1.7-9.2-2.4c-5.5,0.6-14.9-1.7-26.6-1.6c2.1-0.4,14.8,0.3,9.7-0.5c-5,0.1-10.1,0.3-15.1,0.5
	l6.6,0.2c-11.4,0.3-14.5-0.6-21.1-1c-0.6-0.2,0.1-0.3,1.4-0.3c1.3,0,3.2,0,4.9,0c-3.5-0.2-9.1,0-13.7,0.3
	c-3.5,0.3-15.4,1.2-20.1,2.2c-0.6,0-1.3,0-1.9,0.1c0.2-0.1,0.5-0.2,0.9-0.2c-1,0.1-1.7,0.2-2.5,0.3c-2,0.2-4,0.3-6,0.5l1.2-0.3
	c-0.8,0.1-1.5,0.2-2.3,0.3c-2.1,0.1-4.1,0.4-6.2,0.6l-3.1,0.7l1.6-0.2c-0.2,0.4-2.1,1-5,1.7c-3.5,0.6-7,1.2-10.5,1.9
	c-3.6,0.8-7.3,1.6-10.9,2.5c-3.9,0.7-8.3,1.9-12.3,2.9c-5,1.2-9.5,2.2-11.8,2c13.3-3.5,19.7-5,34-8.4c3.9-0.3,1.6,0.2-1.7,1
	c-3.3,0.8-7.5,1.8-7.6,2.1c2.7-0.6,5.4-1.1,8.2-1.6c-1.4-0.4,15.9-3.3,11.3-3.6c-4.6,0.8-9.2,1.4-13.7,2.4
	c-4.5,0.9-8.8,1.9-13.1,2.9c-8.5,2-16.7,3.8-24.3,4.8c4.4-2.5,8.4-5.2,12.4-8c0-0.1,0.2-0.2,0.8-0.5l-0.8,0.5c0.1,0.2,3-0.6,6.3-1.6
	c-0.6,0.4-1.2,0.9,2.8-0.1c8.4-1.5,12.6-3.8,19.1-5l-2,0.5c3.1-0.5,6.6-1.1,9.9-1.7c3.3-0.6,6.4-1.1,8.8-1.7
	c2.6,0.1-1.8,0.8-5.7,1.4c-3.9,0.6-7.1,1.3-2.2,0.8c-3.4,0.5-7.5,1.3-11.3,2.2c-3.8,0.9-7.2,2-9.6,2.5c4.1-0.9,8.2-1.5,10.9-1.7
	c2.7-0.2,4.1,0,3,0.5c9-2,8.9-2.5,8.5-2.9c-0.4-0.4-1.2-0.8,7-2.2c3.8-0.5,7.7-0.7,11.5-1.1c1.3-0.5,2.5-1,3.8-1.4
	c6.9-0.5-4.1,1.2,6.4,0.3c2.8-0.8,9.7-0.5,11.8-0.9c-0.3,0.3-0.4,0.5,5,0.4c0.4-0.1-0.1-0.5,4.1-0.6c2.9,1-10.9,0.3-5.9,1.2
	c12-0.1,7.7-1,9.6-1.4c-0.4,0-1.1,0-2.3,0c0.1-0.4,5.3-0.1,4.7-0.5c-2-0.1-4.1,0.1-5.9,0.2c3.7-0.3-6-0.7-9.7-0.5
	c-8.4,0.6-26,1.6-37.6,3.6c1-0.2,3-0.6,1.7-0.5c-2.1,0.3-4,0.6-5.8,0.8c-1.8,0.3-3.5,0.6-5.1,0.9c-3.3,0.6-6.2,1.1-9.2,1.8
	c-5.9,1.3-11.9,2.8-20.1,4.8l-1.6,1.2c-7.2,1.6-8.6,2.3-8.8,2.9c-0.2,0.6,1,1-0.7,1.4c-3.1,0.6-5.8,1.5-8.5,1.3
	c0.5-0.2,0.9-0.3,1.4-0.5c-4.4,0.6-5,0.8-5.6,1c-0.5,0.2-1,0.4-4.9,0.3c-3.1,0.2-1.8,0.3-0.1,0.3c1.7,0,3.6,0,1.6,0.3
	c-2.1,0-3.5,0-4.6,0.1c-1.1,0.1-1.9,0.2-2.9,0.3c-1.9,0.1-4.4,0.2-11-1.5c0.4,0,0.1-0.3,0.7-0.4c0.6-0.1,2.1,0.1,5.9,0.7
	c-2.4-0.6-4.7-1.3-7.2-2c4.6,0.9,5.3,0.9,6.2,1c0.9,0.1,1.7,0.4,6,0.7c2-0.2,2.8-0.6,3.6-0.8c0.7-0.2,1.4-0.5,3.2-0.9
	c-1.6,0.1-2.2,0.3-3.1,0.5c-0.8,0.1-1.9,0.3-4.2,0c-5.5-0.8,1-0.3,1.5-0.5c-3.7,0.1-5.7-0.4-7.7-1c-2-0.6-3.8-1.2-7.9-1.7
	c1.1,1.2-0.3,0.9,4.7,2.6c-2.6-0.4-5.7-1.2-8.1-2c-2.4-0.8-4.1-1.4-3.6-1.8l-1.6,0.5c-1.4-0.5-6.4-1.2-6.7-1.4l-2.2,0.1
	c4.5,1,8.4,1.9,15.6,3.2c-3.1-0.2,3.5,2-6,0.2c-4.2-0.8-0.3-0.5-0.5-0.7c-2.8-0.5-5.4-0.8-7.6-1.1c-2.2-0.2-4.2-0.5-5.9-0.6
	c-1.8-0.2-3.3-0.3-4.8-0.4c-1.4-0.1-2.8-0.2-4.1-0.3c-5.1-0.2-9.9-0.5-18.7,0.7c4.3-0.9,15.4-1.3,24.3-1.4
	c-5.3-0.8-11.5,0.1-16.6,0.4c4.5-0.6,5.3-0.9-0.1-0.9c-0.7,0.2-1.4,0.4-2.1,0.6c-3.2,0.2-8.8,1-9.2,0.8c-0.1,0.2,1.3,0.1,4.2-0.1
	c-3.9,0.7-9.4,1.7-15.5,2.9c-6,1.2-12.7,2.6-19.2,3.9c3.6-0.7,7.8-2.3,11.4-3.4c-14.4,1.8-28.2,1-42.3,5.2
	c-7.5,2.2-14.9,5.2-22.7,6.3c-9.7,1.4-20.2,0-28.8,4.8c-3.7,2.1-7,6.6-4.9,10.3c1.2,2.1,3.8,3,5.7,4.6c4.6,3.8,4.4,11,8.1,15.7
	c2.4,3,6,4.5,9.5,6.2c9.8,4.6,18.9,10.6,27.2,17.7 M297.7,539.2l-5.5,1.2C294.2,539.9,296.3,539.4,297.7,539.2z M198,615.8
	c-1.4,0.3-3.3,0.6-5.1,0.9c-1.6,0.1-1.9,0-1.9,0C193.4,616.3,195.7,616,198,615.8z M102.7,591.4c-0.1-0.2-0.2-0.5-0.3-0.9
	C102.5,590.8,102.6,591.1,102.7,591.4z M272,610c-2.2,0.3-1.9,1.2-10.8,1.4c-0.1-0.1,0.6-0.2,1.5-0.3c-4,0.3-4.7,0.2-9.2,0.3
	c-1.4-0.6,5.4-0.9,8.3-1.5c-2.9,0.3-6,0.8-9.2,0.9l0.7-0.3c-3.1,0.3-6.3,0.6-9.4,1c-3.8,0.9,7.2-0.6,7.7-0.2l-6,0.9
	c-6.9,0.7-25.2,3.2-31.6,3c-8.1,0.7-4.4,1-6.3,1.7c-4.7,1.2-9.4,1-14.1,1.9c0.3,0.5-5.4,1.1-5.5,1.8l-7.9,0.7
	c-4.2,1.5,9.5-0.8,11.6-0.7c4.4,0.4-5.7,1-2.9,1.2c6-0.8,6.4-1.3,9.2-1.8c3.4-0.5,5.3-0.5,5.3-0.2c-9.7,0.8-5,1.4-12.9,2.2l-0.3-0.2
	c0,0.7-11.4,1.6-15.7,2.2c-8.9,0,6.9-1.6,6.6-1.8c-3.5,0.4-7.1,0.8-10.6,1.2c4.6-0.8-0.2-0.8,6-1.8c-6.4,0.8-7.3,0.2-13.4,1.1
	c6.9-1.4-8.8-0.2-9.6-0.9c6.8-0.4,18.8-0.5,19.4-0.3c1-0.2,8.8-0.8,11.9-1l4.8-1.5c-5.6,0.6-13.3,1.8-11.3,0.8
	c-2.6,0.4-5.1,0.8-7.7,1.1c7.8-1.9,7.4-1.8,14.4-3.1c-14.8,0.6-26.2,3.5-38.6,2.7l1.9-0.1c-6.1,0.2-11.1-0.2-15-1
	c-3.9-0.8-6.7-2-8.6-3.2c-0.1,0-0.1-0.1-0.2-0.1c0.4,0.2,0.7,0.4,1.1,0.5c6.8,2.9,15.3,3.2,23.4,3.1c12.9-0.2,25.8-1.3,38.6-2.8
	l-1.5,0.6c0.3-0.1,0.5-0.1,0.9-0.2c14.7-2.1,1.5,0.9,16.5-1.4c-0.6,0.2-0.8,0.3-1.1,0.4c6.1-1.1,17.4-2.2,18.6-3.1
	c-1.4,0.2-7.1,0.7-9.9,0.8c6.4-0.8,12.8-1.7,19.3-2.4c1.4,0,2.7-0.1,4.2-0.2l0,0h0c1.5-0.1,3.1-0.3,5.2-0.7c0.5-0.1,0.9-0.2,1.1-0.2
	c7.7-0.8,15.4-1.4,23.1-1.7C263.3,609.4,281,609,272,610z M296.1,609.7c-9.1-0.4-2.7-0.3-9.2-0.8c-0.4-0.1-0.1-0.2,0.4-0.3
	c6.8,0.2,13.7,0.5,20.5,1C301.9,609.3,295.7,609,296.1,609.7z M323.7,611.5c-3.1-0.3-11.9-0.8-12.6-1.5c4.3,0.3,5.5,0.4,5,0.2
	c4.4,0.4,8.9,0.8,13.3,1.2c0.2,0.1,0.5,0.2,1.2,0.3C328.7,611.7,325.6,611.5,323.7,611.5z M438.3,621c-7.9,0.1,0.4-0.4-3.6-0.7
	c-6,1-7.7-0.8-14.1,0.3c-7.7,0.1-5.2-0.5-7.7-0.9c7.6,0.1-3.5-0.8,6-0.9c-3.9-0.2-5.3-0.1-6.6,0.1c-1.3,0.2-2.4,0.4-5.7,0.1
	l-0.9-0.9c-3-0.2-7.6-0.5-12.6-0.8c-4.9-0.3-10.1-0.7-14.1-0.8c6.7,1-4,0.2-3,0.8c1.3-0.6,10.5,0.6,10.3,0.9c-4.8-0.2-16-1-20.4-1.5
	l8.7,1.2c-3.7,0.1-16.6-0.4-17-0.3c-3.9-0.7-9.9-1.3-11.8-1.9l7.5,0.2l2.5,0.8l4.4-0.2c-4.7-0.7-14.7-2.2-16.7-3
	c7.5,0.8,17.8,1.8,30.2,2.2c7.1,0.6,14.2,1.2,21.3,1.5c17,0.9,34,0.9,51,0.3c-0.1,0-0.2,0-0.4,0.1c-2,0.3-4.3,0.6-7.1,0.8
	c1.6-0.1,3.4-0.2,6,0c-4.6,0.6-9.1,1.3-13.7,1.7c3.5,0.1,5.5-0.2,7.6-0.6c2.2-0.3,4.5-0.7,8.8-0.7
	C446.8,619.7,447.4,620.1,438.3,621z M674.5,594.2c5.9,0.1,11.9,0.1,17.8,0l-0.1,0l5.8,0.5c-2.2,0.2-4.4,0.3-6.7,0.5L674.5,594.2z
	 M268,552.4c1.9-0.1,2.4,0.1,3,0.3c-1.5,0.2-3,0.3-4.5,0.4L268,552.4z M213.7,546.2c0.3-0.4,2.9-0.5,5.7-0.3
	c2.8,0.1,5.9,0.4,7.4,0.3c1.2,0.1,4.5,0.7,7,1.3c2.5,0.6,4.4,1.2,3.2,1.2c-3.5-0.9-5.3-0.9-7-1c-1.7,0-3.3-0.2-6.6-1.2
	c-1.3,0.3,0.5,0.8,3.1,1.3c-0.9-0.1-1.5,0-1.6,0.1c-1.3-0.2-2.6-0.4-3.9-0.6c-1.3-0.1-2.5-0.3-3.7-0.4
	C215,546.5,213,546.4,213.7,546.2z M204,546.2l-2.2,0.2c-8.6,0.3-14,1.2-17.1,1.7c-3,0.5-3.7,0.8-2.8,1c-2,0.3-4,0.6-6,1
	c3.5-1,6.8-1.9,8.7-2.3C191.7,546.5,199.5,546,204,546.2z M159.7,552.1c-0.4,0.3,0.1,0.3,0.9,0.2c-2.2,0.5-4.4,1.1-6.6,1.6
	C154.8,553.4,153.2,553.3,159.7,552.1z M97.9,583.7c0-1.2,0.5-2.4,0.8-3.5c0.8-1.7,1.6-2.9,1.9-3c-0.3-0.6,1-3.1,3.5-5.7
	c2.7-2.8,6.8-5.3,8.9-6.8c5.7-3,8.1-3.4,10-3.9c2.1-0.4,3.8-0.9,9.2-2.8c-1.4,0.2-2.9,0.5-4.3,0.8c4.8-1.7,8.4-2.8,12.1-3.8
	c3.7-1,7.6-1.9,13.2-3c1.6,0.3-5.1,1-7.5,2l5.5-0.6c-2.4,0.6-6.8,2.2-6.9,1.6c0.1,0.3-3.5,1.7,3.4-0.2l-5,1.8c0.3,0,0.8,0,1.2-0.1
	c-1.5,0.4-3.1,0.9-4.6,1.3c-2.1,0.3-5.6,1.3-8.9,1.8c-0.4-0.1,2.8-1.2,4.6-1.8c-4.9,1.1-8.9,2.7-11.4,3.8c3.6-1.3,4.5-1.4,4.8-1.3
	s-0.2,0.5,0.8,0.5c-2.1,0.8-4.9,1.9-7.4,3c-2.5,1.1-4.8,2.2-5.8,2.9c-1.4,0.6-2.7,1.3-3.8,1.9c-1.2,0.5-2.1,1.1-2.8,1.5
	c-1.4,0.7-1.9,0.7-0.6-0.7c-2.8,2.4-6,5.1-6.9,8.4c0.7-1.5,1.2-2.2,1.5-2.5c0.4-0.3,0.7-0.3,1-0.3c0.3,0,0.6-0.1,1.2-0.6
	c0.3-0.2,0.6-0.6,1-1.1c0.5-0.5,1-1.1,1.8-1.9c0.6-0.2,0.7-0.2,0.6,0.1c-2.6,2.1-4.7,4.5-6,7.1c-0.4,0.7-0.9,1.4-1.2,2
	c0.7-2-0.5-0.4-0.7-1c-0.3,0.7-0.4,1.3-0.4,1.8c-0.1,0.5-0.1,0.8,0,1.1c0,0.5,0.2,0.6,0.4,0.4c0.2-0.2,0.4-0.5,0.6-1
	c-0.1,0.5-0.3,0.9-0.3,1.4c-0.4,2.5,0,5,0.9,7.4c0.2,1.2,0.5,2.4,0.8,3.5c-1-1.7-1.8-3.5-2.4-5.3c-0.1,1.2,0.3,2.8,1.1,4.3
	c0.8,1.5,1.9,3,2.8,4.4c0.7,1.5-0.7,0-2.4-2.5c-1.8-2.5-3.3-6-4.1-7.9C98,586,97.8,584.9,97.9,583.7z"/>
<g>
	<g>
		<g>
			<path class="st4" d="M834.8,334.5H834c-20.3,0-36.8,16.5-36.8,36.8v201.4h35c21.8,0,39.4-17.7,39.4-39.4v-162
				C871.6,350.9,855.1,334.5,834.8,334.5z"/>
			<path class="st4" d="M124.3,334.5h0.8c20.3,0,36.8,16.5,36.8,36.8v201.4h-35c-21.8,0-39.4-17.7-39.4-39.4v-162
				C87.6,350.9,104,334.5,124.3,334.5z"/>
			<path class="st4" d="M799.1,390.1V415H152.2v-24.9c0-10.9,1-21.6,2.8-31.9c0-0.2,0.1-0.4,0.1-0.6c15.3-83.1-3-153.8,175.6-146
				h289.8c158.3,1.9,175.6,15.8,175.7,121.5v1c0,6.9-1.3,17,0,23.9C798.1,368.5,799.1,379.2,799.1,390.1z"/>
			<rect x="162" y="393.7" class="st4" width="635.2" height="179"/>
			<g>
				<path class="st5" d="M785,388.6c10.5,6.6,7.4,43.6,0.7,46c-6.8,2.4-149.5,5.1-149.5,5.1s-80.5,4-119.9,3.8
					c-52.6-0.2-150.5,0-200.6,0c-31.9,0-69.4-3.6-103.3-3.6c-27.4,0-32.9-2.6-40.3-3.2c-7.3-0.6-9.6-14.1-4-39.1
					c2.5-11.3,24-20.6,87.8-20.8c103.3-0.2,131.2,6.8,271.6,1.3c33.3-1.3,81.5,1.5,117.4,2.3C678.5,381,767.8,377.8,785,388.6z"/>
				<g>
					<path class="st5" d="M150.9,409.4c-0.6,0-1.2-0.5-1.2-1.2v-17.4c0-18.8-2.6-40.7-23-44.2c-12.4-2.1-24.6,8.9-24.7,9
						c-0.5,0.4-1.2,0.4-1.7-0.1c-0.4-0.5-0.4-1.2,0.1-1.7c0.5-0.5,13.1-11.9,26.7-9.6c22.1,3.8,25,26.9,25,46.6v17.4
						C152.1,408.9,151.6,409.4,150.9,409.4z"/>
				</g>
				<g>
					<path class="st5" d="M805.7,440.2c-0.6,0-1.1-0.5-1.2-1.1c0-0.1-0.8-14.2-1.1-31.7c0-0.9,0-2-0.1-3
						c-0.3-14.5-0.9-38.6,11.5-51.2c5.2-5.2,12.2-7.8,20.8-7.7c20.2,0.3,25.6,19.7,26.8,25.6c2.1,10.3,1,54,0.9,55.8
						c0,0.6-0.5,1.1-1.2,1.1c0,0,0,0,0,0c-0.7,0-1.2-0.6-1.2-1.2c0-0.5,1.1-45.2-0.9-55.3c-1.4-7-6.6-23.5-24.5-23.7
						c-0.2,0-0.4,0-0.5,0c-7.7,0-13.9,2.4-18.6,7c-11.7,11.8-11.2,35.4-10.8,49.5c0,1.1,0,2.1,0.1,3c0.3,17.4,1.1,31.4,1.1,31.6
						C806.9,439.6,806.4,440.2,805.7,440.2C805.8,440.2,805.7,440.2,805.7,440.2z"/>
				</g>
				<g>
					<path class="st5" d="M780.2,483C780.2,483,780.2,483,780.2,483c-1.5,0-145.3-2.1-155.2-2l-3.7,0c-96.8,1.4-167.1,2.1-197.9,1.9
						c-50.6-0.3-248.3-3.9-250.3-3.9c-0.6,0-1.2-0.5-1.2-1.2c0-0.6,0.6-1.2,1.2-1.2c2,0,199.7,3.6,250.3,3.9
						c30.8,0.2,101.1-0.5,197.9-1.9l3.7,0c10-0.1,153.8,2,155.3,2c0.7,0,1.2,0.5,1.2,1.2C781.4,482.4,780.9,483,780.2,483z"/>
				</g>
				<g>
					<path class="st5" d="M162.1,404.1C162.1,404.1,162.1,404.1,162.1,404.1c-0.7,0-1.2-0.6-1.2-1.3c0-0.1,0.6-7.9,0-19.6
						c-0.6-11.6-2.7-18.6-2.7-18.6c-0.2-0.6,0.1-1.3,0.8-1.5c0.6-0.2,1.3,0.1,1.5,0.8c0.1,0.3,2.3,7.3,2.9,19.2
						c0.6,11.9,0,19.8,0,19.9C163.2,403.6,162.7,404.1,162.1,404.1z"/>
				</g>
				<g>
					<path class="st5" d="M794,396.9c-0.6,0-1.1-0.5-1.2-1.1c0-0.2-0.3-4.7,0-13.7c0.3-8.9,1.5-19.7,1.5-19.8c0.1-0.6,0.7-1.1,1.3-1
						c0.7,0.1,1.1,0.7,1,1.3c0,0.1-1.2,10.8-1.5,19.6c-0.3,8.8,0,13.4,0,13.4C795.2,396.2,794.7,396.8,794,396.9
						C794,396.9,794,396.9,794,396.9z"/>
				</g>
			</g>
			<g>
				<path class="st5" d="M162,558.6c-0.6,0-1.2-0.5-1.2-1.2V443c0-0.6,0.5-1.2,1.2-1.2s1.2,0.5,1.2,1.2v114.4
					C163.1,558,162.6,558.6,162,558.6z"/>
			</g>
			<g>
				<path class="st5" d="M797.1,558.6c-0.7,0-1.2-0.5-1.2-1.2V421.5c0-0.6,0.5-1.2,1.2-1.2c0.7,0,1.2,0.5,1.2,1.2v135.9
					C798.3,558,797.8,558.6,797.1,558.6z"/>
			</g>
			<g>
				<g>
					<path class="st5" d="M864.8,517c-0.7,0-1.2-0.5-1.2-1.2v-67.1c0-0.6,0.5-1.2,1.2-1.2c0.7,0,1.2,0.5,1.2,1.2v67.1
						C865.9,516.4,865.4,517,864.8,517z"/>
				</g>
				<g>
					<path class="st5" d="M96.7,531.8c-0.7,0-1.2-0.5-1.2-1.2V404.4c0-0.6,0.5-1.2,1.2-1.2s1.2,0.5,1.2,1.2v126.3
						C97.9,531.3,97.3,531.8,96.7,531.8z"/>
				</g>
			</g>
		</g>
	</g>
</g>
<g>
	<g>
		<path class="st6" d="M605.1,279.5c1.3,2.3,2.3,4.7,2.9,7.3c0.1,0.5,0.9,0.3,0.8-0.2c-0.6-2.7-1.6-5.2-3-7.5
			C605.5,278.7,604.9,279.1,605.1,279.5L605.1,279.5z"/>
	</g>
</g>
<g>
	<path class="st5" d="M230.3,508.5c41.8,0.7,83.6,0.8,125.3,0.3c1.6,0,1.6-2.5,0-2.5c-41.8,0.5-83.6,0.4-125.3-0.3
		C228.7,505.9,228.7,508.4,230.3,508.5L230.3,508.5z"/>
</g>
<g>
	<path class="st5" d="M324.1,517.4c9.7,0,19.4-0.1,29-0.1c1.6,0,1.6-2.5,0-2.5c-9.7,0-19.4,0.1-29,0.1
		C322.5,514.9,322.5,517.4,324.1,517.4L324.1,517.4z"/>
</g>
<g>
	<path class="st5" d="M205,367.8c-4.9-25.1,1.6-50,9.3-73.8c0.5-1.5-1.9-2.2-2.4-0.7c-7.9,24.3-14.3,49.6-9.3,75.1
		C202.9,370.1,205.3,369.4,205,367.8L205,367.8z"/>
</g>
<g>
	<path class="st5" d="M223,276.5c0-0.2,0-0.4,0-0.5c0-1.6-2.5-1.6-2.5,0c0,0.2,0,0.4,0,0.5C220.5,278.1,223,278.2,223,276.5
		L223,276.5z"/>
</g>
<g>
	<path class="st5" d="M228,268.8c0-0.2,0-0.4,0-0.5c0-1.6-2.5-1.6-2.5,0c0,0.2,0,0.4,0,0.5C225.5,270.4,228,270.4,228,268.8
		L228,268.8z"/>
</g>
<g>
	<path class="st5" d="M234.5,259.8c7-5,14.5-9.3,22.4-12.9c1.5-0.7,0.2-2.8-1.3-2.2c-7.9,3.6-15.3,7.9-22.4,12.9
		C231.9,258.5,233.1,260.7,234.5,259.8L234.5,259.8z"/>
</g>
<g>
	<path class="st5" d="M736.2,242.2c16.7,12.5,29.7,29.5,36.9,49.1c8,21.8,7.9,45.3,7.6,68.3c0,1.6,2.5,1.6,2.5,0
		c0.3-24.5,0.3-49.5-9.1-72.5c-7.7-18.7-20.4-34.9-36.6-47C736.2,239.1,735,241.2,736.2,242.2L736.2,242.2z"/>
</g>
<g>
	<path class="st5" d="M780.2,370.9c1.6,0,1.6-2.5,0-2.5S778.6,370.9,780.2,370.9L780.2,370.9z"/>
</g>
<path class="st7" d="M596.6,261.1c-0.7,10.5,1.5,27.7,3.8,38c7.9,34.2,0.6,36.5,7.1,53.9c3.2,1.5,13.3-7.4,15-10.5s1.6-6.8,1.5-10.3
	c-0.7-19.8-3.3-39.5-7-59c-1.8-9.7-3.9-19.3-6.2-28.9c-1.1-4.6-1.7-22.1-7.2-13.1C598.9,238.9,597.1,252.4,596.6,261.1z"/>
<g>
	<g>
		<path class="st8" d="M431.1,411.9c-0.4,0.6-5.2,112.5-4.6,114.8c0.6,2.2,10.2,5.7,11.6,0.4c0.6-2.2,23.5-73.9,22-110.6
			C459.8,409.9,447.1,390.1,431.1,411.9z"/>
		<path class="st8" d="M438,527.8c0,0-2.8,18.8,0.2,25.6s5.6,16.5,3.3,20.4c-2.4,3.9-11.9,3.6-17.1-1.6c-5.2-5.2-7.6-8.4-6.9-12.2
			s3-12.2,4.1-15c3.9-10.8,4.4-17.6,4.7-18.9C428.1,519.5,437.4,520.4,438,527.8z"/>
		<path class="st9" d="M456.6,586c-0.2-0.8-0.3-1.6-0.4-2.4c-0.2-1.8-0.8-3.4-1.8-4.9c-0.5-0.8-1-1.6-1.4-2.5
			c-0.4-1-0.8-1.9-1.1-2.9c-0.9-2.6-1.8-5.2-2.2-7.9c-0.1-0.8-0.4-1.7-0.6-2.4c-0.4-1.3-1-2.5-1.5-3.8c-0.7-1.7-1.4-3.4-2.1-5.1
			c-0.7-1.6-1.4-3.2-1.6-5c-0.3-2.2-1-4.4-1.6-6.6c-0.2-0.7-0.5-1.4-0.9-2.1c-0.3-0.7-1-1-1.7-0.9c-2,0.3-3.8,0.9-5.5,2
			c-0.9,0.6-1.8,1.3-2.8,1.8c-1.7,0.8-3.4,1.4-5.4,1.1c-1.3-0.2-2.4-0.7-3-1.9c-0.2-0.3-0.4-0.7-0.6-1c-0.5-0.6-0.9-0.7-1.6-0.3
			c-0.4,0.3-0.8,0.5-1.1,0.9c-2.1,2-4.2,4.1-6.2,6.2c-1,1-1.8,2.2-2.5,3.5c-0.4,0.8-0.8,1.6-1.2,2.4c-0.2,0.4-0.5,0.8-0.6,1.1
			c0.3,0.9,0.7,1.5,1.3,2.1c1.6,1.7,3.1,3.5,4.7,5.3c0.1,0.1,0.2,0.3,0.3,0.4c2.3,3.3,4.8,6.3,7.3,9.4c0.5,0.6,1,1.2,1.5,1.7
			c1.5,1.5,3,2.9,4.5,4.3c2,1.9,4,3.8,6.1,5.6c1.5,1.3,3.1,2.3,5,2.9c0.2,0.1,0.4,0.2,0.6,0.3c1.1,0.3,2.2,0.6,3.3,0.9
			c0.2,0,0.4,0,0.6,0c1,0.3,2,0.3,3.1,0.3c2.6,0,5.2-0.2,7.8-0.9c0.3-0.1,0.6-0.1,0.9-0.3C456.5,587,456.7,586.6,456.6,586z"/>
		<path class="st10" d="M445.2,593.2c-0.5-0.2-0.9-0.4-1.4-0.6c-1-0.5-2-1-3-1.4c-1.2-0.6-2.4-1.1-3.6-1.7c-0.7-0.3-1.4-0.8-2-1.2
			c-1.4-1.1-2.9-1.9-4.5-2.6c-2-1-3.8-2.3-5.2-4.1c-0.8-0.9-1.3-2-1.6-3.2c-0.3-1.3-0.4-2.6-0.4-3.9c0-1.2,0.6-1.9,1.5-2.6
			c1.3-0.9,2.8-1.4,4.3-1.2c1.1,0.1,2.3,0.3,3.2,1.2c0.1,0.1,0.2,0.1,0.2,0.2c0.9,1.7,2.4,3.2,2.6,5.2c0.1,0.7,0.4,1.3,0.9,1.9
			c0.7,0.8,1.2,1.7,1.9,2.5c0.8,1,1.9,1.7,3.1,2.1c1.5,0.5,3,0.9,4.5,0.9c0.8,0,1.5,0,2.3-0.1c1.9-0.3,3.9-0.3,5.8,0
			c0.7,0.1,1.4,0.1,2.1,0.2c2.1,0.2,2.8,1.5,2.6,3.1c-0.2,1.9-1.1,3.6-2.7,4.8c-1.4,1-3,1.4-4.7,1.4c-1.2,0-2.4,0-3.6-0.2
			c-0.1,0-0.2,0-0.2,0.1C446.7,593.6,446,593.4,445.2,593.2z"/>
		<path class="st10" d="M407.3,553.8c0.3-1,1-2,2.1-2.6c0.9-0.5,1.7-0.5,2.6,0.2c1.1,1,2.1,2.1,2.3,3.6c0.1,0.7,0.5,1.2,1.1,1.5
			c1,0.6,1.9,1.2,2.8,1.8c1.1,0.7,2,1.6,2.7,2.7c0.3,0.4,0.5,1,0.6,1.5c0.2,0.7,0.2,1.3,0.4,2c0.2,0.8,0.4,1.6,0.6,2.4
			c0.3,0.9,0.7,1.8,1,2.7c0.1,0.3,0.2,0.6,0.2,0.9c0.1,0.5-0.2,0.9-0.7,1c-0.3,0.1-0.6,0.1-0.9,0.1c-0.9,0-1.8-0.1-2.6-0.5
			c-1-0.4-2-0.6-3.1-0.9c-2.1-0.5-3.7-1.6-4.9-3.3c-0.7-0.9-1.4-1.8-2.1-2.6c-1-1.1-1.5-2.5-1.5-3.9c0-1.1-0.2-2.1-0.5-3.1
			C407,556.3,406.9,555.1,407.3,553.8z"/>
		<path class="st10" d="M449.7,541.6c1.2,0.5,2.4,1,3.5,1.6c1.1,0.5,2,1.3,2.7,2.4c0.8,1.2,0.3,2.6-1.1,3c-0.4,0.1-0.9,0.1-1.3,0.1
			c-1.3,0-2.6-0.2-3.8-0.7c-1.1-0.5-2.2-1-3.3-1.7c-0.9-0.5-1.7-1.2-2.6-1.8c-0.7-0.5-1.4-1-2-1.5c-0.9-0.7-1.6-1.4-1.7-2.7
			c0.2-0.2,0.4-0.4,0.7-0.6c2.4-1.5,5-2.4,7.9-2.9c1.7-0.3,3.3-0.4,5-0.2c1,0.1,2,0.4,2.9,1.1c1,0.9,0.8,2.2-0.3,2.8
			c-0.8,0.5-1.6,0.6-2.4,0.7C452.4,541.5,451.1,541.5,449.7,541.6z M454.9,546.7c-0.6-1.2-1.5-2-2.6-2.5c-1.2-0.6-2.4-1.1-3.8-1.4
			c-0.7-0.2-1.5-0.3-2.2-0.4c-0.9-0.2-1.8-0.4-2.7-0.5c-0.4-0.1-0.7-0.1-1.3-0.1c0.7,0.5,1.2,0.8,1.7,1.2c1.7,1.5,3.6,2.7,5.8,3.6
			c1.3,0.6,2.7,0.8,4.1,0.8C454.2,547.3,454.6,547.2,454.9,546.7z M455.7,539.2c-0.2-0.6-0.7-0.7-1.1-0.9c-1-0.4-2.1-0.4-3.2-0.4
			c-2.6,0-5.1,0.6-7.5,1.6c-0.2,0.1-0.3,0.2-0.6,0.4c3.5,0.3,6.8,0.4,10.1,0C454.2,539.9,455,539.8,455.7,539.2z"/>
		<path class="st10" d="M443.9,546.5c-0.5-0.1-0.9-0.2-1.3-0.2c-1.6-0.1-3.1,0.2-4.5,0.7c-1.4,0.5-2.7,1.2-4.1,1.8
			c-0.1,0-0.2,0.1-0.3,0.1c-0.5-0.2-0.6-0.5-0.6-1c0.4-0.5,1.1-0.8,1.7-1c2.2-1,4.5-1.7,6.9-1.8c0.8,0,1.7,0,2.5,0.5
			C444.1,545.8,444,546.1,443.9,546.5z"/>
		<path class="st10" d="M447,554.7c0.2,0.7-0.1,1.1-0.8,1c-1.1-0.2-2.2,0-3.2,0.2c-1.7,0.3-3.3,1-4.9,1.8c-0.4,0.2-0.8,0.3-1.1,0
			c-0.1-0.7,0-1.1,0.7-1.3c2-0.8,3.9-1.6,6-1.8C445.6,554.2,445.8,554.2,447,554.7z"/>
		<path class="st10" d="M438.6,560.9c0.3-0.6,0.9-0.9,1.4-1.1c2.6-1,5.4-1.4,8.1-1.3c0.3,0.2,0.5,0.5,0.3,0.8
			c-0.1,0.4-0.5,0.4-0.8,0.4c-1.2,0.1-2.4,0.2-3.6,0.4c-1.5,0.2-3.1,0.7-4.5,1.4C439.2,561.8,439,561.6,438.6,560.9z"/>
		<path class="st10" d="M436.4,553.4c-0.5-0.7-0.5-1.1-0.1-1.5c0.2-0.2,0.5-0.5,0.8-0.6c2.3-1,4.6-1.5,7.1-1.6c0.3,0,0.7,0,1,0.3
			c-0.1,0.2-0.1,0.5-0.2,0.8c-1,0.1-2,0.2-3,0.4c-1.5,0.2-2.9,0.6-4.2,1.4c-0.3,0.2-0.5,0.4-0.7,0.5
			C436.9,553.2,436.7,553.2,436.4,553.4z"/>
		<path class="st10" d="M449.5,563.9c-1.6-0.2-3-0.1-4.5,0.2c-1.4,0.3-2.8,0.7-4.1,1.1c-0.6-0.6-0.6-1.1,0.2-1.5
			c0.5-0.2,1-0.3,1.5-0.5c1.9-0.5,3.7-0.8,5.6-0.8c0.5,0,0.9,0.1,1.4,0.4C449.6,563.3,449.6,563.6,449.5,563.9z"/>
		<path class="st10" d="M442.4,569.2c-0.2-0.7,0-1,0.6-1.2c1.9-0.6,3.8-0.8,5.7-0.9c0.5,0,1.1,0,1.6,0c0.5,0,0.8,0.1,0.9,0.7
			c-0.2,0.5-0.5,0.6-1,0.6c-1.6,0-3.3,0-4.9,0.4c-0.6,0.1-1.2,0.3-1.8,0.5C443,569.4,443.1,569.4,442.4,569.2z"/>
		<path class="st11" d="M416.9,548.1c1.5,0.7,2.9,1.7,3.6,3.2c0.8,1.8,1.6,3.6,2.4,5.4c0.4,0.9,0.7,1.9,1.3,2.7
			c0.8,1.3,2,2.1,3.3,2.8c1,0.7,2.1,1.2,3.2,1.9c1,0.7,1.8,1.5,2.3,2.6c0.9,2,2.3,3.5,4.3,4.5c1.1,0.6,2.1,1.3,3.2,2
			c0.4,0.1,0.8,0.2,1.1,0.3c1-0.3,1.5-1,1.6-2c0.1-1.9-0.2-3.8-1.2-5.5c-0.8-1.3-1.6-2.6-2.5-3.9c-0.9-1.3-1.5-2.6-1.6-4.2
			c-0.2-2.2-1-4.1-2.3-5.9c-1-1.5-1.8-3-1.8-4.9c0-1.2-0.2-2.5-0.2-3.7c0-0.5,0-1,0-1.5c-0.5,0.3-0.9,0.6-1.4,0.9c0,0.2,0,0.3,0,0.5
			c0.1,1.5,0.2,2.9,0.3,4.4c0.1,1.7,0.7,3.2,1.6,4.5c1.3,1.8,2.2,3.8,2.4,6.1c0.1,0.9,0.4,1.9,0.8,2.7c0.6,1.2,1.4,2.2,2.1,3.3
			c0.5,0.8,1.1,1.6,1.5,2.4c0.8,1.5,1,3.2,0.9,4.8c0,0.1-0.1,0.2-0.1,0.4c-0.5,0-0.9-0.2-1.2-0.4c-1.2-0.8-2.4-1.5-3.7-2.2
			c-0.8-0.5-1.4-1.1-1.9-1.8c-0.4-0.7-0.8-1.3-1.1-2c-0.5-1-1.2-1.8-2.1-2.4c-0.7-0.5-1.5-0.9-2.2-1.4c-1.1-0.7-2.2-1.3-3.2-2.1
			c-0.5-0.3-0.9-0.9-1.2-1.4c-0.5-0.8-0.8-1.7-1.1-2.5c-0.8-2-1.5-3.9-2.6-5.7c-1.1-1.8-2.7-2.9-4.7-3.5c-0.5-0.1-0.9-0.2-1.4-0.3
			c-0.4,0.4-0.7,0.7-1.1,1.1c0.7,0.1,1.4,0.2,2.1,0.3C416.4,548,416.6,548,416.9,548.1z"/>
	</g>
	<g>
		<path class="st8" d="M361.1,431.2c-0.3,0.7-0.9,117.8,0.2,120c1.1,2.2,11.8,3.6,12.1-2.1c0.1-2.4,8.1-82-1.6-119.7
			C370,422.6,372.8,405.1,361.1,431.2z"/>
		<path class="st8" d="M373.5,549.9c0,0,1.3,20.1,5.8,26.6c4.6,6.5,9.5,15.9,7.9,20.5c-1.6,4.6-11.5,6.4-18.1,2.2
			c-6.5-4.2-9.8-7.1-9.9-11.2s0.5-13.3,0.9-16.5c1.6-12.1,0.6-19.2,0.7-20.7C361.3,543.4,371.2,542.3,373.5,549.9z"/>
		<path class="st9" d="M405.6,606.2c-0.3-0.8-0.7-1.6-1-2.4c-0.6-1.8-1.6-3.4-3-4.7c-0.7-0.7-1.4-1.5-2-2.3
			c-0.6-0.9-1.2-1.8-1.8-2.8c-1.5-2.5-3-5-4.1-7.7c-0.3-0.8-0.7-1.6-1.2-2.4c-0.7-1.2-1.5-2.4-2.4-3.6c-1.1-1.6-2.2-3.2-3.3-4.8
			c-1-1.5-2.2-3-2.8-4.8c-0.8-2.3-2-4.3-3.1-6.5c-0.4-0.7-0.9-1.3-1.4-2c-0.5-0.7-1.2-0.9-2-0.5c-2,0.8-3.8,1.8-5.3,3.3
			c-0.8,0.8-1.6,1.7-2.5,2.4c-1.6,1.2-3.3,2.2-5.3,2.3c-1.4,0.1-2.6-0.2-3.5-1.3c-0.3-0.3-0.5-0.6-0.9-0.9c-0.6-0.6-1.1-0.5-1.7,0
			c-0.4,0.4-0.7,0.7-1,1.2c-1.7,2.6-3.4,5.2-5.1,7.8c-0.9,1.3-1.4,2.7-1.8,4.2c-0.2,0.9-0.5,1.8-0.7,2.8c-0.1,0.5-0.3,0.9-0.4,1.3
			c0.5,0.9,1.1,1.4,1.8,1.9c2,1.4,4,3,6.1,4.4c0.1,0.1,0.3,0.2,0.4,0.3c3.1,2.9,6.4,5.5,9.7,8.1c0.6,0.5,1.3,1,2,1.4
			c1.9,1.2,3.7,2.4,5.6,3.5c2.5,1.5,5,3,7.6,4.5c1.8,1,3.8,1.7,5.8,1.9c0.2,0,0.4,0.1,0.7,0.2c1.2,0.1,2.4,0.1,3.6,0.2
			c0.2,0,0.4-0.1,0.6-0.1c1.1,0.1,2.2-0.2,3.3-0.4c2.7-0.6,5.4-1.4,7.9-2.6c0.3-0.2,0.6-0.3,0.9-0.5
			C405.7,607.3,405.9,606.8,405.6,606.2z"/>
		<path class="st10" d="M395.4,616.2c-0.5-0.1-1-0.2-1.5-0.3c-1.1-0.3-2.2-0.6-3.4-0.8c-1.4-0.3-2.7-0.6-4.1-1
			c-0.8-0.2-1.6-0.5-2.4-0.8c-1.7-0.8-3.5-1.3-5.3-1.7c-2.3-0.5-4.4-1.6-6.3-3.1c-1-0.8-1.8-1.8-2.3-3c-0.6-1.3-1-2.6-1.3-4
			c-0.2-1.2,0.2-2.2,1-3c1.1-1.2,2.6-2,4.2-2.2c1.2-0.1,2.5-0.2,3.5,0.6c0.1,0.1,0.2,0.1,0.3,0.2c1.3,1.6,3.2,2.8,3.9,4.8
			c0.2,0.7,0.7,1.3,1.3,1.8c0.9,0.7,1.6,1.5,2.5,2.2c1.1,0.9,2.4,1.3,3.7,1.5c1.6,0.2,3.3,0.3,4.9,0c0.8-0.2,1.6-0.3,2.3-0.6
			c1.9-0.7,4-1.1,6-1.3c0.7-0.1,1.5-0.2,2.2-0.3c2.2-0.3,3.3,1,3.4,2.6c0.2,2-0.3,4-1.7,5.6c-1.2,1.4-2.8,2.1-4.6,2.5
			c-1.2,0.3-2.5,0.6-3.8,0.5c-0.1,0-0.1,0.1-0.2,0.1C397.1,616.2,396.2,616.2,395.4,616.2z"/>
		<path class="st10" d="M347.3,583.7c0.1-1.2,0.6-2.3,1.6-3.1c0.9-0.7,1.6-0.9,2.7-0.3c1.4,0.7,2.6,1.7,3.2,3.2
			c0.2,0.7,0.8,1.1,1.5,1.4c1.1,0.4,2.2,0.8,3.4,1.3c1.3,0.5,2.4,1.2,3.4,2.2c0.4,0.4,0.7,0.9,1,1.4c0.3,0.6,0.5,1.3,0.8,2
			c0.4,0.8,0.8,1.6,1.2,2.4c0.5,0.9,1.1,1.7,1.6,2.6c0.2,0.3,0.3,0.6,0.4,0.9c0.2,0.5,0,1-0.5,1.2c-0.3,0.2-0.6,0.3-0.9,0.3
			c-0.9,0.1-1.9,0.3-2.8,0.1c-1.1-0.2-2.3-0.2-3.4-0.2c-2.3,0-4.1-0.8-5.8-2.3c-0.9-0.8-1.8-1.5-2.8-2.2c-1.3-0.9-2-2.2-2.4-3.8
			c-0.2-1.1-0.7-2.2-1.2-3.2C347.5,586.3,347.3,585.1,347.3,583.7z"/>
		<path class="st10" d="M388.6,561.6c1.4,0.3,2.7,0.5,4,0.8c1.3,0.3,2.4,1,3.3,1.9c1.1,1.1,0.9,2.6-0.5,3.3
			c-0.4,0.2-0.9,0.3-1.4,0.4c-1.4,0.3-2.7,0.4-4.1,0.2c-1.3-0.2-2.5-0.6-3.8-1c-1-0.3-2-0.8-3-1.3c-0.8-0.4-1.6-0.8-2.4-1.1
			c-1-0.5-2-1.1-2.4-2.4c0.1-0.2,0.3-0.5,0.6-0.8c2.2-2,4.7-3.6,7.5-4.7c1.7-0.7,3.4-1.1,5.2-1.3c1.1-0.1,2.2,0,3.2,0.5
			c1.2,0.7,1.4,2,0.4,3c-0.7,0.6-1.5,0.9-2.4,1.2C391.5,560.9,390.1,561.2,388.6,561.6z M395.2,565.8c-0.8-1.1-2-1.8-3.3-2
			c-1.4-0.3-2.8-0.6-4.2-0.6c-0.8,0-1.6,0-2.4,0c-1,0-2,0-2.9,0c-0.4,0-0.8,0.1-1.3,0.2c0.8,0.3,1.4,0.5,2,0.8
			c2.1,1.2,4.4,2,6.8,2.5c1.5,0.3,3,0.2,4.4-0.1C394.6,566.5,395,566.3,395.2,565.8z M394.3,557.8c-0.3-0.5-0.9-0.6-1.4-0.7
			c-1.1-0.2-2.3,0.1-3.4,0.3c-2.7,0.6-5.1,1.8-7.4,3.3c-0.2,0.1-0.3,0.3-0.5,0.5c3.7-0.4,7.1-1.1,10.5-2.2
			C392.9,558.9,393.8,558.6,394.3,557.8z"/>
		<path class="st10" d="M383.7,568c-0.6,0-1,0-1.4,0c-1.6,0.3-3.2,0.9-4.5,1.8c-1.3,0.8-2.6,1.8-3.9,2.7c-0.1,0.1-0.2,0.1-0.3,0.2
			c-0.5-0.1-0.8-0.3-0.8-0.9c0.3-0.6,0.9-1,1.5-1.5c2-1.6,4.3-2.7,6.7-3.4c0.8-0.2,1.8-0.4,2.7,0C383.7,567.3,383.7,567.6,383.7,568
			z"/>
		<path class="st10" d="M388.8,575.8c0.4,0.7,0.2,1.1-0.6,1.2c-1.2,0-2.3,0.5-3.3,0.9c-1.7,0.7-3.2,1.7-4.7,2.9
			c-0.4,0.3-0.7,0.5-1.2,0.2c-0.3-0.7-0.2-1.1,0.4-1.5c1.9-1.2,3.7-2.5,5.9-3.2C387.2,575.6,387.4,575.6,388.8,575.8z"/>
		<path class="st10" d="M381.5,584.1c0.2-0.7,0.7-1.1,1.2-1.4c2.5-1.6,5.3-2.6,8.1-3.2c0.4,0.2,0.6,0.4,0.5,0.8
			c0,0.4-0.4,0.5-0.7,0.6c-1.2,0.4-2.5,0.7-3.6,1.2c-1.6,0.6-3,1.4-4.3,2.5C382.2,584.9,381.9,584.8,381.5,584.1z"/>
		<path class="st10" d="M377.5,576.8c-0.7-0.6-0.8-1-0.4-1.6c0.2-0.3,0.4-0.6,0.7-0.8c2.1-1.5,4.5-2.6,7-3.3
			c0.4-0.1,0.7-0.2,1.1,0.2c0,0.2,0,0.5,0,0.9c-1,0.4-2,0.7-3,1.1c-1.5,0.6-2.9,1.3-4.1,2.3c-0.2,0.2-0.4,0.5-0.6,0.7
			C377.9,576.5,377.7,576.6,377.5,576.8z"/>
		<path class="st10" d="M393.4,584.8c-1.7,0.2-3.2,0.6-4.6,1.2c-1.4,0.7-2.7,1.4-4,2.1c-0.8-0.4-0.8-1-0.1-1.5
			c0.5-0.3,1-0.6,1.5-0.8c1.8-0.9,3.7-1.7,5.7-2.1c0.5-0.1,1-0.1,1.6,0.1C393.4,584.2,393.4,584.5,393.4,584.8z"/>
		<path class="st10" d="M387.2,591.9c-0.3-0.7-0.3-1,0.3-1.4c1.8-1,3.7-1.7,5.8-2.2c0.5-0.1,1.1-0.2,1.7-0.3c0.5-0.1,0.9,0,1.1,0.5
			c0,0.6-0.4,0.8-1,0.9c-1.7,0.3-3.4,0.7-5,1.5c-0.6,0.3-1.2,0.6-1.8,0.9C387.9,592,387.9,592,387.2,591.9z"/>
		<path class="st11" d="M356,575.6c1.8,0.4,3.4,1.1,4.5,2.6c1.3,1.7,2.5,3.4,3.7,5.1c0.6,0.9,1.2,1.8,1.9,2.6c1.1,1.2,2.6,1.7,4,2.2
			c1.2,0.5,2.5,0.8,3.7,1.3c1.2,0.5,2.2,1.2,2.9,2.2c1.3,1.9,3.2,3.1,5.4,3.7c1.3,0.3,2.5,0.9,3.8,1.4c0.4,0,0.8,0,1.2,0.1
			c1-0.5,1.4-1.3,1.2-2.4c-0.3-2-1-3.9-2.5-5.5c-1.1-1.2-2.3-2.4-3.5-3.5c-1.2-1.1-2.1-2.4-2.6-4c-0.7-2.2-2-4-3.7-5.6
			c-1.4-1.3-2.6-2.7-3-4.7c-0.3-1.3-0.7-2.5-1.1-3.8c-0.1-0.5-0.3-1-0.3-1.6c-0.4,0.4-0.8,0.8-1.2,1.2c0,0.2,0.1,0.3,0.1,0.5
			c0.5,1.5,0.9,3,1.3,4.5c0.5,1.7,1.4,3.2,2.7,4.3c1.8,1.6,3.1,3.5,3.9,5.8c0.3,0.9,0.8,1.9,1.5,2.7c0.9,1.1,1.9,2,2.9,3
			c0.7,0.7,1.5,1.4,2.1,2.2c1.1,1.4,1.7,3,2,4.8c0,0.1,0,0.3-0.1,0.4c-0.5,0.1-0.9,0-1.3-0.1c-1.4-0.5-2.9-1-4.3-1.5
			c-0.9-0.3-1.7-0.8-2.3-1.5c-0.6-0.6-1.1-1.2-1.6-1.8c-0.7-0.9-1.6-1.6-2.7-2c-0.8-0.4-1.7-0.7-2.6-1c-1.3-0.5-2.6-0.9-3.8-1.5
			c-0.6-0.3-1.1-0.7-1.5-1.2c-0.6-0.7-1.2-1.6-1.7-2.4c-1.2-1.8-2.5-3.8-4-5.4c-1.5-1.6-3.4-2.5-5.6-2.5c-0.5,0-1,0-1.5,0
			c-0.3,0.5-0.6,0.9-0.9,1.4c0.7,0,1.5-0.1,2.2-0.1C355.5,575.6,355.7,575.6,356,575.6z"/>
	</g>
	<path class="st12" d="M385.8,557c-14.6,0.8-31.1-1.9-32.3-18.9c-1.6-23.1-0.1-82.2-1.1-111.3c-0.1-3.1,0.5-6.2-0.5-9.1
		c-0.7-1.9-1.9-3.5-2.9-5.2c-4.1-7.4-5.4-21.9-3.5-30.1c3.1-12.9,11.9-25.4,25.9-29.9c4.8-1.5,10-0.7,15,0.1
		c8.1,1.4,16.3,2.8,24.4,4.2c5.3,0.9,14.5,0.6,18.6,4.3c5,4.6,30,46.4,32.8,52.7c6.4,14.4-1.1,38.7-4.8,56c-1.4,6.5-2.7,13-4.1,19.5
		c-2.4,11.5-5.1,22.3-6.7,33.8c-0.5,3.5-0.9,7-2.5,10.1c-3.3,6.4-10.8,9.4-17.8,10.9c-7.6,1.7-13.7,3.1-20.4,7
		C399.8,554.7,393,556.7,385.8,557z"/>
	<path class="st13" d="M360.4,159.6c-2,7.4-2.9,15.3-2.4,23c0.5,8.4,1.4,14.1,1.3,22.5c0,4.1-2.9,13.9,0.4,21.5
		c1.4,3.3,14.3,9.3,17.1,11.7c1.8,1.6,3.3,3.5,5.2,4.9c5.8,4.5,8-8,14.9-7.4c8.9,0.8,17.7,1.6,26.5,2.5l-0.2-43.6
		c-7.2-4.1-13.6-8.2-20-13.4c-2-1.6-4.1-3.3-5.6-5.5c-2.9-4.3-2.9-9.9-2.1-14.9s2.4-10.1,2.4-15.2c0-5.1-2-10.7-6.5-13.2
		c-3-1.6-6.6-1.6-9.8-0.6c-3.2,1-6,3.1-8.5,5.4C366.8,143.1,362.6,151.1,360.4,159.6z"/>
	<path class="st8" d="M395.5,235.5L395.5,235.5c-7.6,0-13.7-6.1-13.7-13.7v-31.4h27.4v31.4C409.2,229.4,403,235.5,395.5,235.5z"/>
	<path class="st14" d="M401.3,200.8c-4.7-1.1-2.7-0.6-5.4-0.4c-4.7,0.3-9.5,1-13.8,3.2c-0.1,0-0.1,0.1-0.2,0.1v11.7
		c2.6,3.6,6.9,5,10.9,5.4c5,0.4,9.3-3.8,9.1-8.8L401.3,200.8z"/>
	<path class="st8" d="M399.5,141c-30.2-1.1-28.5,25.4-28.5,26.6c0.5,12.4,0.2,22.5,5,31.1c3,5.3,13.2,18,20.9,18.4
		c5.1,0.3,14.1-7.5,17.6-12.8c7.6-11.8,10.7-22.9,10.8-34.6C425.5,155.1,424.4,141.9,399.5,141z"/>
	<path class="st8" d="M367.9,185.1c1.4,2.1,6.5,6.7,8.5,3.3c1-1.7-0.5-3.7-1.3-5.2c-0.2-0.4-0.5-0.9-0.7-1.3
		c0.8,1.4,2.9,0.1,2.2-1.3c-1.1-2.3-4.2-9.6-7.9-6.8C365.7,176,364.9,180.2,367.9,185.1z"/>
	<path class="st13" d="M419.7,171.9c-2.9-1.3-5.7-2.8-8.9-2.4c-1.2,0.1-4.8,1.2-2.9,3.1c0.9,0.9,7.7,0.8,11.2,1.6
		C420.7,174.6,421.4,172.7,419.7,171.9z"/>
	<path class="st13" d="M383.1,173.8c0.2-0.6,0.5-1.2,0.8-1.4c2.5-2,5.5-3.2,8.7-3.1c1.2,0,4.9,0.8,3.1,2.9c-0.8,0.9-7.7,1.1-10.8,3
		C383.3,176.1,382.7,175.2,383.1,173.8z"/>
	<path class="st8" d="M427.2,175.2c-3.5-3-7.1,4.1-8.4,6.3c-0.8,1.4,1.2,2.8,2.1,1.5c-0.3,0.4-0.5,0.8-0.8,1.2
		c-0.9,1.4-2.6,3.3-1.7,5.1c1.8,3.5,7.2-0.7,8.7-2.8C430.5,181.9,430,177.7,427.2,175.2z"/>
	<path class="st15" d="M423.4,185.4c-0.7-1.2-2.7-0.2-2,1.1c0.7,1.2,1,2.4,0.9,3.7c-0.1,1.4,2.1,1.5,2.2,0.1
		C424.6,188.5,424.2,186.9,423.4,185.4z"/>
	<path class="st13" d="M404.1,163c6.1-0.9,13.6,1.2,16.4-4.5c-0.4,0.8,1.8,10.9-0.2,30.6c-1,10-4.8,16-8,25.7
		c-1.9,5.9-3.6,13.1-7.1,18.2c-1,1.5-2.1,2.9-3,4.4c-0.4,0.7-0.9,1.5-0.7,2.3c0.1,0.8,0.8,1.5,1.6,1.7s1.6,0.2,2.5,0.2
		c7.6-0.7,14.8-5.3,18.6-12.1c0.7-1.2,1.2-2.5,1.8-3.8c5.2-11.6,11.4-23.5,13.3-36.2c1.4-9.3,0.2-18.8-1.7-28.1
		c-0.6-3-1.2-5.9-2.5-8.7c-1.5-3.4-4-6.4-7.1-8.5c-1.2-0.8-3-1.2-4.1-2.1c-1.2-1.1-1.6-2.8-2.5-4c-2-2.7-4.7-4.9-7.7-6.5
		c-4.9-2.6-10.6-3.7-16.1-3.8c-6.9-0.2-14,1.1-19.8,4.9c-3.5,2.3-6.4,5.4-8.9,8.8c-2.7,3.6-5.1,7.5-6.1,11.9s-0.6,9.2,2,12.9
		c1.8,2.6,4.6,4.6,5.8,7.5c1,2.4,1.1,4.9,2.4,7.1c1.9-1.8,0.7-5.5,2.2-8.3c1.9-3.7,6-6.3,9.9-7.5c0.5-0.2,1.1-0.3,1.7-0.4
		C392.2,163.4,398.3,163.9,404.1,163z"/>
	<g>
		<g>
			<path class="st16" d="M402.9,176.9c-0.7,3.1-1.1,6.8,0.4,9.8c0.5,1.1,1.5,1.7,2.1,2.7c0.9,0.2,1.1,0.7,0.7,1.5c0,1-0.4,1.6-1.4,2
				c-1.2,0.7-2.5,0.9-3.9,0.7c-0.7-0.1-0.7,1,0,1.1c2.4,0.2,6.7-1,7-4c0.1-0.8-0.3-0.9-0.8-1.5c-2-2.5-3.3-2.8-3.6-6.2
				c-0.2-2,0.1-3.9,0.5-5.8C404.1,176.5,403.1,176.2,402.9,176.9L402.9,176.9z"/>
		</g>
	</g>
	<g>
		<g>
			<path class="st13" d="M374.6,146c7.5-7.5,18.1-10.5,28.5-8.1c1.4,0.3,1.9-1.8,0.6-2.1c-11.1-2.6-22.5,0.6-30.6,8.7
				C372.1,145.4,373.7,147,374.6,146L374.6,146z"/>
		</g>
	</g>
	<g>
		<g>
			<path class="st17" d="M433.1,174.9c0.2,9.6-2.9,18.4-6.1,27.3c-0.2,0.5,0.6,0.7,0.8,0.2c3.3-8.9,6.3-17.9,6.1-27.5
				C433.9,174.3,433.1,174.3,433.1,174.9L433.1,174.9z"/>
		</g>
	</g>
	<g>
		<g>
			<path class="st17" d="M429.8,171c0,4.1-0.4,8.3-1,12.4c-0.1,0.5,0.7,0.8,0.8,0.2c0.7-4.2,1-8.4,1.1-12.6
				C430.6,170.4,429.8,170.4,429.8,171L429.8,171z"/>
		</g>
	</g>
	<g>
		<g>
			<path class="st17" d="M414.2,143.4c-7.7-8.7-20.1-6.5-29.5-1.8c-10,5-17.5,14-18.3,25.4c0,0.4,0.6,0.4,0.6,0
				c0.8-10.6,7.5-19.1,16.7-24.2c9.3-5.1,22.2-7.9,30.1,1C414,144.1,414.5,143.7,414.2,143.4L414.2,143.4z"/>
		</g>
	</g>
	<g>
		<g>
			<path class="st17" d="M382.7,138.5c4.6-2,9.4-3,14.4-3.1c0.4,0,0.4-0.6,0-0.6c-5.1,0-10,1.1-14.7,3.1
				C382.1,138.2,382.4,138.7,382.7,138.5L382.7,138.5z"/>
		</g>
	</g>
	<g>
		<g>
			<path class="st17" d="M367.7,200.7c0.8,5.6,3,10.7,6.6,15.1c0.2,0.3,0.7-0.1,0.4-0.4c-3.5-4.3-5.7-9.3-6.5-14.9
				C368.2,200.2,367.6,200.3,367.7,200.7L367.7,200.7z"/>
		</g>
	</g>
	<g>
		<g>
			<path class="st17" d="M371.8,202.8c1.1,4.1,2.7,8,4.7,11.8c0.2,0.3,0.7,0,0.5-0.3c-2-3.7-3.6-7.6-4.7-11.6
				C372.3,202.2,371.7,202.4,371.8,202.8L371.8,202.8z"/>
		</g>
	</g>
	<path class="st8" d="M350.2,239.1c0,0-21.1,69.6-21.7,73s8.7,12.8,18,7.5c2.6-1.5,15.6-52.2,16.3-58
		C363.4,255.6,363,232.1,350.2,239.1z"/>
	<path class="st8" d="M440.1,236c0,0,6.6,79.3,6.7,82.6s-9.9,10.6-17.5,4.2c-2.1-1.8-6-51-5.7-56.6
		C423.9,260.7,429.5,227.5,440.1,236z"/>
	<path class="st8" d="M409,221l30.3,15c0,0-20.6,78.8-21.3,83.3s-30.9,21.5-53.6-1l-14.7-82c0,0,31.4-14.8,32.6-16.2
		C382.1,220.1,391.5,230.6,409,221z"/>
	<path class="st18" d="M365.3,262c-0.5-1-5.8-30.4-5.8-30.4l2.8-1.3c0,0,4.1,25,5.4,30.2c0.3-0.3,0.7-0.5,1.2-0.5
		c1.5,0,2,1.5,1.5,2.5c0,0,0,0,0.1,0c0.1-0.8,0.6-1.5,1.6-1.5c1.6,0,2,1.8,1.3,2.8c0,0,0,0,0.1,0c0.2-0.7,0.7-1.2,1.6-1.2
		c1.4,0,1.9,1.4,1.6,2.4c0.3-0.4,0.7-0.7,1.4-0.7c1.4,0,1.9,1.4,1.5,2.5c0.2-0.2,0.5-0.3,0.9-0.3c1.4,0,1.9,1.3,1.6,2.4
		c0.2-0.1,0.5-0.2,0.9-0.2c1.6,0,2,1.7,1.4,2.7c0.2-0.1,0.5-0.2,0.9-0.2c1.9,0,2.2,2.5,0.9,3.2c0,0,0,0,0,0.1
		c0.3-0.4,0.7-0.6,1.3-0.6c1.9,0,2.1,2.4,0.9,3.2c0,0,0,0.1,0.1,0.1c0.3-0.4,0.7-0.7,1.3-0.7c1.9,0,2.2,2.5,0.9,3.2c0,0,0,0,0.1,0.1
		c0.3-0.4,0.7-0.7,1.3-0.7c1.6,0,2,1.8,1.3,2.8c0.2-0.1,0.5-0.2,0.7-0.2c1.6,0,2.1,1.9,1.3,2.9c1-0.5,2.6-0.1,2.6,1.4v0
		c0,0.8-0.4,1.3-1,1.5c0.2,0.2,0.3,0.4,0.5,0.6c0-0.1,0-0.1,0-0.2v0c0-1.2,1-1.8,2-1.6c-0.8-1-0.4-2.9,1.3-2.9c0.4,0,0.7,0.1,1,0.3
		c0,0,0.1-0.1,0.1-0.1c-1.5-0.6-1.3-3.4,0.7-3.4c0.5,0,0.8,0.2,1.1,0.4c0,0,0.1-0.1,0.1-0.1c-1.6-0.6-1.4-3.4,0.6-3.4
		c0.5,0,0.9,0.2,1.1,0.5c0,0,0,0,0,0c-1.6-0.6-1.4-3.4,0.6-3.4c0.5,0,1,0.2,1.2,0.5c0,0,0,0,0,0c-1.3-0.8-1.1-3.3,0.8-3.3
		c0.5,0,0.9,0.2,1.1,0.5c-1.3-0.8-1-3.2,0.9-3.2c0.6,0,1,0.2,1.3,0.5c0,0,0-0.1,0.1-0.1c-1.2-0.8-0.9-3.2,0.9-3.2
		c0.8,0,1.2,0.4,1.5,0.9c-0.6-1-0.1-2.7,1.4-2.7c0.9,0,1.4,0.6,1.6,1.3c0,0,0.1,0,0.1-0.1c-0.4-1,0.1-2.5,1.5-2.5h0
		c1,0,1.5,0.7,1.6,1.4c0,0,0,0,0.1,0c-0.4-0.8-0.4-1.7,0.6-2.2c0,0,0.1,0,0.1,0c1.2-0.6,2.4,0.3,2.6,1.3c0,0,0,0,0.1,0
		c0.6-1.1,7.6-31.5,7.6-31.5l2,1c0,0-7.6,30.3-7.1,32.1c0.3,1.1,3.8,10.9,3.8,11.9s-4.4,14-4.7,14.8c-0.3,0.8-23.8-1-26.7-1.8
		c-1.5,0.8-38.7,2.6-39,1.8s-2.8-14.5-2.8-15.5C356.7,275.4,365.8,263,365.3,262z"/>
	<path class="st1" d="M328.7,278.7c-0.4,2.7-0.7,5.5-1,8.2c-0.1,1.2-0.2,2.5,0.4,3.5c1,1.8,22.7,8.5,23,7.2
		c-2.4,8.5-4.3,17.1-6,25.8c-2.2,11.3-4.5,22.6-5.3,34.1c-0.1,1.9-0.2,3.8-0.2,5.7c0.1,2.5,0.5,5.1,0.9,7.6
		c0.6,4.1,1.3,8.2,1.9,12.4c0.1,0.9,0.4,1.9,1.3,2.1c0.8,0.1,1.4-0.5,1.9-1.1c3.2-3.7,6.9-7.1,11.2-9.5c4.3-2.4,9.3-3.7,14.2-3.1
		c2.8,0.3,5.5,1.3,8.3,1.9c4.4,1,9,1,13.6,0.7c3.1-0.2,6.2-0.7,9.1-1.8c3.6-1.3,6.8-2.6,10.6-3.2c4.1-0.7,8,0.6,12,1.3
		c2.4,0.5,5.5,0.4,6.7-1.8c1.2-2,0-4.4-0.7-6.6c-1.2-3.7-1.1-7.8-1.1-11.7c0.2-10,0.2-20,0.2-30c0-4.8,0-9.6,0-14.5
		c0-5.7,1.3-3.6,5.7-3c1.6,0.2,3.2-0.1,4.7-0.3c3.5-0.5,10.3-0.8,12.4-4c0.8-1.2,1-2.7,1.1-4.1c0.8-8.7,0.8-17.5,0-26.3
		c-0.8-7.9-1.3-15.7-4.1-23.2c-1.9-5.2-5-10.1-9.5-13.3c-5.1-3.7-12.9-7.3-19.4-7c-1.3,0.1-2.2,1.4-3,2.4c-3,3.9-6.5,4.9-11,5.5
		c-1.3,0.2-2.5,0.2-3.8,0.3c-1.3,0-2.6-0.1-3.9,0c-1.4,0-2.7-0.4-4.1-0.7c-1.9-0.4-3.8-0.9-5.6-1.3c-2.4-0.6-4.8-1.3-6.9-2.6
		c-2.1-1.3-3.9-3.3-5.5-5.2c-3.4-3.8-12.5-0.5-16.5,0.9c-6,2.1-11.8,5.3-16,10.2c-3.1,3.6-5.2,7.9-7,12.3
		C333.1,256.9,330.3,267.7,328.7,278.7z"/>
	<path class="st19" d="M414.6,220.5c-0.3,1.3-0.6,2.6-1,3.9c-0.8,2.3-1.7,4.6-2.6,6.8c-0.7,1.6-1.5,3.1-2.3,4.6
		c-0.6,1.2-1.4,2.3-2.1,3.5c-0.6,0.9-1.1,1.8-1.8,2.7c-0.5,0.7-1.1,1.3-1.7,2c-1,1-1.9,2-2.9,2.9c-0.6,0.6-1.4,1-2.2,1.6
		c0,0.2,0,0.5,0,0.8c0,1-0.2,1.9-0.9,2.7c-1.1,1.2-3.9,1.7-5.3,0.9c-1.6-0.9-2.4-2.3-2.5-4.1c0-0.2-0.1-0.5-0.3-0.7
		c-0.2-0.2-0.5-0.4-0.8-0.6c-1.9-1-3.3-2.6-4.7-4.2c-2.1-2.6-3.7-5.5-5.3-8.4c-1-2-1.8-4.1-2.8-6.1c-1-2-1.4-4.2-1.9-6.4
		c-0.1-0.5,0.2-1,0.6-1.1c0.4-0.1,0.8,0.2,0.9,0.8c0,0.1,0,0.2,0,0.3c0.1,0.7,0.2,1.3,0.4,2c0.9,3,2.1,5.8,3.5,8.6
		c0.8,1.7,1.9,3.3,2.8,5c0.5,0.8,1,1.6,1.5,2.5c0.9,1.5,2.1,2.7,3.2,3.9c0.9,0.9,2,1.8,3.2,2.4c0.5-1.1,1.3-1.8,2.4-2.1
		c0.5-0.1,1.1-0.1,1.6-0.2c0.7-0.1,1.4,0.1,1.9,0.6c0.5,0.4,0.9,0.9,1.3,1.4c0.1,0.1,0.3,0.3,0.4,0.5c0.3-0.2,0.6-0.3,0.9-0.6
		c0.7-0.6,1.4-1.3,2.1-1.9c0.9-0.9,1.8-1.8,2.6-2.8c0.8-1,1.4-2.2,2.2-3.3c1.1-1.6,2.1-3.4,3-5.1c0.5-1.1,1-2.2,1.5-3.3
		s0.9-2.2,1.4-3.3c0.9-2,1.6-4.1,2.1-6.2c0.2-0.8,0.3-0.9,1.3-0.7C414.5,219.9,414.6,220.2,414.6,220.5z M395.1,246.6
		c-0.1-0.1-0.3-0.2-0.4-0.4c-0.3-0.4-0.7-0.6-1.2-0.3c-0.1,0.1-0.2,0.1-0.3,0.1c-1.2,0.1-1.9,0.9-2.2,2.1c-0.5,1.7,0.7,3.5,2.4,3.7
		c0.8,0.1,1.7-0.1,2.3-0.7c0.6-0.6,0.8-1.3,0.8-2.2C396.3,247.9,396.1,246.9,395.1,246.6z"/>
	<path class="st9" d="M412.5,218.1c-0.2-0.6-0.4-0.8-1-0.8c-0.6,0.4-0.9,1.2-1.2,1.9c-0.7,1.5-1.3,3-2,4.5c-1.1,2.1-2.1,4.3-3.6,6.2
		c-0.5,0.6-0.8,1.3-1.2,1.9c-1.6,2.1-3.5,3.8-5.7,5.2c-2,1.3-4,1.2-6,0c-1.4-0.8-2.7-1.9-3.9-3c-1.8-1.6-3.2-3.4-4.6-5.2
		c-0.7-0.9-1.2-1.8-1.8-2.7c-0.7-1.2-1.5-2.3-2.1-3.6c-0.5-0.9-0.8-1.9-1.2-2.9c-0.1,0-0.2-0.1-0.3-0.2c-0.7-0.2-1.1,0.3-1,1
		c0.4,1.3,0.9,2.6,1.6,3.8c0.8,1.3,1.5,2.6,2.4,3.9c1.5,2.2,3.1,4.3,4.9,6.1c1.1,1.1,2.4,2.2,3.6,3.2c1.3,1,2.7,1.7,4.3,2
		c1.7,0.3,3.3-0.1,4.8-1c1.6-0.9,3-2.2,4.4-3.4c1.3-1.2,2.2-2.7,3.2-4.1c0.9-1.4,1.8-2.7,2.5-4.2c1.1-2.3,2.1-4.6,3.2-6.9
		C412,219.2,412.2,218.6,412.5,218.1z"/>
	<g>
		<g>
			<path class="st6" d="M453.7,293.7c-5.4,4.4-13.8,5-20.5,4.9c-0.5,0-0.5,0.8,0,0.8c7,0.1,15.4-0.6,21-5.1
				C454.6,294,454.1,293.4,453.7,293.7L453.7,293.7z"/>
		</g>
	</g>
	<g>
		<g>
			<path class="st6" d="M437.3,296.3c-1.1,0.4-2.3,0.4-3.4-0.2c-0.5-0.2-0.9,0.5-0.4,0.7c1.3,0.6,2.7,0.7,4,0.2
				C438,296.9,437.8,296.1,437.3,296.3L437.3,296.3z"/>
		</g>
	</g>
	<g>
		<g>
			<path class="st6" d="M437.8,293.5c-1,0.3-2,0.6-3,0.9c-0.5,0.1-0.3,0.9,0.2,0.8c1-0.3,2-0.6,3-0.9
				C438.5,294.1,438.2,293.3,437.8,293.5L437.8,293.5z"/>
		</g>
	</g>
	<g>
		<g>
			<path class="st6" d="M441.2,234.6c-1.6-0.4-2.7,2.6-3.3,3.8c-1.3,2.6-2,5.5-2.8,8.3c-0.1,0.5,0.6,0.7,0.8,0.2
				c0.5-1.9,1-3.8,1.7-5.7c0.2-0.6,2.2-6.1,3.4-5.8C441.5,235.4,441.7,234.7,441.2,234.6L441.2,234.6z"/>
		</g>
	</g>
	<g>
		<g>
			<path class="st6" d="M352.5,289.9c-2.6,3.1-7.1-0.9-9.6-1.7c-3.2-1-6.2-1.8-9.2-3.1c-0.5-0.2-0.9,0.5-0.4,0.7
				c4.5,2,9.3,3,13.6,5.2c2.5,1.3,4.3,1.7,6.2-0.6C353.4,290,352.9,289.5,352.5,289.9L352.5,289.9z"/>
		</g>
	</g>
	<g>
		<g>
			<path class="st6" d="M364.1,241.1c-0.2-5.3-3.7-9.9-6.3-14.3c-0.3-0.4-1,0-0.7,0.4c2.6,4.2,6,8.8,6.2,13.9
				C363.4,241.6,364.1,241.6,364.1,241.1L364.1,241.1z"/>
		</g>
	</g>
	<g>
		<g>
			<path class="st6" d="M364.8,224.2c2,4.7,5.2,8.6,9.5,11.5c0.4,0.3,0.8-0.4,0.4-0.7c-4.1-2.8-7.2-6.6-9.2-11.2
				C365.3,223.3,364.6,223.7,364.8,224.2L364.8,224.2z"/>
		</g>
	</g>
	<g>
		<g>
			<path class="st6" d="M422.1,234.4c-2.9,2.5-6.1,4.5-9.6,5.8c-0.5,0.2-0.3,0.9,0.2,0.8c3.7-1.4,7-3.4,10-6
				C423,234.6,422.4,234.1,422.1,234.4L422.1,234.4z"/>
		</g>
	</g>
	<path class="st8" d="M447.4,306.9c0.1,1,0.3,2,0.4,3c0.3,3.1,0,6.3-1,9.2c-0.7,2.1-1.7,4-2.3,6.2c-0.9,3.2-1.8,6.4-2.9,9.5
		c-4.2,12.5-9.4,24.6-14.9,36.6c-1.1,2.4-10.3,4.6-8.4-5.6c0.9-4.7,1.7-9.4,2.6-14.1c1-5.8,2.1-11.7,3-17.5c1.1-6.9,2.4-14,5.3-20.4
		c1.6-3.4,3.8-6.8,3.3-10.5c4.5-1,9.1-1.4,13.7-1.4c0.2,0,0.4,0,0.5,0.1c0.3,0.2,0.3,0.6,0.2,0.9C447,304.3,447.2,305.6,447.4,306.9
		z"/>
	<path class="st8" d="M416.1,367.9c-2,1.2-13.4,20.3-15.1,23.4c-1,1.9,1.5,3.4,2.3,2.8c2.5-1.8,9-9.2,9.7-10.1
		S419.6,365.6,416.1,367.9z"/>
	<path class="st8" d="M329.6,314.9c0,0,3.8,13.8,47.1,69c1.8,2.3,12.2,2.3,7.5-8.2c-28.2-63.1-32.4-60.9-36.2-68.4
		C344.2,299.7,327.8,297.9,329.6,314.9z"/>
	<path class="st8" d="M387.3,375.4c-4-5.1-14.4-1.1-9.5,11.6c1.4,3.5,12.5,17.4,14,19.4c1.3,1.7,4.2,1.6,6,2.1
		c2.8,0.6,5.5,1.4,8.1,2.5c1.3,0.5,2.5,1.1,3.9,1.3c1.4,0.2,2.8-0.1,3.8-1.1c0.2-0.2,0.4-0.5,0.4-0.8c0.1-0.6-0.5-1.1-1-1.4
		c-1.5-1-3.2-1.6-4.7-2.6c0.5,0.5,1.5,0,1.6-0.7s-0.4-1.4-0.9-1.9c-1.7-1.5-4-1.8-6.1-2.8c-1.6-0.8-3.1-1.9-4.5-3
		c-1.1-0.9-2.3-1.8-3.2-3c-2.3-3-2.7-7-3.9-10.5C390.3,381.5,389.3,378,387.3,375.4z"/>
	<g>
		<g>
			<path class="st6" d="M410.4,362.7c-2.2,1-4.6-0.3-6.9,1c-2.8,1.6-5.1,3.2-8.3,3.9c-0.5,0.1-0.3,0.9,0.2,0.8
				c2.8-0.5,5-1.6,7.4-3.2c1.9-1.2,2.9-1.4,5.3-1.4c1.2,0,1.7,0.1,2.8-0.4C411.3,363.1,410.9,362.5,410.4,362.7L410.4,362.7z"/>
		</g>
	</g>
	<path class="st20" d="M401.4,402.8c2,1.6,4.4,2.8,6.9,3.1c0.6,0.1,1-0.7,0.7-1.3c-0.2-0.6-0.8-0.9-1.4-1.1c-2.4-1.2-4.9-2.5-7.1-4
		c-1.7-1.1-3.4-3.2-5.2-4C396.4,398.1,399.2,401,401.4,402.8z"/>
	<g>
		<g>
			<path class="st6" d="M418.4,285.6c-0.3,3.1-1.4,4.7-2.6,7.3c-1.3,2.8-1.6,6.1-2.2,9.1c-1.3,6.4-2.6,12.7-4.6,18.9
				c-0.2,0.5,0.6,0.7,0.8,0.2c2.2-6.8,3.5-13.8,4.9-20.7c0.7-3.6,1.7-6.2,3.2-9.5c0.8-1.7,1-3.5,1.2-5.3
				C419.2,285.1,418.5,285.1,418.4,285.6L418.4,285.6z"/>
		</g>
	</g>
	<path class="st21" d="M353.5,315c2.8,5.1,6.5,9.6,9.1,14.8c0.7,1.5,1.4,3,1.2,4.7c-0.3,3.6-4.4,5.8-7.9,5.4s-6.6-2.7-9.2-5
		c-5.3-4.6-10-9.9-14-15.5c-1.3-1.8-2.5-3.6-3-5.8c-1-4,0.7-8.1,2.4-11.9c1.5-3.1,3.1-6.3,5.8-8.6s6.5-3.5,9.7-2.1
		c4.4,1.9,3.7,5.8,2.7,9.4C348.8,305.1,351.2,311,353.5,315z"/>
	<path class="st20" d="M409.3,405.4c-0.8,0.6-2.1,1-2.7,0.3c-0.5-0.6-0.2-1.5,0.2-2.1c1.1-2,2.6-3.8,4.2-5.5
		c1.1-1.2,2.1-2.4,3.2-3.6c0.6-0.7,2.1-3,3-3.3c1.6-0.4,1.6,1.7,1.5,2.9C418.2,398.6,412.8,403,409.3,405.4z"/>
	<path class="st20" d="M416.7,388.9c0-0.3,0-0.6,0-0.9c0-0.5-0.1-0.9-0.3-1.3s-0.6-0.7-1.1-0.8c-0.6,0-1.2,0.4-1.5,1
		c-0.3,0.6-0.3,1.2-0.4,1.8c-0.5,3-2.4,5.1-4.8,6.7c-2.6,1.8-5,4-6.9,6.5c-0.1,0.2-0.3,0.4-0.3,0.7c0.1,0.5,0.8,0.6,1.2,0.5
		c1.4-0.2,2.7-1,3.9-1.8C410.8,398.7,416.3,394.3,416.7,388.9z"/>
	<path class="st8" d="M386,374.1c2.4,0.7,20.1,17.4,22.8,20.2c1.7,1.7-0.6,4-1.6,3.6c-3.1-1.2-12.2-7-13.3-7.8
		C392.9,389.3,381.6,372.7,386,374.1z"/>
	<path class="st20" d="M401.1,406.3c-0.4-0.9,0-2.4,0.8-3.6c0.7-1.1,1.8-1.9,3-2.2c0.1,0,0.2-0.1,0.3,0c0.1,0.1,0.2,0.3,0.1,0.4
		c-0.1,0.1-0.2,0.2-0.3,0.3c-1,0.9-1.6,2.1-2.2,3.3c-0.2,0.5-0.5,1-0.3,1.5c0.2,0.4,0.7,0.2,0.9,0.5c0.2,0.4-0.3,0.9-0.5,1
		C401.9,408,401.5,407,401.1,406.3z"/>
	<path class="st8" d="M415.2,369.6c2.2-5.5,12.4-4.6,11.3,7.8c-0.5,5-3.3,10.2-5.2,14.8c-0.8,2.1-1.5,4.7-3.1,6.3
		c-2.9,2.7-6.7,4-9.8,6.5c-1.8,1.5-3.3,3.4-5.4,4.3c-0.4,0.2-0.8,0.3-1.2,0.2c-0.8-0.2-1.3-1.2-1.1-2c0.2-0.8,0.8-1.5,1.3-2.1
		c2.7-3,5.4-5.9,8-8.9c0.8-0.9,1.6-1.7,2.1-2.8c1.8-3.8,1.4-8.9,1.6-13C414,377.1,413.9,372.9,415.2,369.6z"/>
	<g>
		<g>
			<path class="st6" d="M362.6,292.9c0.7,5.7,0.7,12.5,3.4,17.7c1.4,2.7,3.4,4.9,4.8,7.6c2,3.8,3.1,7.9,4.2,11.9
				c0.1,0.5,0.9,0.3,0.8-0.2c-1.6-5.8-3.4-11.1-6.8-16.1c-4.4-6.4-4.7-13.4-5.6-20.9C363.3,292.4,362.5,292.4,362.6,292.9
				L362.6,292.9z"/>
		</g>
	</g>
	<g>
		<g>
			<path class="st6" d="M396.4,363.4c-0.1,1-3.9,1.4-4.6,1.4c-1.7,0.2-3.3,0.2-5,0.1c-0.5,0-0.5,0.8,0,0.8c3.4,0.2,6.8-0.2,10-1.3
				c0.2-0.1,0.3-0.2,0.3-0.4c0-0.2,0-0.5,0.1-0.7C397.2,362.9,396.5,362.9,396.4,363.4L396.4,363.4z"/>
		</g>
	</g>
	<g>
		<g>
			<path class="st6" d="M360.1,256.2c-2,13.3-5.1,26.4-9.4,39.2c-0.2,0.5,0.6,0.7,0.8,0.2c4.3-12.8,7.4-25.9,9.4-39.2
				C361,256,360.2,255.8,360.1,256.2L360.1,256.2z"/>
		</g>
	</g>
	<g>
		<g>
			<path class="st6" d="M416.6,313.5c-0.6,3-1.8,5.7-3.6,8.2c-0.3,0.4,0.4,0.8,0.7,0.4c1.8-2.5,3-5.4,3.6-8.4
				C417.5,313.2,416.7,313,416.6,313.5L416.6,313.5z"/>
		</g>
	</g>
	<g>
		<g>
			<path class="st6" d="M351.4,368.7c-2.2,2.2-4.7,4-7.5,5.3c-0.5,0.2-0.1,0.9,0.4,0.7c2.9-1.3,5.4-3.1,7.6-5.4
				C352.4,368.9,351.8,368.4,351.4,368.7L351.4,368.7z"/>
		</g>
	</g>
	<g>
		<g>
			<path class="st6" d="M345.4,361.6c-1,2.8-1.6,5.7-1.8,8.7c0,0.5,0.8,0.5,0.8,0c0.2-2.9,0.8-5.8,1.8-8.5
				C346.3,361.4,345.5,361.1,345.4,361.6L345.4,361.6z"/>
		</g>
	</g>
	<g>
		<g>
			<path class="st22" d="M370.9,490.2c9.1,3,18.4,4,27.9,2.9c0.7-0.1,0.7-1.1,0-1c-9.4,1.1-18.6,0.1-27.6-2.9
				C370.6,489,370.3,490,370.9,490.2L370.9,490.2z"/>
		</g>
	</g>
	<g>
		<g>
			<path class="st22" d="M405.6,416.9c8.3,17.8-3.2,36.6-2.9,54.9c0,0.7,1.1,0.7,1,0c-0.3-18.5,11.2-37.4,2.8-55.5
				C406.2,415.8,405.3,416.3,405.6,416.9L405.6,416.9z"/>
		</g>
	</g>
	<g>
		<g>
			<path class="st22" d="M409.2,446.4c-0.5,5.2-0.9,10.5-1,15.8c0,0.7,1,0.7,1,0c0.1-5.3,0.5-10.5,1-15.8
				C410.3,445.8,409.2,445.8,409.2,446.4L409.2,446.4z"/>
		</g>
	</g>
	<g>
		<g>
			<path class="st22" d="M436.3,513c1.6,5.5,0.5,11.5-3.2,16c-4.1,4.9-10.6,5.7-16.4,7.4c-10.2,3-20,7.2-29.2,12.4
				c-0.6,0.3-0.1,1.2,0.5,0.9c6.8-3.8,13.9-7.1,21.2-9.8c6.2-2.2,13.3-3.1,19.1-6c7.8-3.8,11.4-13,9-21.2
				C437.2,512,436.1,512.3,436.3,513L436.3,513z"/>
		</g>
	</g>
	<g>
		<g>
			<path class="st22" d="M387.9,541c-1.2,0.5-2.5,1.1-3.7,1.7c-0.6,0.3-0.1,1.2,0.5,0.9c1.2-0.5,2.5-1.1,3.7-1.7
				C389.1,541.6,388.5,540.7,387.9,541L387.9,541z"/>
		</g>
	</g>
	<g>
		<g>
			<path class="st22" d="M369.3,428.8c-4.9-2.4-9.3-5.7-12.9-9.8c-0.5-0.5-1.2,0.2-0.7,0.7c3.7,4.1,8.1,7.5,13.2,10
				C369.4,430,369.9,429.1,369.3,428.8L369.3,428.8z"/>
		</g>
	</g>
	<g>
		<g>
			<path class="st22" d="M364.6,431.2c-0.7-0.9-1.6-1.6-2.8-1.9c-0.6-0.2-0.9,0.8-0.3,1c0.9,0.2,1.6,0.7,2.2,1.4
				C364.1,432.3,365,431.8,364.6,431.2L364.6,431.2z"/>
		</g>
	</g>
	<g>
		<g>
			<path class="st22" d="M456,417c-2.7,1.7-5.6,3.2-8.6,4.4c-0.6,0.2-0.4,1.2,0.3,1c3.1-1.2,6.1-2.7,8.9-4.5
				C457.1,417.5,456.6,416.6,456,417L456,417z"/>
		</g>
	</g>
	<g>
		<g>
			<path class="st22" d="M455.6,425.1c-2.2-0.4-4.4-0.3-6.5,0.2c-0.6,0.2-0.4,1.2,0.3,1c2-0.5,4-0.6,5.9-0.2
				C456,426.2,456.3,425.2,455.6,425.1L455.6,425.1z"/>
		</g>
	</g>
	<path class="st23" d="M409.3,178.8c0,0,2.6,4,6.9,1.4"/>
	<path class="st24" d="M387.8,179.4c0,0,4.2,3.3,7.9-0.9"/>
	<path class="st16" d="M398.4,199.3c1.4,0,2.8,0.2,4,0.8c1.3,0.6,2.3,1.7,2.6,3c0.2,0.7,0.1,1.5-0.2,2.2c-0.2,0.5-0.6,1-1.2,1.1
		c-0.8,0.1-1.3-0.7-1.9-1.2c-0.8-0.6-1.9-0.7-2.8-0.7s-2,0.4-3,0.4c-0.4,0-0.9,0.1-1.2-0.1c-0.6-0.2-1.1-0.8-1.3-1.5
		C392.7,200.2,396.2,199.2,398.4,199.3z"/>
	<path class="st13" d="M538.2,119.7c0,0,13.9-18.2,39.8-4.1c17.9,9.8,20.7,21.3,22.8,39.7c2.1,18.5-10.8,35.8-7.6,41.5
		c3.2,5.7,6.9,8,6.9,8s-5.4,2.7-11.4,0.7c0.2,2.5,0.6,3.2,6,5c-3.4,1.7-14.9,9.3-24.3-0.6c-9.4-9.9-23.2-3.9-23.2-3.9
		s-7.6,9.2-17.3,8.5c2.8-3.1,0.7-5.7,1.5-4.6c0.8,1.1-14.4,1.9-16.8-2.4c1.1-0.6,6.4,1.2,6.4-11.7s-12.7-15.8-7.7-52
		C515.2,129.4,526.2,119,538.2,119.7z"/>
	<g>
		<g>
			<g>
				<g>
					<defs>
						<path id="SVGID_1_" d="M542,580.4c-2.1-5.2-4.5-10.2-7-15.3c-0.4-0.9-0.9-1.8-1.7-2.4c-1-0.7-2.4-0.6-3.6-0.5
							c-4.3,0.5-13.7,2.9-16,7.3c-1.1,2,0.5,5.4,1,7.5c0.7,3.1,1.3,6.2,1,9.4c-0.5,4.9-3.2,9.4-6.2,13.3c-3.1,3.9-6.6,7.4-9.3,11.6
							c-1.7,2.6-3.1,5.8-2.2,8.9c0.9,2.9,3.7,4.9,6.7,5.5c3,0.5,6.1-0.2,8.9-1.4c8.2-3.4,14.6-10.1,22.1-14.8
							c4.3-2.7,9.5-5.4,10.7-10.3c0.6-2.5,0-5-0.6-7.5C544.8,587.8,543.4,584,542,580.4z"/>
					</defs>
					<clipPath id="SVGID_2_">
						<use xlink:href="#SVGID_1_"  style="overflow:visible;"/>
					</clipPath>
					<path class="st25" d="M542,580.4c-2.1-5.2-4.5-10.2-7-15.3c-0.4-0.9-0.9-1.8-1.7-2.4c-1-0.7-2.4-0.6-3.6-0.5
						c-4.3,0.5-13.7,2.9-16,7.3c-1.1,2,0.5,5.4,1,7.5c0.7,3.1,1.3,6.2,1,9.4c-0.5,4.9-3.2,9.4-6.2,13.3c-3.1,3.9-6.6,7.4-9.3,11.6
						c-1.7,2.6-3.1,5.8-2.2,8.9c0.9,2.9,3.7,4.9,6.7,5.5c3,0.5,6.1-0.2,8.9-1.4c8.2-3.4,14.6-10.1,22.1-14.8
						c4.3-2.7,9.5-5.4,10.7-10.3c0.6-2.5,0-5-0.6-7.5C544.8,587.8,543.4,584,542,580.4z"/>
				</g>
				<g>
					<defs>
						<path id="SVGID_3_" d="M542,580.4c-2.1-5.2-4.5-10.2-7-15.3c-0.4-0.9-0.9-1.8-1.7-2.4c-1-0.7-2.4-0.6-3.6-0.5
							c-4.3,0.5-13.7,2.9-16,7.3c-1.1,2,0.5,5.4,1,7.5c0.7,3.1,1.3,6.2,1,9.4c-0.5,4.9-3.2,9.4-6.2,13.3c-3.1,3.9-6.6,7.4-9.3,11.6
							c-1.7,2.6-3.1,5.8-2.2,8.9c0.9,2.9,3.7,4.9,6.7,5.5c3,0.5,6.1-0.2,8.9-1.4c8.2-3.4,14.6-10.1,22.1-14.8
							c4.3-2.7,9.5-5.4,10.7-10.3c0.6-2.5,0-5-0.6-7.5C544.8,587.8,543.4,584,542,580.4z"/>
					</defs>
					<clipPath id="SVGID_4_">
						<use xlink:href="#SVGID_3_"  style="overflow:visible;"/>
					</clipPath>
					<g class="st26">
						<path class="st27" d="M551.4,578.7c-0.1,0-0.3,0-0.4,0c0,0-4.8-1-20.7,1.1c-16.3,2.1-21.6,1.3-21.8,1.3
							c-0.5-0.1-0.9-0.6-0.8-1.1c0.1-0.5,0.6-0.9,1.1-0.8c0.1,0,5.3,0.7,21.2-1.3c16.4-2.1,21.2-1.1,21.4-1c0.5,0.1,0.9,0.7,0.8,1.2
							C552,578.3,551.7,578.6,551.4,578.7z"/>
					</g>
				</g>
				<g>
					<defs>
						<path id="SVGID_5_" d="M542,580.4c-2.1-5.2-4.5-10.2-7-15.3c-0.4-0.9-0.9-1.8-1.7-2.4c-1-0.7-2.4-0.6-3.6-0.5
							c-4.3,0.5-13.7,2.9-16,7.3c-1.1,2,0.5,5.4,1,7.5c0.7,3.1,1.3,6.2,1,9.4c-0.5,4.9-3.2,9.4-6.2,13.3c-3.1,3.9-6.6,7.4-9.3,11.6
							c-1.7,2.6-3.1,5.8-2.2,8.9c0.9,2.9,3.7,4.9,6.7,5.5c3,0.5,6.1-0.2,8.9-1.4c8.2-3.4,14.6-10.1,22.1-14.8
							c4.3-2.7,9.5-5.4,10.7-10.3c0.6-2.5,0-5-0.6-7.5C544.8,587.8,543.4,584,542,580.4z"/>
					</defs>
					<clipPath id="SVGID_6_">
						<use xlink:href="#SVGID_5_"  style="overflow:visible;"/>
					</clipPath>
					<g class="st28">
						<path class="st27" d="M552.9,590.6C552.8,590.6,552.8,590.7,552.9,590.6c-0.2,0-13,1.8-25.4,0.9c-12.2-0.9-18.7-0.7-18.7-0.6
							c-0.5,0-1-0.4-1-1c0-0.5,0.4-1,1-1c0.1,0,6.6-0.2,19,0.7c12.2,0.9,24.8-0.9,24.9-0.9c0.5-0.1,1,0.3,1.1,0.8
							C553.7,590,553.4,590.5,552.9,590.6z"/>
					</g>
				</g>
				<g>
					<defs>
						<path id="SVGID_7_" d="M542,580.4c-2.1-5.2-4.5-10.2-7-15.3c-0.4-0.9-0.9-1.8-1.7-2.4c-1-0.7-2.4-0.6-3.6-0.5
							c-4.3,0.5-13.7,2.9-16,7.3c-1.1,2,0.5,5.4,1,7.5c0.7,3.1,1.3,6.2,1,9.4c-0.5,4.9-3.2,9.4-6.2,13.3c-3.1,3.9-6.6,7.4-9.3,11.6
							c-1.7,2.6-3.1,5.8-2.2,8.9c0.9,2.9,3.7,4.9,6.7,5.5c3,0.5,6.1-0.2,8.9-1.4c8.2-3.4,14.6-10.1,22.1-14.8
							c4.3-2.7,9.5-5.4,10.7-10.3c0.6-2.5,0-5-0.6-7.5C544.8,587.8,543.4,584,542,580.4z"/>
					</defs>
					<clipPath id="SVGID_8_">
						<use xlink:href="#SVGID_7_"  style="overflow:visible;"/>
					</clipPath>
					<g class="st29">
						<path class="st27" d="M546.4,610c-0.2,0-0.3,0-0.5,0l-38.6-12.8c-0.5-0.2-0.8-0.7-0.6-1.3s0.7-0.8,1.3-0.6l38.6,12.8
							c0.5,0.2,0.8,0.7,0.6,1.3C547,609.7,546.8,610,546.4,610z"/>
					</g>
				</g>
				<g>
					<defs>
						<path id="SVGID_9_" d="M542,580.4c-2.1-5.2-4.5-10.2-7-15.3c-0.4-0.9-0.9-1.8-1.7-2.4c-1-0.7-2.4-0.6-3.6-0.5
							c-4.3,0.5-13.7,2.9-16,7.3c-1.1,2,0.5,5.4,1,7.5c0.7,3.1,1.3,6.2,1,9.4c-0.5,4.9-3.2,9.4-6.2,13.3c-3.1,3.9-6.6,7.4-9.3,11.6
							c-1.7,2.6-3.1,5.8-2.2,8.9c0.9,2.9,3.7,4.9,6.7,5.5c3,0.5,6.1-0.2,8.9-1.4c8.2-3.4,14.6-10.1,22.1-14.8
							c4.3-2.7,9.5-5.4,10.7-10.3c0.6-2.5,0-5-0.6-7.5C544.8,587.8,543.4,584,542,580.4z"/>
					</defs>
					<clipPath id="SVGID_10_">
						<use xlink:href="#SVGID_9_"  style="overflow:visible;"/>
					</clipPath>
					<g class="st30">
						<path class="st27" d="M533.4,617c-0.1,0-0.2,0-0.3,0c-0.4-0.1-10.4-1.5-18.1-4.3c-7.7-2.8-16.6-7.6-16.7-7.6
							c-0.5-0.3-0.7-0.9-0.4-1.3c0.3-0.5,0.9-0.7,1.4-0.4c0.1,0,8.9,4.8,16.4,7.5c7.5,2.7,17.6,4.2,17.7,4.2
							c0.5,0.1,0.9,0.6,0.8,1.1C534.2,616.6,533.8,616.9,533.4,617z"/>
					</g>
				</g>
				<g>
					<defs>
						<path id="SVGID_11_" d="M542,580.4c-2.1-5.2-4.5-10.2-7-15.3c-0.4-0.9-0.9-1.8-1.7-2.4c-1-0.7-2.4-0.6-3.6-0.5
							c-4.3,0.5-13.7,2.9-16,7.3c-1.1,2,0.5,5.4,1,7.5c0.7,3.1,1.3,6.2,1,9.4c-0.5,4.9-3.2,9.4-6.2,13.3c-3.1,3.9-6.6,7.4-9.3,11.6
							c-1.7,2.6-3.1,5.8-2.2,8.9c0.9,2.9,3.7,4.9,6.7,5.5c3,0.5,6.1-0.2,8.9-1.4c8.2-3.4,14.6-10.1,22.1-14.8
							c4.3-2.7,9.5-5.4,10.7-10.3c0.6-2.5,0-5-0.6-7.5C544.8,587.8,543.4,584,542,580.4z"/>
					</defs>
					<clipPath id="SVGID_12_">
						<use xlink:href="#SVGID_11_"  style="overflow:visible;"/>
					</clipPath>
					<g class="st31">
						<path class="st27" d="M520.8,626.5c-0.2,0-0.4,0-0.6-0.1l-27.8-11.6c-0.5-0.2-0.8-0.8-0.5-1.3s0.8-0.8,1.3-0.5l27.8,11.6
							c0.5,0.2,0.8,0.8,0.5,1.3C521.4,626.2,521.1,626.4,520.8,626.5z"/>
					</g>
				</g>
			</g>
			<g>
				<g>
					<defs>
						<path id="SVGID_13_" d="M592.8,557.1c-0.5-0.9-1-1.8-1.9-2.2c-1.1-0.6-2.4-0.5-3.6-0.2c-4.3,0.9-15.1,7.5-17.1,12
							c-0.9,2.1,0.9,5.3,1.6,7.4c0.9,3,1.8,6.1,1.8,9.3c-0.1,5-2.4,9.6-5.2,13.7s-6,7.9-8.4,12.3c-1.5,2.8-2.6,6.1-1.5,9
							c1.1,2.8,4.1,4.6,7.1,4.9c3,0.3,6-0.7,8.7-2.1c7.9-4,13.8-11.1,20.9-16.4c4.1-3,9-6.1,9.9-11.1c0.4-2.5-0.3-5-1.2-7.4
							C602.6,582.5,595.6,561.9,592.8,557.1z"/>
					</defs>
					<clipPath id="SVGID_14_">
						<use xlink:href="#SVGID_13_"  style="overflow:visible;"/>
					</clipPath>
					<path class="st32" d="M592.8,557.1c-0.5-0.9-1-1.8-1.9-2.2c-1.1-0.6-2.4-0.5-3.6-0.2c-4.3,0.9-15.1,7.5-17.1,12
						c-0.9,2.1,0.9,5.3,1.6,7.4c0.9,3,1.8,6.1,1.8,9.3c-0.1,5-2.4,9.6-5.2,13.7s-6,7.9-8.4,12.3c-1.5,2.8-2.6,6.1-1.5,9
						c1.1,2.8,4.1,4.6,7.1,4.9c3,0.3,6-0.7,8.7-2.1c7.9-4,13.8-11.1,20.9-16.4c4.1-3,9-6.1,9.9-11.1c0.4-2.5-0.3-5-1.2-7.4
						C602.6,582.5,595.6,561.9,592.8,557.1z"/>
				</g>
				<g>
					<defs>
						<path id="SVGID_15_" d="M592.8,557.1c-0.5-0.9-1-1.8-1.9-2.2c-1.1-0.6-2.4-0.5-3.6-0.2c-4.3,0.9-15.1,7.5-17.1,12
							c-0.9,2.1,0.9,5.3,1.6,7.4c0.9,3,1.8,6.1,1.8,9.3c-0.1,5-2.4,9.6-5.2,13.7s-6,7.9-8.4,12.3c-1.5,2.8-2.6,6.1-1.5,9
							c1.1,2.8,4.1,4.6,7.1,4.9c3,0.3,6-0.7,8.7-2.1c7.9-4,13.8-11.1,20.9-16.4c4.1-3,9-6.1,9.9-11.1c0.4-2.5-0.3-5-1.2-7.4
							C602.6,582.5,595.6,561.9,592.8,557.1z"/>
					</defs>
					<clipPath id="SVGID_16_">
						<use xlink:href="#SVGID_15_"  style="overflow:visible;"/>
					</clipPath>
					<g class="st33">
						<path class="st27" d="M568.3,580.6c-0.5,0-1-0.4-1-0.9c0-0.5,0.4-1,0.9-1.1c0.1,0,10-0.9,19.8-2.8c9.7-1.8,17.6-5.4,17.7-5.5
							c0.5-0.2,1.1,0,1.3,0.5c0.2,0.5,0,1.1-0.5,1.3c-0.3,0.2-8.2,3.7-18.2,5.6C578.5,579.7,568.4,580.6,568.3,580.6
							C568.3,580.6,568.3,580.6,568.3,580.6z"/>
					</g>
				</g>
				<g>
					<defs>
						<path id="SVGID_17_" d="M592.8,557.1c-0.5-0.9-1-1.8-1.9-2.2c-1.1-0.6-2.4-0.5-3.6-0.2c-4.3,0.9-15.1,7.5-17.1,12
							c-0.9,2.1,0.9,5.3,1.6,7.4c0.9,3,1.8,6.1,1.8,9.3c-0.1,5-2.4,9.6-5.2,13.7s-6,7.9-8.4,12.3c-1.5,2.8-2.6,6.1-1.5,9
							c1.1,2.8,4.1,4.6,7.1,4.9c3,0.3,6-0.7,8.7-2.1c7.9-4,13.8-11.1,20.9-16.4c4.1-3,9-6.1,9.9-11.1c0.4-2.5-0.3-5-1.2-7.4
							C602.6,582.5,595.6,561.9,592.8,557.1z"/>
					</defs>
					<clipPath id="SVGID_18_">
						<use xlink:href="#SVGID_17_"  style="overflow:visible;"/>
					</clipPath>
					<g class="st34">
						<path class="st27" d="M613.6,590.7c-0.2,0-0.3,0-0.5-0.1c-0.7-0.3-6.8-1.8-17.7-3.2c-10.9-1.4-25.9-0.5-26.8-0.3
							c-0.6,0.1-1.1-0.2-1.2-0.8c-0.1-0.5,0.2-1.1,0.8-1.2c1.3-0.3,16.4-1.1,27.5,0.3c10.6,1.3,17.2,2.9,18.2,3.4
							c0.5,0.2,0.7,0.8,0.5,1.3C614.3,590.4,614,590.6,613.6,590.7z"/>
					</g>
				</g>
				<g>
					<defs>
						<path id="SVGID_19_" d="M592.8,557.1c-0.5-0.9-1-1.8-1.9-2.2c-1.1-0.6-2.4-0.5-3.6-0.2c-4.3,0.9-15.1,7.5-17.1,12
							c-0.9,2.1,0.9,5.3,1.6,7.4c0.9,3,1.8,6.1,1.8,9.3c-0.1,5-2.4,9.6-5.2,13.7s-6,7.9-8.4,12.3c-1.5,2.8-2.6,6.1-1.5,9
							c1.1,2.8,4.1,4.6,7.1,4.9c3,0.3,6-0.7,8.7-2.1c7.9-4,13.8-11.1,20.9-16.4c4.1-3,9-6.1,9.9-11.1c0.4-2.5-0.3-5-1.2-7.4
							C602.6,582.5,595.6,561.9,592.8,557.1z"/>
					</defs>
					<clipPath id="SVGID_20_">
						<use xlink:href="#SVGID_19_"  style="overflow:visible;"/>
					</clipPath>
					<g class="st35">
						<path class="st27" d="M605.8,606.8c-0.1,0-0.2,0-0.3,0c-0.2-0.1-0.6-0.2-2.4-1.1c-3.2-1.5-9.2-4.4-14.5-6.6
							c-7.2-3-23.2-4.3-23.4-4.3c-0.5,0-1-0.5-0.9-1.1c0-0.5,0.5-0.9,1.1-0.9c0.7,0,16.5,1.3,24,4.4c5.3,2.2,11.4,5.1,14.6,6.7
							c1,0.5,2,0.9,2.1,1c0.5,0.2,0.8,0.8,0.6,1.3C606.5,606.5,606.2,606.8,605.8,606.8z"/>
					</g>
				</g>
				<g>
					<defs>
						<path id="SVGID_21_" d="M592.8,557.1c-0.5-0.9-1-1.8-1.9-2.2c-1.1-0.6-2.4-0.5-3.6-0.2c-4.3,0.9-15.1,7.5-17.1,12
							c-0.9,2.1,0.9,5.3,1.6,7.4c0.9,3,1.8,6.1,1.8,9.3c-0.1,5-2.4,9.6-5.2,13.7s-6,7.9-8.4,12.3c-1.5,2.8-2.6,6.1-1.5,9
							c1.1,2.8,4.1,4.6,7.1,4.9c3,0.3,6-0.7,8.7-2.1c7.9-4,13.8-11.1,20.9-16.4c4.1-3,9-6.1,9.9-11.1c0.4-2.5-0.3-5-1.2-7.4
							C602.6,582.5,595.6,561.9,592.8,557.1z"/>
					</defs>
					<clipPath id="SVGID_22_">
						<use xlink:href="#SVGID_21_"  style="overflow:visible;"/>
					</clipPath>
					<g class="st36">
						<path class="st27" d="M592.1,614.5c-0.1,0-0.3,0-0.4-0.1c-0.5-0.2-1.2-0.6-2.2-1.2c-1.8-1.1-4.8-2.9-10-5.5
							c-7.7-3.8-20.4-4.2-20.6-4.2c-0.5,0-1-0.5-1-1c0-0.5,0.5-1,1-1c0.5,0,13.3,0.4,21.4,4.5c5.2,2.6,8.3,4.5,10.1,5.6
							c0.9,0.5,1.5,1,1.9,1.1c0.5,0.2,0.8,0.8,0.6,1.3C592.8,614.2,592.4,614.5,592.1,614.5z"/>
					</g>
				</g>
				<g>
					<defs>
						<path id="SVGID_23_" d="M592.8,557.1c-0.5-0.9-1-1.8-1.9-2.2c-1.1-0.6-2.4-0.5-3.6-0.2c-4.3,0.9-15.1,7.5-17.1,12
							c-0.9,2.1,0.9,5.3,1.6,7.4c0.9,3,1.8,6.1,1.8,9.3c-0.1,5-2.4,9.6-5.2,13.7s-6,7.9-8.4,12.3c-1.5,2.8-2.6,6.1-1.5,9
							c1.1,2.8,4.1,4.6,7.1,4.9c3,0.3,6-0.7,8.7-2.1c7.9-4,13.8-11.1,20.9-16.4c4.1-3,9-6.1,9.9-11.1c0.4-2.5-0.3-5-1.2-7.4
							C602.6,582.5,595.6,561.9,592.8,557.1z"/>
					</defs>
					<clipPath id="SVGID_24_">
						<use xlink:href="#SVGID_23_"  style="overflow:visible;"/>
					</clipPath>
					<g class="st37">
						<path class="st27" d="M579.8,621.3c-0.1,0-0.3,0-0.4-0.1c-8-3.3-26.7-10.9-27.2-11.2c-0.5-0.3-0.6-0.9-0.3-1.4
							c0.3-0.5,0.9-0.6,1.3-0.3c0.9,0.4,16.6,6.8,27,11.1c0.5,0.2,0.8,0.8,0.5,1.3C580.6,621,580.2,621.2,579.8,621.3z"/>
					</g>
				</g>
			</g>
		</g>
		<path class="st38" d="M603.4,391.9c-13-0.9-26.3-1.5-39.3,0.2c-10.4,1.4-21,4.1-29.1,10.9c-10.1,8.5-14.6,22.3-14.7,35.6
			c0,13.2,3.8,26.2,8,38.7c4.9,14.9,9.8,29.7,15.2,44.4c5.4,14.4,10.7,30,18.5,43.3c1.7,2.8,2.6,5.5,3.8,8.6c0.5,1.2,1,2.4,2.1,3.1
			c2.3,1.6,5.4,0.2,8.2,0c3.1-0.2,6.4,1.4,9.3,0.3c1.3-0.5,2.4-1.5,3.4-2.5c2.2-2.1,4.5-4.3,5.5-7.2c1.2-3.5,0.2-7.3-0.8-10.9
			c-4.2-15.4-9.7-30.4-13.9-45.9c-4.3-15.9-8-32-11.2-48.1c-0.6-3.1-1.1-6.2-1.7-9.2c-0.3-1.5-0.5-3.1-0.2-4.6
			c0.7-2.9,3.4-4.8,6-6.2c7.4-4.1,15.5-6.7,23.9-7.6c6.2-0.7,17.1,2.5,16-6.4C612,425.4,604.9,392,603.4,391.9z"/>
		<g>
			<path class="st8" d="M425,376.8c-1.1,0.6-2.1,1.2-3.1,1.9c-1.1,0.8-1.9,1-1.6,2.4c0.4,2.2,2.1,4.6,3.3,6.4
				c0.2,0.3,0.5,0.7,0.8,0.9c0.5,0.3,1,0.4,1.6,0.5c2.8,0.5,5.6,0.8,8.3,1.5c1.4,0.4,2.8,0.8,4.2,0.9c0.9,0,1.8-0.1,2.7-0.2
				c1.9-0.3,3.9-0.6,5.8-0.9c1.5-0.3,3.2-0.3,4.4-1.3c2.1-1.8,2.2-5.2,2.5-7.8c0.5-5.1-1.3-10.1-7.1-10.3c-3-0.1-6.8,1.3-9.8,1.9
				C432.8,373.4,428.8,374.7,425,376.8z"/>
			<g>
				<g>
					<path class="st8" d="M421.9,397.8c2.8-4.5,6.7-8.5,12.5-7.8c3.8,0.5,3.8-5.6,0-6c-7.8-0.9-13.8,4.6-17.7,10.8
						C414.7,398.1,419.9,401.1,421.9,397.8L421.9,397.8z"/>
				</g>
			</g>
			<g>
				<g>
					<path class="st8" d="M429.5,384.9c0.6-0.4,0.9-0.7,1.3-1.3c0.7-1-0.5-2.5-1.6-2.1c-4.8,1.6-9,4.5-12.1,8.6
						c-1,1.3-3.1,3.6-2.5,5.5c0.5,1.5,2.2,2,3.5,1.6c2.3-0.7,3.5-4,4.9-5.7c2-2.5,4.9-3.6,7.5-5.4c3.5-2.5,0.6-6.3-2.7-3.4
						c-1.4,1.2,0.7,3.3,2.1,2.1c-0.4-0.3-0.8-0.6-1.2-0.9c-0.3,0.2-0.5,0.3-0.8,0.5c-0.6,0.2-1.4,0.8-2,1.2c-1,0.6-2,1.2-2.9,2
						c-1.9,1.5-4.4,4.3-5.3,6.6c-0.3,0.8,0.3-0.2,0.5-0.4c0.4-0.4,0.6-1,1-1.5c0.9-1.2,1.9-2.3,3-3.3c2.3-2.1,5-3.6,8-4.6
						c-0.5-0.7-1.1-1.4-1.6-2.1c-0.1,0.1-0.2,0.2-0.3,0.2C426.5,383.3,427.9,385.8,429.5,384.9z"/>
				</g>
			</g>
			<g>
				<g>
					<path class="st8" d="M417,389.3c1.3-1.7,2.8-3.2,4.6-4.4c0.7-0.5,1.4-0.9,2.2-1.3c0.6-0.3,1.3-0.6,2-0.9c1-0.2,1.1-0.3,0.1-0.4
						c-0.2-0.5-0.5-1.1-0.7-1.6c0,0.1,0,0.1,0,0.2c0.5-0.4,0.9-0.7,1.4-1.1c0,0-0.1,0-0.1,0c0.5,0.5,1,1,1.5,1.5
						c-0.4-4.9-8.1,0.2-9.9,1.5c-2.1,1.5-8,7.5-4.5,10.2c1.5,1.2,3.2,0.1,4.3-1c2.1-2.2,4.2-3.7,6.8-5.3c1.6-1,3.9-2.6,4.3-4.6
						c0.4-2.1-1.4-2.9-3.1-3.1c-1.9-0.2-1.9,2.8,0,2.9c0.2,0-1.6,1.6-2,1.9c-0.8,0.6-1.7,1-2.6,1.5c-2,1.2-3.6,2.5-5.1,4.3
						c-0.2,0.2-1,1.6-0.3,0.3c0.3-0.5,0.5-1,0.9-1.5c0.6-1,1.5-1.9,2.4-2.6c1-0.8,2.1-1.5,3.2-2.1c0.6-0.3,1.2-0.6,1.8-0.8
						c0.3-0.1,0.7-0.3,1-0.4c0.7-0.1,0.6-0.4,0-1.1c0.1,0.9,0.6,1.4,1.5,1.5c0,0,0.1,0,0.1,0c0.6,0.1,1.3-0.5,1.4-1.1
						c0-0.1,0-0.1,0-0.2c0.1-0.6-0.1-1.4-0.7-1.6c-1.8-0.8-4.2,0.7-5.8,1.6c-2.6,1.4-4.8,3.4-6.6,5.7
						C413.8,388.7,415.8,390.7,417,389.3L417,389.3z"/>
				</g>
			</g>
			<g>
				<path class="st8" d="M427.9,378.7c-0.5-0.8-1.6-0.8-2.5-0.6c-4.1,0.6-8,2.3-11.1,4.9c-0.4,0.4-0.8,1.2-0.2,1.3
					c-0.2,0.4-0.1,1.1,0.4,1.2c0.5,0.1,0.9,0,1.4-0.2c1.4-0.6,2.5-1.7,3.8-2.4c0.9-0.5,1.8-0.8,2.8-1.1c1.3-0.4,2.6-0.8,3.9-1.2
					c0.4-0.1,0.8-0.2,1.1-0.5s0.5-0.7,0.5-1.1C427.8,378.6,428.3,378.5,427.9,378.7z"/>
			</g>
			<g>
				<g>
					<path class="st8" d="M448.5,386.5c-2.9,2-5.8,3.9-8.9,5.6c-1.3,0.7-2.8,1.6-4.1,2c-1,0.3-6.5-0.3-2.7,1c2,0.7,4.7-1.2,6.3-2.2
						c3-1.9,6.5-4,9.2-6.2c-1.5,1.1,0.6,3.2,2.1,2.1c2.8-2.1-1.1-4.6-3.4-4.1c-3.1,0.7-5.6,3.2-8.2,4.9c-2.1,1.4-3.4,2.1-5.9,2.5
						c-0.9,0.1-1.7-0.1-2.6,0.4c-1.1,0.7-1.7,2.1-1,3.3c0.8,1.4,3.1,1.6,4.5,1.6c5.7-0.2,12-5.3,16.4-8.4
						C451.4,387.9,450,385.4,448.5,386.5z"/>
				</g>
			</g>
		</g>
		<path class="st38" d="M556.5,429.6c2.6-2.1,4.5-5.3,5.5-10.1c1.6-7.3,0.5-14.9,2.1-22.2c1.4-6.4,4.8-12.2,6.6-18.5
			c0.7-2.4,1-5.3-0.7-7.1c-1.4-1.5-3.7-1.8-5.8-1.9c-5.7-0.3-11.5-0.2-17.1,0.4c-26.3,2.6-54.3,14.9-72,35
			c-17.7,20.2-11.5,49.1-4,72.1c5,15.3,10.1,30.5,15.7,45.6c2.8,7.6,5.8,15.1,9,22.6c2.6,6.1,5.4,12.3,8.7,18.1
			c1.6,2.9,3.4,5.7,4.5,8.8c0.8,2.1,1.6,4.7,3.7,5.4c1.9,0.7,4-0.5,6-0.6c3.2-0.2,6.5,2.1,9.5,1.1c3.1-1,4.3-4.8,6.7-7
			c1.1-1,2.7-1.9,3.1-3.4c0.2-0.8,0.1-1.5,0-2.3c-2.3-15.8-8.7-30.5-13.1-45.7c-4.5-15.8-8.5-31.8-11.9-48
			c-1.3-6.3-2.5-12.6-3.7-18.9c-0.3-1.5-0.5-3.1-0.2-4.6c0.7-2.9,3.4-4.8,6-6.2c7.4-4.1,15.5-6.7,23.9-7.6
			C546.1,433.8,552.2,433.1,556.5,429.6z"/>
		<path class="st8" d="M555.1,228.3L555.1,228.3c-8.1,0-14.6-6.5-14.6-14.6v-33.5h29.2v33.5C569.7,221.7,563.2,228.3,555.1,228.3z"
			/>
		<path class="st39" d="M569.8,191.4c-5-1.2-11.3-0.9-14.2-0.7c-5,0.3-10.1,1.1-14.8,3.4c-0.1,0-0.2,0.1-0.2,0.1v12.4
			c5.6,5.1,11.8,8.5,19.8,6.4c2.3-0.6,6-2.1,9.4-4.2V191.4z"/>
		<path class="st8" d="M584,172.9c1-7.2,1.5-15,0.4-22.2c-1-6.8-7.8-11.5-13.7-13.8c-7.3-2.9-12.3-10.9-19.9-8.6
			c-5.3,1.6-11.8,0.8-16.3,5.3c-1.9-0.6-7.4,14.3-7.5,17c-0.7,13.9-3,30.1,4.8,42.6c3.4,5.5,8.7,10.1,13.7,12.8
			c5.8,3.1,9.7,3.2,15.9,1.1c6.8-2.3,11.4-7.5,15.8-12.9C581.9,188.5,583.1,180,584,172.9z"/>
		<path class="st13" d="M542.6,154.8c-4.2-3.4-12.5-0.2-15.8,3.8c-0.1,0.1-0.2,0.2-0.3,0.3c-0.3,0.4-0.5,0.8-0.7,1.2
			c-0.2,0.4,0,0.7,0.2,0.9c0.2,0.3,0.6,0.6,1.2,0.4c2.1-0.7,3.9-1.7,6-2.5c2.8-1.1,5.3-0.8,8.1-1.1
			C543.6,157.6,544.2,156.1,542.6,154.8z"/>
		<path class="st13" d="M558.7,157.6c2.9,0.2,5.3-0.1,8.2,0.9c2.1,0.7,3.9,1.8,6.1,2.3c0.6,0.2,1-0.1,1.2-0.4
			c0.2-0.2,0.4-0.5,0.2-0.9c-0.2-0.4-0.4-0.8-0.7-1.1c-0.1-0.1-0.2-0.2-0.3-0.3c-3.4-3.9-11.8-6.8-15.9-3.4
			C555.8,156,556.4,157.4,558.7,157.6z"/>
		<path class="st8" d="M585.5,167.5c-3.9-3-7.3,4.8-8.5,7.2c-0.8,1.5,1.5,2.9,2.3,1.4c-0.2,0.4-0.5,0.9-0.8,1.4
			c-0.9,1.5-2.5,3.7-1.5,5.5c2.1,3.6,7.6-1.2,9.1-3.5C589.4,174.4,588.6,169.9,585.5,167.5z"/>
		<g>
			<path class="st40" d="M524.4,330.7c0,0-17.5,47-19.3,57.5c-8,47,7.5,48.9,54,45c37.2-3.2,63.7,8.5,49.6-48
				c-2.8-11-18.1-57.3-18.1-57.3S550.3,304.6,524.4,330.7z"/>
		</g>
		<g>
			<path class="st40" d="M504.8,231c0,0-11.7,90.4-12.1,94.2c-0.4,3.9,10.8,13.6,20.6,6.7c2.7-1.9,12.3-60.4,12.4-67.1
				C525.8,258.2,518.3,221.8,504.8,231z"/>
		</g>
		<g>
			<path class="st8" d="M541.2,210.4l-27.1,15.1c-8,4.5-12,13.7-9.8,22.6c6.5,26.4,19.4,78.5,20.1,82.6c0.9,5.5,38.8,24.2,66.1-2.9
				l17.7-94.9c0,0-38.3-20.9-39.7-22.5C568.5,210.4,562.6,221,541.2,210.4z"/>
		</g>
		<g>
			<g>
				<path class="st41" d="M511.6,226.3l-2.9,1.8c0,0,8.4,31.6,9,32.8c0.6,1.2-6.8,14.2-7,15.4c-1.1,6.7,5,19,5.4,19.9
					c0.4,1,28.3-0.4,30.1-1.3c0.1,0,1.1-1.5,1.1-1.6c0-1.6-5.4-12.1-11.7-19.5c-6.7-8-14.4-12.9-14.8-13.6
					C520.1,258.7,511.6,226.3,511.6,226.3z"/>
			</g>
		</g>
		<g>
			<g>
				<path class="st41" d="M590.6,259.1c0.6-1.2,8.8-31.4,8.8-31.4l-2.8-1.7c0,0-7.7,30.5-8.5,31.8c-0.4,0.7-14.6,9.3-25.6,18.3
					c-9,7.4-15.2,15.5-15.2,17.1c0,0.1-1.2,1.6-1.1,1.6c1.8,1,49.8,2.3,50.1,1.3s3.4-17.1,3.4-18.2
					C599.8,276.8,590,260.2,590.6,259.1z"/>
			</g>
		</g>
		<g>
			<path class="st38" d="M514.9,344.8l82.7-0.5c0,0,15.1,33,18.8,67.9c3,28.2-56.9,32.5-56.9,32.5s-58.6-3.2-59.4-24.3
				C498.5,377.5,514.9,344.8,514.9,344.8z"/>
		</g>
		<g>
			<g>
				<path class="st42" d="M511,354.6c-0.8,2-1.2,3.3-1.2,3.3c-0.4,1.2,34.2,12.1,36.7,14c2.5,1.8,5,4,8,3.9c1.7-0.1,3.2-0.9,4.8-1.4
					c2.2-0.7,4.5-1,6.7-1.3c9.7-1.3,19.2-3.6,28.4-6.9c2.5-0.9,5.1-2,6.7-4.1c7.4-10.4-10.8-27.1-9.3-38c0,0,3.4-24.5,7.6-33
					c0.2-0.5,0.4-0.9,0.6-1.4c4.4-10.4,3.6-22.9,2.5-33.8c-0.6-5.8-1.5-11.6-2.8-17.3c-0.5-2.4-1.1-4.8-1.7-7.1
					c-0.3-1.1-0.7-2.1-1-3.2c-0.4-1.2-0.2-3-1.5-3.6c-0.3-0.1-0.7-0.2-1.1-0.1c-0.2,0-0.4,0-0.6,0.1c-7.6,1-15.2,2.4-22.7,4.2
					c-4,1-8.1,2.1-12.2,2.6c-12.9,1.6-25.7-2.9-37.8-7.5c-0.8-0.3-1.7-0.6-2.6-0.6c-2.4,0.1-2,2.5-2.3,4.2c-0.3,1.5-0.6,3.1-0.8,4.6
					c-1.6,9.9-2.7,19.9-3.8,29.9c-0.6,5.8-1.2,11.5-1.7,17.3c4.8,13.1,12,46.4,12,46.4c-2,5.3-3.9,10.6-5.9,15.9
					c-1.4,3.6-2.7,7.3-4.1,11c-1.6,4.4-4.6,7.9-2.3,12.9c1.6,3.4,5.2,5.8,9,6c5.2,0.3,10.3-3,15.5-2.2c5.3,0.8,9.2,5.8,14.4,6.9
					c6.8,1.4,13.2-3.9,20.1-3.9c2.3,0,4.6,0.6,6.8,0.9c7.2,0.9,14.5-1.3,21.4-3.5c1.5-0.5,3-0.9,4.3-1.8c3.6-2.4,4.7-7.5,3.5-11.6
					c-1.2-4.2-4.2-7.5-7.5-10.3"/>
			</g>
		</g>
		<g>
			<g>
				<path class="st42" d="M593.3,281.7l11.8,36.1l25.2-6.7c0,0-17.5-77.5-21.8-81.7c-1.3-1.3-17.7-9.9-19-7.7
					C581.5,235.1,593.3,281.7,593.3,281.7z"/>
			</g>
		</g>
		<g>
			<g>
				<path class="st42" d="M526.9,278.4l-6.8,37.3l-26.9-4.2c0,0,7.9-76.9,11.7-81.5c1.1-1.4,18-13.8,19.5-11.7
					C533.8,230.9,526.9,278.4,526.9,278.4z"/>
			</g>
		</g>
		<path class="st43" d="M604.2,222.2c0.2,0.1,0.3,0.2,0.5,0.2c8.4,4.2,11.7,14.2,14.2,23.2c8,29.9,14.4,60.2,17.3,91
			c0.5,5.1,0.9,10.2-0.3,15.2c-1.1,4.7-4.2,11.1-9.6,11.2c-5.5,0-10.5-5-16-5.4c1.2-22.4,3.9-29.8,0.5-52
			c-2.8-18.8-12.2-38.2-21.5-54.4c-2-3.5,0.2-14.1,1.6-18.4c1.1-3.3,2.7-9.9,6.2-11.2C599.5,220.8,602,221.2,604.2,222.2z"/>
		<path class="st43" d="M503.4,228.4c-0.9,0.2-2.6,8.4-2.8,9.3c-2.1,7.6-3.3,15.1-4.3,22.9c-1.6,12-1.2,23.8-3.7,35.7
			c-2.8,13.2-6.3,26.2-10.4,39.1c-3.6,11-9.5,18.2-19.2,24.4c-4.8,3.1-9.8,6-14.8,8.8c-1.3,0.7-2.7,1.5-3.5,2.8
			c-1,1.7-0.6,3.9-0.2,5.9c0.9,4,2.1,8.5,5.8,10.3c1.6,0.8,3.4,0.9,5.2,0.9c8.4-0.1,16.5-3.1,24.4-6.1c2.4-0.9,4.7-1.8,7-3
			c11.4-6.1,18.8-19.5,23.8-30.9c5.4-12.4,8.5-25.7,10.8-39c2.2-13,3.7-26.1,5.6-39.1C528.2,261.6,528.3,223.3,503.4,228.4z"/>
		<path class="st19" d="M503.3,226.7c-0.4,0.4-0.8,0.9-1.1,1.4c-0.5,1-0.6,2-0.5,3c0.6,4.2,1,11.1,1,15.4l-0.2,19.2
			c-0.1,13.4-0.3,26.7-0.5,40.1c-0.3,23.4,4.8,51.6-6.5,73.1c-0.2,0.5-0.5,1-0.8,1.5c-1.9,3.5,2.1,7.2,5.5,5.2
			c8.4-5.1,17.6-8.8,27.2-11.1c2.5-0.6,5.1-1.1,7.5-2.2c7.5-3.8,5.5-19.4,6.1-26.8c2.1-28-2.8-50.1-6.3-77.8
			c-0.9-7-1.5-20.4-1.6-27.4c0-7.8,0.8-15.5,2.4-23.1c0.6-2.9-2-5.4-4.8-4.7c-8.7,2.3-17.4,8.6-24.6,12.5
			C505.2,225.4,504.2,225.9,503.3,226.7z"/>
		<path class="st19" d="M611.4,229.2c3.1,5.7,0.9,14,1.2,20.1c0.4,8.5,0.8,17.1,1.3,25.6c0.8,16.8,1.6,33.5,2.5,50.3
			c0.4,8.5,0.9,16.9,1.4,25.4c0.2,3.4-0.2,6.9,0.4,10.2c0.7,3.9,2,7.6,3.2,11.4c0.9,2.9,1.8,5.7,2.5,8.6c2.8,12.3,1,25.9,0.5,38.4
			c-0.1,2.2-0.2,4.4-0.8,6.4c-0.7,2-1.9,3.8-3,5.7c-2.7,4.4-4.6,9.3-5.9,14.3c-0.5,1.9-0.8,3.8-0.7,5.8c0.1,2.4,1,4.6,1.4,6.9
			c0.7,3.5,0.5,7.2,0.3,10.8c-0.1,1.7-0.2,3.5-1.1,4.9c-1,1.5-2.7,2.2-3.9,3.5c-1.1,1.2-1.2,2.9-2.2,4c-1.6,1.6-5.7,2.1-7.8,2.9
			c-4.2,1.7-7.8,4.6-11.8,6.9c-2.7,1.5-8.4,0.8-13.1-0.2c-3.4-0.7-5.9-3.5-6.4-6.9c-3.4-25.9-11.8-37.1-8.6-54.9
			c1.8-9.8,17.6-18.3,12.7-26.9c-2.3-4.1,0.2-3.2-0.6-6.8c-0.8-3.9-0.9-10.3-0.3-14.2c1.6-11.6,3.8-23.2,5.2-34.8
			c1.5-11.2-0.3-23.5-0.4-34.9c-0.1-6.8-0.1-13.6-0.7-20.4c-0.5-7.2-1.6-14.5-1.6-21.7c0-10,2-19.9,3.1-29.9
			c0.6-4.9,0.9-9.8,0.7-14.8c-0.1-2-0.6-4.2-1.1-6.4c-0.7-3,2.1-5.7,5.1-4.9c0.1,0,0.2,0.1,0.3,0.1c3,0.6,5.9,1.2,8.8,2.3
			c5.8,2,11.1,5.1,15.8,9c1.2,1,2.3,2,3.1,3.2C611.1,228.7,611.3,229,611.4,229.2z"/>
		<g>
			<g>
				<path class="st7" d="M612.6,339.6c-3.2,8.4-13.3,12.5-20.9,15.8c-0.4,0.2-0.1,0.8,0.4,0.6c7.8-3.4,18-7.6,21.3-16.2
					C613.4,339.4,612.7,339.2,612.6,339.6L612.6,339.6z"/>
			</g>
		</g>
		<g>
			<g>
				<path class="st7" d="M524.8,233.7c6.2,20.6-10.7,42-0.4,62c0.2,0.4,0.8,0,0.6-0.3c-10.3-19.9,6.6-41.3,0.4-61.8
					C525.3,233.1,524.7,233.3,524.8,233.7L524.8,233.7z"/>
			</g>
		</g>
		<g>
			<g>
				<path class="st7" d="M516.7,263.7c-0.2,2.8-0.4,5.6-0.6,8.5c0,0.5,0.7,0.5,0.7,0c0.2-2.8,0.4-5.6,0.6-8.5
					C517.4,263.3,516.7,263.3,516.7,263.7L516.7,263.7z"/>
			</g>
		</g>
		<g>
			<g>
				<path class="st7" d="M590.5,242.1c2.2,11.1,4.5,22.4,3.9,33.7c-0.3,5.7-1.4,11.3-3.4,16.6c-1.8,4.8-4,9.3-4.9,14.4
					c-0.1,0.4,0.6,0.6,0.7,0.2c1-5.6,3.6-10.6,5.5-15.9c1.7-4.9,2.6-10,2.8-15.2c0.6-11.4-1.7-22.8-4-33.9
					C591.1,241.5,590.5,241.7,590.5,242.1L590.5,242.1z"/>
			</g>
		</g>
		<g>
			<g>
				<path class="st7" d="M600.8,279.7c-0.8,6.6-5.3,11.9-5.9,18.5c0,0.5,0.7,0.5,0.7,0c0.6-6.6,5.1-12,5.9-18.5
					C601.5,279.2,600.8,279.2,600.8,279.7L600.8,279.7z"/>
			</g>
		</g>
		<g>
			<g>
				<path class="st7" d="M507.6,281.7c-0.2,9.2,2.7,17.8,8.5,25c0.3,0.4,0.8-0.1,0.5-0.5c-5.7-7-8.5-15.4-8.3-24.5
					C508.4,281.3,507.7,281.3,507.6,281.7L507.6,281.7z"/>
			</g>
		</g>
		<g>
			<g>
				<path class="st44" d="M572.7,238.9c-0.8,3.4-0.5,6.8-0.8,10.3c-0.4,4.6-1.8,8.9-3.3,13.3c-2.4,7-4.8,13.8-4.7,21.2
					c0,0.5,0.7,0.5,0.7,0c-0.2-8,2.7-15.1,5.2-22.6c1.1-3.3,2.1-6.7,2.6-10.2c0.5-3.9,0.1-7.9,1-11.8
					C573.4,238.7,572.8,238.5,572.7,238.9L572.7,238.9z"/>
			</g>
		</g>
		<g>
			<g>
				<path class="st44" d="M569.2,251.3c-0.9,3.9-1.9,7.8-2.8,11.7c-0.1,0.4,0.6,0.6,0.7,0.2c0.9-3.9,1.9-7.8,2.8-11.7
					C570,251,569.3,250.8,569.2,251.3L569.2,251.3z"/>
			</g>
		</g>
		<g>
			<g>
				<path class="st44" d="M540.9,249.1c1.7,10,3.9,19.9,6.6,29.7c0.1,0.4,0.8,0.2,0.7-0.2c-2.7-9.8-4.9-19.7-6.6-29.7
					C541.5,248.4,540.8,248.6,540.9,249.1L540.9,249.1z"/>
			</g>
		</g>
		<g>
			<g>
				<path class="st44" d="M542.5,270.7c0.5,3.2,1.3,6.3,2.3,9.4c0.1,0.4,0.8,0.2,0.7-0.2c-1-3.1-1.8-6.2-2.3-9.4
					C543.1,270.1,542.4,270.3,542.5,270.7L542.5,270.7z"/>
			</g>
		</g>
		<g>
			<g>
				<path class="st44" d="M547.5,339.4c5.3,2.1,10.8,3.3,16.5,3.6c0.5,0,0.5-0.7,0-0.7c-5.6-0.3-11-1.5-16.3-3.6
					C547.2,338.5,547,339.2,547.5,339.4L547.5,339.4z"/>
			</g>
		</g>
		<g>
			<g>
				<path class="st44" d="M554,345.4c2,0.5,4,1.1,6,1.6c0.4,0.1,0.6-0.6,0.2-0.7c-2-0.5-4-1.1-6-1.6
					C553.8,344.6,553.6,345.3,554,345.4L554,345.4z"/>
			</g>
		</g>
		<g>
			<g>
				<path class="st16" d="M544.7,172.6c-1.3,1.4-3.1,3.6-1.9,5.6c1.2,2,4.4,1.7,6.3,1.6c1.7,0,5.1,0.4,6.1-1.4
					c1-1.8-0.4-4.1-1.6-5.4c-0.4-0.4-1.1,0.2-0.7,0.7c1.3,1.4,2.4,3.6,0.3,4.9c-0.8,0.5-3.3,0.3-4.2,0.3c-1.1,0-2.5,0.1-3.6-0.2
					c-3.3-0.9-1.8-3.8-0.2-5.5C545.8,172.8,545.1,172.2,544.7,172.6L544.7,172.6z"/>
			</g>
		</g>
		<g>
			<g>
				<path class="st15" d="M582.6,180.5c3.5,2.6,2.1,11.4-3.1,11c-0.8-0.1-0.8,1.1,0,1.2c3.1,0.3,5.1-2.3,5.8-5.1
					c0.8-3.1,0.5-6.1-2.2-8.1C582.6,179,582,180.1,582.6,180.5L582.6,180.5z"/>
			</g>
		</g>
		<g>
			<g>
				<path class="st15" d="M526.6,182.3c-2.4,2.1-3.6,5.5-2.3,8.5c1.2,2.8,4.1,4.3,7,3.3c0.7-0.2,0.4-1.4-0.3-1.1
					c-2.8,1-5.4-0.8-6-3.6c-0.5-2.4,0.6-4.7,2.4-6.2C528,182.6,527.2,181.8,526.6,182.3L526.6,182.3z"/>
			</g>
		</g>
		<g>
			<g>
				<path class="st16" d="M549.9,193.4c0.6-4.6,8.3-6.1,10.4-1.8c0.3,0.6,1.1,0.1,0.8-0.5c-2.5-5.2-11.4-3.2-12.1,2.3
					C548.9,194,549.9,194,549.9,193.4L549.9,193.4z"/>
			</g>
		</g>
		<path class="st8" d="M565.9,377.9c-1.2-1.9-3.4-2.9-5.6-2.4c-7.1,1.6-22.8,5.2-27.2,7.8c-5.7,3.4-11.3,13-12.5,17.1
			c-1.2,4.1,4.6,3.5,4.6,3.5s2.5,1.6,4.9,1.6c2.5,0,5-1.4,5-1.4s1.5,1.1,3.7,1.2c2.2,0.1,8.1-4,10.3-5.1s6.2-0.2,12.5-2.1
			c6.3-1.9,7.5-8.9,7.6-12.2C569.3,383.9,567.5,380.4,565.9,377.9z"/>
		<path class="st43" d="M585,389.2c-3.9,1.9-7.8,3.8-11.7,5.8c-2.5,1.2-5.6,3.2-8.4,1.9c-1.8-0.8-3-2.6-4-4.3
			c-2.3-4.1-3.6-8.8-3.8-13.6c-0.4-8.2,5.5-9.9,11.7-13.6c6.8-4.1,13.5-8.2,20.2-12.3c13.7-8.3,27.4-16.6,41.1-25
			c0.6-0.4,1.3-0.7,1.9-0.4c0.4,0.2,0.6,0.7,0.7,1.2c3.9,12.5,6.2,23-2.8,32.5c-7.2,7.7-22.8,16.3-31.9,21.2
			C593.8,384.9,589.4,387.1,585,389.2z"/>
		<g>
			<g>
				<path class="st45" d="M533.1,444.4c8.1,4,16.4,1.4,24.4-1.4c0.4-0.1,0.2-0.7-0.2-0.6c-7.8,2.8-16,5.5-24,1.5
					C533,443.7,532.8,444.2,533.1,444.4L533.1,444.4z"/>
			</g>
		</g>
		<g>
			<g>
				<path class="st45" d="M543.4,450.5c0.9,1.4,3.3,0.5,4.6,0.2c3.2-0.6,6.1-1.8,8.8-3.5c0.3-0.2,0-0.7-0.3-0.5
					c-1.9,1.2-3.9,2.1-6.1,2.8c-1.2,0.4-5.7,1.9-6.5,0.7C543.7,449.8,543.2,450.1,543.4,450.5L543.4,450.5z"/>
			</g>
		</g>
		<g>
			<g>
				<path class="st45" d="M491.4,435.9c-0.1,0-0.1,0-0.2,0c-0.1,0-0.3,0.1-0.3,0.2c-0.4,1.8,3.1,3.9,4.5,4.7c2.8,1.8,6,2.8,9.4,3
					c0.4,0,0.4-0.6,0-0.6c-2.7-0.2-5.3-0.9-7.7-2.1c-1.2-0.6-2.3-1.4-3.3-2.2c-0.4-0.3-2.1-2.4-2.4-2.4
					C491.8,436.5,491.8,435.9,491.4,435.9L491.4,435.9z"/>
			</g>
		</g>
		<g>
			<g>
				<path class="st45" d="M490,444.1c3.1,1.1,6.3,1.7,9.6,1.8c0.4,0,0.4-0.6,0-0.6c-3.3,0-6.4-0.6-9.5-1.7
					C489.8,443.4,489.7,444,490,444.1L490,444.1z"/>
			</g>
		</g>
		<g>
			<g>
				<path class="st45" d="M491.7,449.8c2.3,0,4.6-0.2,6.9-0.6c0.4-0.1,0.2-0.6-0.2-0.6c-2.2,0.4-4.5,0.5-6.7,0.6
					C491.4,449.2,491.4,449.8,491.7,449.8L491.7,449.8z"/>
			</g>
		</g>
		<g>
			<g>
				<path class="st45" d="M500.5,498.1c-0.3-0.4-0.6-0.7-0.9-1.1c-0.2-0.2-0.5,0-0.5,0.2c0.5,7.8,2.4,15.3,4.9,22.7
					c2.9,8.4,7.7,16.8,8.1,25.8c0,0.4,0.6,0.4,0.6,0c-0.4-8-4.2-15.2-6.9-22.5c-1.4-3.9-2.8-7.9-3.8-11.9c-0.4-1.7-0.8-3.5-1.2-5.2
					c-0.3-1.7-0.6-3.5-0.8-5.2c-0.4-0.8-0.4-1.6,0-2.3C500.4,498.8,500.8,498.4,500.5,498.1L500.5,498.1z"/>
			</g>
		</g>
		<g>
			<g>
				<path class="st45" d="M512.2,527.4c0.8,3.8,2.1,7.5,3.7,11.1c0.2,0.3,0.7,0,0.5-0.3c-1.6-3.5-2.8-7.2-3.6-11
					C512.8,526.9,512.2,527,512.2,527.4L512.2,527.4z"/>
			</g>
		</g>
		<g>
			<g>
				<path class="st45" d="M567.6,546.8c3.9,0.5,7.9,0.8,11.8,1.1c0.4,0,0.4-0.6,0-0.6c-4-0.2-7.9-0.6-11.8-1.1
					C567.2,546.2,567.2,546.8,567.6,546.8L567.6,546.8z"/>
			</g>
		</g>
		<g>
			<g>
				<path class="st45" d="M568.8,550.9c2,0.2,3.9,0,5.8-0.4c0.4-0.1,0.2-0.7-0.2-0.6c-1.9,0.4-3.7,0.5-5.6,0.4
					C568.5,550.2,568.5,550.8,568.8,550.9L568.8,550.9z"/>
			</g>
		</g>
		<g>
			<g>
				<path class="st45" d="M570.8,570.6c4.5,1.2,9.1,1.4,13.7,0.6c0.4-0.1,0.2-0.6-0.2-0.6c-4.5,0.8-9,0.6-13.4-0.6
					C570.6,569.9,570.4,570.5,570.8,570.6L570.8,570.6z"/>
			</g>
		</g>
		<g>
			<g>
				<path class="st7" d="M591.2,390.7c2.3,4.5,6.2,7,10.2,9.8c6.3,4.4,10.2,10,13.4,16.9c0.2,0.4,0.8,0,0.6-0.4
					c-2.5-5.5-5.5-10.8-10.2-14.6c-4.7-3.9-10.5-6.4-13.4-12.1C591.6,390,591,390.3,591.2,390.7L591.2,390.7z"/>
			</g>
		</g>
		<g>
			<g>
				<path class="st7" d="M591.3,397.2c2,1.5,3.9,3,5.8,4.4c0.4,0.3,0.7-0.3,0.4-0.6c-2-1.5-3.9-3-5.8-4.4
					C591.3,396.4,590.9,397,591.3,397.2L591.3,397.2z"/>
			</g>
		</g>
		<g>
			<g>
				<path class="st7" d="M582,485c3.4-1.5,7.2-1.5,10.5-3.4c2.9-1.6,5.3-3.9,7.7-6.1c0.3-0.3-0.2-0.8-0.5-0.5
					c-2.8,2.6-5.6,5.2-9.1,6.7c-2.9,1.3-6.1,1.4-9,2.7C581.2,484.6,581.6,485.2,582,485L582,485z"/>
			</g>
		</g>
		<g>
			<g>
				<path class="st7" d="M595.2,476.7c0.7-0.3,1.3-0.6,2-0.9c0.4-0.2,0.1-0.8-0.4-0.6c-0.7,0.3-1.3,0.6-2,0.9
					C594.4,476.3,594.8,476.9,595.2,476.7L595.2,476.7z"/>
			</g>
		</g>
		<g>
			<g>
				<path class="st7" d="M533.9,358.6c-2.2,2.6-4.4,5.4-7.4,7c-3.1,1.8-6.5,2.1-10,2.6c-4.9,0.8-8.9,2.2-12.8,5.4
					c-0.4,0.3,0.1,0.8,0.5,0.5c5.9-4.8,12-4.3,18.8-6.3c4.9-1.4,8.2-4.9,11.3-8.7C534.7,358.8,534.2,358.3,533.9,358.6L533.9,358.6z
					"/>
			</g>
		</g>
		<g>
			<g>
				<path class="st7" d="M514.8,364.2c-1.7,0.7-3.2,1.7-4.6,2.9c-0.3,0.3,0.2,0.8,0.5,0.5c1.3-1.2,2.8-2.1,4.4-2.8
					C515.6,364.6,515.2,364,514.8,364.2L514.8,364.2z"/>
			</g>
		</g>
	</g>
	<path class="st43" d="M616.2,340.2c0.5,1.7,1.2,3.5,2.8,4.3c2,1.1,4.7,0,6-1.9c1.3-1.9-0.2-11.8-0.1-14.1c1-14.4-1.5-28.9-2.4-43.3
		c-0.6-10.1-0.4-20.3-1.9-30.3c-0.5-3.4-4.1-25.3-13.2-30.3C601.9,234.3,600.3,291.7,616.2,340.2z"/>
</g>
<g>
	<path class="st46" d="M372.4,84.4C370.9,68.5,344,58,312.3,60.9S256,79.2,257.5,95.2c0.6,6.7,5.8,12.4,13.9,16.6
		c-4.1,0.5-8.2,1.2-12.4,2c-46.7,9.3-80.8,35.8-76.1,59.3c4.7,23.4,46.3,34.9,93,25.7c12-2.4,23.2-5.9,33.2-10.3l33.1,11.7
		l-11.5-23.8c15.4-11.1,23.8-24.4,21.3-36.8c-1.9-9.8-10.3-17.5-22.8-22.4c4-0.8,7.8-1.8,11.4-2.9l21.3,10.1l-6-16.7
		C366.7,101.1,373.2,92.9,372.4,84.4z"/>
	<path class="st47" d="M427.1,127.8c-1.2-11,15.6-21.8,37.5-24.1s40.5,4.7,41.7,15.7s-15.6,21.8-37.5,24.1c-5.6,0.6-11.1,0.6-16,0
		l-13,9.7l1.8-12.1C433.2,138.3,427.7,133.6,427.1,127.8z"/>
</g>
<g>
	<path class="st48" d="M674.3,61.8c3.1,4.1,8.2,6.3,13.3,6.8s13.8-1.1,20.7-3.4c3.2,4.7,14.2,4,17.7,2.3c6.3-3,7.6-8,7.4-11.8
		c4.9,0.9,6.1-4.7,4-7.1c1.2-2,1.2-4.5,0.5-6.8s-6.2-15.4-19.8-13.9c-0.5-0.1-1.1-0.2-1.5-0.5c-0.4-0.3-0.6-0.8-0.8-1.2
		c-2.4-5.4-7.6-9.3-13.2-10.9s-11.8-1-17.4,0.9c-0.5-1.5-4.6-1.8-5.2,0.3c-4.5-4.8-25.5-4.8-29.3,6.5c-0.8,2.3-0.7,7.1,0.9,8
		c-4.6,2-3.8,13.5,1.9,12.7c0.2,2.3,1.8,4.5,4,5.3c0.3,3.6,1.2,7,3.8,9.7C664.7,62,669.9,63.2,674.3,61.8z"/>
	<path class="st46" d="M836.3,117.8c-0.3-2.3-3.9-16.1-17.5-16.7c-0.5-0.2-1.1-0.3-1.4-0.8c-0.3-0.4-0.5-0.9-0.6-1.3
		c-1.6-5.7-6.1-10.3-11.5-12.8c-5.4-2.4-11.6-2.8-17.4-1.7c-0.3-1.6-4.3-2.4-5.2-0.5c-3.7-5.4-24.5-8.6-30,2c-1.1,2.2-1.7,6.9-0.3,8
		c-4.8,1.3-5.8,12.8,0,12.9c-0.2,2.3,1.1,4.7,3.2,5.8c0,0.5-0.1,1.1-0.1,1.6c-2.9-1.4-6.3-2.4-10.3-2.5c-0.8-0.2-1.6-0.5-2.1-1.1
		c-0.5-0.5-0.7-1.3-0.8-2c-2.3-8.4-9-15.2-16.9-18.8c-7.9-3.6-17-4.1-25.6-2.5c-0.4-2.3-6.3-3.6-7.6-0.7c-5.5-7.9-36.1-12.6-44.2,3
		c-1.7,3.2-2.6,10.2-0.5,11.8c-7.1,1.9-8.6,18.8,0,19c-0.3,3.4,1.7,6.9,4.7,8.6c-0.4,5.4,0.2,10.5,3.5,15c4.1,5.6,11.4,8.6,18.2,7.4
		c3.6,6.6,10.5,11,17.9,12.8c7.3,1.8,20.4,1.4,31-0.4c3.6,7.5,19.8,9,25.2,7.3c9.9-3,12.8-10,13.4-15.6c7,2.4,9.9-5.5,7.4-9.5
		c2.2-2.7,2.7-6.4,2.2-9.8c-0.2-1.2-0.9-4.5-2.7-8.3c0.7,0,1.3,0,2-0.1c2.5,4.5,7.2,7.5,12.1,8.7c5,1.2,13.8,1,21-0.3
		c2.4,5.1,13.4,6.1,17.1,5c6.7-2,8.7-6.8,9.1-10.6c4.8,1.6,6.7-3.8,5-6.4C836.3,122.7,836.6,120.1,836.3,117.8z"/>
</g>
<path class="st46" d="M612.4,170.6c0.5,1.2,1.7,2.1,3,2.6s3.6,0.6,5.5,0.5c0.5,1.4,3.4,1.9,4.4,1.7c1.8-0.4,2.5-1.6,2.7-2.6
	c1.2,0.5,1.9-0.8,1.5-1.6c0.4-0.4,0.6-1.1,0.6-1.7c0-0.6-0.6-4.3-4.2-4.8c-0.1-0.1-0.3-0.1-0.4-0.2c-0.1-0.1-0.1-0.2-0.1-0.4
	c-0.3-1.5-1.3-2.9-2.7-3.6s-3-1-4.5-0.9c0-0.4-1-0.8-1.3-0.3c-0.8-1.5-6.2-2.9-7.9-0.2c-0.3,0.6-0.6,1.8-0.3,2.1
	c-1.3,0.2-1.8,3.2-0.3,3.4c-0.1,0.6,0.2,1.3,0.7,1.6c-0.2,0.9-0.2,1.9,0.4,2.7C609.9,170,611.1,170.6,612.4,170.6z"/>
<path class="st49" d="M613.8,141.3c0.9,2.1,2.8,3.6,5,4.3s6,1,9.2,0.8c0.8,2.3,5.6,3.2,7.3,2.9c3-0.6,4.1-2.6,4.4-4.3
	c2,0.9,3.1-1.4,2.5-2.6c0.7-0.7,1-1.8,1-2.9s-1-7.2-7-8.1c-0.2-0.1-0.5-0.2-0.6-0.4c-0.1-0.2-0.2-0.4-0.2-0.6
	c-0.5-2.6-2.2-4.8-4.5-6.1s-5-1.7-7.5-1.5c-0.1-0.7-1.8-1.2-2.2-0.4c-1.4-2.5-10.4-4.8-13.2-0.4c-0.6,0.9-1.1,3-0.5,3.5
	c-2.2,0.4-3.1,5.3-0.5,5.7c-0.2,1,0.3,2.1,1.1,2.7c-0.3,1.6-0.2,3.1,0.6,4.6C609.7,140.4,611.8,141.5,613.8,141.3z"/>
<path id="path1797_1_" class="st13" d="M540.9,165c0.1,1.7-0.9,3.1-2.1,3.1c-2.5,0.1-2.1-2.9-3.1-4.1c-0.1-0.1-0.7-0.2-0.9-0.3
	c-0.2-0.2-0.2-0.4,0.1-0.6c0.7-0.3,1.8-0.6,2.5-0.6C539.4,162.4,540.8,163.1,540.9,165z"/>
<path id="path1797_2_" class="st13" d="M561.3,165c0,1.7,0.8,3.1,1.9,3.1c2.3,0.1,1.9-2.9,2.9-4.1c0.1-0.1,0.7-0.2,0.8-0.3
	c0.2-0.2,0.1-0.4-0.1-0.6c-0.6-0.3-1.6-0.6-2.3-0.6C562.7,162.4,561.4,163.1,561.3,165z"/>
<path class="st13" d="M534.6,126.3c0,2.3,1.4,3.9,3.5,5.2c7.5,4.5,20.7,5.3,24.8,17.8c5.4,16.1,22.5,18,22.5,18l9.8-4.1l-1.4-25.1
	l-11.5-11.1l-25.9-4.2L534.6,126.3z"/>
<path class="st13" d="M525.7,153.4c2.6-5,15.1-11.6,13.5-20.4c-1.6-8.8-8.6-7.4-8.6-7.4l-8.5,10.4l-2.2,17.1l1,12.3L525.7,153.4z"/>
<path class="st17" d="M588.5,162.9c-6,0.3-12-2.3-15.8-7c-3.8-4.6-4.4-10.9-7.7-15.9c-5.4-8.1-14.6-13.3-24.4-13.7c-0.6,0-0.6,1,0,1
	c11.7,0.5,22.3,8.1,26.5,19.1c2,5.1,3.6,9.8,8,13.3c3.8,3,8.5,4.5,13.4,4.3C589.2,163.9,589.2,162.9,588.5,162.9z"/>
<path class="st17" d="M593.4,155.6c-6.4,1.3-12.4-2.1-16.5-7c-3.6-4.4-5.6-9.7-8.2-14.7c-2.2-4.1-5-7.6-9.3-9.5
	c-5.5-2.4-11.7-1.9-17.5-1.5c-0.6,0.1-0.6,1.1,0,1c6.4-0.5,13.6-1.1,19.3,2.6c5.1,3.3,7.2,9.3,9.8,14.5c4.3,8.6,11.9,17.7,22.6,15.5
	C594.3,156.4,594,155.5,593.4,155.6z"/>
<path class="st17" d="M584.6,136.1c-5-0.5-7.9-3.4-10.6-7.4c-1.9-2.9-4.2-5.3-7.1-7.1c-6.4-3.9-14.1-4.3-21.1-2.2
	c-0.6,0.2-0.4,1.1,0.3,1c8.3-2.4,17.5-1.3,23.9,4.9c2.6,2.5,3.9,6.1,6.7,8.5c2.2,2,5,3.1,7.9,3.3
	C585.2,137.1,585.2,136.1,584.6,136.1z"/>
<path class="st17" d="M535.6,133c-8.6,1.3-14.3,10.7-16.3,18.4c-0.2,0.6,0.8,0.9,1,0.3c2-7.4,7.4-16.4,15.6-17.7
	C536.5,133.9,536.3,132.9,535.6,133z"/>
<path class="st17" d="M534.3,127.9c-8.2,0.2-13.9,6.4-17.7,13.1c-0.3,0.6,0.5,1.1,0.9,0.5c3.6-6.4,9-12.4,16.9-12.6
	C534.9,128.9,535,127.9,534.3,127.9z"/>
</svg>
