<?xml version="1.0" encoding="utf-8"?>
<!-- Generator: Adobe Illustrator 23.0.2, SVG Export Plug-In . SVG Version: 6.00 Build 0)  -->
<svg version="1.1" id="Layer_1" xmlns="http://www.w3.org/2000/svg" xmlns:xlink="http://www.w3.org/1999/xlink" x="0px" y="0px"
	 viewBox="0 0 734.37 576.8" style="enable-background:new 0 0 734.37 576.8;" xml:space="preserve">
<style type="text/css">
	.st0{opacity:0.1;fill:#007CC7;}
	.st1{opacity:0.55;fill:#6FB1ED;}
	.st2{fill:#FFFFFF;}
	.st3{opacity:0.48;fill:#99AFBC;}
	.st4{fill:#AFC7D7;}
	.st5{opacity:0.57;}
	.st6{fill:#6382D7;}
	.st7{opacity:0.64;}
	.st8{fill:#414167;}
	.st9{opacity:0.16;fill:#414167;}
	.st10{opacity:0.9;}
	.st11{fill:#CCCCCC;}
	.st12{fill:#B3B3B3;}
	.st13{fill:#E6E6E6;}
	.st14{fill:#999999;}
	.st15{fill:#808080;}
	.st16{fill:#666666;}
	.st17{fill:none;stroke:#E6E6E6;stroke-width:0.3741;stroke-miterlimit:10;}
	.st18{opacity:0.34;}
	.st19{fill:#757575;}
	.st20{fill:#FFF88E;}
	.st21{fill:#007CC7;}
	.st22{fill:#2D294C;}
	.st23{fill:none;}
	.st24{fill:#FDA589;}
	.st25{fill:#E0585E;}
	.st26{fill:#773232;}
	.st27{fill:#FFBB94;}
	.st28{fill:#787DA1;}
	.st29{fill:#BDA746;}
	.st30{fill:#AB983E;}
	.st31{fill:none;stroke:#917E2C;stroke-width:1.0618;stroke-miterlimit:10;}
	.st32{fill:#181B2D;}
	.st33{fill:#EBEBEB;}
	.st34{fill:#917E2C;}
	.st35{fill:#F0E6E1;}
	.st36{opacity:0.16;fill:#B94A00;}
	.st37{fill:#F28561;}
	.st38{fill:#9A4545;}
	.st39{fill:#C9C1BD;}
	.st40{fill:#A39F9F;}
	.st41{fill:#422645;}
	.st42{fill:#002042;}
	.st43{fill:#472842;}
	.st44{fill:#64455E;}
	.st45{fill:#D5D2E1;}
	.st46{fill:#EAE8F1;}
	.st47{fill:#EEDBC2;}
	.st48{fill:#CA344D;}
	.st49{fill:#AAA1BA;}
	.st50{fill:#91D5E5;}
	.st51{fill:#8A7E9E;}
	.st52{fill:#FFCC4D;}
	.st53{fill:#803D3D;}
	.st54{fill:#73A0BE;}
	.st55{fill:#72A084;}
	.st56{fill:#4E725B;}
	.st57{fill:#6FB1ED;}
	.st58{fill:#6B4C33;}
	.st59{fill:#945549;}
	.st60{fill:#363A5E;}
	.st61{opacity:0.43;fill:#5E2C2C;}
	.st62{fill:#5E8296;}
	.st63{fill:#C09B7E;}
	.st64{opacity:0.48;fill:#422645;}
	.st65{fill:#9B6C53;}
	.st66{fill:#473227;}
	.st67{fill:#EBC9BC;}
	.st68{fill:none;stroke:#5E2C2C;stroke-width:1.0702;stroke-linecap:round;stroke-miterlimit:10;}
	.st69{fill:#5E2C2C;}
	.st70{clip-path:url(#SVGID_2_);}
	.st71{fill:#452107;}
	.st72{fill:#C7725A;}
	.st73{fill:#26160B;}
	.st74{fill:#EB6709;}
	.st75{fill:#FF9345;}
	.st76{fill:#8B4C3F;}
	.st77{fill:#FFE8CC;}
	.st78{fill:#481F58;}
	.st79{fill:#A50E0E;}
	.st80{fill:#4F3C2B;}
	.st81{fill:#D6B6B0;}
	.st82{fill:none;stroke:#002042;stroke-width:1.8593;stroke-linecap:round;stroke-linejoin:round;}
	
		.st83{fill:none;stroke:#002042;stroke-width:1.8593;stroke-linecap:round;stroke-linejoin:round;stroke-dasharray:9.3528,11.2233,0,0;}
	.st84{opacity:0.86;fill:#FFFFFF;enable-background:new    ;}
	.st85{fill:#4D4D4D;}
	.st86{fill:#F5BD83;}
	.st87{opacity:0.7;fill:#D19D6F;}
	.st88{fill:#EFEAEA;}
	.st89{fill:#FFCBB3;}
	.st90{fill:#FFF1E4;}
	.st91{fill:#331318;}
	.st92{fill:#F7F0ED;}
	.st93{fill:#C64A27;}
	.st94{fill:#3E1D1D;}
	.st95{fill:#FFE6D6;}
	.st96{fill:#E2C6A9;}
	.st97{fill:#D19D6F;}
	.st98{fill:#56222C;}
	.st99{fill:#1B354C;}
	.st100{fill:#D93C64;}
	.st101{fill:#0076C2;}
</style>
<path class="st0" d="M599.52,470.05c8.11-5.91,15.99-12.14,23.62-18.68c37.85-32.43,69.54-72.44,90.04-117.25
	c19.85-43.38,24.05-81.46,19.53-126.29c-7.61-75.52-67.45-165.64-141.06-187.37c-26.15-7.72-55.87-12.41-83.81-2.69
	c-25.61,8.91-49.11,20.9-70.24,36.99c-37.64,28.66-69.06,36.2-115.29,31.34c-56.25-5.91-100.9-46.12-160.06-41.33
	C94.08,50.31,46.43,110.46,26.14,170.93c-38.12,113.59-12.58,247.46,69.32,328.8c43.02,42.73,101.65,68.08,163.99,73.86
	c38.35,3.55,76.64,0.97,115.26-3.48C451.5,561.26,536.29,516.15,599.52,470.05z"/>
<path class="st3" d="M708.81,359.49c0.08,0.26,0.16,0.53,0.23,0.83c0.59,2.44,0.69,5.27,0.53,7.8c-1.04-0.56-2.36-0.23-3.48-0.16
	c-57.75,3.79-111.32,33.94-169.04,38.18c-76.48,5.63-154.19-27.49-230.81-30.52c-63.58-2.51-120.96,14.18-182.55,30.19
	c-31.26,8.12-61.85,13.6-93.61,14.51V279.73h30.59v16.1h9.42V285.1l13.73-10.74l14.9,11.16v14.46h32.17v43.36h17.27l5.48-174.27h5.1
	v-6.19h9.81V98.02h3.13v64.85h10.59v6.19h5.5l1.96,175.93h55.32v-22.31h27.86v12.8h25.88v-56.57h18.44v-47.5h33.74v86.73h17.27
	v-44.2h47.47c0,0-0.4,23.54,0,23.95c0.38,0.41,10.59,0,10.59,0v8.26h4.31v24.37h18.44V285.1h21.96v-15.28h20.4v56.16h21.98v-62.76
	h36.09v35.51h8.23v-26.01l9.02-31.81l9.02,30.99v40.47h24.71v20.24h19.23v-42.96l9.8-13.21h12.56v-12.8h15.3c0,0,0,92.91,0,92.91
	c0,0.24,46.49-0.62,49.34,0.6C707.91,357.67,708.45,358.38,708.81,359.49z"/>
<path class="st4" d="M121.67,575.15c-2.31-0.27-3.56-0.64-4.14-0.86c-0.59-0.22-0.53-0.31-0.33-0.36c0.41-0.14,1.31-0.1-0.88-1.06
	c1.79,0.45,3.33,0.96,4.27,1.31c0.35,0,1.63,0.18,2.75,0.23c1.12,0.06,2.06,0.02,1.79-0.14c0.47,0.35,2,0.68,3.92,0.89
	c1.93,0.22,4.17,0.27,6.27,0.37c4.18,0.12,7.62,0.15,5.67,0.94c2.53-0.03,7.71-0.53,13.45-1.44c5.76-0.88,12.11-2.06,17.33-2.9
	l-2.77,0.78c11.15-0.62,9.44-2.33,15.72-3.53c-5.48,1.17,5.03-0.16,7.3-0.01c4.87-0.91,8.83-2,15.81-2.12
	c1.46,0.49,1.64,1.23,6.05,1.35c1-0.14,2-0.28,3.01-0.38c4.41,0.14,10.39,0.24,13.2,0.8l-0.61-0.01c4.96,0.72,5.27,0,1.39-0.48
	l4.81,0.16l0.14,0.18c6.37,0.34,12.4,0.32,22.53,1.52c-2.79,0.15,7.49,1.94-1.67,0.9c2.67,0.1-1.36-0.68-1.84-0.96
	c-3.27-0.55-6.34-0.38-7.8-0.51c1.03,0.42-0.06,0.97-1.86,1.14c3.31-0.01,9.5,0.78,15.13,1.44c5.63,0.65,10.69,1.1,11.57,0.5
	c4.08,0.5,8.82,0.92,13.74,1.24c4.93,0.21,10,0.46,14.72,0.71c-0.39-0.06-1.15-0.18-0.93-0.28l8.15,0.6l-1.88,0.11l5.39,0.43
	c0.56,0.22-1.54,0.43-3.77,0.48c-1.28,0.07-2.43-0.11-1.19-0.18c-5.83,0.43,4.84,0.22,1.05,0.69c-1.43-0.08-3.29,0.03-4.31,0
	c6.66,0.36,9.74-0.46,13.84,0.09c1.57-0.28,3.96-0.6,6.71-0.83c2.75-0.21,5.82-0.52,8.83-0.51c-2.29,0.47,6.48-0.51,3.54,0.3
	c2.29-0.42,7.65-0.58,8.51-1.03c-0.82,0.21-3.42,0.46-5.23,0.49c2.44-0.38,2.7-0.77,5.69-0.98c0.39,0.02,0.19,0.14,0.19,0.14
	c3.85-0.71,1.17-1.33,7.96-2.07c17.78-2.32-2.32,1.62,0.23,1.59c0.62-0.38,8.46-1.49,12.03-1.66l-0.82,0.25
	c1.8-0.35,4.42-0.94,6.38-0.89c1.02-0.63,3.05-1.36,4.25-1.85l7.92-1.15l-1.6,0.49c1.79-0.36,3.38-0.59,4.97-0.83
	c0.76,0.28-1.6,0.49-3.99,0.97c1.36,0.16,2.94-0.07,4.75-0.7l-0.99,0.11c2-0.48,9.34-2.06,3.42-1.38c4.36-0.97,5.88-0.41,8.87-1.02
	c0.37,0.27-2.4,0.74-0.83,0.77c2.95-0.34,4.91-0.56,7.29-1.03c-2.36,0.21,0.62-0.38-3.11-0.07c1.39-0.36,5.13-0.93,4.95-1.06
	c-1.19,0.23-2,0.48-4.13,0.56c3.94-0.69,8.08-1.26,12.2-1.55c-0.13,0.09-0.53,0.21-0.98,0.34c5.2-1.18,13.17-2.07,16.64-3.03
	l-1.59,0.04c-1.26,0.3-3.85,0.62-4.91,0.6c3.96-0.65-2.91-0.23,1.25-1.01c5.77-0.93,11.02-0.77,14.1-1.8
	c-5.53,0.52-13.05,0.88-15.24,1.5c1.19-0.13,2.37-0.28,3.56-0.39c-2.67,0.57-5.33,1.21-7.99,1.81c-0.36-0.27-7.13,1.07-7.08,0.56
	c2.78-0.46,5.33-0.75,7.51-1.07c-0.56-0.15-7.5,0.79-10.45,1.14l3.73-0.31c-6.54,1.29-15,2.28-21.35,3.49
	c4.97-1.09-6.47,0.54-2.51-0.44c1.59-0.5,4.33-0.45,3.54-0.46c0.42-0.52-3.94,0.45-5.3,0.29c-0.62,0.38-7.15,1.44-3.22,1.25
	c-2.16,0.09-6.73,1.19-9.68,1.25c0.95,0.42-5.35,1.03-6.38,1.41c-1.27,0.13-2.39,0.17-3.27,0.16c2.66-0.53,5.91-1.17,9.28-1.84
	c1.39-0.09,3.94-0.44,3.17-0.45l0.02-0.21c5.09-1.07,10.18-2.14,13.84-2.91c0.58-0.08,1.17-0.16,1.75-0.24l-0.34,0.1
	c0.19-0.05,0.37-0.09,0.56-0.13c29.82-4.12,59.67-8.12,89.61-7.46c-1.97,0.06-5.16-0.07-6.48,0.19l0.21-0.1l-3.05,0.19
	c2.57-0.01,7.66-0.03,9.86-0.27c2.1,0.05,4.21,0.12,6.31,0.22l-5.27-0.43c0.01-0.01,0.02-0.01,0.03-0.01
	c-0.01,0.01-0.02,0.01-0.03,0.01l-6.22-0.51c4.1-0.34,7.96-0.67,12.86-0.47c-1.58,0.19-0.02,0.28,0.37,0.38
	c13.49-1.31,26.59-1.28,40.19-0.89c5.71,0.17,11.46,0.33,17.1-0.69c10.91-1.97,21.39-8.33,32.39-7.14c4.12,0.45,9,1.64,11.79-2.05
	c3.14-4.17,0.55-11.48-3.61-14.11c-4.15-2.63-9.07-2.19-13.74-2.39c-6.08-0.26-12.15-1.72-18.21-1.16
	c-7.75,0.72-14.71,3.39-22.56,2.76c-5.56-0.45-11.43-1.86-17-1.69c3.16-0.1-1.99-0.69-4.47-1.19c-7.71-0.47-24.04-1.73-35.71-2.17
	c1.59-0.45-1.65-0.68-5.39-0.91c-3.74-0.21-7.99-0.43-8.42-0.93c-2.59-0.17-6.64-0.2-6.95,0.13c1.45-0.1,4.94,0.38,4.46,0.55
	c-3.79-0.14-9.58-0.42-10.13,0l-4.64-0.7c-0.21,0.23-0.97,0.46-2.2,0.55c-1.02-0.05-2.03-0.1-3.05-0.15
	c-1.83-0.36-1.9-0.26-2.02-0.1c-1.13-0.06-2.25-0.11-3.38-0.17c1.3-0.18,2.38-0.34,2.9-0.53c-3.97-0.28-3.44-0.04-6.26-0.08
	c-0.9-0.32,2.84-0.63,5.89-0.67l-5.09-0.52c-4.97,0.31-13.59,0.7-21.51,0.1c1.31-0.27,3.89-0.13,1.84-0.69
	c-3.42-0.04-8.01,0.34-12.49-0.22c0.62,0,0.25-0.08,0.86-0.09c-7.95,0.06-5.94-0.47-13.08-0.96c0.12-0.04,0.15-0.11,0.36-0.15
	l-4.4,0.06c-9.23,0.18-10.14-1.23-15.57-2.01l1.22,0.02c-1.68-0.42-5.29-0.68-8.87-0.97c-3.57-0.29-7.11-0.55-8.66-0.8
	c3.82,0.7,1.24,0.46,4,1.29c3.43,0.18,2.48-0.58,8.15,0.13c-0.81,0.52-8.02,0.03-9.56,0.33c-3.2-0.25-5.22-1.36-5.48-1.71
	c-7.93-0.75-12.32-1.55-22.06-2.58c-3.54-0.05-6.4,0.78-14.39-0.94l0.48-0.14c-0.34,0.32-3.93-0.54-5.62-0.46
	c2.72,0.9-3.53-0.01-0.19,0.92c-4.77-0.47-5.45-1.33-5.85-1.85c-3.49,0.46-9.4-1.35-16.81-1.32c1.35-0.32,9.37,0.25,6.11-0.39
	c-3.18,0.05-6.37,0.19-9.54,0.35l4.2,0.21c-7.21,0.22-9.18-0.48-13.35-0.81c-0.41-0.12,0.07-0.2,0.91-0.25
	c0.84-0.03,2.04-0.02,3.07,0.01c-2.22-0.13-5.77,0-8.67,0.21c-2.19,0.24-9.75,0.9-12.71,1.64c-0.4,0.02-0.81,0.03-1.22,0.05
	c0.11-0.05,0.3-0.11,0.54-0.15c-0.61,0.07-1.1,0.11-1.55,0.21c-1.27,0.11-2.53,0.22-3.8,0.33l0.74-0.2
	c-0.5,0.09-0.98,0.18-1.45,0.26c-1.31,0.09-2.61,0.27-3.92,0.46l-1.95,0.52l0.98-0.14c-0.12,0.33-1.3,0.8-3.12,1.3
	c-2.21,0.43-4.42,0.91-6.61,1.45c-2.3,0.57-4.6,1.21-6.91,1.87c-2.49,0.56-5.23,1.41-7.78,2.16c-3.15,0.93-6,1.66-7.47,1.52
	c8.41-2.64,12.44-3.77,21.49-6.37c2.46-0.23,0.99,0.15-1.06,0.76c-2.06,0.59-4.72,1.38-4.8,1.59c1.72-0.43,3.44-0.85,5.17-1.23
	c-0.86-0.29,10.05-2.49,7.14-2.72c-2.89,0.59-5.82,1.08-8.64,1.81c-2.82,0.7-5.57,1.46-8.27,2.2c-5.38,1.48-10.53,2.85-15.37,3.63
	c2.8-1.9,5.32-3.97,7.8-6.11c-0.02-0.05,0.11-0.18,0.48-0.42l-0.48,0.42c0.07,0.18,1.9-0.48,4-1.2c-0.38,0.31-0.77,0.67,1.78-0.09
	c5.3-1.17,7.97-2.88,12.09-3.75l-1.24,0.36c1.95-0.35,4.17-0.79,6.25-1.28c2.08-0.47,4.07-0.85,5.53-1.29
	c1.65,0.1-1.16,0.61-3.59,1.06c-2.44,0.46-4.47,1-1.4,0.64c-2.14,0.36-4.73,0.96-7.11,1.66c-2.39,0.72-4.55,1.48-6.09,1.93
	c2.6-0.66,5.17-1.1,6.88-1.27c1.74-0.13,2.61-0.02,1.91,0.35c5.72-1.52,5.64-1.87,5.36-2.21c-0.28-0.34-0.75-0.62,4.43-1.64
	c2.41-0.4,4.84-0.54,7.26-0.81c0.8-0.37,1.6-0.76,2.41-1.08c4.38-0.35-2.61,0.87,4.07,0.29c1.79-0.58,6.13-0.33,7.43-0.65
	c-0.18,0.22-0.25,0.35,3.16,0.34c0.23-0.1-0.09-0.41,2.6-0.42c1.84,0.8-6.88,0.2-3.75,0.92c7.62-0.02,4.89-0.72,6.06-1.03
	c-0.26,0.02-0.68-0.01-1.45-0.02c0.08-0.28,3.33-0.03,2.99-0.33c-1.29-0.08-2.6,0.03-3.73,0.11c2.32-0.24-3.8-0.58-6.16-0.45
	c-5.34,0.44-16.45,1.18-23.77,2.68c0.63-0.15,1.89-0.44,1.06-0.42c-1.31,0.23-2.52,0.43-3.67,0.63c-1.14,0.24-2.21,0.47-3.23,0.69
	c-2.06,0.43-3.95,0.82-5.83,1.32c-3.75,0.95-7.52,2.09-12.73,3.65l-1.02,0.89c-4.53,1.21-5.44,1.75-5.56,2.24
	c-0.11,0.47,0.64,0.76-0.45,1.07c-1.99,0.44-3.63,1.1-5.4,0.99c0.3-0.11,0.6-0.21,0.9-0.34c-2.77,0.45-3.18,0.59-3.53,0.73
	c-0.34,0.12-0.64,0.31-3.1,0.25c-1.98,0.12-1.12,0.19-0.06,0.23c1.06,0.02,2.31,0.04,1.03,0.21c-1.34-0.01-2.2,0-2.89,0.04
	c-0.69,0.06-1.21,0.16-1.82,0.19c-1.23,0.09-2.8,0.18-6.95-1.22c0.24-0.04,0.07-0.27,0.46-0.33c0.38-0.08,1.36,0.08,3.73,0.52
	c-1.49-0.44-3-0.98-4.57-1.57c2.9,0.68,3.38,0.71,3.94,0.82c0.55,0.07,1.08,0.3,3.79,0.56c1.29-0.15,1.79-0.43,2.25-0.62
	c0.46-0.19,0.89-0.42,2.02-0.68c-1,0.07-1.41,0.25-1.93,0.34c-0.52,0.07-1.21,0.24-2.65,0.01c-3.48-0.6,0.62-0.21,0.97-0.37
	c-2.35,0.1-3.61-0.32-4.85-0.78c-1.25-0.46-2.42-0.95-4.99-1.33c0.67,0.92-0.19,0.67,2.99,2c-1.67-0.32-3.6-0.95-5.11-1.53
	c-1.5-0.59-2.57-1.12-2.28-1.37l-0.98,0.34c-0.87-0.37-4.08-0.93-4.25-1.11l-1.42,0.09c2.82,0.81,5.29,1.46,9.88,2.54
	c-1.99-0.15,2.21,1.56-3.82,0.09c-2.68-0.63-0.22-0.39-0.34-0.58c-1.78-0.37-3.38-0.6-4.78-0.84c-1.41-0.16-2.65-0.38-3.76-0.49
	c-1.11-0.12-2.1-0.23-3.02-0.33c-0.92-0.08-1.76-0.16-2.58-0.23c-3.26-0.21-6.24-0.42-11.81,0.47c2.74-0.65,9.7-0.98,15.34-0.99
	c-3.37-0.66-7.29,0.05-10.47,0.25c2.83-0.44,3.32-0.66-0.1-0.67c-0.46,0.14-0.9,0.31-1.35,0.46c-2.02,0.16-5.55,0.72-5.84,0.6
	c-0.07,0.13,0.82,0.09,2.63-0.05c-2.45,0.53-5.92,1.29-9.77,2.19c-3.8,0.92-8.03,1.95-12.15,2.95c2.3-0.56,4.91-1.77,7.22-2.6
	c-9.07,1.35-17.81,0.69-26.76,3.87c-4.76,1.69-9.41,3.97-14.33,4.81c-6.48,1.11-21.4-0.1-22.88,11.27
	c-0.51,3.96,1.67,7.65,3.73,10.81c2.22,3.4,4.49,6.86,7.44,9.28c3.7,3.04,8.24,4.27,11.95,7.31c3,2.46,5.29,5.99,8.06,8.83
	C112.38,575.44,116.45,575.18,121.67,575.15z M224.73,510.49l-3.5,0.92C222.55,510.98,223.86,510.6,224.73,510.49z M161.97,569.15
	c-0.89,0.2-2.11,0.45-3.21,0.68c-0.99,0.08-1.21,0.03-1.2-0.05C159.03,569.58,160.5,569.37,161.97,569.15z M101.61,550.04
	c-0.08-0.15-0.15-0.38-0.21-0.68C101.46,549.59,101.53,549.81,101.61,550.04z M208.74,564.98c-1.42,0.23-1.21,0.95-6.85,1.02
	c-0.08-0.07,0.4-0.15,0.96-0.21c-2.56,0.21-3,0.11-5.8,0.2c-0.91-0.45,3.4-0.68,5.24-1.13c-1.8,0.19-3.8,0.6-5.79,0.69l0.44-0.23
	c-1.99,0.23-3.97,0.46-5.95,0.72c-2.39,0.67,4.53-0.44,4.9-0.13l-3.77,0.7c-4.34,0.52-15.9,2.36-20.01,2.24
	c-5.11,0.51-2.77,0.78-3.97,1.3c-2.97,0.91-5.92,0.76-8.9,1.39c0.18,0.39-3.41,0.86-3.45,1.39l-4.99,0.52
	c-2.68,1.1,6.01-0.6,7.36-0.48c2.77,0.31-3.62,0.73-1.84,0.89c3.8-0.59,4.01-0.99,5.83-1.37c2.17-0.37,3.35-0.37,3.33-0.11
	c-6.13,0.61-3.18,1.05-8.18,1.63l-0.19-0.13c-0.03,0.54-7.23,1.16-9.92,1.66c-5.61,0,4.37-1.23,4.15-1.41
	c-2.22,0.32-4.46,0.62-6.7,0.88c2.9-0.62-0.11-0.65,3.77-1.39c-4.06,0.61-4.61,0.15-8.5,0.79c4.39-1.07-5.58-0.2-6.09-0.76
	c4.28-0.28,11.88-0.3,12.29-0.18c0.62-0.18,5.53-0.63,7.54-0.72l3.03-1.11c-3.56,0.47-8.39,1.33-7.13,0.59
	c-1.61,0.27-3.23,0.56-4.85,0.81c4.92-1.44,4.66-1.38,9.12-2.35c-9.38,0.43-16.55,2.62-24.38,1.98l1.21-0.08
	c-3.84,0.1-7.02-0.16-9.51-0.79c-2.5-0.61-4.26-1.54-5.46-2.46c-0.04-0.03-0.08-0.07-0.12-0.1c0.23,0.14,0.46,0.29,0.7,0.42
	c4.31,2.28,9.68,2.54,14.78,2.46c8.17-0.12,16.28-0.95,24.37-2.04l-0.96,0.47c0.2-0.05,0.34-0.08,0.55-0.13
	c9.29-1.55,0.95,0.69,10.44-1.06c-0.36,0.12-0.52,0.2-0.72,0.29c3.85-0.81,11.02-1.67,11.76-2.35c-0.91,0.14-4.49,0.53-6.25,0.6
	c4.05-0.63,8.11-1.25,12.17-1.82c0.86-0.02,1.68-0.05,2.64-0.15l0,0l0.01,0c0.92-0.09,1.95-0.26,3.29-0.52
	c0.32-0.08,0.54-0.14,0.7-0.19c4.86-0.58,9.72-1.03,14.61-1.27C203.22,564.42,214.41,564.17,208.74,564.98z M223.97,564.82
	c-5.77-0.32-1.74-0.25-5.83-0.68c-0.22-0.1-0.08-0.18,0.26-0.25c4.32,0.16,8.64,0.44,12.95,0.83
	C227.61,564.53,223.72,564.26,223.97,564.82z M241.45,566.27c-1.97-0.28-7.56-0.69-7.97-1.19c2.71,0.26,3.48,0.31,3.18,0.18
	c2.81,0.3,5.62,0.63,8.43,0.97c0.11,0.08,0.35,0.17,0.74,0.27C244.58,566.46,242.62,566.29,241.45,566.27z M313.93,573.95
	c-5.01,0.04,0.27-0.34-2.28-0.55c-3.81,0.74-4.88-0.63-8.92,0.2c-4.85,0.05-3.32-0.4-4.85-0.69c4.82,0.09-2.23-0.6,3.82-0.68
	c-2.45-0.16-3.35-0.07-4.15,0.07c-0.8,0.14-1.52,0.3-3.58,0.08l-0.59-0.66c-1.87-0.16-4.83-0.42-7.94-0.68
	c-3.11-0.28-6.39-0.58-8.95-0.63c4.21,0.82-2.55,0.16-1.91,0.58c0.82-0.44,6.63,0.5,6.53,0.75c-3.04-0.14-10.09-0.81-12.88-1.23
	l5.53,0.95c-2.32,0.09-10.51-0.33-10.74-0.27c-2.48-0.57-6.24-1-7.48-1.51l4.74,0.15l1.6,0.61l2.78-0.16
	c-3-0.56-9.3-1.74-10.59-2.36c4.76,0.62,11.27,1.41,19.1,1.83c4.48,0.5,8.98,0.94,13.48,1.26c10.75,0.75,21.49,0.81,32.22,0.39
	c-0.08,0.02-0.15,0.03-0.24,0.05c-1.26,0.26-2.73,0.47-4.48,0.6c0.99-0.08,2.18-0.11,3.78-0.02c-2.88,0.44-5.77,0.97-8.68,1.26
	c2.2,0.09,3.46-0.13,4.83-0.4c1.38-0.25,2.87-0.51,5.55-0.52C319.31,572.99,319.66,573.29,313.93,573.95z M463.19,554.08
	c3.75,0.07,7.51,0.09,11.26,0.09l-0.05,0l3.68,0.43c-1.4,0.13-2.8,0.24-4.2,0.36L463.19,554.08z M205.99,520.51
	c1.18-0.05,1.54,0.07,1.9,0.22c-0.96,0.13-1.89,0.25-2.82,0.32L205.99,520.51z M171.63,515.58c0.22-0.3,1.81-0.35,3.58-0.24
	c1.78,0.06,3.72,0.35,4.69,0.26c0.76,0.07,2.83,0.54,4.44,1.03c1.61,0.48,2.79,0.93,2,0.94c-2.2-0.73-3.36-0.74-4.44-0.79
	c-1.09-0.04-2.07-0.17-4.17-0.96c-0.79,0.25,0.32,0.58,1.98,1.01c-0.59-0.06-0.95-0.03-1.04,0.05c-0.85-0.17-1.68-0.33-2.48-0.49
	c-0.81-0.11-1.6-0.23-2.36-0.33C172.47,515.81,171.23,515.73,171.63,515.58z M165.51,515.52l-1.42,0.12
	c-5.44,0.2-8.87,0.87-10.8,1.25c-1.87,0.41-2.32,0.63-1.78,0.73c-1.27,0.22-2.53,0.47-3.79,0.73c2.2-0.77,4.3-1.44,5.51-1.77
	C157.72,515.74,162.66,515.38,165.51,515.52z M137.49,519.94c-0.26,0.21,0.04,0.22,0.59,0.14c-1.39,0.41-2.79,0.82-4.2,1.23
	C134.42,520.91,133.4,520.88,137.49,519.94z M98.57,544.1c0.01-0.93,0.34-1.87,0.53-2.7c0.48-1.28,1-2.22,1.17-2.31
	c-0.17-0.45,0.61-2.41,2.19-4.36c1.68-2.17,4.27-4.09,5.62-5.21c3.6-2.32,5.09-2.58,6.34-2.98c1.29-0.32,2.4-0.69,5.84-2.14
	c-0.91,0.17-1.82,0.38-2.73,0.6c3.06-1.33,5.3-2.13,7.64-2.89c2.36-0.76,4.81-1.41,8.34-2.27c1.02,0.28-3.26,0.76-4.75,1.48
	l3.49-0.41c-1.51,0.44-4.32,1.71-4.39,1.19c0.04,0.26-2.19,1.33,2.17-0.14l-3.18,1.33c0.2,0,0.48-0.02,0.78-0.07
	c-0.96,0.32-1.96,0.65-2.94,0.98c-1.31,0.24-3.53,1.01-5.59,1.39c-0.23-0.1,1.79-0.91,2.93-1.4c-3.07,0.82-5.63,2.02-7.2,2.87
	c2.28-0.97,2.86-1.09,3.01-1c0.15,0.08-0.12,0.38,0.49,0.38c-1.34,0.64-3.11,1.45-4.7,2.28c-1.59,0.82-3,1.65-3.67,2.19
	c-0.89,0.49-1.7,1.01-2.42,1.46c-0.74,0.42-1.31,0.85-1.77,1.11c-0.9,0.53-1.23,0.5-0.39-0.54c-1.76,1.85-3.75,3.91-4.31,6.47
	c0.42-1.12,0.73-1.67,0.96-1.94c0.27-0.25,0.44-0.23,0.62-0.25c0.19-0.02,0.39-0.07,0.72-0.45c0.17-0.18,0.35-0.47,0.63-0.84
	c0.3-0.36,0.66-0.84,1.1-1.47c0.36-0.15,0.47-0.12,0.4,0.06c-1.66,1.63-2.95,3.45-3.78,5.47c-0.28,0.55-0.54,1.07-0.73,1.52
	c0.4-1.53-0.32-0.33-0.42-0.74c-0.19,0.56-0.23,1.03-0.25,1.41c-0.03,0.38-0.03,0.66-0.02,0.86c0.03,0.4,0.13,0.46,0.27,0.28
	c0.13-0.13,0.25-0.41,0.4-0.79c-0.07,0.35-0.16,0.69-0.2,1.04c-0.22,1.95,0.03,3.86,0.58,5.73c0.11,0.92,0.3,1.83,0.53,2.74
	c-0.64-1.33-1.17-2.7-1.52-4.13c-0.08,0.93,0.22,2.14,0.73,3.33c0.51,1.19,1.21,2.36,1.75,3.37c0.47,1.19-0.42-0.03-1.51-1.94
	c-1.11-1.9-2.1-4.64-2.61-6.1C98.59,545.91,98.5,545.03,98.57,544.1z"/>
<path class="st53" d="M447.02,221.46c0,0-6.18,3.65-9.79,7.84c-3.6,4.19-12.47,11.87-11.22,13.58c1.25,1.71,7.06-4.06,9.95-3.4
	c2.89,0.66-2.37,31.62,0.03,33.2c2.4,1.58,5.23-19.56,7.8-20.55c2.56-0.99-2.61,25.27,0.71,25.13c3.33-0.14,4.27-24.82,6.97-24.56
	c2.7,0.27,0.25,20.02,3.65,19.48c3.4-0.54-0.1-21.44,3.55-19.93c3.65,1.52,0.18,10.98,3.6,8.86c2.3-1.42,2.1-19.23,2.75-23.47
	c0.65-4.24-4.16-16.28-4.16-16.28L447.02,221.46z"/>
<g>
	<g>
		<path class="st54" d="M447.23,355.75c33.61-0.01,67.27-0.29,100.76,2.99c0.96,0.09,0.95-1.41,0-1.5
			c-33.49-3.29-67.15-3-100.76-2.99C446.27,354.25,446.26,355.75,447.23,355.75L447.23,355.75z"/>
	</g>
</g>
<g>
	<g>
		<path class="st54" d="M431.27,366.73c13.3,0.42,26.6,0.97,39.9,1c0.97,0,0.97-1.5,0-1.5c-13.31-0.03-26.6-0.58-39.9-1
			C430.3,365.2,430.3,366.7,431.27,366.73L431.27,366.73z"/>
	</g>
</g>
<g>
	<g>
		<path class="st54" d="M447.23,343.78c19.65-0.53,39.22,1.91,58.86,2c0.97,0,0.97-1.5,0-1.5c-19.64-0.09-39.21-2.53-58.86-2
			C446.27,342.31,446.26,343.81,447.23,343.78L447.23,343.78z"/>
	</g>
</g>
<g>
	<g>
		<path id="XMLID_2_" class="st55" d="M672.89,336.7l11.67-1.96c-1.43-9.35-3.2-19.74-5.33-30.27l-12.1-2.74l10.77-3.56
			c-1.5-7-3.14-14.56-4.99-20.67l-6.46-0.25l5.14-4.48c-3.53-12.2-7.63-23.22-12.33-31.43l-4.25,2.02l1.84-5.95
			c-4.13-6.08-8.69-9.97-13.71-10.64c-4.74-0.63-9.91,10.93-14.86,27.75l9.66,6.87l-10.97-2.29c-2.8,10.11-5.52,21.73-8.03,33.58
			l9.49,5.39l-10.76-0.43c-2,9.7-3.65,19.42-5.73,28.45l-11.93,44.37l38.57,6.28c4.02,0.71,8.13,0.8,12.18,0.28l38.59-4.96
			c0,0-1.29-13.44-4.04-32.15L672.89,336.7z"/>
		<path id="XMLID_1_" class="st56" d="M653.2,349.91c1.08-9.56,1.71-18.78,1.99-27.59l25.98-7.69c-0.2-1.07-0.39-2.14-0.6-3.22
			l-25.29,7.49c0.16-7.07,0.09-13.87-0.15-20.34L675,285.53c-0.28-1.12-0.55-2.24-0.83-3.35l-19.19,12.59
			c-0.34-7.07-0.87-13.73-1.53-19.94l13.57-16.25c-0.43-1.19-0.87-2.36-1.32-3.5l-12.76,15.28c-1.39-11.62-3.19-21.45-4.86-29.12
			c2.27-4.2,3.75-7.02,4.71-8.93c-0.82-0.85-1.65-1.61-2.5-2.28c-0.83,1.65-2.03,3.95-3.32,6.37c-0.93-3.92-1.78-7.07-2.44-9.35
			c-0.46-0.12-0.92-0.22-1.39-0.28c-0.64-0.09-1.3,0.06-1.96,0.41c0.69,2.35,1.66,5.87,2.74,10.45l-7.67-4.41
			c-0.48,0.89-0.96,1.87-1.45,2.92l10.09,5.81c1.71,7.84,3.56,18,4.95,30.04l-24.47-6.94c-0.27,1.04-0.54,2.09-0.81,3.16l25.67,7.28
			c0.64,6.11,1.16,12.66,1.49,19.61l-30.38-13.38c-0.24,1.08-0.49,2.15-0.73,3.24l31.26,13.76c0.23,6.39,0.3,13.1,0.14,20.08
			l-35.89-12.42c-0.21,1.08-0.42,2.15-0.63,3.23l36.43,12.61c-0.28,8.68-1.12,17.75-2.18,27.17l-38.1-15.62l-0.14,3.47l37.84,15.52
			c-0.82,6.68-1.63,13.54-2.93,20.52l3.2,0.6c1.31-7.02,2.35-13.91,3.18-20.63l33.96-3.02c-0.14-1.05-0.29-2.13-0.44-3.23
			L653.2,349.91z"/>
	</g>
	<g>
		<path class="st57" d="M281.61,334.39c5.8,6.45,9.85,14.29,10.83,22.26c0.4,3.26,0.27,6.58-0.5,9.78
			c-0.76,3.12-1.24,3.11-4.36,4.47c-5.07,2.21-11.44,2.81-16.82,3.6c-12.53,1.84-24.62,5.91-37.12,7.57
			c-19.73,2.61-38.73,8.05-58.36,11.18c-7.58,1.21-61.69,15.41-67.04,16.19c-9.26,1.36-18.31,3.47-27.59,4.31
			c-10.53,0.96-20.52,4.73-31.04,5.62c-2.99,0.25-6.1,0.57-9.1,0.47c-6.8-0.23-10.43-3.87-12.5-10.43
			c-1.87-5.92,0.04-13.49,3.24-18.54c4.69-7.39,10.81-11.19,19.37-12.83c3.24-0.62,6.06-0.74,9.32-0.33
			c1.88,0.24,4.91,1.47,6.13,0.16c1.11-1.19,1.72-3.67,2.58-5.12c2-3.35,4.46-6.43,7.27-9.13c5.99-5.77,13.53-9.81,21.6-11.8
			c11.39-2.81,22.73-1.35,32.02,3.25c4.7-16.82,22.66-32.35,46.67-38.29c14.71-3.64,31.07-3.59,45.13,2.54
			c2.89,1.26,5.39,3.23,8.2,4.55c3.94,1.85,3.14,1.31,6.85-1.01c4.09-2.56,8.61-3.9,13.44-3.96
			C261.39,318.75,273.3,325.15,281.61,334.39z"/>
		<g>
			<g>
				<path class="st2" d="M699.43,367.06c-44.21,3.12-85.21,20.79-127.85,31.25c-22.27,5.47-44.75,8.15-67.69,7.45
					c-23.22-0.72-46.23-4.31-69-8.76c-44.69-8.72-89.08-20.69-134.84-21.97c-47.57-1.33-94.65,7.75-140.65,19
					c-25.64,6.27-51.02,13.72-76.96,18.69c-26.47,5.07-53.34,7.53-80.29,6.6c-2.87-0.1-2.87,4.37,0,4.46
					c23.3,0.8,46.56-0.91,69.56-4.65c23.11-3.76,45.66-9.84,68.31-15.64c46.76-11.97,94.27-22.95,142.75-24.04
					c47.07-1.06,92.56,9.86,138.33,19.31c43.64,9.01,88.28,15.89,132.65,7.92c49.27-8.84,95.35-31.62,145.67-35.17
					C702.28,371.32,702.31,366.86,699.43,367.06L699.43,367.06z"/>
			</g>
		</g>
	</g>
</g>
<g>
	<g>
		<path class="st53" d="M492.46,225.73c35.96,0.09,71.77,4.69,107.74,3.99c0.96-0.02,0.97-1.52,0-1.5
			c-35.98,0.7-71.78-3.9-107.74-3.99C491.49,224.23,491.49,225.73,492.46,225.73L492.46,225.73z"/>
	</g>
</g>
<g>
	<g>
		<path class="st53" d="M490.46,239.7c6.98,0,13.97,0,20.95,0c0.97,0,0.97-1.5,0-1.5c-6.98,0-13.97,0-20.95,0
			C489.5,238.2,489.49,239.7,490.46,239.7L490.46,239.7z"/>
	</g>
</g>
<g>
	<g>
		<path class="st53" d="M519.17,215.75c18.3-0.3,36.57,0.93,54.87,1c0.97,0,0.97-1.5,0-1.5c-18.3-0.07-36.57-1.3-54.87-1
			C518.21,214.27,518.2,215.77,519.17,215.75L519.17,215.75z"/>
	</g>
</g>
<g class="st5">
	<g>
		<g>
			<path class="st6" d="M511.68,446.8c-0.43,0.49-0.86,0.99-1.29,1.48c-0.85,0.98-0.86,2.41,0.22,3.25
				c0.48,0.37,1.01,0.51,1.61,0.43c0.73-0.1,1.15-0.47,1.59-1.04c0.4-0.52,0.8-1.03,1.2-1.55c0.64-0.83,0.2-2.16-0.55-2.73
				C513.67,446.03,512.37,446,511.68,446.8L511.68,446.8z"/>
		</g>
	</g>
	<g>
		<g>
			<path class="st6" d="M465.47,427.15c0.14-0.25,0.01-0.14-0.36,0.32c-0.28,0.07-0.55,0.15-0.83,0.22c0.02,0,0.05,0,0.07,0
				c-0.28-0.08-0.57-0.15-0.85-0.23c0.49,0.25,0.86,0.28,1.4,0.2c-0.33,0.03-0.4,0.05-0.21,0.04c-0.31-0.05-0.39-0.06-0.25-0.03
				c0.14,0.04,0.06,0.01-0.22-0.1c0.06,0.02,0.11,0.05,0.16,0.09c-0.29-0.16-0.48-0.42-0.58-0.76c-0.02-0.35-0.04-0.42-0.05-0.22
				c-0.08,0.95,0.9,1.87,1.82,1.82c1.06-0.05,1.73-0.8,1.82-1.82c0.11-1.28-1-2.35-2.2-2.51c-0.56-0.08-1.17-0.02-1.66,0.29
				c-0.25,0.15-0.48,0.38-0.63,0.63c-0.06,0.14-0.12,0.28-0.18,0.42c0.11-0.18,0.22-0.37,0.33-0.55c0,0.02-0.25,0.31-0.32,0.44
				c-0.08,0.16-0.16,0.34-0.21,0.52c-0.21,0.78,0.2,1.59,0.93,1.9C464.16,428.1,465.11,427.87,465.47,427.15L465.47,427.15z"/>
		</g>
	</g>
	<g>
		<g>
			<path class="st6" d="M465.57,462.06c0.88,1.7,1.72,3.3,2.84,4.85c0.81,1.12,2.82,0.5,2.37-1c-0.6-1.95-1.42-3.71-2.3-5.55
				C467.56,458.42,464.57,460.12,465.57,462.06L465.57,462.06z"/>
		</g>
	</g>
	<g>
		<g>
			<path class="st6" d="M391.65,429.31c1.58,0.97,3.17,1.93,4.75,2.9c1.55,0.95,2.98-1.5,1.43-2.44c-1.59-0.96-3.18-1.91-4.77-2.87
				C391.52,425.98,390.12,428.37,391.65,429.31L391.65,429.31z"/>
		</g>
	</g>
	<g>
		<g>
			<path class="st6" d="M405.59,468.84c1,0.23,1.98,0.45,3,0.54c0.74,0.07,1.4-0.63,1.48-1.31c0.09-0.78-0.36-1.39-1.08-1.66
				c-0.83-0.31-1.68-0.48-2.55-0.68c-0.82-0.19-1.78,0.25-1.98,1.12C404.28,467.68,404.71,468.64,405.59,468.84L405.59,468.84z"/>
		</g>
	</g>
	<g>
		<g>
			<path class="st6" d="M313.89,453.06c1.12-0.48,2.41-0.02,3.2,0.82c1.43,1.53,3.76-0.79,2.3-2.3c-1.89-1.96-4.67-2.34-7.11-1.27
				c-0.79,0.35-0.96,1.49-0.57,2.17C312.18,453.31,313.1,453.4,313.89,453.06L313.89,453.06z"/>
		</g>
	</g>
	<g>
		<g>
			<path class="st6" d="M300.51,417.01c1.99-0.2,3.96-0.34,5.91-0.81c1.59-0.38,1.18-2.71-0.38-2.77c-1.86-0.07-3.68,0.15-5.54,0.33
				c-0.88,0.09-1.62,0.69-1.63,1.63C298.88,416.2,299.64,417.1,300.51,417.01L300.51,417.01z"/>
		</g>
	</g>
	<g>
		<g>
			<path class="st6" d="M177.66,411.79c0.57,0.13,1.14,0.26,1.72,0.39c0.86,0.19,1.87-0.26,2.07-1.18c0.2-0.86-0.26-1.87-1.18-2.07
				c-0.57-0.13-1.14-0.26-1.72-0.39c-0.86-0.19-1.87,0.26-2.07,1.18C176.28,410.57,176.74,411.58,177.66,411.79L177.66,411.79z"/>
		</g>
	</g>
	<g>
		<g>
			<path class="st6" d="M186.39,444.81c2.29,0.51,4.58,1.01,6.87,1.52c2.51,0.55,3.58-3.27,1.06-3.86c-2.28-0.53-4.57-1.06-6.85-1.6
				C184.91,440.28,183.82,444.24,186.39,444.81L186.39,444.81z"/>
		</g>
	</g>
	<g>
		<g>
			<path class="st6" d="M111.67,404.5c2.29,0.52,4.58,1.04,6.86,1.56c1.57,0.36,2.24-2.06,0.67-2.42c-2.29-0.52-4.58-1.04-6.86-1.56
				C110.76,401.72,110.09,404.14,111.67,404.5L111.67,404.5z"/>
		</g>
	</g>
	<g>
		<g>
			<path class="st6" d="M121.94,448.65c2.39,0.29,4.65,0.53,7.06,0.41c1.6-0.09,2.06-2.46,0.39-2.89c-2.48-0.64-4.9-0.85-7.45-1.05
				C119.64,444.94,119.73,448.38,121.94,448.65L121.94,448.65z"/>
		</g>
	</g>
	<g>
		<g>
			<path class="st6" d="M167.13,507.13c1.73-0.74,3.45-1.47,5.12-2.33c1.83-0.94,0.55-4.12-1.42-3.37c-1.91,0.73-3.75,1.58-5.6,2.44
				c-0.92,0.43-1.15,1.76-0.68,2.58C165.12,507.42,166.19,507.53,167.13,507.13L167.13,507.13z"/>
		</g>
	</g>
	<g>
		<g>
			<path class="st6" d="M271.15,431.26c1.44-0.16,2.75,0.4,3.68,1.51c1.3,1.55,3.92-0.48,2.8-2.16c-1.59-2.41-4.15-3.38-6.96-2.89
				C268.69,428.06,269.13,431.49,271.15,431.26L271.15,431.26z"/>
		</g>
	</g>
	<g>
		<g>
			<path class="st6" d="M269.85,483.89c1.12,1.74,2.24,3.49,3.37,5.23c1.43,2.22,4.96,0.19,3.56-2.08
				c-1.09-1.76-2.18-3.53-3.27-5.29C272.08,479.43,268.38,481.59,269.85,483.89L269.85,483.89z"/>
		</g>
	</g>
	<g>
		<g>
			<path class="st6" d="M405.4,508.05c1.02,2.06,1.99,4.13,3.19,6.08c0.93,1.51,3.75,0.52,3.01-1.27c-0.93-2.26-2.09-4.39-3.22-6.55
				C407.34,504.33,404.42,506.08,405.4,508.05L405.4,508.05z"/>
		</g>
	</g>
	<g>
		<g>
			<path class="st6" d="M502.65,500.08c0.7,0.47,1.39,0.93,2.09,1.4c0.72,0.48,1.58,0.74,2.38,1.06c1.44,0.57,2.3-1.45,1.41-2.43
				c-0.61-0.67-1.18-1.3-1.92-1.83c-0.69-0.49-1.37-0.97-2.06-1.46c-0.83-0.59-2.09-0.15-2.58,0.68
				C501.43,498.43,501.8,499.51,502.65,500.08L502.65,500.08z"/>
		</g>
	</g>
	<g>
		<g>
			<path class="st6" d="M562.2,445.28c-0.02,1.47,0.27,2.84,0.66,4.25c0.56,2.01,3.53,1.16,3.1-0.86c-0.3-1.43-0.69-2.74-1.39-4.04
				C563.97,443.5,562.22,444.05,562.2,445.28L562.2,445.28z"/>
		</g>
	</g>
	<g>
		<g>
			<path class="st6" d="M567.85,425.43c-0.09,0.67-0.06,1.15,0.18,1.75c0.42,1.05,1.6,1.47,2.49,0.66c0.45-0.41,0.76-0.81,0.96-1.41
				c0.3-0.94-0.35-2.1-1.32-2.32C569.28,423.92,568,424.39,567.85,425.43L567.85,425.43z"/>
		</g>
	</g>
	<g>
		<g>
			<path class="st6" d="M509.62,413.69c0.54,0.86,1.08,1.64,1.78,2.38c0.54,0.57,1.56,0.72,2.23,0.29c0.64-0.41,1.14-1.31,0.85-2.08
				c-0.19-0.5-0.36-1.05-0.63-1.51c-0.22-0.39-0.48-0.76-0.71-1.13c-0.57-0.9-1.84-1.34-2.79-0.73
				C509.45,411.48,509.01,412.73,509.62,413.69L509.62,413.69z"/>
		</g>
	</g>
	<g>
		<g>
			<path class="st2" d="M536.16,475.09c-0.43,1.38-0.77,2.74-0.51,4.19c0.21,1.21,1.79,1.12,2.37,0.31c0.76-1.07,0.99-2.4,1.17-3.67
				c0.12-0.84-0.21-1.69-1.1-1.93C537.25,473.77,536.41,474.28,536.16,475.09L536.16,475.09z"/>
		</g>
	</g>
	<g>
		<g>
			<path class="st2" d="M538.17,474.18c-0.19,1.5-0.3,2.98-0.37,4.48c-0.12,2.39,3.72,2.41,3.73,0c0-1.51-0.02-2.98-0.14-4.48
				C541.22,472.08,538.43,472.16,538.17,474.18L538.17,474.18z"/>
		</g>
	</g>
	<g>
		<g>
			<path class="st2" d="M533.85,437.14c0.2,1.85,0.38,3.69,0.61,5.54c0.11,0.89,0.68,1.64,1.65,1.65c0.84,0.01,1.71-0.76,1.65-1.65
				c-0.14-1.85-0.32-3.69-0.49-5.54c-0.08-0.92-0.72-1.71-1.71-1.71C534.71,435.43,533.75,436.22,533.85,437.14L533.85,437.14z"/>
		</g>
	</g>
	<g>
		<g>
			<path class="st2" d="M482.41,438.44c2.64,0.32,5.27,0.7,7.92,0.81c1.88,0.08,2.37-3.03,0.45-3.35c-2.78-0.46-5.57-0.66-8.38-0.91
				C480.17,434.79,480.25,438.18,482.41,438.44L482.41,438.44z"/>
		</g>
	</g>
	<g>
		<g>
			<path class="st2" d="M437.84,449.83c2.49,0.37,4.97,0.94,7.49,0.66c1.65-0.18,2.1-2.4,0.4-2.97c-2.41-0.8-4.93-0.78-7.46-0.93
				C436.46,446.48,435.99,449.55,437.84,449.83L437.84,449.83z"/>
		</g>
	</g>
	<g>
		<g>
			<path class="st2" d="M409.71,412.94c2.07,0.17,4.13,0.34,6.2,0.51c2.31,0.19,2.31-3.43,0-3.61c-2.07-0.16-4.13-0.31-6.2-0.47
				C407.42,409.2,407.44,412.76,409.71,412.94L409.71,412.94z"/>
		</g>
	</g>
	<g>
		<g>
			<path class="st2" d="M339.6,447.69c2.07,0.19,4.13,0.38,6.2,0.56c2.35,0.21,2.37-3.52,0-3.69c-2.07-0.15-4.13-0.3-6.2-0.45
				C337.3,443.95,337.34,447.48,339.6,447.69L339.6,447.69z"/>
		</g>
	</g>
	<g>
		<g>
			<path class="st2" d="M319.03,489c1.92-0.45,3.83-0.9,5.75-1.35c2.5-0.59,1.44-4.5-1.06-3.86c-1.91,0.49-3.81,0.98-5.72,1.46
				C315.58,485.88,316.6,489.57,319.03,489L319.03,489z"/>
		</g>
	</g>
	<g>
		<g>
			<path class="st2" d="M282.55,470.26c0.86,0.19,1.72,0.39,2.57,0.58c1.05,0.24,2.28-0.32,2.53-1.44c0.24-1.05-0.31-2.28-1.44-2.53
				c-0.86-0.19-1.72-0.39-2.57-0.58c-1.05-0.24-2.28,0.32-2.53,1.44C280.88,468.77,281.43,470,282.55,470.26L282.55,470.26z"/>
		</g>
	</g>
	<g>
		<g>
			<path class="st2" d="M222.98,446.59c0.57,0.13,1.14,0.26,1.72,0.39c0.94,0.21,2.04-0.29,2.27-1.29c0.21-0.94-0.28-2.04-1.29-2.27
				c-0.57-0.13-1.14-0.26-1.72-0.39c-0.94-0.21-2.04,0.29-2.27,1.29C221.48,445.26,221.97,446.37,222.98,446.59L222.98,446.59z"/>
		</g>
	</g>
	<g>
		<g>
			<path class="st2" d="M214.56,424.03c2.49,0.58,4.82,1.06,7.38,1.21c1.86,0.11,1.88-2.41,0.41-3c-2.23-0.9-4.41-1.43-6.75-1.95
				C213.16,419.75,212.12,423.47,214.56,424.03L214.56,424.03z"/>
		</g>
	</g>
	<g>
		<g>
			<path class="st2" d="M152.04,434.98c0.85,0.51,1.68,1.05,2.55,1.52c0.88,0.48,1.84,0.81,2.77,1.19c1.41,0.58,2.62-1.61,1.49-2.56
				c-0.77-0.65-1.51-1.34-2.35-1.89c-0.82-0.54-1.69-1.04-2.53-1.55C151.87,430.41,149.94,433.72,152.04,434.98L152.04,434.98z"/>
		</g>
	</g>
	<g>
		<g>
			<path class="st2" d="M177.49,473.5c1.25,0.63,2.47,1.22,3.81,1.65c0.92,0.29,1.96-0.27,2.31-1.14c0.39-0.96,0.01-1.86-0.8-2.45
				c-1-0.73-2.03-1.27-3.13-1.82c-1.02-0.51-2.41-0.3-2.98,0.78C176.19,471.51,176.41,472.95,177.49,473.5L177.49,473.5z"/>
		</g>
	</g>
	<g>
		<g>
			<path class="st2" d="M153.89,506.49c2.01-0.18,4.04-0.31,5.99-0.88c1.91-0.56,1.39-3.14-0.45-3.31
				c-1.86-0.18-3.69,0.05-5.54,0.24c-1.06,0.11-1.98,0.83-1.98,1.98C151.91,505.51,152.82,506.59,153.89,506.49L153.89,506.49z"/>
		</g>
	</g>
	<g>
		<g>
			<path class="st2" d="M257.69,528.09c1.94,0.73,3.88,1.46,5.82,2.18c1.18,0.44,2.56-0.49,2.87-1.63c0.36-1.32-0.45-2.41-1.63-2.87
				c-1.93-0.75-3.87-1.51-5.8-2.26c-1.19-0.47-2.6,0.51-2.92,1.66C255.67,526.5,256.49,527.63,257.69,528.09L257.69,528.09z"/>
		</g>
	</g>
</g>
<g>
	<g>
		<path class="st20" d="M335.39,501.22c18.05,2.36,36.77,4.28,54.98,3.99c1-0.02,1.01-1.58,0-1.56
			c-18.21,0.29-36.93-1.63-54.98-3.99C334.39,499.52,334.4,501.09,335.39,501.22L335.39,501.22z"/>
	</g>
</g>
<g>
	<g>
		<path class="st20" d="M350.51,510.3c9.29,0.05,18.56,0.75,27.85,0.67c1-0.01,1.01-1.57,0-1.56c-9.29,0.09-18.56-0.62-27.85-0.67
			C349.51,508.74,349.51,510.3,350.51,510.3L350.51,510.3z"/>
	</g>
</g>
<g>
	<g>
		<g>
			<path class="st53" d="M372.35,103.94c0,0,12.1-8.05,53.62,12.11c23.65,11.48,43.32,22.8,46.9,26.05
				c3.58,3.24,13.53,23.6-7.1,31.73c-3.57,1.41-60.73-24.47-65.68-26.73C395.15,144.85,342.39,123.66,372.35,103.94z"/>
		</g>
		<g>
			<g>
				<path class="st58" d="M376.14,104.34c1.59-1.13,3.54-1.67,5.9-1.32c5.33,0.8,10.66,1.6,15.99,2.39
					c4.75,0.71,6.45-0.45,11.11,0.71c11.57,2.89,25.33,10.34,35.82,16.02c1.45,0.79,2.9,1.57,4.35,2.36
					c0.53,0.29,1.1,0.62,1.36,1.17c0.64,1.39-1.08,2.62-1.91,3.91c-1.05,1.62-0.69,3.73-0.95,5.64c-0.29,2.1-1.36,3.99-2.4,5.83
					c-2.93,5.16-6.05,10.14-8.86,15.43c-0.88,1.65-1.76,3.3-2.89,4.78c-0.41,0.54-0.94,1.1-1.62,1.16
					c-0.36,0.03-0.72-0.09-1.06-0.21c-4.29-1.51-9.44-2.57-13.24-5.08c-1.67-1.1-3.29-1.92-5.13-2.76c-1.78-0.8-4.94-3.1-6.88-3.1
					c-7.1-2.99-14.27-5.89-21.25-9.17c-6.41-3.01-11.38-10.23-13.28-16.87C369.55,119.5,370.61,108.3,376.14,104.34z"/>
			</g>
		</g>
		<g>
			<path class="st53" d="M331.83,95.97c-13.19,0.31-23.58,7.52-29.44,19.21c-3.09,6.17-3.98,13.18-4.81,20.04
				c-0.91,7.47-1.83,14.94-2.64,22.43c-0.84,7.75-1.55,15.84,0.36,23.49c0.77,3.11,2.59,5.93,2.85,9.04
				c0.16,1.95-0.29,4.26-0.35,6.24c-0.44,13.56-0.54,27.21,0.53,40.74c0.65,8.19,4.41,12.58,5.93,15.61
				c6.74,13.47,90.54,13.48,94.81-0.55c0.62-2.04,5.6-3.99,6.06-18.7c0.7-22.24-2.42-43.61-2.42-43.61
				c10.51-19.2,3.61-74.57,3.61-74.57c-7.87-12.61-38.24-20.36-38.24-20.36S355.82,95.41,331.83,95.97z"/>
		</g>
		<g>
			<path class="st59" d="M391.66,251.41c0,0,1.49,21.64,0.82,32.1c-0.61,9.38-28.84,19.6-47.99,17.45
				c-9.01-1.01-36.34-7.29-36.21-24.22c0.23-28.12,4.39-39.59,20.07-45.48c12.41-4.66,39.87-5.28,55.69,2.34
				C388.12,235.57,391.66,251.41,391.66,251.41z"/>
		</g>
		<g>
			<path class="st59" d="M319.69,278.74c-26.61,40.64-33.24,81.42-37.63,93.43c-7.31,19.98-0.53,26.3,4.33,31.39
				c4.86,5.09,17.02,6.52,24.63-1.65c12.02-12.9,44.69-81.94,46.34-85.83C363.54,301.6,325.7,269.56,319.69,278.74z"/>
		</g>
		<g>
			<path class="st53" d="M311.43,392.83c0.56,0.89,1.08,1.81,1.55,2.76c0.9,1.82,1.22,3.87,1.49,5.89
				c1.34,10.18,1.62,20.5,0.82,30.73c-1.07,13.81-4.09,27.42-4.67,41.28c-0.39,9.43,2.32,20.01,0.77,29.29
				c-0.02,0.1-2.27,13.41-14.55,3.1c-1.58-1.33-2.2-5.37-3.24-7.15c-2.14-3.66-4.04-6.51-5.5-10.65
				c-3.36-9.54-6.22-19.25-8.56-29.09c-4.68-19.68-7.3-39.85-7.75-60.07c-0.25-11.04,5.85-17.09,16.77-18.06
				C298.2,379.99,306.46,384.97,311.43,392.83z"/>
		</g>
		<g>
			<path class="st53" d="M402.73,283.25c7.52,47.99-3.22,87.89-4.16,100.64c-1.56,21.22-10.34,24.19-16.86,26.82
				c-6.52,2.64-18.2-1.06-21.77-11.64c-5.64-16.71-7.07-93.68-6.98-97.91C353.29,285.43,401.03,272.42,402.73,283.25z"/>
		</g>
		<g>
			<path class="st53" d="M404.24,485.17c1.57,2.6,3.19,5.26,5.57,7.14c2.38,1.89,5.72,2.87,8.51,1.68c3.09-1.31,4.68-4.92,4.68-8.28
				s-1.25-6.57-2.38-9.74c-7.04-19.78-9.62-40.72-14.32-61.1c-3.81-16.52-7.87-38.75-29.95-34.8c-9.95,1.78-14.57,7.4-15.89,14.87
				c-3.21,18.13,13.05,47.17,19.59,58.62c5.09,8.91,10.5,17.63,16.22,26.15c4.64,6.92,10.26,14.22,18.43,15.88
				c0.85,0.17,1.79,0.27,2.54-0.17c0.9-0.52,1.26-1.62,1.46-2.64c1.58-8.01-2.02-16-4.59-23.75c-8.59-25.91-6.07-54.45-16.88-79.75
				c-0.32-0.74-0.67-1.44-1.05-2.09"/>
		</g>
		<g>
			<path class="st60" d="M304.37,252.78c0,0,75.62,1.35,94.53-1.32c0,0,6.05,19.38,4.07,33.38c0,0-25.43,0.22-47.51,16.41h-4.89
				c0,0-35.38-19.36-47.68-18.14C302.9,283.1,301.47,268.42,304.37,252.78z"/>
		</g>
		<path class="st54" d="M408.73,289.2c-0.69-2.36-3.58,2.91-5.34,1.35c-7.91-7.05-22.95-4.49-31.89-1.39
			c-11.53,4.01-30.81,10.58-30.5,23.79c0.1,4.48,0.47,8.95,0.76,13.42c0.39,5.91,4.99,38.99,10.53,65.19
			c0.7,3.32,1.87,6.32,2.79,9.59s2.97,6.39,6.09,7.74c2.34,1.01,4.98,0.93,7.52,0.79c8.06-0.45,15.33-2.57,23.28-3.31
			c3.95-0.37,8.24-1.33,10.65-4.48c2.02-2.64,2.24-6.19,2.38-9.51c0.58-13.66,1.16-27.32,1.74-40.99
			c0.57-13.38,4.22-33.81,3.39-47.3C409.88,299.81,410.14,294,408.73,289.2z M397.24,347.9h-30.94v-2.67h30.94V347.9z
			 M397.24,340.84h-30.94v-5.89h30.94V340.84z"/>
		<g>
			<path class="st53" d="M476.82,147.35c0.07,0.17,0.14,0.35,0.21,0.52c4.39,11.11,1.14,23.61-2.14,35.1
				c-4.32,15.13-9.37,29.8-14.95,44.52c0,0-16.11,9.99-15.45-2.73c0.49-9.49,0.59-26.06,0.97-43.14c0.21-9.3-1.21-19.03,1.96-27.86
				c1.92-5.35,6.65-14.1,12.95-14.96c2.34-0.32,4.69,0.27,6.97,0.88c1.97,0.53,3.98,1.11,5.63,2.33
				C474.75,143.33,475.94,145.3,476.82,147.35z"/>
		</g>
		<path class="st54" d="M298.47,251.77c0,0-3.13,39.73-2.52,48.38c2.02,28.94,108.18,21.3,110.7,4.48
			c1.89-12.6-5.15-53.17-5.15-53.17L298.47,251.77z"/>
		<path class="st54" d="M306.92,275.04c-1.49,1.57-2.76,3.57-3.76,6.05c-11.78,29.38-22.28,69.31-31.39,99.62
			c-0.48,1.58-1.23,6.25-0.52,7.75c1.56,3.29,8.01,5.08,11.3,5.3c3.49,0.24,5.62,1.4,8.69,2.62c5.82,2.31,12.58,2.27,18.57,4.26
			c4.46,1.48,5.82,0.87,7.93-3.25c1.76-3.44,3.46-6.87,5.27-10.25c2.18-4.08,3.76-8.42,5.94-12.5c2.54-4.76,5-9.56,7.47-14.36
			c5.51-10.7,11.3-21.37,16.23-32.35C363.27,304.21,322.87,258.25,306.92,275.04z"/>
		<g>
			<g>
				<path class="st53" d="M213.36,77.92c0.49-2.32-5.16-24.32-6.22-27.8c-0.66-2.15-3.55-1.33-3.7-0.31
					c-0.45,3.08,0.27,13.18,0.39,14.39C203.96,65.4,212.47,82.12,213.36,77.92z"/>
			</g>
			<g>
				<path class="st53" d="M218.31,78.35c0.02,0.07,0.05,0.14,0.07,0.21c0.82,2.48,1.05,4.42-1.38,6.06
					c-4.22,2.85-9.12-0.61-11.87-3.87c-2.61-3.1-4.98-7.17-6.98-10.71c-2.6-4.61-4.76-9.46-6.44-14.48
					c-0.63-1.88-1.19-3.92-0.55-5.8c1-2.96,4.47-4.21,7.55-4.71c5.81-0.95,11.82-0.63,17.5,0.93c1.08,0.3,2.21,0.71,2.67,1.82
					c0.1,0.25-0.21,3.11,0.04,3.05c1.32-0.36,3.71-0.43,4.5,1.03c1.15,2.14-1.18,2.52-2.04,3.73c-1.55,2.19-0.46,5.7-0.45,8.17
					c0.02,2.71-0.48,5.4-2.3,7.52C216.13,74.21,217.23,75.19,218.31,78.35z"/>
			</g>
			<g>
				<path class="st53" d="M320.86,120.01c0,0-13.97-8.79-46.96-6.04c-21.79,1.82-31.41,6.91-35.15,8.36
					c-3.74,1.45-21.83,14.92-8.25,27.4c2.35,2.16,54.44-0.85,58.95-1.13C293.96,148.33,338.22,144.26,320.86,120.01z"/>
			</g>
			<g>
				<path class="st53" d="M228.73,147.64c0,0-8.6-15.3-13.31-29.68c-4.71-14.38-10.85-38.84-10.85-38.84s6.69-15.56,12.72-5.9
					c4.5,7.21,13.17,21.97,21.62,34.67c13.51,20.28,17.63,31.43,7.88,37.46C235.52,152.32,228.73,147.64,228.73,147.64z"/>
			</g>
			<g>
				<g>
					<path class="st58" d="M320.89,112.96c-1.58-2.23,9.38-9.29,6.27-9.85c-9-1.62-18.21-0.79-27.24,0.03
						c-9.41,0.85-31.98,8.49-41.38,9.34c-0.86,0.08-1.77,0.18-2.44,0.71c-0.71,0.56-1.01,1.49-1.28,2.36
						c-1.21,4.04-2.42,8.08-3.63,12.11c-0.82,2.73-1.64,5.65-0.86,8.4c0.31,1.08,0.87,2.1,1.01,3.22c0.19,1.47-0.37,2.93-0.49,4.41
						c-0.34,4.19,2.98,8.03,6.93,9.44c4.47,1.59,9.7,0.47,14.33,0.4c4.01-0.06,8.16-0.95,12.14-1.44
						c7.76-0.97,15.56-1.83,23.27-3.12c10.12-1.69,16.2-15.39,16.2-24.41c0-3.42-0.63-7.04-2.04-10.18
						C321.44,113.83,321.17,113.36,320.89,112.96z"/>
				</g>
			</g>
		</g>
		<g>
			<g>
				<g>
					<g>
						<g>
							<path class="st53" d="M332.95,80.45c0.15,0.47-1.47,24.71-1.47,24.71s22.74,9.46,40.73-0.01l-1.42-25.34L332.95,80.45z"/>
						</g>
					</g>
				</g>
			</g>
		</g>
		<path class="st61" d="M355.04,93.63c-0.35,1.56-1.58,2.92-3.01,3.7c-1.74,0.94-3.75,1.21-5.72,1.42
			c-3.81,0.41-7.64,0.7-11.47,0.86c-1.11,0.05-1.9-0.66-2.92-0.99c0.23-3.53,0.51-7.89,0.73-11.45c3.21,0.58,6.31,1.68,9.47,2.39
			c3.2,0.71,6.79,0.52,10.08,0.68c0.82,0.04,1.73,0.12,2.31,0.69c0.44,0.43,0.62,1.08,0.63,1.7
			C355.15,92.97,355.11,93.3,355.04,93.63z"/>
		<path class="st53" d="M351.68,3.66c-7.03-0.16-14.34,1-20.34,4.87c-4.67,3.01-8.13,7.5-10.22,12.62
			c-0.89,2.17-1.54,4.43-1.99,6.73c-0.2,1-0.39,2.01-0.47,3.03c-0.08,0.88,0.23,1.54-0.16,2.4c-0.45,0.99-2.2-1.2-2.28-0.1
			c-0.3,3.94,0.62,9.14,1.65,10.9c0.24,0.42,0.53,0.81,0.72,1.26c0.43,1.02,0.41,2.33,0.36,3.41c-0.36,8.71-3.59,18.57,0.94,26.72
			c3.51,6.31,15.01,17.24,29.08,17.98c8.77,0.46,19.4-4.35,24.84-9.51c2.98-2.82,5.3-6.18,6.59-10.09c1.43-4.34,1.71-9,1.85-13.54
			c0.08-2.59,0.1-5.18,0.12-7.77c0.01-1.5-0.09-4.07-0.09-5.57c1.9-1.94,1.98-5.85,2.11-7.3c0.14-1.45,0.41-9-0.55-10.09
			c-0.22-0.25-1.08,5.52-1.27,5.24c-0.37-0.56-0.1-1.11-0.13-1.72c-0.02-0.49-0.04-0.99-0.08-1.48c-0.06-0.98-0.14-1.96-0.25-2.93
			c-0.21-1.91-0.52-3.8-0.99-5.67c-0.9-3.6-2.41-7.06-4.78-9.94c-2.65-3.22-6.24-5.49-10.13-6.93
			C361.61,4.46,356.58,3.77,351.68,3.66z"/>
		<path class="st41" d="M316.11,32.18c0.03-2.06,0.19-4.14,0.52-6.18c0.42-2.59,0.92-5.36,1.91-7.79c1.2-2.94,2.84-5.7,4.92-8.11
			c2.45-2.83,5.7-4.89,9.07-6.51c4.35-2.1,9.15-3.12,13.95-3.45c1.68-0.12,3.38-0.18,5.07-0.12c5.8,0.22,11.73,1.14,17.03,3.62
			c5.65,2.64,10.91,7.55,13.43,13.26c1.19,2.69,1.77,5.12,2.27,8.02c0.72,4.17,0.84,7.98,0.36,11.25c-0.02,0.15-0.06,0.32-0.19,0.4
			c-0.13,0.08-0.63-0.11-0.78-0.15c-1.13-0.29-2.25-0.57-3.38-0.86c-0.14-0.04-0.28-0.07-0.39-0.17c-0.16-0.15-0.19-0.38-0.2-0.6
			c-0.07-1.26,0.11-2.54-0.05-3.8c-0.15-1.17-0.62-1.76-1.59-2.41c-1.75-1.17-3.92-1.51-5.95-1.87c-0.19-0.03-0.4-0.07-0.54-0.21
			c-0.17-0.16-0.21-0.42-0.23-0.66c-0.09-1.38,0.25-2.76,0.35-4.14c0.1-1.38-0.08-2.89-1.03-3.91c-0.56-0.6-1.33-0.96-2.1-1.24
			c-2.28-0.84-4.72-1.13-7.14-1.32c-5.22-0.42-10.46-0.43-15.7-0.43c-4.13,0-8.3,0.02-12.36,0.79c-0.75,0.14-1.53,0.33-2.07,0.87
			c-0.87,0.87-0.79,2.28-0.64,3.5c0.16,1.33,0.32,2.66,0.48,3.99c0.07,0.58,0.1,1.27-0.33,1.66c-0.38,0.34-0.95,0.31-1.45,0.28
			c-1.77-0.11-3.7,0.06-5.06,1.2c-1.76,1.48-2.09,4.22-2.43,6.35c-0.02,0.15-0.05,0.31-0.15,0.43c-0.21,0.24-0.59,0.17-0.9,0.16
			c-0.6-0.02-1.16,0.23-1.74,0.36c-0.74,0.17-1.53,0.13-2.26-0.12c-0.21-0.07-0.43-0.17-0.55-0.35c-0.12-0.18-0.13-0.41-0.13-0.63
			C316.11,32.93,316.11,32.55,316.11,32.18z"/>
		<path class="st53" d="M314.06,56.45c1.74,2.77,8.39,8.73,11.01,4.4c1.34-2.22-0.66-4.86-1.7-6.76c-0.3-0.55-0.61-1.11-0.91-1.66
			c0.97,1.77,3.73,0.17,2.83-1.72c-1.43-3.04-5.48-12.57-10.27-8.96C311.14,44.68,310.1,50.17,314.06,56.45z"/>
		
			<ellipse transform="matrix(0.0382 -0.9993 0.9993 0.0382 271.8776 379.8685)" class="st41" cx="333.28" cy="48.7" rx="3.45" ry="2.26"/>
		<path class="st41" d="M362.66,49.51c-0.07,1.9-1.14,3.41-2.39,3.36c-1.24-0.05-2.19-1.63-2.12-3.53c0.07-1.9,1.14-3.41,2.39-3.36
			C361.79,46.02,362.74,47.6,362.66,49.51z"/>
		<path class="st41" d="M372.79,37.72c-0.45-1.15-1.6-1.73-2.79-2.1c-0.08-0.04-0.13-0.1-0.22-0.12c-5.08-1.53-10.38-1.93-14.9,1.79
			c-1.23,1.01-0.93,3.09,0.63,3.3c3.38,0.46,15.63,1.06,16.95-0.74C372.94,39.2,373.1,38.5,372.79,37.72z"/>
		<path class="st41" d="M342.43,38.06c-0.31-1.05-1.27-1.66-2.28-2.07c-0.06-0.04-0.11-0.1-0.18-0.13
			c-4.35-1.75-8.99-2.53-13.26,0.38c-1.16,0.79-1.06,2.65,0.29,2.96c2.94,0.67,13.68,2.19,14.99,0.7
			C342.44,39.38,342.64,38.77,342.43,38.06z"/>
		<path class="st2" d="M357.41,69.5c-5.63,1.78-11.35,2.36-17.21,1.73c-1.57-0.17-1.99,1.68-0.82,3.26
			c0.01,0.01,0.01,0.03,0.02,0.04c5.67,7.22,15.93,6.67,19.62-2.2c0.05-0.11,0.04-0.21,0.07-0.32
			C359.68,70.94,358.76,69.07,357.41,69.5z"/>
		<g>
			<g>
				<path class="st54" d="M202,517.65c-0.2-0.2-0.4-0.4-0.59-0.59c-0.36-0.36-0.91,0.2-0.55,0.55c0.2,0.2,0.4,0.4,0.59,0.59
					C201.8,518.56,202.36,518.01,202,517.65L202,517.65z"/>
			</g>
		</g>
		<g>
			<g>
				<path class="st62" d="M353.41,267.32c-0.28,21.53,0.15,43.05,1.28,64.55c0.02,0.42,0.68,0.42,0.66,0
					c-1.13-21.5-1.56-43.02-1.28-64.55C354.08,266.9,353.42,266.9,353.41,267.32L353.41,267.32z"/>
			</g>
		</g>
		<g>
			<g>
				<path class="st62" d="M346,293.39c-0.56,9.5,1.51,18.55,6.14,26.86c0.21,0.37,0.77,0.04,0.57-0.33
					c-4.59-8.23-6.61-17.13-6.05-26.53C346.68,292.97,346.02,292.97,346,293.39L346,293.39z"/>
			</g>
		</g>
		<g>
			<g>
				<path class="st62" d="M387.15,280.9c1.74,10.79,6.87,20.34,14.9,27.75c0.31,0.29,0.78-0.18,0.46-0.46
					c-7.95-7.34-13.01-16.78-14.73-27.46C387.72,280.31,387.08,280.49,387.15,280.9L387.15,280.9z"/>
			</g>
		</g>
		<g>
			<g>
				<path class="st62" d="M324.75,281.31c-2,15.62-8.8,30-19.6,41.47c-0.29,0.31,0.17,0.77,0.46,0.46
					c10.93-11.61,17.77-26.12,19.79-41.93C325.46,280.9,324.8,280.9,324.75,281.31L324.75,281.31z"/>
			</g>
		</g>
		<path class="st63" d="M315.19,97.69c1.86,0.01,3.57,0.33,4.45,1.31c3.27,3.65,11.77,10.68,28.69,10.68
			c22.67,0,30.69-7.88,33.17-11.45c0.69-1,1.95-1.44,3.11-1.09c0,0,26.68,7.84,26.69,7.84c0.73,0.21,0.97,20.47,0.98,22.14
			c0.06,9.21,0.13,18.41,0.19,27.62c0.13,18.9,0.27,37.79,0.4,56.69c0.05,7.53,0.11,15.06-0.25,22.58
			c-0.25,5.28-0.7,10.55-0.61,15.83c0.11,6.31,1,12.58,1.69,18.85c1.14,10.37,1.77,21.15-0.81,31.37
			c-2.51,9.9-7.86,8.36-15.48,13.02c-1.38,0.85-3.13,0.64-4.74,0.49c-6.86-0.63-9.06-0.55-15.48,1.95c-3.31,1.29-6.47,2.98-9.9,3.91
			c-14.72,4-29.51-6.64-44.76-6.74c-8.08-0.05-23.26,8.32-28.57-1.02c-1.18-2.08-1.55-4.5-1.91-6.86
			c-1.54-10.27-3.09-20.62-2.5-30.99c0.37-6.48,1.56-12.89,2.01-19.37c0.88-12.84-1.63-25.41-1.88-38.19
			c-0.21-10.51,1.54-21.33,2.25-31.86c0.74-10.97-0.77-21.95-1.08-32.94c-0.28-10.08,0.45-20.19,2.19-30.13
			c1.01-5.81,2.46-11.75,6.02-16.45c2.38-3.15,5.95-5.69,9.87-6.44C310.4,98.14,312.9,97.68,315.19,97.69z"/>
		<path class="st64" d="M316.33,31.18c-0.2,0.58-0.23,1.19-0.25,1.8c-0.09,3.41,0.39,6.83,1.41,10.08c0.19,0.61,0.49,1.29,1.11,1.44
			c0.6,0.14,1.2-0.34,1.44-0.91c0.25-0.57,0.24-1.2,0.33-1.82c0.14-1.08,0.55-2.1,0.85-3.15c0.81-2.82,0.81-5.79,1.28-8.68
			c0.08-0.52,0.18-1.09-0.05-1.57c-0.28-0.58-0.98-0.87-1.62-0.82c-0.64,0.05-1.23,0.38-1.75,0.76c-1.21,0.88-2.19,2.07-2.81,3.43"
			/>
		<path class="st64" d="M384.57,34.43c0.15,0.59,0.14,1.21,0.11,1.81c-0.17,3.4-0.29,7.06-1.9,10.22c-0.29,0.57-0.87,0.97-1.5,1.07
			c-0.61,0.09-1.17-0.43-1.37-1.02c-0.2-0.58-0.15-1.22-0.19-1.83c-0.06-1.09,0.27-9,0.02-11.92c-0.04-0.53-0.1-1.1,0.17-1.56
			c0.32-0.56,1.04-0.79,1.68-0.69c0.64,0.1,1.2,0.47,1.69,0.89c1.14,0.97,0.78,2.2,1.3,3.6"/>
		<g>
			<g>
				<path class="st62" d="M365.97,395.37c8.25,6.08,18.23,8.32,28.29,6.42c0.42-0.08,0.24-0.71-0.17-0.63
					c-9.9,1.87-19.68-0.39-27.78-6.36C365.96,394.55,365.63,395.12,365.97,395.37L365.97,395.37z"/>
			</g>
		</g>
		<g>
			<g>
				<path class="st62" d="M387.41,400.19c2.98-0.23,5.84-0.91,8.6-2.06c0.38-0.16,0.22-0.8-0.17-0.63c-2.71,1.13-5.5,1.81-8.42,2.04
					C386.99,399.57,386.99,400.23,387.41,400.19L387.41,400.19z"/>
			</g>
		</g>
		<g>
			<g>
				<path class="st65" d="M310.74,132.69c7.26,8.36,18.86,10.18,28.11,15.5c11.47,6.6,20.71,16.32,29.74,25.83
					c0.29,0.31,0.76-0.16,0.46-0.46c-8.32-8.76-16.77-17.65-27.01-24.2c-9.81-6.28-23.01-8.12-30.84-17.13
					C310.92,131.91,310.46,132.38,310.74,132.69L310.74,132.69z"/>
			</g>
		</g>
		<g>
			<g>
				<path class="st65" d="M351.32,164c2.2,1.61,4.1,3.53,5.69,5.73c0.25,0.34,0.82,0.01,0.57-0.33c-1.66-2.3-3.64-4.3-5.93-5.97
					C351.31,163.19,350.98,163.76,351.32,164L351.32,164z"/>
			</g>
		</g>
		<g>
			<g>
				<path class="st65" d="M346.33,250.13c-11.18-1.33-22.45,0.02-32.93,4.2c-3.11,1.24-16.68,5.71-9.24,9.43
					c9.25,4.62,20.6,4.92,30.71,4.92c12.56,0,25.15-0.82,37.47,2.21c0.41,0.1,0.59-0.53,0.17-0.63
					c-18.46-4.55-37.54-0.21-56.12-3.51c-2.56-0.46-14.96-2.63-13.16-6.5c0.57-1.23,4.61-2.67,5.83-3.27
					c2.47-1.22,5.03-2.28,7.64-3.18c9.54-3.27,19.62-4.2,29.61-3.01C346.74,250.84,346.74,250.18,346.33,250.13L346.33,250.13z"/>
			</g>
		</g>
		<g>
			<g>
				<path class="st65" d="M321.72,265.38c5.24-0.59,10.43-0.52,15.66,0.23c0.41,0.06,0.59-0.57,0.17-0.63
					c-5.28-0.76-10.53-0.85-15.83-0.25C321.31,264.77,321.3,265.43,321.72,265.38L321.72,265.38z"/>
			</g>
		</g>
		<g>
			<g>
				<path class="st65" d="M304.66,270.15c5.74,3.58,11.98,6.08,18.69,7.12c7.58,1.18,15.39-0.6,22.81,1.59
					c0.41,0.12,0.58-0.51,0.17-0.63c-6.44-1.9-12.99-0.65-19.58-1.2c-7.8-0.65-15.15-3.32-21.76-7.44
					C304.64,269.36,304.31,269.93,304.66,270.15L304.66,270.15z"/>
			</g>
		</g>
		<g>
			<g>
				<path class="st65" d="M352.08,290.14c7.87,3.63,16.42,5.24,25.06,4.24c10.4-1.21,20.1-6.32,30.77-4.79
					c0.41,0.06,0.59-0.57,0.17-0.63c-8.4-1.21-16.1,1.55-24.17,3.48c-10.77,2.58-21.41,1.79-31.51-2.86
					C352.03,289.39,351.69,289.96,352.08,290.14L352.08,290.14z"/>
			</g>
		</g>
		<g>
			<g>
				<path class="st65" d="M386.55,298.74c1.94-0.58,3.89-1.17,5.83-1.75c0.4-0.12,0.23-0.76-0.17-0.63
					c-1.94,0.58-3.89,1.17-5.83,1.75C385.97,298.23,386.14,298.86,386.55,298.74L386.55,298.74z"/>
			</g>
		</g>
		<g>
			<g>
				<path class="st65" d="M405.58,198.5c-12.95,8.37-27.63,13.02-43.03,13.63c-0.42,0.02-0.42,0.67,0,0.66
					c15.51-0.61,30.32-5.3,43.36-13.72C406.26,198.84,405.94,198.27,405.58,198.5L405.58,198.5z"/>
			</g>
		</g>
		<g>
			<g>
				<path class="st65" d="M391.09,211.99c-3.88,0.38-7.43,1.72-10.58,4.01c-0.34,0.25-0.01,0.82,0.33,0.57
					c3.05-2.22,6.49-3.54,10.25-3.92C391.51,212.6,391.51,211.94,391.09,211.99L391.09,211.99z"/>
			</g>
		</g>
		<g>
			<g>
				<path class="st65" d="M299.19,177.35c2.69,4.25,6.98,6.18,11.69,7.54c7.6,2.18,15.39,3.85,23.06,5.74
					c0.41,0.1,0.59-0.53,0.17-0.63c-6.15-1.52-12.3-3.03-18.45-4.56c-5.95-1.48-12.4-2.87-15.91-8.42
					C299.53,176.66,298.96,176.99,299.19,177.35L299.19,177.35z"/>
			</g>
		</g>
		<path class="st20" d="M391.44,559.39c4.23,1.14,11.59-2.39,14.71-4.72c5.04-3.76,9.27-8.49,13.14-13.41
			c3.46-4.41,5.98-6.69,7.74-12.1c0.89-2.68,0-4.79,2.39-6.9c1.52-1.34,2.51-1.5,4.41-0.87c0,0,8.02-5.24,9.71-11.29
			c0.68-2.43-0.01-4.51-1.18-6.45c-0.3-0.51-0.6-1.01-0.89-1.5c-1.19-2.04-2.26-4-3.53-5.98c-1.43-2.28-3.12-4.57-5.51-7.05
			c-0.69-0.72-1.44-1.45-2.26-2.21c-0.47-0.43-8.17-6.15-8.17-6.15s1.38,5.87-2.05,8.23c-2.21,1.52-5.36,0.97-7.8-0.41
			c-0.73-0.4-1.38-0.81-2.24-0.85c-2.43-0.13-7.92,2.89-9.14,4.78c-1.29,2.03,0.1,5.39,1.16,7.25c-0.15,0.32-0.25,0.65-0.35,0.99
			c-0.81,2.89-1.3,5.88-1.91,8.8c-0.31,1.44-0.61,2.87-0.93,4.31c-0.05,0.24-0.1,0.51-0.16,0.78c-0.1,0.51-0.23,1.03-0.44,1.46
			c-0.35,0.68-0.7,1.37-1.04,2.05c-0.76,1.49-1.48,3-2.17,4.53c-0.53,1.15-1.04,2.32-1.52,3.49c-1.42,3.39-2.69,6.85-3.79,10.37
			c-1.88,6.05-4.53,13.56-1.54,19.67c0.1,0.24,0.22,0.46,0.35,0.68C389.17,558.21,390.2,559.06,391.44,559.39z"/>
		<path class="st66" d="M391.44,559.39c4.23,1.14,11.59-2.39,14.71-4.72c5.04-3.76,9.27-8.49,13.14-13.41
			c3.46-4.41,5.98-6.69,7.74-12.1c0.89-2.68,0-4.79,2.39-6.9c1.52-1.34,3.31-0.8,4.41-0.87c1.1-0.07,8.02-5.24,9.71-11.29
			c0.68-2.43-0.01-4.51-1.18-6.45c-0.3-0.51-0.6-1.01-0.89-1.5c-0.41,2.04-0.52,4.49-1.22,5.85c-1.84,3.57-5.58,7.6-6.41,8.17
			c-0.83,0.57-5.68,1.31-7.95,4.71c-2.25,3.39-3.32,8.88-5.01,12.2c-1.71,3.32-9.74,11.92-15.68,17.1
			c-5.95,5.17-10.17,5.93-13.97,6.23c-0.92,0.07-2-0.01-3.13-0.16c0.1,0.24,0.22,0.46,0.35,0.68
			C389.17,558.21,390.2,559.06,391.44,559.39z"/>
		<path class="st21" d="M424.97,510.15c1.96,1.07,9.17-3.82,12.02-10.8c0.4-1.01,0.71-2.08,0.97-3.17
			c-1.43-2.28-3.12-4.57-5.51-7.05c0.06,3.86-0.26,8.34-1.73,11.08C427.68,505.86,423.01,509.06,424.97,510.15z"/>
		<path class="st21" d="M397.11,518.17c4.32-1.33,8.89-1.54,13.23,0.3c1.79,0.77,3.09-1.98,1.29-2.74c-4.25-1.8-8.71-2-13.04-1.07
			c-0.1,0.51-0.23,1.03-0.44,1.46C397.8,516.8,397.45,517.48,397.11,518.17z"/>
		<path class="st21" d="M393.43,526.19c4.74-1.38,9.63-1.97,14.5-0.34c1.83,0.61,3.15-2.13,1.29-2.74
			c-4.82-1.61-9.57-1.46-14.27-0.41C394.42,523.85,393.91,525.03,393.43,526.19z"/>
		<g>
			<path class="st67" d="M403.64,500.81c-0.72-0.01-1.14-0.09-1.19-0.1c-0.27-0.05-0.45-0.31-0.4-0.58c0.05-0.27,0.31-0.45,0.58-0.4
				c0.03,0,2.92,0.5,6.93-1.1c4.21-1.67,8.26-4.18,10.86-6.72c2.54-2.48,4.31-7.87,4.32-7.92c0.09-0.26,0.37-0.4,0.62-0.32
				c0.26,0.09,0.4,0.36,0.32,0.62c-0.07,0.23-1.86,5.67-4.57,8.33c-2.68,2.62-6.86,5.21-11.18,6.93
				C407.17,500.66,404.93,500.84,403.64,500.81z"/>
		</g>
		<g>
			<path class="st67" d="M390.38,553.52c-0.23,0-0.43-0.17-0.48-0.4c-0.05-0.27,0.12-0.53,0.39-0.58
				c10.19-1.99,20.39-9.8,25.99-19.89c1.08-1.94,1.97-4.04,2.83-6.08c0.84-1.98,1.71-4.03,2.76-5.97c0.13-0.24,0.43-0.33,0.67-0.2
				c0.24,0.13,0.33,0.43,0.2,0.67c-1.03,1.89-1.89,3.92-2.72,5.88c-0.87,2.06-1.77,4.18-2.88,6.17
				c-5.73,10.34-16.2,18.34-26.66,20.38C390.45,553.52,390.41,553.52,390.38,553.52z"/>
		</g>
		<g>
			<g>
				<path class="st20" d="M324.15,515.03c-0.14-1.19-0.45-2.41-0.75-3.62c-0.18-0.74-0.4-1.46-0.63-2.18
					c-0.51-3.16-1.57-6.3-2.72-9.31c-0.01-0.03-0.03-0.05-0.05-0.08c-2.34-6.38-9.07-9.87-9.07-9.87s-5.65,7.58-9.51,8.34
					c-2.47,0.48-4.42,0.22-6.02-1.9c-0.47-0.62-0.9-1.21-1.62-1.57c-2.05-1.02-4.51,0-6.27,1.18c-2.15,1.45-1.69,3.99-1.86,6.37
					c-0.01,0.17,0.06,0.29,0.16,0.37c-1.74,1.77-3.59,3.49-5.48,5.18c-0.7,0.63-1.41,1.25-2.13,1.88c-1.31,1.14-2.64,2.27-3.97,3.4
					c-0.73,0.62-1.47,1.25-2.2,1.88c-2.57,2.17-5.11,4.34-7.51,6.57c-8.06,7.47-12.22,14.35-13.02,19.15
					c-0.15,0.9-0.18,1.74-0.09,2.49c0.15,1.41,0.71,2.52,1.67,3.27c3.24,2.58,10.94,2.29,14.52,1.45
					c5.78-1.37,11.23-3.86,16.43-6.68c4.66-2.5,10.33-5.02,13.89-9.05c0.93-1.05,1.35-2.4,2.11-3.57c0.14-0.23,0.31-0.42,0.46-0.6
					c1.25-0.58,2.55-1.06,3.93-1.38c0.81,0.03,1.64,0.14,2.46,0.24c5.78,0.64,12.12-1.48,15.86-6.08
					C324.19,519.08,324.4,517.08,324.15,515.03z"/>
				<path class="st66" d="M322.72,520.9c-3.74,4.61-10.08,6.73-15.86,6.08c-0.82-0.1-1.65-0.21-2.46-0.24
					c-1.37,0.32-2.67,0.8-3.93,1.38c-0.16,0.18-0.32,0.37-0.46,0.6c-0.75,1.17-1.18,2.52-2.11,3.57c-3.56,4.03-9.23,6.55-13.89,9.05
					c-5.2,2.81-10.65,5.31-16.43,6.68c-3.58,0.84-11.28,1.12-14.52-1.45c-0.96-0.76-1.52-1.87-1.67-3.27
					c2.6,0.74,6.47,2.01,11.33,1.75c13.69-0.73,29.25-12.81,31.53-15.07c2.28-2.25,3.79-5.72,9.06-6.39
					c5.26-0.68,7.62,0.37,15.04-3.53c2.5-1.31,4.39-3.17,5.8-5.02C324.4,517.08,324.19,519.08,322.72,520.9z"/>
				<path class="st21" d="M320.25,500.46c-1.59,3.48-3.84,7.5-6.4,9.34c-4.99,3.6-10.36,4.39-9.14,6.15
					c1.24,1.75,9.51,0.58,14.89-4.24c1.1-1,2.11-2.17,3-3.39L320.25,500.46z"/>
				<path class="st21" d="M284.05,515.68c-1.64-2.25-3.68-4.12-5.85-5.87c0.72-0.62,1.43-1.24,2.13-1.88
					c2.29,1.89,4.45,3.92,6.22,6.37C287.65,515.79,285.13,517.16,284.05,515.68z"/>
				<path class="st21" d="M277.71,520.61c-1.79-1.96-3.69-3.8-5.68-5.53c0.73-0.62,1.47-1.25,2.2-1.88c1.93,1.7,3.79,3.51,5.55,5.43
					C281.02,519.99,278.95,521.96,277.71,520.61z"/>
				<g>
					<path class="st67" d="M292.93,505.11c-3.86-0.13-6.33-1.48-6.49-1.56c-0.23-0.13-0.31-0.41-0.18-0.64
						c0.13-0.22,0.41-0.31,0.64-0.18c0.06,0.03,5.57,3.02,12.96,0.29c7.44-2.74,11.53-10.09,11.57-10.16
						c0.12-0.23,0.41-0.31,0.64-0.19c0.23,0.12,0.31,0.41,0.19,0.63c-0.17,0.31-4.29,7.72-12.07,10.59
						C297.46,504.9,294.99,505.18,292.93,505.11z"/>
				</g>
				<g>
					<path class="st67" d="M259.55,542.31c-4.56-0.15-6.52-1.79-6.63-1.89c-0.2-0.17-0.22-0.47-0.05-0.66
						c0.17-0.19,0.46-0.22,0.66-0.05c0.05,0.04,3.88,3.15,13.46,0.76c9.81-2.45,21.63-10.76,21.75-10.85
						c0.21-0.15,0.5-0.1,0.65,0.11c0.15,0.21,0.1,0.5-0.11,0.65c-0.12,0.08-12.08,8.49-22.06,10.99
						C264.11,542.15,261.57,542.37,259.55,542.31z"/>
				</g>
			</g>
		</g>
		<path class="st68" d="M343.95,43.33c-1.04,3.71-1.82,7.49-2.33,11.31c-0.32,2.42-0.38,5.26,1.47,6.84
			c1.53,1.31,3.79,1.23,5.78,0.92c0.59-0.09,1.2-0.21,1.68-0.56c1.06-0.78,1.07-2.33,0.98-3.65"/>
		<path class="st53" d="M389.77,39.86c-5.35-4.72-11.01,6.22-12.98,9.69c-1.23,2.16,1.89,4.3,3.2,2.3
			c-0.41,0.63-0.82,1.25-1.23,1.88c-1.41,2.15-4.02,5.1-2.63,7.85c2.71,5.37,11.13-1.08,13.45-4.21
			C394.83,50.28,394.1,43.68,389.77,39.86z"/>
		<g>
			<g>
				<path class="st69" d="M387.59,46.21c-2.6,1.53-3.21,5.39-3.31,8.13c-0.01,0.32,0.47,0.37,0.55,0.07
					c0.2-0.69,0.57-1.89,1.25-2.26c1.67-0.9,1.59,0.89,1.44,1.77c-0.06,0.35,0.48,0.51,0.54,0.15c0.15-0.89,0.46-3.28-1.14-3.15
					c-1.36,0.11-2.32,2.26-2.63,3.33c0.18,0.02,0.37,0.05,0.55,0.07c0.1-2.5,0.65-6.24,3.03-7.64
					C388.18,46.51,387.9,46.02,387.59,46.21L387.59,46.21z"/>
			</g>
		</g>
	</g>
	<g>
		<defs>
			
				<ellipse id="SVGID_1_" transform="matrix(0.8012 -0.5983 0.5983 0.8012 -274.211 242.1025)" cx="227.3" cy="533.79" rx="43.01" ry="43.01"/>
		</defs>
		<clipPath id="SVGID_2_">
			<use xlink:href="#SVGID_1_"  style="overflow:visible;"/>
		</clipPath>
		<g class="st70">
			
				<ellipse transform="matrix(0.8012 -0.5983 0.5983 0.8012 -274.211 242.1025)" class="st2" cx="227.3" cy="533.79" rx="43.01" ry="43.01"/>
		</g>
		<g class="st70">
			<path class="st71" d="M234.44,544.42l-10.29,2.95c-1.26,0.36-2.62-0.13-3.35-1.22l-5.99-8.88c-0.74-1.09-0.69-2.53,0.12-3.57
				l6.59-8.44c0.81-1.04,2.19-1.43,3.43-0.98l10.06,3.66c1.24,0.45,2.04,1.64,2,2.96l-0.37,10.7
				C236.59,542.92,235.7,544.06,234.44,544.42z"/>
		</g>
		<g class="st70">
			<path class="st71" d="M170.92,533.7l9.13-5.59c1.12-0.69,2.56-0.57,3.56,0.28l8.14,6.96c1,0.85,1.34,2.26,0.83,3.47l-4.1,9.89
				c-0.5,1.21-1.73,1.97-3.04,1.86l-10.68-0.84c-1.31-0.1-2.41-1.04-2.71-2.32l-2.5-10.42C169.25,535.71,169.8,534.38,170.92,533.7z
				"/>
		</g>
		<g class="st70">
			<path class="st71" d="M251.09,551.52l10.1-3.58c1.24-0.44,2.62-0.03,3.42,1.01l6.52,8.5c0.8,1.04,0.84,2.48,0.09,3.57l-6.06,8.83
				c-0.74,1.08-2.1,1.56-3.36,1.19l-10.27-3.04c-1.26-0.37-2.14-1.52-2.17-2.83l-0.28-10.71
				C249.03,553.14,249.85,551.96,251.09,551.52z"/>
		</g>
		<g class="st70">
			<path class="st71" d="M250.97,512.31l-0.28-10.71c-0.03-1.31,0.78-2.5,2.02-2.94l10.1-3.58c1.24-0.44,2.62-0.03,3.42,1.01
				l6.52,8.5c0.8,1.04,0.84,2.48,0.09,3.57l-6.07,8.83c-0.74,1.08-2.1,1.56-3.36,1.19l-10.27-3.04
				C251.88,514.76,251.01,513.62,250.97,512.31z"/>
		</g>
		<g class="st70">
			<path class="st71" d="M201.04,483.1l10.29-2.95c1.26-0.36,2.62,0.13,3.35,1.22l5.99,8.88c0.74,1.09,0.69,2.53-0.12,3.57
				l-6.59,8.44c-0.81,1.04-2.19,1.43-3.43,0.98l-10.07-3.66c-1.24-0.45-2.04-1.64-2-2.96l0.37-10.7
				C198.89,484.6,199.77,483.46,201.04,483.1z"/>
		</g>
		<g class="st70">
			<path class="st71" d="M200.7,586.08l-1.12-10.65c-0.14-1.31,0.58-2.56,1.78-3.09l9.78-4.36c1.2-0.54,2.61-0.24,3.49,0.74
				l7.17,7.96c0.88,0.98,1.03,2.41,0.37,3.55l-5.35,9.28c-0.66,1.14-1.97,1.72-3.26,1.45l-10.48-2.23
				C201.8,588.45,200.84,587.38,200.7,586.08z"/>
		</g>
	</g>
</g>
<g>
	<g>
		<path class="st2" d="M293.37,541.45c5.47,0,10.94,0,16.41,0c0.97,0,0.97-1.5,0-1.5c-5.47,0-10.94,0-16.41,0
			C292.4,539.95,292.4,541.45,293.37,541.45L293.37,541.45z"/>
	</g>
</g>
<g>
	<g>
		<path class="st2" d="M280.12,551.53c10.72-0.69,21.61-0.1,32.34,0.09c12.42,0.21,24.84,0.48,37.25,0.83c0.97,0.03,0.96-1.47,0-1.5
			c-12.41-0.35-24.83-0.62-37.25-0.83c-10.73-0.18-21.62-0.78-32.34-0.09C279.17,550.1,279.16,551.6,280.12,551.53L280.12,551.53z"
			/>
	</g>
</g>
<g>
	<g>
		<path class="st2" d="M283.17,560.96c10.73-0.08,21.52-1.51,32.17,0.42c0.94,0.17,1.35-1.27,0.4-1.45
			c-10.79-1.95-21.69-0.55-32.57-0.47C282.2,559.46,282.2,560.96,283.17,560.96L283.17,560.96z"/>
	</g>
</g>
</svg>
